<?xml version="1.0" encoding="utf-8"?>
<svg xmlns="http://www.w3.org/2000/svg" xmlns:xlink="http://www.w3.org/1999/xlink" width="600" height="400" viewBox="0 0 2400 1600">
<defs>
  <clipPath id="clip800">
    <rect x="0" y="0" width="2400" height="1600"/>
  </clipPath>
</defs>
<path clip-path="url(#clip800)" d="
M0 1600 L2400 1600 L2400 0 L0 0  Z
  " fill="#ffffff" fill-rule="evenodd" fill-opacity="1"/>
<defs>
  <clipPath id="clip801">
    <rect x="480" y="0" width="1681" height="1600"/>
  </clipPath>
</defs>
<path clip-path="url(#clip800)" d="
M156.112 1486.45 L2352.76 1486.45 L2352.76 123.472 L156.112 123.472  Z
  " fill="#ffffff" fill-rule="evenodd" fill-opacity="1"/>
<defs>
  <clipPath id="clip802">
    <rect x="156" y="123" width="2198" height="1364"/>
  </clipPath>
</defs>
<polyline clip-path="url(#clip802)" style="stroke:#000000; stroke-linecap:butt; stroke-linejoin:round; stroke-width:2; stroke-opacity:0.1; fill:none" points="
  377.689,1486.45 377.689,123.472 
  "/>
<polyline clip-path="url(#clip802)" style="stroke:#000000; stroke-linecap:butt; stroke-linejoin:round; stroke-width:2; stroke-opacity:0.1; fill:none" points="
  776.21,1486.45 776.21,123.472 
  "/>
<polyline clip-path="url(#clip802)" style="stroke:#000000; stroke-linecap:butt; stroke-linejoin:round; stroke-width:2; stroke-opacity:0.1; fill:none" points="
  1174.73,1486.45 1174.73,123.472 
  "/>
<polyline clip-path="url(#clip802)" style="stroke:#000000; stroke-linecap:butt; stroke-linejoin:round; stroke-width:2; stroke-opacity:0.1; fill:none" points="
  1573.25,1486.45 1573.25,123.472 
  "/>
<polyline clip-path="url(#clip802)" style="stroke:#000000; stroke-linecap:butt; stroke-linejoin:round; stroke-width:2; stroke-opacity:0.1; fill:none" points="
  1971.77,1486.45 1971.77,123.472 
  "/>
<polyline clip-path="url(#clip800)" style="stroke:#000000; stroke-linecap:butt; stroke-linejoin:round; stroke-width:4; stroke-opacity:1; fill:none" points="
  156.112,1486.45 2352.76,1486.45 
  "/>
<polyline clip-path="url(#clip800)" style="stroke:#000000; stroke-linecap:butt; stroke-linejoin:round; stroke-width:4; stroke-opacity:1; fill:none" points="
  377.689,1486.45 377.689,1467.55 
  "/>
<polyline clip-path="url(#clip800)" style="stroke:#000000; stroke-linecap:butt; stroke-linejoin:round; stroke-width:4; stroke-opacity:1; fill:none" points="
  776.21,1486.45 776.21,1467.55 
  "/>
<polyline clip-path="url(#clip800)" style="stroke:#000000; stroke-linecap:butt; stroke-linejoin:round; stroke-width:4; stroke-opacity:1; fill:none" points="
  1174.73,1486.45 1174.73,1467.55 
  "/>
<polyline clip-path="url(#clip800)" style="stroke:#000000; stroke-linecap:butt; stroke-linejoin:round; stroke-width:4; stroke-opacity:1; fill:none" points="
  1573.25,1486.45 1573.25,1467.55 
  "/>
<polyline clip-path="url(#clip800)" style="stroke:#000000; stroke-linecap:butt; stroke-linejoin:round; stroke-width:4; stroke-opacity:1; fill:none" points="
  1971.77,1486.45 1971.77,1467.55 
  "/>
<path clip-path="url(#clip800)" d="M322.713 1544.91 L330.352 1544.91 L330.352 1518.55 L322.042 1520.21 L322.042 1515.95 L330.305 1514.29 L334.981 1514.29 L334.981 1544.91 L342.62 1544.91 L342.62 1548.85 L322.713 1548.85 L322.713 1544.91 Z" fill="#000000" fill-rule="evenodd" fill-opacity="1" /><path clip-path="url(#clip800)" d="M352.203 1548.13 L352.203 1543.87 Q353.963 1544.7 355.768 1545.14 Q357.574 1545.58 359.31 1545.58 Q363.939 1545.58 366.37 1542.48 Q368.824 1539.36 369.171 1533.01 Q367.828 1535.01 365.768 1536.07 Q363.708 1537.13 361.208 1537.13 Q356.023 1537.13 352.99 1534.01 Q349.981 1530.86 349.981 1525.42 Q349.981 1520.1 353.129 1516.88 Q356.277 1513.66 361.509 1513.66 Q367.504 1513.66 370.652 1518.27 Q373.824 1522.85 373.824 1531.6 Q373.824 1539.77 369.935 1544.66 Q366.069 1549.52 359.518 1549.52 Q357.759 1549.52 355.953 1549.17 Q354.148 1548.82 352.203 1548.13 M361.509 1533.48 Q364.657 1533.48 366.486 1531.32 Q368.338 1529.17 368.338 1525.42 Q368.338 1521.7 366.486 1519.54 Q364.657 1517.37 361.509 1517.37 Q358.361 1517.37 356.509 1519.54 Q354.68 1521.7 354.68 1525.42 Q354.68 1529.17 356.509 1531.32 Q358.361 1533.48 361.509 1533.48 Z" fill="#000000" fill-rule="evenodd" fill-opacity="1" /><path clip-path="url(#clip800)" d="M382.365 1548.13 L382.365 1543.87 Q384.125 1544.7 385.93 1545.14 Q387.736 1545.58 389.472 1545.58 Q394.101 1545.58 396.532 1542.48 Q398.986 1539.36 399.333 1533.01 Q397.99 1535.01 395.93 1536.07 Q393.87 1537.13 391.37 1537.13 Q386.185 1537.13 383.152 1534.01 Q380.143 1530.86 380.143 1525.42 Q380.143 1520.1 383.291 1516.88 Q386.439 1513.66 391.671 1513.66 Q397.666 1513.66 400.814 1518.27 Q403.986 1522.85 403.986 1531.6 Q403.986 1539.77 400.097 1544.66 Q396.231 1549.52 389.68 1549.52 Q387.921 1549.52 386.115 1549.17 Q384.31 1548.82 382.365 1548.13 M391.671 1533.48 Q394.819 1533.48 396.648 1531.32 Q398.499 1529.17 398.499 1525.42 Q398.499 1521.7 396.648 1519.54 Q394.819 1517.37 391.671 1517.37 Q388.523 1517.37 386.671 1519.54 Q384.842 1521.7 384.842 1525.42 Q384.842 1529.17 386.671 1531.32 Q388.523 1533.48 391.671 1533.48 Z" fill="#000000" fill-rule="evenodd" fill-opacity="1" /><path clip-path="url(#clip800)" d="M412.435 1514.29 L430.791 1514.29 L430.791 1518.22 L416.717 1518.22 L416.717 1526.7 Q417.735 1526.35 418.754 1526.19 Q419.773 1526 420.791 1526 Q426.578 1526 429.958 1529.17 Q433.337 1532.34 433.337 1537.76 Q433.337 1543.34 429.865 1546.44 Q426.393 1549.52 420.073 1549.52 Q417.898 1549.52 415.629 1549.15 Q413.384 1548.78 410.976 1548.04 L410.976 1543.34 Q413.06 1544.47 415.282 1545.03 Q417.504 1545.58 419.981 1545.58 Q423.985 1545.58 426.323 1543.48 Q428.661 1541.37 428.661 1537.76 Q428.661 1534.15 426.323 1532.04 Q423.985 1529.94 419.981 1529.94 Q418.106 1529.94 416.231 1530.35 Q414.379 1530.77 412.435 1531.65 L412.435 1514.29 Z" fill="#000000" fill-rule="evenodd" fill-opacity="1" /><path clip-path="url(#clip800)" d="M724.821 1544.91 L741.14 1544.91 L741.14 1548.85 L719.196 1548.85 L719.196 1544.91 Q721.858 1542.16 726.441 1537.53 Q731.048 1532.88 732.228 1531.53 Q734.474 1529.01 735.353 1527.27 Q736.256 1525.51 736.256 1523.82 Q736.256 1521.07 734.312 1519.33 Q732.39 1517.6 729.289 1517.6 Q727.09 1517.6 724.636 1518.36 Q722.205 1519.13 719.428 1520.68 L719.428 1515.95 Q722.252 1514.82 724.705 1514.24 Q727.159 1513.66 729.196 1513.66 Q734.566 1513.66 737.761 1516.35 Q740.955 1519.03 740.955 1523.52 Q740.955 1525.65 740.145 1527.57 Q739.358 1529.47 737.252 1532.07 Q736.673 1532.74 733.571 1535.95 Q730.469 1539.15 724.821 1544.91 Z" fill="#000000" fill-rule="evenodd" fill-opacity="1" /><path clip-path="url(#clip800)" d="M760.955 1517.37 Q757.344 1517.37 755.515 1520.93 Q753.71 1524.47 753.71 1531.6 Q753.71 1538.71 755.515 1542.27 Q757.344 1545.82 760.955 1545.82 Q764.589 1545.82 766.395 1542.27 Q768.224 1538.71 768.224 1531.6 Q768.224 1524.47 766.395 1520.93 Q764.589 1517.37 760.955 1517.37 M760.955 1513.66 Q766.765 1513.66 769.821 1518.27 Q772.9 1522.85 772.9 1531.6 Q772.9 1540.33 769.821 1544.94 Q766.765 1549.52 760.955 1549.52 Q755.145 1549.52 752.066 1544.94 Q749.011 1540.33 749.011 1531.6 Q749.011 1522.85 752.066 1518.27 Q755.145 1513.66 760.955 1513.66 Z" fill="#000000" fill-rule="evenodd" fill-opacity="1" /><path clip-path="url(#clip800)" d="M791.117 1517.37 Q787.506 1517.37 785.677 1520.93 Q783.872 1524.47 783.872 1531.6 Q783.872 1538.71 785.677 1542.27 Q787.506 1545.82 791.117 1545.82 Q794.751 1545.82 796.557 1542.27 Q798.385 1538.71 798.385 1531.6 Q798.385 1524.47 796.557 1520.93 Q794.751 1517.37 791.117 1517.37 M791.117 1513.66 Q796.927 1513.66 799.983 1518.27 Q803.061 1522.85 803.061 1531.6 Q803.061 1540.33 799.983 1544.94 Q796.927 1549.52 791.117 1549.52 Q785.307 1549.52 782.228 1544.94 Q779.173 1540.33 779.173 1531.6 Q779.173 1522.85 782.228 1518.27 Q785.307 1513.66 791.117 1513.66 Z" fill="#000000" fill-rule="evenodd" fill-opacity="1" /><path clip-path="url(#clip800)" d="M821.279 1517.37 Q817.668 1517.37 815.839 1520.93 Q814.034 1524.47 814.034 1531.6 Q814.034 1538.71 815.839 1542.27 Q817.668 1545.82 821.279 1545.82 Q824.913 1545.82 826.719 1542.27 Q828.547 1538.71 828.547 1531.6 Q828.547 1524.47 826.719 1520.93 Q824.913 1517.37 821.279 1517.37 M821.279 1513.66 Q827.089 1513.66 830.145 1518.27 Q833.223 1522.85 833.223 1531.6 Q833.223 1540.33 830.145 1544.94 Q827.089 1549.52 821.279 1549.52 Q815.469 1549.52 812.39 1544.94 Q809.335 1540.33 809.335 1531.6 Q809.335 1522.85 812.39 1518.27 Q815.469 1513.66 821.279 1513.66 Z" fill="#000000" fill-rule="evenodd" fill-opacity="1" /><path clip-path="url(#clip800)" d="M1123.84 1544.91 L1140.16 1544.91 L1140.16 1548.85 L1118.21 1548.85 L1118.21 1544.91 Q1120.88 1542.16 1125.46 1537.53 Q1130.07 1532.88 1131.25 1531.53 Q1133.49 1529.01 1134.37 1527.27 Q1135.27 1525.51 1135.27 1523.82 Q1135.27 1521.07 1133.33 1519.33 Q1131.41 1517.6 1128.31 1517.6 Q1126.11 1517.6 1123.65 1518.36 Q1121.22 1519.13 1118.45 1520.68 L1118.45 1515.95 Q1121.27 1514.82 1123.72 1514.24 Q1126.18 1513.66 1128.21 1513.66 Q1133.58 1513.66 1136.78 1516.35 Q1139.97 1519.03 1139.97 1523.52 Q1139.97 1525.65 1139.16 1527.57 Q1138.38 1529.47 1136.27 1532.07 Q1135.69 1532.74 1132.59 1535.95 Q1129.49 1539.15 1123.84 1544.91 Z" fill="#000000" fill-rule="evenodd" fill-opacity="1" /><path clip-path="url(#clip800)" d="M1159.97 1517.37 Q1156.36 1517.37 1154.53 1520.93 Q1152.73 1524.47 1152.73 1531.6 Q1152.73 1538.71 1154.53 1542.27 Q1156.36 1545.82 1159.97 1545.82 Q1163.61 1545.82 1165.41 1542.27 Q1167.24 1538.71 1167.24 1531.6 Q1167.24 1524.47 1165.41 1520.93 Q1163.61 1517.37 1159.97 1517.37 M1159.97 1513.66 Q1165.78 1513.66 1168.84 1518.27 Q1171.92 1522.85 1171.92 1531.6 Q1171.92 1540.33 1168.84 1544.94 Q1165.78 1549.52 1159.97 1549.52 Q1154.16 1549.52 1151.08 1544.94 Q1148.03 1540.33 1148.03 1531.6 Q1148.03 1522.85 1151.08 1518.27 Q1154.16 1513.66 1159.97 1513.66 Z" fill="#000000" fill-rule="evenodd" fill-opacity="1" /><path clip-path="url(#clip800)" d="M1190.13 1517.37 Q1186.52 1517.37 1184.7 1520.93 Q1182.89 1524.47 1182.89 1531.6 Q1182.89 1538.71 1184.7 1542.27 Q1186.52 1545.82 1190.13 1545.82 Q1193.77 1545.82 1195.57 1542.27 Q1197.4 1538.71 1197.4 1531.6 Q1197.4 1524.47 1195.57 1520.93 Q1193.77 1517.37 1190.13 1517.37 M1190.13 1513.66 Q1195.95 1513.66 1199 1518.27 Q1202.08 1522.85 1202.08 1531.6 Q1202.08 1540.33 1199 1544.94 Q1195.95 1549.52 1190.13 1549.52 Q1184.32 1549.52 1181.25 1544.94 Q1178.19 1540.33 1178.19 1531.6 Q1178.19 1522.85 1181.25 1518.27 Q1184.32 1513.66 1190.13 1513.66 Z" fill="#000000" fill-rule="evenodd" fill-opacity="1" /><path clip-path="url(#clip800)" d="M1210.34 1514.29 L1228.7 1514.29 L1228.7 1518.22 L1214.63 1518.22 L1214.63 1526.7 Q1215.64 1526.35 1216.66 1526.19 Q1217.68 1526 1218.7 1526 Q1224.49 1526 1227.87 1529.17 Q1231.25 1532.34 1231.25 1537.76 Q1231.25 1543.34 1227.77 1546.44 Q1224.3 1549.52 1217.98 1549.52 Q1215.81 1549.52 1213.54 1549.15 Q1211.29 1548.78 1208.88 1548.04 L1208.88 1543.34 Q1210.97 1544.47 1213.19 1545.03 Q1215.41 1545.58 1217.89 1545.58 Q1221.89 1545.58 1224.23 1543.48 Q1226.57 1541.37 1226.57 1537.76 Q1226.57 1534.15 1224.23 1532.04 Q1221.89 1529.94 1217.89 1529.94 Q1216.01 1529.94 1214.14 1530.35 Q1212.29 1530.77 1210.34 1531.65 L1210.34 1514.29 Z" fill="#000000" fill-rule="evenodd" fill-opacity="1" /><path clip-path="url(#clip800)" d="M1521.86 1544.91 L1538.18 1544.91 L1538.18 1548.85 L1516.24 1548.85 L1516.24 1544.91 Q1518.9 1542.16 1523.48 1537.53 Q1528.09 1532.88 1529.27 1531.53 Q1531.51 1529.01 1532.39 1527.27 Q1533.3 1525.51 1533.3 1523.82 Q1533.3 1521.07 1531.35 1519.33 Q1529.43 1517.6 1526.33 1517.6 Q1524.13 1517.6 1521.68 1518.36 Q1519.25 1519.13 1516.47 1520.68 L1516.47 1515.95 Q1519.29 1514.82 1521.75 1514.24 Q1524.2 1513.66 1526.24 1513.66 Q1531.61 1513.66 1534.8 1516.35 Q1538 1519.03 1538 1523.52 Q1538 1525.65 1537.19 1527.57 Q1536.4 1529.47 1534.29 1532.07 Q1533.71 1532.74 1530.61 1535.95 Q1527.51 1539.15 1521.86 1544.91 Z" fill="#000000" fill-rule="evenodd" fill-opacity="1" /><path clip-path="url(#clip800)" d="M1558 1517.37 Q1554.38 1517.37 1552.56 1520.93 Q1550.75 1524.47 1550.75 1531.6 Q1550.75 1538.71 1552.56 1542.27 Q1554.38 1545.82 1558 1545.82 Q1561.63 1545.82 1563.44 1542.27 Q1565.26 1538.71 1565.26 1531.6 Q1565.26 1524.47 1563.44 1520.93 Q1561.63 1517.37 1558 1517.37 M1558 1513.66 Q1563.81 1513.66 1566.86 1518.27 Q1569.94 1522.85 1569.94 1531.6 Q1569.94 1540.33 1566.86 1544.94 Q1563.81 1549.52 1558 1549.52 Q1552.19 1549.52 1549.11 1544.94 Q1546.05 1540.33 1546.05 1531.6 Q1546.05 1522.85 1549.11 1518.27 Q1552.19 1513.66 1558 1513.66 Z" fill="#000000" fill-rule="evenodd" fill-opacity="1" /><path clip-path="url(#clip800)" d="M1578.97 1544.91 L1586.61 1544.91 L1586.61 1518.55 L1578.3 1520.21 L1578.3 1515.95 L1586.56 1514.29 L1591.24 1514.29 L1591.24 1544.91 L1598.88 1544.91 L1598.88 1548.85 L1578.97 1548.85 L1578.97 1544.91 Z" fill="#000000" fill-rule="evenodd" fill-opacity="1" /><path clip-path="url(#clip800)" d="M1618.32 1517.37 Q1614.71 1517.37 1612.88 1520.93 Q1611.07 1524.47 1611.07 1531.6 Q1611.07 1538.71 1612.88 1542.27 Q1614.71 1545.82 1618.32 1545.82 Q1621.95 1545.82 1623.76 1542.27 Q1625.59 1538.71 1625.59 1531.6 Q1625.59 1524.47 1623.76 1520.93 Q1621.95 1517.37 1618.32 1517.37 M1618.32 1513.66 Q1624.13 1513.66 1627.19 1518.27 Q1630.26 1522.85 1630.26 1531.6 Q1630.26 1540.33 1627.19 1544.94 Q1624.13 1549.52 1618.32 1549.52 Q1612.51 1549.52 1609.43 1544.94 Q1606.38 1540.33 1606.38 1531.6 Q1606.38 1522.85 1609.43 1518.27 Q1612.51 1513.66 1618.32 1513.66 Z" fill="#000000" fill-rule="evenodd" fill-opacity="1" /><path clip-path="url(#clip800)" d="M1920.88 1544.91 L1937.2 1544.91 L1937.2 1548.85 L1915.25 1548.85 L1915.25 1544.91 Q1917.92 1542.16 1922.5 1537.53 Q1927.11 1532.88 1928.29 1531.53 Q1930.53 1529.01 1931.41 1527.27 Q1932.31 1525.51 1932.31 1523.82 Q1932.31 1521.07 1930.37 1519.33 Q1928.45 1517.6 1925.35 1517.6 Q1923.15 1517.6 1920.69 1518.36 Q1918.26 1519.13 1915.49 1520.68 L1915.49 1515.95 Q1918.31 1514.82 1920.76 1514.24 Q1923.22 1513.66 1925.25 1513.66 Q1930.62 1513.66 1933.82 1516.35 Q1937.01 1519.03 1937.01 1523.52 Q1937.01 1525.65 1936.2 1527.57 Q1935.42 1529.47 1933.31 1532.07 Q1932.73 1532.74 1929.63 1535.95 Q1926.53 1539.15 1920.88 1544.91 Z" fill="#000000" fill-rule="evenodd" fill-opacity="1" /><path clip-path="url(#clip800)" d="M1957.01 1517.37 Q1953.4 1517.37 1951.57 1520.93 Q1949.77 1524.47 1949.77 1531.6 Q1949.77 1538.71 1951.57 1542.27 Q1953.4 1545.82 1957.01 1545.82 Q1960.65 1545.82 1962.45 1542.27 Q1964.28 1538.71 1964.28 1531.6 Q1964.28 1524.47 1962.45 1520.93 Q1960.65 1517.37 1957.01 1517.37 M1957.01 1513.66 Q1962.82 1513.66 1965.88 1518.27 Q1968.96 1522.85 1968.96 1531.6 Q1968.96 1540.33 1965.88 1544.94 Q1962.82 1549.52 1957.01 1549.52 Q1951.2 1549.52 1948.12 1544.94 Q1945.07 1540.33 1945.07 1531.6 Q1945.07 1522.85 1948.12 1518.27 Q1951.2 1513.66 1957.01 1513.66 Z" fill="#000000" fill-rule="evenodd" fill-opacity="1" /><path clip-path="url(#clip800)" d="M1977.99 1544.91 L1985.62 1544.91 L1985.62 1518.55 L1977.31 1520.21 L1977.31 1515.95 L1985.58 1514.29 L1990.25 1514.29 L1990.25 1544.91 L1997.89 1544.91 L1997.89 1548.85 L1977.99 1548.85 L1977.99 1544.91 Z" fill="#000000" fill-rule="evenodd" fill-opacity="1" /><path clip-path="url(#clip800)" d="M2007.38 1514.29 L2025.74 1514.29 L2025.74 1518.22 L2011.67 1518.22 L2011.67 1526.7 Q2012.68 1526.35 2013.7 1526.19 Q2014.72 1526 2015.74 1526 Q2021.53 1526 2024.91 1529.17 Q2028.29 1532.34 2028.29 1537.76 Q2028.29 1543.34 2024.81 1546.44 Q2021.34 1549.52 2015.02 1549.52 Q2012.85 1549.52 2010.58 1549.15 Q2008.33 1548.78 2005.93 1548.04 L2005.93 1543.34 Q2008.01 1544.47 2010.23 1545.03 Q2012.45 1545.58 2014.93 1545.58 Q2018.93 1545.58 2021.27 1543.48 Q2023.61 1541.37 2023.61 1537.76 Q2023.61 1534.15 2021.27 1532.04 Q2018.93 1529.94 2014.93 1529.94 Q2013.06 1529.94 2011.18 1530.35 Q2009.33 1530.77 2007.38 1531.65 L2007.38 1514.29 Z" fill="#000000" fill-rule="evenodd" fill-opacity="1" /><polyline clip-path="url(#clip802)" style="stroke:#000000; stroke-linecap:butt; stroke-linejoin:round; stroke-width:2; stroke-opacity:0.1; fill:none" points="
  156.112,1486.45 2352.76,1486.45 
  "/>
<polyline clip-path="url(#clip802)" style="stroke:#000000; stroke-linecap:butt; stroke-linejoin:round; stroke-width:2; stroke-opacity:0.1; fill:none" points="
  156.112,1145.7 2352.76,1145.7 
  "/>
<polyline clip-path="url(#clip802)" style="stroke:#000000; stroke-linecap:butt; stroke-linejoin:round; stroke-width:2; stroke-opacity:0.1; fill:none" points="
  156.112,804.96 2352.76,804.96 
  "/>
<polyline clip-path="url(#clip802)" style="stroke:#000000; stroke-linecap:butt; stroke-linejoin:round; stroke-width:2; stroke-opacity:0.1; fill:none" points="
  156.112,464.216 2352.76,464.216 
  "/>
<polyline clip-path="url(#clip802)" style="stroke:#000000; stroke-linecap:butt; stroke-linejoin:round; stroke-width:2; stroke-opacity:0.1; fill:none" points="
  156.112,123.472 2352.76,123.472 
  "/>
<polyline clip-path="url(#clip800)" style="stroke:#000000; stroke-linecap:butt; stroke-linejoin:round; stroke-width:4; stroke-opacity:1; fill:none" points="
  156.112,1486.45 156.112,123.472 
  "/>
<polyline clip-path="url(#clip800)" style="stroke:#000000; stroke-linecap:butt; stroke-linejoin:round; stroke-width:4; stroke-opacity:1; fill:none" points="
  156.112,1486.45 175.01,1486.45 
  "/>
<polyline clip-path="url(#clip800)" style="stroke:#000000; stroke-linecap:butt; stroke-linejoin:round; stroke-width:4; stroke-opacity:1; fill:none" points="
  156.112,1145.7 175.01,1145.7 
  "/>
<polyline clip-path="url(#clip800)" style="stroke:#000000; stroke-linecap:butt; stroke-linejoin:round; stroke-width:4; stroke-opacity:1; fill:none" points="
  156.112,804.96 175.01,804.96 
  "/>
<polyline clip-path="url(#clip800)" style="stroke:#000000; stroke-linecap:butt; stroke-linejoin:round; stroke-width:4; stroke-opacity:1; fill:none" points="
  156.112,464.216 175.01,464.216 
  "/>
<polyline clip-path="url(#clip800)" style="stroke:#000000; stroke-linecap:butt; stroke-linejoin:round; stroke-width:4; stroke-opacity:1; fill:none" points="
  156.112,123.472 175.01,123.472 
  "/>
<path clip-path="url(#clip800)" d="M62.9365 1472.25 Q59.3254 1472.25 57.4967 1475.81 Q55.6912 1479.35 55.6912 1486.48 Q55.6912 1493.59 57.4967 1497.15 Q59.3254 1500.7 62.9365 1500.7 Q66.5707 1500.7 68.3763 1497.15 Q70.205 1493.59 70.205 1486.48 Q70.205 1479.35 68.3763 1475.81 Q66.5707 1472.25 62.9365 1472.25 M62.9365 1468.54 Q68.7467 1468.54 71.8022 1473.15 Q74.8809 1477.73 74.8809 1486.48 Q74.8809 1495.21 71.8022 1499.82 Q68.7467 1504.4 62.9365 1504.4 Q57.1264 1504.4 54.0477 1499.82 Q50.9921 1495.21 50.9921 1486.48 Q50.9921 1477.73 54.0477 1473.15 Q57.1264 1468.54 62.9365 1468.54 Z" fill="#000000" fill-rule="evenodd" fill-opacity="1" /><path clip-path="url(#clip800)" d="M83.0984 1497.85 L87.9827 1497.85 L87.9827 1503.73 L83.0984 1503.73 L83.0984 1497.85 Z" fill="#000000" fill-rule="evenodd" fill-opacity="1" /><path clip-path="url(#clip800)" d="M108.168 1472.25 Q104.557 1472.25 102.728 1475.81 Q100.922 1479.35 100.922 1486.48 Q100.922 1493.59 102.728 1497.15 Q104.557 1500.7 108.168 1500.7 Q111.802 1500.7 113.608 1497.15 Q115.436 1493.59 115.436 1486.48 Q115.436 1479.35 113.608 1475.81 Q111.802 1472.25 108.168 1472.25 M108.168 1468.54 Q113.978 1468.54 117.033 1473.15 Q120.112 1477.73 120.112 1486.48 Q120.112 1495.21 117.033 1499.82 Q113.978 1504.4 108.168 1504.4 Q102.358 1504.4 99.2789 1499.82 Q96.2234 1495.21 96.2234 1486.48 Q96.2234 1477.73 99.2789 1473.15 Q102.358 1468.54 108.168 1468.54 Z" fill="#000000" fill-rule="evenodd" fill-opacity="1" /><path clip-path="url(#clip800)" d="M63.9319 1131.5 Q60.3208 1131.5 58.4921 1135.07 Q56.6865 1138.61 56.6865 1145.74 Q56.6865 1152.85 58.4921 1156.41 Q60.3208 1159.95 63.9319 1159.95 Q67.5661 1159.95 69.3717 1156.41 Q71.2004 1152.85 71.2004 1145.74 Q71.2004 1138.61 69.3717 1135.07 Q67.5661 1131.5 63.9319 1131.5 M63.9319 1127.8 Q69.742 1127.8 72.7976 1132.41 Q75.8763 1136.99 75.8763 1145.74 Q75.8763 1154.47 72.7976 1159.07 Q69.742 1163.66 63.9319 1163.66 Q58.1217 1163.66 55.043 1159.07 Q51.9875 1154.47 51.9875 1145.74 Q51.9875 1136.99 55.043 1132.41 Q58.1217 1127.8 63.9319 1127.8 Z" fill="#000000" fill-rule="evenodd" fill-opacity="1" /><path clip-path="url(#clip800)" d="M84.0938 1157.1 L88.978 1157.1 L88.978 1162.98 L84.0938 1162.98 L84.0938 1157.1 Z" fill="#000000" fill-rule="evenodd" fill-opacity="1" /><path clip-path="url(#clip800)" d="M99.2095 1128.42 L117.566 1128.42 L117.566 1132.36 L103.492 1132.36 L103.492 1140.83 Q104.51 1140.48 105.529 1140.32 Q106.547 1140.14 107.566 1140.14 Q113.353 1140.14 116.733 1143.31 Q120.112 1146.48 120.112 1151.9 Q120.112 1157.47 116.64 1160.58 Q113.168 1163.66 106.848 1163.66 Q104.672 1163.66 102.404 1163.28 Q100.159 1162.91 97.7511 1162.17 L97.7511 1157.47 Q99.8345 1158.61 102.057 1159.16 Q104.279 1159.72 106.756 1159.72 Q110.76 1159.72 113.098 1157.61 Q115.436 1155.51 115.436 1151.9 Q115.436 1148.28 113.098 1146.18 Q110.76 1144.07 106.756 1144.07 Q104.881 1144.07 103.006 1144.49 Q101.154 1144.91 99.2095 1145.78 L99.2095 1128.42 Z" fill="#000000" fill-rule="evenodd" fill-opacity="1" /><path clip-path="url(#clip800)" d="M53.7467 818.305 L61.3856 818.305 L61.3856 791.939 L53.0754 793.606 L53.0754 789.347 L61.3393 787.68 L66.0152 787.68 L66.0152 818.305 L73.654 818.305 L73.654 822.24 L53.7467 822.24 L53.7467 818.305 Z" fill="#000000" fill-rule="evenodd" fill-opacity="1" /><path clip-path="url(#clip800)" d="M83.0984 816.36 L87.9827 816.36 L87.9827 822.24 L83.0984 822.24 L83.0984 816.36 Z" fill="#000000" fill-rule="evenodd" fill-opacity="1" /><path clip-path="url(#clip800)" d="M108.168 790.759 Q104.557 790.759 102.728 794.323 Q100.922 797.865 100.922 804.995 Q100.922 812.101 102.728 815.666 Q104.557 819.208 108.168 819.208 Q111.802 819.208 113.608 815.666 Q115.436 812.101 115.436 804.995 Q115.436 797.865 113.608 794.323 Q111.802 790.759 108.168 790.759 M108.168 787.055 Q113.978 787.055 117.033 791.661 Q120.112 796.245 120.112 804.995 Q120.112 813.722 117.033 818.328 Q113.978 822.911 108.168 822.911 Q102.358 822.911 99.2789 818.328 Q96.2234 813.722 96.2234 804.995 Q96.2234 796.245 99.2789 791.661 Q102.358 787.055 108.168 787.055 Z" fill="#000000" fill-rule="evenodd" fill-opacity="1" /><path clip-path="url(#clip800)" d="M54.7421 477.561 L62.381 477.561 L62.381 451.195 L54.0708 452.862 L54.0708 448.603 L62.3347 446.936 L67.0106 446.936 L67.0106 477.561 L74.6494 477.561 L74.6494 481.496 L54.7421 481.496 L54.7421 477.561 Z" fill="#000000" fill-rule="evenodd" fill-opacity="1" /><path clip-path="url(#clip800)" d="M84.0938 475.616 L88.978 475.616 L88.978 481.496 L84.0938 481.496 L84.0938 475.616 Z" fill="#000000" fill-rule="evenodd" fill-opacity="1" /><path clip-path="url(#clip800)" d="M99.2095 446.936 L117.566 446.936 L117.566 450.871 L103.492 450.871 L103.492 459.343 Q104.51 458.996 105.529 458.834 Q106.547 458.649 107.566 458.649 Q113.353 458.649 116.733 461.82 Q120.112 464.992 120.112 470.408 Q120.112 475.987 116.64 479.089 Q113.168 482.167 106.848 482.167 Q104.672 482.167 102.404 481.797 Q100.159 481.427 97.7511 480.686 L97.7511 475.987 Q99.8345 477.121 102.057 477.677 Q104.279 478.232 106.756 478.232 Q110.76 478.232 113.098 476.126 Q115.436 474.019 115.436 470.408 Q115.436 466.797 113.098 464.691 Q110.76 462.584 106.756 462.584 Q104.881 462.584 103.006 463.001 Q101.154 463.417 99.2095 464.297 L99.2095 446.936 Z" fill="#000000" fill-rule="evenodd" fill-opacity="1" /><path clip-path="url(#clip800)" d="M56.9643 136.817 L73.2837 136.817 L73.2837 140.752 L51.3393 140.752 L51.3393 136.817 Q54.0014 134.062 58.5847 129.433 Q63.1911 124.78 64.3717 123.437 Q66.617 120.914 67.4967 119.178 Q68.3994 117.419 68.3994 115.729 Q68.3994 112.974 66.455 111.238 Q64.5337 109.502 61.4319 109.502 Q59.2328 109.502 56.7791 110.266 Q54.3486 111.03 51.5708 112.581 L51.5708 107.859 Q54.3949 106.725 56.8486 106.146 Q59.3023 105.567 61.3393 105.567 Q66.7096 105.567 69.9041 108.252 Q73.0985 110.937 73.0985 115.428 Q73.0985 117.558 72.2883 119.479 Q71.5013 121.377 69.3948 123.97 Q68.8161 124.641 65.7143 127.859 Q62.6124 131.053 56.9643 136.817 Z" fill="#000000" fill-rule="evenodd" fill-opacity="1" /><path clip-path="url(#clip800)" d="M83.0984 134.873 L87.9827 134.873 L87.9827 140.752 L83.0984 140.752 L83.0984 134.873 Z" fill="#000000" fill-rule="evenodd" fill-opacity="1" /><path clip-path="url(#clip800)" d="M108.168 109.271 Q104.557 109.271 102.728 112.836 Q100.922 116.377 100.922 123.507 Q100.922 130.613 102.728 134.178 Q104.557 137.72 108.168 137.72 Q111.802 137.72 113.608 134.178 Q115.436 130.613 115.436 123.507 Q115.436 116.377 113.608 112.836 Q111.802 109.271 108.168 109.271 M108.168 105.567 Q113.978 105.567 117.033 110.174 Q120.112 114.757 120.112 123.507 Q120.112 132.234 117.033 136.84 Q113.978 141.423 108.168 141.423 Q102.358 141.423 99.2789 136.84 Q96.2234 132.234 96.2234 123.507 Q96.2234 114.757 99.2789 110.174 Q102.358 105.567 108.168 105.567 Z" fill="#000000" fill-rule="evenodd" fill-opacity="1" /><path clip-path="url(#clip800)" d="M620.488 63.9476 L620.488 47.7034 L607.12 47.7034 L607.12 40.9789 L628.59 40.9789 L628.59 66.9452 Q623.85 70.3075 618.138 72.0494 Q612.426 73.7508 605.945 73.7508 Q591.767 73.7508 583.746 65.4869 Q575.766 57.1826 575.766 42.3968 Q575.766 27.5705 583.746 19.3066 Q591.767 11.0023 605.945 11.0023 Q611.859 11.0023 617.166 12.4606 Q622.513 13.9189 627.01 16.7545 L627.01 25.464 Q622.473 21.6156 617.369 19.6712 Q612.264 17.7268 606.634 17.7268 Q595.534 17.7268 589.944 23.9246 Q584.394 30.1225 584.394 42.3968 Q584.394 54.6305 589.944 60.8284 Q595.534 67.0263 606.634 67.0263 Q610.968 67.0263 614.371 66.2971 Q617.774 65.5274 620.488 63.9476 Z" fill="#000000" fill-rule="evenodd" fill-opacity="1" /><path clip-path="url(#clip800)" d="M642.444 54.671 L642.444 27.2059 L649.897 27.2059 L649.897 54.3874 Q649.897 60.8284 652.409 64.0691 Q654.92 67.2693 659.944 67.2693 Q665.979 67.2693 669.463 63.421 Q672.987 59.5726 672.987 52.9291 L672.987 27.2059 L680.441 27.2059 L680.441 72.576 L672.987 72.576 L672.987 65.6084 Q670.273 69.7404 666.668 71.7658 Q663.103 73.7508 658.364 73.7508 Q650.545 73.7508 646.495 68.8897 Q642.444 64.0286 642.444 54.671 M661.199 26.1121 L661.199 26.1121 Z" fill="#000000" fill-rule="evenodd" fill-opacity="1" /><path clip-path="url(#clip800)" d="M733.508 45.1919 L733.508 72.576 L726.054 72.576 L726.054 45.4349 Q726.054 38.994 723.543 35.7938 Q721.031 32.5936 716.008 32.5936 Q709.972 32.5936 706.488 36.4419 Q703.005 40.2903 703.005 46.9338 L703.005 72.576 L695.511 72.576 L695.511 27.2059 L703.005 27.2059 L703.005 34.2544 Q705.678 30.163 709.284 28.1376 Q712.929 26.1121 717.669 26.1121 Q725.487 26.1121 729.498 30.9732 Q733.508 35.7938 733.508 45.1919 Z" fill="#000000" fill-rule="evenodd" fill-opacity="1" /><path clip-path="url(#clip800)" d="M792.327 32.4315 Q786.332 32.4315 782.848 37.1306 Q779.364 41.7891 779.364 49.9314 Q779.364 58.0738 782.807 62.7728 Q786.291 67.4314 792.327 67.4314 Q798.282 67.4314 801.766 62.7323 Q805.25 58.0333 805.25 49.9314 Q805.25 41.8701 801.766 37.1711 Q798.282 32.4315 792.327 32.4315 M792.327 26.1121 Q802.049 26.1121 807.599 32.4315 Q813.149 38.7509 813.149 49.9314 Q813.149 61.0714 807.599 67.4314 Q802.049 73.7508 792.327 73.7508 Q782.564 73.7508 777.015 67.4314 Q771.505 61.0714 771.505 49.9314 Q771.505 38.7509 777.015 32.4315 Q782.564 26.1121 792.327 26.1121 Z" fill="#000000" fill-rule="evenodd" fill-opacity="1" /><path clip-path="url(#clip800)" d="M821.17 27.2059 L828.623 27.2059 L837.94 62.6108 L847.217 27.2059 L856.007 27.2059 L865.324 62.6108 L874.601 27.2059 L882.055 27.2059 L870.185 72.576 L861.395 72.576 L851.632 35.3887 L841.829 72.576 L833.039 72.576 L821.17 27.2059 Z" fill="#000000" fill-rule="evenodd" fill-opacity="1" /><path clip-path="url(#clip800)" d="M931.071 45.1919 L931.071 72.576 L923.617 72.576 L923.617 45.4349 Q923.617 38.994 921.105 35.7938 Q918.594 32.5936 913.571 32.5936 Q907.535 32.5936 904.051 36.4419 Q900.567 40.2903 900.567 46.9338 L900.567 72.576 L893.073 72.576 L893.073 27.2059 L900.567 27.2059 L900.567 34.2544 Q903.241 30.163 906.846 28.1376 Q910.492 26.1121 915.232 26.1121 Q923.05 26.1121 927.06 30.9732 Q931.071 35.7938 931.071 45.1919 Z" fill="#000000" fill-rule="evenodd" fill-opacity="1" /><path clip-path="url(#clip800)" d="M984.745 48.0275 L984.745 51.6733 L950.474 51.6733 Q950.961 59.3701 955.092 63.421 Q959.265 67.4314 966.678 67.4314 Q970.972 67.4314 974.982 66.3781 Q979.033 65.3249 983.003 63.2184 L983.003 70.267 Q978.993 71.9684 974.78 72.8596 Q970.567 73.7508 966.232 73.7508 Q955.376 73.7508 949.016 67.4314 Q942.697 61.1119 942.697 50.3365 Q942.697 39.1965 948.692 32.6746 Q954.728 26.1121 964.936 26.1121 Q974.091 26.1121 979.398 32.0264 Q984.745 37.9003 984.745 48.0275 M977.291 45.84 Q977.21 39.7232 973.848 36.0774 Q970.526 32.4315 965.017 32.4315 Q958.779 32.4315 955.011 35.9558 Q951.285 39.4801 950.717 45.8805 L977.291 45.84 Z" fill="#000000" fill-rule="evenodd" fill-opacity="1" /><path clip-path="url(#clip800)" d="M1023.27 34.1734 Q1022.01 33.4443 1020.51 33.1202 Q1019.06 32.7556 1017.27 32.7556 Q1010.95 32.7556 1007.55 36.8875 Q1004.19 40.9789 1004.19 48.6757 L1004.19 72.576 L996.695 72.576 L996.695 27.2059 L1004.19 27.2059 L1004.19 34.2544 Q1006.54 30.1225 1010.31 28.1376 Q1014.07 26.1121 1019.46 26.1121 Q1020.23 26.1121 1021.16 26.2337 Q1022.09 26.3147 1023.23 26.5172 L1023.27 34.1734 Z" fill="#000000" fill-rule="evenodd" fill-opacity="1" /><path clip-path="url(#clip800)" d="M1090.11 28.9478 L1090.11 35.9153 Q1086.95 34.1734 1083.75 33.3227 Q1080.59 32.4315 1077.35 32.4315 Q1070.1 32.4315 1066.09 37.0496 Q1062.08 41.6271 1062.08 49.9314 Q1062.08 58.2358 1066.09 62.8538 Q1070.1 67.4314 1077.35 67.4314 Q1080.59 67.4314 1083.75 66.5807 Q1086.95 65.6895 1090.11 63.9476 L1090.11 70.8341 Q1086.99 72.2924 1083.63 73.0216 Q1080.31 73.7508 1076.54 73.7508 Q1066.29 73.7508 1060.25 67.3098 Q1054.22 60.8689 1054.22 49.9314 Q1054.22 38.832 1060.29 32.472 Q1066.41 26.1121 1077.02 26.1121 Q1080.47 26.1121 1083.75 26.8413 Q1087.03 27.5299 1090.11 28.9478 Z" fill="#000000" fill-rule="evenodd" fill-opacity="1" /><path clip-path="url(#clip800)" d="M1120.65 32.4315 Q1114.66 32.4315 1111.17 37.1306 Q1107.69 41.7891 1107.69 49.9314 Q1107.69 58.0738 1111.13 62.7728 Q1114.62 67.4314 1120.65 67.4314 Q1126.61 67.4314 1130.09 62.7323 Q1133.58 58.0333 1133.58 49.9314 Q1133.58 41.8701 1130.09 37.1711 Q1126.61 32.4315 1120.65 32.4315 M1120.65 26.1121 Q1130.38 26.1121 1135.92 32.4315 Q1141.47 38.7509 1141.47 49.9314 Q1141.47 61.0714 1135.92 67.4314 Q1130.38 73.7508 1120.65 73.7508 Q1110.89 73.7508 1105.34 67.4314 Q1099.83 61.0714 1099.83 49.9314 Q1099.83 38.7509 1105.34 32.4315 Q1110.89 26.1121 1120.65 26.1121 Z" fill="#000000" fill-rule="evenodd" fill-opacity="1" /><path clip-path="url(#clip800)" d="M1153.06 54.671 L1153.06 27.2059 L1160.51 27.2059 L1160.51 54.3874 Q1160.51 60.8284 1163.03 64.0691 Q1165.54 67.2693 1170.56 67.2693 Q1176.6 67.2693 1180.08 63.421 Q1183.6 59.5726 1183.6 52.9291 L1183.6 27.2059 L1191.06 27.2059 L1191.06 72.576 L1183.6 72.576 L1183.6 65.6084 Q1180.89 69.7404 1177.28 71.7658 Q1173.72 73.7508 1168.98 73.7508 Q1161.16 73.7508 1157.11 68.8897 Q1153.06 64.0286 1153.06 54.671 M1171.82 26.1121 L1171.82 26.1121 Z" fill="#000000" fill-rule="evenodd" fill-opacity="1" /><path clip-path="url(#clip800)" d="M1244.12 45.1919 L1244.12 72.576 L1236.67 72.576 L1236.67 45.4349 Q1236.67 38.994 1234.16 35.7938 Q1231.65 32.5936 1226.62 32.5936 Q1220.59 32.5936 1217.1 36.4419 Q1213.62 40.2903 1213.62 46.9338 L1213.62 72.576 L1206.13 72.576 L1206.13 27.2059 L1213.62 27.2059 L1213.62 34.2544 Q1216.29 30.163 1219.9 28.1376 Q1223.55 26.1121 1228.29 26.1121 Q1236.1 26.1121 1240.11 30.9732 Q1244.12 35.7938 1244.12 45.1919 Z" fill="#000000" fill-rule="evenodd" fill-opacity="1" /><path clip-path="url(#clip800)" d="M1266.36 14.324 L1266.36 27.2059 L1281.72 27.2059 L1281.72 32.9987 L1266.36 32.9987 L1266.36 57.6282 Q1266.36 63.1779 1267.86 64.7578 Q1269.4 66.3376 1274.06 66.3376 L1281.72 66.3376 L1281.72 72.576 L1274.06 72.576 Q1265.43 72.576 1262.15 69.3758 Q1258.87 66.1351 1258.87 57.6282 L1258.87 32.9987 L1253.4 32.9987 L1253.4 27.2059 L1258.87 27.2059 L1258.87 14.324 L1266.36 14.324 Z" fill="#000000" fill-rule="evenodd" fill-opacity="1" /><path clip-path="url(#clip800)" d="M1317.89 27.2059 L1325.35 27.2059 L1325.35 72.576 L1317.89 72.576 L1317.89 27.2059 M1317.89 9.54393 L1325.35 9.54393 L1325.35 18.9825 L1317.89 18.9825 L1317.89 9.54393 Z" fill="#000000" fill-rule="evenodd" fill-opacity="1" /><path clip-path="url(#clip800)" d="M1378.65 45.1919 L1378.65 72.576 L1371.2 72.576 L1371.2 45.4349 Q1371.2 38.994 1368.69 35.7938 Q1366.18 32.5936 1361.16 32.5936 Q1355.12 32.5936 1351.64 36.4419 Q1348.15 40.2903 1348.15 46.9338 L1348.15 72.576 L1340.66 72.576 L1340.66 27.2059 L1348.15 27.2059 L1348.15 34.2544 Q1350.83 30.163 1354.43 28.1376 Q1358.08 26.1121 1362.82 26.1121 Q1370.63 26.1121 1374.64 30.9732 Q1378.65 35.7938 1378.65 45.1919 Z" fill="#000000" fill-rule="evenodd" fill-opacity="1" /><path clip-path="url(#clip800)" d="M1440.43 20.1573 L1429.33 50.2555 L1451.57 50.2555 L1440.43 20.1573 M1435.81 12.096 L1445.09 12.096 L1468.14 72.576 L1459.63 72.576 L1454.12 57.061 L1426.86 57.061 L1421.35 72.576 L1412.72 72.576 L1435.81 12.096 Z" fill="#000000" fill-rule="evenodd" fill-opacity="1" /><path clip-path="url(#clip800)" d="M1476.04 12.096 L1484.26 12.096 L1484.26 48.8377 Q1484.26 58.5599 1487.79 62.8538 Q1491.31 67.1073 1499.21 67.1073 Q1507.07 67.1073 1510.59 62.8538 Q1514.12 58.5599 1514.12 48.8377 L1514.12 12.096 L1522.34 12.096 L1522.34 49.8504 Q1522.34 61.6791 1516.47 67.7149 Q1510.63 73.7508 1499.21 73.7508 Q1487.75 73.7508 1481.87 67.7149 Q1476.04 61.6791 1476.04 49.8504 L1476.04 12.096 Z" fill="#000000" fill-rule="evenodd" fill-opacity="1" /><path clip-path="url(#clip800)" d="M1581.65 9.62495 Q1576.22 18.942 1573.58 28.0566 Q1570.95 37.1711 1570.95 46.5287 Q1570.95 55.8863 1573.58 65.0818 Q1576.26 74.2369 1581.65 83.5134 L1575.16 83.5134 Q1569.09 73.9938 1566.05 64.7983 Q1563.05 55.6027 1563.05 46.5287 Q1563.05 37.4952 1566.05 28.3401 Q1569.05 19.1851 1575.16 9.62495 L1581.65 9.62495 Z" fill="#000000" fill-rule="evenodd" fill-opacity="1" /><path clip-path="url(#clip800)" d="M1631.43 35.9153 Q1634.23 30.8922 1638.12 28.5022 Q1642 26.1121 1647.27 26.1121 Q1654.36 26.1121 1658.21 31.0947 Q1662.06 36.0368 1662.06 45.1919 L1662.06 72.576 L1654.56 72.576 L1654.56 45.4349 Q1654.56 38.913 1652.25 35.7533 Q1649.94 32.5936 1645.2 32.5936 Q1639.41 32.5936 1636.05 36.4419 Q1632.69 40.2903 1632.69 46.9338 L1632.69 72.576 L1625.19 72.576 L1625.19 45.4349 Q1625.19 38.8725 1622.88 35.7533 Q1620.57 32.5936 1615.75 32.5936 Q1610.04 32.5936 1606.68 36.4824 Q1603.32 40.3308 1603.32 46.9338 L1603.32 72.576 L1595.82 72.576 L1595.82 27.2059 L1603.32 27.2059 L1603.32 34.2544 Q1605.87 30.082 1609.44 28.0971 Q1613 26.1121 1617.9 26.1121 Q1622.84 26.1121 1626.29 28.6237 Q1629.77 31.1352 1631.43 35.9153 Z" fill="#000000" fill-rule="evenodd" fill-opacity="1" /><path clip-path="url(#clip800)" d="M1676.92 27.2059 L1684.38 27.2059 L1684.38 72.576 L1676.92 72.576 L1676.92 27.2059 M1676.92 9.54393 L1684.38 9.54393 L1684.38 18.9825 L1676.92 18.9825 L1676.92 9.54393 Z" fill="#000000" fill-rule="evenodd" fill-opacity="1" /><path clip-path="url(#clip800)" d="M1699.97 9.54393 L1707.43 9.54393 L1707.43 72.576 L1699.97 72.576 L1699.97 9.54393 Z" fill="#000000" fill-rule="evenodd" fill-opacity="1" /><path clip-path="url(#clip800)" d="M1723.02 9.54393 L1730.48 9.54393 L1730.48 72.576 L1723.02 72.576 L1723.02 9.54393 Z" fill="#000000" fill-rule="evenodd" fill-opacity="1" /><path clip-path="url(#clip800)" d="M1746.07 27.2059 L1753.53 27.2059 L1753.53 72.576 L1746.07 72.576 L1746.07 27.2059 M1746.07 9.54393 L1753.53 9.54393 L1753.53 18.9825 L1746.07 18.9825 L1746.07 9.54393 Z" fill="#000000" fill-rule="evenodd" fill-opacity="1" /><path clip-path="url(#clip800)" d="M1786.7 32.4315 Q1780.71 32.4315 1777.22 37.1306 Q1773.74 41.7891 1773.74 49.9314 Q1773.74 58.0738 1777.18 62.7728 Q1780.67 67.4314 1786.7 67.4314 Q1792.66 67.4314 1796.14 62.7323 Q1799.62 58.0333 1799.62 49.9314 Q1799.62 41.8701 1796.14 37.1711 Q1792.66 32.4315 1786.7 32.4315 M1786.7 26.1121 Q1796.42 26.1121 1801.97 32.4315 Q1807.52 38.7509 1807.52 49.9314 Q1807.52 61.0714 1801.97 67.4314 Q1796.42 73.7508 1786.7 73.7508 Q1776.94 73.7508 1771.39 67.4314 Q1765.88 61.0714 1765.88 49.9314 Q1765.88 38.7509 1771.39 32.4315 Q1776.94 26.1121 1786.7 26.1121 Z" fill="#000000" fill-rule="evenodd" fill-opacity="1" /><path clip-path="url(#clip800)" d="M1857.59 45.1919 L1857.59 72.576 L1850.14 72.576 L1850.14 45.4349 Q1850.14 38.994 1847.63 35.7938 Q1845.12 32.5936 1840.09 32.5936 Q1834.06 32.5936 1830.57 36.4419 Q1827.09 40.2903 1827.09 46.9338 L1827.09 72.576 L1819.6 72.576 L1819.6 27.2059 L1827.09 27.2059 L1827.09 34.2544 Q1829.76 30.163 1833.37 28.1376 Q1837.01 26.1121 1841.75 26.1121 Q1849.57 26.1121 1853.58 30.9732 Q1857.59 35.7938 1857.59 45.1919 Z" fill="#000000" fill-rule="evenodd" fill-opacity="1" /><path clip-path="url(#clip800)" d="M1901.38 28.5427 L1901.38 35.5912 Q1898.22 33.9709 1894.82 33.1607 Q1891.42 32.3505 1887.77 32.3505 Q1882.22 32.3505 1879.43 34.0519 Q1876.67 35.7533 1876.67 39.156 Q1876.67 41.7486 1878.66 43.2475 Q1880.64 44.7058 1886.64 46.0426 L1889.19 46.6097 Q1897.13 48.3111 1900.45 51.4303 Q1903.81 54.509 1903.81 60.0587 Q1903.81 66.3781 1898.79 70.0644 Q1893.81 73.7508 1885.06 73.7508 Q1881.41 73.7508 1877.44 73.0216 Q1873.51 72.3329 1869.14 70.9151 L1869.14 63.2184 Q1873.27 65.3654 1877.28 66.4591 Q1881.29 67.5124 1885.22 67.5124 Q1890.49 67.5124 1893.32 65.73 Q1896.16 63.9071 1896.16 60.6258 Q1896.16 57.5877 1894.09 55.9673 Q1892.07 54.3469 1885.14 52.8481 L1882.55 52.2405 Q1875.62 50.7821 1872.54 47.7845 Q1869.46 44.7463 1869.46 39.4801 Q1869.46 33.0797 1874 29.5959 Q1878.54 26.1121 1886.88 26.1121 Q1891.01 26.1121 1894.66 26.7198 Q1898.3 27.3274 1901.38 28.5427 Z" fill="#000000" fill-rule="evenodd" fill-opacity="1" /><path clip-path="url(#clip800)" d="M1914.51 9.62495 L1920.99 9.62495 Q1927.07 19.1851 1930.06 28.3401 Q1933.1 37.4952 1933.1 46.5287 Q1933.1 55.6027 1930.06 64.7983 Q1927.07 73.9938 1920.99 83.5134 L1914.51 83.5134 Q1919.9 74.2369 1922.53 65.0818 Q1925.2 55.8863 1925.2 46.5287 Q1925.2 37.1711 1922.53 28.0566 Q1919.9 18.942 1914.51 9.62495 Z" fill="#000000" fill-rule="evenodd" fill-opacity="1" /><polyline clip-path="url(#clip802)" style="stroke:#009af9; stroke-linecap:butt; stroke-linejoin:round; stroke-width:4; stroke-opacity:1; fill:none" points="
  218.281,266.244 297.985,366.848 377.689,467.453 457.393,568.058 537.098,668.662 616.802,742.856 696.506,817.05 776.21,891.244 855.914,965.438 935.618,1004.45 
  1015.32,1043.45 1095.03,1082.46 1174.73,1121.47 1254.43,1160.47 1334.14,987.894 1413.84,955.624 1493.55,923.353 1573.25,891.083 1652.95,986.236 1732.66,988.962 
  1812.36,971.405 1892.07,953.849 1971.77,925.338 2051.47,908.397 2131.18,894.182 2210.88,891.215 2290.59,897.497 
  "/>
<polyline clip-path="url(#clip802)" style="stroke:#ff0000; stroke-linecap:butt; stroke-linejoin:round; stroke-width:4; stroke-opacity:1; fill:none" points="
  457.393,1486.45 457.393,123.472 
  "/>
</svg>
