<?xml version="1.0" encoding="utf-8"?>
<svg xmlns="http://www.w3.org/2000/svg" xmlns:xlink="http://www.w3.org/1999/xlink" width="500" height="250" viewBox="0 0 2000 1000">
<defs>
  <clipPath id="clip160">
    <rect x="0" y="0" width="2000" height="1000"/>
  </clipPath>
</defs>
<path clip-path="url(#clip160)" d="
M0 1000 L2000 1000 L2000 0 L0 0  Z
  " fill="#ffffff" fill-rule="evenodd" fill-opacity="1"/>
<defs>
  <clipPath id="clip161">
    <rect x="400" y="0" width="1401" height="1000"/>
  </clipPath>
</defs>
<path clip-path="url(#clip160)" d="
M188.084 849.7 L1952.76 849.7 L1952.76 108.352 L188.084 108.352  Z
  " fill="#ffffff" fill-rule="evenodd" fill-opacity="1"/>
<defs>
  <clipPath id="clip162">
    <rect x="188" y="108" width="1766" height="742"/>
  </clipPath>
</defs>
<polyline clip-path="url(#clip162)" style="stroke:#000000; stroke-linecap:butt; stroke-linejoin:round; stroke-width:2; stroke-opacity:0.1; fill:none" points="
  381.771,849.7 381.771,108.352 
  "/>
<polyline clip-path="url(#clip162)" style="stroke:#000000; stroke-linecap:butt; stroke-linejoin:round; stroke-width:2; stroke-opacity:0.1; fill:none" points="
  753.876,849.7 753.876,108.352 
  "/>
<polyline clip-path="url(#clip162)" style="stroke:#000000; stroke-linecap:butt; stroke-linejoin:round; stroke-width:2; stroke-opacity:0.1; fill:none" points="
  1125.98,849.7 1125.98,108.352 
  "/>
<polyline clip-path="url(#clip162)" style="stroke:#000000; stroke-linecap:butt; stroke-linejoin:round; stroke-width:2; stroke-opacity:0.1; fill:none" points="
  1498.09,849.7 1498.09,108.352 
  "/>
<polyline clip-path="url(#clip162)" style="stroke:#000000; stroke-linecap:butt; stroke-linejoin:round; stroke-width:2; stroke-opacity:0.1; fill:none" points="
  1870.19,849.7 1870.19,108.352 
  "/>
<polyline clip-path="url(#clip160)" style="stroke:#000000; stroke-linecap:butt; stroke-linejoin:round; stroke-width:4; stroke-opacity:1; fill:none" points="
  188.084,849.7 1952.76,849.7 
  "/>
<polyline clip-path="url(#clip160)" style="stroke:#000000; stroke-linecap:butt; stroke-linejoin:round; stroke-width:4; stroke-opacity:1; fill:none" points="
  381.771,849.7 381.771,830.802 
  "/>
<polyline clip-path="url(#clip160)" style="stroke:#000000; stroke-linecap:butt; stroke-linejoin:round; stroke-width:4; stroke-opacity:1; fill:none" points="
  753.876,849.7 753.876,830.802 
  "/>
<polyline clip-path="url(#clip160)" style="stroke:#000000; stroke-linecap:butt; stroke-linejoin:round; stroke-width:4; stroke-opacity:1; fill:none" points="
  1125.98,849.7 1125.98,830.802 
  "/>
<polyline clip-path="url(#clip160)" style="stroke:#000000; stroke-linecap:butt; stroke-linejoin:round; stroke-width:4; stroke-opacity:1; fill:none" points="
  1498.09,849.7 1498.09,830.802 
  "/>
<polyline clip-path="url(#clip160)" style="stroke:#000000; stroke-linecap:butt; stroke-linejoin:round; stroke-width:4; stroke-opacity:1; fill:none" points="
  1870.19,849.7 1870.19,830.802 
  "/>
<path clip-path="url(#clip160)" d="M344.121 877.419 Q340.509 877.419 338.681 880.983 Q336.875 884.525 336.875 891.655 Q336.875 898.761 338.681 902.326 Q340.509 905.867 344.121 905.867 Q347.755 905.867 349.56 902.326 Q351.389 898.761 351.389 891.655 Q351.389 884.525 349.56 880.983 Q347.755 877.419 344.121 877.419 M344.121 873.715 Q349.931 873.715 352.986 878.321 Q356.065 882.905 356.065 891.655 Q356.065 900.381 352.986 904.988 Q349.931 909.571 344.121 909.571 Q338.31 909.571 335.232 904.988 Q332.176 900.381 332.176 891.655 Q332.176 882.905 335.232 878.321 Q338.31 873.715 344.121 873.715 Z" fill="#000000" fill-rule="evenodd" fill-opacity="1" /><path clip-path="url(#clip160)" d="M364.282 903.02 L369.167 903.02 L369.167 908.9 L364.282 908.9 L364.282 903.02 Z" fill="#000000" fill-rule="evenodd" fill-opacity="1" /><path clip-path="url(#clip160)" d="M389.352 877.419 Q385.741 877.419 383.912 880.983 Q382.106 884.525 382.106 891.655 Q382.106 898.761 383.912 902.326 Q385.741 905.867 389.352 905.867 Q392.986 905.867 394.792 902.326 Q396.62 898.761 396.62 891.655 Q396.62 884.525 394.792 880.983 Q392.986 877.419 389.352 877.419 M389.352 873.715 Q395.162 873.715 398.217 878.321 Q401.296 882.905 401.296 891.655 Q401.296 900.381 398.217 904.988 Q395.162 909.571 389.352 909.571 Q383.542 909.571 380.463 904.988 Q377.407 900.381 377.407 891.655 Q377.407 882.905 380.463 878.321 Q383.542 873.715 389.352 873.715 Z" fill="#000000" fill-rule="evenodd" fill-opacity="1" /><path clip-path="url(#clip160)" d="M419.514 892.488 Q416.18 892.488 414.259 894.27 Q412.361 896.053 412.361 899.178 Q412.361 902.303 414.259 904.085 Q416.18 905.867 419.514 905.867 Q422.847 905.867 424.768 904.085 Q426.69 902.28 426.69 899.178 Q426.69 896.053 424.768 894.27 Q422.87 892.488 419.514 892.488 M414.838 890.497 Q411.829 889.756 410.139 887.696 Q408.472 885.636 408.472 882.673 Q408.472 878.53 411.412 876.122 Q414.375 873.715 419.514 873.715 Q424.676 873.715 427.615 876.122 Q430.555 878.53 430.555 882.673 Q430.555 885.636 428.865 887.696 Q427.199 889.756 424.213 890.497 Q427.592 891.284 429.467 893.576 Q431.365 895.868 431.365 899.178 Q431.365 904.201 428.287 906.886 Q425.231 909.571 419.514 909.571 Q413.796 909.571 410.717 906.886 Q407.662 904.201 407.662 899.178 Q407.662 895.868 409.56 893.576 Q411.458 891.284 414.838 890.497 M413.125 883.113 Q413.125 885.798 414.791 887.303 Q416.481 888.807 419.514 888.807 Q422.523 888.807 424.213 887.303 Q425.926 885.798 425.926 883.113 Q425.926 880.428 424.213 878.923 Q422.523 877.419 419.514 877.419 Q416.481 877.419 414.791 878.923 Q413.125 880.428 413.125 883.113 Z" fill="#000000" fill-rule="evenodd" fill-opacity="1" /><path clip-path="url(#clip160)" d="M716.18 877.419 Q712.569 877.419 710.74 880.983 Q708.934 884.525 708.934 891.655 Q708.934 898.761 710.74 902.326 Q712.569 905.867 716.18 905.867 Q719.814 905.867 721.619 902.326 Q723.448 898.761 723.448 891.655 Q723.448 884.525 721.619 880.983 Q719.814 877.419 716.18 877.419 M716.18 873.715 Q721.99 873.715 725.045 878.321 Q728.124 882.905 728.124 891.655 Q728.124 900.381 725.045 904.988 Q721.99 909.571 716.18 909.571 Q710.37 909.571 707.291 904.988 Q704.235 900.381 704.235 891.655 Q704.235 882.905 707.291 878.321 Q710.37 873.715 716.18 873.715 Z" fill="#000000" fill-rule="evenodd" fill-opacity="1" /><path clip-path="url(#clip160)" d="M736.342 903.02 L741.226 903.02 L741.226 908.9 L736.342 908.9 L736.342 903.02 Z" fill="#000000" fill-rule="evenodd" fill-opacity="1" /><path clip-path="url(#clip160)" d="M752.221 904.965 L759.86 904.965 L759.86 878.599 L751.55 880.266 L751.55 876.007 L759.814 874.34 L764.49 874.34 L764.49 904.965 L772.128 904.965 L772.128 908.9 L752.221 908.9 L752.221 904.965 Z" fill="#000000" fill-rule="evenodd" fill-opacity="1" /><path clip-path="url(#clip160)" d="M791.573 877.419 Q787.962 877.419 786.133 880.983 Q784.327 884.525 784.327 891.655 Q784.327 898.761 786.133 902.326 Q787.962 905.867 791.573 905.867 Q795.207 905.867 797.013 902.326 Q798.841 898.761 798.841 891.655 Q798.841 884.525 797.013 880.983 Q795.207 877.419 791.573 877.419 M791.573 873.715 Q797.383 873.715 800.439 878.321 Q803.517 882.905 803.517 891.655 Q803.517 900.381 800.439 904.988 Q797.383 909.571 791.573 909.571 Q785.763 909.571 782.684 904.988 Q779.628 900.381 779.628 891.655 Q779.628 882.905 782.684 878.321 Q785.763 873.715 791.573 873.715 Z" fill="#000000" fill-rule="evenodd" fill-opacity="1" /><path clip-path="url(#clip160)" d="M1089.08 877.419 Q1085.47 877.419 1083.64 880.983 Q1081.84 884.525 1081.84 891.655 Q1081.84 898.761 1083.64 902.326 Q1085.47 905.867 1089.08 905.867 Q1092.72 905.867 1094.52 902.326 Q1096.35 898.761 1096.35 891.655 Q1096.35 884.525 1094.52 880.983 Q1092.72 877.419 1089.08 877.419 M1089.08 873.715 Q1094.89 873.715 1097.95 878.321 Q1101.03 882.905 1101.03 891.655 Q1101.03 900.381 1097.95 904.988 Q1094.89 909.571 1089.08 909.571 Q1083.27 909.571 1080.19 904.988 Q1077.14 900.381 1077.14 891.655 Q1077.14 882.905 1080.19 878.321 Q1083.27 873.715 1089.08 873.715 Z" fill="#000000" fill-rule="evenodd" fill-opacity="1" /><path clip-path="url(#clip160)" d="M1109.25 903.02 L1114.13 903.02 L1114.13 908.9 L1109.25 908.9 L1109.25 903.02 Z" fill="#000000" fill-rule="evenodd" fill-opacity="1" /><path clip-path="url(#clip160)" d="M1125.13 904.965 L1132.76 904.965 L1132.76 878.599 L1124.45 880.266 L1124.45 876.007 L1132.72 874.34 L1137.39 874.34 L1137.39 904.965 L1145.03 904.965 L1145.03 908.9 L1125.13 908.9 L1125.13 904.965 Z" fill="#000000" fill-rule="evenodd" fill-opacity="1" /><path clip-path="url(#clip160)" d="M1158.5 904.965 L1174.82 904.965 L1174.82 908.9 L1152.88 908.9 L1152.88 904.965 Q1155.54 902.21 1160.13 897.58 Q1164.73 892.928 1165.91 891.585 Q1168.16 889.062 1169.04 887.326 Q1169.94 885.567 1169.94 883.877 Q1169.94 881.122 1168 879.386 Q1166.07 877.65 1162.97 877.65 Q1160.77 877.65 1158.32 878.414 Q1155.89 879.178 1153.11 880.729 L1153.11 876.007 Q1155.94 874.872 1158.39 874.294 Q1160.84 873.715 1162.88 873.715 Q1168.25 873.715 1171.44 876.4 Q1174.64 879.085 1174.64 883.576 Q1174.64 885.706 1173.83 887.627 Q1173.04 889.525 1170.94 892.118 Q1170.36 892.789 1167.25 896.006 Q1164.15 899.201 1158.5 904.965 Z" fill="#000000" fill-rule="evenodd" fill-opacity="1" /><path clip-path="url(#clip160)" d="M1460.15 877.419 Q1456.54 877.419 1454.71 880.983 Q1452.9 884.525 1452.9 891.655 Q1452.9 898.761 1454.71 902.326 Q1456.54 905.867 1460.15 905.867 Q1463.78 905.867 1465.59 902.326 Q1467.42 898.761 1467.42 891.655 Q1467.42 884.525 1465.59 880.983 Q1463.78 877.419 1460.15 877.419 M1460.15 873.715 Q1465.96 873.715 1469.01 878.321 Q1472.09 882.905 1472.09 891.655 Q1472.09 900.381 1469.01 904.988 Q1465.96 909.571 1460.15 909.571 Q1454.34 909.571 1451.26 904.988 Q1448.2 900.381 1448.2 891.655 Q1448.2 882.905 1451.26 878.321 Q1454.34 873.715 1460.15 873.715 Z" fill="#000000" fill-rule="evenodd" fill-opacity="1" /><path clip-path="url(#clip160)" d="M1480.31 903.02 L1485.19 903.02 L1485.19 908.9 L1480.31 908.9 L1480.31 903.02 Z" fill="#000000" fill-rule="evenodd" fill-opacity="1" /><path clip-path="url(#clip160)" d="M1496.19 904.965 L1503.83 904.965 L1503.83 878.599 L1495.52 880.266 L1495.52 876.007 L1503.78 874.34 L1508.46 874.34 L1508.46 904.965 L1516.1 904.965 L1516.1 908.9 L1496.19 908.9 L1496.19 904.965 Z" fill="#000000" fill-rule="evenodd" fill-opacity="1" /><path clip-path="url(#clip160)" d="M1538.39 878.414 L1526.58 896.863 L1538.39 896.863 L1538.39 878.414 M1537.16 874.34 L1543.04 874.34 L1543.04 896.863 L1547.97 896.863 L1547.97 900.752 L1543.04 900.752 L1543.04 908.9 L1538.39 908.9 L1538.39 900.752 L1522.79 900.752 L1522.79 896.238 L1537.16 874.34 Z" fill="#000000" fill-rule="evenodd" fill-opacity="1" /><path clip-path="url(#clip160)" d="M1832.42 877.419 Q1828.8 877.419 1826.98 880.983 Q1825.17 884.525 1825.17 891.655 Q1825.17 898.761 1826.98 902.326 Q1828.8 905.867 1832.42 905.867 Q1836.05 905.867 1837.85 902.326 Q1839.68 898.761 1839.68 891.655 Q1839.68 884.525 1837.85 880.983 Q1836.05 877.419 1832.42 877.419 M1832.42 873.715 Q1838.23 873.715 1841.28 878.321 Q1844.36 882.905 1844.36 891.655 Q1844.36 900.381 1841.28 904.988 Q1838.23 909.571 1832.42 909.571 Q1826.6 909.571 1823.53 904.988 Q1820.47 900.381 1820.47 891.655 Q1820.47 882.905 1823.53 878.321 Q1826.6 873.715 1832.42 873.715 Z" fill="#000000" fill-rule="evenodd" fill-opacity="1" /><path clip-path="url(#clip160)" d="M1852.58 903.02 L1857.46 903.02 L1857.46 908.9 L1852.58 908.9 L1852.58 903.02 Z" fill="#000000" fill-rule="evenodd" fill-opacity="1" /><path clip-path="url(#clip160)" d="M1868.46 904.965 L1876.1 904.965 L1876.1 878.599 L1867.79 880.266 L1867.79 876.007 L1876.05 874.34 L1880.72 874.34 L1880.72 904.965 L1888.36 904.965 L1888.36 908.9 L1868.46 908.9 L1868.46 904.965 Z" fill="#000000" fill-rule="evenodd" fill-opacity="1" /><path clip-path="url(#clip160)" d="M1908.39 889.756 Q1905.24 889.756 1903.39 891.909 Q1901.56 894.062 1901.56 897.812 Q1901.56 901.539 1903.39 903.715 Q1905.24 905.867 1908.39 905.867 Q1911.53 905.867 1913.36 903.715 Q1915.22 901.539 1915.22 897.812 Q1915.22 894.062 1913.36 891.909 Q1911.53 889.756 1908.39 889.756 M1917.67 875.104 L1917.67 879.363 Q1915.91 878.53 1914.1 878.09 Q1912.32 877.65 1910.56 877.65 Q1905.93 877.65 1903.48 880.775 Q1901.05 883.9 1900.7 890.219 Q1902.07 888.206 1904.13 887.141 Q1906.19 886.053 1908.66 886.053 Q1913.87 886.053 1916.88 889.224 Q1919.91 892.372 1919.91 897.812 Q1919.91 903.136 1916.77 906.354 Q1913.62 909.571 1908.39 909.571 Q1902.39 909.571 1899.22 904.988 Q1896.05 900.381 1896.05 891.655 Q1896.05 883.46 1899.94 878.599 Q1903.83 873.715 1910.38 873.715 Q1912.14 873.715 1913.92 874.062 Q1915.72 874.409 1917.67 875.104 Z" fill="#000000" fill-rule="evenodd" fill-opacity="1" /><path clip-path="url(#clip160)" d="M883.3 942.603 L883.3 948.874 Q879.64 947.123 876.393 946.264 Q873.146 945.404 870.123 945.404 Q864.871 945.404 862.007 947.441 Q859.174 949.478 859.174 953.234 Q859.174 956.385 861.052 958.008 Q862.961 959.6 868.245 960.587 L872.128 961.382 Q879.321 962.751 882.727 966.22 Q886.164 969.658 886.164 975.45 Q886.164 982.357 881.517 985.922 Q876.902 989.487 867.958 989.487 Q864.585 989.487 860.765 988.723 Q856.978 987.959 852.904 986.463 L852.904 979.843 Q856.818 982.039 860.574 983.153 Q864.33 984.267 867.958 984.267 Q873.465 984.267 876.457 982.103 Q879.449 979.938 879.449 975.928 Q879.449 972.427 877.284 970.453 Q875.152 968.48 870.25 967.493 L866.335 966.729 Q859.142 965.297 855.927 962.242 Q852.713 959.186 852.713 953.743 Q852.713 947.441 857.137 943.813 Q861.593 940.184 869.391 940.184 Q872.733 940.184 876.202 940.789 Q879.671 941.394 883.3 942.603 Z" fill="#000000" fill-rule="evenodd" fill-opacity="1" /><path clip-path="url(#clip160)" d="M912.136 970.644 Q905.039 970.644 902.301 972.268 Q899.564 973.891 899.564 977.806 Q899.564 980.925 901.601 982.771 Q903.67 984.585 907.203 984.585 Q912.073 984.585 915.001 981.148 Q917.961 977.678 917.961 971.949 L917.961 970.644 L912.136 970.644 M923.818 968.225 L923.818 988.564 L917.961 988.564 L917.961 983.153 Q915.956 986.4 912.964 987.959 Q909.972 989.487 905.643 989.487 Q900.169 989.487 896.922 986.431 Q893.708 983.344 893.708 978.188 Q893.708 972.172 897.718 969.117 Q901.76 966.061 909.749 966.061 L917.961 966.061 L917.961 965.488 Q917.961 961.446 915.287 959.25 Q912.646 957.022 907.84 957.022 Q904.784 957.022 901.888 957.754 Q898.991 958.486 896.318 959.95 L896.318 954.539 Q899.532 953.298 902.556 952.693 Q905.58 952.057 908.444 952.057 Q916.179 952.057 919.998 956.067 Q923.818 960.077 923.818 968.225 Z" fill="#000000" fill-rule="evenodd" fill-opacity="1" /><path clip-path="url(#clip160)" d="M963.635 959.759 Q965.831 955.812 968.887 953.934 Q971.942 952.057 976.08 952.057 Q981.65 952.057 984.674 955.971 Q987.697 959.855 987.697 967.048 L987.697 988.564 L981.809 988.564 L981.809 967.239 Q981.809 962.114 979.995 959.632 Q978.181 957.149 974.457 957.149 Q969.905 957.149 967.263 960.173 Q964.622 963.197 964.622 968.416 L964.622 988.564 L958.733 988.564 L958.733 967.239 Q958.733 962.083 956.919 959.632 Q955.105 957.149 951.317 957.149 Q946.83 957.149 944.188 960.205 Q941.546 963.228 941.546 968.416 L941.546 988.564 L935.658 988.564 L935.658 952.916 L941.546 952.916 L941.546 958.454 Q943.551 955.176 946.352 953.616 Q949.153 952.057 953.004 952.057 Q956.887 952.057 959.593 954.03 Q962.33 956.003 963.635 959.759 Z" fill="#000000" fill-rule="evenodd" fill-opacity="1" /><path clip-path="url(#clip160)" d="M1005.04 983.217 L1005.04 1002.12 L999.156 1002.12 L999.156 952.916 L1005.04 952.916 L1005.04 958.327 Q1006.89 955.144 1009.69 953.616 Q1012.52 952.057 1016.44 952.057 Q1022.93 952.057 1026.97 957.213 Q1031.05 962.369 1031.05 970.772 Q1031.05 979.174 1026.97 984.331 Q1022.93 989.487 1016.44 989.487 Q1012.52 989.487 1009.69 987.959 Q1006.89 986.4 1005.04 983.217 M1024.97 970.772 Q1024.97 964.311 1022.29 960.65 Q1019.65 956.958 1015.01 956.958 Q1010.36 956.958 1007.69 960.65 Q1005.04 964.311 1005.04 970.772 Q1005.04 977.233 1007.69 980.925 Q1010.36 984.585 1015.01 984.585 Q1019.65 984.585 1022.29 980.925 Q1024.97 977.233 1024.97 970.772 Z" fill="#000000" fill-rule="evenodd" fill-opacity="1" /><path clip-path="url(#clip160)" d="M1040.76 939.039 L1046.61 939.039 L1046.61 988.564 L1040.76 988.564 L1040.76 939.039 Z" fill="#000000" fill-rule="evenodd" fill-opacity="1" /><path clip-path="url(#clip160)" d="M1089.36 969.276 L1089.36 972.14 L1062.43 972.14 Q1062.81 978.188 1066.06 981.371 Q1069.34 984.522 1075.16 984.522 Q1078.54 984.522 1081.69 983.694 Q1084.87 982.867 1087.99 981.211 L1087.99 986.75 Q1084.84 988.086 1081.53 988.787 Q1078.22 989.487 1074.81 989.487 Q1066.28 989.487 1061.28 984.522 Q1056.32 979.556 1056.32 971.09 Q1056.32 962.337 1061.03 957.213 Q1065.77 952.057 1073.79 952.057 Q1080.99 952.057 1085.16 956.703 Q1089.36 961.319 1089.36 969.276 M1083.5 967.557 Q1083.44 962.751 1080.8 959.886 Q1078.19 957.022 1073.86 957.022 Q1068.96 957.022 1066 959.791 Q1063.07 962.56 1062.62 967.589 L1083.5 967.557 Z" fill="#000000" fill-rule="evenodd" fill-opacity="1" /><path clip-path="url(#clip160)" d="M1115.49 952.916 L1121.7 952.916 L1132.84 982.835 L1143.98 952.916 L1150.18 952.916 L1136.81 988.564 L1128.86 988.564 L1115.49 952.916 Z" fill="#000000" fill-rule="evenodd" fill-opacity="1" /><path clip-path="url(#clip160)" d="M1174.47 970.644 Q1167.37 970.644 1164.63 972.268 Q1161.89 973.891 1161.89 977.806 Q1161.89 980.925 1163.93 982.771 Q1166 984.585 1169.53 984.585 Q1174.4 984.585 1177.33 981.148 Q1180.29 977.678 1180.29 971.949 L1180.29 970.644 L1174.47 970.644 M1186.15 968.225 L1186.15 988.564 L1180.29 988.564 L1180.29 983.153 Q1178.29 986.4 1175.29 987.959 Q1172.3 989.487 1167.97 989.487 Q1162.5 989.487 1159.25 986.431 Q1156.04 983.344 1156.04 978.188 Q1156.04 972.172 1160.05 969.117 Q1164.09 966.061 1172.08 966.061 L1180.29 966.061 L1180.29 965.488 Q1180.29 961.446 1177.62 959.25 Q1174.98 957.022 1170.17 957.022 Q1167.11 957.022 1164.22 957.754 Q1161.32 958.486 1158.65 959.95 L1158.65 954.539 Q1161.86 953.298 1164.89 952.693 Q1167.91 952.057 1170.78 952.057 Q1178.51 952.057 1182.33 956.067 Q1186.15 960.077 1186.15 968.225 Z" fill="#000000" fill-rule="evenodd" fill-opacity="1" /><path clip-path="url(#clip160)" d="M1198.21 939.039 L1204.07 939.039 L1204.07 988.564 L1198.21 988.564 L1198.21 939.039 Z" fill="#000000" fill-rule="evenodd" fill-opacity="1" /><path clip-path="url(#clip160)" d="M1215.72 974.496 L1215.72 952.916 L1221.57 952.916 L1221.57 974.273 Q1221.57 979.334 1223.55 981.88 Q1225.52 984.394 1229.47 984.394 Q1234.21 984.394 1236.95 981.371 Q1239.72 978.347 1239.72 973.127 L1239.72 952.916 L1245.57 952.916 L1245.57 988.564 L1239.72 988.564 L1239.72 983.089 Q1237.58 986.336 1234.75 987.927 Q1231.95 989.487 1228.23 989.487 Q1222.08 989.487 1218.9 985.667 Q1215.72 981.848 1215.72 974.496 M1230.45 952.057 L1230.45 952.057 Z" fill="#000000" fill-rule="evenodd" fill-opacity="1" /><path clip-path="url(#clip160)" d="M1288.13 969.276 L1288.13 972.14 L1261.2 972.14 Q1261.58 978.188 1264.83 981.371 Q1268.11 984.522 1273.93 984.522 Q1277.31 984.522 1280.46 983.694 Q1283.64 982.867 1286.76 981.211 L1286.76 986.75 Q1283.61 988.086 1280.3 988.787 Q1276.99 989.487 1273.58 989.487 Q1265.05 989.487 1260.05 984.522 Q1255.09 979.556 1255.09 971.09 Q1255.09 962.337 1259.8 957.213 Q1264.54 952.057 1272.56 952.057 Q1279.76 952.057 1283.93 956.703 Q1288.13 961.319 1288.13 969.276 M1282.27 967.557 Q1282.21 962.751 1279.57 959.886 Q1276.96 957.022 1272.63 957.022 Q1267.72 957.022 1264.76 959.791 Q1261.84 962.56 1261.39 967.589 L1282.27 967.557 Z" fill="#000000" fill-rule="evenodd" fill-opacity="1" /><polyline clip-path="url(#clip162)" style="stroke:#000000; stroke-linecap:butt; stroke-linejoin:round; stroke-width:2; stroke-opacity:0.1; fill:none" points="
  188.084,829.188 1952.76,829.188 
  "/>
<polyline clip-path="url(#clip162)" style="stroke:#000000; stroke-linecap:butt; stroke-linejoin:round; stroke-width:2; stroke-opacity:0.1; fill:none" points="
  188.084,629.67 1952.76,629.67 
  "/>
<polyline clip-path="url(#clip162)" style="stroke:#000000; stroke-linecap:butt; stroke-linejoin:round; stroke-width:2; stroke-opacity:0.1; fill:none" points="
  188.084,430.151 1952.76,430.151 
  "/>
<polyline clip-path="url(#clip162)" style="stroke:#000000; stroke-linecap:butt; stroke-linejoin:round; stroke-width:2; stroke-opacity:0.1; fill:none" points="
  188.084,230.632 1952.76,230.632 
  "/>
<polyline clip-path="url(#clip160)" style="stroke:#000000; stroke-linecap:butt; stroke-linejoin:round; stroke-width:4; stroke-opacity:1; fill:none" points="
  188.084,849.7 188.084,108.352 
  "/>
<polyline clip-path="url(#clip160)" style="stroke:#000000; stroke-linecap:butt; stroke-linejoin:round; stroke-width:4; stroke-opacity:1; fill:none" points="
  188.084,829.188 206.981,829.188 
  "/>
<polyline clip-path="url(#clip160)" style="stroke:#000000; stroke-linecap:butt; stroke-linejoin:round; stroke-width:4; stroke-opacity:1; fill:none" points="
  188.084,629.67 206.981,629.67 
  "/>
<polyline clip-path="url(#clip160)" style="stroke:#000000; stroke-linecap:butt; stroke-linejoin:round; stroke-width:4; stroke-opacity:1; fill:none" points="
  188.084,430.151 206.981,430.151 
  "/>
<polyline clip-path="url(#clip160)" style="stroke:#000000; stroke-linecap:butt; stroke-linejoin:round; stroke-width:4; stroke-opacity:1; fill:none" points="
  188.084,230.632 206.981,230.632 
  "/>
<path clip-path="url(#clip160)" d="M146.139 814.987 Q142.528 814.987 140.699 818.552 Q138.894 822.093 138.894 829.223 Q138.894 836.329 140.699 839.894 Q142.528 843.436 146.139 843.436 Q149.773 843.436 151.579 839.894 Q153.408 836.329 153.408 829.223 Q153.408 822.093 151.579 818.552 Q149.773 814.987 146.139 814.987 M146.139 811.283 Q151.949 811.283 155.005 815.89 Q158.084 820.473 158.084 829.223 Q158.084 837.95 155.005 842.556 Q151.949 847.14 146.139 847.14 Q140.329 847.14 137.25 842.556 Q134.195 837.95 134.195 829.223 Q134.195 820.473 137.25 815.89 Q140.329 811.283 146.139 811.283 Z" fill="#000000" fill-rule="evenodd" fill-opacity="1" /><path clip-path="url(#clip160)" d="M106.788 643.014 L114.426 643.014 L114.426 616.649 L106.116 618.316 L106.116 614.056 L114.38 612.39 L119.056 612.39 L119.056 643.014 L126.695 643.014 L126.695 646.95 L106.788 646.95 L106.788 643.014 Z" fill="#000000" fill-rule="evenodd" fill-opacity="1" /><path clip-path="url(#clip160)" d="M146.139 615.468 Q142.528 615.468 140.699 619.033 Q138.894 622.575 138.894 629.704 Q138.894 636.811 140.699 640.376 Q142.528 643.917 146.139 643.917 Q149.773 643.917 151.579 640.376 Q153.408 636.811 153.408 629.704 Q153.408 622.575 151.579 619.033 Q149.773 615.468 146.139 615.468 M146.139 611.765 Q151.949 611.765 155.005 616.371 Q158.084 620.954 158.084 629.704 Q158.084 638.431 155.005 643.038 Q151.949 647.621 146.139 647.621 Q140.329 647.621 137.25 643.038 Q134.195 638.431 134.195 629.704 Q134.195 620.954 137.25 616.371 Q140.329 611.765 146.139 611.765 Z" fill="#000000" fill-rule="evenodd" fill-opacity="1" /><path clip-path="url(#clip160)" d="M110.005 443.496 L126.324 443.496 L126.324 447.431 L104.38 447.431 L104.38 443.496 Q107.042 440.741 111.625 436.112 Q116.232 431.459 117.412 430.116 Q119.658 427.593 120.537 425.857 Q121.44 424.098 121.44 422.408 Q121.44 419.653 119.496 417.917 Q117.575 416.181 114.473 416.181 Q112.274 416.181 109.82 416.945 Q107.389 417.709 104.612 419.26 L104.612 414.538 Q107.436 413.403 109.889 412.825 Q112.343 412.246 114.38 412.246 Q119.75 412.246 122.945 414.931 Q126.139 417.616 126.139 422.107 Q126.139 424.237 125.329 426.158 Q124.542 428.056 122.436 430.649 Q121.857 431.32 118.755 434.537 Q115.653 437.732 110.005 443.496 Z" fill="#000000" fill-rule="evenodd" fill-opacity="1" /><path clip-path="url(#clip160)" d="M146.139 415.95 Q142.528 415.95 140.699 419.514 Q138.894 423.056 138.894 430.186 Q138.894 437.292 140.699 440.857 Q142.528 444.399 146.139 444.399 Q149.773 444.399 151.579 440.857 Q153.408 437.292 153.408 430.186 Q153.408 423.056 151.579 419.514 Q149.773 415.95 146.139 415.95 M146.139 412.246 Q151.949 412.246 155.005 416.852 Q158.084 421.436 158.084 430.186 Q158.084 438.912 155.005 443.519 Q151.949 448.102 146.139 448.102 Q140.329 448.102 137.25 443.519 Q134.195 438.912 134.195 430.186 Q134.195 421.436 137.25 416.852 Q140.329 412.246 146.139 412.246 Z" fill="#000000" fill-rule="evenodd" fill-opacity="1" /><path clip-path="url(#clip160)" d="M120.144 229.278 Q123.5 229.996 125.375 232.264 Q127.274 234.533 127.274 237.866 Q127.274 242.982 123.755 245.783 Q120.237 248.583 113.755 248.583 Q111.579 248.583 109.264 248.144 Q106.973 247.727 104.519 246.871 L104.519 242.357 Q106.463 243.491 108.778 244.07 Q111.093 244.648 113.616 244.648 Q118.014 244.648 120.306 242.912 Q122.621 241.176 122.621 237.866 Q122.621 234.81 120.468 233.097 Q118.338 231.361 114.519 231.361 L110.491 231.361 L110.491 227.519 L114.704 227.519 Q118.153 227.519 119.982 226.153 Q121.811 224.764 121.811 222.172 Q121.811 219.51 119.912 218.098 Q118.037 216.662 114.519 216.662 Q112.598 216.662 110.399 217.079 Q108.2 217.496 105.561 218.375 L105.561 214.209 Q108.223 213.468 110.538 213.098 Q112.875 212.727 114.936 212.727 Q120.26 212.727 123.362 215.158 Q126.463 217.565 126.463 221.685 Q126.463 224.556 124.82 226.547 Q123.176 228.514 120.144 229.278 Z" fill="#000000" fill-rule="evenodd" fill-opacity="1" /><path clip-path="url(#clip160)" d="M146.139 216.431 Q142.528 216.431 140.699 219.996 Q138.894 223.537 138.894 230.667 Q138.894 237.773 140.699 241.338 Q142.528 244.88 146.139 244.88 Q149.773 244.88 151.579 241.338 Q153.408 237.773 153.408 230.667 Q153.408 223.537 151.579 219.996 Q149.773 216.431 146.139 216.431 M146.139 212.727 Q151.949 212.727 155.005 217.334 Q158.084 221.917 158.084 230.667 Q158.084 239.394 155.005 244 Q151.949 248.583 146.139 248.583 Q140.329 248.583 137.25 244 Q134.195 239.394 134.195 230.667 Q134.195 221.917 137.25 217.334 Q140.329 212.727 146.139 212.727 Z" fill="#000000" fill-rule="evenodd" fill-opacity="1" /><path clip-path="url(#clip160)" d="M17.8877 592.336 L54.8406 592.336 L54.8406 584.569 Q54.8406 574.734 50.3846 570.183 Q45.9286 565.6 36.3164 565.6 Q26.7679 565.6 22.3437 570.183 Q17.8877 574.734 17.8877 584.569 L17.8877 592.336 M12.6042 598.765 L12.6042 585.556 Q12.6042 571.743 18.3651 565.281 Q24.0943 558.82 36.3164 558.82 Q48.6022 558.82 54.3632 565.313 Q60.1242 571.806 60.1242 585.556 L60.1242 598.765 L12.6042 598.765 Z" fill="#000000" fill-rule="evenodd" fill-opacity="1" /><path clip-path="url(#clip160)" d="M40.8361 518.334 L43.7006 518.334 L43.7006 545.261 Q49.7481 544.879 52.9309 541.633 Q56.0819 538.354 56.0819 532.53 Q56.0819 529.156 55.2544 526.005 Q54.4269 522.822 52.7718 519.703 L58.3099 519.703 Q59.6467 522.854 60.347 526.164 Q61.0472 529.474 61.0472 532.88 Q61.0472 541.41 56.0819 546.407 Q51.1167 551.372 42.6503 551.372 Q33.8974 551.372 28.7731 546.662 Q23.6168 541.919 23.6168 533.898 Q23.6168 526.705 28.2638 522.536 Q32.8789 518.334 40.8361 518.334 M39.1173 524.191 Q34.3112 524.254 31.4466 526.896 Q28.5821 529.506 28.5821 533.835 Q28.5821 538.736 31.3512 541.696 Q34.1202 544.625 39.1492 545.07 L39.1173 524.191 Z" fill="#000000" fill-rule="evenodd" fill-opacity="1" /><path clip-path="url(#clip160)" d="M38.6081 479.09 L60.1242 479.09 L60.1242 484.946 L38.799 484.946 Q33.7383 484.946 31.2238 486.919 Q28.7094 488.893 28.7094 492.84 Q28.7094 497.582 31.7331 500.319 Q34.7568 503.057 39.9767 503.057 L60.1242 503.057 L60.1242 508.945 L24.4762 508.945 L24.4762 503.057 L30.0144 503.057 Q26.7997 500.956 25.2083 498.123 Q23.6168 495.259 23.6168 491.535 Q23.6168 485.392 27.4363 482.241 Q31.2238 479.09 38.6081 479.09 Z" fill="#000000" fill-rule="evenodd" fill-opacity="1" /><path clip-path="url(#clip160)" d="M25.5265 444.683 L31.0647 444.683 Q29.7916 447.166 29.155 449.839 Q28.5184 452.513 28.5184 455.377 Q28.5184 459.738 29.8552 461.934 Q31.192 464.098 33.8656 464.098 Q35.9026 464.098 37.0803 462.539 Q38.2261 460.979 39.2765 456.269 L39.7221 454.263 Q41.0589 448.025 43.5097 445.415 Q45.9286 442.773 50.2891 442.773 Q55.2544 442.773 58.1508 446.72 Q61.0472 450.635 61.0472 457.51 Q61.0472 460.374 60.4743 463.494 Q59.9332 466.581 58.8192 470.019 L52.7718 470.019 Q54.4587 466.772 55.318 463.621 Q56.1456 460.47 56.1456 457.383 Q56.1456 453.245 54.7451 451.017 Q53.3129 448.789 50.7347 448.789 Q48.3476 448.789 47.0745 450.412 Q45.8013 452.004 44.6237 457.446 L44.1462 459.483 Q43.0004 464.926 40.6451 467.345 Q38.258 469.764 34.1202 469.764 Q29.0913 469.764 26.3541 466.199 Q23.6168 462.634 23.6168 456.078 Q23.6168 452.831 24.0943 449.967 Q24.5717 447.102 25.5265 444.683 Z" fill="#000000" fill-rule="evenodd" fill-opacity="1" /><path clip-path="url(#clip160)" d="M24.4762 433.448 L24.4762 427.591 L60.1242 427.591 L60.1242 433.448 L24.4762 433.448 M10.599 433.448 L10.599 427.591 L18.015 427.591 L18.015 433.448 L10.599 433.448 Z" fill="#000000" fill-rule="evenodd" fill-opacity="1" /><path clip-path="url(#clip160)" d="M14.3547 409.544 L24.4762 409.544 L24.4762 397.481 L29.0277 397.481 L29.0277 409.544 L48.3794 409.544 Q52.7399 409.544 53.9813 408.367 Q55.2226 407.157 55.2226 403.497 L55.2226 397.481 L60.1242 397.481 L60.1242 403.497 Q60.1242 410.276 57.6097 412.854 Q55.0634 415.433 48.3794 415.433 L29.0277 415.433 L29.0277 419.729 L24.4762 419.729 L24.4762 415.433 L14.3547 415.433 L14.3547 409.544 Z" fill="#000000" fill-rule="evenodd" fill-opacity="1" /><path clip-path="url(#clip160)" d="M63.4343 374.947 Q69.8 377.429 71.7416 379.785 Q73.6831 382.14 73.6831 386.087 L73.6831 390.765 L68.7815 390.765 L68.7815 387.328 Q68.7815 384.909 67.6357 383.572 Q66.4899 382.235 62.2248 380.612 L59.5512 379.562 L24.4762 393.98 L24.4762 387.774 L52.358 376.634 L24.4762 365.494 L24.4762 359.287 L63.4343 374.947 Z" fill="#000000" fill-rule="evenodd" fill-opacity="1" /><path clip-path="url(#clip160)" d="M1084.86 9.54393 L1084.86 15.7418 L1077.73 15.7418 Q1073.72 15.7418 1072.14 17.3622 Q1070.6 18.9825 1070.6 23.1955 L1070.6 27.2059 L1082.88 27.2059 L1082.88 32.9987 L1070.6 32.9987 L1070.6 72.576 L1063.11 72.576 L1063.11 32.9987 L1055.98 32.9987 L1055.98 27.2059 L1063.11 27.2059 L1063.11 24.0462 Q1063.11 16.471 1066.63 13.0277 Q1070.16 9.54393 1077.81 9.54393 L1084.86 9.54393 Z" fill="#000000" fill-rule="evenodd" fill-opacity="1" /><polyline clip-path="url(#clip162)" style="stroke:#009af9; stroke-linecap:butt; stroke-linejoin:round; stroke-width:4; stroke-opacity:1; fill:none" points="
  238.027,786.891 248.908,781.27 259.789,775.785 270.67,770.573 281.551,765.741 292.432,761.353 303.313,757.416 314.194,753.869 325.075,750.579 335.956,747.348 
  346.837,743.926 357.718,740.035 368.599,735.402 379.479,729.791 390.36,723.031 401.241,715.041 412.122,705.833 423.003,695.504 433.884,684.217 444.765,672.164 
  455.646,659.528 466.527,646.454 477.408,633.022 488.289,619.243 499.17,605.062 510.051,590.386 520.932,575.107 531.813,559.139 542.694,542.447 553.575,525.062 
  564.456,507.087 575.337,488.694 586.218,470.101 597.098,451.551 607.979,433.28 618.86,415.5 629.741,398.37 640.622,381.997 651.503,366.43 662.384,351.671 
  673.265,337.691 684.146,324.452 695.027,311.928 705.908,300.117 716.789,289.06 727.67,278.838 738.551,269.569 749.432,261.401 760.313,254.487 771.194,248.97 
  782.075,244.951 792.956,242.478 803.836,241.518 814.717,241.956 825.598,243.593 836.479,246.161 847.36,249.354 858.241,252.868 869.122,256.444 880.003,259.918 
  890.884,263.259 901.765,266.595 912.646,270.212 923.527,274.532 934.408,280.063 945.289,287.327 956.17,296.781 967.051,308.737 977.932,323.3 988.813,340.333 
  999.694,359.46 1010.57,380.102 1021.46,401.549 1032.34,423.045 1043.22,443.885 1054.1,463.493 1064.98,481.481 1075.86,497.678 1086.74,512.12 1097.62,525.022 
  1108.5,536.722 1119.38,547.616 1130.26,558.101 1141.15,568.517 1152.03,579.106 1162.91,589.996 1173.79,601.191 1184.67,612.589 1195.55,624.006 1206.43,635.208 
  1217.31,645.958 1228.19,656.047 1239.07,665.329 1249.96,673.742 1260.84,681.312 1271.72,688.154 1282.6,694.442 1293.48,700.391 1304.36,706.215 1315.24,712.102 
  1326.12,718.185 1337,724.532 1347.88,731.146 1358.76,737.968 1369.65,744.903 1380.53,751.838 1391.41,758.662 1402.29,765.277 1413.17,771.614 1424.05,777.624 
  1434.93,783.28 1445.81,788.566 1456.69,793.471 1467.57,797.984 1478.46,802.091 1489.34,805.78 1500.22,809.037 1511.1,811.854 1521.98,814.231 1532.86,816.173 
  1543.74,817.695 1554.62,818.817 1565.5,819.568 1576.38,819.985 1587.26,820.111 1598.15,820 1609.03,819.715 1619.91,819.321 1630.79,818.888 1641.67,818.477 
  1652.55,818.143 1663.43,817.92 1674.31,817.826 1685.19,817.861 1696.07,818.005 1706.96,818.231 1717.84,818.501 1728.72,818.782 1739.6,819.044 1750.48,819.262 
  1761.36,819.424 1772.24,819.524 1783.12,819.564 1794,819.553 1804.88,819.505 1815.76,819.44 1826.65,819.38 1837.53,819.352 1848.41,819.381 1859.29,819.492 
  1870.17,819.706 1881.05,820.037 1891.93,820.492 1902.81,821.065 
  "/>
<polyline clip-path="url(#clip162)" style="stroke:#e26f46; stroke-linecap:butt; stroke-linejoin:round; stroke-width:4; stroke-opacity:1; fill:none" points="
  254.833,817.59 263.194,816.121 271.555,814.504 279.915,812.725 288.276,810.769 296.637,808.625 304.998,806.279 313.358,803.714 321.719,800.905 330.08,797.813 
  338.441,794.383 346.801,790.544 355.162,786.204 363.523,781.257 371.884,775.591 380.244,769.089 388.605,761.645 396.966,753.168 405.327,743.591 413.687,732.877 
  422.048,721.023 430.409,708.063 438.77,694.062 447.13,679.121 455.491,663.364 463.852,646.94 472.213,630.014 480.573,612.759 488.934,595.348 497.295,577.945 
  505.656,560.697 514.016,543.716 522.377,527.078 530.738,510.805 539.099,494.87 547.459,479.192 555.82,463.643 564.181,448.062 572.542,432.273 580.902,416.104 
  589.263,399.41 597.624,382.092 605.985,364.116 614.345,345.525 622.706,326.44 631.067,307.064 639.428,287.67 647.788,268.588 656.149,250.187 664.51,232.85 
  672.871,216.946 681.231,202.803 689.592,190.678 697.953,180.734 706.314,173.022 714.674,167.469 723.035,163.88 731.396,161.95 739.757,161.29 748.117,161.458 
  756.478,162 764.839,162.49 773.2,162.573 781.56,161.993 789.921,160.625 798.282,158.477 806.643,155.702 815.003,152.581 823.364,149.503 831.725,146.937 
  840.086,145.399 848.446,145.408 856.807,147.447 865.168,151.926 873.529,159.144 881.889,169.267 890.25,182.31 898.611,198.135 906.972,216.457 915.332,236.872 
  923.693,258.875 932.054,281.906 940.415,305.376 948.775,328.707 957.136,351.363 965.497,372.878 973.858,392.877 982.218,411.094 990.579,427.384 998.94,441.725 
  1007.3,454.218 1015.66,465.072 1024.02,474.589 1032.38,483.126 1040.74,491.07 1049.1,498.794 1057.47,506.628 1065.83,514.823 1074.19,523.538 1082.55,532.829 
  1090.91,542.656 1099.27,552.897 1107.63,563.369 1115.99,573.863 1124.35,584.166 1132.71,594.095 1141.07,603.51 1149.43,612.335 1157.79,620.562 1166.15,628.25 
  1174.52,635.511 1182.88,642.503 1191.24,649.404 1199.6,656.392 1207.96,663.625 1216.32,671.223 1224.68,679.25 1233.04,687.713 1241.4,696.555 1249.76,705.664 
  1258.12,714.887 1266.48,724.042 1274.84,732.94 1283.21,741.401 1291.57,749.27 1299.93,756.428 1308.29,762.806 1316.65,768.377 1325.01,773.164 1333.37,777.23 
  1341.73,780.669 1350.09,783.596 1358.45,786.138 1366.81,788.417 1375.17,790.547 1383.53,792.621 1391.9,794.705 1400.26,796.844 1408.62,799.051 1416.98,801.321 
  1425.34,803.63 1433.7,805.944 1442.06,808.224 1450.42,810.435 1458.78,812.545 1467.14,814.53 
  "/>
<polyline clip-path="url(#clip162)" style="stroke:#3da44d; stroke-linecap:butt; stroke-linejoin:round; stroke-width:4; stroke-opacity:1; fill:none" points="
  245.443,794.819 255.971,789.099 266.499,783.011 277.027,776.574 287.555,769.813 298.083,762.772 308.611,755.523 319.138,748.171 329.666,740.837 340.194,733.641 
  350.722,726.659 361.25,719.888 371.778,713.206 382.306,706.352 392.834,698.937 403.362,690.476 413.89,680.466 424.417,668.466 434.945,654.195 445.473,637.611 
  456.001,618.944 466.529,598.692 477.057,577.549 487.585,556.29 498.113,535.62 508.641,516.027 519.169,497.667 529.696,480.305 540.224,463.343 550.752,445.926 
  561.28,427.111 571.808,406.064 582.336,382.246 592.864,355.546 603.392,326.334 613.92,295.434 624.447,264.015 634.975,233.435 645.503,205.073 656.031,180.168 
  666.559,159.699 677.087,144.304 687.615,134.245 698.143,129.408 708.671,129.334 719.199,133.274 729.726,140.262 740.254,149.209 750.782,159.004 761.31,168.629 
  771.838,177.258 782.366,184.346 792.894,189.678 803.422,193.381 813.95,195.89 824.478,197.871 835.005,200.116 845.533,203.426 856.061,208.498 866.589,215.849 
  877.117,225.775 887.645,238.363 898.173,253.531 908.701,271.096 919.229,290.834 929.757,312.523 940.284,335.963 950.812,360.96 961.34,387.299 971.868,414.706 
  982.396,442.819 992.924,471.174 1003.45,499.213 1013.98,526.309 1024.51,551.811 1035.04,575.098 1045.56,595.638 1056.09,613.045 1066.62,627.133 1077.15,637.941 
  1087.68,645.746 1098.2,651.048 1108.73,654.522 1119.26,656.952 1129.79,659.146 1140.31,661.846 1150.84,665.645 1161.37,670.918 1171.9,677.789 1182.43,686.124 
  1192.95,695.567 1203.48,705.6 1214.01,715.624 1224.54,725.049 1235.07,733.376 1245.59,740.266 1256.12,745.569 1266.65,749.334 1277.18,751.789 1287.71,753.287 
  1298.23,754.258 1308.76,755.134 1319.29,756.301 1329.82,758.051 1340.34,760.553 1350.87,763.851 1361.4,767.872 1371.93,772.454 1382.46,777.382 1392.98,782.428 
  1403.51,787.384 1414.04,792.086 1424.57,796.423 1435.1,800.339 1445.62,803.818 1456.15,806.875 1466.68,809.535 1477.21,811.828 1487.74,813.784 1498.26,815.432 
  1508.79,816.803 1519.32,817.927 1529.85,818.837 1540.37,819.565 1550.9,820.141 1561.43,820.59 1571.96,820.939 1582.49,821.212 1593.01,821.438 1603.54,821.651 
  1614.07,821.889 1624.6,822.187 1635.13,822.574 1645.65,823.064 1656.18,823.654 1666.71,824.324 1677.24,825.042 1687.77,825.766 1698.29,826.458 1708.82,827.082 
  1719.35,827.615 1729.88,828.045 1740.4,828.366 1750.93,828.582 1761.46,828.699 1771.99,828.718 1782.52,828.643 1793.04,828.47 1803.57,828.197 1814.1,827.82 
  1824.63,827.344 1835.16,826.781 1845.68,826.157 1856.21,825.511 1866.74,824.893 1877.27,824.358 1887.8,823.958 1898.32,823.737 
  "/>
</svg>
