<?xml version="1.0" encoding="utf-8"?>
<svg xmlns="http://www.w3.org/2000/svg" xmlns:xlink="http://www.w3.org/1999/xlink" width="600" height="400" viewBox="0 0 2400 1600">
<defs>
  <clipPath id="clip810">
    <rect x="0" y="0" width="2400" height="1600"/>
  </clipPath>
</defs>
<path clip-path="url(#clip810)" d="
M0 1600 L2400 1600 L2400 0 L0 0  Z
  " fill="#ffffff" fill-rule="evenodd" fill-opacity="1"/>
<defs>
  <clipPath id="clip811">
    <rect x="480" y="0" width="1681" height="1600"/>
  </clipPath>
</defs>
<path clip-path="url(#clip810)" d="
M201.019 1486.45 L2352.76 1486.45 L2352.76 123.472 L201.019 123.472  Z
  " fill="#ffffff" fill-rule="evenodd" fill-opacity="1"/>
<defs>
  <clipPath id="clip812">
    <rect x="201" y="123" width="2153" height="1364"/>
  </clipPath>
</defs>
<polyline clip-path="url(#clip812)" style="stroke:#000000; stroke-linecap:butt; stroke-linejoin:round; stroke-width:2; stroke-opacity:0.1; fill:none" points="
  261.917,1486.45 261.917,123.472 
  "/>
<polyline clip-path="url(#clip812)" style="stroke:#000000; stroke-linecap:butt; stroke-linejoin:round; stroke-width:2; stroke-opacity:0.1; fill:none" points="
  684.822,1486.45 684.822,123.472 
  "/>
<polyline clip-path="url(#clip812)" style="stroke:#000000; stroke-linecap:butt; stroke-linejoin:round; stroke-width:2; stroke-opacity:0.1; fill:none" points="
  1107.73,1486.45 1107.73,123.472 
  "/>
<polyline clip-path="url(#clip812)" style="stroke:#000000; stroke-linecap:butt; stroke-linejoin:round; stroke-width:2; stroke-opacity:0.1; fill:none" points="
  1530.63,1486.45 1530.63,123.472 
  "/>
<polyline clip-path="url(#clip812)" style="stroke:#000000; stroke-linecap:butt; stroke-linejoin:round; stroke-width:2; stroke-opacity:0.1; fill:none" points="
  1953.53,1486.45 1953.53,123.472 
  "/>
<polyline clip-path="url(#clip810)" style="stroke:#000000; stroke-linecap:butt; stroke-linejoin:round; stroke-width:4; stroke-opacity:1; fill:none" points="
  201.019,1486.45 2352.76,1486.45 
  "/>
<polyline clip-path="url(#clip810)" style="stroke:#000000; stroke-linecap:butt; stroke-linejoin:round; stroke-width:4; stroke-opacity:1; fill:none" points="
  261.917,1486.45 261.917,1467.55 
  "/>
<polyline clip-path="url(#clip810)" style="stroke:#000000; stroke-linecap:butt; stroke-linejoin:round; stroke-width:4; stroke-opacity:1; fill:none" points="
  684.822,1486.45 684.822,1467.55 
  "/>
<polyline clip-path="url(#clip810)" style="stroke:#000000; stroke-linecap:butt; stroke-linejoin:round; stroke-width:4; stroke-opacity:1; fill:none" points="
  1107.73,1486.45 1107.73,1467.55 
  "/>
<polyline clip-path="url(#clip810)" style="stroke:#000000; stroke-linecap:butt; stroke-linejoin:round; stroke-width:4; stroke-opacity:1; fill:none" points="
  1530.63,1486.45 1530.63,1467.55 
  "/>
<polyline clip-path="url(#clip810)" style="stroke:#000000; stroke-linecap:butt; stroke-linejoin:round; stroke-width:4; stroke-opacity:1; fill:none" points="
  1953.53,1486.45 1953.53,1467.55 
  "/>
<path clip-path="url(#clip810)" d="M206.941 1544.91 L214.58 1544.91 L214.58 1518.55 L206.27 1520.21 L206.27 1515.95 L214.533 1514.29 L219.209 1514.29 L219.209 1544.91 L226.848 1544.91 L226.848 1548.85 L206.941 1548.85 L206.941 1544.91 Z" fill="#000000" fill-rule="evenodd" fill-opacity="1" /><path clip-path="url(#clip810)" d="M236.432 1548.13 L236.432 1543.87 Q238.191 1544.7 239.996 1545.14 Q241.802 1545.58 243.538 1545.58 Q248.168 1545.58 250.598 1542.48 Q253.052 1539.36 253.399 1533.01 Q252.056 1535.01 249.996 1536.07 Q247.936 1537.13 245.436 1537.13 Q240.251 1537.13 237.219 1534.01 Q234.209 1530.86 234.209 1525.42 Q234.209 1520.1 237.357 1516.88 Q240.506 1513.66 245.737 1513.66 Q251.732 1513.66 254.88 1518.27 Q258.052 1522.85 258.052 1531.6 Q258.052 1539.77 254.163 1544.66 Q250.297 1549.52 243.746 1549.52 Q241.987 1549.52 240.182 1549.17 Q238.376 1548.82 236.432 1548.13 M245.737 1533.48 Q248.885 1533.48 250.714 1531.32 Q252.566 1529.17 252.566 1525.42 Q252.566 1521.7 250.714 1519.54 Q248.885 1517.37 245.737 1517.37 Q242.589 1517.37 240.737 1519.54 Q238.908 1521.7 238.908 1525.42 Q238.908 1529.17 240.737 1531.32 Q242.589 1533.48 245.737 1533.48 Z" fill="#000000" fill-rule="evenodd" fill-opacity="1" /><path clip-path="url(#clip810)" d="M266.593 1548.13 L266.593 1543.87 Q268.353 1544.7 270.158 1545.14 Q271.964 1545.58 273.7 1545.58 Q278.329 1545.58 280.76 1542.48 Q283.214 1539.36 283.561 1533.01 Q282.218 1535.01 280.158 1536.07 Q278.098 1537.13 275.598 1537.13 Q270.413 1537.13 267.38 1534.01 Q264.371 1530.86 264.371 1525.42 Q264.371 1520.1 267.519 1516.88 Q270.667 1513.66 275.899 1513.66 Q281.894 1513.66 285.042 1518.27 Q288.214 1522.85 288.214 1531.6 Q288.214 1539.77 284.325 1544.66 Q280.459 1549.52 273.908 1549.52 Q272.149 1549.52 270.343 1549.17 Q268.538 1548.82 266.593 1548.13 M275.899 1533.48 Q279.047 1533.48 280.876 1531.32 Q282.728 1529.17 282.728 1525.42 Q282.728 1521.7 280.876 1519.54 Q279.047 1517.37 275.899 1517.37 Q272.751 1517.37 270.899 1519.54 Q269.07 1521.7 269.07 1525.42 Q269.07 1529.17 270.899 1531.32 Q272.751 1533.48 275.899 1533.48 Z" fill="#000000" fill-rule="evenodd" fill-opacity="1" /><path clip-path="url(#clip810)" d="M296.663 1514.29 L315.019 1514.29 L315.019 1518.22 L300.945 1518.22 L300.945 1526.7 Q301.964 1526.35 302.982 1526.19 Q304.001 1526 305.019 1526 Q310.806 1526 314.186 1529.17 Q317.565 1532.34 317.565 1537.76 Q317.565 1543.34 314.093 1546.44 Q310.621 1549.52 304.302 1549.52 Q302.126 1549.52 299.857 1549.15 Q297.612 1548.78 295.204 1548.04 L295.204 1543.34 Q297.288 1544.47 299.51 1545.03 Q301.732 1545.58 304.209 1545.58 Q308.214 1545.58 310.551 1543.48 Q312.889 1541.37 312.889 1537.76 Q312.889 1534.15 310.551 1532.04 Q308.214 1529.94 304.209 1529.94 Q302.334 1529.94 300.459 1530.35 Q298.607 1530.77 296.663 1531.65 L296.663 1514.29 Z" fill="#000000" fill-rule="evenodd" fill-opacity="1" /><path clip-path="url(#clip810)" d="M633.433 1544.91 L649.752 1544.91 L649.752 1548.85 L627.808 1548.85 L627.808 1544.91 Q630.47 1542.16 635.053 1537.53 Q639.66 1532.88 640.84 1531.53 Q643.086 1529.01 643.965 1527.27 Q644.868 1525.51 644.868 1523.82 Q644.868 1521.07 642.924 1519.33 Q641.002 1517.6 637.901 1517.6 Q635.702 1517.6 633.248 1518.36 Q630.817 1519.13 628.04 1520.68 L628.04 1515.95 Q630.864 1514.82 633.317 1514.24 Q635.771 1513.66 637.808 1513.66 Q643.178 1513.66 646.373 1516.35 Q649.567 1519.03 649.567 1523.52 Q649.567 1525.65 648.757 1527.57 Q647.97 1529.47 645.864 1532.07 Q645.285 1532.74 642.183 1535.95 Q639.081 1539.15 633.433 1544.91 Z" fill="#000000" fill-rule="evenodd" fill-opacity="1" /><path clip-path="url(#clip810)" d="M669.567 1517.37 Q665.956 1517.37 664.127 1520.93 Q662.322 1524.47 662.322 1531.6 Q662.322 1538.71 664.127 1542.27 Q665.956 1545.82 669.567 1545.82 Q673.201 1545.82 675.007 1542.27 Q676.836 1538.71 676.836 1531.6 Q676.836 1524.47 675.007 1520.93 Q673.201 1517.37 669.567 1517.37 M669.567 1513.66 Q675.377 1513.66 678.433 1518.27 Q681.512 1522.85 681.512 1531.6 Q681.512 1540.33 678.433 1544.94 Q675.377 1549.52 669.567 1549.52 Q663.757 1549.52 660.678 1544.94 Q657.623 1540.33 657.623 1531.6 Q657.623 1522.85 660.678 1518.27 Q663.757 1513.66 669.567 1513.66 Z" fill="#000000" fill-rule="evenodd" fill-opacity="1" /><path clip-path="url(#clip810)" d="M699.729 1517.37 Q696.118 1517.37 694.289 1520.93 Q692.484 1524.47 692.484 1531.6 Q692.484 1538.71 694.289 1542.27 Q696.118 1545.82 699.729 1545.82 Q703.363 1545.82 705.169 1542.27 Q706.998 1538.71 706.998 1531.6 Q706.998 1524.47 705.169 1520.93 Q703.363 1517.37 699.729 1517.37 M699.729 1513.66 Q705.539 1513.66 708.595 1518.27 Q711.673 1522.85 711.673 1531.6 Q711.673 1540.33 708.595 1544.94 Q705.539 1549.52 699.729 1549.52 Q693.919 1549.52 690.84 1544.94 Q687.785 1540.33 687.785 1531.6 Q687.785 1522.85 690.84 1518.27 Q693.919 1513.66 699.729 1513.66 Z" fill="#000000" fill-rule="evenodd" fill-opacity="1" /><path clip-path="url(#clip810)" d="M729.891 1517.37 Q726.28 1517.37 724.451 1520.93 Q722.646 1524.47 722.646 1531.6 Q722.646 1538.71 724.451 1542.27 Q726.28 1545.82 729.891 1545.82 Q733.525 1545.82 735.331 1542.27 Q737.159 1538.71 737.159 1531.6 Q737.159 1524.47 735.331 1520.93 Q733.525 1517.37 729.891 1517.37 M729.891 1513.66 Q735.701 1513.66 738.757 1518.27 Q741.835 1522.85 741.835 1531.6 Q741.835 1540.33 738.757 1544.94 Q735.701 1549.52 729.891 1549.52 Q724.081 1549.52 721.002 1544.94 Q717.947 1540.33 717.947 1531.6 Q717.947 1522.85 721.002 1518.27 Q724.081 1513.66 729.891 1513.66 Z" fill="#000000" fill-rule="evenodd" fill-opacity="1" /><path clip-path="url(#clip810)" d="M1056.83 1544.91 L1073.15 1544.91 L1073.15 1548.85 L1051.21 1548.85 L1051.21 1544.91 Q1053.87 1542.16 1058.46 1537.53 Q1063.06 1532.88 1064.24 1531.53 Q1066.49 1529.01 1067.37 1527.27 Q1068.27 1525.51 1068.27 1523.82 Q1068.27 1521.07 1066.33 1519.33 Q1064.4 1517.6 1061.3 1517.6 Q1059.1 1517.6 1056.65 1518.36 Q1054.22 1519.13 1051.44 1520.68 L1051.44 1515.95 Q1054.27 1514.82 1056.72 1514.24 Q1059.17 1513.66 1061.21 1513.66 Q1066.58 1513.66 1069.77 1516.35 Q1072.97 1519.03 1072.97 1523.52 Q1072.97 1525.65 1072.16 1527.57 Q1071.37 1529.47 1069.27 1532.07 Q1068.69 1532.74 1065.58 1535.95 Q1062.48 1539.15 1056.83 1544.91 Z" fill="#000000" fill-rule="evenodd" fill-opacity="1" /><path clip-path="url(#clip810)" d="M1092.97 1517.37 Q1089.36 1517.37 1087.53 1520.93 Q1085.72 1524.47 1085.72 1531.6 Q1085.72 1538.71 1087.53 1542.27 Q1089.36 1545.82 1092.97 1545.82 Q1096.6 1545.82 1098.41 1542.27 Q1100.24 1538.71 1100.24 1531.6 Q1100.24 1524.47 1098.41 1520.93 Q1096.6 1517.37 1092.97 1517.37 M1092.97 1513.66 Q1098.78 1513.66 1101.83 1518.27 Q1104.91 1522.85 1104.91 1531.6 Q1104.91 1540.33 1101.83 1544.94 Q1098.78 1549.52 1092.97 1549.52 Q1087.16 1549.52 1084.08 1544.94 Q1081.02 1540.33 1081.02 1531.6 Q1081.02 1522.85 1084.08 1518.27 Q1087.16 1513.66 1092.97 1513.66 Z" fill="#000000" fill-rule="evenodd" fill-opacity="1" /><path clip-path="url(#clip810)" d="M1123.13 1517.37 Q1119.52 1517.37 1117.69 1520.93 Q1115.89 1524.47 1115.89 1531.6 Q1115.89 1538.71 1117.69 1542.27 Q1119.52 1545.82 1123.13 1545.82 Q1126.77 1545.82 1128.57 1542.27 Q1130.4 1538.71 1130.4 1531.6 Q1130.4 1524.47 1128.57 1520.93 Q1126.77 1517.37 1123.13 1517.37 M1123.13 1513.66 Q1128.94 1513.66 1132 1518.27 Q1135.08 1522.85 1135.08 1531.6 Q1135.08 1540.33 1132 1544.94 Q1128.94 1549.52 1123.13 1549.52 Q1117.32 1549.52 1114.24 1544.94 Q1111.19 1540.33 1111.19 1531.6 Q1111.19 1522.85 1114.24 1518.27 Q1117.32 1513.66 1123.13 1513.66 Z" fill="#000000" fill-rule="evenodd" fill-opacity="1" /><path clip-path="url(#clip810)" d="M1143.34 1514.29 L1161.7 1514.29 L1161.7 1518.22 L1147.62 1518.22 L1147.62 1526.7 Q1148.64 1526.35 1149.66 1526.19 Q1150.68 1526 1151.7 1526 Q1157.48 1526 1160.86 1529.17 Q1164.24 1532.34 1164.24 1537.76 Q1164.24 1543.34 1160.77 1546.44 Q1157.3 1549.52 1150.98 1549.52 Q1148.8 1549.52 1146.53 1549.15 Q1144.29 1548.78 1141.88 1548.04 L1141.88 1543.34 Q1143.96 1544.47 1146.19 1545.03 Q1148.41 1545.58 1150.89 1545.58 Q1154.89 1545.58 1157.23 1543.48 Q1159.57 1541.37 1159.57 1537.76 Q1159.57 1534.15 1157.23 1532.04 Q1154.89 1529.94 1150.89 1529.94 Q1149.01 1529.94 1147.14 1530.35 Q1145.28 1530.77 1143.34 1531.65 L1143.34 1514.29 Z" fill="#000000" fill-rule="evenodd" fill-opacity="1" /><path clip-path="url(#clip810)" d="M1479.24 1544.91 L1495.56 1544.91 L1495.56 1548.85 L1473.62 1548.85 L1473.62 1544.91 Q1476.28 1542.16 1480.86 1537.53 Q1485.47 1532.88 1486.65 1531.53 Q1488.89 1529.01 1489.77 1527.27 Q1490.68 1525.51 1490.68 1523.82 Q1490.68 1521.07 1488.73 1519.33 Q1486.81 1517.6 1483.71 1517.6 Q1481.51 1517.6 1479.06 1518.36 Q1476.63 1519.13 1473.85 1520.68 L1473.85 1515.95 Q1476.67 1514.82 1479.13 1514.24 Q1481.58 1513.66 1483.62 1513.66 Q1488.99 1513.66 1492.18 1516.35 Q1495.38 1519.03 1495.38 1523.52 Q1495.38 1525.65 1494.57 1527.57 Q1493.78 1529.47 1491.67 1532.07 Q1491.09 1532.74 1487.99 1535.95 Q1484.89 1539.15 1479.24 1544.91 Z" fill="#000000" fill-rule="evenodd" fill-opacity="1" /><path clip-path="url(#clip810)" d="M1515.38 1517.37 Q1511.76 1517.37 1509.94 1520.93 Q1508.13 1524.47 1508.13 1531.6 Q1508.13 1538.71 1509.94 1542.27 Q1511.76 1545.82 1515.38 1545.82 Q1519.01 1545.82 1520.82 1542.27 Q1522.64 1538.71 1522.64 1531.6 Q1522.64 1524.47 1520.82 1520.93 Q1519.01 1517.37 1515.38 1517.37 M1515.38 1513.66 Q1521.19 1513.66 1524.24 1518.27 Q1527.32 1522.85 1527.32 1531.6 Q1527.32 1540.33 1524.24 1544.94 Q1521.19 1549.52 1515.38 1549.52 Q1509.57 1549.52 1506.49 1544.94 Q1503.43 1540.33 1503.43 1531.6 Q1503.43 1522.85 1506.49 1518.27 Q1509.57 1513.66 1515.38 1513.66 Z" fill="#000000" fill-rule="evenodd" fill-opacity="1" /><path clip-path="url(#clip810)" d="M1536.35 1544.91 L1543.99 1544.91 L1543.99 1518.55 L1535.68 1520.21 L1535.68 1515.95 L1543.94 1514.29 L1548.62 1514.29 L1548.62 1544.91 L1556.25 1544.91 L1556.25 1548.85 L1536.35 1548.85 L1536.35 1544.91 Z" fill="#000000" fill-rule="evenodd" fill-opacity="1" /><path clip-path="url(#clip810)" d="M1575.7 1517.37 Q1572.09 1517.37 1570.26 1520.93 Q1568.45 1524.47 1568.45 1531.6 Q1568.45 1538.71 1570.26 1542.27 Q1572.09 1545.82 1575.7 1545.82 Q1579.33 1545.82 1581.14 1542.27 Q1582.97 1538.71 1582.97 1531.6 Q1582.97 1524.47 1581.14 1520.93 Q1579.33 1517.37 1575.7 1517.37 M1575.7 1513.66 Q1581.51 1513.66 1584.57 1518.27 Q1587.64 1522.85 1587.64 1531.6 Q1587.64 1540.33 1584.57 1544.94 Q1581.51 1549.52 1575.7 1549.52 Q1569.89 1549.52 1566.81 1544.94 Q1563.75 1540.33 1563.75 1531.6 Q1563.75 1522.85 1566.81 1518.27 Q1569.89 1513.66 1575.7 1513.66 Z" fill="#000000" fill-rule="evenodd" fill-opacity="1" /><path clip-path="url(#clip810)" d="M1902.64 1544.91 L1918.96 1544.91 L1918.96 1548.85 L1897.02 1548.85 L1897.02 1544.91 Q1899.68 1542.16 1904.26 1537.53 Q1908.87 1532.88 1910.05 1531.53 Q1912.3 1529.01 1913.18 1527.27 Q1914.08 1525.51 1914.08 1523.82 Q1914.08 1521.07 1912.13 1519.33 Q1910.21 1517.6 1907.11 1517.6 Q1904.91 1517.6 1902.46 1518.36 Q1900.03 1519.13 1897.25 1520.68 L1897.25 1515.95 Q1900.07 1514.82 1902.53 1514.24 Q1904.98 1513.66 1907.02 1513.66 Q1912.39 1513.66 1915.58 1516.35 Q1918.78 1519.03 1918.78 1523.52 Q1918.78 1525.65 1917.97 1527.57 Q1917.18 1529.47 1915.07 1532.07 Q1914.5 1532.74 1911.39 1535.95 Q1908.29 1539.15 1902.64 1544.91 Z" fill="#000000" fill-rule="evenodd" fill-opacity="1" /><path clip-path="url(#clip810)" d="M1938.78 1517.37 Q1935.17 1517.37 1933.34 1520.93 Q1931.53 1524.47 1931.53 1531.6 Q1931.53 1538.71 1933.34 1542.27 Q1935.17 1545.82 1938.78 1545.82 Q1942.41 1545.82 1944.22 1542.27 Q1946.05 1538.71 1946.05 1531.6 Q1946.05 1524.47 1944.22 1520.93 Q1942.41 1517.37 1938.78 1517.37 M1938.78 1513.66 Q1944.59 1513.66 1947.64 1518.27 Q1950.72 1522.85 1950.72 1531.6 Q1950.72 1540.33 1947.64 1544.94 Q1944.59 1549.52 1938.78 1549.52 Q1932.97 1549.52 1929.89 1544.94 Q1926.83 1540.33 1926.83 1531.6 Q1926.83 1522.85 1929.89 1518.27 Q1932.97 1513.66 1938.78 1513.66 Z" fill="#000000" fill-rule="evenodd" fill-opacity="1" /><path clip-path="url(#clip810)" d="M1959.75 1544.91 L1967.39 1544.91 L1967.39 1518.55 L1959.08 1520.21 L1959.08 1515.95 L1967.34 1514.29 L1972.02 1514.29 L1972.02 1544.91 L1979.66 1544.91 L1979.66 1548.85 L1959.75 1548.85 L1959.75 1544.91 Z" fill="#000000" fill-rule="evenodd" fill-opacity="1" /><path clip-path="url(#clip810)" d="M1989.15 1514.29 L2007.5 1514.29 L2007.5 1518.22 L1993.43 1518.22 L1993.43 1526.7 Q1994.45 1526.35 1995.47 1526.19 Q1996.49 1526 1997.5 1526 Q2003.29 1526 2006.67 1529.17 Q2010.05 1532.34 2010.05 1537.76 Q2010.05 1543.34 2006.58 1546.44 Q2003.11 1549.52 1996.79 1549.52 Q1994.61 1549.52 1992.34 1549.15 Q1990.1 1548.78 1987.69 1548.04 L1987.69 1543.34 Q1989.77 1544.47 1991.99 1545.03 Q1994.22 1545.58 1996.69 1545.58 Q2000.7 1545.58 2003.04 1543.48 Q2005.37 1541.37 2005.37 1537.76 Q2005.37 1534.15 2003.04 1532.04 Q2000.7 1529.94 1996.69 1529.94 Q1994.82 1529.94 1992.94 1530.35 Q1991.09 1530.77 1989.15 1531.65 L1989.15 1514.29 Z" fill="#000000" fill-rule="evenodd" fill-opacity="1" /><polyline clip-path="url(#clip812)" style="stroke:#000000; stroke-linecap:butt; stroke-linejoin:round; stroke-width:2; stroke-opacity:0.1; fill:none" points="
  201.019,1447.87 2352.76,1447.87 
  "/>
<polyline clip-path="url(#clip812)" style="stroke:#000000; stroke-linecap:butt; stroke-linejoin:round; stroke-width:2; stroke-opacity:0.1; fill:none" points="
  201.019,1080.49 2352.76,1080.49 
  "/>
<polyline clip-path="url(#clip812)" style="stroke:#000000; stroke-linecap:butt; stroke-linejoin:round; stroke-width:2; stroke-opacity:0.1; fill:none" points="
  201.019,713.115 2352.76,713.115 
  "/>
<polyline clip-path="url(#clip812)" style="stroke:#000000; stroke-linecap:butt; stroke-linejoin:round; stroke-width:2; stroke-opacity:0.1; fill:none" points="
  201.019,345.736 2352.76,345.736 
  "/>
<polyline clip-path="url(#clip810)" style="stroke:#000000; stroke-linecap:butt; stroke-linejoin:round; stroke-width:4; stroke-opacity:1; fill:none" points="
  201.019,1486.45 201.019,123.472 
  "/>
<polyline clip-path="url(#clip810)" style="stroke:#000000; stroke-linecap:butt; stroke-linejoin:round; stroke-width:4; stroke-opacity:1; fill:none" points="
  201.019,1447.87 219.917,1447.87 
  "/>
<polyline clip-path="url(#clip810)" style="stroke:#000000; stroke-linecap:butt; stroke-linejoin:round; stroke-width:4; stroke-opacity:1; fill:none" points="
  201.019,1080.49 219.917,1080.49 
  "/>
<polyline clip-path="url(#clip810)" style="stroke:#000000; stroke-linecap:butt; stroke-linejoin:round; stroke-width:4; stroke-opacity:1; fill:none" points="
  201.019,713.115 219.917,713.115 
  "/>
<polyline clip-path="url(#clip810)" style="stroke:#000000; stroke-linecap:butt; stroke-linejoin:round; stroke-width:4; stroke-opacity:1; fill:none" points="
  201.019,345.736 219.917,345.736 
  "/>
<path clip-path="url(#clip810)" d="M153.075 1433.67 Q149.464 1433.67 147.635 1437.24 Q145.83 1440.78 145.83 1447.91 Q145.83 1455.01 147.635 1458.58 Q149.464 1462.12 153.075 1462.12 Q156.709 1462.12 158.515 1458.58 Q160.343 1455.01 160.343 1447.91 Q160.343 1440.78 158.515 1437.24 Q156.709 1433.67 153.075 1433.67 M153.075 1429.97 Q158.885 1429.97 161.941 1434.57 Q165.019 1439.16 165.019 1447.91 Q165.019 1456.63 161.941 1461.24 Q158.885 1465.82 153.075 1465.82 Q147.265 1465.82 144.186 1461.24 Q141.131 1456.63 141.131 1447.91 Q141.131 1439.16 144.186 1434.57 Q147.265 1429.97 153.075 1429.97 Z" fill="#000000" fill-rule="evenodd" fill-opacity="1" /><path clip-path="url(#clip810)" d="M53.3995 1093.84 L61.0384 1093.84 L61.0384 1067.47 L52.7282 1069.14 L52.7282 1064.88 L60.9921 1063.21 L65.668 1063.21 L65.668 1093.84 L73.3068 1093.84 L73.3068 1097.77 L53.3995 1097.77 L53.3995 1093.84 Z" fill="#000000" fill-rule="evenodd" fill-opacity="1" /><path clip-path="url(#clip810)" d="M92.7512 1066.29 Q89.1401 1066.29 87.3114 1069.86 Q85.5058 1073.4 85.5058 1080.53 Q85.5058 1087.64 87.3114 1091.2 Q89.1401 1094.74 92.7512 1094.74 Q96.3854 1094.74 98.1909 1091.2 Q100.02 1087.64 100.02 1080.53 Q100.02 1073.4 98.1909 1069.86 Q96.3854 1066.29 92.7512 1066.29 M92.7512 1062.59 Q98.5613 1062.59 101.617 1067.2 Q104.696 1071.78 104.696 1080.53 Q104.696 1089.26 101.617 1093.86 Q98.5613 1098.45 92.7512 1098.45 Q86.941 1098.45 83.8623 1093.86 Q80.8068 1089.26 80.8068 1080.53 Q80.8068 1071.78 83.8623 1067.2 Q86.941 1062.59 92.7512 1062.59 Z" fill="#000000" fill-rule="evenodd" fill-opacity="1" /><path clip-path="url(#clip810)" d="M122.913 1066.29 Q119.302 1066.29 117.473 1069.86 Q115.668 1073.4 115.668 1080.53 Q115.668 1087.64 117.473 1091.2 Q119.302 1094.74 122.913 1094.74 Q126.547 1094.74 128.353 1091.2 Q130.182 1087.64 130.182 1080.53 Q130.182 1073.4 128.353 1069.86 Q126.547 1066.29 122.913 1066.29 M122.913 1062.59 Q128.723 1062.59 131.779 1067.2 Q134.857 1071.78 134.857 1080.53 Q134.857 1089.26 131.779 1093.86 Q128.723 1098.45 122.913 1098.45 Q117.103 1098.45 114.024 1093.86 Q110.969 1089.26 110.969 1080.53 Q110.969 1071.78 114.024 1067.2 Q117.103 1062.59 122.913 1062.59 Z" fill="#000000" fill-rule="evenodd" fill-opacity="1" /><path clip-path="url(#clip810)" d="M153.075 1066.29 Q149.464 1066.29 147.635 1069.86 Q145.83 1073.4 145.83 1080.53 Q145.83 1087.64 147.635 1091.2 Q149.464 1094.74 153.075 1094.74 Q156.709 1094.74 158.515 1091.2 Q160.343 1087.64 160.343 1080.53 Q160.343 1073.4 158.515 1069.86 Q156.709 1066.29 153.075 1066.29 M153.075 1062.59 Q158.885 1062.59 161.941 1067.2 Q165.019 1071.78 165.019 1080.53 Q165.019 1089.26 161.941 1093.86 Q158.885 1098.45 153.075 1098.45 Q147.265 1098.45 144.186 1093.86 Q141.131 1089.26 141.131 1080.53 Q141.131 1071.78 144.186 1067.2 Q147.265 1062.59 153.075 1062.59 Z" fill="#000000" fill-rule="evenodd" fill-opacity="1" /><path clip-path="url(#clip810)" d="M56.6171 726.46 L72.9365 726.46 L72.9365 730.395 L50.9921 730.395 L50.9921 726.46 Q53.6541 723.705 58.2375 719.076 Q62.8439 714.423 64.0245 713.081 Q66.2698 710.557 67.1494 708.821 Q68.0522 707.062 68.0522 705.372 Q68.0522 702.618 66.1078 700.882 Q64.1865 699.145 61.0847 699.145 Q58.8856 699.145 56.4319 699.909 Q54.0014 700.673 51.2236 702.224 L51.2236 697.502 Q54.0477 696.368 56.5014 695.789 Q58.955 695.21 60.9921 695.21 Q66.3624 695.21 69.5568 697.895 Q72.7513 700.581 72.7513 705.071 Q72.7513 707.201 71.9411 709.122 Q71.1541 711.02 69.0476 713.613 Q68.4689 714.284 65.367 717.502 Q62.2652 720.696 56.6171 726.46 Z" fill="#000000" fill-rule="evenodd" fill-opacity="1" /><path clip-path="url(#clip810)" d="M92.7512 698.914 Q89.1401 698.914 87.3114 702.479 Q85.5058 706.02 85.5058 713.15 Q85.5058 720.256 87.3114 723.821 Q89.1401 727.363 92.7512 727.363 Q96.3854 727.363 98.1909 723.821 Q100.02 720.256 100.02 713.15 Q100.02 706.02 98.1909 702.479 Q96.3854 698.914 92.7512 698.914 M92.7512 695.21 Q98.5613 695.21 101.617 699.817 Q104.696 704.4 104.696 713.15 Q104.696 721.877 101.617 726.483 Q98.5613 731.067 92.7512 731.067 Q86.941 731.067 83.8623 726.483 Q80.8068 721.877 80.8068 713.15 Q80.8068 704.4 83.8623 699.817 Q86.941 695.21 92.7512 695.21 Z" fill="#000000" fill-rule="evenodd" fill-opacity="1" /><path clip-path="url(#clip810)" d="M122.913 698.914 Q119.302 698.914 117.473 702.479 Q115.668 706.02 115.668 713.15 Q115.668 720.256 117.473 723.821 Q119.302 727.363 122.913 727.363 Q126.547 727.363 128.353 723.821 Q130.182 720.256 130.182 713.15 Q130.182 706.02 128.353 702.479 Q126.547 698.914 122.913 698.914 M122.913 695.21 Q128.723 695.21 131.779 699.817 Q134.857 704.4 134.857 713.15 Q134.857 721.877 131.779 726.483 Q128.723 731.067 122.913 731.067 Q117.103 731.067 114.024 726.483 Q110.969 721.877 110.969 713.15 Q110.969 704.4 114.024 699.817 Q117.103 695.21 122.913 695.21 Z" fill="#000000" fill-rule="evenodd" fill-opacity="1" /><path clip-path="url(#clip810)" d="M153.075 698.914 Q149.464 698.914 147.635 702.479 Q145.83 706.02 145.83 713.15 Q145.83 720.256 147.635 723.821 Q149.464 727.363 153.075 727.363 Q156.709 727.363 158.515 723.821 Q160.343 720.256 160.343 713.15 Q160.343 706.02 158.515 702.479 Q156.709 698.914 153.075 698.914 M153.075 695.21 Q158.885 695.21 161.941 699.817 Q165.019 704.4 165.019 713.15 Q165.019 721.877 161.941 726.483 Q158.885 731.067 153.075 731.067 Q147.265 731.067 144.186 726.483 Q141.131 721.877 141.131 713.15 Q141.131 704.4 144.186 699.817 Q147.265 695.21 153.075 695.21 Z" fill="#000000" fill-rule="evenodd" fill-opacity="1" /><path clip-path="url(#clip810)" d="M66.7559 344.382 Q70.1124 345.1 71.9874 347.368 Q73.8855 349.637 73.8855 352.97 Q73.8855 358.086 70.367 360.887 Q66.8485 363.688 60.3671 363.688 Q58.1912 363.688 55.8764 363.248 Q53.5847 362.831 51.131 361.975 L51.131 357.461 Q53.0754 358.595 55.3903 359.174 Q57.7051 359.752 60.2282 359.752 Q64.6263 359.752 66.918 358.016 Q69.2328 356.28 69.2328 352.97 Q69.2328 349.915 67.08 348.202 Q64.9504 346.466 61.131 346.466 L57.1032 346.466 L57.1032 342.623 L61.3161 342.623 Q64.7652 342.623 66.5939 341.257 Q68.4226 339.868 68.4226 337.276 Q68.4226 334.614 66.5245 333.202 Q64.6495 331.767 61.131 331.767 Q59.2097 331.767 57.0106 332.183 Q54.8115 332.6 52.1727 333.479 L52.1727 329.313 Q54.8347 328.572 57.1495 328.202 Q59.4875 327.831 61.5476 327.831 Q66.8717 327.831 69.9735 330.262 Q73.0753 332.669 73.0753 336.79 Q73.0753 339.66 71.4318 341.651 Q69.7883 343.618 66.7559 344.382 Z" fill="#000000" fill-rule="evenodd" fill-opacity="1" /><path clip-path="url(#clip810)" d="M92.7512 331.535 Q89.1401 331.535 87.3114 335.1 Q85.5058 338.641 85.5058 345.771 Q85.5058 352.878 87.3114 356.442 Q89.1401 359.984 92.7512 359.984 Q96.3854 359.984 98.1909 356.442 Q100.02 352.878 100.02 345.771 Q100.02 338.641 98.1909 335.1 Q96.3854 331.535 92.7512 331.535 M92.7512 327.831 Q98.5613 327.831 101.617 332.438 Q104.696 337.021 104.696 345.771 Q104.696 354.498 101.617 359.104 Q98.5613 363.688 92.7512 363.688 Q86.941 363.688 83.8623 359.104 Q80.8068 354.498 80.8068 345.771 Q80.8068 337.021 83.8623 332.438 Q86.941 327.831 92.7512 327.831 Z" fill="#000000" fill-rule="evenodd" fill-opacity="1" /><path clip-path="url(#clip810)" d="M122.913 331.535 Q119.302 331.535 117.473 335.1 Q115.668 338.641 115.668 345.771 Q115.668 352.878 117.473 356.442 Q119.302 359.984 122.913 359.984 Q126.547 359.984 128.353 356.442 Q130.182 352.878 130.182 345.771 Q130.182 338.641 128.353 335.1 Q126.547 331.535 122.913 331.535 M122.913 327.831 Q128.723 327.831 131.779 332.438 Q134.857 337.021 134.857 345.771 Q134.857 354.498 131.779 359.104 Q128.723 363.688 122.913 363.688 Q117.103 363.688 114.024 359.104 Q110.969 354.498 110.969 345.771 Q110.969 337.021 114.024 332.438 Q117.103 327.831 122.913 327.831 Z" fill="#000000" fill-rule="evenodd" fill-opacity="1" /><path clip-path="url(#clip810)" d="M153.075 331.535 Q149.464 331.535 147.635 335.1 Q145.83 338.641 145.83 345.771 Q145.83 352.878 147.635 356.442 Q149.464 359.984 153.075 359.984 Q156.709 359.984 158.515 356.442 Q160.343 352.878 160.343 345.771 Q160.343 338.641 158.515 335.1 Q156.709 331.535 153.075 331.535 M153.075 327.831 Q158.885 327.831 161.941 332.438 Q165.019 337.021 165.019 345.771 Q165.019 354.498 161.941 359.104 Q158.885 363.688 153.075 363.688 Q147.265 363.688 144.186 359.104 Q141.131 354.498 141.131 345.771 Q141.131 337.021 144.186 332.438 Q147.265 327.831 153.075 327.831 Z" fill="#000000" fill-rule="evenodd" fill-opacity="1" /><path clip-path="url(#clip810)" d="M788.814 20.1573 L777.715 50.2555 L799.954 50.2555 L788.814 20.1573 M784.196 12.096 L793.473 12.096 L816.523 72.576 L808.016 72.576 L802.506 57.061 L775.244 57.061 L769.735 72.576 L761.106 72.576 L784.196 12.096 Z" fill="#000000" fill-rule="evenodd" fill-opacity="1" /><path clip-path="url(#clip810)" d="M853.953 28.5427 L853.953 35.5912 Q850.793 33.9709 847.39 33.1607 Q843.988 32.3505 840.342 32.3505 Q834.792 32.3505 831.997 34.0519 Q829.242 35.7533 829.242 39.156 Q829.242 41.7486 831.227 43.2475 Q833.212 44.7058 839.208 46.0426 L841.76 46.6097 Q849.699 48.3111 853.021 51.4303 Q856.383 54.509 856.383 60.0587 Q856.383 66.3781 851.36 70.0644 Q846.378 73.7508 837.628 73.7508 Q833.982 73.7508 830.012 73.0216 Q826.083 72.3329 821.708 70.9151 L821.708 63.2184 Q825.84 65.3654 829.85 66.4591 Q833.86 67.5124 837.79 67.5124 Q843.056 67.5124 845.892 65.73 Q848.727 63.9071 848.727 60.6258 Q848.727 57.5877 846.661 55.9673 Q844.636 54.3469 837.709 52.8481 L835.116 52.2405 Q828.189 50.7821 825.111 47.7845 Q822.032 44.7463 822.032 39.4801 Q822.032 33.0797 826.569 29.5959 Q831.106 26.1121 839.451 26.1121 Q843.583 26.1121 847.228 26.7198 Q850.874 27.3274 853.953 28.5427 Z" fill="#000000" fill-rule="evenodd" fill-opacity="1" /><path clip-path="url(#clip810)" d="M897.176 28.5427 L897.176 35.5912 Q894.016 33.9709 890.614 33.1607 Q887.211 32.3505 883.565 32.3505 Q878.015 32.3505 875.22 34.0519 Q872.466 35.7533 872.466 39.156 Q872.466 41.7486 874.451 43.2475 Q876.435 44.7058 882.431 46.0426 L884.983 46.6097 Q892.923 48.3111 896.244 51.4303 Q899.607 54.509 899.607 60.0587 Q899.607 66.3781 894.584 70.0644 Q889.601 73.7508 880.851 73.7508 Q877.205 73.7508 873.235 73.0216 Q869.306 72.3329 864.931 70.9151 L864.931 63.2184 Q869.063 65.3654 873.073 66.4591 Q877.084 67.5124 881.013 67.5124 Q886.279 67.5124 889.115 65.73 Q891.95 63.9071 891.95 60.6258 Q891.95 57.5877 889.884 55.9673 Q887.859 54.3469 880.932 52.8481 L878.339 52.2405 Q871.412 50.7821 868.334 47.7845 Q865.255 44.7463 865.255 39.4801 Q865.255 33.0797 869.792 29.5959 Q874.329 26.1121 882.674 26.1121 Q886.806 26.1121 890.452 26.7198 Q894.097 27.3274 897.176 28.5427 Z" fill="#000000" fill-rule="evenodd" fill-opacity="1" /><path clip-path="url(#clip810)" d="M932.095 49.7694 Q923.061 49.7694 919.578 51.8354 Q916.094 53.9013 916.094 58.8839 Q916.094 62.8538 918.686 65.2034 Q921.319 67.5124 925.816 67.5124 Q932.014 67.5124 935.741 63.1374 Q939.508 58.7219 939.508 51.4303 L939.508 49.7694 L932.095 49.7694 M946.962 46.6907 L946.962 72.576 L939.508 72.576 L939.508 65.6895 Q936.956 69.8214 933.148 71.8063 Q929.34 73.7508 923.831 73.7508 Q916.863 73.7508 912.732 69.8619 Q908.64 65.9325 908.64 59.3701 Q908.64 51.7138 913.744 47.825 Q918.889 43.9361 929.057 43.9361 L939.508 43.9361 L939.508 43.2069 Q939.508 38.0623 936.105 35.2672 Q932.743 32.4315 926.626 32.4315 Q922.737 32.4315 919.051 33.3632 Q915.365 34.295 911.962 36.1584 L911.962 29.2718 Q916.053 27.692 919.902 26.9223 Q923.75 26.1121 927.396 26.1121 Q937.24 26.1121 942.101 31.2163 Q946.962 36.3204 946.962 46.6907 Z" fill="#000000" fill-rule="evenodd" fill-opacity="1" /><path clip-path="url(#clip810)" d="M961.545 54.671 L961.545 27.2059 L968.999 27.2059 L968.999 54.3874 Q968.999 60.8284 971.51 64.0691 Q974.022 67.2693 979.045 67.2693 Q985.081 67.2693 988.564 63.421 Q992.089 59.5726 992.089 52.9291 L992.089 27.2059 L999.542 27.2059 L999.542 72.576 L992.089 72.576 L992.089 65.6084 Q989.375 69.7404 985.769 71.7658 Q982.205 73.7508 977.465 73.7508 Q969.647 73.7508 965.596 68.8897 Q961.545 64.0286 961.545 54.671 M980.301 26.1121 L980.301 26.1121 Z" fill="#000000" fill-rule="evenodd" fill-opacity="1" /><path clip-path="url(#clip810)" d="M1014.9 9.54393 L1022.35 9.54393 L1022.35 72.576 L1014.9 72.576 L1014.9 9.54393 Z" fill="#000000" fill-rule="evenodd" fill-opacity="1" /><path clip-path="url(#clip810)" d="M1045.32 14.324 L1045.32 27.2059 L1060.67 27.2059 L1060.67 32.9987 L1045.32 32.9987 L1045.32 57.6282 Q1045.32 63.1779 1046.82 64.7578 Q1048.36 66.3376 1053.01 66.3376 L1060.67 66.3376 L1060.67 72.576 L1053.01 72.576 Q1044.39 72.576 1041.1 69.3758 Q1037.82 66.1351 1037.82 57.6282 L1037.82 32.9987 L1032.35 32.9987 L1032.35 27.2059 L1037.82 27.2059 L1037.82 14.324 L1045.32 14.324 Z" fill="#000000" fill-rule="evenodd" fill-opacity="1" /><path clip-path="url(#clip810)" d="M1123.14 34.1734 Q1121.88 33.4443 1120.38 33.1202 Q1118.92 32.7556 1117.14 32.7556 Q1110.82 32.7556 1107.42 36.8875 Q1104.06 40.9789 1104.06 48.6757 L1104.06 72.576 L1096.56 72.576 L1096.56 27.2059 L1104.06 27.2059 L1104.06 34.2544 Q1106.41 30.1225 1110.17 28.1376 Q1113.94 26.1121 1119.33 26.1121 Q1120.1 26.1121 1121.03 26.2337 Q1121.96 26.3147 1123.1 26.5172 L1123.14 34.1734 Z" fill="#000000" fill-rule="evenodd" fill-opacity="1" /><path clip-path="url(#clip810)" d="M1151.57 49.7694 Q1142.54 49.7694 1139.06 51.8354 Q1135.57 53.9013 1135.57 58.8839 Q1135.57 62.8538 1138.16 65.2034 Q1140.8 67.5124 1145.29 67.5124 Q1151.49 67.5124 1155.22 63.1374 Q1158.99 58.7219 1158.99 51.4303 L1158.99 49.7694 L1151.57 49.7694 M1166.44 46.6907 L1166.44 72.576 L1158.99 72.576 L1158.99 65.6895 Q1156.43 69.8214 1152.63 71.8063 Q1148.82 73.7508 1143.31 73.7508 Q1136.34 73.7508 1132.21 69.8619 Q1128.12 65.9325 1128.12 59.3701 Q1128.12 51.7138 1133.22 47.825 Q1138.37 43.9361 1148.53 43.9361 L1158.99 43.9361 L1158.99 43.2069 Q1158.99 38.0623 1155.58 35.2672 Q1152.22 32.4315 1146.1 32.4315 Q1142.22 32.4315 1138.53 33.3632 Q1134.84 34.295 1131.44 36.1584 L1131.44 29.2718 Q1135.53 27.692 1139.38 26.9223 Q1143.23 26.1121 1146.87 26.1121 Q1156.72 26.1121 1161.58 31.2163 Q1166.44 36.3204 1166.44 46.6907 Z" fill="#000000" fill-rule="evenodd" fill-opacity="1" /><path clip-path="url(#clip810)" d="M1189.17 14.324 L1189.17 27.2059 L1204.52 27.2059 L1204.52 32.9987 L1189.17 32.9987 L1189.17 57.6282 Q1189.17 63.1779 1190.66 64.7578 Q1192.2 66.3376 1196.86 66.3376 L1204.52 66.3376 L1204.52 72.576 L1196.86 72.576 Q1188.23 72.576 1184.95 69.3758 Q1181.67 66.1351 1181.67 57.6282 L1181.67 32.9987 L1176.2 32.9987 L1176.2 27.2059 L1181.67 27.2059 L1181.67 14.324 L1189.17 14.324 Z" fill="#000000" fill-rule="evenodd" fill-opacity="1" /><path clip-path="url(#clip810)" d="M1253.13 48.0275 L1253.13 51.6733 L1218.86 51.6733 Q1219.34 59.3701 1223.48 63.421 Q1227.65 67.4314 1235.06 67.4314 Q1239.36 67.4314 1243.37 66.3781 Q1247.42 65.3249 1251.39 63.2184 L1251.39 70.267 Q1247.38 71.9684 1243.16 72.8596 Q1238.95 73.7508 1234.62 73.7508 Q1223.76 73.7508 1217.4 67.4314 Q1211.08 61.1119 1211.08 50.3365 Q1211.08 39.1965 1217.08 32.6746 Q1223.11 26.1121 1233.32 26.1121 Q1242.48 26.1121 1247.78 32.0264 Q1253.13 37.9003 1253.13 48.0275 M1245.68 45.84 Q1245.59 39.7232 1242.23 36.0774 Q1238.91 32.4315 1233.4 32.4315 Q1227.16 32.4315 1223.4 35.9558 Q1219.67 39.4801 1219.1 45.8805 L1245.68 45.84 Z" fill="#000000" fill-rule="evenodd" fill-opacity="1" /><path clip-path="url(#clip810)" d="M1294.29 28.5427 L1294.29 35.5912 Q1291.13 33.9709 1287.72 33.1607 Q1284.32 32.3505 1280.68 32.3505 Q1275.13 32.3505 1272.33 34.0519 Q1269.58 35.7533 1269.58 39.156 Q1269.58 41.7486 1271.56 43.2475 Q1273.55 44.7058 1279.54 46.0426 L1282.09 46.6097 Q1290.03 48.3111 1293.35 51.4303 Q1296.72 54.509 1296.72 60.0587 Q1296.72 66.3781 1291.69 70.0644 Q1286.71 73.7508 1277.96 73.7508 Q1274.32 73.7508 1270.35 73.0216 Q1266.42 72.3329 1262.04 70.9151 L1262.04 63.2184 Q1266.17 65.3654 1270.18 66.4591 Q1274.19 67.5124 1278.12 67.5124 Q1283.39 67.5124 1286.22 65.73 Q1289.06 63.9071 1289.06 60.6258 Q1289.06 57.5877 1286.99 55.9673 Q1284.97 54.3469 1278.04 52.8481 L1275.45 52.2405 Q1268.52 50.7821 1265.44 47.7845 Q1262.37 44.7463 1262.37 39.4801 Q1262.37 33.0797 1266.9 29.5959 Q1271.44 26.1121 1279.78 26.1121 Q1283.92 26.1121 1287.56 26.7198 Q1291.21 27.3274 1294.29 28.5427 Z" fill="#000000" fill-rule="evenodd" fill-opacity="1" /><path clip-path="url(#clip810)" d="M1367.53 49.9314 Q1367.53 41.7081 1364.12 37.0496 Q1360.76 32.3505 1354.85 32.3505 Q1348.93 32.3505 1345.53 37.0496 Q1342.17 41.7081 1342.17 49.9314 Q1342.17 58.1548 1345.53 62.8538 Q1348.93 67.5124 1354.85 67.5124 Q1360.76 67.5124 1364.12 62.8538 Q1367.53 58.1548 1367.53 49.9314 M1342.17 34.0924 Q1344.52 30.0415 1348.08 28.0971 Q1351.69 26.1121 1356.67 26.1121 Q1364.93 26.1121 1370.08 32.6746 Q1375.26 39.2371 1375.26 49.9314 Q1375.26 60.6258 1370.08 67.1883 Q1364.93 73.7508 1356.67 73.7508 Q1351.69 73.7508 1348.08 71.8063 Q1344.52 69.8214 1342.17 65.7705 L1342.17 72.576 L1334.67 72.576 L1334.67 9.54393 L1342.17 9.54393 L1342.17 34.0924 Z" fill="#000000" fill-rule="evenodd" fill-opacity="1" /><path clip-path="url(#clip810)" d="M1406.5 76.7889 Q1403.34 84.8907 1400.34 87.3618 Q1397.34 89.8329 1392.32 89.8329 L1386.36 89.8329 L1386.36 83.5945 L1390.74 83.5945 Q1393.82 83.5945 1395.52 82.1361 Q1397.22 80.6778 1399.29 75.2496 L1400.62 71.8468 L1382.27 27.2059 L1390.17 27.2059 L1404.35 62.6918 L1418.53 27.2059 L1426.43 27.2059 L1406.5 76.7889 Z" fill="#000000" fill-rule="evenodd" fill-opacity="1" /><path clip-path="url(#clip810)" d="M1470.46 14.324 L1470.46 27.2059 L1485.81 27.2059 L1485.81 32.9987 L1470.46 32.9987 L1470.46 57.6282 Q1470.46 63.1779 1471.96 64.7578 Q1473.5 66.3376 1478.16 66.3376 L1485.81 66.3376 L1485.81 72.576 L1478.16 72.576 Q1469.53 72.576 1466.25 69.3758 Q1462.97 66.1351 1462.97 57.6282 L1462.97 32.9987 L1457.5 32.9987 L1457.5 27.2059 L1462.97 27.2059 L1462.97 14.324 L1470.46 14.324 Z" fill="#000000" fill-rule="evenodd" fill-opacity="1" /><path clip-path="url(#clip810)" d="M1534.42 48.0275 L1534.42 51.6733 L1500.15 51.6733 Q1500.64 59.3701 1504.77 63.421 Q1508.94 67.4314 1516.36 67.4314 Q1520.65 67.4314 1524.66 66.3781 Q1528.71 65.3249 1532.68 63.2184 L1532.68 70.267 Q1528.67 71.9684 1524.46 72.8596 Q1520.25 73.7508 1515.91 73.7508 Q1505.05 73.7508 1498.69 67.4314 Q1492.38 61.1119 1492.38 50.3365 Q1492.38 39.1965 1498.37 32.6746 Q1504.41 26.1121 1514.61 26.1121 Q1523.77 26.1121 1529.08 32.0264 Q1534.42 37.9003 1534.42 48.0275 M1526.97 45.84 Q1526.89 39.7232 1523.53 36.0774 Q1520.21 32.4315 1514.7 32.4315 Q1508.46 32.4315 1504.69 35.9558 Q1500.96 39.4801 1500.4 45.8805 L1526.97 45.84 Z" fill="#000000" fill-rule="evenodd" fill-opacity="1" /><path clip-path="url(#clip810)" d="M1572.95 34.1734 Q1571.69 33.4443 1570.19 33.1202 Q1568.73 32.7556 1566.95 32.7556 Q1560.63 32.7556 1557.23 36.8875 Q1553.87 40.9789 1553.87 48.6757 L1553.87 72.576 L1546.37 72.576 L1546.37 27.2059 L1553.87 27.2059 L1553.87 34.2544 Q1556.22 30.1225 1559.99 28.1376 Q1563.75 26.1121 1569.14 26.1121 Q1569.91 26.1121 1570.84 26.2337 Q1571.77 26.3147 1572.91 26.5172 L1572.95 34.1734 Z" fill="#000000" fill-rule="evenodd" fill-opacity="1" /><path clip-path="url(#clip810)" d="M1605.6 34.1734 Q1604.34 33.4443 1602.84 33.1202 Q1601.39 32.7556 1599.6 32.7556 Q1593.28 32.7556 1589.88 36.8875 Q1586.52 40.9789 1586.52 48.6757 L1586.52 72.576 L1579.02 72.576 L1579.02 27.2059 L1586.52 27.2059 L1586.52 34.2544 Q1588.87 30.1225 1592.64 28.1376 Q1596.4 26.1121 1601.79 26.1121 Q1602.56 26.1121 1603.49 26.2337 Q1604.42 26.3147 1605.56 26.5172 L1605.6 34.1734 Z" fill="#000000" fill-rule="evenodd" fill-opacity="1" /><path clip-path="url(#clip810)" d="M1613.42 27.2059 L1620.87 27.2059 L1620.87 72.576 L1613.42 72.576 L1613.42 27.2059 M1613.42 9.54393 L1620.87 9.54393 L1620.87 18.9825 L1613.42 18.9825 L1613.42 9.54393 Z" fill="#000000" fill-rule="evenodd" fill-opacity="1" /><path clip-path="url(#clip810)" d="M1643.84 14.324 L1643.84 27.2059 L1659.19 27.2059 L1659.19 32.9987 L1643.84 32.9987 L1643.84 57.6282 Q1643.84 63.1779 1645.34 64.7578 Q1646.88 66.3376 1651.54 66.3376 L1659.19 66.3376 L1659.19 72.576 L1651.54 72.576 Q1642.91 72.576 1639.63 69.3758 Q1636.34 66.1351 1636.34 57.6282 L1636.34 32.9987 L1630.88 32.9987 L1630.88 27.2059 L1636.34 27.2059 L1636.34 14.324 L1643.84 14.324 Z" fill="#000000" fill-rule="evenodd" fill-opacity="1" /><path clip-path="url(#clip810)" d="M1686.58 32.4315 Q1680.58 32.4315 1677.1 37.1306 Q1673.61 41.7891 1673.61 49.9314 Q1673.61 58.0738 1677.06 62.7728 Q1680.54 67.4314 1686.58 67.4314 Q1692.53 67.4314 1696.01 62.7323 Q1699.5 58.0333 1699.5 49.9314 Q1699.5 41.8701 1696.01 37.1711 Q1692.53 32.4315 1686.58 32.4315 M1686.58 26.1121 Q1696.3 26.1121 1701.85 32.4315 Q1707.4 38.7509 1707.4 49.9314 Q1707.4 61.0714 1701.85 67.4314 Q1696.3 73.7508 1686.58 73.7508 Q1676.81 73.7508 1671.26 67.4314 Q1665.75 61.0714 1665.75 49.9314 Q1665.75 38.7509 1671.26 32.4315 Q1676.81 26.1121 1686.58 26.1121 Z" fill="#000000" fill-rule="evenodd" fill-opacity="1" /><path clip-path="url(#clip810)" d="M1746.04 34.1734 Q1744.79 33.4443 1743.29 33.1202 Q1741.83 32.7556 1740.05 32.7556 Q1733.73 32.7556 1730.33 36.8875 Q1726.96 40.9789 1726.96 48.6757 L1726.96 72.576 L1719.47 72.576 L1719.47 27.2059 L1726.96 27.2059 L1726.96 34.2544 Q1729.31 30.1225 1733.08 28.1376 Q1736.85 26.1121 1742.24 26.1121 Q1743 26.1121 1743.94 26.2337 Q1744.87 26.3147 1746 26.5172 L1746.04 34.1734 Z" fill="#000000" fill-rule="evenodd" fill-opacity="1" /><path clip-path="url(#clip810)" d="M1772.74 76.7889 Q1769.58 84.8907 1766.58 87.3618 Q1763.58 89.8329 1758.56 89.8329 L1752.61 89.8329 L1752.61 83.5945 L1756.98 83.5945 Q1760.06 83.5945 1761.76 82.1361 Q1763.46 80.6778 1765.53 75.2496 L1766.86 71.8468 L1748.51 27.2059 L1756.41 27.2059 L1770.59 62.6918 L1784.77 27.2059 L1792.67 27.2059 L1772.74 76.7889 Z" fill="#000000" fill-rule="evenodd" fill-opacity="1" /><polyline clip-path="url(#clip812)" style="stroke:#009af9; stroke-linecap:butt; stroke-linejoin:round; stroke-width:4; stroke-opacity:1; fill:none" points="
  346.498,1233.58 431.079,1248.06 515.66,1251.51 600.241,1250.96 684.822,1245.89 769.403,1224.51 853.983,1222.78 938.564,1223.29 1023.15,1250.41 1107.73,1251.55 
  1192.31,1232.15 1276.89,1212.53 1361.47,1201.51 1446.05,1214.15 1530.63,1209.04 1615.21,1224.54 1699.79,1250.3 1784.37,1271.49 1868.95,1284.61 1953.53,1269.77 
  2038.12,1235.79 2122.7,1236.19 2207.28,1243.39 2291.86,1241.33 
  "/>
<polyline clip-path="url(#clip812)" style="stroke:#e26f46; stroke-linecap:butt; stroke-linejoin:round; stroke-width:4; stroke-opacity:1; fill:none" points="
  261.917,1220.06 346.498,1163.37 431.079,1118.52 515.66,1102.87 600.241,1080.13 684.822,1056.28 769.403,1023.37 853.983,1001.1 938.564,1004.56 1023.15,1015.32 
  1107.73,1002.39 1192.31,996.879 1276.89,991.735 1361.47,1025.42 1446.05,1053.01 1530.63,1067.53 1615.21,1085.67 1699.79,1102.1 1784.37,1105.7 1868.95,1127 
  1953.53,1133.65 2038.12,1137.84 2122.7,1141.96 2207.28,1143.83 2291.86,1140.6 
  "/>
<polyline clip-path="url(#clip812)" style="stroke:#3da44d; stroke-linecap:butt; stroke-linejoin:round; stroke-width:4; stroke-opacity:1; fill:none" points="
  261.917,942.029 346.498,924.615 431.079,949.156 515.66,971.199 600.241,966.754 684.822,905.879 769.403,910.655 853.983,825.203 938.564,772.594 1023.15,834.424 
  1107.73,737.95 1192.31,683.798 1276.89,560.837 1361.47,568.662 1446.05,393.312 1530.63,347.39 1615.21,375.861 1699.79,340.52 1784.37,237.029 1868.95,351.137 
  1953.53,398.859 2038.12,426.229 2122.7,296.214 2207.28,353.892 2291.86,442.504 
  "/>
<polyline clip-path="url(#clip812)" style="stroke:#c271d2; stroke-linecap:butt; stroke-linejoin:round; stroke-width:4; stroke-opacity:1; fill:none" points="
  261.917,1110.58 346.498,1116.13 431.079,1106.06 515.66,1079.17 600.241,1106.28 684.822,1069.47 769.403,1049.78 853.983,1045.81 938.564,1061.17 1023.15,1090.12 
  1107.73,1080.05 1192.31,1065.1 1276.89,1051.36 1361.47,1051.69 1446.05,1060.69 1530.63,1088.91 1615.21,1083.91 1699.79,1111.65 1784.37,1113.34 1868.95,1099.3 
  1953.53,1074.8 2038.12,1083.73 2122.7,1102.28 2207.28,1097.1 2291.86,1108.89 
  "/>
<polyline clip-path="url(#clip812)" style="stroke:#ac8d18; stroke-linecap:butt; stroke-linejoin:round; stroke-width:4; stroke-opacity:1; fill:none" points="
  261.917,1215.25 346.498,1191.41 431.079,1166.06 515.66,1161.8 600.241,1165.87 684.822,1171.49 769.403,1155.33 853.983,1156.8 938.564,1159.52 1023.15,1108.78 
  1107.73,1075.46 1192.31,1054.41 1276.89,1073.84 1361.47,1090.19 1446.05,1087.66 1530.63,1112.31 1615.21,1110.73 1699.79,1097.69 1784.37,1074.03 1868.95,1083.14 
  1953.53,1023.48 2038.12,984.314 2122.7,1012.53 2207.28,1038.28 2291.86,1012.09 
  "/>
<polyline clip-path="url(#clip812)" style="stroke:#ff0000; stroke-linecap:butt; stroke-linejoin:round; stroke-width:4; stroke-opacity:1; fill:none" points="
  346.498,1447.87 346.498,162.047 
  "/>
<path clip-path="url(#clip810)" d="
M272.744 531.785 L718.815 531.785 L718.815 168.905 L272.744 168.905  Z
  " fill="#ffffff" fill-rule="evenodd" fill-opacity="1"/>
<polyline clip-path="url(#clip810)" style="stroke:#000000; stroke-linecap:butt; stroke-linejoin:round; stroke-width:4; stroke-opacity:1; fill:none" points="
  272.744,531.785 718.815,531.785 718.815,168.905 272.744,168.905 272.744,531.785 
  "/>
<polyline clip-path="url(#clip810)" style="stroke:#009af9; stroke-linecap:butt; stroke-linejoin:round; stroke-width:4; stroke-opacity:1; fill:none" points="
  296.652,220.745 440.101,220.745 
  "/>
<path clip-path="url(#clip810)" d="M479.843 208.071 L473.5 225.27 L486.208 225.27 L479.843 208.071 M477.204 203.465 L482.505 203.465 L495.676 238.025 L490.815 238.025 L487.667 229.159 L472.088 229.159 L468.94 238.025 L464.009 238.025 L477.204 203.465 Z" fill="#000000" fill-rule="evenodd" fill-opacity="1" /><path clip-path="url(#clip810)" d="M525.768 206.127 L525.768 211.057 Q523.407 208.858 520.722 207.77 Q518.06 206.682 515.051 206.682 Q509.125 206.682 505.977 210.316 Q502.829 213.928 502.829 220.779 Q502.829 227.608 505.977 231.242 Q509.125 234.853 515.051 234.853 Q518.06 234.853 520.722 233.765 Q523.407 232.677 525.768 230.478 L525.768 235.363 Q523.315 237.029 520.56 237.863 Q517.828 238.696 514.773 238.696 Q506.926 238.696 502.412 233.904 Q497.898 229.09 497.898 220.779 Q497.898 212.446 502.412 207.654 Q506.926 202.84 514.773 202.84 Q517.875 202.84 520.606 203.673 Q523.361 204.483 525.768 206.127 Z" fill="#000000" fill-rule="evenodd" fill-opacity="1" /><path clip-path="url(#clip810)" d="M528.199 203.465 L557.435 203.465 L557.435 207.4 L545.166 207.4 L545.166 238.025 L540.467 238.025 L540.467 207.4 L528.199 207.4 L528.199 203.465 Z" fill="#000000" fill-rule="evenodd" fill-opacity="1" /><polyline clip-path="url(#clip810)" style="stroke:#e26f46; stroke-linecap:butt; stroke-linejoin:round; stroke-width:4; stroke-opacity:1; fill:none" points="
  296.652,272.585 440.101,272.585 
  "/>
<path clip-path="url(#clip810)" d="M464.009 255.305 L470.306 255.305 L485.63 284.217 L485.63 255.305 L490.167 255.305 L490.167 289.865 L483.87 289.865 L468.546 260.953 L468.546 289.865 L464.009 289.865 L464.009 255.305 Z" fill="#000000" fill-rule="evenodd" fill-opacity="1" /><path clip-path="url(#clip810)" d="M520.19 256.439 L520.19 260.999 Q517.528 259.726 515.166 259.101 Q512.805 258.476 510.606 258.476 Q506.787 258.476 504.704 259.957 Q502.643 261.439 502.643 264.17 Q502.643 266.462 504.009 267.643 Q505.398 268.8 509.241 269.518 L512.065 270.096 Q517.296 271.092 519.773 273.615 Q522.273 276.115 522.273 280.328 Q522.273 285.351 518.893 287.943 Q515.537 290.536 509.032 290.536 Q506.579 290.536 503.801 289.98 Q501.046 289.425 498.083 288.337 L498.083 283.522 Q500.93 285.119 503.662 285.929 Q506.393 286.74 509.032 286.74 Q513.037 286.74 515.213 285.166 Q517.389 283.592 517.389 280.675 Q517.389 278.129 515.815 276.693 Q514.264 275.258 510.699 274.541 L507.852 273.985 Q502.62 272.943 500.282 270.721 Q497.944 268.499 497.944 264.541 Q497.944 259.957 501.162 257.319 Q504.403 254.68 510.074 254.68 Q512.504 254.68 515.028 255.119 Q517.551 255.559 520.19 256.439 Z" fill="#000000" fill-rule="evenodd" fill-opacity="1" /><path clip-path="url(#clip810)" d="M526.486 255.305 L531.208 255.305 L538.477 284.517 L545.722 255.305 L550.976 255.305 L558.245 284.517 L565.49 255.305 L570.236 255.305 L561.555 289.865 L555.675 289.865 L548.384 259.865 L541.023 289.865 L535.143 289.865 L526.486 255.305 Z" fill="#000000" fill-rule="evenodd" fill-opacity="1" /><polyline clip-path="url(#clip810)" style="stroke:#3da44d; stroke-linecap:butt; stroke-linejoin:round; stroke-width:4; stroke-opacity:1; fill:none" points="
  296.652,324.425 440.101,324.425 
  "/>
<path clip-path="url(#clip810)" d="M464.009 307.145 L470.306 307.145 L485.63 336.057 L485.63 307.145 L490.167 307.145 L490.167 341.705 L483.87 341.705 L468.546 312.793 L468.546 341.705 L464.009 341.705 L464.009 307.145 Z" fill="#000000" fill-rule="evenodd" fill-opacity="1" /><path clip-path="url(#clip810)" d="M494.68 307.145 L523.916 307.145 L523.916 311.08 L511.648 311.08 L511.648 341.705 L506.949 341.705 L506.949 311.08 L494.68 311.08 L494.68 307.145 Z" fill="#000000" fill-rule="evenodd" fill-opacity="1" /><polyline clip-path="url(#clip810)" style="stroke:#c271d2; stroke-linecap:butt; stroke-linejoin:round; stroke-width:4; stroke-opacity:1; fill:none" points="
  296.652,376.265 440.101,376.265 
  "/>
<path clip-path="url(#clip810)" d="M486.255 360.119 L486.255 364.679 Q483.593 363.406 481.231 362.781 Q478.87 362.156 476.671 362.156 Q472.852 362.156 470.769 363.637 Q468.708 365.119 468.708 367.85 Q468.708 370.142 470.074 371.323 Q471.463 372.48 475.306 373.198 L478.13 373.776 Q483.361 374.772 485.838 377.295 Q488.338 379.795 488.338 384.008 Q488.338 389.031 484.958 391.623 Q481.602 394.216 475.097 394.216 Q472.644 394.216 469.866 393.66 Q467.111 393.105 464.148 392.017 L464.148 387.202 Q466.995 388.799 469.727 389.609 Q472.458 390.42 475.097 390.42 Q479.102 390.42 481.278 388.846 Q483.454 387.272 483.454 384.355 Q483.454 381.809 481.88 380.373 Q480.329 378.938 476.764 378.221 L473.917 377.665 Q468.685 376.623 466.347 374.401 Q464.009 372.179 464.009 368.221 Q464.009 363.637 467.227 360.999 Q470.468 358.36 476.139 358.36 Q478.569 358.36 481.093 358.799 Q483.616 359.239 486.255 360.119 Z" fill="#000000" fill-rule="evenodd" fill-opacity="1" /><path clip-path="url(#clip810)" d="M508.06 363.591 L501.717 380.79 L514.426 380.79 L508.06 363.591 M505.421 358.985 L510.722 358.985 L523.893 393.545 L519.032 393.545 L515.884 384.679 L500.305 384.679 L497.157 393.545 L492.227 393.545 L505.421 358.985 Z" fill="#000000" fill-rule="evenodd" fill-opacity="1" /><polyline clip-path="url(#clip810)" style="stroke:#ac8d18; stroke-linecap:butt; stroke-linejoin:round; stroke-width:4; stroke-opacity:1; fill:none" points="
  296.652,428.105 440.101,428.105 
  "/>
<path clip-path="url(#clip810)" d="M464.009 410.825 L468.732 410.825 L476 440.037 L483.245 410.825 L488.5 410.825 L495.768 440.037 L503.014 410.825 L507.759 410.825 L499.079 445.385 L493.199 445.385 L485.907 415.385 L478.546 445.385 L472.667 445.385 L464.009 410.825 Z" fill="#000000" fill-rule="evenodd" fill-opacity="1" /><path clip-path="url(#clip810)" d="M522.921 415.431 L516.578 432.63 L529.287 432.63 L522.921 415.431 M520.282 410.825 L525.583 410.825 L538.754 445.385 L533.893 445.385 L530.745 436.519 L515.166 436.519 L512.018 445.385 L507.088 445.385 L520.282 410.825 Z" fill="#000000" fill-rule="evenodd" fill-opacity="1" /><polyline clip-path="url(#clip810)" style="stroke:#ff0000; stroke-linecap:butt; stroke-linejoin:round; stroke-width:4; stroke-opacity:1; fill:none" points="
  296.652,479.945 440.101,479.945 
  "/>
<path clip-path="url(#clip810)" d="M464.009 462.665 L470.306 462.665 L485.63 491.577 L485.63 462.665 L490.167 462.665 L490.167 497.225 L483.87 497.225 L468.546 468.313 L468.546 497.225 L464.009 497.225 L464.009 462.665 Z" fill="#000000" fill-rule="evenodd" fill-opacity="1" /><path clip-path="url(#clip810)" d="M499.472 462.665 L519.333 462.665 L519.333 466.6 L504.148 466.6 L504.148 476.785 L517.852 476.785 L517.852 480.72 L504.148 480.72 L504.148 497.225 L499.472 497.225 L499.472 462.665 Z" fill="#000000" fill-rule="evenodd" fill-opacity="1" /><path clip-path="url(#clip810)" d="M533.94 467.271 L527.597 484.47 L540.305 484.47 L533.94 467.271 M531.301 462.665 L536.602 462.665 L549.773 497.225 L544.912 497.225 L541.764 488.359 L526.185 488.359 L523.037 497.225 L518.106 497.225 L531.301 462.665 Z" fill="#000000" fill-rule="evenodd" fill-opacity="1" /><path clip-path="url(#clip810)" d="M580.49 499.632 Q578.685 504.262 576.972 505.674 Q575.259 507.086 572.388 507.086 L568.986 507.086 L568.986 503.521 L571.486 503.521 Q573.245 503.521 574.217 502.688 Q575.189 501.854 576.37 498.752 L577.134 496.808 L566.648 471.299 L571.162 471.299 L579.263 491.577 L587.365 471.299 L591.879 471.299 L580.49 499.632 Z" fill="#000000" fill-rule="evenodd" fill-opacity="1" /><path clip-path="url(#clip810)" d="M619.934 483.197 L619.934 485.28 L600.351 485.28 Q600.629 489.678 602.99 491.993 Q605.374 494.285 609.61 494.285 Q612.064 494.285 614.356 493.683 Q616.671 493.081 618.939 491.877 L618.939 495.905 Q616.647 496.877 614.24 497.387 Q611.833 497.896 609.356 497.896 Q603.152 497.896 599.518 494.285 Q595.907 490.674 595.907 484.516 Q595.907 478.151 599.333 474.424 Q602.782 470.674 608.615 470.674 Q613.846 470.674 616.879 474.053 Q619.934 477.41 619.934 483.197 M615.675 481.947 Q615.629 478.452 613.708 476.368 Q611.809 474.285 608.661 474.285 Q605.097 474.285 602.944 476.299 Q600.814 478.313 600.49 481.97 L615.675 481.947 Z" fill="#000000" fill-rule="evenodd" fill-opacity="1" /><path clip-path="url(#clip810)" d="M638.707 484.192 Q633.545 484.192 631.555 485.373 Q629.564 486.553 629.564 489.401 Q629.564 491.669 631.045 493.012 Q632.55 494.331 635.12 494.331 Q638.661 494.331 640.791 491.831 Q642.944 489.308 642.944 485.141 L642.944 484.192 L638.707 484.192 M647.203 482.433 L647.203 497.225 L642.944 497.225 L642.944 493.289 Q641.485 495.651 639.309 496.785 Q637.133 497.896 633.985 497.896 Q630.004 497.896 627.643 495.674 Q625.305 493.428 625.305 489.678 Q625.305 485.303 628.221 483.081 Q631.161 480.859 636.971 480.859 L642.944 480.859 L642.944 480.442 Q642.944 477.503 640.999 475.905 Q639.078 474.285 635.582 474.285 Q633.36 474.285 631.254 474.817 Q629.147 475.35 627.203 476.415 L627.203 472.479 Q629.541 471.577 631.74 471.137 Q633.939 470.674 636.022 470.674 Q641.647 470.674 644.425 473.591 Q647.203 476.507 647.203 482.433 Z" fill="#000000" fill-rule="evenodd" fill-opacity="1" /><path clip-path="url(#clip810)" d="M670.999 475.28 Q670.281 474.864 669.425 474.678 Q668.592 474.47 667.573 474.47 Q663.962 474.47 662.018 476.831 Q660.096 479.169 660.096 483.567 L660.096 497.225 L655.814 497.225 L655.814 471.299 L660.096 471.299 L660.096 475.327 Q661.439 472.966 663.592 471.831 Q665.744 470.674 668.823 470.674 Q669.263 470.674 669.795 470.743 Q670.328 470.79 670.976 470.905 L670.999 475.28 Z" fill="#000000" fill-rule="evenodd" fill-opacity="1" /></svg>
