<?xml version="1.0" encoding="utf-8"?>
<svg xmlns="http://www.w3.org/2000/svg" xmlns:xlink="http://www.w3.org/1999/xlink" width="600" height="400" viewBox="0 0 2400 1600">
<defs>
  <clipPath id="clip760">
    <rect x="0" y="0" width="2400" height="1600"/>
  </clipPath>
</defs>
<path clip-path="url(#clip760)" d="
M0 1600 L2400 1600 L2400 0 L0 0  Z
  " fill="#ffffff" fill-rule="evenodd" fill-opacity="1"/>
<defs>
  <clipPath id="clip761">
    <rect x="480" y="0" width="1681" height="1600"/>
  </clipPath>
</defs>
<path clip-path="url(#clip760)" d="
M112.177 1486.45 L2352.76 1486.45 L2352.76 123.472 L112.177 123.472  Z
  " fill="#ffffff" fill-rule="evenodd" fill-opacity="1"/>
<defs>
  <clipPath id="clip762">
    <rect x="112" y="123" width="2242" height="1364"/>
  </clipPath>
</defs>
<polyline clip-path="url(#clip762)" style="stroke:#000000; stroke-linecap:butt; stroke-linejoin:round; stroke-width:2; stroke-opacity:0.1; fill:none" points="
  338.186,1486.45 338.186,123.472 
  "/>
<polyline clip-path="url(#clip762)" style="stroke:#000000; stroke-linecap:butt; stroke-linejoin:round; stroke-width:2; stroke-opacity:0.1; fill:none" points="
  744.677,1486.45 744.677,123.472 
  "/>
<polyline clip-path="url(#clip762)" style="stroke:#000000; stroke-linecap:butt; stroke-linejoin:round; stroke-width:2; stroke-opacity:0.1; fill:none" points="
  1151.17,1486.45 1151.17,123.472 
  "/>
<polyline clip-path="url(#clip762)" style="stroke:#000000; stroke-linecap:butt; stroke-linejoin:round; stroke-width:2; stroke-opacity:0.1; fill:none" points="
  1557.66,1486.45 1557.66,123.472 
  "/>
<polyline clip-path="url(#clip762)" style="stroke:#000000; stroke-linecap:butt; stroke-linejoin:round; stroke-width:2; stroke-opacity:0.1; fill:none" points="
  1964.15,1486.45 1964.15,123.472 
  "/>
<polyline clip-path="url(#clip760)" style="stroke:#000000; stroke-linecap:butt; stroke-linejoin:round; stroke-width:4; stroke-opacity:1; fill:none" points="
  112.177,1486.45 2352.76,1486.45 
  "/>
<polyline clip-path="url(#clip760)" style="stroke:#000000; stroke-linecap:butt; stroke-linejoin:round; stroke-width:4; stroke-opacity:1; fill:none" points="
  338.186,1486.45 338.186,1467.55 
  "/>
<polyline clip-path="url(#clip760)" style="stroke:#000000; stroke-linecap:butt; stroke-linejoin:round; stroke-width:4; stroke-opacity:1; fill:none" points="
  744.677,1486.45 744.677,1467.55 
  "/>
<polyline clip-path="url(#clip760)" style="stroke:#000000; stroke-linecap:butt; stroke-linejoin:round; stroke-width:4; stroke-opacity:1; fill:none" points="
  1151.17,1486.45 1151.17,1467.55 
  "/>
<polyline clip-path="url(#clip760)" style="stroke:#000000; stroke-linecap:butt; stroke-linejoin:round; stroke-width:4; stroke-opacity:1; fill:none" points="
  1557.66,1486.45 1557.66,1467.55 
  "/>
<polyline clip-path="url(#clip760)" style="stroke:#000000; stroke-linecap:butt; stroke-linejoin:round; stroke-width:4; stroke-opacity:1; fill:none" points="
  1964.15,1486.45 1964.15,1467.55 
  "/>
<path clip-path="url(#clip760)" d="M283.21 1544.91 L290.848 1544.91 L290.848 1518.55 L282.538 1520.21 L282.538 1515.95 L290.802 1514.29 L295.478 1514.29 L295.478 1544.91 L303.117 1544.91 L303.117 1548.85 L283.21 1548.85 L283.21 1544.91 Z" fill="#000000" fill-rule="evenodd" fill-opacity="1" /><path clip-path="url(#clip760)" d="M312.7 1548.13 L312.7 1543.87 Q314.459 1544.7 316.265 1545.14 Q318.071 1545.58 319.807 1545.58 Q324.436 1545.58 326.867 1542.48 Q329.321 1539.36 329.668 1533.01 Q328.325 1535.01 326.265 1536.07 Q324.205 1537.13 321.705 1537.13 Q316.52 1537.13 313.487 1534.01 Q310.478 1530.86 310.478 1525.42 Q310.478 1520.1 313.626 1516.88 Q316.774 1513.66 322.006 1513.66 Q328.001 1513.66 331.149 1518.27 Q334.32 1522.85 334.32 1531.6 Q334.32 1539.77 330.432 1544.66 Q326.566 1549.52 320.015 1549.52 Q318.256 1549.52 316.45 1549.17 Q314.645 1548.82 312.7 1548.13 M322.006 1533.48 Q325.154 1533.48 326.983 1531.32 Q328.834 1529.17 328.834 1525.42 Q328.834 1521.7 326.983 1519.54 Q325.154 1517.37 322.006 1517.37 Q318.858 1517.37 317.006 1519.54 Q315.177 1521.7 315.177 1525.42 Q315.177 1529.17 317.006 1531.32 Q318.858 1533.48 322.006 1533.48 Z" fill="#000000" fill-rule="evenodd" fill-opacity="1" /><path clip-path="url(#clip760)" d="M342.862 1548.13 L342.862 1543.87 Q344.621 1544.7 346.427 1545.14 Q348.232 1545.58 349.969 1545.58 Q354.598 1545.58 357.029 1542.48 Q359.482 1539.36 359.83 1533.01 Q358.487 1535.01 356.427 1536.07 Q354.367 1537.13 351.867 1537.13 Q346.682 1537.13 343.649 1534.01 Q340.64 1530.86 340.64 1525.42 Q340.64 1520.1 343.788 1516.88 Q346.936 1513.66 352.168 1513.66 Q358.163 1513.66 361.311 1518.27 Q364.482 1522.85 364.482 1531.6 Q364.482 1539.77 360.593 1544.66 Q356.728 1549.52 350.177 1549.52 Q348.418 1549.52 346.612 1549.17 Q344.807 1548.82 342.862 1548.13 M352.168 1533.48 Q355.316 1533.48 357.144 1531.32 Q358.996 1529.17 358.996 1525.42 Q358.996 1521.7 357.144 1519.54 Q355.316 1517.37 352.168 1517.37 Q349.019 1517.37 347.168 1519.54 Q345.339 1521.7 345.339 1525.42 Q345.339 1529.17 347.168 1531.32 Q349.019 1533.48 352.168 1533.48 Z" fill="#000000" fill-rule="evenodd" fill-opacity="1" /><path clip-path="url(#clip760)" d="M372.931 1514.29 L391.288 1514.29 L391.288 1518.22 L377.214 1518.22 L377.214 1526.7 Q378.232 1526.35 379.251 1526.19 Q380.269 1526 381.288 1526 Q387.075 1526 390.454 1529.17 Q393.834 1532.34 393.834 1537.76 Q393.834 1543.34 390.362 1546.44 Q386.89 1549.52 380.57 1549.52 Q378.394 1549.52 376.126 1549.15 Q373.88 1548.78 371.473 1548.04 L371.473 1543.34 Q373.556 1544.47 375.779 1545.03 Q378.001 1545.58 380.478 1545.58 Q384.482 1545.58 386.82 1543.48 Q389.158 1541.37 389.158 1537.76 Q389.158 1534.15 386.82 1532.04 Q384.482 1529.94 380.478 1529.94 Q378.603 1529.94 376.728 1530.35 Q374.876 1530.77 372.931 1531.65 L372.931 1514.29 Z" fill="#000000" fill-rule="evenodd" fill-opacity="1" /><path clip-path="url(#clip760)" d="M693.289 1544.91 L709.608 1544.91 L709.608 1548.85 L687.664 1548.85 L687.664 1544.91 Q690.326 1542.16 694.909 1537.53 Q699.515 1532.88 700.696 1531.53 Q702.941 1529.01 703.821 1527.27 Q704.724 1525.51 704.724 1523.82 Q704.724 1521.07 702.779 1519.33 Q700.858 1517.6 697.756 1517.6 Q695.557 1517.6 693.103 1518.36 Q690.673 1519.13 687.895 1520.68 L687.895 1515.95 Q690.719 1514.82 693.173 1514.24 Q695.627 1513.66 697.664 1513.66 Q703.034 1513.66 706.228 1516.35 Q709.423 1519.03 709.423 1523.52 Q709.423 1525.65 708.613 1527.57 Q707.826 1529.47 705.719 1532.07 Q705.14 1532.74 702.039 1535.95 Q698.937 1539.15 693.289 1544.91 Z" fill="#000000" fill-rule="evenodd" fill-opacity="1" /><path clip-path="url(#clip760)" d="M729.423 1517.37 Q725.812 1517.37 723.983 1520.93 Q722.177 1524.47 722.177 1531.6 Q722.177 1538.71 723.983 1542.27 Q725.812 1545.82 729.423 1545.82 Q733.057 1545.82 734.863 1542.27 Q736.691 1538.71 736.691 1531.6 Q736.691 1524.47 734.863 1520.93 Q733.057 1517.37 729.423 1517.37 M729.423 1513.66 Q735.233 1513.66 738.288 1518.27 Q741.367 1522.85 741.367 1531.6 Q741.367 1540.33 738.288 1544.94 Q735.233 1549.52 729.423 1549.52 Q723.613 1549.52 720.534 1544.94 Q717.478 1540.33 717.478 1531.6 Q717.478 1522.85 720.534 1518.27 Q723.613 1513.66 729.423 1513.66 Z" fill="#000000" fill-rule="evenodd" fill-opacity="1" /><path clip-path="url(#clip760)" d="M759.585 1517.37 Q755.974 1517.37 754.145 1520.93 Q752.339 1524.47 752.339 1531.6 Q752.339 1538.71 754.145 1542.27 Q755.974 1545.82 759.585 1545.82 Q763.219 1545.82 765.024 1542.27 Q766.853 1538.71 766.853 1531.6 Q766.853 1524.47 765.024 1520.93 Q763.219 1517.37 759.585 1517.37 M759.585 1513.66 Q765.395 1513.66 768.45 1518.27 Q771.529 1522.85 771.529 1531.6 Q771.529 1540.33 768.45 1544.94 Q765.395 1549.52 759.585 1549.52 Q753.774 1549.52 750.696 1544.94 Q747.64 1540.33 747.64 1531.6 Q747.64 1522.85 750.696 1518.27 Q753.774 1513.66 759.585 1513.66 Z" fill="#000000" fill-rule="evenodd" fill-opacity="1" /><path clip-path="url(#clip760)" d="M789.746 1517.37 Q786.135 1517.37 784.307 1520.93 Q782.501 1524.47 782.501 1531.6 Q782.501 1538.71 784.307 1542.27 Q786.135 1545.82 789.746 1545.82 Q793.381 1545.82 795.186 1542.27 Q797.015 1538.71 797.015 1531.6 Q797.015 1524.47 795.186 1520.93 Q793.381 1517.37 789.746 1517.37 M789.746 1513.66 Q795.557 1513.66 798.612 1518.27 Q801.691 1522.85 801.691 1531.6 Q801.691 1540.33 798.612 1544.94 Q795.557 1549.52 789.746 1549.52 Q783.936 1549.52 780.858 1544.94 Q777.802 1540.33 777.802 1531.6 Q777.802 1522.85 780.858 1518.27 Q783.936 1513.66 789.746 1513.66 Z" fill="#000000" fill-rule="evenodd" fill-opacity="1" /><path clip-path="url(#clip760)" d="M1100.28 1544.91 L1116.6 1544.91 L1116.6 1548.85 L1094.65 1548.85 L1094.65 1544.91 Q1097.31 1542.16 1101.9 1537.53 Q1106.5 1532.88 1107.68 1531.53 Q1109.93 1529.01 1110.81 1527.27 Q1111.71 1525.51 1111.71 1523.82 Q1111.71 1521.07 1109.77 1519.33 Q1107.85 1517.6 1104.74 1517.6 Q1102.55 1517.6 1100.09 1518.36 Q1097.66 1519.13 1094.88 1520.68 L1094.88 1515.95 Q1097.71 1514.82 1100.16 1514.24 Q1102.62 1513.66 1104.65 1513.66 Q1110.02 1513.66 1113.22 1516.35 Q1116.41 1519.03 1116.41 1523.52 Q1116.41 1525.65 1115.6 1527.57 Q1114.81 1529.47 1112.71 1532.07 Q1112.13 1532.74 1109.03 1535.95 Q1105.93 1539.15 1100.28 1544.91 Z" fill="#000000" fill-rule="evenodd" fill-opacity="1" /><path clip-path="url(#clip760)" d="M1136.41 1517.37 Q1132.8 1517.37 1130.97 1520.93 Q1129.17 1524.47 1129.17 1531.6 Q1129.17 1538.71 1130.97 1542.27 Q1132.8 1545.82 1136.41 1545.82 Q1140.05 1545.82 1141.85 1542.27 Q1143.68 1538.71 1143.68 1531.6 Q1143.68 1524.47 1141.85 1520.93 Q1140.05 1517.37 1136.41 1517.37 M1136.41 1513.66 Q1142.22 1513.66 1145.28 1518.27 Q1148.36 1522.85 1148.36 1531.6 Q1148.36 1540.33 1145.28 1544.94 Q1142.22 1549.52 1136.41 1549.52 Q1130.6 1549.52 1127.52 1544.94 Q1124.47 1540.33 1124.47 1531.6 Q1124.47 1522.85 1127.52 1518.27 Q1130.6 1513.66 1136.41 1513.66 Z" fill="#000000" fill-rule="evenodd" fill-opacity="1" /><path clip-path="url(#clip760)" d="M1166.57 1517.37 Q1162.96 1517.37 1161.13 1520.93 Q1159.33 1524.47 1159.33 1531.6 Q1159.33 1538.71 1161.13 1542.27 Q1162.96 1545.82 1166.57 1545.82 Q1170.21 1545.82 1172.01 1542.27 Q1173.84 1538.71 1173.84 1531.6 Q1173.84 1524.47 1172.01 1520.93 Q1170.21 1517.37 1166.57 1517.37 M1166.57 1513.66 Q1172.38 1513.66 1175.44 1518.27 Q1178.52 1522.85 1178.52 1531.6 Q1178.52 1540.33 1175.44 1544.94 Q1172.38 1549.52 1166.57 1549.52 Q1160.76 1549.52 1157.68 1544.94 Q1154.63 1540.33 1154.63 1531.6 Q1154.63 1522.85 1157.68 1518.27 Q1160.76 1513.66 1166.57 1513.66 Z" fill="#000000" fill-rule="evenodd" fill-opacity="1" /><path clip-path="url(#clip760)" d="M1186.78 1514.29 L1205.14 1514.29 L1205.14 1518.22 L1191.06 1518.22 L1191.06 1526.7 Q1192.08 1526.35 1193.1 1526.19 Q1194.12 1526 1195.14 1526 Q1200.93 1526 1204.3 1529.17 Q1207.68 1532.34 1207.68 1537.76 Q1207.68 1543.34 1204.21 1546.44 Q1200.74 1549.52 1194.42 1549.52 Q1192.24 1549.52 1189.98 1549.15 Q1187.73 1548.78 1185.32 1548.04 L1185.32 1543.34 Q1187.41 1544.47 1189.63 1545.03 Q1191.85 1545.58 1194.33 1545.58 Q1198.33 1545.58 1200.67 1543.48 Q1203.01 1541.37 1203.01 1537.76 Q1203.01 1534.15 1200.67 1532.04 Q1198.33 1529.94 1194.33 1529.94 Q1192.45 1529.94 1190.58 1530.35 Q1188.73 1530.77 1186.78 1531.65 L1186.78 1514.29 Z" fill="#000000" fill-rule="evenodd" fill-opacity="1" /><path clip-path="url(#clip760)" d="M1506.27 1544.91 L1522.59 1544.91 L1522.59 1548.85 L1500.65 1548.85 L1500.65 1544.91 Q1503.31 1542.16 1507.89 1537.53 Q1512.5 1532.88 1513.68 1531.53 Q1515.92 1529.01 1516.8 1527.27 Q1517.71 1525.51 1517.71 1523.82 Q1517.71 1521.07 1515.76 1519.33 Q1513.84 1517.6 1510.74 1517.6 Q1508.54 1517.6 1506.09 1518.36 Q1503.66 1519.13 1500.88 1520.68 L1500.88 1515.95 Q1503.7 1514.82 1506.16 1514.24 Q1508.61 1513.66 1510.65 1513.66 Q1516.02 1513.66 1519.21 1516.35 Q1522.4 1519.03 1522.4 1523.52 Q1522.4 1525.65 1521.59 1527.57 Q1520.81 1529.47 1518.7 1532.07 Q1518.12 1532.74 1515.02 1535.95 Q1511.92 1539.15 1506.27 1544.91 Z" fill="#000000" fill-rule="evenodd" fill-opacity="1" /><path clip-path="url(#clip760)" d="M1542.4 1517.37 Q1538.79 1517.37 1536.97 1520.93 Q1535.16 1524.47 1535.16 1531.6 Q1535.16 1538.71 1536.97 1542.27 Q1538.79 1545.82 1542.4 1545.82 Q1546.04 1545.82 1547.84 1542.27 Q1549.67 1538.71 1549.67 1531.6 Q1549.67 1524.47 1547.84 1520.93 Q1546.04 1517.37 1542.4 1517.37 M1542.4 1513.66 Q1548.21 1513.66 1551.27 1518.27 Q1554.35 1522.85 1554.35 1531.6 Q1554.35 1540.33 1551.27 1544.94 Q1548.21 1549.52 1542.4 1549.52 Q1536.59 1549.52 1533.52 1544.94 Q1530.46 1540.33 1530.46 1531.6 Q1530.46 1522.85 1533.52 1518.27 Q1536.59 1513.66 1542.4 1513.66 Z" fill="#000000" fill-rule="evenodd" fill-opacity="1" /><path clip-path="url(#clip760)" d="M1563.38 1544.91 L1571.02 1544.91 L1571.02 1518.55 L1562.71 1520.21 L1562.71 1515.95 L1570.97 1514.29 L1575.65 1514.29 L1575.65 1544.91 L1583.28 1544.91 L1583.28 1548.85 L1563.38 1548.85 L1563.38 1544.91 Z" fill="#000000" fill-rule="evenodd" fill-opacity="1" /><path clip-path="url(#clip760)" d="M1602.73 1517.37 Q1599.12 1517.37 1597.29 1520.93 Q1595.48 1524.47 1595.48 1531.6 Q1595.48 1538.71 1597.29 1542.27 Q1599.12 1545.82 1602.73 1545.82 Q1606.36 1545.82 1608.17 1542.27 Q1610 1538.71 1610 1531.6 Q1610 1524.47 1608.17 1520.93 Q1606.36 1517.37 1602.73 1517.37 M1602.73 1513.66 Q1608.54 1513.66 1611.59 1518.27 Q1614.67 1522.85 1614.67 1531.6 Q1614.67 1540.33 1611.59 1544.94 Q1608.54 1549.52 1602.73 1549.52 Q1596.92 1549.52 1593.84 1544.94 Q1590.78 1540.33 1590.78 1531.6 Q1590.78 1522.85 1593.84 1518.27 Q1596.92 1513.66 1602.73 1513.66 Z" fill="#000000" fill-rule="evenodd" fill-opacity="1" /><path clip-path="url(#clip760)" d="M1913.26 1544.91 L1929.58 1544.91 L1929.58 1548.85 L1907.63 1548.85 L1907.63 1544.91 Q1910.3 1542.16 1914.88 1537.53 Q1919.49 1532.88 1920.67 1531.53 Q1922.91 1529.01 1923.79 1527.27 Q1924.69 1525.51 1924.69 1523.82 Q1924.69 1521.07 1922.75 1519.33 Q1920.83 1517.6 1917.73 1517.6 Q1915.53 1517.6 1913.07 1518.36 Q1910.64 1519.13 1907.87 1520.68 L1907.87 1515.95 Q1910.69 1514.82 1913.14 1514.24 Q1915.6 1513.66 1917.63 1513.66 Q1923 1513.66 1926.2 1516.35 Q1929.39 1519.03 1929.39 1523.52 Q1929.39 1525.65 1928.58 1527.57 Q1927.8 1529.47 1925.69 1532.07 Q1925.11 1532.74 1922.01 1535.95 Q1918.91 1539.15 1913.26 1544.91 Z" fill="#000000" fill-rule="evenodd" fill-opacity="1" /><path clip-path="url(#clip760)" d="M1949.39 1517.37 Q1945.78 1517.37 1943.95 1520.93 Q1942.15 1524.47 1942.15 1531.6 Q1942.15 1538.71 1943.95 1542.27 Q1945.78 1545.82 1949.39 1545.82 Q1953.03 1545.82 1954.83 1542.27 Q1956.66 1538.71 1956.66 1531.6 Q1956.66 1524.47 1954.83 1520.93 Q1953.03 1517.37 1949.39 1517.37 M1949.39 1513.66 Q1955.2 1513.66 1958.26 1518.27 Q1961.34 1522.85 1961.34 1531.6 Q1961.34 1540.33 1958.26 1544.94 Q1955.2 1549.52 1949.39 1549.52 Q1943.58 1549.52 1940.5 1544.94 Q1937.45 1540.33 1937.45 1531.6 Q1937.45 1522.85 1940.5 1518.27 Q1943.58 1513.66 1949.39 1513.66 Z" fill="#000000" fill-rule="evenodd" fill-opacity="1" /><path clip-path="url(#clip760)" d="M1970.37 1544.91 L1978 1544.91 L1978 1518.55 L1969.69 1520.21 L1969.69 1515.95 L1977.96 1514.29 L1982.63 1514.29 L1982.63 1544.91 L1990.27 1544.91 L1990.27 1548.85 L1970.37 1548.85 L1970.37 1544.91 Z" fill="#000000" fill-rule="evenodd" fill-opacity="1" /><path clip-path="url(#clip760)" d="M1999.76 1514.29 L2018.12 1514.29 L2018.12 1518.22 L2004.05 1518.22 L2004.05 1526.7 Q2005.06 1526.35 2006.08 1526.19 Q2007.1 1526 2008.12 1526 Q2013.91 1526 2017.29 1529.17 Q2020.67 1532.34 2020.67 1537.76 Q2020.67 1543.34 2017.19 1546.44 Q2013.72 1549.52 2007.4 1549.52 Q2005.23 1549.52 2002.96 1549.15 Q2000.71 1548.78 1998.31 1548.04 L1998.31 1543.34 Q2000.39 1544.47 2002.61 1545.03 Q2004.83 1545.58 2007.31 1545.58 Q2011.31 1545.58 2013.65 1543.48 Q2015.99 1541.37 2015.99 1537.76 Q2015.99 1534.15 2013.65 1532.04 Q2011.31 1529.94 2007.31 1529.94 Q2005.43 1529.94 2003.56 1530.35 Q2001.71 1530.77 1999.76 1531.65 L1999.76 1514.29 Z" fill="#000000" fill-rule="evenodd" fill-opacity="1" /><polyline clip-path="url(#clip762)" style="stroke:#000000; stroke-linecap:butt; stroke-linejoin:round; stroke-width:2; stroke-opacity:0.1; fill:none" points="
  112.177,1486.45 2352.76,1486.45 
  "/>
<polyline clip-path="url(#clip762)" style="stroke:#000000; stroke-linecap:butt; stroke-linejoin:round; stroke-width:2; stroke-opacity:0.1; fill:none" points="
  112.177,1145.7 2352.76,1145.7 
  "/>
<polyline clip-path="url(#clip762)" style="stroke:#000000; stroke-linecap:butt; stroke-linejoin:round; stroke-width:2; stroke-opacity:0.1; fill:none" points="
  112.177,804.96 2352.76,804.96 
  "/>
<polyline clip-path="url(#clip762)" style="stroke:#000000; stroke-linecap:butt; stroke-linejoin:round; stroke-width:2; stroke-opacity:0.1; fill:none" points="
  112.177,464.216 2352.76,464.216 
  "/>
<polyline clip-path="url(#clip762)" style="stroke:#000000; stroke-linecap:butt; stroke-linejoin:round; stroke-width:2; stroke-opacity:0.1; fill:none" points="
  112.177,123.472 2352.76,123.472 
  "/>
<polyline clip-path="url(#clip760)" style="stroke:#000000; stroke-linecap:butt; stroke-linejoin:round; stroke-width:4; stroke-opacity:1; fill:none" points="
  112.177,1486.45 112.177,123.472 
  "/>
<polyline clip-path="url(#clip760)" style="stroke:#000000; stroke-linecap:butt; stroke-linejoin:round; stroke-width:4; stroke-opacity:1; fill:none" points="
  112.177,1486.45 131.075,1486.45 
  "/>
<polyline clip-path="url(#clip760)" style="stroke:#000000; stroke-linecap:butt; stroke-linejoin:round; stroke-width:4; stroke-opacity:1; fill:none" points="
  112.177,1145.7 131.075,1145.7 
  "/>
<polyline clip-path="url(#clip760)" style="stroke:#000000; stroke-linecap:butt; stroke-linejoin:round; stroke-width:4; stroke-opacity:1; fill:none" points="
  112.177,804.96 131.075,804.96 
  "/>
<polyline clip-path="url(#clip760)" style="stroke:#000000; stroke-linecap:butt; stroke-linejoin:round; stroke-width:4; stroke-opacity:1; fill:none" points="
  112.177,464.216 131.075,464.216 
  "/>
<polyline clip-path="url(#clip760)" style="stroke:#000000; stroke-linecap:butt; stroke-linejoin:round; stroke-width:4; stroke-opacity:1; fill:none" points="
  112.177,123.472 131.075,123.472 
  "/>
<path clip-path="url(#clip760)" d="M64.2328 1472.25 Q60.6217 1472.25 58.793 1475.81 Q56.9875 1479.35 56.9875 1486.48 Q56.9875 1493.59 58.793 1497.15 Q60.6217 1500.7 64.2328 1500.7 Q67.867 1500.7 69.6726 1497.15 Q71.5013 1493.59 71.5013 1486.48 Q71.5013 1479.35 69.6726 1475.81 Q67.867 1472.25 64.2328 1472.25 M64.2328 1468.54 Q70.0429 1468.54 73.0985 1473.15 Q76.1772 1477.73 76.1772 1486.48 Q76.1772 1495.21 73.0985 1499.82 Q70.0429 1504.4 64.2328 1504.4 Q58.4226 1504.4 55.344 1499.82 Q52.2884 1495.21 52.2884 1486.48 Q52.2884 1477.73 55.344 1473.15 Q58.4226 1468.54 64.2328 1468.54 Z" fill="#000000" fill-rule="evenodd" fill-opacity="1" /><path clip-path="url(#clip760)" d="M56.2699 1159.05 L63.9087 1159.05 L63.9087 1132.68 L55.5986 1134.35 L55.5986 1130.09 L63.8624 1128.42 L68.5383 1128.42 L68.5383 1159.05 L76.1772 1159.05 L76.1772 1162.98 L56.2699 1162.98 L56.2699 1159.05 Z" fill="#000000" fill-rule="evenodd" fill-opacity="1" /><path clip-path="url(#clip760)" d="M59.8578 818.305 L76.1772 818.305 L76.1772 822.24 L54.2328 822.24 L54.2328 818.305 Q56.8949 815.55 61.4782 810.921 Q66.0846 806.268 67.2652 804.925 Q69.5105 802.402 70.3902 800.666 Q71.2929 798.907 71.2929 797.217 Q71.2929 794.462 69.3485 792.726 Q67.4272 790.99 64.3254 790.99 Q62.1263 790.99 59.6726 791.754 Q57.2421 792.518 54.4643 794.069 L54.4643 789.347 Q57.2884 788.212 59.7421 787.634 Q62.1958 787.055 64.2328 787.055 Q69.6031 787.055 72.7976 789.74 Q75.992 792.425 75.992 796.916 Q75.992 799.046 75.1818 800.967 Q74.3948 802.865 72.2883 805.458 Q71.7096 806.129 68.6078 809.347 Q65.5059 812.541 59.8578 818.305 Z" fill="#000000" fill-rule="evenodd" fill-opacity="1" /><path clip-path="url(#clip760)" d="M69.0476 462.862 Q72.404 463.579 74.279 465.848 Q76.1772 468.117 76.1772 471.45 Q76.1772 476.566 72.6587 479.366 Q69.1402 482.167 62.6587 482.167 Q60.4828 482.167 58.168 481.728 Q55.8764 481.311 53.4227 480.454 L53.4227 475.941 Q55.3671 477.075 57.6819 477.653 Q59.9967 478.232 62.5198 478.232 Q66.918 478.232 69.2096 476.496 Q71.5244 474.76 71.5244 471.45 Q71.5244 468.394 69.3717 466.681 Q67.242 464.945 63.4226 464.945 L59.3949 464.945 L59.3949 461.103 L63.6078 461.103 Q67.0569 461.103 68.8855 459.737 Q70.7142 458.348 70.7142 455.755 Q70.7142 453.093 68.8161 451.681 Q66.9411 450.246 63.4226 450.246 Q61.5013 450.246 59.3023 450.663 Q57.1032 451.08 54.4643 451.959 L54.4643 447.793 Q57.1264 447.052 59.4412 446.681 Q61.7791 446.311 63.8393 446.311 Q69.1633 446.311 72.2652 448.742 Q75.367 451.149 75.367 455.269 Q75.367 458.14 73.7235 460.13 Q72.08 462.098 69.0476 462.862 Z" fill="#000000" fill-rule="evenodd" fill-opacity="1" /><path clip-path="url(#clip760)" d="M66.5939 110.266 L54.7884 128.715 L66.5939 128.715 L66.5939 110.266 M65.367 106.192 L71.2466 106.192 L71.2466 128.715 L76.1772 128.715 L76.1772 132.604 L71.2466 132.604 L71.2466 140.752 L66.5939 140.752 L66.5939 132.604 L50.9921 132.604 L50.9921 128.09 L65.367 106.192 Z" fill="#000000" fill-rule="evenodd" fill-opacity="1" /><path clip-path="url(#clip760)" d="M739.877 63.9476 L739.877 47.7034 L726.509 47.7034 L726.509 40.9789 L747.978 40.9789 L747.978 66.9452 Q743.239 70.3075 737.527 72.0494 Q731.815 73.7508 725.334 73.7508 Q711.156 73.7508 703.135 65.4869 Q695.155 57.1826 695.155 42.3968 Q695.155 27.5705 703.135 19.3066 Q711.156 11.0023 725.334 11.0023 Q731.248 11.0023 736.555 12.4606 Q741.902 13.9189 746.399 16.7545 L746.399 25.464 Q741.862 21.6156 736.757 19.6712 Q731.653 17.7268 726.022 17.7268 Q714.923 17.7268 709.333 23.9246 Q703.783 30.1225 703.783 42.3968 Q703.783 54.6305 709.333 60.8284 Q714.923 67.0263 726.022 67.0263 Q730.357 67.0263 733.76 66.2971 Q737.162 65.5274 739.877 63.9476 Z" fill="#000000" fill-rule="evenodd" fill-opacity="1" /><path clip-path="url(#clip760)" d="M761.832 54.671 L761.832 27.2059 L769.286 27.2059 L769.286 54.3874 Q769.286 60.8284 771.798 64.0691 Q774.309 67.2693 779.332 67.2693 Q785.368 67.2693 788.852 63.421 Q792.376 59.5726 792.376 52.9291 L792.376 27.2059 L799.83 27.2059 L799.83 72.576 L792.376 72.576 L792.376 65.6084 Q789.662 69.7404 786.057 71.7658 Q782.492 73.7508 777.753 73.7508 Q769.934 73.7508 765.883 68.8897 Q761.832 64.0286 761.832 54.671 M780.588 26.1121 L780.588 26.1121 Z" fill="#000000" fill-rule="evenodd" fill-opacity="1" /><path clip-path="url(#clip760)" d="M852.897 45.1919 L852.897 72.576 L845.443 72.576 L845.443 45.4349 Q845.443 38.994 842.932 35.7938 Q840.42 32.5936 835.397 32.5936 Q829.361 32.5936 825.877 36.4419 Q822.394 40.2903 822.394 46.9338 L822.394 72.576 L814.899 72.576 L814.899 27.2059 L822.394 27.2059 L822.394 34.2544 Q825.067 30.163 828.672 28.1376 Q832.318 26.1121 837.058 26.1121 Q844.876 26.1121 848.886 30.9732 Q852.897 35.7938 852.897 45.1919 Z" fill="#000000" fill-rule="evenodd" fill-opacity="1" /><path clip-path="url(#clip760)" d="M926.785 28.9478 L926.785 35.9153 Q923.626 34.1734 920.425 33.3227 Q917.266 32.4315 914.025 32.4315 Q906.774 32.4315 902.763 37.0496 Q898.753 41.6271 898.753 49.9314 Q898.753 58.2358 902.763 62.8538 Q906.774 67.4314 914.025 67.4314 Q917.266 67.4314 920.425 66.5807 Q923.626 65.6895 926.785 63.9476 L926.785 70.8341 Q923.666 72.2924 920.304 73.0216 Q916.982 73.7508 913.215 73.7508 Q902.966 73.7508 896.93 67.3098 Q890.894 60.8689 890.894 49.9314 Q890.894 38.832 896.971 32.472 Q903.088 26.1121 913.701 26.1121 Q917.144 26.1121 920.425 26.8413 Q923.707 27.5299 926.785 28.9478 Z" fill="#000000" fill-rule="evenodd" fill-opacity="1" /><path clip-path="url(#clip760)" d="M957.329 32.4315 Q951.334 32.4315 947.85 37.1306 Q944.366 41.7891 944.366 49.9314 Q944.366 58.0738 947.81 62.7728 Q951.293 67.4314 957.329 67.4314 Q963.284 67.4314 966.768 62.7323 Q970.252 58.0333 970.252 49.9314 Q970.252 41.8701 966.768 37.1711 Q963.284 32.4315 957.329 32.4315 M957.329 26.1121 Q967.051 26.1121 972.601 32.4315 Q978.151 38.7509 978.151 49.9314 Q978.151 61.0714 972.601 67.4314 Q967.051 73.7508 957.329 73.7508 Q947.566 73.7508 942.017 67.4314 Q936.507 61.0714 936.507 49.9314 Q936.507 38.7509 942.017 32.4315 Q947.566 26.1121 957.329 26.1121 Z" fill="#000000" fill-rule="evenodd" fill-opacity="1" /><path clip-path="url(#clip760)" d="M989.736 54.671 L989.736 27.2059 L997.19 27.2059 L997.19 54.3874 Q997.19 60.8284 999.702 64.0691 Q1002.21 67.2693 1007.24 67.2693 Q1013.27 67.2693 1016.76 63.421 Q1020.28 59.5726 1020.28 52.9291 L1020.28 27.2059 L1027.73 27.2059 L1027.73 72.576 L1020.28 72.576 L1020.28 65.6084 Q1017.57 69.7404 1013.96 71.7658 Q1010.4 73.7508 1005.66 73.7508 Q997.838 73.7508 993.787 68.8897 Q989.736 64.0286 989.736 54.671 M1008.49 26.1121 L1008.49 26.1121 Z" fill="#000000" fill-rule="evenodd" fill-opacity="1" /><path clip-path="url(#clip760)" d="M1080.8 45.1919 L1080.8 72.576 L1073.35 72.576 L1073.35 45.4349 Q1073.35 38.994 1070.84 35.7938 Q1068.32 32.5936 1063.3 32.5936 Q1057.26 32.5936 1053.78 36.4419 Q1050.3 40.2903 1050.3 46.9338 L1050.3 72.576 L1042.8 72.576 L1042.8 27.2059 L1050.3 27.2059 L1050.3 34.2544 Q1052.97 30.163 1056.58 28.1376 Q1060.22 26.1121 1064.96 26.1121 Q1072.78 26.1121 1076.79 30.9732 Q1080.8 35.7938 1080.8 45.1919 Z" fill="#000000" fill-rule="evenodd" fill-opacity="1" /><path clip-path="url(#clip760)" d="M1103.04 14.324 L1103.04 27.2059 L1118.39 27.2059 L1118.39 32.9987 L1103.04 32.9987 L1103.04 57.6282 Q1103.04 63.1779 1104.54 64.7578 Q1106.08 66.3376 1110.74 66.3376 L1118.39 66.3376 L1118.39 72.576 L1110.74 72.576 Q1102.11 72.576 1098.83 69.3758 Q1095.55 66.1351 1095.55 57.6282 L1095.55 32.9987 L1090.08 32.9987 L1090.08 27.2059 L1095.55 27.2059 L1095.55 14.324 L1103.04 14.324 Z" fill="#000000" fill-rule="evenodd" fill-opacity="1" /><path clip-path="url(#clip760)" d="M1154.57 27.2059 L1162.02 27.2059 L1162.02 72.576 L1154.57 72.576 L1154.57 27.2059 M1154.57 9.54393 L1162.02 9.54393 L1162.02 18.9825 L1154.57 18.9825 L1154.57 9.54393 Z" fill="#000000" fill-rule="evenodd" fill-opacity="1" /><path clip-path="url(#clip760)" d="M1215.33 45.1919 L1215.33 72.576 L1207.88 72.576 L1207.88 45.4349 Q1207.88 38.994 1205.37 35.7938 Q1202.85 32.5936 1197.83 32.5936 Q1191.8 32.5936 1188.31 36.4419 Q1184.83 40.2903 1184.83 46.9338 L1184.83 72.576 L1177.33 72.576 L1177.33 27.2059 L1184.83 27.2059 L1184.83 34.2544 Q1187.5 30.163 1191.11 28.1376 Q1194.75 26.1121 1199.49 26.1121 Q1207.31 26.1121 1211.32 30.9732 Q1215.33 35.7938 1215.33 45.1919 Z" fill="#000000" fill-rule="evenodd" fill-opacity="1" /><path clip-path="url(#clip760)" d="M1277.11 20.1573 L1266.01 50.2555 L1288.25 50.2555 L1277.11 20.1573 M1272.49 12.096 L1281.77 12.096 L1304.82 72.576 L1296.31 72.576 L1290.8 57.061 L1263.54 57.061 L1258.03 72.576 L1249.4 72.576 L1272.49 12.096 Z" fill="#000000" fill-rule="evenodd" fill-opacity="1" /><path clip-path="url(#clip760)" d="M1312.71 12.096 L1320.94 12.096 L1320.94 48.8377 Q1320.94 58.5599 1324.46 62.8538 Q1327.99 67.1073 1335.89 67.1073 Q1343.74 67.1073 1347.27 62.8538 Q1350.79 58.5599 1350.79 48.8377 L1350.79 12.096 L1359.02 12.096 L1359.02 49.8504 Q1359.02 61.6791 1353.14 67.7149 Q1347.31 73.7508 1335.89 73.7508 Q1324.42 73.7508 1318.55 67.7149 Q1312.71 61.6791 1312.71 49.8504 L1312.71 12.096 Z" fill="#000000" fill-rule="evenodd" fill-opacity="1" /><path clip-path="url(#clip760)" d="M1418.32 9.62495 Q1412.89 18.942 1410.26 28.0566 Q1407.63 37.1711 1407.63 46.5287 Q1407.63 55.8863 1410.26 65.0818 Q1412.93 74.2369 1418.32 83.5134 L1411.84 83.5134 Q1405.76 73.9938 1402.73 64.7983 Q1399.73 55.6027 1399.73 46.5287 Q1399.73 37.4952 1402.73 28.3401 Q1405.72 19.1851 1411.84 9.62495 L1418.32 9.62495 Z" fill="#000000" fill-rule="evenodd" fill-opacity="1" /><path clip-path="url(#clip760)" d="M1468.11 35.9153 Q1470.9 30.8922 1474.79 28.5022 Q1478.68 26.1121 1483.95 26.1121 Q1491.04 26.1121 1494.88 31.0947 Q1498.73 36.0368 1498.73 45.1919 L1498.73 72.576 L1491.24 72.576 L1491.24 45.4349 Q1491.24 38.913 1488.93 35.7533 Q1486.62 32.5936 1481.88 32.5936 Q1476.09 32.5936 1472.73 36.4419 Q1469.36 40.2903 1469.36 46.9338 L1469.36 72.576 L1461.87 72.576 L1461.87 45.4349 Q1461.87 38.8725 1459.56 35.7533 Q1457.25 32.5936 1452.43 32.5936 Q1446.72 32.5936 1443.36 36.4824 Q1439.99 40.3308 1439.99 46.9338 L1439.99 72.576 L1432.5 72.576 L1432.5 27.2059 L1439.99 27.2059 L1439.99 34.2544 Q1442.55 30.082 1446.11 28.0971 Q1449.68 26.1121 1454.58 26.1121 Q1459.52 26.1121 1462.96 28.6237 Q1466.45 31.1352 1468.11 35.9153 Z" fill="#000000" fill-rule="evenodd" fill-opacity="1" /><path clip-path="url(#clip760)" d="M1513.6 27.2059 L1521.05 27.2059 L1521.05 72.576 L1513.6 72.576 L1513.6 27.2059 M1513.6 9.54393 L1521.05 9.54393 L1521.05 18.9825 L1513.6 18.9825 L1513.6 9.54393 Z" fill="#000000" fill-rule="evenodd" fill-opacity="1" /><path clip-path="url(#clip760)" d="M1536.65 9.54393 L1544.1 9.54393 L1544.1 72.576 L1536.65 72.576 L1536.65 9.54393 Z" fill="#000000" fill-rule="evenodd" fill-opacity="1" /><path clip-path="url(#clip760)" d="M1559.7 9.54393 L1567.15 9.54393 L1567.15 72.576 L1559.7 72.576 L1559.7 9.54393 Z" fill="#000000" fill-rule="evenodd" fill-opacity="1" /><path clip-path="url(#clip760)" d="M1582.75 27.2059 L1590.2 27.2059 L1590.2 72.576 L1582.75 72.576 L1582.75 27.2059 M1582.75 9.54393 L1590.2 9.54393 L1590.2 18.9825 L1582.75 18.9825 L1582.75 9.54393 Z" fill="#000000" fill-rule="evenodd" fill-opacity="1" /><path clip-path="url(#clip760)" d="M1623.38 32.4315 Q1617.38 32.4315 1613.9 37.1306 Q1610.42 41.7891 1610.42 49.9314 Q1610.42 58.0738 1613.86 62.7728 Q1617.34 67.4314 1623.38 67.4314 Q1629.33 67.4314 1632.82 62.7323 Q1636.3 58.0333 1636.3 49.9314 Q1636.3 41.8701 1632.82 37.1711 Q1629.33 32.4315 1623.38 32.4315 M1623.38 26.1121 Q1633.1 26.1121 1638.65 32.4315 Q1644.2 38.7509 1644.2 49.9314 Q1644.2 61.0714 1638.65 67.4314 Q1633.1 73.7508 1623.38 73.7508 Q1613.62 73.7508 1608.07 67.4314 Q1602.56 61.0714 1602.56 49.9314 Q1602.56 38.7509 1608.07 32.4315 Q1613.62 26.1121 1623.38 26.1121 Z" fill="#000000" fill-rule="evenodd" fill-opacity="1" /><path clip-path="url(#clip760)" d="M1694.27 45.1919 L1694.27 72.576 L1686.82 72.576 L1686.82 45.4349 Q1686.82 38.994 1684.3 35.7938 Q1681.79 32.5936 1676.77 32.5936 Q1670.73 32.5936 1667.25 36.4419 Q1663.77 40.2903 1663.77 46.9338 L1663.77 72.576 L1656.27 72.576 L1656.27 27.2059 L1663.77 27.2059 L1663.77 34.2544 Q1666.44 30.163 1670.05 28.1376 Q1673.69 26.1121 1678.43 26.1121 Q1686.25 26.1121 1690.26 30.9732 Q1694.27 35.7938 1694.27 45.1919 Z" fill="#000000" fill-rule="evenodd" fill-opacity="1" /><path clip-path="url(#clip760)" d="M1738.06 28.5427 L1738.06 35.5912 Q1734.9 33.9709 1731.5 33.1607 Q1728.09 32.3505 1724.45 32.3505 Q1718.9 32.3505 1716.1 34.0519 Q1713.35 35.7533 1713.35 39.156 Q1713.35 41.7486 1715.33 43.2475 Q1717.32 44.7058 1723.31 46.0426 L1725.87 46.6097 Q1733.81 48.3111 1737.13 51.4303 Q1740.49 54.509 1740.49 60.0587 Q1740.49 66.3781 1735.47 70.0644 Q1730.48 73.7508 1721.73 73.7508 Q1718.09 73.7508 1714.12 73.0216 Q1710.19 72.3329 1705.81 70.9151 L1705.81 63.2184 Q1709.95 65.3654 1713.96 66.4591 Q1717.97 67.5124 1721.9 67.5124 Q1727.16 67.5124 1730 65.73 Q1732.83 63.9071 1732.83 60.6258 Q1732.83 57.5877 1730.77 55.9673 Q1728.74 54.3469 1721.82 52.8481 L1719.22 52.2405 Q1712.3 50.7821 1709.22 47.7845 Q1706.14 44.7463 1706.14 39.4801 Q1706.14 33.0797 1710.68 29.5959 Q1715.21 26.1121 1723.56 26.1121 Q1727.69 26.1121 1731.34 26.7198 Q1734.98 27.3274 1738.06 28.5427 Z" fill="#000000" fill-rule="evenodd" fill-opacity="1" /><path clip-path="url(#clip760)" d="M1751.18 9.62495 L1757.67 9.62495 Q1763.74 19.1851 1766.74 28.3401 Q1769.78 37.4952 1769.78 46.5287 Q1769.78 55.6027 1766.74 64.7983 Q1763.74 73.9938 1757.67 83.5134 L1751.18 83.5134 Q1756.57 74.2369 1759.21 65.0818 Q1761.88 55.8863 1761.88 46.5287 Q1761.88 37.1711 1759.21 28.0566 Q1756.57 18.942 1751.18 9.62495 Z" fill="#000000" fill-rule="evenodd" fill-opacity="1" /><polyline clip-path="url(#clip762)" style="stroke:#009af9; stroke-linecap:butt; stroke-linejoin:round; stroke-width:4; stroke-opacity:1; fill:none" points="
  175.59,279.241 256.888,318.183 338.186,357.125 419.484,396.067 500.783,634.588 582.081,663.111 663.379,691.634 744.677,720.157 825.975,748.679 907.274,715.425 
  988.572,682.17 1069.87,648.916 1151.17,615.661 1232.47,582.407 1313.76,634.588 1395.06,614.622 1476.36,594.656 1557.66,574.69 1638.96,566.439 1720.26,549.402 
  1801.55,507.074 1882.85,464.746 1964.15,407.529 2045.45,365.823 2126.75,327.996 2208.05,300.354 2289.34,295.832 
  "/>
<polyline clip-path="url(#clip762)" style="stroke:#ff0000; stroke-linecap:butt; stroke-linejoin:round; stroke-width:4; stroke-opacity:1; fill:none" points="
  419.484,1486.45 419.484,123.472 
  "/>
</svg>
