<?xml version="1.0" encoding="utf-8"?>
<svg xmlns="http://www.w3.org/2000/svg" xmlns:xlink="http://www.w3.org/1999/xlink" width="600" height="400" viewBox="0 0 2400 1600">
<defs>
  <clipPath id="clip960">
    <rect x="0" y="0" width="2400" height="1600"/>
  </clipPath>
</defs>
<path clip-path="url(#clip960)" d="
M0 1600 L2400 1600 L2400 0 L0 0  Z
  " fill="#ffffff" fill-rule="evenodd" fill-opacity="1"/>
<defs>
  <clipPath id="clip961">
    <rect x="480" y="0" width="1681" height="1600"/>
  </clipPath>
</defs>
<path clip-path="url(#clip960)" d="
M185.927 1486.45 L2352.76 1486.45 L2352.76 183.952 L185.927 183.952  Z
  " fill="#ffffff" fill-rule="evenodd" fill-opacity="1"/>
<defs>
  <clipPath id="clip962">
    <rect x="185" y="183" width="2168" height="1303"/>
  </clipPath>
</defs>
<polyline clip-path="url(#clip962)" style="stroke:#000000; stroke-linecap:butt; stroke-linejoin:round; stroke-width:2; stroke-opacity:0.1; fill:none" points="
  404.497,1486.45 404.497,183.952 
  "/>
<polyline clip-path="url(#clip962)" style="stroke:#000000; stroke-linecap:butt; stroke-linejoin:round; stroke-width:2; stroke-opacity:0.1; fill:none" points="
  797.608,1486.45 797.608,183.952 
  "/>
<polyline clip-path="url(#clip962)" style="stroke:#000000; stroke-linecap:butt; stroke-linejoin:round; stroke-width:2; stroke-opacity:0.1; fill:none" points="
  1190.72,1486.45 1190.72,183.952 
  "/>
<polyline clip-path="url(#clip962)" style="stroke:#000000; stroke-linecap:butt; stroke-linejoin:round; stroke-width:2; stroke-opacity:0.1; fill:none" points="
  1583.83,1486.45 1583.83,183.952 
  "/>
<polyline clip-path="url(#clip962)" style="stroke:#000000; stroke-linecap:butt; stroke-linejoin:round; stroke-width:2; stroke-opacity:0.1; fill:none" points="
  1976.94,1486.45 1976.94,183.952 
  "/>
<polyline clip-path="url(#clip960)" style="stroke:#000000; stroke-linecap:butt; stroke-linejoin:round; stroke-width:4; stroke-opacity:1; fill:none" points="
  185.927,1486.45 2352.76,1486.45 
  "/>
<polyline clip-path="url(#clip960)" style="stroke:#000000; stroke-linecap:butt; stroke-linejoin:round; stroke-width:4; stroke-opacity:1; fill:none" points="
  404.497,1486.45 404.497,1467.55 
  "/>
<polyline clip-path="url(#clip960)" style="stroke:#000000; stroke-linecap:butt; stroke-linejoin:round; stroke-width:4; stroke-opacity:1; fill:none" points="
  797.608,1486.45 797.608,1467.55 
  "/>
<polyline clip-path="url(#clip960)" style="stroke:#000000; stroke-linecap:butt; stroke-linejoin:round; stroke-width:4; stroke-opacity:1; fill:none" points="
  1190.72,1486.45 1190.72,1467.55 
  "/>
<polyline clip-path="url(#clip960)" style="stroke:#000000; stroke-linecap:butt; stroke-linejoin:round; stroke-width:4; stroke-opacity:1; fill:none" points="
  1583.83,1486.45 1583.83,1467.55 
  "/>
<polyline clip-path="url(#clip960)" style="stroke:#000000; stroke-linecap:butt; stroke-linejoin:round; stroke-width:4; stroke-opacity:1; fill:none" points="
  1976.94,1486.45 1976.94,1467.55 
  "/>
<path clip-path="url(#clip960)" d="M349.52 1544.91 L357.159 1544.91 L357.159 1518.55 L348.849 1520.21 L348.849 1515.95 L357.113 1514.29 L361.789 1514.29 L361.789 1544.91 L369.427 1544.91 L369.427 1548.85 L349.52 1548.85 L349.52 1544.91 Z" fill="#000000" fill-rule="evenodd" fill-opacity="1" /><path clip-path="url(#clip960)" d="M379.011 1548.13 L379.011 1543.87 Q380.77 1544.7 382.575 1545.14 Q384.381 1545.58 386.117 1545.58 Q390.747 1545.58 393.177 1542.48 Q395.631 1539.36 395.978 1533.01 Q394.636 1535.01 392.575 1536.07 Q390.515 1537.13 388.015 1537.13 Q382.83 1537.13 379.798 1534.01 Q376.788 1530.86 376.788 1525.42 Q376.788 1520.1 379.937 1516.88 Q383.085 1513.66 388.316 1513.66 Q394.311 1513.66 397.46 1518.27 Q400.631 1522.85 400.631 1531.6 Q400.631 1539.77 396.742 1544.66 Q392.876 1549.52 386.325 1549.52 Q384.566 1549.52 382.761 1549.17 Q380.955 1548.82 379.011 1548.13 M388.316 1533.48 Q391.464 1533.48 393.293 1531.32 Q395.145 1529.17 395.145 1525.42 Q395.145 1521.7 393.293 1519.54 Q391.464 1517.37 388.316 1517.37 Q385.168 1517.37 383.316 1519.54 Q381.487 1521.7 381.487 1525.42 Q381.487 1529.17 383.316 1531.32 Q385.168 1533.48 388.316 1533.48 Z" fill="#000000" fill-rule="evenodd" fill-opacity="1" /><path clip-path="url(#clip960)" d="M409.173 1548.13 L409.173 1543.87 Q410.932 1544.7 412.737 1545.14 Q414.543 1545.58 416.279 1545.58 Q420.909 1545.58 423.339 1542.48 Q425.793 1539.36 426.14 1533.01 Q424.797 1535.01 422.737 1536.07 Q420.677 1537.13 418.177 1537.13 Q412.992 1537.13 409.96 1534.01 Q406.95 1530.86 406.95 1525.42 Q406.95 1520.1 410.098 1516.88 Q413.247 1513.66 418.478 1513.66 Q424.473 1513.66 427.622 1518.27 Q430.793 1522.85 430.793 1531.6 Q430.793 1539.77 426.904 1544.66 Q423.038 1549.52 416.487 1549.52 Q414.728 1549.52 412.923 1549.17 Q411.117 1548.82 409.173 1548.13 M418.478 1533.48 Q421.626 1533.48 423.455 1531.32 Q425.307 1529.17 425.307 1525.42 Q425.307 1521.7 423.455 1519.54 Q421.626 1517.37 418.478 1517.37 Q415.33 1517.37 413.478 1519.54 Q411.649 1521.7 411.649 1525.42 Q411.649 1529.17 413.478 1531.32 Q415.33 1533.48 418.478 1533.48 Z" fill="#000000" fill-rule="evenodd" fill-opacity="1" /><path clip-path="url(#clip960)" d="M439.242 1514.29 L457.598 1514.29 L457.598 1518.22 L443.524 1518.22 L443.524 1526.7 Q444.543 1526.35 445.561 1526.19 Q446.58 1526 447.598 1526 Q453.385 1526 456.765 1529.17 Q460.144 1532.34 460.144 1537.76 Q460.144 1543.34 456.672 1546.44 Q453.2 1549.52 446.881 1549.52 Q444.705 1549.52 442.436 1549.15 Q440.191 1548.78 437.783 1548.04 L437.783 1543.34 Q439.867 1544.47 442.089 1545.03 Q444.311 1545.58 446.788 1545.58 Q450.793 1545.58 453.131 1543.48 Q455.469 1541.37 455.469 1537.76 Q455.469 1534.15 453.131 1532.04 Q450.793 1529.94 446.788 1529.94 Q444.913 1529.94 443.038 1530.35 Q441.186 1530.77 439.242 1531.65 L439.242 1514.29 Z" fill="#000000" fill-rule="evenodd" fill-opacity="1" /><path clip-path="url(#clip960)" d="M746.219 1544.91 L762.539 1544.91 L762.539 1548.85 L740.594 1548.85 L740.594 1544.91 Q743.256 1542.16 747.84 1537.53 Q752.446 1532.88 753.627 1531.53 Q755.872 1529.01 756.752 1527.27 Q757.654 1525.51 757.654 1523.82 Q757.654 1521.07 755.71 1519.33 Q753.789 1517.6 750.687 1517.6 Q748.488 1517.6 746.034 1518.36 Q743.604 1519.13 740.826 1520.68 L740.826 1515.95 Q743.65 1514.82 746.104 1514.24 Q748.557 1513.66 750.594 1513.66 Q755.965 1513.66 759.159 1516.35 Q762.353 1519.03 762.353 1523.52 Q762.353 1525.65 761.543 1527.57 Q760.756 1529.47 758.65 1532.07 Q758.071 1532.74 754.969 1535.95 Q751.867 1539.15 746.219 1544.91 Z" fill="#000000" fill-rule="evenodd" fill-opacity="1" /><path clip-path="url(#clip960)" d="M782.353 1517.37 Q778.742 1517.37 776.914 1520.93 Q775.108 1524.47 775.108 1531.6 Q775.108 1538.71 776.914 1542.27 Q778.742 1545.82 782.353 1545.82 Q785.988 1545.82 787.793 1542.27 Q789.622 1538.71 789.622 1531.6 Q789.622 1524.47 787.793 1520.93 Q785.988 1517.37 782.353 1517.37 M782.353 1513.66 Q788.163 1513.66 791.219 1518.27 Q794.298 1522.85 794.298 1531.6 Q794.298 1540.33 791.219 1544.94 Q788.163 1549.52 782.353 1549.52 Q776.543 1549.52 773.464 1544.94 Q770.409 1540.33 770.409 1531.6 Q770.409 1522.85 773.464 1518.27 Q776.543 1513.66 782.353 1513.66 Z" fill="#000000" fill-rule="evenodd" fill-opacity="1" /><path clip-path="url(#clip960)" d="M812.515 1517.37 Q808.904 1517.37 807.075 1520.93 Q805.27 1524.47 805.27 1531.6 Q805.27 1538.71 807.075 1542.27 Q808.904 1545.82 812.515 1545.82 Q816.149 1545.82 817.955 1542.27 Q819.784 1538.71 819.784 1531.6 Q819.784 1524.47 817.955 1520.93 Q816.149 1517.37 812.515 1517.37 M812.515 1513.66 Q818.325 1513.66 821.381 1518.27 Q824.46 1522.85 824.46 1531.6 Q824.46 1540.33 821.381 1544.94 Q818.325 1549.52 812.515 1549.52 Q806.705 1549.52 803.626 1544.94 Q800.571 1540.33 800.571 1531.6 Q800.571 1522.85 803.626 1518.27 Q806.705 1513.66 812.515 1513.66 Z" fill="#000000" fill-rule="evenodd" fill-opacity="1" /><path clip-path="url(#clip960)" d="M842.677 1517.37 Q839.066 1517.37 837.237 1520.93 Q835.432 1524.47 835.432 1531.6 Q835.432 1538.71 837.237 1542.27 Q839.066 1545.82 842.677 1545.82 Q846.311 1545.82 848.117 1542.27 Q849.946 1538.71 849.946 1531.6 Q849.946 1524.47 848.117 1520.93 Q846.311 1517.37 842.677 1517.37 M842.677 1513.66 Q848.487 1513.66 851.543 1518.27 Q854.621 1522.85 854.621 1531.6 Q854.621 1540.33 851.543 1544.94 Q848.487 1549.52 842.677 1549.52 Q836.867 1549.52 833.788 1544.94 Q830.733 1540.33 830.733 1531.6 Q830.733 1522.85 833.788 1518.27 Q836.867 1513.66 842.677 1513.66 Z" fill="#000000" fill-rule="evenodd" fill-opacity="1" /><path clip-path="url(#clip960)" d="M1139.83 1544.91 L1156.15 1544.91 L1156.15 1548.85 L1134.2 1548.85 L1134.2 1544.91 Q1136.87 1542.16 1141.45 1537.53 Q1146.05 1532.88 1147.24 1531.53 Q1149.48 1529.01 1150.36 1527.27 Q1151.26 1525.51 1151.26 1523.82 Q1151.26 1521.07 1149.32 1519.33 Q1147.4 1517.6 1144.3 1517.6 Q1142.1 1517.6 1139.64 1518.36 Q1137.21 1519.13 1134.43 1520.68 L1134.43 1515.95 Q1137.26 1514.82 1139.71 1514.24 Q1142.17 1513.66 1144.2 1513.66 Q1149.57 1513.66 1152.77 1516.35 Q1155.96 1519.03 1155.96 1523.52 Q1155.96 1525.65 1155.15 1527.57 Q1154.37 1529.47 1152.26 1532.07 Q1151.68 1532.74 1148.58 1535.95 Q1145.48 1539.15 1139.83 1544.91 Z" fill="#000000" fill-rule="evenodd" fill-opacity="1" /><path clip-path="url(#clip960)" d="M1175.96 1517.37 Q1172.35 1517.37 1170.52 1520.93 Q1168.72 1524.47 1168.72 1531.6 Q1168.72 1538.71 1170.52 1542.27 Q1172.35 1545.82 1175.96 1545.82 Q1179.6 1545.82 1181.4 1542.27 Q1183.23 1538.71 1183.23 1531.6 Q1183.23 1524.47 1181.4 1520.93 Q1179.6 1517.37 1175.96 1517.37 M1175.96 1513.66 Q1181.77 1513.66 1184.83 1518.27 Q1187.91 1522.85 1187.91 1531.6 Q1187.91 1540.33 1184.83 1544.94 Q1181.77 1549.52 1175.96 1549.52 Q1170.15 1549.52 1167.07 1544.94 Q1164.02 1540.33 1164.02 1531.6 Q1164.02 1522.85 1167.07 1518.27 Q1170.15 1513.66 1175.96 1513.66 Z" fill="#000000" fill-rule="evenodd" fill-opacity="1" /><path clip-path="url(#clip960)" d="M1206.12 1517.37 Q1202.51 1517.37 1200.68 1520.93 Q1198.88 1524.47 1198.88 1531.6 Q1198.88 1538.71 1200.68 1542.27 Q1202.51 1545.82 1206.12 1545.82 Q1209.76 1545.82 1211.56 1542.27 Q1213.39 1538.71 1213.39 1531.6 Q1213.39 1524.47 1211.56 1520.93 Q1209.76 1517.37 1206.12 1517.37 M1206.12 1513.66 Q1211.93 1513.66 1214.99 1518.27 Q1218.07 1522.85 1218.07 1531.6 Q1218.07 1540.33 1214.99 1544.94 Q1211.93 1549.52 1206.12 1549.52 Q1200.31 1549.52 1197.24 1544.94 Q1194.18 1540.33 1194.18 1531.6 Q1194.18 1522.85 1197.24 1518.27 Q1200.31 1513.66 1206.12 1513.66 Z" fill="#000000" fill-rule="evenodd" fill-opacity="1" /><path clip-path="url(#clip960)" d="M1226.33 1514.29 L1244.69 1514.29 L1244.69 1518.22 L1230.61 1518.22 L1230.61 1526.7 Q1231.63 1526.35 1232.65 1526.19 Q1233.67 1526 1234.69 1526 Q1240.48 1526 1243.86 1529.17 Q1247.23 1532.34 1247.23 1537.76 Q1247.23 1543.34 1243.76 1546.44 Q1240.29 1549.52 1233.97 1549.52 Q1231.8 1549.52 1229.53 1549.15 Q1227.28 1548.78 1224.87 1548.04 L1224.87 1543.34 Q1226.96 1544.47 1229.18 1545.03 Q1231.4 1545.58 1233.88 1545.58 Q1237.88 1545.58 1240.22 1543.48 Q1242.56 1541.37 1242.56 1537.76 Q1242.56 1534.15 1240.22 1532.04 Q1237.88 1529.94 1233.88 1529.94 Q1232 1529.94 1230.13 1530.35 Q1228.28 1530.77 1226.33 1531.65 L1226.33 1514.29 Z" fill="#000000" fill-rule="evenodd" fill-opacity="1" /><path clip-path="url(#clip960)" d="M1532.44 1544.91 L1548.76 1544.91 L1548.76 1548.85 L1526.82 1548.85 L1526.82 1544.91 Q1529.48 1542.16 1534.06 1537.53 Q1538.67 1532.88 1539.85 1531.53 Q1542.09 1529.01 1542.97 1527.27 Q1543.88 1525.51 1543.88 1523.82 Q1543.88 1521.07 1541.93 1519.33 Q1540.01 1517.6 1536.91 1517.6 Q1534.71 1517.6 1532.26 1518.36 Q1529.83 1519.13 1527.05 1520.68 L1527.05 1515.95 Q1529.87 1514.82 1532.33 1514.24 Q1534.78 1513.66 1536.82 1513.66 Q1542.19 1513.66 1545.38 1516.35 Q1548.58 1519.03 1548.58 1523.52 Q1548.58 1525.65 1547.77 1527.57 Q1546.98 1529.47 1544.87 1532.07 Q1544.29 1532.74 1541.19 1535.95 Q1538.09 1539.15 1532.44 1544.91 Z" fill="#000000" fill-rule="evenodd" fill-opacity="1" /><path clip-path="url(#clip960)" d="M1568.58 1517.37 Q1564.96 1517.37 1563.14 1520.93 Q1561.33 1524.47 1561.33 1531.6 Q1561.33 1538.71 1563.14 1542.27 Q1564.96 1545.82 1568.58 1545.82 Q1572.21 1545.82 1574.02 1542.27 Q1575.84 1538.71 1575.84 1531.6 Q1575.84 1524.47 1574.02 1520.93 Q1572.21 1517.37 1568.58 1517.37 M1568.58 1513.66 Q1574.39 1513.66 1577.44 1518.27 Q1580.52 1522.85 1580.52 1531.6 Q1580.52 1540.33 1577.44 1544.94 Q1574.39 1549.52 1568.58 1549.52 Q1562.77 1549.52 1559.69 1544.94 Q1556.63 1540.33 1556.63 1531.6 Q1556.63 1522.85 1559.69 1518.27 Q1562.77 1513.66 1568.58 1513.66 Z" fill="#000000" fill-rule="evenodd" fill-opacity="1" /><path clip-path="url(#clip960)" d="M1589.55 1544.91 L1597.19 1544.91 L1597.19 1518.55 L1588.88 1520.21 L1588.88 1515.95 L1597.14 1514.29 L1601.82 1514.29 L1601.82 1544.91 L1609.46 1544.91 L1609.46 1548.85 L1589.55 1548.85 L1589.55 1544.91 Z" fill="#000000" fill-rule="evenodd" fill-opacity="1" /><path clip-path="url(#clip960)" d="M1628.9 1517.37 Q1625.29 1517.37 1623.46 1520.93 Q1621.65 1524.47 1621.65 1531.6 Q1621.65 1538.71 1623.46 1542.27 Q1625.29 1545.82 1628.9 1545.82 Q1632.53 1545.82 1634.34 1542.27 Q1636.17 1538.71 1636.17 1531.6 Q1636.17 1524.47 1634.34 1520.93 Q1632.53 1517.37 1628.9 1517.37 M1628.9 1513.66 Q1634.71 1513.66 1637.77 1518.27 Q1640.84 1522.85 1640.84 1531.6 Q1640.84 1540.33 1637.77 1544.94 Q1634.71 1549.52 1628.9 1549.52 Q1623.09 1549.52 1620.01 1544.94 Q1616.96 1540.33 1616.96 1531.6 Q1616.96 1522.85 1620.01 1518.27 Q1623.09 1513.66 1628.9 1513.66 Z" fill="#000000" fill-rule="evenodd" fill-opacity="1" /><path clip-path="url(#clip960)" d="M1926.05 1544.91 L1942.37 1544.91 L1942.37 1548.85 L1920.43 1548.85 L1920.43 1544.91 Q1923.09 1542.16 1927.67 1537.53 Q1932.28 1532.88 1933.46 1531.53 Q1935.7 1529.01 1936.58 1527.27 Q1937.49 1525.51 1937.49 1523.82 Q1937.49 1521.07 1935.54 1519.33 Q1933.62 1517.6 1930.52 1517.6 Q1928.32 1517.6 1925.87 1518.36 Q1923.43 1519.13 1920.66 1520.68 L1920.66 1515.95 Q1923.48 1514.82 1925.93 1514.24 Q1928.39 1513.66 1930.43 1513.66 Q1935.8 1513.66 1938.99 1516.35 Q1942.18 1519.03 1942.18 1523.52 Q1942.18 1525.65 1941.37 1527.57 Q1940.59 1529.47 1938.48 1532.07 Q1937.9 1532.74 1934.8 1535.95 Q1931.7 1539.15 1926.05 1544.91 Z" fill="#000000" fill-rule="evenodd" fill-opacity="1" /><path clip-path="url(#clip960)" d="M1962.18 1517.37 Q1958.57 1517.37 1956.74 1520.93 Q1954.94 1524.47 1954.94 1531.6 Q1954.94 1538.71 1956.74 1542.27 Q1958.57 1545.82 1962.18 1545.82 Q1965.82 1545.82 1967.62 1542.27 Q1969.45 1538.71 1969.45 1531.6 Q1969.45 1524.47 1967.62 1520.93 Q1965.82 1517.37 1962.18 1517.37 M1962.18 1513.66 Q1967.99 1513.66 1971.05 1518.27 Q1974.13 1522.85 1974.13 1531.6 Q1974.13 1540.33 1971.05 1544.94 Q1967.99 1549.52 1962.18 1549.52 Q1956.37 1549.52 1953.3 1544.94 Q1950.24 1540.33 1950.24 1531.6 Q1950.24 1522.85 1953.3 1518.27 Q1956.37 1513.66 1962.18 1513.66 Z" fill="#000000" fill-rule="evenodd" fill-opacity="1" /><path clip-path="url(#clip960)" d="M1983.16 1544.91 L1990.8 1544.91 L1990.8 1518.55 L1982.49 1520.21 L1982.49 1515.95 L1990.75 1514.29 L1995.43 1514.29 L1995.43 1544.91 L2003.06 1544.91 L2003.06 1548.85 L1983.16 1548.85 L1983.16 1544.91 Z" fill="#000000" fill-rule="evenodd" fill-opacity="1" /><path clip-path="url(#clip960)" d="M2012.55 1514.29 L2030.91 1514.29 L2030.91 1518.22 L2016.84 1518.22 L2016.84 1526.7 Q2017.86 1526.35 2018.87 1526.19 Q2019.89 1526 2020.91 1526 Q2026.7 1526 2030.08 1529.17 Q2033.46 1532.34 2033.46 1537.76 Q2033.46 1543.34 2029.99 1546.44 Q2026.51 1549.52 2020.19 1549.52 Q2018.02 1549.52 2015.75 1549.15 Q2013.5 1548.78 2011.1 1548.04 L2011.1 1543.34 Q2013.18 1544.47 2015.4 1545.03 Q2017.62 1545.58 2020.1 1545.58 Q2024.11 1545.58 2026.44 1543.48 Q2028.78 1541.37 2028.78 1537.76 Q2028.78 1534.15 2026.44 1532.04 Q2024.11 1529.94 2020.1 1529.94 Q2018.23 1529.94 2016.35 1530.35 Q2014.5 1530.77 2012.55 1531.65 L2012.55 1514.29 Z" fill="#000000" fill-rule="evenodd" fill-opacity="1" /><polyline clip-path="url(#clip962)" style="stroke:#000000; stroke-linecap:butt; stroke-linejoin:round; stroke-width:2; stroke-opacity:0.1; fill:none" points="
  185.927,1355.93 2352.76,1355.93 
  "/>
<polyline clip-path="url(#clip962)" style="stroke:#000000; stroke-linecap:butt; stroke-linejoin:round; stroke-width:2; stroke-opacity:0.1; fill:none" points="
  185.927,1143 2352.76,1143 
  "/>
<polyline clip-path="url(#clip962)" style="stroke:#000000; stroke-linecap:butt; stroke-linejoin:round; stroke-width:2; stroke-opacity:0.1; fill:none" points="
  185.927,930.067 2352.76,930.067 
  "/>
<polyline clip-path="url(#clip962)" style="stroke:#000000; stroke-linecap:butt; stroke-linejoin:round; stroke-width:2; stroke-opacity:0.1; fill:none" points="
  185.927,717.133 2352.76,717.133 
  "/>
<polyline clip-path="url(#clip962)" style="stroke:#000000; stroke-linecap:butt; stroke-linejoin:round; stroke-width:2; stroke-opacity:0.1; fill:none" points="
  185.927,504.199 2352.76,504.199 
  "/>
<polyline clip-path="url(#clip962)" style="stroke:#000000; stroke-linecap:butt; stroke-linejoin:round; stroke-width:2; stroke-opacity:0.1; fill:none" points="
  185.927,291.265 2352.76,291.265 
  "/>
<polyline clip-path="url(#clip960)" style="stroke:#000000; stroke-linecap:butt; stroke-linejoin:round; stroke-width:4; stroke-opacity:1; fill:none" points="
  185.927,1486.45 185.927,183.952 
  "/>
<polyline clip-path="url(#clip960)" style="stroke:#000000; stroke-linecap:butt; stroke-linejoin:round; stroke-width:4; stroke-opacity:1; fill:none" points="
  185.927,1355.93 204.824,1355.93 
  "/>
<polyline clip-path="url(#clip960)" style="stroke:#000000; stroke-linecap:butt; stroke-linejoin:round; stroke-width:4; stroke-opacity:1; fill:none" points="
  185.927,1143 204.824,1143 
  "/>
<polyline clip-path="url(#clip960)" style="stroke:#000000; stroke-linecap:butt; stroke-linejoin:round; stroke-width:4; stroke-opacity:1; fill:none" points="
  185.927,930.067 204.824,930.067 
  "/>
<polyline clip-path="url(#clip960)" style="stroke:#000000; stroke-linecap:butt; stroke-linejoin:round; stroke-width:4; stroke-opacity:1; fill:none" points="
  185.927,717.133 204.824,717.133 
  "/>
<polyline clip-path="url(#clip960)" style="stroke:#000000; stroke-linecap:butt; stroke-linejoin:round; stroke-width:4; stroke-opacity:1; fill:none" points="
  185.927,504.199 204.824,504.199 
  "/>
<polyline clip-path="url(#clip960)" style="stroke:#000000; stroke-linecap:butt; stroke-linejoin:round; stroke-width:4; stroke-opacity:1; fill:none" points="
  185.927,291.265 204.824,291.265 
  "/>
<path clip-path="url(#clip960)" d="M63.5847 1341.73 Q59.9736 1341.73 58.1449 1345.3 Q56.3393 1348.84 56.3393 1355.97 Q56.3393 1363.08 58.1449 1366.64 Q59.9736 1370.18 63.5847 1370.18 Q67.2189 1370.18 69.0244 1366.64 Q70.8531 1363.08 70.8531 1355.97 Q70.8531 1348.84 69.0244 1345.3 Q67.2189 1341.73 63.5847 1341.73 M63.5847 1338.03 Q69.3948 1338.03 72.4503 1342.64 Q75.529 1347.22 75.529 1355.97 Q75.529 1364.7 72.4503 1369.3 Q69.3948 1373.89 63.5847 1373.89 Q57.7745 1373.89 54.6958 1369.3 Q51.6403 1364.7 51.6403 1355.97 Q51.6403 1347.22 54.6958 1342.64 Q57.7745 1338.03 63.5847 1338.03 Z" fill="#000000" fill-rule="evenodd" fill-opacity="1" /><path clip-path="url(#clip960)" d="M83.7466 1367.33 L88.6308 1367.33 L88.6308 1373.21 L83.7466 1373.21 L83.7466 1367.33 Z" fill="#000000" fill-rule="evenodd" fill-opacity="1" /><path clip-path="url(#clip960)" d="M97.6354 1338.65 L119.857 1338.65 L119.857 1340.65 L107.311 1373.21 L102.427 1373.21 L114.233 1342.59 L97.6354 1342.59 L97.6354 1338.65 Z" fill="#000000" fill-rule="evenodd" fill-opacity="1" /><path clip-path="url(#clip960)" d="M129.024 1338.65 L147.38 1338.65 L147.38 1342.59 L133.306 1342.59 L133.306 1351.06 Q134.325 1350.71 135.344 1350.55 Q136.362 1350.37 137.381 1350.37 Q143.168 1350.37 146.547 1353.54 Q149.927 1356.71 149.927 1362.13 Q149.927 1367.71 146.455 1370.81 Q142.982 1373.89 136.663 1373.89 Q134.487 1373.89 132.219 1373.52 Q129.973 1373.14 127.566 1372.4 L127.566 1367.71 Q129.649 1368.84 131.871 1369.39 Q134.094 1369.95 136.57 1369.95 Q140.575 1369.95 142.913 1367.84 Q145.251 1365.74 145.251 1362.13 Q145.251 1358.52 142.913 1356.41 Q140.575 1354.3 136.57 1354.3 Q134.695 1354.3 132.82 1354.72 Q130.969 1355.14 129.024 1356.02 L129.024 1338.65 Z" fill="#000000" fill-rule="evenodd" fill-opacity="1" /><path clip-path="url(#clip960)" d="M53.3995 1156.35 L61.0384 1156.35 L61.0384 1129.98 L52.7282 1131.65 L52.7282 1127.39 L60.9921 1125.72 L65.668 1125.72 L65.668 1156.35 L73.3068 1156.35 L73.3068 1160.28 L53.3995 1160.28 L53.3995 1156.35 Z" fill="#000000" fill-rule="evenodd" fill-opacity="1" /><path clip-path="url(#clip960)" d="M82.7512 1154.4 L87.6354 1154.4 L87.6354 1160.28 L82.7512 1160.28 L82.7512 1154.4 Z" fill="#000000" fill-rule="evenodd" fill-opacity="1" /><path clip-path="url(#clip960)" d="M107.821 1128.8 Q104.209 1128.8 102.381 1132.36 Q100.575 1135.91 100.575 1143.04 Q100.575 1150.14 102.381 1153.71 Q104.209 1157.25 107.821 1157.25 Q111.455 1157.25 113.26 1153.71 Q115.089 1150.14 115.089 1143.04 Q115.089 1135.91 113.26 1132.36 Q111.455 1128.8 107.821 1128.8 M107.821 1125.1 Q113.631 1125.1 116.686 1129.7 Q119.765 1134.29 119.765 1143.04 Q119.765 1151.76 116.686 1156.37 Q113.631 1160.95 107.821 1160.95 Q102.01 1160.95 98.9317 1156.37 Q95.8761 1151.76 95.8761 1143.04 Q95.8761 1134.29 98.9317 1129.7 Q102.01 1125.1 107.821 1125.1 Z" fill="#000000" fill-rule="evenodd" fill-opacity="1" /><path clip-path="url(#clip960)" d="M137.982 1128.8 Q134.371 1128.8 132.543 1132.36 Q130.737 1135.91 130.737 1143.04 Q130.737 1150.14 132.543 1153.71 Q134.371 1157.25 137.982 1157.25 Q141.617 1157.25 143.422 1153.71 Q145.251 1150.14 145.251 1143.04 Q145.251 1135.91 143.422 1132.36 Q141.617 1128.8 137.982 1128.8 M137.982 1125.1 Q143.793 1125.1 146.848 1129.7 Q149.927 1134.29 149.927 1143.04 Q149.927 1151.76 146.848 1156.37 Q143.793 1160.95 137.982 1160.95 Q132.172 1160.95 129.094 1156.37 Q126.038 1151.76 126.038 1143.04 Q126.038 1134.29 129.094 1129.7 Q132.172 1125.1 137.982 1125.1 Z" fill="#000000" fill-rule="evenodd" fill-opacity="1" /><path clip-path="url(#clip960)" d="M54.3949 943.411 L62.0337 943.411 L62.0337 917.046 L53.7236 918.712 L53.7236 914.453 L61.9874 912.787 L66.6633 912.787 L66.6633 943.411 L74.3022 943.411 L74.3022 947.347 L54.3949 947.347 L54.3949 943.411 Z" fill="#000000" fill-rule="evenodd" fill-opacity="1" /><path clip-path="url(#clip960)" d="M83.7466 941.467 L88.6308 941.467 L88.6308 947.347 L83.7466 947.347 L83.7466 941.467 Z" fill="#000000" fill-rule="evenodd" fill-opacity="1" /><path clip-path="url(#clip960)" d="M102.844 943.411 L119.163 943.411 L119.163 947.347 L97.2187 947.347 L97.2187 943.411 Q99.8808 940.657 104.464 936.027 Q109.071 931.374 110.251 930.032 Q112.496 927.509 113.376 925.773 Q114.279 924.013 114.279 922.324 Q114.279 919.569 112.334 917.833 Q110.413 916.097 107.311 916.097 Q105.112 916.097 102.659 916.861 Q100.228 917.625 97.4502 919.175 L97.4502 914.453 Q100.274 913.319 102.728 912.74 Q105.182 912.162 107.219 912.162 Q112.589 912.162 115.783 914.847 Q118.978 917.532 118.978 922.023 Q118.978 924.152 118.168 926.074 Q117.381 927.972 115.274 930.564 Q114.695 931.236 111.594 934.453 Q108.492 937.648 102.844 943.411 Z" fill="#000000" fill-rule="evenodd" fill-opacity="1" /><path clip-path="url(#clip960)" d="M129.024 912.787 L147.38 912.787 L147.38 916.722 L133.306 916.722 L133.306 925.194 Q134.325 924.847 135.344 924.685 Q136.362 924.499 137.381 924.499 Q143.168 924.499 146.547 927.671 Q149.927 930.842 149.927 936.259 Q149.927 941.837 146.455 944.939 Q142.982 948.018 136.663 948.018 Q134.487 948.018 132.219 947.647 Q129.973 947.277 127.566 946.536 L127.566 941.837 Q129.649 942.972 131.871 943.527 Q134.094 944.083 136.57 944.083 Q140.575 944.083 142.913 941.976 Q145.251 939.87 145.251 936.259 Q145.251 932.648 142.913 930.541 Q140.575 928.435 136.57 928.435 Q134.695 928.435 132.82 928.851 Q130.969 929.268 129.024 930.148 L129.024 912.787 Z" fill="#000000" fill-rule="evenodd" fill-opacity="1" /><path clip-path="url(#clip960)" d="M53.3995 730.478 L61.0384 730.478 L61.0384 704.112 L52.7282 705.779 L52.7282 701.519 L60.9921 699.853 L65.668 699.853 L65.668 730.478 L73.3068 730.478 L73.3068 734.413 L53.3995 734.413 L53.3995 730.478 Z" fill="#000000" fill-rule="evenodd" fill-opacity="1" /><path clip-path="url(#clip960)" d="M82.7512 728.533 L87.6354 728.533 L87.6354 734.413 L82.7512 734.413 L82.7512 728.533 Z" fill="#000000" fill-rule="evenodd" fill-opacity="1" /><path clip-path="url(#clip960)" d="M97.8669 699.853 L116.223 699.853 L116.223 703.788 L102.149 703.788 L102.149 712.26 Q103.168 711.913 104.186 711.751 Q105.205 711.566 106.223 711.566 Q112.01 711.566 115.39 714.737 Q118.77 717.908 118.77 723.325 Q118.77 728.903 115.297 732.005 Q111.825 735.084 105.506 735.084 Q103.33 735.084 101.061 734.714 Q98.8159 734.343 96.4085 733.603 L96.4085 728.903 Q98.4919 730.038 100.714 730.593 Q102.936 731.149 105.413 731.149 Q109.418 731.149 111.756 729.042 Q114.094 726.936 114.094 723.325 Q114.094 719.714 111.756 717.607 Q109.418 715.501 105.413 715.501 Q103.538 715.501 101.663 715.917 Q99.8113 716.334 97.8669 717.214 L97.8669 699.853 Z" fill="#000000" fill-rule="evenodd" fill-opacity="1" /><path clip-path="url(#clip960)" d="M137.982 702.931 Q134.371 702.931 132.543 706.496 Q130.737 710.038 130.737 717.167 Q130.737 724.274 132.543 727.839 Q134.371 731.38 137.982 731.38 Q141.617 731.38 143.422 727.839 Q145.251 724.274 145.251 717.167 Q145.251 710.038 143.422 706.496 Q141.617 702.931 137.982 702.931 M137.982 699.228 Q143.793 699.228 146.848 703.834 Q149.927 708.417 149.927 717.167 Q149.927 725.894 146.848 730.501 Q143.793 735.084 137.982 735.084 Q132.172 735.084 129.094 730.501 Q126.038 725.894 126.038 717.167 Q126.038 708.417 129.094 703.834 Q132.172 699.228 137.982 699.228 Z" fill="#000000" fill-rule="evenodd" fill-opacity="1" /><path clip-path="url(#clip960)" d="M54.3949 517.544 L62.0337 517.544 L62.0337 491.178 L53.7236 492.845 L53.7236 488.586 L61.9874 486.919 L66.6633 486.919 L66.6633 517.544 L74.3022 517.544 L74.3022 521.479 L54.3949 521.479 L54.3949 517.544 Z" fill="#000000" fill-rule="evenodd" fill-opacity="1" /><path clip-path="url(#clip960)" d="M83.7466 515.599 L88.6308 515.599 L88.6308 521.479 L83.7466 521.479 L83.7466 515.599 Z" fill="#000000" fill-rule="evenodd" fill-opacity="1" /><path clip-path="url(#clip960)" d="M97.6354 486.919 L119.857 486.919 L119.857 488.91 L107.311 521.479 L102.427 521.479 L114.233 490.854 L97.6354 490.854 L97.6354 486.919 Z" fill="#000000" fill-rule="evenodd" fill-opacity="1" /><path clip-path="url(#clip960)" d="M129.024 486.919 L147.38 486.919 L147.38 490.854 L133.306 490.854 L133.306 499.326 Q134.325 498.979 135.344 498.817 Q136.362 498.632 137.381 498.632 Q143.168 498.632 146.547 501.803 Q149.927 504.974 149.927 510.391 Q149.927 515.97 146.455 519.071 Q142.982 522.15 136.663 522.15 Q134.487 522.15 132.219 521.78 Q129.973 521.409 127.566 520.669 L127.566 515.97 Q129.649 517.104 131.871 517.659 Q134.094 518.215 136.57 518.215 Q140.575 518.215 142.913 516.109 Q145.251 514.002 145.251 510.391 Q145.251 506.78 142.913 504.673 Q140.575 502.567 136.57 502.567 Q134.695 502.567 132.82 502.984 Q130.969 503.4 129.024 504.28 L129.024 486.919 Z" fill="#000000" fill-rule="evenodd" fill-opacity="1" /><path clip-path="url(#clip960)" d="M56.6171 304.61 L72.9365 304.61 L72.9365 308.545 L50.9921 308.545 L50.9921 304.61 Q53.6541 301.855 58.2375 297.226 Q62.8439 292.573 64.0245 291.23 Q66.2698 288.707 67.1494 286.971 Q68.0522 285.212 68.0522 283.522 Q68.0522 280.767 66.1078 279.031 Q64.1865 277.295 61.0847 277.295 Q58.8856 277.295 56.4319 278.059 Q54.0014 278.823 51.2236 280.374 L51.2236 275.652 Q54.0477 274.517 56.5014 273.939 Q58.955 273.36 60.9921 273.36 Q66.3624 273.36 69.5568 276.045 Q72.7513 278.73 72.7513 283.221 Q72.7513 285.351 71.9411 287.272 Q71.1541 289.17 69.0476 291.763 Q68.4689 292.434 65.367 295.652 Q62.2652 298.846 56.6171 304.61 Z" fill="#000000" fill-rule="evenodd" fill-opacity="1" /><path clip-path="url(#clip960)" d="M82.7512 302.665 L87.6354 302.665 L87.6354 308.545 L82.7512 308.545 L82.7512 302.665 Z" fill="#000000" fill-rule="evenodd" fill-opacity="1" /><path clip-path="url(#clip960)" d="M107.821 277.064 Q104.209 277.064 102.381 280.628 Q100.575 284.17 100.575 291.3 Q100.575 298.406 102.381 301.971 Q104.209 305.513 107.821 305.513 Q111.455 305.513 113.26 301.971 Q115.089 298.406 115.089 291.3 Q115.089 284.17 113.26 280.628 Q111.455 277.064 107.821 277.064 M107.821 273.36 Q113.631 273.36 116.686 277.966 Q119.765 282.55 119.765 291.3 Q119.765 300.027 116.686 304.633 Q113.631 309.216 107.821 309.216 Q102.01 309.216 98.9317 304.633 Q95.8761 300.027 95.8761 291.3 Q95.8761 282.55 98.9317 277.966 Q102.01 273.36 107.821 273.36 Z" fill="#000000" fill-rule="evenodd" fill-opacity="1" /><path clip-path="url(#clip960)" d="M137.982 277.064 Q134.371 277.064 132.543 280.628 Q130.737 284.17 130.737 291.3 Q130.737 298.406 132.543 301.971 Q134.371 305.513 137.982 305.513 Q141.617 305.513 143.422 301.971 Q145.251 298.406 145.251 291.3 Q145.251 284.17 143.422 280.628 Q141.617 277.064 137.982 277.064 M137.982 273.36 Q143.793 273.36 146.848 277.966 Q149.927 282.55 149.927 291.3 Q149.927 300.027 146.848 304.633 Q143.793 309.216 137.982 309.216 Q132.172 309.216 129.094 304.633 Q126.038 300.027 126.038 291.3 Q126.038 282.55 129.094 277.966 Q132.172 273.36 137.982 273.36 Z" fill="#000000" fill-rule="evenodd" fill-opacity="1" /><path clip-path="url(#clip960)" d="M720.039 41.3253 L708.939 71.4235 L731.179 71.4235 L720.039 41.3253 M715.421 33.264 L724.697 33.264 L747.747 93.744 L739.24 93.744 L733.731 78.229 L706.468 78.229 L700.959 93.744 L692.331 93.744 L715.421 33.264 Z" fill="#000000" fill-rule="evenodd" fill-opacity="1" /><path clip-path="url(#clip960)" d="M755.646 33.264 L763.87 33.264 L763.87 70.0057 Q763.87 79.7279 767.394 84.0218 Q770.918 88.2753 778.817 88.2753 Q786.676 88.2753 790.2 84.0218 Q793.725 79.7279 793.725 70.0057 L793.725 33.264 L801.948 33.264 L801.948 71.0184 Q801.948 82.8471 796.074 88.8829 Q790.241 94.9188 778.817 94.9188 Q767.353 94.9188 761.479 88.8829 Q755.646 82.8471 755.646 71.0184 L755.646 33.264 Z" fill="#000000" fill-rule="evenodd" fill-opacity="1" /><path clip-path="url(#clip960)" d="M872.353 65.3877 Q874.986 66.2789 877.457 69.1955 Q879.968 72.1122 882.48 77.2163 L890.784 93.744 L881.994 93.744 L874.257 78.229 Q871.259 72.1527 868.423 70.1677 Q865.628 68.1828 860.767 68.1828 L851.855 68.1828 L851.855 93.744 L843.672 93.744 L843.672 33.264 L862.144 33.264 Q872.515 33.264 877.619 37.5985 Q882.723 41.9329 882.723 50.6829 Q882.723 56.3947 880.049 60.162 Q877.416 63.9293 872.353 65.3877 M851.855 39.9885 L851.855 61.4583 L862.144 61.4583 Q868.059 61.4583 871.056 58.7442 Q874.095 55.9896 874.095 50.6829 Q874.095 45.3762 871.056 42.7026 Q868.059 39.9885 862.144 39.9885 L851.855 39.9885 Z" fill="#000000" fill-rule="evenodd" fill-opacity="1" /><path clip-path="url(#clip960)" d="M914.847 53.5995 Q908.851 53.5995 905.368 58.2986 Q901.884 62.9571 901.884 71.0994 Q901.884 79.2418 905.327 83.9408 Q908.811 88.5994 914.847 88.5994 Q920.802 88.5994 924.285 83.9003 Q927.769 79.2013 927.769 71.0994 Q927.769 63.0381 924.285 58.3391 Q920.802 53.5995 914.847 53.5995 M914.847 47.2801 Q924.569 47.2801 930.119 53.5995 Q935.668 59.9189 935.668 71.0994 Q935.668 82.2394 930.119 88.5994 Q924.569 94.9188 914.847 94.9188 Q905.084 94.9188 899.534 88.5994 Q894.025 82.2394 894.025 71.0994 Q894.025 59.9189 899.534 53.5995 Q905.084 47.2801 914.847 47.2801 Z" fill="#000000" fill-rule="evenodd" fill-opacity="1" /><path clip-path="url(#clip960)" d="M980.593 71.0994 Q980.593 62.8761 977.19 58.2176 Q973.828 53.5185 967.914 53.5185 Q961.999 53.5185 958.596 58.2176 Q955.234 62.8761 955.234 71.0994 Q955.234 79.3228 958.596 84.0218 Q961.999 88.6804 967.914 88.6804 Q973.828 88.6804 977.19 84.0218 Q980.593 79.3228 980.593 71.0994 M955.234 55.2604 Q957.584 51.2095 961.149 49.2651 Q964.754 47.2801 969.736 47.2801 Q978 47.2801 983.145 53.8426 Q988.33 60.4051 988.33 71.0994 Q988.33 81.7938 983.145 88.3563 Q978 94.9188 969.736 94.9188 Q964.754 94.9188 961.149 92.9743 Q957.584 90.9894 955.234 86.9385 L955.234 93.744 L947.74 93.744 L947.74 30.7119 L955.234 30.7119 L955.234 55.2604 Z" fill="#000000" fill-rule="evenodd" fill-opacity="1" /><path clip-path="url(#clip960)" d="M1033.25 71.0994 Q1033.25 62.8761 1029.85 58.2176 Q1026.49 53.5185 1020.58 53.5185 Q1014.66 53.5185 1011.26 58.2176 Q1007.9 62.8761 1007.9 71.0994 Q1007.9 79.3228 1011.26 84.0218 Q1014.66 88.6804 1020.58 88.6804 Q1026.49 88.6804 1029.85 84.0218 Q1033.25 79.3228 1033.25 71.0994 M1007.9 55.2604 Q1010.25 51.2095 1013.81 49.2651 Q1017.42 47.2801 1022.4 47.2801 Q1030.66 47.2801 1035.81 53.8426 Q1040.99 60.4051 1040.99 71.0994 Q1040.99 81.7938 1035.81 88.3563 Q1030.66 94.9188 1022.4 94.9188 Q1017.42 94.9188 1013.81 92.9743 Q1010.25 90.9894 1007.9 86.9385 L1007.9 93.744 L1000.4 93.744 L1000.4 30.7119 L1007.9 30.7119 L1007.9 55.2604 Z" fill="#000000" fill-rule="evenodd" fill-opacity="1" /><path clip-path="url(#clip960)" d="M1092.15 69.1955 L1092.15 72.8413 L1057.88 72.8413 Q1058.37 80.5381 1062.5 84.589 Q1066.67 88.5994 1074.09 88.5994 Q1078.38 88.5994 1082.39 87.5461 Q1086.44 86.4929 1090.41 84.3864 L1090.41 91.435 Q1086.4 93.1364 1082.19 94.0276 Q1077.98 94.9188 1073.64 94.9188 Q1062.79 94.9188 1056.43 88.5994 Q1050.11 82.2799 1050.11 71.5045 Q1050.11 60.3645 1056.1 53.8426 Q1062.14 47.2801 1072.35 47.2801 Q1081.5 47.2801 1086.81 53.1944 Q1092.15 59.0683 1092.15 69.1955 M1084.7 67.008 Q1084.62 60.8912 1081.26 57.2454 Q1077.94 53.5995 1072.43 53.5995 Q1066.19 53.5995 1062.42 57.1238 Q1058.69 60.6481 1058.13 67.0485 L1084.7 67.008 Z" fill="#000000" fill-rule="evenodd" fill-opacity="1" /><path clip-path="url(#clip960)" d="M1130.68 55.3414 Q1129.42 54.6123 1127.92 54.2882 Q1126.47 53.9236 1124.68 53.9236 Q1118.36 53.9236 1114.96 58.0555 Q1111.6 62.1469 1111.6 69.8437 L1111.6 93.744 L1104.1 93.744 L1104.1 48.3739 L1111.6 48.3739 L1111.6 55.4224 Q1113.95 51.2905 1117.72 49.3056 Q1121.48 47.2801 1126.87 47.2801 Q1127.64 47.2801 1128.57 47.4017 Q1129.5 47.4827 1130.64 47.6852 L1130.68 55.3414 Z" fill="#000000" fill-rule="evenodd" fill-opacity="1" /><path clip-path="url(#clip960)" d="M1157.37 97.9569 Q1154.21 106.059 1151.22 108.53 Q1148.22 111.001 1143.2 111.001 L1137.24 111.001 L1137.24 104.762 L1141.62 104.762 Q1144.7 104.762 1146.4 103.304 Q1148.1 101.846 1150.16 96.4176 L1151.5 93.0148 L1133.15 48.3739 L1141.05 48.3739 L1155.23 83.8598 L1169.41 48.3739 L1177.3 48.3739 L1157.37 97.9569 Z" fill="#000000" fill-rule="evenodd" fill-opacity="1" /><path clip-path="url(#clip960)" d="M1240.26 55.3414 Q1239 54.6123 1237.5 54.2882 Q1236.04 53.9236 1234.26 53.9236 Q1227.94 53.9236 1224.54 58.0555 Q1221.18 62.1469 1221.18 69.8437 L1221.18 93.744 L1213.68 93.744 L1213.68 48.3739 L1221.18 48.3739 L1221.18 55.4224 Q1223.53 51.2905 1227.29 49.3056 Q1231.06 47.2801 1236.45 47.2801 Q1237.22 47.2801 1238.15 47.4017 Q1239.08 47.4827 1240.22 47.6852 L1240.26 55.3414 Z" fill="#000000" fill-rule="evenodd" fill-opacity="1" /><path clip-path="url(#clip960)" d="M1285.06 69.1955 L1285.06 72.8413 L1250.79 72.8413 Q1251.27 80.5381 1255.41 84.589 Q1259.58 88.5994 1266.99 88.5994 Q1271.29 88.5994 1275.3 87.5461 Q1279.35 86.4929 1283.32 84.3864 L1283.32 91.435 Q1279.31 93.1364 1275.09 94.0276 Q1270.88 94.9188 1266.55 94.9188 Q1255.69 94.9188 1249.33 88.5994 Q1243.01 82.2799 1243.01 71.5045 Q1243.01 60.3645 1249.01 53.8426 Q1255.04 47.2801 1265.25 47.2801 Q1274.4 47.2801 1279.71 53.1944 Q1285.06 59.0683 1285.06 69.1955 M1277.61 67.008 Q1277.52 60.8912 1274.16 57.2454 Q1270.84 53.5995 1265.33 53.5995 Q1259.09 53.5995 1255.33 57.1238 Q1251.6 60.6481 1251.03 67.0485 L1277.61 67.008 Z" fill="#000000" fill-rule="evenodd" fill-opacity="1" /><path clip-path="url(#clip960)" d="M1297.29 30.7119 L1304.75 30.7119 L1304.75 93.744 L1297.29 93.744 L1297.29 30.7119 Z" fill="#000000" fill-rule="evenodd" fill-opacity="1" /><path clip-path="url(#clip960)" d="M1340.96 70.9374 Q1331.93 70.9374 1328.44 73.0034 Q1324.96 75.0693 1324.96 80.0519 Q1324.96 84.0218 1327.55 86.3714 Q1330.19 88.6804 1334.68 88.6804 Q1340.88 88.6804 1344.61 84.3054 Q1348.37 79.8899 1348.37 72.5983 L1348.37 70.9374 L1340.96 70.9374 M1355.83 67.8587 L1355.83 93.744 L1348.37 93.744 L1348.37 86.8575 Q1345.82 90.9894 1342.01 92.9743 Q1338.21 94.9188 1332.7 94.9188 Q1325.73 94.9188 1321.6 91.0299 Q1317.51 87.1005 1317.51 80.5381 Q1317.51 72.8818 1322.61 68.993 Q1327.76 65.1041 1337.92 65.1041 L1348.37 65.1041 L1348.37 64.3749 Q1348.37 59.2303 1344.97 56.4352 Q1341.61 53.5995 1335.49 53.5995 Q1331.6 53.5995 1327.92 54.5312 Q1324.23 55.463 1320.83 57.3264 L1320.83 50.4398 Q1324.92 48.86 1328.77 48.0903 Q1332.62 47.2801 1336.26 47.2801 Q1346.11 47.2801 1350.97 52.3843 Q1355.83 57.4884 1355.83 67.8587 Z" fill="#000000" fill-rule="evenodd" fill-opacity="1" /><path clip-path="url(#clip960)" d="M1378.55 35.492 L1378.55 48.3739 L1393.91 48.3739 L1393.91 54.1667 L1378.55 54.1667 L1378.55 78.7962 Q1378.55 84.3459 1380.05 85.9258 Q1381.59 87.5056 1386.25 87.5056 L1393.91 87.5056 L1393.91 93.744 L1386.25 93.744 Q1377.62 93.744 1374.34 90.5438 Q1371.06 87.3031 1371.06 78.7962 L1371.06 54.1667 L1365.59 54.1667 L1365.59 48.3739 L1371.06 48.3739 L1371.06 35.492 L1378.55 35.492 Z" fill="#000000" fill-rule="evenodd" fill-opacity="1" /><path clip-path="url(#clip960)" d="M1403.71 48.3739 L1411.16 48.3739 L1411.16 93.744 L1403.71 93.744 L1403.71 48.3739 M1403.71 30.7119 L1411.16 30.7119 L1411.16 40.1505 L1403.71 40.1505 L1403.71 30.7119 Z" fill="#000000" fill-rule="evenodd" fill-opacity="1" /><path clip-path="url(#clip960)" d="M1421.41 48.3739 L1429.31 48.3739 L1443.49 86.4524 L1457.67 48.3739 L1465.57 48.3739 L1448.55 93.744 L1438.43 93.744 L1421.41 48.3739 Z" fill="#000000" fill-rule="evenodd" fill-opacity="1" /><path clip-path="url(#clip960)" d="M1514.66 69.1955 L1514.66 72.8413 L1480.39 72.8413 Q1480.88 80.5381 1485.01 84.589 Q1489.18 88.5994 1496.6 88.5994 Q1500.89 88.5994 1504.9 87.5461 Q1508.95 86.4929 1512.92 84.3864 L1512.92 91.435 Q1508.91 93.1364 1504.7 94.0276 Q1500.49 94.9188 1496.15 94.9188 Q1485.3 94.9188 1478.94 88.5994 Q1472.62 82.2799 1472.62 71.5045 Q1472.62 60.3645 1478.61 53.8426 Q1484.65 47.2801 1494.86 47.2801 Q1504.01 47.2801 1509.32 53.1944 Q1514.66 59.0683 1514.66 69.1955 M1507.21 67.008 Q1507.13 60.8912 1503.77 57.2454 Q1500.45 53.5995 1494.94 53.5995 Q1488.7 53.5995 1484.93 57.1238 Q1481.2 60.6481 1480.64 67.0485 L1507.21 67.008 Z" fill="#000000" fill-rule="evenodd" fill-opacity="1" /><path clip-path="url(#clip960)" d="M1585.92 50.1158 L1585.92 57.0833 Q1582.76 55.3414 1579.56 54.4907 Q1576.4 53.5995 1573.16 53.5995 Q1565.91 53.5995 1561.9 58.2176 Q1557.89 62.7951 1557.89 71.0994 Q1557.89 79.4038 1561.9 84.0218 Q1565.91 88.5994 1573.16 88.5994 Q1576.4 88.5994 1579.56 87.7487 Q1582.76 86.8575 1585.92 85.1156 L1585.92 92.0021 Q1582.8 93.4604 1579.44 94.1896 Q1576.12 94.9188 1572.35 94.9188 Q1562.1 94.9188 1556.06 88.4778 Q1550.03 82.0369 1550.03 71.0994 Q1550.03 60 1556.1 53.64 Q1562.22 47.2801 1572.84 47.2801 Q1576.28 47.2801 1579.56 48.0093 Q1582.84 48.6979 1585.92 50.1158 Z" fill="#000000" fill-rule="evenodd" fill-opacity="1" /><path clip-path="url(#clip960)" d="M1636.6 66.3599 L1636.6 93.744 L1629.14 93.744 L1629.14 66.6029 Q1629.14 60.162 1626.63 56.9618 Q1624.12 53.7616 1619.1 53.7616 Q1613.06 53.7616 1609.58 57.6099 Q1606.09 61.4583 1606.09 68.1018 L1606.09 93.744 L1598.6 93.744 L1598.6 30.7119 L1606.09 30.7119 L1606.09 55.4224 Q1608.77 51.331 1612.37 49.3056 Q1616.02 47.2801 1620.76 47.2801 Q1628.58 47.2801 1632.59 52.1412 Q1636.6 56.9618 1636.6 66.3599 Z" fill="#000000" fill-rule="evenodd" fill-opacity="1" /><path clip-path="url(#clip960)" d="M1672.08 70.9374 Q1663.05 70.9374 1659.56 73.0034 Q1656.08 75.0693 1656.08 80.0519 Q1656.08 84.0218 1658.67 86.3714 Q1661.31 88.6804 1665.8 88.6804 Q1672 88.6804 1675.73 84.3054 Q1679.5 79.8899 1679.5 72.5983 L1679.5 70.9374 L1672.08 70.9374 M1686.95 67.8587 L1686.95 93.744 L1679.5 93.744 L1679.5 86.8575 Q1676.94 90.9894 1673.14 92.9743 Q1669.33 94.9188 1663.82 94.9188 Q1656.85 94.9188 1652.72 91.0299 Q1648.63 87.1005 1648.63 80.5381 Q1648.63 72.8818 1653.73 68.993 Q1658.88 65.1041 1669.04 65.1041 L1679.5 65.1041 L1679.5 64.3749 Q1679.5 59.2303 1676.09 56.4352 Q1672.73 53.5995 1666.61 53.5995 Q1662.72 53.5995 1659.04 54.5312 Q1655.35 55.463 1651.95 57.3264 L1651.95 50.4398 Q1656.04 48.86 1659.89 48.0903 Q1663.74 47.2801 1667.38 47.2801 Q1677.23 47.2801 1682.09 52.3843 Q1686.95 57.4884 1686.95 67.8587 Z" fill="#000000" fill-rule="evenodd" fill-opacity="1" /><path clip-path="url(#clip960)" d="M1740.02 66.3599 L1740.02 93.744 L1732.56 93.744 L1732.56 66.6029 Q1732.56 60.162 1730.05 56.9618 Q1727.54 53.7616 1722.52 53.7616 Q1716.48 53.7616 1713 57.6099 Q1709.51 61.4583 1709.51 68.1018 L1709.51 93.744 L1702.02 93.744 L1702.02 48.3739 L1709.51 48.3739 L1709.51 55.4224 Q1712.19 51.331 1715.79 49.3056 Q1719.44 47.2801 1724.18 47.2801 Q1732 47.2801 1736.01 52.1412 Q1740.02 56.9618 1740.02 66.3599 Z" fill="#000000" fill-rule="evenodd" fill-opacity="1" /><path clip-path="url(#clip960)" d="M1784.74 70.5323 Q1784.74 62.4305 1781.38 57.9745 Q1778.05 53.5185 1772.02 53.5185 Q1766.02 53.5185 1762.66 57.9745 Q1759.34 62.4305 1759.34 70.5323 Q1759.34 78.5936 1762.66 83.0496 Q1766.02 87.5056 1772.02 87.5056 Q1778.05 87.5056 1781.38 83.0496 Q1784.74 78.5936 1784.74 70.5323 M1792.19 88.1132 Q1792.19 99.6988 1787.05 105.33 Q1781.9 111.001 1771.29 111.001 Q1767.36 111.001 1763.88 110.393 Q1760.39 109.826 1757.11 108.611 L1757.11 101.36 Q1760.39 103.142 1763.59 103.993 Q1766.79 104.843 1770.11 104.843 Q1777.45 104.843 1781.09 100.995 Q1784.74 97.1873 1784.74 89.45 L1784.74 85.7637 Q1782.43 89.7741 1778.82 91.7591 Q1775.22 93.744 1770.2 93.744 Q1761.85 93.744 1756.75 87.3841 Q1751.64 81.0242 1751.64 70.5323 Q1751.64 60 1756.75 53.64 Q1761.85 47.2801 1770.2 47.2801 Q1775.22 47.2801 1778.82 49.2651 Q1782.43 51.25 1784.74 55.2604 L1784.74 48.3739 L1792.19 48.3739 L1792.19 88.1132 Z" fill="#000000" fill-rule="evenodd" fill-opacity="1" /><path clip-path="url(#clip960)" d="M1846.35 69.1955 L1846.35 72.8413 L1812.08 72.8413 Q1812.57 80.5381 1816.7 84.589 Q1820.87 88.5994 1828.29 88.5994 Q1832.58 88.5994 1836.59 87.5461 Q1840.64 86.4929 1844.61 84.3864 L1844.61 91.435 Q1840.6 93.1364 1836.39 94.0276 Q1832.17 94.9188 1827.84 94.9188 Q1816.98 94.9188 1810.62 88.5994 Q1804.3 82.2799 1804.3 71.5045 Q1804.3 60.3645 1810.3 53.8426 Q1816.33 47.2801 1826.54 47.2801 Q1835.7 47.2801 1841 53.1944 Q1846.35 59.0683 1846.35 69.1955 M1838.9 67.008 Q1838.82 60.8912 1835.46 57.2454 Q1832.13 53.5995 1826.62 53.5995 Q1820.39 53.5995 1816.62 57.1238 Q1812.89 60.6481 1812.32 67.0485 L1838.9 67.008 Z" fill="#000000" fill-rule="evenodd" fill-opacity="1" /><path clip-path="url(#clip960)" d="M885.559 132.045 L874.459 162.144 L896.699 162.144 L885.559 132.045 M880.941 123.984 L890.217 123.984 L913.267 184.464 L904.76 184.464 L899.251 168.949 L871.988 168.949 L866.479 184.464 L857.85 184.464 L880.941 123.984 Z" fill="#000000" fill-rule="evenodd" fill-opacity="1" /><path clip-path="url(#clip960)" d="M952.966 140.836 L952.966 147.803 Q949.806 146.061 946.606 145.211 Q943.446 144.32 940.205 144.32 Q932.954 144.32 928.944 148.938 Q924.933 153.515 924.933 161.819 Q924.933 170.124 928.944 174.742 Q932.954 179.319 940.205 179.319 Q943.446 179.319 946.606 178.469 Q949.806 177.577 952.966 175.836 L952.966 182.722 Q949.847 184.18 946.484 184.91 Q943.163 185.639 939.395 185.639 Q929.146 185.639 923.111 179.198 Q917.075 172.757 917.075 161.819 Q917.075 150.72 923.151 144.36 Q929.268 138 939.881 138 Q943.325 138 946.606 138.729 Q949.887 139.418 952.966 140.836 Z" fill="#000000" fill-rule="evenodd" fill-opacity="1" /><path clip-path="url(#clip960)" d="M973.301 126.212 L973.301 139.094 L988.654 139.094 L988.654 144.887 L973.301 144.887 L973.301 169.516 Q973.301 175.066 974.8 176.646 Q976.339 178.226 980.998 178.226 L988.654 178.226 L988.654 184.464 L980.998 184.464 Q972.37 184.464 969.088 181.264 Q965.807 178.023 965.807 169.516 L965.807 144.887 L960.338 144.887 L960.338 139.094 L965.807 139.094 L965.807 126.212 L973.301 126.212 Z" fill="#000000" fill-rule="evenodd" fill-opacity="1" /><path clip-path="url(#clip960)" d="M997.688 166.559 L997.688 139.094 L1005.14 139.094 L1005.14 166.275 Q1005.14 172.716 1007.65 175.957 Q1010.16 179.157 1015.19 179.157 Q1021.22 179.157 1024.71 175.309 Q1028.23 171.461 1028.23 164.817 L1028.23 139.094 L1035.69 139.094 L1035.69 184.464 L1028.23 184.464 L1028.23 177.496 Q1025.52 181.628 1021.91 183.654 Q1018.35 185.639 1013.61 185.639 Q1005.79 185.639 1001.74 180.778 Q997.688 175.917 997.688 166.559 M1016.44 138 L1016.44 138 Z" fill="#000000" fill-rule="evenodd" fill-opacity="1" /><path clip-path="url(#clip960)" d="M1071.66 161.657 Q1062.62 161.657 1059.14 163.723 Q1055.66 165.789 1055.66 170.772 Q1055.66 174.742 1058.25 177.091 Q1060.88 179.4 1065.38 179.4 Q1071.58 179.4 1075.3 175.025 Q1079.07 170.61 1079.07 163.318 L1079.07 161.657 L1071.66 161.657 M1086.52 158.579 L1086.52 184.464 L1079.07 184.464 L1079.07 177.577 Q1076.52 181.709 1072.71 183.694 Q1068.9 185.639 1063.39 185.639 Q1056.43 185.639 1052.29 181.75 Q1048.2 177.821 1048.2 171.258 Q1048.2 163.602 1053.31 159.713 Q1058.45 155.824 1068.62 155.824 L1079.07 155.824 L1079.07 155.095 Q1079.07 149.95 1075.67 147.155 Q1072.31 144.32 1066.19 144.32 Q1062.3 144.32 1058.61 145.251 Q1054.93 146.183 1051.52 148.046 L1051.52 141.16 Q1055.62 139.58 1059.46 138.81 Q1063.31 138 1066.96 138 Q1076.8 138 1081.66 143.104 Q1086.52 148.208 1086.52 158.579 Z" fill="#000000" fill-rule="evenodd" fill-opacity="1" /><path clip-path="url(#clip960)" d="M1101.88 121.432 L1109.33 121.432 L1109.33 184.464 L1101.88 184.464 L1101.88 121.432 Z" fill="#000000" fill-rule="evenodd" fill-opacity="1" /><path clip-path="url(#clip960)" d="M1171.92 161.657 Q1162.88 161.657 1159.4 163.723 Q1155.92 165.789 1155.92 170.772 Q1155.92 174.742 1158.51 177.091 Q1161.14 179.4 1165.64 179.4 Q1171.84 179.4 1175.56 175.025 Q1179.33 170.61 1179.33 163.318 L1179.33 161.657 L1171.92 161.657 M1186.78 158.579 L1186.78 184.464 L1179.33 184.464 L1179.33 177.577 Q1176.78 181.709 1172.97 183.694 Q1169.16 185.639 1163.65 185.639 Q1156.69 185.639 1152.55 181.75 Q1148.46 177.821 1148.46 171.258 Q1148.46 163.602 1153.57 159.713 Q1158.71 155.824 1168.88 155.824 L1179.33 155.824 L1179.33 155.095 Q1179.33 149.95 1175.93 147.155 Q1172.57 144.32 1166.45 144.32 Q1162.56 144.32 1158.87 145.251 Q1155.19 146.183 1151.78 148.046 L1151.78 141.16 Q1155.88 139.58 1159.72 138.81 Q1163.57 138 1167.22 138 Q1177.06 138 1181.92 143.104 Q1186.78 148.208 1186.78 158.579 Z" fill="#000000" fill-rule="evenodd" fill-opacity="1" /><path clip-path="url(#clip960)" d="M1239.85 157.08 L1239.85 184.464 L1232.4 184.464 L1232.4 157.323 Q1232.4 150.882 1229.89 147.682 Q1227.37 144.482 1222.35 144.482 Q1216.32 144.482 1212.83 148.33 Q1209.35 152.178 1209.35 158.822 L1209.35 184.464 L1201.85 184.464 L1201.85 139.094 L1209.35 139.094 L1209.35 146.142 Q1212.02 142.051 1215.63 140.026 Q1219.27 138 1224.01 138 Q1231.83 138 1235.84 142.861 Q1239.85 147.682 1239.85 157.08 Z" fill="#000000" fill-rule="evenodd" fill-opacity="1" /><path clip-path="url(#clip960)" d="M1284.57 145.98 L1284.57 121.432 L1292.03 121.432 L1292.03 184.464 L1284.57 184.464 L1284.57 177.658 Q1282.22 181.709 1278.62 183.694 Q1275.05 185.639 1270.03 185.639 Q1261.81 185.639 1256.62 179.076 Q1251.48 172.514 1251.48 161.819 Q1251.48 151.125 1256.62 144.563 Q1261.81 138 1270.03 138 Q1275.05 138 1278.62 139.985 Q1282.22 141.93 1284.57 145.98 M1259.17 161.819 Q1259.17 170.043 1262.54 174.742 Q1265.94 179.4 1271.85 179.4 Q1277.77 179.4 1281.17 174.742 Q1284.57 170.043 1284.57 161.819 Q1284.57 153.596 1281.17 148.938 Q1277.77 144.239 1271.85 144.239 Q1265.94 144.239 1262.54 148.938 Q1259.17 153.596 1259.17 161.819 Z" fill="#000000" fill-rule="evenodd" fill-opacity="1" /><path clip-path="url(#clip960)" d="M1342.26 130.709 L1342.26 153.434 L1352.55 153.434 Q1358.26 153.434 1361.38 150.477 Q1364.5 147.52 1364.5 142.051 Q1364.5 136.623 1361.38 133.666 Q1358.26 130.709 1352.55 130.709 L1342.26 130.709 M1334.07 123.984 L1352.55 123.984 Q1362.71 123.984 1367.9 128.602 Q1373.13 133.18 1373.13 142.051 Q1373.13 151.004 1367.9 155.581 Q1362.71 160.159 1352.55 160.159 L1342.26 160.159 L1342.26 184.464 L1334.07 184.464 L1334.07 123.984 Z" fill="#000000" fill-rule="evenodd" fill-opacity="1" /><path clip-path="url(#clip960)" d="M1408.61 146.061 Q1407.36 145.332 1405.86 145.008 Q1404.4 144.644 1402.62 144.644 Q1396.3 144.644 1392.89 148.776 Q1389.53 152.867 1389.53 160.564 L1389.53 184.464 L1382.04 184.464 L1382.04 139.094 L1389.53 139.094 L1389.53 146.142 Q1391.88 142.011 1395.65 140.026 Q1399.42 138 1404.8 138 Q1405.57 138 1406.5 138.122 Q1407.44 138.203 1408.57 138.405 L1408.61 146.061 Z" fill="#000000" fill-rule="evenodd" fill-opacity="1" /><path clip-path="url(#clip960)" d="M1453.41 159.916 L1453.41 163.561 L1419.14 163.561 Q1419.63 171.258 1423.76 175.309 Q1427.93 179.319 1435.35 179.319 Q1439.64 179.319 1443.65 178.266 Q1447.7 177.213 1451.67 175.106 L1451.67 182.155 Q1447.66 183.856 1443.45 184.748 Q1439.24 185.639 1434.9 185.639 Q1424.05 185.639 1417.69 179.319 Q1411.37 173 1411.37 162.225 Q1411.37 151.085 1417.36 144.563 Q1423.4 138 1433.61 138 Q1442.76 138 1448.07 143.914 Q1453.41 149.788 1453.41 159.916 M1445.96 157.728 Q1445.88 151.611 1442.52 147.965 Q1439.2 144.32 1433.69 144.32 Q1427.45 144.32 1423.68 147.844 Q1419.95 151.368 1419.39 157.769 L1445.96 157.728 Z" fill="#000000" fill-rule="evenodd" fill-opacity="1" /><path clip-path="url(#clip960)" d="M1495.5 145.98 L1495.5 121.432 L1502.96 121.432 L1502.96 184.464 L1495.5 184.464 L1495.5 177.658 Q1493.15 181.709 1489.55 183.694 Q1485.98 185.639 1480.96 185.639 Q1472.74 185.639 1467.55 179.076 Q1462.41 172.514 1462.41 161.819 Q1462.41 151.125 1467.55 144.563 Q1472.74 138 1480.96 138 Q1485.98 138 1489.55 139.985 Q1493.15 141.93 1495.5 145.98 M1470.1 161.819 Q1470.1 170.043 1473.47 174.742 Q1476.87 179.4 1482.78 179.4 Q1488.7 179.4 1492.1 174.742 Q1495.5 170.043 1495.5 161.819 Q1495.5 153.596 1492.1 148.938 Q1488.7 144.239 1482.78 144.239 Q1476.87 144.239 1473.47 148.938 Q1470.1 153.596 1470.1 161.819 Z" fill="#000000" fill-rule="evenodd" fill-opacity="1" /><path clip-path="url(#clip960)" d="M1518.31 139.094 L1525.76 139.094 L1525.76 184.464 L1518.31 184.464 L1518.31 139.094 M1518.31 121.432 L1525.76 121.432 L1525.76 130.871 L1518.31 130.871 L1518.31 121.432 Z" fill="#000000" fill-rule="evenodd" fill-opacity="1" /><path clip-path="url(#clip960)" d="M1574.01 140.836 L1574.01 147.803 Q1570.85 146.061 1567.65 145.211 Q1564.49 144.32 1561.25 144.32 Q1554 144.32 1549.99 148.938 Q1545.98 153.515 1545.98 161.819 Q1545.98 170.124 1549.99 174.742 Q1554 179.319 1561.25 179.319 Q1564.49 179.319 1567.65 178.469 Q1570.85 177.577 1574.01 175.836 L1574.01 182.722 Q1570.89 184.18 1567.53 184.91 Q1564.21 185.639 1560.44 185.639 Q1550.19 185.639 1544.15 179.198 Q1538.12 172.757 1538.12 161.819 Q1538.12 150.72 1544.2 144.36 Q1550.31 138 1560.93 138 Q1564.37 138 1567.65 138.729 Q1570.93 139.418 1574.01 140.836 Z" fill="#000000" fill-rule="evenodd" fill-opacity="1" /><path clip-path="url(#clip960)" d="M1594.35 126.212 L1594.35 139.094 L1609.7 139.094 L1609.7 144.887 L1594.35 144.887 L1594.35 169.516 Q1594.35 175.066 1595.84 176.646 Q1597.38 178.226 1602.04 178.226 L1609.7 178.226 L1609.7 184.464 L1602.04 184.464 Q1593.41 184.464 1590.13 181.264 Q1586.85 178.023 1586.85 169.516 L1586.85 144.887 L1581.38 144.887 L1581.38 139.094 L1586.85 139.094 L1586.85 126.212 L1594.35 126.212 Z" fill="#000000" fill-rule="evenodd" fill-opacity="1" /><path clip-path="url(#clip960)" d="M1658.31 159.916 L1658.31 163.561 L1624.04 163.561 Q1624.52 171.258 1628.66 175.309 Q1632.83 179.319 1640.24 179.319 Q1644.54 179.319 1648.55 178.266 Q1652.6 177.213 1656.57 175.106 L1656.57 182.155 Q1652.56 183.856 1648.34 184.748 Q1644.13 185.639 1639.8 185.639 Q1628.94 185.639 1622.58 179.319 Q1616.26 173 1616.26 162.225 Q1616.26 151.085 1622.26 144.563 Q1628.29 138 1638.5 138 Q1647.66 138 1652.96 143.914 Q1658.31 149.788 1658.31 159.916 M1650.86 157.728 Q1650.77 151.611 1647.41 147.965 Q1644.09 144.32 1638.58 144.32 Q1632.34 144.32 1628.58 147.844 Q1624.85 151.368 1624.28 157.769 L1650.86 157.728 Z" fill="#000000" fill-rule="evenodd" fill-opacity="1" /><path clip-path="url(#clip960)" d="M1700.4 145.98 L1700.4 121.432 L1707.85 121.432 L1707.85 184.464 L1700.4 184.464 L1700.4 177.658 Q1698.05 181.709 1694.44 183.694 Q1690.88 185.639 1685.86 185.639 Q1677.63 185.639 1672.45 179.076 Q1667.3 172.514 1667.3 161.819 Q1667.3 151.125 1672.45 144.563 Q1677.63 138 1685.86 138 Q1690.88 138 1694.44 139.985 Q1698.05 141.93 1700.4 145.98 M1675 161.819 Q1675 170.043 1678.36 174.742 Q1681.76 179.4 1687.68 179.4 Q1693.59 179.4 1697 174.742 Q1700.4 170.043 1700.4 161.819 Q1700.4 153.596 1697 148.938 Q1693.59 144.239 1687.68 144.239 Q1681.76 144.239 1678.36 148.938 Q1675 153.596 1675 161.819 Z" fill="#000000" fill-rule="evenodd" fill-opacity="1" /><polyline clip-path="url(#clip962)" style="stroke:#009af9; stroke-linecap:butt; stroke-linejoin:round; stroke-width:12; stroke-opacity:1; fill:none" points="
  247.252,1143 325.874,1062.88 404.497,1022.92 483.119,902.564 561.741,573.264 640.363,406.68 718.986,486.536 797.608,438.102 876.23,220.815 954.852,594.413 
  1033.47,679.94 1112.1,893.224 1190.72,848.926 1269.34,835.65 1347.96,794.354 1426.59,893.024 1505.21,977.483 1583.83,1018.45 1662.45,1084.09 1741.07,1116.72 
  1819.7,1213.45 1898.32,1334.74 1976.94,1396.45 2055.56,1366.83 2134.19,1354.82 2212.81,1319.46 2291.43,1209.18 
  "/>
<polyline clip-path="url(#clip962)" style="stroke:#e26f46; stroke-linecap:butt; stroke-linejoin:round; stroke-width:4; stroke-opacity:0.5; fill:none" points="
  247.252,1143 325.874,1022.57 404.497,973.876 483.119,936.633 561.741,498.525 640.363,458.493 718.986,450.832 797.608,485.468 876.23,457.859 954.852,520.129 
  1033.47,610.803 1112.1,723.534 1190.72,816.112 1269.34,895.582 1347.96,891.653 1426.59,986.291 1505.21,950.798 1583.83,1042.39 1662.45,1136.21 1741.07,1213.64 
  1819.7,1274.48 1898.32,1301.79 1976.94,1316.01 2055.56,1298.13 2134.19,1345.86 2212.81,1388.98 2291.43,1399.21 
  "/>
<polyline clip-path="url(#clip962)" style="stroke:#3da44d; stroke-linecap:butt; stroke-linejoin:round; stroke-width:4; stroke-opacity:0.5; fill:none" points="
  247.252,1143 325.874,1017.87 404.497,961.412 483.119,918.276 561.741,492.706 640.363,452.311 718.986,443.199 797.608,474.476 876.23,449.49 954.852,511.753 
  1033.47,602.05 1112.1,716.178 1190.72,808.091 1269.34,886.056 1347.96,864.516 1426.59,960.029 1505.21,916.836 1583.83,1010.39 1662.45,1110.61 1741.07,1189.36 
  1819.7,1247.86 1898.32,1267.39 1976.94,1274.24 2055.56,1248.92 2134.19,1296.04 2212.81,1338.17 2291.43,1342.15 
  "/>
<polyline clip-path="url(#clip962)" style="stroke:#c271d2; stroke-linecap:butt; stroke-linejoin:round; stroke-width:4; stroke-opacity:0.5; fill:none" points="
  247.252,1143 325.874,1004.77 404.497,924.889 483.119,864.629 561.741,490.34 640.363,478.328 718.986,482.577 797.608,511.296 876.23,508.581 954.852,565.837 
  1033.47,638.416 1112.1,729.079 1190.72,804.311 1269.34,869.122 1347.96,864.722 1426.59,945.661 1505.21,946.616 1583.83,1022.64 1662.45,1106.81 1741.07,1175.12 
  1819.7,1229.73 1898.32,1258.22 1976.94,1275.92 2055.56,1269.29 2134.19,1303.45 2212.81,1334.57 2291.43,1338.63 
  "/>
<polyline clip-path="url(#clip962)" style="stroke:#ac8d18; stroke-linecap:butt; stroke-linejoin:round; stroke-width:4; stroke-opacity:0.5; fill:none" points="
  247.252,1143 325.874,1023.26 404.497,967.139 483.119,930.491 561.741,530.646 640.363,470.26 718.986,448.632 797.608,466.767 876.23,454.221 954.852,520.34 
  1033.47,607.76 1112.1,710.354 1190.72,799.642 1269.34,881.045 1347.96,915.239 1426.59,989.353 1505.21,969.738 1583.83,1039.82 1662.45,1114.89 1741.07,1175.5 
  1819.7,1221.81 1898.32,1241.47 1976.94,1257.81 2055.56,1257.21 2134.19,1299.33 2212.81,1336.78 2291.43,1348.47 
  "/>
<polyline clip-path="url(#clip962)" style="stroke:#00a9ad; stroke-linecap:butt; stroke-linejoin:round; stroke-width:4; stroke-opacity:0.5; fill:none" points="
  247.252,1143 325.874,995.968 404.497,954.937 483.119,928.858 561.741,485.888 640.363,430.626 718.986,429.791 797.608,482.418 876.23,467.195 954.852,539.647 
  1033.47,638.84 1112.1,752.015 1190.72,847.231 1269.34,930.299 1347.96,916.56 1426.59,1007.29 1505.21,920.151 1583.83,1012.4 1662.45,1103.57 1741.07,1180.89 
  1819.7,1241.62 1898.32,1261.69 1976.94,1267.03 2055.56,1233.14 2134.19,1289.19 2212.81,1339.81 2291.43,1355.24 
  "/>
<polyline clip-path="url(#clip962)" style="stroke:#ed5d92; stroke-linecap:butt; stroke-linejoin:round; stroke-width:4; stroke-opacity:0.5; fill:none" points="
  247.252,1143 325.874,1029.47 404.497,955.571 483.119,907.026 561.741,422.367 640.363,433.516 718.986,450.415 797.608,479.117 876.23,501.016 954.852,562.5 
  1033.47,629.241 1112.1,704.644 1190.72,777.476 1269.34,846.573 1347.96,845.223 1426.59,909.853 1505.21,952.084 1583.83,1009.74 1662.45,1076.77 1741.07,1137.57 
  1819.7,1194.24 1898.32,1241.34 1976.94,1281.6 2055.56,1309.46 2134.19,1341.47 2212.81,1372.17 2291.43,1393.21 
  "/>
<polyline clip-path="url(#clip962)" style="stroke:#c68125; stroke-linecap:butt; stroke-linejoin:round; stroke-width:4; stroke-opacity:0.5; fill:none" points="
  247.252,1143 325.874,1025.03 404.497,968.973 483.119,940.731 561.741,527.123 640.363,482.615 718.986,468.234 797.608,487.199 876.23,491.271 954.852,555.599 
  1033.47,639.32 1112.1,738 1190.72,829.772 1269.34,916.157 1347.96,923.128 1426.59,993.953 1505.21,1007.22 1583.83,1070.57 1662.45,1146.43 1741.07,1210.33 
  1819.7,1265.06 1898.32,1304.11 1976.94,1336.59 2055.56,1355.89 2134.19,1393.55 2212.81,1428.87 2291.43,1449.58 
  "/>
<polyline clip-path="url(#clip962)" style="stroke:#00a98d; stroke-linecap:butt; stroke-linejoin:round; stroke-width:4; stroke-opacity:0.5; fill:none" points="
  247.252,1143 325.874,1065.4 404.497,1004.12 483.119,936.74 561.741,455.285 640.363,457.635 718.986,462.214 797.608,477.713 876.23,452.177 954.852,523.114 
  1033.47,598.796 1112.1,683.328 1190.72,747.182 1269.34,796.529 1347.96,890.335 1426.59,973.459 1505.21,1003.91 1583.83,1078.89 1662.45,1125.21 1741.07,1179.42 
  1819.7,1226.54 1898.32,1252.02 1976.94,1276.73 2055.56,1280.2 2134.19,1314.19 2212.81,1340.38 2291.43,1336.84 
  "/>
<polyline clip-path="url(#clip962)" style="stroke:#8e971d; stroke-linecap:butt; stroke-linejoin:round; stroke-width:4; stroke-opacity:0.5; fill:none" points="
  247.252,1143 325.874,1031.68 404.497,970.877 483.119,928.692 561.741,504.322 640.363,467.333 718.986,454.197 797.608,470.09 876.23,461.437 954.852,522.651 
  1033.47,601.719 1112.1,696.809 1190.72,780.901 1269.34,857.942 1347.96,874.381 1426.59,947.292 1505.21,948.655 1583.83,1016.25 1662.45,1091.78 1741.07,1154.21 
  1819.7,1205.49 1898.32,1235.35 1976.94,1259.45 2055.56,1266.25 2134.19,1303.74 2212.81,1337.74 2291.43,1349.64 
  "/>
<polyline clip-path="url(#clip962)" style="stroke:#00a8cb; stroke-linecap:butt; stroke-linejoin:round; stroke-width:4; stroke-opacity:0.5; fill:none" points="
  247.252,1143 325.874,1049.81 404.497,1008.12 483.119,982.596 561.741,469.046 640.363,427.822 718.986,416.003 797.608,439.223 876.23,429.834 954.852,502.026 
  1033.47,595.828 1112.1,706.23 1190.72,803.726 1269.34,892.703 1347.96,893.043 1426.59,973.812 1505.21,966.973 1583.83,1042.02 1662.45,1126.74 1741.07,1195.21 
  1819.7,1250.68 1898.32,1282.64 1976.94,1308.32 2055.56,1315.88 2134.19,1357.71 2212.81,1395.7 2291.43,1410.47 
  "/>
<polyline clip-path="url(#clip962)" style="stroke:#9b7fe8; stroke-linecap:butt; stroke-linejoin:round; stroke-width:4; stroke-opacity:0.5; fill:none" points="
  247.252,1143 325.874,1049.9 404.497,988.119 483.119,943.527 561.741,426.673 640.363,445.218 718.986,462.16 797.608,488.8 876.23,495.608 954.852,555.987 
  1033.47,625.255 1112.1,711.301 1190.72,791.7 1269.34,864.87 1347.96,775.602 1426.59,859.131 1505.21,898.537 1583.83,972.718 1662.45,1068.46 1741.07,1147.27 
  1819.7,1216.97 1898.32,1268.02 1976.94,1306.19 2055.56,1322.39 2134.19,1351.14 2212.81,1379.85 2291.43,1391.51 
  "/>
<polyline clip-path="url(#clip962)" style="stroke:#608cf6; stroke-linecap:butt; stroke-linejoin:round; stroke-width:4; stroke-opacity:0.5; fill:none" points="
  247.252,1143 325.874,1036.53 404.497,986.057 483.119,941.922 561.741,456.584 640.363,442.18 718.986,448.326 797.608,483.632 876.23,469.153 954.852,531.415 
  1033.47,609.981 1112.1,702.803 1190.72,779.859 1269.34,846.01 1347.96,878.688 1426.59,959.241 1505.21,953.524 1583.83,1030.03 1662.45,1105.68 1741.07,1171.1 
  1819.7,1225.44 1898.32,1255.27 1976.94,1276.36 2055.56,1271.15 2134.19,1313.51 2212.81,1351.74 2291.43,1362.87 
  "/>
<polyline clip-path="url(#clip962)" style="stroke:#f05f73; stroke-linecap:butt; stroke-linejoin:round; stroke-width:4; stroke-opacity:0.5; fill:none" points="
  247.252,1143 325.874,1051.91 404.497,1004.47 483.119,965.679 561.741,429.317 640.363,429.256 718.986,442.816 797.608,479.589 876.23,475.168 954.852,542.68 
  1033.47,625.301 1112.1,724.246 1190.72,806.15 1269.34,876.418 1347.96,846.207 1426.59,932.353 1505.21,927.323 1583.83,1009.07 1662.45,1097.59 1741.07,1169.09 
  1819.7,1226.71 1898.32,1257.14 1976.94,1277.8 2055.56,1272.63 2134.19,1312.23 2212.81,1347.88 2291.43,1353.82 
  "/>
<polyline clip-path="url(#clip962)" style="stroke:#dd64b5; stroke-linecap:butt; stroke-linejoin:round; stroke-width:4; stroke-opacity:0.5; fill:none" points="
  247.252,1143 325.874,1072.29 404.497,1034.94 483.119,1011.18 561.741,505.22 640.363,473.252 718.986,461.574 797.608,473.939 876.23,469.555 954.852,537.287 
  1033.47,619.552 1112.1,713.638 1190.72,800.052 1269.34,881.098 1347.96,905.232 1426.59,970.597 1505.21,983.058 1583.83,1041.91 1662.45,1107.21 1741.07,1163.23 
  1819.7,1212.27 1898.32,1246.07 1976.94,1277.4 2055.56,1296.2 2134.19,1333.35 2212.81,1366.91 2291.43,1383.31 
  "/>
<polyline clip-path="url(#clip962)" style="stroke:#6b9e32; stroke-linecap:butt; stroke-linejoin:round; stroke-width:4; stroke-opacity:0.5; fill:none" points="
  247.252,1143 325.874,1034.3 404.497,964.418 483.119,909.603 561.741,474.626 640.363,472.093 718.986,478.604 797.608,502.024 876.23,501.745 954.852,564.614 
  1033.47,637.133 1112.1,722.696 1190.72,797.02 1269.34,863.089 1347.96,893.883 1426.59,968.469 1505.21,991.461 1583.83,1059.25 1662.45,1128.9 1741.07,1190.28 
  1819.7,1243.33 1898.32,1278.12 1976.94,1305.87 2055.56,1314.85 2134.19,1346.18 2212.81,1374.27 2291.43,1382.11 
  "/>
<polyline clip-path="url(#clip962)" style="stroke:#009af9; stroke-linecap:butt; stroke-linejoin:round; stroke-width:4; stroke-opacity:0.5; fill:none" points="
  247.252,1143 325.874,1035.65 404.497,980.418 483.119,890.002 561.741,382.281 640.363,417.336 718.986,459.723 797.608,521.682 876.23,491.001 954.852,565.487 
  1033.47,647.638 1112.1,738.524 1190.72,801.748 1269.34,833.247 1347.96,915.662 1426.59,997.201 1505.21,1004.39 1583.83,1079.77 1662.45,1148.65 1741.07,1211.42 
  1819.7,1265.51 1898.32,1289.64 1976.94,1302.31 2055.56,1254.61 2134.19,1302.32 2212.81,1343.78 2291.43,1337.61 
  "/>
<polyline clip-path="url(#clip962)" style="stroke:#e26f46; stroke-linecap:butt; stroke-linejoin:round; stroke-width:4; stroke-opacity:0.5; fill:none" points="
  247.252,1143 325.874,1053.27 404.497,998.696 483.119,941.444 561.741,414.366 640.363,435.637 718.986,458.111 797.608,497.422 876.23,475.925 954.852,536.773 
  1033.47,611.3 1112.1,707.301 1190.72,777.348 1269.34,827.782 1347.96,821.211 1426.59,921.949 1505.21,925.979 1583.83,1020.64 1662.45,1115.37 1741.07,1193.76 
  1819.7,1257.1 1898.32,1289.29 1976.94,1307.31 2055.56,1288.6 2134.19,1327.2 2212.81,1361.35 2291.43,1357.86 
  "/>
<polyline clip-path="url(#clip962)" style="stroke:#3da44d; stroke-linecap:butt; stroke-linejoin:round; stroke-width:4; stroke-opacity:0.5; fill:none" points="
  247.252,1143 325.874,1038.67 404.497,985.467 483.119,953.275 561.741,414.324 640.363,403.047 718.986,411.919 797.608,446.09 876.23,458.944 954.852,532.114 
  1033.47,619.641 1112.1,720.508 1190.72,810.993 1269.34,893.996 1347.96,842.935 1426.59,918.765 1505.21,924.727 1583.83,994.357 1662.45,1080.23 1741.07,1148.6 
  1819.7,1205.74 1898.32,1242.57 1976.94,1271.79 2055.56,1283.48 2134.19,1321.53 2212.81,1356.8 2291.43,1371.37 
  "/>
<polyline clip-path="url(#clip962)" style="stroke:#c271d2; stroke-linecap:butt; stroke-linejoin:round; stroke-width:4; stroke-opacity:0.5; fill:none" points="
  247.252,1143 325.874,1055.65 404.497,1010.7 483.119,967.727 561.741,473.193 640.363,465.501 718.986,468.053 797.608,497.009 876.23,462.339 954.852,514.867 
  1033.47,591.819 1112.1,696.389 1190.72,777.206 1269.34,841.61 1347.96,785.703 1426.59,890.369 1505.21,873.836 1583.83,974.151 1662.45,1080.04 1741.07,1165.29 
  1819.7,1232.57 1898.32,1265.02 1976.94,1281.65 2055.56,1261.65 2134.19,1305.68 2212.81,1345.71 2291.43,1348.11 
  "/>
<polyline clip-path="url(#clip962)" style="stroke:#ac8d18; stroke-linecap:butt; stroke-linejoin:round; stroke-width:4; stroke-opacity:0.5; fill:none" points="
  247.252,1143 325.874,1021.06 404.497,954.999 483.119,898.41 561.741,486.881 640.363,460.523 718.986,456.571 797.608,483.78 876.23,461.615 954.852,525.247 
  1033.47,608.52 1112.1,711.249 1190.72,791.795 1269.34,858.199 1347.96,889.705 1426.59,977.446 1505.21,956.138 1583.83,1040.42 1662.45,1125.27 1741.07,1193.45 
  1819.7,1244.25 1898.32,1259.8 1976.94,1266.98 2055.56,1245.03 2134.19,1286.01 2212.81,1321.29 2291.43,1319.09 
  "/>
</svg>
