<?xml version="1.0" encoding="utf-8"?>
<svg xmlns="http://www.w3.org/2000/svg" xmlns:xlink="http://www.w3.org/1999/xlink" width="600" height="400" viewBox="0 0 2400 1600">
<defs>
  <clipPath id="clip600">
    <rect x="0" y="0" width="2400" height="1600"/>
  </clipPath>
</defs>
<path clip-path="url(#clip600)" d="
M0 1600 L2400 1600 L2400 0 L0 0  Z
  " fill="#ffffff" fill-rule="evenodd" fill-opacity="1"/>
<defs>
  <clipPath id="clip601">
    <rect x="480" y="0" width="1681" height="1600"/>
  </clipPath>
</defs>
<path clip-path="url(#clip600)" d="
M338.404 1486.45 L2352.76 1486.45 L2352.76 123.472 L338.404 123.472  Z
  " fill="#ffffff" fill-rule="evenodd" fill-opacity="1"/>
<defs>
  <clipPath id="clip602">
    <rect x="338" y="123" width="2015" height="1364"/>
  </clipPath>
</defs>
<polyline clip-path="url(#clip602)" style="stroke:#000000; stroke-linecap:butt; stroke-linejoin:round; stroke-width:2; stroke-opacity:0.1; fill:none" points="
  541.594,1486.45 541.594,123.472 
  "/>
<polyline clip-path="url(#clip602)" style="stroke:#000000; stroke-linecap:butt; stroke-linejoin:round; stroke-width:2; stroke-opacity:0.1; fill:none" points="
  907.042,1486.45 907.042,123.472 
  "/>
<polyline clip-path="url(#clip602)" style="stroke:#000000; stroke-linecap:butt; stroke-linejoin:round; stroke-width:2; stroke-opacity:0.1; fill:none" points="
  1272.49,1486.45 1272.49,123.472 
  "/>
<polyline clip-path="url(#clip602)" style="stroke:#000000; stroke-linecap:butt; stroke-linejoin:round; stroke-width:2; stroke-opacity:0.1; fill:none" points="
  1637.94,1486.45 1637.94,123.472 
  "/>
<polyline clip-path="url(#clip602)" style="stroke:#000000; stroke-linecap:butt; stroke-linejoin:round; stroke-width:2; stroke-opacity:0.1; fill:none" points="
  2003.39,1486.45 2003.39,123.472 
  "/>
<polyline clip-path="url(#clip600)" style="stroke:#000000; stroke-linecap:butt; stroke-linejoin:round; stroke-width:4; stroke-opacity:1; fill:none" points="
  338.404,1486.45 2352.76,1486.45 
  "/>
<polyline clip-path="url(#clip600)" style="stroke:#000000; stroke-linecap:butt; stroke-linejoin:round; stroke-width:4; stroke-opacity:1; fill:none" points="
  541.594,1486.45 541.594,1467.55 
  "/>
<polyline clip-path="url(#clip600)" style="stroke:#000000; stroke-linecap:butt; stroke-linejoin:round; stroke-width:4; stroke-opacity:1; fill:none" points="
  907.042,1486.45 907.042,1467.55 
  "/>
<polyline clip-path="url(#clip600)" style="stroke:#000000; stroke-linecap:butt; stroke-linejoin:round; stroke-width:4; stroke-opacity:1; fill:none" points="
  1272.49,1486.45 1272.49,1467.55 
  "/>
<polyline clip-path="url(#clip600)" style="stroke:#000000; stroke-linecap:butt; stroke-linejoin:round; stroke-width:4; stroke-opacity:1; fill:none" points="
  1637.94,1486.45 1637.94,1467.55 
  "/>
<polyline clip-path="url(#clip600)" style="stroke:#000000; stroke-linecap:butt; stroke-linejoin:round; stroke-width:4; stroke-opacity:1; fill:none" points="
  2003.39,1486.45 2003.39,1467.55 
  "/>
<path clip-path="url(#clip600)" d="M486.617 1544.91 L494.256 1544.91 L494.256 1518.55 L485.946 1520.21 L485.946 1515.95 L494.21 1514.29 L498.886 1514.29 L498.886 1544.91 L506.524 1544.91 L506.524 1548.85 L486.617 1548.85 L486.617 1544.91 Z" fill="#000000" fill-rule="evenodd" fill-opacity="1" /><path clip-path="url(#clip600)" d="M516.108 1548.13 L516.108 1543.87 Q517.867 1544.7 519.673 1545.14 Q521.478 1545.58 523.214 1545.58 Q527.844 1545.58 530.274 1542.48 Q532.728 1539.36 533.075 1533.01 Q531.733 1535.01 529.672 1536.07 Q527.612 1537.13 525.112 1537.13 Q519.927 1537.13 516.895 1534.01 Q513.886 1530.86 513.886 1525.42 Q513.886 1520.1 517.034 1516.88 Q520.182 1513.66 525.413 1513.66 Q531.409 1513.66 534.557 1518.27 Q537.728 1522.85 537.728 1531.6 Q537.728 1539.77 533.839 1544.66 Q529.973 1549.52 523.423 1549.52 Q521.663 1549.52 519.858 1549.17 Q518.052 1548.82 516.108 1548.13 M525.413 1533.48 Q528.561 1533.48 530.39 1531.32 Q532.242 1529.17 532.242 1525.42 Q532.242 1521.7 530.39 1519.54 Q528.561 1517.37 525.413 1517.37 Q522.265 1517.37 520.413 1519.54 Q518.585 1521.7 518.585 1525.42 Q518.585 1529.17 520.413 1531.32 Q522.265 1533.48 525.413 1533.48 Z" fill="#000000" fill-rule="evenodd" fill-opacity="1" /><path clip-path="url(#clip600)" d="M546.27 1548.13 L546.27 1543.87 Q548.029 1544.7 549.834 1545.14 Q551.64 1545.58 553.376 1545.58 Q558.006 1545.58 560.436 1542.48 Q562.89 1539.36 563.237 1533.01 Q561.895 1535.01 559.834 1536.07 Q557.774 1537.13 555.274 1537.13 Q550.089 1537.13 547.057 1534.01 Q544.047 1530.86 544.047 1525.42 Q544.047 1520.1 547.196 1516.88 Q550.344 1513.66 555.575 1513.66 Q561.57 1513.66 564.719 1518.27 Q567.89 1522.85 567.89 1531.6 Q567.89 1539.77 564.001 1544.66 Q560.135 1549.52 553.584 1549.52 Q551.825 1549.52 550.02 1549.17 Q548.214 1548.82 546.27 1548.13 M555.575 1533.48 Q558.723 1533.48 560.552 1531.32 Q562.404 1529.17 562.404 1525.42 Q562.404 1521.7 560.552 1519.54 Q558.723 1517.37 555.575 1517.37 Q552.427 1517.37 550.575 1519.54 Q548.746 1521.7 548.746 1525.42 Q548.746 1529.17 550.575 1531.32 Q552.427 1533.48 555.575 1533.48 Z" fill="#000000" fill-rule="evenodd" fill-opacity="1" /><path clip-path="url(#clip600)" d="M576.339 1514.29 L594.695 1514.29 L594.695 1518.22 L580.621 1518.22 L580.621 1526.7 Q581.64 1526.35 582.658 1526.19 Q583.677 1526 584.695 1526 Q590.482 1526 593.862 1529.17 Q597.242 1532.34 597.242 1537.76 Q597.242 1543.34 593.769 1546.44 Q590.297 1549.52 583.978 1549.52 Q581.802 1549.52 579.533 1549.15 Q577.288 1548.78 574.881 1548.04 L574.881 1543.34 Q576.964 1544.47 579.186 1545.03 Q581.408 1545.58 583.885 1545.58 Q587.89 1545.58 590.228 1543.48 Q592.566 1541.37 592.566 1537.76 Q592.566 1534.15 590.228 1532.04 Q587.89 1529.94 583.885 1529.94 Q582.01 1529.94 580.135 1530.35 Q578.283 1530.77 576.339 1531.65 L576.339 1514.29 Z" fill="#000000" fill-rule="evenodd" fill-opacity="1" /><path clip-path="url(#clip600)" d="M855.653 1544.91 L871.973 1544.91 L871.973 1548.85 L850.029 1548.85 L850.029 1544.91 Q852.691 1542.16 857.274 1537.53 Q861.88 1532.88 863.061 1531.53 Q865.306 1529.01 866.186 1527.27 Q867.089 1525.51 867.089 1523.82 Q867.089 1521.07 865.144 1519.33 Q863.223 1517.6 860.121 1517.6 Q857.922 1517.6 855.468 1518.36 Q853.038 1519.13 850.26 1520.68 L850.26 1515.95 Q853.084 1514.82 855.538 1514.24 Q857.991 1513.66 860.028 1513.66 Q865.399 1513.66 868.593 1516.35 Q871.788 1519.03 871.788 1523.52 Q871.788 1525.65 870.977 1527.57 Q870.19 1529.47 868.084 1532.07 Q867.505 1532.74 864.403 1535.95 Q861.302 1539.15 855.653 1544.91 Z" fill="#000000" fill-rule="evenodd" fill-opacity="1" /><path clip-path="url(#clip600)" d="M891.788 1517.37 Q888.176 1517.37 886.348 1520.93 Q884.542 1524.47 884.542 1531.6 Q884.542 1538.71 886.348 1542.27 Q888.176 1545.82 891.788 1545.82 Q895.422 1545.82 897.227 1542.27 Q899.056 1538.71 899.056 1531.6 Q899.056 1524.47 897.227 1520.93 Q895.422 1517.37 891.788 1517.37 M891.788 1513.66 Q897.598 1513.66 900.653 1518.27 Q903.732 1522.85 903.732 1531.6 Q903.732 1540.33 900.653 1544.94 Q897.598 1549.52 891.788 1549.52 Q885.977 1549.52 882.899 1544.94 Q879.843 1540.33 879.843 1531.6 Q879.843 1522.85 882.899 1518.27 Q885.977 1513.66 891.788 1513.66 Z" fill="#000000" fill-rule="evenodd" fill-opacity="1" /><path clip-path="url(#clip600)" d="M921.949 1517.37 Q918.338 1517.37 916.51 1520.93 Q914.704 1524.47 914.704 1531.6 Q914.704 1538.71 916.51 1542.27 Q918.338 1545.82 921.949 1545.82 Q925.584 1545.82 927.389 1542.27 Q929.218 1538.71 929.218 1531.6 Q929.218 1524.47 927.389 1520.93 Q925.584 1517.37 921.949 1517.37 M921.949 1513.66 Q927.76 1513.66 930.815 1518.27 Q933.894 1522.85 933.894 1531.6 Q933.894 1540.33 930.815 1544.94 Q927.76 1549.52 921.949 1549.52 Q916.139 1549.52 913.061 1544.94 Q910.005 1540.33 910.005 1531.6 Q910.005 1522.85 913.061 1518.27 Q916.139 1513.66 921.949 1513.66 Z" fill="#000000" fill-rule="evenodd" fill-opacity="1" /><path clip-path="url(#clip600)" d="M952.111 1517.37 Q948.5 1517.37 946.672 1520.93 Q944.866 1524.47 944.866 1531.6 Q944.866 1538.71 946.672 1542.27 Q948.5 1545.82 952.111 1545.82 Q955.746 1545.82 957.551 1542.27 Q959.38 1538.71 959.38 1531.6 Q959.38 1524.47 957.551 1520.93 Q955.746 1517.37 952.111 1517.37 M952.111 1513.66 Q957.921 1513.66 960.977 1518.27 Q964.056 1522.85 964.056 1531.6 Q964.056 1540.33 960.977 1544.94 Q957.921 1549.52 952.111 1549.52 Q946.301 1549.52 943.222 1544.94 Q940.167 1540.33 940.167 1531.6 Q940.167 1522.85 943.222 1518.27 Q946.301 1513.66 952.111 1513.66 Z" fill="#000000" fill-rule="evenodd" fill-opacity="1" /><path clip-path="url(#clip600)" d="M1221.6 1544.91 L1237.92 1544.91 L1237.92 1548.85 L1215.97 1548.85 L1215.97 1544.91 Q1218.64 1542.16 1223.22 1537.53 Q1227.83 1532.88 1229.01 1531.53 Q1231.25 1529.01 1232.13 1527.27 Q1233.03 1525.51 1233.03 1523.82 Q1233.03 1521.07 1231.09 1519.33 Q1229.17 1517.6 1226.07 1517.6 Q1223.87 1517.6 1221.41 1518.36 Q1218.98 1519.13 1216.21 1520.68 L1216.21 1515.95 Q1219.03 1514.82 1221.48 1514.24 Q1223.94 1513.66 1225.97 1513.66 Q1231.34 1513.66 1234.54 1516.35 Q1237.73 1519.03 1237.73 1523.52 Q1237.73 1525.65 1236.92 1527.57 Q1236.14 1529.47 1234.03 1532.07 Q1233.45 1532.74 1230.35 1535.95 Q1227.25 1539.15 1221.6 1544.91 Z" fill="#000000" fill-rule="evenodd" fill-opacity="1" /><path clip-path="url(#clip600)" d="M1257.73 1517.37 Q1254.12 1517.37 1252.29 1520.93 Q1250.49 1524.47 1250.49 1531.6 Q1250.49 1538.71 1252.29 1542.27 Q1254.12 1545.82 1257.73 1545.82 Q1261.37 1545.82 1263.17 1542.27 Q1265 1538.71 1265 1531.6 Q1265 1524.47 1263.17 1520.93 Q1261.37 1517.37 1257.73 1517.37 M1257.73 1513.66 Q1263.54 1513.66 1266.6 1518.27 Q1269.68 1522.85 1269.68 1531.6 Q1269.68 1540.33 1266.6 1544.94 Q1263.54 1549.52 1257.73 1549.52 Q1251.92 1549.52 1248.84 1544.94 Q1245.79 1540.33 1245.79 1531.6 Q1245.79 1522.85 1248.84 1518.27 Q1251.92 1513.66 1257.73 1513.66 Z" fill="#000000" fill-rule="evenodd" fill-opacity="1" /><path clip-path="url(#clip600)" d="M1287.9 1517.37 Q1284.28 1517.37 1282.46 1520.93 Q1280.65 1524.47 1280.65 1531.6 Q1280.65 1538.71 1282.46 1542.27 Q1284.28 1545.82 1287.9 1545.82 Q1291.53 1545.82 1293.34 1542.27 Q1295.16 1538.71 1295.16 1531.6 Q1295.16 1524.47 1293.34 1520.93 Q1291.53 1517.37 1287.9 1517.37 M1287.9 1513.66 Q1293.71 1513.66 1296.76 1518.27 Q1299.84 1522.85 1299.84 1531.6 Q1299.84 1540.33 1296.76 1544.94 Q1293.71 1549.52 1287.9 1549.52 Q1282.09 1549.52 1279.01 1544.94 Q1275.95 1540.33 1275.95 1531.6 Q1275.95 1522.85 1279.01 1518.27 Q1282.09 1513.66 1287.9 1513.66 Z" fill="#000000" fill-rule="evenodd" fill-opacity="1" /><path clip-path="url(#clip600)" d="M1308.1 1514.29 L1326.46 1514.29 L1326.46 1518.22 L1312.39 1518.22 L1312.39 1526.7 Q1313.4 1526.35 1314.42 1526.19 Q1315.44 1526 1316.46 1526 Q1322.25 1526 1325.63 1529.17 Q1329.01 1532.34 1329.01 1537.76 Q1329.01 1543.34 1325.53 1546.44 Q1322.06 1549.52 1315.74 1549.52 Q1313.57 1549.52 1311.3 1549.15 Q1309.05 1548.78 1306.65 1548.04 L1306.65 1543.34 Q1308.73 1544.47 1310.95 1545.03 Q1313.17 1545.58 1315.65 1545.58 Q1319.65 1545.58 1321.99 1543.48 Q1324.33 1541.37 1324.33 1537.76 Q1324.33 1534.15 1321.99 1532.04 Q1319.65 1529.94 1315.65 1529.94 Q1313.77 1529.94 1311.9 1530.35 Q1310.05 1530.77 1308.1 1531.65 L1308.1 1514.29 Z" fill="#000000" fill-rule="evenodd" fill-opacity="1" /><path clip-path="url(#clip600)" d="M1586.55 1544.91 L1602.87 1544.91 L1602.87 1548.85 L1580.93 1548.85 L1580.93 1544.91 Q1583.59 1542.16 1588.17 1537.53 Q1592.78 1532.88 1593.96 1531.53 Q1596.2 1529.01 1597.08 1527.27 Q1597.99 1525.51 1597.99 1523.82 Q1597.99 1521.07 1596.04 1519.33 Q1594.12 1517.6 1591.02 1517.6 Q1588.82 1517.6 1586.37 1518.36 Q1583.93 1519.13 1581.16 1520.68 L1581.16 1515.95 Q1583.98 1514.82 1586.43 1514.24 Q1588.89 1513.66 1590.93 1513.66 Q1596.3 1513.66 1599.49 1516.35 Q1602.68 1519.03 1602.68 1523.52 Q1602.68 1525.65 1601.87 1527.57 Q1601.09 1529.47 1598.98 1532.07 Q1598.4 1532.74 1595.3 1535.95 Q1592.2 1539.15 1586.55 1544.91 Z" fill="#000000" fill-rule="evenodd" fill-opacity="1" /><path clip-path="url(#clip600)" d="M1622.68 1517.37 Q1619.07 1517.37 1617.24 1520.93 Q1615.44 1524.47 1615.44 1531.6 Q1615.44 1538.71 1617.24 1542.27 Q1619.07 1545.82 1622.68 1545.82 Q1626.32 1545.82 1628.12 1542.27 Q1629.95 1538.71 1629.95 1531.6 Q1629.95 1524.47 1628.12 1520.93 Q1626.32 1517.37 1622.68 1517.37 M1622.68 1513.66 Q1628.49 1513.66 1631.55 1518.27 Q1634.63 1522.85 1634.63 1531.6 Q1634.63 1540.33 1631.55 1544.94 Q1628.49 1549.52 1622.68 1549.52 Q1616.87 1549.52 1613.8 1544.94 Q1610.74 1540.33 1610.74 1531.6 Q1610.74 1522.85 1613.8 1518.27 Q1616.87 1513.66 1622.68 1513.66 Z" fill="#000000" fill-rule="evenodd" fill-opacity="1" /><path clip-path="url(#clip600)" d="M1643.66 1544.91 L1651.3 1544.91 L1651.3 1518.55 L1642.99 1520.21 L1642.99 1515.95 L1651.25 1514.29 L1655.92 1514.29 L1655.92 1544.91 L1663.56 1544.91 L1663.56 1548.85 L1643.66 1548.85 L1643.66 1544.91 Z" fill="#000000" fill-rule="evenodd" fill-opacity="1" /><path clip-path="url(#clip600)" d="M1683.01 1517.37 Q1679.4 1517.37 1677.57 1520.93 Q1675.76 1524.47 1675.76 1531.6 Q1675.76 1538.71 1677.57 1542.27 Q1679.4 1545.82 1683.01 1545.82 Q1686.64 1545.82 1688.45 1542.27 Q1690.28 1538.71 1690.28 1531.6 Q1690.28 1524.47 1688.45 1520.93 Q1686.64 1517.37 1683.01 1517.37 M1683.01 1513.66 Q1688.82 1513.66 1691.87 1518.27 Q1694.95 1522.85 1694.95 1531.6 Q1694.95 1540.33 1691.87 1544.94 Q1688.82 1549.52 1683.01 1549.52 Q1677.2 1549.52 1674.12 1544.94 Q1671.06 1540.33 1671.06 1531.6 Q1671.06 1522.85 1674.12 1518.27 Q1677.2 1513.66 1683.01 1513.66 Z" fill="#000000" fill-rule="evenodd" fill-opacity="1" /><path clip-path="url(#clip600)" d="M1952.5 1544.91 L1968.82 1544.91 L1968.82 1548.85 L1946.87 1548.85 L1946.87 1544.91 Q1949.53 1542.16 1954.12 1537.53 Q1958.72 1532.88 1959.9 1531.53 Q1962.15 1529.01 1963.03 1527.27 Q1963.93 1525.51 1963.93 1523.82 Q1963.93 1521.07 1961.99 1519.33 Q1960.07 1517.6 1956.96 1517.6 Q1954.76 1517.6 1952.31 1518.36 Q1949.88 1519.13 1947.1 1520.68 L1947.1 1515.95 Q1949.93 1514.82 1952.38 1514.24 Q1954.83 1513.66 1956.87 1513.66 Q1962.24 1513.66 1965.44 1516.35 Q1968.63 1519.03 1968.63 1523.52 Q1968.63 1525.65 1967.82 1527.57 Q1967.03 1529.47 1964.93 1532.07 Q1964.35 1532.74 1961.25 1535.95 Q1958.14 1539.15 1952.5 1544.91 Z" fill="#000000" fill-rule="evenodd" fill-opacity="1" /><path clip-path="url(#clip600)" d="M1988.63 1517.37 Q1985.02 1517.37 1983.19 1520.93 Q1981.39 1524.47 1981.39 1531.6 Q1981.39 1538.71 1983.19 1542.27 Q1985.02 1545.82 1988.63 1545.82 Q1992.26 1545.82 1994.07 1542.27 Q1995.9 1538.71 1995.9 1531.6 Q1995.9 1524.47 1994.07 1520.93 Q1992.26 1517.37 1988.63 1517.37 M1988.63 1513.66 Q1994.44 1513.66 1997.5 1518.27 Q2000.57 1522.85 2000.57 1531.6 Q2000.57 1540.33 1997.5 1544.94 Q1994.44 1549.52 1988.63 1549.52 Q1982.82 1549.52 1979.74 1544.94 Q1976.69 1540.33 1976.69 1531.6 Q1976.69 1522.85 1979.74 1518.27 Q1982.82 1513.66 1988.63 1513.66 Z" fill="#000000" fill-rule="evenodd" fill-opacity="1" /><path clip-path="url(#clip600)" d="M2009.6 1544.91 L2017.24 1544.91 L2017.24 1518.55 L2008.93 1520.21 L2008.93 1515.95 L2017.2 1514.29 L2021.87 1514.29 L2021.87 1544.91 L2029.51 1544.91 L2029.51 1548.85 L2009.6 1548.85 L2009.6 1544.91 Z" fill="#000000" fill-rule="evenodd" fill-opacity="1" /><path clip-path="url(#clip600)" d="M2039 1514.29 L2057.36 1514.29 L2057.36 1518.22 L2043.28 1518.22 L2043.28 1526.7 Q2044.3 1526.35 2045.32 1526.19 Q2046.34 1526 2047.36 1526 Q2053.14 1526 2056.52 1529.17 Q2059.9 1532.34 2059.9 1537.76 Q2059.9 1543.34 2056.43 1546.44 Q2052.96 1549.52 2046.64 1549.52 Q2044.46 1549.52 2042.19 1549.15 Q2039.95 1548.78 2037.54 1548.04 L2037.54 1543.34 Q2039.63 1544.47 2041.85 1545.03 Q2044.07 1545.58 2046.55 1545.58 Q2050.55 1545.58 2052.89 1543.48 Q2055.23 1541.37 2055.23 1537.76 Q2055.23 1534.15 2052.89 1532.04 Q2050.55 1529.94 2046.55 1529.94 Q2044.67 1529.94 2042.8 1530.35 Q2040.94 1530.77 2039 1531.65 L2039 1514.29 Z" fill="#000000" fill-rule="evenodd" fill-opacity="1" /><polyline clip-path="url(#clip602)" style="stroke:#000000; stroke-linecap:butt; stroke-linejoin:round; stroke-width:2; stroke-opacity:0.1; fill:none" points="
  338.404,1447.87 2352.76,1447.87 
  "/>
<polyline clip-path="url(#clip602)" style="stroke:#000000; stroke-linecap:butt; stroke-linejoin:round; stroke-width:2; stroke-opacity:0.1; fill:none" points="
  338.404,1212.46 2352.76,1212.46 
  "/>
<polyline clip-path="url(#clip602)" style="stroke:#000000; stroke-linecap:butt; stroke-linejoin:round; stroke-width:2; stroke-opacity:0.1; fill:none" points="
  338.404,977.056 2352.76,977.056 
  "/>
<polyline clip-path="url(#clip602)" style="stroke:#000000; stroke-linecap:butt; stroke-linejoin:round; stroke-width:2; stroke-opacity:0.1; fill:none" points="
  338.404,741.647 2352.76,741.647 
  "/>
<polyline clip-path="url(#clip602)" style="stroke:#000000; stroke-linecap:butt; stroke-linejoin:round; stroke-width:2; stroke-opacity:0.1; fill:none" points="
  338.404,506.238 2352.76,506.238 
  "/>
<polyline clip-path="url(#clip602)" style="stroke:#000000; stroke-linecap:butt; stroke-linejoin:round; stroke-width:2; stroke-opacity:0.1; fill:none" points="
  338.404,270.829 2352.76,270.829 
  "/>
<polyline clip-path="url(#clip600)" style="stroke:#000000; stroke-linecap:butt; stroke-linejoin:round; stroke-width:4; stroke-opacity:1; fill:none" points="
  338.404,1486.45 338.404,123.472 
  "/>
<polyline clip-path="url(#clip600)" style="stroke:#000000; stroke-linecap:butt; stroke-linejoin:round; stroke-width:4; stroke-opacity:1; fill:none" points="
  338.404,1447.87 357.302,1447.87 
  "/>
<polyline clip-path="url(#clip600)" style="stroke:#000000; stroke-linecap:butt; stroke-linejoin:round; stroke-width:4; stroke-opacity:1; fill:none" points="
  338.404,1212.46 357.302,1212.46 
  "/>
<polyline clip-path="url(#clip600)" style="stroke:#000000; stroke-linecap:butt; stroke-linejoin:round; stroke-width:4; stroke-opacity:1; fill:none" points="
  338.404,977.056 357.302,977.056 
  "/>
<polyline clip-path="url(#clip600)" style="stroke:#000000; stroke-linecap:butt; stroke-linejoin:round; stroke-width:4; stroke-opacity:1; fill:none" points="
  338.404,741.647 357.302,741.647 
  "/>
<polyline clip-path="url(#clip600)" style="stroke:#000000; stroke-linecap:butt; stroke-linejoin:round; stroke-width:4; stroke-opacity:1; fill:none" points="
  338.404,506.238 357.302,506.238 
  "/>
<polyline clip-path="url(#clip600)" style="stroke:#000000; stroke-linecap:butt; stroke-linejoin:round; stroke-width:4; stroke-opacity:1; fill:none" points="
  338.404,270.829 357.302,270.829 
  "/>
<path clip-path="url(#clip600)" d="M290.46 1433.67 Q286.849 1433.67 285.02 1437.24 Q283.215 1440.78 283.215 1447.91 Q283.215 1455.01 285.02 1458.58 Q286.849 1462.12 290.46 1462.12 Q294.094 1462.12 295.9 1458.58 Q297.729 1455.01 297.729 1447.91 Q297.729 1440.78 295.9 1437.24 Q294.094 1433.67 290.46 1433.67 M290.46 1429.97 Q296.27 1429.97 299.326 1434.57 Q302.404 1439.16 302.404 1447.91 Q302.404 1456.63 299.326 1461.24 Q296.27 1465.82 290.46 1465.82 Q284.65 1465.82 281.571 1461.24 Q278.516 1456.63 278.516 1447.91 Q278.516 1439.16 281.571 1434.57 Q284.65 1429.97 290.46 1429.97 Z" fill="#000000" fill-rule="evenodd" fill-opacity="1" /><path clip-path="url(#clip600)" d="M117.825 1232.26 L125.464 1232.26 L125.464 1205.89 L117.154 1207.56 L117.154 1203.3 L125.418 1201.63 L130.093 1201.63 L130.093 1232.26 L137.732 1232.26 L137.732 1236.19 L117.825 1236.19 L117.825 1232.26 Z" fill="#000000" fill-rule="evenodd" fill-opacity="1" /><path clip-path="url(#clip600)" d="M147.177 1230.31 L152.061 1230.31 L152.061 1236.19 L147.177 1236.19 L147.177 1230.31 Z" fill="#000000" fill-rule="evenodd" fill-opacity="1" /><path clip-path="url(#clip600)" d="M172.246 1204.71 Q168.635 1204.71 166.806 1208.28 Q165.001 1211.82 165.001 1218.95 Q165.001 1226.05 166.806 1229.62 Q168.635 1233.16 172.246 1233.16 Q175.88 1233.16 177.686 1229.62 Q179.514 1226.05 179.514 1218.95 Q179.514 1211.82 177.686 1208.28 Q175.88 1204.71 172.246 1204.71 M172.246 1201.01 Q178.056 1201.01 181.112 1205.61 Q184.19 1210.2 184.19 1218.95 Q184.19 1227.67 181.112 1232.28 Q178.056 1236.86 172.246 1236.86 Q166.436 1236.86 163.357 1232.28 Q160.302 1227.67 160.302 1218.95 Q160.302 1210.2 163.357 1205.61 Q166.436 1201.01 172.246 1201.01 Z" fill="#000000" fill-rule="evenodd" fill-opacity="1" /><path clip-path="url(#clip600)" d="M220.579 1210.73 L210 1221.35 L220.579 1231.93 L217.824 1234.73 L207.199 1224.11 L196.575 1234.73 L193.843 1231.93 L204.399 1221.35 L193.843 1210.73 L196.575 1207.93 L207.199 1218.55 L217.824 1207.93 L220.579 1210.73 Z" fill="#000000" fill-rule="evenodd" fill-opacity="1" /><path clip-path="url(#clip600)" d="M232.94 1232.26 L240.579 1232.26 L240.579 1205.89 L232.269 1207.56 L232.269 1203.3 L240.533 1201.63 L245.209 1201.63 L245.209 1232.26 L252.847 1232.26 L252.847 1236.19 L232.94 1236.19 L232.94 1232.26 Z" fill="#000000" fill-rule="evenodd" fill-opacity="1" /><path clip-path="url(#clip600)" d="M272.292 1204.71 Q268.681 1204.71 266.852 1208.28 Q265.046 1211.82 265.046 1218.95 Q265.046 1226.05 266.852 1229.62 Q268.681 1233.16 272.292 1233.16 Q275.926 1233.16 277.732 1229.62 Q279.56 1226.05 279.56 1218.95 Q279.56 1211.82 277.732 1208.28 Q275.926 1204.71 272.292 1204.71 M272.292 1201.01 Q278.102 1201.01 281.157 1205.61 Q284.236 1210.2 284.236 1218.95 Q284.236 1227.67 281.157 1232.28 Q278.102 1236.86 272.292 1236.86 Q266.482 1236.86 263.403 1232.28 Q260.347 1227.67 260.347 1218.95 Q260.347 1210.2 263.403 1205.61 Q266.482 1201.01 272.292 1201.01 Z" fill="#000000" fill-rule="evenodd" fill-opacity="1" /><path clip-path="url(#clip600)" d="M285.421 1180.7 L300.336 1180.7 L300.336 1183.9 L288.9 1183.9 L288.9 1190.78 Q289.728 1190.5 290.556 1190.37 Q291.383 1190.22 292.211 1190.22 Q296.913 1190.22 299.658 1192.79 Q302.404 1195.37 302.404 1199.77 Q302.404 1204.31 299.583 1206.83 Q296.762 1209.33 291.628 1209.33 Q289.86 1209.33 288.016 1209.03 Q286.192 1208.73 284.236 1208.12 L284.236 1204.31 Q285.929 1205.23 287.734 1205.68 Q289.54 1206.13 291.552 1206.13 Q294.806 1206.13 296.706 1204.42 Q298.605 1202.71 298.605 1199.77 Q298.605 1196.84 296.706 1195.13 Q294.806 1193.42 291.552 1193.42 Q290.029 1193.42 288.505 1193.75 Q287.001 1194.09 285.421 1194.81 L285.421 1180.7 Z" fill="#000000" fill-rule="evenodd" fill-opacity="1" /><path clip-path="url(#clip600)" d="M121.043 996.848 L137.362 996.848 L137.362 1000.78 L115.418 1000.78 L115.418 996.848 Q118.08 994.093 122.663 989.464 Q127.269 984.811 128.45 983.468 Q130.695 980.945 131.575 979.209 Q132.478 977.45 132.478 975.76 Q132.478 973.006 130.533 971.269 Q128.612 969.533 125.51 969.533 Q123.311 969.533 120.857 970.297 Q118.427 971.061 115.649 972.612 L115.649 967.89 Q118.473 966.756 120.927 966.177 Q123.38 965.598 125.418 965.598 Q130.788 965.598 133.982 968.283 Q137.177 970.969 137.177 975.459 Q137.177 977.589 136.367 979.51 Q135.579 981.408 133.473 984.001 Q132.894 984.672 129.792 987.89 Q126.691 991.084 121.043 996.848 Z" fill="#000000" fill-rule="evenodd" fill-opacity="1" /><path clip-path="url(#clip600)" d="M147.177 994.904 L152.061 994.904 L152.061 1000.78 L147.177 1000.78 L147.177 994.904 Z" fill="#000000" fill-rule="evenodd" fill-opacity="1" /><path clip-path="url(#clip600)" d="M172.246 969.302 Q168.635 969.302 166.806 972.867 Q165.001 976.408 165.001 983.538 Q165.001 990.644 166.806 994.209 Q168.635 997.751 172.246 997.751 Q175.88 997.751 177.686 994.209 Q179.514 990.644 179.514 983.538 Q179.514 976.408 177.686 972.867 Q175.88 969.302 172.246 969.302 M172.246 965.598 Q178.056 965.598 181.112 970.205 Q184.19 974.788 184.19 983.538 Q184.19 992.265 181.112 996.871 Q178.056 1001.45 172.246 1001.45 Q166.436 1001.45 163.357 996.871 Q160.302 992.265 160.302 983.538 Q160.302 974.788 163.357 970.205 Q166.436 965.598 172.246 965.598 Z" fill="#000000" fill-rule="evenodd" fill-opacity="1" /><path clip-path="url(#clip600)" d="M220.579 975.32 L210 985.945 L220.579 996.524 L217.824 999.325 L207.199 988.7 L196.575 999.325 L193.843 996.524 L204.399 985.945 L193.843 975.32 L196.575 972.519 L207.199 983.144 L217.824 972.519 L220.579 975.32 Z" fill="#000000" fill-rule="evenodd" fill-opacity="1" /><path clip-path="url(#clip600)" d="M232.94 996.848 L240.579 996.848 L240.579 970.482 L232.269 972.149 L232.269 967.89 L240.533 966.223 L245.209 966.223 L245.209 996.848 L252.847 996.848 L252.847 1000.78 L232.94 1000.78 L232.94 996.848 Z" fill="#000000" fill-rule="evenodd" fill-opacity="1" /><path clip-path="url(#clip600)" d="M272.292 969.302 Q268.681 969.302 266.852 972.867 Q265.046 976.408 265.046 983.538 Q265.046 990.644 266.852 994.209 Q268.681 997.751 272.292 997.751 Q275.926 997.751 277.732 994.209 Q279.56 990.644 279.56 983.538 Q279.56 976.408 277.732 972.867 Q275.926 969.302 272.292 969.302 M272.292 965.598 Q278.102 965.598 281.157 970.205 Q284.236 974.788 284.236 983.538 Q284.236 992.265 281.157 996.871 Q278.102 1001.45 272.292 1001.45 Q266.482 1001.45 263.403 996.871 Q260.347 992.265 260.347 983.538 Q260.347 974.788 263.403 970.205 Q266.482 965.598 272.292 965.598 Z" fill="#000000" fill-rule="evenodd" fill-opacity="1" /><path clip-path="url(#clip600)" d="M285.421 945.293 L300.336 945.293 L300.336 948.49 L288.9 948.49 L288.9 955.374 Q289.728 955.092 290.556 954.96 Q291.383 954.81 292.211 954.81 Q296.913 954.81 299.658 957.386 Q302.404 959.963 302.404 964.364 Q302.404 968.897 299.583 971.417 Q296.762 973.918 291.628 973.918 Q289.86 973.918 288.016 973.617 Q286.192 973.316 284.236 972.715 L284.236 968.897 Q285.929 969.818 287.734 970.269 Q289.54 970.721 291.552 970.721 Q294.806 970.721 296.706 969.009 Q298.605 967.298 298.605 964.364 Q298.605 961.43 296.706 959.718 Q294.806 958.007 291.552 958.007 Q290.029 958.007 288.505 958.345 Q287.001 958.684 285.421 959.399 L285.421 945.293 Z" fill="#000000" fill-rule="evenodd" fill-opacity="1" /><path clip-path="url(#clip600)" d="M131.181 746.74 Q134.538 747.458 136.413 749.726 Q138.311 751.995 138.311 755.328 Q138.311 760.444 134.792 763.245 Q131.274 766.046 124.793 766.046 Q122.617 766.046 120.302 765.606 Q118.01 765.189 115.556 764.333 L115.556 759.819 Q117.501 760.953 119.816 761.532 Q122.13 762.111 124.654 762.111 Q129.052 762.111 131.343 760.374 Q133.658 758.638 133.658 755.328 Q133.658 752.273 131.505 750.56 Q129.376 748.824 125.556 748.824 L121.529 748.824 L121.529 744.981 L125.742 744.981 Q129.191 744.981 131.019 743.615 Q132.848 742.226 132.848 739.634 Q132.848 736.972 130.95 735.56 Q129.075 734.125 125.556 734.125 Q123.635 734.125 121.436 734.541 Q119.237 734.958 116.598 735.838 L116.598 731.671 Q119.26 730.93 121.575 730.56 Q123.913 730.189 125.973 730.189 Q131.297 730.189 134.399 732.62 Q137.501 735.027 137.501 739.148 Q137.501 742.018 135.857 744.009 Q134.214 745.976 131.181 746.74 Z" fill="#000000" fill-rule="evenodd" fill-opacity="1" /><path clip-path="url(#clip600)" d="M147.177 759.495 L152.061 759.495 L152.061 765.374 L147.177 765.374 L147.177 759.495 Z" fill="#000000" fill-rule="evenodd" fill-opacity="1" /><path clip-path="url(#clip600)" d="M172.246 733.893 Q168.635 733.893 166.806 737.458 Q165.001 741 165.001 748.129 Q165.001 755.236 166.806 758.8 Q168.635 762.342 172.246 762.342 Q175.88 762.342 177.686 758.8 Q179.514 755.236 179.514 748.129 Q179.514 741 177.686 737.458 Q175.88 733.893 172.246 733.893 M172.246 730.189 Q178.056 730.189 181.112 734.796 Q184.19 739.379 184.19 748.129 Q184.19 756.856 181.112 761.462 Q178.056 766.046 172.246 766.046 Q166.436 766.046 163.357 761.462 Q160.302 756.856 160.302 748.129 Q160.302 739.379 163.357 734.796 Q166.436 730.189 172.246 730.189 Z" fill="#000000" fill-rule="evenodd" fill-opacity="1" /><path clip-path="url(#clip600)" d="M220.579 739.912 L210 750.537 L220.579 761.115 L217.824 763.916 L207.199 753.291 L196.575 763.916 L193.843 761.115 L204.399 750.537 L193.843 739.912 L196.575 737.111 L207.199 747.736 L217.824 737.111 L220.579 739.912 Z" fill="#000000" fill-rule="evenodd" fill-opacity="1" /><path clip-path="url(#clip600)" d="M232.94 761.439 L240.579 761.439 L240.579 735.074 L232.269 736.74 L232.269 732.481 L240.533 730.814 L245.209 730.814 L245.209 761.439 L252.847 761.439 L252.847 765.374 L232.94 765.374 L232.94 761.439 Z" fill="#000000" fill-rule="evenodd" fill-opacity="1" /><path clip-path="url(#clip600)" d="M272.292 733.893 Q268.681 733.893 266.852 737.458 Q265.046 741 265.046 748.129 Q265.046 755.236 266.852 758.8 Q268.681 762.342 272.292 762.342 Q275.926 762.342 277.732 758.8 Q279.56 755.236 279.56 748.129 Q279.56 741 277.732 737.458 Q275.926 733.893 272.292 733.893 M272.292 730.189 Q278.102 730.189 281.157 734.796 Q284.236 739.379 284.236 748.129 Q284.236 756.856 281.157 761.462 Q278.102 766.046 272.292 766.046 Q266.482 766.046 263.403 761.462 Q260.347 756.856 260.347 748.129 Q260.347 739.379 263.403 734.796 Q266.482 730.189 272.292 730.189 Z" fill="#000000" fill-rule="evenodd" fill-opacity="1" /><path clip-path="url(#clip600)" d="M285.421 709.884 L300.336 709.884 L300.336 713.081 L288.9 713.081 L288.9 719.965 Q289.728 719.683 290.556 719.551 Q291.383 719.401 292.211 719.401 Q296.913 719.401 299.658 721.977 Q302.404 724.554 302.404 728.955 Q302.404 733.488 299.583 736.008 Q296.762 738.509 291.628 738.509 Q289.86 738.509 288.016 738.209 Q286.192 737.908 284.236 737.306 L284.236 733.488 Q285.929 734.409 287.734 734.861 Q289.54 735.312 291.552 735.312 Q294.806 735.312 296.706 733.601 Q298.605 731.889 298.605 728.955 Q298.605 726.021 296.706 724.31 Q294.806 722.598 291.552 722.598 Q290.029 722.598 288.505 722.937 Q287.001 723.275 285.421 723.99 L285.421 709.884 Z" fill="#000000" fill-rule="evenodd" fill-opacity="1" /><path clip-path="url(#clip600)" d="M129.862 499.48 L118.056 517.929 L129.862 517.929 L129.862 499.48 M128.635 495.406 L134.515 495.406 L134.515 517.929 L139.445 517.929 L139.445 521.818 L134.515 521.818 L134.515 529.966 L129.862 529.966 L129.862 521.818 L114.26 521.818 L114.26 517.304 L128.635 495.406 Z" fill="#000000" fill-rule="evenodd" fill-opacity="1" /><path clip-path="url(#clip600)" d="M147.177 524.086 L152.061 524.086 L152.061 529.966 L147.177 529.966 L147.177 524.086 Z" fill="#000000" fill-rule="evenodd" fill-opacity="1" /><path clip-path="url(#clip600)" d="M172.246 498.484 Q168.635 498.484 166.806 502.049 Q165.001 505.591 165.001 512.72 Q165.001 519.827 166.806 523.392 Q168.635 526.933 172.246 526.933 Q175.88 526.933 177.686 523.392 Q179.514 519.827 179.514 512.72 Q179.514 505.591 177.686 502.049 Q175.88 498.484 172.246 498.484 M172.246 494.781 Q178.056 494.781 181.112 499.387 Q184.19 503.97 184.19 512.72 Q184.19 521.447 181.112 526.054 Q178.056 530.637 172.246 530.637 Q166.436 530.637 163.357 526.054 Q160.302 521.447 160.302 512.72 Q160.302 503.97 163.357 499.387 Q166.436 494.781 172.246 494.781 Z" fill="#000000" fill-rule="evenodd" fill-opacity="1" /><path clip-path="url(#clip600)" d="M220.579 504.503 L210 515.128 L220.579 525.706 L217.824 528.507 L207.199 517.882 L196.575 528.507 L193.843 525.706 L204.399 515.128 L193.843 504.503 L196.575 501.702 L207.199 512.327 L217.824 501.702 L220.579 504.503 Z" fill="#000000" fill-rule="evenodd" fill-opacity="1" /><path clip-path="url(#clip600)" d="M232.94 526.03 L240.579 526.03 L240.579 499.665 L232.269 501.332 L232.269 497.072 L240.533 495.406 L245.209 495.406 L245.209 526.03 L252.847 526.03 L252.847 529.966 L232.94 529.966 L232.94 526.03 Z" fill="#000000" fill-rule="evenodd" fill-opacity="1" /><path clip-path="url(#clip600)" d="M272.292 498.484 Q268.681 498.484 266.852 502.049 Q265.046 505.591 265.046 512.72 Q265.046 519.827 266.852 523.392 Q268.681 526.933 272.292 526.933 Q275.926 526.933 277.732 523.392 Q279.56 519.827 279.56 512.72 Q279.56 505.591 277.732 502.049 Q275.926 498.484 272.292 498.484 M272.292 494.781 Q278.102 494.781 281.157 499.387 Q284.236 503.97 284.236 512.72 Q284.236 521.447 281.157 526.054 Q278.102 530.637 272.292 530.637 Q266.482 530.637 263.403 526.054 Q260.347 521.447 260.347 512.72 Q260.347 503.97 263.403 499.387 Q266.482 494.781 272.292 494.781 Z" fill="#000000" fill-rule="evenodd" fill-opacity="1" /><path clip-path="url(#clip600)" d="M285.421 474.475 L300.336 474.475 L300.336 477.673 L288.9 477.673 L288.9 484.556 Q289.728 484.274 290.556 484.142 Q291.383 483.992 292.211 483.992 Q296.913 483.992 299.658 486.569 Q302.404 489.145 302.404 493.546 Q302.404 498.079 299.583 500.599 Q296.762 503.101 291.628 503.101 Q289.86 503.101 288.016 502.8 Q286.192 502.499 284.236 501.897 L284.236 498.079 Q285.929 499.001 287.734 499.452 Q289.54 499.903 291.552 499.903 Q294.806 499.903 296.706 498.192 Q298.605 496.48 298.605 493.546 Q298.605 490.612 296.706 488.901 Q294.806 487.189 291.552 487.189 Q290.029 487.189 288.505 487.528 Q287.001 487.866 285.421 488.581 L285.421 474.475 Z" fill="#000000" fill-rule="evenodd" fill-opacity="1" /><path clip-path="url(#clip600)" d="M117.061 259.997 L135.417 259.997 L135.417 263.932 L121.343 263.932 L121.343 272.404 Q122.362 272.057 123.38 271.895 Q124.399 271.71 125.418 271.71 Q131.205 271.71 134.584 274.881 Q137.964 278.052 137.964 283.469 Q137.964 289.048 134.492 292.15 Q131.019 295.228 124.7 295.228 Q122.524 295.228 120.255 294.858 Q118.01 294.487 115.603 293.747 L115.603 289.048 Q117.686 290.182 119.908 290.737 Q122.13 291.293 124.607 291.293 Q128.612 291.293 130.95 289.187 Q133.288 287.08 133.288 283.469 Q133.288 279.858 130.95 277.751 Q128.612 275.645 124.607 275.645 Q122.732 275.645 120.857 276.062 Q119.006 276.478 117.061 277.358 L117.061 259.997 Z" fill="#000000" fill-rule="evenodd" fill-opacity="1" /><path clip-path="url(#clip600)" d="M147.177 288.677 L152.061 288.677 L152.061 294.557 L147.177 294.557 L147.177 288.677 Z" fill="#000000" fill-rule="evenodd" fill-opacity="1" /><path clip-path="url(#clip600)" d="M172.246 263.076 Q168.635 263.076 166.806 266.64 Q165.001 270.182 165.001 277.312 Q165.001 284.418 166.806 287.983 Q168.635 291.525 172.246 291.525 Q175.88 291.525 177.686 287.983 Q179.514 284.418 179.514 277.312 Q179.514 270.182 177.686 266.64 Q175.88 263.076 172.246 263.076 M172.246 259.372 Q178.056 259.372 181.112 263.978 Q184.19 268.562 184.19 277.312 Q184.19 286.038 181.112 290.645 Q178.056 295.228 172.246 295.228 Q166.436 295.228 163.357 290.645 Q160.302 286.038 160.302 277.312 Q160.302 268.562 163.357 263.978 Q166.436 259.372 172.246 259.372 Z" fill="#000000" fill-rule="evenodd" fill-opacity="1" /><path clip-path="url(#clip600)" d="M220.579 269.094 L210 279.719 L220.579 290.298 L217.824 293.099 L207.199 282.474 L196.575 293.099 L193.843 290.298 L204.399 279.719 L193.843 269.094 L196.575 266.293 L207.199 276.918 L217.824 266.293 L220.579 269.094 Z" fill="#000000" fill-rule="evenodd" fill-opacity="1" /><path clip-path="url(#clip600)" d="M232.94 290.622 L240.579 290.622 L240.579 264.256 L232.269 265.923 L232.269 261.664 L240.533 259.997 L245.209 259.997 L245.209 290.622 L252.847 290.622 L252.847 294.557 L232.94 294.557 L232.94 290.622 Z" fill="#000000" fill-rule="evenodd" fill-opacity="1" /><path clip-path="url(#clip600)" d="M272.292 263.076 Q268.681 263.076 266.852 266.64 Q265.046 270.182 265.046 277.312 Q265.046 284.418 266.852 287.983 Q268.681 291.525 272.292 291.525 Q275.926 291.525 277.732 287.983 Q279.56 284.418 279.56 277.312 Q279.56 270.182 277.732 266.64 Q275.926 263.076 272.292 263.076 M272.292 259.372 Q278.102 259.372 281.157 263.978 Q284.236 268.562 284.236 277.312 Q284.236 286.038 281.157 290.645 Q278.102 295.228 272.292 295.228 Q266.482 295.228 263.403 290.645 Q260.347 286.038 260.347 277.312 Q260.347 268.562 263.403 263.978 Q266.482 259.372 272.292 259.372 Z" fill="#000000" fill-rule="evenodd" fill-opacity="1" /><path clip-path="url(#clip600)" d="M285.421 239.066 L300.336 239.066 L300.336 242.264 L288.9 242.264 L288.9 249.147 Q289.728 248.865 290.556 248.734 Q291.383 248.583 292.211 248.583 Q296.913 248.583 299.658 251.16 Q302.404 253.737 302.404 258.138 Q302.404 262.67 299.583 265.19 Q296.762 267.692 291.628 267.692 Q289.86 267.692 288.016 267.391 Q286.192 267.09 284.236 266.488 L284.236 262.67 Q285.929 263.592 287.734 264.043 Q289.54 264.495 291.552 264.495 Q294.806 264.495 296.706 262.783 Q298.605 261.072 298.605 258.138 Q298.605 255.204 296.706 253.492 Q294.806 251.781 291.552 251.781 Q290.029 251.781 288.505 252.119 Q287.001 252.458 285.421 253.172 L285.421 239.066 Z" fill="#000000" fill-rule="evenodd" fill-opacity="1" /><path clip-path="url(#clip600)" d="M20.1444 905.268 L26.9239 905.268 Q23.9002 908.514 22.4043 912.206 Q20.9083 915.867 20.9083 920.004 Q20.9083 928.152 25.9054 932.481 Q30.8707 936.81 40.2919 936.81 Q49.6813 936.81 54.6784 932.481 Q59.6436 928.152 59.6436 920.004 Q59.6436 915.867 58.1477 912.206 Q56.6518 908.514 53.6281 905.268 L60.3439 905.268 Q62.6355 908.641 63.7814 912.429 Q64.9272 916.185 64.9272 920.386 Q64.9272 931.176 58.3387 937.383 Q51.7183 943.589 40.2919 943.589 Q28.8336 943.589 22.2451 937.383 Q15.6248 931.176 15.6248 920.386 Q15.6248 916.121 16.7706 912.365 Q17.8846 908.578 20.1444 905.268 Z" fill="#000000" fill-rule="evenodd" fill-opacity="1" /><path clip-path="url(#clip600)" d="M32.4621 881.778 Q32.4621 886.489 36.1542 889.226 Q39.8145 891.963 46.212 891.963 Q52.6095 891.963 56.3017 889.258 Q59.9619 886.521 59.9619 881.778 Q59.9619 877.099 56.2698 874.362 Q52.5777 871.625 46.212 871.625 Q39.8781 871.625 36.186 874.362 Q32.4621 877.099 32.4621 881.778 M27.4968 881.778 Q27.4968 874.139 32.4621 869.779 Q37.4273 865.418 46.212 865.418 Q54.9649 865.418 59.9619 869.779 Q64.9272 874.139 64.9272 881.778 Q64.9272 889.449 59.9619 893.809 Q54.9649 898.138 46.212 898.138 Q37.4273 898.138 32.4621 893.809 Q27.4968 889.449 27.4968 881.778 Z" fill="#000000" fill-rule="evenodd" fill-opacity="1" /><path clip-path="url(#clip600)" d="M49.9359 856.315 L28.3562 856.315 L28.3562 850.459 L49.7131 850.459 Q54.7739 850.459 57.3202 848.486 Q59.8346 846.512 59.8346 842.565 Q59.8346 837.823 56.8109 835.086 Q53.7872 832.317 48.5673 832.317 L28.3562 832.317 L28.3562 826.46 L64.0042 826.46 L64.0042 832.317 L58.5296 832.317 Q61.7762 834.449 63.3676 837.282 Q64.9272 840.083 64.9272 843.807 Q64.9272 849.95 61.1078 853.132 Q57.2883 856.315 49.9359 856.315 M27.4968 841.579 L27.4968 841.579 Z" fill="#000000" fill-rule="evenodd" fill-opacity="1" /><path clip-path="url(#clip600)" d="M42.4881 784.765 L64.0042 784.765 L64.0042 790.621 L42.679 790.621 Q37.6183 790.621 35.1038 792.595 Q32.5894 794.568 32.5894 798.515 Q32.5894 803.257 35.6131 805.994 Q38.6368 808.732 43.8567 808.732 L64.0042 808.732 L64.0042 814.62 L28.3562 814.62 L28.3562 808.732 L33.8944 808.732 Q30.6797 806.631 29.0883 803.798 Q27.4968 800.934 27.4968 797.21 Q27.4968 791.067 31.3163 787.916 Q35.1038 784.765 42.4881 784.765 Z" fill="#000000" fill-rule="evenodd" fill-opacity="1" /><path clip-path="url(#clip600)" d="M18.2347 767.291 L28.3562 767.291 L28.3562 755.228 L32.9077 755.228 L32.9077 767.291 L52.2594 767.291 Q56.6199 767.291 57.8613 766.113 Q59.1026 764.904 59.1026 761.244 L59.1026 755.228 L64.0042 755.228 L64.0042 761.244 Q64.0042 768.023 61.4897 770.601 Q58.9434 773.179 52.2594 773.179 L32.9077 773.179 L32.9077 777.476 L28.3562 777.476 L28.3562 773.179 L18.2347 773.179 L18.2347 767.291 Z" fill="#000000" fill-rule="evenodd" fill-opacity="1" /><path clip-path="url(#clip600)" d="M16.4842 737.117 L16.4842 731.707 L70.0516 748.257 L70.0516 753.668 L16.4842 737.117 Z" fill="#000000" fill-rule="evenodd" fill-opacity="1" /><path clip-path="url(#clip600)" d="M67.3143 710.732 Q73.68 713.214 75.6216 715.57 Q77.5631 717.925 77.5631 721.872 L77.5631 726.55 L72.6615 726.55 L72.6615 723.113 Q72.6615 720.694 71.5157 719.357 Q70.3699 718.02 66.1048 716.397 L63.4312 715.347 L28.3562 729.765 L28.3562 723.559 L56.238 712.419 L28.3562 701.279 L28.3562 695.072 L67.3143 710.732 Z" fill="#000000" fill-rule="evenodd" fill-opacity="1" /><path clip-path="url(#clip600)" d="M33.8307 666.331 Q33.2578 667.318 33.0032 668.495 Q32.7167 669.641 32.7167 671.041 Q32.7167 676.007 35.9632 678.68 Q39.1779 681.322 45.2253 681.322 L64.0042 681.322 L64.0042 687.21 L28.3562 687.21 L28.3562 681.322 L33.8944 681.322 Q30.6479 679.476 29.0883 676.516 Q27.4968 673.556 27.4968 669.323 Q27.4968 668.718 27.5923 667.986 Q27.656 667.254 27.8151 666.363 L33.8307 666.331 Z" fill="#000000" fill-rule="evenodd" fill-opacity="1" /><path clip-path="url(#clip600)" d="M830.325 20.1573 L819.226 50.2555 L841.465 50.2555 L830.325 20.1573 M825.707 12.096 L834.984 12.096 L858.034 72.576 L849.527 72.576 L844.017 57.061 L816.755 57.061 L811.246 72.576 L802.617 72.576 L825.707 12.096 Z" fill="#000000" fill-rule="evenodd" fill-opacity="1" /><path clip-path="url(#clip600)" d="M865.771 54.671 L865.771 27.2059 L873.224 27.2059 L873.224 54.3874 Q873.224 60.8284 875.736 64.0691 Q878.248 67.2693 883.271 67.2693 Q889.307 67.2693 892.79 63.421 Q896.315 59.5726 896.315 52.9291 L896.315 27.2059 L903.768 27.2059 L903.768 72.576 L896.315 72.576 L896.315 65.6084 Q893.601 69.7404 889.995 71.7658 Q886.43 73.7508 881.691 73.7508 Q873.873 73.7508 869.822 68.8897 Q865.771 64.0286 865.771 54.671 M884.526 26.1121 L884.526 26.1121 Z" fill="#000000" fill-rule="evenodd" fill-opacity="1" /><path clip-path="url(#clip600)" d="M948.045 28.5427 L948.045 35.5912 Q944.885 33.9709 941.482 33.1607 Q938.079 32.3505 934.434 32.3505 Q928.884 32.3505 926.089 34.0519 Q923.334 35.7533 923.334 39.156 Q923.334 41.7486 925.319 43.2475 Q927.304 44.7058 933.299 46.0426 L935.851 46.6097 Q943.791 48.3111 947.113 51.4303 Q950.475 54.509 950.475 60.0587 Q950.475 66.3781 945.452 70.0644 Q940.469 73.7508 931.72 73.7508 Q928.074 73.7508 924.104 73.0216 Q920.174 72.3329 915.799 70.9151 L915.799 63.2184 Q919.931 65.3654 923.942 66.4591 Q927.952 67.5124 931.882 67.5124 Q937.148 67.5124 939.983 65.73 Q942.819 63.9071 942.819 60.6258 Q942.819 57.5877 940.753 55.9673 Q938.728 54.3469 931.801 52.8481 L929.208 52.2405 Q922.281 50.7821 919.202 47.7845 Q916.124 44.7463 916.124 39.4801 Q916.124 33.0797 920.661 29.5959 Q925.198 26.1121 933.542 26.1121 Q937.674 26.1121 941.32 26.7198 Q944.966 27.3274 948.045 28.5427 Z" fill="#000000" fill-rule="evenodd" fill-opacity="1" /><path clip-path="url(#clip600)" d="M969.717 14.324 L969.717 27.2059 L985.07 27.2059 L985.07 32.9987 L969.717 32.9987 L969.717 57.6282 Q969.717 63.1779 971.216 64.7578 Q972.755 66.3376 977.414 66.3376 L985.07 66.3376 L985.07 72.576 L977.414 72.576 Q968.785 72.576 965.504 69.3758 Q962.223 66.1351 962.223 57.6282 L962.223 32.9987 L956.754 32.9987 L956.754 27.2059 L962.223 27.2059 L962.223 14.324 L969.717 14.324 Z" fill="#000000" fill-rule="evenodd" fill-opacity="1" /><path clip-path="url(#clip600)" d="M1021.16 34.1734 Q1019.91 33.4443 1018.41 33.1202 Q1016.95 32.7556 1015.17 32.7556 Q1008.85 32.7556 1005.45 36.8875 Q1002.08 40.9789 1002.08 48.6757 L1002.08 72.576 L994.59 72.576 L994.59 27.2059 L1002.08 27.2059 L1002.08 34.2544 Q1004.43 30.1225 1008.2 28.1376 Q1011.97 26.1121 1017.36 26.1121 Q1018.13 26.1121 1019.06 26.2337 Q1019.99 26.3147 1021.12 26.5172 L1021.16 34.1734 Z" fill="#000000" fill-rule="evenodd" fill-opacity="1" /><path clip-path="url(#clip600)" d="M1049.6 49.7694 Q1040.57 49.7694 1037.08 51.8354 Q1033.6 53.9013 1033.6 58.8839 Q1033.6 62.8538 1036.19 65.2034 Q1038.83 67.5124 1043.32 67.5124 Q1049.52 67.5124 1053.25 63.1374 Q1057.01 58.7219 1057.01 51.4303 L1057.01 49.7694 L1049.6 49.7694 M1064.47 46.6907 L1064.47 72.576 L1057.01 72.576 L1057.01 65.6895 Q1054.46 69.8214 1050.65 71.8063 Q1046.85 73.7508 1041.34 73.7508 Q1034.37 73.7508 1030.24 69.8619 Q1026.15 65.9325 1026.15 59.3701 Q1026.15 51.7138 1031.25 47.825 Q1036.39 43.9361 1046.56 43.9361 L1057.01 43.9361 L1057.01 43.2069 Q1057.01 38.0623 1053.61 35.2672 Q1050.25 32.4315 1044.13 32.4315 Q1040.24 32.4315 1036.56 33.3632 Q1032.87 34.295 1029.47 36.1584 L1029.47 29.2718 Q1033.56 27.692 1037.41 26.9223 Q1041.26 26.1121 1044.9 26.1121 Q1054.75 26.1121 1059.61 31.2163 Q1064.47 36.3204 1064.47 46.6907 Z" fill="#000000" fill-rule="evenodd" fill-opacity="1" /><path clip-path="url(#clip600)" d="M1079.82 9.54393 L1087.27 9.54393 L1087.27 72.576 L1079.82 72.576 L1079.82 9.54393 Z" fill="#000000" fill-rule="evenodd" fill-opacity="1" /><path clip-path="url(#clip600)" d="M1102.87 27.2059 L1110.32 27.2059 L1110.32 72.576 L1102.87 72.576 L1102.87 27.2059 M1102.87 9.54393 L1110.32 9.54393 L1110.32 18.9825 L1102.87 18.9825 L1102.87 9.54393 Z" fill="#000000" fill-rule="evenodd" fill-opacity="1" /><path clip-path="url(#clip600)" d="M1146.54 49.7694 Q1137.51 49.7694 1134.02 51.8354 Q1130.54 53.9013 1130.54 58.8839 Q1130.54 62.8538 1133.13 65.2034 Q1135.76 67.5124 1140.26 67.5124 Q1146.46 67.5124 1150.18 63.1374 Q1153.95 58.7219 1153.95 51.4303 L1153.95 49.7694 L1146.54 49.7694 M1161.41 46.6907 L1161.41 72.576 L1153.95 72.576 L1153.95 65.6895 Q1151.4 69.8214 1147.59 71.8063 Q1143.78 73.7508 1138.28 73.7508 Q1131.31 73.7508 1127.18 69.8619 Q1123.08 65.9325 1123.08 59.3701 Q1123.08 51.7138 1128.19 47.825 Q1133.33 43.9361 1143.5 43.9361 L1153.95 43.9361 L1153.95 43.2069 Q1153.95 38.0623 1150.55 35.2672 Q1147.19 32.4315 1141.07 32.4315 Q1137.18 32.4315 1133.5 33.3632 Q1129.81 34.295 1126.41 36.1584 L1126.41 29.2718 Q1130.5 27.692 1134.35 26.9223 Q1138.19 26.1121 1141.84 26.1121 Q1151.68 26.1121 1156.54 31.2163 Q1161.41 36.3204 1161.41 46.6907 Z" fill="#000000" fill-rule="evenodd" fill-opacity="1" /><path clip-path="url(#clip600)" d="M1203.45 12.096 L1241.69 12.096 L1241.69 18.9825 L1211.64 18.9825 L1211.64 36.8875 L1240.44 36.8875 L1240.44 43.7741 L1211.64 43.7741 L1211.64 65.6895 L1242.42 65.6895 L1242.42 72.576 L1203.45 72.576 L1203.45 12.096 Z" fill="#000000" fill-rule="evenodd" fill-opacity="1" /><path clip-path="url(#clip600)" d="M1293.26 45.1919 L1293.26 72.576 L1285.81 72.576 L1285.81 45.4349 Q1285.81 38.994 1283.3 35.7938 Q1280.79 32.5936 1275.76 32.5936 Q1269.73 32.5936 1266.24 36.4419 Q1262.76 40.2903 1262.76 46.9338 L1262.76 72.576 L1255.27 72.576 L1255.27 27.2059 L1262.76 27.2059 L1262.76 34.2544 Q1265.43 30.163 1269.04 28.1376 Q1272.68 26.1121 1277.42 26.1121 Q1285.24 26.1121 1289.25 30.9732 Q1293.26 35.7938 1293.26 45.1919 Z" fill="#000000" fill-rule="evenodd" fill-opacity="1" /><path clip-path="url(#clip600)" d="M1315.5 14.324 L1315.5 27.2059 L1330.86 27.2059 L1330.86 32.9987 L1315.5 32.9987 L1315.5 57.6282 Q1315.5 63.1779 1317 64.7578 Q1318.54 66.3376 1323.2 66.3376 L1330.86 66.3376 L1330.86 72.576 L1323.2 72.576 Q1314.57 72.576 1311.29 69.3758 Q1308.01 66.1351 1308.01 57.6282 L1308.01 32.9987 L1302.54 32.9987 L1302.54 27.2059 L1308.01 27.2059 L1308.01 14.324 L1315.5 14.324 Z" fill="#000000" fill-rule="evenodd" fill-opacity="1" /><path clip-path="url(#clip600)" d="M1366.95 34.1734 Q1365.69 33.4443 1364.19 33.1202 Q1362.74 32.7556 1360.95 32.7556 Q1354.63 32.7556 1351.23 36.8875 Q1347.87 40.9789 1347.87 48.6757 L1347.87 72.576 L1340.37 72.576 L1340.37 27.2059 L1347.87 27.2059 L1347.87 34.2544 Q1350.22 30.1225 1353.99 28.1376 Q1357.75 26.1121 1363.14 26.1121 Q1363.91 26.1121 1364.84 26.2337 Q1365.77 26.3147 1366.91 26.5172 L1366.95 34.1734 Z" fill="#000000" fill-rule="evenodd" fill-opacity="1" /><path clip-path="url(#clip600)" d="M1393.64 76.7889 Q1390.48 84.8907 1387.49 87.3618 Q1384.49 89.8329 1379.47 89.8329 L1373.51 89.8329 L1373.51 83.5945 L1377.89 83.5945 Q1380.96 83.5945 1382.67 82.1361 Q1384.37 80.6778 1386.43 75.2496 L1387.77 71.8468 L1369.42 27.2059 L1377.32 27.2059 L1391.5 62.6918 L1405.68 27.2059 L1413.57 27.2059 L1393.64 76.7889 Z" fill="#000000" fill-rule="evenodd" fill-opacity="1" /><path clip-path="url(#clip600)" d="M1445.9 27.2059 L1453.35 27.2059 L1462.67 62.6108 L1471.95 27.2059 L1480.74 27.2059 L1490.06 62.6108 L1499.33 27.2059 L1506.79 27.2059 L1494.92 72.576 L1486.13 72.576 L1476.36 35.3887 L1466.56 72.576 L1457.77 72.576 L1445.9 27.2059 Z" fill="#000000" fill-rule="evenodd" fill-opacity="1" /><path clip-path="url(#clip600)" d="M1518.09 27.2059 L1525.54 27.2059 L1525.54 72.576 L1518.09 72.576 L1518.09 27.2059 M1518.09 9.54393 L1525.54 9.54393 L1525.54 18.9825 L1518.09 18.9825 L1518.09 9.54393 Z" fill="#000000" fill-rule="evenodd" fill-opacity="1" /><path clip-path="url(#clip600)" d="M1548.51 14.324 L1548.51 27.2059 L1563.86 27.2059 L1563.86 32.9987 L1548.51 32.9987 L1548.51 57.6282 Q1548.51 63.1779 1550.01 64.7578 Q1551.55 66.3376 1556.21 66.3376 L1563.86 66.3376 L1563.86 72.576 L1556.21 72.576 Q1547.58 72.576 1544.3 69.3758 Q1541.02 66.1351 1541.02 57.6282 L1541.02 32.9987 L1535.55 32.9987 L1535.55 27.2059 L1541.02 27.2059 L1541.02 14.324 L1548.51 14.324 Z" fill="#000000" fill-rule="evenodd" fill-opacity="1" /><path clip-path="url(#clip600)" d="M1611.38 45.1919 L1611.38 72.576 L1603.93 72.576 L1603.93 45.4349 Q1603.93 38.994 1601.42 35.7938 Q1598.9 32.5936 1593.88 32.5936 Q1587.84 32.5936 1584.36 36.4419 Q1580.88 40.2903 1580.88 46.9338 L1580.88 72.576 L1573.38 72.576 L1573.38 9.54393 L1580.88 9.54393 L1580.88 34.2544 Q1583.55 30.163 1587.16 28.1376 Q1590.8 26.1121 1595.54 26.1121 Q1603.36 26.1121 1607.37 30.9732 Q1611.38 35.7938 1611.38 45.1919 Z" fill="#000000" fill-rule="evenodd" fill-opacity="1" /><path clip-path="url(#clip600)" d="M1652.94 12.096 L1661.13 12.096 L1661.13 72.576 L1652.94 72.576 L1652.94 12.096 Z" fill="#000000" fill-rule="evenodd" fill-opacity="1" /><path clip-path="url(#clip600)" d="M1714.8 45.1919 L1714.8 72.576 L1707.35 72.576 L1707.35 45.4349 Q1707.35 38.994 1704.83 35.7938 Q1702.32 32.5936 1697.3 32.5936 Q1691.26 32.5936 1687.78 36.4419 Q1684.3 40.2903 1684.3 46.9338 L1684.3 72.576 L1676.8 72.576 L1676.8 27.2059 L1684.3 27.2059 L1684.3 34.2544 Q1686.97 30.163 1690.58 28.1376 Q1694.22 26.1121 1698.96 26.1121 Q1706.78 26.1121 1710.79 30.9732 Q1714.8 35.7938 1714.8 45.1919 Z" fill="#000000" fill-rule="evenodd" fill-opacity="1" /><path clip-path="url(#clip600)" d="M1737.04 14.324 L1737.04 27.2059 L1752.39 27.2059 L1752.39 32.9987 L1737.04 32.9987 L1737.04 57.6282 Q1737.04 63.1779 1738.54 64.7578 Q1740.08 66.3376 1744.74 66.3376 L1752.39 66.3376 L1752.39 72.576 L1744.74 72.576 Q1736.11 72.576 1732.83 69.3758 Q1729.55 66.1351 1729.55 57.6282 L1729.55 32.9987 L1724.08 32.9987 L1724.08 27.2059 L1729.55 27.2059 L1729.55 14.324 L1737.04 14.324 Z" fill="#000000" fill-rule="evenodd" fill-opacity="1" /><path clip-path="url(#clip600)" d="M1801 48.0275 L1801 51.6733 L1766.73 51.6733 Q1767.22 59.3701 1771.35 63.421 Q1775.52 67.4314 1782.94 67.4314 Q1787.23 67.4314 1791.24 66.3781 Q1795.29 65.3249 1799.26 63.2184 L1799.26 70.267 Q1795.25 71.9684 1791.04 72.8596 Q1786.82 73.7508 1782.49 73.7508 Q1771.63 73.7508 1765.27 67.4314 Q1758.95 61.1119 1758.95 50.3365 Q1758.95 39.1965 1764.95 32.6746 Q1770.99 26.1121 1781.19 26.1121 Q1790.35 26.1121 1795.66 32.0264 Q1801 37.9003 1801 48.0275 M1793.55 45.84 Q1793.47 39.7232 1790.11 36.0774 Q1786.78 32.4315 1781.28 32.4315 Q1775.04 32.4315 1771.27 35.9558 Q1767.54 39.4801 1766.98 45.8805 L1793.55 45.84 Z" fill="#000000" fill-rule="evenodd" fill-opacity="1" /><path clip-path="url(#clip600)" d="M1850.95 45.1919 L1850.95 72.576 L1843.5 72.576 L1843.5 45.4349 Q1843.5 38.994 1840.99 35.7938 Q1838.47 32.5936 1833.45 32.5936 Q1827.41 32.5936 1823.93 36.4419 Q1820.45 40.2903 1820.45 46.9338 L1820.45 72.576 L1812.95 72.576 L1812.95 27.2059 L1820.45 27.2059 L1820.45 34.2544 Q1823.12 30.163 1826.73 28.1376 Q1830.37 26.1121 1835.11 26.1121 Q1842.93 26.1121 1846.94 30.9732 Q1850.95 35.7938 1850.95 45.1919 Z" fill="#000000" fill-rule="evenodd" fill-opacity="1" /><path clip-path="url(#clip600)" d="M1873.19 14.324 L1873.19 27.2059 L1888.54 27.2059 L1888.54 32.9987 L1873.19 32.9987 L1873.19 57.6282 Q1873.19 63.1779 1874.69 64.7578 Q1876.23 66.3376 1880.89 66.3376 L1888.54 66.3376 L1888.54 72.576 L1880.89 72.576 Q1872.26 72.576 1868.98 69.3758 Q1865.7 66.1351 1865.7 57.6282 L1865.7 32.9987 L1860.23 32.9987 L1860.23 27.2059 L1865.7 27.2059 L1865.7 14.324 L1873.19 14.324 Z" fill="#000000" fill-rule="evenodd" fill-opacity="1" /><polyline clip-path="url(#clip602)" style="stroke:#009af9; stroke-linecap:butt; stroke-linejoin:round; stroke-width:4; stroke-opacity:1; fill:none" points="
  395.414,549.122 468.504,554.48 541.594,541.041 614.683,501.346 687.773,455.465 760.863,425.455 833.952,469.194 907.042,419.212 980.132,422.075 1053.22,519.609 
  1126.31,614.486 1199.4,721.232 1272.49,784.035 1345.58,831.09 1418.67,862.944 1491.76,878.754 1564.85,923.59 1637.94,957.992 1711.03,955.525 1784.12,941.723 
  1857.21,989.935 1930.3,1019.68 2003.39,1014.7 2076.48,1003.52 2149.57,1032.88 2222.66,1052.27 2295.75,1039.81 
  "/>
<polyline clip-path="url(#clip602)" style="stroke:#e26f46; stroke-linecap:butt; stroke-linejoin:round; stroke-width:4; stroke-opacity:1; fill:none" points="
  614.683,1447.87 614.683,162.047 
  "/>
<path clip-path="url(#clip600)" d="
M1860.2 324.425 L2285.61 324.425 L2285.61 168.905 L1860.2 168.905  Z
  " fill="#ffffff" fill-rule="evenodd" fill-opacity="1"/>
<polyline clip-path="url(#clip600)" style="stroke:#000000; stroke-linecap:butt; stroke-linejoin:round; stroke-width:4; stroke-opacity:1; fill:none" points="
  1860.2,324.425 2285.61,324.425 2285.61,168.905 1860.2,168.905 1860.2,324.425 
  "/>
<polyline clip-path="url(#clip600)" style="stroke:#009af9; stroke-linecap:butt; stroke-linejoin:round; stroke-width:4; stroke-opacity:1; fill:none" points="
  1882.58,220.745 2016.87,220.745 
  "/>
<path clip-path="url(#clip600)" d="M2053.09 240.432 Q2051.29 245.062 2049.58 246.474 Q2047.86 247.886 2044.99 247.886 L2041.59 247.886 L2041.59 244.321 L2044.09 244.321 Q2045.85 244.321 2046.82 243.488 Q2047.79 242.654 2048.97 239.552 L2049.74 237.608 L2039.25 212.099 L2043.77 212.099 L2051.87 232.377 L2059.97 212.099 L2064.48 212.099 L2053.09 240.432 Z" fill="#000000" fill-rule="evenodd" fill-opacity="1" /><path clip-path="url(#clip600)" d="M2071.77 234.089 L2079.41 234.089 L2079.41 207.724 L2071.1 209.391 L2071.1 205.131 L2079.37 203.465 L2084.04 203.465 L2084.04 234.089 L2091.68 234.089 L2091.68 238.025 L2071.77 238.025 L2071.77 234.089 Z" fill="#000000" fill-rule="evenodd" fill-opacity="1" /><polyline clip-path="url(#clip600)" style="stroke:#e26f46; stroke-linecap:butt; stroke-linejoin:round; stroke-width:4; stroke-opacity:1; fill:none" points="
  1882.58,272.585 2016.87,272.585 
  "/>
<path clip-path="url(#clip600)" d="M2039.25 255.305 L2045.55 255.305 L2060.87 284.217 L2060.87 255.305 L2065.41 255.305 L2065.41 289.865 L2059.11 289.865 L2043.79 260.953 L2043.79 289.865 L2039.25 289.865 L2039.25 255.305 Z" fill="#000000" fill-rule="evenodd" fill-opacity="1" /><path clip-path="url(#clip600)" d="M2074.71 255.305 L2094.58 255.305 L2094.58 259.24 L2079.39 259.24 L2079.39 269.425 L2093.09 269.425 L2093.09 273.36 L2079.39 273.36 L2079.39 289.865 L2074.71 289.865 L2074.71 255.305 Z" fill="#000000" fill-rule="evenodd" fill-opacity="1" /><path clip-path="url(#clip600)" d="M2109.18 259.911 L2102.84 277.11 L2115.55 277.11 L2109.18 259.911 M2106.54 255.305 L2111.84 255.305 L2125.01 289.865 L2120.15 289.865 L2117.01 280.999 L2101.43 280.999 L2098.28 289.865 L2093.35 289.865 L2106.54 255.305 Z" fill="#000000" fill-rule="evenodd" fill-opacity="1" /><path clip-path="url(#clip600)" d="M2140.39 255.305 L2145.41 255.305 L2154.99 269.518 L2164.51 255.305 L2169.53 255.305 L2157.31 273.406 L2157.31 289.865 L2152.61 289.865 L2152.61 273.406 L2140.39 255.305 Z" fill="#000000" fill-rule="evenodd" fill-opacity="1" /><path clip-path="url(#clip600)" d="M2189.78 275.837 L2189.78 277.92 L2170.2 277.92 Q2170.48 282.318 2172.84 284.633 Q2175.22 286.925 2179.46 286.925 Q2181.91 286.925 2184.2 286.323 Q2186.52 285.721 2188.79 284.517 L2188.79 288.545 Q2186.5 289.517 2184.09 290.027 Q2181.68 290.536 2179.2 290.536 Q2173 290.536 2169.37 286.925 Q2165.76 283.314 2165.76 277.156 Q2165.76 270.791 2169.18 267.064 Q2172.63 263.314 2178.46 263.314 Q2183.7 263.314 2186.73 266.693 Q2189.78 270.05 2189.78 275.837 M2185.52 274.587 Q2185.48 271.092 2183.56 269.008 Q2181.66 266.925 2178.51 266.925 Q2174.95 266.925 2172.79 268.939 Q2170.66 270.953 2170.34 274.61 L2185.52 274.587 Z" fill="#000000" fill-rule="evenodd" fill-opacity="1" /><path clip-path="url(#clip600)" d="M2208.56 276.832 Q2203.39 276.832 2201.4 278.013 Q2199.41 279.193 2199.41 282.041 Q2199.41 284.309 2200.89 285.652 Q2202.4 286.971 2204.97 286.971 Q2208.51 286.971 2210.64 284.471 Q2212.79 281.948 2212.79 277.781 L2212.79 276.832 L2208.56 276.832 M2217.05 275.073 L2217.05 289.865 L2212.79 289.865 L2212.79 285.929 Q2211.33 288.291 2209.16 289.425 Q2206.98 290.536 2203.83 290.536 Q2199.85 290.536 2197.49 288.314 Q2195.15 286.068 2195.15 282.318 Q2195.15 277.943 2198.07 275.721 Q2201.01 273.499 2206.82 273.499 L2212.79 273.499 L2212.79 273.082 Q2212.79 270.143 2210.85 268.545 Q2208.93 266.925 2205.43 266.925 Q2203.21 266.925 2201.1 267.457 Q2199 267.99 2197.05 269.055 L2197.05 265.119 Q2199.39 264.217 2201.59 263.777 Q2203.79 263.314 2205.87 263.314 Q2211.5 263.314 2214.27 266.231 Q2217.05 269.147 2217.05 275.073 Z" fill="#000000" fill-rule="evenodd" fill-opacity="1" /><path clip-path="url(#clip600)" d="M2240.85 267.92 Q2240.13 267.504 2239.27 267.318 Q2238.44 267.11 2237.42 267.11 Q2233.81 267.11 2231.87 269.471 Q2229.94 271.809 2229.94 276.207 L2229.94 289.865 L2225.66 289.865 L2225.66 263.939 L2229.94 263.939 L2229.94 267.967 Q2231.29 265.606 2233.44 264.471 Q2235.59 263.314 2238.67 263.314 Q2239.11 263.314 2239.64 263.383 Q2240.18 263.43 2240.82 263.545 L2240.85 267.92 Z" fill="#000000" fill-rule="evenodd" fill-opacity="1" /></svg>
