<?xml version="1.0" encoding="utf-8"?>
<svg xmlns="http://www.w3.org/2000/svg" xmlns:xlink="http://www.w3.org/1999/xlink" width="600" height="400" viewBox="0 0 2400 1600">
<defs>
  <clipPath id="clip880">
    <rect x="0" y="0" width="2400" height="1600"/>
  </clipPath>
</defs>
<path clip-path="url(#clip880)" d="
M0 1600 L2400 1600 L2400 0 L0 0  Z
  " fill="#ffffff" fill-rule="evenodd" fill-opacity="1"/>
<defs>
  <clipPath id="clip881">
    <rect x="480" y="0" width="1681" height="1600"/>
  </clipPath>
</defs>
<path clip-path="url(#clip880)" d="
M156.598 1486.45 L2352.76 1486.45 L2352.76 183.952 L156.598 183.952  Z
  " fill="#ffffff" fill-rule="evenodd" fill-opacity="1"/>
<defs>
  <clipPath id="clip882">
    <rect x="156" y="183" width="2197" height="1303"/>
  </clipPath>
</defs>
<polyline clip-path="url(#clip882)" style="stroke:#000000; stroke-linecap:butt; stroke-linejoin:round; stroke-width:2; stroke-opacity:0.1; fill:none" points="
  378.126,1486.45 378.126,183.952 
  "/>
<polyline clip-path="url(#clip882)" style="stroke:#000000; stroke-linecap:butt; stroke-linejoin:round; stroke-width:2; stroke-opacity:0.1; fill:none" points="
  776.559,1486.45 776.559,183.952 
  "/>
<polyline clip-path="url(#clip882)" style="stroke:#000000; stroke-linecap:butt; stroke-linejoin:round; stroke-width:2; stroke-opacity:0.1; fill:none" points="
  1174.99,1486.45 1174.99,183.952 
  "/>
<polyline clip-path="url(#clip882)" style="stroke:#000000; stroke-linecap:butt; stroke-linejoin:round; stroke-width:2; stroke-opacity:0.1; fill:none" points="
  1573.42,1486.45 1573.42,183.952 
  "/>
<polyline clip-path="url(#clip882)" style="stroke:#000000; stroke-linecap:butt; stroke-linejoin:round; stroke-width:2; stroke-opacity:0.1; fill:none" points="
  1971.85,1486.45 1971.85,183.952 
  "/>
<polyline clip-path="url(#clip880)" style="stroke:#000000; stroke-linecap:butt; stroke-linejoin:round; stroke-width:4; stroke-opacity:1; fill:none" points="
  156.598,1486.45 2352.76,1486.45 
  "/>
<polyline clip-path="url(#clip880)" style="stroke:#000000; stroke-linecap:butt; stroke-linejoin:round; stroke-width:4; stroke-opacity:1; fill:none" points="
  378.126,1486.45 378.126,1467.55 
  "/>
<polyline clip-path="url(#clip880)" style="stroke:#000000; stroke-linecap:butt; stroke-linejoin:round; stroke-width:4; stroke-opacity:1; fill:none" points="
  776.559,1486.45 776.559,1467.55 
  "/>
<polyline clip-path="url(#clip880)" style="stroke:#000000; stroke-linecap:butt; stroke-linejoin:round; stroke-width:4; stroke-opacity:1; fill:none" points="
  1174.99,1486.45 1174.99,1467.55 
  "/>
<polyline clip-path="url(#clip880)" style="stroke:#000000; stroke-linecap:butt; stroke-linejoin:round; stroke-width:4; stroke-opacity:1; fill:none" points="
  1573.42,1486.45 1573.42,1467.55 
  "/>
<polyline clip-path="url(#clip880)" style="stroke:#000000; stroke-linecap:butt; stroke-linejoin:round; stroke-width:4; stroke-opacity:1; fill:none" points="
  1971.85,1486.45 1971.85,1467.55 
  "/>
<path clip-path="url(#clip880)" d="M323.15 1544.91 L330.789 1544.91 L330.789 1518.55 L322.479 1520.21 L322.479 1515.95 L330.742 1514.29 L335.418 1514.29 L335.418 1544.91 L343.057 1544.91 L343.057 1548.85 L323.15 1548.85 L323.15 1544.91 Z" fill="#000000" fill-rule="evenodd" fill-opacity="1" /><path clip-path="url(#clip880)" d="M352.641 1548.13 L352.641 1543.87 Q354.4 1544.7 356.205 1545.14 Q358.011 1545.58 359.747 1545.58 Q364.377 1545.58 366.807 1542.48 Q369.261 1539.36 369.608 1533.01 Q368.265 1535.01 366.205 1536.07 Q364.145 1537.13 361.645 1537.13 Q356.46 1537.13 353.428 1534.01 Q350.418 1530.86 350.418 1525.42 Q350.418 1520.1 353.566 1516.88 Q356.715 1513.66 361.946 1513.66 Q367.941 1513.66 371.089 1518.27 Q374.261 1522.85 374.261 1531.6 Q374.261 1539.77 370.372 1544.66 Q366.506 1549.52 359.955 1549.52 Q358.196 1549.52 356.39 1549.17 Q354.585 1548.82 352.641 1548.13 M361.946 1533.48 Q365.094 1533.48 366.923 1531.32 Q368.775 1529.17 368.775 1525.42 Q368.775 1521.7 366.923 1519.54 Q365.094 1517.37 361.946 1517.37 Q358.798 1517.37 356.946 1519.54 Q355.117 1521.7 355.117 1525.42 Q355.117 1529.17 356.946 1531.32 Q358.798 1533.48 361.946 1533.48 Z" fill="#000000" fill-rule="evenodd" fill-opacity="1" /><path clip-path="url(#clip880)" d="M382.802 1548.13 L382.802 1543.87 Q384.562 1544.7 386.367 1545.14 Q388.173 1545.58 389.909 1545.58 Q394.538 1545.58 396.969 1542.48 Q399.423 1539.36 399.77 1533.01 Q398.427 1535.01 396.367 1536.07 Q394.307 1537.13 391.807 1537.13 Q386.622 1537.13 383.589 1534.01 Q380.58 1530.86 380.58 1525.42 Q380.58 1520.1 383.728 1516.88 Q386.876 1513.66 392.108 1513.66 Q398.103 1513.66 401.251 1518.27 Q404.423 1522.85 404.423 1531.6 Q404.423 1539.77 400.534 1544.66 Q396.668 1549.52 390.117 1549.52 Q388.358 1549.52 386.552 1549.17 Q384.747 1548.82 382.802 1548.13 M392.108 1533.48 Q395.256 1533.48 397.085 1531.32 Q398.937 1529.17 398.937 1525.42 Q398.937 1521.7 397.085 1519.54 Q395.256 1517.37 392.108 1517.37 Q388.96 1517.37 387.108 1519.54 Q385.279 1521.7 385.279 1525.42 Q385.279 1529.17 387.108 1531.32 Q388.96 1533.48 392.108 1533.48 Z" fill="#000000" fill-rule="evenodd" fill-opacity="1" /><path clip-path="url(#clip880)" d="M412.872 1514.29 L431.228 1514.29 L431.228 1518.22 L417.154 1518.22 L417.154 1526.7 Q418.173 1526.35 419.191 1526.19 Q420.21 1526 421.228 1526 Q427.015 1526 430.395 1529.17 Q433.774 1532.34 433.774 1537.76 Q433.774 1543.34 430.302 1546.44 Q426.83 1549.52 420.511 1549.52 Q418.335 1549.52 416.066 1549.15 Q413.821 1548.78 411.413 1548.04 L411.413 1543.34 Q413.497 1544.47 415.719 1545.03 Q417.941 1545.58 420.418 1545.58 Q424.423 1545.58 426.76 1543.48 Q429.098 1541.37 429.098 1537.76 Q429.098 1534.15 426.76 1532.04 Q424.423 1529.94 420.418 1529.94 Q418.543 1529.94 416.668 1530.35 Q414.816 1530.77 412.872 1531.65 L412.872 1514.29 Z" fill="#000000" fill-rule="evenodd" fill-opacity="1" /><path clip-path="url(#clip880)" d="M725.17 1544.91 L741.489 1544.91 L741.489 1548.85 L719.545 1548.85 L719.545 1544.91 Q722.207 1542.16 726.79 1537.53 Q731.397 1532.88 732.577 1531.53 Q734.823 1529.01 735.702 1527.27 Q736.605 1525.51 736.605 1523.82 Q736.605 1521.07 734.661 1519.33 Q732.739 1517.6 729.638 1517.6 Q727.438 1517.6 724.985 1518.36 Q722.554 1519.13 719.776 1520.68 L719.776 1515.95 Q722.601 1514.82 725.054 1514.24 Q727.508 1513.66 729.545 1513.66 Q734.915 1513.66 738.11 1516.35 Q741.304 1519.03 741.304 1523.52 Q741.304 1525.65 740.494 1527.57 Q739.707 1529.47 737.6 1532.07 Q737.022 1532.74 733.92 1535.95 Q730.818 1539.15 725.17 1544.91 Z" fill="#000000" fill-rule="evenodd" fill-opacity="1" /><path clip-path="url(#clip880)" d="M761.304 1517.37 Q757.693 1517.37 755.864 1520.93 Q754.059 1524.47 754.059 1531.6 Q754.059 1538.71 755.864 1542.27 Q757.693 1545.82 761.304 1545.82 Q764.938 1545.82 766.744 1542.27 Q768.572 1538.71 768.572 1531.6 Q768.572 1524.47 766.744 1520.93 Q764.938 1517.37 761.304 1517.37 M761.304 1513.66 Q767.114 1513.66 770.17 1518.27 Q773.248 1522.85 773.248 1531.6 Q773.248 1540.33 770.17 1544.94 Q767.114 1549.52 761.304 1549.52 Q755.494 1549.52 752.415 1544.94 Q749.36 1540.33 749.36 1531.6 Q749.36 1522.85 752.415 1518.27 Q755.494 1513.66 761.304 1513.66 Z" fill="#000000" fill-rule="evenodd" fill-opacity="1" /><path clip-path="url(#clip880)" d="M791.466 1517.37 Q787.855 1517.37 786.026 1520.93 Q784.221 1524.47 784.221 1531.6 Q784.221 1538.71 786.026 1542.27 Q787.855 1545.82 791.466 1545.82 Q795.1 1545.82 796.906 1542.27 Q798.734 1538.71 798.734 1531.6 Q798.734 1524.47 796.906 1520.93 Q795.1 1517.37 791.466 1517.37 M791.466 1513.66 Q797.276 1513.66 800.332 1518.27 Q803.41 1522.85 803.41 1531.6 Q803.41 1540.33 800.332 1544.94 Q797.276 1549.52 791.466 1549.52 Q785.656 1549.52 782.577 1544.94 Q779.522 1540.33 779.522 1531.6 Q779.522 1522.85 782.577 1518.27 Q785.656 1513.66 791.466 1513.66 Z" fill="#000000" fill-rule="evenodd" fill-opacity="1" /><path clip-path="url(#clip880)" d="M821.628 1517.37 Q818.017 1517.37 816.188 1520.93 Q814.382 1524.47 814.382 1531.6 Q814.382 1538.71 816.188 1542.27 Q818.017 1545.82 821.628 1545.82 Q825.262 1545.82 827.068 1542.27 Q828.896 1538.71 828.896 1531.6 Q828.896 1524.47 827.068 1520.93 Q825.262 1517.37 821.628 1517.37 M821.628 1513.66 Q827.438 1513.66 830.493 1518.27 Q833.572 1522.85 833.572 1531.6 Q833.572 1540.33 830.493 1544.94 Q827.438 1549.52 821.628 1549.52 Q815.818 1549.52 812.739 1544.94 Q809.683 1540.33 809.683 1531.6 Q809.683 1522.85 812.739 1518.27 Q815.818 1513.66 821.628 1513.66 Z" fill="#000000" fill-rule="evenodd" fill-opacity="1" /><path clip-path="url(#clip880)" d="M1124.1 1544.91 L1140.42 1544.91 L1140.42 1548.85 L1118.47 1548.85 L1118.47 1544.91 Q1121.14 1542.16 1125.72 1537.53 Q1130.33 1532.88 1131.51 1531.53 Q1133.75 1529.01 1134.63 1527.27 Q1135.53 1525.51 1135.53 1523.82 Q1135.53 1521.07 1133.59 1519.33 Q1131.67 1517.6 1128.57 1517.6 Q1126.37 1517.6 1123.91 1518.36 Q1121.48 1519.13 1118.71 1520.68 L1118.71 1515.95 Q1121.53 1514.82 1123.98 1514.24 Q1126.44 1513.66 1128.47 1513.66 Q1133.85 1513.66 1137.04 1516.35 Q1140.23 1519.03 1140.23 1523.52 Q1140.23 1525.65 1139.42 1527.57 Q1138.64 1529.47 1136.53 1532.07 Q1135.95 1532.74 1132.85 1535.95 Q1129.75 1539.15 1124.1 1544.91 Z" fill="#000000" fill-rule="evenodd" fill-opacity="1" /><path clip-path="url(#clip880)" d="M1160.23 1517.37 Q1156.62 1517.37 1154.79 1520.93 Q1152.99 1524.47 1152.99 1531.6 Q1152.99 1538.71 1154.79 1542.27 Q1156.62 1545.82 1160.23 1545.82 Q1163.87 1545.82 1165.67 1542.27 Q1167.5 1538.71 1167.5 1531.6 Q1167.5 1524.47 1165.67 1520.93 Q1163.87 1517.37 1160.23 1517.37 M1160.23 1513.66 Q1166.04 1513.66 1169.1 1518.27 Q1172.18 1522.85 1172.18 1531.6 Q1172.18 1540.33 1169.1 1544.94 Q1166.04 1549.52 1160.23 1549.52 Q1154.42 1549.52 1151.34 1544.94 Q1148.29 1540.33 1148.29 1531.6 Q1148.29 1522.85 1151.34 1518.27 Q1154.42 1513.66 1160.23 1513.66 Z" fill="#000000" fill-rule="evenodd" fill-opacity="1" /><path clip-path="url(#clip880)" d="M1190.4 1517.37 Q1186.78 1517.37 1184.96 1520.93 Q1183.15 1524.47 1183.15 1531.6 Q1183.15 1538.71 1184.96 1542.27 Q1186.78 1545.82 1190.4 1545.82 Q1194.03 1545.82 1195.84 1542.27 Q1197.66 1538.71 1197.66 1531.6 Q1197.66 1524.47 1195.84 1520.93 Q1194.03 1517.37 1190.4 1517.37 M1190.4 1513.66 Q1196.21 1513.66 1199.26 1518.27 Q1202.34 1522.85 1202.34 1531.6 Q1202.34 1540.33 1199.26 1544.94 Q1196.21 1549.52 1190.4 1549.52 Q1184.59 1549.52 1181.51 1544.94 Q1178.45 1540.33 1178.45 1531.6 Q1178.45 1522.85 1181.51 1518.27 Q1184.59 1513.66 1190.4 1513.66 Z" fill="#000000" fill-rule="evenodd" fill-opacity="1" /><path clip-path="url(#clip880)" d="M1210.6 1514.29 L1228.96 1514.29 L1228.96 1518.22 L1214.89 1518.22 L1214.89 1526.7 Q1215.9 1526.35 1216.92 1526.19 Q1217.94 1526 1218.96 1526 Q1224.75 1526 1228.13 1529.17 Q1231.51 1532.34 1231.51 1537.76 Q1231.51 1543.34 1228.03 1546.44 Q1224.56 1549.52 1218.24 1549.52 Q1216.07 1549.52 1213.8 1549.15 Q1211.55 1548.78 1209.15 1548.04 L1209.15 1543.34 Q1211.23 1544.47 1213.45 1545.03 Q1215.67 1545.58 1218.15 1545.58 Q1222.15 1545.58 1224.49 1543.48 Q1226.83 1541.37 1226.83 1537.76 Q1226.83 1534.15 1224.49 1532.04 Q1222.15 1529.94 1218.15 1529.94 Q1216.28 1529.94 1214.4 1530.35 Q1212.55 1530.77 1210.6 1531.65 L1210.6 1514.29 Z" fill="#000000" fill-rule="evenodd" fill-opacity="1" /><path clip-path="url(#clip880)" d="M1522.03 1544.91 L1538.35 1544.91 L1538.35 1548.85 L1516.41 1548.85 L1516.41 1544.91 Q1519.07 1542.16 1523.65 1537.53 Q1528.26 1532.88 1529.44 1531.53 Q1531.69 1529.01 1532.57 1527.27 Q1533.47 1525.51 1533.47 1523.82 Q1533.47 1521.07 1531.52 1519.33 Q1529.6 1517.6 1526.5 1517.6 Q1524.3 1517.6 1521.85 1518.36 Q1519.42 1519.13 1516.64 1520.68 L1516.64 1515.95 Q1519.46 1514.82 1521.92 1514.24 Q1524.37 1513.66 1526.41 1513.66 Q1531.78 1513.66 1534.97 1516.35 Q1538.17 1519.03 1538.17 1523.52 Q1538.17 1525.65 1537.36 1527.57 Q1536.57 1529.47 1534.46 1532.07 Q1533.89 1532.74 1530.78 1535.95 Q1527.68 1539.15 1522.03 1544.91 Z" fill="#000000" fill-rule="evenodd" fill-opacity="1" /><path clip-path="url(#clip880)" d="M1558.17 1517.37 Q1554.56 1517.37 1552.73 1520.93 Q1550.92 1524.47 1550.92 1531.6 Q1550.92 1538.71 1552.73 1542.27 Q1554.56 1545.82 1558.17 1545.82 Q1561.8 1545.82 1563.61 1542.27 Q1565.44 1538.71 1565.44 1531.6 Q1565.44 1524.47 1563.61 1520.93 Q1561.8 1517.37 1558.17 1517.37 M1558.17 1513.66 Q1563.98 1513.66 1567.03 1518.27 Q1570.11 1522.85 1570.11 1531.6 Q1570.11 1540.33 1567.03 1544.94 Q1563.98 1549.52 1558.17 1549.52 Q1552.36 1549.52 1549.28 1544.94 Q1546.22 1540.33 1546.22 1531.6 Q1546.22 1522.85 1549.28 1518.27 Q1552.36 1513.66 1558.17 1513.66 Z" fill="#000000" fill-rule="evenodd" fill-opacity="1" /><path clip-path="url(#clip880)" d="M1579.14 1544.91 L1586.78 1544.91 L1586.78 1518.55 L1578.47 1520.21 L1578.47 1515.95 L1586.73 1514.29 L1591.41 1514.29 L1591.41 1544.91 L1599.05 1544.91 L1599.05 1548.85 L1579.14 1548.85 L1579.14 1544.91 Z" fill="#000000" fill-rule="evenodd" fill-opacity="1" /><path clip-path="url(#clip880)" d="M1618.49 1517.37 Q1614.88 1517.37 1613.05 1520.93 Q1611.25 1524.47 1611.25 1531.6 Q1611.25 1538.71 1613.05 1542.27 Q1614.88 1545.82 1618.49 1545.82 Q1622.13 1545.82 1623.93 1542.27 Q1625.76 1538.71 1625.76 1531.6 Q1625.76 1524.47 1623.93 1520.93 Q1622.13 1517.37 1618.49 1517.37 M1618.49 1513.66 Q1624.3 1513.66 1627.36 1518.27 Q1630.44 1522.85 1630.44 1531.6 Q1630.44 1540.33 1627.36 1544.94 Q1624.3 1549.52 1618.49 1549.52 Q1612.68 1549.52 1609.6 1544.94 Q1606.55 1540.33 1606.55 1531.6 Q1606.55 1522.85 1609.6 1518.27 Q1612.68 1513.66 1618.49 1513.66 Z" fill="#000000" fill-rule="evenodd" fill-opacity="1" /><path clip-path="url(#clip880)" d="M1920.96 1544.91 L1937.28 1544.91 L1937.28 1548.85 L1915.34 1548.85 L1915.34 1544.91 Q1918 1542.16 1922.58 1537.53 Q1927.19 1532.88 1928.37 1531.53 Q1930.62 1529.01 1931.5 1527.27 Q1932.4 1525.51 1932.4 1523.82 Q1932.4 1521.07 1930.45 1519.33 Q1928.53 1517.6 1925.43 1517.6 Q1923.23 1517.6 1920.78 1518.36 Q1918.35 1519.13 1915.57 1520.68 L1915.57 1515.95 Q1918.39 1514.82 1920.85 1514.24 Q1923.3 1513.66 1925.34 1513.66 Q1930.71 1513.66 1933.9 1516.35 Q1937.1 1519.03 1937.1 1523.52 Q1937.1 1525.65 1936.29 1527.57 Q1935.5 1529.47 1933.39 1532.07 Q1932.82 1532.74 1929.71 1535.95 Q1926.61 1539.15 1920.96 1544.91 Z" fill="#000000" fill-rule="evenodd" fill-opacity="1" /><path clip-path="url(#clip880)" d="M1957.1 1517.37 Q1953.49 1517.37 1951.66 1520.93 Q1949.85 1524.47 1949.85 1531.6 Q1949.85 1538.71 1951.66 1542.27 Q1953.49 1545.82 1957.1 1545.82 Q1960.73 1545.82 1962.54 1542.27 Q1964.37 1538.71 1964.37 1531.6 Q1964.37 1524.47 1962.54 1520.93 Q1960.73 1517.37 1957.1 1517.37 M1957.1 1513.66 Q1962.91 1513.66 1965.96 1518.27 Q1969.04 1522.85 1969.04 1531.6 Q1969.04 1540.33 1965.96 1544.94 Q1962.91 1549.52 1957.1 1549.52 Q1951.29 1549.52 1948.21 1544.94 Q1945.15 1540.33 1945.15 1531.6 Q1945.15 1522.85 1948.21 1518.27 Q1951.29 1513.66 1957.1 1513.66 Z" fill="#000000" fill-rule="evenodd" fill-opacity="1" /><path clip-path="url(#clip880)" d="M1978.07 1544.91 L1985.71 1544.91 L1985.71 1518.55 L1977.4 1520.21 L1977.4 1515.95 L1985.66 1514.29 L1990.34 1514.29 L1990.34 1544.91 L1997.98 1544.91 L1997.98 1548.85 L1978.07 1548.85 L1978.07 1544.91 Z" fill="#000000" fill-rule="evenodd" fill-opacity="1" /><path clip-path="url(#clip880)" d="M2007.47 1514.29 L2025.82 1514.29 L2025.82 1518.22 L2011.75 1518.22 L2011.75 1526.7 Q2012.77 1526.35 2013.79 1526.19 Q2014.81 1526 2015.82 1526 Q2021.61 1526 2024.99 1529.17 Q2028.37 1532.34 2028.37 1537.76 Q2028.37 1543.34 2024.9 1546.44 Q2021.43 1549.52 2015.11 1549.52 Q2012.93 1549.52 2010.66 1549.15 Q2008.42 1548.78 2006.01 1548.04 L2006.01 1543.34 Q2008.09 1544.47 2010.32 1545.03 Q2012.54 1545.58 2015.01 1545.58 Q2019.02 1545.58 2021.36 1543.48 Q2023.69 1541.37 2023.69 1537.76 Q2023.69 1534.15 2021.36 1532.04 Q2019.02 1529.94 2015.01 1529.94 Q2013.14 1529.94 2011.26 1530.35 Q2009.41 1530.77 2007.47 1531.65 L2007.47 1514.29 Z" fill="#000000" fill-rule="evenodd" fill-opacity="1" /><polyline clip-path="url(#clip882)" style="stroke:#000000; stroke-linecap:butt; stroke-linejoin:round; stroke-width:2; stroke-opacity:0.1; fill:none" points="
  156.598,1340.78 2352.76,1340.78 
  "/>
<polyline clip-path="url(#clip882)" style="stroke:#000000; stroke-linecap:butt; stroke-linejoin:round; stroke-width:2; stroke-opacity:0.1; fill:none" points="
  156.598,1020.74 2352.76,1020.74 
  "/>
<polyline clip-path="url(#clip882)" style="stroke:#000000; stroke-linecap:butt; stroke-linejoin:round; stroke-width:2; stroke-opacity:0.1; fill:none" points="
  156.598,700.693 2352.76,700.693 
  "/>
<polyline clip-path="url(#clip882)" style="stroke:#000000; stroke-linecap:butt; stroke-linejoin:round; stroke-width:2; stroke-opacity:0.1; fill:none" points="
  156.598,380.65 2352.76,380.65 
  "/>
<polyline clip-path="url(#clip880)" style="stroke:#000000; stroke-linecap:butt; stroke-linejoin:round; stroke-width:4; stroke-opacity:1; fill:none" points="
  156.598,1486.45 156.598,183.952 
  "/>
<polyline clip-path="url(#clip880)" style="stroke:#000000; stroke-linecap:butt; stroke-linejoin:round; stroke-width:4; stroke-opacity:1; fill:none" points="
  156.598,1340.78 175.496,1340.78 
  "/>
<polyline clip-path="url(#clip880)" style="stroke:#000000; stroke-linecap:butt; stroke-linejoin:round; stroke-width:4; stroke-opacity:1; fill:none" points="
  156.598,1020.74 175.496,1020.74 
  "/>
<polyline clip-path="url(#clip880)" style="stroke:#000000; stroke-linecap:butt; stroke-linejoin:round; stroke-width:4; stroke-opacity:1; fill:none" points="
  156.598,700.693 175.496,700.693 
  "/>
<polyline clip-path="url(#clip880)" style="stroke:#000000; stroke-linecap:butt; stroke-linejoin:round; stroke-width:4; stroke-opacity:1; fill:none" points="
  156.598,380.65 175.496,380.65 
  "/>
<path clip-path="url(#clip880)" d="M62.9365 1326.58 Q59.3254 1326.58 57.4967 1330.14 Q55.6912 1333.69 55.6912 1340.81 Q55.6912 1347.92 57.4967 1351.49 Q59.3254 1355.03 62.9365 1355.03 Q66.5707 1355.03 68.3763 1351.49 Q70.205 1347.92 70.205 1340.81 Q70.205 1333.69 68.3763 1330.14 Q66.5707 1326.58 62.9365 1326.58 M62.9365 1322.88 Q68.7467 1322.88 71.8022 1327.48 Q74.8809 1332.06 74.8809 1340.81 Q74.8809 1349.54 71.8022 1354.15 Q68.7467 1358.73 62.9365 1358.73 Q57.1264 1358.73 54.0477 1354.15 Q50.9921 1349.54 50.9921 1340.81 Q50.9921 1332.06 54.0477 1327.48 Q57.1264 1322.88 62.9365 1322.88 Z" fill="#000000" fill-rule="evenodd" fill-opacity="1" /><path clip-path="url(#clip880)" d="M83.0984 1352.18 L87.9827 1352.18 L87.9827 1358.06 L83.0984 1358.06 L83.0984 1352.18 Z" fill="#000000" fill-rule="evenodd" fill-opacity="1" /><path clip-path="url(#clip880)" d="M111.015 1327.57 L99.2095 1346.02 L111.015 1346.02 L111.015 1327.57 M109.788 1323.5 L115.668 1323.5 L115.668 1346.02 L120.598 1346.02 L120.598 1349.91 L115.668 1349.91 L115.668 1358.06 L111.015 1358.06 L111.015 1349.91 L95.4132 1349.91 L95.4132 1345.4 L109.788 1323.5 Z" fill="#000000" fill-rule="evenodd" fill-opacity="1" /><path clip-path="url(#clip880)" d="M63.2606 1006.54 Q59.6495 1006.54 57.8208 1010.1 Q56.0152 1013.64 56.0152 1020.77 Q56.0152 1027.88 57.8208 1031.44 Q59.6495 1034.98 63.2606 1034.98 Q66.8948 1034.98 68.7004 1031.44 Q70.5291 1027.88 70.5291 1020.77 Q70.5291 1013.64 68.7004 1010.1 Q66.8948 1006.54 63.2606 1006.54 M63.2606 1002.83 Q69.0707 1002.83 72.1263 1007.44 Q75.205 1012.02 75.205 1020.77 Q75.205 1029.5 72.1263 1034.1 Q69.0707 1038.69 63.2606 1038.69 Q57.4504 1038.69 54.3717 1034.1 Q51.3162 1029.5 51.3162 1020.77 Q51.3162 1012.02 54.3717 1007.44 Q57.4504 1002.83 63.2606 1002.83 Z" fill="#000000" fill-rule="evenodd" fill-opacity="1" /><path clip-path="url(#clip880)" d="M83.4225 1032.14 L88.3067 1032.14 L88.3067 1038.02 L83.4225 1038.02 L83.4225 1032.14 Z" fill="#000000" fill-rule="evenodd" fill-opacity="1" /><path clip-path="url(#clip880)" d="M109.071 1018.87 Q105.922 1018.87 104.071 1021.03 Q102.242 1023.18 102.242 1026.93 Q102.242 1030.66 104.071 1032.83 Q105.922 1034.98 109.071 1034.98 Q112.219 1034.98 114.047 1032.83 Q115.899 1030.66 115.899 1026.93 Q115.899 1023.18 114.047 1021.03 Q112.219 1018.87 109.071 1018.87 M118.353 1004.22 L118.353 1008.48 Q116.594 1007.65 114.788 1007.21 Q113.006 1006.77 111.246 1006.77 Q106.617 1006.77 104.163 1009.89 Q101.733 1013.02 101.385 1019.34 Q102.751 1017.32 104.811 1016.26 Q106.871 1015.17 109.348 1015.17 Q114.557 1015.17 117.566 1018.34 Q120.598 1021.49 120.598 1026.93 Q120.598 1032.25 117.45 1035.47 Q114.302 1038.69 109.071 1038.69 Q103.075 1038.69 99.9039 1034.1 Q96.7326 1029.5 96.7326 1020.77 Q96.7326 1012.58 100.621 1007.72 Q104.51 1002.83 111.061 1002.83 Q112.82 1002.83 114.603 1003.18 Q116.408 1003.53 118.353 1004.22 Z" fill="#000000" fill-rule="evenodd" fill-opacity="1" /><path clip-path="url(#clip880)" d="M63.5152 686.492 Q59.9041 686.492 58.0754 690.057 Q56.2699 693.598 56.2699 700.728 Q56.2699 707.834 58.0754 711.399 Q59.9041 714.941 63.5152 714.941 Q67.1494 714.941 68.955 711.399 Q70.7837 707.834 70.7837 700.728 Q70.7837 693.598 68.955 690.057 Q67.1494 686.492 63.5152 686.492 M63.5152 682.788 Q69.3254 682.788 72.3809 687.395 Q75.4596 691.978 75.4596 700.728 Q75.4596 709.455 72.3809 714.061 Q69.3254 718.644 63.5152 718.644 Q57.7051 718.644 54.6264 714.061 Q51.5708 709.455 51.5708 700.728 Q51.5708 691.978 54.6264 687.395 Q57.7051 682.788 63.5152 682.788 Z" fill="#000000" fill-rule="evenodd" fill-opacity="1" /><path clip-path="url(#clip880)" d="M83.6771 712.094 L88.5614 712.094 L88.5614 717.973 L83.6771 717.973 L83.6771 712.094 Z" fill="#000000" fill-rule="evenodd" fill-opacity="1" /><path clip-path="url(#clip880)" d="M108.746 701.561 Q105.413 701.561 103.492 703.344 Q101.594 705.126 101.594 708.251 Q101.594 711.376 103.492 713.158 Q105.413 714.941 108.746 714.941 Q112.08 714.941 114.001 713.158 Q115.922 711.353 115.922 708.251 Q115.922 705.126 114.001 703.344 Q112.103 701.561 108.746 701.561 M104.071 699.57 Q101.061 698.83 99.3715 696.77 Q97.7048 694.709 97.7048 691.746 Q97.7048 687.603 100.645 685.196 Q103.608 682.788 108.746 682.788 Q113.908 682.788 116.848 685.196 Q119.788 687.603 119.788 691.746 Q119.788 694.709 118.098 696.77 Q116.432 698.83 113.445 699.57 Q116.825 700.357 118.7 702.649 Q120.598 704.941 120.598 708.251 Q120.598 713.274 117.52 715.959 Q114.464 718.644 108.746 718.644 Q103.029 718.644 99.9502 715.959 Q96.8947 713.274 96.8947 708.251 Q96.8947 704.941 98.7928 702.649 Q100.691 700.357 104.071 699.57 M102.358 692.186 Q102.358 694.871 104.024 696.376 Q105.714 697.881 108.746 697.881 Q111.756 697.881 113.445 696.376 Q115.158 694.871 115.158 692.186 Q115.158 689.501 113.445 687.996 Q111.756 686.492 108.746 686.492 Q105.714 686.492 104.024 687.996 Q102.358 689.501 102.358 692.186 Z" fill="#000000" fill-rule="evenodd" fill-opacity="1" /><path clip-path="url(#clip880)" d="M54.2328 393.994 L61.8717 393.994 L61.8717 367.629 L53.5616 369.295 L53.5616 365.036 L61.8254 363.37 L66.5013 363.37 L66.5013 393.994 L74.1402 393.994 L74.1402 397.93 L54.2328 397.93 L54.2328 393.994 Z" fill="#000000" fill-rule="evenodd" fill-opacity="1" /><path clip-path="url(#clip880)" d="M83.5845 392.05 L88.4688 392.05 L88.4688 397.93 L83.5845 397.93 L83.5845 392.05 Z" fill="#000000" fill-rule="evenodd" fill-opacity="1" /><path clip-path="url(#clip880)" d="M108.654 366.448 Q105.043 366.448 103.214 370.013 Q101.409 373.555 101.409 380.684 Q101.409 387.791 103.214 391.356 Q105.043 394.897 108.654 394.897 Q112.288 394.897 114.094 391.356 Q115.922 387.791 115.922 380.684 Q115.922 373.555 114.094 370.013 Q112.288 366.448 108.654 366.448 M108.654 362.745 Q114.464 362.745 117.52 367.351 Q120.598 371.934 120.598 380.684 Q120.598 389.411 117.52 394.018 Q114.464 398.601 108.654 398.601 Q102.844 398.601 99.765 394.018 Q96.7095 389.411 96.7095 380.684 Q96.7095 371.934 99.765 367.351 Q102.844 362.745 108.654 362.745 Z" fill="#000000" fill-rule="evenodd" fill-opacity="1" /><path clip-path="url(#clip880)" d="M682.811 41.3253 L671.711 71.4235 L693.951 71.4235 L682.811 41.3253 M678.193 33.264 L687.469 33.264 L710.519 93.744 L702.012 93.744 L696.503 78.229 L669.24 78.229 L663.731 93.744 L655.103 93.744 L678.193 33.264 Z" fill="#000000" fill-rule="evenodd" fill-opacity="1" /><path clip-path="url(#clip880)" d="M718.418 33.264 L726.642 33.264 L726.642 70.0057 Q726.642 79.7279 730.166 84.0218 Q733.69 88.2753 741.59 88.2753 Q749.448 88.2753 752.973 84.0218 Q756.497 79.7279 756.497 70.0057 L756.497 33.264 L764.72 33.264 L764.72 71.0184 Q764.72 82.8471 758.846 88.8829 Q753.013 94.9188 741.59 94.9188 Q730.125 94.9188 724.252 88.8829 Q718.418 82.8471 718.418 71.0184 L718.418 33.264 Z" fill="#000000" fill-rule="evenodd" fill-opacity="1" /><path clip-path="url(#clip880)" d="M806.445 33.264 L814.627 33.264 L814.627 58.0555 L844.361 58.0555 L844.361 33.264 L852.544 33.264 L852.544 93.744 L844.361 93.744 L844.361 64.9421 L814.627 64.9421 L814.627 93.744 L806.445 93.744 L806.445 33.264 Z" fill="#000000" fill-rule="evenodd" fill-opacity="1" /><path clip-path="url(#clip880)" d="M886.085 53.5995 Q880.09 53.5995 876.606 58.2986 Q873.122 62.9571 873.122 71.0994 Q873.122 79.2418 876.566 83.9408 Q880.049 88.5994 886.085 88.5994 Q892.04 88.5994 895.524 83.9003 Q899.008 79.2013 899.008 71.0994 Q899.008 63.0381 895.524 58.3391 Q892.04 53.5995 886.085 53.5995 M886.085 47.2801 Q895.807 47.2801 901.357 53.5995 Q906.907 59.9189 906.907 71.0994 Q906.907 82.2394 901.357 88.5994 Q895.807 94.9188 886.085 94.9188 Q876.323 94.9188 870.773 88.5994 Q865.264 82.2394 865.264 71.0994 Q865.264 59.9189 870.773 53.5995 Q876.323 47.2801 886.085 47.2801 Z" fill="#000000" fill-rule="evenodd" fill-opacity="1" /><path clip-path="url(#clip880)" d="M954.586 57.0833 Q957.381 52.0602 961.27 49.6702 Q965.159 47.2801 970.425 47.2801 Q977.514 47.2801 981.363 52.2627 Q985.211 57.2048 985.211 66.3599 L985.211 93.744 L977.717 93.744 L977.717 66.6029 Q977.717 60.081 975.408 56.9213 Q973.099 53.7616 968.359 53.7616 Q962.566 53.7616 959.204 57.6099 Q955.842 61.4583 955.842 68.1018 L955.842 93.744 L948.348 93.744 L948.348 66.6029 Q948.348 60.0405 946.039 56.9213 Q943.73 53.7616 938.909 53.7616 Q933.197 53.7616 929.835 57.6504 Q926.473 61.4988 926.473 68.1018 L926.473 93.744 L918.979 93.744 L918.979 48.3739 L926.473 48.3739 L926.473 55.4224 Q929.025 51.25 932.59 49.2651 Q936.154 47.2801 941.056 47.2801 Q945.998 47.2801 949.441 49.7917 Q952.925 52.3032 954.586 57.0833 Z" fill="#000000" fill-rule="evenodd" fill-opacity="1" /><path clip-path="url(#clip880)" d="M1000.08 48.3739 L1007.53 48.3739 L1007.53 93.744 L1000.08 93.744 L1000.08 48.3739 M1000.08 30.7119 L1007.53 30.7119 L1007.53 40.1505 L1000.08 40.1505 L1000.08 30.7119 Z" fill="#000000" fill-rule="evenodd" fill-opacity="1" /><path clip-path="url(#clip880)" d="M1055.78 50.1158 L1055.78 57.0833 Q1052.62 55.3414 1049.42 54.4907 Q1046.26 53.5995 1043.02 53.5995 Q1035.77 53.5995 1031.76 58.2176 Q1027.75 62.7951 1027.75 71.0994 Q1027.75 79.4038 1031.76 84.0218 Q1035.77 88.5994 1043.02 88.5994 Q1046.26 88.5994 1049.42 87.7487 Q1052.62 86.8575 1055.78 85.1156 L1055.78 92.0021 Q1052.66 93.4604 1049.3 94.1896 Q1045.97 94.9188 1042.21 94.9188 Q1031.96 94.9188 1025.92 88.4778 Q1019.89 82.0369 1019.89 71.0994 Q1019.89 60 1025.96 53.64 Q1032.08 47.2801 1042.69 47.2801 Q1046.14 47.2801 1049.42 48.0093 Q1052.7 48.6979 1055.78 50.1158 Z" fill="#000000" fill-rule="evenodd" fill-opacity="1" /><path clip-path="url(#clip880)" d="M1068.74 48.3739 L1076.19 48.3739 L1076.19 93.744 L1068.74 93.744 L1068.74 48.3739 M1068.74 30.7119 L1076.19 30.7119 L1076.19 40.1505 L1068.74 40.1505 L1068.74 30.7119 Z" fill="#000000" fill-rule="evenodd" fill-opacity="1" /><path clip-path="url(#clip880)" d="M1121.65 55.2604 L1121.65 30.7119 L1129.1 30.7119 L1129.1 93.744 L1121.65 93.744 L1121.65 86.9385 Q1119.3 90.9894 1115.69 92.9743 Q1112.13 94.9188 1107.1 94.9188 Q1098.88 94.9188 1093.69 88.3563 Q1088.55 81.7938 1088.55 71.0994 Q1088.55 60.4051 1093.69 53.8426 Q1098.88 47.2801 1107.1 47.2801 Q1112.13 47.2801 1115.69 49.2651 Q1119.3 51.2095 1121.65 55.2604 M1096.25 71.0994 Q1096.25 79.3228 1099.61 84.0218 Q1103.01 88.6804 1108.93 88.6804 Q1114.84 88.6804 1118.24 84.0218 Q1121.65 79.3228 1121.65 71.0994 Q1121.65 62.8761 1118.24 58.2176 Q1114.84 53.5185 1108.93 53.5185 Q1103.01 53.5185 1099.61 58.2176 Q1096.25 62.8761 1096.25 71.0994 Z" fill="#000000" fill-rule="evenodd" fill-opacity="1" /><path clip-path="url(#clip880)" d="M1183.26 69.1955 L1183.26 72.8413 L1148.99 72.8413 Q1149.48 80.5381 1153.61 84.589 Q1157.78 88.5994 1165.19 88.5994 Q1169.49 88.5994 1173.5 87.5461 Q1177.55 86.4929 1181.52 84.3864 L1181.52 91.435 Q1177.51 93.1364 1173.29 94.0276 Q1169.08 94.9188 1164.75 94.9188 Q1153.89 94.9188 1147.53 88.5994 Q1141.21 82.2799 1141.21 71.5045 Q1141.21 60.3645 1147.21 53.8426 Q1153.24 47.2801 1163.45 47.2801 Q1172.61 47.2801 1177.91 53.1944 Q1183.26 59.0683 1183.26 69.1955 M1175.81 67.008 Q1175.72 60.8912 1172.36 57.2454 Q1169.04 53.5995 1163.53 53.5995 Q1157.29 53.5995 1153.53 57.1238 Q1149.8 60.6481 1149.23 67.0485 L1175.81 67.008 Z" fill="#000000" fill-rule="evenodd" fill-opacity="1" /><path clip-path="url(#clip880)" d="M1248.16 55.3414 Q1246.9 54.6123 1245.4 54.2882 Q1243.94 53.9236 1242.16 53.9236 Q1235.84 53.9236 1232.44 58.0555 Q1229.08 62.1469 1229.08 69.8437 L1229.08 93.744 L1221.58 93.744 L1221.58 48.3739 L1229.08 48.3739 L1229.08 55.4224 Q1231.42 51.2905 1235.19 49.3056 Q1238.96 47.2801 1244.35 47.2801 Q1245.12 47.2801 1246.05 47.4017 Q1246.98 47.4827 1248.11 47.6852 L1248.16 55.3414 Z" fill="#000000" fill-rule="evenodd" fill-opacity="1" /><path clip-path="url(#clip880)" d="M1292.96 69.1955 L1292.96 72.8413 L1258.69 72.8413 Q1259.17 80.5381 1263.31 84.589 Q1267.48 88.5994 1274.89 88.5994 Q1279.19 88.5994 1283.2 87.5461 Q1287.25 86.4929 1291.22 84.3864 L1291.22 91.435 Q1287.21 93.1364 1282.99 94.0276 Q1278.78 94.9188 1274.45 94.9188 Q1263.59 94.9188 1257.23 88.5994 Q1250.91 82.2799 1250.91 71.5045 Q1250.91 60.3645 1256.91 53.8426 Q1262.94 47.2801 1273.15 47.2801 Q1282.3 47.2801 1287.61 53.1944 Q1292.96 59.0683 1292.96 69.1955 M1285.5 67.008 Q1285.42 60.8912 1282.06 57.2454 Q1278.74 53.5995 1273.23 53.5995 Q1266.99 53.5995 1263.22 57.1238 Q1259.5 60.6481 1258.93 67.0485 L1285.5 67.008 Z" fill="#000000" fill-rule="evenodd" fill-opacity="1" /><path clip-path="url(#clip880)" d="M1305.19 30.7119 L1312.65 30.7119 L1312.65 93.744 L1305.19 93.744 L1305.19 30.7119 Z" fill="#000000" fill-rule="evenodd" fill-opacity="1" /><path clip-path="url(#clip880)" d="M1348.86 70.9374 Q1339.83 70.9374 1336.34 73.0034 Q1332.86 75.0693 1332.86 80.0519 Q1332.86 84.0218 1335.45 86.3714 Q1338.09 88.6804 1342.58 88.6804 Q1348.78 88.6804 1352.51 84.3054 Q1356.27 79.8899 1356.27 72.5983 L1356.27 70.9374 L1348.86 70.9374 M1363.73 67.8587 L1363.73 93.744 L1356.27 93.744 L1356.27 86.8575 Q1353.72 90.9894 1349.91 92.9743 Q1346.11 94.9188 1340.6 94.9188 Q1333.63 94.9188 1329.5 91.0299 Q1325.41 87.1005 1325.41 80.5381 Q1325.41 72.8818 1330.51 68.993 Q1335.65 65.1041 1345.82 65.1041 L1356.27 65.1041 L1356.27 64.3749 Q1356.27 59.2303 1352.87 56.4352 Q1349.51 53.5995 1343.39 53.5995 Q1339.5 53.5995 1335.82 54.5312 Q1332.13 55.463 1328.73 57.3264 L1328.73 50.4398 Q1332.82 48.86 1336.67 48.0903 Q1340.52 47.2801 1344.16 47.2801 Q1354.01 47.2801 1358.87 52.3843 Q1363.73 57.4884 1363.73 67.8587 Z" fill="#000000" fill-rule="evenodd" fill-opacity="1" /><path clip-path="url(#clip880)" d="M1386.45 35.492 L1386.45 48.3739 L1401.81 48.3739 L1401.81 54.1667 L1386.45 54.1667 L1386.45 78.7962 Q1386.45 84.3459 1387.95 85.9258 Q1389.49 87.5056 1394.15 87.5056 L1401.81 87.5056 L1401.81 93.744 L1394.15 93.744 Q1385.52 93.744 1382.24 90.5438 Q1378.96 87.3031 1378.96 78.7962 L1378.96 54.1667 L1373.49 54.1667 L1373.49 48.3739 L1378.96 48.3739 L1378.96 35.492 L1386.45 35.492 Z" fill="#000000" fill-rule="evenodd" fill-opacity="1" /><path clip-path="url(#clip880)" d="M1411.61 48.3739 L1419.06 48.3739 L1419.06 93.744 L1411.61 93.744 L1411.61 48.3739 M1411.61 30.7119 L1419.06 30.7119 L1419.06 40.1505 L1411.61 40.1505 L1411.61 30.7119 Z" fill="#000000" fill-rule="evenodd" fill-opacity="1" /><path clip-path="url(#clip880)" d="M1429.31 48.3739 L1437.21 48.3739 L1451.39 86.4524 L1465.57 48.3739 L1473.47 48.3739 L1456.45 93.744 L1446.33 93.744 L1429.31 48.3739 Z" fill="#000000" fill-rule="evenodd" fill-opacity="1" /><path clip-path="url(#clip880)" d="M1522.56 69.1955 L1522.56 72.8413 L1488.29 72.8413 Q1488.78 80.5381 1492.91 84.589 Q1497.08 88.5994 1504.5 88.5994 Q1508.79 88.5994 1512.8 87.5461 Q1516.85 86.4929 1520.82 84.3864 L1520.82 91.435 Q1516.81 93.1364 1512.6 94.0276 Q1508.39 94.9188 1504.05 94.9188 Q1493.19 94.9188 1486.83 88.5994 Q1480.51 82.2799 1480.51 71.5045 Q1480.51 60.3645 1486.51 53.8426 Q1492.55 47.2801 1502.75 47.2801 Q1511.91 47.2801 1517.22 53.1944 Q1522.56 59.0683 1522.56 69.1955 M1515.11 67.008 Q1515.03 60.8912 1511.67 57.2454 Q1508.34 53.5995 1502.84 53.5995 Q1496.6 53.5995 1492.83 57.1238 Q1489.1 60.6481 1488.54 67.0485 L1515.11 67.008 Z" fill="#000000" fill-rule="evenodd" fill-opacity="1" /><path clip-path="url(#clip880)" d="M1593.82 50.1158 L1593.82 57.0833 Q1590.66 55.3414 1587.46 54.4907 Q1584.3 53.5995 1581.06 53.5995 Q1573.81 53.5995 1569.8 58.2176 Q1565.79 62.7951 1565.79 71.0994 Q1565.79 79.4038 1569.8 84.0218 Q1573.81 88.5994 1581.06 88.5994 Q1584.3 88.5994 1587.46 87.7487 Q1590.66 86.8575 1593.82 85.1156 L1593.82 92.0021 Q1590.7 93.4604 1587.34 94.1896 Q1584.02 94.9188 1580.25 94.9188 Q1570 94.9188 1563.96 88.4778 Q1557.93 82.0369 1557.93 71.0994 Q1557.93 60 1564 53.64 Q1570.12 47.2801 1580.73 47.2801 Q1584.18 47.2801 1587.46 48.0093 Q1590.74 48.6979 1593.82 50.1158 Z" fill="#000000" fill-rule="evenodd" fill-opacity="1" /><path clip-path="url(#clip880)" d="M1644.5 66.3599 L1644.5 93.744 L1637.04 93.744 L1637.04 66.6029 Q1637.04 60.162 1634.53 56.9618 Q1632.02 53.7616 1627 53.7616 Q1620.96 53.7616 1617.48 57.6099 Q1613.99 61.4583 1613.99 68.1018 L1613.99 93.744 L1606.5 93.744 L1606.5 30.7119 L1613.99 30.7119 L1613.99 55.4224 Q1616.67 51.331 1620.27 49.3056 Q1623.92 47.2801 1628.66 47.2801 Q1636.47 47.2801 1640.49 52.1412 Q1644.5 56.9618 1644.5 66.3599 Z" fill="#000000" fill-rule="evenodd" fill-opacity="1" /><path clip-path="url(#clip880)" d="M1679.98 70.9374 Q1670.95 70.9374 1667.46 73.0034 Q1663.98 75.0693 1663.98 80.0519 Q1663.98 84.0218 1666.57 86.3714 Q1669.21 88.6804 1673.7 88.6804 Q1679.9 88.6804 1683.63 84.3054 Q1687.39 79.8899 1687.39 72.5983 L1687.39 70.9374 L1679.98 70.9374 M1694.85 67.8587 L1694.85 93.744 L1687.39 93.744 L1687.39 86.8575 Q1684.84 90.9894 1681.03 92.9743 Q1677.23 94.9188 1671.72 94.9188 Q1664.75 94.9188 1660.62 91.0299 Q1656.53 87.1005 1656.53 80.5381 Q1656.53 72.8818 1661.63 68.993 Q1666.78 65.1041 1676.94 65.1041 L1687.39 65.1041 L1687.39 64.3749 Q1687.39 59.2303 1683.99 56.4352 Q1680.63 53.5995 1674.51 53.5995 Q1670.62 53.5995 1666.94 54.5312 Q1663.25 55.463 1659.85 57.3264 L1659.85 50.4398 Q1663.94 48.86 1667.79 48.0903 Q1671.64 47.2801 1675.28 47.2801 Q1685.13 47.2801 1689.99 52.3843 Q1694.85 57.4884 1694.85 67.8587 Z" fill="#000000" fill-rule="evenodd" fill-opacity="1" /><path clip-path="url(#clip880)" d="M1747.92 66.3599 L1747.92 93.744 L1740.46 93.744 L1740.46 66.6029 Q1740.46 60.162 1737.95 56.9618 Q1735.44 53.7616 1730.42 53.7616 Q1724.38 53.7616 1720.9 57.6099 Q1717.41 61.4583 1717.41 68.1018 L1717.41 93.744 L1709.92 93.744 L1709.92 48.3739 L1717.41 48.3739 L1717.41 55.4224 Q1720.09 51.331 1723.69 49.3056 Q1727.34 47.2801 1732.08 47.2801 Q1739.89 47.2801 1743.9 52.1412 Q1747.92 56.9618 1747.92 66.3599 Z" fill="#000000" fill-rule="evenodd" fill-opacity="1" /><path clip-path="url(#clip880)" d="M1792.64 70.5323 Q1792.64 62.4305 1789.27 57.9745 Q1785.95 53.5185 1779.92 53.5185 Q1773.92 53.5185 1770.56 57.9745 Q1767.24 62.4305 1767.24 70.5323 Q1767.24 78.5936 1770.56 83.0496 Q1773.92 87.5056 1779.92 87.5056 Q1785.95 87.5056 1789.27 83.0496 Q1792.64 78.5936 1792.64 70.5323 M1800.09 88.1132 Q1800.09 99.6988 1794.95 105.33 Q1789.8 111.001 1779.19 111.001 Q1775.26 111.001 1771.77 110.393 Q1768.29 109.826 1765.01 108.611 L1765.01 101.36 Q1768.29 103.142 1771.49 103.993 Q1774.69 104.843 1778.01 104.843 Q1785.35 104.843 1788.99 100.995 Q1792.64 97.1873 1792.64 89.45 L1792.64 85.7637 Q1790.33 89.7741 1786.72 91.7591 Q1783.12 93.744 1778.09 93.744 Q1769.75 93.744 1764.65 87.3841 Q1759.54 81.0242 1759.54 70.5323 Q1759.54 60 1764.65 53.64 Q1769.75 47.2801 1778.09 47.2801 Q1783.12 47.2801 1786.72 49.2651 Q1790.33 51.25 1792.64 55.2604 L1792.64 48.3739 L1800.09 48.3739 L1800.09 88.1132 Z" fill="#000000" fill-rule="evenodd" fill-opacity="1" /><path clip-path="url(#clip880)" d="M1854.25 69.1955 L1854.25 72.8413 L1819.98 72.8413 Q1820.47 80.5381 1824.6 84.589 Q1828.77 88.5994 1836.18 88.5994 Q1840.48 88.5994 1844.49 87.5461 Q1848.54 86.4929 1852.51 84.3864 L1852.51 91.435 Q1848.5 93.1364 1844.29 94.0276 Q1840.07 94.9188 1835.74 94.9188 Q1824.88 94.9188 1818.52 88.5994 Q1812.2 82.2799 1812.2 71.5045 Q1812.2 60.3645 1818.2 53.8426 Q1824.23 47.2801 1834.44 47.2801 Q1843.6 47.2801 1848.9 53.1944 Q1854.25 59.0683 1854.25 69.1955 M1846.8 67.008 Q1846.72 60.8912 1843.35 57.2454 Q1840.03 53.5995 1834.52 53.5995 Q1828.29 53.5995 1824.52 57.1238 Q1820.79 60.6481 1820.22 67.0485 L1846.8 67.008 Z" fill="#000000" fill-rule="evenodd" fill-opacity="1" /><path clip-path="url(#clip880)" d="M870.894 132.045 L859.795 162.144 L882.034 162.144 L870.894 132.045 M866.276 123.984 L875.553 123.984 L898.603 184.464 L890.096 184.464 L884.586 168.949 L857.324 168.949 L851.815 184.464 L843.186 184.464 L866.276 123.984 Z" fill="#000000" fill-rule="evenodd" fill-opacity="1" /><path clip-path="url(#clip880)" d="M938.301 140.836 L938.301 147.803 Q935.142 146.061 931.942 145.211 Q928.782 144.32 925.541 144.32 Q918.29 144.32 914.28 148.938 Q910.269 153.515 910.269 161.819 Q910.269 170.124 914.28 174.742 Q918.29 179.319 925.541 179.319 Q928.782 179.319 931.942 178.469 Q935.142 177.577 938.301 175.836 L938.301 182.722 Q935.182 184.18 931.82 184.91 Q928.498 185.639 924.731 185.639 Q914.482 185.639 908.446 179.198 Q902.41 172.757 902.41 161.819 Q902.41 150.72 908.487 144.36 Q914.604 138 925.217 138 Q928.66 138 931.942 138.729 Q935.223 139.418 938.301 140.836 Z" fill="#000000" fill-rule="evenodd" fill-opacity="1" /><path clip-path="url(#clip880)" d="M958.637 126.212 L958.637 139.094 L973.99 139.094 L973.99 144.887 L958.637 144.887 L958.637 169.516 Q958.637 175.066 960.136 176.646 Q961.675 178.226 966.334 178.226 L973.99 178.226 L973.99 184.464 L966.334 184.464 Q957.705 184.464 954.424 181.264 Q951.143 178.023 951.143 169.516 L951.143 144.887 L945.674 144.887 L945.674 139.094 L951.143 139.094 L951.143 126.212 L958.637 126.212 Z" fill="#000000" fill-rule="evenodd" fill-opacity="1" /><path clip-path="url(#clip880)" d="M983.023 166.559 L983.023 139.094 L990.477 139.094 L990.477 166.275 Q990.477 172.716 992.989 175.957 Q995.5 179.157 1000.52 179.157 Q1006.56 179.157 1010.04 175.309 Q1013.57 171.461 1013.57 164.817 L1013.57 139.094 L1021.02 139.094 L1021.02 184.464 L1013.57 184.464 L1013.57 177.496 Q1010.85 181.628 1007.25 183.654 Q1003.68 185.639 998.943 185.639 Q991.125 185.639 987.074 180.778 Q983.023 175.917 983.023 166.559 M1001.78 138 L1001.78 138 Z" fill="#000000" fill-rule="evenodd" fill-opacity="1" /><path clip-path="url(#clip880)" d="M1056.99 161.657 Q1047.96 161.657 1044.48 163.723 Q1040.99 165.789 1040.99 170.772 Q1040.99 174.742 1043.58 177.091 Q1046.22 179.4 1050.71 179.4 Q1056.91 179.4 1060.64 175.025 Q1064.41 170.61 1064.41 163.318 L1064.41 161.657 L1056.99 161.657 M1071.86 158.579 L1071.86 184.464 L1064.41 184.464 L1064.41 177.577 Q1061.85 181.709 1058.05 183.694 Q1054.24 185.639 1048.73 185.639 Q1041.76 185.639 1037.63 181.75 Q1033.54 177.821 1033.54 171.258 Q1033.54 163.602 1038.64 159.713 Q1043.79 155.824 1053.95 155.824 L1064.41 155.824 L1064.41 155.095 Q1064.41 149.95 1061 147.155 Q1057.64 144.32 1051.52 144.32 Q1047.64 144.32 1043.95 145.251 Q1040.26 146.183 1036.86 148.046 L1036.86 141.16 Q1040.95 139.58 1044.8 138.81 Q1048.65 138 1052.29 138 Q1062.14 138 1067 143.104 Q1071.86 148.208 1071.86 158.579 Z" fill="#000000" fill-rule="evenodd" fill-opacity="1" /><path clip-path="url(#clip880)" d="M1087.21 121.432 L1094.67 121.432 L1094.67 184.464 L1087.21 184.464 L1087.21 121.432 Z" fill="#000000" fill-rule="evenodd" fill-opacity="1" /><path clip-path="url(#clip880)" d="M1157.25 161.657 Q1148.22 161.657 1144.74 163.723 Q1141.25 165.789 1141.25 170.772 Q1141.25 174.742 1143.84 177.091 Q1146.48 179.4 1150.97 179.4 Q1157.17 179.4 1160.9 175.025 Q1164.67 170.61 1164.67 163.318 L1164.67 161.657 L1157.25 161.657 M1172.12 158.579 L1172.12 184.464 L1164.67 184.464 L1164.67 177.577 Q1162.11 181.709 1158.31 183.694 Q1154.5 185.639 1148.99 185.639 Q1142.02 185.639 1137.89 181.75 Q1133.8 177.821 1133.8 171.258 Q1133.8 163.602 1138.9 159.713 Q1144.05 155.824 1154.21 155.824 L1164.67 155.824 L1164.67 155.095 Q1164.67 149.95 1161.26 147.155 Q1157.9 144.32 1151.78 144.32 Q1147.9 144.32 1144.21 145.251 Q1140.52 146.183 1137.12 148.046 L1137.12 141.16 Q1141.21 139.58 1145.06 138.81 Q1148.91 138 1152.55 138 Q1162.4 138 1167.26 143.104 Q1172.12 148.208 1172.12 158.579 Z" fill="#000000" fill-rule="evenodd" fill-opacity="1" /><path clip-path="url(#clip880)" d="M1225.19 157.08 L1225.19 184.464 L1217.73 184.464 L1217.73 157.323 Q1217.73 150.882 1215.22 147.682 Q1212.71 144.482 1207.69 144.482 Q1201.65 144.482 1198.17 148.33 Q1194.68 152.178 1194.68 158.822 L1194.68 184.464 L1187.19 184.464 L1187.19 139.094 L1194.68 139.094 L1194.68 146.142 Q1197.36 142.051 1200.96 140.026 Q1204.61 138 1209.35 138 Q1217.17 138 1221.18 142.861 Q1225.19 147.682 1225.19 157.08 Z" fill="#000000" fill-rule="evenodd" fill-opacity="1" /><path clip-path="url(#clip880)" d="M1269.91 145.98 L1269.91 121.432 L1277.36 121.432 L1277.36 184.464 L1269.91 184.464 L1269.91 177.658 Q1267.56 181.709 1263.95 183.694 Q1260.39 185.639 1255.37 185.639 Q1247.14 185.639 1241.96 179.076 Q1236.81 172.514 1236.81 161.819 Q1236.81 151.125 1241.96 144.563 Q1247.14 138 1255.37 138 Q1260.39 138 1263.95 139.985 Q1267.56 141.93 1269.91 145.98 M1244.51 161.819 Q1244.51 170.043 1247.87 174.742 Q1251.27 179.4 1257.19 179.4 Q1263.1 179.4 1266.51 174.742 Q1269.91 170.043 1269.91 161.819 Q1269.91 153.596 1266.51 148.938 Q1263.1 144.239 1257.19 144.239 Q1251.27 144.239 1247.87 148.938 Q1244.51 153.596 1244.51 161.819 Z" fill="#000000" fill-rule="evenodd" fill-opacity="1" /><path clip-path="url(#clip880)" d="M1327.59 130.709 L1327.59 153.434 L1337.88 153.434 Q1343.59 153.434 1346.71 150.477 Q1349.83 147.52 1349.83 142.051 Q1349.83 136.623 1346.71 133.666 Q1343.59 130.709 1337.88 130.709 L1327.59 130.709 M1319.41 123.984 L1337.88 123.984 Q1348.05 123.984 1353.24 128.602 Q1358.46 133.18 1358.46 142.051 Q1358.46 151.004 1353.24 155.581 Q1348.05 160.159 1337.88 160.159 L1327.59 160.159 L1327.59 184.464 L1319.41 184.464 L1319.41 123.984 Z" fill="#000000" fill-rule="evenodd" fill-opacity="1" /><path clip-path="url(#clip880)" d="M1393.95 146.061 Q1392.69 145.332 1391.19 145.008 Q1389.73 144.644 1387.95 144.644 Q1381.63 144.644 1378.23 148.776 Q1374.87 152.867 1374.87 160.564 L1374.87 184.464 L1367.37 184.464 L1367.37 139.094 L1374.87 139.094 L1374.87 146.142 Q1377.22 142.011 1380.98 140.026 Q1384.75 138 1390.14 138 Q1390.91 138 1391.84 138.122 Q1392.77 138.203 1393.91 138.405 L1393.95 146.061 Z" fill="#000000" fill-rule="evenodd" fill-opacity="1" /><path clip-path="url(#clip880)" d="M1438.75 159.916 L1438.75 163.561 L1404.48 163.561 Q1404.97 171.258 1409.1 175.309 Q1413.27 179.319 1420.68 179.319 Q1424.98 179.319 1428.99 178.266 Q1433.04 177.213 1437.01 175.106 L1437.01 182.155 Q1433 183.856 1428.78 184.748 Q1424.57 185.639 1420.24 185.639 Q1409.38 185.639 1403.02 179.319 Q1396.7 173 1396.7 162.225 Q1396.7 151.085 1402.7 144.563 Q1408.73 138 1418.94 138 Q1428.1 138 1433.4 143.914 Q1438.75 149.788 1438.75 159.916 M1431.3 157.728 Q1431.22 151.611 1427.85 147.965 Q1424.53 144.32 1419.02 144.32 Q1412.78 144.32 1409.02 147.844 Q1405.29 151.368 1404.72 157.769 L1431.3 157.728 Z" fill="#000000" fill-rule="evenodd" fill-opacity="1" /><path clip-path="url(#clip880)" d="M1480.84 145.98 L1480.84 121.432 L1488.29 121.432 L1488.29 184.464 L1480.84 184.464 L1480.84 177.658 Q1478.49 181.709 1474.88 183.694 Q1471.32 185.639 1466.3 185.639 Q1458.07 185.639 1452.89 179.076 Q1447.74 172.514 1447.74 161.819 Q1447.74 151.125 1452.89 144.563 Q1458.07 138 1466.3 138 Q1471.32 138 1474.88 139.985 Q1478.49 141.93 1480.84 145.98 M1455.44 161.819 Q1455.44 170.043 1458.8 174.742 Q1462.2 179.4 1468.12 179.4 Q1474.03 179.4 1477.44 174.742 Q1480.84 170.043 1480.84 161.819 Q1480.84 153.596 1477.44 148.938 Q1474.03 144.239 1468.12 144.239 Q1462.2 144.239 1458.8 148.938 Q1455.44 153.596 1455.44 161.819 Z" fill="#000000" fill-rule="evenodd" fill-opacity="1" /><path clip-path="url(#clip880)" d="M1503.65 139.094 L1511.1 139.094 L1511.1 184.464 L1503.65 184.464 L1503.65 139.094 M1503.65 121.432 L1511.1 121.432 L1511.1 130.871 L1503.65 130.871 L1503.65 121.432 Z" fill="#000000" fill-rule="evenodd" fill-opacity="1" /><path clip-path="url(#clip880)" d="M1559.35 140.836 L1559.35 147.803 Q1556.19 146.061 1552.99 145.211 Q1549.83 144.32 1546.59 144.32 Q1539.33 144.32 1535.32 148.938 Q1531.31 153.515 1531.31 161.819 Q1531.31 170.124 1535.32 174.742 Q1539.33 179.319 1546.59 179.319 Q1549.83 179.319 1552.99 178.469 Q1556.19 177.577 1559.35 175.836 L1559.35 182.722 Q1556.23 184.18 1552.86 184.91 Q1549.54 185.639 1545.78 185.639 Q1535.53 185.639 1529.49 179.198 Q1523.45 172.757 1523.45 161.819 Q1523.45 150.72 1529.53 144.36 Q1535.65 138 1546.26 138 Q1549.7 138 1552.99 138.729 Q1556.27 139.418 1559.35 140.836 Z" fill="#000000" fill-rule="evenodd" fill-opacity="1" /><path clip-path="url(#clip880)" d="M1579.68 126.212 L1579.68 139.094 L1595.03 139.094 L1595.03 144.887 L1579.68 144.887 L1579.68 169.516 Q1579.68 175.066 1581.18 176.646 Q1582.72 178.226 1587.38 178.226 L1595.03 178.226 L1595.03 184.464 L1587.38 184.464 Q1578.75 184.464 1575.47 181.264 Q1572.19 178.023 1572.19 169.516 L1572.19 144.887 L1566.72 144.887 L1566.72 139.094 L1572.19 139.094 L1572.19 126.212 L1579.68 126.212 Z" fill="#000000" fill-rule="evenodd" fill-opacity="1" /><path clip-path="url(#clip880)" d="M1643.64 159.916 L1643.64 163.561 L1609.37 163.561 Q1609.86 171.258 1613.99 175.309 Q1618.16 179.319 1625.58 179.319 Q1629.87 179.319 1633.88 178.266 Q1637.93 177.213 1641.9 175.106 L1641.9 182.155 Q1637.89 183.856 1633.68 184.748 Q1629.47 185.639 1625.13 185.639 Q1614.28 185.639 1607.92 179.319 Q1601.6 173 1601.6 162.225 Q1601.6 151.085 1607.59 144.563 Q1613.63 138 1623.84 138 Q1632.99 138 1638.3 143.914 Q1643.64 149.788 1643.64 159.916 M1636.19 157.728 Q1636.11 151.611 1632.75 147.965 Q1629.43 144.32 1623.92 144.32 Q1617.68 144.32 1613.91 147.844 Q1610.18 151.368 1609.62 157.769 L1636.19 157.728 Z" fill="#000000" fill-rule="evenodd" fill-opacity="1" /><path clip-path="url(#clip880)" d="M1685.73 145.98 L1685.73 121.432 L1693.19 121.432 L1693.19 184.464 L1685.73 184.464 L1685.73 177.658 Q1683.38 181.709 1679.78 183.694 Q1676.21 185.639 1671.19 185.639 Q1662.97 185.639 1657.78 179.076 Q1652.64 172.514 1652.64 161.819 Q1652.64 151.125 1657.78 144.563 Q1662.97 138 1671.19 138 Q1676.21 138 1679.78 139.985 Q1683.38 141.93 1685.73 145.98 M1660.33 161.819 Q1660.33 170.043 1663.7 174.742 Q1667.1 179.4 1673.01 179.4 Q1678.93 179.4 1682.33 174.742 Q1685.73 170.043 1685.73 161.819 Q1685.73 153.596 1682.33 148.938 Q1678.93 144.239 1673.01 144.239 Q1667.1 144.239 1663.7 148.938 Q1660.33 153.596 1660.33 161.819 Z" fill="#000000" fill-rule="evenodd" fill-opacity="1" /><polyline clip-path="url(#clip882)" style="stroke:#009af9; stroke-linecap:butt; stroke-linejoin:round; stroke-width:12; stroke-opacity:1; fill:none" points="
  218.754,380.65 298.44,484.655 378.126,503.662 457.813,456.92 537.499,488.38 617.186,418.609 696.872,377.62 776.559,372.574 856.245,281.508 935.931,390.114 
  1015.62,547.754 1095.3,729.805 1174.99,827.475 1254.68,869.486 1334.36,947.605 1414.05,976.176 1493.74,994.038 1573.42,1135.64 1653.11,1129.72 1732.8,1181.78 
  1812.48,1221.41 1892.17,1251.64 1971.85,1270.57 2051.54,1223.22 2131.23,1273.23 2210.91,1369.83 2290.6,1316.63 
  "/>
<polyline clip-path="url(#clip882)" style="stroke:#e26f46; stroke-linecap:butt; stroke-linejoin:round; stroke-width:4; stroke-opacity:0.5; fill:none" points="
  218.754,380.65 298.44,410.631 378.126,487.503 457.813,541.248 537.499,459.876 617.186,384.155 696.872,365.786 776.559,415.656 856.245,296.43 935.931,363.616 
  1015.62,481.988 1095.3,623.571 1174.99,733.088 1254.68,819.373 1334.36,925.33 1414.05,1032.68 1493.74,911.775 1573.42,1021.95 1653.11,1121.69 1732.8,1207.66 
  1812.48,1273.36 1892.17,1274.13 1971.85,1258.88 2051.54,1175.5 2131.23,1248.82 2210.91,1313 2290.6,1327.11 
  "/>
<polyline clip-path="url(#clip882)" style="stroke:#3da44d; stroke-linecap:butt; stroke-linejoin:round; stroke-width:4; stroke-opacity:0.5; fill:none" points="
  218.754,380.65 298.44,392.253 378.126,480.344 457.813,541.472 537.499,520.821 617.186,368.899 696.872,328.045 776.559,391.956 856.245,220.815 935.931,311.097 
  1015.62,461.111 1095.3,627.031 1174.99,758.392 1254.68,863.71 1334.36,987.739 1414.05,1101.27 1493.74,917.957 1573.42,1040.41 1653.11,1148.89 1732.8,1242.46 
  1812.48,1313.95 1892.17,1300.53 1971.85,1270.41 2051.54,1149.79 2131.23,1238.64 2210.91,1315.69 2290.6,1338.66 
  "/>
<polyline clip-path="url(#clip882)" style="stroke:#c271d2; stroke-linecap:butt; stroke-linejoin:round; stroke-width:4; stroke-opacity:0.5; fill:none" points="
  218.754,380.65 298.44,430.921 378.126,487.258 457.813,532.737 537.499,475.096 617.186,473.615 696.872,472.936 776.559,486.228 856.245,454.386 935.931,480.992 
  1015.62,534.285 1095.3,617.267 1174.99,687.133 1254.68,748.561 1334.36,820.122 1414.05,907.718 1493.74,925.823 1573.42,1006.35 1653.11,1085.3 1732.8,1155.75 
  1812.48,1213.45 1892.17,1247.82 1971.85,1272.07 2051.54,1275.69 2131.23,1313.19 2210.91,1348.04 2290.6,1361.32 
  "/>
<polyline clip-path="url(#clip882)" style="stroke:#ac8d18; stroke-linecap:butt; stroke-linejoin:round; stroke-width:4; stroke-opacity:0.5; fill:none" points="
  218.754,380.65 298.44,401.177 378.126,471.965 457.813,532.178 537.499,477.648 617.186,388.776 696.872,360.937 776.559,400.733 856.245,318.735 935.931,374.6 
  1015.62,482.708 1095.3,614.599 1174.99,723.52 1254.68,817.631 1334.36,907.626 1414.05,1007.78 1493.74,922.458 1573.42,1022.55 1653.11,1115.97 1732.8,1196.78 
  1812.48,1260.34 1892.17,1278.94 1971.85,1284.05 2051.54,1249.18 2131.23,1310.84 2210.91,1366.08 2290.6,1389 
  "/>
<polyline clip-path="url(#clip882)" style="stroke:#00a9ad; stroke-linecap:butt; stroke-linejoin:round; stroke-width:4; stroke-opacity:0.5; fill:none" points="
  218.754,380.65 298.44,355.108 378.126,396.687 457.813,442.341 537.499,536.271 617.186,415.621 696.872,373.672 776.559,398.642 856.245,361.269 935.931,407.177 
  1015.62,501.668 1095.3,618.592 1174.99,718.107 1254.68,808.805 1334.36,916.614 1414.05,1006.94 1493.74,981.86 1573.42,1066.1 1653.11,1137.76 1732.8,1202.94 
  1812.48,1246.91 1892.17,1248.15 1971.85,1248.91 2051.54,1237.42 2131.23,1292.66 2210.91,1341.65 2290.6,1366.66 
  "/>
<polyline clip-path="url(#clip882)" style="stroke:#ed5d92; stroke-linecap:butt; stroke-linejoin:round; stroke-width:4; stroke-opacity:0.5; fill:none" points="
  218.754,380.65 298.44,357.267 378.126,426.802 457.813,501.522 537.499,493.837 617.186,353.145 696.872,327.361 776.559,387.106 856.245,359.278 935.931,433.018 
  1015.62,545.626 1095.3,665.803 1174.99,773.247 1254.68,871.392 1334.36,950.672 1414.05,1037.54 1493.74,950.651 1573.42,1037.87 1653.11,1119.69 1732.8,1192.99 
  1812.48,1255.27 1892.17,1288.58 1971.85,1311.02 2051.54,1309.48 2131.23,1364.35 2210.91,1414.58 2290.6,1449.58 
  "/>
<polyline clip-path="url(#clip882)" style="stroke:#c68125; stroke-linecap:butt; stroke-linejoin:round; stroke-width:4; stroke-opacity:0.5; fill:none" points="
  218.754,380.65 298.44,389.338 378.126,459.891 457.813,523.778 537.499,612.408 617.186,477.046 696.872,431.484 776.559,465.558 856.245,391.605 935.931,435.587 
  1015.62,539.959 1095.3,667.907 1174.99,773.93 1254.68,867.169 1334.36,974.327 1414.05,1069.47 1493.74,991.269 1573.42,1085.39 1653.11,1170.44 1732.8,1244.27 
  1812.48,1297.03 1892.17,1293.87 1971.85,1283.31 2051.54,1244.89 2131.23,1307.9 2210.91,1363.85 2290.6,1389.77 
  "/>
<polyline clip-path="url(#clip882)" style="stroke:#00a98d; stroke-linecap:butt; stroke-linejoin:round; stroke-width:4; stroke-opacity:0.5; fill:none" points="
  218.754,380.65 298.44,382.792 378.126,429.467 457.813,463.018 537.499,462.653 617.186,424.698 696.872,420.565 776.559,460.085 856.245,407.449 935.931,452.383 
  1015.62,537.993 1095.3,651.759 1174.99,736.428 1254.68,802.495 1334.36,899.25 1414.05,997.022 1493.74,942.758 1573.42,1038.29 1653.11,1126.01 1732.8,1200.48 
  1812.48,1253.68 1892.17,1254.86 1971.85,1243.05 2051.54,1190.12 2131.23,1247.27 2210.91,1297.24 2290.6,1304.11 
  "/>
<polyline clip-path="url(#clip882)" style="stroke:#8e971d; stroke-linecap:butt; stroke-linejoin:round; stroke-width:4; stroke-opacity:0.5; fill:none" points="
  218.754,380.65 298.44,392.628 378.126,454.165 457.813,507.2 537.499,499.39 617.186,444.036 696.872,438.66 776.559,484.692 856.245,446.416 935.931,507.045 
  1015.62,605.379 1095.3,723.712 1174.99,818.544 1254.68,898.927 1334.36,988.727 1414.05,1079.21 1493.74,1006.69 1573.42,1096.83 1653.11,1180.37 1732.8,1250.32 
  1812.48,1298.66 1892.17,1294.03 1971.85,1281.68 2051.54,1236.65 2131.23,1294.37 2210.91,1344.91 2290.6,1357.17 
  "/>
<polyline clip-path="url(#clip882)" style="stroke:#00a8cb; stroke-linecap:butt; stroke-linejoin:round; stroke-width:4; stroke-opacity:0.5; fill:none" points="
  218.754,380.65 298.44,472.451 378.126,578.787 457.813,665.103 537.499,508.386 617.186,429.711 696.872,402.579 776.559,436.645 856.245,329.94 935.931,403.765 
  1015.62,523.796 1095.3,663.229 1174.99,776.825 1254.68,873.825 1334.36,965.87 1414.05,1066.48 1493.74,956.147 1573.42,1059.57 1653.11,1154.56 1732.8,1234.06 
  1812.48,1291.81 1892.17,1292.87 1971.85,1290.74 2051.54,1251.39 2131.23,1317.07 2210.91,1374.5 2290.6,1391.96 
  "/>
<polyline clip-path="url(#clip882)" style="stroke:#9b7fe8; stroke-linecap:butt; stroke-linejoin:round; stroke-width:4; stroke-opacity:0.5; fill:none" points="
  218.754,380.65 298.44,367.867 378.126,410.403 457.813,442.29 537.499,533.788 617.186,464.875 696.872,443.892 776.559,475.969 856.245,420.532 935.931,458.795 
  1015.62,548.686 1095.3,673.893 1174.99,763.224 1254.68,832.93 1334.36,962.964 1414.05,1069.34 1493.74,1020.72 1573.42,1121.99 1653.11,1204.23 1732.8,1275.23 
  1812.48,1316.08 1892.17,1294.86 1971.85,1266.91 2051.54,1208.89 2131.23,1269.08 2210.91,1319.31 2290.6,1322.85 
  "/>
<polyline clip-path="url(#clip882)" style="stroke:#608cf6; stroke-linecap:butt; stroke-linejoin:round; stroke-width:4; stroke-opacity:0.5; fill:none" points="
  218.754,380.65 298.44,371.764 378.126,409.303 457.813,452.859 537.499,381.035 617.186,367.233 696.872,384.256 776.559,432.479 856.245,447.155 935.931,510.22 
  1015.62,593.662 1095.3,689.956 1174.99,774.257 1254.68,851.3 1334.36,901.397 1414.05,975.575 1493.74,958.023 1573.42,1028.46 1653.11,1101.09 1732.8,1162.14 
  1812.48,1209.4 1892.17,1230.5 1971.85,1245.24 2051.54,1244.13 2131.23,1287.7 2210.91,1327.6 2290.6,1346.53 
  "/>
<polyline clip-path="url(#clip882)" style="stroke:#f05f73; stroke-linecap:butt; stroke-linejoin:round; stroke-width:4; stroke-opacity:0.5; fill:none" points="
  218.754,380.65 298.44,408.971 378.126,474.828 457.813,527.713 537.499,493.59 617.186,447.393 696.872,432.67 776.559,465.937 856.245,393.386 935.931,422.856 
  1015.62,507.2 1095.3,628.173 1174.99,722.61 1254.68,800.335 1334.36,870.799 1414.05,974.474 1493.74,912.464 1573.42,1014.45 1653.11,1112 1732.8,1195.02 
  1812.48,1259.67 1892.17,1282.32 1971.85,1286.68 2051.54,1249.23 2131.23,1306.57 2210.91,1358.42 2290.6,1375.02 
  "/>
<polyline clip-path="url(#clip882)" style="stroke:#dd64b5; stroke-linecap:butt; stroke-linejoin:round; stroke-width:4; stroke-opacity:0.5; fill:none" points="
  218.754,380.65 298.44,432.801 378.126,514.466 457.813,591.368 537.499,387.124 617.186,345.34 696.872,349.549 776.559,399.09 856.245,390.637 935.931,469.048 
  1015.62,576.356 1095.3,696.934 1174.99,801.502 1254.68,896.026 1334.36,920.87 1414.05,1006.16 1493.74,932.873 1573.42,1018.33 1653.11,1107.01 1732.8,1178.23 
  1812.48,1230.1 1892.17,1243.75 1971.85,1253.83 2051.54,1245.07 2131.23,1299.9 2210.91,1349.23 2290.6,1370.4 
  "/>
<polyline clip-path="url(#clip882)" style="stroke:#6b9e32; stroke-linecap:butt; stroke-linejoin:round; stroke-width:4; stroke-opacity:0.5; fill:none" points="
  218.754,380.65 298.44,411.858 378.126,485.707 457.813,547.947 537.499,584.879 617.186,436.95 696.872,371.954 776.559,386.756 856.245,284.517 935.931,342.378 
  1015.62,456.546 1095.3,594.446 1174.99,708.273 1254.68,808.372 1334.36,926.446 1414.05,1028.38 1493.74,974.728 1573.42,1072.43 1653.11,1156.84 1732.8,1230.91 
  1812.48,1282.66 1892.17,1281.69 1971.85,1281.33 2051.54,1257.4 2131.23,1319.88 2210.91,1374.46 2290.6,1396.89 
  "/>
<polyline clip-path="url(#clip882)" style="stroke:#009af9; stroke-linecap:butt; stroke-linejoin:round; stroke-width:4; stroke-opacity:0.5; fill:none" points="
  218.754,380.65 298.44,371.094 378.126,433.639 457.813,483.031 537.499,446.232 617.186,409.526 696.872,430.134 776.559,501.165 856.245,453.592 935.931,529.086 
  1015.62,626.705 1095.3,728.417 1174.99,816.92 1254.68,893.845 1334.36,974.291 1414.05,1051.63 1493.74,976.755 1573.42,1054.08 1653.11,1125.62 1732.8,1191.16 
  1812.48,1248.89 1892.17,1273.41 1971.85,1283.52 2051.54,1233.47 2131.23,1288.95 2210.91,1339.74 2290.6,1367.26 
  "/>
<polyline clip-path="url(#clip882)" style="stroke:#e26f46; stroke-linecap:butt; stroke-linejoin:round; stroke-width:4; stroke-opacity:0.5; fill:none" points="
  218.754,380.65 298.44,437.295 378.126,510.956 457.813,559.408 537.499,431.781 617.186,421.992 696.872,426.541 776.559,464.627 856.245,385.533 935.931,437.414 
  1015.62,527.579 1095.3,648.755 1174.99,734.532 1254.68,795.761 1334.36,888.175 1414.05,996.02 1493.74,951.854 1573.42,1055.81 1653.11,1150.57 1732.8,1230.44 
  1812.48,1290.19 1892.17,1301.8 1971.85,1300.23 2051.54,1251.55 2131.23,1307.87 2210.91,1356.52 2290.6,1357.8 
  "/>
<polyline clip-path="url(#clip882)" style="stroke:#3da44d; stroke-linecap:butt; stroke-linejoin:round; stroke-width:4; stroke-opacity:0.5; fill:none" points="
  218.754,380.65 298.44,377.619 378.126,438.11 457.813,490.45 537.499,538.68 617.186,428.431 696.872,393.366 776.559,430.439 856.245,360.466 935.931,419.488 
  1015.62,529.492 1095.3,662.356 1174.99,770.119 1254.68,862.832 1334.36,974.086 1414.05,1073.1 1493.74,1011.77 1573.42,1107.77 1653.11,1193.35 1732.8,1267.16 
  1812.48,1319.59 1892.17,1318.59 1971.85,1311.26 2051.54,1273.07 2131.23,1334.07 2210.91,1387.42 2290.6,1406.32 
  "/>
<polyline clip-path="url(#clip882)" style="stroke:#c271d2; stroke-linecap:butt; stroke-linejoin:round; stroke-width:4; stroke-opacity:0.5; fill:none" points="
  218.754,380.65 298.44,409.486 378.126,470.728 457.813,518.463 537.499,452.422 617.186,412.115 696.872,399.609 776.559,429.412 856.245,368.904 935.931,403.692 
  1015.62,487.253 1095.3,608.653 1174.99,699.75 1254.68,772.777 1334.36,833.214 1414.05,939.543 1493.74,868.869 1573.42,975.234 1653.11,1079.99 1732.8,1164.25 
  1812.48,1223.22 1892.17,1229.91 1971.85,1220.56 2051.54,1171.72 2131.23,1229.53 2210.91,1280.88 2290.6,1287.13 
  "/>
<polyline clip-path="url(#clip882)" style="stroke:#ac8d18; stroke-linecap:butt; stroke-linejoin:round; stroke-width:4; stroke-opacity:0.5; fill:none" points="
  218.754,380.65 298.44,385.197 378.126,444.883 457.813,508.824 537.499,568.625 617.186,472.325 696.872,430.052 776.559,447.944 856.245,404.953 935.931,410.017 
  1015.62,486.961 1095.3,608.119 1174.99,713.21 1254.68,809.95 1334.36,872.313 1414.05,967.617 1493.74,908.805 1573.42,1002.07 1653.11,1102 1732.8,1184.3 
  1812.48,1245.08 1892.17,1268.84 1971.85,1275.69 2051.54,1261.25 2131.23,1314.98 2210.91,1365.43 2290.6,1391.73 
  "/>
</svg>
