<?xml version="1.0" encoding="utf-8"?>
<svg xmlns="http://www.w3.org/2000/svg" xmlns:xlink="http://www.w3.org/1999/xlink" width="600" height="400" viewBox="0 0 2400 1600">
<defs>
  <clipPath id="clip140">
    <rect x="0" y="0" width="2400" height="1600"/>
  </clipPath>
</defs>
<path clip-path="url(#clip140)" d="
M0 1600 L2400 1600 L2400 0 L0 0  Z
  " fill="#ffffff" fill-rule="evenodd" fill-opacity="1"/>
<defs>
  <clipPath id="clip141">
    <rect x="480" y="0" width="1681" height="1600"/>
  </clipPath>
</defs>
<path clip-path="url(#clip140)" d="
M175.445 1423.18 L2352.76 1423.18 L2352.76 123.472 L175.445 123.472  Z
  " fill="#ffffff" fill-rule="evenodd" fill-opacity="1"/>
<defs>
  <clipPath id="clip142">
    <rect x="175" y="123" width="2178" height="1301"/>
  </clipPath>
</defs>
<polyline clip-path="url(#clip142)" style="stroke:#000000; stroke-linecap:butt; stroke-linejoin:round; stroke-width:2; stroke-opacity:0.1; fill:none" points="
  279.127,1423.18 279.127,123.472 
  "/>
<polyline clip-path="url(#clip142)" style="stroke:#000000; stroke-linecap:butt; stroke-linejoin:round; stroke-width:2; stroke-opacity:0.1; fill:none" points="
  797.534,1423.18 797.534,123.472 
  "/>
<polyline clip-path="url(#clip142)" style="stroke:#000000; stroke-linecap:butt; stroke-linejoin:round; stroke-width:2; stroke-opacity:0.1; fill:none" points="
  1315.94,1423.18 1315.94,123.472 
  "/>
<polyline clip-path="url(#clip142)" style="stroke:#000000; stroke-linecap:butt; stroke-linejoin:round; stroke-width:2; stroke-opacity:0.1; fill:none" points="
  1834.35,1423.18 1834.35,123.472 
  "/>
<polyline clip-path="url(#clip142)" style="stroke:#000000; stroke-linecap:butt; stroke-linejoin:round; stroke-width:2; stroke-opacity:0.1; fill:none" points="
  2352.76,1423.18 2352.76,123.472 
  "/>
<polyline clip-path="url(#clip140)" style="stroke:#000000; stroke-linecap:butt; stroke-linejoin:round; stroke-width:4; stroke-opacity:1; fill:none" points="
  175.445,1423.18 2352.76,1423.18 
  "/>
<polyline clip-path="url(#clip140)" style="stroke:#000000; stroke-linecap:butt; stroke-linejoin:round; stroke-width:4; stroke-opacity:1; fill:none" points="
  279.127,1423.18 279.127,1404.28 
  "/>
<polyline clip-path="url(#clip140)" style="stroke:#000000; stroke-linecap:butt; stroke-linejoin:round; stroke-width:4; stroke-opacity:1; fill:none" points="
  797.534,1423.18 797.534,1404.28 
  "/>
<polyline clip-path="url(#clip140)" style="stroke:#000000; stroke-linecap:butt; stroke-linejoin:round; stroke-width:4; stroke-opacity:1; fill:none" points="
  1315.94,1423.18 1315.94,1404.28 
  "/>
<polyline clip-path="url(#clip140)" style="stroke:#000000; stroke-linecap:butt; stroke-linejoin:round; stroke-width:4; stroke-opacity:1; fill:none" points="
  1834.35,1423.18 1834.35,1404.28 
  "/>
<polyline clip-path="url(#clip140)" style="stroke:#000000; stroke-linecap:butt; stroke-linejoin:round; stroke-width:4; stroke-opacity:1; fill:none" points="
  2352.76,1423.18 2352.76,1404.28 
  "/>
<path clip-path="url(#clip140)" d="M227.738 1481.64 L244.057 1481.64 L244.057 1485.58 L222.113 1485.58 L222.113 1481.64 Q224.775 1478.89 229.358 1474.26 Q233.965 1469.61 235.145 1468.27 Q237.391 1465.74 238.27 1464.01 Q239.173 1462.25 239.173 1460.56 Q239.173 1457.8 237.229 1456.07 Q235.307 1454.33 232.206 1454.33 Q230.007 1454.33 227.553 1455.09 Q225.122 1455.86 222.345 1457.41 L222.345 1452.69 Q225.169 1451.55 227.622 1450.97 Q230.076 1450.39 232.113 1450.39 Q237.483 1450.39 240.678 1453.08 Q243.872 1455.77 243.872 1460.26 Q243.872 1462.39 243.062 1464.31 Q242.275 1466.2 240.169 1468.8 Q239.59 1469.47 236.488 1472.69 Q233.386 1475.88 227.738 1481.64 Z" fill="#000000" fill-rule="evenodd" fill-opacity="1" /><path clip-path="url(#clip140)" d="M263.872 1454.1 Q260.261 1454.1 258.432 1457.66 Q256.627 1461.2 256.627 1468.33 Q256.627 1475.44 258.432 1479.01 Q260.261 1482.55 263.872 1482.55 Q267.506 1482.55 269.312 1479.01 Q271.141 1475.44 271.141 1468.33 Q271.141 1461.2 269.312 1457.66 Q267.506 1454.1 263.872 1454.1 M263.872 1450.39 Q269.682 1450.39 272.738 1455 Q275.817 1459.58 275.817 1468.33 Q275.817 1477.06 272.738 1481.67 Q269.682 1486.25 263.872 1486.25 Q258.062 1486.25 254.983 1481.67 Q251.928 1477.06 251.928 1468.33 Q251.928 1459.58 254.983 1455 Q258.062 1450.39 263.872 1450.39 Z" fill="#000000" fill-rule="evenodd" fill-opacity="1" /><path clip-path="url(#clip140)" d="M294.034 1454.1 Q290.423 1454.1 288.594 1457.66 Q286.789 1461.2 286.789 1468.33 Q286.789 1475.44 288.594 1479.01 Q290.423 1482.55 294.034 1482.55 Q297.668 1482.55 299.474 1479.01 Q301.302 1475.44 301.302 1468.33 Q301.302 1461.2 299.474 1457.66 Q297.668 1454.1 294.034 1454.1 M294.034 1450.39 Q299.844 1450.39 302.9 1455 Q305.978 1459.58 305.978 1468.33 Q305.978 1477.06 302.9 1481.67 Q299.844 1486.25 294.034 1486.25 Q288.224 1486.25 285.145 1481.67 Q282.09 1477.06 282.09 1468.33 Q282.09 1459.58 285.145 1455 Q288.224 1450.39 294.034 1450.39 Z" fill="#000000" fill-rule="evenodd" fill-opacity="1" /><path clip-path="url(#clip140)" d="M324.196 1454.1 Q320.585 1454.1 318.756 1457.66 Q316.951 1461.2 316.951 1468.33 Q316.951 1475.44 318.756 1479.01 Q320.585 1482.55 324.196 1482.55 Q327.83 1482.55 329.636 1479.01 Q331.464 1475.44 331.464 1468.33 Q331.464 1461.2 329.636 1457.66 Q327.83 1454.1 324.196 1454.1 M324.196 1450.39 Q330.006 1450.39 333.062 1455 Q336.14 1459.58 336.14 1468.33 Q336.14 1477.06 333.062 1481.67 Q330.006 1486.25 324.196 1486.25 Q318.386 1486.25 315.307 1481.67 Q312.251 1477.06 312.251 1468.33 Q312.251 1459.58 315.307 1455 Q318.386 1450.39 324.196 1450.39 Z" fill="#000000" fill-rule="evenodd" fill-opacity="1" /><path clip-path="url(#clip140)" d="M746.643 1481.64 L762.962 1481.64 L762.962 1485.58 L741.018 1485.58 L741.018 1481.64 Q743.68 1478.89 748.263 1474.26 Q752.87 1469.61 754.05 1468.27 Q756.296 1465.74 757.175 1464.01 Q758.078 1462.25 758.078 1460.56 Q758.078 1457.8 756.134 1456.07 Q754.212 1454.33 751.111 1454.33 Q748.912 1454.33 746.458 1455.09 Q744.027 1455.86 741.25 1457.41 L741.25 1452.69 Q744.074 1451.55 746.527 1450.97 Q748.981 1450.39 751.018 1450.39 Q756.388 1450.39 759.583 1453.08 Q762.777 1455.77 762.777 1460.26 Q762.777 1462.39 761.967 1464.31 Q761.18 1466.2 759.074 1468.8 Q758.495 1469.47 755.393 1472.69 Q752.291 1475.88 746.643 1481.64 Z" fill="#000000" fill-rule="evenodd" fill-opacity="1" /><path clip-path="url(#clip140)" d="M782.777 1454.1 Q779.166 1454.1 777.337 1457.66 Q775.532 1461.2 775.532 1468.33 Q775.532 1475.44 777.337 1479.01 Q779.166 1482.55 782.777 1482.55 Q786.411 1482.55 788.217 1479.01 Q790.046 1475.44 790.046 1468.33 Q790.046 1461.2 788.217 1457.66 Q786.411 1454.1 782.777 1454.1 M782.777 1450.39 Q788.587 1450.39 791.643 1455 Q794.721 1459.58 794.721 1468.33 Q794.721 1477.06 791.643 1481.67 Q788.587 1486.25 782.777 1486.25 Q776.967 1486.25 773.888 1481.67 Q770.833 1477.06 770.833 1468.33 Q770.833 1459.58 773.888 1455 Q776.967 1450.39 782.777 1450.39 Z" fill="#000000" fill-rule="evenodd" fill-opacity="1" /><path clip-path="url(#clip140)" d="M812.939 1454.1 Q809.328 1454.1 807.499 1457.66 Q805.694 1461.2 805.694 1468.33 Q805.694 1475.44 807.499 1479.01 Q809.328 1482.55 812.939 1482.55 Q816.573 1482.55 818.379 1479.01 Q820.207 1475.44 820.207 1468.33 Q820.207 1461.2 818.379 1457.66 Q816.573 1454.1 812.939 1454.1 M812.939 1450.39 Q818.749 1450.39 821.805 1455 Q824.883 1459.58 824.883 1468.33 Q824.883 1477.06 821.805 1481.67 Q818.749 1486.25 812.939 1486.25 Q807.129 1486.25 804.05 1481.67 Q800.995 1477.06 800.995 1468.33 Q800.995 1459.58 804.05 1455 Q807.129 1450.39 812.939 1450.39 Z" fill="#000000" fill-rule="evenodd" fill-opacity="1" /><path clip-path="url(#clip140)" d="M833.147 1451.02 L851.504 1451.02 L851.504 1454.96 L837.43 1454.96 L837.43 1463.43 Q838.448 1463.08 839.467 1462.92 Q840.485 1462.73 841.504 1462.73 Q847.291 1462.73 850.67 1465.9 Q854.05 1469.08 854.05 1474.49 Q854.05 1480.07 850.578 1483.17 Q847.105 1486.25 840.786 1486.25 Q838.61 1486.25 836.342 1485.88 Q834.096 1485.51 831.689 1484.77 L831.689 1480.07 Q833.772 1481.2 835.994 1481.76 Q838.217 1482.32 840.693 1482.32 Q844.698 1482.32 847.036 1480.21 Q849.374 1478.1 849.374 1474.49 Q849.374 1470.88 847.036 1468.77 Q844.698 1466.67 840.693 1466.67 Q838.818 1466.67 836.943 1467.08 Q835.092 1467.5 833.147 1468.38 L833.147 1451.02 Z" fill="#000000" fill-rule="evenodd" fill-opacity="1" /><path clip-path="url(#clip140)" d="M1264.55 1481.64 L1280.87 1481.64 L1280.87 1485.58 L1258.93 1485.58 L1258.93 1481.64 Q1261.59 1478.89 1266.17 1474.26 Q1270.78 1469.61 1271.96 1468.27 Q1274.21 1465.74 1275.09 1464.01 Q1275.99 1462.25 1275.99 1460.56 Q1275.99 1457.8 1274.04 1456.07 Q1272.12 1454.33 1269.02 1454.33 Q1266.82 1454.33 1264.37 1455.09 Q1261.94 1455.86 1259.16 1457.41 L1259.16 1452.69 Q1261.98 1451.55 1264.44 1450.97 Q1266.89 1450.39 1268.93 1450.39 Q1274.3 1450.39 1277.49 1453.08 Q1280.69 1455.77 1280.69 1460.26 Q1280.69 1462.39 1279.88 1464.31 Q1279.09 1466.2 1276.98 1468.8 Q1276.4 1469.47 1273.3 1472.69 Q1270.2 1475.88 1264.55 1481.64 Z" fill="#000000" fill-rule="evenodd" fill-opacity="1" /><path clip-path="url(#clip140)" d="M1300.69 1454.1 Q1297.08 1454.1 1295.25 1457.66 Q1293.44 1461.2 1293.44 1468.33 Q1293.44 1475.44 1295.25 1479.01 Q1297.08 1482.55 1300.69 1482.55 Q1304.32 1482.55 1306.13 1479.01 Q1307.96 1475.44 1307.96 1468.33 Q1307.96 1461.2 1306.13 1457.66 Q1304.32 1454.1 1300.69 1454.1 M1300.69 1450.39 Q1306.5 1450.39 1309.55 1455 Q1312.63 1459.58 1312.63 1468.33 Q1312.63 1477.06 1309.55 1481.67 Q1306.5 1486.25 1300.69 1486.25 Q1294.88 1486.25 1291.8 1481.67 Q1288.74 1477.06 1288.74 1468.33 Q1288.74 1459.58 1291.8 1455 Q1294.88 1450.39 1300.69 1450.39 Z" fill="#000000" fill-rule="evenodd" fill-opacity="1" /><path clip-path="url(#clip140)" d="M1321.66 1481.64 L1329.3 1481.64 L1329.3 1455.28 L1320.99 1456.95 L1320.99 1452.69 L1329.25 1451.02 L1333.93 1451.02 L1333.93 1481.64 L1341.57 1481.64 L1341.57 1485.58 L1321.66 1485.58 L1321.66 1481.64 Z" fill="#000000" fill-rule="evenodd" fill-opacity="1" /><path clip-path="url(#clip140)" d="M1361.01 1454.1 Q1357.4 1454.1 1355.57 1457.66 Q1353.77 1461.2 1353.77 1468.33 Q1353.77 1475.44 1355.57 1479.01 Q1357.4 1482.55 1361.01 1482.55 Q1364.64 1482.55 1366.45 1479.01 Q1368.28 1475.44 1368.28 1468.33 Q1368.28 1461.2 1366.45 1457.66 Q1364.64 1454.1 1361.01 1454.1 M1361.01 1450.39 Q1366.82 1450.39 1369.88 1455 Q1372.95 1459.58 1372.95 1468.33 Q1372.95 1477.06 1369.88 1481.67 Q1366.82 1486.25 1361.01 1486.25 Q1355.2 1486.25 1352.12 1481.67 Q1349.07 1477.06 1349.07 1468.33 Q1349.07 1459.58 1352.12 1455 Q1355.2 1450.39 1361.01 1450.39 Z" fill="#000000" fill-rule="evenodd" fill-opacity="1" /><path clip-path="url(#clip140)" d="M1783.46 1481.64 L1799.78 1481.64 L1799.78 1485.58 L1777.83 1485.58 L1777.83 1481.64 Q1780.49 1478.89 1785.08 1474.26 Q1789.68 1469.61 1790.87 1468.27 Q1793.11 1465.74 1793.99 1464.01 Q1794.89 1462.25 1794.89 1460.56 Q1794.89 1457.8 1792.95 1456.07 Q1791.03 1454.33 1787.93 1454.33 Q1785.73 1454.33 1783.27 1455.09 Q1780.84 1455.86 1778.06 1457.41 L1778.06 1452.69 Q1780.89 1451.55 1783.34 1450.97 Q1785.8 1450.39 1787.83 1450.39 Q1793.2 1450.39 1796.4 1453.08 Q1799.59 1455.77 1799.59 1460.26 Q1799.59 1462.39 1798.78 1464.31 Q1797.99 1466.2 1795.89 1468.8 Q1795.31 1469.47 1792.21 1472.69 Q1789.11 1475.88 1783.46 1481.64 Z" fill="#000000" fill-rule="evenodd" fill-opacity="1" /><path clip-path="url(#clip140)" d="M1819.59 1454.1 Q1815.98 1454.1 1814.15 1457.66 Q1812.35 1461.2 1812.35 1468.33 Q1812.35 1475.44 1814.15 1479.01 Q1815.98 1482.55 1819.59 1482.55 Q1823.23 1482.55 1825.03 1479.01 Q1826.86 1475.44 1826.86 1468.33 Q1826.86 1461.2 1825.03 1457.66 Q1823.23 1454.1 1819.59 1454.1 M1819.59 1450.39 Q1825.4 1450.39 1828.46 1455 Q1831.54 1459.58 1831.54 1468.33 Q1831.54 1477.06 1828.46 1481.67 Q1825.4 1486.25 1819.59 1486.25 Q1813.78 1486.25 1810.7 1481.67 Q1807.65 1477.06 1807.65 1468.33 Q1807.65 1459.58 1810.7 1455 Q1813.78 1450.39 1819.59 1450.39 Z" fill="#000000" fill-rule="evenodd" fill-opacity="1" /><path clip-path="url(#clip140)" d="M1840.56 1481.64 L1848.2 1481.64 L1848.2 1455.28 L1839.89 1456.95 L1839.89 1452.69 L1848.16 1451.02 L1852.83 1451.02 L1852.83 1481.64 L1860.47 1481.64 L1860.47 1485.58 L1840.56 1485.58 L1840.56 1481.64 Z" fill="#000000" fill-rule="evenodd" fill-opacity="1" /><path clip-path="url(#clip140)" d="M1869.96 1451.02 L1888.32 1451.02 L1888.32 1454.96 L1874.24 1454.96 L1874.24 1463.43 Q1875.26 1463.08 1876.28 1462.92 Q1877.3 1462.73 1878.32 1462.73 Q1884.11 1462.73 1887.48 1465.9 Q1890.86 1469.08 1890.86 1474.49 Q1890.86 1480.07 1887.39 1483.17 Q1883.92 1486.25 1877.6 1486.25 Q1875.42 1486.25 1873.16 1485.88 Q1870.91 1485.51 1868.5 1484.77 L1868.5 1480.07 Q1870.59 1481.2 1872.81 1481.76 Q1875.03 1482.32 1877.51 1482.32 Q1881.51 1482.32 1883.85 1480.21 Q1886.19 1478.1 1886.19 1474.49 Q1886.19 1470.88 1883.85 1468.77 Q1881.51 1466.67 1877.51 1466.67 Q1875.63 1466.67 1873.76 1467.08 Q1871.91 1467.5 1869.96 1468.38 L1869.96 1451.02 Z" fill="#000000" fill-rule="evenodd" fill-opacity="1" /><path clip-path="url(#clip140)" d="M2301.37 1481.64 L2317.69 1481.64 L2317.69 1485.58 L2295.74 1485.58 L2295.74 1481.64 Q2298.4 1478.89 2302.99 1474.26 Q2307.59 1469.61 2308.77 1468.27 Q2311.02 1465.74 2311.9 1464.01 Q2312.8 1462.25 2312.8 1460.56 Q2312.8 1457.8 2310.86 1456.07 Q2308.94 1454.33 2305.83 1454.33 Q2303.64 1454.33 2301.18 1455.09 Q2298.75 1455.86 2295.97 1457.41 L2295.97 1452.69 Q2298.8 1451.55 2301.25 1450.97 Q2303.71 1450.39 2305.74 1450.39 Q2311.11 1450.39 2314.31 1453.08 Q2317.5 1455.77 2317.5 1460.26 Q2317.5 1462.39 2316.69 1464.31 Q2315.9 1466.2 2313.8 1468.8 Q2313.22 1469.47 2310.12 1472.69 Q2307.02 1475.88 2301.37 1481.64 Z" fill="#000000" fill-rule="evenodd" fill-opacity="1" /><path clip-path="url(#clip140)" d="M2337.5 1454.1 Q2333.89 1454.1 2332.06 1457.66 Q2330.26 1461.2 2330.26 1468.33 Q2330.26 1475.44 2332.06 1479.01 Q2333.89 1482.55 2337.5 1482.55 Q2341.14 1482.55 2342.94 1479.01 Q2344.77 1475.44 2344.77 1468.33 Q2344.77 1461.2 2342.94 1457.66 Q2341.14 1454.1 2337.5 1454.1 M2337.5 1450.39 Q2343.31 1450.39 2346.37 1455 Q2349.45 1459.58 2349.45 1468.33 Q2349.45 1477.06 2346.37 1481.67 Q2343.31 1486.25 2337.5 1486.25 Q2331.69 1486.25 2328.61 1481.67 Q2325.56 1477.06 2325.56 1468.33 Q2325.56 1459.58 2328.61 1455 Q2331.69 1450.39 2337.5 1450.39 Z" fill="#000000" fill-rule="evenodd" fill-opacity="1" /><path clip-path="url(#clip140)" d="M2361.69 1481.64 L2378.01 1481.64 L2378.01 1485.58 L2356.07 1485.58 L2356.07 1481.64 Q2358.73 1478.89 2363.31 1474.26 Q2367.92 1469.61 2369.1 1468.27 Q2371.34 1465.74 2372.22 1464.01 Q2373.13 1462.25 2373.13 1460.56 Q2373.13 1457.8 2371.18 1456.07 Q2369.26 1454.33 2366.16 1454.33 Q2363.96 1454.33 2361.51 1455.09 Q2359.08 1455.86 2356.3 1457.41 L2356.3 1452.69 Q2359.12 1451.55 2361.58 1450.97 Q2364.03 1450.39 2366.07 1450.39 Q2371.44 1450.39 2374.63 1453.08 Q2377.83 1455.77 2377.83 1460.26 Q2377.83 1462.39 2377.02 1464.31 Q2376.23 1466.2 2374.12 1468.8 Q2373.54 1469.47 2370.44 1472.69 Q2367.34 1475.88 2361.69 1481.64 Z" fill="#000000" fill-rule="evenodd" fill-opacity="1" /><path clip-path="url(#clip140)" d="M2397.83 1454.1 Q2394.21 1454.1 2392.39 1457.66 Q2390.58 1461.2 2390.58 1468.33 Q2390.58 1475.44 2392.39 1479.01 Q2394.21 1482.55 2397.83 1482.55 Q2401.46 1482.55 2403.26 1479.01 Q2405.09 1475.44 2405.09 1468.33 Q2405.09 1461.2 2403.26 1457.66 Q2401.46 1454.1 2397.83 1454.1 M2397.83 1450.39 Q2403.64 1450.39 2406.69 1455 Q2409.77 1459.58 2409.77 1468.33 Q2409.77 1477.06 2406.69 1481.67 Q2403.64 1486.25 2397.83 1486.25 Q2392.01 1486.25 2388.94 1481.67 Q2385.88 1477.06 2385.88 1468.33 Q2385.88 1459.58 2388.94 1455 Q2392.01 1450.39 2397.83 1450.39 Z" fill="#000000" fill-rule="evenodd" fill-opacity="1" /><path clip-path="url(#clip140)" d="M1195.03 1520.52 L1201.94 1520.52 L1215.12 1540.07 L1228.2 1520.52 L1235.1 1520.52 L1218.3 1545.41 L1218.3 1568.04 L1211.84 1568.04 L1211.84 1545.41 L1195.03 1520.52 Z" fill="#000000" fill-rule="evenodd" fill-opacity="1" /><path clip-path="url(#clip140)" d="M1262.95 1548.76 L1262.95 1551.62 L1236.03 1551.62 Q1236.41 1557.67 1239.66 1560.85 Q1242.93 1564 1248.76 1564 Q1252.13 1564 1255.28 1563.17 Q1258.47 1562.35 1261.59 1560.69 L1261.59 1566.23 Q1258.44 1567.57 1255.12 1568.27 Q1251.81 1568.97 1248.41 1568.97 Q1239.88 1568.97 1234.88 1564 Q1229.92 1559.04 1229.92 1550.57 Q1229.92 1541.82 1234.63 1536.69 Q1239.37 1531.54 1247.39 1531.54 Q1254.58 1531.54 1258.75 1536.18 Q1262.95 1540.8 1262.95 1548.76 M1257.1 1547.04 Q1257.03 1542.23 1254.39 1539.37 Q1251.78 1536.5 1247.45 1536.5 Q1242.55 1536.5 1239.59 1539.27 Q1236.66 1542.04 1236.22 1547.07 L1257.1 1547.04 Z" fill="#000000" fill-rule="evenodd" fill-opacity="1" /><path clip-path="url(#clip140)" d="M1288.77 1550.12 Q1281.67 1550.12 1278.93 1551.75 Q1276.2 1553.37 1276.2 1557.29 Q1276.2 1560.4 1278.23 1562.25 Q1280.3 1564.07 1283.83 1564.07 Q1288.7 1564.07 1291.63 1560.63 Q1294.59 1557.16 1294.59 1551.43 L1294.59 1550.12 L1288.77 1550.12 M1300.45 1547.71 L1300.45 1568.04 L1294.59 1568.04 L1294.59 1562.63 Q1292.59 1565.88 1289.6 1567.44 Q1286.6 1568.97 1282.27 1568.97 Q1276.8 1568.97 1273.55 1565.91 Q1270.34 1562.82 1270.34 1557.67 Q1270.34 1551.65 1274.35 1548.6 Q1278.39 1545.54 1286.38 1545.54 L1294.59 1545.54 L1294.59 1544.97 Q1294.59 1540.93 1291.92 1538.73 Q1289.28 1536.5 1284.47 1536.5 Q1281.42 1536.5 1278.52 1537.23 Q1275.62 1537.97 1272.95 1539.43 L1272.95 1534.02 Q1276.16 1532.78 1279.19 1532.17 Q1282.21 1531.54 1285.08 1531.54 Q1292.81 1531.54 1296.63 1535.55 Q1300.45 1539.56 1300.45 1547.71 Z" fill="#000000" fill-rule="evenodd" fill-opacity="1" /><path clip-path="url(#clip140)" d="M1333.17 1537.87 Q1332.18 1537.3 1331 1537.04 Q1329.86 1536.76 1328.46 1536.76 Q1323.49 1536.76 1320.82 1540 Q1318.18 1543.22 1318.18 1549.27 L1318.18 1568.04 L1312.29 1568.04 L1312.29 1532.4 L1318.18 1532.4 L1318.18 1537.93 Q1320.02 1534.69 1322.98 1533.13 Q1325.94 1531.54 1330.18 1531.54 Q1330.78 1531.54 1331.51 1531.63 Q1332.25 1531.7 1333.14 1531.85 L1333.17 1537.87 Z" fill="#000000" fill-rule="evenodd" fill-opacity="1" /><polyline clip-path="url(#clip142)" style="stroke:#000000; stroke-linecap:butt; stroke-linejoin:round; stroke-width:2; stroke-opacity:0.1; fill:none" points="
  175.445,1423.18 2352.76,1423.18 
  "/>
<polyline clip-path="url(#clip142)" style="stroke:#000000; stroke-linecap:butt; stroke-linejoin:round; stroke-width:2; stroke-opacity:0.1; fill:none" points="
  175.445,1098.25 2352.76,1098.25 
  "/>
<polyline clip-path="url(#clip142)" style="stroke:#000000; stroke-linecap:butt; stroke-linejoin:round; stroke-width:2; stroke-opacity:0.1; fill:none" points="
  175.445,773.326 2352.76,773.326 
  "/>
<polyline clip-path="url(#clip142)" style="stroke:#000000; stroke-linecap:butt; stroke-linejoin:round; stroke-width:2; stroke-opacity:0.1; fill:none" points="
  175.445,448.399 2352.76,448.399 
  "/>
<polyline clip-path="url(#clip142)" style="stroke:#000000; stroke-linecap:butt; stroke-linejoin:round; stroke-width:2; stroke-opacity:0.1; fill:none" points="
  175.445,123.472 2352.76,123.472 
  "/>
<polyline clip-path="url(#clip140)" style="stroke:#000000; stroke-linecap:butt; stroke-linejoin:round; stroke-width:4; stroke-opacity:1; fill:none" points="
  175.445,1423.18 175.445,123.472 
  "/>
<polyline clip-path="url(#clip140)" style="stroke:#000000; stroke-linecap:butt; stroke-linejoin:round; stroke-width:4; stroke-opacity:1; fill:none" points="
  175.445,1423.18 194.343,1423.18 
  "/>
<polyline clip-path="url(#clip140)" style="stroke:#000000; stroke-linecap:butt; stroke-linejoin:round; stroke-width:4; stroke-opacity:1; fill:none" points="
  175.445,1098.25 194.343,1098.25 
  "/>
<polyline clip-path="url(#clip140)" style="stroke:#000000; stroke-linecap:butt; stroke-linejoin:round; stroke-width:4; stroke-opacity:1; fill:none" points="
  175.445,773.326 194.343,773.326 
  "/>
<polyline clip-path="url(#clip140)" style="stroke:#000000; stroke-linecap:butt; stroke-linejoin:round; stroke-width:4; stroke-opacity:1; fill:none" points="
  175.445,448.399 194.343,448.399 
  "/>
<polyline clip-path="url(#clip140)" style="stroke:#000000; stroke-linecap:butt; stroke-linejoin:round; stroke-width:4; stroke-opacity:1; fill:none" points="
  175.445,123.472 194.343,123.472 
  "/>
<path clip-path="url(#clip140)" d="M127.501 1408.98 Q123.89 1408.98 122.061 1412.54 Q120.255 1416.08 120.255 1423.21 Q120.255 1430.32 122.061 1433.89 Q123.89 1437.43 127.501 1437.43 Q131.135 1437.43 132.941 1433.89 Q134.769 1430.32 134.769 1423.21 Q134.769 1416.08 132.941 1412.54 Q131.135 1408.98 127.501 1408.98 M127.501 1405.27 Q133.311 1405.27 136.367 1409.88 Q139.445 1414.46 139.445 1423.21 Q139.445 1431.94 136.367 1436.55 Q133.311 1441.13 127.501 1441.13 Q121.691 1441.13 118.612 1436.55 Q115.556 1431.94 115.556 1423.21 Q115.556 1414.46 118.612 1409.88 Q121.691 1405.27 127.501 1405.27 Z" fill="#000000" fill-rule="evenodd" fill-opacity="1" /><path clip-path="url(#clip140)" d="M119.538 1111.6 L127.177 1111.6 L127.177 1085.23 L118.867 1086.9 L118.867 1082.64 L127.13 1080.97 L131.806 1080.97 L131.806 1111.6 L139.445 1111.6 L139.445 1115.53 L119.538 1115.53 L119.538 1111.6 Z" fill="#000000" fill-rule="evenodd" fill-opacity="1" /><path clip-path="url(#clip140)" d="M123.126 786.671 L139.445 786.671 L139.445 790.606 L117.501 790.606 L117.501 786.671 Q120.163 783.916 124.746 779.287 Q129.353 774.634 130.533 773.291 Q132.779 770.768 133.658 769.032 Q134.561 767.273 134.561 765.583 Q134.561 762.828 132.617 761.092 Q130.695 759.356 127.593 759.356 Q125.394 759.356 122.941 760.12 Q120.51 760.884 117.732 762.435 L117.732 757.713 Q120.556 756.578 123.01 756 Q125.464 755.421 127.501 755.421 Q132.871 755.421 136.066 758.106 Q139.26 760.791 139.26 765.282 Q139.26 767.412 138.45 769.333 Q137.663 771.231 135.556 773.824 Q134.978 774.495 131.876 777.713 Q128.774 780.907 123.126 786.671 Z" fill="#000000" fill-rule="evenodd" fill-opacity="1" /><path clip-path="url(#clip140)" d="M132.316 447.045 Q135.672 447.762 137.547 450.031 Q139.445 452.299 139.445 455.633 Q139.445 460.749 135.927 463.549 Q132.408 466.35 125.927 466.35 Q123.751 466.35 121.436 465.911 Q119.144 465.494 116.691 464.637 L116.691 460.124 Q118.635 461.258 120.95 461.836 Q123.265 462.415 125.788 462.415 Q130.186 462.415 132.478 460.679 Q134.792 458.943 134.792 455.633 Q134.792 452.577 132.64 450.864 Q130.51 449.128 126.691 449.128 L122.663 449.128 L122.663 445.286 L126.876 445.286 Q130.325 445.286 132.154 443.92 Q133.982 442.531 133.982 439.938 Q133.982 437.276 132.084 435.864 Q130.209 434.429 126.691 434.429 Q124.769 434.429 122.57 434.846 Q120.371 435.263 117.732 436.142 L117.732 431.976 Q120.394 431.235 122.709 430.864 Q125.047 430.494 127.107 430.494 Q132.431 430.494 135.533 432.925 Q138.635 435.332 138.635 439.452 Q138.635 442.323 136.992 444.313 Q135.348 446.281 132.316 447.045 Z" fill="#000000" fill-rule="evenodd" fill-opacity="1" /><path clip-path="url(#clip140)" d="M129.862 110.266 L118.056 128.715 L129.862 128.715 L129.862 110.266 M128.635 106.192 L134.515 106.192 L134.515 128.715 L139.445 128.715 L139.445 132.604 L134.515 132.604 L134.515 140.752 L129.862 140.752 L129.862 132.604 L114.26 132.604 L114.26 128.09 L128.635 106.192 Z" fill="#000000" fill-rule="evenodd" fill-opacity="1" /><path clip-path="url(#clip140)" d="M16.4842 1476.7 L16.4842 1449.4 L21.895 1449.4 L21.895 1470.28 L35.8996 1470.28 L35.8996 1451.43 L41.3104 1451.43 L41.3104 1470.28 L64.0042 1470.28 L64.0042 1476.7 L16.4842 1476.7 Z" fill="#000000" fill-rule="evenodd" fill-opacity="1" /><path clip-path="url(#clip140)" d="M28.3562 1444.21 L28.3562 1438.35 L64.0042 1438.35 L64.0042 1444.21 L28.3562 1444.21 M14.479 1444.21 L14.479 1438.35 L21.895 1438.35 L21.895 1444.21 L14.479 1444.21 Z" fill="#000000" fill-rule="evenodd" fill-opacity="1" /><path clip-path="url(#clip140)" d="M33.8307 1405.44 Q33.2578 1406.43 33.0032 1407.6 Q32.7167 1408.75 32.7167 1410.15 Q32.7167 1415.12 35.9632 1417.79 Q39.1779 1420.43 45.2253 1420.43 L64.0042 1420.43 L64.0042 1426.32 L28.3562 1426.32 L28.3562 1420.43 L33.8944 1420.43 Q30.6479 1418.59 29.0883 1415.63 Q27.4968 1412.67 27.4968 1408.43 Q27.4968 1407.83 27.5923 1407.1 Q27.656 1406.36 27.8151 1405.47 L33.8307 1405.44 Z" fill="#000000" fill-rule="evenodd" fill-opacity="1" /><path clip-path="url(#clip140)" d="M44.7161 1370.24 L47.5806 1370.24 L47.5806 1397.17 Q53.6281 1396.78 56.8109 1393.54 Q59.9619 1390.26 59.9619 1384.43 Q59.9619 1381.06 59.1344 1377.91 Q58.3069 1374.73 56.6518 1371.61 L62.1899 1371.61 Q63.5267 1374.76 64.227 1378.07 Q64.9272 1381.38 64.9272 1384.78 Q64.9272 1393.31 59.9619 1398.31 Q54.9967 1403.28 46.5303 1403.28 Q37.7774 1403.28 32.6531 1398.57 Q27.4968 1393.82 27.4968 1385.8 Q27.4968 1378.61 32.1438 1374.44 Q36.7589 1370.24 44.7161 1370.24 M42.9973 1376.09 Q38.1912 1376.16 35.3266 1378.8 Q32.4621 1381.41 32.4621 1385.74 Q32.4621 1390.64 35.2312 1393.6 Q38.0002 1396.53 43.0292 1396.97 L42.9973 1376.09 Z" fill="#000000" fill-rule="evenodd" fill-opacity="1" /><path clip-path="url(#clip140)" d="M46.0847 1344.43 Q46.0847 1351.52 47.7079 1354.26 Q49.3312 1357 53.2461 1357 Q56.3653 1357 58.2114 1354.96 Q60.0256 1352.89 60.0256 1349.36 Q60.0256 1344.49 56.5881 1341.56 Q53.1188 1338.6 47.3897 1338.6 L46.0847 1338.6 L46.0847 1344.43 M43.6657 1332.74 L64.0042 1332.74 L64.0042 1338.6 L58.5933 1338.6 Q61.8398 1340.61 63.3994 1343.6 Q64.9272 1346.59 64.9272 1350.92 Q64.9272 1356.39 61.8716 1359.64 Q58.7843 1362.85 53.6281 1362.85 Q47.6125 1362.85 44.5569 1358.84 Q41.5014 1354.8 41.5014 1346.81 L41.5014 1338.6 L40.9285 1338.6 Q36.8862 1338.6 34.6901 1341.27 Q32.4621 1343.92 32.4621 1348.72 Q32.4621 1351.78 33.1941 1354.67 Q33.9262 1357.57 35.3903 1360.24 L29.9795 1360.24 Q28.7381 1357.03 28.1334 1354.01 Q27.4968 1350.98 27.4968 1348.12 Q27.4968 1340.38 31.5072 1336.56 Q35.5176 1332.74 43.6657 1332.74 Z" fill="#000000" fill-rule="evenodd" fill-opacity="1" /><path clip-path="url(#clip140)" d="M33.8307 1300.02 Q33.2578 1301.01 33.0032 1302.19 Q32.7167 1303.33 32.7167 1304.74 Q32.7167 1309.7 35.9632 1312.37 Q39.1779 1315.02 45.2253 1315.02 L64.0042 1315.02 L64.0042 1320.9 L28.3562 1320.9 L28.3562 1315.02 L33.8944 1315.02 Q30.6479 1313.17 29.0883 1310.21 Q27.4968 1307.25 27.4968 1303.02 Q27.4968 1302.41 27.5923 1301.68 Q27.656 1300.95 27.8151 1300.06 L33.8307 1300.02 Z" fill="#000000" fill-rule="evenodd" fill-opacity="1" /><path clip-path="url(#clip140)" d="M35.1993 1267.27 Q31.2526 1265.08 29.3747 1262.02 Q27.4968 1258.97 27.4968 1254.83 Q27.4968 1249.26 31.4117 1246.23 Q35.2948 1243.21 42.4881 1243.21 L64.0042 1243.21 L64.0042 1249.1 L42.679 1249.1 Q37.5546 1249.1 35.072 1250.91 Q32.5894 1252.73 32.5894 1256.45 Q32.5894 1261 35.6131 1263.64 Q38.6368 1266.29 43.8567 1266.29 L64.0042 1266.29 L64.0042 1272.17 L42.679 1272.17 Q37.5228 1272.17 35.072 1273.99 Q32.5894 1275.8 32.5894 1279.59 Q32.5894 1284.08 35.6449 1286.72 Q38.6686 1289.36 43.8567 1289.36 L64.0042 1289.36 L64.0042 1295.25 L28.3562 1295.25 L28.3562 1289.36 L33.8944 1289.36 Q30.616 1287.36 29.0564 1284.56 Q27.4968 1281.75 27.4968 1277.9 Q27.4968 1274.02 29.4702 1271.32 Q31.4436 1268.58 35.1993 1267.27 Z" fill="#000000" fill-rule="evenodd" fill-opacity="1" /><path clip-path="url(#clip140)" d="M29.4065 1208.8 L34.9447 1208.8 Q33.6716 1211.29 33.035 1213.96 Q32.3984 1216.63 32.3984 1219.5 Q32.3984 1223.86 33.7352 1226.06 Q35.072 1228.22 37.7456 1228.22 Q39.7826 1228.22 40.9603 1226.66 Q42.1061 1225.1 43.1565 1220.39 L43.6021 1218.38 Q44.9389 1212.15 47.3897 1209.54 Q49.8086 1206.89 54.1691 1206.89 Q59.1344 1206.89 62.0308 1210.84 Q64.9272 1214.76 64.9272 1221.63 Q64.9272 1224.5 64.3543 1227.61 Q63.8132 1230.7 62.6992 1234.14 L56.6518 1234.14 Q58.3387 1230.89 59.198 1227.74 Q60.0256 1224.59 60.0256 1221.5 Q60.0256 1217.37 58.6251 1215.14 Q57.1929 1212.91 54.6147 1212.91 Q52.2276 1212.91 50.9545 1214.53 Q49.6813 1216.12 48.5037 1221.57 L48.0262 1223.6 Q46.8804 1229.05 44.5251 1231.47 Q42.138 1233.88 38.0002 1233.88 Q32.9713 1233.88 30.2341 1230.32 Q27.4968 1226.76 27.4968 1220.2 Q27.4968 1216.95 27.9743 1214.09 Q28.4517 1211.22 29.4065 1208.8 Z" fill="#000000" fill-rule="evenodd" fill-opacity="1" /><path clip-path="url(#clip140)" d="M21.7677 1170.16 L39.6235 1170.16 L39.6235 1162.08 Q39.6235 1157.59 37.3 1155.14 Q34.9765 1152.69 30.6797 1152.69 Q26.4147 1152.69 24.0912 1155.14 Q21.7677 1157.59 21.7677 1162.08 L21.7677 1170.16 M16.4842 1176.59 L16.4842 1162.08 Q16.4842 1154.09 20.1126 1150.02 Q23.7092 1145.91 30.6797 1145.91 Q37.7138 1145.91 41.3104 1150.02 Q44.907 1154.09 44.907 1162.08 L44.907 1170.16 L64.0042 1170.16 L64.0042 1176.59 L16.4842 1176.59 Z" fill="#000000" fill-rule="evenodd" fill-opacity="1" /><path clip-path="url(#clip140)" d="M44.7161 1109.37 L47.5806 1109.37 L47.5806 1136.3 Q53.6281 1135.92 56.8109 1132.67 Q59.9619 1129.39 59.9619 1123.57 Q59.9619 1120.19 59.1344 1117.04 Q58.3069 1113.86 56.6518 1110.74 L62.1899 1110.74 Q63.5267 1113.89 64.227 1117.2 Q64.9272 1120.51 64.9272 1123.92 Q64.9272 1132.45 59.9619 1137.44 Q54.9967 1142.41 46.5303 1142.41 Q37.7774 1142.41 32.6531 1137.7 Q27.4968 1132.96 27.4968 1124.94 Q27.4968 1117.74 32.1438 1113.57 Q36.7589 1109.37 44.7161 1109.37 M42.9973 1115.23 Q38.1912 1115.29 35.3266 1117.93 Q32.4621 1120.54 32.4621 1124.87 Q32.4621 1129.77 35.2312 1132.73 Q38.0002 1135.66 43.0292 1136.11 L42.9973 1115.23 Z" fill="#000000" fill-rule="evenodd" fill-opacity="1" /><path clip-path="url(#clip140)" d="M33.8307 1079.1 Q33.2578 1080.09 33.0032 1081.27 Q32.7167 1082.41 32.7167 1083.81 Q32.7167 1088.78 35.9632 1091.45 Q39.1779 1094.09 45.2253 1094.09 L64.0042 1094.09 L64.0042 1099.98 L28.3562 1099.98 L28.3562 1094.09 L33.8944 1094.09 Q30.6479 1092.25 29.0883 1089.29 Q27.4968 1086.33 27.4968 1082.09 Q27.4968 1081.49 27.5923 1080.76 Q27.656 1080.03 27.8151 1079.13 L33.8307 1079.1 Z" fill="#000000" fill-rule="evenodd" fill-opacity="1" /><path clip-path="url(#clip140)" d="M20.1444 1016.4 L26.9239 1016.4 Q23.9002 1019.65 22.4043 1023.34 Q20.9083 1027 20.9083 1031.14 Q20.9083 1039.29 25.9054 1043.61 Q30.8707 1047.94 40.2919 1047.94 Q49.6813 1047.94 54.6784 1043.61 Q59.6436 1039.29 59.6436 1031.14 Q59.6436 1027 58.1477 1023.34 Q56.6518 1019.65 53.6281 1016.4 L60.3439 1016.4 Q62.6355 1019.77 63.7814 1023.56 Q64.9272 1027.32 64.9272 1031.52 Q64.9272 1042.31 58.3387 1048.52 Q51.7183 1054.72 40.2919 1054.72 Q28.8336 1054.72 22.2451 1048.52 Q15.6248 1042.31 15.6248 1031.52 Q15.6248 1027.25 16.7706 1023.5 Q17.8846 1019.71 20.1444 1016.4 Z" fill="#000000" fill-rule="evenodd" fill-opacity="1" /><path clip-path="url(#clip140)" d="M46.0847 990.524 Q46.0847 997.622 47.7079 1000.36 Q49.3312 1003.1 53.2461 1003.1 Q56.3653 1003.1 58.2114 1001.06 Q60.0256 998.99 60.0256 995.457 Q60.0256 990.588 56.5881 987.659 Q53.1188 984.699 47.3897 984.699 L46.0847 984.699 L46.0847 990.524 M43.6657 978.843 L64.0042 978.843 L64.0042 984.699 L58.5933 984.699 Q61.8398 986.704 63.3994 989.696 Q64.9272 992.688 64.9272 997.017 Q64.9272 1002.49 61.8716 1005.74 Q58.7843 1008.95 53.6281 1008.95 Q47.6125 1008.95 44.5569 1004.94 Q41.5014 1000.9 41.5014 992.911 L41.5014 984.699 L40.9285 984.699 Q36.8862 984.699 34.6901 987.373 Q32.4621 990.015 32.4621 994.821 Q32.4621 997.876 33.1941 1000.77 Q33.9262 1003.67 35.3903 1006.34 L29.9795 1006.34 Q28.7381 1003.13 28.1334 1000.1 Q27.4968 997.081 27.4968 994.216 Q27.4968 986.482 31.5072 982.662 Q35.5176 978.843 43.6657 978.843 Z" fill="#000000" fill-rule="evenodd" fill-opacity="1" /><path clip-path="url(#clip140)" d="M58.657 961.114 L77.5631 961.114 L77.5631 967.003 L28.3562 967.003 L28.3562 961.114 L33.7671 961.114 Q30.5842 959.268 29.0564 956.467 Q27.4968 953.635 27.4968 949.72 Q27.4968 943.227 32.6531 939.184 Q37.8093 935.11 46.212 935.11 Q54.6147 935.11 59.771 939.184 Q64.9272 943.227 64.9272 949.72 Q64.9272 953.635 63.3994 956.467 Q61.8398 959.268 58.657 961.114 M46.212 941.19 Q39.7508 941.19 36.0905 943.863 Q32.3984 946.505 32.3984 951.152 Q32.3984 955.799 36.0905 958.473 Q39.7508 961.114 46.212 961.114 Q52.6732 961.114 56.3653 958.473 Q60.0256 955.799 60.0256 951.152 Q60.0256 946.505 56.3653 943.863 Q52.6732 941.19 46.212 941.19 Z" fill="#000000" fill-rule="evenodd" fill-opacity="1" /><path clip-path="url(#clip140)" d="M28.3562 925.403 L28.3562 919.546 L64.0042 919.546 L64.0042 925.403 L28.3562 925.403 M14.479 925.403 L14.479 919.546 L21.895 919.546 L21.895 925.403 L14.479 925.403 Z" fill="#000000" fill-rule="evenodd" fill-opacity="1" /><path clip-path="url(#clip140)" d="M18.2347 901.499 L28.3562 901.499 L28.3562 889.436 L32.9077 889.436 L32.9077 901.499 L52.2594 901.499 Q56.6199 901.499 57.8613 900.322 Q59.1026 899.112 59.1026 895.452 L59.1026 889.436 L64.0042 889.436 L64.0042 895.452 Q64.0042 902.232 61.4897 904.81 Q58.9434 907.388 52.2594 907.388 L32.9077 907.388 L32.9077 911.685 L28.3562 911.685 L28.3562 907.388 L18.2347 907.388 L18.2347 901.499 Z" fill="#000000" fill-rule="evenodd" fill-opacity="1" /><path clip-path="url(#clip140)" d="M46.0847 865.533 Q46.0847 872.631 47.7079 875.368 Q49.3312 878.106 53.2461 878.106 Q56.3653 878.106 58.2114 876.068 Q60.0256 874 60.0256 870.467 Q60.0256 865.597 56.5881 862.669 Q53.1188 859.709 47.3897 859.709 L46.0847 859.709 L46.0847 865.533 M43.6657 853.852 L64.0042 853.852 L64.0042 859.709 L58.5933 859.709 Q61.8398 861.714 63.3994 864.706 Q64.9272 867.698 64.9272 872.026 Q64.9272 877.501 61.8716 880.747 Q58.7843 883.962 53.6281 883.962 Q47.6125 883.962 44.5569 879.952 Q41.5014 875.909 41.5014 867.92 L41.5014 859.709 L40.9285 859.709 Q36.8862 859.709 34.6901 862.382 Q32.4621 865.024 32.4621 869.83 Q32.4621 872.886 33.1941 875.782 Q33.9262 878.678 35.3903 881.352 L29.9795 881.352 Q28.7381 878.137 28.1334 875.114 Q27.4968 872.09 27.4968 869.225 Q27.4968 861.491 31.5072 857.672 Q35.5176 853.852 43.6657 853.852 Z" fill="#000000" fill-rule="evenodd" fill-opacity="1" /><path clip-path="url(#clip140)" d="M16.4842 820.814 L16.4842 790.768 L21.895 790.768 L21.895 814.385 L35.9632 814.385 L35.9632 791.755 L41.3741 791.755 L41.3741 814.385 L58.5933 814.385 L58.5933 790.195 L64.0042 790.195 L64.0042 820.814 L16.4842 820.814 Z" fill="#000000" fill-rule="evenodd" fill-opacity="1" /><path clip-path="url(#clip140)" d="M29.4065 757.157 L34.9447 757.157 Q33.6716 759.64 33.035 762.313 Q32.3984 764.987 32.3984 767.851 Q32.3984 772.212 33.7352 774.408 Q35.072 776.572 37.7456 776.572 Q39.7826 776.572 40.9603 775.013 Q42.1061 773.453 43.1565 768.743 L43.6021 766.737 Q44.9389 760.499 47.3897 757.889 Q49.8086 755.247 54.1691 755.247 Q59.1344 755.247 62.0308 759.194 Q64.9272 763.109 64.9272 769.984 Q64.9272 772.849 64.3543 775.968 Q63.8132 779.055 62.6992 782.493 L56.6518 782.493 Q58.3387 779.246 59.198 776.095 Q60.0256 772.944 60.0256 769.857 Q60.0256 765.719 58.6251 763.491 Q57.1929 761.263 54.6147 761.263 Q52.2276 761.263 50.9545 762.886 Q49.6813 764.478 48.5037 769.92 L48.0262 771.957 Q46.8804 777.4 44.5251 779.819 Q42.138 782.238 38.0002 782.238 Q32.9713 782.238 30.2341 778.673 Q27.4968 775.108 27.4968 768.552 Q27.4968 765.305 27.9743 762.441 Q28.4517 759.576 29.4065 757.157 Z" fill="#000000" fill-rule="evenodd" fill-opacity="1" /><path clip-path="url(#clip140)" d="M18.2347 740.129 L28.3562 740.129 L28.3562 728.066 L32.9077 728.066 L32.9077 740.129 L52.2594 740.129 Q56.6199 740.129 57.8613 738.951 Q59.1026 737.742 59.1026 734.081 L59.1026 728.066 L64.0042 728.066 L64.0042 734.081 Q64.0042 740.861 61.4897 743.439 Q58.9434 746.017 52.2594 746.017 L32.9077 746.017 L32.9077 750.314 L28.3562 750.314 L28.3562 746.017 L18.2347 746.017 L18.2347 740.129 Z" fill="#000000" fill-rule="evenodd" fill-opacity="1" /><path clip-path="url(#clip140)" d="M28.3562 720.363 L28.3562 714.507 L64.0042 714.507 L64.0042 720.363 L28.3562 720.363 M14.479 720.363 L14.479 714.507 L21.895 714.507 L21.895 720.363 L14.479 720.363 Z" fill="#000000" fill-rule="evenodd" fill-opacity="1" /><path clip-path="url(#clip140)" d="M35.1993 674.498 Q31.2526 672.302 29.3747 669.247 Q27.4968 666.191 27.4968 662.053 Q27.4968 656.483 31.4117 653.46 Q35.2948 650.436 42.4881 650.436 L64.0042 650.436 L64.0042 656.324 L42.679 656.324 Q37.5546 656.324 35.072 658.139 Q32.5894 659.953 32.5894 663.677 Q32.5894 668.228 35.6131 670.87 Q38.6368 673.512 43.8567 673.512 L64.0042 673.512 L64.0042 679.4 L42.679 679.4 Q37.5228 679.4 35.072 681.214 Q32.5894 683.028 32.5894 686.816 Q32.5894 691.304 35.6449 693.946 Q38.6686 696.587 43.8567 696.587 L64.0042 696.587 L64.0042 702.476 L28.3562 702.476 L28.3562 696.587 L33.8944 696.587 Q30.616 694.582 29.0564 691.781 Q27.4968 688.98 27.4968 685.129 Q27.4968 681.246 29.4702 678.541 Q31.4436 675.803 35.1993 674.498 Z" fill="#000000" fill-rule="evenodd" fill-opacity="1" /><path clip-path="url(#clip140)" d="M46.0847 622.554 Q46.0847 629.652 47.7079 632.389 Q49.3312 635.126 53.2461 635.126 Q56.3653 635.126 58.2114 633.089 Q60.0256 631.021 60.0256 627.488 Q60.0256 622.618 56.5881 619.69 Q53.1188 616.73 47.3897 616.73 L46.0847 616.73 L46.0847 622.554 M43.6657 610.873 L64.0042 610.873 L64.0042 616.73 L58.5933 616.73 Q61.8398 618.735 63.3994 621.727 Q64.9272 624.719 64.9272 629.047 Q64.9272 634.522 61.8716 637.768 Q58.7843 640.983 53.6281 640.983 Q47.6125 640.983 44.5569 636.973 Q41.5014 632.93 41.5014 624.941 L41.5014 616.73 L40.9285 616.73 Q36.8862 616.73 34.6901 619.403 Q32.4621 622.045 32.4621 626.851 Q32.4621 629.907 33.1941 632.803 Q33.9262 635.699 35.3903 638.373 L29.9795 638.373 Q28.7381 635.158 28.1334 632.135 Q27.4968 629.111 27.4968 626.246 Q27.4968 618.512 31.5072 614.693 Q35.5176 610.873 43.6657 610.873 Z" fill="#000000" fill-rule="evenodd" fill-opacity="1" /><path clip-path="url(#clip140)" d="M18.2347 593.017 L28.3562 593.017 L28.3562 580.954 L32.9077 580.954 L32.9077 593.017 L52.2594 593.017 Q56.6199 593.017 57.8613 591.84 Q59.1026 590.63 59.1026 586.97 L59.1026 580.954 L64.0042 580.954 L64.0042 586.97 Q64.0042 593.749 61.4897 596.328 Q58.9434 598.906 52.2594 598.906 L32.9077 598.906 L32.9077 603.202 L28.3562 603.202 L28.3562 598.906 L18.2347 598.906 L18.2347 593.017 Z" fill="#000000" fill-rule="evenodd" fill-opacity="1" /><path clip-path="url(#clip140)" d="M44.7161 542.76 L47.5806 542.76 L47.5806 569.687 Q53.6281 569.305 56.8109 566.059 Q59.9619 562.78 59.9619 556.956 Q59.9619 553.582 59.1344 550.431 Q58.3069 547.248 56.6518 544.129 L62.1899 544.129 Q63.5267 547.28 64.227 550.59 Q64.9272 553.9 64.9272 557.306 Q64.9272 565.836 59.9619 570.833 Q54.9967 575.798 46.5303 575.798 Q37.7774 575.798 32.6531 571.087 Q27.4968 566.345 27.4968 558.324 Q27.4968 551.131 32.1438 546.961 Q36.7589 542.76 44.7161 542.76 M42.9973 548.617 Q38.1912 548.68 35.3266 551.322 Q32.4621 553.932 32.4621 558.261 Q32.4621 563.162 35.2312 566.122 Q38.0002 569.05 43.0292 569.496 L42.9973 548.617 Z" fill="#000000" fill-rule="evenodd" fill-opacity="1" /><path clip-path="url(#clip140)" d="M14.5426 498.359 Q21.8632 502.624 29.0246 504.693 Q36.186 506.762 43.5384 506.762 Q50.8908 506.762 58.1159 504.693 Q65.3091 502.592 72.5979 498.359 L72.5979 503.452 Q65.1182 508.226 57.8931 510.613 Q50.668 512.969 43.5384 512.969 Q36.4406 512.969 29.2474 510.613 Q22.0542 508.258 14.5426 503.452 L14.5426 498.359 Z" fill="#000000" fill-rule="evenodd" fill-opacity="1" /><path clip-path="url(#clip140)" d="M45.7664 463.539 Q39.4007 463.539 35.8996 466.181 Q32.3984 468.791 32.3984 473.533 Q32.3984 478.244 35.8996 480.885 Q39.4007 483.495 45.7664 483.495 Q52.1003 483.495 55.6014 480.885 Q59.1026 478.244 59.1026 473.533 Q59.1026 468.791 55.6014 466.181 Q52.1003 463.539 45.7664 463.539 M59.58 457.682 Q68.683 457.682 73.1071 461.725 Q77.5631 465.767 77.5631 474.106 Q77.5631 477.193 77.0857 479.931 Q76.6401 482.668 75.6852 485.246 L69.9879 485.246 Q71.3884 482.668 72.0568 480.153 Q72.7252 477.639 72.7252 475.029 Q72.7252 469.268 69.7015 466.403 Q66.7096 463.539 60.6303 463.539 L57.7339 463.539 Q60.885 465.353 62.4446 468.186 Q64.0042 471.019 64.0042 474.965 Q64.0042 481.522 59.0071 485.532 Q54.01 489.543 45.7664 489.543 Q37.491 489.543 32.4939 485.532 Q27.4968 481.522 27.4968 474.965 Q27.4968 471.019 29.0564 468.186 Q30.616 465.353 33.7671 463.539 L28.3562 463.539 L28.3562 457.682 L59.58 457.682 Z" fill="#000000" fill-rule="evenodd" fill-opacity="1" /><path clip-path="url(#clip140)" d="M49.9359 446.224 L28.3562 446.224 L28.3562 440.368 L49.7131 440.368 Q54.7739 440.368 57.3202 438.394 Q59.8346 436.421 59.8346 432.474 Q59.8346 427.732 56.8109 424.995 Q53.7872 422.225 48.5673 422.225 L28.3562 422.225 L28.3562 416.369 L64.0042 416.369 L64.0042 422.225 L58.5296 422.225 Q61.7762 424.358 63.3676 427.191 Q64.9272 429.992 64.9272 433.716 Q64.9272 439.858 61.1078 443.041 Q57.2883 446.224 49.9359 446.224 M27.4968 431.488 L27.4968 431.488 Z" fill="#000000" fill-rule="evenodd" fill-opacity="1" /><path clip-path="url(#clip140)" d="M42.4881 374.674 L64.0042 374.674 L64.0042 380.53 L42.679 380.53 Q37.6183 380.53 35.1038 382.503 Q32.5894 384.477 32.5894 388.424 Q32.5894 393.166 35.6131 395.903 Q38.6368 398.64 43.8567 398.64 L64.0042 398.64 L64.0042 404.529 L28.3562 404.529 L28.3562 398.64 L33.8944 398.64 Q30.6797 396.54 29.0883 393.707 Q27.4968 390.843 27.4968 387.119 Q27.4968 380.976 31.3163 377.825 Q35.1038 374.674 42.4881 374.674 Z" fill="#000000" fill-rule="evenodd" fill-opacity="1" /><path clip-path="url(#clip140)" d="M29.4065 340.267 L34.9447 340.267 Q33.6716 342.75 33.035 345.423 Q32.3984 348.097 32.3984 350.961 Q32.3984 355.322 33.7352 357.518 Q35.072 359.682 37.7456 359.682 Q39.7826 359.682 40.9603 358.123 Q42.1061 356.563 43.1565 351.853 L43.6021 349.847 Q44.9389 343.609 47.3897 340.999 Q49.8086 338.357 54.1691 338.357 Q59.1344 338.357 62.0308 342.304 Q64.9272 346.219 64.9272 353.094 Q64.9272 355.958 64.3543 359.078 Q63.8132 362.165 62.6992 365.602 L56.6518 365.602 Q58.3387 362.356 59.198 359.205 Q60.0256 356.054 60.0256 352.967 Q60.0256 348.829 58.6251 346.601 Q57.1929 344.373 54.6147 344.373 Q52.2276 344.373 50.9545 345.996 Q49.6813 347.588 48.5037 353.03 L48.0262 355.067 Q46.8804 360.51 44.5251 362.929 Q42.138 365.348 38.0002 365.348 Q32.9713 365.348 30.2341 361.783 Q27.4968 358.218 27.4968 351.662 Q27.4968 348.415 27.9743 345.55 Q28.4517 342.686 29.4065 340.267 Z" fill="#000000" fill-rule="evenodd" fill-opacity="1" /><path clip-path="url(#clip140)" d="M16.4842 318.624 L16.4842 313.213 L70.0516 329.764 L70.0516 335.174 L16.4842 318.624 Z" fill="#000000" fill-rule="evenodd" fill-opacity="1" /><path clip-path="url(#clip140)" d="M58.657 301.404 L77.5631 301.404 L77.5631 307.293 L28.3562 307.293 L28.3562 301.404 L33.7671 301.404 Q30.5842 299.558 29.0564 296.757 Q27.4968 293.925 27.4968 290.01 Q27.4968 283.517 32.6531 279.474 Q37.8093 275.4 46.212 275.4 Q54.6147 275.4 59.771 279.474 Q64.9272 283.517 64.9272 290.01 Q64.9272 293.925 63.3994 296.757 Q61.8398 299.558 58.657 301.404 M46.212 281.48 Q39.7508 281.48 36.0905 284.153 Q32.3984 286.795 32.3984 291.442 Q32.3984 296.089 36.0905 298.763 Q39.7508 301.404 46.212 301.404 Q52.6732 301.404 56.3653 298.763 Q60.0256 296.089 60.0256 291.442 Q60.0256 286.795 56.3653 284.153 Q52.6732 281.48 46.212 281.48 Z" fill="#000000" fill-rule="evenodd" fill-opacity="1" /><path clip-path="url(#clip140)" d="M44.7161 235.201 L47.5806 235.201 L47.5806 262.128 Q53.6281 261.746 56.8109 258.499 Q59.9619 255.221 59.9619 249.396 Q59.9619 246.023 59.1344 242.872 Q58.3069 239.689 56.6518 236.57 L62.1899 236.57 Q63.5267 239.721 64.227 243.031 Q64.9272 246.341 64.9272 249.747 Q64.9272 258.277 59.9619 263.274 Q54.9967 268.239 46.5303 268.239 Q37.7774 268.239 32.6531 263.528 Q27.4968 258.786 27.4968 250.765 Q27.4968 243.572 32.1438 239.402 Q36.7589 235.201 44.7161 235.201 M42.9973 241.057 Q38.1912 241.121 35.3266 243.763 Q32.4621 246.373 32.4621 250.701 Q32.4621 255.603 35.2312 258.563 Q38.0002 261.491 43.0292 261.937 L42.9973 241.057 Z" fill="#000000" fill-rule="evenodd" fill-opacity="1" /><path clip-path="url(#clip140)" d="M33.8307 204.932 Q33.2578 205.919 33.0032 207.096 Q32.7167 208.242 32.7167 209.643 Q32.7167 214.608 35.9632 217.282 Q39.1779 219.923 45.2253 219.923 L64.0042 219.923 L64.0042 225.812 L28.3562 225.812 L28.3562 219.923 L33.8944 219.923 Q30.6479 218.077 29.0883 215.117 Q27.4968 212.157 27.4968 207.924 Q27.4968 207.319 27.5923 206.587 Q27.656 205.855 27.8151 204.964 L33.8307 204.932 Z" fill="#000000" fill-rule="evenodd" fill-opacity="1" /><path clip-path="url(#clip140)" d="M29.4065 176.064 L34.9447 176.064 Q33.6716 178.546 33.035 181.22 Q32.3984 183.893 32.3984 186.758 Q32.3984 191.118 33.7352 193.315 Q35.072 195.479 37.7456 195.479 Q39.7826 195.479 40.9603 193.919 Q42.1061 192.36 43.1565 187.649 L43.6021 185.644 Q44.9389 179.406 47.3897 176.796 Q49.8086 174.154 54.1691 174.154 Q59.1344 174.154 62.0308 178.101 Q64.9272 182.015 64.9272 188.89 Q64.9272 191.755 64.3543 194.874 Q63.8132 197.962 62.6992 201.399 L56.6518 201.399 Q58.3387 198.153 59.198 195.002 Q60.0256 191.851 60.0256 188.763 Q60.0256 184.625 58.6251 182.397 Q57.1929 180.169 54.6147 180.169 Q52.2276 180.169 50.9545 181.793 Q49.6813 183.384 48.5037 188.827 L48.0262 190.864 Q46.8804 196.307 44.5251 198.725 Q42.138 201.144 38.0002 201.144 Q32.9713 201.144 30.2341 197.58 Q27.4968 194.015 27.4968 187.458 Q27.4968 184.212 27.9743 181.347 Q28.4517 178.483 29.4065 176.064 Z" fill="#000000" fill-rule="evenodd" fill-opacity="1" /><path clip-path="url(#clip140)" d="M32.4621 151.015 Q32.4621 155.725 36.1542 158.462 Q39.8145 161.2 46.212 161.2 Q52.6095 161.2 56.3017 158.494 Q59.9619 155.757 59.9619 151.015 Q59.9619 146.336 56.2698 143.598 Q52.5777 140.861 46.212 140.861 Q39.8781 140.861 36.186 143.598 Q32.4621 146.336 32.4621 151.015 M27.4968 151.015 Q27.4968 143.376 32.4621 139.015 Q37.4273 134.655 46.212 134.655 Q54.9649 134.655 59.9619 139.015 Q64.9272 143.376 64.9272 151.015 Q64.9272 158.685 59.9619 163.046 Q54.9649 167.374 46.212 167.374 Q37.4273 167.374 32.4621 163.046 Q27.4968 158.685 27.4968 151.015 Z" fill="#000000" fill-rule="evenodd" fill-opacity="1" /><path clip-path="url(#clip140)" d="M42.4881 95.3146 L64.0042 95.3146 L64.0042 101.171 L42.679 101.171 Q37.6183 101.171 35.1038 103.144 Q32.5894 105.118 32.5894 109.064 Q32.5894 113.807 35.6131 116.544 Q38.6368 119.281 43.8567 119.281 L64.0042 119.281 L64.0042 125.17 L28.3562 125.17 L28.3562 119.281 L33.8944 119.281 Q30.6797 117.181 29.0883 114.348 Q27.4968 111.483 27.4968 107.76 Q27.4968 101.617 31.3163 98.4656 Q35.1038 95.3146 42.4881 95.3146 Z" fill="#000000" fill-rule="evenodd" fill-opacity="1" /><path clip-path="url(#clip140)" d="M14.5426 84.5565 L14.5426 79.464 Q22.0542 74.6897 29.2474 72.3344 Q36.4406 69.9472 43.5384 69.9472 Q50.668 69.9472 57.8931 72.3344 Q65.1182 74.6897 72.5979 79.464 L72.5979 84.5565 Q65.3091 80.3233 58.1159 78.2545 Q50.8908 76.1538 43.5384 76.1538 Q36.186 76.1538 29.0246 78.2545 Q21.8632 80.3233 14.5426 84.5565 Z" fill="#000000" fill-rule="evenodd" fill-opacity="1" /><path clip-path="url(#clip140)" d="M820.202 63.9476 L820.202 47.7034 L806.834 47.7034 L806.834 40.9789 L828.304 40.9789 L828.304 66.9452 Q823.565 70.3075 817.853 72.0494 Q812.141 73.7508 805.66 73.7508 Q791.482 73.7508 783.461 65.4869 Q775.48 57.1826 775.48 42.3968 Q775.48 27.5705 783.461 19.3066 Q791.482 11.0023 805.66 11.0023 Q811.574 11.0023 816.881 12.4606 Q822.228 13.9189 826.724 16.7545 L826.724 25.464 Q822.187 21.6156 817.083 19.6712 Q811.979 17.7268 806.348 17.7268 Q795.249 17.7268 789.659 23.9246 Q784.109 30.1225 784.109 42.3968 Q784.109 54.6305 789.659 60.8284 Q795.249 67.0263 806.348 67.0263 Q810.683 67.0263 814.086 66.2971 Q817.488 65.5274 820.202 63.9476 Z" fill="#000000" fill-rule="evenodd" fill-opacity="1" /><path clip-path="url(#clip140)" d="M842.158 54.671 L842.158 27.2059 L849.612 27.2059 L849.612 54.3874 Q849.612 60.8284 852.124 64.0691 Q854.635 67.2693 859.658 67.2693 Q865.694 67.2693 869.178 63.421 Q872.702 59.5726 872.702 52.9291 L872.702 27.2059 L880.156 27.2059 L880.156 72.576 L872.702 72.576 L872.702 65.6084 Q869.988 69.7404 866.383 71.7658 Q862.818 73.7508 858.078 73.7508 Q850.26 73.7508 846.209 68.8897 Q842.158 64.0286 842.158 54.671 M860.914 26.1121 L860.914 26.1121 Z" fill="#000000" fill-rule="evenodd" fill-opacity="1" /><path clip-path="url(#clip140)" d="M933.223 45.1919 L933.223 72.576 L925.769 72.576 L925.769 45.4349 Q925.769 38.994 923.257 35.7938 Q920.746 32.5936 915.723 32.5936 Q909.687 32.5936 906.203 36.4419 Q902.719 40.2903 902.719 46.9338 L902.719 72.576 L895.225 72.576 L895.225 27.2059 L902.719 27.2059 L902.719 34.2544 Q905.393 30.163 908.998 28.1376 Q912.644 26.1121 917.384 26.1121 Q925.202 26.1121 929.212 30.9732 Q933.223 35.7938 933.223 45.1919 Z" fill="#000000" fill-rule="evenodd" fill-opacity="1" /><path clip-path="url(#clip140)" d="M999.333 17.6457 Q990.421 17.6457 985.155 24.2892 Q979.93 30.9327 979.93 42.3968 Q979.93 53.8203 985.155 60.4638 Q990.421 67.1073 999.333 67.1073 Q1008.25 67.1073 1013.43 60.4638 Q1018.66 53.8203 1018.66 42.3968 Q1018.66 30.9327 1013.43 24.2892 Q1008.25 17.6457 999.333 17.6457 M999.333 11.0023 Q1012.05 11.0023 1019.67 19.5497 Q1027.28 28.0566 1027.28 42.3968 Q1027.28 56.6965 1019.67 65.2439 Q1012.05 73.7508 999.333 73.7508 Q986.573 73.7508 978.917 65.2439 Q971.301 56.737 971.301 42.3968 Q971.301 28.0566 978.917 19.5497 Q986.573 11.0023 999.333 11.0023 Z" fill="#000000" fill-rule="evenodd" fill-opacity="1" /><path clip-path="url(#clip140)" d="M1035.43 27.2059 L1042.88 27.2059 L1052.2 62.6108 L1061.47 27.2059 L1070.26 27.2059 L1079.58 62.6108 L1088.86 27.2059 L1096.31 27.2059 L1084.44 72.576 L1075.65 72.576 L1065.89 35.3887 L1056.09 72.576 L1047.3 72.576 L1035.43 27.2059 Z" fill="#000000" fill-rule="evenodd" fill-opacity="1" /><path clip-path="url(#clip140)" d="M1145.33 45.1919 L1145.33 72.576 L1137.87 72.576 L1137.87 45.4349 Q1137.87 38.994 1135.36 35.7938 Q1132.85 32.5936 1127.83 32.5936 Q1121.79 32.5936 1118.31 36.4419 Q1114.82 40.2903 1114.82 46.9338 L1114.82 72.576 L1107.33 72.576 L1107.33 27.2059 L1114.82 27.2059 L1114.82 34.2544 Q1117.5 30.163 1121.1 28.1376 Q1124.75 26.1121 1129.49 26.1121 Q1137.31 26.1121 1141.32 30.9732 Q1145.33 35.7938 1145.33 45.1919 Z" fill="#000000" fill-rule="evenodd" fill-opacity="1" /><path clip-path="url(#clip140)" d="M1199 48.0275 L1199 51.6733 L1164.73 51.6733 Q1165.22 59.3701 1169.35 63.421 Q1173.52 67.4314 1180.94 67.4314 Q1185.23 67.4314 1189.24 66.3781 Q1193.29 65.3249 1197.26 63.2184 L1197.26 70.267 Q1193.25 71.9684 1189.04 72.8596 Q1184.82 73.7508 1180.49 73.7508 Q1169.63 73.7508 1163.27 67.4314 Q1156.95 61.1119 1156.95 50.3365 Q1156.95 39.1965 1162.95 32.6746 Q1168.99 26.1121 1179.19 26.1121 Q1188.35 26.1121 1193.66 32.0264 Q1199 37.9003 1199 48.0275 M1191.55 45.84 Q1191.47 39.7232 1188.11 36.0774 Q1184.78 32.4315 1179.27 32.4315 Q1173.04 32.4315 1169.27 35.9558 Q1165.54 39.4801 1164.97 45.8805 L1191.55 45.84 Z" fill="#000000" fill-rule="evenodd" fill-opacity="1" /><path clip-path="url(#clip140)" d="M1237.53 34.1734 Q1236.27 33.4443 1234.77 33.1202 Q1233.31 32.7556 1231.53 32.7556 Q1225.21 32.7556 1221.81 36.8875 Q1218.45 40.9789 1218.45 48.6757 L1218.45 72.576 L1210.95 72.576 L1210.95 27.2059 L1218.45 27.2059 L1218.45 34.2544 Q1220.8 30.1225 1224.56 28.1376 Q1228.33 26.1121 1233.72 26.1121 Q1234.49 26.1121 1235.42 26.2337 Q1236.35 26.3147 1237.49 26.5172 L1237.53 34.1734 Z" fill="#000000" fill-rule="evenodd" fill-opacity="1" /><path clip-path="url(#clip140)" d="M1274.27 28.5427 L1274.27 35.5912 Q1271.11 33.9709 1267.71 33.1607 Q1264.3 32.3505 1260.66 32.3505 Q1255.11 32.3505 1252.31 34.0519 Q1249.56 35.7533 1249.56 39.156 Q1249.56 41.7486 1251.54 43.2475 Q1253.53 44.7058 1259.52 46.0426 L1262.08 46.6097 Q1270.01 48.3111 1273.34 51.4303 Q1276.7 54.509 1276.7 60.0587 Q1276.7 66.3781 1271.68 70.0644 Q1266.69 73.7508 1257.94 73.7508 Q1254.3 73.7508 1250.33 73.0216 Q1246.4 72.3329 1242.02 70.9151 L1242.02 63.2184 Q1246.16 65.3654 1250.17 66.4591 Q1254.18 67.5124 1258.11 67.5124 Q1263.37 67.5124 1266.21 65.73 Q1269.04 63.9071 1269.04 60.6258 Q1269.04 57.5877 1266.98 55.9673 Q1264.95 54.3469 1258.02 52.8481 L1255.43 52.2405 Q1248.5 50.7821 1245.43 47.7845 Q1242.35 44.7463 1242.35 39.4801 Q1242.35 33.0797 1246.88 29.5959 Q1251.42 26.1121 1259.77 26.1121 Q1263.9 26.1121 1267.54 26.7198 Q1271.19 27.3274 1274.27 28.5427 Z" fill="#000000" fill-rule="evenodd" fill-opacity="1" /><path clip-path="url(#clip140)" d="M1326.28 45.1919 L1326.28 72.576 L1318.83 72.576 L1318.83 45.4349 Q1318.83 38.994 1316.32 35.7938 Q1313.81 32.5936 1308.78 32.5936 Q1302.75 32.5936 1299.26 36.4419 Q1295.78 40.2903 1295.78 46.9338 L1295.78 72.576 L1288.28 72.576 L1288.28 9.54393 L1295.78 9.54393 L1295.78 34.2544 Q1298.45 30.163 1302.06 28.1376 Q1305.7 26.1121 1310.44 26.1121 Q1318.26 26.1121 1322.27 30.9732 Q1326.28 35.7938 1326.28 45.1919 Z" fill="#000000" fill-rule="evenodd" fill-opacity="1" /><path clip-path="url(#clip140)" d="M1341.15 27.2059 L1348.6 27.2059 L1348.6 72.576 L1341.15 72.576 L1341.15 27.2059 M1341.15 9.54393 L1348.6 9.54393 L1348.6 18.9825 L1341.15 18.9825 L1341.15 9.54393 Z" fill="#000000" fill-rule="evenodd" fill-opacity="1" /><path clip-path="url(#clip140)" d="M1371.41 65.7705 L1371.41 89.8329 L1363.91 89.8329 L1363.91 27.2059 L1371.41 27.2059 L1371.41 34.0924 Q1373.76 30.0415 1377.32 28.0971 Q1380.93 26.1121 1385.91 26.1121 Q1394.18 26.1121 1399.32 32.6746 Q1404.5 39.2371 1404.5 49.9314 Q1404.5 60.6258 1399.32 67.1883 Q1394.18 73.7508 1385.91 73.7508 Q1380.93 73.7508 1377.32 71.8063 Q1373.76 69.8214 1371.41 65.7705 M1396.77 49.9314 Q1396.77 41.7081 1393.36 37.0496 Q1390 32.3505 1384.09 32.3505 Q1378.17 32.3505 1374.77 37.0496 Q1371.41 41.7081 1371.41 49.9314 Q1371.41 58.1548 1374.77 62.8538 Q1378.17 67.5124 1384.09 67.5124 Q1390 67.5124 1393.36 62.8538 Q1396.77 58.1548 1396.77 49.9314 Z" fill="#000000" fill-rule="evenodd" fill-opacity="1" /><path clip-path="url(#clip140)" d="M1437.88 27.2059 L1445.78 27.2059 L1459.96 65.2844 L1474.14 27.2059 L1482.04 27.2059 L1465.03 72.576 L1454.9 72.576 L1437.88 27.2059 Z" fill="#000000" fill-rule="evenodd" fill-opacity="1" /><path clip-path="url(#clip140)" d="M1521.25 28.5427 L1521.25 35.5912 Q1518.09 33.9709 1514.69 33.1607 Q1511.29 32.3505 1507.64 32.3505 Q1502.09 32.3505 1499.3 34.0519 Q1496.54 35.7533 1496.54 39.156 Q1496.54 41.7486 1498.53 43.2475 Q1500.51 44.7058 1506.51 46.0426 L1509.06 46.6097 Q1517 48.3111 1520.32 51.4303 Q1523.68 54.509 1523.68 60.0587 Q1523.68 66.3781 1518.66 70.0644 Q1513.68 73.7508 1504.93 73.7508 Q1501.28 73.7508 1497.31 73.0216 Q1493.38 72.3329 1489.01 70.9151 L1489.01 63.2184 Q1493.14 65.3654 1497.15 66.4591 Q1501.16 67.5124 1505.09 67.5124 Q1510.36 67.5124 1513.19 65.73 Q1516.03 63.9071 1516.03 60.6258 Q1516.03 57.5877 1513.96 55.9673 Q1511.93 54.3469 1505.01 52.8481 L1502.42 52.2405 Q1495.49 50.7821 1492.41 47.7845 Q1489.33 44.7463 1489.33 39.4801 Q1489.33 33.0797 1493.87 29.5959 Q1498.4 26.1121 1506.75 26.1121 Q1510.88 26.1121 1514.53 26.7198 Q1518.17 27.3274 1521.25 28.5427 Z" fill="#000000" fill-rule="evenodd" fill-opacity="1" /><path clip-path="url(#clip140)" d="M1553.86 12.096 L1605.02 12.096 L1605.02 18.9825 L1583.55 18.9825 L1583.55 72.576 L1575.33 72.576 L1575.33 18.9825 L1553.86 18.9825 L1553.86 12.096 Z" fill="#000000" fill-rule="evenodd" fill-opacity="1" /><path clip-path="url(#clip140)" d="M1610.05 27.2059 L1617.5 27.2059 L1617.5 72.576 L1610.05 72.576 L1610.05 27.2059 M1610.05 9.54393 L1617.5 9.54393 L1617.5 18.9825 L1610.05 18.9825 L1610.05 9.54393 Z" fill="#000000" fill-rule="evenodd" fill-opacity="1" /><path clip-path="url(#clip140)" d="M1668.42 35.9153 Q1671.22 30.8922 1675.11 28.5022 Q1678.99 26.1121 1684.26 26.1121 Q1691.35 26.1121 1695.2 31.0947 Q1699.05 36.0368 1699.05 45.1919 L1699.05 72.576 L1691.55 72.576 L1691.55 45.4349 Q1691.55 38.913 1689.24 35.7533 Q1686.93 32.5936 1682.19 32.5936 Q1676.4 32.5936 1673.04 36.4419 Q1669.68 40.2903 1669.68 46.9338 L1669.68 72.576 L1662.18 72.576 L1662.18 45.4349 Q1662.18 38.8725 1659.87 35.7533 Q1657.56 32.5936 1652.74 32.5936 Q1647.03 32.5936 1643.67 36.4824 Q1640.31 40.3308 1640.31 46.9338 L1640.31 72.576 L1632.81 72.576 L1632.81 27.2059 L1640.31 27.2059 L1640.31 34.2544 Q1642.86 30.082 1646.42 28.0971 Q1649.99 26.1121 1654.89 26.1121 Q1659.83 26.1121 1663.28 28.6237 Q1666.76 31.1352 1668.42 35.9153 Z" fill="#000000" fill-rule="evenodd" fill-opacity="1" /><path clip-path="url(#clip140)" d="M1752.72 48.0275 L1752.72 51.6733 L1718.45 51.6733 Q1718.94 59.3701 1723.07 63.421 Q1727.24 67.4314 1734.65 67.4314 Q1738.95 67.4314 1742.96 66.3781 Q1747.01 65.3249 1750.98 63.2184 L1750.98 70.267 Q1746.97 71.9684 1742.76 72.8596 Q1738.54 73.7508 1734.21 73.7508 Q1723.35 73.7508 1716.99 67.4314 Q1710.67 61.1119 1710.67 50.3365 Q1710.67 39.1965 1716.67 32.6746 Q1722.7 26.1121 1732.91 26.1121 Q1742.07 26.1121 1747.37 32.0264 Q1752.72 37.9003 1752.72 48.0275 M1745.27 45.84 Q1745.19 39.7232 1741.82 36.0774 Q1738.5 32.4315 1732.99 32.4315 Q1726.75 32.4315 1722.99 35.9558 Q1719.26 39.4801 1718.69 45.8805 L1745.27 45.84 Z" fill="#000000" fill-rule="evenodd" fill-opacity="1" /><polyline clip-path="url(#clip142)" style="stroke:#009af9; stroke-linecap:butt; stroke-linejoin:round; stroke-width:4; stroke-opacity:0.5; fill:none" points="
  175.445,1086.99 279.127,1069 382.808,1052.62 486.49,1037.23 590.171,1024.45 693.853,1011.8 797.534,999.978 901.215,989.173 1004.9,976.744 1108.58,963.409 
  1212.26,945.679 1315.94,928.079 1419.62,910.346 1523.3,888.952 1626.99,857.613 1730.67,832.555 1834.35,805.748 1938.03,775.33 2041.71,761.097 2145.39,749.299 
  2249.07,738.931 2352.76,704.409 
  "/>
<polyline clip-path="url(#clip142)" style="stroke:#e26f46; stroke-linecap:butt; stroke-linejoin:round; stroke-width:4; stroke-opacity:0.5; fill:none" points="
  175.445,1085.28 382.808,1043.27 486.49,1027.56 590.171,1012.63 693.853,1001.02 797.534,985.514 901.215,967.953 1004.9,947.494 1315.94,881.02 1730.67,754.789 
  1834.35,718.677 1938.03,683.993 2041.71,645.342 2145.39,607.818 2249.07,569.121 2352.76,530.174 
  "/>
<polyline clip-path="url(#clip142)" style="stroke:#3da44d; stroke-linecap:butt; stroke-linejoin:round; stroke-width:4; stroke-opacity:0.5; fill:none" points="
  175.445,1091.93 279.127,1088.46 382.808,1088.65 486.49,1087.35 590.171,1087.18 693.853,1088.21 797.534,1090.86 901.215,1092.07 1004.9,1090.34 1108.58,1087.82 
  1212.26,1081.11 1315.94,1075.36 1419.62,1070.03 1523.3,1062.08 1626.99,1050.63 1730.67,1044.32 1834.35,1037.62 1938.03,1029.1 2041.71,1019.39 2145.39,1014.83 
  2249.07,1008.52 2352.76,995.983 
  "/>
<polyline clip-path="url(#clip142)" style="stroke:#c271d2; stroke-linecap:butt; stroke-linejoin:round; stroke-width:4; stroke-opacity:0.5; fill:none" points="
  175.445,1085.47 279.127,1064.17 382.808,1045.35 486.49,1029.13 590.171,1016.49 693.853,1004.57 797.534,993.695 901.215,983.514 1004.9,971.602 1108.58,959.994 
  1212.26,945.27 1315.94,932.907 1419.62,920.433 1523.3,904.399 1626.99,882.101 1730.67,865.718 1834.35,849.231 1938.03,830.294 2041.71,813.838 2145.39,797.337 
  2249.07,780.97 2352.76,759.999 
  "/>
<polyline clip-path="url(#clip142)" style="stroke:#ac8d18; stroke-linecap:butt; stroke-linejoin:round; stroke-width:4; stroke-opacity:0.5; fill:none" points="
  175.445,1094.13 279.127,1089.99 382.808,1089.23 486.49,1087.2 590.171,1086.4 693.853,1085.67 797.534,1083.81 901.215,1080.8 1004.9,1076.11 1108.58,1074.91 
  1212.26,1073.44 1315.94,1071.47 1419.62,1070.14 1523.3,1067.07 1626.99,1061.12 1730.67,1057.67 1834.35,1053.25 1938.03,1046.01 2041.71,1039.05 2145.39,1032.03 
  2249.07,1024.86 2352.76,1015.37 
  "/>
<polyline clip-path="url(#clip142)" style="stroke:#00a9ad; stroke-linecap:butt; stroke-linejoin:round; stroke-width:4; stroke-opacity:0.5; fill:none" points="
  175.445,1088.32 279.127,1068.44 382.808,1052.48 486.49,1034.43 590.171,1023.13 693.853,1013.67 797.534,1003.18 901.215,995.678 1004.9,986.567 1108.58,975.323 
  1212.26,955.336 1315.94,938.527 1419.62,923.382 1523.3,905.624 1626.99,882.223 1730.67,867.748 1834.35,853.732 1938.03,834.682 2041.71,813.619 2145.39,796.318 
  2249.07,779.267 2352.76,754.978 
  "/>
<polyline clip-path="url(#clip142)" style="stroke:#ed5d92; stroke-linecap:butt; stroke-linejoin:round; stroke-width:4; stroke-opacity:0.5; fill:none" points="
  175.445,1095.56 279.127,1094.9 382.808,1097.5 486.49,1094.92 590.171,1091.63 693.853,1087.53 797.534,1083.33 901.215,1078.97 1004.9,1074.41 1108.58,1069.44 
  1212.26,1062.28 1315.94,1054.94 1419.62,1046.64 1523.3,1037.81 1626.99,1024.41 1730.67,1012.81 1834.35,996.976 1938.03,976.442 2041.71,966.052 2145.39,954.952 
  2249.07,945.741 2352.76,935.637 
  "/>
<polyline clip-path="url(#clip142)" style="stroke:#c68125; stroke-linecap:butt; stroke-linejoin:round; stroke-width:4; stroke-opacity:0.5; fill:none" points="
  175.445,1098.25 279.127,1099.28 382.808,1100.65 486.49,1099.88 590.171,1097.23 693.853,1096.79 797.534,1096.43 901.215,1098.31 1004.9,1100.32 1108.58,1103.52 
  1212.26,1109.75 1315.94,1114.51 1419.62,1122.46 1523.3,1129.08 1626.99,1135.21 1730.67,1140.41 1834.35,1145.68 1938.03,1148.93 2041.71,1153.58 2145.39,1156.39 
  2249.07,1157.01 2352.76,1158.91 
  "/>
<polyline clip-path="url(#clip142)" style="stroke:#00a98d; stroke-linecap:butt; stroke-linejoin:round; stroke-width:4; stroke-opacity:0.5; fill:none" points="
  175.445,1094.87 279.127,1093.62 382.808,1095.46 486.49,1095.61 590.171,1095.7 693.853,1097.36 797.534,1098.5 901.215,1096.51 1004.9,1091.89 1108.58,1086.25 
  1212.26,1077.78 1315.94,1070.48 1419.62,1064.27 1523.3,1056.52 1626.99,1043.88 1730.67,1036.68 1834.35,1029.63 1938.03,1019.28 2041.71,1009.2 2145.39,999.336 
  2249.07,988.91 2352.76,974.3 
  "/>
<polyline clip-path="url(#clip142)" style="stroke:#8e971d; stroke-linecap:butt; stroke-linejoin:round; stroke-width:4; stroke-opacity:0.5; fill:none" points="
  175.445,1093.66 279.127,1088.78 382.808,1087.24 486.49,1083.56 590.171,1079.93 693.853,1077.61 797.534,1075.68 901.215,1074.39 1004.9,1073.72 1108.58,1071.66 
  1212.26,1066.98 1315.94,1062.15 1419.62,1058.94 1523.3,1053.49 1626.99,1044.08 1730.67,1038.41 1834.35,1032.45 1938.03,1024.19 2041.71,1017.64 2145.39,1011.18 
  2249.07,1005.86 2352.76,995.039 
  "/>
<polyline clip-path="url(#clip142)" style="stroke:#00a8cb; stroke-linecap:butt; stroke-linejoin:round; stroke-width:4; stroke-opacity:0.5; fill:none" points="
  175.445,1095.23 279.127,1091.75 382.808,1089.33 486.49,1085.77 590.171,1082.26 693.853,1078.76 797.534,1074.77 901.215,1071.17 1004.9,1068 1108.58,1064.49 
  1212.26,1059.74 1315.94,1054.39 1419.62,1048.44 1523.3,1039.84 1626.99,1027.73 1730.67,1016.39 1834.35,1004.76 1938.03,989.816 2041.71,974.722 2145.39,960.445 
  2249.07,946.744 2352.76,930.162 
  "/>
<polyline clip-path="url(#clip142)" style="stroke:#9b7fe8; stroke-linecap:butt; stroke-linejoin:round; stroke-width:4; stroke-opacity:0.5; fill:none" points="
  175.445,1091.36 279.127,1083.17 382.808,1080.7 486.49,1077.14 590.171,1074.74 693.853,1068.14 797.534,1060.88 901.215,1054.12 1004.9,1046.53 1108.58,1038.3 
  1212.26,1026.72 1315.94,1015.8 1419.62,1004 1523.3,988.338 1626.99,966.79 1730.67,948.417 1834.35,929.428 1938.03,905.206 2041.71,883.501 2145.39,863.754 
  2249.07,847.262 2352.76,822.464 
  "/>
<polyline clip-path="url(#clip142)" style="stroke:#608cf6; stroke-linecap:butt; stroke-linejoin:round; stroke-width:4; stroke-opacity:0.5; fill:none" points="
  175.445,1095.69 279.127,1091.06 382.808,1086.5 486.49,1081.81 590.171,1077.93 693.853,1073.93 797.534,1069.66 901.215,1066.16 1108.58,1059.6 1315.94,1053.13 
  1419.62,1050.17 1523.3,1046.52 1626.99,1042.77 1730.67,1040.36 1834.35,1038.13 1938.03,1035.22 2041.71,1032.36 2145.39,1029.79 2249.07,1026.18 2352.76,1022.64 
  
  "/>
<polyline clip-path="url(#clip142)" style="stroke:#f05f73; stroke-linecap:butt; stroke-linejoin:round; stroke-width:4; stroke-opacity:0.5; fill:none" points="
  175.445,1090.69 279.127,1077.92 382.808,1067.03 486.49,1056.76 590.171,1046.27 693.853,1036.17 797.534,1026.08 901.215,1016.06 1004.9,1005.43 1108.58,995.318 
  1212.26,981.501 1315.94,968.58 1419.62,954.235 1523.3,937.74 1626.99,913.488 1730.67,897.435 1834.35,881.511 1938.03,860.751 2041.71,842.743 2145.39,824.439 
  2249.07,808.873 2352.76,786.984 
  "/>
<polyline clip-path="url(#clip142)" style="stroke:#dd64b5; stroke-linecap:butt; stroke-linejoin:round; stroke-width:4; stroke-opacity:0.5; fill:none" points="
  175.445,1085.75 279.127,1065.89 382.808,1047.82 486.49,1030.74 590.171,1016.61 693.853,1002.65 797.534,988.933 901.215,975.446 1004.9,962.331 1108.58,949.456 
  1212.26,934.131 1315.94,920.525 1419.62,907.255 1523.3,889.82 1626.99,867.61 1730.67,852.2 1834.35,835.162 1938.03,814.925 2041.71,797.161 2145.39,780.49 
  2249.07,763.152 2352.76,738.409 
  "/>
<polyline clip-path="url(#clip142)" style="stroke:#6b9e32; stroke-linecap:butt; stroke-linejoin:round; stroke-width:4; stroke-opacity:0.5; fill:none" points="
  175.445,1090.07 279.127,1075.35 382.808,1062.09 486.49,1050.91 590.171,1041.15 693.853,1032.08 797.534,1022.5 901.215,979.621 1004.9,971.613 1108.58,961.605 
  1212.26,947.286 1315.94,935.23 1419.62,921.753 1523.3,904.904 1626.99,880.534 1730.67,861.385 1834.35,841.816 1938.03,817.988 2041.71,794.472 2145.39,770.902 
  2249.07,751.146 2352.76,727.016 
  "/>
<polyline clip-path="url(#clip142)" style="stroke:#009af9; stroke-linecap:butt; stroke-linejoin:round; stroke-width:4; stroke-opacity:0.5; fill:none" points="
  175.445,1096.37 279.127,1095.44 382.808,1096.95 486.49,1097.44 590.171,1097.49 693.853,1097.34 797.534,1096.29 901.215,1094.5 1004.9,1091.86 1108.58,1089.23 
  1212.26,1085.71 1315.94,1082.94 1419.62,1080.51 1523.3,1076.98 1626.99,1069.52 1730.67,1060.55 1834.35,1056.67 1938.03,1050.5 2041.71,1045.27 2145.39,1037.6 
  2249.07,1031.56 2352.76,1023.89 
  "/>
<polyline clip-path="url(#clip142)" style="stroke:#e26f46; stroke-linecap:butt; stroke-linejoin:round; stroke-width:4; stroke-opacity:0.5; fill:none" points="
  175.445,1097.77 279.127,1098 382.808,1099.01 486.49,1098.13 590.171,1096.35 693.853,1093.63 797.534,1091.08 901.215,1089.29 1004.9,1088.16 1108.58,1087.81 
  1212.26,1087.39 1315.94,1085.98 1419.62,1084.62 1523.3,1083.4 1626.99,1079.95 1730.67,1077.49 1834.35,1075.01 1938.03,1069.9 2041.71,1066.15 2145.39,1063.28 
  2249.07,1058.47 2352.76,1053.39 
  "/>
<polyline clip-path="url(#clip142)" style="stroke:#3da44d; stroke-linecap:butt; stroke-linejoin:round; stroke-width:4; stroke-opacity:0.5; fill:none" points="
  175.445,1095.4 279.127,1089.99 382.808,1085.31 486.49,1079.08 590.171,1072.76 693.853,1065.84 797.534,1058.49 901.215,1051.12 1004.9,1043.33 1108.58,1035.2 
  1212.26,1027.1 1315.94,1020.9 1419.62,1015.22 1523.3,1009.93 1626.99,1000.38 1730.67,992.247 1834.35,983.969 1938.03,973.32 2041.71,964.691 2145.39,956.949 
  2249.07,948.141 2352.76,931.252 
  "/>
<polyline clip-path="url(#clip142)" style="stroke:#c271d2; stroke-linecap:butt; stroke-linejoin:round; stroke-width:4; stroke-opacity:0.5; fill:none" points="
  175.445,1094.14 279.127,1085.44 382.808,1078.93 486.49,1070.42 590.171,1062.08 693.853,1052.44 797.534,1043.08 901.215,1034.45 1004.9,1025.7 1108.58,1016.78 
  1212.26,1006.35 1315.94,996.443 1419.62,986.781 1523.3,974.708 1626.99,958.129 1730.67,945.702 1834.35,933.06 1938.03,917.991 2041.71,905.31 2145.39,897.009 
  2249.07,886.561 2352.76,869.944 
  "/>
<polyline clip-path="url(#clip142)" style="stroke:#ac8d18; stroke-linecap:butt; stroke-linejoin:round; stroke-width:4; stroke-opacity:0.5; fill:none" points="
  175.445,1085.73 279.127,1065.25 382.808,1045.98 486.49,1029.75 590.171,1016.29 693.853,1004.38 797.534,991.974 901.215,972.841 1004.9,958.318 1108.58,943.683 
  1212.26,926.639 1315.94,912.43 1419.62,897.426 1523.3,879.471 1626.99,855.378 1730.67,835.798 1834.35,813.627 1938.03,785.978 2041.71,759.597 2145.39,736.829 
  2249.07,712.706 2352.76,679.893 
  "/>
<polyline clip-path="url(#clip142)" style="stroke:#00a9ad; stroke-linecap:butt; stroke-linejoin:round; stroke-width:4; stroke-opacity:0.5; fill:none" points="
  175.445,1091.08 279.127,1079.97 382.808,1070.76 486.49,1060.78 590.171,1051.8 693.853,1042.65 797.534,1033.56 901.215,1024.74 1004.9,1015.44 1108.58,1001.73 
  1212.26,984.437 1315.94,968.407 1419.62,951.006 1523.3,929.912 1626.99,901.259 1730.67,879.33 1834.35,854.931 1938.03,827.051 2041.71,800.291 2145.39,774.686 
  2249.07,751.671 2352.76,722.401 
  "/>
<polyline clip-path="url(#clip142)" style="stroke:#ed5d92; stroke-linecap:butt; stroke-linejoin:round; stroke-width:4; stroke-opacity:0.5; fill:none" points="
  175.445,1095.28 279.127,1089.98 382.808,1085.47 486.49,1081.34 590.171,1077.98 693.853,1074.27 797.534,1070.55 901.215,1066.84 1004.9,1063.09 1108.58,1059.74 
  1212.26,1056.86 1315.94,1054.19 1419.62,1051.47 1523.3,1047.68 1626.99,1042.92 1730.67,1040.19 1834.35,1037.82 1938.03,1034.56 2041.71,1032.09 2145.39,1029.1 
  2249.07,1025.97 2352.76,1021.4 
  "/>
<polyline clip-path="url(#clip142)" style="stroke:#c68125; stroke-linecap:butt; stroke-linejoin:round; stroke-width:4; stroke-opacity:0.5; fill:none" points="
  175.445,1091.55 279.127,1091.48 382.808,1099.02 486.49,1101.72 590.171,1104.63 693.853,1109.89 797.534,1113.09 901.215,1115.21 1004.9,1116.21 1108.58,1113.97 
  1212.26,1103.92 1315.94,1094.31 1419.62,1084.6 1523.3,1075.22 1626.99,1061.95 1730.67,1056.42 1834.35,1051.93 1938.03,1045.31 2041.71,1039.99 2145.39,1033.32 
  2249.07,1028.48 2352.76,1020.07 
  "/>
<polyline clip-path="url(#clip142)" style="stroke:#00a98d; stroke-linecap:butt; stroke-linejoin:round; stroke-width:4; stroke-opacity:0.5; fill:none" points="
  175.445,1097.36 279.127,1097.8 382.808,1099.22 486.49,1099.65 590.171,1099.69 693.853,1099.32 797.534,1098.43 901.215,1097.23 1004.9,1096.31 1108.58,1096.02 
  1212.26,1095.58 1315.94,1094.8 1419.62,1093.63 1523.3,1092.4 1626.99,1089.42 1730.67,1086.76 1834.35,1084.06 1938.03,1079.37 2041.71,1077.18 2145.39,1069.52 
  2249.07,1065.08 2352.76,1061 
  "/>
<polyline clip-path="url(#clip142)" style="stroke:#8e971d; stroke-linecap:butt; stroke-linejoin:round; stroke-width:4; stroke-opacity:0.5; fill:none" points="
  175.445,1087.79 279.127,1071.61 382.808,1057.7 486.49,1048.08 590.171,1040.31 693.853,1033.37 797.534,1026.58 901.215,1019.26 1004.9,1010.88 1108.58,1000.4 
  1212.26,988.473 1315.94,978.133 1419.62,967.296 1523.3,950.049 1626.99,926.239 1730.67,906.229 1834.35,885.771 1938.03,862.531 2041.71,842.155 2145.39,821.098 
  2249.07,799.719 2352.76,775.596 
  "/>
<polyline clip-path="url(#clip142)" style="stroke:#00a8cb; stroke-linecap:butt; stroke-linejoin:round; stroke-width:4; stroke-opacity:0.5; fill:none" points="
  175.445,1097.16 279.127,1096.56 382.808,1096.35 486.49,1095 590.171,1093.57 693.853,1091.38 797.534,1088.37 901.215,1085.4 1004.9,1082.63 1108.58,1080.76 
  1212.26,1078.62 1315.94,1076.16 1419.62,1073.69 1523.3,1070.9 1626.99,1066.22 1730.67,1062.94 1834.35,1058.76 1938.03,1052.03 2041.71,1047.94 2145.39,1036.68 
  2249.07,1030.01 2352.76,1021.72 
  "/>
<polyline clip-path="url(#clip142)" style="stroke:#9b7fe8; stroke-linecap:butt; stroke-linejoin:round; stroke-width:4; stroke-opacity:0.5; fill:none" points="
  175.445,1093.61 279.127,1088.92 382.808,1087.21 486.49,1084.61 590.171,1082.3 693.853,1081.45 797.534,1081.37 901.215,1083.46 1004.9,1085.14 1108.58,1086.47 
  1212.26,1085.3 1315.94,1083.29 1419.62,1082.36 1523.3,1079.41 1626.99,1074.28 1730.67,1071.01 1834.35,1067.97 1938.03,1064.83 2041.71,1062.43 2145.39,1060.03 
  2249.07,1058.11 2352.76,1053.96 
  "/>
<polyline clip-path="url(#clip142)" style="stroke:#608cf6; stroke-linecap:butt; stroke-linejoin:round; stroke-width:4; stroke-opacity:0.5; fill:none" points="
  175.445,1093.3 279.127,1084.32 382.808,1076.75 486.49,1068.18 590.171,1059.89 693.853,1050.97 797.534,1041.86 901.215,1032.89 1004.9,1023.78 1108.58,1014.61 
  1212.26,1003.01 1315.94,992.185 1419.62,979.91 1523.3,964.284 1626.99,943.566 1730.67,927.364 1834.35,910.616 1938.03,889.984 2041.71,872.705 2145.39,857.67 
  2249.07,843.528 2352.76,824.648 
  "/>
<polyline clip-path="url(#clip142)" style="stroke:#f05f73; stroke-linecap:butt; stroke-linejoin:round; stroke-width:4; stroke-opacity:0.5; fill:none" points="
  175.445,1088.35 279.127,1072.11 382.808,1057.43 486.49,1044.87 590.171,1033.24 693.853,1021.27 797.534,1009.44 901.215,998.682 1004.9,987.116 1108.58,974.757 
  1212.26,959.344 1315.94,945.476 1419.62,930.589 1523.3,908.748 1626.99,879.052 1730.67,856.059 1834.35,832.984 1938.03,805.354 2041.71,779.119 2145.39,755.241 
  2249.07,733.856 2352.76,706.96 
  "/>
<polyline clip-path="url(#clip142)" style="stroke:#dd64b5; stroke-linecap:butt; stroke-linejoin:round; stroke-width:4; stroke-opacity:0.5; fill:none" points="
  175.445,1089.44 279.127,1075.77 382.808,1066.37 486.49,1056.4 590.171,1045.61 693.853,1033.18 797.534,1022.34 901.215,1012.7 1004.9,1002.46 1108.58,991.474 
  1212.26,977.348 1315.94,963.014 1419.62,948.984 1523.3,931.582 1626.99,908.42 1730.67,891.716 1834.35,877.571 1938.03,859.742 2041.71,838.756 2145.39,819.588 
  2249.07,799.61 2352.76,772.111 
  "/>
<polyline clip-path="url(#clip142)" style="stroke:#6b9e32; stroke-linecap:butt; stroke-linejoin:round; stroke-width:4; stroke-opacity:0.5; fill:none" points="
  175.445,1089.88 279.127,1074.83 382.808,1061.69 486.49,1046.31 590.171,1031.82 693.853,1018.41 797.534,1005.47 901.215,993.397 1004.9,979.582 1108.58,965.333 
  1212.26,948.745 1315.94,933.026 1419.62,915.863 1523.3,893.687 1626.99,870.275 1730.67,852.481 1834.35,834.375 1938.03,811.81 2041.71,790.969 2145.39,770.668 
  2249.07,751.32 2352.76,726.549 
  "/>
<polyline clip-path="url(#clip142)" style="stroke:#009af9; stroke-linecap:butt; stroke-linejoin:round; stroke-width:4; stroke-opacity:0.5; fill:none" points="
  175.445,1096.16 279.127,1094.75 382.808,1094.22 486.49,1093.12 590.171,1091.34 2352.76,974.74 
  "/>
<polyline clip-path="url(#clip142)" style="stroke:#e26f46; stroke-linecap:butt; stroke-linejoin:round; stroke-width:4; stroke-opacity:0.5; fill:none" points="
  175.445,1092.07 279.127,1083.28 382.808,1077.29 486.49,1071.44 590.171,1066.62 693.853,1063.54 797.534,1059.76 901.215,1057.8 1004.9,1055.61 1108.58,1052.83 
  1212.26,1045.61 1315.94,1037.9 1419.62,1031.45 1523.3,1021.54 1626.99,1008.8 1730.67,1000.71 1834.35,992.279 1938.03,981.55 2041.71,970.599 2145.39,961.35 
  2249.07,953.49 2352.76,939.926 
  "/>
<polyline clip-path="url(#clip142)" style="stroke:#3da44d; stroke-linecap:butt; stroke-linejoin:round; stroke-width:4; stroke-opacity:0.5; fill:none" points="
  175.445,1089.39 279.127,1076.43 382.808,1065.64 486.49,1053.95 590.171,1043.3 693.853,1034.16 797.534,1026.15 901.215,1019.18 1004.9,1010.84 1108.58,1000.79 
  1212.26,986.451 1315.94,972.27 1419.62,957.75 1523.3,939.937 1626.99,913.888 1730.67,895.092 1834.35,874.319 1938.03,848.091 2041.71,825.848 2145.39,804.764 
  2249.07,786.251 2352.76,760.197 
  "/>
<polyline clip-path="url(#clip142)" style="stroke:#c271d2; stroke-linecap:butt; stroke-linejoin:round; stroke-width:4; stroke-opacity:0.5; fill:none" points="
  175.445,1092.23 279.127,1085.97 382.808,1083.57 486.49,1080.49 590.171,1077.92 693.853,1075.74 797.534,1073.61 901.215,1073.13 1004.9,1071.01 1108.58,1068.39 
  1212.26,1062.9 1315.94,1057.75 1419.62,1054.16 1523.3,1046.45 1626.99,1034.13 1730.67,1027.49 1834.35,1020.54 1938.03,1010.78 2041.71,1002.99 2145.39,995.529 
  2249.07,988.005 2352.76,976.351 
  "/>
<polyline clip-path="url(#clip142)" style="stroke:#ac8d18; stroke-linecap:butt; stroke-linejoin:round; stroke-width:4; stroke-opacity:0.5; fill:none" points="
  175.445,1091.12 382.808,1080.6 486.49,1076.41 590.171,1071.98 693.853,1068.49 797.534,1066.78 901.215,1064.85 1004.9,1062.52 1108.58,1059.71 1212.26,1054.88 
  1315.94,1050.99 1419.62,1048.33 1523.3,1042.67 1626.99,1034.12 1730.67,1029.55 1834.35,1026.22 1938.03,1021.45 2041.71,1016.52 2145.39,1013.3 2249.07,1009.63 
  2352.76,1001.05 
  "/>
<polyline clip-path="url(#clip142)" style="stroke:#00a9ad; stroke-linecap:butt; stroke-linejoin:round; stroke-width:4; stroke-opacity:0.5; fill:none" points="
  175.445,1092.43 279.127,1085.73 382.808,1082.12 486.49,1076.49 590.171,1070.58 693.853,1065.94 797.534,1060.16 901.215,1053.62 1004.9,1046.47 1108.58,1038.64 
  1212.26,1029.05 1315.94,1018.54 1419.62,1009.54 1523.3,998.114 1626.99,979.489 1730.67,965.06 1834.35,950.62 1938.03,931.897 2041.71,913.317 2145.39,896.873 
  2249.07,880.776 2352.76,857.845 
  "/>
<polyline clip-path="url(#clip142)" style="stroke:#ed5d92; stroke-linecap:butt; stroke-linejoin:round; stroke-width:4; stroke-opacity:0.5; fill:none" points="
  175.445,1094.47 279.127,1089.91 382.808,1087.96 486.49,1084.18 590.171,1079.18 693.853,1075.15 797.534,1070.76 901.215,1067.54 1004.9,1062.82 1108.58,1057.65 
  1212.26,1050.23 1315.94,1041.53 1419.62,1034.7 1523.3,1023.33 1626.99,1007.02 1730.67,996.435 1834.35,987.618 1938.03,977.085 2041.71,966.102 2145.39,957.25 
  2249.07,943.387 2352.76,930.523 
  "/>
<polyline clip-path="url(#clip142)" style="stroke:#c68125; stroke-linecap:butt; stroke-linejoin:round; stroke-width:4; stroke-opacity:0.5; fill:none" points="
  175.445,1084.41 279.127,1056.9 382.808,1029.72 486.49,1006.1 590.171,986.647 693.853,967.347 797.534,947.398 901.215,928.124 1004.9,908.37 1108.58,888.486 
  1212.26,865.149 1315.94,842.924 1419.62,817.273 1523.3,785.743 1626.99,743.386 1730.67,707.22 1834.35,670.183 1938.03,628.413 2041.71,587.335 2145.39,550.01 
  2249.07,512.657 2352.76,471.574 
  "/>
<polyline clip-path="url(#clip142)" style="stroke:#00a98d; stroke-linecap:butt; stroke-linejoin:round; stroke-width:4; stroke-opacity:0.5; fill:none" points="
  175.445,1092.66 279.127,1082.24 382.808,1073.07 486.49,1063.49 590.171,1054.41 693.853,1044.39 797.534,1034.76 901.215,1025.27 1004.9,1015.78 1108.58,1006.57 
  1212.26,996.183 1315.94,985.864 1419.62,975.169 1523.3,958.849 1626.99,937.704 1730.67,921.401 1834.35,905.705 1938.03,885.435 2041.71,865.667 2145.39,848.193 
  2249.07,830.67 2352.76,807.077 
  "/>
</svg>
