<?xml version="1.0" encoding="utf-8"?>
<svg xmlns="http://www.w3.org/2000/svg" xmlns:xlink="http://www.w3.org/1999/xlink" width="600" height="400" viewBox="0 0 2400 1600">
<defs>
  <clipPath id="clip100">
    <rect x="0" y="0" width="2400" height="1600"/>
  </clipPath>
</defs>
<path clip-path="url(#clip100)" d="
M0 1600 L2400 1600 L2400 0 L0 0  Z
  " fill="#ffffff" fill-rule="evenodd" fill-opacity="1"/>
<defs>
  <clipPath id="clip101">
    <rect x="480" y="0" width="1681" height="1600"/>
  </clipPath>
</defs>
<path clip-path="url(#clip100)" d="
M205.121 1423.18 L2352.76 1423.18 L2352.76 123.472 L205.121 123.472  Z
  " fill="#ffffff" fill-rule="evenodd" fill-opacity="1"/>
<defs>
  <clipPath id="clip102">
    <rect x="205" y="123" width="2149" height="1301"/>
  </clipPath>
</defs>
<polyline clip-path="url(#clip102)" style="stroke:#000000; stroke-linecap:butt; stroke-linejoin:round; stroke-width:2; stroke-opacity:0.1; fill:none" points="
  315.319,1423.18 315.319,123.472 
  "/>
<polyline clip-path="url(#clip102)" style="stroke:#000000; stroke-linecap:butt; stroke-linejoin:round; stroke-width:2; stroke-opacity:0.1; fill:none" points="
  809.483,1423.18 809.483,123.472 
  "/>
<polyline clip-path="url(#clip102)" style="stroke:#000000; stroke-linecap:butt; stroke-linejoin:round; stroke-width:2; stroke-opacity:0.1; fill:none" points="
  1303.65,1423.18 1303.65,123.472 
  "/>
<polyline clip-path="url(#clip102)" style="stroke:#000000; stroke-linecap:butt; stroke-linejoin:round; stroke-width:2; stroke-opacity:0.1; fill:none" points="
  1797.81,1423.18 1797.81,123.472 
  "/>
<polyline clip-path="url(#clip102)" style="stroke:#000000; stroke-linecap:butt; stroke-linejoin:round; stroke-width:2; stroke-opacity:0.1; fill:none" points="
  2291.97,1423.18 2291.97,123.472 
  "/>
<polyline clip-path="url(#clip100)" style="stroke:#000000; stroke-linecap:butt; stroke-linejoin:round; stroke-width:4; stroke-opacity:1; fill:none" points="
  205.121,1423.18 2352.76,1423.18 
  "/>
<polyline clip-path="url(#clip100)" style="stroke:#000000; stroke-linecap:butt; stroke-linejoin:round; stroke-width:4; stroke-opacity:1; fill:none" points="
  315.319,1423.18 315.319,1404.28 
  "/>
<polyline clip-path="url(#clip100)" style="stroke:#000000; stroke-linecap:butt; stroke-linejoin:round; stroke-width:4; stroke-opacity:1; fill:none" points="
  809.483,1423.18 809.483,1404.28 
  "/>
<polyline clip-path="url(#clip100)" style="stroke:#000000; stroke-linecap:butt; stroke-linejoin:round; stroke-width:4; stroke-opacity:1; fill:none" points="
  1303.65,1423.18 1303.65,1404.28 
  "/>
<polyline clip-path="url(#clip100)" style="stroke:#000000; stroke-linecap:butt; stroke-linejoin:round; stroke-width:4; stroke-opacity:1; fill:none" points="
  1797.81,1423.18 1797.81,1404.28 
  "/>
<polyline clip-path="url(#clip100)" style="stroke:#000000; stroke-linecap:butt; stroke-linejoin:round; stroke-width:4; stroke-opacity:1; fill:none" points="
  2291.97,1423.18 2291.97,1404.28 
  "/>
<path clip-path="url(#clip100)" d="M259.845 1481.64 L267.484 1481.64 L267.484 1455.28 L259.174 1456.95 L259.174 1452.69 L267.438 1451.02 L272.114 1451.02 L272.114 1481.64 L279.753 1481.64 L279.753 1485.58 L259.845 1485.58 L259.845 1481.64 Z" fill="#000000" fill-rule="evenodd" fill-opacity="1" /><path clip-path="url(#clip100)" d="M289.336 1484.86 L289.336 1480.6 Q291.095 1481.44 292.901 1481.88 Q294.706 1482.32 296.442 1482.32 Q301.072 1482.32 303.502 1479.21 Q305.956 1476.09 306.303 1469.75 Q304.961 1471.74 302.901 1472.8 Q300.84 1473.87 298.34 1473.87 Q293.155 1473.87 290.123 1470.74 Q287.114 1467.59 287.114 1462.15 Q287.114 1456.83 290.262 1453.61 Q293.41 1450.39 298.641 1450.39 Q304.637 1450.39 307.785 1455 Q310.956 1459.58 310.956 1468.33 Q310.956 1476.51 307.067 1481.39 Q303.201 1486.25 296.651 1486.25 Q294.891 1486.25 293.086 1485.9 Q291.28 1485.56 289.336 1484.86 M298.641 1470.21 Q301.789 1470.21 303.618 1468.06 Q305.47 1465.9 305.47 1462.15 Q305.47 1458.43 303.618 1456.27 Q301.789 1454.1 298.641 1454.1 Q295.493 1454.1 293.641 1456.27 Q291.813 1458.43 291.813 1462.15 Q291.813 1465.9 293.641 1468.06 Q295.493 1470.21 298.641 1470.21 Z" fill="#000000" fill-rule="evenodd" fill-opacity="1" /><path clip-path="url(#clip100)" d="M329.359 1469.17 Q326.025 1469.17 324.104 1470.95 Q322.206 1472.73 322.206 1475.86 Q322.206 1478.98 324.104 1480.77 Q326.025 1482.55 329.359 1482.55 Q332.692 1482.55 334.613 1480.77 Q336.535 1478.96 336.535 1475.86 Q336.535 1472.73 334.613 1470.95 Q332.715 1469.17 329.359 1469.17 M324.683 1467.18 Q321.674 1466.44 319.984 1464.38 Q318.317 1462.32 318.317 1459.35 Q318.317 1455.21 321.257 1452.8 Q324.22 1450.39 329.359 1450.39 Q334.521 1450.39 337.461 1452.8 Q340.4 1455.21 340.4 1459.35 Q340.4 1462.32 338.711 1464.38 Q337.044 1466.44 334.058 1467.18 Q337.437 1467.96 339.312 1470.26 Q341.211 1472.55 341.211 1475.86 Q341.211 1480.88 338.132 1483.57 Q335.076 1486.25 329.359 1486.25 Q323.641 1486.25 320.562 1483.57 Q317.507 1480.88 317.507 1475.86 Q317.507 1472.55 319.405 1470.26 Q321.303 1467.96 324.683 1467.18 M322.97 1459.79 Q322.97 1462.48 324.637 1463.98 Q326.326 1465.49 329.359 1465.49 Q332.368 1465.49 334.058 1463.98 Q335.771 1462.48 335.771 1459.79 Q335.771 1457.11 334.058 1455.6 Q332.368 1454.1 329.359 1454.1 Q326.326 1454.1 324.637 1455.6 Q322.97 1457.11 322.97 1459.79 Z" fill="#000000" fill-rule="evenodd" fill-opacity="1" /><path clip-path="url(#clip100)" d="M359.521 1454.1 Q355.91 1454.1 354.081 1457.66 Q352.275 1461.2 352.275 1468.33 Q352.275 1475.44 354.081 1479.01 Q355.91 1482.55 359.521 1482.55 Q363.155 1482.55 364.96 1479.01 Q366.789 1475.44 366.789 1468.33 Q366.789 1461.2 364.96 1457.66 Q363.155 1454.1 359.521 1454.1 M359.521 1450.39 Q365.331 1450.39 368.386 1455 Q371.465 1459.58 371.465 1468.33 Q371.465 1477.06 368.386 1481.67 Q365.331 1486.25 359.521 1486.25 Q353.71 1486.25 350.632 1481.67 Q347.576 1477.06 347.576 1468.33 Q347.576 1459.58 350.632 1455 Q353.71 1450.39 359.521 1450.39 Z" fill="#000000" fill-rule="evenodd" fill-opacity="1" /><path clip-path="url(#clip100)" d="M754.009 1481.64 L761.648 1481.64 L761.648 1455.28 L753.338 1456.95 L753.338 1452.69 L761.601 1451.02 L766.277 1451.02 L766.277 1481.64 L773.916 1481.64 L773.916 1485.58 L754.009 1485.58 L754.009 1481.64 Z" fill="#000000" fill-rule="evenodd" fill-opacity="1" /><path clip-path="url(#clip100)" d="M783.499 1484.86 L783.499 1480.6 Q785.259 1481.44 787.064 1481.88 Q788.87 1482.32 790.606 1482.32 Q795.235 1482.32 797.666 1479.21 Q800.12 1476.09 800.467 1469.75 Q799.124 1471.74 797.064 1472.8 Q795.004 1473.87 792.504 1473.87 Q787.319 1473.87 784.286 1470.74 Q781.277 1467.59 781.277 1462.15 Q781.277 1456.83 784.425 1453.61 Q787.573 1450.39 792.805 1450.39 Q798.8 1450.39 801.948 1455 Q805.12 1459.58 805.12 1468.33 Q805.12 1476.51 801.231 1481.39 Q797.365 1486.25 790.814 1486.25 Q789.055 1486.25 787.249 1485.9 Q785.444 1485.56 783.499 1484.86 M792.805 1470.21 Q795.953 1470.21 797.782 1468.06 Q799.634 1465.9 799.634 1462.15 Q799.634 1458.43 797.782 1456.27 Q795.953 1454.1 792.805 1454.1 Q789.657 1454.1 787.805 1456.27 Q785.976 1458.43 785.976 1462.15 Q785.976 1465.9 787.805 1468.06 Q789.657 1470.21 792.805 1470.21 Z" fill="#000000" fill-rule="evenodd" fill-opacity="1" /><path clip-path="url(#clip100)" d="M813.661 1484.86 L813.661 1480.6 Q815.421 1481.44 817.226 1481.88 Q819.032 1482.32 820.768 1482.32 Q825.397 1482.32 827.828 1479.21 Q830.282 1476.09 830.629 1469.75 Q829.286 1471.74 827.226 1472.8 Q825.166 1473.87 822.666 1473.87 Q817.481 1473.87 814.448 1470.74 Q811.439 1467.59 811.439 1462.15 Q811.439 1456.83 814.587 1453.61 Q817.735 1450.39 822.967 1450.39 Q828.962 1450.39 832.11 1455 Q835.282 1459.58 835.282 1468.33 Q835.282 1476.51 831.393 1481.39 Q827.527 1486.25 820.976 1486.25 Q819.217 1486.25 817.411 1485.9 Q815.606 1485.56 813.661 1484.86 M822.967 1470.21 Q826.115 1470.21 827.944 1468.06 Q829.795 1465.9 829.795 1462.15 Q829.795 1458.43 827.944 1456.27 Q826.115 1454.1 822.967 1454.1 Q819.819 1454.1 817.967 1456.27 Q816.138 1458.43 816.138 1462.15 Q816.138 1465.9 817.967 1468.06 Q819.819 1470.21 822.967 1470.21 Z" fill="#000000" fill-rule="evenodd" fill-opacity="1" /><path clip-path="url(#clip100)" d="M853.684 1454.1 Q850.073 1454.1 848.244 1457.66 Q846.439 1461.2 846.439 1468.33 Q846.439 1475.44 848.244 1479.01 Q850.073 1482.55 853.684 1482.55 Q857.318 1482.55 859.124 1479.01 Q860.953 1475.44 860.953 1468.33 Q860.953 1461.2 859.124 1457.66 Q857.318 1454.1 853.684 1454.1 M853.684 1450.39 Q859.494 1450.39 862.55 1455 Q865.629 1459.58 865.629 1468.33 Q865.629 1477.06 862.55 1481.67 Q859.494 1486.25 853.684 1486.25 Q847.874 1486.25 844.795 1481.67 Q841.74 1477.06 841.74 1468.33 Q841.74 1459.58 844.795 1455 Q847.874 1450.39 853.684 1450.39 Z" fill="#000000" fill-rule="evenodd" fill-opacity="1" /><path clip-path="url(#clip100)" d="M1252.26 1481.64 L1268.58 1481.64 L1268.58 1485.58 L1246.63 1485.58 L1246.63 1481.64 Q1249.3 1478.89 1253.88 1474.26 Q1258.48 1469.61 1259.67 1468.27 Q1261.91 1465.74 1262.79 1464.01 Q1263.69 1462.25 1263.69 1460.56 Q1263.69 1457.8 1261.75 1456.07 Q1259.83 1454.33 1256.73 1454.33 Q1254.53 1454.33 1252.07 1455.09 Q1249.64 1455.86 1246.86 1457.41 L1246.86 1452.69 Q1249.69 1451.55 1252.14 1450.97 Q1254.6 1450.39 1256.63 1450.39 Q1262 1450.39 1265.2 1453.08 Q1268.39 1455.77 1268.39 1460.26 Q1268.39 1462.39 1267.58 1464.31 Q1266.79 1466.2 1264.69 1468.8 Q1264.11 1469.47 1261.01 1472.69 Q1257.91 1475.88 1252.26 1481.64 Z" fill="#000000" fill-rule="evenodd" fill-opacity="1" /><path clip-path="url(#clip100)" d="M1288.39 1454.1 Q1284.78 1454.1 1282.95 1457.66 Q1281.15 1461.2 1281.15 1468.33 Q1281.15 1475.44 1282.95 1479.01 Q1284.78 1482.55 1288.39 1482.55 Q1292.03 1482.55 1293.83 1479.01 Q1295.66 1475.44 1295.66 1468.33 Q1295.66 1461.2 1293.83 1457.66 Q1292.03 1454.1 1288.39 1454.1 M1288.39 1450.39 Q1294.2 1450.39 1297.26 1455 Q1300.34 1459.58 1300.34 1468.33 Q1300.34 1477.06 1297.26 1481.67 Q1294.2 1486.25 1288.39 1486.25 Q1282.58 1486.25 1279.5 1481.67 Q1276.45 1477.06 1276.45 1468.33 Q1276.45 1459.58 1279.5 1455 Q1282.58 1450.39 1288.39 1450.39 Z" fill="#000000" fill-rule="evenodd" fill-opacity="1" /><path clip-path="url(#clip100)" d="M1318.55 1454.1 Q1314.94 1454.1 1313.11 1457.66 Q1311.31 1461.2 1311.31 1468.33 Q1311.31 1475.44 1313.11 1479.01 Q1314.94 1482.55 1318.55 1482.55 Q1322.19 1482.55 1323.99 1479.01 Q1325.82 1475.44 1325.82 1468.33 Q1325.82 1461.2 1323.99 1457.66 Q1322.19 1454.1 1318.55 1454.1 M1318.55 1450.39 Q1324.36 1450.39 1327.42 1455 Q1330.5 1459.58 1330.5 1468.33 Q1330.5 1477.06 1327.42 1481.67 Q1324.36 1486.25 1318.55 1486.25 Q1312.74 1486.25 1309.67 1481.67 Q1306.61 1477.06 1306.61 1468.33 Q1306.61 1459.58 1309.67 1455 Q1312.74 1450.39 1318.55 1450.39 Z" fill="#000000" fill-rule="evenodd" fill-opacity="1" /><path clip-path="url(#clip100)" d="M1348.72 1454.1 Q1345.1 1454.1 1343.28 1457.66 Q1341.47 1461.2 1341.47 1468.33 Q1341.47 1475.44 1343.28 1479.01 Q1345.1 1482.55 1348.72 1482.55 Q1352.35 1482.55 1354.16 1479.01 Q1355.98 1475.44 1355.98 1468.33 Q1355.98 1461.2 1354.16 1457.66 Q1352.35 1454.1 1348.72 1454.1 M1348.72 1450.39 Q1354.53 1450.39 1357.58 1455 Q1360.66 1459.58 1360.66 1468.33 Q1360.66 1477.06 1357.58 1481.67 Q1354.53 1486.25 1348.72 1486.25 Q1342.91 1486.25 1339.83 1481.67 Q1336.77 1477.06 1336.77 1468.33 Q1336.77 1459.58 1339.83 1455 Q1342.91 1450.39 1348.72 1450.39 Z" fill="#000000" fill-rule="evenodd" fill-opacity="1" /><path clip-path="url(#clip100)" d="M1746.42 1481.64 L1762.74 1481.64 L1762.74 1485.58 L1740.8 1485.58 L1740.8 1481.64 Q1743.46 1478.89 1748.04 1474.26 Q1752.65 1469.61 1753.83 1468.27 Q1756.07 1465.74 1756.95 1464.01 Q1757.86 1462.25 1757.86 1460.56 Q1757.86 1457.8 1755.91 1456.07 Q1753.99 1454.33 1750.89 1454.33 Q1748.69 1454.33 1746.24 1455.09 Q1743.81 1455.86 1741.03 1457.41 L1741.03 1452.69 Q1743.85 1451.55 1746.31 1450.97 Q1748.76 1450.39 1750.8 1450.39 Q1756.17 1450.39 1759.36 1453.08 Q1762.56 1455.77 1762.56 1460.26 Q1762.56 1462.39 1761.75 1464.31 Q1760.96 1466.2 1758.85 1468.8 Q1758.27 1469.47 1755.17 1472.69 Q1752.07 1475.88 1746.42 1481.64 Z" fill="#000000" fill-rule="evenodd" fill-opacity="1" /><path clip-path="url(#clip100)" d="M1782.56 1454.1 Q1778.94 1454.1 1777.12 1457.66 Q1775.31 1461.2 1775.31 1468.33 Q1775.31 1475.44 1777.12 1479.01 Q1778.94 1482.55 1782.56 1482.55 Q1786.19 1482.55 1788 1479.01 Q1789.82 1475.44 1789.82 1468.33 Q1789.82 1461.2 1788 1457.66 Q1786.19 1454.1 1782.56 1454.1 M1782.56 1450.39 Q1788.37 1450.39 1791.42 1455 Q1794.5 1459.58 1794.5 1468.33 Q1794.5 1477.06 1791.42 1481.67 Q1788.37 1486.25 1782.56 1486.25 Q1776.75 1486.25 1773.67 1481.67 Q1770.61 1477.06 1770.61 1468.33 Q1770.61 1459.58 1773.67 1455 Q1776.75 1450.39 1782.56 1450.39 Z" fill="#000000" fill-rule="evenodd" fill-opacity="1" /><path clip-path="url(#clip100)" d="M1803.53 1481.64 L1811.17 1481.64 L1811.17 1455.28 L1802.86 1456.95 L1802.86 1452.69 L1811.12 1451.02 L1815.8 1451.02 L1815.8 1481.64 L1823.44 1481.64 L1823.44 1485.58 L1803.53 1485.58 L1803.53 1481.64 Z" fill="#000000" fill-rule="evenodd" fill-opacity="1" /><path clip-path="url(#clip100)" d="M1842.88 1454.1 Q1839.27 1454.1 1837.44 1457.66 Q1835.63 1461.2 1835.63 1468.33 Q1835.63 1475.44 1837.44 1479.01 Q1839.27 1482.55 1842.88 1482.55 Q1846.51 1482.55 1848.32 1479.01 Q1850.15 1475.44 1850.15 1468.33 Q1850.15 1461.2 1848.32 1457.66 Q1846.51 1454.1 1842.88 1454.1 M1842.88 1450.39 Q1848.69 1450.39 1851.75 1455 Q1854.82 1459.58 1854.82 1468.33 Q1854.82 1477.06 1851.75 1481.67 Q1848.69 1486.25 1842.88 1486.25 Q1837.07 1486.25 1833.99 1481.67 Q1830.94 1477.06 1830.94 1468.33 Q1830.94 1459.58 1833.99 1455 Q1837.07 1450.39 1842.88 1450.39 Z" fill="#000000" fill-rule="evenodd" fill-opacity="1" /><path clip-path="url(#clip100)" d="M2240.59 1481.64 L2256.9 1481.64 L2256.9 1485.58 L2234.96 1485.58 L2234.96 1481.64 Q2237.62 1478.89 2242.21 1474.26 Q2246.81 1469.61 2247.99 1468.27 Q2250.24 1465.74 2251.12 1464.01 Q2252.02 1462.25 2252.02 1460.56 Q2252.02 1457.8 2250.08 1456.07 Q2248.15 1454.33 2245.05 1454.33 Q2242.85 1454.33 2240.4 1455.09 Q2237.97 1455.86 2235.19 1457.41 L2235.19 1452.69 Q2238.02 1451.55 2240.47 1450.97 Q2242.92 1450.39 2244.96 1450.39 Q2250.33 1450.39 2253.52 1453.08 Q2256.72 1455.77 2256.72 1460.26 Q2256.72 1462.39 2255.91 1464.31 Q2255.12 1466.2 2253.02 1468.8 Q2252.44 1469.47 2249.34 1472.69 Q2246.23 1475.88 2240.59 1481.64 Z" fill="#000000" fill-rule="evenodd" fill-opacity="1" /><path clip-path="url(#clip100)" d="M2276.72 1454.1 Q2273.11 1454.1 2271.28 1457.66 Q2269.47 1461.2 2269.47 1468.33 Q2269.47 1475.44 2271.28 1479.01 Q2273.11 1482.55 2276.72 1482.55 Q2280.35 1482.55 2282.16 1479.01 Q2283.99 1475.44 2283.99 1468.33 Q2283.99 1461.2 2282.16 1457.66 Q2280.35 1454.1 2276.72 1454.1 M2276.72 1450.39 Q2282.53 1450.39 2285.58 1455 Q2288.66 1459.58 2288.66 1468.33 Q2288.66 1477.06 2285.58 1481.67 Q2282.53 1486.25 2276.72 1486.25 Q2270.91 1486.25 2267.83 1481.67 Q2264.77 1477.06 2264.77 1468.33 Q2264.77 1459.58 2267.83 1455 Q2270.91 1450.39 2276.72 1450.39 Z" fill="#000000" fill-rule="evenodd" fill-opacity="1" /><path clip-path="url(#clip100)" d="M2300.91 1481.64 L2317.23 1481.64 L2317.23 1485.58 L2295.28 1485.58 L2295.28 1481.64 Q2297.95 1478.89 2302.53 1474.26 Q2307.14 1469.61 2308.32 1468.27 Q2310.56 1465.74 2311.44 1464.01 Q2312.34 1462.25 2312.34 1460.56 Q2312.34 1457.8 2310.4 1456.07 Q2308.48 1454.33 2305.38 1454.33 Q2303.18 1454.33 2300.72 1455.09 Q2298.29 1455.86 2295.52 1457.41 L2295.52 1452.69 Q2298.34 1451.55 2300.79 1450.97 Q2303.25 1450.39 2305.28 1450.39 Q2310.65 1450.39 2313.85 1453.08 Q2317.04 1455.77 2317.04 1460.26 Q2317.04 1462.39 2316.23 1464.31 Q2315.45 1466.2 2313.34 1468.8 Q2312.76 1469.47 2309.66 1472.69 Q2306.56 1475.88 2300.91 1481.64 Z" fill="#000000" fill-rule="evenodd" fill-opacity="1" /><path clip-path="url(#clip100)" d="M2337.04 1454.1 Q2333.43 1454.1 2331.6 1457.66 Q2329.8 1461.2 2329.8 1468.33 Q2329.8 1475.44 2331.6 1479.01 Q2333.43 1482.55 2337.04 1482.55 Q2340.68 1482.55 2342.48 1479.01 Q2344.31 1475.44 2344.31 1468.33 Q2344.31 1461.2 2342.48 1457.66 Q2340.68 1454.1 2337.04 1454.1 M2337.04 1450.39 Q2342.85 1450.39 2345.91 1455 Q2348.99 1459.58 2348.99 1468.33 Q2348.99 1477.06 2345.91 1481.67 Q2342.85 1486.25 2337.04 1486.25 Q2331.23 1486.25 2328.15 1481.67 Q2325.1 1477.06 2325.1 1468.33 Q2325.1 1459.58 2328.15 1455 Q2331.23 1450.39 2337.04 1450.39 Z" fill="#000000" fill-rule="evenodd" fill-opacity="1" /><path clip-path="url(#clip100)" d="M1209.87 1520.52 L1216.78 1520.52 L1229.95 1540.07 L1243.04 1520.52 L1249.94 1520.52 L1233.14 1545.41 L1233.14 1568.04 L1226.68 1568.04 L1226.68 1545.41 L1209.87 1520.52 Z" fill="#000000" fill-rule="evenodd" fill-opacity="1" /><path clip-path="url(#clip100)" d="M1277.79 1548.76 L1277.79 1551.62 L1250.87 1551.62 Q1251.25 1557.67 1254.49 1560.85 Q1257.77 1564 1263.6 1564 Q1266.97 1564 1270.12 1563.17 Q1273.3 1562.35 1276.42 1560.69 L1276.42 1566.23 Q1273.27 1567.57 1269.96 1568.27 Q1266.65 1568.97 1263.25 1568.97 Q1254.72 1568.97 1249.72 1564 Q1244.75 1559.04 1244.75 1550.57 Q1244.75 1541.82 1249.47 1536.69 Q1254.21 1531.54 1262.23 1531.54 Q1269.42 1531.54 1273.59 1536.18 Q1277.79 1540.8 1277.79 1548.76 M1271.94 1547.04 Q1271.87 1542.23 1269.23 1539.37 Q1266.62 1536.5 1262.29 1536.5 Q1257.39 1536.5 1254.43 1539.27 Q1251.5 1542.04 1251.06 1547.07 L1271.94 1547.04 Z" fill="#000000" fill-rule="evenodd" fill-opacity="1" /><path clip-path="url(#clip100)" d="M1303.61 1550.12 Q1296.51 1550.12 1293.77 1551.75 Q1291.03 1553.37 1291.03 1557.29 Q1291.03 1560.4 1293.07 1562.25 Q1295.14 1564.07 1298.67 1564.07 Q1303.54 1564.07 1306.47 1560.63 Q1309.43 1557.16 1309.43 1551.43 L1309.43 1550.12 L1303.61 1550.12 M1315.29 1547.71 L1315.29 1568.04 L1309.43 1568.04 L1309.43 1562.63 Q1307.42 1565.88 1304.43 1567.44 Q1301.44 1568.97 1297.11 1568.97 Q1291.64 1568.97 1288.39 1565.91 Q1285.18 1562.82 1285.18 1557.67 Q1285.18 1551.65 1289.19 1548.6 Q1293.23 1545.54 1301.22 1545.54 L1309.43 1545.54 L1309.43 1544.97 Q1309.43 1540.93 1306.76 1538.73 Q1304.11 1536.5 1299.31 1536.5 Q1296.25 1536.5 1293.36 1537.23 Q1290.46 1537.97 1287.79 1539.43 L1287.79 1534.02 Q1291 1532.78 1294.03 1532.17 Q1297.05 1531.54 1299.91 1531.54 Q1307.65 1531.54 1311.47 1535.55 Q1315.29 1539.56 1315.29 1547.71 Z" fill="#000000" fill-rule="evenodd" fill-opacity="1" /><path clip-path="url(#clip100)" d="M1348.01 1537.87 Q1347.02 1537.3 1345.84 1537.04 Q1344.7 1536.76 1343.3 1536.76 Q1338.33 1536.76 1335.66 1540 Q1333.02 1543.22 1333.02 1549.27 L1333.02 1568.04 L1327.13 1568.04 L1327.13 1532.4 L1333.02 1532.4 L1333.02 1537.93 Q1334.86 1534.69 1337.82 1533.13 Q1340.78 1531.54 1345.01 1531.54 Q1345.62 1531.54 1346.35 1531.63 Q1347.08 1531.7 1347.97 1531.85 L1348.01 1537.87 Z" fill="#000000" fill-rule="evenodd" fill-opacity="1" /><polyline clip-path="url(#clip102)" style="stroke:#000000; stroke-linecap:butt; stroke-linejoin:round; stroke-width:2; stroke-opacity:0.1; fill:none" points="
  205.121,1404.37 2352.76,1404.37 
  "/>
<polyline clip-path="url(#clip102)" style="stroke:#000000; stroke-linecap:butt; stroke-linejoin:round; stroke-width:2; stroke-opacity:0.1; fill:none" points="
  205.121,1179.71 2352.76,1179.71 
  "/>
<polyline clip-path="url(#clip102)" style="stroke:#000000; stroke-linecap:butt; stroke-linejoin:round; stroke-width:2; stroke-opacity:0.1; fill:none" points="
  205.121,955.052 2352.76,955.052 
  "/>
<polyline clip-path="url(#clip102)" style="stroke:#000000; stroke-linecap:butt; stroke-linejoin:round; stroke-width:2; stroke-opacity:0.1; fill:none" points="
  205.121,730.394 2352.76,730.394 
  "/>
<polyline clip-path="url(#clip102)" style="stroke:#000000; stroke-linecap:butt; stroke-linejoin:round; stroke-width:2; stroke-opacity:0.1; fill:none" points="
  205.121,505.736 2352.76,505.736 
  "/>
<polyline clip-path="url(#clip102)" style="stroke:#000000; stroke-linecap:butt; stroke-linejoin:round; stroke-width:2; stroke-opacity:0.1; fill:none" points="
  205.121,281.077 2352.76,281.077 
  "/>
<polyline clip-path="url(#clip100)" style="stroke:#000000; stroke-linecap:butt; stroke-linejoin:round; stroke-width:4; stroke-opacity:1; fill:none" points="
  205.121,1423.18 205.121,123.472 
  "/>
<polyline clip-path="url(#clip100)" style="stroke:#000000; stroke-linecap:butt; stroke-linejoin:round; stroke-width:4; stroke-opacity:1; fill:none" points="
  205.121,1404.37 224.019,1404.37 
  "/>
<polyline clip-path="url(#clip100)" style="stroke:#000000; stroke-linecap:butt; stroke-linejoin:round; stroke-width:4; stroke-opacity:1; fill:none" points="
  205.121,1179.71 224.019,1179.71 
  "/>
<polyline clip-path="url(#clip100)" style="stroke:#000000; stroke-linecap:butt; stroke-linejoin:round; stroke-width:4; stroke-opacity:1; fill:none" points="
  205.121,955.052 224.019,955.052 
  "/>
<polyline clip-path="url(#clip100)" style="stroke:#000000; stroke-linecap:butt; stroke-linejoin:round; stroke-width:4; stroke-opacity:1; fill:none" points="
  205.121,730.394 224.019,730.394 
  "/>
<polyline clip-path="url(#clip100)" style="stroke:#000000; stroke-linecap:butt; stroke-linejoin:round; stroke-width:4; stroke-opacity:1; fill:none" points="
  205.121,505.736 224.019,505.736 
  "/>
<polyline clip-path="url(#clip100)" style="stroke:#000000; stroke-linecap:butt; stroke-linejoin:round; stroke-width:4; stroke-opacity:1; fill:none" points="
  205.121,281.077 224.019,281.077 
  "/>
<path clip-path="url(#clip100)" d="M157.177 1390.17 Q153.566 1390.17 151.737 1393.73 Q149.931 1397.27 149.931 1404.4 Q149.931 1411.51 151.737 1415.07 Q153.566 1418.62 157.177 1418.62 Q160.811 1418.62 162.616 1415.07 Q164.445 1411.51 164.445 1404.4 Q164.445 1397.27 162.616 1393.73 Q160.811 1390.17 157.177 1390.17 M157.177 1386.46 Q162.987 1386.46 166.042 1391.07 Q169.121 1395.65 169.121 1404.4 Q169.121 1413.13 166.042 1417.74 Q162.987 1422.32 157.177 1422.32 Q151.366 1422.32 148.288 1417.74 Q145.232 1413.13 145.232 1404.4 Q145.232 1395.65 148.288 1391.07 Q151.366 1386.46 157.177 1386.46 Z" fill="#000000" fill-rule="evenodd" fill-opacity="1" /><path clip-path="url(#clip100)" d="M117.825 1193.05 L125.464 1193.05 L125.464 1166.69 L117.154 1168.36 L117.154 1164.1 L125.418 1162.43 L130.093 1162.43 L130.093 1193.05 L137.732 1193.05 L137.732 1196.99 L117.825 1196.99 L117.825 1193.05 Z" fill="#000000" fill-rule="evenodd" fill-opacity="1" /><path clip-path="url(#clip100)" d="M157.177 1165.51 Q153.566 1165.51 151.737 1169.07 Q149.931 1172.62 149.931 1179.74 Q149.931 1186.85 151.737 1190.42 Q153.566 1193.96 157.177 1193.96 Q160.811 1193.96 162.616 1190.42 Q164.445 1186.85 164.445 1179.74 Q164.445 1172.62 162.616 1169.07 Q160.811 1165.51 157.177 1165.51 M157.177 1161.81 Q162.987 1161.81 166.042 1166.41 Q169.121 1170.99 169.121 1179.74 Q169.121 1188.47 166.042 1193.08 Q162.987 1197.66 157.177 1197.66 Q151.366 1197.66 148.288 1193.08 Q145.232 1188.47 145.232 1179.74 Q145.232 1170.99 148.288 1166.41 Q151.366 1161.81 157.177 1161.81 Z" fill="#000000" fill-rule="evenodd" fill-opacity="1" /><path clip-path="url(#clip100)" d="M121.043 968.397 L137.362 968.397 L137.362 972.332 L115.418 972.332 L115.418 968.397 Q118.08 965.642 122.663 961.013 Q127.269 956.36 128.45 955.017 Q130.695 952.494 131.575 950.758 Q132.478 948.999 132.478 947.309 Q132.478 944.554 130.533 942.818 Q128.612 941.082 125.51 941.082 Q123.311 941.082 120.857 941.846 Q118.427 942.61 115.649 944.161 L115.649 939.439 Q118.473 938.304 120.927 937.726 Q123.38 937.147 125.418 937.147 Q130.788 937.147 133.982 939.832 Q137.177 942.517 137.177 947.008 Q137.177 949.138 136.367 951.059 Q135.579 952.957 133.473 955.55 Q132.894 956.221 129.792 959.439 Q126.691 962.633 121.043 968.397 Z" fill="#000000" fill-rule="evenodd" fill-opacity="1" /><path clip-path="url(#clip100)" d="M157.177 940.851 Q153.566 940.851 151.737 944.415 Q149.931 947.957 149.931 955.087 Q149.931 962.193 151.737 965.758 Q153.566 969.3 157.177 969.3 Q160.811 969.3 162.616 965.758 Q164.445 962.193 164.445 955.087 Q164.445 947.957 162.616 944.415 Q160.811 940.851 157.177 940.851 M157.177 937.147 Q162.987 937.147 166.042 941.753 Q169.121 946.337 169.121 955.087 Q169.121 963.814 166.042 968.42 Q162.987 973.003 157.177 973.003 Q151.366 973.003 148.288 968.42 Q145.232 963.814 145.232 955.087 Q145.232 946.337 148.288 941.753 Q151.366 937.147 157.177 937.147 Z" fill="#000000" fill-rule="evenodd" fill-opacity="1" /><path clip-path="url(#clip100)" d="M131.181 729.04 Q134.538 729.757 136.413 732.026 Q138.311 734.294 138.311 737.628 Q138.311 742.743 134.792 745.544 Q131.274 748.345 124.793 748.345 Q122.617 748.345 120.302 747.905 Q118.01 747.489 115.556 746.632 L115.556 742.118 Q117.501 743.253 119.816 743.831 Q122.13 744.41 124.654 744.41 Q129.052 744.41 131.343 742.674 Q133.658 740.938 133.658 737.628 Q133.658 734.572 131.505 732.859 Q129.376 731.123 125.556 731.123 L121.529 731.123 L121.529 727.28 L125.742 727.28 Q129.191 727.28 131.019 725.915 Q132.848 724.526 132.848 721.933 Q132.848 719.271 130.95 717.859 Q129.075 716.424 125.556 716.424 Q123.635 716.424 121.436 716.841 Q119.237 717.257 116.598 718.137 L116.598 713.97 Q119.26 713.23 121.575 712.859 Q123.913 712.489 125.973 712.489 Q131.297 712.489 134.399 714.919 Q137.501 717.327 137.501 721.447 Q137.501 724.317 135.857 726.308 Q134.214 728.276 131.181 729.04 Z" fill="#000000" fill-rule="evenodd" fill-opacity="1" /><path clip-path="url(#clip100)" d="M157.177 716.192 Q153.566 716.192 151.737 719.757 Q149.931 723.299 149.931 730.429 Q149.931 737.535 151.737 741.1 Q153.566 744.641 157.177 744.641 Q160.811 744.641 162.616 741.1 Q164.445 737.535 164.445 730.429 Q164.445 723.299 162.616 719.757 Q160.811 716.192 157.177 716.192 M157.177 712.489 Q162.987 712.489 166.042 717.095 Q169.121 721.679 169.121 730.429 Q169.121 739.155 166.042 743.762 Q162.987 748.345 157.177 748.345 Q151.366 748.345 148.288 743.762 Q145.232 739.155 145.232 730.429 Q145.232 721.679 148.288 717.095 Q151.366 712.489 157.177 712.489 Z" fill="#000000" fill-rule="evenodd" fill-opacity="1" /><path clip-path="url(#clip100)" d="M129.862 492.53 L118.056 510.979 L129.862 510.979 L129.862 492.53 M128.635 488.456 L134.515 488.456 L134.515 510.979 L139.445 510.979 L139.445 514.868 L134.515 514.868 L134.515 523.016 L129.862 523.016 L129.862 514.868 L114.26 514.868 L114.26 510.354 L128.635 488.456 Z" fill="#000000" fill-rule="evenodd" fill-opacity="1" /><path clip-path="url(#clip100)" d="M157.177 491.534 Q153.566 491.534 151.737 495.099 Q149.931 498.641 149.931 505.77 Q149.931 512.877 151.737 516.442 Q153.566 519.983 157.177 519.983 Q160.811 519.983 162.616 516.442 Q164.445 512.877 164.445 505.77 Q164.445 498.641 162.616 495.099 Q160.811 491.534 157.177 491.534 M157.177 487.831 Q162.987 487.831 166.042 492.437 Q169.121 497.02 169.121 505.77 Q169.121 514.497 166.042 519.104 Q162.987 523.687 157.177 523.687 Q151.366 523.687 148.288 519.104 Q145.232 514.497 145.232 505.77 Q145.232 497.02 148.288 492.437 Q151.366 487.831 157.177 487.831 Z" fill="#000000" fill-rule="evenodd" fill-opacity="1" /><path clip-path="url(#clip100)" d="M117.061 263.797 L135.417 263.797 L135.417 267.733 L121.343 267.733 L121.343 276.205 Q122.362 275.858 123.38 275.696 Q124.399 275.51 125.418 275.51 Q131.205 275.51 134.584 278.682 Q137.964 281.853 137.964 287.27 Q137.964 292.848 134.492 295.95 Q131.019 299.029 124.7 299.029 Q122.524 299.029 120.255 298.658 Q118.01 298.288 115.603 297.547 L115.603 292.848 Q117.686 293.982 119.908 294.538 Q122.13 295.094 124.607 295.094 Q128.612 295.094 130.95 292.987 Q133.288 290.881 133.288 287.27 Q133.288 283.658 130.95 281.552 Q128.612 279.446 124.607 279.446 Q122.732 279.446 120.857 279.862 Q119.006 280.279 117.061 281.158 L117.061 263.797 Z" fill="#000000" fill-rule="evenodd" fill-opacity="1" /><path clip-path="url(#clip100)" d="M157.177 266.876 Q153.566 266.876 151.737 270.441 Q149.931 273.983 149.931 281.112 Q149.931 288.219 151.737 291.783 Q153.566 295.325 157.177 295.325 Q160.811 295.325 162.616 291.783 Q164.445 288.219 164.445 281.112 Q164.445 273.983 162.616 270.441 Q160.811 266.876 157.177 266.876 M157.177 263.172 Q162.987 263.172 166.042 267.779 Q169.121 272.362 169.121 281.112 Q169.121 289.839 166.042 294.445 Q162.987 299.029 157.177 299.029 Q151.366 299.029 148.288 294.445 Q145.232 289.839 145.232 281.112 Q145.232 272.362 148.288 267.779 Q151.366 263.172 157.177 263.172 Z" fill="#000000" fill-rule="evenodd" fill-opacity="1" /><path clip-path="url(#clip100)" d="M16.4842 1521.5 L16.4842 1494.19 L21.895 1494.19 L21.895 1515.07 L35.8996 1515.07 L35.8996 1496.23 L41.3104 1496.23 L41.3104 1515.07 L64.0042 1515.07 L64.0042 1521.5 L16.4842 1521.5 Z" fill="#000000" fill-rule="evenodd" fill-opacity="1" /><path clip-path="url(#clip100)" d="M28.3562 1489.01 L28.3562 1483.15 L64.0042 1483.15 L64.0042 1489.01 L28.3562 1489.01 M14.479 1489.01 L14.479 1483.15 L21.895 1483.15 L21.895 1489.01 L14.479 1489.01 Z" fill="#000000" fill-rule="evenodd" fill-opacity="1" /><path clip-path="url(#clip100)" d="M33.8307 1450.24 Q33.2578 1451.23 33.0032 1452.4 Q32.7167 1453.55 32.7167 1454.95 Q32.7167 1459.92 35.9632 1462.59 Q39.1779 1465.23 45.2253 1465.23 L64.0042 1465.23 L64.0042 1471.12 L28.3562 1471.12 L28.3562 1465.23 L33.8944 1465.23 Q30.6479 1463.38 29.0883 1460.42 Q27.4968 1457.46 27.4968 1453.23 Q27.4968 1452.63 27.5923 1451.89 Q27.656 1451.16 27.8151 1450.27 L33.8307 1450.24 Z" fill="#000000" fill-rule="evenodd" fill-opacity="1" /><path clip-path="url(#clip100)" d="M44.7161 1415.04 L47.5806 1415.04 L47.5806 1441.96 Q53.6281 1441.58 56.8109 1438.34 Q59.9619 1435.06 59.9619 1429.23 Q59.9619 1425.86 59.1344 1422.71 Q58.3069 1419.52 56.6518 1416.41 L62.1899 1416.41 Q63.5267 1419.56 64.227 1422.87 Q64.9272 1426.18 64.9272 1429.58 Q64.9272 1438.11 59.9619 1443.11 Q54.9967 1448.07 46.5303 1448.07 Q37.7774 1448.07 32.6531 1443.36 Q27.4968 1438.62 27.4968 1430.6 Q27.4968 1423.41 32.1438 1419.24 Q36.7589 1415.04 44.7161 1415.04 M42.9973 1420.89 Q38.1912 1420.96 35.3266 1423.6 Q32.4621 1426.21 32.4621 1430.54 Q32.4621 1435.44 35.2312 1438.4 Q38.0002 1441.33 43.0292 1441.77 L42.9973 1420.89 Z" fill="#000000" fill-rule="evenodd" fill-opacity="1" /><path clip-path="url(#clip100)" d="M46.0847 1389.22 Q46.0847 1396.32 47.7079 1399.06 Q49.3312 1401.8 53.2461 1401.8 Q56.3653 1401.8 58.2114 1399.76 Q60.0256 1397.69 60.0256 1394.16 Q60.0256 1389.29 56.5881 1386.36 Q53.1188 1383.4 47.3897 1383.4 L46.0847 1383.4 L46.0847 1389.22 M43.6657 1377.54 L64.0042 1377.54 L64.0042 1383.4 L58.5933 1383.4 Q61.8398 1385.4 63.3994 1388.4 Q64.9272 1391.39 64.9272 1395.72 Q64.9272 1401.19 61.8716 1404.44 Q58.7843 1407.65 53.6281 1407.65 Q47.6125 1407.65 44.5569 1403.64 Q41.5014 1399.6 41.5014 1391.61 L41.5014 1383.4 L40.9285 1383.4 Q36.8862 1383.4 34.6901 1386.07 Q32.4621 1388.71 32.4621 1393.52 Q32.4621 1396.58 33.1941 1399.47 Q33.9262 1402.37 35.3903 1405.04 L29.9795 1405.04 Q28.7381 1401.83 28.1334 1398.8 Q27.4968 1395.78 27.4968 1392.92 Q27.4968 1385.18 31.5072 1381.36 Q35.5176 1377.54 43.6657 1377.54 Z" fill="#000000" fill-rule="evenodd" fill-opacity="1" /><path clip-path="url(#clip100)" d="M33.8307 1344.82 Q33.2578 1345.81 33.0032 1346.99 Q32.7167 1348.13 32.7167 1349.53 Q32.7167 1354.5 35.9632 1357.17 Q39.1779 1359.81 45.2253 1359.81 L64.0042 1359.81 L64.0042 1365.7 L28.3562 1365.7 L28.3562 1359.81 L33.8944 1359.81 Q30.6479 1357.97 29.0883 1355.01 Q27.4968 1352.05 27.4968 1347.82 Q27.4968 1347.21 27.5923 1346.48 Q27.656 1345.75 27.8151 1344.86 L33.8307 1344.82 Z" fill="#000000" fill-rule="evenodd" fill-opacity="1" /><path clip-path="url(#clip100)" d="M35.1993 1312.07 Q31.2526 1309.88 29.3747 1306.82 Q27.4968 1303.76 27.4968 1299.63 Q27.4968 1294.06 31.4117 1291.03 Q35.2948 1288.01 42.4881 1288.01 L64.0042 1288.01 L64.0042 1293.9 L42.679 1293.9 Q37.5546 1293.9 35.072 1295.71 Q32.5894 1297.53 32.5894 1301.25 Q32.5894 1305.8 35.6131 1308.44 Q38.6368 1311.08 43.8567 1311.08 L64.0042 1311.08 L64.0042 1316.97 L42.679 1316.97 Q37.5228 1316.97 35.072 1318.79 Q32.5894 1320.6 32.5894 1324.39 Q32.5894 1328.88 35.6449 1331.52 Q38.6686 1334.16 43.8567 1334.16 L64.0042 1334.16 L64.0042 1340.05 L28.3562 1340.05 L28.3562 1334.16 L33.8944 1334.16 Q30.616 1332.16 29.0564 1329.35 Q27.4968 1326.55 27.4968 1322.7 Q27.4968 1318.82 29.4702 1316.11 Q31.4436 1313.38 35.1993 1312.07 Z" fill="#000000" fill-rule="evenodd" fill-opacity="1" /><path clip-path="url(#clip100)" d="M16.4842 1255.35 L16.4842 1248.92 L35.9632 1248.92 L35.9632 1225.56 L16.4842 1225.56 L16.4842 1219.13 L64.0042 1219.13 L64.0042 1225.56 L41.3741 1225.56 L41.3741 1248.92 L64.0042 1248.92 L64.0042 1255.35 L16.4842 1255.35 Z" fill="#000000" fill-rule="evenodd" fill-opacity="1" /><path clip-path="url(#clip100)" d="M32.4621 1192.78 Q32.4621 1197.49 36.1542 1200.23 Q39.8145 1202.96 46.212 1202.96 Q52.6095 1202.96 56.3017 1200.26 Q59.9619 1197.52 59.9619 1192.78 Q59.9619 1188.1 56.2698 1185.36 Q52.5777 1182.63 46.212 1182.63 Q39.8781 1182.63 36.186 1185.36 Q32.4621 1188.1 32.4621 1192.78 M27.4968 1192.78 Q27.4968 1185.14 32.4621 1180.78 Q37.4273 1176.42 46.212 1176.42 Q54.9649 1176.42 59.9619 1180.78 Q64.9272 1185.14 64.9272 1192.78 Q64.9272 1200.45 59.9619 1204.81 Q54.9649 1209.14 46.212 1209.14 Q37.4273 1209.14 32.4621 1204.81 Q27.4968 1200.45 27.4968 1192.78 Z" fill="#000000" fill-rule="evenodd" fill-opacity="1" /><path clip-path="url(#clip100)" d="M35.1993 1138.96 Q31.2526 1136.76 29.3747 1133.7 Q27.4968 1130.65 27.4968 1126.51 Q27.4968 1120.94 31.4117 1117.92 Q35.2948 1114.89 42.4881 1114.89 L64.0042 1114.89 L64.0042 1120.78 L42.679 1120.78 Q37.5546 1120.78 35.072 1122.6 Q32.5894 1124.41 32.5894 1128.13 Q32.5894 1132.69 35.6131 1135.33 Q38.6368 1137.97 43.8567 1137.97 L64.0042 1137.97 L64.0042 1143.86 L42.679 1143.86 Q37.5228 1143.86 35.072 1145.67 Q32.5894 1147.49 32.5894 1151.27 Q32.5894 1155.76 35.6449 1158.4 Q38.6686 1161.05 43.8567 1161.05 L64.0042 1161.05 L64.0042 1166.93 L28.3562 1166.93 L28.3562 1161.05 L33.8944 1161.05 Q30.616 1159.04 29.0564 1156.24 Q27.4968 1153.44 27.4968 1149.59 Q27.4968 1145.7 29.4702 1143 Q31.4436 1140.26 35.1993 1138.96 Z" fill="#000000" fill-rule="evenodd" fill-opacity="1" /><path clip-path="url(#clip100)" d="M28.3562 1103.21 L28.3562 1097.36 L64.0042 1097.36 L64.0042 1103.21 L28.3562 1103.21 M14.479 1103.21 L14.479 1097.36 L21.895 1097.36 L21.895 1103.21 L14.479 1103.21 Z" fill="#000000" fill-rule="evenodd" fill-opacity="1" /><path clip-path="url(#clip100)" d="M29.7248 1059.45 L35.1993 1059.45 Q33.8307 1061.93 33.1623 1064.45 Q32.4621 1066.93 32.4621 1069.47 Q32.4621 1075.17 36.0905 1078.32 Q39.6872 1081.47 46.212 1081.47 Q52.7369 1081.47 56.3653 1078.32 Q59.9619 1075.17 59.9619 1069.47 Q59.9619 1066.93 59.2935 1064.45 Q58.5933 1061.93 57.2247 1059.45 L62.6355 1059.45 Q63.7814 1061.9 64.3543 1064.54 Q64.9272 1067.15 64.9272 1070.11 Q64.9272 1078.16 59.8664 1082.91 Q54.8057 1087.65 46.212 1087.65 Q37.491 1087.65 32.4939 1082.87 Q27.4968 1078.07 27.4968 1069.73 Q27.4968 1067.02 28.0697 1064.45 Q28.6108 1061.87 29.7248 1059.45 Z" fill="#000000" fill-rule="evenodd" fill-opacity="1" /><path clip-path="url(#clip100)" d="M28.3562 1049.26 L28.3562 1043.41 L64.0042 1043.41 L64.0042 1049.26 L28.3562 1049.26 M14.479 1049.26 L14.479 1043.41 L21.895 1043.41 L21.895 1049.26 L14.479 1049.26 Z" fill="#000000" fill-rule="evenodd" fill-opacity="1" /><path clip-path="url(#clip100)" d="M33.7671 1007.7 L14.479 1007.7 L14.479 1001.84 L64.0042 1001.84 L64.0042 1007.7 L58.657 1007.7 Q61.8398 1009.54 63.3994 1012.37 Q64.9272 1015.18 64.9272 1019.12 Q64.9272 1025.58 59.771 1029.66 Q54.6147 1033.7 46.212 1033.7 Q37.8093 1033.7 32.6531 1029.66 Q27.4968 1025.58 27.4968 1019.12 Q27.4968 1015.18 29.0564 1012.37 Q30.5842 1009.54 33.7671 1007.7 M46.212 1027.65 Q52.6732 1027.65 56.3653 1025.01 Q60.0256 1022.34 60.0256 1017.69 Q60.0256 1013.04 56.3653 1010.37 Q52.6732 1007.7 46.212 1007.7 Q39.7508 1007.7 36.0905 1010.37 Q32.3984 1013.04 32.3984 1017.69 Q32.3984 1022.34 36.0905 1025.01 Q39.7508 1027.65 46.212 1027.65 Z" fill="#000000" fill-rule="evenodd" fill-opacity="1" /><path clip-path="url(#clip100)" d="M44.7161 959.284 L47.5806 959.284 L47.5806 986.211 Q53.6281 985.829 56.8109 982.583 Q59.9619 979.304 59.9619 973.48 Q59.9619 970.106 59.1344 966.955 Q58.3069 963.772 56.6518 960.653 L62.1899 960.653 Q63.5267 963.804 64.227 967.114 Q64.9272 970.424 64.9272 973.83 Q64.9272 982.36 59.9619 987.357 Q54.9967 992.322 46.5303 992.322 Q37.7774 992.322 32.6531 987.612 Q27.4968 982.869 27.4968 974.848 Q27.4968 967.655 32.1438 963.486 Q36.7589 959.284 44.7161 959.284 M42.9973 965.141 Q38.1912 965.204 35.3266 967.846 Q32.4621 970.456 32.4621 974.785 Q32.4621 979.686 35.2312 982.646 Q38.0002 985.575 43.0292 986.02 L42.9973 965.141 Z" fill="#000000" fill-rule="evenodd" fill-opacity="1" /><path clip-path="url(#clip100)" d="M41.7242 906.162 Q42.4244 904.094 44.7161 902.152 Q47.0077 900.179 51.0181 898.205 L64.0042 891.68 L64.0042 898.587 L51.8138 904.666 Q47.0395 907.022 45.48 909.25 Q43.9204 911.446 43.9204 915.265 L43.9204 922.268 L64.0042 922.268 L64.0042 928.697 L16.4842 928.697 L16.4842 914.183 Q16.4842 906.035 19.8898 902.025 Q23.2955 898.014 30.1704 898.014 Q34.6582 898.014 37.6183 900.115 Q40.5784 902.184 41.7242 906.162 M21.7677 922.268 L38.6368 922.268 L38.6368 914.183 Q38.6368 909.536 36.5043 907.181 Q34.34 904.794 30.1704 904.794 Q26.0009 904.794 23.9002 907.181 Q21.7677 909.536 21.7677 914.183 L21.7677 922.268 Z" fill="#000000" fill-rule="evenodd" fill-opacity="1" /><path clip-path="url(#clip100)" d="M46.0847 868.891 Q46.0847 875.989 47.7079 878.726 Q49.3312 881.463 53.2461 881.463 Q56.3653 881.463 58.2114 879.426 Q60.0256 877.358 60.0256 873.825 Q60.0256 868.955 56.5881 866.027 Q53.1188 863.067 47.3897 863.067 L46.0847 863.067 L46.0847 868.891 M43.6657 857.21 L64.0042 857.21 L64.0042 863.067 L58.5933 863.067 Q61.8398 865.072 63.3994 868.064 Q64.9272 871.055 64.9272 875.384 Q64.9272 880.859 61.8716 884.105 Q58.7843 887.32 53.6281 887.32 Q47.6125 887.32 44.5569 883.309 Q41.5014 879.267 41.5014 871.278 L41.5014 863.067 L40.9285 863.067 Q36.8862 863.067 34.6901 865.74 Q32.4621 868.382 32.4621 873.188 Q32.4621 876.244 33.1941 879.14 Q33.9262 882.036 35.3903 884.71 L29.9795 884.71 Q28.7381 881.495 28.1334 878.472 Q27.4968 875.448 27.4968 872.583 Q27.4968 864.849 31.5072 861.03 Q35.5176 857.21 43.6657 857.21 Z" fill="#000000" fill-rule="evenodd" fill-opacity="1" /><path clip-path="url(#clip100)" d="M18.2347 839.354 L28.3562 839.354 L28.3562 827.291 L32.9077 827.291 L32.9077 839.354 L52.2594 839.354 Q56.6199 839.354 57.8613 838.177 Q59.1026 836.967 59.1026 833.307 L59.1026 827.291 L64.0042 827.291 L64.0042 833.307 Q64.0042 840.086 61.4897 842.664 Q58.9434 845.243 52.2594 845.243 L32.9077 845.243 L32.9077 849.539 L28.3562 849.539 L28.3562 845.243 L18.2347 845.243 L18.2347 839.354 Z" fill="#000000" fill-rule="evenodd" fill-opacity="1" /><path clip-path="url(#clip100)" d="M44.7161 789.097 L47.5806 789.097 L47.5806 816.024 Q53.6281 815.642 56.8109 812.396 Q59.9619 809.117 59.9619 803.293 Q59.9619 799.919 59.1344 796.768 Q58.3069 793.585 56.6518 790.466 L62.1899 790.466 Q63.5267 793.617 64.227 796.927 Q64.9272 800.237 64.9272 803.643 Q64.9272 812.173 59.9619 817.17 Q54.9967 822.135 46.5303 822.135 Q37.7774 822.135 32.6531 817.424 Q27.4968 812.682 27.4968 804.661 Q27.4968 797.468 32.1438 793.298 Q36.7589 789.097 44.7161 789.097 M42.9973 794.953 Q38.1912 795.017 35.3266 797.659 Q32.4621 800.269 32.4621 804.598 Q32.4621 809.499 35.2312 812.459 Q38.0002 815.387 43.0292 815.833 L42.9973 794.953 Z" fill="#000000" fill-rule="evenodd" fill-opacity="1" /><path clip-path="url(#clip100)" d="M14.5426 744.696 Q21.8632 748.961 29.0246 751.03 Q36.186 753.099 43.5384 753.099 Q50.8908 753.099 58.1159 751.03 Q65.3091 748.929 72.5979 744.696 L72.5979 749.789 Q65.1182 754.563 57.8931 756.95 Q50.668 759.306 43.5384 759.306 Q36.4406 759.306 29.2474 756.95 Q22.0542 754.595 14.5426 749.789 L14.5426 744.696 Z" fill="#000000" fill-rule="evenodd" fill-opacity="1" /><path clip-path="url(#clip100)" d="M33.7671 709.876 L14.479 709.876 L14.479 704.019 L64.0042 704.019 L64.0042 709.876 L58.657 709.876 Q61.8398 711.722 63.3994 714.555 Q64.9272 717.356 64.9272 721.302 Q64.9272 727.763 59.771 731.837 Q54.6147 735.88 46.212 735.88 Q37.8093 735.88 32.6531 731.837 Q27.4968 727.763 27.4968 721.302 Q27.4968 717.356 29.0564 714.555 Q30.5842 711.722 33.7671 709.876 M46.212 729.832 Q52.6732 729.832 56.3653 727.191 Q60.0256 724.517 60.0256 719.87 Q60.0256 715.223 56.3653 712.549 Q52.6732 709.876 46.212 709.876 Q39.7508 709.876 36.0905 712.549 Q32.3984 715.223 32.3984 719.87 Q32.3984 724.517 36.0905 727.191 Q39.7508 729.832 46.212 729.832 Z" fill="#000000" fill-rule="evenodd" fill-opacity="1" /><path clip-path="url(#clip100)" d="M44.7161 661.465 L47.5806 661.465 L47.5806 688.392 Q53.6281 688.01 56.8109 684.763 Q59.9619 681.485 59.9619 675.66 Q59.9619 672.286 59.1344 669.135 Q58.3069 665.952 56.6518 662.833 L62.1899 662.833 Q63.5267 665.984 64.227 669.294 Q64.9272 672.605 64.9272 676.01 Q64.9272 684.54 59.9619 689.537 Q54.9967 694.503 46.5303 694.503 Q37.7774 694.503 32.6531 689.792 Q27.4968 685.05 27.4968 677.029 Q27.4968 669.836 32.1438 665.666 Q36.7589 661.465 44.7161 661.465 M42.9973 667.321 Q38.1912 667.385 35.3266 670.026 Q32.4621 672.636 32.4621 676.965 Q32.4621 681.867 35.2312 684.827 Q38.0002 687.755 43.0292 688.201 L42.9973 667.321 Z" fill="#000000" fill-rule="evenodd" fill-opacity="1" /><path clip-path="url(#clip100)" d="M46.0847 635.652 Q46.0847 642.749 47.7079 645.487 Q49.3312 648.224 53.2461 648.224 Q56.3653 648.224 58.2114 646.187 Q60.0256 644.118 60.0256 640.585 Q60.0256 635.715 56.5881 632.787 Q53.1188 629.827 47.3897 629.827 L46.0847 629.827 L46.0847 635.652 M43.6657 623.971 L64.0042 623.971 L64.0042 629.827 L58.5933 629.827 Q61.8398 631.832 63.3994 634.824 Q64.9272 637.816 64.9272 642.145 Q64.9272 647.619 61.8716 650.866 Q58.7843 654.08 53.6281 654.08 Q47.6125 654.08 44.5569 650.07 Q41.5014 646.028 41.5014 638.039 L41.5014 629.827 L40.9285 629.827 Q36.8862 629.827 34.6901 632.501 Q32.4621 635.142 32.4621 639.949 Q32.4621 643.004 33.1941 645.9 Q33.9262 648.797 35.3903 651.47 L29.9795 651.47 Q28.7381 648.256 28.1334 645.232 Q27.4968 642.208 27.4968 639.344 Q27.4968 631.609 31.5072 627.79 Q35.5176 623.971 43.6657 623.971 Z" fill="#000000" fill-rule="evenodd" fill-opacity="1" /><path clip-path="url(#clip100)" d="M18.2347 606.115 L28.3562 606.115 L28.3562 594.052 L32.9077 594.052 L32.9077 606.115 L52.2594 606.115 Q56.6199 606.115 57.8613 604.937 Q59.1026 603.728 59.1026 600.067 L59.1026 594.052 L64.0042 594.052 L64.0042 600.067 Q64.0042 606.847 61.4897 609.425 Q58.9434 612.003 52.2594 612.003 L32.9077 612.003 L32.9077 616.3 L28.3562 616.3 L28.3562 612.003 L18.2347 612.003 L18.2347 606.115 Z" fill="#000000" fill-rule="evenodd" fill-opacity="1" /><path clip-path="url(#clip100)" d="M42.4881 556.717 L64.0042 556.717 L64.0042 562.573 L42.679 562.573 Q37.6183 562.573 35.1038 564.547 Q32.5894 566.52 32.5894 570.467 Q32.5894 575.209 35.6131 577.947 Q38.6368 580.684 43.8567 580.684 L64.0042 580.684 L64.0042 586.572 L14.479 586.572 L14.479 580.684 L33.8944 580.684 Q30.6797 578.583 29.0883 575.75 Q27.4968 572.886 27.4968 569.162 Q27.4968 563.019 31.3163 559.868 Q35.1038 556.717 42.4881 556.717 Z" fill="#000000" fill-rule="evenodd" fill-opacity="1" /><path clip-path="url(#clip100)" d="M29.4065 522.31 L34.9447 522.31 Q33.6716 524.793 33.035 527.466 Q32.3984 530.14 32.3984 533.005 Q32.3984 537.365 33.7352 539.561 Q35.072 541.726 37.7456 541.726 Q39.7826 541.726 40.9603 540.166 Q42.1061 538.606 43.1565 533.896 L43.6021 531.891 Q44.9389 525.652 47.3897 523.042 Q49.8086 520.401 54.1691 520.401 Q59.1344 520.401 62.0308 524.347 Q64.9272 528.262 64.9272 535.137 Q64.9272 538.002 64.3543 541.121 Q63.8132 544.208 62.6992 547.646 L56.6518 547.646 Q58.3387 544.399 59.198 541.248 Q60.0256 538.097 60.0256 535.01 Q60.0256 530.872 58.6251 528.644 Q57.1929 526.416 54.6147 526.416 Q52.2276 526.416 50.9545 528.039 Q49.6813 529.631 48.5037 535.073 L48.0262 537.111 Q46.8804 542.553 44.5251 544.972 Q42.138 547.391 38.0002 547.391 Q32.9713 547.391 30.2341 543.826 Q27.4968 540.262 27.4968 533.705 Q27.4968 530.458 27.9743 527.594 Q28.4517 524.729 29.4065 522.31 Z" fill="#000000" fill-rule="evenodd" fill-opacity="1" /><path clip-path="url(#clip100)" d="M16.4842 500.667 L16.4842 495.256 L70.0516 511.807 L70.0516 517.218 L16.4842 500.667 Z" fill="#000000" fill-rule="evenodd" fill-opacity="1" /><path clip-path="url(#clip100)" d="M58.5933 487.172 L58.5933 476.668 L22.3406 476.668 L24.6323 488.095 L18.7758 488.095 L16.4842 476.732 L16.4842 470.302 L58.5933 470.302 L58.5933 459.799 L64.0042 459.799 L64.0042 487.172 L58.5933 487.172 Z" fill="#000000" fill-rule="evenodd" fill-opacity="1" /><path clip-path="url(#clip100)" d="M20.7174 433.063 Q20.7174 438.028 25.6189 440.543 Q30.4887 443.025 40.2919 443.025 Q50.0633 443.025 54.9649 440.543 Q59.8346 438.028 59.8346 433.063 Q59.8346 428.066 54.9649 425.583 Q50.0633 423.069 40.2919 423.069 Q30.4887 423.069 25.6189 425.583 Q20.7174 428.066 20.7174 433.063 M15.6248 433.063 Q15.6248 425.074 21.9587 420.873 Q28.2607 416.64 40.2919 416.64 Q52.2913 416.64 58.6251 420.873 Q64.9272 425.074 64.9272 433.063 Q64.9272 441.052 58.6251 445.285 Q52.2913 449.487 40.2919 449.487 Q28.2607 449.487 21.9587 445.285 Q15.6248 441.052 15.6248 433.063 Z" fill="#000000" fill-rule="evenodd" fill-opacity="1" /><path clip-path="url(#clip100)" d="M20.7174 391.59 Q20.7174 396.556 25.6189 399.07 Q30.4887 401.553 40.2919 401.553 Q50.0633 401.553 54.9649 399.07 Q59.8346 396.556 59.8346 391.59 Q59.8346 386.593 54.9649 384.111 Q50.0633 381.596 40.2919 381.596 Q30.4887 381.596 25.6189 384.111 Q20.7174 386.593 20.7174 391.59 M15.6248 391.59 Q15.6248 383.602 21.9587 379.4 Q28.2607 375.167 40.2919 375.167 Q52.2913 375.167 58.6251 379.4 Q64.9272 383.602 64.9272 391.59 Q64.9272 399.579 58.6251 403.813 Q52.2913 408.014 40.2919 408.014 Q28.2607 408.014 21.9587 403.813 Q15.6248 399.579 15.6248 391.59 Z" fill="#000000" fill-rule="evenodd" fill-opacity="1" /><path clip-path="url(#clip100)" d="M14.479 364.918 L14.479 359.03 L43.7294 359.03 L28.3562 341.556 L28.3562 334.076 L45.0344 352.982 L64.0042 333.281 L64.0042 340.919 L46.5939 359.03 L64.0042 359.03 L64.0042 364.918 L14.479 364.918 Z" fill="#000000" fill-rule="evenodd" fill-opacity="1" /><path clip-path="url(#clip100)" d="M29.7248 301.293 L35.1993 301.293 Q33.8307 303.776 33.1623 306.29 Q32.4621 308.773 32.4621 311.319 Q32.4621 317.016 36.0905 320.167 Q39.6872 323.318 46.212 323.318 Q52.7369 323.318 56.3653 320.167 Q59.9619 317.016 59.9619 311.319 Q59.9619 308.773 59.2935 306.29 Q58.5933 303.776 57.2247 301.293 L62.6355 301.293 Q63.7814 303.744 64.3543 306.385 Q64.9272 308.995 64.9272 311.955 Q64.9272 320.008 59.8664 324.751 Q54.8057 329.493 46.212 329.493 Q37.491 329.493 32.4939 324.719 Q27.4968 319.913 27.4968 311.574 Q27.4968 308.868 28.0697 306.29 Q28.6108 303.712 29.7248 301.293 Z" fill="#000000" fill-rule="evenodd" fill-opacity="1" /><path clip-path="url(#clip100)" d="M46.0847 274.907 Q46.0847 282.005 47.7079 284.742 Q49.3312 287.479 53.2461 287.479 Q56.3653 287.479 58.2114 285.442 Q60.0256 283.373 60.0256 279.84 Q60.0256 274.971 56.5881 272.043 Q53.1188 269.082 47.3897 269.082 L46.0847 269.082 L46.0847 274.907 M43.6657 263.226 L64.0042 263.226 L64.0042 269.082 L58.5933 269.082 Q61.8398 271.088 63.3994 274.08 Q64.9272 277.071 64.9272 281.4 Q64.9272 286.875 61.8716 290.121 Q58.7843 293.336 53.6281 293.336 Q47.6125 293.336 44.5569 289.325 Q41.5014 285.283 41.5014 277.294 L41.5014 269.082 L40.9285 269.082 Q36.8862 269.082 34.6901 271.756 Q32.4621 274.398 32.4621 279.204 Q32.4621 282.259 33.1941 285.156 Q33.9262 288.052 35.3903 290.726 L29.9795 290.726 Q28.7381 287.511 28.1334 284.487 Q27.4968 281.464 27.4968 278.599 Q27.4968 270.865 31.5072 267.045 Q35.5176 263.226 43.6657 263.226 Z" fill="#000000" fill-rule="evenodd" fill-opacity="1" /><path clip-path="url(#clip100)" d="M58.657 245.498 L77.5631 245.498 L77.5631 251.386 L28.3562 251.386 L28.3562 245.498 L33.7671 245.498 Q30.5842 243.651 29.0564 240.851 Q27.4968 238.018 27.4968 234.103 Q27.4968 227.61 32.6531 223.568 Q37.8093 219.494 46.212 219.494 Q54.6147 219.494 59.771 223.568 Q64.9272 227.61 64.9272 234.103 Q64.9272 238.018 63.3994 240.851 Q61.8398 243.651 58.657 245.498 M46.212 225.573 Q39.7508 225.573 36.0905 228.246 Q32.3984 230.888 32.3984 235.535 Q32.3984 240.182 36.0905 242.856 Q39.7508 245.498 46.212 245.498 Q52.6732 245.498 56.3653 242.856 Q60.0256 240.182 60.0256 235.535 Q60.0256 230.888 56.3653 228.246 Q52.6732 225.573 46.212 225.573 Z" fill="#000000" fill-rule="evenodd" fill-opacity="1" /><path clip-path="url(#clip100)" d="M28.3562 209.786 L28.3562 203.929 L64.0042 203.929 L64.0042 209.786 L28.3562 209.786 M14.479 209.786 L14.479 203.929 L21.895 203.929 L21.895 209.786 L14.479 209.786 Z" fill="#000000" fill-rule="evenodd" fill-opacity="1" /><path clip-path="url(#clip100)" d="M18.2347 185.883 L28.3562 185.883 L28.3562 173.82 L32.9077 173.82 L32.9077 185.883 L52.2594 185.883 Q56.6199 185.883 57.8613 184.705 Q59.1026 183.496 59.1026 179.835 L59.1026 173.82 L64.0042 173.82 L64.0042 179.835 Q64.0042 186.615 61.4897 189.193 Q58.9434 191.771 52.2594 191.771 L32.9077 191.771 L32.9077 196.068 L28.3562 196.068 L28.3562 191.771 L18.2347 191.771 L18.2347 185.883 Z" fill="#000000" fill-rule="evenodd" fill-opacity="1" /><path clip-path="url(#clip100)" d="M46.0847 149.916 Q46.0847 157.014 47.7079 159.751 Q49.3312 162.489 53.2461 162.489 Q56.3653 162.489 58.2114 160.452 Q60.0256 158.383 60.0256 154.85 Q60.0256 149.98 56.5881 147.052 Q53.1188 144.092 47.3897 144.092 L46.0847 144.092 L46.0847 149.916 M43.6657 138.235 L64.0042 138.235 L64.0042 144.092 L58.5933 144.092 Q61.8398 146.097 63.3994 149.089 Q64.9272 152.081 64.9272 156.409 Q64.9272 161.884 61.8716 165.13 Q58.7843 168.345 53.6281 168.345 Q47.6125 168.345 44.5569 164.335 Q41.5014 160.293 41.5014 152.304 L41.5014 144.092 L40.9285 144.092 Q36.8862 144.092 34.6901 146.765 Q32.4621 149.407 32.4621 154.213 Q32.4621 157.269 33.1941 160.165 Q33.9262 163.062 35.3903 165.735 L29.9795 165.735 Q28.7381 162.521 28.1334 159.497 Q27.4968 156.473 27.4968 153.609 Q27.4968 145.874 31.5072 142.055 Q35.5176 138.235 43.6657 138.235 Z" fill="#000000" fill-rule="evenodd" fill-opacity="1" /><path clip-path="url(#clip100)" d="M16.4842 115.764 L16.4842 110.354 L70.0516 126.904 L70.0516 132.315 L16.4842 115.764 Z" fill="#000000" fill-rule="evenodd" fill-opacity="1" /><path clip-path="url(#clip100)" d="M67.3143 89.3785 Q73.68 91.8612 75.6216 94.2165 Q77.5631 96.5718 77.5631 100.519 L77.5631 105.197 L72.6615 105.197 L72.6615 101.76 Q72.6615 99.3409 71.5157 98.0041 Q70.3699 96.6673 66.1048 95.044 L63.4312 93.9937 L28.3562 108.412 L28.3562 102.205 L56.238 91.0655 L28.3562 79.9255 L28.3562 73.7189 L67.3143 89.3785 Z" fill="#000000" fill-rule="evenodd" fill-opacity="1" /><path clip-path="url(#clip100)" d="M33.8307 44.9777 Q33.2578 45.9644 33.0032 47.1421 Q32.7167 48.2879 32.7167 49.6884 Q32.7167 54.6536 35.9632 57.3272 Q39.1779 59.969 45.2253 59.969 L64.0042 59.969 L64.0042 65.8573 L28.3562 65.8573 L28.3562 59.969 L33.8944 59.969 Q30.6479 58.1229 29.0883 55.1629 Q27.4968 52.2028 27.4968 47.9696 Q27.4968 47.3649 27.5923 46.6328 Q27.656 45.9008 27.8151 45.0096 L33.8307 44.9777 Z" fill="#000000" fill-rule="evenodd" fill-opacity="1" /><path clip-path="url(#clip100)" d="M14.5426 39.7579 L14.5426 34.6653 Q22.0542 29.891 29.2474 27.5357 Q36.4406 25.1486 43.5384 25.1486 Q50.668 25.1486 57.8931 27.5357 Q65.1182 29.891 72.5979 34.6653 L72.5979 39.7579 Q65.3091 35.5247 58.1159 33.4558 Q50.8908 31.3551 43.5384 31.3551 Q36.186 31.3551 29.0246 33.4558 Q21.8632 35.5247 14.5426 39.7579 Z" fill="#000000" fill-rule="evenodd" fill-opacity="1" /><path clip-path="url(#clip100)" d="M861.554 63.9476 L861.554 47.7034 L848.186 47.7034 L848.186 40.9789 L869.655 40.9789 L869.655 66.9452 Q864.916 70.3075 859.204 72.0494 Q853.492 73.7508 847.011 73.7508 Q832.833 73.7508 824.812 65.4869 Q816.832 57.1826 816.832 42.3968 Q816.832 27.5705 824.812 19.3066 Q832.833 11.0023 847.011 11.0023 Q852.925 11.0023 858.232 12.4606 Q863.579 13.9189 868.075 16.7545 L868.075 25.464 Q863.538 21.6156 858.434 19.6712 Q853.33 17.7268 847.699 17.7268 Q836.6 17.7268 831.01 23.9246 Q825.46 30.1225 825.46 42.3968 Q825.46 54.6305 831.01 60.8284 Q836.6 67.0263 847.699 67.0263 Q852.034 67.0263 855.437 66.2971 Q858.839 65.5274 861.554 63.9476 Z" fill="#000000" fill-rule="evenodd" fill-opacity="1" /><path clip-path="url(#clip100)" d="M883.509 54.671 L883.509 27.2059 L890.963 27.2059 L890.963 54.3874 Q890.963 60.8284 893.475 64.0691 Q895.986 67.2693 901.009 67.2693 Q907.045 67.2693 910.529 63.421 Q914.053 59.5726 914.053 52.9291 L914.053 27.2059 L921.507 27.2059 L921.507 72.576 L914.053 72.576 L914.053 65.6084 Q911.339 69.7404 907.734 71.7658 Q904.169 73.7508 899.429 73.7508 Q891.611 73.7508 887.56 68.8897 Q883.509 64.0286 883.509 54.671 M902.265 26.1121 L902.265 26.1121 Z" fill="#000000" fill-rule="evenodd" fill-opacity="1" /><path clip-path="url(#clip100)" d="M974.574 45.1919 L974.574 72.576 L967.12 72.576 L967.12 45.4349 Q967.12 38.994 964.609 35.7938 Q962.097 32.5936 957.074 32.5936 Q951.038 32.5936 947.554 36.4419 Q944.07 40.2903 944.07 46.9338 L944.07 72.576 L936.576 72.576 L936.576 27.2059 L944.07 27.2059 L944.07 34.2544 Q946.744 30.163 950.349 28.1376 Q953.995 26.1121 958.735 26.1121 Q966.553 26.1121 970.563 30.9732 Q974.574 35.7938 974.574 45.1919 Z" fill="#000000" fill-rule="evenodd" fill-opacity="1" /><path clip-path="url(#clip100)" d="M1016.14 12.096 L1024.32 12.096 L1024.32 36.8875 L1054.05 36.8875 L1054.05 12.096 L1062.24 12.096 L1062.24 72.576 L1054.05 72.576 L1054.05 43.7741 L1024.32 43.7741 L1024.32 72.576 L1016.14 72.576 L1016.14 12.096 Z" fill="#000000" fill-rule="evenodd" fill-opacity="1" /><path clip-path="url(#clip100)" d="M1095.78 32.4315 Q1089.78 32.4315 1086.3 37.1306 Q1082.81 41.7891 1082.81 49.9314 Q1082.81 58.0738 1086.26 62.7728 Q1089.74 67.4314 1095.78 67.4314 Q1101.73 67.4314 1105.22 62.7323 Q1108.7 58.0333 1108.7 49.9314 Q1108.7 41.8701 1105.22 37.1711 Q1101.73 32.4315 1095.78 32.4315 M1095.78 26.1121 Q1105.5 26.1121 1111.05 32.4315 Q1116.6 38.7509 1116.6 49.9314 Q1116.6 61.0714 1111.05 67.4314 Q1105.5 73.7508 1095.78 73.7508 Q1086.01 73.7508 1080.46 67.4314 Q1074.96 61.0714 1074.96 49.9314 Q1074.96 38.7509 1080.46 32.4315 Q1086.01 26.1121 1095.78 26.1121 Z" fill="#000000" fill-rule="evenodd" fill-opacity="1" /><path clip-path="url(#clip100)" d="M1164.28 35.9153 Q1167.07 30.8922 1170.96 28.5022 Q1174.85 26.1121 1180.12 26.1121 Q1187.21 26.1121 1191.05 31.0947 Q1194.9 36.0368 1194.9 45.1919 L1194.9 72.576 L1187.41 72.576 L1187.41 45.4349 Q1187.41 38.913 1185.1 35.7533 Q1182.79 32.5936 1178.05 32.5936 Q1172.26 32.5936 1168.9 36.4419 Q1165.53 40.2903 1165.53 46.9338 L1165.53 72.576 L1158.04 72.576 L1158.04 45.4349 Q1158.04 38.8725 1155.73 35.7533 Q1153.42 32.5936 1148.6 32.5936 Q1142.89 32.5936 1139.53 36.4824 Q1136.16 40.3308 1136.16 46.9338 L1136.16 72.576 L1128.67 72.576 L1128.67 27.2059 L1136.16 27.2059 L1136.16 34.2544 Q1138.72 30.082 1142.28 28.0971 Q1145.85 26.1121 1150.75 26.1121 Q1155.69 26.1121 1159.13 28.6237 Q1162.62 31.1352 1164.28 35.9153 Z" fill="#000000" fill-rule="evenodd" fill-opacity="1" /><path clip-path="url(#clip100)" d="M1209.77 27.2059 L1217.22 27.2059 L1217.22 72.576 L1209.77 72.576 L1209.77 27.2059 M1209.77 9.54393 L1217.22 9.54393 L1217.22 18.9825 L1209.77 18.9825 L1209.77 9.54393 Z" fill="#000000" fill-rule="evenodd" fill-opacity="1" /><path clip-path="url(#clip100)" d="M1265.47 28.9478 L1265.47 35.9153 Q1262.31 34.1734 1259.11 33.3227 Q1255.95 32.4315 1252.71 32.4315 Q1245.46 32.4315 1241.45 37.0496 Q1237.44 41.6271 1237.44 49.9314 Q1237.44 58.2358 1241.45 62.8538 Q1245.46 67.4314 1252.71 67.4314 Q1255.95 67.4314 1259.11 66.5807 Q1262.31 65.6895 1265.47 63.9476 L1265.47 70.8341 Q1262.35 72.2924 1258.99 73.0216 Q1255.67 73.7508 1251.9 73.7508 Q1241.65 73.7508 1235.61 67.3098 Q1229.58 60.8689 1229.58 49.9314 Q1229.58 38.832 1235.65 32.472 Q1241.77 26.1121 1252.38 26.1121 Q1255.83 26.1121 1259.11 26.8413 Q1262.39 27.5299 1265.47 28.9478 Z" fill="#000000" fill-rule="evenodd" fill-opacity="1" /><path clip-path="url(#clip100)" d="M1278.43 27.2059 L1285.89 27.2059 L1285.89 72.576 L1278.43 72.576 L1278.43 27.2059 M1278.43 9.54393 L1285.89 9.54393 L1285.89 18.9825 L1278.43 18.9825 L1278.43 9.54393 Z" fill="#000000" fill-rule="evenodd" fill-opacity="1" /><path clip-path="url(#clip100)" d="M1331.34 34.0924 L1331.34 9.54393 L1338.79 9.54393 L1338.79 72.576 L1331.34 72.576 L1331.34 65.7705 Q1328.99 69.8214 1325.38 71.8063 Q1321.82 73.7508 1316.79 73.7508 Q1308.57 73.7508 1303.39 67.1883 Q1298.24 60.6258 1298.24 49.9314 Q1298.24 39.2371 1303.39 32.6746 Q1308.57 26.1121 1316.79 26.1121 Q1321.82 26.1121 1325.38 28.0971 Q1328.99 30.0415 1331.34 34.0924 M1305.94 49.9314 Q1305.94 58.1548 1309.3 62.8538 Q1312.7 67.5124 1318.62 67.5124 Q1324.53 67.5124 1327.93 62.8538 Q1331.34 58.1548 1331.34 49.9314 Q1331.34 41.7081 1327.93 37.0496 Q1324.53 32.3505 1318.62 32.3505 Q1312.7 32.3505 1309.3 37.0496 Q1305.94 41.7081 1305.94 49.9314 Z" fill="#000000" fill-rule="evenodd" fill-opacity="1" /><path clip-path="url(#clip100)" d="M1392.95 48.0275 L1392.95 51.6733 L1358.68 51.6733 Q1359.17 59.3701 1363.3 63.421 Q1367.47 67.4314 1374.88 67.4314 Q1379.18 67.4314 1383.19 66.3781 Q1387.24 65.3249 1391.21 63.2184 L1391.21 70.267 Q1387.2 71.9684 1382.99 72.8596 Q1378.77 73.7508 1374.44 73.7508 Q1363.58 73.7508 1357.22 67.4314 Q1350.9 61.1119 1350.9 50.3365 Q1350.9 39.1965 1356.9 32.6746 Q1362.93 26.1121 1373.14 26.1121 Q1382.3 26.1121 1387.6 32.0264 Q1392.95 37.9003 1392.95 48.0275 M1385.5 45.84 Q1385.42 39.7232 1382.05 36.0774 Q1378.73 32.4315 1373.22 32.4315 Q1366.98 32.4315 1363.22 35.9558 Q1359.49 39.4801 1358.92 45.8805 L1385.5 45.84 Z" fill="#000000" fill-rule="evenodd" fill-opacity="1" /><path clip-path="url(#clip100)" d="M1426.21 27.2059 L1434.11 27.2059 L1448.29 65.2844 L1462.46 27.2059 L1470.36 27.2059 L1453.35 72.576 L1443.22 72.576 L1426.21 27.2059 Z" fill="#000000" fill-rule="evenodd" fill-opacity="1" /><path clip-path="url(#clip100)" d="M1509.58 28.5427 L1509.58 35.5912 Q1506.42 33.9709 1503.01 33.1607 Q1499.61 32.3505 1495.97 32.3505 Q1490.42 32.3505 1487.62 34.0519 Q1484.87 35.7533 1484.87 39.156 Q1484.87 41.7486 1486.85 43.2475 Q1488.84 44.7058 1494.83 46.0426 L1497.38 46.6097 Q1505.32 48.3111 1508.64 51.4303 Q1512.01 54.509 1512.01 60.0587 Q1512.01 66.3781 1506.98 70.0644 Q1502 73.7508 1493.25 73.7508 Q1489.61 73.7508 1485.64 73.0216 Q1481.71 72.3329 1477.33 70.9151 L1477.33 63.2184 Q1481.46 65.3654 1485.47 66.4591 Q1489.48 67.5124 1493.41 67.5124 Q1498.68 67.5124 1501.52 65.73 Q1504.35 63.9071 1504.35 60.6258 Q1504.35 57.5877 1502.29 55.9673 Q1500.26 54.3469 1493.33 52.8481 L1490.74 52.2405 Q1483.81 50.7821 1480.73 47.7845 Q1477.66 44.7463 1477.66 39.4801 Q1477.66 33.0797 1482.19 29.5959 Q1486.73 26.1121 1495.07 26.1121 Q1499.21 26.1121 1502.85 26.7198 Q1506.5 27.3274 1509.58 28.5427 Z" fill="#000000" fill-rule="evenodd" fill-opacity="1" /><path clip-path="url(#clip100)" d="M1542.19 12.096 L1593.35 12.096 L1593.35 18.9825 L1571.88 18.9825 L1571.88 72.576 L1563.66 72.576 L1563.66 18.9825 L1542.19 18.9825 L1542.19 12.096 Z" fill="#000000" fill-rule="evenodd" fill-opacity="1" /><path clip-path="url(#clip100)" d="M1598.37 27.2059 L1605.83 27.2059 L1605.83 72.576 L1598.37 72.576 L1598.37 27.2059 M1598.37 9.54393 L1605.83 9.54393 L1605.83 18.9825 L1598.37 18.9825 L1598.37 9.54393 Z" fill="#000000" fill-rule="evenodd" fill-opacity="1" /><path clip-path="url(#clip100)" d="M1656.75 35.9153 Q1659.54 30.8922 1663.43 28.5022 Q1667.32 26.1121 1672.59 26.1121 Q1679.67 26.1121 1683.52 31.0947 Q1687.37 36.0368 1687.37 45.1919 L1687.37 72.576 L1679.88 72.576 L1679.88 45.4349 Q1679.88 38.913 1677.57 35.7533 Q1675.26 32.5936 1670.52 32.5936 Q1664.73 32.5936 1661.36 36.4419 Q1658 40.2903 1658 46.9338 L1658 72.576 L1650.51 72.576 L1650.51 45.4349 Q1650.51 38.8725 1648.2 35.7533 Q1645.89 32.5936 1641.07 32.5936 Q1635.36 32.5936 1631.99 36.4824 Q1628.63 40.3308 1628.63 46.9338 L1628.63 72.576 L1621.14 72.576 L1621.14 27.2059 L1628.63 27.2059 L1628.63 34.2544 Q1631.18 30.082 1634.75 28.0971 Q1638.31 26.1121 1643.22 26.1121 Q1648.16 26.1121 1651.6 28.6237 Q1655.09 31.1352 1656.75 35.9153 Z" fill="#000000" fill-rule="evenodd" fill-opacity="1" /><path clip-path="url(#clip100)" d="M1741.05 48.0275 L1741.05 51.6733 L1706.77 51.6733 Q1707.26 59.3701 1711.39 63.421 Q1715.57 67.4314 1722.98 67.4314 Q1727.27 67.4314 1731.28 66.3781 Q1735.33 65.3249 1739.3 63.2184 L1739.3 70.267 Q1735.29 71.9684 1731.08 72.8596 Q1726.87 73.7508 1722.53 73.7508 Q1711.68 73.7508 1705.32 67.4314 Q1699 61.1119 1699 50.3365 Q1699 39.1965 1704.99 32.6746 Q1711.03 26.1121 1721.24 26.1121 Q1730.39 26.1121 1735.7 32.0264 Q1741.05 37.9003 1741.05 48.0275 M1733.59 45.84 Q1733.51 39.7232 1730.15 36.0774 Q1726.83 32.4315 1721.32 32.4315 Q1715.08 32.4315 1711.31 35.9558 Q1707.58 39.4801 1707.02 45.8805 L1733.59 45.84 Z" fill="#000000" fill-rule="evenodd" fill-opacity="1" /><polyline clip-path="url(#clip102)" style="stroke:#009af9; stroke-linecap:butt; stroke-linejoin:round; stroke-width:4; stroke-opacity:0.5; fill:none" points="
  265.903,1186.29 315.319,1140.98 364.736,1184.29 414.152,1198.36 463.569,1251.31 512.985,1239.54 562.401,1235.34 611.818,1224.33 661.234,1233.25 710.65,1214.69 
  760.067,1213.95 809.483,1192.7 858.899,1172.68 908.316,1195.14 957.732,1184.83 1007.15,1176.68 1056.56,1195.32 1105.98,1206.35 1155.4,1213.66 1204.81,1238.23 
  1254.23,1256.09 1303.65,1256.09 1353.06,1251.6 1402.48,1258.34 1451.9,1242.61 1501.31,1274.07 1550.73,1247.11 1600.14,1242.61 1649.56,1222.4 1698.98,1238.12 
  1748.39,1253.85 1797.81,1271.82 1847.23,1267.33 1896.64,1262.83 1946.06,1256.09 1995.48,1269.57 2044.89,1224.64 2094.31,1195.44 2143.72,1170.72 2193.14,1188.7 
  2242.56,1181.96 2291.97,1146.01 
  "/>
<polyline clip-path="url(#clip102)" style="stroke:#e26f46; stroke-linecap:butt; stroke-linejoin:round; stroke-width:4; stroke-opacity:0.5; fill:none" points="
  265.903,1204.53 364.736,1190.49 414.152,1220.33 463.569,1248.52 512.985,1251.69 562.401,1278.02 611.818,1276.38 661.234,1287.61 760.067,1309.99 908.316,1324.32 
  1007.15,1326.25 1056.56,1285.55 1105.98,1297.43 1155.4,1290.85 1204.81,1303 1254.23,1307.77 1353.06,1316.75 1402.48,1314.51 1451.9,1294.29 1501.31,1336.97 
  1550.73,1323.49 1600.14,1312.26 1649.56,1321.24 1797.81,1310.01 1995.48,1339.22 2044.89,1276.31 2094.31,1267.33 2143.72,1265.08 2193.14,1292.04 2242.56,1247.11 
  2291.97,1321.24 
  "/>
<polyline clip-path="url(#clip102)" style="stroke:#3da44d; stroke-linecap:butt; stroke-linejoin:round; stroke-width:4; stroke-opacity:0.5; fill:none" points="
  265.903,1287.1 315.319,1271.66 364.736,1277.55 414.152,1295.77 463.569,1307.7 512.985,1310.03 562.401,1307.9 611.818,1291.88 661.234,1302.62 710.65,1279.48 
  760.067,1302.87 809.483,1291.72 858.899,1276.9 908.316,1269.03 957.732,1272.34 1007.15,1233 1056.56,1210.8 1105.98,1258.5 1155.4,1269.28 1204.81,1270.11 
  1254.23,1269.57 1303.65,1285.3 1353.06,1262.83 1402.48,1256.09 1451.9,1271.82 1501.31,1267.33 1550.73,1258.34 1600.14,1260.59 1649.56,1276.31 1698.98,1285.3 
  1748.39,1323.49 1797.81,1310.01 1847.23,1314.51 1896.64,1316.75 1946.06,1319 1995.48,1334.72 2044.89,1325.74 2094.31,1305.52 2143.72,1307.77 2193.14,1312.26 
  2242.56,1316.75 2291.97,1289.79 
  "/>
<polyline clip-path="url(#clip102)" style="stroke:#c271d2; stroke-linecap:butt; stroke-linejoin:round; stroke-width:4; stroke-opacity:0.5; fill:none" points="
  265.903,1232.24 315.319,1217.86 364.736,1229.05 414.152,1242.82 463.569,1248.48 512.985,1276.56 562.401,1273.12 611.818,1256.05 661.234,1277.82 710.65,1244.32 
  760.067,1241.76 809.483,1230.57 858.899,1214.02 908.316,1201.68 957.732,1219.68 1007.15,1219.77 1056.56,1216.55 1105.98,1261.19 1155.4,1235.16 1204.81,1271.84 
  1254.23,1305.52 1303.65,1287.55 1353.06,1312.26 1402.48,1283.05 1451.9,1303.27 1501.31,1289.79 1550.73,1280.81 1600.14,1280.81 1649.56,1283.05 1698.98,1292.04 
  1748.39,1283.05 1797.81,1303.27 1847.23,1294.29 1896.64,1278.56 1946.06,1289.79 1995.48,1283.05 2044.89,1287.55 2094.31,1267.33 2143.72,1260.59 2193.14,1260.59 
  2242.56,1249.35 2291.97,1195.44 
  "/>
<polyline clip-path="url(#clip102)" style="stroke:#ac8d18; stroke-linecap:butt; stroke-linejoin:round; stroke-width:4; stroke-opacity:0.5; fill:none" points="
  265.903,1230.55 315.319,1204.22 364.736,1227.27 414.152,1253.6 463.569,1271.51 512.985,1263.93 562.401,1271.89 611.818,1256.9 661.234,1261.67 710.65,1257.15 
  760.067,1240.26 809.483,1213.14 858.899,1190.79 908.316,1183.35 957.732,1175.87 1007.15,1194.87 1056.56,1214.76 1105.98,1253.51 1155.4,1267.91 1204.81,1297.34 
  1254.23,1312.26 1303.65,1305.52 1353.06,1301.03 1402.48,1287.55 1451.9,1289.79 1501.31,1289.79 1550.73,1287.55 1600.14,1287.55 1649.56,1298.78 1698.98,1307.77 
  1748.39,1314.51 1797.81,1323.49 1847.23,1325.74 1896.64,1323.49 1946.06,1327.98 1995.48,1332.48 2044.89,1323.49 2094.31,1321.24 2143.72,1323.49 2193.14,1332.48 
  2242.56,1332.48 2291.97,1305.52 
  "/>
<polyline clip-path="url(#clip102)" style="stroke:#00a9ad; stroke-linecap:butt; stroke-linejoin:round; stroke-width:4; stroke-opacity:0.5; fill:none" points="
  265.903,1339.04 315.319,1326.03 364.736,1304.98 414.152,1326.75 463.569,1324.88 512.985,1335.67 562.401,1330.21 611.818,1305.88 661.234,1334.79 710.65,1343.1 
  760.067,1350.9 809.483,1351.19 858.899,1337.4 908.316,1325.36 957.732,1316.73 1007.15,1324.17 1056.56,1334.52 1105.98,1341.35 1155.4,1352.94 1204.81,1343.26 
  1254.23,1339.22 1303.65,1359.44 1353.06,1354.94 1402.48,1345.96 1451.9,1345.96 1501.31,1339.22 1550.73,1348.2 1600.14,1354.94 1649.56,1361.68 1698.98,1354.94 
  1748.39,1354.94 1797.81,1361.68 1847.23,1359.44 1896.64,1354.94 1946.06,1359.44 1995.48,1361.68 2044.89,1348.2 2094.31,1339.22 2143.72,1339.22 2193.14,1330.23 
  2242.56,1341.46 2291.97,1314.51 
  "/>
<polyline clip-path="url(#clip102)" style="stroke:#ed5d92; stroke-linecap:butt; stroke-linejoin:round; stroke-width:4; stroke-opacity:0.5; fill:none" points="
  265.903,1347.15 315.319,1332.12 364.736,1340.5 414.152,1342.86 463.569,1351.82 512.985,1350.72 562.401,1358.09 611.818,1350.07 661.234,1340.09 710.65,1324.82 
  760.067,1312.78 809.483,1325.78 858.899,1320.05 908.316,1319.99 957.732,1303.23 1007.15,1306.15 1056.56,1334.1 1105.98,1324.28 1155.4,1350.72 1204.81,1344.32 
  1254.23,1348.2 1303.65,1363.93 1353.06,1357.19 1402.48,1368.42 1451.9,1368.42 1501.31,1363.93 1550.73,1361.68 1600.14,1345.96 1649.56,1361.68 1698.98,1348.2 
  1748.39,1354.94 1797.81,1343.71 1847.23,1343.71 1896.64,1332.48 1946.06,1363.93 1995.48,1368.42 2044.89,1354.94 2094.31,1370.67 2143.72,1359.44 2193.14,1370.67 
  2242.56,1363.93 2291.97,1341.46 
  "/>
<polyline clip-path="url(#clip102)" style="stroke:#c68125; stroke-linecap:butt; stroke-linejoin:round; stroke-width:4; stroke-opacity:0.5; fill:none" points="
  265.903,1080.03 315.319,1078.32 364.736,971.834 414.152,977.024 463.569,1074.93 512.985,1086.1 562.401,1083.15 611.818,1067.54 661.234,989.604 710.65,630.758 
  760.067,456.491 809.483,250.883 858.899,202.312 908.316,232.461 957.732,160.256 1007.15,389.834 1056.56,443.618 1105.98,421.961 1155.4,606.967 1204.81,821.538 
  1254.23,833.737 1303.65,862.942 1353.06,853.956 1402.48,714.668 1451.9,788.805 1501.31,862.942 1550.73,842.723 1600.14,932.586 1649.56,898.887 1698.98,932.586 
  1748.39,1008.97 1797.81,1089.85 1847.23,1123.55 1896.64,1208.92 1946.06,1193.19 1995.48,1175.22 2044.89,1053.9 2094.31,1080.86 2143.72,1112.31 2193.14,1033.68 
  2242.56,997.737 2291.97,910.12 
  "/>
<polyline clip-path="url(#clip102)" style="stroke:#00a98d; stroke-linecap:butt; stroke-linejoin:round; stroke-width:4; stroke-opacity:0.5; fill:none" points="
  265.903,1226.64 315.319,1170.14 364.736,1161.63 414.152,1188 463.569,1241.58 512.985,1224.73 562.401,1235.81 611.818,1227.83 661.234,1227.85 710.65,1193.14 
  760.067,1218.24 809.483,1223.81 858.899,1242.91 908.316,1252.99 957.732,1250.7 1007.15,1264.63 1056.56,1279.41 1105.98,1289.77 1155.4,1297.61 1204.81,1306.37 
  1254.23,1325.74 1303.65,1339.22 1353.06,1325.74 1402.48,1319 1451.9,1316.75 1501.31,1321.24 1550.73,1325.74 1600.14,1305.52 1649.56,1289.79 1698.98,1296.53 
  1748.39,1307.77 1797.81,1312.26 1847.23,1307.77 1896.64,1303.27 1946.06,1310.01 1995.48,1312.26 2044.89,1307.77 2094.31,1296.53 2143.72,1303.27 2193.14,1301.03 
  2242.56,1298.78 2291.97,1278.56 
  "/>
<polyline clip-path="url(#clip102)" style="stroke:#8e971d; stroke-linecap:butt; stroke-linejoin:round; stroke-width:4; stroke-opacity:0.5; fill:none" points="
  265.903,1148.37 315.319,1172.43 364.736,1178.99 414.152,1196.11 463.569,1253.02 512.985,1228.89 562.401,1235.36 611.818,1215.52 661.234,1202 710.65,1218.98 
  760.067,1197.62 809.483,1216.22 858.899,1183.96 908.316,1217.95 957.732,1215.16 1007.15,1222.1 1056.56,1244.75 1105.98,1247.53 1155.4,1274.67 1204.81,1281.91 
  1254.23,1283.05 1303.65,1283.05 1353.06,1283.05 1402.48,1278.56 1451.9,1276.31 1501.31,1296.53 1550.73,1294.29 1600.14,1283.05 1649.56,1269.57 1698.98,1283.05 
  1748.39,1298.78 1797.81,1301.03 1847.23,1303.27 1896.64,1296.53 1946.06,1298.78 1995.48,1292.04 2044.89,1276.31 2094.31,1262.83 2143.72,1260.59 2193.14,1267.33 
  2242.56,1258.34 2291.97,1215.66 
  "/>
<polyline clip-path="url(#clip102)" style="stroke:#00a8cb; stroke-linecap:butt; stroke-linejoin:round; stroke-width:4; stroke-opacity:0.5; fill:none" points="
  265.903,1221.95 315.319,1222.84 364.736,1230.42 414.152,1271.73 463.569,1264.2 512.985,1273.3 562.401,1288.94 611.818,1273.01 661.234,1289.88 710.65,1273.57 
  760.067,1275.62 809.483,1229.45 858.899,1217.09 908.316,1220.78 957.732,1216.33 1007.15,1207.79 1056.56,1243.94 1105.98,1239.63 1155.4,1250.5 1204.81,1261.69 
  1254.23,1278.56 1303.65,1283.05 1353.06,1269.57 1402.48,1274.07 1451.9,1280.81 1501.31,1301.03 1550.73,1303.27 1600.14,1294.29 1649.56,1303.27 1698.98,1292.04 
  1748.39,1294.29 1797.81,1303.27 1847.23,1298.78 1896.64,1292.04 1946.06,1303.27 1995.48,1296.53 2044.89,1283.05 2094.31,1238.12 2143.72,1240.37 2193.14,1265.08 
  2242.56,1265.08 2291.97,1195.44 
  "/>
<polyline clip-path="url(#clip102)" style="stroke:#9b7fe8; stroke-linecap:butt; stroke-linejoin:round; stroke-width:4; stroke-opacity:0.5; fill:none" points="
  265.903,1289.57 315.319,1280.9 364.736,1302.71 414.152,1308.64 463.569,1327.27 512.985,1318.73 562.401,1317.13 611.818,1326.12 661.234,1332.12 710.65,1322.19 
  760.067,1327.96 809.483,1318.1 858.899,1304.82 908.316,1295.9 957.732,1297.93 1007.15,1279.93 1056.56,1280.38 1105.98,1295.99 1155.4,1284.42 1204.81,1294.69 
  1254.23,1303.27 1303.65,1323.49 1353.06,1298.78 1402.48,1316.75 1451.9,1314.51 1501.31,1323.49 1550.73,1312.26 1600.14,1310.01 1649.56,1316.75 1698.98,1321.24 
  1748.39,1319 1797.81,1327.98 1847.23,1334.72 1896.64,1319 1946.06,1303.27 1995.48,1316.75 2044.89,1305.52 2094.31,1280.81 2143.72,1278.56 2193.14,1283.05 
  2242.56,1285.3 2291.97,1240.37 
  "/>
<polyline clip-path="url(#clip102)" style="stroke:#608cf6; stroke-linecap:butt; stroke-linejoin:round; stroke-width:4; stroke-opacity:0.5; fill:none" points="
  265.903,1369.75 315.319,1371.25 364.736,1367.3 414.152,1379.48 463.569,1375.39 512.985,1371.34 562.401,1375.77 611.818,1374.58 661.234,1382.44 710.65,1384.89 
  760.067,1383.3 809.483,1381.72 858.899,1373.05 908.316,1384.44 957.732,1379.03 1007.15,1381.52 1056.56,1379.3 1105.98,1374.74 1155.4,1383.39 1204.81,1374.2 
  1254.23,1381.9 1303.65,1384.15 1353.06,1386.4 1402.48,1381.9 1451.9,1386.4 1501.31,1381.9 1550.73,1386.4 1600.14,1375.16 1698.98,1379.66 1797.81,1379.66 
  1847.23,1381.9 1896.64,1379.66 1946.06,1386.4 1995.48,1377.41 2044.89,1370.67 2094.31,1368.42 2143.72,1359.44 2193.14,1377.41 2242.56,1368.42 2291.97,1345.96 
  
  "/>
<polyline clip-path="url(#clip102)" style="stroke:#f05f73; stroke-linecap:butt; stroke-linejoin:round; stroke-width:4; stroke-opacity:0.5; fill:none" points="
  265.903,1319.34 315.319,1302.87 364.736,1307.5 414.152,1316.5 463.569,1337.44 512.985,1360.83 562.401,1336.81 611.818,1332.34 661.234,1345.58 710.65,1353.28 
  760.067,1334.43 809.483,1344.52 858.899,1316.28 908.316,1313.02 957.732,1284.92 1007.15,1293.86 1056.56,1301.63 1105.98,1319.34 1155.4,1317.45 1204.81,1313.2 
  1254.23,1330.23 1303.65,1319 1353.06,1327.98 1402.48,1343.71 1451.9,1339.22 1501.31,1334.72 1550.73,1354.94 1600.14,1345.96 1649.56,1345.96 1698.98,1343.71 
  1748.39,1332.48 1797.81,1350.45 1847.23,1341.46 1896.64,1352.7 1946.06,1343.71 1995.48,1348.2 2044.89,1330.23 2094.31,1316.75 2143.72,1298.78 2193.14,1310.01 
  2242.56,1327.98 2291.97,1280.81 
  "/>
<polyline clip-path="url(#clip102)" style="stroke:#dd64b5; stroke-linecap:butt; stroke-linejoin:round; stroke-width:4; stroke-opacity:0.5; fill:none" points="
  265.903,1234.98 315.319,1251.69 364.736,1262.36 414.152,1270.18 463.569,1294.26 512.985,1294.26 562.401,1296.11 611.818,1298.96 661.234,1298.24 710.65,1311.58 
  760.067,1315.25 809.483,1305.68 858.899,1297 908.316,1323.24 957.732,1294.78 1007.15,1308.08 1056.56,1307.88 1105.98,1320.14 1155.4,1308.89 1204.81,1306.33 
  1254.23,1325.74 1303.65,1330.23 1353.06,1327.98 1402.48,1334.72 1451.9,1341.46 1501.31,1321.24 1550.73,1323.49 1600.14,1345.96 1649.56,1323.49 1698.98,1321.24 
  1748.39,1334.72 1797.81,1339.22 1847.23,1336.97 1896.64,1323.49 1946.06,1334.72 1995.48,1334.72 2044.89,1316.75 2094.31,1285.3 2143.72,1289.79 2193.14,1301.03 
  2242.56,1303.27 2291.97,1233.63 
  "/>
<polyline clip-path="url(#clip102)" style="stroke:#6b9e32; stroke-linecap:butt; stroke-linejoin:round; stroke-width:4; stroke-opacity:0.5; fill:none" points="
  265.903,1118.45 315.319,1138.98 364.736,1143.59 414.152,1126.62 463.569,1163.31 512.985,1195.68 562.401,1228.15 611.818,1180.07 661.234,1196.94 710.65,1192.29 
  760.067,1153.6 809.483,1106.94 858.899,1081.38 908.316,1086.86 957.732,1019.98 1007.15,1022.18 1056.56,1094.12 1105.98,1088.45 1155.4,1132.19 1204.81,1180.38 
  1254.23,1231.38 1303.65,1188.7 1353.06,1204.42 1402.48,1170.72 1451.9,1168.48 1501.31,1168.48 1550.73,1179.71 1600.14,1172.97 1649.56,1152.75 1698.98,1186.45 
  1748.39,1179.71 1797.81,1190.94 1847.23,1193.19 1896.64,1195.44 1946.06,1188.7 1995.48,1199.93 2044.89,1184.2 2094.31,1152.75 2143.72,1148.26 2193.14,1163.98 
  2242.56,1141.52 2291.97,1042.67 
  "/>
<polyline clip-path="url(#clip102)" style="stroke:#009af9; stroke-linecap:butt; stroke-linejoin:round; stroke-width:4; stroke-opacity:0.5; fill:none" points="
  265.903,1273.1 315.319,1262.83 364.736,1261.15 414.152,1268.7 463.569,1278.45 512.985,1284.58 562.401,1288.44 611.818,1271.33 661.234,1266.27 710.65,1252.18 
  760.067,1227.36 809.483,1203.39 858.899,1207.79 908.316,1190.4 957.732,1187.06 1007.15,1202.24 1056.56,1200.99 1105.98,1212.8 1155.4,1222.69 1204.81,1236.5 
  1254.23,1235.87 1303.65,1253.85 1353.06,1251.6 1402.48,1253.85 1451.9,1242.61 1501.31,1247.11 1550.73,1235.87 1600.14,1238.12 1649.56,1235.87 1698.98,1253.85 
  1748.39,1280.81 1797.81,1285.3 1847.23,1298.78 1896.64,1292.04 1946.06,1292.04 1995.48,1310.01 2044.89,1238.12 2094.31,1242.61 2143.72,1235.87 2193.14,1247.11 
  2242.56,1231.38 2291.97,1208.92 
  "/>
<polyline clip-path="url(#clip102)" style="stroke:#e26f46; stroke-linecap:butt; stroke-linejoin:round; stroke-width:4; stroke-opacity:0.5; fill:none" points="
  265.903,1370.38 315.319,1363.28 364.736,1367.01 414.152,1367.43 463.569,1371.86 512.985,1369.01 562.401,1370.4 611.818,1369.01 661.234,1376.76 710.65,1370.6 
  760.067,1365.59 809.483,1356.22 858.899,1353.24 908.316,1363.77 957.732,1356.18 1007.15,1351.69 1056.56,1359.37 1105.98,1370.94 1155.4,1378.4 1204.81,1381.45 
  1254.23,1379.66 1303.65,1379.66 1353.06,1375.16 1402.48,1370.67 1451.9,1377.41 1501.31,1366.18 1550.73,1366.18 1600.14,1368.42 1649.56,1363.93 1698.98,1370.67 
  1748.39,1366.18 1797.81,1361.68 1847.23,1361.68 1896.64,1379.66 1946.06,1375.16 1995.48,1375.16 2044.89,1375.16 2094.31,1375.16 2143.72,1370.67 2193.14,1370.67 
  2242.56,1372.92 2291.97,1361.68 
  "/>
<polyline clip-path="url(#clip102)" style="stroke:#3da44d; stroke-linecap:butt; stroke-linejoin:round; stroke-width:4; stroke-opacity:0.5; fill:none" points="
  265.903,1271.86 315.319,1255.08 364.736,1261.94 414.152,1256.99 463.569,1256.84 512.985,1257.17 562.401,1236.39 611.818,1218.87 661.234,1224.01 710.65,1234.05 
  760.067,1235.78 809.483,1227.74 858.899,1215.43 908.316,1229.97 957.732,1222.62 1007.15,1230.98 1056.56,1250.7 1105.98,1274.56 1155.4,1279.57 1204.81,1288.29 
  1254.23,1287.55 1303.65,1289.79 1353.06,1292.04 1402.48,1294.29 1451.9,1296.53 1501.31,1294.29 1550.73,1294.29 1600.14,1285.3 1649.56,1289.79 1698.98,1294.29 
  1748.39,1292.04 1797.81,1303.27 1847.23,1287.55 1896.64,1271.82 1946.06,1292.04 1995.48,1312.26 2044.89,1305.52 2094.31,1294.29 2143.72,1305.52 2193.14,1296.53 
  2242.56,1301.03 2291.97,1253.85 
  "/>
<polyline clip-path="url(#clip102)" style="stroke:#c271d2; stroke-linecap:butt; stroke-linejoin:round; stroke-width:4; stroke-opacity:0.5; fill:none" points="
  265.903,1374.38 315.319,1375.21 364.736,1380.89 414.152,1376.11 463.569,1384.28 512.985,1383.83 562.401,1386.13 611.818,1384.06 661.234,1374.13 710.65,1379.27 
  760.067,1379.52 809.483,1370.98 858.899,1371.5 908.316,1368.89 957.732,1364.42 1007.15,1359.55 1056.56,1354.25 1105.98,1359.1 1155.4,1367.59 1204.81,1378.71 
  1254.23,1379.66 1303.65,1368.42 1353.06,1372.92 1402.48,1379.66 1451.9,1370.67 1501.31,1366.18 1550.73,1366.18 1600.14,1370.67 1649.56,1375.16 1698.98,1372.92 
  1748.39,1384.15 1797.81,1377.41 1847.23,1379.66 1896.64,1379.66 1946.06,1372.92 1995.48,1379.66 2044.89,1366.18 2094.31,1370.67 2143.72,1372.92 2193.14,1377.41 
  2242.56,1363.93 2291.97,1350.45 
  "/>
<polyline clip-path="url(#clip102)" style="stroke:#ac8d18; stroke-linecap:butt; stroke-linejoin:round; stroke-width:4; stroke-opacity:0.5; fill:none" points="
  265.903,1181.62 315.319,1162.41 364.736,1172.75 414.152,1168.14 463.569,1240.7 512.985,1221.34 562.401,1229.85 611.818,1205.05 661.234,1221.23 710.65,1239.04 
  760.067,1233.52 809.483,1187.12 858.899,1166.84 908.316,1150.15 957.732,1110.9 1007.15,1119.64 1056.56,1170.16 1105.98,1190.31 1155.4,1177.98 1204.81,1222.69 
  1254.23,1233.63 1303.65,1235.87 1353.06,1226.89 1402.48,1240.37 1451.9,1247.11 1501.31,1247.11 1550.73,1269.57 1600.14,1233.63 1649.56,1235.87 1698.98,1217.9 
  1748.39,1253.85 1797.81,1249.35 1847.23,1238.12 1896.64,1242.61 1946.06,1242.61 1995.48,1208.92 2044.89,1206.67 2094.31,1193.19 2143.72,1181.96 2193.14,1163.98 
  2242.56,1128.04 2291.97,1026.94 
  "/>
<polyline clip-path="url(#clip102)" style="stroke:#00a9ad; stroke-linecap:butt; stroke-linejoin:round; stroke-width:4; stroke-opacity:0.5; fill:none" points="
  265.903,1214.42 315.319,1218.24 364.736,1231.43 414.152,1248.59 463.569,1285.79 512.985,1295.09 562.401,1271.44 611.818,1264.41 661.234,1270.67 710.65,1270.92 
  760.067,1275.73 809.483,1260 858.899,1230.66 908.316,1229.13 957.732,1212.22 1007.15,1221.32 1056.56,1263.22 1105.98,1273.3 1155.4,1283.5 1204.81,1290.11 
  1254.23,1305.52 1303.65,1294.29 1353.06,1294.29 1402.48,1303.27 1451.9,1319 1501.31,1303.27 1550.73,1289.79 1600.14,1292.04 1649.56,1303.27 1698.98,1267.33 
  1748.39,1283.05 1797.81,1278.56 1847.23,1292.04 1896.64,1287.55 1946.06,1296.53 1995.48,1283.05 2044.89,1235.87 2094.31,1233.63 2143.72,1197.68 2193.14,1199.93 
  2242.56,1208.92 2291.97,1155 
  "/>
<polyline clip-path="url(#clip102)" style="stroke:#ed5d92; stroke-linecap:butt; stroke-linejoin:round; stroke-width:4; stroke-opacity:0.5; fill:none" points="
  265.903,1339.85 315.319,1352.94 364.736,1353.19 414.152,1375.99 463.569,1373.19 512.985,1371.84 562.401,1363.26 611.818,1370.11 661.234,1361.32 710.65,1360.04 
  760.067,1371.55 809.483,1371.64 858.899,1360.74 908.316,1351.42 957.732,1353.26 1007.15,1357.8 1056.56,1343.37 1105.98,1360.09 1155.4,1356.43 1204.81,1359.35 
  1254.23,1366.18 1303.65,1350.45 1353.06,1377.41 1402.48,1368.42 1451.9,1363.93 1501.31,1372.92 1550.73,1368.42 1600.14,1366.18 1649.56,1350.45 1698.98,1343.71 
  1748.39,1366.18 1797.81,1354.94 1847.23,1354.94 1896.64,1348.2 1946.06,1343.71 1995.48,1357.19 2044.89,1345.96 2094.31,1350.45 2143.72,1370.67 2193.14,1375.16 
  2242.56,1357.19 2291.97,1348.2 
  "/>
<polyline clip-path="url(#clip102)" style="stroke:#c68125; stroke-linecap:butt; stroke-linejoin:round; stroke-width:4; stroke-opacity:0.5; fill:none" points="
  265.903,1222.73 315.319,1166.43 364.736,1190.09 414.152,1236.39 463.569,1240.05 512.985,1266 562.401,1274.54 611.818,1292.22 661.234,1342.97 710.65,1283.32 
  760.067,1260.41 809.483,1275.5 858.899,1239.74 908.316,1258.16 957.732,1238.84 1007.15,1238.1 1056.56,1249.58 1105.98,1233.2 1155.4,1265.6 1204.81,1262.61 
  1254.23,1287.55 1303.65,1303.27 1353.06,1287.55 1402.48,1287.55 1451.9,1289.79 1501.31,1287.55 1550.73,1298.78 1600.14,1287.55 1649.56,1292.04 1698.98,1319 
  1748.39,1323.49 1797.81,1330.23 1847.23,1334.72 1896.64,1341.46 1946.06,1332.48 1995.48,1321.24 2044.89,1305.52 2094.31,1289.79 2143.72,1289.79 2193.14,1287.55 
  2242.56,1319 2291.97,1298.78 
  "/>
<polyline clip-path="url(#clip102)" style="stroke:#00a98d; stroke-linecap:butt; stroke-linejoin:round; stroke-width:4; stroke-opacity:0.5; fill:none" points="
  265.903,1327.02 315.319,1323.27 364.736,1320.39 414.152,1332.77 463.569,1349.06 512.985,1346.11 562.401,1352.45 611.818,1355.51 661.234,1361.08 710.65,1349.12 
  760.067,1344.29 809.483,1341.94 858.899,1339.42 908.316,1343.67 957.732,1339.94 1007.15,1343.28 1056.56,1334.07 1105.98,1348.99 1155.4,1352.18 1204.81,1359.93 
  1254.23,1363.93 1303.65,1359.44 1353.06,1354.94 1402.48,1350.45 1451.9,1336.97 1501.31,1339.22 1550.73,1330.23 1600.14,1325.74 1649.56,1332.48 1698.98,1341.46 
  1748.39,1345.96 1797.81,1336.97 1847.23,1330.23 1896.64,1334.72 1946.06,1330.23 1995.48,1336.97 2044.89,1336.97 2094.31,1330.23 2143.72,1339.22 2193.14,1350.45 
  2242.56,1354.94 2291.97,1341.46 
  "/>
<polyline clip-path="url(#clip102)" style="stroke:#8e971d; stroke-linecap:butt; stroke-linejoin:round; stroke-width:4; stroke-opacity:0.5; fill:none" points="
  265.903,1211.88 315.319,1211.72 364.736,1264.72 414.152,1256.41 463.569,1323.92 512.985,1302.96 562.401,1271.73 611.818,1247.8 661.234,1270.74 710.65,1277.82 
  760.067,1293.93 809.483,1311 858.899,1280.2 908.316,1294.56 957.732,1294.58 1007.15,1260.21 1056.56,1280.33 1105.98,1263.4 1155.4,1287.93 1204.81,1284.18 
  1254.23,1292.04 1303.65,1283.05 1353.06,1321.24 1402.48,1305.52 1451.9,1301.03 1501.31,1307.77 1550.73,1314.51 1600.14,1321.24 1649.56,1316.75 1698.98,1307.77 
  1748.39,1303.27 1797.81,1321.24 1847.23,1325.74 1896.64,1319 1946.06,1316.75 1995.48,1323.49 2044.89,1305.52 2094.31,1283.05 2143.72,1296.53 2193.14,1258.34 
  2242.56,1235.87 2291.97,1244.86 
  "/>
<polyline clip-path="url(#clip102)" style="stroke:#00a8cb; stroke-linecap:butt; stroke-linejoin:round; stroke-width:4; stroke-opacity:0.5; fill:none" points="
  265.903,1254.12 315.319,1242.75 364.736,1234.28 414.152,1254.7 463.569,1260.18 512.985,1279.64 562.401,1284.92 611.818,1269.37 661.234,1246.7 710.65,1215.25 
  760.067,1205.64 809.483,1184.45 858.899,1173.15 908.316,1185.03 957.732,1188.54 1007.15,1231.4 1056.56,1276.85 1105.98,1298.8 1155.4,1320.26 1204.81,1336.88 
  1254.23,1339.22 1303.65,1332.48 1353.06,1334.72 1402.48,1339.22 1451.9,1334.72 1501.31,1343.71 1550.73,1343.71 1600.14,1336.97 1649.56,1343.71 1698.98,1345.96 
  1748.39,1345.96 1797.81,1343.71 1847.23,1350.45 1896.64,1354.94 1946.06,1361.68 1995.48,1361.68 2044.89,1357.19 2094.31,1359.44 2143.72,1368.42 2193.14,1363.93 
  2242.56,1366.18 2291.97,1339.22 
  "/>
<polyline clip-path="url(#clip102)" style="stroke:#9b7fe8; stroke-linecap:butt; stroke-linejoin:round; stroke-width:4; stroke-opacity:0.5; fill:none" points="
  265.903,1220.17 315.319,1224.57 364.736,1241.87 414.152,1251.8 463.569,1271.66 512.985,1289.25 562.401,1269.06 611.818,1268 661.234,1273.64 710.65,1273.84 
  760.067,1252.68 809.483,1244.86 858.899,1203.75 908.316,1231.83 957.732,1208.58 1007.15,1225.65 1056.56,1250.57 1105.98,1270.27 1155.4,1272.7 1204.81,1274.13 
  1254.23,1274.07 1303.65,1276.31 1353.06,1289.79 1402.48,1278.56 1451.9,1298.78 1501.31,1296.53 1550.73,1287.55 1600.14,1294.29 1649.56,1292.04 1698.98,1292.04 
  1748.39,1307.77 1797.81,1316.75 1847.23,1316.75 1896.64,1307.77 1946.06,1310.01 1995.48,1316.75 2044.89,1305.52 2094.31,1280.81 2143.72,1289.79 2193.14,1298.78 
  2242.56,1287.55 2291.97,1247.11 
  "/>
<polyline clip-path="url(#clip102)" style="stroke:#608cf6; stroke-linecap:butt; stroke-linejoin:round; stroke-width:4; stroke-opacity:0.5; fill:none" points="
  265.903,1282.36 315.319,1287.77 364.736,1291.79 414.152,1312.73 463.569,1335.74 512.985,1334.9 562.401,1337.82 611.818,1338 661.234,1338.81 710.65,1340.72 
  760.067,1334.07 809.483,1318.64 858.899,1313.49 908.316,1314.75 957.732,1317.76 1007.15,1319.99 1056.56,1336.79 1105.98,1340.03 1155.4,1346.41 1204.81,1350.97 
  1254.23,1352.7 1303.65,1354.94 1353.06,1341.46 1402.48,1334.72 1451.9,1341.46 1501.31,1336.97 1550.73,1323.49 1600.14,1316.75 1649.56,1323.49 1698.98,1325.74 
  1748.39,1332.48 1797.81,1327.98 1847.23,1316.75 1896.64,1319 1946.06,1316.75 1995.48,1323.49 2044.89,1310.01 2094.31,1296.53 2143.72,1285.3 2193.14,1298.78 
  2242.56,1296.53 2291.97,1247.11 
  "/>
<polyline clip-path="url(#clip102)" style="stroke:#f05f73; stroke-linecap:butt; stroke-linejoin:round; stroke-width:4; stroke-opacity:0.5; fill:none" points="
  265.903,1244.23 315.319,1239.06 364.736,1258.74 414.152,1250.57 463.569,1289.75 512.985,1291.54 562.401,1286.2 611.818,1278.56 661.234,1287.37 710.65,1309.99 
  760.067,1293.86 809.483,1282.27 858.899,1291.21 908.316,1295.57 957.732,1263.51 1007.15,1279.1 1056.56,1292.38 1105.98,1294.78 1155.4,1281.86 1204.81,1327.22 
  1254.23,1305.52 1303.65,1330.23 1353.06,1323.49 1402.48,1332.48 1451.9,1314.51 1501.31,1325.74 1550.73,1319 1600.14,1310.01 1649.56,1310.01 1698.98,1314.51 
  1748.39,1314.51 1797.81,1325.74 1847.23,1305.52 1896.64,1294.29 1946.06,1301.03 1995.48,1314.51 2044.89,1276.31 2094.31,1267.33 2143.72,1274.07 2193.14,1298.78 
  2242.56,1265.08 2291.97,1251.6 
  "/>
<polyline clip-path="url(#clip102)" style="stroke:#dd64b5; stroke-linecap:butt; stroke-linejoin:round; stroke-width:4; stroke-opacity:0.5; fill:none" points="
  265.903,1347.82 315.319,1336.21 364.736,1350.52 414.152,1338.61 463.569,1349.3 512.985,1347.89 562.401,1361.48 611.818,1328.16 661.234,1348.63 710.65,1340.48 
  760.067,1343.22 809.483,1357.75 858.899,1359.89 908.316,1350.32 957.732,1342.72 1007.15,1324.48 1056.56,1338.77 1105.98,1352.49 1155.4,1352.02 1204.81,1345.42 
  1254.23,1363.93 1303.65,1363.93 1353.06,1372.92 1402.48,1363.93 1451.9,1370.67 1501.31,1363.93 1550.73,1370.67 1600.14,1366.18 1649.56,1377.41 1698.98,1375.16 
  1748.39,1372.92 1797.81,1368.42 1847.23,1368.42 1896.64,1372.92 1946.06,1372.92 1995.48,1375.16 2044.89,1352.7 2094.31,1361.68 2143.72,1363.93 2193.14,1368.42 
  2242.56,1363.93 2291.97,1345.96 
  "/>
<polyline clip-path="url(#clip102)" style="stroke:#6b9e32; stroke-linecap:butt; stroke-linejoin:round; stroke-width:4; stroke-opacity:0.5; fill:none" points="
  265.903,1318.53 315.319,1309 364.736,1318.62 414.152,1328.37 463.569,1349.73 512.985,1345.82 562.401,1341.8 611.818,1346.43 661.234,1340.68 710.65,1338.41 
  760.067,1319.6 809.483,1309.88 858.899,1314.03 908.316,1309.67 957.732,1296.15 1007.15,1312.44 1056.56,1308.62 1105.98,1310.82 1155.4,1302.24 1204.81,1324.41 
  1254.23,1325.74 1303.65,1323.49 1353.06,1323.49 1402.48,1321.24 1451.9,1319 1501.31,1312.26 1550.73,1307.77 1600.14,1298.78 1649.56,1305.52 1698.98,1310.01 
  1748.39,1319 1797.81,1316.75 1847.23,1314.51 1896.64,1307.77 1946.06,1319 1995.48,1323.49 2044.89,1312.26 2094.31,1310.01 2143.72,1298.78 2193.14,1303.27 
  2242.56,1307.77 2291.97,1265.08 
  "/>
<polyline clip-path="url(#clip102)" style="stroke:#009af9; stroke-linecap:butt; stroke-linejoin:round; stroke-width:4; stroke-opacity:0.5; fill:none" points="
  661.234,1352.2 809.483,1346.18 858.899,1353.26 957.732,1344.61 1007.15,1344.65 1056.56,1353.53 1254.23,1359.44 1303.65,1345.96 1353.06,1361.68 1402.48,1352.7 
  1451.9,1359.44 2291.97,1357.19 
  "/>
<polyline clip-path="url(#clip102)" style="stroke:#e26f46; stroke-linecap:butt; stroke-linejoin:round; stroke-width:4; stroke-opacity:0.5; fill:none" points="
  265.903,1200.09 315.319,1206.02 364.736,1236.35 414.152,1227.29 463.569,1254.36 512.985,1272.56 562.401,1270.45 611.818,1270.7 661.234,1261.6 710.65,1266.27 
  760.067,1257.71 809.483,1236.35 858.899,1226.39 908.316,1212.08 957.732,1240.08 1007.15,1235.87 1056.56,1289.93 1105.98,1255.29 1155.4,1269.37 1204.81,1270.85 
  1254.23,1278.56 1303.65,1310.01 1353.06,1278.56 1402.48,1280.81 1451.9,1276.31 1501.31,1287.55 1550.73,1280.81 1600.14,1262.83 1649.56,1276.31 1698.98,1280.81 
  1748.39,1289.79 1797.81,1292.04 1847.23,1283.05 1896.64,1274.07 1946.06,1289.79 1995.48,1280.81 2044.89,1238.12 2094.31,1251.6 2143.72,1253.85 2193.14,1240.37 
  2242.56,1206.67 2291.97,1177.46 
  "/>
<polyline clip-path="url(#clip102)" style="stroke:#3da44d; stroke-linecap:butt; stroke-linejoin:round; stroke-width:4; stroke-opacity:0.5; fill:none" points="
  265.903,1224.15 315.319,1202.45 364.736,1226.21 414.152,1237.09 463.569,1263.55 512.985,1269.66 562.401,1279.12 611.818,1232.33 661.234,1251.83 710.65,1242.88 
  760.067,1253.22 809.483,1228.55 858.899,1222.62 908.316,1224.69 957.732,1227.34 1007.15,1240.39 1056.56,1234.46 1105.98,1252.23 1155.4,1233.27 1204.81,1263.71 
  1254.23,1289.79 1303.65,1269.57 1353.06,1285.3 1402.48,1278.56 1451.9,1289.79 1501.31,1296.53 1550.73,1265.08 1600.14,1283.05 1649.56,1278.56 1698.98,1283.05 
  1748.39,1280.81 1797.81,1301.03 1847.23,1296.53 1896.64,1289.79 1946.06,1296.53 1995.48,1296.53 2044.89,1280.81 2094.31,1258.34 2143.72,1247.11 2193.14,1238.12 
  2242.56,1249.35 2291.97,1190.94 
  "/>
<polyline clip-path="url(#clip102)" style="stroke:#c271d2; stroke-linecap:butt; stroke-linejoin:round; stroke-width:4; stroke-opacity:0.5; fill:none" points="
  265.903,1141.38 315.319,1140.17 364.736,1137.14 414.152,1150.55 463.569,1183.73 512.985,1212.73 562.401,1207.07 611.818,1194.45 661.234,1235.02 710.65,1224.89 
  760.067,1219.12 809.483,1184.59 858.899,1153.83 908.316,1185.87 957.732,1205.3 1007.15,1214.69 1056.56,1257.37 1105.98,1283.97 1155.4,1296.2 1204.81,1298.89 
  1254.23,1316.75 1303.65,1316.75 1353.06,1312.26 1402.48,1312.26 1451.9,1305.52 1501.31,1312.26 1550.73,1305.52 1600.14,1305.52 1649.56,1307.77 1698.98,1312.26 
  1748.39,1314.51 1797.81,1323.49 1847.23,1332.48 1896.64,1327.98 1946.06,1327.98 1995.48,1323.49 2044.89,1314.51 2094.31,1305.52 2143.72,1305.52 2193.14,1314.51 
  2242.56,1303.27 2291.97,1271.82 
  "/>
<polyline clip-path="url(#clip102)" style="stroke:#ac8d18; stroke-linecap:butt; stroke-linejoin:round; stroke-width:4; stroke-opacity:0.5; fill:none" points="
  265.903,1349.06 315.319,1358.36 364.736,1356.97 414.152,1358.27 463.569,1371.95 512.985,1368.33 611.818,1367.86 661.234,1362.83 710.65,1369.82 760.067,1370.15 
  809.483,1375.68 858.899,1366.51 908.316,1370.13 957.732,1371.23 1007.15,1355.1 1056.56,1347.51 1105.98,1368.54 1155.4,1367.28 1204.81,1370.18 1254.23,1372.92 
  1353.06,1363.93 1402.48,1377.41 1451.9,1368.42 1501.31,1377.41 1550.73,1375.16 1600.14,1379.66 1649.56,1370.67 1698.98,1384.15 1748.39,1379.66 1797.81,1381.9 
  1847.23,1381.9 1896.64,1381.9 1946.06,1379.66 1995.48,1377.41 2044.89,1372.92 2094.31,1368.42 2143.72,1366.18 2193.14,1379.66 2242.56,1368.42 2291.97,1352.7 
  
  "/>
<polyline clip-path="url(#clip102)" style="stroke:#00a9ad; stroke-linecap:butt; stroke-linejoin:round; stroke-width:4; stroke-opacity:0.5; fill:none" points="
  265.903,1252.61 315.319,1262.52 364.736,1265.01 414.152,1294.87 463.569,1290.98 512.985,1284.24 562.401,1299.52 611.818,1292.38 661.234,1289.37 710.65,1286.18 
  760.067,1278.63 809.483,1265.39 858.899,1265.37 908.316,1261.53 957.732,1264.65 1007.15,1260.99 1056.56,1282.18 1105.98,1286.96 1155.4,1282.69 1204.81,1308.39 
  1254.23,1314.51 1303.65,1314.51 1353.06,1319 1402.48,1316.75 1451.9,1301.03 1501.31,1316.75 1550.73,1298.78 1600.14,1321.24 1649.56,1314.51 1698.98,1332.48 
  1748.39,1327.98 1797.81,1327.98 1847.23,1339.22 1896.64,1343.71 1946.06,1341.46 1995.48,1341.46 2044.89,1330.23 2094.31,1310.01 2143.72,1312.26 2193.14,1316.75 
  2242.56,1314.51 2291.97,1289.79 
  "/>
<polyline clip-path="url(#clip102)" style="stroke:#ed5d92; stroke-linecap:butt; stroke-linejoin:round; stroke-width:4; stroke-opacity:0.5; fill:none" points="
  265.903,1342.88 315.319,1346.29 364.736,1339.73 414.152,1354.49 463.569,1337.53 512.985,1350.07 562.401,1335.47 611.818,1350.38 661.234,1342.9 710.65,1332.75 
  760.067,1342.88 809.483,1340.23 858.899,1348.5 908.316,1330.82 957.732,1333.74 1007.15,1320.8 1056.56,1333.49 1105.98,1348.72 1155.4,1342.23 1204.81,1349.48 
  1254.23,1363.93 1303.65,1361.68 1353.06,1363.93 1402.48,1363.93 1451.9,1363.93 1501.31,1359.44 1550.73,1352.7 1600.14,1361.68 1649.56,1361.68 1698.98,1361.68 
  1748.39,1363.93 1797.81,1366.18 1847.23,1375.16 1896.64,1363.93 1946.06,1366.18 1995.48,1366.18 2044.89,1352.7 2094.31,1359.44 2143.72,1354.94 2193.14,1352.7 
  2242.56,1354.94 2291.97,1343.71 
  "/>
<polyline clip-path="url(#clip102)" style="stroke:#c68125; stroke-linecap:butt; stroke-linejoin:round; stroke-width:4; stroke-opacity:0.5; fill:none" points="
  265.903,1300.15 315.319,1268.43 364.736,1296.24 414.152,1287.91 463.569,1318.82 512.985,1323.85 562.401,1330.1 611.818,1315.99 661.234,1311.2 710.65,1324.55 
  760.067,1297.43 809.483,1311.72 858.899,1299.5 908.316,1287.48 957.732,1285.73 1007.15,1298.26 1056.56,1320.62 1105.98,1337.82 1155.4,1325.36 1204.81,1331.4 
  1254.23,1327.98 1303.65,1334.72 1353.06,1357.19 1402.48,1321.24 1451.9,1330.23 1501.31,1339.22 1550.73,1334.72 1600.14,1334.72 1649.56,1348.2 1698.98,1359.44 
  1748.39,1334.72 1797.81,1348.2 1847.23,1330.23 1896.64,1323.49 1946.06,1352.7 1995.48,1334.72 2044.89,1343.71 2094.31,1307.77 2143.72,1319 2193.14,1321.24 
  2242.56,1310.01 2291.97,1294.29 
  "/>
<polyline clip-path="url(#clip102)" style="stroke:#00a98d; stroke-linecap:butt; stroke-linejoin:round; stroke-width:4; stroke-opacity:0.5; fill:none" points="
  265.903,1359.17 315.319,1367.66 364.736,1361.14 414.152,1357.84 463.569,1366.31 512.985,1373.07 562.401,1358.02 611.818,1366.11 661.234,1364.85 710.65,1362.42 
  760.067,1354.4 809.483,1338.23 858.899,1341.51 908.316,1337.35 957.732,1341.24 1007.15,1341.4 1056.56,1340.75 1105.98,1344.74 1155.4,1350.68 1204.81,1356.09 
  1254.23,1350.45 1303.65,1357.19 1353.06,1348.2 1402.48,1354.94 1451.9,1345.96 1501.31,1366.18 1550.73,1339.22 1600.14,1359.44 1649.56,1350.45 1698.98,1372.92 
  1748.39,1363.93 1797.81,1361.68 1847.23,1370.67 1896.64,1354.94 1946.06,1359.44 1995.48,1357.19 2044.89,1336.97 2094.31,1330.23 2143.72,1343.71 2193.14,1345.96 
  2242.56,1345.96 2291.97,1307.77 
  "/>
</svg>
