<?xml version="1.0" encoding="utf-8"?>
<svg xmlns="http://www.w3.org/2000/svg" xmlns:xlink="http://www.w3.org/1999/xlink" width="600" height="400" viewBox="0 0 2400 1600">
<defs>
  <clipPath id="clip420">
    <rect x="0" y="0" width="2400" height="1600"/>
  </clipPath>
</defs>
<path clip-path="url(#clip420)" d="
M0 1600 L2400 1600 L2400 0 L0 0  Z
  " fill="#ffffff" fill-rule="evenodd" fill-opacity="1"/>
<defs>
  <clipPath id="clip421">
    <rect x="480" y="0" width="1681" height="1600"/>
  </clipPath>
</defs>
<path clip-path="url(#clip420)" d="
M186.274 1486.45 L2352.76 1486.45 L2352.76 123.472 L186.274 123.472  Z
  " fill="#ffffff" fill-rule="evenodd" fill-opacity="1"/>
<defs>
  <clipPath id="clip422">
    <rect x="186" y="123" width="2167" height="1364"/>
  </clipPath>
</defs>
<polyline clip-path="url(#clip422)" style="stroke:#000000; stroke-linecap:butt; stroke-linejoin:round; stroke-width:2; stroke-opacity:0.1; fill:none" points="
  441.156,1486.45 441.156,123.472 
  "/>
<polyline clip-path="url(#clip422)" style="stroke:#000000; stroke-linecap:butt; stroke-linejoin:round; stroke-width:2; stroke-opacity:0.1; fill:none" points="
  714.335,1486.45 714.335,123.472 
  "/>
<polyline clip-path="url(#clip422)" style="stroke:#000000; stroke-linecap:butt; stroke-linejoin:round; stroke-width:2; stroke-opacity:0.1; fill:none" points="
  987.515,1486.45 987.515,123.472 
  "/>
<polyline clip-path="url(#clip422)" style="stroke:#000000; stroke-linecap:butt; stroke-linejoin:round; stroke-width:2; stroke-opacity:0.1; fill:none" points="
  1260.7,1486.45 1260.7,123.472 
  "/>
<polyline clip-path="url(#clip422)" style="stroke:#000000; stroke-linecap:butt; stroke-linejoin:round; stroke-width:2; stroke-opacity:0.1; fill:none" points="
  1533.88,1486.45 1533.88,123.472 
  "/>
<polyline clip-path="url(#clip422)" style="stroke:#000000; stroke-linecap:butt; stroke-linejoin:round; stroke-width:2; stroke-opacity:0.1; fill:none" points="
  1807.06,1486.45 1807.06,123.472 
  "/>
<polyline clip-path="url(#clip422)" style="stroke:#000000; stroke-linecap:butt; stroke-linejoin:round; stroke-width:2; stroke-opacity:0.1; fill:none" points="
  2080.23,1486.45 2080.23,123.472 
  "/>
<polyline clip-path="url(#clip420)" style="stroke:#000000; stroke-linecap:butt; stroke-linejoin:round; stroke-width:4; stroke-opacity:1; fill:none" points="
  186.274,1486.45 2352.76,1486.45 
  "/>
<polyline clip-path="url(#clip420)" style="stroke:#000000; stroke-linecap:butt; stroke-linejoin:round; stroke-width:4; stroke-opacity:1; fill:none" points="
  441.156,1486.45 441.156,1467.55 
  "/>
<polyline clip-path="url(#clip420)" style="stroke:#000000; stroke-linecap:butt; stroke-linejoin:round; stroke-width:4; stroke-opacity:1; fill:none" points="
  714.335,1486.45 714.335,1467.55 
  "/>
<polyline clip-path="url(#clip420)" style="stroke:#000000; stroke-linecap:butt; stroke-linejoin:round; stroke-width:4; stroke-opacity:1; fill:none" points="
  987.515,1486.45 987.515,1467.55 
  "/>
<polyline clip-path="url(#clip420)" style="stroke:#000000; stroke-linecap:butt; stroke-linejoin:round; stroke-width:4; stroke-opacity:1; fill:none" points="
  1260.7,1486.45 1260.7,1467.55 
  "/>
<polyline clip-path="url(#clip420)" style="stroke:#000000; stroke-linecap:butt; stroke-linejoin:round; stroke-width:4; stroke-opacity:1; fill:none" points="
  1533.88,1486.45 1533.88,1467.55 
  "/>
<polyline clip-path="url(#clip420)" style="stroke:#000000; stroke-linecap:butt; stroke-linejoin:round; stroke-width:4; stroke-opacity:1; fill:none" points="
  1807.06,1486.45 1807.06,1467.55 
  "/>
<polyline clip-path="url(#clip420)" style="stroke:#000000; stroke-linecap:butt; stroke-linejoin:round; stroke-width:4; stroke-opacity:1; fill:none" points="
  2080.23,1486.45 2080.23,1467.55 
  "/>
<path clip-path="url(#clip420)" d="M441.156 1517.37 Q437.545 1517.37 435.716 1520.93 Q433.91 1524.47 433.91 1531.6 Q433.91 1538.71 435.716 1542.27 Q437.545 1545.82 441.156 1545.82 Q444.79 1545.82 446.595 1542.27 Q448.424 1538.71 448.424 1531.6 Q448.424 1524.47 446.595 1520.93 Q444.79 1517.37 441.156 1517.37 M441.156 1513.66 Q446.966 1513.66 450.021 1518.27 Q453.1 1522.85 453.1 1531.6 Q453.1 1540.33 450.021 1544.94 Q446.966 1549.52 441.156 1549.52 Q435.345 1549.52 432.267 1544.94 Q429.211 1540.33 429.211 1531.6 Q429.211 1522.85 432.267 1518.27 Q435.345 1513.66 441.156 1513.66 Z" fill="#000000" fill-rule="evenodd" fill-opacity="1" /><path clip-path="url(#clip420)" d="M708.988 1544.91 L725.308 1544.91 L725.308 1548.85 L703.363 1548.85 L703.363 1544.91 Q706.025 1542.16 710.609 1537.53 Q715.215 1532.88 716.396 1531.53 Q718.641 1529.01 719.521 1527.27 Q720.423 1525.51 720.423 1523.82 Q720.423 1521.07 718.479 1519.33 Q716.558 1517.6 713.456 1517.6 Q711.257 1517.6 708.803 1518.36 Q706.373 1519.13 703.595 1520.68 L703.595 1515.95 Q706.419 1514.82 708.873 1514.24 Q711.326 1513.66 713.363 1513.66 Q718.734 1513.66 721.928 1516.35 Q725.122 1519.03 725.122 1523.52 Q725.122 1525.65 724.312 1527.57 Q723.525 1529.47 721.419 1532.07 Q720.84 1532.74 717.738 1535.95 Q714.636 1539.15 708.988 1544.91 Z" fill="#000000" fill-rule="evenodd" fill-opacity="1" /><path clip-path="url(#clip420)" d="M990.525 1518.36 L978.719 1536.81 L990.525 1536.81 L990.525 1518.36 M989.298 1514.29 L995.177 1514.29 L995.177 1536.81 L1000.11 1536.81 L1000.11 1540.7 L995.177 1540.7 L995.177 1548.85 L990.525 1548.85 L990.525 1540.7 L974.923 1540.7 L974.923 1536.19 L989.298 1514.29 Z" fill="#000000" fill-rule="evenodd" fill-opacity="1" /><path clip-path="url(#clip420)" d="M1261.1 1529.7 Q1257.95 1529.7 1256.1 1531.86 Q1254.27 1534.01 1254.27 1537.76 Q1254.27 1541.49 1256.1 1543.66 Q1257.95 1545.82 1261.1 1545.82 Q1264.25 1545.82 1266.08 1543.66 Q1267.93 1541.49 1267.93 1537.76 Q1267.93 1534.01 1266.08 1531.86 Q1264.25 1529.7 1261.1 1529.7 M1270.38 1515.05 L1270.38 1519.31 Q1268.62 1518.48 1266.82 1518.04 Q1265.04 1517.6 1263.28 1517.6 Q1258.65 1517.6 1256.19 1520.72 Q1253.76 1523.85 1253.42 1530.17 Q1254.78 1528.15 1256.84 1527.09 Q1258.9 1526 1261.38 1526 Q1266.59 1526 1269.6 1529.17 Q1272.63 1532.32 1272.63 1537.76 Q1272.63 1543.08 1269.48 1546.3 Q1266.33 1549.52 1261.1 1549.52 Q1255.11 1549.52 1251.93 1544.94 Q1248.76 1540.33 1248.76 1531.6 Q1248.76 1523.41 1252.65 1518.55 Q1256.54 1513.66 1263.09 1513.66 Q1264.85 1513.66 1266.63 1514.01 Q1268.44 1514.36 1270.38 1515.05 Z" fill="#000000" fill-rule="evenodd" fill-opacity="1" /><path clip-path="url(#clip420)" d="M1533.88 1532.44 Q1530.54 1532.44 1528.62 1534.22 Q1526.72 1536 1526.72 1539.13 Q1526.72 1542.25 1528.62 1544.03 Q1530.54 1545.82 1533.88 1545.82 Q1537.21 1545.82 1539.13 1544.03 Q1541.05 1542.23 1541.05 1539.13 Q1541.05 1536 1539.13 1534.22 Q1537.23 1532.44 1533.88 1532.44 M1529.2 1530.45 Q1526.19 1529.7 1524.5 1527.64 Q1522.83 1525.58 1522.83 1522.62 Q1522.83 1518.48 1525.77 1516.07 Q1528.74 1513.66 1533.88 1513.66 Q1539.04 1513.66 1541.98 1516.07 Q1544.92 1518.48 1544.92 1522.62 Q1544.92 1525.58 1543.23 1527.64 Q1541.56 1529.7 1538.57 1530.45 Q1541.95 1531.23 1543.83 1533.52 Q1545.73 1535.82 1545.73 1539.13 Q1545.73 1544.15 1542.65 1546.83 Q1539.59 1549.52 1533.88 1549.52 Q1528.16 1549.52 1525.08 1546.83 Q1522.02 1544.15 1522.02 1539.13 Q1522.02 1535.82 1523.92 1533.52 Q1525.82 1531.23 1529.2 1530.45 M1527.49 1523.06 Q1527.49 1525.75 1529.15 1527.25 Q1530.84 1528.76 1533.88 1528.76 Q1536.88 1528.76 1538.57 1527.25 Q1540.29 1525.75 1540.29 1523.06 Q1540.29 1520.38 1538.57 1518.87 Q1536.88 1517.37 1533.88 1517.37 Q1530.84 1517.37 1529.15 1518.87 Q1527.49 1520.38 1527.49 1523.06 Z" fill="#000000" fill-rule="evenodd" fill-opacity="1" /><path clip-path="url(#clip420)" d="M1781.74 1544.91 L1789.38 1544.91 L1789.38 1518.55 L1781.07 1520.21 L1781.07 1515.95 L1789.34 1514.29 L1794.01 1514.29 L1794.01 1544.91 L1801.65 1544.91 L1801.65 1548.85 L1781.74 1548.85 L1781.74 1544.91 Z" fill="#000000" fill-rule="evenodd" fill-opacity="1" /><path clip-path="url(#clip420)" d="M1821.09 1517.37 Q1817.48 1517.37 1815.65 1520.93 Q1813.85 1524.47 1813.85 1531.6 Q1813.85 1538.71 1815.65 1542.27 Q1817.48 1545.82 1821.09 1545.82 Q1824.73 1545.82 1826.53 1542.27 Q1828.36 1538.71 1828.36 1531.6 Q1828.36 1524.47 1826.53 1520.93 Q1824.73 1517.37 1821.09 1517.37 M1821.09 1513.66 Q1826.9 1513.66 1829.96 1518.27 Q1833.04 1522.85 1833.04 1531.6 Q1833.04 1540.33 1829.96 1544.94 Q1826.9 1549.52 1821.09 1549.52 Q1815.28 1549.52 1812.21 1544.94 Q1809.15 1540.33 1809.15 1531.6 Q1809.15 1522.85 1812.21 1518.27 Q1815.28 1513.66 1821.09 1513.66 Z" fill="#000000" fill-rule="evenodd" fill-opacity="1" /><path clip-path="url(#clip420)" d="M2055.72 1544.91 L2063.36 1544.91 L2063.36 1518.55 L2055.05 1520.21 L2055.05 1515.95 L2063.31 1514.29 L2067.99 1514.29 L2067.99 1544.91 L2075.63 1544.91 L2075.63 1548.85 L2055.72 1548.85 L2055.72 1544.91 Z" fill="#000000" fill-rule="evenodd" fill-opacity="1" /><path clip-path="url(#clip420)" d="M2089.1 1544.91 L2105.42 1544.91 L2105.42 1548.85 L2083.48 1548.85 L2083.48 1544.91 Q2086.14 1542.16 2090.72 1537.53 Q2095.33 1532.88 2096.51 1531.53 Q2098.75 1529.01 2099.63 1527.27 Q2100.54 1525.51 2100.54 1523.82 Q2100.54 1521.07 2098.59 1519.33 Q2096.67 1517.6 2093.57 1517.6 Q2091.37 1517.6 2088.92 1518.36 Q2086.48 1519.13 2083.71 1520.68 L2083.71 1515.95 Q2086.53 1514.82 2088.98 1514.24 Q2091.44 1513.66 2093.48 1513.66 Q2098.85 1513.66 2102.04 1516.35 Q2105.23 1519.03 2105.23 1523.52 Q2105.23 1525.65 2104.42 1527.57 Q2103.64 1529.47 2101.53 1532.07 Q2100.95 1532.74 2097.85 1535.95 Q2094.75 1539.15 2089.1 1544.91 Z" fill="#000000" fill-rule="evenodd" fill-opacity="1" /><polyline clip-path="url(#clip422)" style="stroke:#000000; stroke-linecap:butt; stroke-linejoin:round; stroke-width:2; stroke-opacity:0.1; fill:none" points="
  186.274,1447.88 2352.76,1447.88 
  "/>
<polyline clip-path="url(#clip422)" style="stroke:#000000; stroke-linecap:butt; stroke-linejoin:round; stroke-width:2; stroke-opacity:0.1; fill:none" points="
  186.274,1195.77 2352.76,1195.77 
  "/>
<polyline clip-path="url(#clip422)" style="stroke:#000000; stroke-linecap:butt; stroke-linejoin:round; stroke-width:2; stroke-opacity:0.1; fill:none" points="
  186.274,943.668 2352.76,943.668 
  "/>
<polyline clip-path="url(#clip422)" style="stroke:#000000; stroke-linecap:butt; stroke-linejoin:round; stroke-width:2; stroke-opacity:0.1; fill:none" points="
  186.274,691.562 2352.76,691.562 
  "/>
<polyline clip-path="url(#clip422)" style="stroke:#000000; stroke-linecap:butt; stroke-linejoin:round; stroke-width:2; stroke-opacity:0.1; fill:none" points="
  186.274,439.457 2352.76,439.457 
  "/>
<polyline clip-path="url(#clip422)" style="stroke:#000000; stroke-linecap:butt; stroke-linejoin:round; stroke-width:2; stroke-opacity:0.1; fill:none" points="
  186.274,187.352 2352.76,187.352 
  "/>
<polyline clip-path="url(#clip420)" style="stroke:#000000; stroke-linecap:butt; stroke-linejoin:round; stroke-width:4; stroke-opacity:1; fill:none" points="
  186.274,1486.45 186.274,123.472 
  "/>
<polyline clip-path="url(#clip420)" style="stroke:#000000; stroke-linecap:butt; stroke-linejoin:round; stroke-width:4; stroke-opacity:1; fill:none" points="
  186.274,1447.88 205.172,1447.88 
  "/>
<polyline clip-path="url(#clip420)" style="stroke:#000000; stroke-linecap:butt; stroke-linejoin:round; stroke-width:4; stroke-opacity:1; fill:none" points="
  186.274,1195.77 205.172,1195.77 
  "/>
<polyline clip-path="url(#clip420)" style="stroke:#000000; stroke-linecap:butt; stroke-linejoin:round; stroke-width:4; stroke-opacity:1; fill:none" points="
  186.274,943.668 205.172,943.668 
  "/>
<polyline clip-path="url(#clip420)" style="stroke:#000000; stroke-linecap:butt; stroke-linejoin:round; stroke-width:4; stroke-opacity:1; fill:none" points="
  186.274,691.562 205.172,691.562 
  "/>
<polyline clip-path="url(#clip420)" style="stroke:#000000; stroke-linecap:butt; stroke-linejoin:round; stroke-width:4; stroke-opacity:1; fill:none" points="
  186.274,439.457 205.172,439.457 
  "/>
<polyline clip-path="url(#clip420)" style="stroke:#000000; stroke-linecap:butt; stroke-linejoin:round; stroke-width:4; stroke-opacity:1; fill:none" points="
  186.274,187.352 205.172,187.352 
  "/>
<path clip-path="url(#clip420)" d="M62.9365 1433.68 Q59.3254 1433.68 57.4967 1437.24 Q55.6912 1440.78 55.6912 1447.91 Q55.6912 1455.02 57.4967 1458.58 Q59.3254 1462.13 62.9365 1462.13 Q66.5707 1462.13 68.3763 1458.58 Q70.205 1455.02 70.205 1447.91 Q70.205 1440.78 68.3763 1437.24 Q66.5707 1433.68 62.9365 1433.68 M62.9365 1429.97 Q68.7467 1429.97 71.8022 1434.58 Q74.8809 1439.16 74.8809 1447.91 Q74.8809 1456.64 71.8022 1461.25 Q68.7467 1465.83 62.9365 1465.83 Q57.1264 1465.83 54.0477 1461.25 Q50.9921 1456.64 50.9921 1447.91 Q50.9921 1439.16 54.0477 1434.58 Q57.1264 1429.97 62.9365 1429.97 Z" fill="#000000" fill-rule="evenodd" fill-opacity="1" /><path clip-path="url(#clip420)" d="M83.0984 1459.28 L87.9827 1459.28 L87.9827 1465.16 L83.0984 1465.16 L83.0984 1459.28 Z" fill="#000000" fill-rule="evenodd" fill-opacity="1" /><path clip-path="url(#clip420)" d="M108.168 1433.68 Q104.557 1433.68 102.728 1437.24 Q100.922 1440.78 100.922 1447.91 Q100.922 1455.02 102.728 1458.58 Q104.557 1462.13 108.168 1462.13 Q111.802 1462.13 113.608 1458.58 Q115.436 1455.02 115.436 1447.91 Q115.436 1440.78 113.608 1437.24 Q111.802 1433.68 108.168 1433.68 M108.168 1429.97 Q113.978 1429.97 117.033 1434.58 Q120.112 1439.16 120.112 1447.91 Q120.112 1456.64 117.033 1461.25 Q113.978 1465.83 108.168 1465.83 Q102.358 1465.83 99.2789 1461.25 Q96.2234 1456.64 96.2234 1447.91 Q96.2234 1439.16 99.2789 1434.58 Q102.358 1429.97 108.168 1429.97 Z" fill="#000000" fill-rule="evenodd" fill-opacity="1" /><path clip-path="url(#clip420)" d="M138.33 1433.68 Q134.719 1433.68 132.89 1437.24 Q131.084 1440.78 131.084 1447.91 Q131.084 1455.02 132.89 1458.58 Q134.719 1462.13 138.33 1462.13 Q141.964 1462.13 143.769 1458.58 Q145.598 1455.02 145.598 1447.91 Q145.598 1440.78 143.769 1437.24 Q141.964 1433.68 138.33 1433.68 M138.33 1429.97 Q144.14 1429.97 147.195 1434.58 Q150.274 1439.16 150.274 1447.91 Q150.274 1456.64 147.195 1461.25 Q144.14 1465.83 138.33 1465.83 Q132.519 1465.83 129.441 1461.25 Q126.385 1456.64 126.385 1447.91 Q126.385 1439.16 129.441 1434.58 Q132.519 1429.97 138.33 1429.97 Z" fill="#000000" fill-rule="evenodd" fill-opacity="1" /><path clip-path="url(#clip420)" d="M63.9319 1181.57 Q60.3208 1181.57 58.4921 1185.14 Q56.6865 1188.68 56.6865 1195.81 Q56.6865 1202.91 58.4921 1206.48 Q60.3208 1210.02 63.9319 1210.02 Q67.5661 1210.02 69.3717 1206.48 Q71.2004 1202.91 71.2004 1195.81 Q71.2004 1188.68 69.3717 1185.14 Q67.5661 1181.57 63.9319 1181.57 M63.9319 1177.87 Q69.742 1177.87 72.7976 1182.47 Q75.8763 1187.06 75.8763 1195.81 Q75.8763 1204.53 72.7976 1209.14 Q69.742 1213.72 63.9319 1213.72 Q58.1217 1213.72 55.043 1209.14 Q51.9875 1204.53 51.9875 1195.81 Q51.9875 1187.06 55.043 1182.47 Q58.1217 1177.87 63.9319 1177.87 Z" fill="#000000" fill-rule="evenodd" fill-opacity="1" /><path clip-path="url(#clip420)" d="M84.0938 1207.17 L88.978 1207.17 L88.978 1213.05 L84.0938 1213.05 L84.0938 1207.17 Z" fill="#000000" fill-rule="evenodd" fill-opacity="1" /><path clip-path="url(#clip420)" d="M109.163 1181.57 Q105.552 1181.57 103.723 1185.14 Q101.918 1188.68 101.918 1195.81 Q101.918 1202.91 103.723 1206.48 Q105.552 1210.02 109.163 1210.02 Q112.797 1210.02 114.603 1206.48 Q116.432 1202.91 116.432 1195.81 Q116.432 1188.68 114.603 1185.14 Q112.797 1181.57 109.163 1181.57 M109.163 1177.87 Q114.973 1177.87 118.029 1182.47 Q121.107 1187.06 121.107 1195.81 Q121.107 1204.53 118.029 1209.14 Q114.973 1213.72 109.163 1213.72 Q103.353 1213.72 100.274 1209.14 Q97.2187 1204.53 97.2187 1195.81 Q97.2187 1187.06 100.274 1182.47 Q103.353 1177.87 109.163 1177.87 Z" fill="#000000" fill-rule="evenodd" fill-opacity="1" /><path clip-path="url(#clip420)" d="M129.371 1178.49 L147.728 1178.49 L147.728 1182.43 L133.654 1182.43 L133.654 1190.9 Q134.672 1190.55 135.691 1190.39 Q136.709 1190.21 137.728 1190.21 Q143.515 1190.21 146.894 1193.38 Q150.274 1196.55 150.274 1201.96 Q150.274 1207.54 146.802 1210.65 Q143.33 1213.72 137.01 1213.72 Q134.834 1213.72 132.566 1213.35 Q130.32 1212.98 127.913 1212.24 L127.913 1207.54 Q129.996 1208.68 132.219 1209.23 Q134.441 1209.79 136.918 1209.79 Q140.922 1209.79 143.26 1207.68 Q145.598 1205.58 145.598 1201.96 Q145.598 1198.35 143.26 1196.25 Q140.922 1194.14 136.918 1194.14 Q135.043 1194.14 133.168 1194.56 Q131.316 1194.97 129.371 1195.85 L129.371 1178.49 Z" fill="#000000" fill-rule="evenodd" fill-opacity="1" /><path clip-path="url(#clip420)" d="M62.9365 929.466 Q59.3254 929.466 57.4967 933.031 Q55.6912 936.573 55.6912 943.702 Q55.6912 950.809 57.4967 954.374 Q59.3254 957.915 62.9365 957.915 Q66.5707 957.915 68.3763 954.374 Q70.205 950.809 70.205 943.702 Q70.205 936.573 68.3763 933.031 Q66.5707 929.466 62.9365 929.466 M62.9365 925.763 Q68.7467 925.763 71.8022 930.369 Q74.8809 934.952 74.8809 943.702 Q74.8809 952.429 71.8022 957.036 Q68.7467 961.619 62.9365 961.619 Q57.1264 961.619 54.0477 957.036 Q50.9921 952.429 50.9921 943.702 Q50.9921 934.952 54.0477 930.369 Q57.1264 925.763 62.9365 925.763 Z" fill="#000000" fill-rule="evenodd" fill-opacity="1" /><path clip-path="url(#clip420)" d="M83.0984 955.068 L87.9827 955.068 L87.9827 960.948 L83.0984 960.948 L83.0984 955.068 Z" fill="#000000" fill-rule="evenodd" fill-opacity="1" /><path clip-path="url(#clip420)" d="M98.978 957.012 L106.617 957.012 L106.617 930.647 L98.3067 932.314 L98.3067 928.054 L106.571 926.388 L111.246 926.388 L111.246 957.012 L118.885 957.012 L118.885 960.948 L98.978 960.948 L98.978 957.012 Z" fill="#000000" fill-rule="evenodd" fill-opacity="1" /><path clip-path="url(#clip420)" d="M138.33 929.466 Q134.719 929.466 132.89 933.031 Q131.084 936.573 131.084 943.702 Q131.084 950.809 132.89 954.374 Q134.719 957.915 138.33 957.915 Q141.964 957.915 143.769 954.374 Q145.598 950.809 145.598 943.702 Q145.598 936.573 143.769 933.031 Q141.964 929.466 138.33 929.466 M138.33 925.763 Q144.14 925.763 147.195 930.369 Q150.274 934.952 150.274 943.702 Q150.274 952.429 147.195 957.036 Q144.14 961.619 138.33 961.619 Q132.519 961.619 129.441 957.036 Q126.385 952.429 126.385 943.702 Q126.385 934.952 129.441 930.369 Q132.519 925.763 138.33 925.763 Z" fill="#000000" fill-rule="evenodd" fill-opacity="1" /><path clip-path="url(#clip420)" d="M63.9319 677.361 Q60.3208 677.361 58.4921 680.926 Q56.6865 684.468 56.6865 691.597 Q56.6865 698.704 58.4921 702.268 Q60.3208 705.81 63.9319 705.81 Q67.5661 705.81 69.3717 702.268 Q71.2004 698.704 71.2004 691.597 Q71.2004 684.468 69.3717 680.926 Q67.5661 677.361 63.9319 677.361 M63.9319 673.657 Q69.742 673.657 72.7976 678.264 Q75.8763 682.847 75.8763 691.597 Q75.8763 700.324 72.7976 704.93 Q69.742 709.514 63.9319 709.514 Q58.1217 709.514 55.043 704.93 Q51.9875 700.324 51.9875 691.597 Q51.9875 682.847 55.043 678.264 Q58.1217 673.657 63.9319 673.657 Z" fill="#000000" fill-rule="evenodd" fill-opacity="1" /><path clip-path="url(#clip420)" d="M84.0938 702.963 L88.978 702.963 L88.978 708.842 L84.0938 708.842 L84.0938 702.963 Z" fill="#000000" fill-rule="evenodd" fill-opacity="1" /><path clip-path="url(#clip420)" d="M99.9733 704.907 L107.612 704.907 L107.612 678.542 L99.3021 680.208 L99.3021 675.949 L107.566 674.282 L112.242 674.282 L112.242 704.907 L119.881 704.907 L119.881 708.842 L99.9733 708.842 L99.9733 704.907 Z" fill="#000000" fill-rule="evenodd" fill-opacity="1" /><path clip-path="url(#clip420)" d="M129.371 674.282 L147.728 674.282 L147.728 678.218 L133.654 678.218 L133.654 686.69 Q134.672 686.343 135.691 686.181 Q136.709 685.995 137.728 685.995 Q143.515 685.995 146.894 689.167 Q150.274 692.338 150.274 697.755 Q150.274 703.333 146.802 706.435 Q143.33 709.514 137.01 709.514 Q134.834 709.514 132.566 709.143 Q130.32 708.773 127.913 708.032 L127.913 703.333 Q129.996 704.467 132.219 705.023 Q134.441 705.579 136.918 705.579 Q140.922 705.579 143.26 703.472 Q145.598 701.366 145.598 697.755 Q145.598 694.143 143.26 692.037 Q140.922 689.93 136.918 689.93 Q135.043 689.93 133.168 690.347 Q131.316 690.764 129.371 691.643 L129.371 674.282 Z" fill="#000000" fill-rule="evenodd" fill-opacity="1" /><path clip-path="url(#clip420)" d="M62.9365 425.256 Q59.3254 425.256 57.4967 428.821 Q55.6912 432.362 55.6912 439.492 Q55.6912 446.598 57.4967 450.163 Q59.3254 453.705 62.9365 453.705 Q66.5707 453.705 68.3763 450.163 Q70.205 446.598 70.205 439.492 Q70.205 432.362 68.3763 428.821 Q66.5707 425.256 62.9365 425.256 M62.9365 421.552 Q68.7467 421.552 71.8022 426.159 Q74.8809 430.742 74.8809 439.492 Q74.8809 448.219 71.8022 452.825 Q68.7467 457.409 62.9365 457.409 Q57.1264 457.409 54.0477 452.825 Q50.9921 448.219 50.9921 439.492 Q50.9921 430.742 54.0477 426.159 Q57.1264 421.552 62.9365 421.552 Z" fill="#000000" fill-rule="evenodd" fill-opacity="1" /><path clip-path="url(#clip420)" d="M83.0984 450.858 L87.9827 450.858 L87.9827 456.737 L83.0984 456.737 L83.0984 450.858 Z" fill="#000000" fill-rule="evenodd" fill-opacity="1" /><path clip-path="url(#clip420)" d="M102.196 452.802 L118.515 452.802 L118.515 456.737 L96.5706 456.737 L96.5706 452.802 Q99.2326 450.047 103.816 445.418 Q108.422 440.765 109.603 439.423 Q111.848 436.899 112.728 435.163 Q113.631 433.404 113.631 431.714 Q113.631 428.96 111.686 427.223 Q109.765 425.487 106.663 425.487 Q104.464 425.487 102.01 426.251 Q99.5798 427.015 96.8021 428.566 L96.8021 423.844 Q99.6261 422.71 102.08 422.131 Q104.534 421.552 106.571 421.552 Q111.941 421.552 115.135 424.237 Q118.33 426.923 118.33 431.413 Q118.33 433.543 117.52 435.464 Q116.733 437.362 114.626 439.955 Q114.047 440.626 110.946 443.844 Q107.844 447.038 102.196 452.802 Z" fill="#000000" fill-rule="evenodd" fill-opacity="1" /><path clip-path="url(#clip420)" d="M138.33 425.256 Q134.719 425.256 132.89 428.821 Q131.084 432.362 131.084 439.492 Q131.084 446.598 132.89 450.163 Q134.719 453.705 138.33 453.705 Q141.964 453.705 143.769 450.163 Q145.598 446.598 145.598 439.492 Q145.598 432.362 143.769 428.821 Q141.964 425.256 138.33 425.256 M138.33 421.552 Q144.14 421.552 147.195 426.159 Q150.274 430.742 150.274 439.492 Q150.274 448.219 147.195 452.825 Q144.14 457.409 138.33 457.409 Q132.519 457.409 129.441 452.825 Q126.385 448.219 126.385 439.492 Q126.385 430.742 129.441 426.159 Q132.519 421.552 138.33 421.552 Z" fill="#000000" fill-rule="evenodd" fill-opacity="1" /><path clip-path="url(#clip420)" d="M63.9319 173.151 Q60.3208 173.151 58.4921 176.716 Q56.6865 180.257 56.6865 187.387 Q56.6865 194.493 58.4921 198.058 Q60.3208 201.6 63.9319 201.6 Q67.5661 201.6 69.3717 198.058 Q71.2004 194.493 71.2004 187.387 Q71.2004 180.257 69.3717 176.716 Q67.5661 173.151 63.9319 173.151 M63.9319 169.447 Q69.742 169.447 72.7976 174.053 Q75.8763 178.637 75.8763 187.387 Q75.8763 196.114 72.7976 200.72 Q69.742 205.303 63.9319 205.303 Q58.1217 205.303 55.043 200.72 Q51.9875 196.114 51.9875 187.387 Q51.9875 178.637 55.043 174.053 Q58.1217 169.447 63.9319 169.447 Z" fill="#000000" fill-rule="evenodd" fill-opacity="1" /><path clip-path="url(#clip420)" d="M84.0938 198.752 L88.978 198.752 L88.978 204.632 L84.0938 204.632 L84.0938 198.752 Z" fill="#000000" fill-rule="evenodd" fill-opacity="1" /><path clip-path="url(#clip420)" d="M103.191 200.697 L119.51 200.697 L119.51 204.632 L97.566 204.632 L97.566 200.697 Q100.228 197.942 104.811 193.313 Q109.418 188.66 110.598 187.317 Q112.844 184.794 113.723 183.058 Q114.626 181.299 114.626 179.609 Q114.626 176.854 112.682 175.118 Q110.76 173.382 107.658 173.382 Q105.459 173.382 103.006 174.146 Q100.575 174.91 97.7974 176.461 L97.7974 171.739 Q100.621 170.604 103.075 170.026 Q105.529 169.447 107.566 169.447 Q112.936 169.447 116.131 172.132 Q119.325 174.817 119.325 179.308 Q119.325 181.438 118.515 183.359 Q117.728 185.257 115.621 187.85 Q115.043 188.521 111.941 191.739 Q108.839 194.933 103.191 200.697 Z" fill="#000000" fill-rule="evenodd" fill-opacity="1" /><path clip-path="url(#clip420)" d="M129.371 170.072 L147.728 170.072 L147.728 174.007 L133.654 174.007 L133.654 182.479 Q134.672 182.132 135.691 181.97 Q136.709 181.785 137.728 181.785 Q143.515 181.785 146.894 184.956 Q150.274 188.127 150.274 193.544 Q150.274 199.123 146.802 202.225 Q143.33 205.303 137.01 205.303 Q134.834 205.303 132.566 204.933 Q130.32 204.563 127.913 203.822 L127.913 199.123 Q129.996 200.257 132.219 200.813 Q134.441 201.368 136.918 201.368 Q140.922 201.368 143.26 199.262 Q145.598 197.155 145.598 193.544 Q145.598 189.933 143.26 187.827 Q140.922 185.72 136.918 185.72 Q135.043 185.72 133.168 186.137 Q131.316 186.553 129.371 187.433 L129.371 170.072 Z" fill="#000000" fill-rule="evenodd" fill-opacity="1" /><path clip-path="url(#clip420)" d="M708.971 12.096 L717.154 12.096 L717.154 65.6895 L746.604 65.6895 L746.604 72.576 L708.971 72.576 L708.971 12.096 Z" fill="#000000" fill-rule="evenodd" fill-opacity="1" /><path clip-path="url(#clip420)" d="M775.487 49.7694 Q766.453 49.7694 762.97 51.8354 Q759.486 53.9013 759.486 58.8839 Q759.486 62.8538 762.078 65.2034 Q764.712 67.5124 769.208 67.5124 Q775.406 67.5124 779.133 63.1374 Q782.9 58.7219 782.9 51.4303 L782.9 49.7694 L775.487 49.7694 M790.354 46.6907 L790.354 72.576 L782.9 72.576 L782.9 65.6895 Q780.348 69.8214 776.54 71.8063 Q772.732 73.7508 767.223 73.7508 Q760.256 73.7508 756.124 69.8619 Q752.032 65.9325 752.032 59.3701 Q752.032 51.7138 757.136 47.825 Q762.281 43.9361 772.449 43.9361 L782.9 43.9361 L782.9 43.2069 Q782.9 38.0623 779.497 35.2672 Q776.135 32.4315 770.018 32.4315 Q766.129 32.4315 762.443 33.3632 Q758.757 34.295 755.354 36.1584 L755.354 29.2718 Q759.445 27.692 763.294 26.9223 Q767.142 26.1121 770.788 26.1121 Q780.632 26.1121 785.493 31.2163 Q790.354 36.3204 790.354 46.6907 Z" fill="#000000" fill-rule="evenodd" fill-opacity="1" /><path clip-path="url(#clip420)" d="M801.372 27.2059 L808.826 27.2059 L818.143 62.6108 L827.42 27.2059 L836.21 27.2059 L845.527 62.6108 L854.804 27.2059 L862.257 27.2059 L850.388 72.576 L841.598 72.576 L831.835 35.3887 L822.032 72.576 L813.241 72.576 L801.372 27.2059 Z" fill="#000000" fill-rule="evenodd" fill-opacity="1" /><path clip-path="url(#clip420)" d="M938.738 48.0275 L938.738 51.6733 L904.468 51.6733 Q904.954 59.3701 909.086 63.421 Q913.258 67.4314 920.671 67.4314 Q924.965 67.4314 928.976 66.3781 Q933.027 65.3249 936.996 63.2184 L936.996 70.267 Q932.986 71.9684 928.773 72.8596 Q924.56 73.7508 920.226 73.7508 Q909.369 73.7508 903.009 67.4314 Q896.69 61.1119 896.69 50.3365 Q896.69 39.1965 902.685 32.6746 Q908.721 26.1121 918.929 26.1121 Q928.084 26.1121 933.391 32.0264 Q938.738 37.9003 938.738 48.0275 M931.285 45.84 Q931.204 39.7232 927.841 36.0774 Q924.52 32.4315 919.01 32.4315 Q912.772 32.4315 909.005 35.9558 Q905.278 39.4801 904.711 45.8805 L931.285 45.84 Z" fill="#000000" fill-rule="evenodd" fill-opacity="1" /><path clip-path="url(#clip420)" d="M973.941 9.54393 L973.941 15.7418 L966.811 15.7418 Q962.801 15.7418 961.221 17.3622 Q959.682 18.9825 959.682 23.1955 L959.682 27.2059 L971.956 27.2059 L971.956 32.9987 L959.682 32.9987 L959.682 72.576 L952.187 72.576 L952.187 32.9987 L945.058 32.9987 L945.058 27.2059 L952.187 27.2059 L952.187 24.0462 Q952.187 16.471 955.712 13.0277 Q959.236 9.54393 966.892 9.54393 L973.941 9.54393 Z" fill="#000000" fill-rule="evenodd" fill-opacity="1" /><path clip-path="url(#clip420)" d="M1003.15 9.54393 L1003.15 15.7418 L996.018 15.7418 Q992.008 15.7418 990.428 17.3622 Q988.889 18.9825 988.889 23.1955 L988.889 27.2059 L1001.16 27.2059 L1001.16 32.9987 L988.889 32.9987 L988.889 72.576 L981.394 72.576 L981.394 32.9987 L974.265 32.9987 L974.265 27.2059 L981.394 27.2059 L981.394 24.0462 Q981.394 16.471 984.919 13.0277 Q988.443 9.54393 996.099 9.54393 L1003.15 9.54393 Z" fill="#000000" fill-rule="evenodd" fill-opacity="1" /><path clip-path="url(#clip420)" d="M1048.19 48.0275 L1048.19 51.6733 L1013.92 51.6733 Q1014.41 59.3701 1018.54 63.421 Q1022.71 67.4314 1030.13 67.4314 Q1034.42 67.4314 1038.43 66.3781 Q1042.48 65.3249 1046.45 63.2184 L1046.45 70.267 Q1042.44 71.9684 1038.23 72.8596 Q1034.02 73.7508 1029.68 73.7508 Q1018.82 73.7508 1012.46 67.4314 Q1006.15 61.1119 1006.15 50.3365 Q1006.15 39.1965 1012.14 32.6746 Q1018.18 26.1121 1028.38 26.1121 Q1037.54 26.1121 1042.85 32.0264 Q1048.19 37.9003 1048.19 48.0275 M1040.74 45.84 Q1040.66 39.7232 1037.3 36.0774 Q1033.98 32.4315 1028.47 32.4315 Q1022.23 32.4315 1018.46 35.9558 Q1014.73 39.4801 1014.17 45.8805 L1040.74 45.84 Z" fill="#000000" fill-rule="evenodd" fill-opacity="1" /><path clip-path="url(#clip420)" d="M1093.08 28.9478 L1093.08 35.9153 Q1089.92 34.1734 1086.72 33.3227 Q1083.56 32.4315 1080.32 32.4315 Q1073.07 32.4315 1069.06 37.0496 Q1065.05 41.6271 1065.05 49.9314 Q1065.05 58.2358 1069.06 62.8538 Q1073.07 67.4314 1080.32 67.4314 Q1083.56 67.4314 1086.72 66.5807 Q1089.92 65.6895 1093.08 63.9476 L1093.08 70.8341 Q1089.96 72.2924 1086.6 73.0216 Q1083.27 73.7508 1079.51 73.7508 Q1069.26 73.7508 1063.22 67.3098 Q1057.19 60.8689 1057.19 49.9314 Q1057.19 38.832 1063.26 32.472 Q1069.38 26.1121 1079.99 26.1121 Q1083.44 26.1121 1086.72 26.8413 Q1090 27.5299 1093.08 28.9478 Z" fill="#000000" fill-rule="evenodd" fill-opacity="1" /><path clip-path="url(#clip420)" d="M1113.41 14.324 L1113.41 27.2059 L1128.77 27.2059 L1128.77 32.9987 L1113.41 32.9987 L1113.41 57.6282 Q1113.41 63.1779 1114.91 64.7578 Q1116.45 66.3376 1121.11 66.3376 L1128.77 66.3376 L1128.77 72.576 L1121.11 72.576 Q1112.48 72.576 1109.2 69.3758 Q1105.92 66.1351 1105.92 57.6282 L1105.92 32.9987 L1100.45 32.9987 L1100.45 27.2059 L1105.92 27.2059 L1105.92 14.324 L1113.41 14.324 Z" fill="#000000" fill-rule="evenodd" fill-opacity="1" /><path clip-path="url(#clip420)" d="M1182.52 32.4315 Q1176.53 32.4315 1173.04 37.1306 Q1169.56 41.7891 1169.56 49.9314 Q1169.56 58.0738 1173 62.7728 Q1176.49 67.4314 1182.52 67.4314 Q1188.48 67.4314 1191.96 62.7323 Q1195.44 58.0333 1195.44 49.9314 Q1195.44 41.8701 1191.96 37.1711 Q1188.48 32.4315 1182.52 32.4315 M1182.52 26.1121 Q1192.24 26.1121 1197.79 32.4315 Q1203.34 38.7509 1203.34 49.9314 Q1203.34 61.0714 1197.79 67.4314 Q1192.24 73.7508 1182.52 73.7508 Q1172.76 73.7508 1167.21 67.4314 Q1161.7 61.0714 1161.7 49.9314 Q1161.7 38.7509 1167.21 32.4315 Q1172.76 26.1121 1182.52 26.1121 Z" fill="#000000" fill-rule="evenodd" fill-opacity="1" /><path clip-path="url(#clip420)" d="M1253.41 45.1919 L1253.41 72.576 L1245.96 72.576 L1245.96 45.4349 Q1245.96 38.994 1243.45 35.7938 Q1240.94 32.5936 1235.91 32.5936 Q1229.88 32.5936 1226.39 36.4419 Q1222.91 40.2903 1222.91 46.9338 L1222.91 72.576 L1215.42 72.576 L1215.42 27.2059 L1222.91 27.2059 L1222.91 34.2544 Q1225.58 30.163 1229.19 28.1376 Q1232.83 26.1121 1237.57 26.1121 Q1245.39 26.1121 1249.4 30.9732 Q1253.41 35.7938 1253.41 45.1919 Z" fill="#000000" fill-rule="evenodd" fill-opacity="1" /><path clip-path="url(#clip420)" d="M1297.2 28.5427 L1297.2 35.5912 Q1294.04 33.9709 1290.64 33.1607 Q1287.24 32.3505 1283.59 32.3505 Q1278.04 32.3505 1275.25 34.0519 Q1272.49 35.7533 1272.49 39.156 Q1272.49 41.7486 1274.48 43.2475 Q1276.46 44.7058 1282.46 46.0426 L1285.01 46.6097 Q1292.95 48.3111 1296.27 51.4303 Q1299.63 54.509 1299.63 60.0587 Q1299.63 66.3781 1294.61 70.0644 Q1289.63 73.7508 1280.88 73.7508 Q1277.23 73.7508 1273.26 73.0216 Q1269.33 72.3329 1264.96 70.9151 L1264.96 63.2184 Q1269.09 65.3654 1273.1 66.4591 Q1277.11 67.5124 1281.04 67.5124 Q1286.31 67.5124 1289.14 65.73 Q1291.98 63.9071 1291.98 60.6258 Q1291.98 57.5877 1289.91 55.9673 Q1287.89 54.3469 1280.96 52.8481 L1278.37 52.2405 Q1271.44 50.7821 1268.36 47.7845 Q1265.28 44.7463 1265.28 39.4801 Q1265.28 33.0797 1269.82 29.5959 Q1274.36 26.1121 1282.7 26.1121 Q1286.83 26.1121 1290.48 26.7198 Q1294.12 27.3274 1297.2 28.5427 Z" fill="#000000" fill-rule="evenodd" fill-opacity="1" /><path clip-path="url(#clip420)" d="M1350.31 48.0275 L1350.31 51.6733 L1316.04 51.6733 Q1316.53 59.3701 1320.66 63.421 Q1324.83 67.4314 1332.24 67.4314 Q1336.54 67.4314 1340.55 66.3781 Q1344.6 65.3249 1348.57 63.2184 L1348.57 70.267 Q1344.56 71.9684 1340.35 72.8596 Q1336.13 73.7508 1331.8 73.7508 Q1320.94 73.7508 1314.58 67.4314 Q1308.26 61.1119 1308.26 50.3365 Q1308.26 39.1965 1314.26 32.6746 Q1320.29 26.1121 1330.5 26.1121 Q1339.66 26.1121 1344.96 32.0264 Q1350.31 37.9003 1350.31 48.0275 M1342.86 45.84 Q1342.78 39.7232 1339.41 36.0774 Q1336.09 32.4315 1330.58 32.4315 Q1324.34 32.4315 1320.58 35.9558 Q1316.85 39.4801 1316.28 45.8805 L1342.86 45.84 Z" fill="#000000" fill-rule="evenodd" fill-opacity="1" /><path clip-path="url(#clip420)" d="M1369.92 14.324 L1369.92 27.2059 L1385.27 27.2059 L1385.27 32.9987 L1369.92 32.9987 L1369.92 57.6282 Q1369.92 63.1779 1371.42 64.7578 Q1372.95 66.3376 1377.61 66.3376 L1385.27 66.3376 L1385.27 72.576 L1377.61 72.576 Q1368.98 72.576 1365.7 69.3758 Q1362.42 66.1351 1362.42 57.6282 L1362.42 32.9987 L1356.95 32.9987 L1356.95 27.2059 L1362.42 27.2059 L1362.42 14.324 L1369.92 14.324 Z" fill="#000000" fill-rule="evenodd" fill-opacity="1" /><path clip-path="url(#clip420)" d="M1447.73 34.1734 Q1446.48 33.4443 1444.98 33.1202 Q1443.52 32.7556 1441.74 32.7556 Q1435.42 32.7556 1432.02 36.8875 Q1428.65 40.9789 1428.65 48.6757 L1428.65 72.576 L1421.16 72.576 L1421.16 27.2059 L1428.65 27.2059 L1428.65 34.2544 Q1431 30.1225 1434.77 28.1376 Q1438.54 26.1121 1443.93 26.1121 Q1444.7 26.1121 1445.63 26.2337 Q1446.56 26.3147 1447.69 26.5172 L1447.73 34.1734 Z" fill="#000000" fill-rule="evenodd" fill-opacity="1" /><path clip-path="url(#clip420)" d="M1476.17 49.7694 Q1467.14 49.7694 1463.65 51.8354 Q1460.17 53.9013 1460.17 58.8839 Q1460.17 62.8538 1462.76 65.2034 Q1465.4 67.5124 1469.89 67.5124 Q1476.09 67.5124 1479.82 63.1374 Q1483.58 58.7219 1483.58 51.4303 L1483.58 49.7694 L1476.17 49.7694 M1491.04 46.6907 L1491.04 72.576 L1483.58 72.576 L1483.58 65.6895 Q1481.03 69.8214 1477.23 71.8063 Q1473.42 73.7508 1467.91 73.7508 Q1460.94 73.7508 1456.81 69.8619 Q1452.72 65.9325 1452.72 59.3701 Q1452.72 51.7138 1457.82 47.825 Q1462.97 43.9361 1473.13 43.9361 L1483.58 43.9361 L1483.58 43.2069 Q1483.58 38.0623 1480.18 35.2672 Q1476.82 32.4315 1470.7 32.4315 Q1466.81 32.4315 1463.13 33.3632 Q1459.44 34.295 1456.04 36.1584 L1456.04 29.2718 Q1460.13 27.692 1463.98 26.9223 Q1467.83 26.1121 1471.47 26.1121 Q1481.32 26.1121 1486.18 31.2163 Q1491.04 36.3204 1491.04 46.6907 Z" fill="#000000" fill-rule="evenodd" fill-opacity="1" /><path clip-path="url(#clip420)" d="M1513.76 14.324 L1513.76 27.2059 L1529.12 27.2059 L1529.12 32.9987 L1513.76 32.9987 L1513.76 57.6282 Q1513.76 63.1779 1515.26 64.7578 Q1516.8 66.3376 1521.46 66.3376 L1529.12 66.3376 L1529.12 72.576 L1521.46 72.576 Q1512.83 72.576 1509.55 69.3758 Q1506.27 66.1351 1506.27 57.6282 L1506.27 32.9987 L1500.8 32.9987 L1500.8 27.2059 L1506.27 27.2059 L1506.27 14.324 L1513.76 14.324 Z" fill="#000000" fill-rule="evenodd" fill-opacity="1" /><path clip-path="url(#clip420)" d="M1577.73 48.0275 L1577.73 51.6733 L1543.46 51.6733 Q1543.94 59.3701 1548.08 63.421 Q1552.25 67.4314 1559.66 67.4314 Q1563.95 67.4314 1567.97 66.3781 Q1572.02 65.3249 1575.99 63.2184 L1575.99 70.267 Q1571.98 71.9684 1567.76 72.8596 Q1563.55 73.7508 1559.22 73.7508 Q1548.36 73.7508 1542 67.4314 Q1535.68 61.1119 1535.68 50.3365 Q1535.68 39.1965 1541.67 32.6746 Q1547.71 26.1121 1557.92 26.1121 Q1567.07 26.1121 1572.38 32.0264 Q1577.73 37.9003 1577.73 48.0275 M1570.27 45.84 Q1570.19 39.7232 1566.83 36.0774 Q1563.51 32.4315 1558 32.4315 Q1551.76 32.4315 1547.99 35.9558 Q1544.27 39.4801 1543.7 45.8805 L1570.27 45.84 Z" fill="#000000" fill-rule="evenodd" fill-opacity="1" /><path clip-path="url(#clip420)" d="M1634.24 9.62495 Q1628.81 18.942 1626.18 28.0566 Q1623.54 37.1711 1623.54 46.5287 Q1623.54 55.8863 1626.18 65.0818 Q1628.85 74.2369 1634.24 83.5134 L1627.76 83.5134 Q1621.68 73.9938 1618.64 64.7983 Q1615.64 55.6027 1615.64 46.5287 Q1615.64 37.4952 1618.64 28.3401 Q1621.64 19.1851 1627.76 9.62495 L1634.24 9.62495 Z" fill="#000000" fill-rule="evenodd" fill-opacity="1" /><path clip-path="url(#clip420)" d="M1651.17 65.6895 L1664.54 65.6895 L1664.54 19.5497 L1650 22.4663 L1650 15.0127 L1664.46 12.096 L1672.64 12.096 L1672.64 65.6895 L1686.01 65.6895 L1686.01 72.576 L1651.17 72.576 L1651.17 65.6895 Z" fill="#000000" fill-rule="evenodd" fill-opacity="1" /><path clip-path="url(#clip420)" d="M1714.73 12.096 L1721.62 12.096 L1700.55 80.2727 L1693.66 80.2727 L1714.73 12.096 Z" fill="#000000" fill-rule="evenodd" fill-opacity="1" /><path clip-path="url(#clip420)" d="M1748.31 76.7889 Q1745.15 84.8907 1742.15 87.3618 Q1739.16 89.8329 1734.13 89.8329 L1728.18 89.8329 L1728.18 83.5945 L1732.55 83.5945 Q1735.63 83.5945 1737.33 82.1361 Q1739.04 80.6778 1741.1 75.2496 L1742.44 71.8468 L1724.09 27.2059 L1731.99 27.2059 L1746.16 62.6918 L1760.34 27.2059 L1768.24 27.2059 L1748.31 76.7889 Z" fill="#000000" fill-rule="evenodd" fill-opacity="1" /><path clip-path="url(#clip420)" d="M1804.82 34.1734 Q1803.57 33.4443 1802.07 33.1202 Q1800.61 32.7556 1798.83 32.7556 Q1792.51 32.7556 1789.1 36.8875 Q1785.74 40.9789 1785.74 48.6757 L1785.74 72.576 L1778.25 72.576 L1778.25 27.2059 L1785.74 27.2059 L1785.74 34.2544 Q1788.09 30.1225 1791.86 28.1376 Q1795.63 26.1121 1801.01 26.1121 Q1801.78 26.1121 1802.72 26.2337 Q1803.65 26.3147 1804.78 26.5172 L1804.82 34.1734 Z" fill="#000000" fill-rule="evenodd" fill-opacity="1" /><path clip-path="url(#clip420)" d="M1811.47 9.62495 L1817.95 9.62495 Q1824.02 19.1851 1827.02 28.3401 Q1830.06 37.4952 1830.06 46.5287 Q1830.06 55.6027 1827.02 64.7983 Q1824.02 73.9938 1817.95 83.5134 L1811.47 83.5134 Q1816.85 74.2369 1819.49 65.0818 Q1822.16 55.8863 1822.16 46.5287 Q1822.16 37.1711 1819.49 28.0566 Q1816.85 18.942 1811.47 9.62495 Z" fill="#000000" fill-rule="evenodd" fill-opacity="1" /><polyline clip-path="url(#clip422)" style="stroke:#009af9; stroke-linecap:butt; stroke-linejoin:round; stroke-width:4; stroke-opacity:1; fill:none" points="
  269.258,1447.87 278.774,1447.87 288.29,1447.87 297.806,1447.86 307.323,1447.84 316.839,1447.81 326.355,1447.76 335.871,1447.69 345.387,1447.57 354.903,1447.4 
  364.42,1447.14 373.936,1446.78 383.452,1446.27 392.968,1445.59 402.484,1444.67 412,1443.47 421.517,1441.93 431.033,1439.97 440.549,1437.52 450.065,1434.48 
  459.581,1430.71 469.097,1426.07 478.614,1420.36 488.13,1413.34 497.646,1404.73 507.162,1394.19 516.678,1381.36 526.194,1365.87 535.711,1347.31 545.227,1325.34 
  554.743,1299.63 564.259,1269.97 573.775,1236.21 583.291,1198.34 592.808,1156.48 602.324,1110.89 611.84,1061.93 621.356,1010.11 630.872,956.023 640.389,900.37 
  649.905,843.91 659.421,787.451 668.937,731.824 678.453,677.848 687.969,626.297 697.486,577.854 707.002,533.07 716.518,492.317 726.034,455.757 735.55,423.334 
  745.066,394.784 754.583,369.675 764.099,347.475 773.615,327.637 783.131,309.679 792.647,293.26 802.163,278.221 811.68,264.593 821.196,252.57 830.712,242.439 
  840.228,234.506 849.744,229.01 859.26,226.056 868.777,225.581 878.293,227.352 887.809,231.006 897.325,236.114 906.841,242.264 916.357,249.132 925.874,256.544 
  935.39,264.496 944.906,273.151 954.422,282.79 963.938,293.751 973.454,306.357 982.971,320.844 992.487,337.314 1002,355.708 1011.52,375.809 1021.04,397.268 
  1030.55,419.652 1040.07,442.499 1049.58,465.38 1059.1,487.949 1068.62,509.983 1078.13,531.405 1087.65,552.284 1097.16,572.821 1106.68,593.316 1116.2,614.127 
  1125.71,635.625 1135.23,658.154 1144.75,681.998 1154.26,707.354 1163.78,734.318 1173.29,762.876 1182.81,792.897 1192.33,824.134 1201.84,856.227 1211.36,888.712 
  1220.87,921.043 1230.39,952.623 1239.91,982.857 1249.42,1011.21 1258.94,1037.25 1268.46,1060.73 1277.97,1081.61 1287.49,1100.06 1297,1116.43 1306.52,1131.23 
  1316.04,1145.05 1325.55,1158.46 1335.07,1171.98 1344.59,1185.98 1354.1,1200.66 1363.62,1216.08 1373.13,1232.09 1382.65,1248.46 1392.17,1264.87 1401.68,1280.95 
  1411.2,1296.38 1420.71,1310.87 1430.23,1324.21 1439.75,1336.27 1449.26,1346.97 1458.78,1356.32 1468.3,1364.33 1477.81,1371.07 1487.33,1376.59 1496.84,1380.95 
  1506.36,1384.21 1515.88,1386.41 1525.39,1387.63 1534.91,1387.94 1544.42,1387.46 1553.94,1386.31 1563.46,1384.69 1572.97,1382.8 1582.49,1380.86 1592.01,1379.12 
  1601.52,1377.8 1611.04,1377.12 1620.55,1377.21 1630.07,1378.19 1639.59,1380.09 1649.1,1382.88 1658.62,1386.47 1668.13,1390.73 1677.65,1395.49 1687.17,1400.58 
  1696.68,1405.8 1706.2,1410.99 1715.72,1416.01 1725.23,1420.74 1734.75,1425.1 1744.26,1429.03 1753.78,1432.5 1763.3,1435.5 1772.81,1438.03 1782.33,1440.1 
  1791.84,1441.74 1801.36,1442.97 1810.88,1443.81 1820.39,1444.31 1829.91,1444.47 1839.43,1444.35 1848.94,1443.97 1858.46,1443.39 1867.97,1442.64 1877.49,1441.79 
  1887.01,1440.91 1896.52,1440.07 1906.04,1439.33 1915.56,1438.75 1925.07,1438.39 1934.59,1438.28 1944.1,1438.43 1953.62,1438.83 1963.14,1439.45 1972.65,1440.24 
  1982.17,1441.14 1991.68,1442.1 2001.2,1443.06 2010.72,1443.96 2020.23,1444.79 2029.75,1445.5 2039.27,1446.1 2048.78,1446.59 2058.3,1446.97 2067.81,1447.25 
  2077.33,1447.46 2086.85,1447.61 2096.36,1447.71 2105.88,1447.77 2115.39,1447.81 2124.91,1447.84 2134.43,1447.86 2143.94,1447.87 2153.46,1447.87 2162.98,1447.87 
  
  "/>
<polyline clip-path="url(#clip422)" style="stroke:#e26f46; stroke-linecap:butt; stroke-linejoin:round; stroke-width:4; stroke-opacity:1; fill:none" points="
  326.886,1447.87 335.198,1447.86 343.511,1447.86 351.823,1447.84 360.135,1447.81 368.447,1447.77 376.76,1447.7 385.072,1447.58 393.384,1447.4 401.696,1447.13 
  410.009,1446.73 418.321,1446.15 426.633,1445.31 434.945,1444.13 443.258,1442.5 451.57,1440.3 459.882,1437.37 468.194,1433.57 476.507,1428.7 484.819,1422.59 
  493.131,1415.04 501.444,1405.9 509.756,1395 518.068,1382.2 526.38,1367.42 534.693,1350.58 543.005,1331.65 551.317,1310.63 559.629,1287.55 567.942,1262.43 
  576.254,1235.3 584.566,1206.19 592.878,1175.11 601.191,1142.05 609.503,1106.98 617.815,1069.88 626.127,1030.7 634.44,989.457 642.752,946.161 651.064,900.897 
  659.376,853.809 667.689,805.115 676.001,755.116 684.313,704.185 692.626,652.771 700.938,601.38 709.25,550.567 717.562,500.917 725.875,453.025 734.187,407.481 
  742.499,364.845 750.811,325.63 759.124,290.276 767.436,259.13 775.748,232.43 784.06,210.282 792.373,192.656 800.685,179.381 808.997,170.149 817.309,164.541 
  825.622,162.047 833.934,162.104 842.246,164.141 850.558,167.618 858.871,172.071 867.183,177.145 875.495,182.616 883.808,188.4 892.12,194.55 900.432,201.232 
  908.744,208.696 917.057,217.232 925.369,227.129 933.681,238.635 941.993,251.928 950.306,267.092 958.618,284.119 966.93,302.913 975.242,323.307 983.555,345.093 
  991.867,368.043 1000.18,391.934 1008.49,416.564 1016.8,441.755 1025.12,467.361 1033.43,493.251 1041.74,519.309 1050.05,545.415 1058.36,571.44 1066.68,597.241 
  1074.99,622.655 1083.3,647.501 1091.61,671.591 1099.93,694.73 1108.24,716.732 1116.55,737.432 1124.86,756.7 1133.18,774.454 1141.49,790.676 1149.8,805.422 
  1158.11,818.827 1166.42,831.108 1174.74,842.552 1183.05,853.498 1191.36,864.317 1199.67,875.379 1207.99,887.021 1216.3,899.52 1224.61,913.068 1232.92,927.764 
  1241.23,943.603 1249.55,960.497 1257.86,978.282 1266.17,996.754 1274.48,1015.68 1282.8,1034.85 1291.11,1054.05 1299.42,1073.09 1307.73,1091.83 1316.05,1110.13 
  1324.36,1127.85 1332.67,1144.86 1340.98,1161 1349.29,1176.1 1357.61,1189.99 1365.92,1202.52 1374.23,1213.59 1382.54,1223.13 1390.86,1231.18 1399.17,1237.86 
  1407.48,1243.39 1415.79,1248.06 1424.1,1252.22 1432.42,1256.23 1440.73,1260.44 1449.04,1265.16 1457.35,1270.61 1465.67,1276.92 1473.98,1284.11 1482.29,1292.12 
  1490.6,1300.79 1498.91,1309.92 1507.23,1319.27 1515.54,1328.59 1523.85,1337.65 1532.16,1346.27 1540.48,1354.29 1548.79,1361.62 1557.1,1368.21 1565.41,1374.07 
  1573.73,1379.23 1582.04,1383.78 1590.35,1387.79 1598.66,1391.36 1606.97,1394.61 1615.29,1397.61 1623.6,1400.46 1631.91,1403.21 1640.22,1405.91 1648.54,1408.58 
  1656.85,1411.21 1665.16,1413.8 1673.47,1416.32 1681.78,1418.73 1690.1,1421.02 1698.41,1423.16 1706.72,1425.14 1715.03,1426.95 1723.35,1428.61 1731.66,1430.13 
  1739.97,1431.54 1748.28,1432.87 1756.59,1434.14 1764.91,1435.37 1773.22,1436.58 1781.53,1437.77 1789.84,1438.94 1798.16,1440.08 1806.47,1441.17 1814.78,1442.21 
  1823.09,1443.16 1831.41,1444.02 1839.72,1444.78 1848.03,1445.44 1856.34,1446 1864.65,1446.45 1872.97,1446.82 1881.28,1447.11 1889.59,1447.33 1897.9,1447.5 
  1906.22,1447.62 1914.53,1447.7 1922.84,1447.76 1931.15,1447.8 1939.46,1447.83 1947.78,1447.85 1956.09,1447.86 1964.4,1447.87 1972.71,1447.87 1981.03,1447.87 
  
  "/>
<polyline clip-path="url(#clip422)" style="stroke:#3da44d; stroke-linecap:butt; stroke-linejoin:round; stroke-width:4; stroke-opacity:1; fill:none" points="
  247.59,1447.87 257.86,1447.86 268.131,1447.84 278.401,1447.82 288.672,1447.77 298.943,1447.7 309.213,1447.58 319.484,1447.39 329.754,1447.09 340.025,1446.66 
  350.296,1446.01 360.566,1445.1 370.837,1443.82 381.107,1442.09 391.378,1439.78 401.649,1436.79 411.919,1433 422.19,1428.3 432.46,1422.58 442.731,1415.75 
  453.002,1407.76 463.272,1398.53 473.543,1388 483.813,1376.13 494.084,1362.81 504.355,1347.93 514.625,1331.31 524.896,1312.71 535.167,1291.86 545.437,1268.42 
  555.708,1242.05 565.978,1212.38 576.249,1179.1 586.52,1141.96 596.79,1100.79 607.061,1055.55 617.331,1006.33 627.602,953.342 637.873,896.941 648.143,837.613 
  658.414,775.958 668.684,712.688 678.955,648.611 689.226,584.623 699.496,521.695 709.767,460.861 720.037,403.196 730.308,349.792 740.579,301.728 750.849,260.03 
  761.12,225.625 771.39,199.29 781.661,181.597 791.932,172.862 802.202,173.092 812.473,181.957 822.744,198.772 833.014,222.514 843.285,251.866 853.555,285.293 
  863.826,321.144 874.097,357.768 884.367,393.634 894.638,427.435 904.908,458.17 915.179,485.18 925.45,508.158 935.72,527.113 945.991,542.306 956.261,554.18 
  966.532,563.274 976.803,570.156 987.073,575.371 997.344,579.402 1007.61,582.666 1017.89,585.514 1028.16,588.245 1038.43,591.134 1048.7,594.447 1058.97,598.459 
  1069.24,603.463 1079.51,609.766 1089.78,617.676 1100.05,627.481 1110.32,639.416 1120.59,653.64 1130.86,670.203 1141.13,689.033 1151.4,709.936 1161.67,732.609 
  1171.94,756.674 1182.21,781.718 1192.49,807.34 1202.76,833.194 1213.03,859.017 1223.3,884.634 1233.57,909.959 1243.84,934.959 1254.11,959.627 1264.38,983.936 
  1274.65,1007.82 1284.92,1031.16 1295.19,1053.76 1305.46,1075.42 1315.73,1095.93 1326,1115.1 1336.27,1132.84 1346.54,1149.13 1356.82,1164.07 1367.09,1177.83 
  1377.36,1190.65 1387.63,1202.79 1397.9,1214.5 1408.17,1225.97 1418.44,1237.29 1428.71,1248.5 1438.98,1259.53 1449.25,1270.26 1459.52,1280.54 1469.79,1290.22 
  1480.06,1299.2 1490.33,1307.44 1500.6,1314.97 1510.87,1321.88 1521.14,1328.35 1531.42,1334.53 1541.69,1340.62 1551.96,1346.75 1562.23,1353.03 1572.5,1359.49 
  1582.77,1366.08 1593.04,1372.74 1603.31,1379.33 1613.58,1385.74 1623.85,1391.83 1634.12,1397.51 1644.39,1402.71 1654.66,1407.43 1664.93,1411.67 1675.2,1415.47 
  1685.47,1418.9 1695.75,1422.01 1706.02,1424.88 1716.29,1427.53 1726.56,1430.01 1736.83,1432.33 1747.1,1434.47 1757.37,1436.43 1767.64,1438.16 1777.91,1439.66 
  1788.18,1440.89 1798.45,1441.82 1808.72,1442.45 1818.99,1442.77 1829.26,1442.79 1839.53,1442.51 1849.8,1441.95 1860.07,1441.13 1870.35,1440.09 1880.62,1438.84 
  1890.89,1437.41 1901.16,1435.83 1911.43,1434.13 1921.7,1432.32 1931.97,1430.43 1942.24,1428.51 1952.51,1426.61 1962.78,1424.77 1973.05,1423.09 1983.32,1421.64 
  1993.59,1420.52 2003.86,1419.81 2014.13,1419.58 2024.4,1419.87 2034.68,1420.7 2044.95,1422.05 2055.22,1423.85 2065.49,1426.02 2075.76,1428.43 2086.03,1430.97 
  2096.3,1433.52 2106.57,1435.97 2116.84,1438.24 2127.11,1440.26 2137.38,1442 2147.65,1443.46 2157.92,1444.63 2168.19,1445.55 2178.46,1446.25 2188.73,1446.77 
  2199,1447.14 2209.28,1447.4 2219.55,1447.57 2229.82,1447.69 2240.09,1447.77 2250.36,1447.81 2260.63,1447.84 2270.9,1447.86 2281.17,1447.86 2291.44,1447.87 
  
  "/>
<path clip-path="url(#clip420)" d="
M1986.81 376.265 L2280.54 376.265 L2280.54 168.905 L1986.81 168.905  Z
  " fill="#ffffff" fill-rule="evenodd" fill-opacity="1"/>
<polyline clip-path="url(#clip420)" style="stroke:#000000; stroke-linecap:butt; stroke-linejoin:round; stroke-width:4; stroke-opacity:1; fill:none" points="
  1986.81,376.265 2280.54,376.265 2280.54,168.905 1986.81,168.905 1986.81,376.265 
  "/>
<polyline clip-path="url(#clip420)" style="stroke:#009af9; stroke-linecap:butt; stroke-linejoin:round; stroke-width:4; stroke-opacity:1; fill:none" points="
  2010.88,220.745 2155.31,220.745 
  "/>
<path clip-path="url(#clip420)" d="M2193.23 240.432 Q2191.42 245.062 2189.71 246.474 Q2188 247.886 2185.13 247.886 L2181.72 247.886 L2181.72 244.321 L2184.22 244.321 Q2185.98 244.321 2186.96 243.488 Q2187.93 242.654 2189.11 239.552 L2189.87 237.608 L2179.39 212.099 L2183.9 212.099 L2192 232.377 L2200.1 212.099 L2204.62 212.099 L2193.23 240.432 Z" fill="#000000" fill-rule="evenodd" fill-opacity="1" /><path clip-path="url(#clip420)" d="M2211.91 234.089 L2219.55 234.089 L2219.55 207.724 L2211.24 209.391 L2211.24 205.131 L2219.5 203.465 L2224.18 203.465 L2224.18 234.089 L2231.82 234.089 L2231.82 238.025 L2211.91 238.025 L2211.91 234.089 Z" fill="#000000" fill-rule="evenodd" fill-opacity="1" /><polyline clip-path="url(#clip420)" style="stroke:#e26f46; stroke-linecap:butt; stroke-linejoin:round; stroke-width:4; stroke-opacity:1; fill:none" points="
  2010.88,272.585 2155.31,272.585 
  "/>
<path clip-path="url(#clip420)" d="M2193.23 292.272 Q2191.42 296.902 2189.71 298.314 Q2188 299.726 2185.13 299.726 L2181.72 299.726 L2181.72 296.161 L2184.22 296.161 Q2185.98 296.161 2186.96 295.328 Q2187.93 294.494 2189.11 291.392 L2189.87 289.448 L2179.39 263.939 L2183.9 263.939 L2192 284.217 L2200.1 263.939 L2204.62 263.939 L2193.23 292.272 Z" fill="#000000" fill-rule="evenodd" fill-opacity="1" /><path clip-path="url(#clip420)" d="M2215.13 285.929 L2231.45 285.929 L2231.45 289.865 L2209.5 289.865 L2209.5 285.929 Q2212.16 283.175 2216.75 278.545 Q2221.35 273.893 2222.53 272.55 Q2224.78 270.027 2225.66 268.291 Q2226.56 266.531 2226.56 264.842 Q2226.56 262.087 2224.62 260.351 Q2222.7 258.615 2219.59 258.615 Q2217.4 258.615 2214.94 259.379 Q2212.51 260.143 2209.73 261.694 L2209.73 256.971 Q2212.56 255.837 2215.01 255.258 Q2217.47 254.68 2219.5 254.68 Q2224.87 254.68 2228.07 257.365 Q2231.26 260.05 2231.26 264.541 Q2231.26 266.67 2230.45 268.592 Q2229.66 270.49 2227.56 273.082 Q2226.98 273.754 2223.88 276.971 Q2220.78 280.166 2215.13 285.929 Z" fill="#000000" fill-rule="evenodd" fill-opacity="1" /><polyline clip-path="url(#clip420)" style="stroke:#3da44d; stroke-linecap:butt; stroke-linejoin:round; stroke-width:4; stroke-opacity:1; fill:none" points="
  2010.88,324.425 2155.31,324.425 
  "/>
<path clip-path="url(#clip420)" d="M2193.23 344.112 Q2191.42 348.742 2189.71 350.154 Q2188 351.566 2185.13 351.566 L2181.72 351.566 L2181.72 348.001 L2184.22 348.001 Q2185.98 348.001 2186.96 347.168 Q2187.93 346.334 2189.11 343.232 L2189.87 341.288 L2179.39 315.779 L2183.9 315.779 L2192 336.057 L2200.1 315.779 L2204.62 315.779 L2193.23 344.112 Z" fill="#000000" fill-rule="evenodd" fill-opacity="1" /><path clip-path="url(#clip420)" d="M2225.27 323.07 Q2228.62 323.788 2230.5 326.057 Q2232.4 328.325 2232.4 331.658 Q2232.4 336.774 2228.88 339.575 Q2225.36 342.376 2218.88 342.376 Q2216.7 342.376 2214.39 341.936 Q2212.09 341.519 2209.64 340.663 L2209.64 336.149 Q2211.59 337.283 2213.9 337.862 Q2216.22 338.441 2218.74 338.441 Q2223.14 338.441 2225.43 336.705 Q2227.74 334.969 2227.74 331.658 Q2227.74 328.603 2225.59 326.89 Q2223.46 325.154 2219.64 325.154 L2215.61 325.154 L2215.61 321.311 L2219.83 321.311 Q2223.28 321.311 2225.1 319.946 Q2226.93 318.557 2226.93 315.964 Q2226.93 313.302 2225.03 311.89 Q2223.16 310.455 2219.64 310.455 Q2217.72 310.455 2215.52 310.871 Q2213.32 311.288 2210.68 312.168 L2210.68 308.001 Q2213.34 307.26 2215.66 306.89 Q2218 306.52 2220.06 306.52 Q2225.38 306.52 2228.48 308.95 Q2231.59 311.358 2231.59 315.478 Q2231.59 318.348 2229.94 320.339 Q2228.3 322.307 2225.27 323.07 Z" fill="#000000" fill-rule="evenodd" fill-opacity="1" /></svg>
