<?xml version="1.0" encoding="utf-8"?>
<svg xmlns="http://www.w3.org/2000/svg" xmlns:xlink="http://www.w3.org/1999/xlink" width="600" height="400" viewBox="0 0 2400 1600">
<defs>
  <clipPath id="clip540">
    <rect x="0" y="0" width="2400" height="1600"/>
  </clipPath>
</defs>
<path clip-path="url(#clip540)" d="
M0 1600 L2400 1600 L2400 0 L0 0  Z
  " fill="#ffffff" fill-rule="evenodd" fill-opacity="1"/>
<defs>
  <clipPath id="clip541">
    <rect x="480" y="0" width="1681" height="1600"/>
  </clipPath>
</defs>
<path clip-path="url(#clip540)" d="
M186.274 1486.45 L2352.76 1486.45 L2352.76 123.472 L186.274 123.472  Z
  " fill="#ffffff" fill-rule="evenodd" fill-opacity="1"/>
<defs>
  <clipPath id="clip542">
    <rect x="186" y="123" width="2167" height="1364"/>
  </clipPath>
</defs>
<polyline clip-path="url(#clip542)" style="stroke:#000000; stroke-linecap:butt; stroke-linejoin:round; stroke-width:2; stroke-opacity:0.1; fill:none" points="
  493.866,1486.45 493.866,123.472 
  "/>
<polyline clip-path="url(#clip542)" style="stroke:#000000; stroke-linecap:butt; stroke-linejoin:round; stroke-width:2; stroke-opacity:0.1; fill:none" points="
  906.827,1486.45 906.827,123.472 
  "/>
<polyline clip-path="url(#clip542)" style="stroke:#000000; stroke-linecap:butt; stroke-linejoin:round; stroke-width:2; stroke-opacity:0.1; fill:none" points="
  1319.79,1486.45 1319.79,123.472 
  "/>
<polyline clip-path="url(#clip542)" style="stroke:#000000; stroke-linecap:butt; stroke-linejoin:round; stroke-width:2; stroke-opacity:0.1; fill:none" points="
  1732.75,1486.45 1732.75,123.472 
  "/>
<polyline clip-path="url(#clip542)" style="stroke:#000000; stroke-linecap:butt; stroke-linejoin:round; stroke-width:2; stroke-opacity:0.1; fill:none" points="
  2145.71,1486.45 2145.71,123.472 
  "/>
<polyline clip-path="url(#clip540)" style="stroke:#000000; stroke-linecap:butt; stroke-linejoin:round; stroke-width:4; stroke-opacity:1; fill:none" points="
  186.274,1486.45 2352.76,1486.45 
  "/>
<polyline clip-path="url(#clip540)" style="stroke:#000000; stroke-linecap:butt; stroke-linejoin:round; stroke-width:4; stroke-opacity:1; fill:none" points="
  493.866,1486.45 493.866,1467.55 
  "/>
<polyline clip-path="url(#clip540)" style="stroke:#000000; stroke-linecap:butt; stroke-linejoin:round; stroke-width:4; stroke-opacity:1; fill:none" points="
  906.827,1486.45 906.827,1467.55 
  "/>
<polyline clip-path="url(#clip540)" style="stroke:#000000; stroke-linecap:butt; stroke-linejoin:round; stroke-width:4; stroke-opacity:1; fill:none" points="
  1319.79,1486.45 1319.79,1467.55 
  "/>
<polyline clip-path="url(#clip540)" style="stroke:#000000; stroke-linecap:butt; stroke-linejoin:round; stroke-width:4; stroke-opacity:1; fill:none" points="
  1732.75,1486.45 1732.75,1467.55 
  "/>
<polyline clip-path="url(#clip540)" style="stroke:#000000; stroke-linecap:butt; stroke-linejoin:round; stroke-width:4; stroke-opacity:1; fill:none" points="
  2145.71,1486.45 2145.71,1467.55 
  "/>
<path clip-path="url(#clip540)" d="M493.866 1517.37 Q490.255 1517.37 488.426 1520.93 Q486.621 1524.47 486.621 1531.6 Q486.621 1538.71 488.426 1542.27 Q490.255 1545.82 493.866 1545.82 Q497.5 1545.82 499.306 1542.27 Q501.134 1538.71 501.134 1531.6 Q501.134 1524.47 499.306 1520.93 Q497.5 1517.37 493.866 1517.37 M493.866 1513.66 Q499.676 1513.66 502.732 1518.27 Q505.81 1522.85 505.81 1531.6 Q505.81 1540.33 502.732 1544.94 Q499.676 1549.52 493.866 1549.52 Q488.056 1549.52 484.977 1544.94 Q481.922 1540.33 481.922 1531.6 Q481.922 1522.85 484.977 1518.27 Q488.056 1513.66 493.866 1513.66 Z" fill="#000000" fill-rule="evenodd" fill-opacity="1" /><path clip-path="url(#clip540)" d="M911.075 1530.21 Q914.431 1530.93 916.306 1533.2 Q918.204 1535.47 918.204 1538.8 Q918.204 1543.92 914.686 1546.72 Q911.167 1549.52 904.686 1549.52 Q902.51 1549.52 900.195 1549.08 Q897.904 1548.66 895.45 1547.81 L895.45 1543.29 Q897.394 1544.43 899.709 1545.01 Q902.024 1545.58 904.547 1545.58 Q908.945 1545.58 911.237 1543.85 Q913.552 1542.11 913.552 1538.8 Q913.552 1535.75 911.399 1534.03 Q909.269 1532.3 905.45 1532.3 L901.422 1532.3 L901.422 1528.45 L905.635 1528.45 Q909.084 1528.45 910.913 1527.09 Q912.741 1525.7 912.741 1523.11 Q912.741 1520.45 910.843 1519.03 Q908.968 1517.6 905.45 1517.6 Q903.529 1517.6 901.329 1518.01 Q899.13 1518.43 896.492 1519.31 L896.492 1515.14 Q899.154 1514.4 901.468 1514.03 Q903.806 1513.66 905.866 1513.66 Q911.191 1513.66 914.292 1516.09 Q917.394 1518.5 917.394 1522.62 Q917.394 1525.49 915.751 1527.48 Q914.107 1529.45 911.075 1530.21 Z" fill="#000000" fill-rule="evenodd" fill-opacity="1" /><path clip-path="url(#clip540)" d="M1320.19 1529.7 Q1317.05 1529.7 1315.19 1531.86 Q1313.36 1534.01 1313.36 1537.76 Q1313.36 1541.49 1315.19 1543.66 Q1317.05 1545.82 1320.19 1545.82 Q1323.34 1545.82 1325.17 1543.66 Q1327.02 1541.49 1327.02 1537.76 Q1327.02 1534.01 1325.17 1531.86 Q1323.34 1529.7 1320.19 1529.7 M1329.48 1515.05 L1329.48 1519.31 Q1327.72 1518.48 1325.91 1518.04 Q1324.13 1517.6 1322.37 1517.6 Q1317.74 1517.6 1315.29 1520.72 Q1312.86 1523.85 1312.51 1530.17 Q1313.87 1528.15 1315.93 1527.09 Q1317.99 1526 1320.47 1526 Q1325.68 1526 1328.69 1529.17 Q1331.72 1532.32 1331.72 1537.76 Q1331.72 1543.08 1328.57 1546.3 Q1325.42 1549.52 1320.19 1549.52 Q1314.2 1549.52 1311.03 1544.94 Q1307.86 1540.33 1307.86 1531.6 Q1307.86 1523.41 1311.74 1518.55 Q1315.63 1513.66 1322.18 1513.66 Q1323.94 1513.66 1325.73 1514.01 Q1327.53 1514.36 1329.48 1515.05 Z" fill="#000000" fill-rule="evenodd" fill-opacity="1" /><path clip-path="url(#clip540)" d="M1723.05 1548.13 L1723.05 1543.87 Q1724.81 1544.7 1726.62 1545.14 Q1728.42 1545.58 1730.16 1545.58 Q1734.79 1545.58 1737.22 1542.48 Q1739.67 1539.36 1740.02 1533.01 Q1738.68 1535.01 1736.62 1536.07 Q1734.56 1537.13 1732.06 1537.13 Q1726.87 1537.13 1723.84 1534.01 Q1720.83 1530.86 1720.83 1525.42 Q1720.83 1520.1 1723.98 1516.88 Q1727.12 1513.66 1732.36 1513.66 Q1738.35 1513.66 1741.5 1518.27 Q1744.67 1522.85 1744.67 1531.6 Q1744.67 1539.77 1740.78 1544.66 Q1736.92 1549.52 1730.37 1549.52 Q1728.61 1549.52 1726.8 1549.17 Q1724.99 1548.82 1723.05 1548.13 M1732.36 1533.48 Q1735.5 1533.48 1737.33 1531.32 Q1739.18 1529.17 1739.18 1525.42 Q1739.18 1521.7 1737.33 1519.54 Q1735.5 1517.37 1732.36 1517.37 Q1729.21 1517.37 1727.36 1519.54 Q1725.53 1521.7 1725.53 1525.42 Q1725.53 1529.17 1727.36 1531.32 Q1729.21 1533.48 1732.36 1533.48 Z" fill="#000000" fill-rule="evenodd" fill-opacity="1" /><path clip-path="url(#clip540)" d="M2121.2 1544.91 L2128.84 1544.91 L2128.84 1518.55 L2120.53 1520.21 L2120.53 1515.95 L2128.79 1514.29 L2133.47 1514.29 L2133.47 1544.91 L2141.1 1544.91 L2141.1 1548.85 L2121.2 1548.85 L2121.2 1544.91 Z" fill="#000000" fill-rule="evenodd" fill-opacity="1" /><path clip-path="url(#clip540)" d="M2154.58 1544.91 L2170.9 1544.91 L2170.9 1548.85 L2148.95 1548.85 L2148.95 1544.91 Q2151.61 1542.16 2156.2 1537.53 Q2160.8 1532.88 2161.98 1531.53 Q2164.23 1529.01 2165.11 1527.27 Q2166.01 1525.51 2166.01 1523.82 Q2166.01 1521.07 2164.07 1519.33 Q2162.15 1517.6 2159.04 1517.6 Q2156.84 1517.6 2154.39 1518.36 Q2151.96 1519.13 2149.18 1520.68 L2149.18 1515.95 Q2152.01 1514.82 2154.46 1514.24 Q2156.91 1513.66 2158.95 1513.66 Q2164.32 1513.66 2167.52 1516.35 Q2170.71 1519.03 2170.71 1523.52 Q2170.71 1525.65 2169.9 1527.57 Q2169.11 1529.47 2167.01 1532.07 Q2166.43 1532.74 2163.33 1535.95 Q2160.22 1539.15 2154.58 1544.91 Z" fill="#000000" fill-rule="evenodd" fill-opacity="1" /><polyline clip-path="url(#clip542)" style="stroke:#000000; stroke-linecap:butt; stroke-linejoin:round; stroke-width:2; stroke-opacity:0.1; fill:none" points="
  186.274,1447.88 2352.76,1447.88 
  "/>
<polyline clip-path="url(#clip542)" style="stroke:#000000; stroke-linecap:butt; stroke-linejoin:round; stroke-width:2; stroke-opacity:0.1; fill:none" points="
  186.274,1213.25 2352.76,1213.25 
  "/>
<polyline clip-path="url(#clip542)" style="stroke:#000000; stroke-linecap:butt; stroke-linejoin:round; stroke-width:2; stroke-opacity:0.1; fill:none" points="
  186.274,978.627 2352.76,978.627 
  "/>
<polyline clip-path="url(#clip542)" style="stroke:#000000; stroke-linecap:butt; stroke-linejoin:round; stroke-width:2; stroke-opacity:0.1; fill:none" points="
  186.274,744.001 2352.76,744.001 
  "/>
<polyline clip-path="url(#clip542)" style="stroke:#000000; stroke-linecap:butt; stroke-linejoin:round; stroke-width:2; stroke-opacity:0.1; fill:none" points="
  186.274,509.375 2352.76,509.375 
  "/>
<polyline clip-path="url(#clip542)" style="stroke:#000000; stroke-linecap:butt; stroke-linejoin:round; stroke-width:2; stroke-opacity:0.1; fill:none" points="
  186.274,274.749 2352.76,274.749 
  "/>
<polyline clip-path="url(#clip540)" style="stroke:#000000; stroke-linecap:butt; stroke-linejoin:round; stroke-width:4; stroke-opacity:1; fill:none" points="
  186.274,1486.45 186.274,123.472 
  "/>
<polyline clip-path="url(#clip540)" style="stroke:#000000; stroke-linecap:butt; stroke-linejoin:round; stroke-width:4; stroke-opacity:1; fill:none" points="
  186.274,1447.88 205.172,1447.88 
  "/>
<polyline clip-path="url(#clip540)" style="stroke:#000000; stroke-linecap:butt; stroke-linejoin:round; stroke-width:4; stroke-opacity:1; fill:none" points="
  186.274,1213.25 205.172,1213.25 
  "/>
<polyline clip-path="url(#clip540)" style="stroke:#000000; stroke-linecap:butt; stroke-linejoin:round; stroke-width:4; stroke-opacity:1; fill:none" points="
  186.274,978.627 205.172,978.627 
  "/>
<polyline clip-path="url(#clip540)" style="stroke:#000000; stroke-linecap:butt; stroke-linejoin:round; stroke-width:4; stroke-opacity:1; fill:none" points="
  186.274,744.001 205.172,744.001 
  "/>
<polyline clip-path="url(#clip540)" style="stroke:#000000; stroke-linecap:butt; stroke-linejoin:round; stroke-width:4; stroke-opacity:1; fill:none" points="
  186.274,509.375 205.172,509.375 
  "/>
<polyline clip-path="url(#clip540)" style="stroke:#000000; stroke-linecap:butt; stroke-linejoin:round; stroke-width:4; stroke-opacity:1; fill:none" points="
  186.274,274.749 205.172,274.749 
  "/>
<path clip-path="url(#clip540)" d="M62.9365 1433.68 Q59.3254 1433.68 57.4967 1437.24 Q55.6912 1440.78 55.6912 1447.91 Q55.6912 1455.02 57.4967 1458.59 Q59.3254 1462.13 62.9365 1462.13 Q66.5707 1462.13 68.3763 1458.59 Q70.205 1455.02 70.205 1447.91 Q70.205 1440.78 68.3763 1437.24 Q66.5707 1433.68 62.9365 1433.68 M62.9365 1429.97 Q68.7467 1429.97 71.8022 1434.58 Q74.8809 1439.16 74.8809 1447.91 Q74.8809 1456.64 71.8022 1461.25 Q68.7467 1465.83 62.9365 1465.83 Q57.1264 1465.83 54.0477 1461.25 Q50.9921 1456.64 50.9921 1447.91 Q50.9921 1439.16 54.0477 1434.58 Q57.1264 1429.97 62.9365 1429.97 Z" fill="#000000" fill-rule="evenodd" fill-opacity="1" /><path clip-path="url(#clip540)" d="M83.0984 1459.28 L87.9827 1459.28 L87.9827 1465.16 L83.0984 1465.16 L83.0984 1459.28 Z" fill="#000000" fill-rule="evenodd" fill-opacity="1" /><path clip-path="url(#clip540)" d="M108.168 1433.68 Q104.557 1433.68 102.728 1437.24 Q100.922 1440.78 100.922 1447.91 Q100.922 1455.02 102.728 1458.59 Q104.557 1462.13 108.168 1462.13 Q111.802 1462.13 113.608 1458.59 Q115.436 1455.02 115.436 1447.91 Q115.436 1440.78 113.608 1437.24 Q111.802 1433.68 108.168 1433.68 M108.168 1429.97 Q113.978 1429.97 117.033 1434.58 Q120.112 1439.16 120.112 1447.91 Q120.112 1456.64 117.033 1461.25 Q113.978 1465.83 108.168 1465.83 Q102.358 1465.83 99.2789 1461.25 Q96.2234 1456.64 96.2234 1447.91 Q96.2234 1439.16 99.2789 1434.58 Q102.358 1429.97 108.168 1429.97 Z" fill="#000000" fill-rule="evenodd" fill-opacity="1" /><path clip-path="url(#clip540)" d="M138.33 1433.68 Q134.719 1433.68 132.89 1437.24 Q131.084 1440.78 131.084 1447.91 Q131.084 1455.02 132.89 1458.59 Q134.719 1462.13 138.33 1462.13 Q141.964 1462.13 143.769 1458.59 Q145.598 1455.02 145.598 1447.91 Q145.598 1440.78 143.769 1437.24 Q141.964 1433.68 138.33 1433.68 M138.33 1429.97 Q144.14 1429.97 147.195 1434.58 Q150.274 1439.16 150.274 1447.91 Q150.274 1456.64 147.195 1461.25 Q144.14 1465.83 138.33 1465.83 Q132.519 1465.83 129.441 1461.25 Q126.385 1456.64 126.385 1447.91 Q126.385 1439.16 129.441 1434.58 Q132.519 1429.97 138.33 1429.97 Z" fill="#000000" fill-rule="evenodd" fill-opacity="1" /><path clip-path="url(#clip540)" d="M63.9319 1199.05 Q60.3208 1199.05 58.4921 1202.62 Q56.6865 1206.16 56.6865 1213.29 Q56.6865 1220.39 58.4921 1223.96 Q60.3208 1227.5 63.9319 1227.5 Q67.5661 1227.5 69.3717 1223.96 Q71.2004 1220.39 71.2004 1213.29 Q71.2004 1206.16 69.3717 1202.62 Q67.5661 1199.05 63.9319 1199.05 M63.9319 1195.35 Q69.742 1195.35 72.7976 1199.95 Q75.8763 1204.54 75.8763 1213.29 Q75.8763 1222.02 72.7976 1226.62 Q69.742 1231.2 63.9319 1231.2 Q58.1217 1231.2 55.043 1226.62 Q51.9875 1222.02 51.9875 1213.29 Q51.9875 1204.54 55.043 1199.95 Q58.1217 1195.35 63.9319 1195.35 Z" fill="#000000" fill-rule="evenodd" fill-opacity="1" /><path clip-path="url(#clip540)" d="M84.0938 1224.65 L88.978 1224.65 L88.978 1230.53 L84.0938 1230.53 L84.0938 1224.65 Z" fill="#000000" fill-rule="evenodd" fill-opacity="1" /><path clip-path="url(#clip540)" d="M109.163 1199.05 Q105.552 1199.05 103.723 1202.62 Q101.918 1206.16 101.918 1213.29 Q101.918 1220.39 103.723 1223.96 Q105.552 1227.5 109.163 1227.5 Q112.797 1227.5 114.603 1223.96 Q116.432 1220.39 116.432 1213.29 Q116.432 1206.16 114.603 1202.62 Q112.797 1199.05 109.163 1199.05 M109.163 1195.35 Q114.973 1195.35 118.029 1199.95 Q121.107 1204.54 121.107 1213.29 Q121.107 1222.02 118.029 1226.62 Q114.973 1231.2 109.163 1231.2 Q103.353 1231.2 100.274 1226.62 Q97.2187 1222.02 97.2187 1213.29 Q97.2187 1204.54 100.274 1199.95 Q103.353 1195.35 109.163 1195.35 Z" fill="#000000" fill-rule="evenodd" fill-opacity="1" /><path clip-path="url(#clip540)" d="M129.371 1195.97 L147.728 1195.97 L147.728 1199.91 L133.654 1199.91 L133.654 1208.38 Q134.672 1208.03 135.691 1207.87 Q136.709 1207.69 137.728 1207.69 Q143.515 1207.69 146.894 1210.86 Q150.274 1214.03 150.274 1219.45 Q150.274 1225.02 146.802 1228.13 Q143.33 1231.2 137.01 1231.2 Q134.834 1231.2 132.566 1230.83 Q130.32 1230.46 127.913 1229.72 L127.913 1225.02 Q129.996 1226.16 132.219 1226.71 Q134.441 1227.27 136.918 1227.27 Q140.922 1227.27 143.26 1225.16 Q145.598 1223.06 145.598 1219.45 Q145.598 1215.83 143.26 1213.73 Q140.922 1211.62 136.918 1211.62 Q135.043 1211.62 133.168 1212.04 Q131.316 1212.45 129.371 1213.33 L129.371 1195.97 Z" fill="#000000" fill-rule="evenodd" fill-opacity="1" /><path clip-path="url(#clip540)" d="M62.9365 964.426 Q59.3254 964.426 57.4967 967.991 Q55.6912 971.533 55.6912 978.662 Q55.6912 985.769 57.4967 989.333 Q59.3254 992.875 62.9365 992.875 Q66.5707 992.875 68.3763 989.333 Q70.205 985.769 70.205 978.662 Q70.205 971.533 68.3763 967.991 Q66.5707 964.426 62.9365 964.426 M62.9365 960.722 Q68.7467 960.722 71.8022 965.329 Q74.8809 969.912 74.8809 978.662 Q74.8809 987.389 71.8022 991.995 Q68.7467 996.579 62.9365 996.579 Q57.1264 996.579 54.0477 991.995 Q50.9921 987.389 50.9921 978.662 Q50.9921 969.912 54.0477 965.329 Q57.1264 960.722 62.9365 960.722 Z" fill="#000000" fill-rule="evenodd" fill-opacity="1" /><path clip-path="url(#clip540)" d="M83.0984 990.028 L87.9827 990.028 L87.9827 995.907 L83.0984 995.907 L83.0984 990.028 Z" fill="#000000" fill-rule="evenodd" fill-opacity="1" /><path clip-path="url(#clip540)" d="M98.978 991.972 L106.617 991.972 L106.617 965.607 L98.3067 967.273 L98.3067 963.014 L106.571 961.347 L111.246 961.347 L111.246 991.972 L118.885 991.972 L118.885 995.907 L98.978 995.907 L98.978 991.972 Z" fill="#000000" fill-rule="evenodd" fill-opacity="1" /><path clip-path="url(#clip540)" d="M138.33 964.426 Q134.719 964.426 132.89 967.991 Q131.084 971.533 131.084 978.662 Q131.084 985.769 132.89 989.333 Q134.719 992.875 138.33 992.875 Q141.964 992.875 143.769 989.333 Q145.598 985.769 145.598 978.662 Q145.598 971.533 143.769 967.991 Q141.964 964.426 138.33 964.426 M138.33 960.722 Q144.14 960.722 147.195 965.329 Q150.274 969.912 150.274 978.662 Q150.274 987.389 147.195 991.995 Q144.14 996.579 138.33 996.579 Q132.519 996.579 129.441 991.995 Q126.385 987.389 126.385 978.662 Q126.385 969.912 129.441 965.329 Q132.519 960.722 138.33 960.722 Z" fill="#000000" fill-rule="evenodd" fill-opacity="1" /><path clip-path="url(#clip540)" d="M63.9319 729.8 Q60.3208 729.8 58.4921 733.365 Q56.6865 736.907 56.6865 744.036 Q56.6865 751.143 58.4921 754.707 Q60.3208 758.249 63.9319 758.249 Q67.5661 758.249 69.3717 754.707 Q71.2004 751.143 71.2004 744.036 Q71.2004 736.907 69.3717 733.365 Q67.5661 729.8 63.9319 729.8 M63.9319 726.096 Q69.742 726.096 72.7976 730.703 Q75.8763 735.286 75.8763 744.036 Q75.8763 752.763 72.7976 757.369 Q69.742 761.953 63.9319 761.953 Q58.1217 761.953 55.043 757.369 Q51.9875 752.763 51.9875 744.036 Q51.9875 735.286 55.043 730.703 Q58.1217 726.096 63.9319 726.096 Z" fill="#000000" fill-rule="evenodd" fill-opacity="1" /><path clip-path="url(#clip540)" d="M84.0938 755.402 L88.978 755.402 L88.978 761.281 L84.0938 761.281 L84.0938 755.402 Z" fill="#000000" fill-rule="evenodd" fill-opacity="1" /><path clip-path="url(#clip540)" d="M99.9733 757.346 L107.612 757.346 L107.612 730.981 L99.3021 732.647 L99.3021 728.388 L107.566 726.721 L112.242 726.721 L112.242 757.346 L119.881 757.346 L119.881 761.281 L99.9733 761.281 L99.9733 757.346 Z" fill="#000000" fill-rule="evenodd" fill-opacity="1" /><path clip-path="url(#clip540)" d="M129.371 726.721 L147.728 726.721 L147.728 730.657 L133.654 730.657 L133.654 739.129 Q134.672 738.782 135.691 738.62 Q136.709 738.434 137.728 738.434 Q143.515 738.434 146.894 741.606 Q150.274 744.777 150.274 750.194 Q150.274 755.772 146.802 758.874 Q143.33 761.953 137.01 761.953 Q134.834 761.953 132.566 761.582 Q130.32 761.212 127.913 760.471 L127.913 755.772 Q129.996 756.906 132.219 757.462 Q134.441 758.018 136.918 758.018 Q140.922 758.018 143.26 755.911 Q145.598 753.805 145.598 750.194 Q145.598 746.582 143.26 744.476 Q140.922 742.37 136.918 742.37 Q135.043 742.37 133.168 742.786 Q131.316 743.203 129.371 744.082 L129.371 726.721 Z" fill="#000000" fill-rule="evenodd" fill-opacity="1" /><path clip-path="url(#clip540)" d="M62.9365 495.174 Q59.3254 495.174 57.4967 498.739 Q55.6912 502.281 55.6912 509.41 Q55.6912 516.517 57.4967 520.081 Q59.3254 523.623 62.9365 523.623 Q66.5707 523.623 68.3763 520.081 Q70.205 516.517 70.205 509.41 Q70.205 502.281 68.3763 498.739 Q66.5707 495.174 62.9365 495.174 M62.9365 491.47 Q68.7467 491.47 71.8022 496.077 Q74.8809 500.66 74.8809 509.41 Q74.8809 518.137 71.8022 522.743 Q68.7467 527.327 62.9365 527.327 Q57.1264 527.327 54.0477 522.743 Q50.9921 518.137 50.9921 509.41 Q50.9921 500.66 54.0477 496.077 Q57.1264 491.47 62.9365 491.47 Z" fill="#000000" fill-rule="evenodd" fill-opacity="1" /><path clip-path="url(#clip540)" d="M83.0984 520.776 L87.9827 520.776 L87.9827 526.655 L83.0984 526.655 L83.0984 520.776 Z" fill="#000000" fill-rule="evenodd" fill-opacity="1" /><path clip-path="url(#clip540)" d="M102.196 522.72 L118.515 522.72 L118.515 526.655 L96.5706 526.655 L96.5706 522.72 Q99.2326 519.966 103.816 515.336 Q108.422 510.683 109.603 509.341 Q111.848 506.818 112.728 505.082 Q113.631 503.322 113.631 501.632 Q113.631 498.878 111.686 497.142 Q109.765 495.406 106.663 495.406 Q104.464 495.406 102.01 496.17 Q99.5798 496.933 96.8021 498.484 L96.8021 493.762 Q99.6261 492.628 102.08 492.049 Q104.534 491.47 106.571 491.47 Q111.941 491.47 115.135 494.156 Q118.33 496.841 118.33 501.332 Q118.33 503.461 117.52 505.382 Q116.733 507.281 114.626 509.873 Q114.047 510.544 110.946 513.762 Q107.844 516.956 102.196 522.72 Z" fill="#000000" fill-rule="evenodd" fill-opacity="1" /><path clip-path="url(#clip540)" d="M138.33 495.174 Q134.719 495.174 132.89 498.739 Q131.084 502.281 131.084 509.41 Q131.084 516.517 132.89 520.081 Q134.719 523.623 138.33 523.623 Q141.964 523.623 143.769 520.081 Q145.598 516.517 145.598 509.41 Q145.598 502.281 143.769 498.739 Q141.964 495.174 138.33 495.174 M138.33 491.47 Q144.14 491.47 147.195 496.077 Q150.274 500.66 150.274 509.41 Q150.274 518.137 147.195 522.743 Q144.14 527.327 138.33 527.327 Q132.519 527.327 129.441 522.743 Q126.385 518.137 126.385 509.41 Q126.385 500.66 129.441 496.077 Q132.519 491.47 138.33 491.47 Z" fill="#000000" fill-rule="evenodd" fill-opacity="1" /><path clip-path="url(#clip540)" d="M63.9319 260.548 Q60.3208 260.548 58.4921 264.113 Q56.6865 267.655 56.6865 274.784 Q56.6865 281.891 58.4921 285.455 Q60.3208 288.997 63.9319 288.997 Q67.5661 288.997 69.3717 285.455 Q71.2004 281.891 71.2004 274.784 Q71.2004 267.655 69.3717 264.113 Q67.5661 260.548 63.9319 260.548 M63.9319 256.844 Q69.742 256.844 72.7976 261.451 Q75.8763 266.034 75.8763 274.784 Q75.8763 283.511 72.7976 288.117 Q69.742 292.701 63.9319 292.701 Q58.1217 292.701 55.043 288.117 Q51.9875 283.511 51.9875 274.784 Q51.9875 266.034 55.043 261.451 Q58.1217 256.844 63.9319 256.844 Z" fill="#000000" fill-rule="evenodd" fill-opacity="1" /><path clip-path="url(#clip540)" d="M84.0938 286.15 L88.978 286.15 L88.978 292.029 L84.0938 292.029 L84.0938 286.15 Z" fill="#000000" fill-rule="evenodd" fill-opacity="1" /><path clip-path="url(#clip540)" d="M103.191 288.094 L119.51 288.094 L119.51 292.029 L97.566 292.029 L97.566 288.094 Q100.228 285.34 104.811 280.71 Q109.418 276.057 110.598 274.715 Q112.844 272.192 113.723 270.456 Q114.626 268.696 114.626 267.006 Q114.626 264.252 112.682 262.516 Q110.76 260.78 107.658 260.78 Q105.459 260.78 103.006 261.544 Q100.575 262.307 97.7974 263.858 L97.7974 259.136 Q100.621 258.002 103.075 257.423 Q105.529 256.844 107.566 256.844 Q112.936 256.844 116.131 259.53 Q119.325 262.215 119.325 266.706 Q119.325 268.835 118.515 270.756 Q117.728 272.655 115.621 275.247 Q115.043 275.918 111.941 279.136 Q108.839 282.33 103.191 288.094 Z" fill="#000000" fill-rule="evenodd" fill-opacity="1" /><path clip-path="url(#clip540)" d="M129.371 257.469 L147.728 257.469 L147.728 261.405 L133.654 261.405 L133.654 269.877 Q134.672 269.53 135.691 269.368 Q136.709 269.182 137.728 269.182 Q143.515 269.182 146.894 272.354 Q150.274 275.525 150.274 280.942 Q150.274 286.52 146.802 289.622 Q143.33 292.701 137.01 292.701 Q134.834 292.701 132.566 292.33 Q130.32 291.96 127.913 291.219 L127.913 286.52 Q129.996 287.654 132.219 288.21 Q134.441 288.766 136.918 288.766 Q140.922 288.766 143.26 286.659 Q145.598 284.553 145.598 280.942 Q145.598 277.33 143.26 275.224 Q140.922 273.118 136.918 273.118 Q135.043 273.118 133.168 273.534 Q131.316 273.951 129.371 274.83 L129.371 257.469 Z" fill="#000000" fill-rule="evenodd" fill-opacity="1" /><path clip-path="url(#clip540)" d="M708.971 12.096 L717.154 12.096 L717.154 65.6895 L746.604 65.6895 L746.604 72.576 L708.971 72.576 L708.971 12.096 Z" fill="#000000" fill-rule="evenodd" fill-opacity="1" /><path clip-path="url(#clip540)" d="M775.487 49.7694 Q766.453 49.7694 762.97 51.8354 Q759.486 53.9013 759.486 58.8839 Q759.486 62.8538 762.078 65.2034 Q764.712 67.5124 769.208 67.5124 Q775.406 67.5124 779.133 63.1374 Q782.9 58.7219 782.9 51.4303 L782.9 49.7694 L775.487 49.7694 M790.354 46.6907 L790.354 72.576 L782.9 72.576 L782.9 65.6895 Q780.348 69.8214 776.54 71.8063 Q772.732 73.7508 767.223 73.7508 Q760.256 73.7508 756.124 69.8619 Q752.032 65.9325 752.032 59.3701 Q752.032 51.7138 757.136 47.825 Q762.281 43.9361 772.449 43.9361 L782.9 43.9361 L782.9 43.2069 Q782.9 38.0623 779.497 35.2672 Q776.135 32.4315 770.018 32.4315 Q766.129 32.4315 762.443 33.3632 Q758.757 34.295 755.354 36.1584 L755.354 29.2718 Q759.445 27.692 763.294 26.9223 Q767.142 26.1121 770.788 26.1121 Q780.632 26.1121 785.493 31.2163 Q790.354 36.3204 790.354 46.6907 Z" fill="#000000" fill-rule="evenodd" fill-opacity="1" /><path clip-path="url(#clip540)" d="M801.372 27.2059 L808.826 27.2059 L818.143 62.6108 L827.42 27.2059 L836.21 27.2059 L845.527 62.6108 L854.804 27.2059 L862.257 27.2059 L850.388 72.576 L841.598 72.576 L831.835 35.3887 L822.032 72.576 L813.241 72.576 L801.372 27.2059 Z" fill="#000000" fill-rule="evenodd" fill-opacity="1" /><path clip-path="url(#clip540)" d="M938.738 48.0275 L938.738 51.6733 L904.468 51.6733 Q904.954 59.3701 909.086 63.421 Q913.258 67.4314 920.671 67.4314 Q924.965 67.4314 928.976 66.3781 Q933.027 65.3249 936.996 63.2184 L936.996 70.267 Q932.986 71.9684 928.773 72.8596 Q924.56 73.7508 920.226 73.7508 Q909.369 73.7508 903.009 67.4314 Q896.69 61.1119 896.69 50.3365 Q896.69 39.1965 902.685 32.6746 Q908.721 26.1121 918.929 26.1121 Q928.084 26.1121 933.391 32.0264 Q938.738 37.9003 938.738 48.0275 M931.285 45.84 Q931.204 39.7232 927.841 36.0774 Q924.52 32.4315 919.01 32.4315 Q912.772 32.4315 909.005 35.9558 Q905.278 39.4801 904.711 45.8805 L931.285 45.84 Z" fill="#000000" fill-rule="evenodd" fill-opacity="1" /><path clip-path="url(#clip540)" d="M973.941 9.54393 L973.941 15.7418 L966.811 15.7418 Q962.801 15.7418 961.221 17.3622 Q959.682 18.9825 959.682 23.1955 L959.682 27.2059 L971.956 27.2059 L971.956 32.9987 L959.682 32.9987 L959.682 72.576 L952.187 72.576 L952.187 32.9987 L945.058 32.9987 L945.058 27.2059 L952.187 27.2059 L952.187 24.0462 Q952.187 16.471 955.712 13.0277 Q959.236 9.54393 966.892 9.54393 L973.941 9.54393 Z" fill="#000000" fill-rule="evenodd" fill-opacity="1" /><path clip-path="url(#clip540)" d="M1003.15 9.54393 L1003.15 15.7418 L996.018 15.7418 Q992.008 15.7418 990.428 17.3622 Q988.889 18.9825 988.889 23.1955 L988.889 27.2059 L1001.16 27.2059 L1001.16 32.9987 L988.889 32.9987 L988.889 72.576 L981.394 72.576 L981.394 32.9987 L974.265 32.9987 L974.265 27.2059 L981.394 27.2059 L981.394 24.0462 Q981.394 16.471 984.919 13.0277 Q988.443 9.54393 996.099 9.54393 L1003.15 9.54393 Z" fill="#000000" fill-rule="evenodd" fill-opacity="1" /><path clip-path="url(#clip540)" d="M1048.19 48.0275 L1048.19 51.6733 L1013.92 51.6733 Q1014.41 59.3701 1018.54 63.421 Q1022.71 67.4314 1030.13 67.4314 Q1034.42 67.4314 1038.43 66.3781 Q1042.48 65.3249 1046.45 63.2184 L1046.45 70.267 Q1042.44 71.9684 1038.23 72.8596 Q1034.02 73.7508 1029.68 73.7508 Q1018.82 73.7508 1012.46 67.4314 Q1006.15 61.1119 1006.15 50.3365 Q1006.15 39.1965 1012.14 32.6746 Q1018.18 26.1121 1028.38 26.1121 Q1037.54 26.1121 1042.85 32.0264 Q1048.19 37.9003 1048.19 48.0275 M1040.74 45.84 Q1040.66 39.7232 1037.3 36.0774 Q1033.98 32.4315 1028.47 32.4315 Q1022.23 32.4315 1018.46 35.9558 Q1014.73 39.4801 1014.17 45.8805 L1040.74 45.84 Z" fill="#000000" fill-rule="evenodd" fill-opacity="1" /><path clip-path="url(#clip540)" d="M1093.08 28.9478 L1093.08 35.9153 Q1089.92 34.1734 1086.72 33.3227 Q1083.56 32.4315 1080.32 32.4315 Q1073.07 32.4315 1069.06 37.0496 Q1065.05 41.6271 1065.05 49.9314 Q1065.05 58.2358 1069.06 62.8538 Q1073.07 67.4314 1080.32 67.4314 Q1083.56 67.4314 1086.72 66.5807 Q1089.92 65.6895 1093.08 63.9476 L1093.08 70.8341 Q1089.96 72.2924 1086.6 73.0216 Q1083.27 73.7508 1079.51 73.7508 Q1069.26 73.7508 1063.22 67.3098 Q1057.19 60.8689 1057.19 49.9314 Q1057.19 38.832 1063.26 32.472 Q1069.38 26.1121 1079.99 26.1121 Q1083.44 26.1121 1086.72 26.8413 Q1090 27.5299 1093.08 28.9478 Z" fill="#000000" fill-rule="evenodd" fill-opacity="1" /><path clip-path="url(#clip540)" d="M1113.41 14.324 L1113.41 27.2059 L1128.77 27.2059 L1128.77 32.9987 L1113.41 32.9987 L1113.41 57.6282 Q1113.41 63.1779 1114.91 64.7578 Q1116.45 66.3376 1121.11 66.3376 L1128.77 66.3376 L1128.77 72.576 L1121.11 72.576 Q1112.48 72.576 1109.2 69.3758 Q1105.92 66.1351 1105.92 57.6282 L1105.92 32.9987 L1100.45 32.9987 L1100.45 27.2059 L1105.92 27.2059 L1105.92 14.324 L1113.41 14.324 Z" fill="#000000" fill-rule="evenodd" fill-opacity="1" /><path clip-path="url(#clip540)" d="M1182.52 32.4315 Q1176.53 32.4315 1173.04 37.1306 Q1169.56 41.7891 1169.56 49.9314 Q1169.56 58.0738 1173 62.7728 Q1176.49 67.4314 1182.52 67.4314 Q1188.48 67.4314 1191.96 62.7323 Q1195.44 58.0333 1195.44 49.9314 Q1195.44 41.8701 1191.96 37.1711 Q1188.48 32.4315 1182.52 32.4315 M1182.52 26.1121 Q1192.24 26.1121 1197.79 32.4315 Q1203.34 38.7509 1203.34 49.9314 Q1203.34 61.0714 1197.79 67.4314 Q1192.24 73.7508 1182.52 73.7508 Q1172.76 73.7508 1167.21 67.4314 Q1161.7 61.0714 1161.7 49.9314 Q1161.7 38.7509 1167.21 32.4315 Q1172.76 26.1121 1182.52 26.1121 Z" fill="#000000" fill-rule="evenodd" fill-opacity="1" /><path clip-path="url(#clip540)" d="M1253.41 45.1919 L1253.41 72.576 L1245.96 72.576 L1245.96 45.4349 Q1245.96 38.994 1243.45 35.7938 Q1240.94 32.5936 1235.91 32.5936 Q1229.88 32.5936 1226.39 36.4419 Q1222.91 40.2903 1222.91 46.9338 L1222.91 72.576 L1215.42 72.576 L1215.42 27.2059 L1222.91 27.2059 L1222.91 34.2544 Q1225.58 30.163 1229.19 28.1376 Q1232.83 26.1121 1237.57 26.1121 Q1245.39 26.1121 1249.4 30.9732 Q1253.41 35.7938 1253.41 45.1919 Z" fill="#000000" fill-rule="evenodd" fill-opacity="1" /><path clip-path="url(#clip540)" d="M1297.2 28.5427 L1297.2 35.5912 Q1294.04 33.9709 1290.64 33.1607 Q1287.24 32.3505 1283.59 32.3505 Q1278.04 32.3505 1275.25 34.0519 Q1272.49 35.7533 1272.49 39.156 Q1272.49 41.7486 1274.48 43.2475 Q1276.46 44.7058 1282.46 46.0426 L1285.01 46.6097 Q1292.95 48.3111 1296.27 51.4303 Q1299.63 54.509 1299.63 60.0587 Q1299.63 66.3781 1294.61 70.0644 Q1289.63 73.7508 1280.88 73.7508 Q1277.23 73.7508 1273.26 73.0216 Q1269.33 72.3329 1264.96 70.9151 L1264.96 63.2184 Q1269.09 65.3654 1273.1 66.4591 Q1277.11 67.5124 1281.04 67.5124 Q1286.31 67.5124 1289.14 65.73 Q1291.98 63.9071 1291.98 60.6258 Q1291.98 57.5877 1289.91 55.9673 Q1287.89 54.3469 1280.96 52.8481 L1278.37 52.2405 Q1271.44 50.7821 1268.36 47.7845 Q1265.28 44.7463 1265.28 39.4801 Q1265.28 33.0797 1269.82 29.5959 Q1274.36 26.1121 1282.7 26.1121 Q1286.83 26.1121 1290.48 26.7198 Q1294.12 27.3274 1297.2 28.5427 Z" fill="#000000" fill-rule="evenodd" fill-opacity="1" /><path clip-path="url(#clip540)" d="M1350.31 48.0275 L1350.31 51.6733 L1316.04 51.6733 Q1316.53 59.3701 1320.66 63.421 Q1324.83 67.4314 1332.24 67.4314 Q1336.54 67.4314 1340.55 66.3781 Q1344.6 65.3249 1348.57 63.2184 L1348.57 70.267 Q1344.56 71.9684 1340.35 72.8596 Q1336.13 73.7508 1331.8 73.7508 Q1320.94 73.7508 1314.58 67.4314 Q1308.26 61.1119 1308.26 50.3365 Q1308.26 39.1965 1314.26 32.6746 Q1320.29 26.1121 1330.5 26.1121 Q1339.66 26.1121 1344.96 32.0264 Q1350.31 37.9003 1350.31 48.0275 M1342.86 45.84 Q1342.78 39.7232 1339.41 36.0774 Q1336.09 32.4315 1330.58 32.4315 Q1324.34 32.4315 1320.58 35.9558 Q1316.85 39.4801 1316.28 45.8805 L1342.86 45.84 Z" fill="#000000" fill-rule="evenodd" fill-opacity="1" /><path clip-path="url(#clip540)" d="M1369.92 14.324 L1369.92 27.2059 L1385.27 27.2059 L1385.27 32.9987 L1369.92 32.9987 L1369.92 57.6282 Q1369.92 63.1779 1371.42 64.7578 Q1372.95 66.3376 1377.61 66.3376 L1385.27 66.3376 L1385.27 72.576 L1377.61 72.576 Q1368.98 72.576 1365.7 69.3758 Q1362.42 66.1351 1362.42 57.6282 L1362.42 32.9987 L1356.95 32.9987 L1356.95 27.2059 L1362.42 27.2059 L1362.42 14.324 L1369.92 14.324 Z" fill="#000000" fill-rule="evenodd" fill-opacity="1" /><path clip-path="url(#clip540)" d="M1447.73 34.1734 Q1446.48 33.4443 1444.98 33.1202 Q1443.52 32.7556 1441.74 32.7556 Q1435.42 32.7556 1432.02 36.8875 Q1428.65 40.9789 1428.65 48.6757 L1428.65 72.576 L1421.16 72.576 L1421.16 27.2059 L1428.65 27.2059 L1428.65 34.2544 Q1431 30.1225 1434.77 28.1376 Q1438.54 26.1121 1443.93 26.1121 Q1444.7 26.1121 1445.63 26.2337 Q1446.56 26.3147 1447.69 26.5172 L1447.73 34.1734 Z" fill="#000000" fill-rule="evenodd" fill-opacity="1" /><path clip-path="url(#clip540)" d="M1476.17 49.7694 Q1467.14 49.7694 1463.65 51.8354 Q1460.17 53.9013 1460.17 58.8839 Q1460.17 62.8538 1462.76 65.2034 Q1465.4 67.5124 1469.89 67.5124 Q1476.09 67.5124 1479.82 63.1374 Q1483.58 58.7219 1483.58 51.4303 L1483.58 49.7694 L1476.17 49.7694 M1491.04 46.6907 L1491.04 72.576 L1483.58 72.576 L1483.58 65.6895 Q1481.03 69.8214 1477.23 71.8063 Q1473.42 73.7508 1467.91 73.7508 Q1460.94 73.7508 1456.81 69.8619 Q1452.72 65.9325 1452.72 59.3701 Q1452.72 51.7138 1457.82 47.825 Q1462.97 43.9361 1473.13 43.9361 L1483.58 43.9361 L1483.58 43.2069 Q1483.58 38.0623 1480.18 35.2672 Q1476.82 32.4315 1470.7 32.4315 Q1466.81 32.4315 1463.13 33.3632 Q1459.44 34.295 1456.04 36.1584 L1456.04 29.2718 Q1460.13 27.692 1463.98 26.9223 Q1467.83 26.1121 1471.47 26.1121 Q1481.32 26.1121 1486.18 31.2163 Q1491.04 36.3204 1491.04 46.6907 Z" fill="#000000" fill-rule="evenodd" fill-opacity="1" /><path clip-path="url(#clip540)" d="M1513.76 14.324 L1513.76 27.2059 L1529.12 27.2059 L1529.12 32.9987 L1513.76 32.9987 L1513.76 57.6282 Q1513.76 63.1779 1515.26 64.7578 Q1516.8 66.3376 1521.46 66.3376 L1529.12 66.3376 L1529.12 72.576 L1521.46 72.576 Q1512.83 72.576 1509.55 69.3758 Q1506.27 66.1351 1506.27 57.6282 L1506.27 32.9987 L1500.8 32.9987 L1500.8 27.2059 L1506.27 27.2059 L1506.27 14.324 L1513.76 14.324 Z" fill="#000000" fill-rule="evenodd" fill-opacity="1" /><path clip-path="url(#clip540)" d="M1577.73 48.0275 L1577.73 51.6733 L1543.46 51.6733 Q1543.94 59.3701 1548.08 63.421 Q1552.25 67.4314 1559.66 67.4314 Q1563.95 67.4314 1567.97 66.3781 Q1572.02 65.3249 1575.99 63.2184 L1575.99 70.267 Q1571.98 71.9684 1567.76 72.8596 Q1563.55 73.7508 1559.22 73.7508 Q1548.36 73.7508 1542 67.4314 Q1535.68 61.1119 1535.68 50.3365 Q1535.68 39.1965 1541.67 32.6746 Q1547.71 26.1121 1557.92 26.1121 Q1567.07 26.1121 1572.38 32.0264 Q1577.73 37.9003 1577.73 48.0275 M1570.27 45.84 Q1570.19 39.7232 1566.83 36.0774 Q1563.51 32.4315 1558 32.4315 Q1551.76 32.4315 1547.99 35.9558 Q1544.27 39.4801 1543.7 45.8805 L1570.27 45.84 Z" fill="#000000" fill-rule="evenodd" fill-opacity="1" /><path clip-path="url(#clip540)" d="M1634.24 9.62495 Q1628.81 18.942 1626.18 28.0566 Q1623.54 37.1711 1623.54 46.5287 Q1623.54 55.8863 1626.18 65.0818 Q1628.85 74.2369 1634.24 83.5134 L1627.76 83.5134 Q1621.68 73.9938 1618.64 64.7983 Q1615.64 55.6027 1615.64 46.5287 Q1615.64 37.4952 1618.64 28.3401 Q1621.64 19.1851 1627.76 9.62495 L1634.24 9.62495 Z" fill="#000000" fill-rule="evenodd" fill-opacity="1" /><path clip-path="url(#clip540)" d="M1651.17 65.6895 L1664.54 65.6895 L1664.54 19.5497 L1650 22.4663 L1650 15.0127 L1664.46 12.096 L1672.64 12.096 L1672.64 65.6895 L1686.01 65.6895 L1686.01 72.576 L1651.17 72.576 L1651.17 65.6895 Z" fill="#000000" fill-rule="evenodd" fill-opacity="1" /><path clip-path="url(#clip540)" d="M1714.73 12.096 L1721.62 12.096 L1700.55 80.2727 L1693.66 80.2727 L1714.73 12.096 Z" fill="#000000" fill-rule="evenodd" fill-opacity="1" /><path clip-path="url(#clip540)" d="M1748.31 76.7889 Q1745.15 84.8907 1742.15 87.3618 Q1739.16 89.8329 1734.13 89.8329 L1728.18 89.8329 L1728.18 83.5945 L1732.55 83.5945 Q1735.63 83.5945 1737.33 82.1361 Q1739.04 80.6778 1741.1 75.2496 L1742.44 71.8468 L1724.09 27.2059 L1731.99 27.2059 L1746.16 62.6918 L1760.34 27.2059 L1768.24 27.2059 L1748.31 76.7889 Z" fill="#000000" fill-rule="evenodd" fill-opacity="1" /><path clip-path="url(#clip540)" d="M1804.82 34.1734 Q1803.57 33.4443 1802.07 33.1202 Q1800.61 32.7556 1798.83 32.7556 Q1792.51 32.7556 1789.1 36.8875 Q1785.74 40.9789 1785.74 48.6757 L1785.74 72.576 L1778.25 72.576 L1778.25 27.2059 L1785.74 27.2059 L1785.74 34.2544 Q1788.09 30.1225 1791.86 28.1376 Q1795.63 26.1121 1801.01 26.1121 Q1801.78 26.1121 1802.72 26.2337 Q1803.65 26.3147 1804.78 26.5172 L1804.82 34.1734 Z" fill="#000000" fill-rule="evenodd" fill-opacity="1" /><path clip-path="url(#clip540)" d="M1811.47 9.62495 L1817.95 9.62495 Q1824.02 19.1851 1827.02 28.3401 Q1830.06 37.4952 1830.06 46.5287 Q1830.06 55.6027 1827.02 64.7983 Q1824.02 73.9938 1817.95 83.5134 L1811.47 83.5134 Q1816.85 74.2369 1819.49 65.0818 Q1822.16 55.8863 1822.16 46.5287 Q1822.16 37.1711 1819.49 28.0566 Q1816.85 18.942 1811.47 9.62495 Z" fill="#000000" fill-rule="evenodd" fill-opacity="1" /><polyline clip-path="url(#clip542)" style="stroke:#009af9; stroke-linecap:butt; stroke-linejoin:round; stroke-width:4; stroke-opacity:1; fill:none" points="
  247.59,1447.87 257.86,1447.86 268.131,1447.85 278.401,1447.83 288.672,1447.79 298.943,1447.73 309.213,1447.61 319.484,1447.43 329.754,1447.13 340.025,1446.65 
  350.296,1445.91 360.566,1444.78 370.837,1443.1 381.107,1440.64 391.378,1437.1 401.649,1432.12 411.919,1425.25 422.19,1415.97 432.46,1403.65 442.731,1387.64 
  453.002,1367.24 463.272,1341.75 473.543,1310.53 483.813,1273.05 494.084,1228.95 504.355,1178.11 514.625,1120.68 524.896,1057.11 535.167,988.19 545.437,915.021 
  555.708,838.974 565.978,761.627 576.249,684.686 586.52,609.886 596.79,538.895 607.061,473.22 617.331,414.131 627.602,362.607 637.873,319.303 648.143,284.543 
  658.414,258.339 668.684,240.423 678.955,230.293 689.226,227.268 699.496,230.541 709.767,239.23 720.037,252.424 730.308,269.222 740.579,288.762 750.849,310.248 
  761.12,332.966 771.39,356.305 781.661,379.76 791.932,402.949 802.202,425.611 812.473,447.613 822.744,468.941 833.014,489.69 843.285,510.048 853.555,530.264 
  863.826,550.623 874.097,571.403 884.367,592.841 894.638,615.096 904.908,638.227 915.179,662.17 925.45,686.742 935.72,711.647 945.991,736.502 956.261,760.869 
  966.532,784.293 976.803,806.343 987.073,826.644 997.344,844.908 1007.61,860.946 1017.89,874.679 1028.16,886.134 1038.43,895.439 1048.7,902.805 1058.97,908.518 
  1069.24,912.923 1079.51,916.406 1089.78,919.389 1100.05,922.307 1110.32,925.596 1120.59,929.671 1130.86,934.909 1141.13,941.625 1151.4,950.051 1161.67,960.321 
  1171.94,972.457 1182.21,986.371 1192.49,1001.87 1202.76,1018.66 1213.03,1036.39 1223.3,1054.68 1233.57,1073.12 1243.84,1091.34 1254.11,1109 1264.38,1125.86 
  1274.65,1141.74 1284.92,1156.54 1295.19,1170.25 1305.46,1182.92 1315.73,1194.68 1326,1205.67 1336.27,1216.05 1346.54,1226.03 1356.82,1235.77 1367.09,1245.42 
  1377.36,1255.12 1387.63,1264.94 1397.9,1274.93 1408.17,1285.07 1418.44,1295.31 1428.71,1305.55 1438.98,1315.66 1449.25,1325.47 1459.52,1334.82 1469.79,1343.57 
  1480.06,1351.59 1490.33,1358.8 1500.6,1365.15 1510.87,1370.66 1521.14,1375.39 1531.42,1379.42 1541.69,1382.88 1551.96,1385.88 1562.23,1388.56 1572.5,1391.02 
  1582.77,1393.36 1593.04,1395.64 1603.31,1397.92 1613.58,1400.23 1623.85,1402.58 1634.12,1404.99 1644.39,1407.45 1654.66,1409.95 1664.93,1412.49 1675.2,1415.04 
  1685.47,1417.56 1695.75,1420.01 1706.02,1422.35 1716.29,1424.51 1726.56,1426.43 1736.83,1428.08 1747.1,1429.41 1757.37,1430.4 1767.64,1431.07 1777.91,1431.45 
  1788.18,1431.6 1798.45,1431.59 1808.72,1431.5 1818.99,1431.43 1829.26,1431.44 1839.53,1431.61 1849.8,1431.96 1860.07,1432.51 1870.35,1433.24 1880.62,1434.12 
  1890.89,1435.1 1901.16,1436.1 1911.43,1437.06 1921.7,1437.93 1931.97,1438.65 1942.24,1439.2 1952.51,1439.56 1962.78,1439.75 1973.05,1439.81 1983.32,1439.77 
  1993.59,1439.69 2003.86,1439.62 2014.13,1439.61 2024.4,1439.7 2034.68,1439.92 2044.95,1440.26 2055.22,1440.74 2065.49,1441.33 2075.76,1441.99 2086.03,1442.71 
  2096.3,1443.45 2106.57,1444.17 2116.84,1444.84 2127.11,1445.45 2137.38,1445.98 2147.65,1446.43 2157.92,1446.8 2168.19,1447.1 2178.46,1447.32 2188.73,1447.49 
  2199,1447.62 2209.28,1447.71 2219.55,1447.77 2229.82,1447.81 2240.09,1447.84 2250.36,1447.85 2260.63,1447.86 2270.9,1447.87 2281.17,1447.87 2291.44,1447.87 
  
  "/>
<polyline clip-path="url(#clip542)" style="stroke:#e26f46; stroke-linecap:butt; stroke-linejoin:round; stroke-width:4; stroke-opacity:1; fill:none" points="
  305.124,1447.87 314.432,1447.86 323.74,1447.84 333.048,1447.81 342.356,1447.75 351.664,1447.64 360.972,1447.46 370.28,1447.15 379.589,1446.63 388.897,1445.81 
  398.205,1444.52 407.513,1442.54 416.821,1439.61 426.129,1435.35 435.437,1429.33 444.746,1421.03 454.054,1409.85 463.362,1395.17 472.67,1376.35 481.978,1352.8 
  491.286,1324.02 500.594,1289.63 509.902,1249.45 519.211,1203.53 528.519,1152.14 537.827,1095.78 547.135,1035.17 556.443,971.225 565.751,904.973 575.059,837.548 
  584.368,770.127 593.676,703.888 602.984,639.965 612.292,579.414 621.6,523.161 630.908,471.967 640.216,426.382 649.524,386.716 658.833,353.016 668.141,325.073 
  677.449,302.448 686.757,284.523 696.065,270.581 705.373,259.881 714.681,251.738 723.99,245.59 733.298,241.03 742.606,237.813 751.914,235.833 761.222,235.079 
  770.53,235.575 779.838,237.325 789.146,240.277 798.455,244.305 807.763,249.213 817.071,254.778 826.379,260.797 835.687,267.153 844.995,273.869 854.303,281.152 
  863.611,289.406 872.92,299.216 882.228,311.299 891.536,326.423 900.844,345.31 910.152,368.537 919.46,396.443 928.768,429.06 938.077,466.084 947.385,506.883 
  956.693,550.55 966.001,595.975 975.309,641.949 984.617,687.263 993.925,730.794 1003.23,771.571 1012.54,808.822 1021.85,841.987 1031.16,870.719 1040.47,894.88 
  1049.77,914.525 1059.08,929.895 1068.39,941.411 1077.7,949.659 1087.01,955.373 1096.31,959.401 1105.62,962.659 1114.93,966.067 1124.24,970.479 1133.55,976.617 
  1142.86,985.008 1152.16,995.952 1161.47,1009.5 1170.78,1025.46 1180.09,1043.43 1189.4,1062.89 1198.7,1083.18 1208.01,1103.65 1217.32,1123.66 1226.63,1142.66 
  1235.94,1160.22 1245.24,1176.06 1254.55,1190.03 1263.86,1202.14 1273.17,1212.53 1282.48,1221.42 1291.79,1229.15 1301.09,1236.04 1310.4,1242.48 1319.71,1248.79 
  1329.02,1255.26 1338.33,1262.12 1347.63,1269.48 1356.94,1277.41 1366.25,1285.86 1375.56,1294.73 1384.87,1303.85 1394.18,1312.99 1403.48,1321.93 1412.79,1330.42 
  1422.1,1338.23 1431.41,1345.18 1440.72,1351.14 1450.02,1356.05 1459.33,1359.94 1468.64,1362.91 1477.95,1365.15 1487.26,1366.92 1496.56,1368.49 1505.87,1370.14 
  1515.18,1372.14 1524.49,1374.67 1533.8,1377.87 1543.11,1381.77 1552.41,1386.31 1561.72,1391.37 1571.03,1396.78 1580.34,1402.34 1589.65,1407.84 1598.95,1413.11 
  1608.26,1417.98 1617.57,1422.35 1626.88,1426.14 1636.19,1429.32 1645.49,1431.89 1654.8,1433.87 1664.11,1435.33 1673.42,1436.32 1682.73,1436.95 1692.04,1437.3 
  1701.34,1437.47 1710.65,1437.57 1719.96,1437.68 1729.27,1437.87 1738.58,1438.19 1747.88,1438.65 1757.19,1439.25 1766.5,1439.97 1775.81,1440.77 1785.12,1441.58 
  1794.42,1442.36 1803.73,1443.03 1813.04,1443.56 1822.35,1443.9 1831.66,1444.03 1840.97,1443.94 1850.27,1443.64 1859.58,1443.15 1868.89,1442.51 1878.2,1441.76 
  1887.51,1440.99 1896.81,1440.24 1906.12,1439.59 1915.43,1439.09 1924.74,1438.8 1934.05,1438.74 1943.35,1438.92 1952.66,1439.33 1961.97,1439.94 1971.28,1440.7 
  1980.59,1441.56 1989.9,1442.47 1999.2,1443.37 2008.51,1444.22 2017.82,1444.99 2027.13,1445.66 2036.44,1446.22 2045.74,1446.67 2055.05,1447.03 2064.36,1447.29 
  2073.67,1447.49 2082.98,1447.62 2092.28,1447.72 2101.59,1447.78 2110.9,1447.82 2120.21,1447.84 2129.52,1447.86 2138.83,1447.87 2148.13,1447.87 2157.44,1447.87 
  
  "/>
<polyline clip-path="url(#clip542)" style="stroke:#3da44d; stroke-linecap:butt; stroke-linejoin:round; stroke-width:4; stroke-opacity:1; fill:none" points="
  298.879,1447.86 307.581,1447.85 316.283,1447.83 324.984,1447.79 333.686,1447.72 342.388,1447.61 351.09,1447.44 359.792,1447.16 368.494,1446.73 377.195,1446.07 
  385.897,1445.08 394.599,1443.62 403.301,1441.52 412.003,1438.54 420.705,1434.39 429.406,1428.72 438.108,1421.11 446.81,1411.07 455.512,1398.08 464.214,1381.57 
  472.916,1360.95 481.617,1335.66 490.319,1305.18 499.021,1269.09 507.723,1227.1 516.425,1179.11 525.127,1125.18 533.828,1065.62 542.53,1000.98 551.232,932.031 
  559.934,859.745 568.636,785.284 577.338,709.942 586.039,635.096 594.741,562.149 603.443,492.468 612.145,427.336 620.847,367.89 629.549,315.086 638.25,269.663 
  646.952,232.118 655.654,202.7 664.356,181.407 673.058,168.005 681.76,162.047 690.461,162.907 699.163,169.82 707.865,181.93 716.567,198.328 725.269,218.103 
  733.971,240.375 742.672,264.331 751.374,289.248 760.076,314.501 768.778,339.573 777.48,364.043 786.182,387.58 794.883,409.918 803.585,430.848 812.287,450.196 
  820.989,467.819 829.691,483.598 838.392,497.448 847.094,509.33 855.796,519.268 864.498,527.369 873.2,533.843 881.902,539.011 890.603,543.304 899.305,547.253 
  908.007,551.455 916.709,556.542 925.411,563.124 934.113,571.746 942.814,582.833 951.516,596.655 960.218,613.299 968.92,632.66 977.622,654.45 986.324,678.224 
  995.025,703.415 1003.73,729.385 1012.43,755.472 1021.13,781.039 1029.83,805.517 1038.53,828.441 1047.24,849.47 1055.94,868.4 1064.64,885.167 1073.34,899.84 
  1082.04,912.603 1090.75,923.738 1099.45,933.601 1108.15,942.594 1116.85,951.142 1125.55,959.664 1134.25,968.551 1142.96,978.148 1151.66,988.729 1160.36,1000.49 
  1169.06,1013.54 1177.76,1027.9 1186.47,1043.5 1195.17,1060.2 1203.87,1077.77 1212.57,1095.96 1221.27,1114.47 1229.97,1133 1238.68,1151.23 1247.38,1168.91 
  1256.08,1185.77 1264.78,1201.63 1273.48,1216.32 1282.19,1229.76 1290.89,1241.89 1299.59,1252.73 1308.29,1262.3 1316.99,1270.7 1325.7,1278.02 1334.4,1284.4 
  1343.1,1289.99 1351.8,1294.92 1360.5,1299.36 1369.2,1303.45 1377.91,1307.33 1386.61,1311.13 1395.31,1314.96 1404.01,1318.89 1412.71,1322.98 1421.42,1327.25 
  1430.12,1331.71 1438.82,1336.32 1447.52,1341.02 1456.22,1345.73 1464.92,1350.35 1473.63,1354.79 1482.33,1358.95 1491.03,1362.74 1499.73,1366.09 1508.43,1368.96 
  1517.14,1371.34 1525.84,1373.25 1534.54,1374.71 1543.24,1375.81 1551.94,1376.63 1560.64,1377.27 1569.35,1377.83 1578.05,1378.43 1586.75,1379.17 1595.45,1380.14 
  1604.15,1381.42 1612.86,1383.06 1621.56,1385.1 1630.26,1387.54 1638.96,1390.38 1647.66,1393.57 1656.36,1397.04 1665.07,1400.72 1673.77,1404.52 1682.47,1408.34 
  1691.17,1412.09 1699.87,1415.68 1708.58,1419.03 1717.28,1422.09 1725.98,1424.84 1734.68,1427.26 1743.38,1429.36 1752.08,1431.16 1760.79,1432.72 1769.49,1434.07 
  1778.19,1435.26 1786.89,1436.34 1795.59,1437.35 1804.3,1438.31 1813,1439.25 1821.7,1440.17 1830.4,1441.07 1839.1,1441.95 1847.8,1442.79 1856.51,1443.58 
  1865.21,1444.31 1873.91,1444.96 1882.61,1445.54 1891.31,1446.04 1900.02,1446.46 1908.72,1446.8 1917.42,1447.08 1926.12,1447.29 1934.82,1447.46 1943.53,1447.59 
  1952.23,1447.68 1960.93,1447.74 1969.63,1447.79 1978.33,1447.82 1987.03,1447.84 1995.74,1447.86 2004.44,1447.86 2013.14,1447.87 2021.84,1447.87 2030.54,1447.87 
  
  "/>
<path clip-path="url(#clip540)" d="
M1986.81 376.265 L2280.54 376.265 L2280.54 168.905 L1986.81 168.905  Z
  " fill="#ffffff" fill-rule="evenodd" fill-opacity="1"/>
<polyline clip-path="url(#clip540)" style="stroke:#000000; stroke-linecap:butt; stroke-linejoin:round; stroke-width:4; stroke-opacity:1; fill:none" points="
  1986.81,376.265 2280.54,376.265 2280.54,168.905 1986.81,168.905 1986.81,376.265 
  "/>
<polyline clip-path="url(#clip540)" style="stroke:#009af9; stroke-linecap:butt; stroke-linejoin:round; stroke-width:4; stroke-opacity:1; fill:none" points="
  2010.88,220.745 2155.31,220.745 
  "/>
<path clip-path="url(#clip540)" d="M2193.23 240.432 Q2191.42 245.062 2189.71 246.474 Q2188 247.886 2185.13 247.886 L2181.72 247.886 L2181.72 244.321 L2184.22 244.321 Q2185.98 244.321 2186.96 243.488 Q2187.93 242.654 2189.11 239.552 L2189.87 237.608 L2179.39 212.099 L2183.9 212.099 L2192 232.377 L2200.1 212.099 L2204.62 212.099 L2193.23 240.432 Z" fill="#000000" fill-rule="evenodd" fill-opacity="1" /><path clip-path="url(#clip540)" d="M2211.91 234.089 L2219.55 234.089 L2219.55 207.724 L2211.24 209.391 L2211.24 205.131 L2219.5 203.465 L2224.18 203.465 L2224.18 234.089 L2231.82 234.089 L2231.82 238.025 L2211.91 238.025 L2211.91 234.089 Z" fill="#000000" fill-rule="evenodd" fill-opacity="1" /><polyline clip-path="url(#clip540)" style="stroke:#e26f46; stroke-linecap:butt; stroke-linejoin:round; stroke-width:4; stroke-opacity:1; fill:none" points="
  2010.88,272.585 2155.31,272.585 
  "/>
<path clip-path="url(#clip540)" d="M2193.23 292.272 Q2191.42 296.902 2189.71 298.314 Q2188 299.726 2185.13 299.726 L2181.72 299.726 L2181.72 296.161 L2184.22 296.161 Q2185.98 296.161 2186.96 295.328 Q2187.93 294.494 2189.11 291.392 L2189.87 289.448 L2179.39 263.939 L2183.9 263.939 L2192 284.217 L2200.1 263.939 L2204.62 263.939 L2193.23 292.272 Z" fill="#000000" fill-rule="evenodd" fill-opacity="1" /><path clip-path="url(#clip540)" d="M2215.13 285.929 L2231.45 285.929 L2231.45 289.865 L2209.5 289.865 L2209.5 285.929 Q2212.16 283.175 2216.75 278.545 Q2221.35 273.893 2222.53 272.55 Q2224.78 270.027 2225.66 268.291 Q2226.56 266.531 2226.56 264.842 Q2226.56 262.087 2224.62 260.351 Q2222.7 258.615 2219.59 258.615 Q2217.4 258.615 2214.94 259.379 Q2212.51 260.143 2209.73 261.694 L2209.73 256.971 Q2212.56 255.837 2215.01 255.258 Q2217.47 254.68 2219.5 254.68 Q2224.87 254.68 2228.07 257.365 Q2231.26 260.05 2231.26 264.541 Q2231.26 266.67 2230.45 268.592 Q2229.66 270.49 2227.56 273.082 Q2226.98 273.754 2223.88 276.971 Q2220.78 280.166 2215.13 285.929 Z" fill="#000000" fill-rule="evenodd" fill-opacity="1" /><polyline clip-path="url(#clip540)" style="stroke:#3da44d; stroke-linecap:butt; stroke-linejoin:round; stroke-width:4; stroke-opacity:1; fill:none" points="
  2010.88,324.425 2155.31,324.425 
  "/>
<path clip-path="url(#clip540)" d="M2193.23 344.112 Q2191.42 348.742 2189.71 350.154 Q2188 351.566 2185.13 351.566 L2181.72 351.566 L2181.72 348.001 L2184.22 348.001 Q2185.98 348.001 2186.96 347.168 Q2187.93 346.334 2189.11 343.232 L2189.87 341.288 L2179.39 315.779 L2183.9 315.779 L2192 336.057 L2200.1 315.779 L2204.62 315.779 L2193.23 344.112 Z" fill="#000000" fill-rule="evenodd" fill-opacity="1" /><path clip-path="url(#clip540)" d="M2225.27 323.07 Q2228.62 323.788 2230.5 326.057 Q2232.4 328.325 2232.4 331.658 Q2232.4 336.774 2228.88 339.575 Q2225.36 342.376 2218.88 342.376 Q2216.7 342.376 2214.39 341.936 Q2212.09 341.519 2209.64 340.663 L2209.64 336.149 Q2211.59 337.283 2213.9 337.862 Q2216.22 338.441 2218.74 338.441 Q2223.14 338.441 2225.43 336.705 Q2227.74 334.969 2227.74 331.658 Q2227.74 328.603 2225.59 326.89 Q2223.46 325.154 2219.64 325.154 L2215.61 325.154 L2215.61 321.311 L2219.83 321.311 Q2223.28 321.311 2225.1 319.946 Q2226.93 318.557 2226.93 315.964 Q2226.93 313.302 2225.03 311.89 Q2223.16 310.455 2219.64 310.455 Q2217.72 310.455 2215.52 310.871 Q2213.32 311.288 2210.68 312.168 L2210.68 308.001 Q2213.34 307.26 2215.66 306.89 Q2218 306.52 2220.06 306.52 Q2225.38 306.52 2228.48 308.95 Q2231.59 311.358 2231.59 315.478 Q2231.59 318.348 2229.94 320.339 Q2228.3 322.307 2225.27 323.07 Z" fill="#000000" fill-rule="evenodd" fill-opacity="1" /></svg>
