<?xml version="1.0" encoding="utf-8"?>
<svg xmlns="http://www.w3.org/2000/svg" xmlns:xlink="http://www.w3.org/1999/xlink" width="600" height="400" viewBox="0 0 2400 1600">
<defs>
  <clipPath id="clip100">
    <rect x="0" y="0" width="2400" height="1600"/>
  </clipPath>
</defs>
<path clip-path="url(#clip100)" d="
M0 1600 L2400 1600 L2400 0 L0 0  Z
  " fill="#ffffff" fill-rule="evenodd" fill-opacity="1"/>
<defs>
  <clipPath id="clip101">
    <rect x="480" y="0" width="1681" height="1600"/>
  </clipPath>
</defs>
<path clip-path="url(#clip100)" d="
M202.227 1423.18 L2352.76 1423.18 L2352.76 123.472 L202.227 123.472  Z
  " fill="#ffffff" fill-rule="evenodd" fill-opacity="1"/>
<defs>
  <clipPath id="clip102">
    <rect x="202" y="123" width="2152" height="1301"/>
  </clipPath>
</defs>
<polyline clip-path="url(#clip102)" style="stroke:#000000; stroke-linecap:butt; stroke-linejoin:round; stroke-width:2; stroke-opacity:0.1; fill:none" points="
  442.13,1423.18 442.13,123.472 
  "/>
<polyline clip-path="url(#clip102)" style="stroke:#000000; stroke-linecap:butt; stroke-linejoin:round; stroke-width:2; stroke-opacity:0.1; fill:none" points="
  921.672,1423.18 921.672,123.472 
  "/>
<polyline clip-path="url(#clip102)" style="stroke:#000000; stroke-linecap:butt; stroke-linejoin:round; stroke-width:2; stroke-opacity:0.1; fill:none" points="
  1401.21,1423.18 1401.21,123.472 
  "/>
<polyline clip-path="url(#clip102)" style="stroke:#000000; stroke-linecap:butt; stroke-linejoin:round; stroke-width:2; stroke-opacity:0.1; fill:none" points="
  1880.76,1423.18 1880.76,123.472 
  "/>
<polyline clip-path="url(#clip100)" style="stroke:#000000; stroke-linecap:butt; stroke-linejoin:round; stroke-width:4; stroke-opacity:1; fill:none" points="
  202.227,1423.18 2352.76,1423.18 
  "/>
<polyline clip-path="url(#clip100)" style="stroke:#000000; stroke-linecap:butt; stroke-linejoin:round; stroke-width:4; stroke-opacity:1; fill:none" points="
  442.13,1423.18 442.13,1404.28 
  "/>
<polyline clip-path="url(#clip100)" style="stroke:#000000; stroke-linecap:butt; stroke-linejoin:round; stroke-width:4; stroke-opacity:1; fill:none" points="
  921.672,1423.18 921.672,1404.28 
  "/>
<polyline clip-path="url(#clip100)" style="stroke:#000000; stroke-linecap:butt; stroke-linejoin:round; stroke-width:4; stroke-opacity:1; fill:none" points="
  1401.21,1423.18 1401.21,1404.28 
  "/>
<polyline clip-path="url(#clip100)" style="stroke:#000000; stroke-linecap:butt; stroke-linejoin:round; stroke-width:4; stroke-opacity:1; fill:none" points="
  1880.76,1423.18 1880.76,1404.28 
  "/>
<path clip-path="url(#clip100)" d="M409.283 1481.64 L416.921 1481.64 L416.921 1455.28 L408.611 1456.95 L408.611 1452.69 L416.875 1451.02 L421.551 1451.02 L421.551 1481.64 L429.19 1481.64 L429.19 1485.58 L409.283 1485.58 L409.283 1481.64 Z" fill="#000000" fill-rule="evenodd" fill-opacity="1" /><path clip-path="url(#clip100)" d="M438.634 1479.7 L443.518 1479.7 L443.518 1485.58 L438.634 1485.58 L438.634 1479.7 Z" fill="#000000" fill-rule="evenodd" fill-opacity="1" /><path clip-path="url(#clip100)" d="M463.704 1454.1 Q460.092 1454.1 458.264 1457.66 Q456.458 1461.2 456.458 1468.33 Q456.458 1475.44 458.264 1479.01 Q460.092 1482.55 463.704 1482.55 Q467.338 1482.55 469.143 1479.01 Q470.972 1475.44 470.972 1468.33 Q470.972 1461.2 469.143 1457.66 Q467.338 1454.1 463.704 1454.1 M463.704 1450.39 Q469.514 1450.39 472.569 1455 Q475.648 1459.58 475.648 1468.33 Q475.648 1477.06 472.569 1481.67 Q469.514 1486.25 463.704 1486.25 Q457.893 1486.25 454.815 1481.67 Q451.759 1477.06 451.759 1468.33 Q451.759 1459.58 454.815 1455 Q457.893 1450.39 463.704 1450.39 Z" fill="#000000" fill-rule="evenodd" fill-opacity="1" /><path clip-path="url(#clip100)" d="M889.322 1481.64 L896.961 1481.64 L896.961 1455.28 L888.651 1456.95 L888.651 1452.69 L896.915 1451.02 L901.591 1451.02 L901.591 1481.64 L909.23 1481.64 L909.23 1485.58 L889.322 1485.58 L889.322 1481.64 Z" fill="#000000" fill-rule="evenodd" fill-opacity="1" /><path clip-path="url(#clip100)" d="M918.674 1479.7 L923.558 1479.7 L923.558 1485.58 L918.674 1485.58 L918.674 1479.7 Z" fill="#000000" fill-rule="evenodd" fill-opacity="1" /><path clip-path="url(#clip100)" d="M933.79 1451.02 L952.146 1451.02 L952.146 1454.96 L938.072 1454.96 L938.072 1463.43 Q939.091 1463.08 940.109 1462.92 Q941.128 1462.73 942.146 1462.73 Q947.933 1462.73 951.313 1465.9 Q954.692 1469.08 954.692 1474.49 Q954.692 1480.07 951.22 1483.17 Q947.748 1486.25 941.429 1486.25 Q939.253 1486.25 936.984 1485.88 Q934.739 1485.51 932.331 1484.77 L932.331 1480.07 Q934.415 1481.2 936.637 1481.76 Q938.859 1482.32 941.336 1482.32 Q945.341 1482.32 947.679 1480.21 Q950.017 1478.1 950.017 1474.49 Q950.017 1470.88 947.679 1468.77 Q945.341 1466.67 941.336 1466.67 Q939.461 1466.67 937.586 1467.08 Q935.734 1467.5 933.79 1468.38 L933.79 1451.02 Z" fill="#000000" fill-rule="evenodd" fill-opacity="1" /><path clip-path="url(#clip100)" d="M1372.45 1481.64 L1388.77 1481.64 L1388.77 1485.58 L1366.83 1485.58 L1366.83 1481.64 Q1369.49 1478.89 1374.07 1474.26 Q1378.68 1469.61 1379.86 1468.27 Q1382.11 1465.74 1382.98 1464.01 Q1383.89 1462.25 1383.89 1460.56 Q1383.89 1457.8 1381.94 1456.07 Q1380.02 1454.33 1376.92 1454.33 Q1374.72 1454.33 1372.27 1455.09 Q1369.84 1455.86 1367.06 1457.41 L1367.06 1452.69 Q1369.88 1451.55 1372.34 1450.97 Q1374.79 1450.39 1376.83 1450.39 Q1382.2 1450.39 1385.39 1453.08 Q1388.59 1455.77 1388.59 1460.26 Q1388.59 1462.39 1387.78 1464.31 Q1386.99 1466.2 1384.88 1468.8 Q1384.3 1469.47 1381.2 1472.69 Q1378.1 1475.88 1372.45 1481.64 Z" fill="#000000" fill-rule="evenodd" fill-opacity="1" /><path clip-path="url(#clip100)" d="M1398.59 1479.7 L1403.47 1479.7 L1403.47 1485.58 L1398.59 1485.58 L1398.59 1479.7 Z" fill="#000000" fill-rule="evenodd" fill-opacity="1" /><path clip-path="url(#clip100)" d="M1423.66 1454.1 Q1420.04 1454.1 1418.22 1457.66 Q1416.41 1461.2 1416.41 1468.33 Q1416.41 1475.44 1418.22 1479.01 Q1420.04 1482.55 1423.66 1482.55 Q1427.29 1482.55 1429.1 1479.01 Q1430.92 1475.44 1430.92 1468.33 Q1430.92 1461.2 1429.1 1457.66 Q1427.29 1454.1 1423.66 1454.1 M1423.66 1450.39 Q1429.47 1450.39 1432.52 1455 Q1435.6 1459.58 1435.6 1468.33 Q1435.6 1477.06 1432.52 1481.67 Q1429.47 1486.25 1423.66 1486.25 Q1417.85 1486.25 1414.77 1481.67 Q1411.71 1477.06 1411.71 1468.33 Q1411.71 1459.58 1414.77 1455 Q1417.85 1450.39 1423.66 1450.39 Z" fill="#000000" fill-rule="evenodd" fill-opacity="1" /><path clip-path="url(#clip100)" d="M1852.49 1481.64 L1868.81 1481.64 L1868.81 1485.58 L1846.87 1485.58 L1846.87 1481.64 Q1849.53 1478.89 1854.11 1474.26 Q1858.72 1469.61 1859.9 1468.27 Q1862.15 1465.74 1863.02 1464.01 Q1863.93 1462.25 1863.93 1460.56 Q1863.93 1457.8 1861.98 1456.07 Q1860.06 1454.33 1856.96 1454.33 Q1854.76 1454.33 1852.31 1455.09 Q1849.88 1455.86 1847.1 1457.41 L1847.1 1452.69 Q1849.92 1451.55 1852.38 1450.97 Q1854.83 1450.39 1856.87 1450.39 Q1862.24 1450.39 1865.43 1453.08 Q1868.63 1455.77 1868.63 1460.26 Q1868.63 1462.39 1867.82 1464.31 Q1867.03 1466.2 1864.92 1468.8 Q1864.34 1469.47 1861.24 1472.69 Q1858.14 1475.88 1852.49 1481.64 Z" fill="#000000" fill-rule="evenodd" fill-opacity="1" /><path clip-path="url(#clip100)" d="M1878.63 1479.7 L1883.51 1479.7 L1883.51 1485.58 L1878.63 1485.58 L1878.63 1479.7 Z" fill="#000000" fill-rule="evenodd" fill-opacity="1" /><path clip-path="url(#clip100)" d="M1893.74 1451.02 L1912.1 1451.02 L1912.1 1454.96 L1898.02 1454.96 L1898.02 1463.43 Q1899.04 1463.08 1900.06 1462.92 Q1901.08 1462.73 1902.1 1462.73 Q1907.89 1462.73 1911.27 1465.9 Q1914.64 1469.08 1914.64 1474.49 Q1914.64 1480.07 1911.17 1483.17 Q1907.7 1486.25 1901.38 1486.25 Q1899.21 1486.25 1896.94 1485.88 Q1894.69 1485.51 1892.28 1484.77 L1892.28 1480.07 Q1894.37 1481.2 1896.59 1481.76 Q1898.81 1482.32 1901.29 1482.32 Q1905.29 1482.32 1907.63 1480.21 Q1909.97 1478.1 1909.97 1474.49 Q1909.97 1470.88 1907.63 1468.77 Q1905.29 1466.67 1901.29 1466.67 Q1899.41 1466.67 1897.54 1467.08 Q1895.69 1467.5 1893.74 1468.38 L1893.74 1451.02 Z" fill="#000000" fill-rule="evenodd" fill-opacity="1" /><path clip-path="url(#clip100)" d="M939.457 1561.26 L939.457 1548.5 L928.953 1548.5 L928.953 1543.22 L945.822 1543.22 L945.822 1563.62 Q942.099 1566.26 937.611 1567.63 Q933.123 1568.97 928.03 1568.97 Q916.89 1568.97 910.588 1562.47 Q904.318 1555.95 904.318 1544.33 Q904.318 1532.68 910.588 1526.19 Q916.89 1519.66 928.03 1519.66 Q932.677 1519.66 936.847 1520.81 Q941.048 1521.96 944.581 1524.18 L944.581 1531.03 Q941.016 1528 937.006 1526.48 Q932.996 1524.95 928.571 1524.95 Q919.85 1524.95 915.458 1529.82 Q911.098 1534.69 911.098 1544.33 Q911.098 1553.94 915.458 1558.81 Q919.85 1563.68 928.571 1563.68 Q931.977 1563.68 934.651 1563.11 Q937.324 1562.51 939.457 1561.26 Z" fill="#000000" fill-rule="evenodd" fill-opacity="1" /><path clip-path="url(#clip100)" d="M956.708 1553.98 L956.708 1532.4 L962.564 1532.4 L962.564 1553.75 Q962.564 1558.81 964.538 1561.36 Q966.511 1563.87 970.458 1563.87 Q975.2 1563.87 977.937 1560.85 Q980.707 1557.83 980.707 1552.61 L980.707 1532.4 L986.563 1532.4 L986.563 1568.04 L980.707 1568.04 L980.707 1562.57 Q978.574 1565.82 975.741 1567.41 Q972.94 1568.97 969.216 1568.97 Q963.074 1568.97 959.891 1565.15 Q956.708 1561.33 956.708 1553.98 M971.444 1531.54 L971.444 1531.54 Z" fill="#000000" fill-rule="evenodd" fill-opacity="1" /><path clip-path="url(#clip100)" d="M1028.26 1546.53 L1028.26 1568.04 L1022.4 1568.04 L1022.4 1546.72 Q1022.4 1541.66 1020.43 1539.14 Q1018.46 1536.63 1014.51 1536.63 Q1009.77 1536.63 1007.03 1539.65 Q1004.29 1542.68 1004.29 1547.9 L1004.29 1568.04 L998.403 1568.04 L998.403 1532.4 L1004.29 1532.4 L1004.29 1537.93 Q1006.39 1534.72 1009.22 1533.13 Q1012.09 1531.54 1015.81 1531.54 Q1021.96 1531.54 1025.11 1535.36 Q1028.26 1539.14 1028.26 1546.53 Z" fill="#000000" fill-rule="evenodd" fill-opacity="1" /><path clip-path="url(#clip100)" d="M1083.45 1545.76 Q1085.52 1546.46 1087.46 1548.76 Q1089.43 1551.05 1091.41 1555.06 L1097.93 1568.04 L1091.02 1568.04 L1084.94 1555.85 Q1082.59 1551.08 1080.36 1549.52 Q1078.17 1547.96 1074.35 1547.96 L1067.34 1547.96 L1067.34 1568.04 L1060.91 1568.04 L1060.91 1520.52 L1075.43 1520.52 Q1083.58 1520.52 1087.59 1523.93 Q1091.6 1527.34 1091.6 1534.21 Q1091.6 1538.7 1089.5 1541.66 Q1087.43 1544.62 1083.45 1545.76 M1067.34 1525.81 L1067.34 1542.68 L1075.43 1542.68 Q1080.08 1542.68 1082.43 1540.54 Q1084.82 1538.38 1084.82 1534.21 Q1084.82 1530.04 1082.43 1527.94 Q1080.08 1525.81 1075.43 1525.81 L1067.34 1525.81 Z" fill="#000000" fill-rule="evenodd" fill-opacity="1" /><path clip-path="url(#clip100)" d="M1120.72 1550.12 Q1113.62 1550.12 1110.89 1551.75 Q1108.15 1553.37 1108.15 1557.29 Q1108.15 1560.4 1110.19 1562.25 Q1112.25 1564.07 1115.79 1564.07 Q1120.66 1564.07 1123.58 1560.63 Q1126.54 1557.16 1126.54 1551.43 L1126.54 1550.12 L1120.72 1550.12 M1132.4 1547.71 L1132.4 1568.04 L1126.54 1568.04 L1126.54 1562.63 Q1124.54 1565.88 1121.55 1567.44 Q1118.56 1568.97 1114.23 1568.97 Q1108.75 1568.97 1105.51 1565.91 Q1102.29 1562.82 1102.29 1557.67 Q1102.29 1551.65 1106.3 1548.6 Q1110.34 1545.54 1118.33 1545.54 L1126.54 1545.54 L1126.54 1544.97 Q1126.54 1540.93 1123.87 1538.73 Q1121.23 1536.5 1116.42 1536.5 Q1113.37 1536.5 1110.47 1537.23 Q1107.58 1537.97 1104.9 1539.43 L1104.9 1534.02 Q1108.12 1532.78 1111.14 1532.17 Q1114.16 1531.54 1117.03 1531.54 Q1124.76 1531.54 1128.58 1535.55 Q1132.4 1539.56 1132.4 1547.71 Z" fill="#000000" fill-rule="evenodd" fill-opacity="1" /><path clip-path="url(#clip100)" d="M1150.26 1522.27 L1150.26 1532.4 L1162.32 1532.4 L1162.32 1536.95 L1150.26 1536.95 L1150.26 1556.3 Q1150.26 1560.66 1151.43 1561.9 Q1152.64 1563.14 1156.3 1563.14 L1162.32 1563.14 L1162.32 1568.04 L1156.3 1568.04 Q1149.53 1568.04 1146.95 1565.53 Q1144.37 1562.98 1144.37 1556.3 L1144.37 1536.95 L1140.07 1536.95 L1140.07 1532.4 L1144.37 1532.4 L1144.37 1522.27 L1150.26 1522.27 Z" fill="#000000" fill-rule="evenodd" fill-opacity="1" /><path clip-path="url(#clip100)" d="M1200.51 1548.76 L1200.51 1551.62 L1173.59 1551.62 Q1173.97 1557.67 1177.22 1560.85 Q1180.49 1564 1186.32 1564 Q1189.69 1564 1192.84 1563.17 Q1196.03 1562.35 1199.15 1560.69 L1199.15 1566.23 Q1195.99 1567.57 1192.68 1568.27 Q1189.37 1568.97 1185.97 1568.97 Q1177.44 1568.97 1172.44 1564 Q1167.48 1559.04 1167.48 1550.57 Q1167.48 1541.82 1172.19 1536.69 Q1176.93 1531.54 1184.95 1531.54 Q1192.14 1531.54 1196.31 1536.18 Q1200.51 1540.8 1200.51 1548.76 M1194.66 1547.04 Q1194.59 1542.23 1191.95 1539.37 Q1189.34 1536.5 1185.01 1536.5 Q1180.11 1536.5 1177.15 1539.27 Q1174.22 1542.04 1173.78 1547.07 L1194.66 1547.04 Z" fill="#000000" fill-rule="evenodd" fill-opacity="1" /><path clip-path="url(#clip100)" d="M1244.92 1518.58 Q1240.65 1525.9 1238.58 1533.06 Q1236.51 1540.23 1236.51 1547.58 Q1236.51 1554.93 1238.58 1562.16 Q1240.68 1569.35 1244.92 1576.64 L1239.82 1576.64 Q1235.05 1569.16 1232.66 1561.93 Q1230.31 1554.71 1230.31 1547.58 Q1230.31 1540.48 1232.66 1533.29 Q1235.02 1526.09 1239.82 1518.58 L1244.92 1518.58 Z" fill="#000000" fill-rule="evenodd" fill-opacity="1" /><path clip-path="url(#clip100)" d="M1279.74 1549.81 Q1279.74 1543.44 1277.09 1539.94 Q1274.48 1536.44 1269.74 1536.44 Q1265.03 1536.44 1262.39 1539.94 Q1259.78 1543.44 1259.78 1549.81 Q1259.78 1556.14 1262.39 1559.64 Q1265.03 1563.14 1269.74 1563.14 Q1274.48 1563.14 1277.09 1559.64 Q1279.74 1556.14 1279.74 1549.81 M1285.59 1563.62 Q1285.59 1572.72 1281.55 1577.15 Q1277.51 1581.6 1269.17 1581.6 Q1266.08 1581.6 1263.34 1581.13 Q1260.61 1580.68 1258.03 1579.72 L1258.03 1574.03 Q1260.61 1575.43 1263.12 1576.1 Q1265.64 1576.76 1268.25 1576.76 Q1274.01 1576.76 1276.87 1573.74 Q1279.74 1570.75 1279.74 1564.67 L1279.74 1561.77 Q1277.92 1564.92 1275.09 1566.48 Q1272.26 1568.04 1268.31 1568.04 Q1261.75 1568.04 1257.74 1563.05 Q1253.73 1558.05 1253.73 1549.81 Q1253.73 1541.53 1257.74 1536.53 Q1261.75 1531.54 1268.31 1531.54 Q1272.26 1531.54 1275.09 1533.1 Q1277.92 1534.66 1279.74 1537.81 L1279.74 1532.4 L1285.59 1532.4 L1285.59 1563.62 Z" fill="#000000" fill-rule="evenodd" fill-opacity="1" /><path clip-path="url(#clip100)" d="M1297.05 1553.98 L1297.05 1532.4 L1302.91 1532.4 L1302.91 1553.75 Q1302.91 1558.81 1304.88 1561.36 Q1306.85 1563.87 1310.8 1563.87 Q1315.54 1563.87 1318.28 1560.85 Q1321.05 1557.83 1321.05 1552.61 L1321.05 1532.4 L1326.91 1532.4 L1326.91 1568.04 L1321.05 1568.04 L1321.05 1562.57 Q1318.92 1565.82 1316.08 1567.41 Q1313.28 1568.97 1309.56 1568.97 Q1303.42 1568.97 1300.23 1565.15 Q1297.05 1561.33 1297.05 1553.98 M1311.79 1531.54 L1311.79 1531.54 Z" fill="#000000" fill-rule="evenodd" fill-opacity="1" /><path clip-path="url(#clip100)" d="M1368.6 1546.53 L1368.6 1568.04 L1362.74 1568.04 L1362.74 1546.72 Q1362.74 1541.66 1360.77 1539.14 Q1358.8 1536.63 1354.85 1536.63 Q1350.11 1536.63 1347.37 1539.65 Q1344.63 1542.68 1344.63 1547.9 L1344.63 1568.04 L1338.75 1568.04 L1338.75 1532.4 L1344.63 1532.4 L1344.63 1537.93 Q1346.73 1534.72 1349.57 1533.13 Q1352.43 1531.54 1356.16 1531.54 Q1362.3 1531.54 1365.45 1535.36 Q1368.6 1539.14 1368.6 1546.53 Z" fill="#000000" fill-rule="evenodd" fill-opacity="1" /><path clip-path="url(#clip100)" d="M1403.01 1533.45 L1403.01 1538.98 Q1400.52 1537.71 1397.85 1537.07 Q1395.18 1536.44 1392.31 1536.44 Q1387.95 1536.44 1385.76 1537.77 Q1383.59 1539.11 1383.59 1541.79 Q1383.59 1543.82 1385.15 1545 Q1386.71 1546.15 1391.42 1547.2 L1393.43 1547.64 Q1399.67 1548.98 1402.28 1551.43 Q1404.92 1553.85 1404.92 1558.21 Q1404.92 1563.17 1400.97 1566.07 Q1397.06 1568.97 1390.18 1568.97 Q1387.32 1568.97 1384.2 1568.39 Q1381.11 1567.85 1377.67 1566.74 L1377.67 1560.69 Q1380.92 1562.38 1384.07 1563.24 Q1387.22 1564.07 1390.31 1564.07 Q1394.45 1564.07 1396.67 1562.66 Q1398.9 1561.23 1398.9 1558.65 Q1398.9 1556.27 1397.28 1554.99 Q1395.69 1553.72 1390.24 1552.54 L1388.21 1552.07 Q1382.76 1550.92 1380.35 1548.56 Q1377.93 1546.18 1377.93 1542.04 Q1377.93 1537.01 1381.49 1534.27 Q1385.06 1531.54 1391.61 1531.54 Q1394.86 1531.54 1397.72 1532.01 Q1400.59 1532.49 1403.01 1533.45 Z" fill="#000000" fill-rule="evenodd" fill-opacity="1" /><path clip-path="url(#clip100)" d="M1424.65 1520.52 L1430.06 1520.52 L1413.51 1574.09 L1408.1 1574.09 L1424.65 1520.52 Z" fill="#000000" fill-rule="evenodd" fill-opacity="1" /><path clip-path="url(#clip100)" d="M1461.86 1533.76 L1461.86 1539.24 Q1459.38 1537.87 1456.86 1537.2 Q1454.38 1536.5 1451.83 1536.5 Q1446.14 1536.5 1442.98 1540.13 Q1439.83 1543.73 1439.83 1550.25 Q1439.83 1556.78 1442.98 1560.4 Q1446.14 1564 1451.83 1564 Q1454.38 1564 1456.86 1563.33 Q1459.38 1562.63 1461.86 1561.26 L1461.86 1566.68 Q1459.41 1567.82 1456.77 1568.39 Q1454.16 1568.97 1451.2 1568.97 Q1443.14 1568.97 1438.4 1563.91 Q1433.66 1558.85 1433.66 1550.25 Q1433.66 1541.53 1438.43 1536.53 Q1443.24 1531.54 1451.58 1531.54 Q1454.28 1531.54 1456.86 1532.11 Q1459.44 1532.65 1461.86 1533.76 Z" fill="#000000" fill-rule="evenodd" fill-opacity="1" /><path clip-path="url(#clip100)" d="M1488.24 1550.12 Q1481.15 1550.12 1478.41 1551.75 Q1475.67 1553.37 1475.67 1557.29 Q1475.67 1560.4 1477.71 1562.25 Q1479.78 1564.07 1483.31 1564.07 Q1488.18 1564.07 1491.11 1560.63 Q1494.07 1557.16 1494.07 1551.43 L1494.07 1550.12 L1488.24 1550.12 M1499.93 1547.71 L1499.93 1568.04 L1494.07 1568.04 L1494.07 1562.63 Q1492.06 1565.88 1489.07 1567.44 Q1486.08 1568.97 1481.75 1568.97 Q1476.28 1568.97 1473.03 1565.91 Q1469.82 1562.82 1469.82 1557.67 Q1469.82 1551.65 1473.83 1548.6 Q1477.87 1545.54 1485.86 1545.54 L1494.07 1545.54 L1494.07 1544.97 Q1494.07 1540.93 1491.4 1538.73 Q1488.75 1536.5 1483.95 1536.5 Q1480.89 1536.5 1478 1537.23 Q1475.1 1537.97 1472.43 1539.43 L1472.43 1534.02 Q1475.64 1532.78 1478.66 1532.17 Q1481.69 1531.54 1484.55 1531.54 Q1492.29 1531.54 1496.11 1535.55 Q1499.93 1539.56 1499.93 1547.71 Z" fill="#000000" fill-rule="evenodd" fill-opacity="1" /><path clip-path="url(#clip100)" d="M1517.65 1562.7 L1517.65 1581.6 L1511.77 1581.6 L1511.77 1532.4 L1517.65 1532.4 L1517.65 1537.81 Q1519.5 1534.62 1522.3 1533.1 Q1525.13 1531.54 1529.05 1531.54 Q1535.54 1531.54 1539.58 1536.69 Q1543.66 1541.85 1543.66 1550.25 Q1543.66 1558.65 1539.58 1563.81 Q1535.54 1568.97 1529.05 1568.97 Q1525.13 1568.97 1522.3 1567.44 Q1519.5 1565.88 1517.65 1562.7 M1537.58 1550.25 Q1537.58 1543.79 1534.9 1540.13 Q1532.26 1536.44 1527.62 1536.44 Q1522.97 1536.44 1520.3 1540.13 Q1517.65 1543.79 1517.65 1550.25 Q1517.65 1556.71 1520.3 1560.4 Q1522.97 1564.07 1527.62 1564.07 Q1532.26 1564.07 1534.9 1560.4 Q1537.58 1556.71 1537.58 1550.25 Z" fill="#000000" fill-rule="evenodd" fill-opacity="1" /><path clip-path="url(#clip100)" d="M1553.37 1532.4 L1559.22 1532.4 L1559.22 1568.04 L1553.37 1568.04 L1553.37 1532.4 M1553.37 1518.52 L1559.22 1518.52 L1559.22 1525.93 L1553.37 1525.93 L1553.37 1518.52 Z" fill="#000000" fill-rule="evenodd" fill-opacity="1" /><path clip-path="url(#clip100)" d="M1577.27 1522.27 L1577.27 1532.4 L1589.33 1532.4 L1589.33 1536.95 L1577.27 1536.95 L1577.27 1556.3 Q1577.27 1560.66 1578.45 1561.9 Q1579.66 1563.14 1583.32 1563.14 L1589.33 1563.14 L1589.33 1568.04 L1583.32 1568.04 Q1576.54 1568.04 1573.96 1565.53 Q1571.38 1562.98 1571.38 1556.3 L1571.38 1536.95 L1567.08 1536.95 L1567.08 1532.4 L1571.38 1532.4 L1571.38 1522.27 L1577.27 1522.27 Z" fill="#000000" fill-rule="evenodd" fill-opacity="1" /><path clip-path="url(#clip100)" d="M1613.23 1550.12 Q1606.14 1550.12 1603.4 1551.75 Q1600.66 1553.37 1600.66 1557.29 Q1600.66 1560.4 1602.7 1562.25 Q1604.77 1564.07 1608.3 1564.07 Q1613.17 1564.07 1616.1 1560.63 Q1619.06 1557.16 1619.06 1551.43 L1619.06 1550.12 L1613.23 1550.12 M1624.92 1547.71 L1624.92 1568.04 L1619.06 1568.04 L1619.06 1562.63 Q1617.05 1565.88 1614.06 1567.44 Q1611.07 1568.97 1606.74 1568.97 Q1601.27 1568.97 1598.02 1565.91 Q1594.81 1562.82 1594.81 1557.67 Q1594.81 1551.65 1598.82 1548.6 Q1602.86 1545.54 1610.85 1545.54 L1619.06 1545.54 L1619.06 1544.97 Q1619.06 1540.93 1616.39 1538.73 Q1613.74 1536.5 1608.94 1536.5 Q1605.88 1536.5 1602.99 1537.23 Q1600.09 1537.97 1597.42 1539.43 L1597.42 1534.02 Q1600.63 1532.78 1603.65 1532.17 Q1606.68 1531.54 1609.54 1531.54 Q1617.28 1531.54 1621.1 1535.55 Q1624.92 1539.56 1624.92 1547.71 Z" fill="#000000" fill-rule="evenodd" fill-opacity="1" /><path clip-path="url(#clip100)" d="M1636.06 1518.58 L1641.15 1518.58 Q1645.92 1526.09 1648.28 1533.29 Q1650.67 1540.48 1650.67 1547.58 Q1650.67 1554.71 1648.28 1561.93 Q1645.92 1569.16 1641.15 1576.64 L1636.06 1576.64 Q1640.29 1569.35 1642.36 1562.16 Q1644.46 1554.93 1644.46 1547.58 Q1644.46 1540.23 1642.36 1533.06 Q1640.29 1525.9 1636.06 1518.58 Z" fill="#000000" fill-rule="evenodd" fill-opacity="1" /><polyline clip-path="url(#clip102)" style="stroke:#000000; stroke-linecap:butt; stroke-linejoin:round; stroke-width:2; stroke-opacity:0.1; fill:none" points="
  202.227,1423.18 2352.76,1423.18 
  "/>
<polyline clip-path="url(#clip102)" style="stroke:#000000; stroke-linecap:butt; stroke-linejoin:round; stroke-width:2; stroke-opacity:0.1; fill:none" points="
  202.227,1206.56 2352.76,1206.56 
  "/>
<polyline clip-path="url(#clip102)" style="stroke:#000000; stroke-linecap:butt; stroke-linejoin:round; stroke-width:2; stroke-opacity:0.1; fill:none" points="
  202.227,989.944 2352.76,989.944 
  "/>
<polyline clip-path="url(#clip102)" style="stroke:#000000; stroke-linecap:butt; stroke-linejoin:round; stroke-width:2; stroke-opacity:0.1; fill:none" points="
  202.227,773.326 2352.76,773.326 
  "/>
<polyline clip-path="url(#clip102)" style="stroke:#000000; stroke-linecap:butt; stroke-linejoin:round; stroke-width:2; stroke-opacity:0.1; fill:none" points="
  202.227,556.708 2352.76,556.708 
  "/>
<polyline clip-path="url(#clip102)" style="stroke:#000000; stroke-linecap:butt; stroke-linejoin:round; stroke-width:2; stroke-opacity:0.1; fill:none" points="
  202.227,340.09 2352.76,340.09 
  "/>
<polyline clip-path="url(#clip102)" style="stroke:#000000; stroke-linecap:butt; stroke-linejoin:round; stroke-width:2; stroke-opacity:0.1; fill:none" points="
  202.227,123.472 2352.76,123.472 
  "/>
<polyline clip-path="url(#clip100)" style="stroke:#000000; stroke-linecap:butt; stroke-linejoin:round; stroke-width:4; stroke-opacity:1; fill:none" points="
  202.227,1423.18 202.227,123.472 
  "/>
<polyline clip-path="url(#clip100)" style="stroke:#000000; stroke-linecap:butt; stroke-linejoin:round; stroke-width:4; stroke-opacity:1; fill:none" points="
  202.227,1423.18 221.125,1423.18 
  "/>
<polyline clip-path="url(#clip100)" style="stroke:#000000; stroke-linecap:butt; stroke-linejoin:round; stroke-width:4; stroke-opacity:1; fill:none" points="
  202.227,1206.56 221.125,1206.56 
  "/>
<polyline clip-path="url(#clip100)" style="stroke:#000000; stroke-linecap:butt; stroke-linejoin:round; stroke-width:4; stroke-opacity:1; fill:none" points="
  202.227,989.944 221.125,989.944 
  "/>
<polyline clip-path="url(#clip100)" style="stroke:#000000; stroke-linecap:butt; stroke-linejoin:round; stroke-width:4; stroke-opacity:1; fill:none" points="
  202.227,773.326 221.125,773.326 
  "/>
<polyline clip-path="url(#clip100)" style="stroke:#000000; stroke-linecap:butt; stroke-linejoin:round; stroke-width:4; stroke-opacity:1; fill:none" points="
  202.227,556.708 221.125,556.708 
  "/>
<polyline clip-path="url(#clip100)" style="stroke:#000000; stroke-linecap:butt; stroke-linejoin:round; stroke-width:4; stroke-opacity:1; fill:none" points="
  202.227,340.09 221.125,340.09 
  "/>
<polyline clip-path="url(#clip100)" style="stroke:#000000; stroke-linecap:butt; stroke-linejoin:round; stroke-width:4; stroke-opacity:1; fill:none" points="
  202.227,123.472 221.125,123.472 
  "/>
<path clip-path="url(#clip100)" d="M154.283 1408.98 Q150.672 1408.98 148.843 1412.54 Q147.038 1416.08 147.038 1423.21 Q147.038 1430.32 148.843 1433.89 Q150.672 1437.43 154.283 1437.43 Q157.917 1437.43 159.723 1433.89 Q161.552 1430.32 161.552 1423.21 Q161.552 1416.08 159.723 1412.54 Q157.917 1408.98 154.283 1408.98 M154.283 1405.27 Q160.093 1405.27 163.149 1409.88 Q166.227 1414.46 166.227 1423.21 Q166.227 1431.94 163.149 1436.55 Q160.093 1441.13 154.283 1441.13 Q148.473 1441.13 145.394 1436.55 Q142.339 1431.94 142.339 1423.21 Q142.339 1414.46 145.394 1409.88 Q148.473 1405.27 154.283 1405.27 Z" fill="#000000" fill-rule="evenodd" fill-opacity="1" /><path clip-path="url(#clip100)" d="M149.908 1219.91 L166.227 1219.91 L166.227 1223.84 L144.283 1223.84 L144.283 1219.91 Q146.945 1217.15 151.528 1212.52 Q156.135 1207.87 157.315 1206.53 Q159.561 1204 160.44 1202.27 Q161.343 1200.51 161.343 1198.82 Q161.343 1196.06 159.399 1194.33 Q157.478 1192.59 154.376 1192.59 Q152.177 1192.59 149.723 1193.36 Q147.292 1194.12 144.515 1195.67 L144.515 1190.95 Q147.339 1189.81 149.792 1189.24 Q152.246 1188.66 154.283 1188.66 Q159.653 1188.66 162.848 1191.34 Q166.042 1194.03 166.042 1198.52 Q166.042 1200.65 165.232 1202.57 Q164.445 1204.47 162.339 1207.06 Q161.76 1207.73 158.658 1210.95 Q155.556 1214.14 149.908 1219.91 Z" fill="#000000" fill-rule="evenodd" fill-opacity="1" /><path clip-path="url(#clip100)" d="M156.644 976.738 L144.839 995.187 L156.644 995.187 L156.644 976.738 M155.417 972.664 L161.297 972.664 L161.297 995.187 L166.227 995.187 L166.227 999.076 L161.297 999.076 L161.297 1007.22 L156.644 1007.22 L156.644 999.076 L141.042 999.076 L141.042 994.562 L155.417 972.664 Z" fill="#000000" fill-rule="evenodd" fill-opacity="1" /><path clip-path="url(#clip100)" d="M154.7 771.463 Q151.552 771.463 149.7 773.615 Q147.871 775.768 147.871 779.518 Q147.871 783.245 149.7 785.421 Q151.552 787.574 154.7 787.574 Q157.848 787.574 159.677 785.421 Q161.528 783.245 161.528 779.518 Q161.528 775.768 159.677 773.615 Q157.848 771.463 154.7 771.463 M163.982 756.81 L163.982 761.069 Q162.223 760.236 160.417 759.796 Q158.635 759.356 156.876 759.356 Q152.246 759.356 149.792 762.481 Q147.362 765.606 147.015 771.926 Q148.38 769.912 150.441 768.847 Q152.501 767.759 154.978 767.759 Q160.186 767.759 163.195 770.93 Q166.227 774.078 166.227 779.518 Q166.227 784.842 163.079 788.06 Q159.931 791.277 154.7 791.277 Q148.704 791.277 145.533 786.694 Q142.362 782.088 142.362 773.361 Q142.362 765.166 146.251 760.305 Q150.14 755.421 156.69 755.421 Q158.45 755.421 160.232 755.768 Q162.038 756.115 163.982 756.81 Z" fill="#000000" fill-rule="evenodd" fill-opacity="1" /><path clip-path="url(#clip100)" d="M154.376 557.576 Q151.042 557.576 149.121 559.358 Q147.223 561.141 147.223 564.266 Q147.223 567.391 149.121 569.173 Q151.042 570.956 154.376 570.956 Q157.709 570.956 159.63 569.173 Q161.552 567.368 161.552 564.266 Q161.552 561.141 159.63 559.358 Q157.732 557.576 154.376 557.576 M149.7 555.585 Q146.691 554.845 145.001 552.784 Q143.334 550.724 143.334 547.761 Q143.334 543.618 146.274 541.21 Q149.237 538.803 154.376 538.803 Q159.538 538.803 162.477 541.21 Q165.417 543.618 165.417 547.761 Q165.417 550.724 163.727 552.784 Q162.061 554.845 159.075 555.585 Q162.454 556.372 164.329 558.664 Q166.227 560.956 166.227 564.266 Q166.227 569.289 163.149 571.974 Q160.093 574.659 154.376 574.659 Q148.658 574.659 145.579 571.974 Q142.524 569.289 142.524 564.266 Q142.524 560.956 144.422 558.664 Q146.32 556.372 149.7 555.585 M147.987 548.201 Q147.987 550.886 149.653 552.391 Q151.343 553.896 154.376 553.896 Q157.385 553.896 159.075 552.391 Q160.788 550.886 160.788 548.201 Q160.788 545.516 159.075 544.011 Q157.385 542.507 154.376 542.507 Q151.343 542.507 149.653 544.011 Q147.987 545.516 147.987 548.201 Z" fill="#000000" fill-rule="evenodd" fill-opacity="1" /><path clip-path="url(#clip100)" d="M114.931 353.435 L122.57 353.435 L122.57 327.069 L114.26 328.736 L114.26 324.477 L122.524 322.81 L127.2 322.81 L127.2 353.435 L134.839 353.435 L134.839 357.37 L114.931 357.37 L114.931 353.435 Z" fill="#000000" fill-rule="evenodd" fill-opacity="1" /><path clip-path="url(#clip100)" d="M154.283 325.889 Q150.672 325.889 148.843 329.454 Q147.038 332.995 147.038 340.125 Q147.038 347.231 148.843 350.796 Q150.672 354.338 154.283 354.338 Q157.917 354.338 159.723 350.796 Q161.552 347.231 161.552 340.125 Q161.552 332.995 159.723 329.454 Q157.917 325.889 154.283 325.889 M154.283 322.185 Q160.093 322.185 163.149 326.792 Q166.227 331.375 166.227 340.125 Q166.227 348.852 163.149 353.458 Q160.093 358.041 154.283 358.041 Q148.473 358.041 145.394 353.458 Q142.339 348.852 142.339 340.125 Q142.339 331.375 145.394 326.792 Q148.473 322.185 154.283 322.185 Z" fill="#000000" fill-rule="evenodd" fill-opacity="1" /><path clip-path="url(#clip100)" d="M116.529 136.817 L124.168 136.817 L124.168 110.451 L115.857 112.118 L115.857 107.859 L124.121 106.192 L128.797 106.192 L128.797 136.817 L136.436 136.817 L136.436 140.752 L116.529 140.752 L116.529 136.817 Z" fill="#000000" fill-rule="evenodd" fill-opacity="1" /><path clip-path="url(#clip100)" d="M149.908 136.817 L166.227 136.817 L166.227 140.752 L144.283 140.752 L144.283 136.817 Q146.945 134.062 151.528 129.433 Q156.135 124.78 157.315 123.437 Q159.561 120.914 160.44 119.178 Q161.343 117.419 161.343 115.729 Q161.343 112.974 159.399 111.238 Q157.478 109.502 154.376 109.502 Q152.177 109.502 149.723 110.266 Q147.292 111.03 144.515 112.581 L144.515 107.859 Q147.339 106.725 149.792 106.146 Q152.246 105.567 154.283 105.567 Q159.653 105.567 162.848 108.252 Q166.042 110.937 166.042 115.428 Q166.042 117.558 165.232 119.479 Q164.445 121.377 162.339 123.97 Q161.76 124.641 158.658 127.859 Q155.556 131.053 149.908 136.817 Z" fill="#000000" fill-rule="evenodd" fill-opacity="1" /><path clip-path="url(#clip100)" d="M16.4842 1521.5 L16.4842 1494.19 L21.895 1494.19 L21.895 1515.07 L35.8996 1515.07 L35.8996 1496.23 L41.3104 1496.23 L41.3104 1515.07 L64.0042 1515.07 L64.0042 1521.5 L16.4842 1521.5 Z" fill="#000000" fill-rule="evenodd" fill-opacity="1" /><path clip-path="url(#clip100)" d="M28.3562 1489.01 L28.3562 1483.15 L64.0042 1483.15 L64.0042 1489.01 L28.3562 1489.01 M14.479 1489.01 L14.479 1483.15 L21.895 1483.15 L21.895 1489.01 L14.479 1489.01 Z" fill="#000000" fill-rule="evenodd" fill-opacity="1" /><path clip-path="url(#clip100)" d="M33.8307 1450.24 Q33.2578 1451.23 33.0032 1452.4 Q32.7167 1453.55 32.7167 1454.95 Q32.7167 1459.92 35.9632 1462.59 Q39.1779 1465.23 45.2253 1465.23 L64.0042 1465.23 L64.0042 1471.12 L28.3562 1471.12 L28.3562 1465.23 L33.8944 1465.23 Q30.6479 1463.38 29.0883 1460.42 Q27.4968 1457.46 27.4968 1453.23 Q27.4968 1452.63 27.5923 1451.89 Q27.656 1451.16 27.8151 1450.27 L33.8307 1450.24 Z" fill="#000000" fill-rule="evenodd" fill-opacity="1" /><path clip-path="url(#clip100)" d="M44.7161 1415.04 L47.5806 1415.04 L47.5806 1441.96 Q53.6281 1441.58 56.8109 1438.34 Q59.9619 1435.06 59.9619 1429.23 Q59.9619 1425.86 59.1344 1422.71 Q58.3069 1419.52 56.6518 1416.41 L62.1899 1416.41 Q63.5267 1419.56 64.227 1422.87 Q64.9272 1426.18 64.9272 1429.58 Q64.9272 1438.11 59.9619 1443.11 Q54.9967 1448.07 46.5303 1448.07 Q37.7774 1448.07 32.6531 1443.36 Q27.4968 1438.62 27.4968 1430.6 Q27.4968 1423.41 32.1438 1419.24 Q36.7589 1415.04 44.7161 1415.04 M42.9973 1420.89 Q38.1912 1420.96 35.3266 1423.6 Q32.4621 1426.21 32.4621 1430.54 Q32.4621 1435.44 35.2312 1438.4 Q38.0002 1441.33 43.0292 1441.77 L42.9973 1420.89 Z" fill="#000000" fill-rule="evenodd" fill-opacity="1" /><path clip-path="url(#clip100)" d="M46.0847 1389.22 Q46.0847 1396.32 47.7079 1399.06 Q49.3312 1401.8 53.2461 1401.8 Q56.3653 1401.8 58.2114 1399.76 Q60.0256 1397.69 60.0256 1394.16 Q60.0256 1389.29 56.5881 1386.36 Q53.1188 1383.4 47.3897 1383.4 L46.0847 1383.4 L46.0847 1389.22 M43.6657 1377.54 L64.0042 1377.54 L64.0042 1383.4 L58.5933 1383.4 Q61.8398 1385.4 63.3994 1388.4 Q64.9272 1391.39 64.9272 1395.72 Q64.9272 1401.19 61.8716 1404.44 Q58.7843 1407.65 53.6281 1407.65 Q47.6125 1407.65 44.5569 1403.64 Q41.5014 1399.6 41.5014 1391.61 L41.5014 1383.4 L40.9285 1383.4 Q36.8862 1383.4 34.6901 1386.07 Q32.4621 1388.71 32.4621 1393.52 Q32.4621 1396.58 33.1941 1399.47 Q33.9262 1402.37 35.3903 1405.04 L29.9795 1405.04 Q28.7381 1401.83 28.1334 1398.8 Q27.4968 1395.78 27.4968 1392.92 Q27.4968 1385.18 31.5072 1381.36 Q35.5176 1377.54 43.6657 1377.54 Z" fill="#000000" fill-rule="evenodd" fill-opacity="1" /><path clip-path="url(#clip100)" d="M33.8307 1344.82 Q33.2578 1345.81 33.0032 1346.99 Q32.7167 1348.13 32.7167 1349.53 Q32.7167 1354.5 35.9632 1357.17 Q39.1779 1359.81 45.2253 1359.81 L64.0042 1359.81 L64.0042 1365.7 L28.3562 1365.7 L28.3562 1359.81 L33.8944 1359.81 Q30.6479 1357.97 29.0883 1355.01 Q27.4968 1352.05 27.4968 1347.82 Q27.4968 1347.21 27.5923 1346.48 Q27.656 1345.75 27.8151 1344.86 L33.8307 1344.82 Z" fill="#000000" fill-rule="evenodd" fill-opacity="1" /><path clip-path="url(#clip100)" d="M35.1993 1312.07 Q31.2526 1309.88 29.3747 1306.82 Q27.4968 1303.76 27.4968 1299.63 Q27.4968 1294.06 31.4117 1291.03 Q35.2948 1288.01 42.4881 1288.01 L64.0042 1288.01 L64.0042 1293.9 L42.679 1293.9 Q37.5546 1293.9 35.072 1295.71 Q32.5894 1297.53 32.5894 1301.25 Q32.5894 1305.8 35.6131 1308.44 Q38.6368 1311.08 43.8567 1311.08 L64.0042 1311.08 L64.0042 1316.97 L42.679 1316.97 Q37.5228 1316.97 35.072 1318.79 Q32.5894 1320.6 32.5894 1324.39 Q32.5894 1328.88 35.6449 1331.52 Q38.6686 1334.16 43.8567 1334.16 L64.0042 1334.16 L64.0042 1340.05 L28.3562 1340.05 L28.3562 1334.16 L33.8944 1334.16 Q30.616 1332.16 29.0564 1329.35 Q27.4968 1326.55 27.4968 1322.7 Q27.4968 1318.82 29.4702 1316.11 Q31.4436 1313.38 35.1993 1312.07 Z" fill="#000000" fill-rule="evenodd" fill-opacity="1" /><path clip-path="url(#clip100)" d="M16.4842 1255.35 L16.4842 1248.92 L35.9632 1248.92 L35.9632 1225.56 L16.4842 1225.56 L16.4842 1219.13 L64.0042 1219.13 L64.0042 1225.56 L41.3741 1225.56 L41.3741 1248.92 L64.0042 1248.92 L64.0042 1255.35 L16.4842 1255.35 Z" fill="#000000" fill-rule="evenodd" fill-opacity="1" /><path clip-path="url(#clip100)" d="M32.4621 1192.78 Q32.4621 1197.49 36.1542 1200.23 Q39.8145 1202.96 46.212 1202.96 Q52.6095 1202.96 56.3017 1200.26 Q59.9619 1197.52 59.9619 1192.78 Q59.9619 1188.1 56.2698 1185.36 Q52.5777 1182.63 46.212 1182.63 Q39.8781 1182.63 36.186 1185.36 Q32.4621 1188.1 32.4621 1192.78 M27.4968 1192.78 Q27.4968 1185.14 32.4621 1180.78 Q37.4273 1176.42 46.212 1176.42 Q54.9649 1176.42 59.9619 1180.78 Q64.9272 1185.14 64.9272 1192.78 Q64.9272 1200.45 59.9619 1204.81 Q54.9649 1209.14 46.212 1209.14 Q37.4273 1209.14 32.4621 1204.81 Q27.4968 1200.45 27.4968 1192.78 Z" fill="#000000" fill-rule="evenodd" fill-opacity="1" /><path clip-path="url(#clip100)" d="M35.1993 1138.96 Q31.2526 1136.76 29.3747 1133.7 Q27.4968 1130.65 27.4968 1126.51 Q27.4968 1120.94 31.4117 1117.92 Q35.2948 1114.89 42.4881 1114.89 L64.0042 1114.89 L64.0042 1120.78 L42.679 1120.78 Q37.5546 1120.78 35.072 1122.6 Q32.5894 1124.41 32.5894 1128.13 Q32.5894 1132.69 35.6131 1135.33 Q38.6368 1137.97 43.8567 1137.97 L64.0042 1137.97 L64.0042 1143.86 L42.679 1143.86 Q37.5228 1143.86 35.072 1145.67 Q32.5894 1147.49 32.5894 1151.27 Q32.5894 1155.76 35.6449 1158.4 Q38.6686 1161.05 43.8567 1161.05 L64.0042 1161.05 L64.0042 1166.93 L28.3562 1166.93 L28.3562 1161.05 L33.8944 1161.05 Q30.616 1159.04 29.0564 1156.24 Q27.4968 1153.44 27.4968 1149.59 Q27.4968 1145.7 29.4702 1143 Q31.4436 1140.26 35.1993 1138.96 Z" fill="#000000" fill-rule="evenodd" fill-opacity="1" /><path clip-path="url(#clip100)" d="M28.3562 1103.21 L28.3562 1097.36 L64.0042 1097.36 L64.0042 1103.21 L28.3562 1103.21 M14.479 1103.21 L14.479 1097.36 L21.895 1097.36 L21.895 1103.21 L14.479 1103.21 Z" fill="#000000" fill-rule="evenodd" fill-opacity="1" /><path clip-path="url(#clip100)" d="M29.7248 1059.45 L35.1993 1059.45 Q33.8307 1061.93 33.1623 1064.45 Q32.4621 1066.93 32.4621 1069.47 Q32.4621 1075.17 36.0905 1078.32 Q39.6872 1081.47 46.212 1081.47 Q52.7369 1081.47 56.3653 1078.32 Q59.9619 1075.17 59.9619 1069.47 Q59.9619 1066.93 59.2935 1064.45 Q58.5933 1061.93 57.2247 1059.45 L62.6355 1059.45 Q63.7814 1061.9 64.3543 1064.54 Q64.9272 1067.15 64.9272 1070.11 Q64.9272 1078.16 59.8664 1082.91 Q54.8057 1087.65 46.212 1087.65 Q37.491 1087.65 32.4939 1082.87 Q27.4968 1078.07 27.4968 1069.73 Q27.4968 1067.02 28.0697 1064.45 Q28.6108 1061.87 29.7248 1059.45 Z" fill="#000000" fill-rule="evenodd" fill-opacity="1" /><path clip-path="url(#clip100)" d="M28.3562 1049.26 L28.3562 1043.41 L64.0042 1043.41 L64.0042 1049.26 L28.3562 1049.26 M14.479 1049.26 L14.479 1043.41 L21.895 1043.41 L21.895 1049.26 L14.479 1049.26 Z" fill="#000000" fill-rule="evenodd" fill-opacity="1" /><path clip-path="url(#clip100)" d="M33.7671 1007.7 L14.479 1007.7 L14.479 1001.84 L64.0042 1001.84 L64.0042 1007.7 L58.657 1007.7 Q61.8398 1009.54 63.3994 1012.37 Q64.9272 1015.18 64.9272 1019.12 Q64.9272 1025.58 59.771 1029.66 Q54.6147 1033.7 46.212 1033.7 Q37.8093 1033.7 32.6531 1029.66 Q27.4968 1025.58 27.4968 1019.12 Q27.4968 1015.18 29.0564 1012.37 Q30.5842 1009.54 33.7671 1007.7 M46.212 1027.65 Q52.6732 1027.65 56.3653 1025.01 Q60.0256 1022.34 60.0256 1017.69 Q60.0256 1013.04 56.3653 1010.37 Q52.6732 1007.7 46.212 1007.7 Q39.7508 1007.7 36.0905 1010.37 Q32.3984 1013.04 32.3984 1017.69 Q32.3984 1022.34 36.0905 1025.01 Q39.7508 1027.65 46.212 1027.65 Z" fill="#000000" fill-rule="evenodd" fill-opacity="1" /><path clip-path="url(#clip100)" d="M44.7161 959.284 L47.5806 959.284 L47.5806 986.211 Q53.6281 985.829 56.8109 982.583 Q59.9619 979.304 59.9619 973.48 Q59.9619 970.106 59.1344 966.955 Q58.3069 963.772 56.6518 960.653 L62.1899 960.653 Q63.5267 963.804 64.227 967.114 Q64.9272 970.424 64.9272 973.83 Q64.9272 982.36 59.9619 987.357 Q54.9967 992.322 46.5303 992.322 Q37.7774 992.322 32.6531 987.612 Q27.4968 982.869 27.4968 974.848 Q27.4968 967.655 32.1438 963.486 Q36.7589 959.284 44.7161 959.284 M42.9973 965.141 Q38.1912 965.204 35.3266 967.846 Q32.4621 970.456 32.4621 974.785 Q32.4621 979.686 35.2312 982.646 Q38.0002 985.575 43.0292 986.02 L42.9973 965.141 Z" fill="#000000" fill-rule="evenodd" fill-opacity="1" /><path clip-path="url(#clip100)" d="M41.7242 906.162 Q42.4244 904.094 44.7161 902.152 Q47.0077 900.179 51.0181 898.205 L64.0042 891.68 L64.0042 898.587 L51.8138 904.666 Q47.0395 907.022 45.48 909.25 Q43.9204 911.446 43.9204 915.265 L43.9204 922.268 L64.0042 922.268 L64.0042 928.697 L16.4842 928.697 L16.4842 914.183 Q16.4842 906.035 19.8898 902.025 Q23.2955 898.014 30.1704 898.014 Q34.6582 898.014 37.6183 900.115 Q40.5784 902.184 41.7242 906.162 M21.7677 922.268 L38.6368 922.268 L38.6368 914.183 Q38.6368 909.536 36.5043 907.181 Q34.34 904.794 30.1704 904.794 Q26.0009 904.794 23.9002 907.181 Q21.7677 909.536 21.7677 914.183 L21.7677 922.268 Z" fill="#000000" fill-rule="evenodd" fill-opacity="1" /><path clip-path="url(#clip100)" d="M46.0847 868.891 Q46.0847 875.989 47.7079 878.726 Q49.3312 881.463 53.2461 881.463 Q56.3653 881.463 58.2114 879.426 Q60.0256 877.358 60.0256 873.825 Q60.0256 868.955 56.5881 866.027 Q53.1188 863.067 47.3897 863.067 L46.0847 863.067 L46.0847 868.891 M43.6657 857.21 L64.0042 857.21 L64.0042 863.067 L58.5933 863.067 Q61.8398 865.072 63.3994 868.064 Q64.9272 871.055 64.9272 875.384 Q64.9272 880.859 61.8716 884.105 Q58.7843 887.32 53.6281 887.32 Q47.6125 887.32 44.5569 883.309 Q41.5014 879.267 41.5014 871.278 L41.5014 863.067 L40.9285 863.067 Q36.8862 863.067 34.6901 865.74 Q32.4621 868.382 32.4621 873.188 Q32.4621 876.244 33.1941 879.14 Q33.9262 882.036 35.3903 884.71 L29.9795 884.71 Q28.7381 881.495 28.1334 878.472 Q27.4968 875.448 27.4968 872.583 Q27.4968 864.849 31.5072 861.03 Q35.5176 857.21 43.6657 857.21 Z" fill="#000000" fill-rule="evenodd" fill-opacity="1" /><path clip-path="url(#clip100)" d="M18.2347 839.354 L28.3562 839.354 L28.3562 827.291 L32.9077 827.291 L32.9077 839.354 L52.2594 839.354 Q56.6199 839.354 57.8613 838.177 Q59.1026 836.967 59.1026 833.307 L59.1026 827.291 L64.0042 827.291 L64.0042 833.307 Q64.0042 840.086 61.4897 842.664 Q58.9434 845.243 52.2594 845.243 L32.9077 845.243 L32.9077 849.539 L28.3562 849.539 L28.3562 845.243 L18.2347 845.243 L18.2347 839.354 Z" fill="#000000" fill-rule="evenodd" fill-opacity="1" /><path clip-path="url(#clip100)" d="M44.7161 789.097 L47.5806 789.097 L47.5806 816.024 Q53.6281 815.642 56.8109 812.396 Q59.9619 809.117 59.9619 803.293 Q59.9619 799.919 59.1344 796.768 Q58.3069 793.585 56.6518 790.466 L62.1899 790.466 Q63.5267 793.617 64.227 796.927 Q64.9272 800.237 64.9272 803.643 Q64.9272 812.173 59.9619 817.17 Q54.9967 822.135 46.5303 822.135 Q37.7774 822.135 32.6531 817.424 Q27.4968 812.682 27.4968 804.661 Q27.4968 797.468 32.1438 793.298 Q36.7589 789.097 44.7161 789.097 M42.9973 794.953 Q38.1912 795.017 35.3266 797.659 Q32.4621 800.269 32.4621 804.598 Q32.4621 809.499 35.2312 812.459 Q38.0002 815.387 43.0292 815.833 L42.9973 794.953 Z" fill="#000000" fill-rule="evenodd" fill-opacity="1" /><path clip-path="url(#clip100)" d="M14.5426 744.696 Q21.8632 748.961 29.0246 751.03 Q36.186 753.099 43.5384 753.099 Q50.8908 753.099 58.1159 751.03 Q65.3091 748.929 72.5979 744.696 L72.5979 749.789 Q65.1182 754.563 57.8931 756.95 Q50.668 759.306 43.5384 759.306 Q36.4406 759.306 29.2474 756.95 Q22.0542 754.595 14.5426 749.789 L14.5426 744.696 Z" fill="#000000" fill-rule="evenodd" fill-opacity="1" /><path clip-path="url(#clip100)" d="M33.7671 709.876 L14.479 709.876 L14.479 704.019 L64.0042 704.019 L64.0042 709.876 L58.657 709.876 Q61.8398 711.722 63.3994 714.555 Q64.9272 717.356 64.9272 721.302 Q64.9272 727.763 59.771 731.837 Q54.6147 735.88 46.212 735.88 Q37.8093 735.88 32.6531 731.837 Q27.4968 727.763 27.4968 721.302 Q27.4968 717.356 29.0564 714.555 Q30.5842 711.722 33.7671 709.876 M46.212 729.832 Q52.6732 729.832 56.3653 727.191 Q60.0256 724.517 60.0256 719.87 Q60.0256 715.223 56.3653 712.549 Q52.6732 709.876 46.212 709.876 Q39.7508 709.876 36.0905 712.549 Q32.3984 715.223 32.3984 719.87 Q32.3984 724.517 36.0905 727.191 Q39.7508 729.832 46.212 729.832 Z" fill="#000000" fill-rule="evenodd" fill-opacity="1" /><path clip-path="url(#clip100)" d="M44.7161 661.465 L47.5806 661.465 L47.5806 688.392 Q53.6281 688.01 56.8109 684.763 Q59.9619 681.485 59.9619 675.66 Q59.9619 672.286 59.1344 669.135 Q58.3069 665.952 56.6518 662.833 L62.1899 662.833 Q63.5267 665.984 64.227 669.294 Q64.9272 672.605 64.9272 676.01 Q64.9272 684.54 59.9619 689.537 Q54.9967 694.503 46.5303 694.503 Q37.7774 694.503 32.6531 689.792 Q27.4968 685.05 27.4968 677.029 Q27.4968 669.836 32.1438 665.666 Q36.7589 661.465 44.7161 661.465 M42.9973 667.321 Q38.1912 667.385 35.3266 670.026 Q32.4621 672.636 32.4621 676.965 Q32.4621 681.867 35.2312 684.827 Q38.0002 687.755 43.0292 688.201 L42.9973 667.321 Z" fill="#000000" fill-rule="evenodd" fill-opacity="1" /><path clip-path="url(#clip100)" d="M46.0847 635.652 Q46.0847 642.749 47.7079 645.487 Q49.3312 648.224 53.2461 648.224 Q56.3653 648.224 58.2114 646.187 Q60.0256 644.118 60.0256 640.585 Q60.0256 635.715 56.5881 632.787 Q53.1188 629.827 47.3897 629.827 L46.0847 629.827 L46.0847 635.652 M43.6657 623.971 L64.0042 623.971 L64.0042 629.827 L58.5933 629.827 Q61.8398 631.832 63.3994 634.824 Q64.9272 637.816 64.9272 642.145 Q64.9272 647.619 61.8716 650.866 Q58.7843 654.08 53.6281 654.08 Q47.6125 654.08 44.5569 650.07 Q41.5014 646.028 41.5014 638.039 L41.5014 629.827 L40.9285 629.827 Q36.8862 629.827 34.6901 632.501 Q32.4621 635.142 32.4621 639.949 Q32.4621 643.004 33.1941 645.9 Q33.9262 648.797 35.3903 651.47 L29.9795 651.47 Q28.7381 648.256 28.1334 645.232 Q27.4968 642.208 27.4968 639.344 Q27.4968 631.609 31.5072 627.79 Q35.5176 623.971 43.6657 623.971 Z" fill="#000000" fill-rule="evenodd" fill-opacity="1" /><path clip-path="url(#clip100)" d="M18.2347 606.115 L28.3562 606.115 L28.3562 594.052 L32.9077 594.052 L32.9077 606.115 L52.2594 606.115 Q56.6199 606.115 57.8613 604.937 Q59.1026 603.728 59.1026 600.067 L59.1026 594.052 L64.0042 594.052 L64.0042 600.067 Q64.0042 606.847 61.4897 609.425 Q58.9434 612.003 52.2594 612.003 L32.9077 612.003 L32.9077 616.3 L28.3562 616.3 L28.3562 612.003 L18.2347 612.003 L18.2347 606.115 Z" fill="#000000" fill-rule="evenodd" fill-opacity="1" /><path clip-path="url(#clip100)" d="M42.4881 556.717 L64.0042 556.717 L64.0042 562.573 L42.679 562.573 Q37.6183 562.573 35.1038 564.547 Q32.5894 566.52 32.5894 570.467 Q32.5894 575.209 35.6131 577.947 Q38.6368 580.684 43.8567 580.684 L64.0042 580.684 L64.0042 586.572 L14.479 586.572 L14.479 580.684 L33.8944 580.684 Q30.6797 578.583 29.0883 575.75 Q27.4968 572.886 27.4968 569.162 Q27.4968 563.019 31.3163 559.868 Q35.1038 556.717 42.4881 556.717 Z" fill="#000000" fill-rule="evenodd" fill-opacity="1" /><path clip-path="url(#clip100)" d="M29.4065 522.31 L34.9447 522.31 Q33.6716 524.793 33.035 527.466 Q32.3984 530.14 32.3984 533.005 Q32.3984 537.365 33.7352 539.561 Q35.072 541.726 37.7456 541.726 Q39.7826 541.726 40.9603 540.166 Q42.1061 538.606 43.1565 533.896 L43.6021 531.891 Q44.9389 525.652 47.3897 523.042 Q49.8086 520.401 54.1691 520.401 Q59.1344 520.401 62.0308 524.347 Q64.9272 528.262 64.9272 535.137 Q64.9272 538.002 64.3543 541.121 Q63.8132 544.208 62.6992 547.646 L56.6518 547.646 Q58.3387 544.399 59.198 541.248 Q60.0256 538.097 60.0256 535.01 Q60.0256 530.872 58.6251 528.644 Q57.1929 526.416 54.6147 526.416 Q52.2276 526.416 50.9545 528.039 Q49.6813 529.631 48.5037 535.073 L48.0262 537.111 Q46.8804 542.553 44.5251 544.972 Q42.138 547.391 38.0002 547.391 Q32.9713 547.391 30.2341 543.826 Q27.4968 540.262 27.4968 533.705 Q27.4968 530.458 27.9743 527.594 Q28.4517 524.729 29.4065 522.31 Z" fill="#000000" fill-rule="evenodd" fill-opacity="1" /><path clip-path="url(#clip100)" d="M16.4842 500.667 L16.4842 495.256 L70.0516 511.807 L70.0516 517.218 L16.4842 500.667 Z" fill="#000000" fill-rule="evenodd" fill-opacity="1" /><path clip-path="url(#clip100)" d="M58.5933 487.172 L58.5933 476.668 L22.3406 476.668 L24.6323 488.095 L18.7758 488.095 L16.4842 476.732 L16.4842 470.302 L58.5933 470.302 L58.5933 459.799 L64.0042 459.799 L64.0042 487.172 L58.5933 487.172 Z" fill="#000000" fill-rule="evenodd" fill-opacity="1" /><path clip-path="url(#clip100)" d="M20.7174 433.063 Q20.7174 438.028 25.6189 440.543 Q30.4887 443.025 40.2919 443.025 Q50.0633 443.025 54.9649 440.543 Q59.8346 438.028 59.8346 433.063 Q59.8346 428.066 54.9649 425.583 Q50.0633 423.069 40.2919 423.069 Q30.4887 423.069 25.6189 425.583 Q20.7174 428.066 20.7174 433.063 M15.6248 433.063 Q15.6248 425.074 21.9587 420.873 Q28.2607 416.64 40.2919 416.64 Q52.2913 416.64 58.6251 420.873 Q64.9272 425.074 64.9272 433.063 Q64.9272 441.052 58.6251 445.285 Q52.2913 449.487 40.2919 449.487 Q28.2607 449.487 21.9587 445.285 Q15.6248 441.052 15.6248 433.063 Z" fill="#000000" fill-rule="evenodd" fill-opacity="1" /><path clip-path="url(#clip100)" d="M20.7174 391.59 Q20.7174 396.556 25.6189 399.07 Q30.4887 401.553 40.2919 401.553 Q50.0633 401.553 54.9649 399.07 Q59.8346 396.556 59.8346 391.59 Q59.8346 386.593 54.9649 384.111 Q50.0633 381.596 40.2919 381.596 Q30.4887 381.596 25.6189 384.111 Q20.7174 386.593 20.7174 391.59 M15.6248 391.59 Q15.6248 383.602 21.9587 379.4 Q28.2607 375.167 40.2919 375.167 Q52.2913 375.167 58.6251 379.4 Q64.9272 383.602 64.9272 391.59 Q64.9272 399.579 58.6251 403.813 Q52.2913 408.014 40.2919 408.014 Q28.2607 408.014 21.9587 403.813 Q15.6248 399.579 15.6248 391.59 Z" fill="#000000" fill-rule="evenodd" fill-opacity="1" /><path clip-path="url(#clip100)" d="M14.479 364.918 L14.479 359.03 L43.7294 359.03 L28.3562 341.556 L28.3562 334.076 L45.0344 352.982 L64.0042 333.281 L64.0042 340.919 L46.5939 359.03 L64.0042 359.03 L64.0042 364.918 L14.479 364.918 Z" fill="#000000" fill-rule="evenodd" fill-opacity="1" /><path clip-path="url(#clip100)" d="M29.7248 301.293 L35.1993 301.293 Q33.8307 303.776 33.1623 306.29 Q32.4621 308.773 32.4621 311.319 Q32.4621 317.016 36.0905 320.167 Q39.6872 323.318 46.212 323.318 Q52.7369 323.318 56.3653 320.167 Q59.9619 317.016 59.9619 311.319 Q59.9619 308.773 59.2935 306.29 Q58.5933 303.776 57.2247 301.293 L62.6355 301.293 Q63.7814 303.744 64.3543 306.385 Q64.9272 308.995 64.9272 311.955 Q64.9272 320.008 59.8664 324.751 Q54.8057 329.493 46.212 329.493 Q37.491 329.493 32.4939 324.719 Q27.4968 319.913 27.4968 311.574 Q27.4968 308.868 28.0697 306.29 Q28.6108 303.712 29.7248 301.293 Z" fill="#000000" fill-rule="evenodd" fill-opacity="1" /><path clip-path="url(#clip100)" d="M46.0847 274.907 Q46.0847 282.005 47.7079 284.742 Q49.3312 287.479 53.2461 287.479 Q56.3653 287.479 58.2114 285.442 Q60.0256 283.373 60.0256 279.84 Q60.0256 274.971 56.5881 272.043 Q53.1188 269.082 47.3897 269.082 L46.0847 269.082 L46.0847 274.907 M43.6657 263.226 L64.0042 263.226 L64.0042 269.082 L58.5933 269.082 Q61.8398 271.088 63.3994 274.08 Q64.9272 277.071 64.9272 281.4 Q64.9272 286.875 61.8716 290.121 Q58.7843 293.336 53.6281 293.336 Q47.6125 293.336 44.5569 289.325 Q41.5014 285.283 41.5014 277.294 L41.5014 269.082 L40.9285 269.082 Q36.8862 269.082 34.6901 271.756 Q32.4621 274.398 32.4621 279.204 Q32.4621 282.259 33.1941 285.156 Q33.9262 288.052 35.3903 290.726 L29.9795 290.726 Q28.7381 287.511 28.1334 284.487 Q27.4968 281.464 27.4968 278.599 Q27.4968 270.865 31.5072 267.045 Q35.5176 263.226 43.6657 263.226 Z" fill="#000000" fill-rule="evenodd" fill-opacity="1" /><path clip-path="url(#clip100)" d="M58.657 245.498 L77.5631 245.498 L77.5631 251.386 L28.3562 251.386 L28.3562 245.498 L33.7671 245.498 Q30.5842 243.651 29.0564 240.851 Q27.4968 238.018 27.4968 234.103 Q27.4968 227.61 32.6531 223.568 Q37.8093 219.494 46.212 219.494 Q54.6147 219.494 59.771 223.568 Q64.9272 227.61 64.9272 234.103 Q64.9272 238.018 63.3994 240.851 Q61.8398 243.651 58.657 245.498 M46.212 225.573 Q39.7508 225.573 36.0905 228.246 Q32.3984 230.888 32.3984 235.535 Q32.3984 240.182 36.0905 242.856 Q39.7508 245.498 46.212 245.498 Q52.6732 245.498 56.3653 242.856 Q60.0256 240.182 60.0256 235.535 Q60.0256 230.888 56.3653 228.246 Q52.6732 225.573 46.212 225.573 Z" fill="#000000" fill-rule="evenodd" fill-opacity="1" /><path clip-path="url(#clip100)" d="M28.3562 209.786 L28.3562 203.929 L64.0042 203.929 L64.0042 209.786 L28.3562 209.786 M14.479 209.786 L14.479 203.929 L21.895 203.929 L21.895 209.786 L14.479 209.786 Z" fill="#000000" fill-rule="evenodd" fill-opacity="1" /><path clip-path="url(#clip100)" d="M18.2347 185.883 L28.3562 185.883 L28.3562 173.82 L32.9077 173.82 L32.9077 185.883 L52.2594 185.883 Q56.6199 185.883 57.8613 184.705 Q59.1026 183.496 59.1026 179.835 L59.1026 173.82 L64.0042 173.82 L64.0042 179.835 Q64.0042 186.615 61.4897 189.193 Q58.9434 191.771 52.2594 191.771 L32.9077 191.771 L32.9077 196.068 L28.3562 196.068 L28.3562 191.771 L18.2347 191.771 L18.2347 185.883 Z" fill="#000000" fill-rule="evenodd" fill-opacity="1" /><path clip-path="url(#clip100)" d="M46.0847 149.916 Q46.0847 157.014 47.7079 159.751 Q49.3312 162.489 53.2461 162.489 Q56.3653 162.489 58.2114 160.452 Q60.0256 158.383 60.0256 154.85 Q60.0256 149.98 56.5881 147.052 Q53.1188 144.092 47.3897 144.092 L46.0847 144.092 L46.0847 149.916 M43.6657 138.235 L64.0042 138.235 L64.0042 144.092 L58.5933 144.092 Q61.8398 146.097 63.3994 149.089 Q64.9272 152.081 64.9272 156.409 Q64.9272 161.884 61.8716 165.13 Q58.7843 168.345 53.6281 168.345 Q47.6125 168.345 44.5569 164.335 Q41.5014 160.293 41.5014 152.304 L41.5014 144.092 L40.9285 144.092 Q36.8862 144.092 34.6901 146.765 Q32.4621 149.407 32.4621 154.213 Q32.4621 157.269 33.1941 160.165 Q33.9262 163.062 35.3903 165.735 L29.9795 165.735 Q28.7381 162.521 28.1334 159.497 Q27.4968 156.473 27.4968 153.609 Q27.4968 145.874 31.5072 142.055 Q35.5176 138.235 43.6657 138.235 Z" fill="#000000" fill-rule="evenodd" fill-opacity="1" /><path clip-path="url(#clip100)" d="M16.4842 115.764 L16.4842 110.354 L70.0516 126.904 L70.0516 132.315 L16.4842 115.764 Z" fill="#000000" fill-rule="evenodd" fill-opacity="1" /><path clip-path="url(#clip100)" d="M67.3143 89.3785 Q73.68 91.8612 75.6216 94.2165 Q77.5631 96.5718 77.5631 100.519 L77.5631 105.197 L72.6615 105.197 L72.6615 101.76 Q72.6615 99.3409 71.5157 98.0041 Q70.3699 96.6673 66.1048 95.044 L63.4312 93.9937 L28.3562 108.412 L28.3562 102.205 L56.238 91.0655 L28.3562 79.9255 L28.3562 73.7189 L67.3143 89.3785 Z" fill="#000000" fill-rule="evenodd" fill-opacity="1" /><path clip-path="url(#clip100)" d="M33.8307 44.9777 Q33.2578 45.9644 33.0032 47.1421 Q32.7167 48.2879 32.7167 49.6884 Q32.7167 54.6536 35.9632 57.3272 Q39.1779 59.969 45.2253 59.969 L64.0042 59.969 L64.0042 65.8573 L28.3562 65.8573 L28.3562 59.969 L33.8944 59.969 Q30.6479 58.1229 29.0883 55.1629 Q27.4968 52.2028 27.4968 47.9696 Q27.4968 47.3649 27.5923 46.6328 Q27.656 45.9008 27.8151 45.0096 L33.8307 44.9777 Z" fill="#000000" fill-rule="evenodd" fill-opacity="1" /><path clip-path="url(#clip100)" d="M14.5426 39.7579 L14.5426 34.6653 Q22.0542 29.891 29.2474 27.5357 Q36.4406 25.1486 43.5384 25.1486 Q50.668 25.1486 57.8931 27.5357 Q65.1182 29.891 72.5979 34.6653 L72.5979 39.7579 Q65.3091 35.5247 58.1159 33.4558 Q50.8908 31.3551 43.5384 31.3551 Q36.186 31.3551 29.0246 33.4558 Q21.8632 35.5247 14.5426 39.7579 Z" fill="#000000" fill-rule="evenodd" fill-opacity="1" /><path clip-path="url(#clip100)" d="M636.132 63.9476 L636.132 47.7034 L622.764 47.7034 L622.764 40.9789 L644.234 40.9789 L644.234 66.9452 Q639.495 70.3075 633.783 72.0494 Q628.071 73.7508 621.59 73.7508 Q607.411 73.7508 599.391 65.4869 Q591.41 57.1826 591.41 42.3968 Q591.41 27.5705 599.391 19.3066 Q607.411 11.0023 621.59 11.0023 Q627.504 11.0023 632.811 12.4606 Q638.158 13.9189 642.654 16.7545 L642.654 25.464 Q638.117 21.6156 633.013 19.6712 Q627.909 17.7268 622.278 17.7268 Q611.179 17.7268 605.588 23.9246 Q600.039 30.1225 600.039 42.3968 Q600.039 54.6305 605.588 60.8284 Q611.179 67.0263 622.278 67.0263 Q626.613 67.0263 630.015 66.2971 Q633.418 65.5274 636.132 63.9476 Z" fill="#000000" fill-rule="evenodd" fill-opacity="1" /><path clip-path="url(#clip100)" d="M658.088 54.671 L658.088 27.2059 L665.542 27.2059 L665.542 54.3874 Q665.542 60.8284 668.053 64.0691 Q670.565 67.2693 675.588 67.2693 Q681.624 67.2693 685.108 63.421 Q688.632 59.5726 688.632 52.9291 L688.632 27.2059 L696.086 27.2059 L696.086 72.576 L688.632 72.576 L688.632 65.6084 Q685.918 69.7404 682.313 71.7658 Q678.748 73.7508 674.008 73.7508 Q666.19 73.7508 662.139 68.8897 Q658.088 64.0286 658.088 54.671 M676.844 26.1121 L676.844 26.1121 Z" fill="#000000" fill-rule="evenodd" fill-opacity="1" /><path clip-path="url(#clip100)" d="M749.153 45.1919 L749.153 72.576 L741.699 72.576 L741.699 45.4349 Q741.699 38.994 739.187 35.7938 Q736.676 32.5936 731.653 32.5936 Q725.617 32.5936 722.133 36.4419 Q718.649 40.2903 718.649 46.9338 L718.649 72.576 L711.155 72.576 L711.155 27.2059 L718.649 27.2059 L718.649 34.2544 Q721.323 30.163 724.928 28.1376 Q728.574 26.1121 733.313 26.1121 Q741.132 26.1121 745.142 30.9732 Q749.153 35.7938 749.153 45.1919 Z" fill="#000000" fill-rule="evenodd" fill-opacity="1" /><path clip-path="url(#clip100)" d="M790.715 12.096 L798.898 12.096 L798.898 36.8875 L828.631 36.8875 L828.631 12.096 L836.814 12.096 L836.814 72.576 L828.631 72.576 L828.631 43.7741 L798.898 43.7741 L798.898 72.576 L790.715 72.576 L790.715 12.096 Z" fill="#000000" fill-rule="evenodd" fill-opacity="1" /><path clip-path="url(#clip100)" d="M870.356 32.4315 Q864.36 32.4315 860.876 37.1306 Q857.393 41.7891 857.393 49.9314 Q857.393 58.0738 860.836 62.7728 Q864.32 67.4314 870.356 67.4314 Q876.31 67.4314 879.794 62.7323 Q883.278 58.0333 883.278 49.9314 Q883.278 41.8701 879.794 37.1711 Q876.31 32.4315 870.356 32.4315 M870.356 26.1121 Q880.078 26.1121 885.627 32.4315 Q891.177 38.7509 891.177 49.9314 Q891.177 61.0714 885.627 67.4314 Q880.078 73.7508 870.356 73.7508 Q860.593 73.7508 855.043 67.4314 Q849.534 61.0714 849.534 49.9314 Q849.534 38.7509 855.043 32.4315 Q860.593 26.1121 870.356 26.1121 Z" fill="#000000" fill-rule="evenodd" fill-opacity="1" /><path clip-path="url(#clip100)" d="M938.856 35.9153 Q941.651 30.8922 945.54 28.5022 Q949.429 26.1121 954.695 26.1121 Q961.784 26.1121 965.633 31.0947 Q969.481 36.0368 969.481 45.1919 L969.481 72.576 L961.987 72.576 L961.987 45.4349 Q961.987 38.913 959.678 35.7533 Q957.369 32.5936 952.629 32.5936 Q946.837 32.5936 943.474 36.4419 Q940.112 40.2903 940.112 46.9338 L940.112 72.576 L932.618 72.576 L932.618 45.4349 Q932.618 38.8725 930.309 35.7533 Q928 32.5936 923.179 32.5936 Q917.468 32.5936 914.105 36.4824 Q910.743 40.3308 910.743 46.9338 L910.743 72.576 L903.249 72.576 L903.249 27.2059 L910.743 27.2059 L910.743 34.2544 Q913.295 30.082 916.86 28.0971 Q920.425 26.1121 925.326 26.1121 Q930.268 26.1121 933.712 28.6237 Q937.195 31.1352 938.856 35.9153 Z" fill="#000000" fill-rule="evenodd" fill-opacity="1" /><path clip-path="url(#clip100)" d="M984.348 27.2059 L991.802 27.2059 L991.802 72.576 L984.348 72.576 L984.348 27.2059 M984.348 9.54393 L991.802 9.54393 L991.802 18.9825 L984.348 18.9825 L984.348 9.54393 Z" fill="#000000" fill-rule="evenodd" fill-opacity="1" /><path clip-path="url(#clip100)" d="M1040.05 28.9478 L1040.05 35.9153 Q1036.89 34.1734 1033.69 33.3227 Q1030.53 32.4315 1027.29 32.4315 Q1020.04 32.4315 1016.03 37.0496 Q1012.02 41.6271 1012.02 49.9314 Q1012.02 58.2358 1016.03 62.8538 Q1020.04 67.4314 1027.29 67.4314 Q1030.53 67.4314 1033.69 66.5807 Q1036.89 65.6895 1040.05 63.9476 L1040.05 70.8341 Q1036.93 72.2924 1033.57 73.0216 Q1030.24 73.7508 1026.48 73.7508 Q1016.23 73.7508 1010.19 67.3098 Q1004.16 60.8689 1004.16 49.9314 Q1004.16 38.832 1010.23 32.472 Q1016.35 26.1121 1026.96 26.1121 Q1030.41 26.1121 1033.69 26.8413 Q1036.97 27.5299 1040.05 28.9478 Z" fill="#000000" fill-rule="evenodd" fill-opacity="1" /><path clip-path="url(#clip100)" d="M1053.01 27.2059 L1060.46 27.2059 L1060.46 72.576 L1053.01 72.576 L1053.01 27.2059 M1053.01 9.54393 L1060.46 9.54393 L1060.46 18.9825 L1053.01 18.9825 L1053.01 9.54393 Z" fill="#000000" fill-rule="evenodd" fill-opacity="1" /><path clip-path="url(#clip100)" d="M1105.92 34.0924 L1105.92 9.54393 L1113.37 9.54393 L1113.37 72.576 L1105.92 72.576 L1105.92 65.7705 Q1103.57 69.8214 1099.96 71.8063 Q1096.4 73.7508 1091.37 73.7508 Q1083.15 73.7508 1077.96 67.1883 Q1072.82 60.6258 1072.82 49.9314 Q1072.82 39.2371 1077.96 32.6746 Q1083.15 26.1121 1091.37 26.1121 Q1096.4 26.1121 1099.96 28.0971 Q1103.57 30.0415 1105.92 34.0924 M1080.52 49.9314 Q1080.52 58.1548 1083.88 62.8538 Q1087.28 67.5124 1093.2 67.5124 Q1099.11 67.5124 1102.51 62.8538 Q1105.92 58.1548 1105.92 49.9314 Q1105.92 41.7081 1102.51 37.0496 Q1099.11 32.3505 1093.2 32.3505 Q1087.28 32.3505 1083.88 37.0496 Q1080.52 41.7081 1080.52 49.9314 Z" fill="#000000" fill-rule="evenodd" fill-opacity="1" /><path clip-path="url(#clip100)" d="M1167.53 48.0275 L1167.53 51.6733 L1133.26 51.6733 Q1133.75 59.3701 1137.88 63.421 Q1142.05 67.4314 1149.46 67.4314 Q1153.76 67.4314 1157.77 66.3781 Q1161.82 65.3249 1165.79 63.2184 L1165.79 70.267 Q1161.78 71.9684 1157.56 72.8596 Q1153.35 73.7508 1149.02 73.7508 Q1138.16 73.7508 1131.8 67.4314 Q1125.48 61.1119 1125.48 50.3365 Q1125.48 39.1965 1131.48 32.6746 Q1137.51 26.1121 1147.72 26.1121 Q1156.88 26.1121 1162.18 32.0264 Q1167.53 37.9003 1167.53 48.0275 M1160.08 45.84 Q1160 39.7232 1156.63 36.0774 Q1153.31 32.4315 1147.8 32.4315 Q1141.56 32.4315 1137.8 35.9558 Q1134.07 39.4801 1133.5 45.8805 L1160.08 45.84 Z" fill="#000000" fill-rule="evenodd" fill-opacity="1" /><path clip-path="url(#clip100)" d="M1200.79 27.2059 L1208.69 27.2059 L1222.87 65.2844 L1237.04 27.2059 L1244.94 27.2059 L1227.93 72.576 L1217.8 72.576 L1200.79 27.2059 Z" fill="#000000" fill-rule="evenodd" fill-opacity="1" /><path clip-path="url(#clip100)" d="M1284.16 28.5427 L1284.16 35.5912 Q1281 33.9709 1277.59 33.1607 Q1274.19 32.3505 1270.54 32.3505 Q1264.99 32.3505 1262.2 34.0519 Q1259.44 35.7533 1259.44 39.156 Q1259.44 41.7486 1261.43 43.2475 Q1263.41 44.7058 1269.41 46.0426 L1271.96 46.6097 Q1279.9 48.3111 1283.22 51.4303 Q1286.59 54.509 1286.59 60.0587 Q1286.59 66.3781 1281.56 70.0644 Q1276.58 73.7508 1267.83 73.7508 Q1264.18 73.7508 1260.21 73.0216 Q1256.29 72.3329 1251.91 70.9151 L1251.91 63.2184 Q1256.04 65.3654 1260.05 66.4591 Q1264.06 67.5124 1267.99 67.5124 Q1273.26 67.5124 1276.09 65.73 Q1278.93 63.9071 1278.93 60.6258 Q1278.93 57.5877 1276.86 55.9673 Q1274.84 54.3469 1267.91 52.8481 L1265.32 52.2405 Q1258.39 50.7821 1255.31 47.7845 Q1252.23 44.7463 1252.23 39.4801 Q1252.23 33.0797 1256.77 29.5959 Q1261.31 26.1121 1269.65 26.1121 Q1273.79 26.1121 1277.43 26.7198 Q1281.08 27.3274 1284.16 28.5427 Z" fill="#000000" fill-rule="evenodd" fill-opacity="1" /><path clip-path="url(#clip100)" d="M1366.39 63.9476 L1366.39 47.7034 L1353.02 47.7034 L1353.02 40.9789 L1374.49 40.9789 L1374.49 66.9452 Q1369.75 70.3075 1364.04 72.0494 Q1358.33 73.7508 1351.85 73.7508 Q1337.67 73.7508 1329.65 65.4869 Q1321.67 57.1826 1321.67 42.3968 Q1321.67 27.5705 1329.65 19.3066 Q1337.67 11.0023 1351.85 11.0023 Q1357.76 11.0023 1363.07 12.4606 Q1368.41 13.9189 1372.91 16.7545 L1372.91 25.464 Q1368.37 21.6156 1363.27 19.6712 Q1358.17 17.7268 1352.53 17.7268 Q1341.44 17.7268 1335.84 23.9246 Q1330.3 30.1225 1330.3 42.3968 Q1330.3 54.6305 1335.84 60.8284 Q1341.44 67.0263 1352.53 67.0263 Q1356.87 67.0263 1360.27 66.2971 Q1363.67 65.5274 1366.39 63.9476 Z" fill="#000000" fill-rule="evenodd" fill-opacity="1" /><path clip-path="url(#clip100)" d="M1388.34 54.671 L1388.34 27.2059 L1395.8 27.2059 L1395.8 54.3874 Q1395.8 60.8284 1398.31 64.0691 Q1400.82 67.2693 1405.84 67.2693 Q1411.88 67.2693 1415.36 63.421 Q1418.89 59.5726 1418.89 52.9291 L1418.89 27.2059 L1426.34 27.2059 L1426.34 72.576 L1418.89 72.576 L1418.89 65.6084 Q1416.17 69.7404 1412.57 71.7658 Q1409 73.7508 1404.26 73.7508 Q1396.45 73.7508 1392.4 68.8897 Q1388.34 64.0286 1388.34 54.671 M1407.1 26.1121 L1407.1 26.1121 Z" fill="#000000" fill-rule="evenodd" fill-opacity="1" /><path clip-path="url(#clip100)" d="M1479.41 45.1919 L1479.41 72.576 L1471.96 72.576 L1471.96 45.4349 Q1471.96 38.994 1469.44 35.7938 Q1466.93 32.5936 1461.91 32.5936 Q1455.87 32.5936 1452.39 36.4419 Q1448.91 40.2903 1448.91 46.9338 L1448.91 72.576 L1441.41 72.576 L1441.41 27.2059 L1448.91 27.2059 L1448.91 34.2544 Q1451.58 30.163 1455.18 28.1376 Q1458.83 26.1121 1463.57 26.1121 Q1471.39 26.1121 1475.4 30.9732 Q1479.41 35.7938 1479.41 45.1919 Z" fill="#000000" fill-rule="evenodd" fill-opacity="1" /><path clip-path="url(#clip100)" d="M1529.15 18.8205 L1529.15 41.5461 L1539.44 41.5461 Q1545.16 41.5461 1548.27 38.5889 Q1551.39 35.6318 1551.39 30.163 Q1551.39 24.7348 1548.27 21.7777 Q1545.16 18.8205 1539.44 18.8205 L1529.15 18.8205 M1520.97 12.096 L1539.44 12.096 Q1549.61 12.096 1554.8 16.714 Q1560.02 21.2916 1560.02 30.163 Q1560.02 39.1155 1554.8 43.6931 Q1549.61 48.2706 1539.44 48.2706 L1529.15 48.2706 L1529.15 72.576 L1520.97 72.576 L1520.97 12.096 Z" fill="#000000" fill-rule="evenodd" fill-opacity="1" /><path clip-path="url(#clip100)" d="M1595.51 34.1734 Q1594.25 33.4443 1592.75 33.1202 Q1591.29 32.7556 1589.51 32.7556 Q1583.19 32.7556 1579.79 36.8875 Q1576.43 40.9789 1576.43 48.6757 L1576.43 72.576 L1568.93 72.576 L1568.93 27.2059 L1576.43 27.2059 L1576.43 34.2544 Q1578.78 30.1225 1582.55 28.1376 Q1586.31 26.1121 1591.7 26.1121 Q1592.47 26.1121 1593.4 26.2337 Q1594.33 26.3147 1595.47 26.5172 L1595.51 34.1734 Z" fill="#000000" fill-rule="evenodd" fill-opacity="1" /><path clip-path="url(#clip100)" d="M1640.31 48.0275 L1640.31 51.6733 L1606.04 51.6733 Q1606.53 59.3701 1610.66 63.421 Q1614.83 67.4314 1622.24 67.4314 Q1626.54 67.4314 1630.55 66.3781 Q1634.6 65.3249 1638.57 63.2184 L1638.57 70.267 Q1634.56 71.9684 1630.35 72.8596 Q1626.13 73.7508 1621.8 73.7508 Q1610.94 73.7508 1604.58 67.4314 Q1598.26 61.1119 1598.26 50.3365 Q1598.26 39.1965 1604.26 32.6746 Q1610.29 26.1121 1620.5 26.1121 Q1629.66 26.1121 1634.96 32.0264 Q1640.31 37.9003 1640.31 48.0275 M1632.86 45.84 Q1632.78 39.7232 1629.41 36.0774 Q1626.09 32.4315 1620.58 32.4315 Q1614.34 32.4315 1610.58 35.9558 Q1606.85 39.4801 1606.28 45.8805 L1632.86 45.84 Z" fill="#000000" fill-rule="evenodd" fill-opacity="1" /><path clip-path="url(#clip100)" d="M1647.2 27.2059 L1655.1 27.2059 L1669.27 65.2844 L1683.45 27.2059 L1691.35 27.2059 L1674.34 72.576 L1664.21 72.576 L1647.2 27.2059 Z" fill="#000000" fill-rule="evenodd" fill-opacity="1" /><path clip-path="url(#clip100)" d="M1722.26 49.7694 Q1713.23 49.7694 1709.74 51.8354 Q1706.26 53.9013 1706.26 58.8839 Q1706.26 62.8538 1708.85 65.2034 Q1711.49 67.5124 1715.98 67.5124 Q1722.18 67.5124 1725.91 63.1374 Q1729.67 58.7219 1729.67 51.4303 L1729.67 49.7694 L1722.26 49.7694 M1737.13 46.6907 L1737.13 72.576 L1729.67 72.576 L1729.67 65.6895 Q1727.12 69.8214 1723.31 71.8063 Q1719.51 73.7508 1714 73.7508 Q1707.03 73.7508 1702.9 69.8619 Q1698.81 65.9325 1698.81 59.3701 Q1698.81 51.7138 1703.91 47.825 Q1709.05 43.9361 1719.22 43.9361 L1729.67 43.9361 L1729.67 43.2069 Q1729.67 38.0623 1726.27 35.2672 Q1722.91 32.4315 1716.79 32.4315 Q1712.9 32.4315 1709.22 33.3632 Q1705.53 34.295 1702.13 36.1584 L1702.13 29.2718 Q1706.22 27.692 1710.07 26.9223 Q1713.92 26.1121 1717.56 26.1121 Q1727.41 26.1121 1732.27 31.2163 Q1737.13 36.3204 1737.13 46.6907 Z" fill="#000000" fill-rule="evenodd" fill-opacity="1" /><path clip-path="url(#clip100)" d="M1752.48 9.54393 L1759.93 9.54393 L1759.93 72.576 L1752.48 72.576 L1752.48 9.54393 Z" fill="#000000" fill-rule="evenodd" fill-opacity="1" /><path clip-path="url(#clip100)" d="M1814.34 48.0275 L1814.34 51.6733 L1780.07 51.6733 Q1780.55 59.3701 1784.69 63.421 Q1788.86 67.4314 1796.27 67.4314 Q1800.56 67.4314 1804.58 66.3781 Q1808.63 65.3249 1812.6 63.2184 L1812.6 70.267 Q1808.59 71.9684 1804.37 72.8596 Q1800.16 73.7508 1795.83 73.7508 Q1784.97 73.7508 1778.61 67.4314 Q1772.29 61.1119 1772.29 50.3365 Q1772.29 39.1965 1778.28 32.6746 Q1784.32 26.1121 1794.53 26.1121 Q1803.68 26.1121 1808.99 32.0264 Q1814.34 37.9003 1814.34 48.0275 M1806.88 45.84 Q1806.8 39.7232 1803.44 36.0774 Q1800.12 32.4315 1794.61 32.4315 Q1788.37 32.4315 1784.6 35.9558 Q1780.88 39.4801 1780.31 45.8805 L1806.88 45.84 Z" fill="#000000" fill-rule="evenodd" fill-opacity="1" /><path clip-path="url(#clip100)" d="M1864.29 45.1919 L1864.29 72.576 L1856.83 72.576 L1856.83 45.4349 Q1856.83 38.994 1854.32 35.7938 Q1851.81 32.5936 1846.79 32.5936 Q1840.75 32.5936 1837.27 36.4419 Q1833.78 40.2903 1833.78 46.9338 L1833.78 72.576 L1826.29 72.576 L1826.29 27.2059 L1833.78 27.2059 L1833.78 34.2544 Q1836.46 30.163 1840.06 28.1376 Q1843.71 26.1121 1848.45 26.1121 Q1856.26 26.1121 1860.28 30.9732 Q1864.29 35.7938 1864.29 45.1919 Z" fill="#000000" fill-rule="evenodd" fill-opacity="1" /><path clip-path="url(#clip100)" d="M1911.8 28.9478 L1911.8 35.9153 Q1908.64 34.1734 1905.44 33.3227 Q1902.28 32.4315 1899.04 32.4315 Q1891.79 32.4315 1887.78 37.0496 Q1883.77 41.6271 1883.77 49.9314 Q1883.77 58.2358 1887.78 62.8538 Q1891.79 67.4314 1899.04 67.4314 Q1902.28 67.4314 1905.44 66.5807 Q1908.64 65.6895 1911.8 63.9476 L1911.8 70.8341 Q1908.68 72.2924 1905.32 73.0216 Q1902 73.7508 1898.23 73.7508 Q1887.98 73.7508 1881.95 67.3098 Q1875.91 60.8689 1875.91 49.9314 Q1875.91 38.832 1881.99 32.472 Q1888.1 26.1121 1898.72 26.1121 Q1902.16 26.1121 1905.44 26.8413 Q1908.72 27.5299 1911.8 28.9478 Z" fill="#000000" fill-rule="evenodd" fill-opacity="1" /><path clip-path="url(#clip100)" d="M1963.57 48.0275 L1963.57 51.6733 L1929.3 51.6733 Q1929.79 59.3701 1933.92 63.421 Q1938.09 67.4314 1945.51 67.4314 Q1949.8 67.4314 1953.81 66.3781 Q1957.86 65.3249 1961.83 63.2184 L1961.83 70.267 Q1957.82 71.9684 1953.61 72.8596 Q1949.39 73.7508 1945.06 73.7508 Q1934.2 73.7508 1927.84 67.4314 Q1921.52 61.1119 1921.52 50.3365 Q1921.52 39.1965 1927.52 32.6746 Q1933.56 26.1121 1943.76 26.1121 Q1952.92 26.1121 1958.23 32.0264 Q1963.57 37.9003 1963.57 48.0275 M1956.12 45.84 Q1956.04 39.7232 1952.68 36.0774 Q1949.35 32.4315 1943.85 32.4315 Q1937.61 32.4315 1933.84 35.9558 Q1930.11 39.4801 1929.55 45.8805 L1956.12 45.84 Z" fill="#000000" fill-rule="evenodd" fill-opacity="1" /><polyline clip-path="url(#clip102)" style="stroke:#009af9; stroke-linecap:butt; stroke-linejoin:round; stroke-width:4; stroke-opacity:0.5; fill:none" points="
  475.371,708.341 528.463,708.341 576.829,686.679 622.245,719.171 659.965,643.355 697.326,794.988 732.206,665.017 764.101,643.355 800.786,545.877 840.148,621.693 
  892.482,697.51 944.43,784.157 996.773,762.495 1059.92,740.833 1152.42,708.341 1226.39,773.326 1305.51,556.708 1395.3,415.906 1437.31,296.766 1472.13,383.414 
  1502.74,350.921 1604.63,177.627 
  "/>
<polyline clip-path="url(#clip102)" style="stroke:#e26f46; stroke-linecap:butt; stroke-linejoin:round; stroke-width:4; stroke-opacity:0.5; fill:none" points="
  480.433,957.451 604.427,1000.77 650.794,989.944 694.866,892.466 729.143,1098.25 774.899,1033.27 826.735,979.113 887.122,1022.44 1083.34,968.282 1455.93,1109.08 
  1562.52,805.819 1664.9,762.495 1778.98,751.664 1889.74,881.635 2003.96,665.017 2118.92,1022.44 
  "/>
<polyline clip-path="url(#clip102)" style="stroke:#3da44d; stroke-linecap:butt; stroke-linejoin:round; stroke-width:4; stroke-opacity:0.5; fill:none" points="
  460.779,773.326 471.021,849.142 470.465,740.833 474.298,708.341 474.814,784.157 471.779,762.495 463.943,719.171 460.381,730.002 465.492,805.819 472.924,849.142 
  492.726,1033.27 509.693,968.282 525.43,989.944 548.902,1000.77 582.7,1011.61 601.312,1087.42 621.086,1044.1 646.259,946.62 674.897,957.451 688.36,979.113 
  706.994,1000.77 743.999,870.804 
  "/>
<polyline clip-path="url(#clip102)" style="stroke:#c271d2; stroke-linecap:butt; stroke-linejoin:round; stroke-width:4; stroke-opacity:0.5; fill:none" points="
  479.865,946.62 542.737,859.973 598.291,979.113 646.152,838.311 683.468,935.789 718.659,870.804 750.754,827.48 780.804,827.48 815.964,838.311 850.229,881.635 
  893.689,838.311 930.18,935.789 966.998,892.466 1014.33,816.65 1080.14,870.804 1128.5,838.311 1177.17,859.973 1233.06,762.495 1281.64,730.002 1330.34,730.002 
  1378.65,675.848 1440.55,415.906 
  "/>
<polyline clip-path="url(#clip102)" style="stroke:#ac8d18; stroke-linecap:butt; stroke-linejoin:round; stroke-width:4; stroke-opacity:0.5; fill:none" points="
  454.304,979.113 466.512,946.62 468.76,924.959 474.767,859.973 477.116,870.804 479.265,870.804 484.758,859.973 493.631,859.973 507.491,914.128 511.034,957.451 
  515.38,989.944 521.185,1033.27 525.108,1044.1 534.185,1033.27 551.733,1054.93 561.917,1076.59 574.97,1033.27 596.32,1022.44 616.887,1033.27 637.612,1076.59 
  658.751,1076.59 686.781,946.62 
  "/>
<polyline clip-path="url(#clip102)" style="stroke:#00a9ad; stroke-linecap:butt; stroke-linejoin:round; stroke-width:4; stroke-opacity:0.5; fill:none" points="
  471.435,1109.08 530.115,1206.56 577.242,1184.9 630.525,1141.58 663.862,1141.58 691.794,1109.08 722.753,1152.41 744.898,1184.9 771.792,1217.39 804.98,1184.9 
  863.975,1184.9 913.592,1217.39 958.294,1206.56 1010.71,1184.9 1079.78,1206.56 1122.51,1217.39 1163.88,1152.41 1220.11,1109.08 1282.28,1109.08 1333.35,1065.76 
  1383.68,1119.91 1455.37,989.944 
  "/>
<polyline clip-path="url(#clip102)" style="stroke:#ed5d92; stroke-linecap:butt; stroke-linejoin:round; stroke-width:4; stroke-opacity:0.5; fill:none" points="
  450.084,1152.41 452.032,1228.22 444.34,1195.73 451.96,1249.89 461.667,1249.89 473.789,1228.22 486.168,1217.39 499.054,1141.58 512.517,1217.39 527.187,1152.41 
  548.32,1184.9 569.968,1130.75 594.486,1130.75 620.545,1076.59 660.093,1228.22 694.321,1249.89 741.069,1184.9 801.679,1260.72 832.346,1206.56 865.111,1260.72 
  892.299,1228.22 922.123,1119.91 
  "/>
<polyline clip-path="url(#clip102)" style="stroke:#c68125; stroke-linecap:butt; stroke-linejoin:round; stroke-width:4; stroke-opacity:0.5; fill:none" points="
  442.148,-1327.87 439.096,-1187.07 435.058,-1230.39 437.314,-1901.91 445.139,-1544.49 446.436,-1187.07 447.51,-1284.54 441.973,-851.309 436.032,-1013.77 426.596,-851.309 
  408.194,-483.058 394.153,-93.1458 370.682,69.3176 351.132,480.892 333.056,405.075 317.694,318.428 302.129,-266.44 292.537,-136.469 278.81,15.1631 270.54,-363.918 
  268.706,-537.213 263.091,-959.618 
  "/>
<polyline clip-path="url(#clip102)" style="stroke:#00a98d; stroke-linecap:butt; stroke-linejoin:round; stroke-width:4; stroke-opacity:0.5; fill:none" points="
  452.108,1044.1 455.801,1109.08 450.382,1044.1 449.932,1011.61 449.677,1000.77 444.752,1022.44 441.398,1044.1 447.267,946.62 460.896,870.804 477.545,903.297 
  502.564,957.451 524.103,979.113 542.442,957.451 565.306,935.789 602.614,968.282 623.883,979.113 644.674,957.451 675.244,903.297 704.979,935.789 734.101,924.959 
  764.876,914.128 808,816.65 
  "/>
<polyline clip-path="url(#clip102)" style="stroke:#8e971d; stroke-linecap:butt; stroke-linejoin:round; stroke-width:4; stroke-opacity:0.5; fill:none" points="
  455.692,838.311 470.092,838.311 474.639,838.311 485.495,816.65 496.226,805.819 503.069,903.297 508.747,892.466 512.561,838.311 514.557,773.326 520.628,838.311 
  534.442,914.128 548.689,924.959 558.177,935.789 574.259,903.297 602.022,914.128 618.756,881.635 636.358,805.819 660.732,740.833 680.077,730.002 699.155,762.495 
  714.856,719.171 746.785,513.384 
  "/>
<polyline clip-path="url(#clip102)" style="stroke:#00a8cb; stroke-linecap:butt; stroke-linejoin:round; stroke-width:4; stroke-opacity:0.5; fill:none" points="
  451.067,816.65 461.316,838.311 468.457,773.326 478.969,794.988 489.325,827.48 499.672,924.959 511.45,935.789 522.076,892.466 531.432,935.789 541.802,881.635 
  555.817,892.466 571.595,935.789 589.177,914.128 614.553,881.635 650.3,935.789 683.766,903.297 718.077,838.311 762.201,621.693 806.754,632.524 848.897,751.664 
  889.337,751.664 938.283,415.906 
  "/>
<polyline clip-path="url(#clip102)" style="stroke:#9b7fe8; stroke-linecap:butt; stroke-linejoin:round; stroke-width:4; stroke-opacity:0.5; fill:none" points="
  462.467,935.789 486.641,1033.27 493.943,914.128 504.459,1000.77 511.522,989.944 531.009,1033.27 552.438,979.113 572.405,968.282 594.807,1000.77 619.088,1022.44 
  653.267,1011.61 685.518,1054.93 720.338,1087.42 766.565,1011.61 830.166,935.789 884.399,1000.77 940.45,946.62 1011.95,827.48 1076.01,816.65 1134.3,838.311 
  1182.98,849.142 1256.17,632.524 
  "/>
<polyline clip-path="url(#clip102)" style="stroke:#608cf6; stroke-linecap:butt; stroke-linejoin:round; stroke-width:4; stroke-opacity:0.5; fill:none" points="
  449.691,1314.87 463.35,1325.7 476.813,1336.53 490.664,1314.87 502.11,1336.53 513.923,1314.87 526.517,1336.53 536.869,1282.38 556.229,1304.04 575.311,1304.04 
  584.06,1314.87 594.836,1304.04 605.892,1336.53 613.021,1293.21 619.6,1260.72 628.189,1249.89 636.613,1206.56 644.217,1293.21 654.872,1249.89 665.318,1141.58 
  
  "/>
<polyline clip-path="url(#clip102)" style="stroke:#f05f73; stroke-linecap:butt; stroke-linejoin:round; stroke-width:4; stroke-opacity:0.5; fill:none" points="
  464.456,1065.76 502.144,1011.61 534.291,1054.93 564.61,1130.75 595.568,1109.08 625.372,1087.42 655.158,1184.9 684.735,1141.58 716.104,1141.58 745.963,1130.75 
  786.745,1076.59 824.884,1163.24 867.227,1119.91 915.915,1174.07 987.5,1130.75 1034.88,1152.41 1081.89,1065.76 1143.16,1000.77 1196.32,914.128 1250.34,968.282 
  1296.29,1054.93 1360.9,827.48 
  "/>
<polyline clip-path="url(#clip102)" style="stroke:#dd64b5; stroke-linecap:butt; stroke-linejoin:round; stroke-width:4; stroke-opacity:0.5; fill:none" points="
  479.027,1044.1 537.642,1065.76 590.993,1054.93 641.412,1087.42 683.106,1119.91 724.329,1022.44 764.809,1033.27 804.617,1141.58 843.331,1033.27 881.332,1022.44 
  926.568,1087.42 966.726,1109.08 1005.9,1098.25 1057.36,1033.27 1122.92,1087.42 1168.4,1087.42 1218.69,1000.77 1278.43,849.142 1330.86,870.804 1380.07,924.959 
  1431.24,935.789 1504.28,600.032 
  "/>
<polyline clip-path="url(#clip102)" style="stroke:#6b9e32; stroke-linecap:butt; stroke-linejoin:round; stroke-width:4; stroke-opacity:0.5; fill:none" points="
  466.285,589.201 509.72,383.414 548.858,459.23 581.866,296.766 610.673,285.936 637.449,285.936 665.743,340.09 792.294,307.597 815.932,210.119 845.472,372.583 
  887.738,340.09 923.324,394.245 963.104,405.075 1012.84,415.906 1084.77,383.414 1141.29,437.568 1199.05,361.752 1269.39,210.119 1338.8,188.458 1408.37,264.274 
  1466.68,155.965 1537.91,-320.595 
  "/>
<polyline clip-path="url(#clip102)" style="stroke:#009af9; stroke-linecap:butt; stroke-linejoin:round; stroke-width:4; stroke-opacity:0.5; fill:none" points="
  447.69,610.863 450.422,697.51 445.973,686.679 444.543,697.51 444.372,643.355 444.839,665.017 447.922,610.863 453.193,621.693 461.001,610.863 468.773,697.51 
  479.166,827.48 487.322,849.142 494.498,914.128 504.927,881.635 526.95,881.635 553.408,968.282 564.858,621.693 583.072,643.355 598.51,610.863 621.171,665.017 
  638.977,589.201 661.622,480.892 
  "/>
<polyline clip-path="url(#clip102)" style="stroke:#e26f46; stroke-linecap:butt; stroke-linejoin:round; stroke-width:4; stroke-opacity:0.5; fill:none" points="
  443.547,1304.04 442.884,1304.04 439.893,1282.38 442.484,1260.72 447.736,1293.21 455.784,1239.05 463.316,1239.05 468.582,1249.89 471.934,1228.22 472.942,1260.72 
  474.179,1239.05 478.35,1217.39 482.366,1217.39 485.961,1304.04 496.159,1282.38 503.43,1282.38 510.734,1282.38 525.81,1282.38 536.888,1260.72 545.363,1260.72 
  559.566,1271.55 574.565,1217.39 
  "/>
<polyline clip-path="url(#clip102)" style="stroke:#3da44d; stroke-linecap:butt; stroke-linejoin:round; stroke-width:4; stroke-opacity:0.5; fill:none" points="
  450.559,859.973 466.505,870.804 480.326,881.635 498.727,892.466 517.381,903.297 537.806,892.466 559.494,892.466 581.255,849.142 604.233,870.804 628.241,892.466 
  652.158,881.635 670.454,935.789 687.207,859.973 702.845,784.157 731.013,881.635 755.025,979.113 779.46,946.62 810.895,892.466 836.362,946.62 859.214,903.297 
  885.213,924.959 935.064,697.51 
  "/>
<polyline clip-path="url(#clip102)" style="stroke:#c271d2; stroke-linecap:butt; stroke-linejoin:round; stroke-width:4; stroke-opacity:0.5; fill:none" points="
  454.266,1304.04 479.943,1249.89 499.178,1271.55 524.273,1304.04 548.91,1260.72 577.349,1239.05 604.974,1239.05 630.462,1260.72 656.285,1282.38 682.603,1271.55 
  713.406,1325.7 742.641,1293.21 771.159,1304.04 806.796,1304.04 855.732,1271.55 892.414,1304.04 929.728,1239.05 974.208,1260.72 1011.64,1271.55 1036.14,1293.21 
  1066.98,1228.22 1116.03,1163.24 
  "/>
<polyline clip-path="url(#clip102)" style="stroke:#ac8d18; stroke-linecap:butt; stroke-linejoin:round; stroke-width:4; stroke-opacity:0.5; fill:none" points="
  479.095,600.032 539.544,610.863 596.422,567.539 644.317,632.524 684.061,665.017 719.211,665.017 755.833,773.326 812.308,600.032 855.174,610.863 898.373,524.215 
  948.68,697.51 990.623,675.848 1034.91,621.693 1087.91,643.355 1159.02,643.355 1216.81,480.892 1282.26,470.061 1363.87,405.075 1441.74,350.921 1508.94,264.274 
  1580.15,90.9794 1677,-396.411 
  "/>
<polyline clip-path="url(#clip102)" style="stroke:#00a9ad; stroke-linecap:butt; stroke-linejoin:round; stroke-width:4; stroke-opacity:0.5; fill:none" points="
  463.298,946.62 496.085,892.466 523.271,892.466 552.749,935.789 579.251,1011.61 606.254,935.789 633.081,870.804 659.127,881.635 686.563,935.789 727.035,762.495 
  778.08,838.311 825.396,816.65 876.758,881.635 939.021,859.973 1023.59,903.297 1088.32,838.311 1160.34,610.863 1242.63,600.032 1321.62,426.737 1397.2,437.568 
  1465.13,480.892 1551.53,220.95 
  "/>
<polyline clip-path="url(#clip102)" style="stroke:#ed5d92; stroke-linecap:butt; stroke-linejoin:round; stroke-width:4; stroke-opacity:0.5; fill:none" points="
  450.912,1239.05 466.558,1163.24 479.853,1293.21 492.038,1249.89 501.976,1228.22 512.924,1271.55 523.893,1249.89 534.838,1239.05 545.91,1163.24 555.809,1130.75 
  564.296,1239.05 572.201,1184.9 580.232,1184.9 591.419,1152.41 605.463,1130.75 613.502,1195.73 620.506,1141.58 630.146,1163.24 637.419,1260.72 646.243,1282.38 
  655.497,1195.73 668.981,1152.41 
  "/>
<polyline clip-path="url(#clip102)" style="stroke:#c68125; stroke-linecap:butt; stroke-linejoin:round; stroke-width:4; stroke-opacity:0.5; fill:none" points="
  461.926,859.973 462.114,935.789 439.876,859.973 431.888,859.973 423.294,870.804 407.776,859.973 398.339,914.128 392.089,859.973 389.117,881.635 395.727,1011.61 
  425.405,1033.27 453.773,1065.76 482.439,1087.42 510.111,1119.91 549.285,1076.59 565.598,1022.44 578.854,946.62 598.4,870.804 614.115,870.804 633.797,859.973 
  648.082,1011.61 672.905,914.128 
  "/>
<polyline clip-path="url(#clip102)" style="stroke:#00a98d; stroke-linecap:butt; stroke-linejoin:round; stroke-width:4; stroke-opacity:0.5; fill:none" points="
  444.765,1228.22 443.453,1206.56 439.262,1184.9 438.001,1163.24 437.893,1098.25 438.973,1109.08 441.614,1065.76 445.164,1044.1 447.862,1076.59 448.731,1119.91 
  450.009,1141.58 452.335,1098.25 455.765,1065.76 459.397,1087.42 468.189,1065.76 476.043,1098.25 484.03,1098.25 497.859,1065.76 504.338,1109.08 526.953,1163.24 
  540.053,1184.9 552.079,1119.91 
  "/>
<polyline clip-path="url(#clip102)" style="stroke:#8e971d; stroke-linecap:butt; stroke-linejoin:round; stroke-width:4; stroke-opacity:0.5; fill:none" points="
  473.022,881.635 520.778,838.311 561.839,1022.44 590.23,946.62 613.163,924.959 633.647,957.451 653.688,989.944 675.297,1022.44 700.018,1000.77 730.958,957.451 
  766.166,935.789 796.686,1022.44 828.674,1044.1 879.583,1011.61 949.862,1000.77 1008.93,1033.27 1069.31,946.62 1137.91,838.311 1198.05,903.297 1260.21,719.171 
  1323.31,610.863 1394.51,654.186 
  "/>
<polyline clip-path="url(#clip102)" style="stroke:#00a8cb; stroke-linecap:butt; stroke-linejoin:round; stroke-width:4; stroke-opacity:0.5; fill:none" points="
  445.369,1109.08 447.119,1076.59 447.742,1087.42 451.726,1109.08 455.939,1087.42 462.426,1130.75 471.295,1130.75 480.064,1098.25 488.256,1130.75 493.762,1141.58 
  500.071,1141.58 507.344,1130.75 514.627,1163.24 522.869,1184.9 536.672,1217.39 546.357,1217.39 558.7,1195.73 578.552,1206.56 590.631,1249.89 623.883,1228.22 
  643.556,1239.05 668.028,1109.08 
  "/>
<polyline clip-path="url(#clip102)" style="stroke:#9b7fe8; stroke-linecap:butt; stroke-linejoin:round; stroke-width:4; stroke-opacity:0.5; fill:none" points="
  455.834,794.988 469.667,805.819 474.716,870.804 482.413,816.65 489.222,914.128 491.738,903.297 491.954,859.973 485.797,892.466 480.823,881.635 476.899,881.635 
  480.349,957.451 486.3,1000.77 489.046,1000.77 497.754,957.451 512.889,968.282 522.544,1000.77 531.519,946.62 540.785,827.48 547.857,870.804 554.956,914.128 
  560.616,859.973 572.876,665.017 
  "/>
<polyline clip-path="url(#clip102)" style="stroke:#608cf6; stroke-linecap:butt; stroke-linejoin:round; stroke-width:4; stroke-opacity:0.5; fill:none" points="
  456.754,1174.07 483.252,1184.9 505.592,1119.91 530.901,1087.42 555.352,1119.91 581.68,1098.25 608.587,1033.27 635.072,1000.77 661.945,1033.27 689.02,1044.1 
  723.265,1076.59 755.211,1054.93 791.442,1000.77 837.566,1011.61 898.719,1000.77 946.542,1033.27 995.976,968.282 1056.88,903.297 1107.88,849.142 1152.26,914.128 
  1194,903.297 1249.73,665.017 
  "/>
<polyline clip-path="url(#clip102)" style="stroke:#f05f73; stroke-linecap:butt; stroke-linejoin:round; stroke-width:4; stroke-opacity:0.5; fill:none" points="
  471.374,946.62 519.305,1065.76 562.627,1033.27 599.695,1076.59 634.036,989.944 669.371,1044.1 704.266,1011.61 736.033,968.282 770.171,968.282 806.651,989.944 
  852.146,989.944 893.081,1044.1 937.022,946.62 1001.49,892.466 1089.14,924.959 1157.01,989.944 1225.12,805.819 1306.68,762.495 1384.12,794.988 1454.6,914.128 
  1517.72,751.664 1597.11,686.679 
  "/>
<polyline clip-path="url(#clip102)" style="stroke:#dd64b5; stroke-linecap:butt; stroke-linejoin:round; stroke-width:4; stroke-opacity:0.5; fill:none" points="
  468.142,1228.22 508.479,1228.22 536.237,1271.55 565.673,1228.22 597.502,1260.72 634.202,1228.22 666.209,1260.72 694.666,1239.05 724.88,1293.21 757.308,1282.38 
  799.004,1271.55 841.313,1249.89 882.724,1249.89 934.091,1271.55 1002.46,1271.55 1051.76,1282.38 1093.51,1174.07 1146.14,1217.39 1208.08,1228.22 1264.66,1249.89 
  1323.63,1228.22 1404.8,1141.58 
  "/>
<polyline clip-path="url(#clip102)" style="stroke:#6b9e32; stroke-linecap:butt; stroke-linejoin:round; stroke-width:4; stroke-opacity:0.5; fill:none" points="
  466.84,1044.1 511.281,1033.27 550.046,1033.27 595.457,1022.44 638.209,1011.61 677.793,979.113 715.984,957.451 751.633,914.128 792.41,946.62 834.468,968.282 
  883.43,1011.61 929.83,1000.77 980.489,989.944 1045.94,957.451 1115.05,1011.61 1167.57,1033.27 1221.02,979.113 1287.62,968.282 1349.14,914.128 1409.06,935.789 
  1466.17,957.451 1539.29,751.664 
  "/>
<polyline clip-path="url(#clip102)" style="stroke:#009af9; stroke-linecap:butt; stroke-linejoin:round; stroke-width:4; stroke-opacity:0.5; fill:none" points="
  448.305,1206.56 452.483,1141.58 454.038,1217.39 457.289,1174.07 462.524,1206.56 806.703,1195.73 
  "/>
<polyline clip-path="url(#clip102)" style="stroke:#e26f46; stroke-linecap:butt; stroke-linejoin:round; stroke-width:4; stroke-opacity:0.5; fill:none" points="
  460.373,816.65 486.322,968.282 504.005,816.65 521.271,827.48 535.498,805.819 544.586,859.973 555.763,827.48 561.531,740.833 568.001,805.819 576.198,827.48 
  597.527,870.804 620.266,881.635 639.319,838.311 668.576,794.988 706.168,870.804 730.047,827.48 754.932,621.693 786.6,686.679 818.924,697.51 846.224,632.524 
  869.426,470.061 909.462,329.259 
  "/>
<polyline clip-path="url(#clip102)" style="stroke:#3da44d; stroke-linecap:butt; stroke-linejoin:round; stroke-width:4; stroke-opacity:0.5; fill:none" points="
  468.287,870.804 506.546,773.326 538.384,849.142 572.899,816.65 604.332,870.804 631.323,903.297 654.95,751.664 675.536,838.311 700.136,816.65 729.8,838.311 
  772.135,827.48 813.993,924.959 856.852,903.297 909.428,870.804 986.317,903.297 1041.8,903.297 1103.11,827.48 1180.53,719.171 1246.18,665.017 1308.42,621.693 
  1363.06,675.848 1439.97,394.245 
  "/>
<polyline clip-path="url(#clip102)" style="stroke:#c271d2; stroke-linecap:butt; stroke-linejoin:round; stroke-width:4; stroke-opacity:0.5; fill:none" points="
  459.897,1000.77 478.379,1000.77 485.471,979.113 494.547,979.113 502.137,946.62 508.569,979.113 514.881,946.62 516.294,946.62 522.545,957.451 530.27,979.113 
  546.47,989.944 561.686,1033.27 572.266,1076.59 595.029,1054.93 631.389,1054.93 650.991,1033.27 671.518,989.944 700.317,946.62 723.325,946.62 745.34,989.944 
  767.548,935.789 801.946,784.157 
  "/>
<polyline clip-path="url(#clip102)" style="stroke:#ac8d18; stroke-linecap:butt; stroke-linejoin:round; stroke-width:4; stroke-opacity:0.5; fill:none" points="
  463.195,1271.55 494.25,1228.22 506.596,1293.21 519.688,1249.89 529.987,1293.21 535.041,1282.38 540.711,1304.04 547.617,1260.72 555.896,1325.7 570.148,1304.04 
  581.631,1314.87 589.489,1314.87 606.205,1314.87 631.428,1304.04 644.924,1293.21 654.749,1271.55 668.822,1249.89 683.379,1239.05 692.873,1304.04 703.716,1249.89 
  729.035,1174.07 
  "/>
<polyline clip-path="url(#clip102)" style="stroke:#00a9ad; stroke-linecap:butt; stroke-linejoin:round; stroke-width:4; stroke-opacity:0.5; fill:none" points="
  459.309,989.944 479.095,989.944 489.745,1011.61 506.361,1000.77 523.81,924.959 537.503,1000.77 554.556,914.128 573.873,1022.44 594.985,989.944 618.077,1076.59 
  646.392,1054.93 677.413,1054.93 703.97,1109.08 737.708,1130.75 792.685,1119.91 835.274,1119.91 877.895,1065.76 933.162,968.282 988.004,979.113 1036.54,1000.77 
  1084.06,989.944 1151.74,870.804 
  "/>
<polyline clip-path="url(#clip102)" style="stroke:#ed5d92; stroke-linecap:butt; stroke-linejoin:round; stroke-width:4; stroke-opacity:0.5; fill:none" points="
  453.281,1228.22 466.748,1217.39 472.516,1228.22 483.668,1228.22 498.417,1228.22 510.322,1206.56 523.29,1174.07 532.78,1217.39 546.71,1217.39 561.978,1217.39 
  583.891,1228.22 609.571,1239.05 629.723,1282.38 663.276,1228.22 711.417,1239.05 742.664,1239.05 768.689,1174.07 799.779,1206.56 832.198,1184.9 858.328,1174.07 
  899.248,1184.9 937.217,1130.75 
  "/>
<polyline clip-path="url(#clip102)" style="stroke:#c68125; stroke-linecap:butt; stroke-linejoin:round; stroke-width:4; stroke-opacity:0.5; fill:none" points="
  482.979,1054.93 564.187,1087.42 644.417,1195.73 714.15,1022.44 771.556,1065.76 828.523,1109.08 887.406,1087.42 944.297,1087.42 1002.61,1152.41 1061.3,1206.56 
  1130.18,1087.42 1195.78,1152.41 1271.5,1065.76 1364.56,1033.27 1489.59,1174.07 1596.34,1087.42 1705.66,1130.75 1828.95,957.451 1950.2,1011.61 2060.37,1022.44 
  2170.63,968.282 2291.89,892.466 
  "/>
<polyline clip-path="url(#clip102)" style="stroke:#00a98d; stroke-linecap:butt; stroke-linejoin:round; stroke-width:4; stroke-opacity:0.5; fill:none" points="
  458.652,1163.24 489.386,1195.73 516.462,1152.41 544.737,1184.9 571.53,1141.58 601.126,1239.05 629.545,1109.08 657.565,1206.56 685.573,1163.24 712.757,1271.55 
  743.41,1228.22 773.867,1217.39 805.437,1260.72 853.606,1184.9 916.019,1206.56 964.142,1195.73 1010.47,1098.25 1070.3,1065.76 1128.65,1130.75 1180.23,1141.58 
  1231.95,1141.58 1301.59,957.451 
  "/>
</svg>
