<?xml version="1.0" encoding="utf-8"?>
<svg xmlns="http://www.w3.org/2000/svg" xmlns:xlink="http://www.w3.org/1999/xlink" width="600" height="400" viewBox="0 0 2400 1600">
<defs>
  <clipPath id="clip060">
    <rect x="0" y="0" width="2400" height="1600"/>
  </clipPath>
</defs>
<path clip-path="url(#clip060)" d="
M0 1600 L2400 1600 L2400 0 L0 0  Z
  " fill="#ffffff" fill-rule="evenodd" fill-opacity="1"/>
<defs>
  <clipPath id="clip061">
    <rect x="480" y="0" width="1681" height="1600"/>
  </clipPath>
</defs>
<path clip-path="url(#clip060)" d="
M184.191 1486.45 L2352.76 1486.45 L2352.76 183.952 L184.191 183.952  Z
  " fill="#ffffff" fill-rule="evenodd" fill-opacity="1"/>
<defs>
  <clipPath id="clip062">
    <rect x="184" y="183" width="2170" height="1303"/>
  </clipPath>
</defs>
<polyline clip-path="url(#clip062)" style="stroke:#000000; stroke-linecap:butt; stroke-linejoin:round; stroke-width:2; stroke-opacity:0.1; fill:none" points="
  303.466,1486.45 303.466,183.952 
  "/>
<polyline clip-path="url(#clip062)" style="stroke:#000000; stroke-linecap:butt; stroke-linejoin:round; stroke-width:2; stroke-opacity:0.1; fill:none" points="
  625.135,1486.45 625.135,183.952 
  "/>
<polyline clip-path="url(#clip062)" style="stroke:#000000; stroke-linecap:butt; stroke-linejoin:round; stroke-width:2; stroke-opacity:0.1; fill:none" points="
  946.804,1486.45 946.804,183.952 
  "/>
<polyline clip-path="url(#clip062)" style="stroke:#000000; stroke-linecap:butt; stroke-linejoin:round; stroke-width:2; stroke-opacity:0.1; fill:none" points="
  1268.47,1486.45 1268.47,183.952 
  "/>
<polyline clip-path="url(#clip062)" style="stroke:#000000; stroke-linecap:butt; stroke-linejoin:round; stroke-width:2; stroke-opacity:0.1; fill:none" points="
  1590.14,1486.45 1590.14,183.952 
  "/>
<polyline clip-path="url(#clip062)" style="stroke:#000000; stroke-linecap:butt; stroke-linejoin:round; stroke-width:2; stroke-opacity:0.1; fill:none" points="
  1911.81,1486.45 1911.81,183.952 
  "/>
<polyline clip-path="url(#clip062)" style="stroke:#000000; stroke-linecap:butt; stroke-linejoin:round; stroke-width:2; stroke-opacity:0.1; fill:none" points="
  2233.48,1486.45 2233.48,183.952 
  "/>
<polyline clip-path="url(#clip060)" style="stroke:#000000; stroke-linecap:butt; stroke-linejoin:round; stroke-width:4; stroke-opacity:1; fill:none" points="
  184.191,1486.45 2352.76,1486.45 
  "/>
<polyline clip-path="url(#clip060)" style="stroke:#000000; stroke-linecap:butt; stroke-linejoin:round; stroke-width:4; stroke-opacity:1; fill:none" points="
  303.466,1486.45 303.466,1467.55 
  "/>
<polyline clip-path="url(#clip060)" style="stroke:#000000; stroke-linecap:butt; stroke-linejoin:round; stroke-width:4; stroke-opacity:1; fill:none" points="
  625.135,1486.45 625.135,1467.55 
  "/>
<polyline clip-path="url(#clip060)" style="stroke:#000000; stroke-linecap:butt; stroke-linejoin:round; stroke-width:4; stroke-opacity:1; fill:none" points="
  946.804,1486.45 946.804,1467.55 
  "/>
<polyline clip-path="url(#clip060)" style="stroke:#000000; stroke-linecap:butt; stroke-linejoin:round; stroke-width:4; stroke-opacity:1; fill:none" points="
  1268.47,1486.45 1268.47,1467.55 
  "/>
<polyline clip-path="url(#clip060)" style="stroke:#000000; stroke-linecap:butt; stroke-linejoin:round; stroke-width:4; stroke-opacity:1; fill:none" points="
  1590.14,1486.45 1590.14,1467.55 
  "/>
<polyline clip-path="url(#clip060)" style="stroke:#000000; stroke-linecap:butt; stroke-linejoin:round; stroke-width:4; stroke-opacity:1; fill:none" points="
  1911.81,1486.45 1911.81,1467.55 
  "/>
<polyline clip-path="url(#clip060)" style="stroke:#000000; stroke-linecap:butt; stroke-linejoin:round; stroke-width:4; stroke-opacity:1; fill:none" points="
  2233.48,1486.45 2233.48,1467.55 
  "/>
<path clip-path="url(#clip060)" d="M280.85 1517.37 Q277.239 1517.37 275.41 1520.93 Q273.605 1524.47 273.605 1531.6 Q273.605 1538.71 275.41 1542.27 Q277.239 1545.82 280.85 1545.82 Q284.484 1545.82 286.29 1542.27 Q288.118 1538.71 288.118 1531.6 Q288.118 1524.47 286.29 1520.93 Q284.484 1517.37 280.85 1517.37 M280.85 1513.66 Q286.66 1513.66 289.716 1518.27 Q292.794 1522.85 292.794 1531.6 Q292.794 1540.33 289.716 1544.94 Q286.66 1549.52 280.85 1549.52 Q275.04 1549.52 271.961 1544.94 Q268.906 1540.33 268.906 1531.6 Q268.906 1522.85 271.961 1518.27 Q275.04 1513.66 280.85 1513.66 Z" fill="#000000" fill-rule="evenodd" fill-opacity="1" /><path clip-path="url(#clip060)" d="M301.012 1542.97 L305.896 1542.97 L305.896 1548.85 L301.012 1548.85 L301.012 1542.97 Z" fill="#000000" fill-rule="evenodd" fill-opacity="1" /><path clip-path="url(#clip060)" d="M326.081 1517.37 Q322.47 1517.37 320.641 1520.93 Q318.836 1524.47 318.836 1531.6 Q318.836 1538.71 320.641 1542.27 Q322.47 1545.82 326.081 1545.82 Q329.715 1545.82 331.521 1542.27 Q333.35 1538.71 333.35 1531.6 Q333.35 1524.47 331.521 1520.93 Q329.715 1517.37 326.081 1517.37 M326.081 1513.66 Q331.891 1513.66 334.947 1518.27 Q338.026 1522.85 338.026 1531.6 Q338.026 1540.33 334.947 1544.94 Q331.891 1549.52 326.081 1549.52 Q320.271 1549.52 317.192 1544.94 Q314.137 1540.33 314.137 1531.6 Q314.137 1522.85 317.192 1518.27 Q320.271 1513.66 326.081 1513.66 Z" fill="#000000" fill-rule="evenodd" fill-opacity="1" /><path clip-path="url(#clip060)" d="M603.318 1517.37 Q599.707 1517.37 597.878 1520.93 Q596.073 1524.47 596.073 1531.6 Q596.073 1538.71 597.878 1542.27 Q599.707 1545.82 603.318 1545.82 Q606.952 1545.82 608.758 1542.27 Q610.586 1538.71 610.586 1531.6 Q610.586 1524.47 608.758 1520.93 Q606.952 1517.37 603.318 1517.37 M603.318 1513.66 Q609.128 1513.66 612.184 1518.27 Q615.262 1522.85 615.262 1531.6 Q615.262 1540.33 612.184 1544.94 Q609.128 1549.52 603.318 1549.52 Q597.508 1549.52 594.429 1544.94 Q591.373 1540.33 591.373 1531.6 Q591.373 1522.85 594.429 1518.27 Q597.508 1513.66 603.318 1513.66 Z" fill="#000000" fill-rule="evenodd" fill-opacity="1" /><path clip-path="url(#clip060)" d="M623.48 1542.97 L628.364 1542.97 L628.364 1548.85 L623.48 1548.85 L623.48 1542.97 Z" fill="#000000" fill-rule="evenodd" fill-opacity="1" /><path clip-path="url(#clip060)" d="M642.577 1544.91 L658.896 1544.91 L658.896 1548.85 L636.952 1548.85 L636.952 1544.91 Q639.614 1542.16 644.197 1537.53 Q648.804 1532.88 649.984 1531.53 Q652.23 1529.01 653.109 1527.27 Q654.012 1525.51 654.012 1523.82 Q654.012 1521.07 652.068 1519.33 Q650.146 1517.6 647.044 1517.6 Q644.845 1517.6 642.392 1518.36 Q639.961 1519.13 637.183 1520.68 L637.183 1515.95 Q640.007 1514.82 642.461 1514.24 Q644.915 1513.66 646.952 1513.66 Q652.322 1513.66 655.517 1516.35 Q658.711 1519.03 658.711 1523.52 Q658.711 1525.65 657.901 1527.57 Q657.114 1529.47 655.007 1532.07 Q654.429 1532.74 651.327 1535.95 Q648.225 1539.15 642.577 1544.91 Z" fill="#000000" fill-rule="evenodd" fill-opacity="1" /><path clip-path="url(#clip060)" d="M923.945 1517.37 Q920.334 1517.37 918.506 1520.93 Q916.7 1524.47 916.7 1531.6 Q916.7 1538.71 918.506 1542.27 Q920.334 1545.82 923.945 1545.82 Q927.58 1545.82 929.385 1542.27 Q931.214 1538.71 931.214 1531.6 Q931.214 1524.47 929.385 1520.93 Q927.58 1517.37 923.945 1517.37 M923.945 1513.66 Q929.756 1513.66 932.811 1518.27 Q935.89 1522.85 935.89 1531.6 Q935.89 1540.33 932.811 1544.94 Q929.756 1549.52 923.945 1549.52 Q918.135 1549.52 915.057 1544.94 Q912.001 1540.33 912.001 1531.6 Q912.001 1522.85 915.057 1518.27 Q918.135 1513.66 923.945 1513.66 Z" fill="#000000" fill-rule="evenodd" fill-opacity="1" /><path clip-path="url(#clip060)" d="M944.107 1542.97 L948.992 1542.97 L948.992 1548.85 L944.107 1548.85 L944.107 1542.97 Z" fill="#000000" fill-rule="evenodd" fill-opacity="1" /><path clip-path="url(#clip060)" d="M972.024 1518.36 L960.218 1536.81 L972.024 1536.81 L972.024 1518.36 M970.797 1514.29 L976.677 1514.29 L976.677 1536.81 L981.607 1536.81 L981.607 1540.7 L976.677 1540.7 L976.677 1548.85 L972.024 1548.85 L972.024 1540.7 L956.422 1540.7 L956.422 1536.19 L970.797 1514.29 Z" fill="#000000" fill-rule="evenodd" fill-opacity="1" /><path clip-path="url(#clip060)" d="M1245.78 1517.37 Q1242.17 1517.37 1240.34 1520.93 Q1238.53 1524.47 1238.53 1531.6 Q1238.53 1538.71 1240.34 1542.27 Q1242.17 1545.82 1245.78 1545.82 Q1249.41 1545.82 1251.22 1542.27 Q1253.05 1538.71 1253.05 1531.6 Q1253.05 1524.47 1251.22 1520.93 Q1249.41 1517.37 1245.78 1517.37 M1245.78 1513.66 Q1251.59 1513.66 1254.64 1518.27 Q1257.72 1522.85 1257.72 1531.6 Q1257.72 1540.33 1254.64 1544.94 Q1251.59 1549.52 1245.78 1549.52 Q1239.97 1549.52 1236.89 1544.94 Q1233.83 1540.33 1233.83 1531.6 Q1233.83 1522.85 1236.89 1518.27 Q1239.97 1513.66 1245.78 1513.66 Z" fill="#000000" fill-rule="evenodd" fill-opacity="1" /><path clip-path="url(#clip060)" d="M1265.94 1542.97 L1270.82 1542.97 L1270.82 1548.85 L1265.94 1548.85 L1265.94 1542.97 Z" fill="#000000" fill-rule="evenodd" fill-opacity="1" /><path clip-path="url(#clip060)" d="M1291.59 1529.7 Q1288.44 1529.7 1286.59 1531.86 Q1284.76 1534.01 1284.76 1537.76 Q1284.76 1541.49 1286.59 1543.66 Q1288.44 1545.82 1291.59 1545.82 Q1294.73 1545.82 1296.56 1543.66 Q1298.42 1541.49 1298.42 1537.76 Q1298.42 1534.01 1296.56 1531.86 Q1294.73 1529.7 1291.59 1529.7 M1300.87 1515.05 L1300.87 1519.31 Q1299.11 1518.48 1297.3 1518.04 Q1295.52 1517.6 1293.76 1517.6 Q1289.13 1517.6 1286.68 1520.72 Q1284.25 1523.85 1283.9 1530.17 Q1285.27 1528.15 1287.33 1527.09 Q1289.39 1526 1291.86 1526 Q1297.07 1526 1300.08 1529.17 Q1303.11 1532.32 1303.11 1537.76 Q1303.11 1543.08 1299.97 1546.3 Q1296.82 1549.52 1291.59 1549.52 Q1285.59 1549.52 1282.42 1544.94 Q1279.25 1540.33 1279.25 1531.6 Q1279.25 1523.41 1283.14 1518.55 Q1287.03 1513.66 1293.58 1513.66 Q1295.34 1513.66 1297.12 1514.01 Q1298.92 1514.36 1300.87 1515.05 Z" fill="#000000" fill-rule="evenodd" fill-opacity="1" /><path clip-path="url(#clip060)" d="M1567.57 1517.37 Q1563.96 1517.37 1562.13 1520.93 Q1560.33 1524.47 1560.33 1531.6 Q1560.33 1538.71 1562.13 1542.27 Q1563.96 1545.82 1567.57 1545.82 Q1571.21 1545.82 1573.01 1542.27 Q1574.84 1538.71 1574.84 1531.6 Q1574.84 1524.47 1573.01 1520.93 Q1571.21 1517.37 1567.57 1517.37 M1567.57 1513.66 Q1573.38 1513.66 1576.44 1518.27 Q1579.52 1522.85 1579.52 1531.6 Q1579.52 1540.33 1576.44 1544.94 Q1573.38 1549.52 1567.57 1549.52 Q1561.76 1549.52 1558.68 1544.94 Q1555.63 1540.33 1555.63 1531.6 Q1555.63 1522.85 1558.68 1518.27 Q1561.76 1513.66 1567.57 1513.66 Z" fill="#000000" fill-rule="evenodd" fill-opacity="1" /><path clip-path="url(#clip060)" d="M1587.74 1542.97 L1592.62 1542.97 L1592.62 1548.85 L1587.74 1548.85 L1587.74 1542.97 Z" fill="#000000" fill-rule="evenodd" fill-opacity="1" /><path clip-path="url(#clip060)" d="M1612.8 1532.44 Q1609.47 1532.44 1607.55 1534.22 Q1605.65 1536 1605.65 1539.13 Q1605.65 1542.25 1607.55 1544.03 Q1609.47 1545.82 1612.8 1545.82 Q1616.14 1545.82 1618.06 1544.03 Q1619.98 1542.23 1619.98 1539.13 Q1619.98 1536 1618.06 1534.22 Q1616.16 1532.44 1612.8 1532.44 M1608.13 1530.45 Q1605.12 1529.7 1603.43 1527.64 Q1601.76 1525.58 1601.76 1522.62 Q1601.76 1518.48 1604.7 1516.07 Q1607.67 1513.66 1612.8 1513.66 Q1617.97 1513.66 1620.91 1516.07 Q1623.85 1518.48 1623.85 1522.62 Q1623.85 1525.58 1622.16 1527.64 Q1620.49 1529.7 1617.5 1530.45 Q1620.88 1531.23 1622.76 1533.52 Q1624.66 1535.82 1624.66 1539.13 Q1624.66 1544.15 1621.58 1546.83 Q1618.52 1549.52 1612.8 1549.52 Q1607.09 1549.52 1604.01 1546.83 Q1600.95 1544.15 1600.95 1539.13 Q1600.95 1535.82 1602.85 1533.52 Q1604.75 1531.23 1608.13 1530.45 M1606.42 1523.06 Q1606.42 1525.75 1608.08 1527.25 Q1609.77 1528.76 1612.8 1528.76 Q1615.81 1528.76 1617.5 1527.25 Q1619.22 1525.75 1619.22 1523.06 Q1619.22 1520.38 1617.5 1518.87 Q1615.81 1517.37 1612.8 1517.37 Q1609.77 1517.37 1608.08 1518.87 Q1606.42 1520.38 1606.42 1523.06 Z" fill="#000000" fill-rule="evenodd" fill-opacity="1" /><path clip-path="url(#clip060)" d="M1878.96 1544.91 L1886.6 1544.91 L1886.6 1518.55 L1878.29 1520.21 L1878.29 1515.95 L1886.56 1514.29 L1891.23 1514.29 L1891.23 1544.91 L1898.87 1544.91 L1898.87 1548.85 L1878.96 1548.85 L1878.96 1544.91 Z" fill="#000000" fill-rule="evenodd" fill-opacity="1" /><path clip-path="url(#clip060)" d="M1908.32 1542.97 L1913.2 1542.97 L1913.2 1548.85 L1908.32 1548.85 L1908.32 1542.97 Z" fill="#000000" fill-rule="evenodd" fill-opacity="1" /><path clip-path="url(#clip060)" d="M1933.39 1517.37 Q1929.77 1517.37 1927.95 1520.93 Q1926.14 1524.47 1926.14 1531.6 Q1926.14 1538.71 1927.95 1542.27 Q1929.77 1545.82 1933.39 1545.82 Q1937.02 1545.82 1938.83 1542.27 Q1940.65 1538.71 1940.65 1531.6 Q1940.65 1524.47 1938.83 1520.93 Q1937.02 1517.37 1933.39 1517.37 M1933.39 1513.66 Q1939.2 1513.66 1942.25 1518.27 Q1945.33 1522.85 1945.33 1531.6 Q1945.33 1540.33 1942.25 1544.94 Q1939.2 1549.52 1933.39 1549.52 Q1927.58 1549.52 1924.5 1544.94 Q1921.44 1540.33 1921.44 1531.6 Q1921.44 1522.85 1924.5 1518.27 Q1927.58 1513.66 1933.39 1513.66 Z" fill="#000000" fill-rule="evenodd" fill-opacity="1" /><path clip-path="url(#clip060)" d="M2201.43 1544.91 L2209.07 1544.91 L2209.07 1518.55 L2200.76 1520.21 L2200.76 1515.95 L2209.03 1514.29 L2213.7 1514.29 L2213.7 1544.91 L2221.34 1544.91 L2221.34 1548.85 L2201.43 1548.85 L2201.43 1544.91 Z" fill="#000000" fill-rule="evenodd" fill-opacity="1" /><path clip-path="url(#clip060)" d="M2230.78 1542.97 L2235.67 1542.97 L2235.67 1548.85 L2230.78 1548.85 L2230.78 1542.97 Z" fill="#000000" fill-rule="evenodd" fill-opacity="1" /><path clip-path="url(#clip060)" d="M2249.88 1544.91 L2266.2 1544.91 L2266.2 1548.85 L2244.26 1548.85 L2244.26 1544.91 Q2246.92 1542.16 2251.5 1537.53 Q2256.11 1532.88 2257.29 1531.53 Q2259.53 1529.01 2260.41 1527.27 Q2261.32 1525.51 2261.32 1523.82 Q2261.32 1521.07 2259.37 1519.33 Q2257.45 1517.6 2254.35 1517.6 Q2252.15 1517.6 2249.7 1518.36 Q2247.27 1519.13 2244.49 1520.68 L2244.49 1515.95 Q2247.31 1514.82 2249.77 1514.24 Q2252.22 1513.66 2254.26 1513.66 Q2259.63 1513.66 2262.82 1516.35 Q2266.02 1519.03 2266.02 1523.52 Q2266.02 1525.65 2265.21 1527.57 Q2264.42 1529.47 2262.31 1532.07 Q2261.73 1532.74 2258.63 1535.95 Q2255.53 1539.15 2249.88 1544.91 Z" fill="#000000" fill-rule="evenodd" fill-opacity="1" /><polyline clip-path="url(#clip062)" style="stroke:#000000; stroke-linecap:butt; stroke-linejoin:round; stroke-width:2; stroke-opacity:0.1; fill:none" points="
  184.191,1449.58 2352.76,1449.58 
  "/>
<polyline clip-path="url(#clip062)" style="stroke:#000000; stroke-linecap:butt; stroke-linejoin:round; stroke-width:2; stroke-opacity:0.1; fill:none" points="
  184.191,1170.32 2352.76,1170.32 
  "/>
<polyline clip-path="url(#clip062)" style="stroke:#000000; stroke-linecap:butt; stroke-linejoin:round; stroke-width:2; stroke-opacity:0.1; fill:none" points="
  184.191,891.053 2352.76,891.053 
  "/>
<polyline clip-path="url(#clip062)" style="stroke:#000000; stroke-linecap:butt; stroke-linejoin:round; stroke-width:2; stroke-opacity:0.1; fill:none" points="
  184.191,611.787 2352.76,611.787 
  "/>
<polyline clip-path="url(#clip062)" style="stroke:#000000; stroke-linecap:butt; stroke-linejoin:round; stroke-width:2; stroke-opacity:0.1; fill:none" points="
  184.191,332.522 2352.76,332.522 
  "/>
<polyline clip-path="url(#clip060)" style="stroke:#000000; stroke-linecap:butt; stroke-linejoin:round; stroke-width:4; stroke-opacity:1; fill:none" points="
  184.191,1486.45 184.191,183.952 
  "/>
<polyline clip-path="url(#clip060)" style="stroke:#000000; stroke-linecap:butt; stroke-linejoin:round; stroke-width:4; stroke-opacity:1; fill:none" points="
  184.191,1449.58 203.088,1449.58 
  "/>
<polyline clip-path="url(#clip060)" style="stroke:#000000; stroke-linecap:butt; stroke-linejoin:round; stroke-width:4; stroke-opacity:1; fill:none" points="
  184.191,1170.32 203.088,1170.32 
  "/>
<polyline clip-path="url(#clip060)" style="stroke:#000000; stroke-linecap:butt; stroke-linejoin:round; stroke-width:4; stroke-opacity:1; fill:none" points="
  184.191,891.053 203.088,891.053 
  "/>
<polyline clip-path="url(#clip060)" style="stroke:#000000; stroke-linecap:butt; stroke-linejoin:round; stroke-width:4; stroke-opacity:1; fill:none" points="
  184.191,611.787 203.088,611.787 
  "/>
<polyline clip-path="url(#clip060)" style="stroke:#000000; stroke-linecap:butt; stroke-linejoin:round; stroke-width:4; stroke-opacity:1; fill:none" points="
  184.191,332.522 203.088,332.522 
  "/>
<path clip-path="url(#clip060)" d="M91.0151 1435.38 Q87.404 1435.38 85.5753 1438.95 Q83.7697 1442.49 83.7697 1449.62 Q83.7697 1456.73 85.5753 1460.29 Q87.404 1463.83 91.0151 1463.83 Q94.6493 1463.83 96.4548 1460.29 Q98.2835 1456.73 98.2835 1449.62 Q98.2835 1442.49 96.4548 1438.95 Q94.6493 1435.38 91.0151 1435.38 M91.0151 1431.68 Q96.8252 1431.68 99.8808 1436.29 Q102.959 1440.87 102.959 1449.62 Q102.959 1458.35 99.8808 1462.95 Q96.8252 1467.54 91.0151 1467.54 Q85.2049 1467.54 82.1262 1462.95 Q79.0707 1458.35 79.0707 1449.62 Q79.0707 1440.87 82.1262 1436.29 Q85.2049 1431.68 91.0151 1431.68 Z" fill="#000000" fill-rule="evenodd" fill-opacity="1" /><path clip-path="url(#clip060)" d="M111.177 1460.99 L116.061 1460.99 L116.061 1466.86 L111.177 1466.86 L111.177 1460.99 Z" fill="#000000" fill-rule="evenodd" fill-opacity="1" /><path clip-path="url(#clip060)" d="M136.246 1435.38 Q132.635 1435.38 130.807 1438.95 Q129.001 1442.49 129.001 1449.62 Q129.001 1456.73 130.807 1460.29 Q132.635 1463.83 136.246 1463.83 Q139.881 1463.83 141.686 1460.29 Q143.515 1456.73 143.515 1449.62 Q143.515 1442.49 141.686 1438.95 Q139.881 1435.38 136.246 1435.38 M136.246 1431.68 Q142.056 1431.68 145.112 1436.29 Q148.191 1440.87 148.191 1449.62 Q148.191 1458.35 145.112 1462.95 Q142.056 1467.54 136.246 1467.54 Q130.436 1467.54 127.357 1462.95 Q124.302 1458.35 124.302 1449.62 Q124.302 1440.87 127.357 1436.29 Q130.436 1431.68 136.246 1431.68 Z" fill="#000000" fill-rule="evenodd" fill-opacity="1" /><path clip-path="url(#clip060)" d="M86.0382 1183.66 L102.358 1183.66 L102.358 1187.6 L80.4133 1187.6 L80.4133 1183.66 Q83.0753 1180.91 87.6586 1176.28 Q92.2651 1171.63 93.4456 1170.28 Q95.691 1167.76 96.5706 1166.03 Q97.4734 1164.27 97.4734 1162.58 Q97.4734 1159.82 95.5289 1158.09 Q93.6076 1156.35 90.5058 1156.35 Q88.3067 1156.35 85.8531 1157.11 Q83.4225 1157.88 80.6447 1159.43 L80.6447 1154.71 Q83.4688 1153.57 85.9225 1152.99 Q88.3762 1152.41 90.4132 1152.41 Q95.7836 1152.41 98.978 1155.1 Q102.172 1157.78 102.172 1162.28 Q102.172 1164.4 101.362 1166.33 Q100.575 1168.22 98.4687 1170.82 Q97.89 1171.49 94.7882 1174.71 Q91.6864 1177.9 86.0382 1183.66 Z" fill="#000000" fill-rule="evenodd" fill-opacity="1" /><path clip-path="url(#clip060)" d="M112.172 1181.72 L117.057 1181.72 L117.057 1187.6 L112.172 1187.6 L112.172 1181.72 Z" fill="#000000" fill-rule="evenodd" fill-opacity="1" /><path clip-path="url(#clip060)" d="M127.288 1153.04 L145.644 1153.04 L145.644 1156.97 L131.57 1156.97 L131.57 1165.45 Q132.589 1165.1 133.607 1164.94 Q134.626 1164.75 135.644 1164.75 Q141.431 1164.75 144.811 1167.92 Q148.191 1171.09 148.191 1176.51 Q148.191 1182.09 144.718 1185.19 Q141.246 1188.27 134.927 1188.27 Q132.751 1188.27 130.482 1187.9 Q128.237 1187.53 125.83 1186.79 L125.83 1182.09 Q127.913 1183.22 130.135 1183.78 Q132.357 1184.34 134.834 1184.34 Q138.839 1184.34 141.177 1182.23 Q143.515 1180.12 143.515 1176.51 Q143.515 1172.9 141.177 1170.79 Q138.839 1168.69 134.834 1168.69 Q132.959 1168.69 131.084 1169.1 Q129.232 1169.52 127.288 1170.4 L127.288 1153.04 Z" fill="#000000" fill-rule="evenodd" fill-opacity="1" /><path clip-path="url(#clip060)" d="M81.0614 873.773 L99.4178 873.773 L99.4178 877.708 L85.3438 877.708 L85.3438 886.181 Q86.3623 885.833 87.3808 885.671 Q88.3993 885.486 89.4178 885.486 Q95.2049 885.486 98.5845 888.657 Q101.964 891.829 101.964 897.245 Q101.964 902.824 98.4919 905.926 Q95.0197 909.004 88.7003 909.004 Q86.5243 909.004 84.2558 908.634 Q82.0105 908.264 79.6031 907.523 L79.6031 902.824 Q81.6864 903.958 83.9086 904.514 Q86.1308 905.069 88.6077 905.069 Q92.6123 905.069 94.9502 902.963 Q97.2882 900.856 97.2882 897.245 Q97.2882 893.634 94.9502 891.528 Q92.6123 889.421 88.6077 889.421 Q86.7327 889.421 84.8577 889.838 Q83.0058 890.255 81.0614 891.134 L81.0614 873.773 Z" fill="#000000" fill-rule="evenodd" fill-opacity="1" /><path clip-path="url(#clip060)" d="M111.177 902.454 L116.061 902.454 L116.061 908.333 L111.177 908.333 L111.177 902.454 Z" fill="#000000" fill-rule="evenodd" fill-opacity="1" /><path clip-path="url(#clip060)" d="M136.246 876.852 Q132.635 876.852 130.807 880.417 Q129.001 883.958 129.001 891.088 Q129.001 898.194 130.807 901.759 Q132.635 905.301 136.246 905.301 Q139.881 905.301 141.686 901.759 Q143.515 898.194 143.515 891.088 Q143.515 883.958 141.686 880.417 Q139.881 876.852 136.246 876.852 M136.246 873.148 Q142.056 873.148 145.112 877.755 Q148.191 882.338 148.191 891.088 Q148.191 899.815 145.112 904.421 Q142.056 909.004 136.246 909.004 Q130.436 909.004 127.357 904.421 Q124.302 899.815 124.302 891.088 Q124.302 882.338 127.357 877.755 Q130.436 873.148 136.246 873.148 Z" fill="#000000" fill-rule="evenodd" fill-opacity="1" /><path clip-path="url(#clip060)" d="M80.8299 594.507 L103.052 594.507 L103.052 596.498 L90.5058 629.067 L85.6216 629.067 L97.4271 598.443 L80.8299 598.443 L80.8299 594.507 Z" fill="#000000" fill-rule="evenodd" fill-opacity="1" /><path clip-path="url(#clip060)" d="M112.172 623.188 L117.057 623.188 L117.057 629.067 L112.172 629.067 L112.172 623.188 Z" fill="#000000" fill-rule="evenodd" fill-opacity="1" /><path clip-path="url(#clip060)" d="M127.288 594.507 L145.644 594.507 L145.644 598.443 L131.57 598.443 L131.57 606.915 Q132.589 606.567 133.607 606.405 Q134.626 606.22 135.644 606.22 Q141.431 606.22 144.811 609.392 Q148.191 612.563 148.191 617.979 Q148.191 623.558 144.718 626.66 Q141.246 629.739 134.927 629.739 Q132.751 629.739 130.482 629.368 Q128.237 628.998 125.83 628.257 L125.83 623.558 Q127.913 624.692 130.135 625.248 Q132.357 625.803 134.834 625.803 Q138.839 625.803 141.177 623.697 Q143.515 621.591 143.515 617.979 Q143.515 614.368 141.177 612.262 Q138.839 610.155 134.834 610.155 Q132.959 610.155 131.084 610.572 Q129.232 610.989 127.288 611.868 L127.288 594.507 Z" fill="#000000" fill-rule="evenodd" fill-opacity="1" /><path clip-path="url(#clip060)" d="M51.6634 345.866 L59.3023 345.866 L59.3023 319.501 L50.9921 321.167 L50.9921 316.908 L59.256 315.242 L63.9319 315.242 L63.9319 345.866 L71.5707 345.866 L71.5707 349.802 L51.6634 349.802 L51.6634 345.866 Z" fill="#000000" fill-rule="evenodd" fill-opacity="1" /><path clip-path="url(#clip060)" d="M91.0151 318.32 Q87.404 318.32 85.5753 321.885 Q83.7697 325.427 83.7697 332.556 Q83.7697 339.663 85.5753 343.227 Q87.404 346.769 91.0151 346.769 Q94.6493 346.769 96.4548 343.227 Q98.2835 339.663 98.2835 332.556 Q98.2835 325.427 96.4548 321.885 Q94.6493 318.32 91.0151 318.32 M91.0151 314.617 Q96.8252 314.617 99.8808 319.223 Q102.959 323.806 102.959 332.556 Q102.959 341.283 99.8808 345.89 Q96.8252 350.473 91.0151 350.473 Q85.2049 350.473 82.1262 345.89 Q79.0707 341.283 79.0707 332.556 Q79.0707 323.806 82.1262 319.223 Q85.2049 314.617 91.0151 314.617 Z" fill="#000000" fill-rule="evenodd" fill-opacity="1" /><path clip-path="url(#clip060)" d="M111.177 343.922 L116.061 343.922 L116.061 349.802 L111.177 349.802 L111.177 343.922 Z" fill="#000000" fill-rule="evenodd" fill-opacity="1" /><path clip-path="url(#clip060)" d="M136.246 318.32 Q132.635 318.32 130.807 321.885 Q129.001 325.427 129.001 332.556 Q129.001 339.663 130.807 343.227 Q132.635 346.769 136.246 346.769 Q139.881 346.769 141.686 343.227 Q143.515 339.663 143.515 332.556 Q143.515 325.427 141.686 321.885 Q139.881 318.32 136.246 318.32 M136.246 314.617 Q142.056 314.617 145.112 319.223 Q148.191 323.806 148.191 332.556 Q148.191 341.283 145.112 345.89 Q142.056 350.473 136.246 350.473 Q130.436 350.473 127.357 345.89 Q124.302 341.283 124.302 332.556 Q124.302 323.806 127.357 319.223 Q130.436 314.617 136.246 314.617 Z" fill="#000000" fill-rule="evenodd" fill-opacity="1" /><path clip-path="url(#clip060)" d="M721.905 39.9885 L721.905 87.0195 L731.789 87.0195 Q744.307 87.0195 750.099 81.3482 Q755.933 75.677 755.933 63.4432 Q755.933 51.2905 750.099 45.6598 Q744.307 39.9885 731.789 39.9885 L721.905 39.9885 M713.722 33.264 L730.533 33.264 Q748.114 33.264 756.338 40.5961 Q764.561 47.8878 764.561 63.4432 Q764.561 79.0797 756.297 86.4119 Q748.033 93.744 730.533 93.744 L713.722 93.744 L713.722 33.264 Z" fill="#000000" fill-rule="evenodd" fill-opacity="1" /><path clip-path="url(#clip060)" d="M777.281 48.3739 L784.735 48.3739 L784.735 93.744 L777.281 93.744 L777.281 48.3739 M777.281 30.7119 L784.735 30.7119 L784.735 40.1505 L777.281 40.1505 L777.281 30.7119 Z" fill="#000000" fill-rule="evenodd" fill-opacity="1" /><path clip-path="url(#clip060)" d="M829.254 49.7107 L829.254 56.7592 Q826.094 55.1389 822.692 54.3287 Q819.289 53.5185 815.643 53.5185 Q810.093 53.5185 807.298 55.2199 Q804.543 56.9213 804.543 60.324 Q804.543 62.9166 806.528 64.4155 Q808.513 65.8738 814.509 67.2106 L817.061 67.7777 Q825.001 69.4791 828.322 72.5983 Q831.685 75.677 831.685 81.2267 Q831.685 87.5461 826.661 91.2324 Q821.679 94.9188 812.929 94.9188 Q809.283 94.9188 805.313 94.1896 Q801.384 93.5009 797.009 92.0831 L797.009 84.3864 Q801.141 86.5334 805.151 87.6271 Q809.162 88.6804 813.091 88.6804 Q818.357 88.6804 821.193 86.898 Q824.028 85.0751 824.028 81.7938 Q824.028 78.7557 821.962 77.1353 Q819.937 75.5149 813.01 74.0161 L810.417 73.4085 Q803.49 71.9501 800.412 68.9525 Q797.333 65.9143 797.333 60.6481 Q797.333 54.2477 801.87 50.7639 Q806.407 47.2801 814.752 47.2801 Q818.884 47.2801 822.53 47.8878 Q826.175 48.4954 829.254 49.7107 Z" fill="#000000" fill-rule="evenodd" fill-opacity="1" /><path clip-path="url(#clip060)" d="M850.926 35.492 L850.926 48.3739 L866.279 48.3739 L866.279 54.1667 L850.926 54.1667 L850.926 78.7962 Q850.926 84.3459 852.425 85.9258 Q853.965 87.5056 858.623 87.5056 L866.279 87.5056 L866.279 93.744 L858.623 93.744 Q849.995 93.744 846.713 90.5438 Q843.432 87.3031 843.432 78.7962 L843.432 54.1667 L837.963 54.1667 L837.963 48.3739 L843.432 48.3739 L843.432 35.492 L850.926 35.492 Z" fill="#000000" fill-rule="evenodd" fill-opacity="1" /><path clip-path="url(#clip060)" d="M902.373 55.3414 Q901.117 54.6123 899.618 54.2882 Q898.16 53.9236 896.377 53.9236 Q890.058 53.9236 886.655 58.0555 Q883.293 62.1469 883.293 69.8437 L883.293 93.744 L875.799 93.744 L875.799 48.3739 L883.293 48.3739 L883.293 55.4224 Q885.643 51.2905 889.41 49.3056 Q893.177 47.2801 898.565 47.2801 Q899.335 47.2801 900.266 47.4017 Q901.198 47.4827 902.332 47.6852 L902.373 55.3414 Z" fill="#000000" fill-rule="evenodd" fill-opacity="1" /><path clip-path="url(#clip060)" d="M910.191 48.3739 L917.645 48.3739 L917.645 93.744 L910.191 93.744 L910.191 48.3739 M910.191 30.7119 L917.645 30.7119 L917.645 40.1505 L910.191 40.1505 L910.191 30.7119 Z" fill="#000000" fill-rule="evenodd" fill-opacity="1" /><path clip-path="url(#clip060)" d="M965.81 71.0994 Q965.81 62.8761 962.407 58.2176 Q959.045 53.5185 953.131 53.5185 Q947.216 53.5185 943.814 58.2176 Q940.451 62.8761 940.451 71.0994 Q940.451 79.3228 943.814 84.0218 Q947.216 88.6804 953.131 88.6804 Q959.045 88.6804 962.407 84.0218 Q965.81 79.3228 965.81 71.0994 M940.451 55.2604 Q942.801 51.2095 946.366 49.2651 Q949.971 47.2801 954.954 47.2801 Q963.217 47.2801 968.362 53.8426 Q973.547 60.4051 973.547 71.0994 Q973.547 81.7938 968.362 88.3563 Q963.217 94.9188 954.954 94.9188 Q949.971 94.9188 946.366 92.9743 Q942.801 90.9894 940.451 86.9385 L940.451 93.744 L932.957 93.744 L932.957 30.7119 L940.451 30.7119 L940.451 55.2604 Z" fill="#000000" fill-rule="evenodd" fill-opacity="1" /><path clip-path="url(#clip060)" d="M985.133 75.839 L985.133 48.3739 L992.586 48.3739 L992.586 75.5554 Q992.586 81.9964 995.098 85.2371 Q997.61 88.4373 1002.63 88.4373 Q1008.67 88.4373 1012.15 84.589 Q1015.68 80.7406 1015.68 74.0971 L1015.68 48.3739 L1023.13 48.3739 L1023.13 93.744 L1015.68 93.744 L1015.68 86.7764 Q1012.96 90.9084 1009.36 92.9338 Q1005.79 94.9188 1001.05 94.9188 Q993.235 94.9188 989.184 90.0577 Q985.133 85.1966 985.133 75.839 M1003.89 47.2801 L1003.89 47.2801 Z" fill="#000000" fill-rule="evenodd" fill-opacity="1" /><path clip-path="url(#clip060)" d="M1045.86 35.492 L1045.86 48.3739 L1061.21 48.3739 L1061.21 54.1667 L1045.86 54.1667 L1045.86 78.7962 Q1045.86 84.3459 1047.35 85.9258 Q1048.89 87.5056 1053.55 87.5056 L1061.21 87.5056 L1061.21 93.744 L1053.55 93.744 Q1044.92 93.744 1041.64 90.5438 Q1038.36 87.3031 1038.36 78.7962 L1038.36 54.1667 L1032.89 54.1667 L1032.89 48.3739 L1038.36 48.3739 L1038.36 35.492 L1045.86 35.492 Z" fill="#000000" fill-rule="evenodd" fill-opacity="1" /><path clip-path="url(#clip060)" d="M1071.01 48.3739 L1078.47 48.3739 L1078.47 93.744 L1071.01 93.744 L1071.01 48.3739 M1071.01 30.7119 L1078.47 30.7119 L1078.47 40.1505 L1071.01 40.1505 L1071.01 30.7119 Z" fill="#000000" fill-rule="evenodd" fill-opacity="1" /><path clip-path="url(#clip060)" d="M1111.64 53.5995 Q1105.65 53.5995 1102.16 58.2986 Q1098.68 62.9571 1098.68 71.0994 Q1098.68 79.2418 1102.12 83.9408 Q1105.61 88.5994 1111.64 88.5994 Q1117.6 88.5994 1121.08 83.9003 Q1124.56 79.2013 1124.56 71.0994 Q1124.56 63.0381 1121.08 58.3391 Q1117.6 53.5995 1111.64 53.5995 M1111.64 47.2801 Q1121.36 47.2801 1126.91 53.5995 Q1132.46 59.9189 1132.46 71.0994 Q1132.46 82.2394 1126.91 88.5994 Q1121.36 94.9188 1111.64 94.9188 Q1101.88 94.9188 1096.33 88.5994 Q1090.82 82.2394 1090.82 71.0994 Q1090.82 59.9189 1096.33 53.5995 Q1101.88 47.2801 1111.64 47.2801 Z" fill="#000000" fill-rule="evenodd" fill-opacity="1" /><path clip-path="url(#clip060)" d="M1182.53 66.3599 L1182.53 93.744 L1175.08 93.744 L1175.08 66.6029 Q1175.08 60.162 1172.57 56.9618 Q1170.06 53.7616 1165.03 53.7616 Q1159 53.7616 1155.51 57.6099 Q1152.03 61.4583 1152.03 68.1018 L1152.03 93.744 L1144.54 93.744 L1144.54 48.3739 L1152.03 48.3739 L1152.03 55.4224 Q1154.7 51.331 1158.31 49.3056 Q1161.95 47.2801 1166.69 47.2801 Q1174.51 47.2801 1178.52 52.1412 Q1182.53 56.9618 1182.53 66.3599 Z" fill="#000000" fill-rule="evenodd" fill-opacity="1" /><path clip-path="url(#clip060)" d="M1241.35 53.5995 Q1235.36 53.5995 1231.87 58.2986 Q1228.39 62.9571 1228.39 71.0994 Q1228.39 79.2418 1231.83 83.9408 Q1235.32 88.5994 1241.35 88.5994 Q1247.31 88.5994 1250.79 83.9003 Q1254.27 79.2013 1254.27 71.0994 Q1254.27 63.0381 1250.79 58.3391 Q1247.31 53.5995 1241.35 53.5995 M1241.35 47.2801 Q1251.07 47.2801 1256.62 53.5995 Q1262.17 59.9189 1262.17 71.0994 Q1262.17 82.2394 1256.62 88.5994 Q1251.07 94.9188 1241.35 94.9188 Q1231.59 94.9188 1226.04 88.5994 Q1220.53 82.2394 1220.53 71.0994 Q1220.53 59.9189 1226.04 53.5995 Q1231.59 47.2801 1241.35 47.2801 Z" fill="#000000" fill-rule="evenodd" fill-opacity="1" /><path clip-path="url(#clip060)" d="M1297.5 30.7119 L1297.5 36.9098 L1290.37 36.9098 Q1286.36 36.9098 1284.78 38.5302 Q1283.24 40.1505 1283.24 44.3635 L1283.24 48.3739 L1295.51 48.3739 L1295.51 54.1667 L1283.24 54.1667 L1283.24 93.744 L1275.74 93.744 L1275.74 54.1667 L1268.62 54.1667 L1268.62 48.3739 L1275.74 48.3739 L1275.74 45.2142 Q1275.74 37.639 1279.27 34.1957 Q1282.79 30.7119 1290.45 30.7119 L1297.5 30.7119 Z" fill="#000000" fill-rule="evenodd" fill-opacity="1" /><path clip-path="url(#clip060)" d="M1371.67 85.1156 L1371.67 68.8714 L1358.3 68.8714 L1358.3 62.1469 L1379.77 62.1469 L1379.77 88.1132 Q1375.03 91.4755 1369.32 93.2174 Q1363.61 94.9188 1357.13 94.9188 Q1342.95 94.9188 1334.93 86.6549 Q1326.95 78.3506 1326.95 63.5648 Q1326.95 48.7385 1334.93 40.4746 Q1342.95 32.1703 1357.13 32.1703 Q1363.04 32.1703 1368.35 33.6286 Q1373.7 35.0869 1378.19 37.9225 L1378.19 46.632 Q1373.66 42.7836 1368.55 40.8392 Q1363.45 38.8948 1357.82 38.8948 Q1346.72 38.8948 1341.13 45.0926 Q1335.58 51.2905 1335.58 63.5648 Q1335.58 75.7985 1341.13 81.9964 Q1346.72 88.1943 1357.82 88.1943 Q1362.15 88.1943 1365.55 87.4651 Q1368.96 86.6954 1371.67 85.1156 Z" fill="#000000" fill-rule="evenodd" fill-opacity="1" /><path clip-path="url(#clip060)" d="M1393.63 75.839 L1393.63 48.3739 L1401.08 48.3739 L1401.08 75.5554 Q1401.08 81.9964 1403.59 85.2371 Q1406.1 88.4373 1411.13 88.4373 Q1417.16 88.4373 1420.65 84.589 Q1424.17 80.7406 1424.17 74.0971 L1424.17 48.3739 L1431.62 48.3739 L1431.62 93.744 L1424.17 93.744 L1424.17 86.7764 Q1421.46 90.9084 1417.85 92.9338 Q1414.29 94.9188 1409.55 94.9188 Q1401.73 94.9188 1397.68 90.0577 Q1393.63 85.1966 1393.63 75.839 M1412.38 47.2801 L1412.38 47.2801 Z" fill="#000000" fill-rule="evenodd" fill-opacity="1" /><path clip-path="url(#clip060)" d="M1484.69 66.3599 L1484.69 93.744 L1477.24 93.744 L1477.24 66.6029 Q1477.24 60.162 1474.73 56.9618 Q1472.21 53.7616 1467.19 53.7616 Q1461.15 53.7616 1457.67 57.6099 Q1454.19 61.4583 1454.19 68.1018 L1454.19 93.744 L1446.69 93.744 L1446.69 48.3739 L1454.19 48.3739 L1454.19 55.4224 Q1456.86 51.331 1460.47 49.3056 Q1464.11 47.2801 1468.85 47.2801 Q1476.67 47.2801 1480.68 52.1412 Q1484.69 56.9618 1484.69 66.3599 Z" fill="#000000" fill-rule="evenodd" fill-opacity="1" /><path clip-path="url(#clip060)" d="M1528.48 49.7107 L1528.48 56.7592 Q1525.32 55.1389 1521.92 54.3287 Q1518.52 53.5185 1514.87 53.5185 Q1509.32 53.5185 1506.52 55.2199 Q1503.77 56.9213 1503.77 60.324 Q1503.77 62.9166 1505.76 64.4155 Q1507.74 65.8738 1513.74 67.2106 L1516.29 67.7777 Q1524.23 69.4791 1527.55 72.5983 Q1530.91 75.677 1530.91 81.2267 Q1530.91 87.5461 1525.89 91.2324 Q1520.91 94.9188 1512.16 94.9188 Q1508.51 94.9188 1504.54 94.1896 Q1500.61 93.5009 1496.24 92.0831 L1496.24 84.3864 Q1500.37 86.5334 1504.38 87.6271 Q1508.39 88.6804 1512.32 88.6804 Q1517.58 88.6804 1520.42 86.898 Q1523.25 85.0751 1523.25 81.7938 Q1523.25 78.7557 1521.19 77.1353 Q1519.16 75.5149 1512.24 74.0161 L1509.64 73.4085 Q1502.72 71.9501 1499.64 68.9525 Q1496.56 65.9143 1496.56 60.6481 Q1496.56 54.2477 1501.1 50.7639 Q1505.63 47.2801 1513.98 47.2801 Q1518.11 47.2801 1521.76 47.8878 Q1525.4 48.4954 1528.48 49.7107 Z" fill="#000000" fill-rule="evenodd" fill-opacity="1" /><path clip-path="url(#clip060)" d="M1556.03 33.264 L1562.91 33.264 L1541.85 101.441 L1534.96 101.441 L1556.03 33.264 Z" fill="#000000" fill-rule="evenodd" fill-opacity="1" /><path clip-path="url(#clip060)" d="M1616.34 37.9225 L1616.34 46.551 Q1612.21 42.7026 1607.51 40.7987 Q1602.86 38.8948 1597.59 38.8948 Q1587.22 38.8948 1581.71 45.2547 Q1576.2 51.5741 1576.2 63.5648 Q1576.2 75.5149 1581.71 81.8749 Q1587.22 88.1943 1597.59 88.1943 Q1602.86 88.1943 1607.51 86.2903 Q1612.21 84.3864 1616.34 80.5381 L1616.34 89.0855 Q1612.05 92.0021 1607.23 93.4604 Q1602.45 94.9188 1597.1 94.9188 Q1583.37 94.9188 1575.47 86.5334 Q1567.57 78.1075 1567.57 63.5648 Q1567.57 48.9815 1575.47 40.5961 Q1583.37 32.1703 1597.1 32.1703 Q1602.53 32.1703 1607.31 33.6286 Q1612.13 35.0464 1616.34 37.9225 Z" fill="#000000" fill-rule="evenodd" fill-opacity="1" /><path clip-path="url(#clip060)" d="M1649.28 70.9374 Q1640.25 70.9374 1636.76 73.0034 Q1633.28 75.0693 1633.28 80.0519 Q1633.28 84.0218 1635.87 86.3714 Q1638.5 88.6804 1643 88.6804 Q1649.2 88.6804 1652.92 84.3054 Q1656.69 79.8899 1656.69 72.5983 L1656.69 70.9374 L1649.28 70.9374 M1664.15 67.8587 L1664.15 93.744 L1656.69 93.744 L1656.69 86.8575 Q1654.14 90.9894 1650.33 92.9743 Q1646.52 94.9188 1641.01 94.9188 Q1634.05 94.9188 1629.92 91.0299 Q1625.82 87.1005 1625.82 80.5381 Q1625.82 72.8818 1630.93 68.993 Q1636.07 65.1041 1646.24 65.1041 L1656.69 65.1041 L1656.69 64.3749 Q1656.69 59.2303 1653.29 56.4352 Q1649.93 53.5995 1643.81 53.5995 Q1639.92 53.5995 1636.23 54.5312 Q1632.55 55.463 1629.15 57.3264 L1629.15 50.4398 Q1633.24 48.86 1637.09 48.0903 Q1640.93 47.2801 1644.58 47.2801 Q1654.42 47.2801 1659.28 52.3843 Q1664.15 57.4884 1664.15 67.8587 Z" fill="#000000" fill-rule="evenodd" fill-opacity="1" /><path clip-path="url(#clip060)" d="M1686.71 86.9385 L1686.71 111.001 L1679.21 111.001 L1679.21 48.3739 L1686.71 48.3739 L1686.71 55.2604 Q1689.06 51.2095 1692.62 49.2651 Q1696.23 47.2801 1701.21 47.2801 Q1709.47 47.2801 1714.62 53.8426 Q1719.8 60.4051 1719.8 71.0994 Q1719.8 81.7938 1714.62 88.3563 Q1709.47 94.9188 1701.21 94.9188 Q1696.23 94.9188 1692.62 92.9743 Q1689.06 90.9894 1686.71 86.9385 M1712.07 71.0994 Q1712.07 62.8761 1708.66 58.2176 Q1705.3 53.5185 1699.39 53.5185 Q1693.47 53.5185 1690.07 58.2176 Q1686.71 62.8761 1686.71 71.0994 Q1686.71 79.3228 1690.07 84.0218 Q1693.47 88.6804 1699.39 88.6804 Q1705.3 88.6804 1708.66 84.0218 Q1712.07 79.3228 1712.07 71.0994 Z" fill="#000000" fill-rule="evenodd" fill-opacity="1" /><path clip-path="url(#clip060)" d="M1732.16 48.3739 L1739.61 48.3739 L1739.61 93.744 L1732.16 93.744 L1732.16 48.3739 M1732.16 30.7119 L1739.61 30.7119 L1739.61 40.1505 L1732.16 40.1505 L1732.16 30.7119 Z" fill="#000000" fill-rule="evenodd" fill-opacity="1" /><path clip-path="url(#clip060)" d="M1762.58 35.492 L1762.58 48.3739 L1777.94 48.3739 L1777.94 54.1667 L1762.58 54.1667 L1762.58 78.7962 Q1762.58 84.3459 1764.08 85.9258 Q1765.62 87.5056 1770.28 87.5056 L1777.94 87.5056 L1777.94 93.744 L1770.28 93.744 Q1761.65 93.744 1758.37 90.5438 Q1755.09 87.3031 1755.09 78.7962 L1755.09 54.1667 L1749.62 54.1667 L1749.62 48.3739 L1755.09 48.3739 L1755.09 35.492 L1762.58 35.492 Z" fill="#000000" fill-rule="evenodd" fill-opacity="1" /><path clip-path="url(#clip060)" d="M1808.36 70.9374 Q1799.32 70.9374 1795.84 73.0034 Q1792.36 75.0693 1792.36 80.0519 Q1792.36 84.0218 1794.95 86.3714 Q1797.58 88.6804 1802.08 88.6804 Q1808.28 88.6804 1812 84.3054 Q1815.77 79.8899 1815.77 72.5983 L1815.77 70.9374 L1808.36 70.9374 M1823.22 67.8587 L1823.22 93.744 L1815.77 93.744 L1815.77 86.8575 Q1813.22 90.9894 1809.41 92.9743 Q1805.6 94.9188 1800.09 94.9188 Q1793.13 94.9188 1788.99 91.0299 Q1784.9 87.1005 1784.9 80.5381 Q1784.9 72.8818 1790.01 68.993 Q1795.15 65.1041 1805.32 65.1041 L1815.77 65.1041 L1815.77 64.3749 Q1815.77 59.2303 1812.37 56.4352 Q1809.01 53.5995 1802.89 53.5995 Q1799 53.5995 1795.31 54.5312 Q1791.63 55.463 1788.22 57.3264 L1788.22 50.4398 Q1792.32 48.86 1796.16 48.0903 Q1800.01 47.2801 1803.66 47.2801 Q1813.5 47.2801 1818.36 52.3843 Q1823.22 57.4884 1823.22 67.8587 Z" fill="#000000" fill-rule="evenodd" fill-opacity="1" /><path clip-path="url(#clip060)" d="M1156.26 121.513 Q1150.84 130.83 1148.2 139.945 Q1145.57 149.059 1145.57 158.417 Q1145.57 167.774 1148.2 176.97 Q1150.88 186.125 1156.26 195.401 L1149.78 195.401 Q1143.71 185.882 1140.67 176.686 Q1137.67 167.491 1137.67 158.417 Q1137.67 149.383 1140.67 140.228 Q1143.66 131.073 1149.78 121.513 L1156.26 121.513 Z" fill="#000000" fill-rule="evenodd" fill-opacity="1" /><path clip-path="url(#clip060)" d="M1178.83 177.577 L1207.39 177.577 L1207.39 184.464 L1168.98 184.464 L1168.98 177.577 Q1173.64 172.757 1181.66 164.655 Q1189.72 156.513 1191.79 154.163 Q1195.72 149.748 1197.26 146.71 Q1198.84 143.631 1198.84 140.674 Q1198.84 135.853 1195.44 132.815 Q1192.07 129.777 1186.65 129.777 Q1182.8 129.777 1178.5 131.114 Q1174.25 132.45 1169.39 135.164 L1169.39 126.901 Q1174.33 124.916 1178.62 123.903 Q1182.92 122.89 1186.48 122.89 Q1195.88 122.89 1201.47 127.589 Q1207.06 132.288 1207.06 140.147 Q1207.06 143.874 1205.64 147.236 Q1204.27 150.558 1200.58 155.095 Q1199.57 156.27 1194.14 161.9 Q1188.71 167.491 1178.83 177.577 Z" fill="#000000" fill-rule="evenodd" fill-opacity="1" /><path clip-path="url(#clip060)" d="M1242.06 129.372 Q1235.74 129.372 1232.54 135.61 Q1229.38 141.808 1229.38 154.285 Q1229.38 166.721 1232.54 172.959 Q1235.74 179.157 1242.06 179.157 Q1248.42 179.157 1251.58 172.959 Q1254.78 166.721 1254.78 154.285 Q1254.78 141.808 1251.58 135.61 Q1248.42 129.372 1242.06 129.372 M1242.06 122.89 Q1252.23 122.89 1257.58 130.952 Q1262.96 138.972 1262.96 154.285 Q1262.96 169.557 1257.58 177.618 Q1252.23 185.639 1242.06 185.639 Q1231.89 185.639 1226.51 177.618 Q1221.16 169.557 1221.16 154.285 Q1221.16 138.972 1226.51 130.952 Q1231.89 122.89 1242.06 122.89 Z" fill="#000000" fill-rule="evenodd" fill-opacity="1" /><path clip-path="url(#clip060)" d="M1278.76 177.577 L1292.13 177.577 L1292.13 131.438 L1277.59 134.354 L1277.59 126.901 L1292.05 123.984 L1300.23 123.984 L1300.23 177.577 L1313.6 177.577 L1313.6 184.464 L1278.76 184.464 L1278.76 177.577 Z" fill="#000000" fill-rule="evenodd" fill-opacity="1" /><path clip-path="url(#clip060)" d="M1330.37 183.208 L1330.37 175.755 Q1333.45 177.213 1336.61 177.983 Q1339.77 178.752 1342.81 178.752 Q1350.91 178.752 1355.16 173.324 Q1359.46 167.855 1360.06 156.756 Q1357.71 160.24 1354.11 162.103 Q1350.5 163.966 1346.13 163.966 Q1337.06 163.966 1331.75 158.498 Q1326.48 152.988 1326.48 143.469 Q1326.48 134.152 1331.99 128.521 Q1337.5 122.89 1346.66 122.89 Q1357.15 122.89 1362.66 130.952 Q1368.21 138.972 1368.21 154.285 Q1368.21 168.584 1361.4 177.132 Q1354.64 185.639 1343.17 185.639 Q1340.09 185.639 1336.93 185.031 Q1333.77 184.423 1330.37 183.208 M1346.66 157.566 Q1352.16 157.566 1355.37 153.799 Q1358.61 150.031 1358.61 143.469 Q1358.61 136.947 1355.37 133.18 Q1352.16 129.372 1346.66 129.372 Q1341.15 129.372 1337.91 133.18 Q1334.71 136.947 1334.71 143.469 Q1334.71 150.031 1337.91 153.799 Q1341.15 157.566 1346.66 157.566 Z" fill="#000000" fill-rule="evenodd" fill-opacity="1" /><path clip-path="url(#clip060)" d="M1380.68 121.513 L1387.16 121.513 Q1393.24 131.073 1396.24 140.228 Q1399.28 149.383 1399.28 158.417 Q1399.28 167.491 1396.24 176.686 Q1393.24 185.882 1387.16 195.401 L1380.68 195.401 Q1386.07 186.125 1388.7 176.97 Q1391.38 167.774 1391.38 158.417 Q1391.38 149.059 1388.7 139.945 Q1386.07 130.83 1380.68 121.513 Z" fill="#000000" fill-rule="evenodd" fill-opacity="1" /><path clip-path="url(#clip062)" d="
M303.466 332.522 L303.466 1449.58 L383.883 1449.58 L383.883 332.522 L303.466 332.522 L303.466 332.522  Z
  " fill="#009af9" fill-rule="evenodd" fill-opacity="1"/>
<polyline clip-path="url(#clip062)" style="stroke:#000000; stroke-linecap:butt; stroke-linejoin:round; stroke-width:4; stroke-opacity:1; fill:none" points="
  303.466,332.522 303.466,1449.58 383.883,1449.58 383.883,332.522 303.466,332.522 
  "/>
<path clip-path="url(#clip062)" d="
M383.883 220.815 L383.883 1449.58 L464.3 1449.58 L464.3 220.815 L383.883 220.815 L383.883 220.815  Z
  " fill="#009af9" fill-rule="evenodd" fill-opacity="1"/>
<polyline clip-path="url(#clip062)" style="stroke:#000000; stroke-linecap:butt; stroke-linejoin:round; stroke-width:4; stroke-opacity:1; fill:none" points="
  383.883,220.815 383.883,1449.58 464.3,1449.58 464.3,220.815 383.883,220.815 
  "/>
<path clip-path="url(#clip062)" d="
M464.3 220.815 L464.3 1449.58 L544.718 1449.58 L544.718 220.815 L464.3 220.815 L464.3 220.815  Z
  " fill="#009af9" fill-rule="evenodd" fill-opacity="1"/>
<polyline clip-path="url(#clip062)" style="stroke:#000000; stroke-linecap:butt; stroke-linejoin:round; stroke-width:4; stroke-opacity:1; fill:none" points="
  464.3,220.815 464.3,1449.58 544.718,1449.58 544.718,220.815 464.3,220.815 
  "/>
<path clip-path="url(#clip062)" d="
M544.718 891.053 L544.718 1449.58 L625.135 1449.58 L625.135 891.053 L544.718 891.053 L544.718 891.053  Z
  " fill="#009af9" fill-rule="evenodd" fill-opacity="1"/>
<polyline clip-path="url(#clip062)" style="stroke:#000000; stroke-linecap:butt; stroke-linejoin:round; stroke-width:4; stroke-opacity:1; fill:none" points="
  544.718,891.053 544.718,1449.58 625.135,1449.58 625.135,891.053 544.718,891.053 
  "/>
<path clip-path="url(#clip062)" d="
M625.135 1002.76 L625.135 1449.58 L705.552 1449.58 L705.552 1002.76 L625.135 1002.76 L625.135 1002.76  Z
  " fill="#009af9" fill-rule="evenodd" fill-opacity="1"/>
<polyline clip-path="url(#clip062)" style="stroke:#000000; stroke-linecap:butt; stroke-linejoin:round; stroke-width:4; stroke-opacity:1; fill:none" points="
  625.135,1002.76 625.135,1449.58 705.552,1449.58 705.552,1002.76 625.135,1002.76 
  "/>
<path clip-path="url(#clip062)" d="
M705.552 1226.17 L705.552 1449.58 L785.969 1449.58 L785.969 1226.17 L705.552 1226.17 L705.552 1226.17  Z
  " fill="#009af9" fill-rule="evenodd" fill-opacity="1"/>
<polyline clip-path="url(#clip062)" style="stroke:#000000; stroke-linecap:butt; stroke-linejoin:round; stroke-width:4; stroke-opacity:1; fill:none" points="
  705.552,1226.17 705.552,1449.58 785.969,1449.58 785.969,1226.17 705.552,1226.17 
  "/>
<path clip-path="url(#clip062)" d="
M785.969 1226.17 L785.969 1449.58 L866.387 1449.58 L866.387 1226.17 L785.969 1226.17 L785.969 1226.17  Z
  " fill="#009af9" fill-rule="evenodd" fill-opacity="1"/>
<polyline clip-path="url(#clip062)" style="stroke:#000000; stroke-linecap:butt; stroke-linejoin:round; stroke-width:4; stroke-opacity:1; fill:none" points="
  785.969,1226.17 785.969,1449.58 866.387,1449.58 866.387,1226.17 785.969,1226.17 
  "/>
<path clip-path="url(#clip062)" d="
M866.387 1337.88 L866.387 1449.58 L946.804 1449.58 L946.804 1337.88 L866.387 1337.88 L866.387 1337.88  Z
  " fill="#009af9" fill-rule="evenodd" fill-opacity="1"/>
<polyline clip-path="url(#clip062)" style="stroke:#000000; stroke-linecap:butt; stroke-linejoin:round; stroke-width:4; stroke-opacity:1; fill:none" points="
  866.387,1337.88 866.387,1449.58 946.804,1449.58 946.804,1337.88 866.387,1337.88 
  "/>
<path clip-path="url(#clip062)" d="
M946.804 1449.58 L946.804 1449.58 L1027.22 1449.58 L1027.22 1449.58 L946.804 1449.58 L946.804 1449.58  Z
  " fill="#009af9" fill-rule="evenodd" fill-opacity="1"/>
<polyline clip-path="url(#clip062)" style="stroke:#000000; stroke-linecap:butt; stroke-linejoin:round; stroke-width:4; stroke-opacity:1; fill:none" points="
  946.804,1449.58 946.804,1449.58 1027.22,1449.58 946.804,1449.58 
  "/>
<path clip-path="url(#clip062)" d="
M1027.22 1449.58 L1027.22 1449.58 L1107.64 1449.58 L1107.64 1449.58 L1027.22 1449.58 L1027.22 1449.58  Z
  " fill="#009af9" fill-rule="evenodd" fill-opacity="1"/>
<polyline clip-path="url(#clip062)" style="stroke:#000000; stroke-linecap:butt; stroke-linejoin:round; stroke-width:4; stroke-opacity:1; fill:none" points="
  1027.22,1449.58 1027.22,1449.58 1107.64,1449.58 1027.22,1449.58 
  "/>
<path clip-path="url(#clip062)" d="
M1107.64 1449.58 L1107.64 1449.58 L1188.06 1449.58 L1188.06 1449.58 L1107.64 1449.58 L1107.64 1449.58  Z
  " fill="#009af9" fill-rule="evenodd" fill-opacity="1"/>
<polyline clip-path="url(#clip062)" style="stroke:#000000; stroke-linecap:butt; stroke-linejoin:round; stroke-width:4; stroke-opacity:1; fill:none" points="
  1107.64,1449.58 1107.64,1449.58 1188.06,1449.58 1107.64,1449.58 
  "/>
<path clip-path="url(#clip062)" d="
M1188.06 1449.58 L1188.06 1449.58 L1268.47 1449.58 L1268.47 1449.58 L1188.06 1449.58 L1188.06 1449.58  Z
  " fill="#009af9" fill-rule="evenodd" fill-opacity="1"/>
<polyline clip-path="url(#clip062)" style="stroke:#000000; stroke-linecap:butt; stroke-linejoin:round; stroke-width:4; stroke-opacity:1; fill:none" points="
  1188.06,1449.58 1188.06,1449.58 1268.47,1449.58 1188.06,1449.58 
  "/>
<path clip-path="url(#clip062)" d="
M1268.47 1449.58 L1268.47 1449.58 L1348.89 1449.58 L1348.89 1449.58 L1268.47 1449.58 L1268.47 1449.58  Z
  " fill="#009af9" fill-rule="evenodd" fill-opacity="1"/>
<polyline clip-path="url(#clip062)" style="stroke:#000000; stroke-linecap:butt; stroke-linejoin:round; stroke-width:4; stroke-opacity:1; fill:none" points="
  1268.47,1449.58 1268.47,1449.58 1348.89,1449.58 1268.47,1449.58 
  "/>
<path clip-path="url(#clip062)" d="
M1348.89 1449.58 L1348.89 1449.58 L1429.31 1449.58 L1429.31 1449.58 L1348.89 1449.58 L1348.89 1449.58  Z
  " fill="#009af9" fill-rule="evenodd" fill-opacity="1"/>
<polyline clip-path="url(#clip062)" style="stroke:#000000; stroke-linecap:butt; stroke-linejoin:round; stroke-width:4; stroke-opacity:1; fill:none" points="
  1348.89,1449.58 1348.89,1449.58 1429.31,1449.58 1348.89,1449.58 
  "/>
<path clip-path="url(#clip062)" d="
M1429.31 1449.58 L1429.31 1449.58 L1509.73 1449.58 L1509.73 1449.58 L1429.31 1449.58 L1429.31 1449.58  Z
  " fill="#009af9" fill-rule="evenodd" fill-opacity="1"/>
<polyline clip-path="url(#clip062)" style="stroke:#000000; stroke-linecap:butt; stroke-linejoin:round; stroke-width:4; stroke-opacity:1; fill:none" points="
  1429.31,1449.58 1429.31,1449.58 1509.73,1449.58 1429.31,1449.58 
  "/>
<path clip-path="url(#clip062)" d="
M1509.73 1449.58 L1509.73 1449.58 L1590.14 1449.58 L1590.14 1449.58 L1509.73 1449.58 L1509.73 1449.58  Z
  " fill="#009af9" fill-rule="evenodd" fill-opacity="1"/>
<polyline clip-path="url(#clip062)" style="stroke:#000000; stroke-linecap:butt; stroke-linejoin:round; stroke-width:4; stroke-opacity:1; fill:none" points="
  1509.73,1449.58 1509.73,1449.58 1590.14,1449.58 1509.73,1449.58 
  "/>
<path clip-path="url(#clip062)" d="
M1590.14 1449.58 L1590.14 1449.58 L1670.56 1449.58 L1670.56 1449.58 L1590.14 1449.58 L1590.14 1449.58  Z
  " fill="#009af9" fill-rule="evenodd" fill-opacity="1"/>
<polyline clip-path="url(#clip062)" style="stroke:#000000; stroke-linecap:butt; stroke-linejoin:round; stroke-width:4; stroke-opacity:1; fill:none" points="
  1590.14,1449.58 1590.14,1449.58 1670.56,1449.58 1590.14,1449.58 
  "/>
<path clip-path="url(#clip062)" d="
M1670.56 1449.58 L1670.56 1449.58 L1750.98 1449.58 L1750.98 1449.58 L1670.56 1449.58 L1670.56 1449.58  Z
  " fill="#009af9" fill-rule="evenodd" fill-opacity="1"/>
<polyline clip-path="url(#clip062)" style="stroke:#000000; stroke-linecap:butt; stroke-linejoin:round; stroke-width:4; stroke-opacity:1; fill:none" points="
  1670.56,1449.58 1670.56,1449.58 1750.98,1449.58 1670.56,1449.58 
  "/>
<path clip-path="url(#clip062)" d="
M1750.98 1449.58 L1750.98 1449.58 L1831.39 1449.58 L1831.39 1449.58 L1750.98 1449.58 L1750.98 1449.58  Z
  " fill="#009af9" fill-rule="evenodd" fill-opacity="1"/>
<polyline clip-path="url(#clip062)" style="stroke:#000000; stroke-linecap:butt; stroke-linejoin:round; stroke-width:4; stroke-opacity:1; fill:none" points="
  1750.98,1449.58 1750.98,1449.58 1831.39,1449.58 1750.98,1449.58 
  "/>
<path clip-path="url(#clip062)" d="
M1831.39 1449.58 L1831.39 1449.58 L1911.81 1449.58 L1911.81 1449.58 L1831.39 1449.58 L1831.39 1449.58  Z
  " fill="#009af9" fill-rule="evenodd" fill-opacity="1"/>
<polyline clip-path="url(#clip062)" style="stroke:#000000; stroke-linecap:butt; stroke-linejoin:round; stroke-width:4; stroke-opacity:1; fill:none" points="
  1831.39,1449.58 1831.39,1449.58 1911.81,1449.58 1831.39,1449.58 
  "/>
<path clip-path="url(#clip062)" d="
M1911.81 1449.58 L1911.81 1449.58 L1992.23 1449.58 L1992.23 1449.58 L1911.81 1449.58 L1911.81 1449.58  Z
  " fill="#009af9" fill-rule="evenodd" fill-opacity="1"/>
<polyline clip-path="url(#clip062)" style="stroke:#000000; stroke-linecap:butt; stroke-linejoin:round; stroke-width:4; stroke-opacity:1; fill:none" points="
  1911.81,1449.58 1911.81,1449.58 1992.23,1449.58 1911.81,1449.58 
  "/>
<path clip-path="url(#clip062)" d="
M1992.23 1449.58 L1992.23 1449.58 L2072.65 1449.58 L2072.65 1449.58 L1992.23 1449.58 L1992.23 1449.58  Z
  " fill="#009af9" fill-rule="evenodd" fill-opacity="1"/>
<polyline clip-path="url(#clip062)" style="stroke:#000000; stroke-linecap:butt; stroke-linejoin:round; stroke-width:4; stroke-opacity:1; fill:none" points="
  1992.23,1449.58 1992.23,1449.58 2072.65,1449.58 1992.23,1449.58 
  "/>
<path clip-path="url(#clip062)" d="
M2072.65 1449.58 L2072.65 1449.58 L2153.06 1449.58 L2153.06 1449.58 L2072.65 1449.58 L2072.65 1449.58  Z
  " fill="#009af9" fill-rule="evenodd" fill-opacity="1"/>
<polyline clip-path="url(#clip062)" style="stroke:#000000; stroke-linecap:butt; stroke-linejoin:round; stroke-width:4; stroke-opacity:1; fill:none" points="
  2072.65,1449.58 2072.65,1449.58 2153.06,1449.58 2072.65,1449.58 
  "/>
<path clip-path="url(#clip062)" d="
M2153.06 1337.88 L2153.06 1449.58 L2233.48 1449.58 L2233.48 1337.88 L2153.06 1337.88 L2153.06 1337.88  Z
  " fill="#009af9" fill-rule="evenodd" fill-opacity="1"/>
<polyline clip-path="url(#clip062)" style="stroke:#000000; stroke-linecap:butt; stroke-linejoin:round; stroke-width:4; stroke-opacity:1; fill:none" points="
  2153.06,1337.88 2153.06,1449.58 2233.48,1449.58 2233.48,1337.88 2153.06,1337.88 
  "/>
<circle clip-path="url(#clip062)" style="fill:#009af9; stroke:none; fill-opacity:0" cx="343.674" cy="332.522" r="2"/>
<circle clip-path="url(#clip062)" style="fill:#009af9; stroke:none; fill-opacity:0" cx="424.092" cy="220.815" r="2"/>
<circle clip-path="url(#clip062)" style="fill:#009af9; stroke:none; fill-opacity:0" cx="504.509" cy="220.815" r="2"/>
<circle clip-path="url(#clip062)" style="fill:#009af9; stroke:none; fill-opacity:0" cx="584.926" cy="891.053" r="2"/>
<circle clip-path="url(#clip062)" style="fill:#009af9; stroke:none; fill-opacity:0" cx="665.344" cy="1002.76" r="2"/>
<circle clip-path="url(#clip062)" style="fill:#009af9; stroke:none; fill-opacity:0" cx="745.761" cy="1226.17" r="2"/>
<circle clip-path="url(#clip062)" style="fill:#009af9; stroke:none; fill-opacity:0" cx="826.178" cy="1226.17" r="2"/>
<circle clip-path="url(#clip062)" style="fill:#009af9; stroke:none; fill-opacity:0" cx="906.595" cy="1337.88" r="2"/>
<circle clip-path="url(#clip062)" style="fill:#009af9; stroke:none; fill-opacity:0" cx="987.013" cy="1449.58" r="2"/>
<circle clip-path="url(#clip062)" style="fill:#009af9; stroke:none; fill-opacity:0" cx="1067.43" cy="1449.58" r="2"/>
<circle clip-path="url(#clip062)" style="fill:#009af9; stroke:none; fill-opacity:0" cx="1147.85" cy="1449.58" r="2"/>
<circle clip-path="url(#clip062)" style="fill:#009af9; stroke:none; fill-opacity:0" cx="1228.26" cy="1449.58" r="2"/>
<circle clip-path="url(#clip062)" style="fill:#009af9; stroke:none; fill-opacity:0" cx="1308.68" cy="1449.58" r="2"/>
<circle clip-path="url(#clip062)" style="fill:#009af9; stroke:none; fill-opacity:0" cx="1389.1" cy="1449.58" r="2"/>
<circle clip-path="url(#clip062)" style="fill:#009af9; stroke:none; fill-opacity:0" cx="1469.52" cy="1449.58" r="2"/>
<circle clip-path="url(#clip062)" style="fill:#009af9; stroke:none; fill-opacity:0" cx="1549.93" cy="1449.58" r="2"/>
<circle clip-path="url(#clip062)" style="fill:#009af9; stroke:none; fill-opacity:0" cx="1630.35" cy="1449.58" r="2"/>
<circle clip-path="url(#clip062)" style="fill:#009af9; stroke:none; fill-opacity:0" cx="1710.77" cy="1449.58" r="2"/>
<circle clip-path="url(#clip062)" style="fill:#009af9; stroke:none; fill-opacity:0" cx="1791.19" cy="1449.58" r="2"/>
<circle clip-path="url(#clip062)" style="fill:#009af9; stroke:none; fill-opacity:0" cx="1871.6" cy="1449.58" r="2"/>
<circle clip-path="url(#clip062)" style="fill:#009af9; stroke:none; fill-opacity:0" cx="1952.02" cy="1449.58" r="2"/>
<circle clip-path="url(#clip062)" style="fill:#009af9; stroke:none; fill-opacity:0" cx="2032.44" cy="1449.58" r="2"/>
<circle clip-path="url(#clip062)" style="fill:#009af9; stroke:none; fill-opacity:0" cx="2112.85" cy="1449.58" r="2"/>
<circle clip-path="url(#clip062)" style="fill:#009af9; stroke:none; fill-opacity:0" cx="2193.27" cy="1337.88" r="2"/>
</svg>
