<?xml version="1.0" encoding="utf-8"?>
<svg xmlns="http://www.w3.org/2000/svg" xmlns:xlink="http://www.w3.org/1999/xlink" width="600" height="400" viewBox="0 0 2400 1600">
<defs>
  <clipPath id="clip980">
    <rect x="0" y="0" width="2400" height="1600"/>
  </clipPath>
</defs>
<path clip-path="url(#clip980)" d="
M0 1600 L2400 1600 L2400 0 L0 0  Z
  " fill="#ffffff" fill-rule="evenodd" fill-opacity="1"/>
<defs>
  <clipPath id="clip981">
    <rect x="480" y="0" width="1681" height="1600"/>
  </clipPath>
</defs>
<path clip-path="url(#clip980)" d="
M147.478 1486.45 L2352.76 1486.45 L2352.76 183.952 L147.478 183.952  Z
  " fill="#ffffff" fill-rule="evenodd" fill-opacity="1"/>
<defs>
  <clipPath id="clip982">
    <rect x="147" y="183" width="2206" height="1303"/>
  </clipPath>
</defs>
<polyline clip-path="url(#clip982)" style="stroke:#000000; stroke-linecap:butt; stroke-linejoin:round; stroke-width:2; stroke-opacity:0.1; fill:none" points="
  560.891,1486.45 560.891,183.952 
  "/>
<polyline clip-path="url(#clip982)" style="stroke:#000000; stroke-linecap:butt; stroke-linejoin:round; stroke-width:2; stroke-opacity:0.1; fill:none" points="
  974.636,1486.45 974.636,183.952 
  "/>
<polyline clip-path="url(#clip982)" style="stroke:#000000; stroke-linecap:butt; stroke-linejoin:round; stroke-width:2; stroke-opacity:0.1; fill:none" points="
  1388.38,1486.45 1388.38,183.952 
  "/>
<polyline clip-path="url(#clip982)" style="stroke:#000000; stroke-linecap:butt; stroke-linejoin:round; stroke-width:2; stroke-opacity:0.1; fill:none" points="
  1802.13,1486.45 1802.13,183.952 
  "/>
<polyline clip-path="url(#clip982)" style="stroke:#000000; stroke-linecap:butt; stroke-linejoin:round; stroke-width:2; stroke-opacity:0.1; fill:none" points="
  2215.87,1486.45 2215.87,183.952 
  "/>
<polyline clip-path="url(#clip980)" style="stroke:#000000; stroke-linecap:butt; stroke-linejoin:round; stroke-width:4; stroke-opacity:1; fill:none" points="
  147.478,1486.45 2352.76,1486.45 
  "/>
<polyline clip-path="url(#clip980)" style="stroke:#000000; stroke-linecap:butt; stroke-linejoin:round; stroke-width:4; stroke-opacity:1; fill:none" points="
  560.891,1486.45 560.891,1467.55 
  "/>
<polyline clip-path="url(#clip980)" style="stroke:#000000; stroke-linecap:butt; stroke-linejoin:round; stroke-width:4; stroke-opacity:1; fill:none" points="
  974.636,1486.45 974.636,1467.55 
  "/>
<polyline clip-path="url(#clip980)" style="stroke:#000000; stroke-linecap:butt; stroke-linejoin:round; stroke-width:4; stroke-opacity:1; fill:none" points="
  1388.38,1486.45 1388.38,1467.55 
  "/>
<polyline clip-path="url(#clip980)" style="stroke:#000000; stroke-linecap:butt; stroke-linejoin:round; stroke-width:4; stroke-opacity:1; fill:none" points="
  1802.13,1486.45 1802.13,1467.55 
  "/>
<polyline clip-path="url(#clip980)" style="stroke:#000000; stroke-linecap:butt; stroke-linejoin:round; stroke-width:4; stroke-opacity:1; fill:none" points="
  2215.87,1486.45 2215.87,1467.55 
  "/>
<path clip-path="url(#clip980)" d="M529.792 1532.02 L559.468 1532.02 L559.468 1535.95 L529.792 1535.95 L529.792 1532.02 Z" fill="#000000" fill-rule="evenodd" fill-opacity="1" /><path clip-path="url(#clip980)" d="M582.407 1518.36 L570.602 1536.81 L582.407 1536.81 L582.407 1518.36 M581.181 1514.29 L587.06 1514.29 L587.06 1536.81 L591.991 1536.81 L591.991 1540.7 L587.06 1540.7 L587.06 1548.85 L582.407 1548.85 L582.407 1540.7 L566.806 1540.7 L566.806 1536.19 L581.181 1514.29 Z" fill="#000000" fill-rule="evenodd" fill-opacity="1" /><path clip-path="url(#clip980)" d="M944.104 1532.02 L973.78 1532.02 L973.78 1535.95 L944.104 1535.95 L944.104 1532.02 Z" fill="#000000" fill-rule="evenodd" fill-opacity="1" /><path clip-path="url(#clip980)" d="M998.039 1530.21 Q1001.4 1530.93 1003.27 1533.2 Q1005.17 1535.47 1005.17 1538.8 Q1005.17 1543.92 1001.65 1546.72 Q998.132 1549.52 991.65 1549.52 Q989.474 1549.52 987.159 1549.08 Q984.868 1548.66 982.414 1547.81 L982.414 1543.29 Q984.359 1544.43 986.673 1545.01 Q988.988 1545.58 991.511 1545.58 Q995.909 1545.58 998.201 1543.85 Q1000.52 1542.11 1000.52 1538.8 Q1000.52 1535.75 998.363 1534.03 Q996.233 1532.3 992.414 1532.3 L988.386 1532.3 L988.386 1528.45 L992.599 1528.45 Q996.048 1528.45 997.877 1527.09 Q999.706 1525.7 999.706 1523.11 Q999.706 1520.45 997.808 1519.03 Q995.933 1517.6 992.414 1517.6 Q990.493 1517.6 988.294 1518.01 Q986.095 1518.43 983.456 1519.31 L983.456 1515.14 Q986.118 1514.4 988.433 1514.03 Q990.771 1513.66 992.831 1513.66 Q998.155 1513.66 1001.26 1516.09 Q1004.36 1518.5 1004.36 1522.62 Q1004.36 1525.49 1002.71 1527.48 Q1001.07 1529.45 998.039 1530.21 Z" fill="#000000" fill-rule="evenodd" fill-opacity="1" /><path clip-path="url(#clip980)" d="M1358.32 1532.02 L1388 1532.02 L1388 1535.95 L1358.32 1535.95 L1358.32 1532.02 Z" fill="#000000" fill-rule="evenodd" fill-opacity="1" /><path clip-path="url(#clip980)" d="M1402.12 1544.91 L1418.44 1544.91 L1418.44 1548.85 L1396.49 1548.85 L1396.49 1544.91 Q1399.16 1542.16 1403.74 1537.53 Q1408.35 1532.88 1409.53 1531.53 Q1411.77 1529.01 1412.65 1527.27 Q1413.55 1525.51 1413.55 1523.82 Q1413.55 1521.07 1411.61 1519.33 Q1409.69 1517.6 1406.59 1517.6 Q1404.39 1517.6 1401.93 1518.36 Q1399.5 1519.13 1396.73 1520.68 L1396.73 1515.95 Q1399.55 1514.82 1402 1514.24 Q1404.46 1513.66 1406.49 1513.66 Q1411.87 1513.66 1415.06 1516.35 Q1418.25 1519.03 1418.25 1523.52 Q1418.25 1525.65 1417.44 1527.57 Q1416.66 1529.47 1414.55 1532.07 Q1413.97 1532.74 1410.87 1535.95 Q1407.77 1539.15 1402.12 1544.91 Z" fill="#000000" fill-rule="evenodd" fill-opacity="1" /><path clip-path="url(#clip980)" d="M1771.88 1532.02 L1801.56 1532.02 L1801.56 1535.95 L1771.88 1535.95 L1771.88 1532.02 Z" fill="#000000" fill-rule="evenodd" fill-opacity="1" /><path clip-path="url(#clip980)" d="M1812.46 1544.91 L1820.1 1544.91 L1820.1 1518.55 L1811.79 1520.21 L1811.79 1515.95 L1820.05 1514.29 L1824.73 1514.29 L1824.73 1544.91 L1832.37 1544.91 L1832.37 1548.85 L1812.46 1548.85 L1812.46 1544.91 Z" fill="#000000" fill-rule="evenodd" fill-opacity="1" /><path clip-path="url(#clip980)" d="M2215.87 1517.37 Q2212.26 1517.37 2210.43 1520.93 Q2208.63 1524.47 2208.63 1531.6 Q2208.63 1538.71 2210.43 1542.27 Q2212.26 1545.82 2215.87 1545.82 Q2219.51 1545.82 2221.31 1542.27 Q2223.14 1538.71 2223.14 1531.6 Q2223.14 1524.47 2221.31 1520.93 Q2219.51 1517.37 2215.87 1517.37 M2215.87 1513.66 Q2221.68 1513.66 2224.74 1518.27 Q2227.82 1522.85 2227.82 1531.6 Q2227.82 1540.33 2224.74 1544.94 Q2221.68 1549.52 2215.87 1549.52 Q2210.06 1549.52 2206.98 1544.94 Q2203.93 1540.33 2203.93 1531.6 Q2203.93 1522.85 2206.98 1518.27 Q2210.06 1513.66 2215.87 1513.66 Z" fill="#000000" fill-rule="evenodd" fill-opacity="1" /><polyline clip-path="url(#clip982)" style="stroke:#000000; stroke-linecap:butt; stroke-linejoin:round; stroke-width:2; stroke-opacity:0.1; fill:none" points="
  147.478,1441.51 2352.76,1441.51 
  "/>
<polyline clip-path="url(#clip982)" style="stroke:#000000; stroke-linecap:butt; stroke-linejoin:round; stroke-width:2; stroke-opacity:0.1; fill:none" points="
  147.478,1204.38 2352.76,1204.38 
  "/>
<polyline clip-path="url(#clip982)" style="stroke:#000000; stroke-linecap:butt; stroke-linejoin:round; stroke-width:2; stroke-opacity:0.1; fill:none" points="
  147.478,967.247 2352.76,967.247 
  "/>
<polyline clip-path="url(#clip982)" style="stroke:#000000; stroke-linecap:butt; stroke-linejoin:round; stroke-width:2; stroke-opacity:0.1; fill:none" points="
  147.478,730.115 2352.76,730.115 
  "/>
<polyline clip-path="url(#clip982)" style="stroke:#000000; stroke-linecap:butt; stroke-linejoin:round; stroke-width:2; stroke-opacity:0.1; fill:none" points="
  147.478,492.982 2352.76,492.982 
  "/>
<polyline clip-path="url(#clip982)" style="stroke:#000000; stroke-linecap:butt; stroke-linejoin:round; stroke-width:2; stroke-opacity:0.1; fill:none" points="
  147.478,255.85 2352.76,255.85 
  "/>
<polyline clip-path="url(#clip980)" style="stroke:#000000; stroke-linecap:butt; stroke-linejoin:round; stroke-width:4; stroke-opacity:1; fill:none" points="
  147.478,1486.45 147.478,183.952 
  "/>
<polyline clip-path="url(#clip980)" style="stroke:#000000; stroke-linecap:butt; stroke-linejoin:round; stroke-width:4; stroke-opacity:1; fill:none" points="
  147.478,1441.51 166.376,1441.51 
  "/>
<polyline clip-path="url(#clip980)" style="stroke:#000000; stroke-linecap:butt; stroke-linejoin:round; stroke-width:4; stroke-opacity:1; fill:none" points="
  147.478,1204.38 166.376,1204.38 
  "/>
<polyline clip-path="url(#clip980)" style="stroke:#000000; stroke-linecap:butt; stroke-linejoin:round; stroke-width:4; stroke-opacity:1; fill:none" points="
  147.478,967.247 166.376,967.247 
  "/>
<polyline clip-path="url(#clip980)" style="stroke:#000000; stroke-linecap:butt; stroke-linejoin:round; stroke-width:4; stroke-opacity:1; fill:none" points="
  147.478,730.115 166.376,730.115 
  "/>
<polyline clip-path="url(#clip980)" style="stroke:#000000; stroke-linecap:butt; stroke-linejoin:round; stroke-width:4; stroke-opacity:1; fill:none" points="
  147.478,492.982 166.376,492.982 
  "/>
<polyline clip-path="url(#clip980)" style="stroke:#000000; stroke-linecap:butt; stroke-linejoin:round; stroke-width:4; stroke-opacity:1; fill:none" points="
  147.478,255.85 166.376,255.85 
  "/>
<path clip-path="url(#clip980)" d="M50.9921 1441.96 L80.6679 1441.96 L80.6679 1445.9 L50.9921 1445.9 L50.9921 1441.96 Z" fill="#000000" fill-rule="evenodd" fill-opacity="1" /><path clip-path="url(#clip980)" d="M91.5706 1454.86 L99.2095 1454.86 L99.2095 1428.49 L90.8993 1430.16 L90.8993 1425.9 L99.1632 1424.23 L103.839 1424.23 L103.839 1454.86 L111.478 1454.86 L111.478 1458.79 L91.5706 1458.79 L91.5706 1454.86 Z" fill="#000000" fill-rule="evenodd" fill-opacity="1" /><path clip-path="url(#clip980)" d="M99.5335 1190.18 Q95.9224 1190.18 94.0937 1193.74 Q92.2882 1197.29 92.2882 1204.41 Q92.2882 1211.52 94.0937 1215.09 Q95.9224 1218.63 99.5335 1218.63 Q103.168 1218.63 104.973 1215.09 Q106.802 1211.52 106.802 1204.41 Q106.802 1197.29 104.973 1193.74 Q103.168 1190.18 99.5335 1190.18 M99.5335 1186.47 Q105.344 1186.47 108.399 1191.08 Q111.478 1195.66 111.478 1204.41 Q111.478 1213.14 108.399 1217.75 Q105.344 1222.33 99.5335 1222.33 Q93.7234 1222.33 90.6447 1217.75 Q87.5892 1213.14 87.5892 1204.41 Q87.5892 1195.66 90.6447 1191.08 Q93.7234 1186.47 99.5335 1186.47 Z" fill="#000000" fill-rule="evenodd" fill-opacity="1" /><path clip-path="url(#clip980)" d="M91.5706 980.592 L99.2095 980.592 L99.2095 954.227 L90.8993 955.893 L90.8993 951.634 L99.1632 949.967 L103.839 949.967 L103.839 980.592 L111.478 980.592 L111.478 984.527 L91.5706 984.527 L91.5706 980.592 Z" fill="#000000" fill-rule="evenodd" fill-opacity="1" /><path clip-path="url(#clip980)" d="M95.1586 743.46 L111.478 743.46 L111.478 747.395 L89.5336 747.395 L89.5336 743.46 Q92.1956 740.705 96.7789 736.075 Q101.385 731.423 102.566 730.08 Q104.811 727.557 105.691 725.821 Q106.594 724.062 106.594 722.372 Q106.594 719.617 104.649 717.881 Q102.728 716.145 99.6261 716.145 Q97.4271 716.145 94.9734 716.909 Q92.5428 717.673 89.7651 719.224 L89.7651 714.501 Q92.5891 713.367 95.0428 712.789 Q97.4965 712.21 99.5335 712.21 Q104.904 712.21 108.098 714.895 Q111.293 717.58 111.293 722.071 Q111.293 724.201 110.483 726.122 Q109.696 728.02 107.589 730.613 Q107.01 731.284 103.909 734.501 Q100.807 737.696 95.1586 743.46 Z" fill="#000000" fill-rule="evenodd" fill-opacity="1" /><path clip-path="url(#clip980)" d="M104.348 491.628 Q107.705 492.346 109.58 494.614 Q111.478 496.883 111.478 500.216 Q111.478 505.332 107.959 508.133 Q104.441 510.934 97.9595 510.934 Q95.7836 510.934 93.4688 510.494 Q91.1771 510.077 88.7234 509.221 L88.7234 504.707 Q90.6678 505.841 92.9826 506.42 Q95.2974 506.998 97.8206 506.998 Q102.219 506.998 104.51 505.262 Q106.825 503.526 106.825 500.216 Q106.825 497.161 104.672 495.448 Q102.543 493.711 98.7234 493.711 L94.6956 493.711 L94.6956 489.869 L98.9085 489.869 Q102.358 489.869 104.186 488.503 Q106.015 487.114 106.015 484.522 Q106.015 481.86 104.117 480.448 Q102.242 479.012 98.7234 479.012 Q96.8021 479.012 94.603 479.429 Q92.4039 479.846 89.7651 480.725 L89.7651 476.559 Q92.4271 475.818 94.7419 475.448 Q97.0798 475.077 99.14 475.077 Q104.464 475.077 107.566 477.508 Q110.668 479.915 110.668 484.036 Q110.668 486.906 109.024 488.897 Q107.381 490.864 104.348 491.628 Z" fill="#000000" fill-rule="evenodd" fill-opacity="1" /><path clip-path="url(#clip980)" d="M101.895 242.644 L90.0891 261.093 L101.895 261.093 L101.895 242.644 M100.668 238.57 L106.547 238.57 L106.547 261.093 L111.478 261.093 L111.478 264.982 L106.547 264.982 L106.547 273.13 L101.895 273.13 L101.895 264.982 L86.2929 264.982 L86.2929 260.468 L100.668 238.57 Z" fill="#000000" fill-rule="evenodd" fill-opacity="1" /><path clip-path="url(#clip980)" d="M546.475 33.264 L554.658 33.264 L554.658 86.8575 L584.108 86.8575 L584.108 93.744 L546.475 93.744 L546.475 33.264 Z" fill="#000000" fill-rule="evenodd" fill-opacity="1" /><path clip-path="url(#clip980)" d="M608.494 53.5995 Q602.499 53.5995 599.015 58.2986 Q595.531 62.9571 595.531 71.0994 Q595.531 79.2418 598.975 83.9408 Q602.458 88.5994 608.494 88.5994 Q614.449 88.5994 617.933 83.9003 Q621.417 79.2013 621.417 71.0994 Q621.417 63.0381 617.933 58.3391 Q614.449 53.5995 608.494 53.5995 M608.494 47.2801 Q618.216 47.2801 623.766 53.5995 Q629.316 59.9189 629.316 71.0994 Q629.316 82.2394 623.766 88.5994 Q618.216 94.9188 608.494 94.9188 Q598.732 94.9188 593.182 88.5994 Q587.673 82.2394 587.673 71.0994 Q587.673 59.9189 593.182 53.5995 Q598.732 47.2801 608.494 47.2801 Z" fill="#000000" fill-rule="evenodd" fill-opacity="1" /><path clip-path="url(#clip980)" d="M671.526 70.5323 Q671.526 62.4305 668.164 57.9745 Q664.842 53.5185 658.806 53.5185 Q652.811 53.5185 649.449 57.9745 Q646.127 62.4305 646.127 70.5323 Q646.127 78.5936 649.449 83.0496 Q652.811 87.5056 658.806 87.5056 Q664.842 87.5056 668.164 83.0496 Q671.526 78.5936 671.526 70.5323 M678.98 88.1132 Q678.98 99.6988 673.835 105.33 Q668.691 111.001 658.077 111.001 Q654.148 111.001 650.664 110.393 Q647.18 109.826 643.899 108.611 L643.899 101.36 Q647.18 103.142 650.381 103.993 Q653.581 104.843 656.902 104.843 Q664.235 104.843 667.88 100.995 Q671.526 97.1873 671.526 89.45 L671.526 85.7637 Q669.217 89.7741 665.612 91.7591 Q662.007 93.744 656.984 93.744 Q648.639 93.744 643.535 87.3841 Q638.43 81.0242 638.43 70.5323 Q638.43 60 643.535 53.64 Q648.639 47.2801 656.984 47.2801 Q662.007 47.2801 665.612 49.2651 Q669.217 51.25 671.526 55.2604 L671.526 48.3739 L678.98 48.3739 L678.98 88.1132 Z" fill="#000000" fill-rule="evenodd" fill-opacity="1" /><path clip-path="url(#clip980)" d="M712.238 30.7929 Q706.81 40.11 704.177 49.2246 Q701.543 58.3391 701.543 67.6967 Q701.543 77.0543 704.177 86.2498 Q706.85 95.4049 712.238 104.681 L705.756 104.681 Q699.68 95.1618 696.642 85.9663 Q693.644 76.7707 693.644 67.6967 Q693.644 58.6632 696.642 49.5081 Q699.64 40.3531 705.756 30.7929 L712.238 30.7929 Z" fill="#000000" fill-rule="evenodd" fill-opacity="1" /><path clip-path="url(#clip980)" d="M727.024 33.264 L735.206 33.264 L735.206 58.0555 L764.94 58.0555 L764.94 33.264 L773.123 33.264 L773.123 93.744 L764.94 93.744 L764.94 64.9421 L735.206 64.9421 L735.206 93.744 L727.024 93.744 L727.024 33.264 Z" fill="#000000" fill-rule="evenodd" fill-opacity="1" /><path clip-path="url(#clip980)" d="M806.664 53.5995 Q800.669 53.5995 797.185 58.2986 Q793.702 62.9571 793.702 71.0994 Q793.702 79.2418 797.145 83.9408 Q800.629 88.5994 806.664 88.5994 Q812.619 88.5994 816.103 83.9003 Q819.587 79.2013 819.587 71.0994 Q819.587 63.0381 816.103 58.3391 Q812.619 53.5995 806.664 53.5995 M806.664 47.2801 Q816.387 47.2801 821.936 53.5995 Q827.486 59.9189 827.486 71.0994 Q827.486 82.2394 821.936 88.5994 Q816.387 94.9188 806.664 94.9188 Q796.902 94.9188 791.352 88.5994 Q785.843 82.2394 785.843 71.0994 Q785.843 59.9189 791.352 53.5995 Q796.902 47.2801 806.664 47.2801 Z" fill="#000000" fill-rule="evenodd" fill-opacity="1" /><path clip-path="url(#clip980)" d="M875.165 57.0833 Q877.96 52.0602 881.849 49.6702 Q885.738 47.2801 891.004 47.2801 Q898.093 47.2801 901.942 52.2627 Q905.79 57.2048 905.79 66.3599 L905.79 93.744 L898.296 93.744 L898.296 66.6029 Q898.296 60.081 895.987 56.9213 Q893.678 53.7616 888.938 53.7616 Q883.145 53.7616 879.783 57.6099 Q876.421 61.4583 876.421 68.1018 L876.421 93.744 L868.927 93.744 L868.927 66.6029 Q868.927 60.0405 866.618 56.9213 Q864.309 53.7616 859.488 53.7616 Q853.776 53.7616 850.414 57.6504 Q847.052 61.4988 847.052 68.1018 L847.052 93.744 L839.558 93.744 L839.558 48.3739 L847.052 48.3739 L847.052 55.4224 Q849.604 51.25 853.169 49.2651 Q856.734 47.2801 861.635 47.2801 Q866.577 47.2801 870.021 49.7917 Q873.504 52.3032 875.165 57.0833 Z" fill="#000000" fill-rule="evenodd" fill-opacity="1" /><path clip-path="url(#clip980)" d="M973.319 55.3414 Q972.063 54.6123 970.564 54.2882 Q969.106 53.9236 967.323 53.9236 Q961.004 53.9236 957.601 58.0555 Q954.239 62.1469 954.239 69.8437 L954.239 93.744 L946.745 93.744 L946.745 48.3739 L954.239 48.3739 L954.239 55.4224 Q956.588 51.2905 960.356 49.3056 Q964.123 47.2801 969.511 47.2801 Q970.28 47.2801 971.212 47.4017 Q972.144 47.4827 973.278 47.6852 L973.319 55.3414 Z" fill="#000000" fill-rule="evenodd" fill-opacity="1" /><path clip-path="url(#clip980)" d="M1001.76 70.9374 Q992.722 70.9374 989.239 73.0034 Q985.755 75.0693 985.755 80.0519 Q985.755 84.0218 988.347 86.3714 Q990.981 88.6804 995.477 88.6804 Q1001.67 88.6804 1005.4 84.3054 Q1009.17 79.8899 1009.17 72.5983 L1009.17 70.9374 L1001.76 70.9374 M1016.62 67.8587 L1016.62 93.744 L1009.17 93.744 L1009.17 86.8575 Q1006.62 90.9894 1002.81 92.9743 Q999.001 94.9188 993.492 94.9188 Q986.525 94.9188 982.393 91.0299 Q978.301 87.1005 978.301 80.5381 Q978.301 72.8818 983.405 68.993 Q988.55 65.1041 998.718 65.1041 L1009.17 65.1041 L1009.17 64.3749 Q1009.17 59.2303 1005.77 56.4352 Q1002.4 53.5995 996.287 53.5995 Q992.398 53.5995 988.712 54.5312 Q985.026 55.463 981.623 57.3264 L981.623 50.4398 Q985.714 48.86 989.563 48.0903 Q993.411 47.2801 997.057 47.2801 Q1006.9 47.2801 1011.76 52.3843 Q1016.62 57.4884 1016.62 67.8587 Z" fill="#000000" fill-rule="evenodd" fill-opacity="1" /><path clip-path="url(#clip980)" d="M1039.35 35.492 L1039.35 48.3739 L1054.7 48.3739 L1054.7 54.1667 L1039.35 54.1667 L1039.35 78.7962 Q1039.35 84.3459 1040.85 85.9258 Q1042.39 87.5056 1047.05 87.5056 L1054.7 87.5056 L1054.7 93.744 L1047.05 93.744 Q1038.42 93.744 1035.14 90.5438 Q1031.85 87.3031 1031.85 78.7962 L1031.85 54.1667 L1026.39 54.1667 L1026.39 48.3739 L1031.85 48.3739 L1031.85 35.492 L1039.35 35.492 Z" fill="#000000" fill-rule="evenodd" fill-opacity="1" /><path clip-path="url(#clip980)" d="M1103.31 69.1955 L1103.31 72.8413 L1069.04 72.8413 Q1069.53 80.5381 1073.66 84.589 Q1077.83 88.5994 1085.25 88.5994 Q1089.54 88.5994 1093.55 87.5461 Q1097.6 86.4929 1101.57 84.3864 L1101.57 91.435 Q1097.56 93.1364 1093.35 94.0276 Q1089.13 94.9188 1084.8 94.9188 Q1073.94 94.9188 1067.58 88.5994 Q1061.26 82.2799 1061.26 71.5045 Q1061.26 60.3645 1067.26 53.8426 Q1073.29 47.2801 1083.5 47.2801 Q1092.66 47.2801 1097.96 53.1944 Q1103.31 59.0683 1103.31 69.1955 M1095.86 67.008 Q1095.78 60.8912 1092.42 57.2454 Q1089.09 53.5995 1083.58 53.5995 Q1077.35 53.5995 1073.58 57.1238 Q1069.85 60.6481 1069.28 67.0485 L1095.86 67.008 Z" fill="#000000" fill-rule="evenodd" fill-opacity="1" /><path clip-path="url(#clip980)" d="M1114.37 30.7929 L1120.85 30.7929 Q1126.93 40.3531 1129.93 49.5081 Q1132.96 58.6632 1132.96 67.6967 Q1132.96 76.7707 1129.93 85.9663 Q1126.93 95.1618 1120.85 104.681 L1114.37 104.681 Q1119.76 95.4049 1122.39 86.2498 Q1125.07 77.0543 1125.07 67.6967 Q1125.07 58.3391 1122.39 49.2246 Q1119.76 40.11 1114.37 30.7929 Z" fill="#000000" fill-rule="evenodd" fill-opacity="1" /><path clip-path="url(#clip980)" d="M1168.94 48.3739 L1176.84 48.3739 L1191.01 86.4524 L1205.19 48.3739 L1213.09 48.3739 L1196.08 93.744 L1185.95 93.744 L1168.94 48.3739 Z" fill="#000000" fill-rule="evenodd" fill-opacity="1" /><path clip-path="url(#clip980)" d="M1252.3 49.7107 L1252.3 56.7592 Q1249.14 55.1389 1245.74 54.3287 Q1242.34 53.5185 1238.69 53.5185 Q1233.14 53.5185 1230.35 55.2199 Q1227.59 56.9213 1227.59 60.324 Q1227.59 62.9166 1229.58 64.4155 Q1231.56 65.8738 1237.56 67.2106 L1240.11 67.7777 Q1248.05 69.4791 1251.37 72.5983 Q1254.73 75.677 1254.73 81.2267 Q1254.73 87.5461 1249.71 91.2324 Q1244.73 94.9188 1235.98 94.9188 Q1232.33 94.9188 1228.36 94.1896 Q1224.43 93.5009 1220.06 92.0831 L1220.06 84.3864 Q1224.19 86.5334 1228.2 87.6271 Q1232.21 88.6804 1236.14 88.6804 Q1241.41 88.6804 1244.24 86.898 Q1247.08 85.0751 1247.08 81.7938 Q1247.08 78.7557 1245.01 77.1353 Q1242.99 75.5149 1236.06 74.0161 L1233.47 73.4085 Q1226.54 71.9501 1223.46 68.9525 Q1220.38 65.9143 1220.38 60.6481 Q1220.38 54.2477 1224.92 50.7639 Q1229.46 47.2801 1237.8 47.2801 Q1241.93 47.2801 1245.58 47.8878 Q1249.23 48.4954 1252.3 49.7107 Z" fill="#000000" fill-rule="evenodd" fill-opacity="1" /><path clip-path="url(#clip980)" d="M1292.98 30.7119 L1300.43 30.7119 L1300.43 93.744 L1292.98 93.744 L1292.98 30.7119 Z" fill="#000000" fill-rule="evenodd" fill-opacity="1" /><path clip-path="url(#clip980)" d="M1333.61 53.5995 Q1327.61 53.5995 1324.13 58.2986 Q1320.64 62.9571 1320.64 71.0994 Q1320.64 79.2418 1324.09 83.9408 Q1327.57 88.5994 1333.61 88.5994 Q1339.56 88.5994 1343.04 83.9003 Q1346.53 79.2013 1346.53 71.0994 Q1346.53 63.0381 1343.04 58.3391 Q1339.56 53.5995 1333.61 53.5995 M1333.61 47.2801 Q1343.33 47.2801 1348.88 53.5995 Q1354.43 59.9189 1354.43 71.0994 Q1354.43 82.2394 1348.88 88.5994 Q1343.33 94.9188 1333.61 94.9188 Q1323.84 94.9188 1318.29 88.5994 Q1312.78 82.2394 1312.78 71.0994 Q1312.78 59.9189 1318.29 53.5995 Q1323.84 47.2801 1333.61 47.2801 Z" fill="#000000" fill-rule="evenodd" fill-opacity="1" /><path clip-path="url(#clip980)" d="M1396.64 70.5323 Q1396.64 62.4305 1393.28 57.9745 Q1389.95 53.5185 1383.92 53.5185 Q1377.92 53.5185 1374.56 57.9745 Q1371.24 62.4305 1371.24 70.5323 Q1371.24 78.5936 1374.56 83.0496 Q1377.92 87.5056 1383.92 87.5056 Q1389.95 87.5056 1393.28 83.0496 Q1396.64 78.5936 1396.64 70.5323 M1404.09 88.1132 Q1404.09 99.6988 1398.95 105.33 Q1393.8 111.001 1383.19 111.001 Q1379.26 111.001 1375.78 110.393 Q1372.29 109.826 1369.01 108.611 L1369.01 101.36 Q1372.29 103.142 1375.49 103.993 Q1378.69 104.843 1382.01 104.843 Q1389.35 104.843 1392.99 100.995 Q1396.64 97.1873 1396.64 89.45 L1396.64 85.7637 Q1394.33 89.7741 1390.72 91.7591 Q1387.12 93.744 1382.1 93.744 Q1373.75 93.744 1368.65 87.3841 Q1363.54 81.0242 1363.54 70.5323 Q1363.54 60 1368.65 53.64 Q1373.75 47.2801 1382.1 47.2801 Q1387.12 47.2801 1390.72 49.2651 Q1394.33 51.25 1396.64 55.2604 L1396.64 48.3739 L1404.09 48.3739 L1404.09 88.1132 Z" fill="#000000" fill-rule="evenodd" fill-opacity="1" /><path clip-path="url(#clip980)" d="M1437.35 30.7929 Q1431.92 40.11 1429.29 49.2246 Q1426.66 58.3391 1426.66 67.6967 Q1426.66 77.0543 1429.29 86.2498 Q1431.96 95.4049 1437.35 104.681 L1430.87 104.681 Q1424.79 95.1618 1421.75 85.9663 Q1418.76 76.7707 1418.76 67.6967 Q1418.76 58.6632 1421.75 49.5081 Q1424.75 40.3531 1430.87 30.7929 L1437.35 30.7929 Z" fill="#000000" fill-rule="evenodd" fill-opacity="1" /><path clip-path="url(#clip980)" d="M1481.67 70.5323 Q1481.67 62.4305 1478.3 57.9745 Q1474.98 53.5185 1468.95 53.5185 Q1462.95 53.5185 1459.59 57.9745 Q1456.27 62.4305 1456.27 70.5323 Q1456.27 78.5936 1459.59 83.0496 Q1462.95 87.5056 1468.95 87.5056 Q1474.98 87.5056 1478.3 83.0496 Q1481.67 78.5936 1481.67 70.5323 M1489.12 88.1132 Q1489.12 99.6988 1483.98 105.33 Q1478.83 111.001 1468.22 111.001 Q1464.29 111.001 1460.8 110.393 Q1457.32 109.826 1454.04 108.611 L1454.04 101.36 Q1457.32 103.142 1460.52 103.993 Q1463.72 104.843 1467.04 104.843 Q1474.37 104.843 1478.02 100.995 Q1481.67 97.1873 1481.67 89.45 L1481.67 85.7637 Q1479.36 89.7741 1475.75 91.7591 Q1472.15 93.744 1467.12 93.744 Q1458.78 93.744 1453.67 87.3841 Q1448.57 81.0242 1448.57 70.5323 Q1448.57 60 1453.67 53.64 Q1458.78 47.2801 1467.12 47.2801 Q1472.15 47.2801 1475.75 49.2651 Q1479.36 51.25 1481.67 55.2604 L1481.67 48.3739 L1489.12 48.3739 L1489.12 88.1132 Z" fill="#000000" fill-rule="evenodd" fill-opacity="1" /><path clip-path="url(#clip980)" d="M1503.7 75.839 L1503.7 48.3739 L1511.16 48.3739 L1511.16 75.5554 Q1511.16 81.9964 1513.67 85.2371 Q1516.18 88.4373 1521.2 88.4373 Q1527.24 88.4373 1530.72 84.589 Q1534.25 80.7406 1534.25 74.0971 L1534.25 48.3739 L1541.7 48.3739 L1541.7 93.744 L1534.25 93.744 L1534.25 86.7764 Q1531.53 90.9084 1527.93 92.9338 Q1524.36 94.9188 1519.62 94.9188 Q1511.81 94.9188 1507.75 90.0577 Q1503.7 85.1966 1503.7 75.839 M1522.46 47.2801 L1522.46 47.2801 Z" fill="#000000" fill-rule="evenodd" fill-opacity="1" /><path clip-path="url(#clip980)" d="M1594.77 66.3599 L1594.77 93.744 L1587.31 93.744 L1587.31 66.6029 Q1587.31 60.162 1584.8 56.9618 Q1582.29 53.7616 1577.27 53.7616 Q1571.23 53.7616 1567.75 57.6099 Q1564.26 61.4583 1564.26 68.1018 L1564.26 93.744 L1556.77 93.744 L1556.77 48.3739 L1564.26 48.3739 L1564.26 55.4224 Q1566.94 51.331 1570.54 49.3056 Q1574.19 47.2801 1578.93 47.2801 Q1586.75 47.2801 1590.76 52.1412 Q1594.77 56.9618 1594.77 66.3599 Z" fill="#000000" fill-rule="evenodd" fill-opacity="1" /><path clip-path="url(#clip980)" d="M1638.56 49.7107 L1638.56 56.7592 Q1635.4 55.1389 1632 54.3287 Q1628.59 53.5185 1624.95 53.5185 Q1619.4 53.5185 1616.6 55.2199 Q1613.85 56.9213 1613.85 60.324 Q1613.85 62.9166 1615.83 64.4155 Q1617.82 65.8738 1623.81 67.2106 L1626.36 67.7777 Q1634.3 69.4791 1637.63 72.5983 Q1640.99 75.677 1640.99 81.2267 Q1640.99 87.5461 1635.97 91.2324 Q1630.98 94.9188 1622.23 94.9188 Q1618.59 94.9188 1614.62 94.1896 Q1610.69 93.5009 1606.31 92.0831 L1606.31 84.3864 Q1610.44 86.5334 1614.46 87.6271 Q1618.47 88.6804 1622.4 88.6804 Q1627.66 88.6804 1630.5 86.898 Q1633.33 85.0751 1633.33 81.7938 Q1633.33 78.7557 1631.27 77.1353 Q1629.24 75.5149 1622.31 74.0161 L1619.72 73.4085 Q1612.79 71.9501 1609.72 68.9525 Q1606.64 65.9143 1606.64 60.6481 Q1606.64 54.2477 1611.17 50.7639 Q1615.71 47.2801 1624.06 47.2801 Q1628.19 47.2801 1631.83 47.8878 Q1635.48 48.4954 1638.56 49.7107 Z" fill="#000000" fill-rule="evenodd" fill-opacity="1" /><path clip-path="url(#clip980)" d="M1666.1 33.264 L1672.99 33.264 L1651.93 101.441 L1645.04 101.441 L1666.1 33.264 Z" fill="#000000" fill-rule="evenodd" fill-opacity="1" /><path clip-path="url(#clip980)" d="M1713.46 50.1158 L1713.46 57.0833 Q1710.3 55.3414 1707.1 54.4907 Q1703.94 53.5995 1700.7 53.5995 Q1693.45 53.5995 1689.44 58.2176 Q1685.43 62.7951 1685.43 71.0994 Q1685.43 79.4038 1689.44 84.0218 Q1693.45 88.5994 1700.7 88.5994 Q1703.94 88.5994 1707.1 87.7487 Q1710.3 86.8575 1713.46 85.1156 L1713.46 92.0021 Q1710.34 93.4604 1706.98 94.1896 Q1703.66 94.9188 1699.89 94.9188 Q1689.64 94.9188 1683.6 88.4778 Q1677.57 82.0369 1677.57 71.0994 Q1677.57 60 1683.64 53.64 Q1689.76 47.2801 1700.37 47.2801 Q1703.82 47.2801 1707.1 48.0093 Q1710.38 48.6979 1713.46 50.1158 Z" fill="#000000" fill-rule="evenodd" fill-opacity="1" /><path clip-path="url(#clip980)" d="M1747.04 70.9374 Q1738.01 70.9374 1734.52 73.0034 Q1731.04 75.0693 1731.04 80.0519 Q1731.04 84.0218 1733.63 86.3714 Q1736.27 88.6804 1740.76 88.6804 Q1746.96 88.6804 1750.69 84.3054 Q1754.45 79.8899 1754.45 72.5983 L1754.45 70.9374 L1747.04 70.9374 M1761.91 67.8587 L1761.91 93.744 L1754.45 93.744 L1754.45 86.8575 Q1751.9 90.9894 1748.09 92.9743 Q1744.29 94.9188 1738.78 94.9188 Q1731.81 94.9188 1727.68 91.0299 Q1723.59 87.1005 1723.59 80.5381 Q1723.59 72.8818 1728.69 68.993 Q1733.84 65.1041 1744 65.1041 L1754.45 65.1041 L1754.45 64.3749 Q1754.45 59.2303 1751.05 56.4352 Q1747.69 53.5995 1741.57 53.5995 Q1737.68 53.5995 1734 54.5312 Q1730.31 55.463 1726.91 57.3264 L1726.91 50.4398 Q1731 48.86 1734.85 48.0903 Q1738.7 47.2801 1742.34 47.2801 Q1752.19 47.2801 1757.05 52.3843 Q1761.91 57.4884 1761.91 67.8587 Z" fill="#000000" fill-rule="evenodd" fill-opacity="1" /><path clip-path="url(#clip980)" d="M1784.47 86.9385 L1784.47 111.001 L1776.98 111.001 L1776.98 48.3739 L1784.47 48.3739 L1784.47 55.2604 Q1786.82 51.2095 1790.39 49.2651 Q1793.99 47.2801 1798.97 47.2801 Q1807.24 47.2801 1812.38 53.8426 Q1817.57 60.4051 1817.57 71.0994 Q1817.57 81.7938 1812.38 88.3563 Q1807.24 94.9188 1798.97 94.9188 Q1793.99 94.9188 1790.39 92.9743 Q1786.82 90.9894 1784.47 86.9385 M1809.83 71.0994 Q1809.83 62.8761 1806.43 58.2176 Q1803.07 53.5185 1797.15 53.5185 Q1791.24 53.5185 1787.83 58.2176 Q1784.47 62.8761 1784.47 71.0994 Q1784.47 79.3228 1787.83 84.0218 Q1791.24 88.6804 1797.15 88.6804 Q1803.07 88.6804 1806.43 84.0218 Q1809.83 79.3228 1809.83 71.0994 Z" fill="#000000" fill-rule="evenodd" fill-opacity="1" /><path clip-path="url(#clip980)" d="M1829.92 48.3739 L1837.38 48.3739 L1837.38 93.744 L1829.92 93.744 L1829.92 48.3739 M1829.92 30.7119 L1837.38 30.7119 L1837.38 40.1505 L1829.92 40.1505 L1829.92 30.7119 Z" fill="#000000" fill-rule="evenodd" fill-opacity="1" /><path clip-path="url(#clip980)" d="M1860.35 35.492 L1860.35 48.3739 L1875.7 48.3739 L1875.7 54.1667 L1860.35 54.1667 L1860.35 78.7962 Q1860.35 84.3459 1861.84 85.9258 Q1863.38 87.5056 1868.04 87.5056 L1875.7 87.5056 L1875.7 93.744 L1868.04 93.744 Q1859.41 93.744 1856.13 90.5438 Q1852.85 87.3031 1852.85 78.7962 L1852.85 54.1667 L1847.38 54.1667 L1847.38 48.3739 L1852.85 48.3739 L1852.85 35.492 L1860.35 35.492 Z" fill="#000000" fill-rule="evenodd" fill-opacity="1" /><path clip-path="url(#clip980)" d="M1906.12 70.9374 Q1897.09 70.9374 1893.6 73.0034 Q1890.12 75.0693 1890.12 80.0519 Q1890.12 84.0218 1892.71 86.3714 Q1895.34 88.6804 1899.84 88.6804 Q1906.04 88.6804 1909.77 84.3054 Q1913.53 79.8899 1913.53 72.5983 L1913.53 70.9374 L1906.12 70.9374 M1920.99 67.8587 L1920.99 93.744 L1913.53 93.744 L1913.53 86.8575 Q1910.98 90.9894 1907.17 92.9743 Q1903.37 94.9188 1897.86 94.9188 Q1890.89 94.9188 1886.76 91.0299 Q1882.67 87.1005 1882.67 80.5381 Q1882.67 72.8818 1887.77 68.993 Q1892.91 65.1041 1903.08 65.1041 L1913.53 65.1041 L1913.53 64.3749 Q1913.53 59.2303 1910.13 56.4352 Q1906.77 53.5995 1900.65 53.5995 Q1896.76 53.5995 1893.08 54.5312 Q1889.39 55.463 1885.99 57.3264 L1885.99 50.4398 Q1890.08 48.86 1893.93 48.0903 Q1897.78 47.2801 1901.42 47.2801 Q1911.26 47.2801 1916.13 52.3843 Q1920.99 57.4884 1920.99 67.8587 Z" fill="#000000" fill-rule="evenodd" fill-opacity="1" /><path clip-path="url(#clip980)" d="M1935.17 30.7929 L1941.65 30.7929 Q1947.72 40.3531 1950.72 49.5081 Q1953.76 58.6632 1953.76 67.6967 Q1953.76 76.7707 1950.72 85.9663 Q1947.72 95.1618 1941.65 104.681 L1935.17 104.681 Q1940.55 95.4049 1943.19 86.2498 Q1945.86 77.0543 1945.86 67.6967 Q1945.86 58.3391 1943.19 49.2246 Q1940.55 40.11 1935.17 30.7929 Z" fill="#000000" fill-rule="evenodd" fill-opacity="1" /><path clip-path="url(#clip980)" d="M1039.81 177.577 L1068.37 177.577 L1068.37 184.464 L1029.97 184.464 L1029.97 177.577 Q1034.63 172.757 1042.65 164.655 Q1050.71 156.513 1052.78 154.163 Q1056.71 149.748 1058.25 146.71 Q1059.83 143.631 1059.83 140.674 Q1059.83 135.853 1056.42 132.815 Q1053.06 129.777 1047.63 129.777 Q1043.78 129.777 1039.49 131.114 Q1035.24 132.45 1030.38 135.164 L1030.38 126.901 Q1035.32 124.916 1039.61 123.903 Q1043.91 122.89 1047.47 122.89 Q1056.87 122.89 1062.46 127.589 Q1068.05 132.288 1068.05 140.147 Q1068.05 143.874 1066.63 147.236 Q1065.25 150.558 1061.57 155.095 Q1060.55 156.27 1055.13 161.9 Q1049.7 167.491 1039.81 177.577 Z" fill="#000000" fill-rule="evenodd" fill-opacity="1" /><path clip-path="url(#clip980)" d="M1103.05 129.372 Q1096.73 129.372 1093.53 135.61 Q1090.37 141.808 1090.37 154.285 Q1090.37 166.721 1093.53 172.959 Q1096.73 179.157 1103.05 179.157 Q1109.41 179.157 1112.57 172.959 Q1115.77 166.721 1115.77 154.285 Q1115.77 141.808 1112.57 135.61 Q1109.41 129.372 1103.05 129.372 M1103.05 122.89 Q1113.22 122.89 1118.56 130.952 Q1123.95 138.972 1123.95 154.285 Q1123.95 169.557 1118.56 177.618 Q1113.22 185.639 1103.05 185.639 Q1092.88 185.639 1087.49 177.618 Q1082.15 169.557 1082.15 154.285 Q1082.15 138.972 1087.49 130.952 Q1092.88 122.89 1103.05 122.89 Z" fill="#000000" fill-rule="evenodd" fill-opacity="1" /><path clip-path="url(#clip980)" d="M1139.75 177.577 L1153.12 177.577 L1153.12 131.438 L1138.58 134.354 L1138.58 126.901 L1153.04 123.984 L1161.22 123.984 L1161.22 177.577 L1174.59 177.577 L1174.59 184.464 L1139.75 184.464 L1139.75 177.577 Z" fill="#000000" fill-rule="evenodd" fill-opacity="1" /><path clip-path="url(#clip980)" d="M1189.05 123.984 L1227.94 123.984 L1227.94 127.468 L1205.98 184.464 L1197.43 184.464 L1218.09 130.871 L1189.05 130.871 L1189.05 123.984 Z" fill="#000000" fill-rule="evenodd" fill-opacity="1" /><path clip-path="url(#clip980)" d="M1239.08 158.417 L1260.91 158.417 L1260.91 165.06 L1239.08 165.06 L1239.08 158.417 Z" fill="#000000" fill-rule="evenodd" fill-opacity="1" /><path clip-path="url(#clip980)" d="M1280.88 177.577 L1309.44 177.577 L1309.44 184.464 L1271.04 184.464 L1271.04 177.577 Q1275.7 172.757 1283.72 164.655 Q1291.78 156.513 1293.85 154.163 Q1297.78 149.748 1299.32 146.71 Q1300.89 143.631 1300.89 140.674 Q1300.89 135.853 1297.49 132.815 Q1294.13 129.777 1288.7 129.777 Q1284.85 129.777 1280.56 131.114 Q1276.31 132.45 1271.44 135.164 L1271.44 126.901 Q1276.39 124.916 1280.68 123.903 Q1284.97 122.89 1288.54 122.89 Q1297.94 122.89 1303.53 127.589 Q1309.12 132.288 1309.12 140.147 Q1309.12 143.874 1307.7 147.236 Q1306.32 150.558 1302.64 155.095 Q1301.62 156.27 1296.2 161.9 Q1290.77 167.491 1280.88 177.577 Z" fill="#000000" fill-rule="evenodd" fill-opacity="1" /><path clip-path="url(#clip980)" d="M1344.12 129.372 Q1337.8 129.372 1334.6 135.61 Q1331.44 141.808 1331.44 154.285 Q1331.44 166.721 1334.6 172.959 Q1337.8 179.157 1344.12 179.157 Q1350.48 179.157 1353.64 172.959 Q1356.84 166.721 1356.84 154.285 Q1356.84 141.808 1353.64 135.61 Q1350.48 129.372 1344.12 129.372 M1344.12 122.89 Q1354.29 122.89 1359.63 130.952 Q1365.02 138.972 1365.02 154.285 Q1365.02 169.557 1359.63 177.618 Q1354.29 185.639 1344.12 185.639 Q1333.95 185.639 1328.56 177.618 Q1323.22 169.557 1323.22 154.285 Q1323.22 138.972 1328.56 130.952 Q1333.95 122.89 1344.12 122.89 Z" fill="#000000" fill-rule="evenodd" fill-opacity="1" /><path clip-path="url(#clip980)" d="M1380.82 177.577 L1394.19 177.577 L1394.19 131.438 L1379.64 134.354 L1379.64 126.901 L1394.11 123.984 L1402.29 123.984 L1402.29 177.577 L1415.66 177.577 L1415.66 184.464 L1380.82 184.464 L1380.82 177.577 Z" fill="#000000" fill-rule="evenodd" fill-opacity="1" /><path clip-path="url(#clip980)" d="M1432.43 183.208 L1432.43 175.755 Q1435.51 177.213 1438.67 177.983 Q1441.83 178.752 1444.86 178.752 Q1452.97 178.752 1457.22 173.324 Q1461.51 167.855 1462.12 156.756 Q1459.77 160.24 1456.17 162.103 Q1452.56 163.966 1448.19 163.966 Q1439.11 163.966 1433.81 158.498 Q1428.54 152.988 1428.54 143.469 Q1428.54 134.152 1434.05 128.521 Q1439.56 122.89 1448.71 122.89 Q1459.2 122.89 1464.71 130.952 Q1470.26 138.972 1470.26 154.285 Q1470.26 168.584 1463.46 177.132 Q1456.69 185.639 1445.23 185.639 Q1442.15 185.639 1438.99 185.031 Q1435.83 184.423 1432.43 183.208 M1448.71 157.566 Q1454.22 157.566 1457.42 153.799 Q1460.66 150.031 1460.66 143.469 Q1460.66 136.947 1457.42 133.18 Q1454.22 129.372 1448.71 129.372 Q1443.2 129.372 1439.96 133.18 Q1436.76 136.947 1436.76 143.469 Q1436.76 150.031 1439.96 153.799 Q1443.2 157.566 1448.71 157.566 Z" fill="#000000" fill-rule="evenodd" fill-opacity="1" /><circle clip-path="url(#clip982)" cx="1343.81" cy="1037.99" r="14.4" fill="#009af9" fill-rule="evenodd" fill-opacity="1" stroke="#000000" stroke-opacity="1" stroke-width="3.2"/>
<circle clip-path="url(#clip982)" cx="1139.88" cy="809.702" r="14.4" fill="#009af9" fill-rule="evenodd" fill-opacity="1" stroke="#000000" stroke-opacity="1" stroke-width="3.2"/>
<circle clip-path="url(#clip982)" cx="1085.26" cy="991.74" r="14.4" fill="#009af9" fill-rule="evenodd" fill-opacity="1" stroke="#000000" stroke-opacity="1" stroke-width="3.2"/>
<circle clip-path="url(#clip982)" cx="1709.02" cy="1257.57" r="14.4" fill="#009af9" fill-rule="evenodd" fill-opacity="1" stroke="#000000" stroke-opacity="1" stroke-width="3.2"/>
<circle clip-path="url(#clip982)" cx="1179.95" cy="1119.73" r="14.4" fill="#009af9" fill-rule="evenodd" fill-opacity="1" stroke="#000000" stroke-opacity="1" stroke-width="3.2"/>
<circle clip-path="url(#clip982)" cx="1050.63" cy="989.737" r="14.4" fill="#009af9" fill-rule="evenodd" fill-opacity="1" stroke="#000000" stroke-opacity="1" stroke-width="3.2"/>
<circle clip-path="url(#clip982)" cx="580.57" cy="767.237" r="14.4" fill="#009af9" fill-rule="evenodd" fill-opacity="1" stroke="#000000" stroke-opacity="1" stroke-width="3.2"/>
<circle clip-path="url(#clip982)" cx="1192.59" cy="392.26" r="14.4" fill="#009af9" fill-rule="evenodd" fill-opacity="1" stroke="#000000" stroke-opacity="1" stroke-width="3.2"/>
<circle clip-path="url(#clip982)" cx="216.549" cy="1073.06" r="14.4" fill="#009af9" fill-rule="evenodd" fill-opacity="1" stroke="#000000" stroke-opacity="1" stroke-width="3.2"/>
<circle clip-path="url(#clip982)" cx="1781.32" cy="1060.24" r="14.4" fill="#009af9" fill-rule="evenodd" fill-opacity="1" stroke="#000000" stroke-opacity="1" stroke-width="3.2"/>
<circle clip-path="url(#clip982)" cx="1684.71" cy="1352.4" r="14.4" fill="#009af9" fill-rule="evenodd" fill-opacity="1" stroke="#000000" stroke-opacity="1" stroke-width="3.2"/>
<circle clip-path="url(#clip982)" cx="1345.24" cy="859.643" r="14.4" fill="#009af9" fill-rule="evenodd" fill-opacity="1" stroke="#000000" stroke-opacity="1" stroke-width="3.2"/>
<circle clip-path="url(#clip982)" cx="833.178" cy="1338.41" r="14.4" fill="#009af9" fill-rule="evenodd" fill-opacity="1" stroke="#000000" stroke-opacity="1" stroke-width="3.2"/>
<circle clip-path="url(#clip982)" cx="1278.47" cy="435.981" r="14.4" fill="#009af9" fill-rule="evenodd" fill-opacity="1" stroke="#000000" stroke-opacity="1" stroke-width="3.2"/>
<circle clip-path="url(#clip982)" cx="1259.85" cy="612.475" r="14.4" fill="#009af9" fill-rule="evenodd" fill-opacity="1" stroke="#000000" stroke-opacity="1" stroke-width="3.2"/>
<circle clip-path="url(#clip982)" cx="1619.95" cy="1329.48" r="14.4" fill="#009af9" fill-rule="evenodd" fill-opacity="1" stroke="#000000" stroke-opacity="1" stroke-width="3.2"/>
<circle clip-path="url(#clip982)" cx="1357.66" cy="1314.78" r="14.4" fill="#009af9" fill-rule="evenodd" fill-opacity="1" stroke="#000000" stroke-opacity="1" stroke-width="3.2"/>
<circle clip-path="url(#clip982)" cx="1532.69" cy="1207.78" r="14.4" fill="#009af9" fill-rule="evenodd" fill-opacity="1" stroke="#000000" stroke-opacity="1" stroke-width="3.2"/>
<circle clip-path="url(#clip982)" cx="1259.4" cy="1152.89" r="14.4" fill="#009af9" fill-rule="evenodd" fill-opacity="1" stroke="#000000" stroke-opacity="1" stroke-width="3.2"/>
<circle clip-path="url(#clip982)" cx="1144.64" cy="625.513" r="14.4" fill="#009af9" fill-rule="evenodd" fill-opacity="1" stroke="#000000" stroke-opacity="1" stroke-width="3.2"/>
<circle clip-path="url(#clip982)" cx="677.375" cy="785.212" r="14.4" fill="#009af9" fill-rule="evenodd" fill-opacity="1" stroke="#000000" stroke-opacity="1" stroke-width="3.2"/>
<circle clip-path="url(#clip982)" cx="1141.21" cy="1302.84" r="14.4" fill="#009af9" fill-rule="evenodd" fill-opacity="1" stroke="#000000" stroke-opacity="1" stroke-width="3.2"/>
<circle clip-path="url(#clip982)" cx="971.406" cy="1016.16" r="14.4" fill="#009af9" fill-rule="evenodd" fill-opacity="1" stroke="#000000" stroke-opacity="1" stroke-width="3.2"/>
<circle clip-path="url(#clip982)" cx="1751.88" cy="1157.36" r="14.4" fill="#009af9" fill-rule="evenodd" fill-opacity="1" stroke="#000000" stroke-opacity="1" stroke-width="3.2"/>
<circle clip-path="url(#clip982)" cx="1547.29" cy="1147.89" r="14.4" fill="#009af9" fill-rule="evenodd" fill-opacity="1" stroke="#000000" stroke-opacity="1" stroke-width="3.2"/>
<circle clip-path="url(#clip982)" cx="1289.58" cy="995.258" r="14.4" fill="#009af9" fill-rule="evenodd" fill-opacity="1" stroke="#000000" stroke-opacity="1" stroke-width="3.2"/>
<circle clip-path="url(#clip982)" cx="1504.22" cy="1256.41" r="14.4" fill="#009af9" fill-rule="evenodd" fill-opacity="1" stroke="#000000" stroke-opacity="1" stroke-width="3.2"/>
<circle clip-path="url(#clip982)" cx="1347.82" cy="326.752" r="14.4" fill="#009af9" fill-rule="evenodd" fill-opacity="1" stroke="#000000" stroke-opacity="1" stroke-width="3.2"/>
<circle clip-path="url(#clip982)" cx="1393" cy="1182.79" r="14.4" fill="#009af9" fill-rule="evenodd" fill-opacity="1" stroke="#000000" stroke-opacity="1" stroke-width="3.2"/>
<circle clip-path="url(#clip982)" cx="1281.01" cy="1087.95" r="14.4" fill="#009af9" fill-rule="evenodd" fill-opacity="1" stroke="#000000" stroke-opacity="1" stroke-width="3.2"/>
<circle clip-path="url(#clip982)" cx="1128" cy="1250.11" r="14.4" fill="#009af9" fill-rule="evenodd" fill-opacity="1" stroke="#000000" stroke-opacity="1" stroke-width="3.2"/>
<circle clip-path="url(#clip982)" cx="1735.38" cy="1225.29" r="14.4" fill="#009af9" fill-rule="evenodd" fill-opacity="1" stroke="#000000" stroke-opacity="1" stroke-width="3.2"/>
<circle clip-path="url(#clip982)" cx="1101.37" cy="1109.07" r="14.4" fill="#009af9" fill-rule="evenodd" fill-opacity="1" stroke="#000000" stroke-opacity="1" stroke-width="3.2"/>
<circle clip-path="url(#clip982)" cx="1412.09" cy="1315.41" r="14.4" fill="#009af9" fill-rule="evenodd" fill-opacity="1" stroke="#000000" stroke-opacity="1" stroke-width="3.2"/>
<circle clip-path="url(#clip982)" cx="731.913" cy="821.416" r="14.4" fill="#009af9" fill-rule="evenodd" fill-opacity="1" stroke="#000000" stroke-opacity="1" stroke-width="3.2"/>
<circle clip-path="url(#clip982)" cx="738.996" cy="919.171" r="14.4" fill="#009af9" fill-rule="evenodd" fill-opacity="1" stroke="#000000" stroke-opacity="1" stroke-width="3.2"/>
<circle clip-path="url(#clip982)" cx="1377.74" cy="912.144" r="14.4" fill="#009af9" fill-rule="evenodd" fill-opacity="1" stroke="#000000" stroke-opacity="1" stroke-width="3.2"/>
<circle clip-path="url(#clip982)" cx="1520.5" cy="1449.58" r="14.4" fill="#009af9" fill-rule="evenodd" fill-opacity="1" stroke="#000000" stroke-opacity="1" stroke-width="3.2"/>
<circle clip-path="url(#clip982)" cx="1280.85" cy="868.139" r="14.4" fill="#009af9" fill-rule="evenodd" fill-opacity="1" stroke="#000000" stroke-opacity="1" stroke-width="3.2"/>
<circle clip-path="url(#clip982)" cx="860.641" cy="852.635" r="14.4" fill="#009af9" fill-rule="evenodd" fill-opacity="1" stroke="#000000" stroke-opacity="1" stroke-width="3.2"/>
<circle clip-path="url(#clip982)" cx="1709.56" cy="1112.53" r="14.4" fill="#009af9" fill-rule="evenodd" fill-opacity="1" stroke="#000000" stroke-opacity="1" stroke-width="3.2"/>
<circle clip-path="url(#clip982)" cx="1644.48" cy="1049.46" r="14.4" fill="#009af9" fill-rule="evenodd" fill-opacity="1" stroke="#000000" stroke-opacity="1" stroke-width="3.2"/>
<circle clip-path="url(#clip982)" cx="1823.23" cy="998.169" r="14.4" fill="#009af9" fill-rule="evenodd" fill-opacity="1" stroke="#000000" stroke-opacity="1" stroke-width="3.2"/>
<circle clip-path="url(#clip982)" cx="1180.56" cy="981.721" r="14.4" fill="#009af9" fill-rule="evenodd" fill-opacity="1" stroke="#000000" stroke-opacity="1" stroke-width="3.2"/>
<circle clip-path="url(#clip982)" cx="701.809" cy="1266.51" r="14.4" fill="#009af9" fill-rule="evenodd" fill-opacity="1" stroke="#000000" stroke-opacity="1" stroke-width="3.2"/>
<circle clip-path="url(#clip982)" cx="1706.94" cy="1352.99" r="14.4" fill="#009af9" fill-rule="evenodd" fill-opacity="1" stroke="#000000" stroke-opacity="1" stroke-width="3.2"/>
<circle clip-path="url(#clip982)" cx="1292.57" cy="675.311" r="14.4" fill="#009af9" fill-rule="evenodd" fill-opacity="1" stroke="#000000" stroke-opacity="1" stroke-width="3.2"/>
<circle clip-path="url(#clip982)" cx="601.067" cy="713.356" r="14.4" fill="#009af9" fill-rule="evenodd" fill-opacity="1" stroke="#000000" stroke-opacity="1" stroke-width="3.2"/>
<circle clip-path="url(#clip982)" cx="691.63" cy="1274.15" r="14.4" fill="#009af9" fill-rule="evenodd" fill-opacity="1" stroke="#000000" stroke-opacity="1" stroke-width="3.2"/>
<circle clip-path="url(#clip982)" cx="1507.83" cy="694.854" r="14.4" fill="#009af9" fill-rule="evenodd" fill-opacity="1" stroke="#000000" stroke-opacity="1" stroke-width="3.2"/>
<circle clip-path="url(#clip982)" cx="699.906" cy="1143.61" r="14.4" fill="#009af9" fill-rule="evenodd" fill-opacity="1" stroke="#000000" stroke-opacity="1" stroke-width="3.2"/>
<circle clip-path="url(#clip982)" cx="1342.9" cy="679.498" r="14.4" fill="#009af9" fill-rule="evenodd" fill-opacity="1" stroke="#000000" stroke-opacity="1" stroke-width="3.2"/>
<circle clip-path="url(#clip982)" cx="1330.72" cy="220.815" r="14.4" fill="#009af9" fill-rule="evenodd" fill-opacity="1" stroke="#000000" stroke-opacity="1" stroke-width="3.2"/>
<circle clip-path="url(#clip982)" cx="1797.16" cy="1149.95" r="14.4" fill="#009af9" fill-rule="evenodd" fill-opacity="1" stroke="#000000" stroke-opacity="1" stroke-width="3.2"/>
<circle clip-path="url(#clip982)" cx="1086.92" cy="1130.9" r="14.4" fill="#009af9" fill-rule="evenodd" fill-opacity="1" stroke="#000000" stroke-opacity="1" stroke-width="3.2"/>
<circle clip-path="url(#clip982)" cx="1443.69" cy="1226.24" r="14.4" fill="#009af9" fill-rule="evenodd" fill-opacity="1" stroke="#000000" stroke-opacity="1" stroke-width="3.2"/>
<circle clip-path="url(#clip982)" cx="1606.82" cy="1175.34" r="14.4" fill="#009af9" fill-rule="evenodd" fill-opacity="1" stroke="#000000" stroke-opacity="1" stroke-width="3.2"/>
<circle clip-path="url(#clip982)" cx="1463.15" cy="935.339" r="14.4" fill="#009af9" fill-rule="evenodd" fill-opacity="1" stroke="#000000" stroke-opacity="1" stroke-width="3.2"/>
<circle clip-path="url(#clip982)" cx="1255.8" cy="773.739" r="14.4" fill="#009af9" fill-rule="evenodd" fill-opacity="1" stroke="#000000" stroke-opacity="1" stroke-width="3.2"/>
<circle clip-path="url(#clip982)" cx="1782" cy="703.104" r="14.4" fill="#009af9" fill-rule="evenodd" fill-opacity="1" stroke="#000000" stroke-opacity="1" stroke-width="3.2"/>
<circle clip-path="url(#clip982)" cx="2290.34" cy="810.542" r="14.4" fill="#009af9" fill-rule="evenodd" fill-opacity="1" stroke="#000000" stroke-opacity="1" stroke-width="3.2"/>
<circle clip-path="url(#clip982)" cx="1344.09" cy="1007.24" r="14.4" fill="#009af9" fill-rule="evenodd" fill-opacity="1" stroke="#000000" stroke-opacity="1" stroke-width="3.2"/>
<circle clip-path="url(#clip982)" cx="1136.31" cy="804.689" r="14.4" fill="#009af9" fill-rule="evenodd" fill-opacity="1" stroke="#000000" stroke-opacity="1" stroke-width="3.2"/>
<circle clip-path="url(#clip982)" cx="1087.44" cy="1070.14" r="14.4" fill="#009af9" fill-rule="evenodd" fill-opacity="1" stroke="#000000" stroke-opacity="1" stroke-width="3.2"/>
<circle clip-path="url(#clip982)" cx="1414.46" cy="1231.49" r="14.4" fill="#009af9" fill-rule="evenodd" fill-opacity="1" stroke="#000000" stroke-opacity="1" stroke-width="3.2"/>
<circle clip-path="url(#clip982)" cx="1706.7" cy="1210.15" r="14.4" fill="#009af9" fill-rule="evenodd" fill-opacity="1" stroke="#000000" stroke-opacity="1" stroke-width="3.2"/>
<circle clip-path="url(#clip982)" cx="1183.68" cy="1144.34" r="14.4" fill="#009af9" fill-rule="evenodd" fill-opacity="1" stroke="#000000" stroke-opacity="1" stroke-width="3.2"/>
<circle clip-path="url(#clip982)" cx="1050.94" cy="1003.81" r="14.4" fill="#009af9" fill-rule="evenodd" fill-opacity="1" stroke="#000000" stroke-opacity="1" stroke-width="3.2"/>
<circle clip-path="url(#clip982)" cx="574.347" cy="836.272" r="14.4" fill="#009af9" fill-rule="evenodd" fill-opacity="1" stroke="#000000" stroke-opacity="1" stroke-width="3.2"/>
<circle clip-path="url(#clip982)" cx="1189.31" cy="425.105" r="14.4" fill="#009af9" fill-rule="evenodd" fill-opacity="1" stroke="#000000" stroke-opacity="1" stroke-width="3.2"/>
<circle clip-path="url(#clip982)" cx="1681.53" cy="1329.29" r="14.4" fill="#009af9" fill-rule="evenodd" fill-opacity="1" stroke="#000000" stroke-opacity="1" stroke-width="3.2"/>
<circle clip-path="url(#clip982)" cx="830.753" cy="1354.02" r="14.4" fill="#009af9" fill-rule="evenodd" fill-opacity="1" stroke="#000000" stroke-opacity="1" stroke-width="3.2"/>
<circle clip-path="url(#clip982)" cx="1270.87" cy="433.673" r="14.4" fill="#009af9" fill-rule="evenodd" fill-opacity="1" stroke="#000000" stroke-opacity="1" stroke-width="3.2"/>
<circle clip-path="url(#clip982)" cx="1255.89" cy="621.932" r="14.4" fill="#009af9" fill-rule="evenodd" fill-opacity="1" stroke="#000000" stroke-opacity="1" stroke-width="3.2"/>
<circle clip-path="url(#clip982)" cx="1616.36" cy="1152.59" r="14.4" fill="#009af9" fill-rule="evenodd" fill-opacity="1" stroke="#000000" stroke-opacity="1" stroke-width="3.2"/>
<circle clip-path="url(#clip982)" cx="1531.29" cy="1215.99" r="14.4" fill="#009af9" fill-rule="evenodd" fill-opacity="1" stroke="#000000" stroke-opacity="1" stroke-width="3.2"/>
<circle clip-path="url(#clip982)" cx="1257.22" cy="1202.02" r="14.4" fill="#009af9" fill-rule="evenodd" fill-opacity="1" stroke="#000000" stroke-opacity="1" stroke-width="3.2"/>
<circle clip-path="url(#clip982)" cx="1140.02" cy="658.931" r="14.4" fill="#009af9" fill-rule="evenodd" fill-opacity="1" stroke="#000000" stroke-opacity="1" stroke-width="3.2"/>
<circle clip-path="url(#clip982)" cx="670.729" cy="783.226" r="14.4" fill="#009af9" fill-rule="evenodd" fill-opacity="1" stroke="#000000" stroke-opacity="1" stroke-width="3.2"/>
<circle clip-path="url(#clip982)" cx="1140.02" cy="1317.85" r="14.4" fill="#009af9" fill-rule="evenodd" fill-opacity="1" stroke="#000000" stroke-opacity="1" stroke-width="3.2"/>
<circle clip-path="url(#clip982)" cx="970.304" cy="1025.09" r="14.4" fill="#009af9" fill-rule="evenodd" fill-opacity="1" stroke="#000000" stroke-opacity="1" stroke-width="3.2"/>
<circle clip-path="url(#clip982)" cx="1751.14" cy="1098.67" r="14.4" fill="#009af9" fill-rule="evenodd" fill-opacity="1" stroke="#000000" stroke-opacity="1" stroke-width="3.2"/>
<circle clip-path="url(#clip982)" cx="1546.39" cy="1158.53" r="14.4" fill="#009af9" fill-rule="evenodd" fill-opacity="1" stroke="#000000" stroke-opacity="1" stroke-width="3.2"/>
<circle clip-path="url(#clip982)" cx="1289.51" cy="1000.56" r="14.4" fill="#009af9" fill-rule="evenodd" fill-opacity="1" stroke="#000000" stroke-opacity="1" stroke-width="3.2"/>
<circle clip-path="url(#clip982)" cx="1506.57" cy="1221.72" r="14.4" fill="#009af9" fill-rule="evenodd" fill-opacity="1" stroke="#000000" stroke-opacity="1" stroke-width="3.2"/>
<circle clip-path="url(#clip982)" cx="1340.68" cy="339.083" r="14.4" fill="#009af9" fill-rule="evenodd" fill-opacity="1" stroke="#000000" stroke-opacity="1" stroke-width="3.2"/>
<circle clip-path="url(#clip982)" cx="1396.23" cy="1334.74" r="14.4" fill="#009af9" fill-rule="evenodd" fill-opacity="1" stroke="#000000" stroke-opacity="1" stroke-width="3.2"/>
<circle clip-path="url(#clip982)" cx="1281.83" cy="1234.58" r="14.4" fill="#009af9" fill-rule="evenodd" fill-opacity="1" stroke="#000000" stroke-opacity="1" stroke-width="3.2"/>
<circle clip-path="url(#clip982)" cx="1122.76" cy="1253.11" r="14.4" fill="#009af9" fill-rule="evenodd" fill-opacity="1" stroke="#000000" stroke-opacity="1" stroke-width="3.2"/>
<circle clip-path="url(#clip982)" cx="1110.95" cy="1027.37" r="14.4" fill="#009af9" fill-rule="evenodd" fill-opacity="1" stroke="#000000" stroke-opacity="1" stroke-width="3.2"/>
<circle clip-path="url(#clip982)" cx="1094.06" cy="1127.15" r="14.4" fill="#009af9" fill-rule="evenodd" fill-opacity="1" stroke="#000000" stroke-opacity="1" stroke-width="3.2"/>
<circle clip-path="url(#clip982)" cx="1412.99" cy="1325.87" r="14.4" fill="#009af9" fill-rule="evenodd" fill-opacity="1" stroke="#000000" stroke-opacity="1" stroke-width="3.2"/>
<circle clip-path="url(#clip982)" cx="732.132" cy="945.226" r="14.4" fill="#009af9" fill-rule="evenodd" fill-opacity="1" stroke="#000000" stroke-opacity="1" stroke-width="3.2"/>
<circle clip-path="url(#clip982)" cx="1381.86" cy="929.534" r="14.4" fill="#009af9" fill-rule="evenodd" fill-opacity="1" stroke="#000000" stroke-opacity="1" stroke-width="3.2"/>
<circle clip-path="url(#clip982)" cx="1512.63" cy="1361.75" r="14.4" fill="#009af9" fill-rule="evenodd" fill-opacity="1" stroke="#000000" stroke-opacity="1" stroke-width="3.2"/>
<circle clip-path="url(#clip982)" cx="1284.86" cy="857.228" r="14.4" fill="#009af9" fill-rule="evenodd" fill-opacity="1" stroke="#000000" stroke-opacity="1" stroke-width="3.2"/>
<circle clip-path="url(#clip982)" cx="866.05" cy="810.853" r="14.4" fill="#009af9" fill-rule="evenodd" fill-opacity="1" stroke="#000000" stroke-opacity="1" stroke-width="3.2"/>
<circle clip-path="url(#clip982)" cx="1390.84" cy="400.13" r="14.4" fill="#009af9" fill-rule="evenodd" fill-opacity="1" stroke="#000000" stroke-opacity="1" stroke-width="3.2"/>
<circle clip-path="url(#clip982)" cx="1709.29" cy="1163.51" r="14.4" fill="#009af9" fill-rule="evenodd" fill-opacity="1" stroke="#000000" stroke-opacity="1" stroke-width="3.2"/>
<circle clip-path="url(#clip982)" cx="1634.12" cy="1114.25" r="14.4" fill="#009af9" fill-rule="evenodd" fill-opacity="1" stroke="#000000" stroke-opacity="1" stroke-width="3.2"/>
<circle clip-path="url(#clip982)" cx="1823.79" cy="1014.09" r="14.4" fill="#009af9" fill-rule="evenodd" fill-opacity="1" stroke="#000000" stroke-opacity="1" stroke-width="3.2"/>
<circle clip-path="url(#clip982)" cx="1156.8" cy="769.209" r="14.4" fill="#009af9" fill-rule="evenodd" fill-opacity="1" stroke="#000000" stroke-opacity="1" stroke-width="3.2"/>
<circle clip-path="url(#clip982)" cx="699.855" cy="1333.4" r="14.4" fill="#009af9" fill-rule="evenodd" fill-opacity="1" stroke="#000000" stroke-opacity="1" stroke-width="3.2"/>
<circle clip-path="url(#clip982)" cx="1704.02" cy="1381.44" r="14.4" fill="#009af9" fill-rule="evenodd" fill-opacity="1" stroke="#000000" stroke-opacity="1" stroke-width="3.2"/>
<circle clip-path="url(#clip982)" cx="1552.99" cy="889.027" r="14.4" fill="#009af9" fill-rule="evenodd" fill-opacity="1" stroke="#000000" stroke-opacity="1" stroke-width="3.2"/>
<circle clip-path="url(#clip982)" cx="1285.51" cy="665.352" r="14.4" fill="#009af9" fill-rule="evenodd" fill-opacity="1" stroke="#000000" stroke-opacity="1" stroke-width="3.2"/>
<circle clip-path="url(#clip982)" cx="594.705" cy="720.362" r="14.4" fill="#009af9" fill-rule="evenodd" fill-opacity="1" stroke="#000000" stroke-opacity="1" stroke-width="3.2"/>
<circle clip-path="url(#clip982)" cx="829.682" cy="811.212" r="14.4" fill="#009af9" fill-rule="evenodd" fill-opacity="1" stroke="#000000" stroke-opacity="1" stroke-width="3.2"/>
<circle clip-path="url(#clip982)" cx="691.612" cy="1282.57" r="14.4" fill="#009af9" fill-rule="evenodd" fill-opacity="1" stroke="#000000" stroke-opacity="1" stroke-width="3.2"/>
<circle clip-path="url(#clip982)" cx="1502.07" cy="718.267" r="14.4" fill="#009af9" fill-rule="evenodd" fill-opacity="1" stroke="#000000" stroke-opacity="1" stroke-width="3.2"/>
<circle clip-path="url(#clip982)" cx="701.753" cy="1147.24" r="14.4" fill="#009af9" fill-rule="evenodd" fill-opacity="1" stroke="#000000" stroke-opacity="1" stroke-width="3.2"/>
<circle clip-path="url(#clip982)" cx="1342.16" cy="704.897" r="14.4" fill="#009af9" fill-rule="evenodd" fill-opacity="1" stroke="#000000" stroke-opacity="1" stroke-width="3.2"/>
<circle clip-path="url(#clip982)" cx="1329.86" cy="261.379" r="14.4" fill="#009af9" fill-rule="evenodd" fill-opacity="1" stroke="#000000" stroke-opacity="1" stroke-width="3.2"/>
<circle clip-path="url(#clip982)" cx="1798.86" cy="1116.09" r="14.4" fill="#009af9" fill-rule="evenodd" fill-opacity="1" stroke="#000000" stroke-opacity="1" stroke-width="3.2"/>
<circle clip-path="url(#clip982)" cx="1086.35" cy="1173.13" r="14.4" fill="#009af9" fill-rule="evenodd" fill-opacity="1" stroke="#000000" stroke-opacity="1" stroke-width="3.2"/>
<circle clip-path="url(#clip982)" cx="1442.15" cy="1378.22" r="14.4" fill="#009af9" fill-rule="evenodd" fill-opacity="1" stroke="#000000" stroke-opacity="1" stroke-width="3.2"/>
<circle clip-path="url(#clip982)" cx="1602.55" cy="1188.51" r="14.4" fill="#009af9" fill-rule="evenodd" fill-opacity="1" stroke="#000000" stroke-opacity="1" stroke-width="3.2"/>
<circle clip-path="url(#clip982)" cx="874.011" cy="686.496" r="14.4" fill="#009af9" fill-rule="evenodd" fill-opacity="1" stroke="#000000" stroke-opacity="1" stroke-width="3.2"/>
<circle clip-path="url(#clip982)" cx="1459.35" cy="976.698" r="14.4" fill="#009af9" fill-rule="evenodd" fill-opacity="1" stroke="#000000" stroke-opacity="1" stroke-width="3.2"/>
<circle clip-path="url(#clip982)" cx="1781.19" cy="609.972" r="14.4" fill="#009af9" fill-rule="evenodd" fill-opacity="1" stroke="#000000" stroke-opacity="1" stroke-width="3.2"/>
<circle clip-path="url(#clip982)" cx="2287.24" cy="825.284" r="14.4" fill="#009af9" fill-rule="evenodd" fill-opacity="1" stroke="#000000" stroke-opacity="1" stroke-width="3.2"/>
<circle clip-path="url(#clip982)" cx="1344.48" cy="1010.63" r="14.4" fill="#009af9" fill-rule="evenodd" fill-opacity="1" stroke="#000000" stroke-opacity="1" stroke-width="3.2"/>
<circle clip-path="url(#clip982)" cx="1133.17" cy="814.989" r="14.4" fill="#009af9" fill-rule="evenodd" fill-opacity="1" stroke="#000000" stroke-opacity="1" stroke-width="3.2"/>
<circle clip-path="url(#clip982)" cx="1089.73" cy="979.241" r="14.4" fill="#009af9" fill-rule="evenodd" fill-opacity="1" stroke="#000000" stroke-opacity="1" stroke-width="3.2"/>
<circle clip-path="url(#clip982)" cx="1704.99" cy="1237.32" r="14.4" fill="#009af9" fill-rule="evenodd" fill-opacity="1" stroke="#000000" stroke-opacity="1" stroke-width="3.2"/>
<circle clip-path="url(#clip982)" cx="1187.47" cy="1166.56" r="14.4" fill="#009af9" fill-rule="evenodd" fill-opacity="1" stroke="#000000" stroke-opacity="1" stroke-width="3.2"/>
<circle clip-path="url(#clip982)" cx="1051.68" cy="1004.43" r="14.4" fill="#009af9" fill-rule="evenodd" fill-opacity="1" stroke="#000000" stroke-opacity="1" stroke-width="3.2"/>
<circle clip-path="url(#clip982)" cx="568.26" cy="746.55" r="14.4" fill="#009af9" fill-rule="evenodd" fill-opacity="1" stroke="#000000" stroke-opacity="1" stroke-width="3.2"/>
<circle clip-path="url(#clip982)" cx="1186.02" cy="483.697" r="14.4" fill="#009af9" fill-rule="evenodd" fill-opacity="1" stroke="#000000" stroke-opacity="1" stroke-width="3.2"/>
<circle clip-path="url(#clip982)" cx="1262.79" cy="448.031" r="14.4" fill="#009af9" fill-rule="evenodd" fill-opacity="1" stroke="#000000" stroke-opacity="1" stroke-width="3.2"/>
<circle clip-path="url(#clip982)" cx="1252.12" cy="633.181" r="14.4" fill="#009af9" fill-rule="evenodd" fill-opacity="1" stroke="#000000" stroke-opacity="1" stroke-width="3.2"/>
<circle clip-path="url(#clip982)" cx="1612.92" cy="1154.57" r="14.4" fill="#009af9" fill-rule="evenodd" fill-opacity="1" stroke="#000000" stroke-opacity="1" stroke-width="3.2"/>
<circle clip-path="url(#clip982)" cx="1357.4" cy="1223.74" r="14.4" fill="#009af9" fill-rule="evenodd" fill-opacity="1" stroke="#000000" stroke-opacity="1" stroke-width="3.2"/>
<circle clip-path="url(#clip982)" cx="1255.17" cy="1172.6" r="14.4" fill="#009af9" fill-rule="evenodd" fill-opacity="1" stroke="#000000" stroke-opacity="1" stroke-width="3.2"/>
<circle clip-path="url(#clip982)" cx="1135.49" cy="671.038" r="14.4" fill="#009af9" fill-rule="evenodd" fill-opacity="1" stroke="#000000" stroke-opacity="1" stroke-width="3.2"/>
<circle clip-path="url(#clip982)" cx="661.75" cy="746.298" r="14.4" fill="#009af9" fill-rule="evenodd" fill-opacity="1" stroke="#000000" stroke-opacity="1" stroke-width="3.2"/>
<circle clip-path="url(#clip982)" cx="1137.53" cy="1285.68" r="14.4" fill="#009af9" fill-rule="evenodd" fill-opacity="1" stroke="#000000" stroke-opacity="1" stroke-width="3.2"/>
<circle clip-path="url(#clip982)" cx="968.524" cy="1072.57" r="14.4" fill="#009af9" fill-rule="evenodd" fill-opacity="1" stroke="#000000" stroke-opacity="1" stroke-width="3.2"/>
<circle clip-path="url(#clip982)" cx="1750.78" cy="1093.43" r="14.4" fill="#009af9" fill-rule="evenodd" fill-opacity="1" stroke="#000000" stroke-opacity="1" stroke-width="3.2"/>
<circle clip-path="url(#clip982)" cx="1289.49" cy="1034.88" r="14.4" fill="#009af9" fill-rule="evenodd" fill-opacity="1" stroke="#000000" stroke-opacity="1" stroke-width="3.2"/>
<circle clip-path="url(#clip982)" cx="1508.79" cy="1276.92" r="14.4" fill="#009af9" fill-rule="evenodd" fill-opacity="1" stroke="#000000" stroke-opacity="1" stroke-width="3.2"/>
<circle clip-path="url(#clip982)" cx="1333.67" cy="321.151" r="14.4" fill="#009af9" fill-rule="evenodd" fill-opacity="1" stroke="#000000" stroke-opacity="1" stroke-width="3.2"/>
<circle clip-path="url(#clip982)" cx="1399.34" cy="1257.72" r="14.4" fill="#009af9" fill-rule="evenodd" fill-opacity="1" stroke="#000000" stroke-opacity="1" stroke-width="3.2"/>
<circle clip-path="url(#clip982)" cx="1282.08" cy="1304.41" r="14.4" fill="#009af9" fill-rule="evenodd" fill-opacity="1" stroke="#000000" stroke-opacity="1" stroke-width="3.2"/>
<circle clip-path="url(#clip982)" cx="725.29" cy="1012.23" r="14.4" fill="#009af9" fill-rule="evenodd" fill-opacity="1" stroke="#000000" stroke-opacity="1" stroke-width="3.2"/>
<circle clip-path="url(#clip982)" cx="1385.85" cy="922.154" r="14.4" fill="#009af9" fill-rule="evenodd" fill-opacity="1" stroke="#000000" stroke-opacity="1" stroke-width="3.2"/>
<circle clip-path="url(#clip982)" cx="1504.52" cy="1300.09" r="14.4" fill="#009af9" fill-rule="evenodd" fill-opacity="1" stroke="#000000" stroke-opacity="1" stroke-width="3.2"/>
<circle clip-path="url(#clip982)" cx="1289.03" cy="881.676" r="14.4" fill="#009af9" fill-rule="evenodd" fill-opacity="1" stroke="#000000" stroke-opacity="1" stroke-width="3.2"/>
<circle clip-path="url(#clip982)" cx="870.759" cy="883.082" r="14.4" fill="#009af9" fill-rule="evenodd" fill-opacity="1" stroke="#000000" stroke-opacity="1" stroke-width="3.2"/>
<circle clip-path="url(#clip982)" cx="943.457" cy="1316.85" r="14.4" fill="#009af9" fill-rule="evenodd" fill-opacity="1" stroke="#000000" stroke-opacity="1" stroke-width="3.2"/>
<circle clip-path="url(#clip982)" cx="1623.88" cy="1198.58" r="14.4" fill="#009af9" fill-rule="evenodd" fill-opacity="1" stroke="#000000" stroke-opacity="1" stroke-width="3.2"/>
<circle clip-path="url(#clip982)" cx="698.026" cy="1314.04" r="14.4" fill="#009af9" fill-rule="evenodd" fill-opacity="1" stroke="#000000" stroke-opacity="1" stroke-width="3.2"/>
<circle clip-path="url(#clip982)" cx="1701.48" cy="1356.12" r="14.4" fill="#009af9" fill-rule="evenodd" fill-opacity="1" stroke="#000000" stroke-opacity="1" stroke-width="3.2"/>
<circle clip-path="url(#clip982)" cx="1278.7" cy="643.508" r="14.4" fill="#009af9" fill-rule="evenodd" fill-opacity="1" stroke="#000000" stroke-opacity="1" stroke-width="3.2"/>
<circle clip-path="url(#clip982)" cx="1575.28" cy="1238.33" r="14.4" fill="#009af9" fill-rule="evenodd" fill-opacity="1" stroke="#000000" stroke-opacity="1" stroke-width="3.2"/>
<circle clip-path="url(#clip982)" cx="1496.46" cy="695.741" r="14.4" fill="#009af9" fill-rule="evenodd" fill-opacity="1" stroke="#000000" stroke-opacity="1" stroke-width="3.2"/>
<circle clip-path="url(#clip982)" cx="703.783" cy="1151.84" r="14.4" fill="#009af9" fill-rule="evenodd" fill-opacity="1" stroke="#000000" stroke-opacity="1" stroke-width="3.2"/>
<circle clip-path="url(#clip982)" cx="1341.76" cy="720.733" r="14.4" fill="#009af9" fill-rule="evenodd" fill-opacity="1" stroke="#000000" stroke-opacity="1" stroke-width="3.2"/>
<circle clip-path="url(#clip982)" cx="1329.44" cy="340.612" r="14.4" fill="#009af9" fill-rule="evenodd" fill-opacity="1" stroke="#000000" stroke-opacity="1" stroke-width="3.2"/>
<circle clip-path="url(#clip982)" cx="1800.62" cy="1158.28" r="14.4" fill="#009af9" fill-rule="evenodd" fill-opacity="1" stroke="#000000" stroke-opacity="1" stroke-width="3.2"/>
<circle clip-path="url(#clip982)" cx="1085.81" cy="1125.23" r="14.4" fill="#009af9" fill-rule="evenodd" fill-opacity="1" stroke="#000000" stroke-opacity="1" stroke-width="3.2"/>
<circle clip-path="url(#clip982)" cx="1440.73" cy="1379.03" r="14.4" fill="#009af9" fill-rule="evenodd" fill-opacity="1" stroke="#000000" stroke-opacity="1" stroke-width="3.2"/>
<circle clip-path="url(#clip982)" cx="1598.3" cy="1184.45" r="14.4" fill="#009af9" fill-rule="evenodd" fill-opacity="1" stroke="#000000" stroke-opacity="1" stroke-width="3.2"/>
<circle clip-path="url(#clip982)" cx="1455.93" cy="995.538" r="14.4" fill="#009af9" fill-rule="evenodd" fill-opacity="1" stroke="#000000" stroke-opacity="1" stroke-width="3.2"/>
<circle clip-path="url(#clip982)" cx="209.891" cy="631.974" r="14.4" fill="#009af9" fill-rule="evenodd" fill-opacity="1" stroke="#000000" stroke-opacity="1" stroke-width="3.2"/>
<circle clip-path="url(#clip982)" cx="1780.83" cy="625.932" r="14.4" fill="#009af9" fill-rule="evenodd" fill-opacity="1" stroke="#000000" stroke-opacity="1" stroke-width="3.2"/>
<circle clip-path="url(#clip982)" cx="2284.47" cy="822.637" r="14.4" fill="#009af9" fill-rule="evenodd" fill-opacity="1" stroke="#000000" stroke-opacity="1" stroke-width="3.2"/>
<circle clip-path="url(#clip982)" cx="846.924" cy="1289.62" r="14.4" fill="#009af9" fill-rule="evenodd" fill-opacity="1" stroke="#000000" stroke-opacity="1" stroke-width="3.2"/>
</svg>
