<?xml version="1.0" encoding="utf-8"?>
<svg xmlns="http://www.w3.org/2000/svg" xmlns:xlink="http://www.w3.org/1999/xlink" width="800" height="800" viewBox="0 0 3200 3200">
<defs>
  <clipPath id="clip740">
    <rect x="0" y="0" width="3200" height="3200"/>
  </clipPath>
</defs>
<path clip-path="url(#clip740)" d="
M0 3200 L3200 3200 L3200 0 L0 0  Z
  " fill="#ffffff" fill-rule="evenodd" fill-opacity="1"/>
<defs>
  <clipPath id="clip741">
    <rect x="640" y="320" width="2241" height="2241"/>
  </clipPath>
</defs>
<path clip-path="url(#clip740)" d="
M146.959 3053.17 L3152.76 3053.17 L3152.76 153.712 L146.959 153.712  Z
  " fill="#ffffff" fill-rule="evenodd" fill-opacity="1"/>
<defs>
  <clipPath id="clip742">
    <rect x="146" y="153" width="3007" height="2900"/>
  </clipPath>
</defs>
<polyline clip-path="url(#clip742)" style="stroke:#000000; stroke-linecap:butt; stroke-linejoin:round; stroke-width:2; stroke-opacity:0.1; fill:none" points="
  146.959,3053.17 146.959,153.712 
  "/>
<polyline clip-path="url(#clip742)" style="stroke:#000000; stroke-linecap:butt; stroke-linejoin:round; stroke-width:2; stroke-opacity:0.1; fill:none" points="
  1148.89,3053.17 1148.89,153.712 
  "/>
<polyline clip-path="url(#clip742)" style="stroke:#000000; stroke-linecap:butt; stroke-linejoin:round; stroke-width:2; stroke-opacity:0.1; fill:none" points="
  2150.82,3053.17 2150.82,153.712 
  "/>
<polyline clip-path="url(#clip742)" style="stroke:#000000; stroke-linecap:butt; stroke-linejoin:round; stroke-width:2; stroke-opacity:0.1; fill:none" points="
  3152.76,3053.17 3152.76,153.712 
  "/>
<polyline clip-path="url(#clip740)" style="stroke:#000000; stroke-linecap:butt; stroke-linejoin:round; stroke-width:4; stroke-opacity:1; fill:none" points="
  146.959,3053.17 3152.76,3053.17 
  "/>
<polyline clip-path="url(#clip740)" style="stroke:#000000; stroke-linecap:butt; stroke-linejoin:round; stroke-width:4; stroke-opacity:1; fill:none" points="
  146.959,3053.17 146.959,3034.27 
  "/>
<polyline clip-path="url(#clip740)" style="stroke:#000000; stroke-linecap:butt; stroke-linejoin:round; stroke-width:4; stroke-opacity:1; fill:none" points="
  1148.89,3053.17 1148.89,3034.27 
  "/>
<polyline clip-path="url(#clip740)" style="stroke:#000000; stroke-linecap:butt; stroke-linejoin:round; stroke-width:4; stroke-opacity:1; fill:none" points="
  2150.82,3053.17 2150.82,3034.27 
  "/>
<polyline clip-path="url(#clip740)" style="stroke:#000000; stroke-linecap:butt; stroke-linejoin:round; stroke-width:4; stroke-opacity:1; fill:none" points="
  3152.76,3053.17 3152.76,3034.27 
  "/>
<path clip-path="url(#clip740)" d="M91.4852 3118.03 L99.124 3118.03 L99.124 3091.67 L90.8139 3093.33 L90.8139 3089.07 L99.0778 3087.41 L103.754 3087.41 L103.754 3118.03 L111.393 3118.03 L111.393 3121.97 L91.4852 3121.97 L91.4852 3118.03 Z" fill="#000000" fill-rule="evenodd" fill-opacity="1" /><path clip-path="url(#clip740)" d="M120.976 3121.25 L120.976 3116.99 Q122.735 3117.82 124.541 3118.26 Q126.346 3118.7 128.082 3118.7 Q132.712 3118.7 135.142 3115.6 Q137.596 3112.48 137.943 3106.13 Q136.601 3108.13 134.541 3109.19 Q132.48 3110.25 129.98 3110.25 Q124.795 3110.25 121.763 3107.13 Q118.754 3103.98 118.754 3098.54 Q118.754 3093.22 121.902 3090 Q125.05 3086.78 130.281 3086.78 Q136.277 3086.78 139.425 3091.39 Q142.596 3095.97 142.596 3104.72 Q142.596 3112.89 138.707 3117.78 Q134.841 3122.64 128.291 3122.64 Q126.531 3122.64 124.726 3122.29 Q122.92 3121.94 120.976 3121.25 M130.281 3106.6 Q133.429 3106.6 135.258 3104.44 Q137.11 3102.29 137.11 3098.54 Q137.11 3094.82 135.258 3092.66 Q133.429 3090.49 130.281 3090.49 Q127.133 3090.49 125.281 3092.66 Q123.453 3094.82 123.453 3098.54 Q123.453 3102.29 125.281 3104.44 Q127.133 3106.6 130.281 3106.6 Z" fill="#000000" fill-rule="evenodd" fill-opacity="1" /><path clip-path="url(#clip740)" d="M151.045 3087.41 L169.401 3087.41 L169.401 3091.34 L155.327 3091.34 L155.327 3099.82 Q156.346 3099.47 157.364 3099.31 Q158.383 3099.12 159.402 3099.12 Q165.189 3099.12 168.568 3102.29 Q171.948 3105.46 171.948 3110.88 Q171.948 3116.46 168.476 3119.56 Q165.003 3122.64 158.684 3122.64 Q156.508 3122.64 154.239 3122.27 Q151.994 3121.9 149.587 3121.16 L149.587 3116.46 Q151.67 3117.59 153.892 3118.15 Q156.114 3118.7 158.591 3118.7 Q162.596 3118.7 164.934 3116.6 Q167.272 3114.49 167.272 3110.88 Q167.272 3107.27 164.934 3105.16 Q162.596 3103.06 158.591 3103.06 Q156.716 3103.06 154.841 3103.47 Q152.99 3103.89 151.045 3104.77 L151.045 3087.41 Z" fill="#000000" fill-rule="evenodd" fill-opacity="1" /><path clip-path="url(#clip740)" d="M191.161 3090.49 Q187.55 3090.49 185.721 3094.05 Q183.915 3097.59 183.915 3104.72 Q183.915 3111.83 185.721 3115.39 Q187.55 3118.94 191.161 3118.94 Q194.795 3118.94 196.6 3115.39 Q198.429 3111.83 198.429 3104.72 Q198.429 3097.59 196.6 3094.05 Q194.795 3090.49 191.161 3090.49 M191.161 3086.78 Q196.971 3086.78 200.026 3091.39 Q203.105 3095.97 203.105 3104.72 Q203.105 3113.45 200.026 3118.06 Q196.971 3122.64 191.161 3122.64 Q185.35 3122.64 182.272 3118.06 Q179.216 3113.45 179.216 3104.72 Q179.216 3095.97 182.272 3091.39 Q185.35 3086.78 191.161 3086.78 Z" fill="#000000" fill-rule="evenodd" fill-opacity="1" /><path clip-path="url(#clip740)" d="M1093.42 3118.03 L1101.06 3118.03 L1101.06 3091.67 L1092.75 3093.33 L1092.75 3089.07 L1101.01 3087.41 L1105.69 3087.41 L1105.69 3118.03 L1113.32 3118.03 L1113.32 3121.97 L1093.42 3121.97 L1093.42 3118.03 Z" fill="#000000" fill-rule="evenodd" fill-opacity="1" /><path clip-path="url(#clip740)" d="M1122.91 3121.25 L1122.91 3116.99 Q1124.67 3117.82 1126.47 3118.26 Q1128.28 3118.7 1130.01 3118.7 Q1134.64 3118.7 1137.07 3115.6 Q1139.53 3112.48 1139.88 3106.13 Q1138.53 3108.13 1136.47 3109.19 Q1134.41 3110.25 1131.91 3110.25 Q1126.73 3110.25 1123.69 3107.13 Q1120.69 3103.98 1120.69 3098.54 Q1120.69 3093.22 1123.83 3090 Q1126.98 3086.78 1132.21 3086.78 Q1138.21 3086.78 1141.36 3091.39 Q1144.53 3095.97 1144.53 3104.72 Q1144.53 3112.89 1140.64 3117.78 Q1136.77 3122.64 1130.22 3122.64 Q1128.46 3122.64 1126.66 3122.29 Q1124.85 3121.94 1122.91 3121.25 M1132.21 3106.6 Q1135.36 3106.6 1137.19 3104.44 Q1139.04 3102.29 1139.04 3098.54 Q1139.04 3094.82 1137.19 3092.66 Q1135.36 3090.49 1132.21 3090.49 Q1129.07 3090.49 1127.21 3092.66 Q1125.38 3094.82 1125.38 3098.54 Q1125.38 3102.29 1127.21 3104.44 Q1129.07 3106.6 1132.21 3106.6 Z" fill="#000000" fill-rule="evenodd" fill-opacity="1" /><path clip-path="url(#clip740)" d="M1162.93 3105.56 Q1159.6 3105.56 1157.68 3107.34 Q1155.78 3109.12 1155.78 3112.25 Q1155.78 3115.37 1157.68 3117.15 Q1159.6 3118.94 1162.93 3118.94 Q1166.26 3118.94 1168.19 3117.15 Q1170.11 3115.35 1170.11 3112.25 Q1170.11 3109.12 1168.19 3107.34 Q1166.29 3105.56 1162.93 3105.56 M1158.25 3103.57 Q1155.25 3102.82 1153.56 3100.76 Q1151.89 3098.7 1151.89 3095.74 Q1151.89 3091.6 1154.83 3089.19 Q1157.79 3086.78 1162.93 3086.78 Q1168.09 3086.78 1171.03 3089.19 Q1173.97 3091.6 1173.97 3095.74 Q1173.97 3098.7 1172.28 3100.76 Q1170.62 3102.82 1167.63 3103.57 Q1171.01 3104.35 1172.88 3106.64 Q1174.78 3108.94 1174.78 3112.25 Q1174.78 3117.27 1171.7 3119.95 Q1168.65 3122.64 1162.93 3122.64 Q1157.21 3122.64 1154.13 3119.95 Q1151.08 3117.27 1151.08 3112.25 Q1151.08 3108.94 1152.98 3106.64 Q1154.88 3104.35 1158.25 3103.57 M1156.54 3096.18 Q1156.54 3098.87 1158.21 3100.37 Q1159.9 3101.88 1162.93 3101.88 Q1165.94 3101.88 1167.63 3100.37 Q1169.34 3098.87 1169.34 3096.18 Q1169.34 3093.5 1167.63 3091.99 Q1165.94 3090.49 1162.93 3090.49 Q1159.9 3090.49 1158.21 3091.99 Q1156.54 3093.5 1156.54 3096.18 Z" fill="#000000" fill-rule="evenodd" fill-opacity="1" /><path clip-path="url(#clip740)" d="M1193.09 3090.49 Q1189.48 3090.49 1187.65 3094.05 Q1185.85 3097.59 1185.85 3104.72 Q1185.85 3111.83 1187.65 3115.39 Q1189.48 3118.94 1193.09 3118.94 Q1196.73 3118.94 1198.53 3115.39 Q1200.36 3111.83 1200.36 3104.72 Q1200.36 3097.59 1198.53 3094.05 Q1196.73 3090.49 1193.09 3090.49 M1193.09 3086.78 Q1198.9 3086.78 1201.96 3091.39 Q1205.04 3095.97 1205.04 3104.72 Q1205.04 3113.45 1201.96 3118.06 Q1198.9 3122.64 1193.09 3122.64 Q1187.28 3122.64 1184.2 3118.06 Q1181.15 3113.45 1181.15 3104.72 Q1181.15 3095.97 1184.2 3091.39 Q1187.28 3086.78 1193.09 3086.78 Z" fill="#000000" fill-rule="evenodd" fill-opacity="1" /><path clip-path="url(#clip740)" d="M2099.44 3118.03 L2115.75 3118.03 L2115.75 3121.97 L2093.81 3121.97 L2093.81 3118.03 Q2096.47 3115.28 2101.06 3110.65 Q2105.66 3106 2106.84 3104.65 Q2109.09 3102.13 2109.97 3100.39 Q2110.87 3098.63 2110.87 3096.94 Q2110.87 3094.19 2108.93 3092.45 Q2107 3090.72 2103.9 3090.72 Q2101.7 3090.72 2099.25 3091.48 Q2096.82 3092.25 2094.04 3093.8 L2094.04 3089.07 Q2096.87 3087.94 2099.32 3087.36 Q2101.77 3086.78 2103.81 3086.78 Q2109.18 3086.78 2112.37 3089.47 Q2115.57 3092.15 2115.57 3096.64 Q2115.57 3098.77 2114.76 3100.69 Q2113.97 3102.59 2111.87 3105.19 Q2111.29 3105.86 2108.19 3109.07 Q2105.08 3112.27 2099.44 3118.03 Z" fill="#000000" fill-rule="evenodd" fill-opacity="1" /><path clip-path="url(#clip740)" d="M2135.57 3090.49 Q2131.96 3090.49 2130.13 3094.05 Q2128.32 3097.59 2128.32 3104.72 Q2128.32 3111.83 2130.13 3115.39 Q2131.96 3118.94 2135.57 3118.94 Q2139.2 3118.94 2141.01 3115.39 Q2142.84 3111.83 2142.84 3104.72 Q2142.84 3097.59 2141.01 3094.05 Q2139.2 3090.49 2135.57 3090.49 M2135.57 3086.78 Q2141.38 3086.78 2144.43 3091.39 Q2147.51 3095.97 2147.51 3104.72 Q2147.51 3113.45 2144.43 3118.06 Q2141.38 3122.64 2135.57 3122.64 Q2129.76 3122.64 2126.68 3118.06 Q2123.62 3113.45 2123.62 3104.72 Q2123.62 3095.97 2126.68 3091.39 Q2129.76 3086.78 2135.57 3086.78 Z" fill="#000000" fill-rule="evenodd" fill-opacity="1" /><path clip-path="url(#clip740)" d="M2156.54 3118.03 L2164.18 3118.03 L2164.18 3091.67 L2155.87 3093.33 L2155.87 3089.07 L2164.13 3087.41 L2168.81 3087.41 L2168.81 3118.03 L2176.45 3118.03 L2176.45 3121.97 L2156.54 3121.97 L2156.54 3118.03 Z" fill="#000000" fill-rule="evenodd" fill-opacity="1" /><path clip-path="url(#clip740)" d="M2195.89 3090.49 Q2192.28 3090.49 2190.45 3094.05 Q2188.65 3097.59 2188.65 3104.72 Q2188.65 3111.83 2190.45 3115.39 Q2192.28 3118.94 2195.89 3118.94 Q2199.53 3118.94 2201.33 3115.39 Q2203.16 3111.83 2203.16 3104.72 Q2203.16 3097.59 2201.33 3094.05 Q2199.53 3090.49 2195.89 3090.49 M2195.89 3086.78 Q2201.7 3086.78 2204.76 3091.39 Q2207.84 3095.97 2207.84 3104.72 Q2207.84 3113.45 2204.76 3118.06 Q2201.7 3122.64 2195.89 3122.64 Q2190.08 3122.64 2187 3118.06 Q2183.95 3113.45 2183.95 3104.72 Q2183.95 3095.97 2187 3091.39 Q2190.08 3086.78 2195.89 3086.78 Z" fill="#000000" fill-rule="evenodd" fill-opacity="1" /><path clip-path="url(#clip740)" d="M3101.37 3118.03 L3117.69 3118.03 L3117.69 3121.97 L3095.74 3121.97 L3095.74 3118.03 Q3098.4 3115.28 3102.99 3110.65 Q3107.59 3106 3108.77 3104.65 Q3111.02 3102.13 3111.9 3100.39 Q3112.8 3098.63 3112.8 3096.94 Q3112.8 3094.19 3110.86 3092.45 Q3108.94 3090.72 3105.83 3090.72 Q3103.64 3090.72 3101.18 3091.48 Q3098.75 3092.25 3095.97 3093.8 L3095.97 3089.07 Q3098.8 3087.94 3101.25 3087.36 Q3103.71 3086.78 3105.74 3086.78 Q3111.11 3086.78 3114.31 3089.47 Q3117.5 3092.15 3117.5 3096.64 Q3117.5 3098.77 3116.69 3100.69 Q3115.9 3102.59 3113.8 3105.19 Q3113.22 3105.86 3110.12 3109.07 Q3107.02 3112.27 3101.37 3118.03 Z" fill="#000000" fill-rule="evenodd" fill-opacity="1" /><path clip-path="url(#clip740)" d="M3137.5 3090.49 Q3133.89 3090.49 3132.06 3094.05 Q3130.26 3097.59 3130.26 3104.72 Q3130.26 3111.83 3132.06 3115.39 Q3133.89 3118.94 3137.5 3118.94 Q3141.14 3118.94 3142.94 3115.39 Q3144.77 3111.83 3144.77 3104.72 Q3144.77 3097.59 3142.94 3094.05 Q3141.14 3090.49 3137.5 3090.49 M3137.5 3086.78 Q3143.31 3086.78 3146.37 3091.39 Q3149.45 3095.97 3149.45 3104.72 Q3149.45 3113.45 3146.37 3118.06 Q3143.31 3122.64 3137.5 3122.64 Q3131.69 3122.64 3128.61 3118.06 Q3125.56 3113.45 3125.56 3104.72 Q3125.56 3095.97 3128.61 3091.39 Q3131.69 3086.78 3137.5 3086.78 Z" fill="#000000" fill-rule="evenodd" fill-opacity="1" /><path clip-path="url(#clip740)" d="M3170.51 3091.48 L3158.7 3109.93 L3170.51 3109.93 L3170.51 3091.48 M3169.28 3087.41 L3175.16 3087.41 L3175.16 3109.93 L3180.09 3109.93 L3180.09 3113.82 L3175.16 3113.82 L3175.16 3121.97 L3170.51 3121.97 L3170.51 3113.82 L3154.91 3113.82 L3154.91 3109.31 L3169.28 3087.41 Z" fill="#000000" fill-rule="evenodd" fill-opacity="1" /><path clip-path="url(#clip740)" d="M3197.83 3090.49 Q3194.21 3090.49 3192.39 3094.05 Q3190.58 3097.59 3190.58 3104.72 Q3190.58 3111.83 3192.39 3115.39 Q3194.21 3118.94 3197.83 3118.94 Q3201.46 3118.94 3203.26 3115.39 Q3205.09 3111.83 3205.09 3104.72 Q3205.09 3097.59 3203.26 3094.05 Q3201.46 3090.49 3197.83 3090.49 M3197.83 3086.78 Q3203.64 3086.78 3206.69 3091.39 Q3209.77 3095.97 3209.77 3104.72 Q3209.77 3113.45 3206.69 3118.06 Q3203.64 3122.64 3197.83 3122.64 Q3192.01 3122.64 3188.94 3118.06 Q3185.88 3113.45 3185.88 3104.72 Q3185.88 3095.97 3188.94 3091.39 Q3192.01 3086.78 3197.83 3086.78 Z" fill="#000000" fill-rule="evenodd" fill-opacity="1" /><polyline clip-path="url(#clip742)" style="stroke:#000000; stroke-linecap:butt; stroke-linejoin:round; stroke-width:2; stroke-opacity:0.1; fill:none" points="
  146.959,2971.11 3152.76,2971.11 
  "/>
<polyline clip-path="url(#clip742)" style="stroke:#000000; stroke-linecap:butt; stroke-linejoin:round; stroke-width:2; stroke-opacity:0.1; fill:none" points="
  146.959,2228.9 3152.76,2228.9 
  "/>
<polyline clip-path="url(#clip742)" style="stroke:#000000; stroke-linecap:butt; stroke-linejoin:round; stroke-width:2; stroke-opacity:0.1; fill:none" points="
  146.959,1486.69 3152.76,1486.69 
  "/>
<polyline clip-path="url(#clip742)" style="stroke:#000000; stroke-linecap:butt; stroke-linejoin:round; stroke-width:2; stroke-opacity:0.1; fill:none" points="
  146.959,744.474 3152.76,744.474 
  "/>
<polyline clip-path="url(#clip740)" style="stroke:#000000; stroke-linecap:butt; stroke-linejoin:round; stroke-width:4; stroke-opacity:1; fill:none" points="
  146.959,3053.17 146.959,153.712 
  "/>
<polyline clip-path="url(#clip740)" style="stroke:#000000; stroke-linecap:butt; stroke-linejoin:round; stroke-width:4; stroke-opacity:1; fill:none" points="
  146.959,2971.11 165.857,2971.11 
  "/>
<polyline clip-path="url(#clip740)" style="stroke:#000000; stroke-linecap:butt; stroke-linejoin:round; stroke-width:4; stroke-opacity:1; fill:none" points="
  146.959,2228.9 165.857,2228.9 
  "/>
<polyline clip-path="url(#clip740)" style="stroke:#000000; stroke-linecap:butt; stroke-linejoin:round; stroke-width:4; stroke-opacity:1; fill:none" points="
  146.959,1486.69 165.857,1486.69 
  "/>
<polyline clip-path="url(#clip740)" style="stroke:#000000; stroke-linecap:butt; stroke-linejoin:round; stroke-width:4; stroke-opacity:1; fill:none" points="
  146.959,744.474 165.857,744.474 
  "/>
<path clip-path="url(#clip740)" d="M87.0151 2956.91 Q83.404 2956.91 81.5753 2960.47 Q79.7697 2964.01 79.7697 2971.14 Q79.7697 2978.25 81.5753 2981.81 Q83.404 2985.36 87.0151 2985.36 Q90.6493 2985.36 92.4548 2981.81 Q94.2835 2978.25 94.2835 2971.14 Q94.2835 2964.01 92.4548 2960.47 Q90.6493 2956.91 87.0151 2956.91 M87.0151 2953.2 Q92.8252 2953.2 95.8808 2957.81 Q98.9594 2962.39 98.9594 2971.14 Q98.9594 2979.87 95.8808 2984.48 Q92.8252 2989.06 87.0151 2989.06 Q81.2049 2989.06 78.1262 2984.48 Q75.0707 2979.87 75.0707 2971.14 Q75.0707 2962.39 78.1262 2957.81 Q81.2049 2953.2 87.0151 2953.2 Z" fill="#000000" fill-rule="evenodd" fill-opacity="1" /><path clip-path="url(#clip740)" d="M78.0568 2211.62 L96.4132 2211.62 L96.4132 2215.55 L82.3392 2215.55 L82.3392 2224.02 Q83.3577 2223.68 84.3762 2223.51 Q85.3947 2223.33 86.4132 2223.33 Q92.2002 2223.33 95.5798 2226.5 Q98.9594 2229.67 98.9594 2235.09 Q98.9594 2240.67 95.4872 2243.77 Q92.015 2246.85 85.6956 2246.85 Q83.5197 2246.85 81.2512 2246.48 Q79.0058 2246.11 76.5984 2245.37 L76.5984 2240.67 Q78.6818 2241.8 80.904 2242.36 Q83.1262 2242.91 85.603 2242.91 Q89.6076 2242.91 91.9456 2240.81 Q94.2835 2238.7 94.2835 2235.09 Q94.2835 2231.48 91.9456 2229.37 Q89.6076 2227.26 85.603 2227.26 Q83.728 2227.26 81.8531 2227.68 Q80.0012 2228.1 78.0568 2228.98 L78.0568 2211.62 Z" fill="#000000" fill-rule="evenodd" fill-opacity="1" /><path clip-path="url(#clip740)" d="M47.6634 1500.03 L55.3023 1500.03 L55.3023 1473.66 L46.9921 1475.33 L46.9921 1471.07 L55.256 1469.41 L59.9319 1469.41 L59.9319 1500.03 L67.5707 1500.03 L67.5707 1503.97 L47.6634 1503.97 L47.6634 1500.03 Z" fill="#000000" fill-rule="evenodd" fill-opacity="1" /><path clip-path="url(#clip740)" d="M87.0151 1472.48 Q83.404 1472.48 81.5753 1476.05 Q79.7697 1479.59 79.7697 1486.72 Q79.7697 1493.83 81.5753 1497.39 Q83.404 1500.93 87.0151 1500.93 Q90.6493 1500.93 92.4548 1497.39 Q94.2835 1493.83 94.2835 1486.72 Q94.2835 1479.59 92.4548 1476.05 Q90.6493 1472.48 87.0151 1472.48 M87.0151 1468.78 Q92.8252 1468.78 95.8808 1473.39 Q98.9594 1477.97 98.9594 1486.72 Q98.9594 1495.45 95.8808 1500.05 Q92.8252 1504.64 87.0151 1504.64 Q81.2049 1504.64 78.1262 1500.05 Q75.0707 1495.45 75.0707 1486.72 Q75.0707 1477.97 78.1262 1473.39 Q81.2049 1468.78 87.0151 1468.78 Z" fill="#000000" fill-rule="evenodd" fill-opacity="1" /><path clip-path="url(#clip740)" d="M48.6588 757.819 L56.2976 757.819 L56.2976 731.453 L47.9875 733.12 L47.9875 728.861 L56.2513 727.194 L60.9272 727.194 L60.9272 757.819 L68.5661 757.819 L68.5661 761.754 L48.6588 761.754 L48.6588 757.819 Z" fill="#000000" fill-rule="evenodd" fill-opacity="1" /><path clip-path="url(#clip740)" d="M78.0568 727.194 L96.4132 727.194 L96.4132 731.129 L82.3392 731.129 L82.3392 739.601 Q83.3577 739.254 84.3762 739.092 Q85.3947 738.907 86.4132 738.907 Q92.2002 738.907 95.5798 742.078 Q98.9594 745.25 98.9594 750.666 Q98.9594 756.245 95.4872 759.347 Q92.015 762.425 85.6956 762.425 Q83.5197 762.425 81.2512 762.055 Q79.0058 761.685 76.5984 760.944 L76.5984 756.245 Q78.6818 757.379 80.904 757.935 Q83.1262 758.49 85.603 758.49 Q89.6076 758.49 91.9456 756.384 Q94.2835 754.277 94.2835 750.666 Q94.2835 747.055 91.9456 744.949 Q89.6076 742.842 85.603 742.842 Q83.728 742.842 81.8531 743.259 Q80.0012 743.676 78.0568 744.555 L78.0568 727.194 Z" fill="#000000" fill-rule="evenodd" fill-opacity="1" /><path clip-path="url(#clip740)" d="M1311.3 20.1573 L1300.2 50.2555 L1322.44 50.2555 L1311.3 20.1573 M1306.69 12.096 L1315.96 12.096 L1339.01 72.576 L1330.5 72.576 L1325 57.061 L1297.73 57.061 L1292.22 72.576 L1283.6 72.576 L1306.69 12.096 Z" fill="#000000" fill-rule="evenodd" fill-opacity="1" /><path clip-path="url(#clip740)" d="M1346.75 54.671 L1346.75 27.2059 L1354.2 27.2059 L1354.2 54.3874 Q1354.2 60.8284 1356.71 64.0691 Q1359.23 67.2693 1364.25 67.2693 Q1370.28 67.2693 1373.77 63.421 Q1377.29 59.5726 1377.29 52.9291 L1377.29 27.2059 L1384.75 27.2059 L1384.75 72.576 L1377.29 72.576 L1377.29 65.6084 Q1374.58 69.7404 1370.97 71.7658 Q1367.41 73.7508 1362.67 73.7508 Q1354.85 73.7508 1350.8 68.8897 Q1346.75 64.0286 1346.75 54.671 M1365.5 26.1121 L1365.5 26.1121 Z" fill="#000000" fill-rule="evenodd" fill-opacity="1" /><path clip-path="url(#clip740)" d="M1429.02 28.5427 L1429.02 35.5912 Q1425.86 33.9709 1422.46 33.1607 Q1419.06 32.3505 1415.41 32.3505 Q1409.86 32.3505 1407.07 34.0519 Q1404.31 35.7533 1404.31 39.156 Q1404.31 41.7486 1406.3 43.2475 Q1408.28 44.7058 1414.28 46.0426 L1416.83 46.6097 Q1424.77 48.3111 1428.09 51.4303 Q1431.45 54.509 1431.45 60.0587 Q1431.45 66.3781 1426.43 70.0644 Q1421.45 73.7508 1412.7 73.7508 Q1409.05 73.7508 1405.08 73.0216 Q1401.15 72.3329 1396.78 70.9151 L1396.78 63.2184 Q1400.91 65.3654 1404.92 66.4591 Q1408.93 67.5124 1412.86 67.5124 Q1418.13 67.5124 1420.96 65.73 Q1423.8 63.9071 1423.8 60.6258 Q1423.8 57.5877 1421.73 55.9673 Q1419.71 54.3469 1412.78 52.8481 L1410.19 52.2405 Q1403.26 50.7821 1400.18 47.7845 Q1397.1 44.7463 1397.1 39.4801 Q1397.1 33.0797 1401.64 29.5959 Q1406.18 26.1121 1414.52 26.1121 Q1418.65 26.1121 1422.3 26.7198 Q1425.94 27.3274 1429.02 28.5427 Z" fill="#000000" fill-rule="evenodd" fill-opacity="1" /><path clip-path="url(#clip740)" d="M1450.69 14.324 L1450.69 27.2059 L1466.05 27.2059 L1466.05 32.9987 L1450.69 32.9987 L1450.69 57.6282 Q1450.69 63.1779 1452.19 64.7578 Q1453.73 66.3376 1458.39 66.3376 L1466.05 66.3376 L1466.05 72.576 L1458.39 72.576 Q1449.76 72.576 1446.48 69.3758 Q1443.2 66.1351 1443.2 57.6282 L1443.2 32.9987 L1437.73 32.9987 L1437.73 27.2059 L1443.2 27.2059 L1443.2 14.324 L1450.69 14.324 Z" fill="#000000" fill-rule="evenodd" fill-opacity="1" /><path clip-path="url(#clip740)" d="M1502.14 34.1734 Q1500.89 33.4443 1499.39 33.1202 Q1497.93 32.7556 1496.15 32.7556 Q1489.83 32.7556 1486.42 36.8875 Q1483.06 40.9789 1483.06 48.6757 L1483.06 72.576 L1475.57 72.576 L1475.57 27.2059 L1483.06 27.2059 L1483.06 34.2544 Q1485.41 30.1225 1489.18 28.1376 Q1492.95 26.1121 1498.33 26.1121 Q1499.1 26.1121 1500.03 26.2337 Q1500.97 26.3147 1502.1 26.5172 L1502.14 34.1734 Z" fill="#000000" fill-rule="evenodd" fill-opacity="1" /><path clip-path="url(#clip740)" d="M1530.58 49.7694 Q1521.55 49.7694 1518.06 51.8354 Q1514.58 53.9013 1514.58 58.8839 Q1514.58 62.8538 1517.17 65.2034 Q1519.8 67.5124 1524.3 67.5124 Q1530.5 67.5124 1534.22 63.1374 Q1537.99 58.7219 1537.99 51.4303 L1537.99 49.7694 L1530.58 49.7694 M1545.45 46.6907 L1545.45 72.576 L1537.99 72.576 L1537.99 65.6895 Q1535.44 69.8214 1531.63 71.8063 Q1527.82 73.7508 1522.31 73.7508 Q1515.35 73.7508 1511.22 69.8619 Q1507.12 65.9325 1507.12 59.3701 Q1507.12 51.7138 1512.23 47.825 Q1517.37 43.9361 1527.54 43.9361 L1537.99 43.9361 L1537.99 43.2069 Q1537.99 38.0623 1534.59 35.2672 Q1531.23 32.4315 1525.11 32.4315 Q1521.22 32.4315 1517.53 33.3632 Q1513.85 34.295 1510.45 36.1584 L1510.45 29.2718 Q1514.54 27.692 1518.39 26.9223 Q1522.23 26.1121 1525.88 26.1121 Q1535.72 26.1121 1540.58 31.2163 Q1545.45 36.3204 1545.45 46.6907 Z" fill="#000000" fill-rule="evenodd" fill-opacity="1" /><path clip-path="url(#clip740)" d="M1560.8 9.54393 L1568.25 9.54393 L1568.25 72.576 L1560.8 72.576 L1560.8 9.54393 Z" fill="#000000" fill-rule="evenodd" fill-opacity="1" /><path clip-path="url(#clip740)" d="M1583.85 27.2059 L1591.3 27.2059 L1591.3 72.576 L1583.85 72.576 L1583.85 27.2059 M1583.85 9.54393 L1591.3 9.54393 L1591.3 18.9825 L1583.85 18.9825 L1583.85 9.54393 Z" fill="#000000" fill-rule="evenodd" fill-opacity="1" /><path clip-path="url(#clip740)" d="M1627.52 49.7694 Q1618.48 49.7694 1615 51.8354 Q1611.52 53.9013 1611.52 58.8839 Q1611.52 62.8538 1614.11 65.2034 Q1616.74 67.5124 1621.24 67.5124 Q1627.44 67.5124 1631.16 63.1374 Q1634.93 58.7219 1634.93 51.4303 L1634.93 49.7694 L1627.52 49.7694 M1642.38 46.6907 L1642.38 72.576 L1634.93 72.576 L1634.93 65.6895 Q1632.38 69.8214 1628.57 71.8063 Q1624.76 73.7508 1619.25 73.7508 Q1612.29 73.7508 1608.15 69.8619 Q1604.06 65.9325 1604.06 59.3701 Q1604.06 51.7138 1609.17 47.825 Q1614.31 43.9361 1624.48 43.9361 L1634.93 43.9361 L1634.93 43.2069 Q1634.93 38.0623 1631.53 35.2672 Q1628.17 32.4315 1622.05 32.4315 Q1618.16 32.4315 1614.47 33.3632 Q1610.79 34.295 1607.38 36.1584 L1607.38 29.2718 Q1611.48 27.692 1615.32 26.9223 Q1619.17 26.1121 1622.82 26.1121 Q1632.66 26.1121 1637.52 31.2163 Q1642.38 36.3204 1642.38 46.6907 Z" fill="#000000" fill-rule="evenodd" fill-opacity="1" /><path clip-path="url(#clip740)" d="M1720.69 14.0809 L1720.69 22.0612 Q1716.03 19.8332 1711.9 18.7395 Q1707.77 17.6457 1703.92 17.6457 Q1697.23 17.6457 1693.59 20.2383 Q1689.98 22.8309 1689.98 27.611 Q1689.98 31.6214 1692.37 33.6873 Q1694.8 35.7128 1701.53 36.9686 L1706.47 37.9813 Q1715.62 39.7232 1719.96 44.1387 Q1724.33 48.5136 1724.33 55.8863 Q1724.33 64.6767 1718.42 69.2137 Q1712.55 73.7508 1701.16 73.7508 Q1696.87 73.7508 1692.01 72.7785 Q1687.19 71.8063 1682 69.9024 L1682 61.4765 Q1686.98 64.2716 1691.76 65.6895 Q1696.54 67.1073 1701.16 67.1073 Q1708.17 67.1073 1711.98 64.3527 Q1715.79 61.598 1715.79 56.4939 Q1715.79 52.0379 1713.03 49.5264 Q1710.32 47.0148 1704.08 45.759 L1699.1 44.7868 Q1689.94 42.9639 1685.85 39.075 Q1681.76 35.1862 1681.76 28.2591 Q1681.76 20.2383 1687.39 15.6203 Q1693.06 11.0023 1702.99 11.0023 Q1707.24 11.0023 1711.65 11.7719 Q1716.07 12.5416 1720.69 14.0809 Z" fill="#000000" fill-rule="evenodd" fill-opacity="1" /><path clip-path="url(#clip740)" d="M1736 54.671 L1736 27.2059 L1743.45 27.2059 L1743.45 54.3874 Q1743.45 60.8284 1745.97 64.0691 Q1748.48 67.2693 1753.5 67.2693 Q1759.54 67.2693 1763.02 63.421 Q1766.54 59.5726 1766.54 52.9291 L1766.54 27.2059 L1774 27.2059 L1774 72.576 L1766.54 72.576 L1766.54 65.6084 Q1763.83 69.7404 1760.22 71.7658 Q1756.66 73.7508 1751.92 73.7508 Q1744.1 73.7508 1740.05 68.8897 Q1736 64.0286 1736 54.671 M1754.76 26.1121 L1754.76 26.1121 Z" fill="#000000" fill-rule="evenodd" fill-opacity="1" /><path clip-path="url(#clip740)" d="M1789.35 27.2059 L1796.8 27.2059 L1796.8 72.576 L1789.35 72.576 L1789.35 27.2059 M1789.35 9.54393 L1796.8 9.54393 L1796.8 18.9825 L1789.35 18.9825 L1789.35 9.54393 Z" fill="#000000" fill-rule="evenodd" fill-opacity="1" /><path clip-path="url(#clip740)" d="M1845.05 28.9478 L1845.05 35.9153 Q1841.89 34.1734 1838.69 33.3227 Q1835.53 32.4315 1832.29 32.4315 Q1825.04 32.4315 1821.03 37.0496 Q1817.02 41.6271 1817.02 49.9314 Q1817.02 58.2358 1821.03 62.8538 Q1825.04 67.4314 1832.29 67.4314 Q1835.53 67.4314 1838.69 66.5807 Q1841.89 65.6895 1845.05 63.9476 L1845.05 70.8341 Q1841.93 72.2924 1838.57 73.0216 Q1835.25 73.7508 1831.48 73.7508 Q1821.23 73.7508 1815.2 67.3098 Q1809.16 60.8689 1809.16 49.9314 Q1809.16 38.832 1815.24 32.472 Q1821.35 26.1121 1831.97 26.1121 Q1835.41 26.1121 1838.69 26.8413 Q1841.97 27.5299 1845.05 28.9478 Z" fill="#000000" fill-rule="evenodd" fill-opacity="1" /><path clip-path="url(#clip740)" d="M1858.01 27.2059 L1865.47 27.2059 L1865.47 72.576 L1858.01 72.576 L1858.01 27.2059 M1858.01 9.54393 L1865.47 9.54393 L1865.47 18.9825 L1858.01 18.9825 L1858.01 9.54393 Z" fill="#000000" fill-rule="evenodd" fill-opacity="1" /><path clip-path="url(#clip740)" d="M1910.92 34.0924 L1910.92 9.54393 L1918.37 9.54393 L1918.37 72.576 L1910.92 72.576 L1910.92 65.7705 Q1908.57 69.8214 1904.96 71.8063 Q1901.4 73.7508 1896.38 73.7508 Q1888.15 73.7508 1882.97 67.1883 Q1877.82 60.6258 1877.82 49.9314 Q1877.82 39.2371 1882.97 32.6746 Q1888.15 26.1121 1896.38 26.1121 Q1901.4 26.1121 1904.96 28.0971 Q1908.57 30.0415 1910.92 34.0924 M1885.52 49.9314 Q1885.52 58.1548 1888.88 62.8538 Q1892.28 67.5124 1898.2 67.5124 Q1904.11 67.5124 1907.52 62.8538 Q1910.92 58.1548 1910.92 49.9314 Q1910.92 41.7081 1907.52 37.0496 Q1904.11 32.3505 1898.2 32.3505 Q1892.28 32.3505 1888.88 37.0496 Q1885.52 41.7081 1885.52 49.9314 Z" fill="#000000" fill-rule="evenodd" fill-opacity="1" /><path clip-path="url(#clip740)" d="M1972.53 48.0275 L1972.53 51.6733 L1938.26 51.6733 Q1938.75 59.3701 1942.88 63.421 Q1947.05 67.4314 1954.47 67.4314 Q1958.76 67.4314 1962.77 66.3781 Q1966.82 65.3249 1970.79 63.2184 L1970.79 70.267 Q1966.78 71.9684 1962.57 72.8596 Q1958.35 73.7508 1954.02 73.7508 Q1943.16 73.7508 1936.8 67.4314 Q1930.48 61.1119 1930.48 50.3365 Q1930.48 39.1965 1936.48 32.6746 Q1942.52 26.1121 1952.72 26.1121 Q1961.88 26.1121 1967.19 32.0264 Q1972.53 37.9003 1972.53 48.0275 M1965.08 45.84 Q1965 39.7232 1961.64 36.0774 Q1958.31 32.4315 1952.8 32.4315 Q1946.57 32.4315 1942.8 35.9558 Q1939.07 39.4801 1938.5 45.8805 L1965.08 45.84 Z" fill="#000000" fill-rule="evenodd" fill-opacity="1" /><path clip-path="url(#clip740)" d="M2013.69 28.5427 L2013.69 35.5912 Q2010.53 33.9709 2007.13 33.1607 Q2003.72 32.3505 2000.08 32.3505 Q1994.53 32.3505 1991.73 34.0519 Q1988.98 35.7533 1988.98 39.156 Q1988.98 41.7486 1990.96 43.2475 Q1992.95 44.7058 1998.94 46.0426 L2001.5 46.6097 Q2009.44 48.3111 2012.76 51.4303 Q2016.12 54.509 2016.12 60.0587 Q2016.12 66.3781 2011.1 70.0644 Q2006.11 73.7508 1997.36 73.7508 Q1993.72 73.7508 1989.75 73.0216 Q1985.82 72.3329 1981.44 70.9151 L1981.44 63.2184 Q1985.58 65.3654 1989.59 66.4591 Q1993.6 67.5124 1997.53 67.5124 Q2002.79 67.5124 2005.63 65.73 Q2008.46 63.9071 2008.46 60.6258 Q2008.46 57.5877 2006.4 55.9673 Q2004.37 54.3469 1997.45 52.8481 L1994.85 52.2405 Q1987.93 50.7821 1984.85 47.7845 Q1981.77 44.7463 1981.77 39.4801 Q1981.77 33.0797 1986.31 29.5959 Q1990.84 26.1121 1999.19 26.1121 Q2003.32 26.1121 2006.97 26.7198 Q2010.61 27.3274 2013.69 28.5427 Z" fill="#000000" fill-rule="evenodd" fill-opacity="1" /><polyline clip-path="url(#clip742)" style="stroke:#009af9; stroke-linecap:butt; stroke-linejoin:round; stroke-width:4; stroke-opacity:1; fill:none" points="
  146.959,1384.03 180.357,1378.33 213.755,1167.25 247.153,1114.23 280.55,1142.38 313.948,1209.13 347.346,1118.86 380.744,878.746 414.141,856.123 447.539,1061.12 
  480.937,1129.75 514.335,923.207 547.732,583.979 581.13,235.772 614.528,424.001 647.926,408.523 681.323,520.648 714.721,341.638 748.119,757.524 781.516,827.912 
  814.914,819.506 848.312,686.67 881.71,872.579 915.107,1047.95 948.505,1036.19 981.903,1106.23 1015.3,1177.91 1048.7,1133.68 1082.1,1160.68 1115.49,1106.41 
  1148.89,1200.61 1182.29,1163.82 1215.69,1110.87 1249.08,1200.16 1282.48,1250.11 1315.88,1186.23 1349.28,1057.91 1382.68,842.619 1416.07,944.488 1449.47,1077.13 
  1482.87,1064.57 1516.27,909.572 1549.66,1007.53 1583.06,1206.54 1616.46,1072.94 1649.86,1012.72 1683.26,1017.18 1716.65,777.973 1750.05,838.563 1783.45,1005.91 
  1816.85,1126.07 1850.24,1079.6 1883.64,1205.43 1917.04,1308.72 1950.44,1415.73 1983.84,1432.75 2017.23,1450.67 2050.63,1396.41 2084.03,1346.01 2117.43,1390.05 
  2150.82,1315.2 2184.22,1406.5 2217.62,1306.36 2251.02,1321.6 2284.41,1147.77 2317.81,1061.11 2351.21,1204.65 2384.61,1011.67 2418.01,1100.74 2451.4,1056.2 
  2484.8,1174.96 
  "/>
<polyline clip-path="url(#clip742)" style="stroke:#e26f46; stroke-linecap:butt; stroke-linejoin:round; stroke-width:4; stroke-opacity:1; fill:none" points="
  146.959,2583.52 180.357,2552.29 213.755,2471.34 247.153,2503.66 280.55,2428.85 313.948,2465.73 347.346,2476.77 380.744,2408.17 414.141,2391.03 447.539,2453.17 
  480.937,2511.21 514.335,2480.37 547.732,2413.1 581.13,2444.43 614.528,2437.88 647.926,2472.77 681.323,2460.85 714.721,2448.93 748.119,2467.42 781.516,2507.02 
  814.914,2423.91 848.312,2448.38 881.71,2489.75 915.107,2471.2 948.505,2464.9 981.903,2495.21 1015.3,2464.48 1048.7,2494.86 1082.1,2462.14 1115.49,2396.28 
  1148.89,2418.94 1182.29,2449.87 1215.69,2421.36 1249.08,2453.64 1282.48,2457.3 1315.88,2442.75 1349.28,2444.82 1382.68,2425.8 1416.07,2500.87 1449.47,2570.36 
  1482.87,2546.55 1516.27,2527.69 1549.66,2552.65 1583.06,2597.85 1616.46,2616.16 1649.86,2646.11 1683.26,2654.76 1716.65,2701.24 1750.05,2782.99 1783.45,2756.38 
  1816.85,2796.27 1850.24,2769.35 1883.64,2805.94 1917.04,2826.43 1950.44,2846.74 1983.84,2865.14 2017.23,2841.6 2050.63,2838.63 2084.03,2847.35 2117.43,2855.93 
  2150.82,2859.52 2184.22,2881.22 2217.62,2861.23 2251.02,2867.17 2284.41,2864.04 2317.81,2862.53 2351.21,2867.2 2384.61,2882.04 2418.01,2882.04 2451.4,2867.2 
  2484.8,2882.04 
  "/>
<polyline clip-path="url(#clip742)" style="stroke:#3da44d; stroke-linecap:butt; stroke-linejoin:round; stroke-width:4; stroke-opacity:1; fill:none" points="
  146.959,2776.38 180.357,2784.74 213.755,2731.84 247.153,2714.62 280.55,2689.72 313.948,2649.31 347.346,2600.48 380.744,2657.18 414.141,2610.16 447.539,2674.19 
  480.937,2626.26 514.335,2556.01 547.732,2530.64 581.13,2452.77 614.528,2577.32 647.926,2601.82 681.323,2623.99 714.721,2578.03 748.119,2641.8 781.516,2630.4 
  814.914,2671.54 848.312,2702.95 881.71,2667.37 915.107,2715.38 948.505,2718.17 981.903,2739.27 1015.3,2723.47 1048.7,2677.83 1082.1,2733.07 1115.49,2750.01 
  1148.89,2715.13 1182.29,2712.28 1215.69,2716.02 1249.08,2724.53 1282.48,2701.36 1315.88,2636.56 1349.28,2567.53 1382.68,2571.94 1416.07,2569.41 1449.47,2593.95 
  1482.87,2582.73 1516.27,2542.44 1549.66,2560.87 1583.06,2626.84 1616.46,2589.68 1649.86,2541.33 1683.26,2537.62 1716.65,2460.09 1750.05,2524.49 1783.45,2521.73 
  1816.85,2551.63 1850.24,2598.43 1883.64,2654.24 1917.04,2680.05 1950.44,2691.58 1983.84,2735.48 2017.23,2778.38 2050.63,2802.09 2084.03,2811.77 2117.43,2802.42 
  2150.82,2820.63 2184.22,2839.54 2217.62,2845.69 2251.02,2861.97 2284.41,2865.04 2317.81,2855.02 2351.21,2882.04 2384.61,2882.04 2418.01,2882.04 2451.4,2896.89 
  2484.8,2896.89 
  "/>
<polyline clip-path="url(#clip742)" style="stroke:#c271d2; stroke-linecap:butt; stroke-linejoin:round; stroke-width:4; stroke-opacity:1; fill:none" points="
  146.959,2660 180.357,2682.36 213.755,2657.08 247.153,2643.61 280.55,2631.34 313.948,2621.12 347.346,2712.74 380.744,2568.81 414.141,2609.46 447.539,2665.39 
  480.937,2716.25 514.335,2687.18 547.732,2655.75 581.13,2719.69 614.528,2698.24 647.926,2706.01 681.323,2716.58 714.721,2733.28 748.119,2750.87 781.516,2752.11 
  814.914,2731.04 848.312,2703.68 881.71,2723.27 915.107,2758.38 948.505,2721.18 981.903,2708.14 1015.3,2701.89 1048.7,2690.7 1082.1,2695.91 1115.49,2713.51 
  1148.89,2727.1 1182.29,2685.74 1215.69,2646.14 1249.08,2657.11 1282.48,2673.87 1315.88,2654.32 1349.28,2637.71 1382.68,2516.69 1416.07,2495.6 1449.47,2472.27 
  1482.87,2483.24 1516.27,2464.05 1549.66,2472.2 1583.06,2473.88 1616.46,2438.53 1649.86,2398.13 1683.26,2328.82 1716.65,2185.22 1750.05,2009.3 1783.45,2163.44 
  1816.85,2201.64 1850.24,2162.29 1883.64,2174.47 1917.04,2221.71 1950.44,2228.07 1983.84,2186.22 2017.23,2190.57 2050.63,2150.34 2084.03,2123.93 2117.43,2152.57 
  2150.82,2047.53 2184.22,2095.08 2217.62,2063.92 2251.02,2062.78 2284.41,1933.17 2317.81,1893.37 2351.21,1976.54 2384.61,1828.1 2418.01,1857.79 2451.4,1813.26 
  2484.8,1902.32 
  "/>
<polyline clip-path="url(#clip742)" style="stroke:#ac8d18; stroke-linecap:butt; stroke-linejoin:round; stroke-width:4; stroke-opacity:1; fill:none" points="
  614.528,2689.8 647.926,2688.99 681.323,2726.58 714.721,2658.36 748.119,2714.28 781.516,2721.25 814.914,2704.69 848.312,2668.76 881.71,2744.16 915.107,2711.55 
  948.505,2696.29 981.903,2708.29 1015.3,2715.63 1048.7,2687.85 1082.1,2720.59 1115.49,2704.06 1148.89,2710.49 1182.29,2658.01 1215.69,2661.18 1249.08,2681.13 
  1282.48,2708.09 1315.88,2696.93 1349.28,2678.52 1382.68,2664.35 1416.07,2664.25 1449.47,2669.59 1482.87,2707.96 1516.27,2675.53 1549.66,2680.02 1583.06,2691.78 
  1616.46,2659.88 1649.86,2662.06 1683.26,2720.52 1716.65,2626.03 1750.05,2703.22 1783.45,2717.5 1816.85,2731.16 1850.24,2704.61 1883.64,2719.1 1917.04,2722.66 
  1950.44,2750.8 1983.84,2748.79 2017.23,2737.69 2050.63,2739.02 2084.03,2696.27 2117.43,2732.31 2150.82,2712.08 2184.22,2736.5 2217.62,2705.94 2251.02,2693.06 
  2284.41,2682.76 2317.81,2665.59 2351.21,2659.38 2384.61,2644.53 2418.01,2674.22 2451.4,2659.38 2484.8,2659.38 
  "/>
<polyline clip-path="url(#clip742)" style="stroke:#00a9ad; stroke-linecap:butt; stroke-linejoin:round; stroke-width:4; stroke-opacity:1; fill:none" points="
  146.959,2633.81 180.357,2670.49 213.755,2622.5 247.153,2579.85 280.55,2650.91 313.948,2679.82 347.346,2569.48 380.744,2487.23 414.141,2504.07 447.539,2493.8 
  480.937,2464.5 514.335,2364.21 547.732,2159.46 581.13,1831.15 614.528,1905.19 647.926,1823.37 681.323,1877.08 714.721,1807.46 748.119,2067.59 781.516,2101.57 
  814.914,2172.75 848.312,2047.33 881.71,2132.45 915.107,2275.87 948.505,2320.08 981.903,2339.75 1015.3,2456.88 1048.7,2466.87 1082.1,2433.41 1115.49,2426.99 
  1148.89,2513.38 1182.29,2542.35 1215.69,2550.6 1249.08,2568.17 1282.48,2593.92 1315.88,2640.09 1349.28,2613.76 1382.68,2548.27 1416.07,2598.79 1449.47,2655.4 
  1482.87,2628.52 1516.27,2584.29 1549.66,2626.21 1583.06,2700.62 1616.46,2653.11 1649.86,2649.53 1683.26,2659.89 1716.65,2689.82 1750.05,2702.98 1783.45,2731.3 
  1816.85,2729.8 1850.24,2729.35 1883.64,2736.11 1917.04,2742.3 1950.44,2782.97 1983.84,2781.55 2017.23,2786.86 2050.63,2750.77 2084.03,2751.13 2117.43,2731.25 
  2150.82,2759.87 2184.22,2738.59 2217.62,2714.02 2251.02,2721.05 2284.41,2687.19 2317.81,2669.03 2351.21,2703.91 2384.61,2674.22 2418.01,2689.07 2451.4,2703.91 
  2484.8,2718.76 
  "/>
<polyline clip-path="url(#clip742)" style="stroke:#ff0000; stroke-linecap:butt; stroke-linejoin:round; stroke-width:4; stroke-opacity:1; fill:none" points="
  1683.26,2971.11 1683.26,744.474 
  "/>
<path clip-path="url(#clip740)" d="
M2274.58 665.081 L3052.56 665.081 L3052.56 250.361 L2274.58 250.361  Z
  " fill="#ffffff" fill-rule="evenodd" fill-opacity="1"/>
<polyline clip-path="url(#clip740)" style="stroke:#000000; stroke-linecap:butt; stroke-linejoin:round; stroke-width:4; stroke-opacity:1; fill:none" points="
  2274.58,665.081 3052.56,665.081 3052.56,250.361 2274.58,250.361 2274.58,665.081 
  "/>
<polyline clip-path="url(#clip740)" style="stroke:#009af9; stroke-linecap:butt; stroke-linejoin:round; stroke-width:4; stroke-opacity:1; fill:none" points="
  2307.98,302.201 2508.37,302.201 
  "/>
<path clip-path="url(#clip740)" d="M2557.6 289.527 L2551.26 306.726 L2563.96 306.726 L2557.6 289.527 M2554.96 284.921 L2560.26 284.921 L2573.43 319.481 L2568.57 319.481 L2565.42 310.615 L2549.84 310.615 L2546.7 319.481 L2541.76 319.481 L2554.96 284.921 Z" fill="#000000" fill-rule="evenodd" fill-opacity="1" /><path clip-path="url(#clip740)" d="M2578.29 283.462 L2582.55 283.462 L2582.55 319.481 L2578.29 319.481 L2578.29 283.462 Z" fill="#000000" fill-rule="evenodd" fill-opacity="1" /><path clip-path="url(#clip740)" d="M2591.46 283.462 L2595.72 283.462 L2595.72 319.481 L2591.46 319.481 L2591.46 283.462 Z" fill="#000000" fill-rule="evenodd" fill-opacity="1" /><path clip-path="url(#clip740)" d="M2639.89 298.532 Q2641.49 295.661 2643.71 294.296 Q2645.93 292.93 2648.94 292.93 Q2652.99 292.93 2655.19 295.777 Q2657.39 298.601 2657.39 303.833 L2657.39 319.481 L2653.11 319.481 L2653.11 303.971 Q2653.11 300.245 2651.79 298.439 Q2650.47 296.634 2647.76 296.634 Q2644.45 296.634 2642.53 298.833 Q2640.61 301.032 2640.61 304.828 L2640.61 319.481 L2636.32 319.481 L2636.32 303.971 Q2636.32 300.221 2635.01 298.439 Q2633.69 296.634 2630.93 296.634 Q2627.67 296.634 2625.75 298.856 Q2623.82 301.055 2623.82 304.828 L2623.82 319.481 L2619.54 319.481 L2619.54 293.555 L2623.82 293.555 L2623.82 297.583 Q2625.28 295.198 2627.32 294.064 Q2629.36 292.93 2632.16 292.93 Q2634.98 292.93 2636.95 294.365 Q2638.94 295.8 2639.89 298.532 Z" fill="#000000" fill-rule="evenodd" fill-opacity="1" /><path clip-path="url(#clip740)" d="M2688.06 305.453 L2688.06 307.536 L2668.48 307.536 Q2668.76 311.934 2671.12 314.249 Q2673.5 316.541 2677.74 316.541 Q2680.19 316.541 2682.48 315.939 Q2684.8 315.337 2687.07 314.133 L2687.07 318.161 Q2684.77 319.133 2682.37 319.643 Q2679.96 320.152 2677.48 320.152 Q2671.28 320.152 2667.64 316.541 Q2664.03 312.93 2664.03 306.772 Q2664.03 300.407 2667.46 296.68 Q2670.91 292.93 2676.74 292.93 Q2681.97 292.93 2685 296.309 Q2688.06 299.666 2688.06 305.453 M2683.8 304.203 Q2683.75 300.708 2681.83 298.624 Q2679.94 296.541 2676.79 296.541 Q2673.22 296.541 2671.07 298.555 Q2668.94 300.569 2668.62 304.226 L2683.8 304.203 Z" fill="#000000" fill-rule="evenodd" fill-opacity="1" /><path clip-path="url(#clip740)" d="M2713.71 294.55 L2713.71 298.532 Q2711.9 297.536 2710.07 297.05 Q2708.27 296.541 2706.42 296.541 Q2702.27 296.541 2699.98 299.18 Q2697.69 301.796 2697.69 306.541 Q2697.69 311.286 2699.98 313.925 Q2702.27 316.541 2706.42 316.541 Q2708.27 316.541 2710.07 316.055 Q2711.9 315.545 2713.71 314.55 L2713.71 318.485 Q2711.93 319.319 2710 319.735 Q2708.11 320.152 2705.95 320.152 Q2700.1 320.152 2696.65 316.471 Q2693.2 312.791 2693.2 306.541 Q2693.2 300.198 2696.67 296.564 Q2700.17 292.93 2706.23 292.93 Q2708.2 292.93 2710.07 293.347 Q2711.95 293.74 2713.71 294.55 Z" fill="#000000" fill-rule="evenodd" fill-opacity="1" /><path clip-path="url(#clip740)" d="M2742.67 303.833 L2742.67 319.481 L2738.41 319.481 L2738.41 303.971 Q2738.41 300.291 2736.97 298.462 Q2735.54 296.634 2732.67 296.634 Q2729.22 296.634 2727.23 298.833 Q2725.24 301.032 2725.24 304.828 L2725.24 319.481 L2720.95 319.481 L2720.95 283.462 L2725.24 283.462 L2725.24 297.583 Q2726.76 295.245 2728.82 294.087 Q2730.91 292.93 2733.62 292.93 Q2738.08 292.93 2740.38 295.708 Q2742.67 298.462 2742.67 303.833 Z" fill="#000000" fill-rule="evenodd" fill-opacity="1" /><path clip-path="url(#clip740)" d="M2762.94 306.448 Q2757.78 306.448 2755.79 307.629 Q2753.8 308.809 2753.8 311.657 Q2753.8 313.925 2755.28 315.268 Q2756.79 316.587 2759.36 316.587 Q2762.9 316.587 2765.03 314.087 Q2767.18 311.564 2767.18 307.397 L2767.18 306.448 L2762.94 306.448 M2771.44 304.689 L2771.44 319.481 L2767.18 319.481 L2767.18 315.545 Q2765.72 317.907 2763.55 319.041 Q2761.37 320.152 2758.22 320.152 Q2754.24 320.152 2751.88 317.93 Q2749.54 315.684 2749.54 311.934 Q2749.54 307.559 2752.46 305.337 Q2755.4 303.115 2761.21 303.115 L2767.18 303.115 L2767.18 302.698 Q2767.18 299.759 2765.24 298.161 Q2763.31 296.541 2759.82 296.541 Q2757.6 296.541 2755.49 297.073 Q2753.38 297.606 2751.44 298.671 L2751.44 294.735 Q2753.78 293.833 2755.98 293.393 Q2758.18 292.93 2760.26 292.93 Q2765.88 292.93 2768.66 295.847 Q2771.44 298.763 2771.44 304.689 Z" fill="#000000" fill-rule="evenodd" fill-opacity="1" /><path clip-path="url(#clip740)" d="M2801.76 303.833 L2801.76 319.481 L2797.5 319.481 L2797.5 303.971 Q2797.5 300.291 2796.07 298.462 Q2794.63 296.634 2791.76 296.634 Q2788.31 296.634 2786.32 298.833 Q2784.33 301.032 2784.33 304.828 L2784.33 319.481 L2780.05 319.481 L2780.05 293.555 L2784.33 293.555 L2784.33 297.583 Q2785.86 295.245 2787.92 294.087 Q2790 292.93 2792.71 292.93 Q2797.18 292.93 2799.47 295.708 Q2801.76 298.462 2801.76 303.833 Z" fill="#000000" fill-rule="evenodd" fill-opacity="1" /><path clip-path="url(#clip740)" d="M2810.26 293.555 L2814.52 293.555 L2814.52 319.481 L2810.26 319.481 L2810.26 293.555 M2810.26 283.462 L2814.52 283.462 L2814.52 288.856 L2810.26 288.856 L2810.26 283.462 Z" fill="#000000" fill-rule="evenodd" fill-opacity="1" /><path clip-path="url(#clip740)" d="M2839.96 294.319 L2839.96 298.347 Q2838.15 297.421 2836.21 296.958 Q2834.26 296.495 2832.18 296.495 Q2829.01 296.495 2827.41 297.467 Q2825.84 298.439 2825.84 300.384 Q2825.84 301.865 2826.97 302.721 Q2828.11 303.555 2831.53 304.319 L2832.99 304.643 Q2837.53 305.615 2839.43 307.397 Q2841.35 309.157 2841.35 312.328 Q2841.35 315.939 2838.48 318.045 Q2835.63 320.152 2830.63 320.152 Q2828.55 320.152 2826.28 319.735 Q2824.03 319.342 2821.53 318.532 L2821.53 314.133 Q2823.89 315.36 2826.18 315.985 Q2828.48 316.587 2830.72 316.587 Q2833.73 316.587 2835.35 315.569 Q2836.97 314.527 2836.97 312.652 Q2836.97 310.916 2835.79 309.99 Q2834.63 309.064 2830.68 308.208 L2829.19 307.86 Q2825.24 307.027 2823.48 305.314 Q2821.72 303.578 2821.72 300.569 Q2821.72 296.911 2824.31 294.921 Q2826.9 292.93 2831.67 292.93 Q2834.03 292.93 2836.12 293.277 Q2838.2 293.624 2839.96 294.319 Z" fill="#000000" fill-rule="evenodd" fill-opacity="1" /><path clip-path="url(#clip740)" d="M2868.31 298.532 Q2869.91 295.661 2872.13 294.296 Q2874.36 292.93 2877.37 292.93 Q2881.42 292.93 2883.61 295.777 Q2885.81 298.601 2885.81 303.833 L2885.81 319.481 L2881.53 319.481 L2881.53 303.971 Q2881.53 300.245 2880.21 298.439 Q2878.89 296.634 2876.18 296.634 Q2872.87 296.634 2870.95 298.833 Q2869.03 301.032 2869.03 304.828 L2869.03 319.481 L2864.75 319.481 L2864.75 303.971 Q2864.75 300.221 2863.43 298.439 Q2862.11 296.634 2859.36 296.634 Q2856.09 296.634 2854.17 298.856 Q2852.25 301.055 2852.25 304.828 L2852.25 319.481 L2847.97 319.481 L2847.97 293.555 L2852.25 293.555 L2852.25 297.583 Q2853.71 295.198 2855.74 294.064 Q2857.78 292.93 2860.58 292.93 Q2863.41 292.93 2865.37 294.365 Q2867.37 295.8 2868.31 298.532 Z" fill="#000000" fill-rule="evenodd" fill-opacity="1" /><path clip-path="url(#clip740)" d="M2910.84 294.319 L2910.84 298.347 Q2909.03 297.421 2907.09 296.958 Q2905.14 296.495 2903.06 296.495 Q2899.89 296.495 2898.29 297.467 Q2896.72 298.439 2896.72 300.384 Q2896.72 301.865 2897.85 302.721 Q2898.99 303.555 2902.41 304.319 L2903.87 304.643 Q2908.41 305.615 2910.3 307.397 Q2912.23 309.157 2912.23 312.328 Q2912.23 315.939 2909.36 318.045 Q2906.51 320.152 2901.51 320.152 Q2899.43 320.152 2897.16 319.735 Q2894.91 319.342 2892.41 318.532 L2892.41 314.133 Q2894.77 315.36 2897.06 315.985 Q2899.36 316.587 2901.6 316.587 Q2904.61 316.587 2906.23 315.569 Q2907.85 314.527 2907.85 312.652 Q2907.85 310.916 2906.67 309.99 Q2905.51 309.064 2901.55 308.208 L2900.07 307.86 Q2896.11 307.027 2894.36 305.314 Q2892.6 303.578 2892.6 300.569 Q2892.6 296.911 2895.19 294.921 Q2897.78 292.93 2902.55 292.93 Q2904.91 292.93 2906.99 293.277 Q2909.08 293.624 2910.84 294.319 Z" fill="#000000" fill-rule="evenodd" fill-opacity="1" /><polyline clip-path="url(#clip740)" style="stroke:#e26f46; stroke-linecap:butt; stroke-linejoin:round; stroke-width:4; stroke-opacity:1; fill:none" points="
  2307.98,354.041 2508.37,354.041 
  "/>
<path clip-path="url(#clip740)" d="M2541.76 336.761 L2561.63 336.761 L2561.63 340.696 L2546.44 340.696 L2546.44 350.881 L2560.14 350.881 L2560.14 354.816 L2546.44 354.816 L2546.44 371.321 L2541.76 371.321 L2541.76 336.761 Z" fill="#000000" fill-rule="evenodd" fill-opacity="1" /><path clip-path="url(#clip740)" d="M2565.4 345.395 L2569.66 345.395 L2569.66 371.321 L2565.4 371.321 L2565.4 345.395 M2565.4 335.302 L2569.66 335.302 L2569.66 340.696 L2565.4 340.696 L2565.4 335.302 Z" fill="#000000" fill-rule="evenodd" fill-opacity="1" /><path clip-path="url(#clip740)" d="M2593.59 349.376 Q2592.88 348.96 2592.02 348.774 Q2591.19 348.566 2590.17 348.566 Q2586.56 348.566 2584.61 350.927 Q2582.69 353.265 2582.69 357.663 L2582.69 371.321 L2578.41 371.321 L2578.41 345.395 L2582.69 345.395 L2582.69 349.423 Q2584.03 347.062 2586.19 345.927 Q2588.34 344.77 2591.42 344.77 Q2591.86 344.77 2592.39 344.839 Q2592.92 344.886 2593.57 345.001 L2593.59 349.376 Z" fill="#000000" fill-rule="evenodd" fill-opacity="1" /><path clip-path="url(#clip740)" d="M2619.2 357.293 L2619.2 359.376 L2599.61 359.376 Q2599.89 363.774 2602.25 366.089 Q2604.63 368.381 2608.87 368.381 Q2611.32 368.381 2613.62 367.779 Q2615.93 367.177 2618.2 365.973 L2618.2 370.001 Q2615.91 370.973 2613.5 371.483 Q2611.09 371.992 2608.62 371.992 Q2602.41 371.992 2598.78 368.381 Q2595.17 364.77 2595.17 358.612 Q2595.17 352.247 2598.59 348.52 Q2602.04 344.77 2607.88 344.77 Q2613.11 344.77 2616.14 348.149 Q2619.2 351.506 2619.2 357.293 M2614.94 356.043 Q2614.89 352.548 2612.97 350.464 Q2611.07 348.381 2607.92 348.381 Q2604.36 348.381 2602.2 350.395 Q2600.07 352.409 2599.75 356.066 L2614.94 356.043 Z" fill="#000000" fill-rule="evenodd" fill-opacity="1" /><path clip-path="url(#clip740)" d="M2637.97 358.288 Q2632.81 358.288 2630.82 359.469 Q2628.82 360.649 2628.82 363.497 Q2628.82 365.765 2630.31 367.108 Q2631.81 368.427 2634.38 368.427 Q2637.92 368.427 2640.05 365.927 Q2642.2 363.404 2642.2 359.237 L2642.2 358.288 L2637.97 358.288 M2646.46 356.529 L2646.46 371.321 L2642.2 371.321 L2642.2 367.385 Q2640.75 369.747 2638.57 370.881 Q2636.39 371.992 2633.25 371.992 Q2629.26 371.992 2626.9 369.77 Q2624.57 367.524 2624.57 363.774 Q2624.57 359.399 2627.48 357.177 Q2630.42 354.955 2636.23 354.955 L2642.2 354.955 L2642.2 354.538 Q2642.2 351.599 2640.26 350.001 Q2638.34 348.381 2634.84 348.381 Q2632.62 348.381 2630.51 348.913 Q2628.41 349.446 2626.46 350.511 L2626.46 346.575 Q2628.8 345.673 2631 345.233 Q2633.2 344.77 2635.28 344.77 Q2640.91 344.77 2643.69 347.687 Q2646.46 350.603 2646.46 356.529 Z" fill="#000000" fill-rule="evenodd" fill-opacity="1" /><path clip-path="url(#clip740)" d="M2670.26 349.376 Q2669.54 348.96 2668.69 348.774 Q2667.85 348.566 2666.83 348.566 Q2663.22 348.566 2661.28 350.927 Q2659.36 353.265 2659.36 357.663 L2659.36 371.321 L2655.07 371.321 L2655.07 345.395 L2659.36 345.395 L2659.36 349.423 Q2660.7 347.062 2662.85 345.927 Q2665.01 344.77 2668.08 344.77 Q2668.52 344.77 2669.06 344.839 Q2669.59 344.886 2670.24 345.001 L2670.26 349.376 Z" fill="#000000" fill-rule="evenodd" fill-opacity="1" /><path clip-path="url(#clip740)" d="M2694.08 350.372 Q2695.68 347.501 2697.9 346.136 Q2700.12 344.77 2703.13 344.77 Q2707.18 344.77 2709.38 347.617 Q2711.58 350.441 2711.58 355.673 L2711.58 371.321 L2707.3 371.321 L2707.3 355.811 Q2707.3 352.085 2705.98 350.279 Q2704.66 348.474 2701.95 348.474 Q2698.64 348.474 2696.72 350.673 Q2694.8 352.872 2694.8 356.668 L2694.8 371.321 L2690.51 371.321 L2690.51 355.811 Q2690.51 352.061 2689.19 350.279 Q2687.88 348.474 2685.12 348.474 Q2681.86 348.474 2679.94 350.696 Q2678.01 352.895 2678.01 356.668 L2678.01 371.321 L2673.73 371.321 L2673.73 345.395 L2678.01 345.395 L2678.01 349.423 Q2679.47 347.038 2681.51 345.904 Q2683.55 344.77 2686.35 344.77 Q2689.17 344.77 2691.14 346.205 Q2693.13 347.64 2694.08 350.372 Z" fill="#000000" fill-rule="evenodd" fill-opacity="1" /><path clip-path="url(#clip740)" d="M2736.6 346.159 L2736.6 350.187 Q2734.8 349.261 2732.85 348.798 Q2730.91 348.335 2728.82 348.335 Q2725.65 348.335 2724.06 349.307 Q2722.48 350.279 2722.48 352.224 Q2722.48 353.705 2723.62 354.561 Q2724.75 355.395 2728.18 356.159 L2729.63 356.483 Q2734.17 357.455 2736.07 359.237 Q2737.99 360.997 2737.99 364.168 Q2737.99 367.779 2735.12 369.885 Q2732.27 371.992 2727.27 371.992 Q2725.19 371.992 2722.92 371.575 Q2720.68 371.182 2718.18 370.372 L2718.18 365.973 Q2720.54 367.2 2722.83 367.825 Q2725.12 368.427 2727.37 368.427 Q2730.38 368.427 2732 367.409 Q2733.62 366.367 2733.62 364.492 Q2733.62 362.756 2732.44 361.83 Q2731.28 360.904 2727.32 360.048 L2725.84 359.7 Q2721.88 358.867 2720.12 357.154 Q2718.36 355.418 2718.36 352.409 Q2718.36 348.751 2720.95 346.761 Q2723.55 344.77 2728.31 344.77 Q2730.68 344.77 2732.76 345.117 Q2734.84 345.464 2736.6 346.159 Z" fill="#000000" fill-rule="evenodd" fill-opacity="1" /><polyline clip-path="url(#clip740)" style="stroke:#3da44d; stroke-linecap:butt; stroke-linejoin:round; stroke-width:4; stroke-opacity:1; fill:none" points="
  2307.98,405.881 2508.37,405.881 
  "/>
<path clip-path="url(#clip740)" d="M2567.32 418.23 L2567.32 408.948 L2559.68 408.948 L2559.68 405.105 L2571.95 405.105 L2571.95 419.943 Q2569.24 421.864 2565.98 422.86 Q2562.71 423.832 2559.01 423.832 Q2550.91 423.832 2546.33 419.11 Q2541.76 414.364 2541.76 405.915 Q2541.76 397.443 2546.33 392.721 Q2550.91 387.976 2559.01 387.976 Q2562.39 387.976 2565.42 388.809 Q2568.48 389.642 2571.05 391.263 L2571.05 396.239 Q2568.45 394.04 2565.54 392.929 Q2562.62 391.818 2559.4 391.818 Q2553.06 391.818 2549.87 395.36 Q2546.7 398.902 2546.7 405.915 Q2546.7 412.906 2549.87 416.448 Q2553.06 419.989 2559.4 419.989 Q2561.88 419.989 2563.83 419.573 Q2565.77 419.133 2567.32 418.23 Z" fill="#000000" fill-rule="evenodd" fill-opacity="1" /><path clip-path="url(#clip740)" d="M2592.09 410.128 Q2586.93 410.128 2584.94 411.309 Q2582.95 412.489 2582.95 415.337 Q2582.95 417.605 2584.43 418.948 Q2585.93 420.267 2588.5 420.267 Q2592.04 420.267 2594.17 417.767 Q2596.32 415.244 2596.32 411.077 L2596.32 410.128 L2592.09 410.128 M2600.58 408.369 L2600.58 423.161 L2596.32 423.161 L2596.32 419.225 Q2594.87 421.587 2592.69 422.721 Q2590.51 423.832 2587.37 423.832 Q2583.39 423.832 2581.02 421.61 Q2578.69 419.364 2578.69 415.614 Q2578.69 411.239 2581.6 409.017 Q2584.54 406.795 2590.35 406.795 L2596.32 406.795 L2596.32 406.378 Q2596.32 403.439 2594.38 401.841 Q2592.46 400.221 2588.96 400.221 Q2586.74 400.221 2584.64 400.753 Q2582.53 401.286 2580.58 402.351 L2580.58 398.415 Q2582.92 397.513 2585.12 397.073 Q2587.32 396.61 2589.4 396.61 Q2595.03 396.61 2597.81 399.527 Q2600.58 402.443 2600.58 408.369 Z" fill="#000000" fill-rule="evenodd" fill-opacity="1" /><path clip-path="url(#clip740)" d="M2625.88 397.999 L2625.88 402.027 Q2624.08 401.101 2622.13 400.638 Q2620.19 400.175 2618.11 400.175 Q2614.94 400.175 2613.34 401.147 Q2611.76 402.119 2611.76 404.064 Q2611.76 405.545 2612.9 406.401 Q2614.03 407.235 2617.46 407.999 L2618.92 408.323 Q2623.45 409.295 2625.35 411.077 Q2627.27 412.837 2627.27 416.008 Q2627.27 419.619 2624.4 421.725 Q2621.56 423.832 2616.56 423.832 Q2614.47 423.832 2612.2 423.415 Q2609.96 423.022 2607.46 422.212 L2607.46 417.813 Q2609.82 419.04 2612.11 419.665 Q2614.4 420.267 2616.65 420.267 Q2619.66 420.267 2621.28 419.249 Q2622.9 418.207 2622.9 416.332 Q2622.9 414.596 2621.72 413.67 Q2620.56 412.744 2616.6 411.888 L2615.12 411.54 Q2611.16 410.707 2609.4 408.994 Q2607.64 407.258 2607.64 404.249 Q2607.64 400.591 2610.24 398.601 Q2612.83 396.61 2617.6 396.61 Q2619.96 396.61 2622.04 396.957 Q2624.13 397.304 2625.88 397.999 Z" fill="#000000" fill-rule="evenodd" fill-opacity="1" /><polyline clip-path="url(#clip740)" style="stroke:#c271d2; stroke-linecap:butt; stroke-linejoin:round; stroke-width:4; stroke-opacity:1; fill:none" points="
  2307.98,457.721 2508.37,457.721 
  "/>
<path clip-path="url(#clip740)" d="M2541.76 440.441 L2546.44 440.441 L2546.44 454.607 L2563.43 454.607 L2563.43 440.441 L2568.11 440.441 L2568.11 475.001 L2563.43 475.001 L2563.43 458.542 L2546.44 458.542 L2546.44 475.001 L2541.76 475.001 L2541.76 440.441 Z" fill="#000000" fill-rule="evenodd" fill-opacity="1" /><path clip-path="url(#clip740)" d="M2589.01 461.968 Q2583.85 461.968 2581.86 463.149 Q2579.87 464.329 2579.87 467.177 Q2579.87 469.445 2581.35 470.788 Q2582.85 472.107 2585.42 472.107 Q2588.96 472.107 2591.09 469.607 Q2593.25 467.084 2593.25 462.917 L2593.25 461.968 L2589.01 461.968 M2597.51 460.209 L2597.51 475.001 L2593.25 475.001 L2593.25 471.065 Q2591.79 473.427 2589.61 474.561 Q2587.44 475.672 2584.29 475.672 Q2580.31 475.672 2577.95 473.45 Q2575.61 471.204 2575.61 467.454 Q2575.61 463.079 2578.52 460.857 Q2581.46 458.635 2587.27 458.635 L2593.25 458.635 L2593.25 458.218 Q2593.25 455.279 2591.3 453.681 Q2589.38 452.061 2585.89 452.061 Q2583.66 452.061 2581.56 452.593 Q2579.45 453.126 2577.51 454.191 L2577.51 450.255 Q2579.84 449.353 2582.04 448.913 Q2584.24 448.45 2586.32 448.45 Q2591.95 448.45 2594.73 451.367 Q2597.51 454.283 2597.51 460.209 Z" fill="#000000" fill-rule="evenodd" fill-opacity="1" /><path clip-path="url(#clip740)" d="M2627.83 459.353 L2627.83 475.001 L2623.57 475.001 L2623.57 459.491 Q2623.57 455.811 2622.13 453.982 Q2620.7 452.154 2617.83 452.154 Q2614.38 452.154 2612.39 454.353 Q2610.4 456.552 2610.4 460.348 L2610.4 475.001 L2606.12 475.001 L2606.12 449.075 L2610.4 449.075 L2610.4 453.103 Q2611.93 450.765 2613.99 449.607 Q2616.07 448.45 2618.78 448.45 Q2623.25 448.45 2625.54 451.228 Q2627.83 453.982 2627.83 459.353 Z" fill="#000000" fill-rule="evenodd" fill-opacity="1" /><path clip-path="url(#clip740)" d="M2653.38 461.737 Q2653.38 457.107 2651.46 454.561 Q2649.57 452.015 2646.12 452.015 Q2642.69 452.015 2640.77 454.561 Q2638.87 457.107 2638.87 461.737 Q2638.87 466.343 2640.77 468.89 Q2642.69 471.436 2646.12 471.436 Q2649.57 471.436 2651.46 468.89 Q2653.38 466.343 2653.38 461.737 M2657.64 471.783 Q2657.64 478.403 2654.7 481.621 Q2651.76 484.862 2645.7 484.862 Q2643.45 484.862 2641.46 484.514 Q2639.47 484.19 2637.6 483.496 L2637.6 479.352 Q2639.47 480.371 2641.3 480.857 Q2643.13 481.343 2645.03 481.343 Q2649.22 481.343 2651.3 479.144 Q2653.38 476.968 2653.38 472.547 L2653.38 470.44 Q2652.07 472.732 2650.01 473.866 Q2647.94 475.001 2645.07 475.001 Q2640.31 475.001 2637.39 471.366 Q2634.47 467.732 2634.47 461.737 Q2634.47 455.718 2637.39 452.084 Q2640.31 448.45 2645.07 448.45 Q2647.94 448.45 2650.01 449.584 Q2652.07 450.718 2653.38 453.01 L2653.38 449.075 L2657.64 449.075 L2657.64 471.783 Z" fill="#000000" fill-rule="evenodd" fill-opacity="1" /><path clip-path="url(#clip740)" d="M2666.42 449.075 L2670.68 449.075 L2670.68 475.001 L2666.42 475.001 L2666.42 449.075 M2666.42 438.982 L2670.68 438.982 L2670.68 444.376 L2666.42 444.376 L2666.42 438.982 Z" fill="#000000" fill-rule="evenodd" fill-opacity="1" /><path clip-path="url(#clip740)" d="M2701.14 459.353 L2701.14 475.001 L2696.88 475.001 L2696.88 459.491 Q2696.88 455.811 2695.44 453.982 Q2694.01 452.154 2691.14 452.154 Q2687.69 452.154 2685.7 454.353 Q2683.71 456.552 2683.71 460.348 L2683.71 475.001 L2679.43 475.001 L2679.43 449.075 L2683.71 449.075 L2683.71 453.103 Q2685.24 450.765 2687.3 449.607 Q2689.38 448.45 2692.09 448.45 Q2696.56 448.45 2698.85 451.228 Q2701.14 453.982 2701.14 459.353 Z" fill="#000000" fill-rule="evenodd" fill-opacity="1" /><path clip-path="url(#clip740)" d="M2726.69 461.737 Q2726.69 457.107 2724.77 454.561 Q2722.88 452.015 2719.43 452.015 Q2716 452.015 2714.08 454.561 Q2712.18 457.107 2712.18 461.737 Q2712.18 466.343 2714.08 468.89 Q2716 471.436 2719.43 471.436 Q2722.88 471.436 2724.77 468.89 Q2726.69 466.343 2726.69 461.737 M2730.95 471.783 Q2730.95 478.403 2728.01 481.621 Q2725.07 484.862 2719.01 484.862 Q2716.76 484.862 2714.77 484.514 Q2712.78 484.19 2710.91 483.496 L2710.91 479.352 Q2712.78 480.371 2714.61 480.857 Q2716.44 481.343 2718.34 481.343 Q2722.53 481.343 2724.61 479.144 Q2726.69 476.968 2726.69 472.547 L2726.69 470.44 Q2725.38 472.732 2723.31 473.866 Q2721.25 475.001 2718.38 475.001 Q2713.62 475.001 2710.7 471.366 Q2707.78 467.732 2707.78 461.737 Q2707.78 455.718 2710.7 452.084 Q2713.62 448.45 2718.38 448.45 Q2721.25 448.45 2723.31 449.584 Q2725.38 450.718 2726.69 453.01 L2726.69 449.075 L2730.95 449.075 L2730.95 471.783 Z" fill="#000000" fill-rule="evenodd" fill-opacity="1" /><polyline clip-path="url(#clip740)" style="stroke:#ac8d18; stroke-linecap:butt; stroke-linejoin:round; stroke-width:4; stroke-opacity:1; fill:none" points="
  2307.98,509.561 2508.37,509.561 
  "/>
<path clip-path="url(#clip740)" d="M2557.78 495.452 Q2552.69 495.452 2549.68 499.248 Q2546.7 503.044 2546.7 509.595 Q2546.7 516.123 2549.68 519.919 Q2552.69 523.716 2557.78 523.716 Q2562.88 523.716 2565.84 519.919 Q2568.83 516.123 2568.83 509.595 Q2568.83 503.044 2565.84 499.248 Q2562.88 495.452 2557.78 495.452 M2557.78 491.656 Q2565.05 491.656 2569.4 496.54 Q2573.76 501.401 2573.76 509.595 Q2573.76 517.767 2569.4 522.651 Q2565.05 527.512 2557.78 527.512 Q2550.49 527.512 2546.12 522.651 Q2541.76 517.79 2541.76 509.595 Q2541.76 501.401 2546.12 496.54 Q2550.49 491.656 2557.78 491.656 Z" fill="#000000" fill-rule="evenodd" fill-opacity="1" /><path clip-path="url(#clip740)" d="M2585.1 493.554 L2585.1 500.915 L2593.87 500.915 L2593.87 504.225 L2585.1 504.225 L2585.1 518.299 Q2585.1 521.47 2585.95 522.373 Q2586.83 523.276 2589.5 523.276 L2593.87 523.276 L2593.87 526.841 L2589.5 526.841 Q2584.57 526.841 2582.69 525.012 Q2580.82 523.16 2580.82 518.299 L2580.82 504.225 L2577.69 504.225 L2577.69 500.915 L2580.82 500.915 L2580.82 493.554 L2585.1 493.554 Z" fill="#000000" fill-rule="evenodd" fill-opacity="1" /><path clip-path="url(#clip740)" d="M2621.02 511.193 L2621.02 526.841 L2616.76 526.841 L2616.76 511.331 Q2616.76 507.651 2615.33 505.822 Q2613.89 503.994 2611.02 503.994 Q2607.57 503.994 2605.58 506.193 Q2603.59 508.392 2603.59 512.188 L2603.59 526.841 L2599.31 526.841 L2599.31 490.822 L2603.59 490.822 L2603.59 504.943 Q2605.12 502.605 2607.18 501.447 Q2609.26 500.29 2611.97 500.29 Q2616.44 500.29 2618.73 503.068 Q2621.02 505.822 2621.02 511.193 Z" fill="#000000" fill-rule="evenodd" fill-opacity="1" /><path clip-path="url(#clip740)" d="M2651.69 512.813 L2651.69 514.896 L2632.11 514.896 Q2632.39 519.294 2634.75 521.609 Q2637.13 523.901 2641.37 523.901 Q2643.82 523.901 2646.12 523.299 Q2648.43 522.697 2650.7 521.493 L2650.7 525.521 Q2648.41 526.493 2646 527.003 Q2643.59 527.512 2641.12 527.512 Q2634.91 527.512 2631.28 523.901 Q2627.67 520.29 2627.67 514.132 Q2627.67 507.767 2631.09 504.04 Q2634.54 500.29 2640.38 500.29 Q2645.61 500.29 2648.64 503.669 Q2651.69 507.026 2651.69 512.813 M2647.44 511.563 Q2647.39 508.068 2645.47 505.984 Q2643.57 503.901 2640.42 503.901 Q2636.86 503.901 2634.7 505.915 Q2632.57 507.929 2632.25 511.586 L2647.44 511.563 Z" fill="#000000" fill-rule="evenodd" fill-opacity="1" /><path clip-path="url(#clip740)" d="M2673.71 504.896 Q2672.99 504.48 2672.13 504.294 Q2671.3 504.086 2670.28 504.086 Q2666.67 504.086 2664.73 506.447 Q2662.81 508.785 2662.81 513.183 L2662.81 526.841 L2658.52 526.841 L2658.52 500.915 L2662.81 500.915 L2662.81 504.943 Q2664.15 502.582 2666.3 501.447 Q2668.45 500.29 2671.53 500.29 Q2671.97 500.29 2672.51 500.359 Q2673.04 500.406 2673.69 500.521 L2673.71 504.896 Z" fill="#000000" fill-rule="evenodd" fill-opacity="1" /><path clip-path="url(#clip740)" d="M2713.43 505.892 Q2715.03 503.021 2717.25 501.656 Q2719.47 500.29 2722.48 500.29 Q2726.53 500.29 2728.73 503.137 Q2730.93 505.961 2730.93 511.193 L2730.93 526.841 L2726.65 526.841 L2726.65 511.331 Q2726.65 507.605 2725.33 505.799 Q2724.01 503.994 2721.3 503.994 Q2717.99 503.994 2716.07 506.193 Q2714.15 508.392 2714.15 512.188 L2714.15 526.841 L2709.87 526.841 L2709.87 511.331 Q2709.87 507.581 2708.55 505.799 Q2707.23 503.994 2704.47 503.994 Q2701.21 503.994 2699.29 506.216 Q2697.37 508.415 2697.37 512.188 L2697.37 526.841 L2693.08 526.841 L2693.08 500.915 L2697.37 500.915 L2697.37 504.943 Q2698.82 502.558 2700.86 501.424 Q2702.9 500.29 2705.7 500.29 Q2708.52 500.29 2710.49 501.725 Q2712.48 503.16 2713.43 505.892 Z" fill="#000000" fill-rule="evenodd" fill-opacity="1" /><path clip-path="url(#clip740)" d="M2761.6 512.813 L2761.6 514.896 L2742.02 514.896 Q2742.3 519.294 2744.66 521.609 Q2747.04 523.901 2751.28 523.901 Q2753.73 523.901 2756.02 523.299 Q2758.34 522.697 2760.61 521.493 L2760.61 525.521 Q2758.31 526.493 2755.91 527.003 Q2753.5 527.512 2751.02 527.512 Q2744.82 527.512 2741.19 523.901 Q2737.57 520.29 2737.57 514.132 Q2737.57 507.767 2741 504.04 Q2744.45 500.29 2750.28 500.29 Q2755.51 500.29 2758.55 503.669 Q2761.6 507.026 2761.6 512.813 M2757.34 511.563 Q2757.3 508.068 2755.37 505.984 Q2753.48 503.901 2750.33 503.901 Q2746.76 503.901 2744.61 505.915 Q2742.48 507.929 2742.16 511.586 L2757.34 511.563 Z" fill="#000000" fill-rule="evenodd" fill-opacity="1" /><path clip-path="url(#clip740)" d="M2787.25 501.91 L2787.25 505.892 Q2785.44 504.896 2783.62 504.41 Q2781.81 503.901 2779.96 503.901 Q2775.81 503.901 2773.52 506.54 Q2771.23 509.156 2771.23 513.901 Q2771.23 518.646 2773.52 521.285 Q2775.81 523.901 2779.96 523.901 Q2781.81 523.901 2783.62 523.415 Q2785.44 522.905 2787.25 521.91 L2787.25 525.845 Q2785.47 526.679 2783.55 527.095 Q2781.65 527.512 2779.5 527.512 Q2773.64 527.512 2770.19 523.831 Q2766.74 520.151 2766.74 513.901 Q2766.74 507.558 2770.21 503.924 Q2773.71 500.29 2779.77 500.29 Q2781.74 500.29 2783.62 500.707 Q2785.49 501.1 2787.25 501.91 Z" fill="#000000" fill-rule="evenodd" fill-opacity="1" /><path clip-path="url(#clip740)" d="M2816.21 511.193 L2816.21 526.841 L2811.95 526.841 L2811.95 511.331 Q2811.95 507.651 2810.51 505.822 Q2809.08 503.994 2806.21 503.994 Q2802.76 503.994 2800.77 506.193 Q2798.78 508.392 2798.78 512.188 L2798.78 526.841 L2794.5 526.841 L2794.5 490.822 L2798.78 490.822 L2798.78 504.943 Q2800.31 502.605 2802.37 501.447 Q2804.45 500.29 2807.16 500.29 Q2811.62 500.29 2813.92 503.068 Q2816.21 505.822 2816.21 511.193 Z" fill="#000000" fill-rule="evenodd" fill-opacity="1" /><path clip-path="url(#clip740)" d="M2836.49 513.808 Q2831.32 513.808 2829.33 514.989 Q2827.34 516.169 2827.34 519.017 Q2827.34 521.285 2828.82 522.628 Q2830.33 523.947 2832.9 523.947 Q2836.44 523.947 2838.57 521.447 Q2840.72 518.924 2840.72 514.757 L2840.72 513.808 L2836.49 513.808 M2844.98 512.049 L2844.98 526.841 L2840.72 526.841 L2840.72 522.905 Q2839.26 525.267 2837.09 526.401 Q2834.91 527.512 2831.76 527.512 Q2827.78 527.512 2825.42 525.29 Q2823.08 523.044 2823.08 519.294 Q2823.08 514.919 2826 512.697 Q2828.94 510.475 2834.75 510.475 L2840.72 510.475 L2840.72 510.058 Q2840.72 507.119 2838.78 505.521 Q2836.86 503.901 2833.36 503.901 Q2831.14 503.901 2829.03 504.433 Q2826.93 504.966 2824.98 506.031 L2824.98 502.095 Q2827.32 501.193 2829.52 500.753 Q2831.72 500.29 2833.8 500.29 Q2839.43 500.29 2842.2 503.207 Q2844.98 506.123 2844.98 512.049 Z" fill="#000000" fill-rule="evenodd" fill-opacity="1" /><path clip-path="url(#clip740)" d="M2875.3 511.193 L2875.3 526.841 L2871.05 526.841 L2871.05 511.331 Q2871.05 507.651 2869.61 505.822 Q2868.18 503.994 2865.3 503.994 Q2861.86 503.994 2859.87 506.193 Q2857.87 508.392 2857.87 512.188 L2857.87 526.841 L2853.59 526.841 L2853.59 500.915 L2857.87 500.915 L2857.87 504.943 Q2859.4 502.605 2861.46 501.447 Q2863.55 500.29 2866.25 500.29 Q2870.72 500.29 2873.01 503.068 Q2875.3 505.822 2875.3 511.193 Z" fill="#000000" fill-rule="evenodd" fill-opacity="1" /><path clip-path="url(#clip740)" d="M2883.8 500.915 L2888.06 500.915 L2888.06 526.841 L2883.8 526.841 L2883.8 500.915 M2883.8 490.822 L2888.06 490.822 L2888.06 496.216 L2883.8 496.216 L2883.8 490.822 Z" fill="#000000" fill-rule="evenodd" fill-opacity="1" /><path clip-path="url(#clip740)" d="M2913.5 501.679 L2913.5 505.707 Q2911.69 504.781 2909.75 504.318 Q2907.8 503.855 2905.72 503.855 Q2902.55 503.855 2900.95 504.827 Q2899.38 505.799 2899.38 507.744 Q2899.38 509.225 2900.51 510.081 Q2901.65 510.915 2905.07 511.679 L2906.53 512.003 Q2911.07 512.975 2912.97 514.757 Q2914.89 516.517 2914.89 519.688 Q2914.89 523.299 2912.02 525.405 Q2909.17 527.512 2904.17 527.512 Q2902.09 527.512 2899.82 527.095 Q2897.57 526.702 2895.07 525.892 L2895.07 521.493 Q2897.43 522.72 2899.73 523.345 Q2902.02 523.947 2904.26 523.947 Q2907.27 523.947 2908.89 522.929 Q2910.51 521.887 2910.51 520.012 Q2910.51 518.276 2909.33 517.35 Q2908.18 516.424 2904.22 515.568 L2902.74 515.22 Q2898.78 514.387 2897.02 512.674 Q2895.26 510.938 2895.26 507.929 Q2895.26 504.271 2897.85 502.281 Q2900.44 500.29 2905.21 500.29 Q2907.57 500.29 2909.66 500.637 Q2911.74 500.984 2913.5 501.679 Z" fill="#000000" fill-rule="evenodd" fill-opacity="1" /><path clip-path="url(#clip740)" d="M2941.86 505.892 Q2943.45 503.021 2945.67 501.656 Q2947.9 500.29 2950.91 500.29 Q2954.96 500.29 2957.16 503.137 Q2959.36 505.961 2959.36 511.193 L2959.36 526.841 L2955.07 526.841 L2955.07 511.331 Q2955.07 507.605 2953.75 505.799 Q2952.43 503.994 2949.73 503.994 Q2946.42 503.994 2944.49 506.193 Q2942.57 508.392 2942.57 512.188 L2942.57 526.841 L2938.29 526.841 L2938.29 511.331 Q2938.29 507.581 2936.97 505.799 Q2935.65 503.994 2932.9 503.994 Q2929.63 503.994 2927.71 506.216 Q2925.79 508.415 2925.79 512.188 L2925.79 526.841 L2921.51 526.841 L2921.51 500.915 L2925.79 500.915 L2925.79 504.943 Q2927.25 502.558 2929.29 501.424 Q2931.32 500.29 2934.12 500.29 Q2936.95 500.29 2938.92 501.725 Q2940.91 503.16 2941.86 505.892 Z" fill="#000000" fill-rule="evenodd" fill-opacity="1" /><path clip-path="url(#clip740)" d="M2984.38 501.679 L2984.38 505.707 Q2982.57 504.781 2980.63 504.318 Q2978.68 503.855 2976.6 503.855 Q2973.43 503.855 2971.83 504.827 Q2970.26 505.799 2970.26 507.744 Q2970.26 509.225 2971.39 510.081 Q2972.53 510.915 2975.95 511.679 L2977.41 512.003 Q2981.95 512.975 2983.85 514.757 Q2985.77 516.517 2985.77 519.688 Q2985.77 523.299 2982.9 525.405 Q2980.05 527.512 2975.05 527.512 Q2972.97 527.512 2970.7 527.095 Q2968.45 526.702 2965.95 525.892 L2965.95 521.493 Q2968.31 522.72 2970.61 523.345 Q2972.9 523.947 2975.14 523.947 Q2978.15 523.947 2979.77 522.929 Q2981.39 521.887 2981.39 520.012 Q2981.39 518.276 2980.21 517.35 Q2979.05 516.424 2975.1 515.568 L2973.61 515.22 Q2969.66 514.387 2967.9 512.674 Q2966.14 510.938 2966.14 507.929 Q2966.14 504.271 2968.73 502.281 Q2971.32 500.29 2976.09 500.29 Q2978.45 500.29 2980.54 500.637 Q2982.62 500.984 2984.38 501.679 Z" fill="#000000" fill-rule="evenodd" fill-opacity="1" /><polyline clip-path="url(#clip740)" style="stroke:#00a9ad; stroke-linecap:butt; stroke-linejoin:round; stroke-width:4; stroke-opacity:1; fill:none" points="
  2307.98,561.401 2508.37,561.401 
  "/>
<path clip-path="url(#clip740)" d="M2546.44 547.963 L2546.44 560.949 L2552.32 560.949 Q2555.58 560.949 2557.37 559.259 Q2559.15 557.57 2559.15 554.445 Q2559.15 551.343 2557.37 549.653 Q2555.58 547.963 2552.32 547.963 L2546.44 547.963 M2541.76 544.121 L2552.32 544.121 Q2558.13 544.121 2561.09 546.76 Q2564.08 549.375 2564.08 554.445 Q2564.08 559.56 2561.09 562.176 Q2558.13 564.792 2552.32 564.792 L2546.44 564.792 L2546.44 578.681 L2541.76 578.681 L2541.76 544.121 Z" fill="#000000" fill-rule="evenodd" fill-opacity="1" /><path clip-path="url(#clip740)" d="M2578.52 555.741 Q2575.1 555.741 2573.11 558.426 Q2571.12 561.088 2571.12 565.741 Q2571.12 570.394 2573.08 573.079 Q2575.07 575.741 2578.52 575.741 Q2581.93 575.741 2583.92 573.056 Q2585.91 570.371 2585.91 565.741 Q2585.91 561.134 2583.92 558.449 Q2581.93 555.741 2578.52 555.741 M2578.52 552.13 Q2584.08 552.13 2587.25 555.741 Q2590.42 559.352 2590.42 565.741 Q2590.42 572.107 2587.25 575.741 Q2584.08 579.352 2578.52 579.352 Q2572.95 579.352 2569.77 575.741 Q2566.63 572.107 2566.63 565.741 Q2566.63 559.352 2569.77 555.741 Q2572.95 552.13 2578.52 552.13 Z" fill="#000000" fill-rule="evenodd" fill-opacity="1" /><path clip-path="url(#clip740)" d="M2597.48 552.755 L2601.74 552.755 L2601.74 578.681 L2597.48 578.681 L2597.48 552.755 M2597.48 542.662 L2601.74 542.662 L2601.74 548.056 L2597.48 548.056 L2597.48 542.662 Z" fill="#000000" fill-rule="evenodd" fill-opacity="1" /><path clip-path="url(#clip740)" d="M2627.18 553.519 L2627.18 557.547 Q2625.38 556.621 2623.43 556.158 Q2621.49 555.695 2619.4 555.695 Q2616.23 555.695 2614.63 556.667 Q2613.06 557.639 2613.06 559.584 Q2613.06 561.065 2614.2 561.921 Q2615.33 562.755 2618.76 563.519 L2620.21 563.843 Q2624.75 564.815 2626.65 566.597 Q2628.57 568.357 2628.57 571.528 Q2628.57 575.139 2625.7 577.245 Q2622.85 579.352 2617.85 579.352 Q2615.77 579.352 2613.5 578.935 Q2611.26 578.542 2608.76 577.732 L2608.76 573.333 Q2611.12 574.56 2613.41 575.185 Q2615.7 575.787 2617.95 575.787 Q2620.95 575.787 2622.57 574.769 Q2624.2 573.727 2624.2 571.852 Q2624.2 570.116 2623.01 569.19 Q2621.86 568.264 2617.9 567.408 L2616.42 567.06 Q2612.46 566.227 2610.7 564.514 Q2608.94 562.778 2608.94 559.769 Q2608.94 556.111 2611.53 554.121 Q2614.13 552.13 2618.89 552.13 Q2621.26 552.13 2623.34 552.477 Q2625.42 552.824 2627.18 553.519 Z" fill="#000000" fill-rule="evenodd" fill-opacity="1" /><path clip-path="url(#clip740)" d="M2645.4 555.741 Q2641.97 555.741 2639.98 558.426 Q2637.99 561.088 2637.99 565.741 Q2637.99 570.394 2639.96 573.079 Q2641.95 575.741 2645.4 575.741 Q2648.8 575.741 2650.79 573.056 Q2652.78 570.371 2652.78 565.741 Q2652.78 561.134 2650.79 558.449 Q2648.8 555.741 2645.4 555.741 M2645.4 552.13 Q2650.95 552.13 2654.13 555.741 Q2657.3 559.352 2657.3 565.741 Q2657.3 572.107 2654.13 575.741 Q2650.95 579.352 2645.4 579.352 Q2639.82 579.352 2636.65 575.741 Q2633.5 572.107 2633.5 565.741 Q2633.5 559.352 2636.65 555.741 Q2639.82 552.13 2645.4 552.13 Z" fill="#000000" fill-rule="evenodd" fill-opacity="1" /><path clip-path="url(#clip740)" d="M2685.91 563.033 L2685.91 578.681 L2681.65 578.681 L2681.65 563.171 Q2681.65 559.491 2680.21 557.662 Q2678.78 555.834 2675.91 555.834 Q2672.46 555.834 2670.47 558.033 Q2668.48 560.232 2668.48 564.028 L2668.48 578.681 L2664.19 578.681 L2664.19 552.755 L2668.48 552.755 L2668.48 556.783 Q2670.01 554.445 2672.07 553.287 Q2674.15 552.13 2676.86 552.13 Q2681.32 552.13 2683.62 554.908 Q2685.91 557.662 2685.91 563.033 Z" fill="#000000" fill-rule="evenodd" fill-opacity="1" /><path clip-path="url(#clip740)" d="M2710.93 553.519 L2710.93 557.547 Q2709.13 556.621 2707.18 556.158 Q2705.24 555.695 2703.15 555.695 Q2699.98 555.695 2698.38 556.667 Q2696.81 557.639 2696.81 559.584 Q2696.81 561.065 2697.94 561.921 Q2699.08 562.755 2702.5 563.519 L2703.96 563.843 Q2708.5 564.815 2710.4 566.597 Q2712.32 568.357 2712.32 571.528 Q2712.32 575.139 2709.45 577.245 Q2706.6 579.352 2701.6 579.352 Q2699.52 579.352 2697.25 578.935 Q2695 578.542 2692.5 577.732 L2692.5 573.333 Q2694.87 574.56 2697.16 575.185 Q2699.45 575.787 2701.69 575.787 Q2704.7 575.787 2706.32 574.769 Q2707.94 573.727 2707.94 571.852 Q2707.94 570.116 2706.76 569.19 Q2705.61 568.264 2701.65 567.408 L2700.17 567.06 Q2696.21 566.227 2694.45 564.514 Q2692.69 562.778 2692.69 559.769 Q2692.69 556.111 2695.28 554.121 Q2697.88 552.13 2702.64 552.13 Q2705 552.13 2707.09 552.477 Q2709.17 552.824 2710.93 553.519 Z" fill="#000000" fill-rule="evenodd" fill-opacity="1" /><path clip-path="url(#clip740)" d="M2744.4 542.709 Q2741.3 548.033 2739.8 553.241 Q2738.29 558.449 2738.29 563.796 Q2738.29 569.144 2739.8 574.398 Q2741.32 579.63 2744.4 584.931 L2740.7 584.931 Q2737.23 579.491 2735.49 574.236 Q2733.78 568.982 2733.78 563.796 Q2733.78 558.634 2735.49 553.403 Q2737.2 548.172 2740.7 542.709 L2744.4 542.709 Z" fill="#000000" fill-rule="evenodd" fill-opacity="1" /><path clip-path="url(#clip740)" d="M2774.84 564.653 L2774.84 566.736 L2755.26 566.736 Q2755.54 571.134 2757.9 573.449 Q2760.28 575.741 2764.52 575.741 Q2766.97 575.741 2769.26 575.139 Q2771.58 574.537 2773.85 573.333 L2773.85 577.361 Q2771.56 578.333 2769.15 578.843 Q2766.74 579.352 2764.26 579.352 Q2758.06 579.352 2754.43 575.741 Q2750.81 572.13 2750.81 565.972 Q2750.81 559.607 2754.24 555.88 Q2757.69 552.13 2763.52 552.13 Q2768.75 552.13 2771.79 555.509 Q2774.84 558.866 2774.84 564.653 M2770.58 563.403 Q2770.54 559.908 2768.62 557.824 Q2766.72 555.741 2763.57 555.741 Q2760 555.741 2757.85 557.755 Q2755.72 559.769 2755.4 563.426 L2770.58 563.403 Z" fill="#000000" fill-rule="evenodd" fill-opacity="1" /><path clip-path="url(#clip740)" d="M2802.55 552.755 L2793.18 565.371 L2803.04 578.681 L2798.01 578.681 L2790.47 568.496 L2782.92 578.681 L2777.9 578.681 L2787.97 565.116 L2778.75 552.755 L2783.78 552.755 L2790.65 561.991 L2797.53 552.755 L2802.55 552.755 Z" fill="#000000" fill-rule="evenodd" fill-opacity="1" /><path clip-path="url(#clip740)" d="M2826.88 553.75 L2826.88 557.732 Q2825.07 556.736 2823.24 556.25 Q2821.44 555.741 2819.59 555.741 Q2815.44 555.741 2813.15 558.38 Q2810.86 560.996 2810.86 565.741 Q2810.86 570.486 2813.15 573.125 Q2815.44 575.741 2819.59 575.741 Q2821.44 575.741 2823.24 575.255 Q2825.07 574.745 2826.88 573.75 L2826.88 577.685 Q2825.1 578.519 2823.18 578.935 Q2821.28 579.352 2819.12 579.352 Q2813.27 579.352 2809.82 575.671 Q2806.37 571.991 2806.37 565.741 Q2806.37 559.398 2809.84 555.764 Q2813.34 552.13 2819.4 552.13 Q2821.37 552.13 2823.24 552.547 Q2825.12 552.94 2826.88 553.75 Z" fill="#000000" fill-rule="evenodd" fill-opacity="1" /><path clip-path="url(#clip740)" d="M2834.29 542.662 L2838.55 542.662 L2838.55 578.681 L2834.29 578.681 L2834.29 542.662 Z" fill="#000000" fill-rule="evenodd" fill-opacity="1" /><path clip-path="url(#clip740)" d="M2848.06 572.801 L2852.94 572.801 L2852.94 578.681 L2848.06 578.681 L2848.06 572.801 Z" fill="#000000" fill-rule="evenodd" fill-opacity="1" /><path clip-path="url(#clip740)" d="M2894.66 565.417 Q2894.66 560.787 2892.74 558.241 Q2890.84 555.695 2887.39 555.695 Q2883.96 555.695 2882.04 558.241 Q2880.14 560.787 2880.14 565.417 Q2880.14 570.023 2882.04 572.57 Q2883.96 575.116 2887.39 575.116 Q2890.84 575.116 2892.74 572.57 Q2894.66 570.023 2894.66 565.417 M2898.92 575.463 Q2898.92 582.083 2895.98 585.301 Q2893.04 588.542 2886.97 588.542 Q2884.73 588.542 2882.74 588.194 Q2880.74 587.87 2878.87 587.176 L2878.87 583.032 Q2880.74 584.051 2882.57 584.537 Q2884.4 585.023 2886.3 585.023 Q2890.49 585.023 2892.57 582.824 Q2894.66 580.648 2894.66 576.227 L2894.66 574.12 Q2893.34 576.412 2891.28 577.546 Q2889.22 578.681 2886.35 578.681 Q2881.58 578.681 2878.66 575.046 Q2875.74 571.412 2875.74 565.417 Q2875.74 559.398 2878.66 555.764 Q2881.58 552.13 2886.35 552.13 Q2889.22 552.13 2891.28 553.264 Q2893.34 554.398 2894.66 556.69 L2894.66 552.755 L2898.92 552.755 L2898.92 575.463 Z" fill="#000000" fill-rule="evenodd" fill-opacity="1" /><path clip-path="url(#clip740)" d="M2919.47 565.648 Q2914.31 565.648 2912.32 566.829 Q2910.33 568.009 2910.33 570.857 Q2910.33 573.125 2911.81 574.468 Q2913.31 575.787 2915.88 575.787 Q2919.42 575.787 2921.55 573.287 Q2923.71 570.764 2923.71 566.597 L2923.71 565.648 L2919.47 565.648 M2927.97 563.889 L2927.97 578.681 L2923.71 578.681 L2923.71 574.745 Q2922.25 577.107 2920.07 578.241 Q2917.9 579.352 2914.75 579.352 Q2910.77 579.352 2908.41 577.13 Q2906.07 574.884 2906.07 571.134 Q2906.07 566.759 2908.99 564.537 Q2911.93 562.315 2917.74 562.315 L2923.71 562.315 L2923.71 561.898 Q2923.71 558.959 2921.76 557.361 Q2919.84 555.741 2916.35 555.741 Q2914.12 555.741 2912.02 556.273 Q2909.91 556.806 2907.97 557.871 L2907.97 553.935 Q2910.3 553.033 2912.5 552.593 Q2914.7 552.13 2916.79 552.13 Q2922.41 552.13 2925.19 555.047 Q2927.97 557.963 2927.97 563.889 Z" fill="#000000" fill-rule="evenodd" fill-opacity="1" /><path clip-path="url(#clip740)" d="M2953.27 553.519 L2953.27 557.547 Q2951.46 556.621 2949.52 556.158 Q2947.57 555.695 2945.49 555.695 Q2942.32 555.695 2940.72 556.667 Q2939.15 557.639 2939.15 559.584 Q2939.15 561.065 2940.28 561.921 Q2941.42 562.755 2944.84 563.519 L2946.3 563.843 Q2950.84 564.815 2952.73 566.597 Q2954.66 568.357 2954.66 571.528 Q2954.66 575.139 2951.79 577.245 Q2948.94 579.352 2943.94 579.352 Q2941.86 579.352 2939.59 578.935 Q2937.34 578.542 2934.84 577.732 L2934.84 573.333 Q2937.2 574.56 2939.49 575.185 Q2941.79 575.787 2944.03 575.787 Q2947.04 575.787 2948.66 574.769 Q2950.28 573.727 2950.28 571.852 Q2950.28 570.116 2949.1 569.19 Q2947.94 568.264 2943.99 567.408 L2942.5 567.06 Q2938.55 566.227 2936.79 564.514 Q2935.03 562.778 2935.03 559.769 Q2935.03 556.111 2937.62 554.121 Q2940.21 552.13 2944.98 552.13 Q2947.34 552.13 2949.42 552.477 Q2951.51 552.824 2953.27 553.519 Z" fill="#000000" fill-rule="evenodd" fill-opacity="1" /><path clip-path="url(#clip740)" d="M2960.77 542.709 L2964.47 542.709 Q2967.94 548.172 2969.66 553.403 Q2971.39 558.634 2971.39 563.796 Q2971.39 568.982 2969.66 574.236 Q2967.94 579.491 2964.47 584.931 L2960.77 584.931 Q2963.85 579.63 2965.35 574.398 Q2966.88 569.144 2966.88 563.796 Q2966.88 558.449 2965.35 553.241 Q2963.85 548.033 2960.77 542.709 Z" fill="#000000" fill-rule="evenodd" fill-opacity="1" /><polyline clip-path="url(#clip740)" style="stroke:#ff0000; stroke-linecap:butt; stroke-linejoin:round; stroke-width:4; stroke-opacity:1; fill:none" points="
  2307.98,613.241 2508.37,613.241 
  "/>
<path clip-path="url(#clip740)" d="M2541.76 595.961 L2548.06 595.961 L2563.39 624.873 L2563.39 595.961 L2567.92 595.961 L2567.92 630.521 L2561.63 630.521 L2546.3 601.609 L2546.3 630.521 L2541.76 630.521 L2541.76 595.961 Z" fill="#000000" fill-rule="evenodd" fill-opacity="1" /><path clip-path="url(#clip740)" d="M2577.23 595.961 L2597.09 595.961 L2597.09 599.896 L2581.9 599.896 L2581.9 610.081 L2595.61 610.081 L2595.61 614.016 L2581.9 614.016 L2581.9 630.521 L2577.23 630.521 L2577.23 595.961 Z" fill="#000000" fill-rule="evenodd" fill-opacity="1" /><path clip-path="url(#clip740)" d="M2611.7 600.567 L2605.35 617.766 L2618.06 617.766 L2611.7 600.567 M2609.06 595.961 L2614.36 595.961 L2627.53 630.521 L2622.67 630.521 L2619.52 621.655 L2603.94 621.655 L2600.79 630.521 L2595.86 630.521 L2609.06 595.961 Z" fill="#000000" fill-rule="evenodd" fill-opacity="1" /><path clip-path="url(#clip740)" d="M2658.25 632.928 Q2656.44 637.558 2654.73 638.97 Q2653.01 640.382 2650.14 640.382 L2646.74 640.382 L2646.74 636.817 L2649.24 636.817 Q2651 636.817 2651.97 635.984 Q2652.94 635.15 2654.13 632.048 L2654.89 630.104 L2644.4 604.595 L2648.92 604.595 L2657.02 624.873 L2665.12 604.595 L2669.63 604.595 L2658.25 632.928 Z" fill="#000000" fill-rule="evenodd" fill-opacity="1" /><path clip-path="url(#clip740)" d="M2697.69 616.493 L2697.69 618.576 L2678.11 618.576 Q2678.38 622.974 2680.75 625.289 Q2683.13 627.581 2687.37 627.581 Q2689.82 627.581 2692.11 626.979 Q2694.43 626.377 2696.69 625.173 L2696.69 629.201 Q2694.4 630.173 2692 630.683 Q2689.59 631.192 2687.11 631.192 Q2680.91 631.192 2677.27 627.581 Q2673.66 623.97 2673.66 617.812 Q2673.66 611.447 2677.09 607.72 Q2680.54 603.97 2686.37 603.97 Q2691.6 603.97 2694.63 607.349 Q2697.69 610.706 2697.69 616.493 M2693.43 615.243 Q2693.38 611.748 2691.46 609.664 Q2689.57 607.581 2686.42 607.581 Q2682.85 607.581 2680.7 609.595 Q2678.57 611.609 2678.25 615.266 L2693.43 615.243 Z" fill="#000000" fill-rule="evenodd" fill-opacity="1" /><path clip-path="url(#clip740)" d="M2716.46 617.488 Q2711.3 617.488 2709.31 618.669 Q2707.32 619.849 2707.32 622.697 Q2707.32 624.965 2708.8 626.308 Q2710.31 627.627 2712.88 627.627 Q2716.42 627.627 2718.55 625.127 Q2720.7 622.604 2720.7 618.437 L2720.7 617.488 L2716.46 617.488 M2724.96 615.729 L2724.96 630.521 L2720.7 630.521 L2720.7 626.585 Q2719.24 628.947 2717.06 630.081 Q2714.89 631.192 2711.74 631.192 Q2707.76 631.192 2705.4 628.97 Q2703.06 626.724 2703.06 622.974 Q2703.06 618.599 2705.98 616.377 Q2708.92 614.155 2714.73 614.155 L2720.7 614.155 L2720.7 613.738 Q2720.7 610.799 2718.75 609.201 Q2716.83 607.581 2713.34 607.581 Q2711.12 607.581 2709.01 608.113 Q2706.9 608.646 2704.96 609.711 L2704.96 605.775 Q2707.3 604.873 2709.5 604.433 Q2711.69 603.97 2713.78 603.97 Q2719.4 603.97 2722.18 606.887 Q2724.96 609.803 2724.96 615.729 Z" fill="#000000" fill-rule="evenodd" fill-opacity="1" /><path clip-path="url(#clip740)" d="M2748.75 608.576 Q2748.04 608.16 2747.18 607.974 Q2746.35 607.766 2745.33 607.766 Q2741.72 607.766 2739.77 610.127 Q2737.85 612.465 2737.85 616.863 L2737.85 630.521 L2733.57 630.521 L2733.57 604.595 L2737.85 604.595 L2737.85 608.623 Q2739.19 606.262 2741.35 605.127 Q2743.5 603.97 2746.58 603.97 Q2747.02 603.97 2747.55 604.039 Q2748.08 604.086 2748.73 604.201 L2748.75 608.576 Z" fill="#000000" fill-rule="evenodd" fill-opacity="1" /></svg>
