<?xml version="1.0" encoding="utf-8"?>
<svg xmlns="http://www.w3.org/2000/svg" xmlns:xlink="http://www.w3.org/1999/xlink" width="600" height="400" viewBox="0 0 2400 1600">
<defs>
  <clipPath id="clip180">
    <rect x="0" y="0" width="2400" height="1600"/>
  </clipPath>
</defs>
<path clip-path="url(#clip180)" d="
M0 1600 L2400 1600 L2400 0 L0 0  Z
  " fill="#ffffff" fill-rule="evenodd" fill-opacity="1"/>
<defs>
  <clipPath id="clip181">
    <rect x="480" y="0" width="1681" height="1600"/>
  </clipPath>
</defs>
<path clip-path="url(#clip180)" d="
M338.404 1486.45 L2352.76 1486.45 L2352.76 123.472 L338.404 123.472  Z
  " fill="#ffffff" fill-rule="evenodd" fill-opacity="1"/>
<defs>
  <clipPath id="clip182">
    <rect x="338" y="123" width="2015" height="1364"/>
  </clipPath>
</defs>
<polyline clip-path="url(#clip182)" style="stroke:#000000; stroke-linecap:butt; stroke-linejoin:round; stroke-width:2; stroke-opacity:0.1; fill:none" points="
  395.414,1486.45 395.414,123.472 
  "/>
<polyline clip-path="url(#clip182)" style="stroke:#000000; stroke-linecap:butt; stroke-linejoin:round; stroke-width:2; stroke-opacity:0.1; fill:none" points="
  791.317,1486.45 791.317,123.472 
  "/>
<polyline clip-path="url(#clip182)" style="stroke:#000000; stroke-linecap:butt; stroke-linejoin:round; stroke-width:2; stroke-opacity:0.1; fill:none" points="
  1187.22,1486.45 1187.22,123.472 
  "/>
<polyline clip-path="url(#clip182)" style="stroke:#000000; stroke-linecap:butt; stroke-linejoin:round; stroke-width:2; stroke-opacity:0.1; fill:none" points="
  1583.12,1486.45 1583.12,123.472 
  "/>
<polyline clip-path="url(#clip182)" style="stroke:#000000; stroke-linecap:butt; stroke-linejoin:round; stroke-width:2; stroke-opacity:0.1; fill:none" points="
  1979.02,1486.45 1979.02,123.472 
  "/>
<polyline clip-path="url(#clip180)" style="stroke:#000000; stroke-linecap:butt; stroke-linejoin:round; stroke-width:4; stroke-opacity:1; fill:none" points="
  338.404,1486.45 2352.76,1486.45 
  "/>
<polyline clip-path="url(#clip180)" style="stroke:#000000; stroke-linecap:butt; stroke-linejoin:round; stroke-width:4; stroke-opacity:1; fill:none" points="
  395.414,1486.45 395.414,1467.55 
  "/>
<polyline clip-path="url(#clip180)" style="stroke:#000000; stroke-linecap:butt; stroke-linejoin:round; stroke-width:4; stroke-opacity:1; fill:none" points="
  791.317,1486.45 791.317,1467.55 
  "/>
<polyline clip-path="url(#clip180)" style="stroke:#000000; stroke-linecap:butt; stroke-linejoin:round; stroke-width:4; stroke-opacity:1; fill:none" points="
  1187.22,1486.45 1187.22,1467.55 
  "/>
<polyline clip-path="url(#clip180)" style="stroke:#000000; stroke-linecap:butt; stroke-linejoin:round; stroke-width:4; stroke-opacity:1; fill:none" points="
  1583.12,1486.45 1583.12,1467.55 
  "/>
<polyline clip-path="url(#clip180)" style="stroke:#000000; stroke-linecap:butt; stroke-linejoin:round; stroke-width:4; stroke-opacity:1; fill:none" points="
  1979.02,1486.45 1979.02,1467.55 
  "/>
<path clip-path="url(#clip180)" d="M340.438 1544.91 L348.077 1544.91 L348.077 1518.55 L339.767 1520.21 L339.767 1515.95 L348.03 1514.29 L352.706 1514.29 L352.706 1544.91 L360.345 1544.91 L360.345 1548.85 L340.438 1548.85 L340.438 1544.91 Z" fill="#000000" fill-rule="evenodd" fill-opacity="1" /><path clip-path="url(#clip180)" d="M369.928 1548.13 L369.928 1543.87 Q371.688 1544.7 373.493 1545.14 Q375.299 1545.58 377.035 1545.58 Q381.664 1545.58 384.095 1542.48 Q386.549 1539.36 386.896 1533.01 Q385.553 1535.01 383.493 1536.07 Q381.433 1537.13 378.933 1537.13 Q373.748 1537.13 370.715 1534.01 Q367.706 1530.86 367.706 1525.42 Q367.706 1520.1 370.854 1516.88 Q374.002 1513.66 379.234 1513.66 Q385.229 1513.66 388.377 1518.27 Q391.549 1522.85 391.549 1531.6 Q391.549 1539.77 387.66 1544.66 Q383.794 1549.52 377.243 1549.52 Q375.484 1549.52 373.678 1549.17 Q371.873 1548.82 369.928 1548.13 M379.234 1533.48 Q382.382 1533.48 384.211 1531.32 Q386.063 1529.17 386.063 1525.42 Q386.063 1521.7 384.211 1519.54 Q382.382 1517.37 379.234 1517.37 Q376.086 1517.37 374.234 1519.54 Q372.405 1521.7 372.405 1525.42 Q372.405 1529.17 374.234 1531.32 Q376.086 1533.48 379.234 1533.48 Z" fill="#000000" fill-rule="evenodd" fill-opacity="1" /><path clip-path="url(#clip180)" d="M400.09 1548.13 L400.09 1543.87 Q401.85 1544.7 403.655 1545.14 Q405.461 1545.58 407.197 1545.58 Q411.826 1545.58 414.257 1542.48 Q416.711 1539.36 417.058 1533.01 Q415.715 1535.01 413.655 1536.07 Q411.595 1537.13 409.095 1537.13 Q403.91 1537.13 400.877 1534.01 Q397.868 1530.86 397.868 1525.42 Q397.868 1520.1 401.016 1516.88 Q404.164 1513.66 409.396 1513.66 Q415.391 1513.66 418.539 1518.27 Q421.711 1522.85 421.711 1531.6 Q421.711 1539.77 417.822 1544.66 Q413.956 1549.52 407.405 1549.52 Q405.646 1549.52 403.84 1549.17 Q402.035 1548.82 400.09 1548.13 M409.396 1533.48 Q412.544 1533.48 414.373 1531.32 Q416.224 1529.17 416.224 1525.42 Q416.224 1521.7 414.373 1519.54 Q412.544 1517.37 409.396 1517.37 Q406.248 1517.37 404.396 1519.54 Q402.567 1521.7 402.567 1525.42 Q402.567 1529.17 404.396 1531.32 Q406.248 1533.48 409.396 1533.48 Z" fill="#000000" fill-rule="evenodd" fill-opacity="1" /><path clip-path="url(#clip180)" d="M430.16 1514.29 L448.516 1514.29 L448.516 1518.22 L434.442 1518.22 L434.442 1526.7 Q435.46 1526.35 436.479 1526.19 Q437.497 1526 438.516 1526 Q444.303 1526 447.683 1529.17 Q451.062 1532.34 451.062 1537.76 Q451.062 1543.34 447.59 1546.44 Q444.118 1549.52 437.798 1549.52 Q435.622 1549.52 433.354 1549.15 Q431.109 1548.78 428.701 1548.04 L428.701 1543.34 Q430.785 1544.47 433.007 1545.03 Q435.229 1545.58 437.706 1545.58 Q441.71 1545.58 444.048 1543.48 Q446.386 1541.37 446.386 1537.76 Q446.386 1534.15 444.048 1532.04 Q441.71 1529.94 437.706 1529.94 Q435.831 1529.94 433.956 1530.35 Q432.104 1530.77 430.16 1531.65 L430.16 1514.29 Z" fill="#000000" fill-rule="evenodd" fill-opacity="1" /><path clip-path="url(#clip180)" d="M739.928 1544.91 L756.248 1544.91 L756.248 1548.85 L734.303 1548.85 L734.303 1544.91 Q736.965 1542.16 741.549 1537.53 Q746.155 1532.88 747.336 1531.53 Q749.581 1529.01 750.461 1527.27 Q751.363 1525.51 751.363 1523.82 Q751.363 1521.07 749.419 1519.33 Q747.498 1517.6 744.396 1517.6 Q742.197 1517.6 739.743 1518.36 Q737.312 1519.13 734.535 1520.68 L734.535 1515.95 Q737.359 1514.82 739.812 1514.24 Q742.266 1513.66 744.303 1513.66 Q749.673 1513.66 752.868 1516.35 Q756.062 1519.03 756.062 1523.52 Q756.062 1525.65 755.252 1527.57 Q754.465 1529.47 752.359 1532.07 Q751.78 1532.74 748.678 1535.95 Q745.576 1539.15 739.928 1544.91 Z" fill="#000000" fill-rule="evenodd" fill-opacity="1" /><path clip-path="url(#clip180)" d="M776.062 1517.37 Q772.451 1517.37 770.622 1520.93 Q768.817 1524.47 768.817 1531.6 Q768.817 1538.71 770.622 1542.27 Q772.451 1545.82 776.062 1545.82 Q779.696 1545.82 781.502 1542.27 Q783.331 1538.71 783.331 1531.6 Q783.331 1524.47 781.502 1520.93 Q779.696 1517.37 776.062 1517.37 M776.062 1513.66 Q781.872 1513.66 784.928 1518.27 Q788.007 1522.85 788.007 1531.6 Q788.007 1540.33 784.928 1544.94 Q781.872 1549.52 776.062 1549.52 Q770.252 1549.52 767.173 1544.94 Q764.118 1540.33 764.118 1531.6 Q764.118 1522.85 767.173 1518.27 Q770.252 1513.66 776.062 1513.66 Z" fill="#000000" fill-rule="evenodd" fill-opacity="1" /><path clip-path="url(#clip180)" d="M806.224 1517.37 Q802.613 1517.37 800.784 1520.93 Q798.979 1524.47 798.979 1531.6 Q798.979 1538.71 800.784 1542.27 Q802.613 1545.82 806.224 1545.82 Q809.858 1545.82 811.664 1542.27 Q813.493 1538.71 813.493 1531.6 Q813.493 1524.47 811.664 1520.93 Q809.858 1517.37 806.224 1517.37 M806.224 1513.66 Q812.034 1513.66 815.09 1518.27 Q818.168 1522.85 818.168 1531.6 Q818.168 1540.33 815.09 1544.94 Q812.034 1549.52 806.224 1549.52 Q800.414 1549.52 797.335 1544.94 Q794.28 1540.33 794.28 1531.6 Q794.28 1522.85 797.335 1518.27 Q800.414 1513.66 806.224 1513.66 Z" fill="#000000" fill-rule="evenodd" fill-opacity="1" /><path clip-path="url(#clip180)" d="M836.386 1517.37 Q832.775 1517.37 830.946 1520.93 Q829.141 1524.47 829.141 1531.6 Q829.141 1538.71 830.946 1542.27 Q832.775 1545.82 836.386 1545.82 Q840.02 1545.82 841.826 1542.27 Q843.654 1538.71 843.654 1531.6 Q843.654 1524.47 841.826 1520.93 Q840.02 1517.37 836.386 1517.37 M836.386 1513.66 Q842.196 1513.66 845.252 1518.27 Q848.33 1522.85 848.33 1531.6 Q848.33 1540.33 845.252 1544.94 Q842.196 1549.52 836.386 1549.52 Q830.576 1549.52 827.497 1544.94 Q824.442 1540.33 824.442 1531.6 Q824.442 1522.85 827.497 1518.27 Q830.576 1513.66 836.386 1513.66 Z" fill="#000000" fill-rule="evenodd" fill-opacity="1" /><path clip-path="url(#clip180)" d="M1136.33 1544.91 L1152.65 1544.91 L1152.65 1548.85 L1130.7 1548.85 L1130.7 1544.91 Q1133.37 1542.16 1137.95 1537.53 Q1142.56 1532.88 1143.74 1531.53 Q1145.98 1529.01 1146.86 1527.27 Q1147.76 1525.51 1147.76 1523.82 Q1147.76 1521.07 1145.82 1519.33 Q1143.9 1517.6 1140.8 1517.6 Q1138.6 1517.6 1136.14 1518.36 Q1133.71 1519.13 1130.93 1520.68 L1130.93 1515.95 Q1133.76 1514.82 1136.21 1514.24 Q1138.67 1513.66 1140.7 1513.66 Q1146.07 1513.66 1149.27 1516.35 Q1152.46 1519.03 1152.46 1523.52 Q1152.46 1525.65 1151.65 1527.57 Q1150.87 1529.47 1148.76 1532.07 Q1148.18 1532.74 1145.08 1535.95 Q1141.98 1539.15 1136.33 1544.91 Z" fill="#000000" fill-rule="evenodd" fill-opacity="1" /><path clip-path="url(#clip180)" d="M1172.46 1517.37 Q1168.85 1517.37 1167.02 1520.93 Q1165.22 1524.47 1165.22 1531.6 Q1165.22 1538.71 1167.02 1542.27 Q1168.85 1545.82 1172.46 1545.82 Q1176.1 1545.82 1177.9 1542.27 Q1179.73 1538.71 1179.73 1531.6 Q1179.73 1524.47 1177.9 1520.93 Q1176.1 1517.37 1172.46 1517.37 M1172.46 1513.66 Q1178.27 1513.66 1181.33 1518.27 Q1184.41 1522.85 1184.41 1531.6 Q1184.41 1540.33 1181.33 1544.94 Q1178.27 1549.52 1172.46 1549.52 Q1166.65 1549.52 1163.57 1544.94 Q1160.52 1540.33 1160.52 1531.6 Q1160.52 1522.85 1163.57 1518.27 Q1166.65 1513.66 1172.46 1513.66 Z" fill="#000000" fill-rule="evenodd" fill-opacity="1" /><path clip-path="url(#clip180)" d="M1202.62 1517.37 Q1199.01 1517.37 1197.18 1520.93 Q1195.38 1524.47 1195.38 1531.6 Q1195.38 1538.71 1197.18 1542.27 Q1199.01 1545.82 1202.62 1545.82 Q1206.26 1545.82 1208.06 1542.27 Q1209.89 1538.71 1209.89 1531.6 Q1209.89 1524.47 1208.06 1520.93 Q1206.26 1517.37 1202.62 1517.37 M1202.62 1513.66 Q1208.43 1513.66 1211.49 1518.27 Q1214.57 1522.85 1214.57 1531.6 Q1214.57 1540.33 1211.49 1544.94 Q1208.43 1549.52 1202.62 1549.52 Q1196.81 1549.52 1193.74 1544.94 Q1190.68 1540.33 1190.68 1531.6 Q1190.68 1522.85 1193.74 1518.27 Q1196.81 1513.66 1202.62 1513.66 Z" fill="#000000" fill-rule="evenodd" fill-opacity="1" /><path clip-path="url(#clip180)" d="M1222.83 1514.29 L1241.19 1514.29 L1241.19 1518.22 L1227.11 1518.22 L1227.11 1526.7 Q1228.13 1526.35 1229.15 1526.19 Q1230.17 1526 1231.19 1526 Q1236.98 1526 1240.36 1529.17 Q1243.74 1532.34 1243.74 1537.76 Q1243.74 1543.34 1240.26 1546.44 Q1236.79 1549.52 1230.47 1549.52 Q1228.3 1549.52 1226.03 1549.15 Q1223.78 1548.78 1221.37 1548.04 L1221.37 1543.34 Q1223.46 1544.47 1225.68 1545.03 Q1227.9 1545.58 1230.38 1545.58 Q1234.38 1545.58 1236.72 1543.48 Q1239.06 1541.37 1239.06 1537.76 Q1239.06 1534.15 1236.72 1532.04 Q1234.38 1529.94 1230.38 1529.94 Q1228.5 1529.94 1226.63 1530.35 Q1224.78 1530.77 1222.83 1531.65 L1222.83 1514.29 Z" fill="#000000" fill-rule="evenodd" fill-opacity="1" /><path clip-path="url(#clip180)" d="M1531.73 1544.91 L1548.05 1544.91 L1548.05 1548.85 L1526.11 1548.85 L1526.11 1544.91 Q1528.77 1542.16 1533.35 1537.53 Q1537.96 1532.88 1539.14 1531.53 Q1541.39 1529.01 1542.27 1527.27 Q1543.17 1525.51 1543.17 1523.82 Q1543.17 1521.07 1541.22 1519.33 Q1539.3 1517.6 1536.2 1517.6 Q1534 1517.6 1531.55 1518.36 Q1529.12 1519.13 1526.34 1520.68 L1526.34 1515.95 Q1529.16 1514.82 1531.62 1514.24 Q1534.07 1513.66 1536.11 1513.66 Q1541.48 1513.66 1544.67 1516.35 Q1547.87 1519.03 1547.87 1523.52 Q1547.87 1525.65 1547.06 1527.57 Q1546.27 1529.47 1544.16 1532.07 Q1543.58 1532.74 1540.48 1535.95 Q1537.38 1539.15 1531.73 1544.91 Z" fill="#000000" fill-rule="evenodd" fill-opacity="1" /><path clip-path="url(#clip180)" d="M1567.87 1517.37 Q1564.26 1517.37 1562.43 1520.93 Q1560.62 1524.47 1560.62 1531.6 Q1560.62 1538.71 1562.43 1542.27 Q1564.26 1545.82 1567.87 1545.82 Q1571.5 1545.82 1573.31 1542.27 Q1575.14 1538.71 1575.14 1531.6 Q1575.14 1524.47 1573.31 1520.93 Q1571.5 1517.37 1567.87 1517.37 M1567.87 1513.66 Q1573.68 1513.66 1576.73 1518.27 Q1579.81 1522.85 1579.81 1531.6 Q1579.81 1540.33 1576.73 1544.94 Q1573.68 1549.52 1567.87 1549.52 Q1562.06 1549.52 1558.98 1544.94 Q1555.92 1540.33 1555.92 1531.6 Q1555.92 1522.85 1558.98 1518.27 Q1562.06 1513.66 1567.87 1513.66 Z" fill="#000000" fill-rule="evenodd" fill-opacity="1" /><path clip-path="url(#clip180)" d="M1588.84 1544.91 L1596.48 1544.91 L1596.48 1518.55 L1588.17 1520.21 L1588.17 1515.95 L1596.43 1514.29 L1601.11 1514.29 L1601.11 1544.91 L1608.75 1544.91 L1608.75 1548.85 L1588.84 1548.85 L1588.84 1544.91 Z" fill="#000000" fill-rule="evenodd" fill-opacity="1" /><path clip-path="url(#clip180)" d="M1628.19 1517.37 Q1624.58 1517.37 1622.75 1520.93 Q1620.95 1524.47 1620.95 1531.6 Q1620.95 1538.71 1622.75 1542.27 Q1624.58 1545.82 1628.19 1545.82 Q1631.83 1545.82 1633.63 1542.27 Q1635.46 1538.71 1635.46 1531.6 Q1635.46 1524.47 1633.63 1520.93 Q1631.83 1517.37 1628.19 1517.37 M1628.19 1513.66 Q1634 1513.66 1637.06 1518.27 Q1640.14 1522.85 1640.14 1531.6 Q1640.14 1540.33 1637.06 1544.94 Q1634 1549.52 1628.19 1549.52 Q1622.38 1549.52 1619.3 1544.94 Q1616.25 1540.33 1616.25 1531.6 Q1616.25 1522.85 1619.3 1518.27 Q1622.38 1513.66 1628.19 1513.66 Z" fill="#000000" fill-rule="evenodd" fill-opacity="1" /><path clip-path="url(#clip180)" d="M1928.13 1544.91 L1944.45 1544.91 L1944.45 1548.85 L1922.51 1548.85 L1922.51 1544.91 Q1925.17 1542.16 1929.75 1537.53 Q1934.36 1532.88 1935.54 1531.53 Q1937.79 1529.01 1938.67 1527.27 Q1939.57 1525.51 1939.57 1523.82 Q1939.57 1521.07 1937.62 1519.33 Q1935.7 1517.6 1932.6 1517.6 Q1930.4 1517.6 1927.95 1518.36 Q1925.52 1519.13 1922.74 1520.68 L1922.74 1515.95 Q1925.56 1514.82 1928.02 1514.24 Q1930.47 1513.66 1932.51 1513.66 Q1937.88 1513.66 1941.07 1516.35 Q1944.27 1519.03 1944.27 1523.52 Q1944.27 1525.65 1943.46 1527.57 Q1942.67 1529.47 1940.56 1532.07 Q1939.98 1532.74 1936.88 1535.95 Q1933.78 1539.15 1928.13 1544.91 Z" fill="#000000" fill-rule="evenodd" fill-opacity="1" /><path clip-path="url(#clip180)" d="M1964.27 1517.37 Q1960.66 1517.37 1958.83 1520.93 Q1957.02 1524.47 1957.02 1531.6 Q1957.02 1538.71 1958.83 1542.27 Q1960.66 1545.82 1964.27 1545.82 Q1967.9 1545.82 1969.71 1542.27 Q1971.54 1538.71 1971.54 1531.6 Q1971.54 1524.47 1969.71 1520.93 Q1967.9 1517.37 1964.27 1517.37 M1964.27 1513.66 Q1970.08 1513.66 1973.13 1518.27 Q1976.21 1522.85 1976.21 1531.6 Q1976.21 1540.33 1973.13 1544.94 Q1970.08 1549.52 1964.27 1549.52 Q1958.46 1549.52 1955.38 1544.94 Q1952.32 1540.33 1952.32 1531.6 Q1952.32 1522.85 1955.38 1518.27 Q1958.46 1513.66 1964.27 1513.66 Z" fill="#000000" fill-rule="evenodd" fill-opacity="1" /><path clip-path="url(#clip180)" d="M1985.24 1544.91 L1992.88 1544.91 L1992.88 1518.55 L1984.57 1520.21 L1984.57 1515.95 L1992.83 1514.29 L1997.51 1514.29 L1997.51 1544.91 L2005.15 1544.91 L2005.15 1548.85 L1985.24 1548.85 L1985.24 1544.91 Z" fill="#000000" fill-rule="evenodd" fill-opacity="1" /><path clip-path="url(#clip180)" d="M2014.64 1514.29 L2032.99 1514.29 L2032.99 1518.22 L2018.92 1518.22 L2018.92 1526.7 Q2019.94 1526.35 2020.96 1526.19 Q2021.98 1526 2022.99 1526 Q2028.78 1526 2032.16 1529.17 Q2035.54 1532.34 2035.54 1537.76 Q2035.54 1543.34 2032.07 1546.44 Q2028.6 1549.52 2022.28 1549.52 Q2020.1 1549.52 2017.83 1549.15 Q2015.59 1548.78 2013.18 1548.04 L2013.18 1543.34 Q2015.26 1544.47 2017.48 1545.03 Q2019.71 1545.58 2022.18 1545.58 Q2026.19 1545.58 2028.53 1543.48 Q2030.86 1541.37 2030.86 1537.76 Q2030.86 1534.15 2028.53 1532.04 Q2026.19 1529.94 2022.18 1529.94 Q2020.31 1529.94 2018.43 1530.35 Q2016.58 1530.77 2014.64 1531.65 L2014.64 1514.29 Z" fill="#000000" fill-rule="evenodd" fill-opacity="1" /><polyline clip-path="url(#clip182)" style="stroke:#000000; stroke-linecap:butt; stroke-linejoin:round; stroke-width:2; stroke-opacity:0.1; fill:none" points="
  338.404,1447.87 2352.76,1447.87 
  "/>
<polyline clip-path="url(#clip182)" style="stroke:#000000; stroke-linecap:butt; stroke-linejoin:round; stroke-width:2; stroke-opacity:0.1; fill:none" points="
  338.404,1154.03 2352.76,1154.03 
  "/>
<polyline clip-path="url(#clip182)" style="stroke:#000000; stroke-linecap:butt; stroke-linejoin:round; stroke-width:2; stroke-opacity:0.1; fill:none" points="
  338.404,860.184 2352.76,860.184 
  "/>
<polyline clip-path="url(#clip182)" style="stroke:#000000; stroke-linecap:butt; stroke-linejoin:round; stroke-width:2; stroke-opacity:0.1; fill:none" points="
  338.404,566.34 2352.76,566.34 
  "/>
<polyline clip-path="url(#clip182)" style="stroke:#000000; stroke-linecap:butt; stroke-linejoin:round; stroke-width:2; stroke-opacity:0.1; fill:none" points="
  338.404,272.496 2352.76,272.496 
  "/>
<polyline clip-path="url(#clip180)" style="stroke:#000000; stroke-linecap:butt; stroke-linejoin:round; stroke-width:4; stroke-opacity:1; fill:none" points="
  338.404,1486.45 338.404,123.472 
  "/>
<polyline clip-path="url(#clip180)" style="stroke:#000000; stroke-linecap:butt; stroke-linejoin:round; stroke-width:4; stroke-opacity:1; fill:none" points="
  338.404,1447.87 357.302,1447.87 
  "/>
<polyline clip-path="url(#clip180)" style="stroke:#000000; stroke-linecap:butt; stroke-linejoin:round; stroke-width:4; stroke-opacity:1; fill:none" points="
  338.404,1154.03 357.302,1154.03 
  "/>
<polyline clip-path="url(#clip180)" style="stroke:#000000; stroke-linecap:butt; stroke-linejoin:round; stroke-width:4; stroke-opacity:1; fill:none" points="
  338.404,860.184 357.302,860.184 
  "/>
<polyline clip-path="url(#clip180)" style="stroke:#000000; stroke-linecap:butt; stroke-linejoin:round; stroke-width:4; stroke-opacity:1; fill:none" points="
  338.404,566.34 357.302,566.34 
  "/>
<polyline clip-path="url(#clip180)" style="stroke:#000000; stroke-linecap:butt; stroke-linejoin:round; stroke-width:4; stroke-opacity:1; fill:none" points="
  338.404,272.496 357.302,272.496 
  "/>
<path clip-path="url(#clip180)" d="M290.46 1433.67 Q286.849 1433.67 285.02 1437.24 Q283.215 1440.78 283.215 1447.91 Q283.215 1455.01 285.02 1458.58 Q286.849 1462.12 290.46 1462.12 Q294.094 1462.12 295.9 1458.58 Q297.729 1455.01 297.729 1447.91 Q297.729 1440.78 295.9 1437.24 Q294.094 1433.67 290.46 1433.67 M290.46 1429.97 Q296.27 1429.97 299.326 1434.57 Q302.404 1439.16 302.404 1447.91 Q302.404 1456.63 299.326 1461.24 Q296.27 1465.82 290.46 1465.82 Q284.65 1465.82 281.571 1461.24 Q278.516 1456.63 278.516 1447.91 Q278.516 1439.16 281.571 1434.57 Q284.65 1429.97 290.46 1429.97 Z" fill="#000000" fill-rule="evenodd" fill-opacity="1" /><path clip-path="url(#clip180)" d="M121.043 1173.82 L137.362 1173.82 L137.362 1177.76 L115.418 1177.76 L115.418 1173.82 Q118.08 1171.07 122.663 1166.44 Q127.269 1161.78 128.45 1160.44 Q130.695 1157.92 131.575 1156.18 Q132.478 1154.42 132.478 1152.73 Q132.478 1149.98 130.533 1148.24 Q128.612 1146.51 125.51 1146.51 Q123.311 1146.51 120.857 1147.27 Q118.427 1148.03 115.649 1149.59 L115.649 1144.86 Q118.473 1143.73 120.927 1143.15 Q123.38 1142.57 125.418 1142.57 Q130.788 1142.57 133.982 1145.26 Q137.177 1147.94 137.177 1152.43 Q137.177 1154.56 136.367 1156.48 Q135.579 1158.38 133.473 1160.97 Q132.894 1161.65 129.792 1164.86 Q126.691 1168.06 121.043 1173.82 Z" fill="#000000" fill-rule="evenodd" fill-opacity="1" /><path clip-path="url(#clip180)" d="M147.177 1171.88 L152.061 1171.88 L152.061 1177.76 L147.177 1177.76 L147.177 1171.88 Z" fill="#000000" fill-rule="evenodd" fill-opacity="1" /><path clip-path="url(#clip180)" d="M172.246 1146.28 Q168.635 1146.28 166.806 1149.84 Q165.001 1153.38 165.001 1160.51 Q165.001 1167.62 166.806 1171.18 Q168.635 1174.72 172.246 1174.72 Q175.88 1174.72 177.686 1171.18 Q179.514 1167.62 179.514 1160.51 Q179.514 1153.38 177.686 1149.84 Q175.88 1146.28 172.246 1146.28 M172.246 1142.57 Q178.056 1142.57 181.112 1147.18 Q184.19 1151.76 184.19 1160.51 Q184.19 1169.24 181.112 1173.84 Q178.056 1178.43 172.246 1178.43 Q166.436 1178.43 163.357 1173.84 Q160.302 1169.24 160.302 1160.51 Q160.302 1151.76 163.357 1147.18 Q166.436 1142.57 172.246 1142.57 Z" fill="#000000" fill-rule="evenodd" fill-opacity="1" /><path clip-path="url(#clip180)" d="M220.579 1152.29 L210 1162.92 L220.579 1173.5 L217.824 1176.3 L207.199 1165.67 L196.575 1176.3 L193.843 1173.5 L204.399 1162.92 L193.843 1152.29 L196.575 1149.49 L207.199 1160.12 L217.824 1149.49 L220.579 1152.29 Z" fill="#000000" fill-rule="evenodd" fill-opacity="1" /><path clip-path="url(#clip180)" d="M232.94 1173.82 L240.579 1173.82 L240.579 1147.46 L232.269 1149.12 L232.269 1144.86 L240.533 1143.2 L245.209 1143.2 L245.209 1173.82 L252.847 1173.82 L252.847 1177.76 L232.94 1177.76 L232.94 1173.82 Z" fill="#000000" fill-rule="evenodd" fill-opacity="1" /><path clip-path="url(#clip180)" d="M272.292 1146.28 Q268.681 1146.28 266.852 1149.84 Q265.046 1153.38 265.046 1160.51 Q265.046 1167.62 266.852 1171.18 Q268.681 1174.72 272.292 1174.72 Q275.926 1174.72 277.732 1171.18 Q279.56 1167.62 279.56 1160.51 Q279.56 1153.38 277.732 1149.84 Q275.926 1146.28 272.292 1146.28 M272.292 1142.57 Q278.102 1142.57 281.157 1147.18 Q284.236 1151.76 284.236 1160.51 Q284.236 1169.24 281.157 1173.84 Q278.102 1178.43 272.292 1178.43 Q266.482 1178.43 263.403 1173.84 Q260.347 1169.24 260.347 1160.51 Q260.347 1151.76 263.403 1147.18 Q266.482 1142.57 272.292 1142.57 Z" fill="#000000" fill-rule="evenodd" fill-opacity="1" /><path clip-path="url(#clip180)" d="M285.421 1122.27 L300.336 1122.27 L300.336 1125.46 L288.9 1125.46 L288.9 1132.35 Q289.728 1132.06 290.556 1131.93 Q291.383 1131.78 292.211 1131.78 Q296.913 1131.78 299.658 1134.36 Q302.404 1136.94 302.404 1141.34 Q302.404 1145.87 299.583 1148.39 Q296.762 1150.89 291.628 1150.89 Q289.86 1150.89 288.016 1150.59 Q286.192 1150.29 284.236 1149.69 L284.236 1145.87 Q285.929 1146.79 287.734 1147.24 Q289.54 1147.69 291.552 1147.69 Q294.806 1147.69 296.706 1145.98 Q298.605 1144.27 298.605 1141.34 Q298.605 1138.4 296.706 1136.69 Q294.806 1134.98 291.552 1134.98 Q290.029 1134.98 288.505 1135.32 Q287.001 1135.66 285.421 1136.37 L285.421 1122.27 Z" fill="#000000" fill-rule="evenodd" fill-opacity="1" /><path clip-path="url(#clip180)" d="M129.862 853.426 L118.056 871.875 L129.862 871.875 L129.862 853.426 M128.635 849.352 L134.515 849.352 L134.515 871.875 L139.445 871.875 L139.445 875.764 L134.515 875.764 L134.515 883.912 L129.862 883.912 L129.862 875.764 L114.26 875.764 L114.26 871.25 L128.635 849.352 Z" fill="#000000" fill-rule="evenodd" fill-opacity="1" /><path clip-path="url(#clip180)" d="M147.177 878.032 L152.061 878.032 L152.061 883.912 L147.177 883.912 L147.177 878.032 Z" fill="#000000" fill-rule="evenodd" fill-opacity="1" /><path clip-path="url(#clip180)" d="M172.246 852.431 Q168.635 852.431 166.806 855.995 Q165.001 859.537 165.001 866.667 Q165.001 873.773 166.806 877.338 Q168.635 880.88 172.246 880.88 Q175.88 880.88 177.686 877.338 Q179.514 873.773 179.514 866.667 Q179.514 859.537 177.686 855.995 Q175.88 852.431 172.246 852.431 M172.246 848.727 Q178.056 848.727 181.112 853.333 Q184.19 857.917 184.19 866.667 Q184.19 875.394 181.112 880 Q178.056 884.583 172.246 884.583 Q166.436 884.583 163.357 880 Q160.302 875.394 160.302 866.667 Q160.302 857.917 163.357 853.333 Q166.436 848.727 172.246 848.727 Z" fill="#000000" fill-rule="evenodd" fill-opacity="1" /><path clip-path="url(#clip180)" d="M220.579 858.449 L210 869.074 L220.579 879.653 L217.824 882.454 L207.199 871.829 L196.575 882.454 L193.843 879.653 L204.399 869.074 L193.843 858.449 L196.575 855.648 L207.199 866.273 L217.824 855.648 L220.579 858.449 Z" fill="#000000" fill-rule="evenodd" fill-opacity="1" /><path clip-path="url(#clip180)" d="M232.94 879.977 L240.579 879.977 L240.579 853.611 L232.269 855.278 L232.269 851.019 L240.533 849.352 L245.209 849.352 L245.209 879.977 L252.847 879.977 L252.847 883.912 L232.94 883.912 L232.94 879.977 Z" fill="#000000" fill-rule="evenodd" fill-opacity="1" /><path clip-path="url(#clip180)" d="M272.292 852.431 Q268.681 852.431 266.852 855.995 Q265.046 859.537 265.046 866.667 Q265.046 873.773 266.852 877.338 Q268.681 880.88 272.292 880.88 Q275.926 880.88 277.732 877.338 Q279.56 873.773 279.56 866.667 Q279.56 859.537 277.732 855.995 Q275.926 852.431 272.292 852.431 M272.292 848.727 Q278.102 848.727 281.157 853.333 Q284.236 857.917 284.236 866.667 Q284.236 875.394 281.157 880 Q278.102 884.583 272.292 884.583 Q266.482 884.583 263.403 880 Q260.347 875.394 260.347 866.667 Q260.347 857.917 263.403 853.333 Q266.482 848.727 272.292 848.727 Z" fill="#000000" fill-rule="evenodd" fill-opacity="1" /><path clip-path="url(#clip180)" d="M285.421 828.422 L300.336 828.422 L300.336 831.619 L288.9 831.619 L288.9 838.503 Q289.728 838.22 290.556 838.089 Q291.383 837.938 292.211 837.938 Q296.913 837.938 299.658 840.515 Q302.404 843.092 302.404 847.493 Q302.404 852.025 299.583 854.546 Q296.762 857.047 291.628 857.047 Q289.86 857.047 288.016 856.746 Q286.192 856.445 284.236 855.843 L284.236 852.025 Q285.929 852.947 287.734 853.398 Q289.54 853.85 291.552 853.85 Q294.806 853.85 296.706 852.138 Q298.605 850.427 298.605 847.493 Q298.605 844.559 296.706 842.847 Q294.806 841.136 291.552 841.136 Q290.029 841.136 288.505 841.474 Q287.001 841.813 285.421 842.527 L285.421 828.422 Z" fill="#000000" fill-rule="evenodd" fill-opacity="1" /><path clip-path="url(#clip180)" d="M127.593 570.924 Q124.445 570.924 122.593 573.077 Q120.765 575.23 120.765 578.98 Q120.765 582.707 122.593 584.882 Q124.445 587.035 127.593 587.035 Q130.742 587.035 132.57 584.882 Q134.422 582.707 134.422 578.98 Q134.422 575.23 132.57 573.077 Q130.742 570.924 127.593 570.924 M136.876 556.272 L136.876 560.531 Q135.117 559.697 133.311 559.258 Q131.529 558.818 129.769 558.818 Q125.14 558.818 122.686 561.943 Q120.255 565.068 119.908 571.387 Q121.274 569.373 123.334 568.308 Q125.394 567.221 127.871 567.221 Q133.08 567.221 136.089 570.392 Q139.121 573.54 139.121 578.98 Q139.121 584.304 135.973 587.521 Q132.825 590.739 127.593 590.739 Q121.598 590.739 118.427 586.156 Q115.256 581.549 115.256 572.822 Q115.256 564.628 119.144 559.767 Q123.033 554.883 129.584 554.883 Q131.343 554.883 133.126 555.23 Q134.931 555.577 136.876 556.272 Z" fill="#000000" fill-rule="evenodd" fill-opacity="1" /><path clip-path="url(#clip180)" d="M147.177 584.188 L152.061 584.188 L152.061 590.068 L147.177 590.068 L147.177 584.188 Z" fill="#000000" fill-rule="evenodd" fill-opacity="1" /><path clip-path="url(#clip180)" d="M172.246 558.586 Q168.635 558.586 166.806 562.151 Q165.001 565.693 165.001 572.822 Q165.001 579.929 166.806 583.494 Q168.635 587.035 172.246 587.035 Q175.88 587.035 177.686 583.494 Q179.514 579.929 179.514 572.822 Q179.514 565.693 177.686 562.151 Q175.88 558.586 172.246 558.586 M172.246 554.883 Q178.056 554.883 181.112 559.489 Q184.19 564.072 184.19 572.822 Q184.19 581.549 181.112 586.156 Q178.056 590.739 172.246 590.739 Q166.436 590.739 163.357 586.156 Q160.302 581.549 160.302 572.822 Q160.302 564.072 163.357 559.489 Q166.436 554.883 172.246 554.883 Z" fill="#000000" fill-rule="evenodd" fill-opacity="1" /><path clip-path="url(#clip180)" d="M220.579 564.605 L210 575.23 L220.579 585.808 L217.824 588.609 L207.199 577.984 L196.575 588.609 L193.843 585.808 L204.399 575.23 L193.843 564.605 L196.575 561.804 L207.199 572.429 L217.824 561.804 L220.579 564.605 Z" fill="#000000" fill-rule="evenodd" fill-opacity="1" /><path clip-path="url(#clip180)" d="M232.94 586.132 L240.579 586.132 L240.579 559.767 L232.269 561.434 L232.269 557.174 L240.533 555.508 L245.209 555.508 L245.209 586.132 L252.847 586.132 L252.847 590.068 L232.94 590.068 L232.94 586.132 Z" fill="#000000" fill-rule="evenodd" fill-opacity="1" /><path clip-path="url(#clip180)" d="M272.292 558.586 Q268.681 558.586 266.852 562.151 Q265.046 565.693 265.046 572.822 Q265.046 579.929 266.852 583.494 Q268.681 587.035 272.292 587.035 Q275.926 587.035 277.732 583.494 Q279.56 579.929 279.56 572.822 Q279.56 565.693 277.732 562.151 Q275.926 558.586 272.292 558.586 M272.292 554.883 Q278.102 554.883 281.157 559.489 Q284.236 564.072 284.236 572.822 Q284.236 581.549 281.157 586.156 Q278.102 590.739 272.292 590.739 Q266.482 590.739 263.403 586.156 Q260.347 581.549 260.347 572.822 Q260.347 564.072 263.403 559.489 Q266.482 554.883 272.292 554.883 Z" fill="#000000" fill-rule="evenodd" fill-opacity="1" /><path clip-path="url(#clip180)" d="M285.421 534.577 L300.336 534.577 L300.336 537.775 L288.9 537.775 L288.9 544.658 Q289.728 544.376 290.556 544.244 Q291.383 544.094 292.211 544.094 Q296.913 544.094 299.658 546.671 Q302.404 549.247 302.404 553.648 Q302.404 558.181 299.583 560.701 Q296.762 563.203 291.628 563.203 Q289.86 563.203 288.016 562.902 Q286.192 562.601 284.236 561.999 L284.236 558.181 Q285.929 559.103 287.734 559.554 Q289.54 560.005 291.552 560.005 Q294.806 560.005 296.706 558.294 Q298.605 556.582 298.605 553.648 Q298.605 550.714 296.706 549.003 Q294.806 547.291 291.552 547.291 Q290.029 547.291 288.505 547.63 Q287.001 547.968 285.421 548.683 L285.421 534.577 Z" fill="#000000" fill-rule="evenodd" fill-opacity="1" /><path clip-path="url(#clip180)" d="M127.015 279.811 Q123.681 279.811 121.76 281.594 Q119.862 283.376 119.862 286.501 Q119.862 289.626 121.76 291.408 Q123.681 293.191 127.015 293.191 Q130.348 293.191 132.269 291.408 Q134.191 289.603 134.191 286.501 Q134.191 283.376 132.269 281.594 Q130.371 279.811 127.015 279.811 M122.339 277.821 Q119.33 277.08 117.64 275.02 Q115.973 272.959 115.973 269.997 Q115.973 265.853 118.913 263.446 Q121.876 261.038 127.015 261.038 Q132.177 261.038 135.117 263.446 Q138.056 265.853 138.056 269.997 Q138.056 272.959 136.367 275.02 Q134.7 277.08 131.714 277.821 Q135.093 278.608 136.968 280.899 Q138.867 283.191 138.867 286.501 Q138.867 291.524 135.788 294.209 Q132.732 296.895 127.015 296.895 Q121.297 296.895 118.218 294.209 Q115.163 291.524 115.163 286.501 Q115.163 283.191 117.061 280.899 Q118.959 278.608 122.339 277.821 M120.626 270.436 Q120.626 273.122 122.293 274.626 Q123.982 276.131 127.015 276.131 Q130.024 276.131 131.714 274.626 Q133.427 273.122 133.427 270.436 Q133.427 267.751 131.714 266.247 Q130.024 264.742 127.015 264.742 Q123.982 264.742 122.293 266.247 Q120.626 267.751 120.626 270.436 Z" fill="#000000" fill-rule="evenodd" fill-opacity="1" /><path clip-path="url(#clip180)" d="M147.177 290.344 L152.061 290.344 L152.061 296.223 L147.177 296.223 L147.177 290.344 Z" fill="#000000" fill-rule="evenodd" fill-opacity="1" /><path clip-path="url(#clip180)" d="M172.246 264.742 Q168.635 264.742 166.806 268.307 Q165.001 271.848 165.001 278.978 Q165.001 286.084 166.806 289.649 Q168.635 293.191 172.246 293.191 Q175.88 293.191 177.686 289.649 Q179.514 286.084 179.514 278.978 Q179.514 271.848 177.686 268.307 Q175.88 264.742 172.246 264.742 M172.246 261.038 Q178.056 261.038 181.112 265.645 Q184.19 270.228 184.19 278.978 Q184.19 287.705 181.112 292.311 Q178.056 296.895 172.246 296.895 Q166.436 296.895 163.357 292.311 Q160.302 287.705 160.302 278.978 Q160.302 270.228 163.357 265.645 Q166.436 261.038 172.246 261.038 Z" fill="#000000" fill-rule="evenodd" fill-opacity="1" /><path clip-path="url(#clip180)" d="M220.579 270.76 L210 281.385 L220.579 291.964 L217.824 294.765 L207.199 284.14 L196.575 294.765 L193.843 291.964 L204.399 281.385 L193.843 270.76 L196.575 267.96 L207.199 278.584 L217.824 267.96 L220.579 270.76 Z" fill="#000000" fill-rule="evenodd" fill-opacity="1" /><path clip-path="url(#clip180)" d="M232.94 292.288 L240.579 292.288 L240.579 265.922 L232.269 267.589 L232.269 263.33 L240.533 261.663 L245.209 261.663 L245.209 292.288 L252.847 292.288 L252.847 296.223 L232.94 296.223 L232.94 292.288 Z" fill="#000000" fill-rule="evenodd" fill-opacity="1" /><path clip-path="url(#clip180)" d="M272.292 264.742 Q268.681 264.742 266.852 268.307 Q265.046 271.848 265.046 278.978 Q265.046 286.084 266.852 289.649 Q268.681 293.191 272.292 293.191 Q275.926 293.191 277.732 289.649 Q279.56 286.084 279.56 278.978 Q279.56 271.848 277.732 268.307 Q275.926 264.742 272.292 264.742 M272.292 261.038 Q278.102 261.038 281.157 265.645 Q284.236 270.228 284.236 278.978 Q284.236 287.705 281.157 292.311 Q278.102 296.895 272.292 296.895 Q266.482 296.895 263.403 292.311 Q260.347 287.705 260.347 278.978 Q260.347 270.228 263.403 265.645 Q266.482 261.038 272.292 261.038 Z" fill="#000000" fill-rule="evenodd" fill-opacity="1" /><path clip-path="url(#clip180)" d="M285.421 240.733 L300.336 240.733 L300.336 243.93 L288.9 243.93 L288.9 250.814 Q289.728 250.532 290.556 250.4 Q291.383 250.25 292.211 250.25 Q296.913 250.25 299.658 252.826 Q302.404 255.403 302.404 259.804 Q302.404 264.337 299.583 266.857 Q296.762 269.358 291.628 269.358 Q289.86 269.358 288.016 269.057 Q286.192 268.756 284.236 268.155 L284.236 264.337 Q285.929 265.258 287.734 265.71 Q289.54 266.161 291.552 266.161 Q294.806 266.161 296.706 264.449 Q298.605 262.738 298.605 259.804 Q298.605 256.87 296.706 255.158 Q294.806 253.447 291.552 253.447 Q290.029 253.447 288.505 253.785 Q287.001 254.124 285.421 254.839 L285.421 240.733 Z" fill="#000000" fill-rule="evenodd" fill-opacity="1" /><path clip-path="url(#clip180)" d="M20.1444 905.268 L26.9239 905.268 Q23.9002 908.514 22.4043 912.206 Q20.9083 915.867 20.9083 920.004 Q20.9083 928.152 25.9054 932.481 Q30.8707 936.81 40.2919 936.81 Q49.6813 936.81 54.6784 932.481 Q59.6436 928.152 59.6436 920.004 Q59.6436 915.867 58.1477 912.206 Q56.6518 908.514 53.6281 905.268 L60.3439 905.268 Q62.6355 908.641 63.7814 912.429 Q64.9272 916.185 64.9272 920.386 Q64.9272 931.176 58.3387 937.383 Q51.7183 943.589 40.2919 943.589 Q28.8336 943.589 22.2451 937.383 Q15.6248 931.176 15.6248 920.386 Q15.6248 916.121 16.7706 912.365 Q17.8846 908.578 20.1444 905.268 Z" fill="#000000" fill-rule="evenodd" fill-opacity="1" /><path clip-path="url(#clip180)" d="M32.4621 881.778 Q32.4621 886.489 36.1542 889.226 Q39.8145 891.963 46.212 891.963 Q52.6095 891.963 56.3017 889.258 Q59.9619 886.521 59.9619 881.778 Q59.9619 877.099 56.2698 874.362 Q52.5777 871.625 46.212 871.625 Q39.8781 871.625 36.186 874.362 Q32.4621 877.099 32.4621 881.778 M27.4968 881.778 Q27.4968 874.139 32.4621 869.779 Q37.4273 865.418 46.212 865.418 Q54.9649 865.418 59.9619 869.779 Q64.9272 874.139 64.9272 881.778 Q64.9272 889.449 59.9619 893.809 Q54.9649 898.138 46.212 898.138 Q37.4273 898.138 32.4621 893.809 Q27.4968 889.449 27.4968 881.778 Z" fill="#000000" fill-rule="evenodd" fill-opacity="1" /><path clip-path="url(#clip180)" d="M49.9359 856.315 L28.3562 856.315 L28.3562 850.459 L49.7131 850.459 Q54.7739 850.459 57.3202 848.486 Q59.8346 846.512 59.8346 842.565 Q59.8346 837.823 56.8109 835.086 Q53.7872 832.317 48.5673 832.317 L28.3562 832.317 L28.3562 826.46 L64.0042 826.46 L64.0042 832.317 L58.5296 832.317 Q61.7762 834.449 63.3676 837.282 Q64.9272 840.083 64.9272 843.807 Q64.9272 849.95 61.1078 853.132 Q57.2883 856.315 49.9359 856.315 M27.4968 841.579 L27.4968 841.579 Z" fill="#000000" fill-rule="evenodd" fill-opacity="1" /><path clip-path="url(#clip180)" d="M42.4881 784.765 L64.0042 784.765 L64.0042 790.621 L42.679 790.621 Q37.6183 790.621 35.1038 792.595 Q32.5894 794.568 32.5894 798.515 Q32.5894 803.257 35.6131 805.994 Q38.6368 808.732 43.8567 808.732 L64.0042 808.732 L64.0042 814.62 L28.3562 814.62 L28.3562 808.732 L33.8944 808.732 Q30.6797 806.631 29.0883 803.798 Q27.4968 800.934 27.4968 797.21 Q27.4968 791.067 31.3163 787.916 Q35.1038 784.765 42.4881 784.765 Z" fill="#000000" fill-rule="evenodd" fill-opacity="1" /><path clip-path="url(#clip180)" d="M18.2347 767.291 L28.3562 767.291 L28.3562 755.228 L32.9077 755.228 L32.9077 767.291 L52.2594 767.291 Q56.6199 767.291 57.8613 766.113 Q59.1026 764.904 59.1026 761.244 L59.1026 755.228 L64.0042 755.228 L64.0042 761.244 Q64.0042 768.023 61.4897 770.601 Q58.9434 773.179 52.2594 773.179 L32.9077 773.179 L32.9077 777.476 L28.3562 777.476 L28.3562 773.179 L18.2347 773.179 L18.2347 767.291 Z" fill="#000000" fill-rule="evenodd" fill-opacity="1" /><path clip-path="url(#clip180)" d="M16.4842 737.117 L16.4842 731.707 L70.0516 748.257 L70.0516 753.668 L16.4842 737.117 Z" fill="#000000" fill-rule="evenodd" fill-opacity="1" /><path clip-path="url(#clip180)" d="M67.3143 710.732 Q73.68 713.214 75.6216 715.57 Q77.5631 717.925 77.5631 721.872 L77.5631 726.55 L72.6615 726.55 L72.6615 723.113 Q72.6615 720.694 71.5157 719.357 Q70.3699 718.02 66.1048 716.397 L63.4312 715.347 L28.3562 729.765 L28.3562 723.559 L56.238 712.419 L28.3562 701.279 L28.3562 695.072 L67.3143 710.732 Z" fill="#000000" fill-rule="evenodd" fill-opacity="1" /><path clip-path="url(#clip180)" d="M33.8307 666.331 Q33.2578 667.318 33.0032 668.495 Q32.7167 669.641 32.7167 671.041 Q32.7167 676.007 35.9632 678.68 Q39.1779 681.322 45.2253 681.322 L64.0042 681.322 L64.0042 687.21 L28.3562 687.21 L28.3562 681.322 L33.8944 681.322 Q30.6479 679.476 29.0883 676.516 Q27.4968 673.556 27.4968 669.323 Q27.4968 668.718 27.5923 667.986 Q27.656 667.254 27.8151 666.363 L33.8307 666.331 Z" fill="#000000" fill-rule="evenodd" fill-opacity="1" /><path clip-path="url(#clip180)" d="M939.68 20.1573 L928.58 50.2555 L950.82 50.2555 L939.68 20.1573 M935.062 12.096 L944.338 12.096 L967.388 72.576 L958.881 72.576 L953.372 57.061 L926.109 57.061 L920.6 72.576 L911.971 72.576 L935.062 12.096 Z" fill="#000000" fill-rule="evenodd" fill-opacity="1" /><path clip-path="url(#clip180)" d="M975.125 54.671 L975.125 27.2059 L982.579 27.2059 L982.579 54.3874 Q982.579 60.8284 985.09 64.0691 Q987.602 67.2693 992.625 67.2693 Q998.661 67.2693 1002.14 63.421 Q1005.67 59.5726 1005.67 52.9291 L1005.67 27.2059 L1013.12 27.2059 L1013.12 72.576 L1005.67 72.576 L1005.67 65.6084 Q1002.95 69.7404 999.349 71.7658 Q995.785 73.7508 991.045 73.7508 Q983.227 73.7508 979.176 68.8897 Q975.125 64.0286 975.125 54.671 M993.881 26.1121 L993.881 26.1121 Z" fill="#000000" fill-rule="evenodd" fill-opacity="1" /><path clip-path="url(#clip180)" d="M1057.4 28.5427 L1057.4 35.5912 Q1054.24 33.9709 1050.84 33.1607 Q1047.43 32.3505 1043.79 32.3505 Q1038.24 32.3505 1035.44 34.0519 Q1032.69 35.7533 1032.69 39.156 Q1032.69 41.7486 1034.67 43.2475 Q1036.66 44.7058 1042.65 46.0426 L1045.21 46.6097 Q1053.15 48.3111 1056.47 51.4303 Q1059.83 54.509 1059.83 60.0587 Q1059.83 66.3781 1054.81 70.0644 Q1049.82 73.7508 1041.07 73.7508 Q1037.43 73.7508 1033.46 73.0216 Q1029.53 72.3329 1025.15 70.9151 L1025.15 63.2184 Q1029.29 65.3654 1033.3 66.4591 Q1037.31 67.5124 1041.24 67.5124 Q1046.5 67.5124 1049.34 65.73 Q1052.17 63.9071 1052.17 60.6258 Q1052.17 57.5877 1050.11 55.9673 Q1048.08 54.3469 1041.15 52.8481 L1038.56 52.2405 Q1031.64 50.7821 1028.56 47.7845 Q1025.48 44.7463 1025.48 39.4801 Q1025.48 33.0797 1030.01 29.5959 Q1034.55 26.1121 1042.9 26.1121 Q1047.03 26.1121 1050.67 26.7198 Q1054.32 27.3274 1057.4 28.5427 Z" fill="#000000" fill-rule="evenodd" fill-opacity="1" /><path clip-path="url(#clip180)" d="M1079.07 14.324 L1079.07 27.2059 L1094.42 27.2059 L1094.42 32.9987 L1079.07 32.9987 L1079.07 57.6282 Q1079.07 63.1779 1080.57 64.7578 Q1082.11 66.3376 1086.77 66.3376 L1094.42 66.3376 L1094.42 72.576 L1086.77 72.576 Q1078.14 72.576 1074.86 69.3758 Q1071.58 66.1351 1071.58 57.6282 L1071.58 32.9987 L1066.11 32.9987 L1066.11 27.2059 L1071.58 27.2059 L1071.58 14.324 L1079.07 14.324 Z" fill="#000000" fill-rule="evenodd" fill-opacity="1" /><path clip-path="url(#clip180)" d="M1130.52 34.1734 Q1129.26 33.4443 1127.76 33.1202 Q1126.3 32.7556 1124.52 32.7556 Q1118.2 32.7556 1114.8 36.8875 Q1111.44 40.9789 1111.44 48.6757 L1111.44 72.576 L1103.94 72.576 L1103.94 27.2059 L1111.44 27.2059 L1111.44 34.2544 Q1113.79 30.1225 1117.55 28.1376 Q1121.32 26.1121 1126.71 26.1121 Q1127.48 26.1121 1128.41 26.2337 Q1129.34 26.3147 1130.48 26.5172 L1130.52 34.1734 Z" fill="#000000" fill-rule="evenodd" fill-opacity="1" /><path clip-path="url(#clip180)" d="M1158.95 49.7694 Q1149.92 49.7694 1146.44 51.8354 Q1142.95 53.9013 1142.95 58.8839 Q1142.95 62.8538 1145.55 65.2034 Q1148.18 67.5124 1152.68 67.5124 Q1158.87 67.5124 1162.6 63.1374 Q1166.37 58.7219 1166.37 51.4303 L1166.37 49.7694 L1158.95 49.7694 M1173.82 46.6907 L1173.82 72.576 L1166.37 72.576 L1166.37 65.6895 Q1163.82 69.8214 1160.01 71.8063 Q1156.2 73.7508 1150.69 73.7508 Q1143.72 73.7508 1139.59 69.8619 Q1135.5 65.9325 1135.5 59.3701 Q1135.5 51.7138 1140.6 47.825 Q1145.75 43.9361 1155.92 43.9361 L1166.37 43.9361 L1166.37 43.2069 Q1166.37 38.0623 1162.97 35.2672 Q1159.6 32.4315 1153.49 32.4315 Q1149.6 32.4315 1145.91 33.3632 Q1142.22 34.295 1138.82 36.1584 L1138.82 29.2718 Q1142.91 27.692 1146.76 26.9223 Q1150.61 26.1121 1154.26 26.1121 Q1164.1 26.1121 1168.96 31.2163 Q1173.82 36.3204 1173.82 46.6907 Z" fill="#000000" fill-rule="evenodd" fill-opacity="1" /><path clip-path="url(#clip180)" d="M1189.17 9.54393 L1196.63 9.54393 L1196.63 72.576 L1189.17 72.576 L1189.17 9.54393 Z" fill="#000000" fill-rule="evenodd" fill-opacity="1" /><path clip-path="url(#clip180)" d="M1212.22 27.2059 L1219.68 27.2059 L1219.68 72.576 L1212.22 72.576 L1212.22 27.2059 M1212.22 9.54393 L1219.68 9.54393 L1219.68 18.9825 L1212.22 18.9825 L1212.22 9.54393 Z" fill="#000000" fill-rule="evenodd" fill-opacity="1" /><path clip-path="url(#clip180)" d="M1255.89 49.7694 Q1246.86 49.7694 1243.38 51.8354 Q1239.89 53.9013 1239.89 58.8839 Q1239.89 62.8538 1242.48 65.2034 Q1245.12 67.5124 1249.61 67.5124 Q1255.81 67.5124 1259.54 63.1374 Q1263.31 58.7219 1263.31 51.4303 L1263.31 49.7694 L1255.89 49.7694 M1270.76 46.6907 L1270.76 72.576 L1263.31 72.576 L1263.31 65.6895 Q1260.75 69.8214 1256.95 71.8063 Q1253.14 73.7508 1247.63 73.7508 Q1240.66 73.7508 1236.53 69.8619 Q1232.44 65.9325 1232.44 59.3701 Q1232.44 51.7138 1237.54 47.825 Q1242.69 43.9361 1252.85 43.9361 L1263.31 43.9361 L1263.31 43.2069 Q1263.31 38.0623 1259.9 35.2672 Q1256.54 32.4315 1250.42 32.4315 Q1246.54 32.4315 1242.85 33.3632 Q1239.16 34.295 1235.76 36.1584 L1235.76 29.2718 Q1239.85 27.692 1243.7 26.9223 Q1247.55 26.1121 1251.19 26.1121 Q1261.04 26.1121 1265.9 31.2163 Q1270.76 36.3204 1270.76 46.6907 Z" fill="#000000" fill-rule="evenodd" fill-opacity="1" /><path clip-path="url(#clip180)" d="M1337.36 17.6457 Q1328.44 17.6457 1323.18 24.2892 Q1317.95 30.9327 1317.95 42.3968 Q1317.95 53.8203 1323.18 60.4638 Q1328.44 67.1073 1337.36 67.1073 Q1346.27 67.1073 1351.45 60.4638 Q1356.68 53.8203 1356.68 42.3968 Q1356.68 30.9327 1351.45 24.2892 Q1346.27 17.6457 1337.36 17.6457 M1337.36 11.0023 Q1350.08 11.0023 1357.69 19.5497 Q1365.31 28.0566 1365.31 42.3968 Q1365.31 56.6965 1357.69 65.2439 Q1350.08 73.7508 1337.36 73.7508 Q1324.6 73.7508 1316.94 65.2439 Q1309.32 56.737 1309.32 42.3968 Q1309.32 28.0566 1316.94 19.5497 Q1324.6 11.0023 1337.36 11.0023 Z" fill="#000000" fill-rule="evenodd" fill-opacity="1" /><path clip-path="url(#clip180)" d="M1385.16 14.324 L1385.16 27.2059 L1400.51 27.2059 L1400.51 32.9987 L1385.16 32.9987 L1385.16 57.6282 Q1385.16 63.1779 1386.66 64.7578 Q1388.2 66.3376 1392.85 66.3376 L1400.51 66.3376 L1400.51 72.576 L1392.85 72.576 Q1384.23 72.576 1380.94 69.3758 Q1377.66 66.1351 1377.66 57.6282 L1377.66 32.9987 L1372.19 32.9987 L1372.19 27.2059 L1377.66 27.2059 L1377.66 14.324 L1385.16 14.324 Z" fill="#000000" fill-rule="evenodd" fill-opacity="1" /><path clip-path="url(#clip180)" d="M1448.03 45.1919 L1448.03 72.576 L1440.57 72.576 L1440.57 45.4349 Q1440.57 38.994 1438.06 35.7938 Q1435.55 32.5936 1430.53 32.5936 Q1424.49 32.5936 1421.01 36.4419 Q1417.52 40.2903 1417.52 46.9338 L1417.52 72.576 L1410.03 72.576 L1410.03 9.54393 L1417.52 9.54393 L1417.52 34.2544 Q1420.2 30.163 1423.8 28.1376 Q1427.45 26.1121 1432.19 26.1121 Q1440.01 26.1121 1444.02 30.9732 Q1448.03 35.7938 1448.03 45.1919 Z" fill="#000000" fill-rule="evenodd" fill-opacity="1" /><path clip-path="url(#clip180)" d="M1501.7 48.0275 L1501.7 51.6733 L1467.43 51.6733 Q1467.92 59.3701 1472.05 63.421 Q1476.22 67.4314 1483.63 67.4314 Q1487.93 67.4314 1491.94 66.3781 Q1495.99 65.3249 1499.96 63.2184 L1499.96 70.267 Q1495.95 71.9684 1491.74 72.8596 Q1487.52 73.7508 1483.19 73.7508 Q1472.33 73.7508 1465.97 67.4314 Q1459.65 61.1119 1459.65 50.3365 Q1459.65 39.1965 1465.65 32.6746 Q1471.68 26.1121 1481.89 26.1121 Q1491.05 26.1121 1496.35 32.0264 Q1501.7 37.9003 1501.7 48.0275 M1494.25 45.84 Q1494.17 39.7232 1490.81 36.0774 Q1487.48 32.4315 1481.97 32.4315 Q1475.74 32.4315 1471.97 35.9558 Q1468.24 39.4801 1467.67 45.8805 L1494.25 45.84 Z" fill="#000000" fill-rule="evenodd" fill-opacity="1" /><path clip-path="url(#clip180)" d="M1540.23 34.1734 Q1538.97 33.4443 1537.47 33.1202 Q1536.01 32.7556 1534.23 32.7556 Q1527.91 32.7556 1524.51 36.8875 Q1521.15 40.9789 1521.15 48.6757 L1521.15 72.576 L1513.65 72.576 L1513.65 27.2059 L1521.15 27.2059 L1521.15 34.2544 Q1523.5 30.1225 1527.26 28.1376 Q1531.03 26.1121 1536.42 26.1121 Q1537.19 26.1121 1538.12 26.2337 Q1539.05 26.3147 1540.19 26.5172 L1540.23 34.1734 Z" fill="#000000" fill-rule="evenodd" fill-opacity="1" /><path clip-path="url(#clip180)" d="M1566.35 12.096 L1617.52 12.096 L1617.52 18.9825 L1596.05 18.9825 L1596.05 72.576 L1587.82 72.576 L1587.82 18.9825 L1566.35 18.9825 L1566.35 12.096 Z" fill="#000000" fill-rule="evenodd" fill-opacity="1" /><path clip-path="url(#clip180)" d="M1662.81 45.1919 L1662.81 72.576 L1655.35 72.576 L1655.35 45.4349 Q1655.35 38.994 1652.84 35.7938 Q1650.33 32.5936 1645.31 32.5936 Q1639.27 32.5936 1635.79 36.4419 Q1632.3 40.2903 1632.3 46.9338 L1632.3 72.576 L1624.81 72.576 L1624.81 9.54393 L1632.3 9.54393 L1632.3 34.2544 Q1634.98 30.163 1638.58 28.1376 Q1642.23 26.1121 1646.97 26.1121 Q1654.79 26.1121 1658.8 30.9732 Q1662.81 35.7938 1662.81 45.1919 Z" fill="#000000" fill-rule="evenodd" fill-opacity="1" /><path clip-path="url(#clip180)" d="M1716.48 48.0275 L1716.48 51.6733 L1682.21 51.6733 Q1682.7 59.3701 1686.83 63.421 Q1691 67.4314 1698.41 67.4314 Q1702.71 67.4314 1706.72 66.3781 Q1710.77 65.3249 1714.74 63.2184 L1714.74 70.267 Q1710.73 71.9684 1706.52 72.8596 Q1702.3 73.7508 1697.97 73.7508 Q1687.11 73.7508 1680.75 67.4314 Q1674.43 61.1119 1674.43 50.3365 Q1674.43 39.1965 1680.43 32.6746 Q1686.46 26.1121 1696.67 26.1121 Q1705.83 26.1121 1711.13 32.0264 Q1716.48 37.9003 1716.48 48.0275 M1709.03 45.84 Q1708.95 39.7232 1705.58 36.0774 Q1702.26 32.4315 1696.75 32.4315 Q1690.51 32.4315 1686.75 35.9558 Q1683.02 39.4801 1682.45 45.8805 L1709.03 45.84 Z" fill="#000000" fill-rule="evenodd" fill-opacity="1" /><path clip-path="url(#clip180)" d="M1751.68 9.54393 L1751.68 15.7418 L1744.55 15.7418 Q1740.54 15.7418 1738.96 17.3622 Q1737.42 18.9825 1737.42 23.1955 L1737.42 27.2059 L1749.7 27.2059 L1749.7 32.9987 L1737.42 32.9987 L1737.42 72.576 L1729.93 72.576 L1729.93 32.9987 L1722.8 32.9987 L1722.8 27.2059 L1729.93 27.2059 L1729.93 24.0462 Q1729.93 16.471 1733.45 13.0277 Q1736.98 9.54393 1744.63 9.54393 L1751.68 9.54393 Z" fill="#000000" fill-rule="evenodd" fill-opacity="1" /><path clip-path="url(#clip180)" d="M1763.84 14.324 L1763.84 27.2059 L1779.19 27.2059 L1779.19 32.9987 L1763.84 32.9987 L1763.84 57.6282 Q1763.84 63.1779 1765.33 64.7578 Q1766.87 66.3376 1771.53 66.3376 L1779.19 66.3376 L1779.19 72.576 L1771.53 72.576 Q1762.9 72.576 1759.62 69.3758 Q1756.34 66.1351 1756.34 57.6282 L1756.34 32.9987 L1750.87 32.9987 L1750.87 27.2059 L1756.34 27.2059 L1756.34 14.324 L1763.84 14.324 Z" fill="#000000" fill-rule="evenodd" fill-opacity="1" /><polyline clip-path="url(#clip182)" style="stroke:#009af9; stroke-linecap:butt; stroke-linejoin:round; stroke-width:4; stroke-opacity:1; fill:none" points="
  395.414,727.18 474.595,680.613 553.775,667.891 632.956,620.416 712.136,547.892 791.317,446.942 870.497,419.212 949.678,447.627 1028.86,531.026 1108.04,641.601 
  1187.22,686.327 1266.4,685.739 1345.58,725.11 1424.76,717.595 1503.94,742.153 1583.12,746.665 1662.3,711.36 1741.48,695.114 1820.66,722.753 1899.84,734.751 
  1979.02,699.086 2058.2,658.493 2137.38,697.994 2216.57,672.87 2295.75,611.292 
  "/>
<polyline clip-path="url(#clip182)" style="stroke:#e26f46; stroke-linecap:butt; stroke-linejoin:round; stroke-width:4; stroke-opacity:1; fill:none" points="
  474.595,1447.87 474.595,162.047 
  "/>
<path clip-path="url(#clip180)" d="
M1860.2 324.425 L2285.61 324.425 L2285.61 168.905 L1860.2 168.905  Z
  " fill="#ffffff" fill-rule="evenodd" fill-opacity="1"/>
<polyline clip-path="url(#clip180)" style="stroke:#000000; stroke-linecap:butt; stroke-linejoin:round; stroke-width:4; stroke-opacity:1; fill:none" points="
  1860.2,324.425 2285.61,324.425 2285.61,168.905 1860.2,168.905 1860.2,324.425 
  "/>
<polyline clip-path="url(#clip180)" style="stroke:#009af9; stroke-linecap:butt; stroke-linejoin:round; stroke-width:4; stroke-opacity:1; fill:none" points="
  1882.58,220.745 2016.87,220.745 
  "/>
<path clip-path="url(#clip180)" d="M2053.09 240.432 Q2051.29 245.062 2049.58 246.474 Q2047.86 247.886 2044.99 247.886 L2041.59 247.886 L2041.59 244.321 L2044.09 244.321 Q2045.85 244.321 2046.82 243.488 Q2047.79 242.654 2048.97 239.552 L2049.74 237.608 L2039.25 212.099 L2043.77 212.099 L2051.87 232.377 L2059.97 212.099 L2064.48 212.099 L2053.09 240.432 Z" fill="#000000" fill-rule="evenodd" fill-opacity="1" /><path clip-path="url(#clip180)" d="M2071.77 234.089 L2079.41 234.089 L2079.41 207.724 L2071.1 209.391 L2071.1 205.131 L2079.37 203.465 L2084.04 203.465 L2084.04 234.089 L2091.68 234.089 L2091.68 238.025 L2071.77 238.025 L2071.77 234.089 Z" fill="#000000" fill-rule="evenodd" fill-opacity="1" /><polyline clip-path="url(#clip180)" style="stroke:#e26f46; stroke-linecap:butt; stroke-linejoin:round; stroke-width:4; stroke-opacity:1; fill:none" points="
  1882.58,272.585 2016.87,272.585 
  "/>
<path clip-path="url(#clip180)" d="M2039.25 255.305 L2045.55 255.305 L2060.87 284.217 L2060.87 255.305 L2065.41 255.305 L2065.41 289.865 L2059.11 289.865 L2043.79 260.953 L2043.79 289.865 L2039.25 289.865 L2039.25 255.305 Z" fill="#000000" fill-rule="evenodd" fill-opacity="1" /><path clip-path="url(#clip180)" d="M2074.71 255.305 L2094.58 255.305 L2094.58 259.24 L2079.39 259.24 L2079.39 269.425 L2093.09 269.425 L2093.09 273.36 L2079.39 273.36 L2079.39 289.865 L2074.71 289.865 L2074.71 255.305 Z" fill="#000000" fill-rule="evenodd" fill-opacity="1" /><path clip-path="url(#clip180)" d="M2109.18 259.911 L2102.84 277.11 L2115.55 277.11 L2109.18 259.911 M2106.54 255.305 L2111.84 255.305 L2125.01 289.865 L2120.15 289.865 L2117.01 280.999 L2101.43 280.999 L2098.28 289.865 L2093.35 289.865 L2106.54 255.305 Z" fill="#000000" fill-rule="evenodd" fill-opacity="1" /><path clip-path="url(#clip180)" d="M2140.39 255.305 L2145.41 255.305 L2154.99 269.518 L2164.51 255.305 L2169.53 255.305 L2157.31 273.406 L2157.31 289.865 L2152.61 289.865 L2152.61 273.406 L2140.39 255.305 Z" fill="#000000" fill-rule="evenodd" fill-opacity="1" /><path clip-path="url(#clip180)" d="M2189.78 275.837 L2189.78 277.92 L2170.2 277.92 Q2170.48 282.318 2172.84 284.633 Q2175.22 286.925 2179.46 286.925 Q2181.91 286.925 2184.2 286.323 Q2186.52 285.721 2188.79 284.517 L2188.79 288.545 Q2186.5 289.517 2184.09 290.027 Q2181.68 290.536 2179.2 290.536 Q2173 290.536 2169.37 286.925 Q2165.76 283.314 2165.76 277.156 Q2165.76 270.791 2169.18 267.064 Q2172.63 263.314 2178.46 263.314 Q2183.7 263.314 2186.73 266.693 Q2189.78 270.05 2189.78 275.837 M2185.52 274.587 Q2185.48 271.092 2183.56 269.008 Q2181.66 266.925 2178.51 266.925 Q2174.95 266.925 2172.79 268.939 Q2170.66 270.953 2170.34 274.61 L2185.52 274.587 Z" fill="#000000" fill-rule="evenodd" fill-opacity="1" /><path clip-path="url(#clip180)" d="M2208.56 276.832 Q2203.39 276.832 2201.4 278.013 Q2199.41 279.193 2199.41 282.041 Q2199.41 284.309 2200.89 285.652 Q2202.4 286.971 2204.97 286.971 Q2208.51 286.971 2210.64 284.471 Q2212.79 281.948 2212.79 277.781 L2212.79 276.832 L2208.56 276.832 M2217.05 275.073 L2217.05 289.865 L2212.79 289.865 L2212.79 285.929 Q2211.33 288.291 2209.16 289.425 Q2206.98 290.536 2203.83 290.536 Q2199.85 290.536 2197.49 288.314 Q2195.15 286.068 2195.15 282.318 Q2195.15 277.943 2198.07 275.721 Q2201.01 273.499 2206.82 273.499 L2212.79 273.499 L2212.79 273.082 Q2212.79 270.143 2210.85 268.545 Q2208.93 266.925 2205.43 266.925 Q2203.21 266.925 2201.1 267.457 Q2199 267.99 2197.05 269.055 L2197.05 265.119 Q2199.39 264.217 2201.59 263.777 Q2203.79 263.314 2205.87 263.314 Q2211.5 263.314 2214.27 266.231 Q2217.05 269.147 2217.05 275.073 Z" fill="#000000" fill-rule="evenodd" fill-opacity="1" /><path clip-path="url(#clip180)" d="M2240.85 267.92 Q2240.13 267.504 2239.27 267.318 Q2238.44 267.11 2237.42 267.11 Q2233.81 267.11 2231.87 269.471 Q2229.94 271.809 2229.94 276.207 L2229.94 289.865 L2225.66 289.865 L2225.66 263.939 L2229.94 263.939 L2229.94 267.967 Q2231.29 265.606 2233.44 264.471 Q2235.59 263.314 2238.67 263.314 Q2239.11 263.314 2239.64 263.383 Q2240.18 263.43 2240.82 263.545 L2240.85 267.92 Z" fill="#000000" fill-rule="evenodd" fill-opacity="1" /></svg>
