<?xml version="1.0" encoding="utf-8"?>
<svg xmlns="http://www.w3.org/2000/svg" xmlns:xlink="http://www.w3.org/1999/xlink" width="600" height="400" viewBox="0 0 2400 1600">
<defs>
  <clipPath id="clip290">
    <rect x="0" y="0" width="2400" height="1600"/>
  </clipPath>
</defs>
<path clip-path="url(#clip290)" d="
M0 1600 L2400 1600 L2400 0 L0 0  Z
  " fill="#ffffff" fill-rule="evenodd" fill-opacity="1"/>
<defs>
  <clipPath id="clip291">
    <rect x="480" y="0" width="1681" height="1600"/>
  </clipPath>
</defs>
<path clip-path="url(#clip290)" d="
M156.02 1486.45 L2352.76 1486.45 L2352.76 183.952 L156.02 183.952  Z
  " fill="#ffffff" fill-rule="evenodd" fill-opacity="1"/>
<defs>
  <clipPath id="clip292">
    <rect x="156" y="183" width="2198" height="1303"/>
  </clipPath>
</defs>
<polyline clip-path="url(#clip292)" style="stroke:#000000; stroke-linecap:butt; stroke-linejoin:round; stroke-width:2; stroke-opacity:0.1; fill:none" points="
  377.606,1486.45 377.606,183.952 
  "/>
<polyline clip-path="url(#clip292)" style="stroke:#000000; stroke-linecap:butt; stroke-linejoin:round; stroke-width:2; stroke-opacity:0.1; fill:none" points="
  776.143,1486.45 776.143,183.952 
  "/>
<polyline clip-path="url(#clip292)" style="stroke:#000000; stroke-linecap:butt; stroke-linejoin:round; stroke-width:2; stroke-opacity:0.1; fill:none" points="
  1174.68,1486.45 1174.68,183.952 
  "/>
<polyline clip-path="url(#clip292)" style="stroke:#000000; stroke-linecap:butt; stroke-linejoin:round; stroke-width:2; stroke-opacity:0.1; fill:none" points="
  1573.22,1486.45 1573.22,183.952 
  "/>
<polyline clip-path="url(#clip292)" style="stroke:#000000; stroke-linecap:butt; stroke-linejoin:round; stroke-width:2; stroke-opacity:0.1; fill:none" points="
  1971.75,1486.45 1971.75,183.952 
  "/>
<polyline clip-path="url(#clip290)" style="stroke:#000000; stroke-linecap:butt; stroke-linejoin:round; stroke-width:4; stroke-opacity:1; fill:none" points="
  156.02,1486.45 2352.76,1486.45 
  "/>
<polyline clip-path="url(#clip290)" style="stroke:#000000; stroke-linecap:butt; stroke-linejoin:round; stroke-width:4; stroke-opacity:1; fill:none" points="
  377.606,1486.45 377.606,1467.55 
  "/>
<polyline clip-path="url(#clip290)" style="stroke:#000000; stroke-linecap:butt; stroke-linejoin:round; stroke-width:4; stroke-opacity:1; fill:none" points="
  776.143,1486.45 776.143,1467.55 
  "/>
<polyline clip-path="url(#clip290)" style="stroke:#000000; stroke-linecap:butt; stroke-linejoin:round; stroke-width:4; stroke-opacity:1; fill:none" points="
  1174.68,1486.45 1174.68,1467.55 
  "/>
<polyline clip-path="url(#clip290)" style="stroke:#000000; stroke-linecap:butt; stroke-linejoin:round; stroke-width:4; stroke-opacity:1; fill:none" points="
  1573.22,1486.45 1573.22,1467.55 
  "/>
<polyline clip-path="url(#clip290)" style="stroke:#000000; stroke-linecap:butt; stroke-linejoin:round; stroke-width:4; stroke-opacity:1; fill:none" points="
  1971.75,1486.45 1971.75,1467.55 
  "/>
<path clip-path="url(#clip290)" d="M322.63 1544.91 L330.268 1544.91 L330.268 1518.55 L321.958 1520.21 L321.958 1515.95 L330.222 1514.29 L334.898 1514.29 L334.898 1544.91 L342.537 1544.91 L342.537 1548.85 L322.63 1548.85 L322.63 1544.91 Z" fill="#000000" fill-rule="evenodd" fill-opacity="1" /><path clip-path="url(#clip290)" d="M352.12 1548.13 L352.12 1543.87 Q353.879 1544.7 355.685 1545.14 Q357.491 1545.58 359.227 1545.58 Q363.856 1545.58 366.287 1542.48 Q368.74 1539.36 369.088 1533.01 Q367.745 1535.01 365.685 1536.07 Q363.625 1537.13 361.125 1537.13 Q355.94 1537.13 352.907 1534.01 Q349.898 1530.86 349.898 1525.42 Q349.898 1520.1 353.046 1516.88 Q356.194 1513.66 361.426 1513.66 Q367.421 1513.66 370.569 1518.27 Q373.74 1522.85 373.74 1531.6 Q373.74 1539.77 369.852 1544.66 Q365.986 1549.52 359.435 1549.52 Q357.676 1549.52 355.87 1549.17 Q354.065 1548.82 352.12 1548.13 M361.426 1533.48 Q364.574 1533.48 366.403 1531.32 Q368.254 1529.17 368.254 1525.42 Q368.254 1521.7 366.403 1519.54 Q364.574 1517.37 361.426 1517.37 Q358.278 1517.37 356.426 1519.54 Q354.597 1521.7 354.597 1525.42 Q354.597 1529.17 356.426 1531.32 Q358.278 1533.48 361.426 1533.48 Z" fill="#000000" fill-rule="evenodd" fill-opacity="1" /><path clip-path="url(#clip290)" d="M382.282 1548.13 L382.282 1543.87 Q384.041 1544.7 385.847 1545.14 Q387.652 1545.58 389.388 1545.58 Q394.018 1545.58 396.449 1542.48 Q398.902 1539.36 399.25 1533.01 Q397.907 1535.01 395.847 1536.07 Q393.787 1537.13 391.287 1537.13 Q386.101 1537.13 383.069 1534.01 Q380.06 1530.86 380.06 1525.42 Q380.06 1520.1 383.208 1516.88 Q386.356 1513.66 391.588 1513.66 Q397.583 1513.66 400.731 1518.27 Q403.902 1522.85 403.902 1531.6 Q403.902 1539.77 400.013 1544.66 Q396.148 1549.52 389.597 1549.52 Q387.838 1549.52 386.032 1549.17 Q384.226 1548.82 382.282 1548.13 M391.588 1533.48 Q394.736 1533.48 396.564 1531.32 Q398.416 1529.17 398.416 1525.42 Q398.416 1521.7 396.564 1519.54 Q394.736 1517.37 391.588 1517.37 Q388.439 1517.37 386.588 1519.54 Q384.759 1521.7 384.759 1525.42 Q384.759 1529.17 386.588 1531.32 Q388.439 1533.48 391.588 1533.48 Z" fill="#000000" fill-rule="evenodd" fill-opacity="1" /><path clip-path="url(#clip290)" d="M412.351 1514.29 L430.708 1514.29 L430.708 1518.22 L416.634 1518.22 L416.634 1526.7 Q417.652 1526.35 418.671 1526.19 Q419.689 1526 420.708 1526 Q426.495 1526 429.874 1529.17 Q433.254 1532.34 433.254 1537.76 Q433.254 1543.34 429.782 1546.44 Q426.31 1549.52 419.99 1549.52 Q417.814 1549.52 415.546 1549.15 Q413.3 1548.78 410.893 1548.04 L410.893 1543.34 Q412.976 1544.47 415.199 1545.03 Q417.421 1545.58 419.898 1545.58 Q423.902 1545.58 426.24 1543.48 Q428.578 1541.37 428.578 1537.76 Q428.578 1534.15 426.24 1532.04 Q423.902 1529.94 419.898 1529.94 Q418.023 1529.94 416.148 1530.35 Q414.296 1530.77 412.351 1531.65 L412.351 1514.29 Z" fill="#000000" fill-rule="evenodd" fill-opacity="1" /><path clip-path="url(#clip290)" d="M724.755 1544.91 L741.074 1544.91 L741.074 1548.85 L719.13 1548.85 L719.13 1544.91 Q721.792 1542.16 726.375 1537.53 Q730.981 1532.88 732.162 1531.53 Q734.407 1529.01 735.287 1527.27 Q736.19 1525.51 736.19 1523.82 Q736.19 1521.07 734.245 1519.33 Q732.324 1517.6 729.222 1517.6 Q727.023 1517.6 724.569 1518.36 Q722.139 1519.13 719.361 1520.68 L719.361 1515.95 Q722.185 1514.82 724.639 1514.24 Q727.093 1513.66 729.13 1513.66 Q734.5 1513.66 737.694 1516.35 Q740.889 1519.03 740.889 1523.52 Q740.889 1525.65 740.079 1527.57 Q739.292 1529.47 737.185 1532.07 Q736.606 1532.74 733.505 1535.95 Q730.403 1539.15 724.755 1544.91 Z" fill="#000000" fill-rule="evenodd" fill-opacity="1" /><path clip-path="url(#clip290)" d="M760.889 1517.37 Q757.278 1517.37 755.449 1520.93 Q753.643 1524.47 753.643 1531.6 Q753.643 1538.71 755.449 1542.27 Q757.278 1545.82 760.889 1545.82 Q764.523 1545.82 766.328 1542.27 Q768.157 1538.71 768.157 1531.6 Q768.157 1524.47 766.328 1520.93 Q764.523 1517.37 760.889 1517.37 M760.889 1513.66 Q766.699 1513.66 769.754 1518.27 Q772.833 1522.85 772.833 1531.6 Q772.833 1540.33 769.754 1544.94 Q766.699 1549.52 760.889 1549.52 Q755.079 1549.52 752 1544.94 Q748.944 1540.33 748.944 1531.6 Q748.944 1522.85 752 1518.27 Q755.079 1513.66 760.889 1513.66 Z" fill="#000000" fill-rule="evenodd" fill-opacity="1" /><path clip-path="url(#clip290)" d="M791.051 1517.37 Q787.439 1517.37 785.611 1520.93 Q783.805 1524.47 783.805 1531.6 Q783.805 1538.71 785.611 1542.27 Q787.439 1545.82 791.051 1545.82 Q794.685 1545.82 796.49 1542.27 Q798.319 1538.71 798.319 1531.6 Q798.319 1524.47 796.49 1520.93 Q794.685 1517.37 791.051 1517.37 M791.051 1513.66 Q796.861 1513.66 799.916 1518.27 Q802.995 1522.85 802.995 1531.6 Q802.995 1540.33 799.916 1544.94 Q796.861 1549.52 791.051 1549.52 Q785.24 1549.52 782.162 1544.94 Q779.106 1540.33 779.106 1531.6 Q779.106 1522.85 782.162 1518.27 Q785.24 1513.66 791.051 1513.66 Z" fill="#000000" fill-rule="evenodd" fill-opacity="1" /><path clip-path="url(#clip290)" d="M821.212 1517.37 Q817.601 1517.37 815.773 1520.93 Q813.967 1524.47 813.967 1531.6 Q813.967 1538.71 815.773 1542.27 Q817.601 1545.82 821.212 1545.82 Q824.847 1545.82 826.652 1542.27 Q828.481 1538.71 828.481 1531.6 Q828.481 1524.47 826.652 1520.93 Q824.847 1517.37 821.212 1517.37 M821.212 1513.66 Q827.023 1513.66 830.078 1518.27 Q833.157 1522.85 833.157 1531.6 Q833.157 1540.33 830.078 1544.94 Q827.023 1549.52 821.212 1549.52 Q815.402 1549.52 812.324 1544.94 Q809.268 1540.33 809.268 1531.6 Q809.268 1522.85 812.324 1518.27 Q815.402 1513.66 821.212 1513.66 Z" fill="#000000" fill-rule="evenodd" fill-opacity="1" /><path clip-path="url(#clip290)" d="M1123.79 1544.91 L1140.11 1544.91 L1140.11 1548.85 L1118.16 1548.85 L1118.16 1544.91 Q1120.83 1542.16 1125.41 1537.53 Q1130.02 1532.88 1131.2 1531.53 Q1133.44 1529.01 1134.32 1527.27 Q1135.22 1525.51 1135.22 1523.82 Q1135.22 1521.07 1133.28 1519.33 Q1131.36 1517.6 1128.26 1517.6 Q1126.06 1517.6 1123.6 1518.36 Q1121.17 1519.13 1118.4 1520.68 L1118.4 1515.95 Q1121.22 1514.82 1123.67 1514.24 Q1126.13 1513.66 1128.16 1513.66 Q1133.53 1513.66 1136.73 1516.35 Q1139.92 1519.03 1139.92 1523.52 Q1139.92 1525.65 1139.11 1527.57 Q1138.33 1529.47 1136.22 1532.07 Q1135.64 1532.74 1132.54 1535.95 Q1129.44 1539.15 1123.79 1544.91 Z" fill="#000000" fill-rule="evenodd" fill-opacity="1" /><path clip-path="url(#clip290)" d="M1159.92 1517.37 Q1156.31 1517.37 1154.48 1520.93 Q1152.68 1524.47 1152.68 1531.6 Q1152.68 1538.71 1154.48 1542.27 Q1156.31 1545.82 1159.92 1545.82 Q1163.56 1545.82 1165.36 1542.27 Q1167.19 1538.71 1167.19 1531.6 Q1167.19 1524.47 1165.36 1520.93 Q1163.56 1517.37 1159.92 1517.37 M1159.92 1513.66 Q1165.73 1513.66 1168.79 1518.27 Q1171.87 1522.85 1171.87 1531.6 Q1171.87 1540.33 1168.79 1544.94 Q1165.73 1549.52 1159.92 1549.52 Q1154.11 1549.52 1151.03 1544.94 Q1147.98 1540.33 1147.98 1531.6 Q1147.98 1522.85 1151.03 1518.27 Q1154.11 1513.66 1159.92 1513.66 Z" fill="#000000" fill-rule="evenodd" fill-opacity="1" /><path clip-path="url(#clip290)" d="M1190.09 1517.37 Q1186.47 1517.37 1184.65 1520.93 Q1182.84 1524.47 1182.84 1531.6 Q1182.84 1538.71 1184.65 1542.27 Q1186.47 1545.82 1190.09 1545.82 Q1193.72 1545.82 1195.53 1542.27 Q1197.35 1538.71 1197.35 1531.6 Q1197.35 1524.47 1195.53 1520.93 Q1193.72 1517.37 1190.09 1517.37 M1190.09 1513.66 Q1195.9 1513.66 1198.95 1518.27 Q1202.03 1522.85 1202.03 1531.6 Q1202.03 1540.33 1198.95 1544.94 Q1195.9 1549.52 1190.09 1549.52 Q1184.28 1549.52 1181.2 1544.94 Q1178.14 1540.33 1178.14 1531.6 Q1178.14 1522.85 1181.2 1518.27 Q1184.28 1513.66 1190.09 1513.66 Z" fill="#000000" fill-rule="evenodd" fill-opacity="1" /><path clip-path="url(#clip290)" d="M1210.29 1514.29 L1228.65 1514.29 L1228.65 1518.22 L1214.58 1518.22 L1214.58 1526.7 Q1215.59 1526.35 1216.61 1526.19 Q1217.63 1526 1218.65 1526 Q1224.44 1526 1227.82 1529.17 Q1231.2 1532.34 1231.2 1537.76 Q1231.2 1543.34 1227.72 1546.44 Q1224.25 1549.52 1217.93 1549.52 Q1215.76 1549.52 1213.49 1549.15 Q1211.24 1548.78 1208.84 1548.04 L1208.84 1543.34 Q1210.92 1544.47 1213.14 1545.03 Q1215.36 1545.58 1217.84 1545.58 Q1221.84 1545.58 1224.18 1543.48 Q1226.52 1541.37 1226.52 1537.76 Q1226.52 1534.15 1224.18 1532.04 Q1221.84 1529.94 1217.84 1529.94 Q1215.96 1529.94 1214.09 1530.35 Q1212.24 1530.77 1210.29 1531.65 L1210.29 1514.29 Z" fill="#000000" fill-rule="evenodd" fill-opacity="1" /><path clip-path="url(#clip290)" d="M1521.83 1544.91 L1538.15 1544.91 L1538.15 1548.85 L1516.2 1548.85 L1516.2 1544.91 Q1518.87 1542.16 1523.45 1537.53 Q1528.06 1532.88 1529.24 1531.53 Q1531.48 1529.01 1532.36 1527.27 Q1533.26 1525.51 1533.26 1523.82 Q1533.26 1521.07 1531.32 1519.33 Q1529.4 1517.6 1526.3 1517.6 Q1524.1 1517.6 1521.64 1518.36 Q1519.21 1519.13 1516.44 1520.68 L1516.44 1515.95 Q1519.26 1514.82 1521.71 1514.24 Q1524.17 1513.66 1526.2 1513.66 Q1531.57 1513.66 1534.77 1516.35 Q1537.96 1519.03 1537.96 1523.52 Q1537.96 1525.65 1537.15 1527.57 Q1536.37 1529.47 1534.26 1532.07 Q1533.68 1532.74 1530.58 1535.95 Q1527.48 1539.15 1521.83 1544.91 Z" fill="#000000" fill-rule="evenodd" fill-opacity="1" /><path clip-path="url(#clip290)" d="M1557.96 1517.37 Q1554.35 1517.37 1552.52 1520.93 Q1550.72 1524.47 1550.72 1531.6 Q1550.72 1538.71 1552.52 1542.27 Q1554.35 1545.82 1557.96 1545.82 Q1561.6 1545.82 1563.4 1542.27 Q1565.23 1538.71 1565.23 1531.6 Q1565.23 1524.47 1563.4 1520.93 Q1561.6 1517.37 1557.96 1517.37 M1557.96 1513.66 Q1563.77 1513.66 1566.83 1518.27 Q1569.91 1522.85 1569.91 1531.6 Q1569.91 1540.33 1566.83 1544.94 Q1563.77 1549.52 1557.96 1549.52 Q1552.15 1549.52 1549.07 1544.94 Q1546.02 1540.33 1546.02 1531.6 Q1546.02 1522.85 1549.07 1518.27 Q1552.15 1513.66 1557.96 1513.66 Z" fill="#000000" fill-rule="evenodd" fill-opacity="1" /><path clip-path="url(#clip290)" d="M1578.93 1544.91 L1586.57 1544.91 L1586.57 1518.55 L1578.26 1520.21 L1578.26 1515.95 L1586.53 1514.29 L1591.2 1514.29 L1591.2 1544.91 L1598.84 1544.91 L1598.84 1548.85 L1578.93 1548.85 L1578.93 1544.91 Z" fill="#000000" fill-rule="evenodd" fill-opacity="1" /><path clip-path="url(#clip290)" d="M1618.29 1517.37 Q1614.68 1517.37 1612.85 1520.93 Q1611.04 1524.47 1611.04 1531.6 Q1611.04 1538.71 1612.85 1542.27 Q1614.68 1545.82 1618.29 1545.82 Q1621.92 1545.82 1623.73 1542.27 Q1625.56 1538.71 1625.56 1531.6 Q1625.56 1524.47 1623.73 1520.93 Q1621.92 1517.37 1618.29 1517.37 M1618.29 1513.66 Q1624.1 1513.66 1627.15 1518.27 Q1630.23 1522.85 1630.23 1531.6 Q1630.23 1540.33 1627.15 1544.94 Q1624.1 1549.52 1618.29 1549.52 Q1612.48 1549.52 1609.4 1544.94 Q1606.34 1540.33 1606.34 1531.6 Q1606.34 1522.85 1609.4 1518.27 Q1612.48 1513.66 1618.29 1513.66 Z" fill="#000000" fill-rule="evenodd" fill-opacity="1" /><path clip-path="url(#clip290)" d="M1920.86 1544.91 L1937.18 1544.91 L1937.18 1548.85 L1915.24 1548.85 L1915.24 1544.91 Q1917.9 1542.16 1922.48 1537.53 Q1927.09 1532.88 1928.27 1531.53 Q1930.52 1529.01 1931.4 1527.27 Q1932.3 1525.51 1932.3 1523.82 Q1932.3 1521.07 1930.35 1519.33 Q1928.43 1517.6 1925.33 1517.6 Q1923.13 1517.6 1920.68 1518.36 Q1918.25 1519.13 1915.47 1520.68 L1915.47 1515.95 Q1918.29 1514.82 1920.75 1514.24 Q1923.2 1513.66 1925.24 1513.66 Q1930.61 1513.66 1933.8 1516.35 Q1937 1519.03 1937 1523.52 Q1937 1525.65 1936.19 1527.57 Q1935.4 1529.47 1933.29 1532.07 Q1932.72 1532.74 1929.61 1535.95 Q1926.51 1539.15 1920.86 1544.91 Z" fill="#000000" fill-rule="evenodd" fill-opacity="1" /><path clip-path="url(#clip290)" d="M1957 1517.37 Q1953.39 1517.37 1951.56 1520.93 Q1949.75 1524.47 1949.75 1531.6 Q1949.75 1538.71 1951.56 1542.27 Q1953.39 1545.82 1957 1545.82 Q1960.63 1545.82 1962.44 1542.27 Q1964.27 1538.71 1964.27 1531.6 Q1964.27 1524.47 1962.44 1520.93 Q1960.63 1517.37 1957 1517.37 M1957 1513.66 Q1962.81 1513.66 1965.86 1518.27 Q1968.94 1522.85 1968.94 1531.6 Q1968.94 1540.33 1965.86 1544.94 Q1962.81 1549.52 1957 1549.52 Q1951.19 1549.52 1948.11 1544.94 Q1945.05 1540.33 1945.05 1531.6 Q1945.05 1522.85 1948.11 1518.27 Q1951.19 1513.66 1957 1513.66 Z" fill="#000000" fill-rule="evenodd" fill-opacity="1" /><path clip-path="url(#clip290)" d="M1977.97 1544.91 L1985.61 1544.91 L1985.61 1518.55 L1977.3 1520.21 L1977.3 1515.95 L1985.56 1514.29 L1990.24 1514.29 L1990.24 1544.91 L1997.88 1544.91 L1997.88 1548.85 L1977.97 1548.85 L1977.97 1544.91 Z" fill="#000000" fill-rule="evenodd" fill-opacity="1" /><path clip-path="url(#clip290)" d="M2007.37 1514.29 L2025.72 1514.29 L2025.72 1518.22 L2011.65 1518.22 L2011.65 1526.7 Q2012.67 1526.35 2013.69 1526.19 Q2014.71 1526 2015.72 1526 Q2021.51 1526 2024.89 1529.17 Q2028.27 1532.34 2028.27 1537.76 Q2028.27 1543.34 2024.8 1546.44 Q2021.33 1549.52 2015.01 1549.52 Q2012.83 1549.52 2010.56 1549.15 Q2008.32 1548.78 2005.91 1548.04 L2005.91 1543.34 Q2007.99 1544.47 2010.21 1545.03 Q2012.44 1545.58 2014.91 1545.58 Q2018.92 1545.58 2021.26 1543.48 Q2023.59 1541.37 2023.59 1537.76 Q2023.59 1534.15 2021.26 1532.04 Q2018.92 1529.94 2014.91 1529.94 Q2013.04 1529.94 2011.16 1530.35 Q2009.31 1530.77 2007.37 1531.65 L2007.37 1514.29 Z" fill="#000000" fill-rule="evenodd" fill-opacity="1" /><polyline clip-path="url(#clip292)" style="stroke:#000000; stroke-linecap:butt; stroke-linejoin:round; stroke-width:2; stroke-opacity:0.1; fill:none" points="
  156.02,1341.99 2352.76,1341.99 
  "/>
<polyline clip-path="url(#clip292)" style="stroke:#000000; stroke-linecap:butt; stroke-linejoin:round; stroke-width:2; stroke-opacity:0.1; fill:none" points="
  156.02,1167.18 2352.76,1167.18 
  "/>
<polyline clip-path="url(#clip292)" style="stroke:#000000; stroke-linecap:butt; stroke-linejoin:round; stroke-width:2; stroke-opacity:0.1; fill:none" points="
  156.02,992.366 2352.76,992.366 
  "/>
<polyline clip-path="url(#clip292)" style="stroke:#000000; stroke-linecap:butt; stroke-linejoin:round; stroke-width:2; stroke-opacity:0.1; fill:none" points="
  156.02,817.553 2352.76,817.553 
  "/>
<polyline clip-path="url(#clip292)" style="stroke:#000000; stroke-linecap:butt; stroke-linejoin:round; stroke-width:2; stroke-opacity:0.1; fill:none" points="
  156.02,642.739 2352.76,642.739 
  "/>
<polyline clip-path="url(#clip292)" style="stroke:#000000; stroke-linecap:butt; stroke-linejoin:round; stroke-width:2; stroke-opacity:0.1; fill:none" points="
  156.02,467.926 2352.76,467.926 
  "/>
<polyline clip-path="url(#clip292)" style="stroke:#000000; stroke-linecap:butt; stroke-linejoin:round; stroke-width:2; stroke-opacity:0.1; fill:none" points="
  156.02,293.112 2352.76,293.112 
  "/>
<polyline clip-path="url(#clip290)" style="stroke:#000000; stroke-linecap:butt; stroke-linejoin:round; stroke-width:4; stroke-opacity:1; fill:none" points="
  156.02,1486.45 156.02,183.952 
  "/>
<polyline clip-path="url(#clip290)" style="stroke:#000000; stroke-linecap:butt; stroke-linejoin:round; stroke-width:4; stroke-opacity:1; fill:none" points="
  156.02,1341.99 174.917,1341.99 
  "/>
<polyline clip-path="url(#clip290)" style="stroke:#000000; stroke-linecap:butt; stroke-linejoin:round; stroke-width:4; stroke-opacity:1; fill:none" points="
  156.02,1167.18 174.917,1167.18 
  "/>
<polyline clip-path="url(#clip290)" style="stroke:#000000; stroke-linecap:butt; stroke-linejoin:round; stroke-width:4; stroke-opacity:1; fill:none" points="
  156.02,992.366 174.917,992.366 
  "/>
<polyline clip-path="url(#clip290)" style="stroke:#000000; stroke-linecap:butt; stroke-linejoin:round; stroke-width:4; stroke-opacity:1; fill:none" points="
  156.02,817.553 174.917,817.553 
  "/>
<polyline clip-path="url(#clip290)" style="stroke:#000000; stroke-linecap:butt; stroke-linejoin:round; stroke-width:4; stroke-opacity:1; fill:none" points="
  156.02,642.739 174.917,642.739 
  "/>
<polyline clip-path="url(#clip290)" style="stroke:#000000; stroke-linecap:butt; stroke-linejoin:round; stroke-width:4; stroke-opacity:1; fill:none" points="
  156.02,467.926 174.917,467.926 
  "/>
<polyline clip-path="url(#clip290)" style="stroke:#000000; stroke-linecap:butt; stroke-linejoin:round; stroke-width:4; stroke-opacity:1; fill:none" points="
  156.02,293.112 174.917,293.112 
  "/>
<path clip-path="url(#clip290)" d="M62.9365 1327.79 Q59.3254 1327.79 57.4967 1331.36 Q55.6912 1334.9 55.6912 1342.03 Q55.6912 1349.13 57.4967 1352.7 Q59.3254 1356.24 62.9365 1356.24 Q66.5707 1356.24 68.3763 1352.7 Q70.205 1349.13 70.205 1342.03 Q70.205 1334.9 68.3763 1331.36 Q66.5707 1327.79 62.9365 1327.79 M62.9365 1324.09 Q68.7467 1324.09 71.8022 1328.7 Q74.8809 1333.28 74.8809 1342.03 Q74.8809 1350.76 71.8022 1355.36 Q68.7467 1359.94 62.9365 1359.94 Q57.1264 1359.94 54.0477 1355.36 Q50.9921 1350.76 50.9921 1342.03 Q50.9921 1333.28 54.0477 1328.7 Q57.1264 1324.09 62.9365 1324.09 Z" fill="#000000" fill-rule="evenodd" fill-opacity="1" /><path clip-path="url(#clip290)" d="M83.0984 1353.39 L87.9827 1353.39 L87.9827 1359.27 L83.0984 1359.27 L83.0984 1353.39 Z" fill="#000000" fill-rule="evenodd" fill-opacity="1" /><path clip-path="url(#clip290)" d="M108.168 1342.86 Q104.834 1342.86 102.913 1344.64 Q101.015 1346.43 101.015 1349.55 Q101.015 1352.68 102.913 1354.46 Q104.834 1356.24 108.168 1356.24 Q111.501 1356.24 113.422 1354.46 Q115.344 1352.65 115.344 1349.55 Q115.344 1346.43 113.422 1344.64 Q111.524 1342.86 108.168 1342.86 M103.492 1340.87 Q100.483 1340.13 98.7928 1338.07 Q97.1261 1336.01 97.1261 1333.05 Q97.1261 1328.9 100.066 1326.5 Q103.029 1324.09 108.168 1324.09 Q113.33 1324.09 116.27 1326.5 Q119.209 1328.9 119.209 1333.05 Q119.209 1336.01 117.52 1338.07 Q115.853 1340.13 112.867 1340.87 Q116.246 1341.66 118.121 1343.95 Q120.02 1346.24 120.02 1349.55 Q120.02 1354.57 116.941 1357.26 Q113.885 1359.94 108.168 1359.94 Q102.45 1359.94 99.3715 1357.26 Q96.316 1354.57 96.316 1349.55 Q96.316 1346.24 98.2141 1343.95 Q100.112 1341.66 103.492 1340.87 M101.779 1333.49 Q101.779 1336.17 103.446 1337.68 Q105.135 1339.18 108.168 1339.18 Q111.177 1339.18 112.867 1337.68 Q114.58 1336.17 114.58 1333.49 Q114.58 1330.8 112.867 1329.3 Q111.177 1327.79 108.168 1327.79 Q105.135 1327.79 103.446 1329.3 Q101.779 1330.8 101.779 1333.49 Z" fill="#000000" fill-rule="evenodd" fill-opacity="1" /><path clip-path="url(#clip290)" d="M53.6541 1180.52 L61.293 1180.52 L61.293 1154.16 L52.9829 1155.83 L52.9829 1151.57 L61.2467 1149.9 L65.9226 1149.9 L65.9226 1180.52 L73.5614 1180.52 L73.5614 1184.46 L53.6541 1184.46 L53.6541 1180.52 Z" fill="#000000" fill-rule="evenodd" fill-opacity="1" /><path clip-path="url(#clip290)" d="M83.0058 1178.58 L87.8901 1178.58 L87.8901 1184.46 L83.0058 1184.46 L83.0058 1178.58 Z" fill="#000000" fill-rule="evenodd" fill-opacity="1" /><path clip-path="url(#clip290)" d="M108.075 1152.98 Q104.464 1152.98 102.635 1156.54 Q100.83 1160.09 100.83 1167.21 Q100.83 1174.32 102.635 1177.89 Q104.464 1181.43 108.075 1181.43 Q111.709 1181.43 113.515 1177.89 Q115.344 1174.32 115.344 1167.21 Q115.344 1160.09 113.515 1156.54 Q111.709 1152.98 108.075 1152.98 M108.075 1149.28 Q113.885 1149.28 116.941 1153.88 Q120.02 1158.46 120.02 1167.21 Q120.02 1175.94 116.941 1180.55 Q113.885 1185.13 108.075 1185.13 Q102.265 1185.13 99.1863 1180.55 Q96.1308 1175.94 96.1308 1167.21 Q96.1308 1158.46 99.1863 1153.88 Q102.265 1149.28 108.075 1149.28 Z" fill="#000000" fill-rule="evenodd" fill-opacity="1" /><path clip-path="url(#clip290)" d="M55.2514 1005.71 L62.8902 1005.71 L62.8902 979.346 L54.5801 981.012 L54.5801 976.753 L62.8439 975.086 L67.5198 975.086 L67.5198 1005.71 L75.1587 1005.71 L75.1587 1009.65 L55.2514 1009.65 L55.2514 1005.71 Z" fill="#000000" fill-rule="evenodd" fill-opacity="1" /><path clip-path="url(#clip290)" d="M84.6031 1003.77 L89.4873 1003.77 L89.4873 1009.65 L84.6031 1009.65 L84.6031 1003.77 Z" fill="#000000" fill-rule="evenodd" fill-opacity="1" /><path clip-path="url(#clip290)" d="M103.7 1005.71 L120.02 1005.71 L120.02 1009.65 L98.0752 1009.65 L98.0752 1005.71 Q100.737 1002.96 105.321 998.327 Q109.927 993.674 111.108 992.332 Q113.353 989.809 114.233 988.073 Q115.135 986.313 115.135 984.623 Q115.135 981.869 113.191 980.133 Q111.27 978.397 108.168 978.397 Q105.969 978.397 103.515 979.161 Q101.084 979.924 98.3067 981.475 L98.3067 976.753 Q101.131 975.619 103.584 975.04 Q106.038 974.461 108.075 974.461 Q113.445 974.461 116.64 977.147 Q119.834 979.832 119.834 984.323 Q119.834 986.452 119.024 988.373 Q118.237 990.272 116.131 992.864 Q115.552 993.535 112.45 996.753 Q109.348 999.947 103.7 1005.71 Z" fill="#000000" fill-rule="evenodd" fill-opacity="1" /><path clip-path="url(#clip290)" d="M53.168 830.898 L60.8069 830.898 L60.8069 804.532 L52.4967 806.199 L52.4967 801.94 L60.7606 800.273 L65.4365 800.273 L65.4365 830.898 L73.0753 830.898 L73.0753 834.833 L53.168 834.833 L53.168 830.898 Z" fill="#000000" fill-rule="evenodd" fill-opacity="1" /><path clip-path="url(#clip290)" d="M82.5197 828.953 L87.404 828.953 L87.404 834.833 L82.5197 834.833 L82.5197 828.953 Z" fill="#000000" fill-rule="evenodd" fill-opacity="1" /><path clip-path="url(#clip290)" d="M110.436 804.347 L98.6308 822.796 L110.436 822.796 L110.436 804.347 M109.209 800.273 L115.089 800.273 L115.089 822.796 L120.02 822.796 L120.02 826.685 L115.089 826.685 L115.089 834.833 L110.436 834.833 L110.436 826.685 L94.8345 826.685 L94.8345 822.171 L109.209 800.273 Z" fill="#000000" fill-rule="evenodd" fill-opacity="1" /><path clip-path="url(#clip290)" d="M53.4921 656.084 L61.131 656.084 L61.131 629.719 L52.8208 631.385 L52.8208 627.126 L61.0847 625.459 L65.7606 625.459 L65.7606 656.084 L73.3994 656.084 L73.3994 660.019 L53.4921 660.019 L53.4921 656.084 Z" fill="#000000" fill-rule="evenodd" fill-opacity="1" /><path clip-path="url(#clip290)" d="M82.8438 654.14 L87.728 654.14 L87.728 660.019 L82.8438 660.019 L82.8438 654.14 Z" fill="#000000" fill-rule="evenodd" fill-opacity="1" /><path clip-path="url(#clip290)" d="M108.492 640.876 Q105.344 640.876 103.492 643.029 Q101.663 645.181 101.663 648.931 Q101.663 652.658 103.492 654.834 Q105.344 656.987 108.492 656.987 Q111.64 656.987 113.469 654.834 Q115.32 652.658 115.32 648.931 Q115.32 645.181 113.469 643.029 Q111.64 640.876 108.492 640.876 M117.774 626.223 L117.774 630.482 Q116.015 629.649 114.209 629.209 Q112.427 628.77 110.668 628.77 Q106.038 628.77 103.584 631.894 Q101.154 635.019 100.807 641.339 Q102.172 639.325 104.233 638.26 Q106.293 637.172 108.77 637.172 Q113.978 637.172 116.987 640.344 Q120.02 643.492 120.02 648.931 Q120.02 654.255 116.871 657.473 Q113.723 660.691 108.492 660.691 Q102.496 660.691 99.3252 656.107 Q96.1539 651.501 96.1539 642.774 Q96.1539 634.58 100.043 629.719 Q103.932 624.834 110.483 624.834 Q112.242 624.834 114.024 625.182 Q115.83 625.529 117.774 626.223 Z" fill="#000000" fill-rule="evenodd" fill-opacity="1" /><path clip-path="url(#clip290)" d="M53.7467 481.271 L61.3856 481.271 L61.3856 454.905 L53.0754 456.572 L53.0754 452.312 L61.3393 450.646 L66.0152 450.646 L66.0152 481.271 L73.654 481.271 L73.654 485.206 L53.7467 485.206 L53.7467 481.271 Z" fill="#000000" fill-rule="evenodd" fill-opacity="1" /><path clip-path="url(#clip290)" d="M83.0984 479.326 L87.9827 479.326 L87.9827 485.206 L83.0984 485.206 L83.0984 479.326 Z" fill="#000000" fill-rule="evenodd" fill-opacity="1" /><path clip-path="url(#clip290)" d="M108.168 468.794 Q104.834 468.794 102.913 470.576 Q101.015 472.359 101.015 475.484 Q101.015 478.609 102.913 480.391 Q104.834 482.173 108.168 482.173 Q111.501 482.173 113.422 480.391 Q115.344 478.585 115.344 475.484 Q115.344 472.359 113.422 470.576 Q111.524 468.794 108.168 468.794 M103.492 466.803 Q100.483 466.062 98.7928 464.002 Q97.1261 461.942 97.1261 458.979 Q97.1261 454.836 100.066 452.428 Q103.029 450.021 108.168 450.021 Q113.33 450.021 116.27 452.428 Q119.209 454.836 119.209 458.979 Q119.209 461.942 117.52 464.002 Q115.853 466.062 112.867 466.803 Q116.246 467.59 118.121 469.882 Q120.02 472.173 120.02 475.484 Q120.02 480.507 116.941 483.192 Q113.885 485.877 108.168 485.877 Q102.45 485.877 99.3715 483.192 Q96.316 480.507 96.316 475.484 Q96.316 472.173 98.2141 469.882 Q100.112 467.59 103.492 466.803 M101.779 459.419 Q101.779 462.104 103.446 463.609 Q105.135 465.113 108.168 465.113 Q111.177 465.113 112.867 463.609 Q114.58 462.104 114.58 459.419 Q114.58 456.734 112.867 455.229 Q111.177 453.724 108.168 453.724 Q105.135 453.724 103.446 455.229 Q101.779 456.734 101.779 459.419 Z" fill="#000000" fill-rule="evenodd" fill-opacity="1" /><path clip-path="url(#clip290)" d="M56.8717 306.457 L73.1911 306.457 L73.1911 310.392 L51.2468 310.392 L51.2468 306.457 Q53.9088 303.702 58.4921 299.073 Q63.0985 294.42 64.2791 293.077 Q66.5245 290.554 67.4041 288.818 Q68.3068 287.059 68.3068 285.369 Q68.3068 282.615 66.3624 280.878 Q64.4411 279.142 61.3393 279.142 Q59.1402 279.142 56.6865 279.906 Q54.256 280.67 51.4782 282.221 L51.4782 277.499 Q54.3023 276.365 56.756 275.786 Q59.2097 275.207 61.2467 275.207 Q66.617 275.207 69.8115 277.892 Q73.0059 280.578 73.0059 285.068 Q73.0059 287.198 72.1957 289.119 Q71.4087 291.017 69.3022 293.61 Q68.7235 294.281 65.6217 297.499 Q62.5198 300.693 56.8717 306.457 Z" fill="#000000" fill-rule="evenodd" fill-opacity="1" /><path clip-path="url(#clip290)" d="M83.0058 304.513 L87.8901 304.513 L87.8901 310.392 L83.0058 310.392 L83.0058 304.513 Z" fill="#000000" fill-rule="evenodd" fill-opacity="1" /><path clip-path="url(#clip290)" d="M108.075 278.911 Q104.464 278.911 102.635 282.476 Q100.83 286.017 100.83 293.147 Q100.83 300.253 102.635 303.818 Q104.464 307.36 108.075 307.36 Q111.709 307.36 113.515 303.818 Q115.344 300.253 115.344 293.147 Q115.344 286.017 113.515 282.476 Q111.709 278.911 108.075 278.911 M108.075 275.207 Q113.885 275.207 116.941 279.814 Q120.02 284.397 120.02 293.147 Q120.02 301.874 116.941 306.48 Q113.885 311.063 108.075 311.063 Q102.265 311.063 99.1863 306.48 Q96.1308 301.874 96.1308 293.147 Q96.1308 284.397 99.1863 279.814 Q102.265 275.207 108.075 275.207 Z" fill="#000000" fill-rule="evenodd" fill-opacity="1" /><path clip-path="url(#clip290)" d="M705.085 41.3253 L693.986 71.4235 L716.225 71.4235 L705.085 41.3253 M700.467 33.264 L709.744 33.264 L732.793 93.744 L724.286 93.744 L718.777 78.229 L691.515 78.229 L686.005 93.744 L677.377 93.744 L700.467 33.264 Z" fill="#000000" fill-rule="evenodd" fill-opacity="1" /><path clip-path="url(#clip290)" d="M740.693 33.264 L748.916 33.264 L748.916 70.0057 Q748.916 79.7279 752.44 84.0218 Q755.964 88.2753 763.864 88.2753 Q771.722 88.2753 775.247 84.0218 Q778.771 79.7279 778.771 70.0057 L778.771 33.264 L786.994 33.264 L786.994 71.0184 Q786.994 82.8471 781.121 88.8829 Q775.287 94.9188 763.864 94.9188 Q752.4 94.9188 746.526 88.8829 Q740.693 82.8471 740.693 71.0184 L740.693 33.264 Z" fill="#000000" fill-rule="evenodd" fill-opacity="1" /><path clip-path="url(#clip290)" d="M857.399 65.3877 Q860.032 66.2789 862.503 69.1955 Q865.015 72.1122 867.526 77.2163 L875.831 93.744 L867.04 93.744 L859.303 78.229 Q856.305 72.1527 853.47 70.1677 Q850.675 68.1828 845.814 68.1828 L836.902 68.1828 L836.902 93.744 L828.719 93.744 L828.719 33.264 L847.191 33.264 Q857.561 33.264 862.665 37.5985 Q867.769 41.9329 867.769 50.6829 Q867.769 56.3947 865.096 60.162 Q862.463 63.9293 857.399 65.3877 M836.902 39.9885 L836.902 61.4583 L847.191 61.4583 Q853.105 61.4583 856.103 58.7442 Q859.141 55.9896 859.141 50.6829 Q859.141 45.3762 856.103 42.7026 Q853.105 39.9885 847.191 39.9885 L836.902 39.9885 Z" fill="#000000" fill-rule="evenodd" fill-opacity="1" /><path clip-path="url(#clip290)" d="M899.893 53.5995 Q893.898 53.5995 890.414 58.2986 Q886.93 62.9571 886.93 71.0994 Q886.93 79.2418 890.373 83.9408 Q893.857 88.5994 899.893 88.5994 Q905.848 88.5994 909.332 83.9003 Q912.815 79.2013 912.815 71.0994 Q912.815 63.0381 909.332 58.3391 Q905.848 53.5995 899.893 53.5995 M899.893 47.2801 Q909.615 47.2801 915.165 53.5995 Q920.715 59.9189 920.715 71.0994 Q920.715 82.2394 915.165 88.5994 Q909.615 94.9188 899.893 94.9188 Q890.13 94.9188 884.581 88.5994 Q879.071 82.2394 879.071 71.0994 Q879.071 59.9189 884.581 53.5995 Q890.13 47.2801 899.893 47.2801 Z" fill="#000000" fill-rule="evenodd" fill-opacity="1" /><path clip-path="url(#clip290)" d="M965.639 71.0994 Q965.639 62.8761 962.237 58.2176 Q958.874 53.5185 952.96 53.5185 Q947.046 53.5185 943.643 58.2176 Q940.281 62.8761 940.281 71.0994 Q940.281 79.3228 943.643 84.0218 Q947.046 88.6804 952.96 88.6804 Q958.874 88.6804 962.237 84.0218 Q965.639 79.3228 965.639 71.0994 M940.281 55.2604 Q942.63 51.2095 946.195 49.2651 Q949.8 47.2801 954.783 47.2801 Q963.047 47.2801 968.191 53.8426 Q973.376 60.4051 973.376 71.0994 Q973.376 81.7938 968.191 88.3563 Q963.047 94.9188 954.783 94.9188 Q949.8 94.9188 946.195 92.9743 Q942.63 90.9894 940.281 86.9385 L940.281 93.744 L932.786 93.744 L932.786 30.7119 L940.281 30.7119 L940.281 55.2604 Z" fill="#000000" fill-rule="evenodd" fill-opacity="1" /><path clip-path="url(#clip290)" d="M1018.3 71.0994 Q1018.3 62.8761 1014.9 58.2176 Q1011.54 53.5185 1005.62 53.5185 Q999.707 53.5185 996.305 58.2176 Q992.942 62.8761 992.942 71.0994 Q992.942 79.3228 996.305 84.0218 Q999.707 88.6804 1005.62 88.6804 Q1011.54 88.6804 1014.9 84.0218 Q1018.3 79.3228 1018.3 71.0994 M992.942 55.2604 Q995.292 51.2095 998.857 49.2651 Q1002.46 47.2801 1007.44 47.2801 Q1015.71 47.2801 1020.85 53.8426 Q1026.04 60.4051 1026.04 71.0994 Q1026.04 81.7938 1020.85 88.3563 Q1015.71 94.9188 1007.44 94.9188 Q1002.46 94.9188 998.857 92.9743 Q995.292 90.9894 992.942 86.9385 L992.942 93.744 L985.448 93.744 L985.448 30.7119 L992.942 30.7119 L992.942 55.2604 Z" fill="#000000" fill-rule="evenodd" fill-opacity="1" /><path clip-path="url(#clip290)" d="M1077.2 69.1955 L1077.2 72.8413 L1042.93 72.8413 Q1043.42 80.5381 1047.55 84.589 Q1051.72 88.5994 1059.13 88.5994 Q1063.43 88.5994 1067.44 87.5461 Q1071.49 86.4929 1075.46 84.3864 L1075.46 91.435 Q1071.45 93.1364 1067.24 94.0276 Q1063.02 94.9188 1058.69 94.9188 Q1047.83 94.9188 1041.47 88.5994 Q1035.15 82.2799 1035.15 71.5045 Q1035.15 60.3645 1041.15 53.8426 Q1047.18 47.2801 1057.39 47.2801 Q1066.55 47.2801 1071.85 53.1944 Q1077.2 59.0683 1077.2 69.1955 M1069.75 67.008 Q1069.67 60.8912 1066.3 57.2454 Q1062.98 53.5995 1057.47 53.5995 Q1051.23 53.5995 1047.47 57.1238 Q1043.74 60.6481 1043.17 67.0485 L1069.75 67.008 Z" fill="#000000" fill-rule="evenodd" fill-opacity="1" /><path clip-path="url(#clip290)" d="M1115.73 55.3414 Q1114.47 54.6123 1112.97 54.2882 Q1111.51 53.9236 1109.73 53.9236 Q1103.41 53.9236 1100.01 58.0555 Q1096.65 62.1469 1096.65 69.8437 L1096.65 93.744 L1089.15 93.744 L1089.15 48.3739 L1096.65 48.3739 L1096.65 55.4224 Q1099 51.2905 1102.76 49.3056 Q1106.53 47.2801 1111.92 47.2801 Q1112.69 47.2801 1113.62 47.4017 Q1114.55 47.4827 1115.68 47.6852 L1115.73 55.3414 Z" fill="#000000" fill-rule="evenodd" fill-opacity="1" /><path clip-path="url(#clip290)" d="M1142.42 97.9569 Q1139.26 106.059 1136.26 108.53 Q1133.27 111.001 1128.24 111.001 L1122.29 111.001 L1122.29 104.762 L1126.66 104.762 Q1129.74 104.762 1131.44 103.304 Q1133.14 101.846 1135.21 96.4176 L1136.55 93.0148 L1118.2 48.3739 L1126.1 48.3739 L1140.27 83.8598 L1154.45 48.3739 L1162.35 48.3739 L1142.42 97.9569 Z" fill="#000000" fill-rule="evenodd" fill-opacity="1" /><path clip-path="url(#clip290)" d="M1225.3 55.3414 Q1224.05 54.6123 1222.55 54.2882 Q1221.09 53.9236 1219.31 53.9236 Q1212.99 53.9236 1209.58 58.0555 Q1206.22 62.1469 1206.22 69.8437 L1206.22 93.744 L1198.73 93.744 L1198.73 48.3739 L1206.22 48.3739 L1206.22 55.4224 Q1208.57 51.2905 1212.34 49.3056 Q1216.11 47.2801 1221.49 47.2801 Q1222.26 47.2801 1223.2 47.4017 Q1224.13 47.4827 1225.26 47.6852 L1225.3 55.3414 Z" fill="#000000" fill-rule="evenodd" fill-opacity="1" /><path clip-path="url(#clip290)" d="M1270.11 69.1955 L1270.11 72.8413 L1235.83 72.8413 Q1236.32 80.5381 1240.45 84.589 Q1244.63 88.5994 1252.04 88.5994 Q1256.33 88.5994 1260.34 87.5461 Q1264.39 86.4929 1268.36 84.3864 L1268.36 91.435 Q1264.35 93.1364 1260.14 94.0276 Q1255.93 94.9188 1251.59 94.9188 Q1240.74 94.9188 1234.38 88.5994 Q1228.06 82.2799 1228.06 71.5045 Q1228.06 60.3645 1234.05 53.8426 Q1240.09 47.2801 1250.3 47.2801 Q1259.45 47.2801 1264.76 53.1944 Q1270.11 59.0683 1270.11 69.1955 M1262.65 67.008 Q1262.57 60.8912 1259.21 57.2454 Q1255.89 53.5995 1250.38 53.5995 Q1244.14 53.5995 1240.37 57.1238 Q1236.64 60.6481 1236.08 67.0485 L1262.65 67.008 Z" fill="#000000" fill-rule="evenodd" fill-opacity="1" /><path clip-path="url(#clip290)" d="M1282.34 30.7119 L1289.79 30.7119 L1289.79 93.744 L1282.34 93.744 L1282.34 30.7119 Z" fill="#000000" fill-rule="evenodd" fill-opacity="1" /><path clip-path="url(#clip290)" d="M1326.01 70.9374 Q1316.97 70.9374 1313.49 73.0034 Q1310.01 75.0693 1310.01 80.0519 Q1310.01 84.0218 1312.6 86.3714 Q1315.23 88.6804 1319.73 88.6804 Q1325.93 88.6804 1329.65 84.3054 Q1333.42 79.8899 1333.42 72.5983 L1333.42 70.9374 L1326.01 70.9374 M1340.87 67.8587 L1340.87 93.744 L1333.42 93.744 L1333.42 86.8575 Q1330.87 90.9894 1327.06 92.9743 Q1323.25 94.9188 1317.74 94.9188 Q1310.78 94.9188 1306.64 91.0299 Q1302.55 87.1005 1302.55 80.5381 Q1302.55 72.8818 1307.66 68.993 Q1312.8 65.1041 1322.97 65.1041 L1333.42 65.1041 L1333.42 64.3749 Q1333.42 59.2303 1330.02 56.4352 Q1326.66 53.5995 1320.54 53.5995 Q1316.65 53.5995 1312.96 54.5312 Q1309.28 55.463 1305.87 57.3264 L1305.87 50.4398 Q1309.97 48.86 1313.81 48.0903 Q1317.66 47.2801 1321.31 47.2801 Q1331.15 47.2801 1336.01 52.3843 Q1340.87 57.4884 1340.87 67.8587 Z" fill="#000000" fill-rule="evenodd" fill-opacity="1" /><path clip-path="url(#clip290)" d="M1363.6 35.492 L1363.6 48.3739 L1378.95 48.3739 L1378.95 54.1667 L1363.6 54.1667 L1363.6 78.7962 Q1363.6 84.3459 1365.1 85.9258 Q1366.64 87.5056 1371.3 87.5056 L1378.95 87.5056 L1378.95 93.744 L1371.3 93.744 Q1362.67 93.744 1359.39 90.5438 Q1356.11 87.3031 1356.11 78.7962 L1356.11 54.1667 L1350.64 54.1667 L1350.64 48.3739 L1356.11 48.3739 L1356.11 35.492 L1363.6 35.492 Z" fill="#000000" fill-rule="evenodd" fill-opacity="1" /><path clip-path="url(#clip290)" d="M1388.76 48.3739 L1396.21 48.3739 L1396.21 93.744 L1388.76 93.744 L1388.76 48.3739 M1388.76 30.7119 L1396.21 30.7119 L1396.21 40.1505 L1388.76 40.1505 L1388.76 30.7119 Z" fill="#000000" fill-rule="evenodd" fill-opacity="1" /><path clip-path="url(#clip290)" d="M1406.46 48.3739 L1414.36 48.3739 L1428.54 86.4524 L1442.71 48.3739 L1450.61 48.3739 L1433.6 93.744 L1423.47 93.744 L1406.46 48.3739 Z" fill="#000000" fill-rule="evenodd" fill-opacity="1" /><path clip-path="url(#clip290)" d="M1499.71 69.1955 L1499.71 72.8413 L1465.44 72.8413 Q1465.93 80.5381 1470.06 84.589 Q1474.23 88.5994 1481.64 88.5994 Q1485.94 88.5994 1489.95 87.5461 Q1494 86.4929 1497.97 84.3864 L1497.97 91.435 Q1493.96 93.1364 1489.75 94.0276 Q1485.53 94.9188 1481.2 94.9188 Q1470.34 94.9188 1463.98 88.5994 Q1457.66 82.2799 1457.66 71.5045 Q1457.66 60.3645 1463.66 53.8426 Q1469.69 47.2801 1479.9 47.2801 Q1489.06 47.2801 1494.36 53.1944 Q1499.71 59.0683 1499.71 69.1955 M1492.26 67.008 Q1492.18 60.8912 1488.81 57.2454 Q1485.49 53.5995 1479.98 53.5995 Q1473.74 53.5995 1469.98 57.1238 Q1466.25 60.6481 1465.68 67.0485 L1492.26 67.008 Z" fill="#000000" fill-rule="evenodd" fill-opacity="1" /><path clip-path="url(#clip290)" d="M1570.97 50.1158 L1570.97 57.0833 Q1567.81 55.3414 1564.61 54.4907 Q1561.45 53.5995 1558.21 53.5995 Q1550.95 53.5995 1546.94 58.2176 Q1542.93 62.7951 1542.93 71.0994 Q1542.93 79.4038 1546.94 84.0218 Q1550.95 88.5994 1558.21 88.5994 Q1561.45 88.5994 1564.61 87.7487 Q1567.81 86.8575 1570.97 85.1156 L1570.97 92.0021 Q1567.85 93.4604 1564.48 94.1896 Q1561.16 94.9188 1557.4 94.9188 Q1547.15 94.9188 1541.11 88.4778 Q1535.07 82.0369 1535.07 71.0994 Q1535.07 60 1541.15 53.64 Q1547.27 47.2801 1557.88 47.2801 Q1561.32 47.2801 1564.61 48.0093 Q1567.89 48.6979 1570.97 50.1158 Z" fill="#000000" fill-rule="evenodd" fill-opacity="1" /><path clip-path="url(#clip290)" d="M1621.64 66.3599 L1621.64 93.744 L1614.19 93.744 L1614.19 66.6029 Q1614.19 60.162 1611.68 56.9618 Q1609.17 53.7616 1604.14 53.7616 Q1598.11 53.7616 1594.62 57.6099 Q1591.14 61.4583 1591.14 68.1018 L1591.14 93.744 L1583.65 93.744 L1583.65 30.7119 L1591.14 30.7119 L1591.14 55.4224 Q1593.81 51.331 1597.42 49.3056 Q1601.06 47.2801 1605.8 47.2801 Q1613.62 47.2801 1617.63 52.1412 Q1621.64 56.9618 1621.64 66.3599 Z" fill="#000000" fill-rule="evenodd" fill-opacity="1" /><path clip-path="url(#clip290)" d="M1657.13 70.9374 Q1648.1 70.9374 1644.61 73.0034 Q1641.13 75.0693 1641.13 80.0519 Q1641.13 84.0218 1643.72 86.3714 Q1646.35 88.6804 1650.85 88.6804 Q1657.05 88.6804 1660.77 84.3054 Q1664.54 79.8899 1664.54 72.5983 L1664.54 70.9374 L1657.13 70.9374 M1672 67.8587 L1672 93.744 L1664.54 93.744 L1664.54 86.8575 Q1661.99 90.9894 1658.18 92.9743 Q1654.37 94.9188 1648.86 94.9188 Q1641.9 94.9188 1637.77 91.0299 Q1633.67 87.1005 1633.67 80.5381 Q1633.67 72.8818 1638.78 68.993 Q1643.92 65.1041 1654.09 65.1041 L1664.54 65.1041 L1664.54 64.3749 Q1664.54 59.2303 1661.14 56.4352 Q1657.78 53.5995 1651.66 53.5995 Q1647.77 53.5995 1644.08 54.5312 Q1640.4 55.463 1637 57.3264 L1637 50.4398 Q1641.09 48.86 1644.94 48.0903 Q1648.78 47.2801 1652.43 47.2801 Q1662.27 47.2801 1667.13 52.3843 Q1672 57.4884 1672 67.8587 Z" fill="#000000" fill-rule="evenodd" fill-opacity="1" /><path clip-path="url(#clip290)" d="M1725.06 66.3599 L1725.06 93.744 L1717.61 93.744 L1717.61 66.6029 Q1717.61 60.162 1715.1 56.9618 Q1712.59 53.7616 1707.56 53.7616 Q1701.53 53.7616 1698.04 57.6099 Q1694.56 61.4583 1694.56 68.1018 L1694.56 93.744 L1687.06 93.744 L1687.06 48.3739 L1694.56 48.3739 L1694.56 55.4224 Q1697.23 51.331 1700.84 49.3056 Q1704.48 47.2801 1709.22 47.2801 Q1717.04 47.2801 1721.05 52.1412 Q1725.06 56.9618 1725.06 66.3599 Z" fill="#000000" fill-rule="evenodd" fill-opacity="1" /><path clip-path="url(#clip290)" d="M1769.78 70.5323 Q1769.78 62.4305 1766.42 57.9745 Q1763.1 53.5185 1757.06 53.5185 Q1751.07 53.5185 1747.71 57.9745 Q1744.39 62.4305 1744.39 70.5323 Q1744.39 78.5936 1747.71 83.0496 Q1751.07 87.5056 1757.06 87.5056 Q1763.1 87.5056 1766.42 83.0496 Q1769.78 78.5936 1769.78 70.5323 M1777.24 88.1132 Q1777.24 99.6988 1772.09 105.33 Q1766.95 111.001 1756.34 111.001 Q1752.41 111.001 1748.92 110.393 Q1745.44 109.826 1742.16 108.611 L1742.16 101.36 Q1745.44 103.142 1748.64 103.993 Q1751.84 104.843 1755.16 104.843 Q1762.49 104.843 1766.14 100.995 Q1769.78 97.1873 1769.78 89.45 L1769.78 85.7637 Q1767.48 89.7741 1763.87 91.7591 Q1760.26 93.744 1755.24 93.744 Q1746.9 93.744 1741.79 87.3841 Q1736.69 81.0242 1736.69 70.5323 Q1736.69 60 1741.79 53.64 Q1746.9 47.2801 1755.24 47.2801 Q1760.26 47.2801 1763.87 49.2651 Q1767.48 51.25 1769.78 55.2604 L1769.78 48.3739 L1777.24 48.3739 L1777.24 88.1132 Z" fill="#000000" fill-rule="evenodd" fill-opacity="1" /><path clip-path="url(#clip290)" d="M1831.4 69.1955 L1831.4 72.8413 L1797.13 72.8413 Q1797.61 80.5381 1801.75 84.589 Q1805.92 88.5994 1813.33 88.5994 Q1817.63 88.5994 1821.64 87.5461 Q1825.69 86.4929 1829.66 84.3864 L1829.66 91.435 Q1825.65 93.1364 1821.43 94.0276 Q1817.22 94.9188 1812.89 94.9188 Q1802.03 94.9188 1795.67 88.5994 Q1789.35 82.2799 1789.35 71.5045 Q1789.35 60.3645 1795.35 53.8426 Q1801.38 47.2801 1811.59 47.2801 Q1820.74 47.2801 1826.05 53.1944 Q1831.4 59.0683 1831.4 69.1955 M1823.94 67.008 Q1823.86 60.8912 1820.5 57.2454 Q1817.18 53.5995 1811.67 53.5995 Q1805.43 53.5995 1801.66 57.1238 Q1797.94 60.6481 1797.37 67.0485 L1823.94 67.008 Z" fill="#000000" fill-rule="evenodd" fill-opacity="1" /><path clip-path="url(#clip290)" d="M870.605 132.045 L859.506 162.144 L881.745 162.144 L870.605 132.045 M865.987 123.984 L875.264 123.984 L898.313 184.464 L889.806 184.464 L884.297 168.949 L857.035 168.949 L851.525 184.464 L842.897 184.464 L865.987 123.984 Z" fill="#000000" fill-rule="evenodd" fill-opacity="1" /><path clip-path="url(#clip290)" d="M938.012 140.836 L938.012 147.803 Q934.852 146.061 931.652 145.211 Q928.492 144.32 925.252 144.32 Q918.001 144.32 913.99 148.938 Q909.98 153.515 909.98 161.819 Q909.98 170.124 913.99 174.742 Q918.001 179.319 925.252 179.319 Q928.492 179.319 931.652 178.469 Q934.852 177.577 938.012 175.836 L938.012 182.722 Q934.893 184.18 931.531 184.91 Q928.209 185.639 924.442 185.639 Q914.193 185.639 908.157 179.198 Q902.121 172.757 902.121 161.819 Q902.121 150.72 908.197 144.36 Q914.314 138 924.928 138 Q928.371 138 931.652 138.729 Q934.933 139.418 938.012 140.836 Z" fill="#000000" fill-rule="evenodd" fill-opacity="1" /><path clip-path="url(#clip290)" d="M958.348 126.212 L958.348 139.094 L973.701 139.094 L973.701 144.887 L958.348 144.887 L958.348 169.516 Q958.348 175.066 959.846 176.646 Q961.386 178.226 966.044 178.226 L973.701 178.226 L973.701 184.464 L966.044 184.464 Q957.416 184.464 954.135 181.264 Q950.853 178.023 950.853 169.516 L950.853 144.887 L945.385 144.887 L945.385 139.094 L950.853 139.094 L950.853 126.212 L958.348 126.212 Z" fill="#000000" fill-rule="evenodd" fill-opacity="1" /><path clip-path="url(#clip290)" d="M982.734 166.559 L982.734 139.094 L990.188 139.094 L990.188 166.275 Q990.188 172.716 992.699 175.957 Q995.211 179.157 1000.23 179.157 Q1006.27 179.157 1009.75 175.309 Q1013.28 171.461 1013.28 164.817 L1013.28 139.094 L1020.73 139.094 L1020.73 184.464 L1013.28 184.464 L1013.28 177.496 Q1010.56 181.628 1006.96 183.654 Q1003.39 185.639 998.654 185.639 Q990.836 185.639 986.785 180.778 Q982.734 175.917 982.734 166.559 M1001.49 138 L1001.49 138 Z" fill="#000000" fill-rule="evenodd" fill-opacity="1" /><path clip-path="url(#clip290)" d="M1056.7 161.657 Q1047.67 161.657 1044.19 163.723 Q1040.7 165.789 1040.7 170.772 Q1040.7 174.742 1043.3 177.091 Q1045.93 179.4 1050.42 179.4 Q1056.62 179.4 1060.35 175.025 Q1064.12 170.61 1064.12 163.318 L1064.12 161.657 L1056.7 161.657 M1071.57 158.579 L1071.57 184.464 L1064.12 184.464 L1064.12 177.577 Q1061.56 181.709 1057.76 183.694 Q1053.95 185.639 1048.44 185.639 Q1041.47 185.639 1037.34 181.75 Q1033.25 177.821 1033.25 171.258 Q1033.25 163.602 1038.35 159.713 Q1043.5 155.824 1053.67 155.824 L1064.12 155.824 L1064.12 155.095 Q1064.12 149.95 1060.71 147.155 Q1057.35 144.32 1051.23 144.32 Q1047.35 144.32 1043.66 145.251 Q1039.97 146.183 1036.57 148.046 L1036.57 141.16 Q1040.66 139.58 1044.51 138.81 Q1048.36 138 1052 138 Q1061.85 138 1066.71 143.104 Q1071.57 148.208 1071.57 158.579 Z" fill="#000000" fill-rule="evenodd" fill-opacity="1" /><path clip-path="url(#clip290)" d="M1086.92 121.432 L1094.38 121.432 L1094.38 184.464 L1086.92 184.464 L1086.92 121.432 Z" fill="#000000" fill-rule="evenodd" fill-opacity="1" /><path clip-path="url(#clip290)" d="M1156.96 161.657 Q1147.93 161.657 1144.45 163.723 Q1140.96 165.789 1140.96 170.772 Q1140.96 174.742 1143.55 177.091 Q1146.19 179.4 1150.68 179.4 Q1156.88 179.4 1160.61 175.025 Q1164.38 170.61 1164.38 163.318 L1164.38 161.657 L1156.96 161.657 M1171.83 158.579 L1171.83 184.464 L1164.38 184.464 L1164.38 177.577 Q1161.82 181.709 1158.02 183.694 Q1154.21 185.639 1148.7 185.639 Q1141.73 185.639 1137.6 181.75 Q1133.51 177.821 1133.51 171.258 Q1133.51 163.602 1138.61 159.713 Q1143.76 155.824 1153.93 155.824 L1164.38 155.824 L1164.38 155.095 Q1164.38 149.95 1160.97 147.155 Q1157.61 144.32 1151.49 144.32 Q1147.61 144.32 1143.92 145.251 Q1140.23 146.183 1136.83 148.046 L1136.83 141.16 Q1140.92 139.58 1144.77 138.81 Q1148.62 138 1152.26 138 Q1162.11 138 1166.97 143.104 Q1171.83 148.208 1171.83 158.579 Z" fill="#000000" fill-rule="evenodd" fill-opacity="1" /><path clip-path="url(#clip290)" d="M1224.9 157.08 L1224.9 184.464 L1217.44 184.464 L1217.44 157.323 Q1217.44 150.882 1214.93 147.682 Q1212.42 144.482 1207.4 144.482 Q1201.36 144.482 1197.88 148.33 Q1194.39 152.178 1194.39 158.822 L1194.39 184.464 L1186.9 184.464 L1186.9 139.094 L1194.39 139.094 L1194.39 146.142 Q1197.07 142.051 1200.67 140.026 Q1204.32 138 1209.06 138 Q1216.88 138 1220.89 142.861 Q1224.9 147.682 1224.9 157.08 Z" fill="#000000" fill-rule="evenodd" fill-opacity="1" /><path clip-path="url(#clip290)" d="M1269.62 145.98 L1269.62 121.432 L1277.07 121.432 L1277.07 184.464 L1269.62 184.464 L1269.62 177.658 Q1267.27 181.709 1263.66 183.694 Q1260.1 185.639 1255.08 185.639 Q1246.85 185.639 1241.67 179.076 Q1236.52 172.514 1236.52 161.819 Q1236.52 151.125 1241.67 144.563 Q1246.85 138 1255.08 138 Q1260.1 138 1263.66 139.985 Q1267.27 141.93 1269.62 145.98 M1244.22 161.819 Q1244.22 170.043 1247.58 174.742 Q1250.98 179.4 1256.9 179.4 Q1262.81 179.4 1266.22 174.742 Q1269.62 170.043 1269.62 161.819 Q1269.62 153.596 1266.22 148.938 Q1262.81 144.239 1256.9 144.239 Q1250.98 144.239 1247.58 148.938 Q1244.22 153.596 1244.22 161.819 Z" fill="#000000" fill-rule="evenodd" fill-opacity="1" /><path clip-path="url(#clip290)" d="M1327.3 130.709 L1327.3 153.434 L1337.59 153.434 Q1343.31 153.434 1346.42 150.477 Q1349.54 147.52 1349.54 142.051 Q1349.54 136.623 1346.42 133.666 Q1343.31 130.709 1337.59 130.709 L1327.3 130.709 M1319.12 123.984 L1337.59 123.984 Q1347.76 123.984 1352.95 128.602 Q1358.17 133.18 1358.17 142.051 Q1358.17 151.004 1352.95 155.581 Q1347.76 160.159 1337.59 160.159 L1327.3 160.159 L1327.3 184.464 L1319.12 184.464 L1319.12 123.984 Z" fill="#000000" fill-rule="evenodd" fill-opacity="1" /><path clip-path="url(#clip290)" d="M1393.66 146.061 Q1392.4 145.332 1390.9 145.008 Q1389.44 144.644 1387.66 144.644 Q1381.34 144.644 1377.94 148.776 Q1374.58 152.867 1374.58 160.564 L1374.58 184.464 L1367.08 184.464 L1367.08 139.094 L1374.58 139.094 L1374.58 146.142 Q1376.93 142.011 1380.69 140.026 Q1384.46 138 1389.85 138 Q1390.62 138 1391.55 138.122 Q1392.48 138.203 1393.62 138.405 L1393.66 146.061 Z" fill="#000000" fill-rule="evenodd" fill-opacity="1" /><path clip-path="url(#clip290)" d="M1438.46 159.916 L1438.46 163.561 L1404.19 163.561 Q1404.68 171.258 1408.81 175.309 Q1412.98 179.319 1420.39 179.319 Q1424.69 179.319 1428.7 178.266 Q1432.75 177.213 1436.72 175.106 L1436.72 182.155 Q1432.71 183.856 1428.5 184.748 Q1424.28 185.639 1419.95 185.639 Q1409.09 185.639 1402.73 179.319 Q1396.41 173 1396.41 162.225 Q1396.41 151.085 1402.41 144.563 Q1408.44 138 1418.65 138 Q1427.81 138 1433.11 143.914 Q1438.46 149.788 1438.46 159.916 M1431.01 157.728 Q1430.93 151.611 1427.56 147.965 Q1424.24 144.32 1418.73 144.32 Q1412.49 144.32 1408.73 147.844 Q1405 151.368 1404.43 157.769 L1431.01 157.728 Z" fill="#000000" fill-rule="evenodd" fill-opacity="1" /><path clip-path="url(#clip290)" d="M1480.55 145.98 L1480.55 121.432 L1488 121.432 L1488 184.464 L1480.55 184.464 L1480.55 177.658 Q1478.2 181.709 1474.59 183.694 Q1471.03 185.639 1466.01 185.639 Q1457.78 185.639 1452.6 179.076 Q1447.45 172.514 1447.45 161.819 Q1447.45 151.125 1452.6 144.563 Q1457.78 138 1466.01 138 Q1471.03 138 1474.59 139.985 Q1478.2 141.93 1480.55 145.98 M1455.15 161.819 Q1455.15 170.043 1458.51 174.742 Q1461.92 179.4 1467.83 179.4 Q1473.74 179.4 1477.15 174.742 Q1480.55 170.043 1480.55 161.819 Q1480.55 153.596 1477.15 148.938 Q1473.74 144.239 1467.83 144.239 Q1461.92 144.239 1458.51 148.938 Q1455.15 153.596 1455.15 161.819 Z" fill="#000000" fill-rule="evenodd" fill-opacity="1" /><path clip-path="url(#clip290)" d="M1503.36 139.094 L1510.81 139.094 L1510.81 184.464 L1503.36 184.464 L1503.36 139.094 M1503.36 121.432 L1510.81 121.432 L1510.81 130.871 L1503.36 130.871 L1503.36 121.432 Z" fill="#000000" fill-rule="evenodd" fill-opacity="1" /><path clip-path="url(#clip290)" d="M1559.06 140.836 L1559.06 147.803 Q1555.9 146.061 1552.7 145.211 Q1549.54 144.32 1546.3 144.32 Q1539.04 144.32 1535.03 148.938 Q1531.02 153.515 1531.02 161.819 Q1531.02 170.124 1535.03 174.742 Q1539.04 179.319 1546.3 179.319 Q1549.54 179.319 1552.7 178.469 Q1555.9 177.577 1559.06 175.836 L1559.06 182.722 Q1555.94 184.18 1552.57 184.91 Q1549.25 185.639 1545.49 185.639 Q1535.24 185.639 1529.2 179.198 Q1523.17 172.757 1523.17 161.819 Q1523.17 150.72 1529.24 144.36 Q1535.36 138 1545.97 138 Q1549.42 138 1552.7 138.729 Q1555.98 139.418 1559.06 140.836 Z" fill="#000000" fill-rule="evenodd" fill-opacity="1" /><path clip-path="url(#clip290)" d="M1579.39 126.212 L1579.39 139.094 L1594.74 139.094 L1594.74 144.887 L1579.39 144.887 L1579.39 169.516 Q1579.39 175.066 1580.89 176.646 Q1582.43 178.226 1587.09 178.226 L1594.74 178.226 L1594.74 184.464 L1587.09 184.464 Q1578.46 184.464 1575.18 181.264 Q1571.9 178.023 1571.9 169.516 L1571.9 144.887 L1566.43 144.887 L1566.43 139.094 L1571.9 139.094 L1571.9 126.212 L1579.39 126.212 Z" fill="#000000" fill-rule="evenodd" fill-opacity="1" /><path clip-path="url(#clip290)" d="M1643.36 159.916 L1643.36 163.561 L1609.08 163.561 Q1609.57 171.258 1613.7 175.309 Q1617.88 179.319 1625.29 179.319 Q1629.58 179.319 1633.59 178.266 Q1637.64 177.213 1641.61 175.106 L1641.61 182.155 Q1637.6 183.856 1633.39 184.748 Q1629.18 185.639 1624.84 185.639 Q1613.99 185.639 1607.63 179.319 Q1601.31 173 1601.31 162.225 Q1601.31 151.085 1607.3 144.563 Q1613.34 138 1623.55 138 Q1632.7 138 1638.01 143.914 Q1643.36 149.788 1643.36 159.916 M1635.9 157.728 Q1635.82 151.611 1632.46 147.965 Q1629.14 144.32 1623.63 144.32 Q1617.39 144.32 1613.62 147.844 Q1609.9 151.368 1609.33 157.769 L1635.9 157.728 Z" fill="#000000" fill-rule="evenodd" fill-opacity="1" /><path clip-path="url(#clip290)" d="M1685.44 145.98 L1685.44 121.432 L1692.9 121.432 L1692.9 184.464 L1685.44 184.464 L1685.44 177.658 Q1683.09 181.709 1679.49 183.694 Q1675.92 185.639 1670.9 185.639 Q1662.68 185.639 1657.49 179.076 Q1652.35 172.514 1652.35 161.819 Q1652.35 151.125 1657.49 144.563 Q1662.68 138 1670.9 138 Q1675.92 138 1679.49 139.985 Q1683.09 141.93 1685.44 145.98 M1660.05 161.819 Q1660.05 170.043 1663.41 174.742 Q1666.81 179.4 1672.72 179.4 Q1678.64 179.4 1682.04 174.742 Q1685.44 170.043 1685.44 161.819 Q1685.44 153.596 1682.04 148.938 Q1678.64 144.239 1672.72 144.239 Q1666.81 144.239 1663.41 148.938 Q1660.05 153.596 1660.05 161.819 Z" fill="#000000" fill-rule="evenodd" fill-opacity="1" /><polyline clip-path="url(#clip292)" style="stroke:#009af9; stroke-linecap:butt; stroke-linejoin:round; stroke-width:12; stroke-opacity:1; fill:none" points="
  218.191,1167.18 297.899,1084.96 377.606,1043.95 457.314,920.439 537.021,582.506 616.728,411.553 696.436,493.504 776.143,443.799 855.851,220.815 935.558,604.208 
  1015.27,691.978 1094.97,910.854 1174.68,865.395 1254.39,851.771 1334.1,809.392 1413.8,910.649 1493.51,997.323 1573.22,1039.36 1652.92,1106.73 1732.63,1140.21 
  1812.34,1239.48 1892.05,1363.94 1971.75,1427.27 2051.46,1396.87 2131.17,1384.55 2210.88,1348.26 2290.58,1235.1 
  "/>
<polyline clip-path="url(#clip292)" style="stroke:#e26f46; stroke-linecap:butt; stroke-linejoin:round; stroke-width:4; stroke-opacity:0.5; fill:none" points="
  218.191,1167.18 297.899,1059.8 377.606,1017.29 457.314,981.209 537.021,428.81 616.728,421.998 696.436,436.528 776.143,484.608 855.851,468.565 935.558,532.642 
  1015.27,619.785 1094.97,726.684 1174.68,814.054 1254.39,887.575 1334.1,828.467 1413.8,926.811 1493.51,898.895 1573.22,993.831 1652.92,1089.64 1732.63,1171.23 
  1812.34,1238.56 1892.05,1275.55 1971.75,1297.07 2051.46,1281.64 2131.17,1331.92 2210.88,1378.02 2290.58,1391.32 
  "/>
<polyline clip-path="url(#clip292)" style="stroke:#3da44d; stroke-linecap:butt; stroke-linejoin:round; stroke-width:4; stroke-opacity:0.5; fill:none" points="
  218.191,1167.18 297.899,1076.52 377.606,1025.23 457.314,966.776 537.021,385.128 616.728,421.843 696.436,459.207 776.143,513.342 855.851,498.523 935.558,565.517 
  1015.27,644.905 1094.97,744.092 1174.68,814.713 1254.39,862.215 1334.1,853.933 1413.8,956.819 1493.51,958.086 1573.22,1054.77 1652.92,1149.1 1732.63,1228.77 
  1812.34,1294.1 1892.05,1328.18 1971.75,1346.48 2051.46,1322.04 2131.17,1364.75 2210.88,1402.52 2290.58,1399.44 
  "/>
<polyline clip-path="url(#clip292)" style="stroke:#c271d2; stroke-linecap:butt; stroke-linejoin:round; stroke-width:4; stroke-opacity:0.5; fill:none" points="
  218.191,1167.18 297.899,1063.18 377.606,1030.99 457.314,1002.69 537.021,491.883 616.728,443.459 696.436,432.695 776.143,473.379 855.851,422.045 935.558,487.165 
  1015.27,590.122 1094.97,719.575 1174.68,823.18 1254.39,909.618 1334.1,876.763 1413.8,987.243 1493.51,916.093 1573.22,1025.84 1652.92,1134.77 1732.63,1224.87 
  1812.34,1295.16 1892.05,1322.76 1971.75,1332.76 2051.46,1298.22 2131.17,1356.33 2210.88,1408.48 2290.58,1419.28 
  "/>
<polyline clip-path="url(#clip292)" style="stroke:#ac8d18; stroke-linecap:butt; stroke-linejoin:round; stroke-width:4; stroke-opacity:0.5; fill:none" points="
  218.191,1167.18 297.899,1088.77 377.606,1047.86 457.314,1011.71 537.021,476.273 616.728,475.154 696.436,486.487 776.143,520.438 855.851,508.859 935.558,577.214 
  1015.27,661.451 1094.97,763.205 1174.68,845.165 1254.39,913.906 1334.1,884.644 1413.8,972.941 1493.51,959.682 1573.22,1044.37 1652.92,1135.92 1732.63,1207.79 
  1812.34,1263.88 1892.05,1288.64 1971.75,1304.35 2051.46,1292.33 2131.17,1332.38 2210.88,1367.7 2290.58,1368.48 
  "/>
<polyline clip-path="url(#clip292)" style="stroke:#00a9ad; stroke-linecap:butt; stroke-linejoin:round; stroke-width:4; stroke-opacity:0.5; fill:none" points="
  218.191,1167.18 297.899,1037.14 377.606,971.561 457.314,912.61 537.021,482.051 616.728,444.874 696.436,434.563 776.143,461.524 855.851,426.344 935.558,490.798 
  1015.27,577.501 1094.97,683.3 1174.68,768.683 1254.39,840.545 1334.1,905.283 1413.8,996.231 1493.51,987.841 1573.22,1073.55 1652.92,1155.45 1732.63,1226.02 
  1812.34,1282.7 1892.05,1309.12 1971.75,1326.64 2051.46,1314.54 2131.17,1359.82 2210.88,1399.78 2290.58,1407.42 
  "/>
<polyline clip-path="url(#clip292)" style="stroke:#ed5d92; stroke-linecap:butt; stroke-linejoin:round; stroke-width:4; stroke-opacity:0.5; fill:none" points="
  218.191,1167.18 297.899,1059.07 377.606,1013.13 457.314,969.985 537.021,496.065 616.728,463.93 696.436,458.541 776.143,494.146 855.851,449.621 935.558,512.251 
  1015.27,606.239 1094.97,727.551 1174.68,820.42 1254.39,894.541 1334.1,882.592 1413.8,989.897 1493.51,936.052 1573.22,1041.78 1652.92,1148.47 1732.63,1234.04 
  1812.34,1298.14 1892.05,1317.45 1971.75,1320.99 2051.46,1281.64 2131.17,1334.13 2210.88,1380.47 2290.58,1380.78 
  "/>
<polyline clip-path="url(#clip292)" style="stroke:#c68125; stroke-linecap:butt; stroke-linejoin:round; stroke-width:4; stroke-opacity:0.5; fill:none" points="
  218.191,1167.18 297.899,1070.84 377.606,1025.74 457.314,1006.51 537.021,585.575 616.728,503.557 696.436,459.287 776.143,454.371 855.851,442.326 935.558,503.761 
  1015.27,593.545 1094.97,703.679 1174.68,809.327 1254.39,910.437 1334.1,894.368 1413.8,959.516 1493.51,962.127 1573.22,1018.67 1652.92,1102.21 1732.63,1169.39 
  1812.34,1226.85 1892.05,1267.72 1971.75,1303.25 2051.46,1326.65 2131.17,1368 2210.88,1407.14 2290.58,1430.49 
  "/>
<polyline clip-path="url(#clip292)" style="stroke:#00a98d; stroke-linecap:butt; stroke-linejoin:round; stroke-width:4; stroke-opacity:0.5; fill:none" points="
  218.191,1167.18 297.899,1084.35 377.606,1033.58 457.314,996.557 537.021,440.588 616.728,440.43 696.436,448.546 776.143,473.06 855.851,475.148 935.558,549.909 
  1015.27,636.043 1094.97,735.981 1174.68,825.507 1254.39,906.77 1334.1,891.061 1413.8,967.337 1493.51,986.87 1573.22,1055.38 1652.92,1135.87 1732.63,1202.39 
  1812.34,1260.33 1892.05,1298.82 1971.75,1330.31 2051.46,1342.69 2131.17,1375.73 2210.88,1405.77 2290.58,1414.59 
  "/>
<polyline clip-path="url(#clip292)" style="stroke:#8e971d; stroke-linecap:butt; stroke-linejoin:round; stroke-width:4; stroke-opacity:0.5; fill:none" points="
  218.191,1167.18 297.899,1054.47 377.606,983.053 457.314,916.058 537.021,450.376 616.728,464.658 696.436,482.873 776.143,518.701 855.851,502.772 935.558,564.531 
  1015.27,639.089 1094.97,734.907 1174.68,804.186 1254.39,854.433 1334.1,840.723 1413.8,940.886 1493.51,938.793 1573.22,1033.61 1652.92,1131.91 1732.63,1209.8 
  1812.34,1269.95 1892.05,1294.41 1971.75,1304.9 2051.46,1279.38 2131.17,1314.03 2210.88,1344.09 2290.58,1333.71 
  "/>
<polyline clip-path="url(#clip292)" style="stroke:#00a8cb; stroke-linecap:butt; stroke-linejoin:round; stroke-width:4; stroke-opacity:0.5; fill:none" points="
  218.191,1167.18 297.899,1072.3 377.606,1025.86 457.314,983.03 537.021,480.357 616.728,463.097 696.436,463.74 776.143,493.742 855.851,467.824 935.558,528.368 
  1015.27,608.212 1094.97,705.995 1174.68,786.196 1254.39,854.348 1334.1,883.705 1413.8,970.563 1493.51,965.48 1573.22,1047.89 1652.92,1129.81 1732.63,1200.12 
  1812.34,1258.29 1892.05,1290.45 1971.75,1312.99 2051.46,1307.6 2131.17,1351.37 2210.88,1390.84 2290.58,1401.42 
  "/>
<polyline clip-path="url(#clip292)" style="stroke:#9b7fe8; stroke-linecap:butt; stroke-linejoin:round; stroke-width:4; stroke-opacity:0.5; fill:none" points="
  218.191,1167.18 297.899,1068.19 377.606,1009.26 457.314,953.161 537.021,433.345 616.728,453.728 696.436,480.452 776.143,524.456 855.851,521.642 935.558,590.711 
  1015.27,669.633 1094.97,763.495 1174.68,835.001 1254.39,890.191 1334.1,893.277 1413.8,982.632 1493.51,983.792 1573.22,1068.36 1652.92,1153.7 1732.63,1223.72 
  1812.34,1279.7 1892.05,1305.89 1971.75,1321.43 2051.46,1305.62 2131.17,1342.36 2210.88,1374.17 2290.58,1370.23 
  "/>
<polyline clip-path="url(#clip292)" style="stroke:#608cf6; stroke-linecap:butt; stroke-linejoin:round; stroke-width:4; stroke-opacity:0.5; fill:none" points="
  218.191,1167.18 297.899,1078.61 377.606,1038.11 457.314,1011.51 537.021,482.826 616.728,449.561 696.436,444.752 776.143,471.64 855.851,468.597 935.558,541.819 
  1015.27,631.973 1094.97,734.929 1174.68,825.197 1254.39,907.465 1334.1,916.632 1413.8,991.637 1493.51,980.59 1573.22,1051.2 1652.92,1129.01 1732.63,1191.47 
  1812.34,1241.34 1892.05,1267.2 1971.75,1289.5 2051.46,1294.74 2131.17,1336.75 2210.88,1374.3 2290.58,1387.05 
  "/>
<polyline clip-path="url(#clip292)" style="stroke:#f05f73; stroke-linecap:butt; stroke-linejoin:round; stroke-width:4; stroke-opacity:0.5; fill:none" points="
  218.191,1167.18 297.899,1058.62 377.606,1001.62 457.314,944.663 537.021,439.26 616.728,445.985 696.436,460.802 776.143,500.012 855.851,473.442 935.558,527.216 
  1015.27,600.197 1094.97,695.551 1174.68,769.971 1254.39,828.216 1334.1,833.906 1413.8,929.022 1493.51,934.818 1573.22,1024.11 1652.92,1111.89 1732.63,1188.57 
  1812.34,1253.95 1892.05,1295.45 1971.75,1322.85 2051.46,1315.45 2131.17,1360.03 2210.88,1400.95 2290.58,1412.32 
  "/>
<polyline clip-path="url(#clip292)" style="stroke:#dd64b5; stroke-linecap:butt; stroke-linejoin:round; stroke-width:4; stroke-opacity:0.5; fill:none" points="
  218.191,1167.18 297.899,1053.92 377.606,988.468 457.314,927.679 537.021,486.363 616.728,470.043 696.436,469.393 776.143,495.788 855.851,468.529 935.558,531.484 
  1015.27,612.369 1094.97,713.177 1174.68,791.049 1254.39,853.599 1334.1,897.935 1413.8,989.596 1493.51,982.457 1573.22,1069.23 1652.92,1153.68 1732.63,1224.03 
  1812.34,1278.83 1892.05,1300.98 1971.75,1313.96 2051.46,1296.42 2131.17,1336.85 2210.88,1371.68 2290.58,1369.99 
  "/>
<polyline clip-path="url(#clip292)" style="stroke:#6b9e32; stroke-linecap:butt; stroke-linejoin:round; stroke-width:4; stroke-opacity:0.5; fill:none" points="
  218.191,1167.18 297.899,1048.02 377.606,973.554 457.314,905.448 537.021,403.276 616.728,417.392 696.436,440.631 776.143,481.982 855.851,482.709 935.558,555.136 
  1015.27,635.582 1094.97,728.063 1174.68,800.33 1254.39,858.026 1334.1,901.289 1413.8,985.881 1493.51,996.947 1573.22,1075.84 1652.92,1151.26 1732.63,1215.75 
  1812.34,1268.29 1892.05,1294.53 1971.75,1313.02 2051.46,1304.58 2131.17,1340.34 2210.88,1370.71 2290.58,1368.94 
  "/>
<polyline clip-path="url(#clip292)" style="stroke:#009af9; stroke-linecap:butt; stroke-linejoin:round; stroke-width:4; stroke-opacity:0.5; fill:none" points="
  218.191,1167.18 297.899,1051.71 377.606,978.172 457.314,915.746 537.021,463.158 616.728,465.827 696.436,478.355 776.143,508.751 855.851,507.934 935.558,572.503 
  1015.27,646.145 1094.97,732.568 1174.68,803.213 1254.39,862.794 1334.1,893.979 1413.8,972.355 1493.51,986.113 1573.22,1059.1 1652.92,1131.97 1732.63,1194.41 
  1812.34,1246.32 1892.05,1275.43 1971.75,1297.25 2051.46,1296.41 2131.17,1329.85 2210.88,1358.99 2290.58,1361.48 
  "/>
<polyline clip-path="url(#clip292)" style="stroke:#e26f46; stroke-linecap:butt; stroke-linejoin:round; stroke-width:4; stroke-opacity:0.5; fill:none" points="
  218.191,1167.18 297.899,1056.94 377.606,995.411 457.314,953.815 537.021,467.534 616.728,468.317 696.436,481.832 776.143,516.336 855.851,525.426 935.558,593.363 
  1015.27,674.977 1094.97,772.9 1174.68,858.718 1254.39,935.515 1334.1,871.826 1413.8,953.533 1493.51,963.785 1573.22,1038.9 1652.92,1131.3 1732.63,1204.33 
  1812.34,1264.8 1892.05,1302.24 1971.75,1328.99 2051.46,1333.97 2131.17,1368.33 2210.88,1400.53 2290.58,1409.54 
  "/>
<polyline clip-path="url(#clip292)" style="stroke:#3da44d; stroke-linecap:butt; stroke-linejoin:round; stroke-width:4; stroke-opacity:0.5; fill:none" points="
  218.191,1167.18 297.899,1046.47 377.606,977.648 457.314,935.059 537.021,549.48 616.728,523.354 696.436,514.014 776.143,528.516 855.851,529.306 935.558,582.549 
  1015.27,652.082 1094.97,738.409 1174.68,820.133 1254.39,897.543 1334.1,899 1413.8,969.947 1493.51,996.262 1573.22,1060 1652.92,1136.14 1732.63,1202.24 
  1812.34,1260.61 1892.05,1304.6 1971.75,1340.31 2051.46,1361.13 2131.17,1396.11 2210.88,1429.64 2290.58,1449.58 
  "/>
<polyline clip-path="url(#clip292)" style="stroke:#c271d2; stroke-linecap:butt; stroke-linejoin:round; stroke-width:4; stroke-opacity:0.5; fill:none" points="
  218.191,1167.18 297.899,1011.95 377.606,943.009 457.314,900.235 537.021,463.086 616.728,422.858 696.436,417.467 776.143,454.806 855.851,447.506 935.558,515.549 
  1015.27,611.779 1094.97,731.275 1174.68,832.978 1254.39,923.042 1334.1,878.765 1413.8,976.019 1493.51,953.637 1573.22,1045.75 1652.92,1148.85 1732.63,1231.3 
  1812.34,1295.85 1892.05,1328.89 1971.75,1348.15 2051.46,1340.16 2131.17,1385.52 2210.88,1427.38 2290.58,1439.84 
  "/>
<polyline clip-path="url(#clip292)" style="stroke:#ac8d18; stroke-linecap:butt; stroke-linejoin:round; stroke-width:4; stroke-opacity:0.5; fill:none" points="
  218.191,1167.18 297.899,1061.57 377.606,1003.93 457.314,962.399 537.021,447.4 616.728,434.98 696.436,438.589 776.143,467.86 855.851,462.156 935.558,532.935 
  1015.27,622.436 1094.97,732.097 1174.68,825.48 1254.39,907.652 1334.1,854.1 1413.8,943.207 1493.51,939.536 1573.22,1022.6 1652.92,1122.14 1732.63,1198.81 
  1812.34,1259.72 1892.05,1291.86 1971.75,1313.52 2051.46,1310.44 2131.17,1348.14 2210.88,1382.6 2290.58,1387.75 
  "/>
</svg>
