<?xml version="1.0" encoding="utf-8"?>
<svg xmlns="http://www.w3.org/2000/svg" xmlns:xlink="http://www.w3.org/1999/xlink" width="600" height="400" viewBox="0 0 2400 1600">
<defs>
  <clipPath id="clip220">
    <rect x="0" y="0" width="2400" height="1600"/>
  </clipPath>
</defs>
<path clip-path="url(#clip220)" d="
M0 1600 L2400 1600 L2400 0 L0 0  Z
  " fill="#ffffff" fill-rule="evenodd" fill-opacity="1"/>
<defs>
  <clipPath id="clip221">
    <rect x="480" y="0" width="1681" height="1600"/>
  </clipPath>
</defs>
<path clip-path="url(#clip220)" d="
M369.518 1486.45 L2352.76 1486.45 L2352.76 123.472 L369.518 123.472  Z
  " fill="#ffffff" fill-rule="evenodd" fill-opacity="1"/>
<defs>
  <clipPath id="clip222">
    <rect x="369" y="123" width="1984" height="1364"/>
  </clipPath>
</defs>
<polyline clip-path="url(#clip222)" style="stroke:#000000; stroke-linecap:butt; stroke-linejoin:round; stroke-width:2; stroke-opacity:0.1; fill:none" points="
  569.569,1486.45 569.569,123.472 
  "/>
<polyline clip-path="url(#clip222)" style="stroke:#000000; stroke-linecap:butt; stroke-linejoin:round; stroke-width:2; stroke-opacity:0.1; fill:none" points="
  929.373,1486.45 929.373,123.472 
  "/>
<polyline clip-path="url(#clip222)" style="stroke:#000000; stroke-linecap:butt; stroke-linejoin:round; stroke-width:2; stroke-opacity:0.1; fill:none" points="
  1289.18,1486.45 1289.18,123.472 
  "/>
<polyline clip-path="url(#clip222)" style="stroke:#000000; stroke-linecap:butt; stroke-linejoin:round; stroke-width:2; stroke-opacity:0.1; fill:none" points="
  1648.98,1486.45 1648.98,123.472 
  "/>
<polyline clip-path="url(#clip222)" style="stroke:#000000; stroke-linecap:butt; stroke-linejoin:round; stroke-width:2; stroke-opacity:0.1; fill:none" points="
  2008.78,1486.45 2008.78,123.472 
  "/>
<polyline clip-path="url(#clip220)" style="stroke:#000000; stroke-linecap:butt; stroke-linejoin:round; stroke-width:4; stroke-opacity:1; fill:none" points="
  369.518,1486.45 2352.76,1486.45 
  "/>
<polyline clip-path="url(#clip220)" style="stroke:#000000; stroke-linecap:butt; stroke-linejoin:round; stroke-width:4; stroke-opacity:1; fill:none" points="
  569.569,1486.45 569.569,1467.55 
  "/>
<polyline clip-path="url(#clip220)" style="stroke:#000000; stroke-linecap:butt; stroke-linejoin:round; stroke-width:4; stroke-opacity:1; fill:none" points="
  929.373,1486.45 929.373,1467.55 
  "/>
<polyline clip-path="url(#clip220)" style="stroke:#000000; stroke-linecap:butt; stroke-linejoin:round; stroke-width:4; stroke-opacity:1; fill:none" points="
  1289.18,1486.45 1289.18,1467.55 
  "/>
<polyline clip-path="url(#clip220)" style="stroke:#000000; stroke-linecap:butt; stroke-linejoin:round; stroke-width:4; stroke-opacity:1; fill:none" points="
  1648.98,1486.45 1648.98,1467.55 
  "/>
<polyline clip-path="url(#clip220)" style="stroke:#000000; stroke-linecap:butt; stroke-linejoin:round; stroke-width:4; stroke-opacity:1; fill:none" points="
  2008.78,1486.45 2008.78,1467.55 
  "/>
<path clip-path="url(#clip220)" d="M514.593 1544.91 L522.231 1544.91 L522.231 1518.55 L513.921 1520.21 L513.921 1515.95 L522.185 1514.29 L526.861 1514.29 L526.861 1544.91 L534.5 1544.91 L534.5 1548.85 L514.593 1548.85 L514.593 1544.91 Z" fill="#000000" fill-rule="evenodd" fill-opacity="1" /><path clip-path="url(#clip220)" d="M544.083 1548.13 L544.083 1543.87 Q545.842 1544.7 547.648 1545.14 Q549.453 1545.58 551.19 1545.58 Q555.819 1545.58 558.25 1542.48 Q560.703 1539.36 561.051 1533.01 Q559.708 1535.01 557.648 1536.07 Q555.588 1537.13 553.088 1537.13 Q547.903 1537.13 544.87 1534.01 Q541.861 1530.86 541.861 1525.42 Q541.861 1520.1 545.009 1516.88 Q548.157 1513.66 553.389 1513.66 Q559.384 1513.66 562.532 1518.27 Q565.703 1522.85 565.703 1531.6 Q565.703 1539.77 561.814 1544.66 Q557.949 1549.52 551.398 1549.52 Q549.639 1549.52 547.833 1549.17 Q546.028 1548.82 544.083 1548.13 M553.389 1533.48 Q556.537 1533.48 558.365 1531.32 Q560.217 1529.17 560.217 1525.42 Q560.217 1521.7 558.365 1519.54 Q556.537 1517.37 553.389 1517.37 Q550.24 1517.37 548.389 1519.54 Q546.56 1521.7 546.56 1525.42 Q546.56 1529.17 548.389 1531.32 Q550.24 1533.48 553.389 1533.48 Z" fill="#000000" fill-rule="evenodd" fill-opacity="1" /><path clip-path="url(#clip220)" d="M574.245 1548.13 L574.245 1543.87 Q576.004 1544.7 577.81 1545.14 Q579.615 1545.58 581.351 1545.58 Q585.981 1545.58 588.412 1542.48 Q590.865 1539.36 591.212 1533.01 Q589.87 1535.01 587.81 1536.07 Q585.75 1537.13 583.25 1537.13 Q578.064 1537.13 575.032 1534.01 Q572.023 1530.86 572.023 1525.42 Q572.023 1520.1 575.171 1516.88 Q578.319 1513.66 583.55 1513.66 Q589.546 1513.66 592.694 1518.27 Q595.865 1522.85 595.865 1531.6 Q595.865 1539.77 591.976 1544.66 Q588.111 1549.52 581.56 1549.52 Q579.8 1549.52 577.995 1549.17 Q576.189 1548.82 574.245 1548.13 M583.55 1533.48 Q586.699 1533.48 588.527 1531.32 Q590.379 1529.17 590.379 1525.42 Q590.379 1521.7 588.527 1519.54 Q586.699 1517.37 583.55 1517.37 Q580.402 1517.37 578.55 1519.54 Q576.722 1521.7 576.722 1525.42 Q576.722 1529.17 578.55 1531.32 Q580.402 1533.48 583.55 1533.48 Z" fill="#000000" fill-rule="evenodd" fill-opacity="1" /><path clip-path="url(#clip220)" d="M604.314 1514.29 L622.671 1514.29 L622.671 1518.22 L608.597 1518.22 L608.597 1526.7 Q609.615 1526.35 610.634 1526.19 Q611.652 1526 612.671 1526 Q618.458 1526 621.837 1529.17 Q625.217 1532.34 625.217 1537.76 Q625.217 1543.34 621.745 1546.44 Q618.273 1549.52 611.953 1549.52 Q609.777 1549.52 607.509 1549.15 Q605.263 1548.78 602.856 1548.04 L602.856 1543.34 Q604.939 1544.47 607.161 1545.03 Q609.384 1545.58 611.861 1545.58 Q615.865 1545.58 618.203 1543.48 Q620.541 1541.37 620.541 1537.76 Q620.541 1534.15 618.203 1532.04 Q615.865 1529.94 611.861 1529.94 Q609.986 1529.94 608.111 1530.35 Q606.259 1530.77 604.314 1531.65 L604.314 1514.29 Z" fill="#000000" fill-rule="evenodd" fill-opacity="1" /><path clip-path="url(#clip220)" d="M877.984 1544.91 L894.303 1544.91 L894.303 1548.85 L872.359 1548.85 L872.359 1544.91 Q875.021 1542.16 879.604 1537.53 Q884.211 1532.88 885.391 1531.53 Q887.637 1529.01 888.516 1527.27 Q889.419 1525.51 889.419 1523.82 Q889.419 1521.07 887.475 1519.33 Q885.553 1517.6 882.452 1517.6 Q880.253 1517.6 877.799 1518.36 Q875.368 1519.13 872.591 1520.68 L872.591 1515.95 Q875.415 1514.82 877.868 1514.24 Q880.322 1513.66 882.359 1513.66 Q887.729 1513.66 890.924 1516.35 Q894.118 1519.03 894.118 1523.52 Q894.118 1525.65 893.308 1527.57 Q892.521 1529.47 890.415 1532.07 Q889.836 1532.74 886.734 1535.95 Q883.632 1539.15 877.984 1544.91 Z" fill="#000000" fill-rule="evenodd" fill-opacity="1" /><path clip-path="url(#clip220)" d="M914.118 1517.37 Q910.507 1517.37 908.678 1520.93 Q906.873 1524.47 906.873 1531.6 Q906.873 1538.71 908.678 1542.27 Q910.507 1545.82 914.118 1545.82 Q917.752 1545.82 919.558 1542.27 Q921.387 1538.71 921.387 1531.6 Q921.387 1524.47 919.558 1520.93 Q917.752 1517.37 914.118 1517.37 M914.118 1513.66 Q919.928 1513.66 922.984 1518.27 Q926.063 1522.85 926.063 1531.6 Q926.063 1540.33 922.984 1544.94 Q919.928 1549.52 914.118 1549.52 Q908.308 1549.52 905.229 1544.94 Q902.174 1540.33 902.174 1531.6 Q902.174 1522.85 905.229 1518.27 Q908.308 1513.66 914.118 1513.66 Z" fill="#000000" fill-rule="evenodd" fill-opacity="1" /><path clip-path="url(#clip220)" d="M944.28 1517.37 Q940.669 1517.37 938.84 1520.93 Q937.035 1524.47 937.035 1531.6 Q937.035 1538.71 938.84 1542.27 Q940.669 1545.82 944.28 1545.82 Q947.914 1545.82 949.72 1542.27 Q951.549 1538.71 951.549 1531.6 Q951.549 1524.47 949.72 1520.93 Q947.914 1517.37 944.28 1517.37 M944.28 1513.66 Q950.09 1513.66 953.146 1518.27 Q956.224 1522.85 956.224 1531.6 Q956.224 1540.33 953.146 1544.94 Q950.09 1549.52 944.28 1549.52 Q938.47 1549.52 935.391 1544.94 Q932.336 1540.33 932.336 1531.6 Q932.336 1522.85 935.391 1518.27 Q938.47 1513.66 944.28 1513.66 Z" fill="#000000" fill-rule="evenodd" fill-opacity="1" /><path clip-path="url(#clip220)" d="M974.442 1517.37 Q970.831 1517.37 969.002 1520.93 Q967.197 1524.47 967.197 1531.6 Q967.197 1538.71 969.002 1542.27 Q970.831 1545.82 974.442 1545.82 Q978.076 1545.82 979.882 1542.27 Q981.71 1538.71 981.71 1531.6 Q981.71 1524.47 979.882 1520.93 Q978.076 1517.37 974.442 1517.37 M974.442 1513.66 Q980.252 1513.66 983.308 1518.27 Q986.386 1522.85 986.386 1531.6 Q986.386 1540.33 983.308 1544.94 Q980.252 1549.52 974.442 1549.52 Q968.632 1549.52 965.553 1544.94 Q962.498 1540.33 962.498 1531.6 Q962.498 1522.85 965.553 1518.27 Q968.632 1513.66 974.442 1513.66 Z" fill="#000000" fill-rule="evenodd" fill-opacity="1" /><path clip-path="url(#clip220)" d="M1238.29 1544.91 L1254.6 1544.91 L1254.6 1548.85 L1232.66 1548.85 L1232.66 1544.91 Q1235.32 1542.16 1239.91 1537.53 Q1244.51 1532.88 1245.69 1531.53 Q1247.94 1529.01 1248.82 1527.27 Q1249.72 1525.51 1249.72 1523.82 Q1249.72 1521.07 1247.78 1519.33 Q1245.85 1517.6 1242.75 1517.6 Q1240.55 1517.6 1238.1 1518.36 Q1235.67 1519.13 1232.89 1520.68 L1232.89 1515.95 Q1235.72 1514.82 1238.17 1514.24 Q1240.62 1513.66 1242.66 1513.66 Q1248.03 1513.66 1251.23 1516.35 Q1254.42 1519.03 1254.42 1523.52 Q1254.42 1525.65 1253.61 1527.57 Q1252.82 1529.47 1250.72 1532.07 Q1250.14 1532.74 1247.04 1535.95 Q1243.93 1539.15 1238.29 1544.91 Z" fill="#000000" fill-rule="evenodd" fill-opacity="1" /><path clip-path="url(#clip220)" d="M1274.42 1517.37 Q1270.81 1517.37 1268.98 1520.93 Q1267.17 1524.47 1267.17 1531.6 Q1267.17 1538.71 1268.98 1542.27 Q1270.81 1545.82 1274.42 1545.82 Q1278.05 1545.82 1279.86 1542.27 Q1281.69 1538.71 1281.69 1531.6 Q1281.69 1524.47 1279.86 1520.93 Q1278.05 1517.37 1274.42 1517.37 M1274.42 1513.66 Q1280.23 1513.66 1283.29 1518.27 Q1286.36 1522.85 1286.36 1531.6 Q1286.36 1540.33 1283.29 1544.94 Q1280.23 1549.52 1274.42 1549.52 Q1268.61 1549.52 1265.53 1544.94 Q1262.48 1540.33 1262.48 1531.6 Q1262.48 1522.85 1265.53 1518.27 Q1268.61 1513.66 1274.42 1513.66 Z" fill="#000000" fill-rule="evenodd" fill-opacity="1" /><path clip-path="url(#clip220)" d="M1304.58 1517.37 Q1300.97 1517.37 1299.14 1520.93 Q1297.34 1524.47 1297.34 1531.6 Q1297.34 1538.71 1299.14 1542.27 Q1300.97 1545.82 1304.58 1545.82 Q1308.22 1545.82 1310.02 1542.27 Q1311.85 1538.71 1311.85 1531.6 Q1311.85 1524.47 1310.02 1520.93 Q1308.22 1517.37 1304.58 1517.37 M1304.58 1513.66 Q1310.39 1513.66 1313.45 1518.27 Q1316.53 1522.85 1316.53 1531.6 Q1316.53 1540.33 1313.45 1544.94 Q1310.39 1549.52 1304.58 1549.52 Q1298.77 1549.52 1295.69 1544.94 Q1292.64 1540.33 1292.64 1531.6 Q1292.64 1522.85 1295.69 1518.27 Q1298.77 1513.66 1304.58 1513.66 Z" fill="#000000" fill-rule="evenodd" fill-opacity="1" /><path clip-path="url(#clip220)" d="M1324.79 1514.29 L1343.15 1514.29 L1343.15 1518.22 L1329.07 1518.22 L1329.07 1526.7 Q1330.09 1526.35 1331.11 1526.19 Q1332.13 1526 1333.15 1526 Q1338.93 1526 1342.31 1529.17 Q1345.69 1532.34 1345.69 1537.76 Q1345.69 1543.34 1342.22 1546.44 Q1338.75 1549.52 1332.43 1549.52 Q1330.25 1549.52 1327.98 1549.15 Q1325.74 1548.78 1323.33 1548.04 L1323.33 1543.34 Q1325.41 1544.47 1327.64 1545.03 Q1329.86 1545.58 1332.34 1545.58 Q1336.34 1545.58 1338.68 1543.48 Q1341.02 1541.37 1341.02 1537.76 Q1341.02 1534.15 1338.68 1532.04 Q1336.34 1529.94 1332.34 1529.94 Q1330.46 1529.94 1328.59 1530.35 Q1326.73 1530.77 1324.79 1531.65 L1324.79 1514.29 Z" fill="#000000" fill-rule="evenodd" fill-opacity="1" /><path clip-path="url(#clip220)" d="M1597.59 1544.91 L1613.91 1544.91 L1613.91 1548.85 L1591.97 1548.85 L1591.97 1544.91 Q1594.63 1542.16 1599.21 1537.53 Q1603.82 1532.88 1605 1531.53 Q1607.24 1529.01 1608.12 1527.27 Q1609.03 1525.51 1609.03 1523.82 Q1609.03 1521.07 1607.08 1519.33 Q1605.16 1517.6 1602.06 1517.6 Q1599.86 1517.6 1597.41 1518.36 Q1594.98 1519.13 1592.2 1520.68 L1592.2 1515.95 Q1595.02 1514.82 1597.48 1514.24 Q1599.93 1513.66 1601.97 1513.66 Q1607.34 1513.66 1610.53 1516.35 Q1613.73 1519.03 1613.73 1523.52 Q1613.73 1525.65 1612.92 1527.57 Q1612.13 1529.47 1610.02 1532.07 Q1609.44 1532.74 1606.34 1535.95 Q1603.24 1539.15 1597.59 1544.91 Z" fill="#000000" fill-rule="evenodd" fill-opacity="1" /><path clip-path="url(#clip220)" d="M1633.73 1517.37 Q1630.11 1517.37 1628.29 1520.93 Q1626.48 1524.47 1626.48 1531.6 Q1626.48 1538.71 1628.29 1542.27 Q1630.11 1545.82 1633.73 1545.82 Q1637.36 1545.82 1639.17 1542.27 Q1640.99 1538.71 1640.99 1531.6 Q1640.99 1524.47 1639.17 1520.93 Q1637.36 1517.37 1633.73 1517.37 M1633.73 1513.66 Q1639.54 1513.66 1642.59 1518.27 Q1645.67 1522.85 1645.67 1531.6 Q1645.67 1540.33 1642.59 1544.94 Q1639.54 1549.52 1633.73 1549.52 Q1627.92 1549.52 1624.84 1544.94 Q1621.78 1540.33 1621.78 1531.6 Q1621.78 1522.85 1624.84 1518.27 Q1627.92 1513.66 1633.73 1513.66 Z" fill="#000000" fill-rule="evenodd" fill-opacity="1" /><path clip-path="url(#clip220)" d="M1654.7 1544.91 L1662.34 1544.91 L1662.34 1518.55 L1654.03 1520.21 L1654.03 1515.95 L1662.29 1514.29 L1666.97 1514.29 L1666.97 1544.91 L1674.6 1544.91 L1674.6 1548.85 L1654.7 1548.85 L1654.7 1544.91 Z" fill="#000000" fill-rule="evenodd" fill-opacity="1" /><path clip-path="url(#clip220)" d="M1694.05 1517.37 Q1690.44 1517.37 1688.61 1520.93 Q1686.8 1524.47 1686.8 1531.6 Q1686.8 1538.71 1688.61 1542.27 Q1690.44 1545.82 1694.05 1545.82 Q1697.68 1545.82 1699.49 1542.27 Q1701.32 1538.71 1701.32 1531.6 Q1701.32 1524.47 1699.49 1520.93 Q1697.68 1517.37 1694.05 1517.37 M1694.05 1513.66 Q1699.86 1513.66 1702.91 1518.27 Q1705.99 1522.85 1705.99 1531.6 Q1705.99 1540.33 1702.91 1544.94 Q1699.86 1549.52 1694.05 1549.52 Q1688.24 1549.52 1685.16 1544.94 Q1682.1 1540.33 1682.1 1531.6 Q1682.1 1522.85 1685.16 1518.27 Q1688.24 1513.66 1694.05 1513.66 Z" fill="#000000" fill-rule="evenodd" fill-opacity="1" /><path clip-path="url(#clip220)" d="M1957.89 1544.91 L1974.21 1544.91 L1974.21 1548.85 L1952.27 1548.85 L1952.27 1544.91 Q1954.93 1542.16 1959.51 1537.53 Q1964.12 1532.88 1965.3 1531.53 Q1967.55 1529.01 1968.43 1527.27 Q1969.33 1525.51 1969.33 1523.82 Q1969.33 1521.07 1967.38 1519.33 Q1965.46 1517.6 1962.36 1517.6 Q1960.16 1517.6 1957.71 1518.36 Q1955.28 1519.13 1952.5 1520.68 L1952.5 1515.95 Q1955.32 1514.82 1957.78 1514.24 Q1960.23 1513.66 1962.27 1513.66 Q1967.64 1513.66 1970.83 1516.35 Q1974.03 1519.03 1974.03 1523.52 Q1974.03 1525.65 1973.22 1527.57 Q1972.43 1529.47 1970.32 1532.07 Q1969.74 1532.74 1966.64 1535.95 Q1963.54 1539.15 1957.89 1544.91 Z" fill="#000000" fill-rule="evenodd" fill-opacity="1" /><path clip-path="url(#clip220)" d="M1994.03 1517.37 Q1990.42 1517.37 1988.59 1520.93 Q1986.78 1524.47 1986.78 1531.6 Q1986.78 1538.71 1988.59 1542.27 Q1990.42 1545.82 1994.03 1545.82 Q1997.66 1545.82 1999.47 1542.27 Q2001.3 1538.71 2001.3 1531.6 Q2001.3 1524.47 1999.47 1520.93 Q1997.66 1517.37 1994.03 1517.37 M1994.03 1513.66 Q1999.84 1513.66 2002.89 1518.27 Q2005.97 1522.85 2005.97 1531.6 Q2005.97 1540.33 2002.89 1544.94 Q1999.84 1549.52 1994.03 1549.52 Q1988.22 1549.52 1985.14 1544.94 Q1982.08 1540.33 1982.08 1531.6 Q1982.08 1522.85 1985.14 1518.27 Q1988.22 1513.66 1994.03 1513.66 Z" fill="#000000" fill-rule="evenodd" fill-opacity="1" /><path clip-path="url(#clip220)" d="M2015 1544.91 L2022.64 1544.91 L2022.64 1518.55 L2014.33 1520.21 L2014.33 1515.95 L2022.59 1514.29 L2027.27 1514.29 L2027.27 1544.91 L2034.91 1544.91 L2034.91 1548.85 L2015 1548.85 L2015 1544.91 Z" fill="#000000" fill-rule="evenodd" fill-opacity="1" /><path clip-path="url(#clip220)" d="M2044.4 1514.29 L2062.75 1514.29 L2062.75 1518.22 L2048.68 1518.22 L2048.68 1526.7 Q2049.7 1526.35 2050.72 1526.19 Q2051.73 1526 2052.75 1526 Q2058.54 1526 2061.92 1529.17 Q2065.3 1532.34 2065.3 1537.76 Q2065.3 1543.34 2061.83 1546.44 Q2058.36 1549.52 2052.04 1549.52 Q2049.86 1549.52 2047.59 1549.15 Q2045.35 1548.78 2042.94 1548.04 L2042.94 1543.34 Q2045.02 1544.47 2047.24 1545.03 Q2049.47 1545.58 2051.94 1545.58 Q2055.95 1545.58 2058.29 1543.48 Q2060.62 1541.37 2060.62 1537.76 Q2060.62 1534.15 2058.29 1532.04 Q2055.95 1529.94 2051.94 1529.94 Q2050.07 1529.94 2048.19 1530.35 Q2046.34 1530.77 2044.4 1531.65 L2044.4 1514.29 Z" fill="#000000" fill-rule="evenodd" fill-opacity="1" /><polyline clip-path="url(#clip222)" style="stroke:#000000; stroke-linecap:butt; stroke-linejoin:round; stroke-width:2; stroke-opacity:0.1; fill:none" points="
  369.518,1447.87 2352.76,1447.87 
  "/>
<polyline clip-path="url(#clip222)" style="stroke:#000000; stroke-linecap:butt; stroke-linejoin:round; stroke-width:2; stroke-opacity:0.1; fill:none" points="
  369.518,1080.22 2352.76,1080.22 
  "/>
<polyline clip-path="url(#clip222)" style="stroke:#000000; stroke-linecap:butt; stroke-linejoin:round; stroke-width:2; stroke-opacity:0.1; fill:none" points="
  369.518,712.564 2352.76,712.564 
  "/>
<polyline clip-path="url(#clip222)" style="stroke:#000000; stroke-linecap:butt; stroke-linejoin:round; stroke-width:2; stroke-opacity:0.1; fill:none" points="
  369.518,344.909 2352.76,344.909 
  "/>
<polyline clip-path="url(#clip220)" style="stroke:#000000; stroke-linecap:butt; stroke-linejoin:round; stroke-width:4; stroke-opacity:1; fill:none" points="
  369.518,1486.45 369.518,123.472 
  "/>
<polyline clip-path="url(#clip220)" style="stroke:#000000; stroke-linecap:butt; stroke-linejoin:round; stroke-width:4; stroke-opacity:1; fill:none" points="
  369.518,1447.87 388.416,1447.87 
  "/>
<polyline clip-path="url(#clip220)" style="stroke:#000000; stroke-linecap:butt; stroke-linejoin:round; stroke-width:4; stroke-opacity:1; fill:none" points="
  369.518,1080.22 388.416,1080.22 
  "/>
<polyline clip-path="url(#clip220)" style="stroke:#000000; stroke-linecap:butt; stroke-linejoin:round; stroke-width:4; stroke-opacity:1; fill:none" points="
  369.518,712.564 388.416,712.564 
  "/>
<polyline clip-path="url(#clip220)" style="stroke:#000000; stroke-linecap:butt; stroke-linejoin:round; stroke-width:4; stroke-opacity:1; fill:none" points="
  369.518,344.909 388.416,344.909 
  "/>
<path clip-path="url(#clip220)" d="M321.574 1433.67 Q317.963 1433.67 316.134 1437.24 Q314.329 1440.78 314.329 1447.91 Q314.329 1455.01 316.134 1458.58 Q317.963 1462.12 321.574 1462.12 Q325.208 1462.12 327.014 1458.58 Q328.842 1455.01 328.842 1447.91 Q328.842 1440.78 327.014 1437.24 Q325.208 1433.67 321.574 1433.67 M321.574 1429.97 Q327.384 1429.97 330.44 1434.57 Q333.518 1439.16 333.518 1447.91 Q333.518 1456.63 330.44 1461.24 Q327.384 1465.82 321.574 1465.82 Q315.764 1465.82 312.685 1461.24 Q309.629 1456.63 309.629 1447.91 Q309.629 1439.16 312.685 1434.57 Q315.764 1429.97 321.574 1429.97 Z" fill="#000000" fill-rule="evenodd" fill-opacity="1" /><path clip-path="url(#clip220)" d="M115.718 1069.39 L134.075 1069.39 L134.075 1073.32 L120.001 1073.32 L120.001 1081.79 Q121.019 1081.45 122.038 1081.28 Q123.056 1081.1 124.075 1081.1 Q129.862 1081.1 133.242 1084.27 Q136.621 1087.44 136.621 1092.86 Q136.621 1098.44 133.149 1101.54 Q129.677 1104.62 123.357 1104.62 Q121.181 1104.62 118.913 1104.25 Q116.668 1103.88 114.26 1103.14 L114.26 1098.44 Q116.343 1099.57 118.566 1100.13 Q120.788 1100.68 123.265 1100.68 Q127.269 1100.68 129.607 1098.58 Q131.945 1096.47 131.945 1092.86 Q131.945 1089.25 129.607 1087.14 Q127.269 1085.03 123.265 1085.03 Q121.39 1085.03 119.515 1085.45 Q117.663 1085.87 115.718 1086.75 L115.718 1069.39 Z" fill="#000000" fill-rule="evenodd" fill-opacity="1" /><path clip-path="url(#clip220)" d="M145.834 1098.07 L150.718 1098.07 L150.718 1103.95 L145.834 1103.95 L145.834 1098.07 Z" fill="#000000" fill-rule="evenodd" fill-opacity="1" /><path clip-path="url(#clip220)" d="M170.903 1072.46 Q167.292 1072.46 165.464 1076.03 Q163.658 1079.57 163.658 1086.7 Q163.658 1093.81 165.464 1097.37 Q167.292 1100.91 170.903 1100.91 Q174.538 1100.91 176.343 1097.37 Q178.172 1093.81 178.172 1086.7 Q178.172 1079.57 176.343 1076.03 Q174.538 1072.46 170.903 1072.46 M170.903 1068.76 Q176.714 1068.76 179.769 1073.37 Q182.848 1077.95 182.848 1086.7 Q182.848 1095.43 179.769 1100.03 Q176.714 1104.62 170.903 1104.62 Q165.093 1104.62 162.015 1100.03 Q158.959 1095.43 158.959 1086.7 Q158.959 1077.95 162.015 1073.37 Q165.093 1068.76 170.903 1068.76 Z" fill="#000000" fill-rule="evenodd" fill-opacity="1" /><path clip-path="url(#clip220)" d="M201.065 1072.46 Q197.454 1072.46 195.625 1076.03 Q193.82 1079.57 193.82 1086.7 Q193.82 1093.81 195.625 1097.37 Q197.454 1100.91 201.065 1100.91 Q204.699 1100.91 206.505 1097.37 Q208.334 1093.81 208.334 1086.7 Q208.334 1079.57 206.505 1076.03 Q204.699 1072.46 201.065 1072.46 M201.065 1068.76 Q206.875 1068.76 209.931 1073.37 Q213.01 1077.95 213.01 1086.7 Q213.01 1095.43 209.931 1100.03 Q206.875 1104.62 201.065 1104.62 Q195.255 1104.62 192.176 1100.03 Q189.121 1095.43 189.121 1086.7 Q189.121 1077.95 192.176 1073.37 Q195.255 1068.76 201.065 1068.76 Z" fill="#000000" fill-rule="evenodd" fill-opacity="1" /><path clip-path="url(#clip220)" d="M249.398 1078.48 L238.82 1089.11 L249.398 1099.69 L246.644 1102.49 L236.019 1091.86 L225.394 1102.49 L222.662 1099.69 L233.218 1089.11 L222.662 1078.48 L225.394 1075.68 L236.019 1086.31 L246.644 1075.68 L249.398 1078.48 Z" fill="#000000" fill-rule="evenodd" fill-opacity="1" /><path clip-path="url(#clip220)" d="M261.759 1100.01 L269.398 1100.01 L269.398 1073.65 L261.088 1075.31 L261.088 1071.05 L269.352 1069.39 L274.028 1069.39 L274.028 1100.01 L281.667 1100.01 L281.667 1103.95 L261.759 1103.95 L261.759 1100.01 Z" fill="#000000" fill-rule="evenodd" fill-opacity="1" /><path clip-path="url(#clip220)" d="M301.111 1072.46 Q297.5 1072.46 295.671 1076.03 Q293.866 1079.57 293.866 1086.7 Q293.866 1093.81 295.671 1097.37 Q297.5 1100.91 301.111 1100.91 Q304.745 1100.91 306.551 1097.37 Q308.379 1093.81 308.379 1086.7 Q308.379 1079.57 306.551 1076.03 Q304.745 1072.46 301.111 1072.46 M301.111 1068.76 Q306.921 1068.76 309.977 1073.37 Q313.055 1077.95 313.055 1086.7 Q313.055 1095.43 309.977 1100.03 Q306.921 1104.62 301.111 1104.62 Q295.301 1104.62 292.222 1100.03 Q289.167 1095.43 289.167 1086.7 Q289.167 1077.95 292.222 1073.37 Q295.301 1068.76 301.111 1068.76 Z" fill="#000000" fill-rule="evenodd" fill-opacity="1" /><path clip-path="url(#clip220)" d="M325.732 1051.77 L316.14 1066.76 L325.732 1066.76 L325.732 1051.77 M324.735 1048.46 L329.512 1048.46 L329.512 1066.76 L333.518 1066.76 L333.518 1069.92 L329.512 1069.92 L329.512 1076.54 L325.732 1076.54 L325.732 1069.92 L313.055 1069.92 L313.055 1066.25 L324.735 1048.46 Z" fill="#000000" fill-rule="evenodd" fill-opacity="1" /><path clip-path="url(#clip220)" d="M118.777 732.356 L126.416 732.356 L126.416 705.991 L118.106 707.657 L118.106 703.398 L126.369 701.731 L131.045 701.731 L131.045 732.356 L138.684 732.356 L138.684 736.291 L118.777 736.291 L118.777 732.356 Z" fill="#000000" fill-rule="evenodd" fill-opacity="1" /><path clip-path="url(#clip220)" d="M148.129 730.412 L153.013 730.412 L153.013 736.291 L148.129 736.291 L148.129 730.412 Z" fill="#000000" fill-rule="evenodd" fill-opacity="1" /><path clip-path="url(#clip220)" d="M173.198 704.81 Q169.587 704.81 167.758 708.375 Q165.953 711.917 165.953 719.046 Q165.953 726.153 167.758 729.717 Q169.587 733.259 173.198 733.259 Q176.832 733.259 178.638 729.717 Q180.466 726.153 180.466 719.046 Q180.466 711.917 178.638 708.375 Q176.832 704.81 173.198 704.81 M173.198 701.106 Q179.008 701.106 182.064 705.713 Q185.142 710.296 185.142 719.046 Q185.142 727.773 182.064 732.379 Q179.008 736.963 173.198 736.963 Q167.388 736.963 164.309 732.379 Q161.254 727.773 161.254 719.046 Q161.254 710.296 164.309 705.713 Q167.388 701.106 173.198 701.106 Z" fill="#000000" fill-rule="evenodd" fill-opacity="1" /><path clip-path="url(#clip220)" d="M203.36 704.81 Q199.749 704.81 197.92 708.375 Q196.114 711.917 196.114 719.046 Q196.114 726.153 197.92 729.717 Q199.749 733.259 203.36 733.259 Q206.994 733.259 208.8 729.717 Q210.628 726.153 210.628 719.046 Q210.628 711.917 208.8 708.375 Q206.994 704.81 203.36 704.81 M203.36 701.106 Q209.17 701.106 212.225 705.713 Q215.304 710.296 215.304 719.046 Q215.304 727.773 212.225 732.379 Q209.17 736.963 203.36 736.963 Q197.55 736.963 194.471 732.379 Q191.415 727.773 191.415 719.046 Q191.415 710.296 194.471 705.713 Q197.55 701.106 203.36 701.106 Z" fill="#000000" fill-rule="evenodd" fill-opacity="1" /><path clip-path="url(#clip220)" d="M251.693 710.829 L241.114 721.454 L251.693 732.032 L248.938 734.833 L238.313 724.208 L227.688 734.833 L224.957 732.032 L235.512 721.454 L224.957 710.829 L227.688 708.028 L238.313 718.653 L248.938 708.028 L251.693 710.829 Z" fill="#000000" fill-rule="evenodd" fill-opacity="1" /><path clip-path="url(#clip220)" d="M264.054 732.356 L271.693 732.356 L271.693 705.991 L263.383 707.657 L263.383 703.398 L271.646 701.731 L276.322 701.731 L276.322 732.356 L283.961 732.356 L283.961 736.291 L264.054 736.291 L264.054 732.356 Z" fill="#000000" fill-rule="evenodd" fill-opacity="1" /><path clip-path="url(#clip220)" d="M303.406 704.81 Q299.794 704.81 297.966 708.375 Q296.16 711.917 296.16 719.046 Q296.16 726.153 297.966 729.717 Q299.794 733.259 303.406 733.259 Q307.04 733.259 308.845 729.717 Q310.674 726.153 310.674 719.046 Q310.674 711.917 308.845 708.375 Q307.04 704.81 303.406 704.81 M303.406 701.106 Q309.216 701.106 312.271 705.713 Q315.35 710.296 315.35 719.046 Q315.35 727.773 312.271 732.379 Q309.216 736.963 303.406 736.963 Q297.595 736.963 294.517 732.379 Q291.461 727.773 291.461 719.046 Q291.461 710.296 294.517 705.713 Q297.595 701.106 303.406 701.106 Z" fill="#000000" fill-rule="evenodd" fill-opacity="1" /><path clip-path="url(#clip220)" d="M316.535 680.801 L331.449 680.801 L331.449 683.998 L320.014 683.998 L320.014 690.882 Q320.842 690.6 321.669 690.468 Q322.497 690.318 323.324 690.318 Q328.026 690.318 330.772 692.894 Q333.518 695.471 333.518 699.872 Q333.518 704.405 330.697 706.925 Q327.876 709.426 322.741 709.426 Q320.973 709.426 319.13 709.125 Q317.306 708.825 315.35 708.223 L315.35 704.405 Q317.043 705.326 318.848 705.778 Q320.654 706.229 322.666 706.229 Q325.92 706.229 327.819 704.518 Q329.719 702.806 329.719 699.872 Q329.719 696.938 327.819 695.227 Q325.92 693.515 322.666 693.515 Q321.143 693.515 319.619 693.854 Q318.115 694.192 316.535 694.907 L316.535 680.801 Z" fill="#000000" fill-rule="evenodd" fill-opacity="1" /><path clip-path="url(#clip220)" d="M118.777 364.702 L126.416 364.702 L126.416 338.336 L118.106 340.003 L118.106 335.743 L126.369 334.077 L131.045 334.077 L131.045 364.702 L138.684 364.702 L138.684 368.637 L118.777 368.637 L118.777 364.702 Z" fill="#000000" fill-rule="evenodd" fill-opacity="1" /><path clip-path="url(#clip220)" d="M148.129 362.757 L153.013 362.757 L153.013 368.637 L148.129 368.637 L148.129 362.757 Z" fill="#000000" fill-rule="evenodd" fill-opacity="1" /><path clip-path="url(#clip220)" d="M163.244 334.077 L181.601 334.077 L181.601 338.012 L167.527 338.012 L167.527 346.484 Q168.545 346.137 169.564 345.975 Q170.582 345.79 171.601 345.79 Q177.388 345.79 180.767 348.961 Q184.147 352.132 184.147 357.549 Q184.147 363.128 180.675 366.229 Q177.203 369.308 170.883 369.308 Q168.707 369.308 166.439 368.938 Q164.193 368.567 161.786 367.827 L161.786 363.128 Q163.869 364.262 166.091 364.817 Q168.314 365.373 170.791 365.373 Q174.795 365.373 177.133 363.266 Q179.471 361.16 179.471 357.549 Q179.471 353.938 177.133 351.831 Q174.795 349.725 170.791 349.725 Q168.916 349.725 167.041 350.141 Q165.189 350.558 163.244 351.438 L163.244 334.077 Z" fill="#000000" fill-rule="evenodd" fill-opacity="1" /><path clip-path="url(#clip220)" d="M203.36 337.155 Q199.749 337.155 197.92 340.72 Q196.114 344.262 196.114 351.391 Q196.114 358.498 197.92 362.063 Q199.749 365.604 203.36 365.604 Q206.994 365.604 208.8 362.063 Q210.628 358.498 210.628 351.391 Q210.628 344.262 208.8 340.72 Q206.994 337.155 203.36 337.155 M203.36 333.452 Q209.17 333.452 212.225 338.058 Q215.304 342.642 215.304 351.391 Q215.304 360.118 212.225 364.725 Q209.17 369.308 203.36 369.308 Q197.55 369.308 194.471 364.725 Q191.415 360.118 191.415 351.391 Q191.415 342.642 194.471 338.058 Q197.55 333.452 203.36 333.452 Z" fill="#000000" fill-rule="evenodd" fill-opacity="1" /><path clip-path="url(#clip220)" d="M251.693 343.174 L241.114 353.799 L251.693 364.378 L248.938 367.178 L238.313 356.553 L227.688 367.178 L224.957 364.378 L235.512 353.799 L224.957 343.174 L227.688 340.373 L238.313 350.998 L248.938 340.373 L251.693 343.174 Z" fill="#000000" fill-rule="evenodd" fill-opacity="1" /><path clip-path="url(#clip220)" d="M264.054 364.702 L271.693 364.702 L271.693 338.336 L263.383 340.003 L263.383 335.743 L271.646 334.077 L276.322 334.077 L276.322 364.702 L283.961 364.702 L283.961 368.637 L264.054 368.637 L264.054 364.702 Z" fill="#000000" fill-rule="evenodd" fill-opacity="1" /><path clip-path="url(#clip220)" d="M303.406 337.155 Q299.794 337.155 297.966 340.72 Q296.16 344.262 296.16 351.391 Q296.16 358.498 297.966 362.063 Q299.794 365.604 303.406 365.604 Q307.04 365.604 308.845 362.063 Q310.674 358.498 310.674 351.391 Q310.674 344.262 308.845 340.72 Q307.04 337.155 303.406 337.155 M303.406 333.452 Q309.216 333.452 312.271 338.058 Q315.35 342.642 315.35 351.391 Q315.35 360.118 312.271 364.725 Q309.216 369.308 303.406 369.308 Q297.595 369.308 294.517 364.725 Q291.461 360.118 291.461 351.391 Q291.461 342.642 294.517 338.058 Q297.595 333.452 303.406 333.452 Z" fill="#000000" fill-rule="evenodd" fill-opacity="1" /><path clip-path="url(#clip220)" d="M316.535 313.146 L331.449 313.146 L331.449 316.344 L320.014 316.344 L320.014 323.227 Q320.842 322.945 321.669 322.814 Q322.497 322.663 323.324 322.663 Q328.026 322.663 330.772 325.24 Q333.518 327.816 333.518 332.217 Q333.518 336.75 330.697 339.27 Q327.876 341.772 322.741 341.772 Q320.973 341.772 319.13 341.471 Q317.306 341.17 315.35 340.568 L315.35 336.75 Q317.043 337.672 318.848 338.123 Q320.654 338.574 322.666 338.574 Q325.92 338.574 327.819 336.863 Q329.719 335.151 329.719 332.217 Q329.719 329.283 327.819 327.572 Q325.92 325.86 322.666 325.86 Q321.143 325.86 319.619 326.199 Q318.115 326.537 316.535 327.252 L316.535 313.146 Z" fill="#000000" fill-rule="evenodd" fill-opacity="1" /><path clip-path="url(#clip220)" d="M20.1444 905.268 L26.9239 905.268 Q23.9002 908.514 22.4043 912.206 Q20.9083 915.867 20.9083 920.004 Q20.9083 928.152 25.9054 932.481 Q30.8707 936.81 40.2919 936.81 Q49.6813 936.81 54.6784 932.481 Q59.6436 928.152 59.6436 920.004 Q59.6436 915.867 58.1477 912.206 Q56.6518 908.514 53.6281 905.268 L60.3439 905.268 Q62.6355 908.641 63.7814 912.429 Q64.9272 916.185 64.9272 920.386 Q64.9272 931.176 58.3387 937.383 Q51.7183 943.589 40.2919 943.589 Q28.8336 943.589 22.2451 937.383 Q15.6248 931.176 15.6248 920.386 Q15.6248 916.121 16.7706 912.365 Q17.8846 908.578 20.1444 905.268 Z" fill="#000000" fill-rule="evenodd" fill-opacity="1" /><path clip-path="url(#clip220)" d="M32.4621 881.778 Q32.4621 886.489 36.1542 889.226 Q39.8145 891.963 46.212 891.963 Q52.6095 891.963 56.3017 889.258 Q59.9619 886.521 59.9619 881.778 Q59.9619 877.099 56.2698 874.362 Q52.5777 871.625 46.212 871.625 Q39.8781 871.625 36.186 874.362 Q32.4621 877.099 32.4621 881.778 M27.4968 881.778 Q27.4968 874.139 32.4621 869.779 Q37.4273 865.418 46.212 865.418 Q54.9649 865.418 59.9619 869.779 Q64.9272 874.139 64.9272 881.778 Q64.9272 889.449 59.9619 893.809 Q54.9649 898.138 46.212 898.138 Q37.4273 898.138 32.4621 893.809 Q27.4968 889.449 27.4968 881.778 Z" fill="#000000" fill-rule="evenodd" fill-opacity="1" /><path clip-path="url(#clip220)" d="M49.9359 856.315 L28.3562 856.315 L28.3562 850.459 L49.7131 850.459 Q54.7739 850.459 57.3202 848.486 Q59.8346 846.512 59.8346 842.565 Q59.8346 837.823 56.8109 835.086 Q53.7872 832.317 48.5673 832.317 L28.3562 832.317 L28.3562 826.46 L64.0042 826.46 L64.0042 832.317 L58.5296 832.317 Q61.7762 834.449 63.3676 837.282 Q64.9272 840.083 64.9272 843.807 Q64.9272 849.95 61.1078 853.132 Q57.2883 856.315 49.9359 856.315 M27.4968 841.579 L27.4968 841.579 Z" fill="#000000" fill-rule="evenodd" fill-opacity="1" /><path clip-path="url(#clip220)" d="M42.4881 784.765 L64.0042 784.765 L64.0042 790.621 L42.679 790.621 Q37.6183 790.621 35.1038 792.595 Q32.5894 794.568 32.5894 798.515 Q32.5894 803.257 35.6131 805.994 Q38.6368 808.732 43.8567 808.732 L64.0042 808.732 L64.0042 814.62 L28.3562 814.62 L28.3562 808.732 L33.8944 808.732 Q30.6797 806.631 29.0883 803.798 Q27.4968 800.934 27.4968 797.21 Q27.4968 791.067 31.3163 787.916 Q35.1038 784.765 42.4881 784.765 Z" fill="#000000" fill-rule="evenodd" fill-opacity="1" /><path clip-path="url(#clip220)" d="M18.2347 767.291 L28.3562 767.291 L28.3562 755.228 L32.9077 755.228 L32.9077 767.291 L52.2594 767.291 Q56.6199 767.291 57.8613 766.113 Q59.1026 764.904 59.1026 761.244 L59.1026 755.228 L64.0042 755.228 L64.0042 761.244 Q64.0042 768.023 61.4897 770.601 Q58.9434 773.179 52.2594 773.179 L32.9077 773.179 L32.9077 777.476 L28.3562 777.476 L28.3562 773.179 L18.2347 773.179 L18.2347 767.291 Z" fill="#000000" fill-rule="evenodd" fill-opacity="1" /><path clip-path="url(#clip220)" d="M16.4842 737.117 L16.4842 731.707 L70.0516 748.257 L70.0516 753.668 L16.4842 737.117 Z" fill="#000000" fill-rule="evenodd" fill-opacity="1" /><path clip-path="url(#clip220)" d="M67.3143 710.732 Q73.68 713.214 75.6216 715.57 Q77.5631 717.925 77.5631 721.872 L77.5631 726.55 L72.6615 726.55 L72.6615 723.113 Q72.6615 720.694 71.5157 719.357 Q70.3699 718.02 66.1048 716.397 L63.4312 715.347 L28.3562 729.765 L28.3562 723.559 L56.238 712.419 L28.3562 701.279 L28.3562 695.072 L67.3143 710.732 Z" fill="#000000" fill-rule="evenodd" fill-opacity="1" /><path clip-path="url(#clip220)" d="M33.8307 666.331 Q33.2578 667.318 33.0032 668.495 Q32.7167 669.641 32.7167 671.041 Q32.7167 676.007 35.9632 678.68 Q39.1779 681.322 45.2253 681.322 L64.0042 681.322 L64.0042 687.21 L28.3562 687.21 L28.3562 681.322 L33.8944 681.322 Q30.6479 679.476 29.0883 676.516 Q27.4968 673.556 27.4968 669.323 Q27.4968 668.718 27.5923 667.986 Q27.656 667.254 27.8151 666.363 L33.8307 666.331 Z" fill="#000000" fill-rule="evenodd" fill-opacity="1" /><path clip-path="url(#clip220)" d="M924.672 20.1573 L913.573 50.2555 L935.812 50.2555 L924.672 20.1573 M920.054 12.096 L929.331 12.096 L952.381 72.576 L943.874 72.576 L938.364 57.061 L911.102 57.061 L905.593 72.576 L896.964 72.576 L920.054 12.096 Z" fill="#000000" fill-rule="evenodd" fill-opacity="1" /><path clip-path="url(#clip220)" d="M960.118 54.671 L960.118 27.2059 L967.571 27.2059 L967.571 54.3874 Q967.571 60.8284 970.083 64.0691 Q972.595 67.2693 977.618 67.2693 Q983.654 67.2693 987.137 63.421 Q990.662 59.5726 990.662 52.9291 L990.662 27.2059 L998.115 27.2059 L998.115 72.576 L990.662 72.576 L990.662 65.6084 Q987.948 69.7404 984.342 71.7658 Q980.777 73.7508 976.038 73.7508 Q968.22 73.7508 964.169 68.8897 Q960.118 64.0286 960.118 54.671 M978.873 26.1121 L978.873 26.1121 Z" fill="#000000" fill-rule="evenodd" fill-opacity="1" /><path clip-path="url(#clip220)" d="M1042.39 28.5427 L1042.39 35.5912 Q1039.23 33.9709 1035.83 33.1607 Q1032.43 32.3505 1028.78 32.3505 Q1023.23 32.3505 1020.44 34.0519 Q1017.68 35.7533 1017.68 39.156 Q1017.68 41.7486 1019.67 43.2475 Q1021.65 44.7058 1027.65 46.0426 L1030.2 46.6097 Q1038.14 48.3111 1041.46 51.4303 Q1044.82 54.509 1044.82 60.0587 Q1044.82 66.3781 1039.8 70.0644 Q1034.82 73.7508 1026.07 73.7508 Q1022.42 73.7508 1018.45 73.0216 Q1014.52 72.3329 1010.15 70.9151 L1010.15 63.2184 Q1014.28 65.3654 1018.29 66.4591 Q1022.3 67.5124 1026.23 67.5124 Q1031.49 67.5124 1034.33 65.73 Q1037.17 63.9071 1037.17 60.6258 Q1037.17 57.5877 1035.1 55.9673 Q1033.07 54.3469 1026.15 52.8481 L1023.55 52.2405 Q1016.63 50.7821 1013.55 47.7845 Q1010.47 44.7463 1010.47 39.4801 Q1010.47 33.0797 1015.01 29.5959 Q1019.54 26.1121 1027.89 26.1121 Q1032.02 26.1121 1035.67 26.7198 Q1039.31 27.3274 1042.39 28.5427 Z" fill="#000000" fill-rule="evenodd" fill-opacity="1" /><path clip-path="url(#clip220)" d="M1064.06 14.324 L1064.06 27.2059 L1079.42 27.2059 L1079.42 32.9987 L1064.06 32.9987 L1064.06 57.6282 Q1064.06 63.1779 1065.56 64.7578 Q1067.1 66.3376 1071.76 66.3376 L1079.42 66.3376 L1079.42 72.576 L1071.76 72.576 Q1063.13 72.576 1059.85 69.3758 Q1056.57 66.1351 1056.57 57.6282 L1056.57 32.9987 L1051.1 32.9987 L1051.1 27.2059 L1056.57 27.2059 L1056.57 14.324 L1064.06 14.324 Z" fill="#000000" fill-rule="evenodd" fill-opacity="1" /><path clip-path="url(#clip220)" d="M1115.51 34.1734 Q1114.25 33.4443 1112.76 33.1202 Q1111.3 32.7556 1109.52 32.7556 Q1103.2 32.7556 1099.79 36.8875 Q1096.43 40.9789 1096.43 48.6757 L1096.43 72.576 L1088.94 72.576 L1088.94 27.2059 L1096.43 27.2059 L1096.43 34.2544 Q1098.78 30.1225 1102.55 28.1376 Q1106.31 26.1121 1111.7 26.1121 Q1112.47 26.1121 1113.4 26.2337 Q1114.34 26.3147 1115.47 26.5172 L1115.51 34.1734 Z" fill="#000000" fill-rule="evenodd" fill-opacity="1" /><path clip-path="url(#clip220)" d="M1143.95 49.7694 Q1134.91 49.7694 1131.43 51.8354 Q1127.95 53.9013 1127.95 58.8839 Q1127.95 62.8538 1130.54 65.2034 Q1133.17 67.5124 1137.67 67.5124 Q1143.87 67.5124 1147.59 63.1374 Q1151.36 58.7219 1151.36 51.4303 L1151.36 49.7694 L1143.95 49.7694 M1158.81 46.6907 L1158.81 72.576 L1151.36 72.576 L1151.36 65.6895 Q1148.81 69.8214 1145 71.8063 Q1141.19 73.7508 1135.68 73.7508 Q1128.72 73.7508 1124.58 69.8619 Q1120.49 65.9325 1120.49 59.3701 Q1120.49 51.7138 1125.6 47.825 Q1130.74 43.9361 1140.91 43.9361 L1151.36 43.9361 L1151.36 43.2069 Q1151.36 38.0623 1147.96 35.2672 Q1144.6 32.4315 1138.48 32.4315 Q1134.59 32.4315 1130.9 33.3632 Q1127.22 34.295 1123.81 36.1584 L1123.81 29.2718 Q1127.91 27.692 1131.75 26.9223 Q1135.6 26.1121 1139.25 26.1121 Q1149.09 26.1121 1153.95 31.2163 Q1158.81 36.3204 1158.81 46.6907 Z" fill="#000000" fill-rule="evenodd" fill-opacity="1" /><path clip-path="url(#clip220)" d="M1174.17 9.54393 L1181.62 9.54393 L1181.62 72.576 L1174.17 72.576 L1174.17 9.54393 Z" fill="#000000" fill-rule="evenodd" fill-opacity="1" /><path clip-path="url(#clip220)" d="M1197.22 27.2059 L1204.67 27.2059 L1204.67 72.576 L1197.22 72.576 L1197.22 27.2059 M1197.22 9.54393 L1204.67 9.54393 L1204.67 18.9825 L1197.22 18.9825 L1197.22 9.54393 Z" fill="#000000" fill-rule="evenodd" fill-opacity="1" /><path clip-path="url(#clip220)" d="M1240.89 49.7694 Q1231.85 49.7694 1228.37 51.8354 Q1224.88 53.9013 1224.88 58.8839 Q1224.88 62.8538 1227.48 65.2034 Q1230.11 67.5124 1234.61 67.5124 Q1240.8 67.5124 1244.53 63.1374 Q1248.3 58.7219 1248.3 51.4303 L1248.3 49.7694 L1240.89 49.7694 M1255.75 46.6907 L1255.75 72.576 L1248.3 72.576 L1248.3 65.6895 Q1245.75 69.8214 1241.94 71.8063 Q1238.13 73.7508 1232.62 73.7508 Q1225.65 73.7508 1221.52 69.8619 Q1217.43 65.9325 1217.43 59.3701 Q1217.43 51.7138 1222.54 47.825 Q1227.68 43.9361 1237.85 43.9361 L1248.3 43.9361 L1248.3 43.2069 Q1248.3 38.0623 1244.9 35.2672 Q1241.53 32.4315 1235.42 32.4315 Q1231.53 32.4315 1227.84 33.3632 Q1224.16 34.295 1220.75 36.1584 L1220.75 29.2718 Q1224.84 27.692 1228.69 26.9223 Q1232.54 26.1121 1236.19 26.1121 Q1246.03 26.1121 1250.89 31.2163 Q1255.75 36.3204 1255.75 46.6907 Z" fill="#000000" fill-rule="evenodd" fill-opacity="1" /><path clip-path="url(#clip220)" d="M1313.4 72.576 L1290.31 12.096 L1298.85 12.096 L1318.02 63.0159 L1337.22 12.096 L1345.72 12.096 L1322.67 72.576 L1313.4 72.576 Z" fill="#000000" fill-rule="evenodd" fill-opacity="1" /><path clip-path="url(#clip220)" d="M1386.6 48.0275 L1386.6 51.6733 L1352.33 51.6733 Q1352.81 59.3701 1356.94 63.421 Q1361.12 67.4314 1368.53 67.4314 Q1372.82 67.4314 1376.83 66.3781 Q1380.89 65.3249 1384.86 63.2184 L1384.86 70.267 Q1380.84 71.9684 1376.63 72.8596 Q1372.42 73.7508 1368.08 73.7508 Q1357.23 73.7508 1350.87 67.4314 Q1344.55 61.1119 1344.55 50.3365 Q1344.55 39.1965 1350.54 32.6746 Q1356.58 26.1121 1366.79 26.1121 Q1375.94 26.1121 1381.25 32.0264 Q1386.6 37.9003 1386.6 48.0275 M1379.14 45.84 Q1379.06 39.7232 1375.7 36.0774 Q1372.38 32.4315 1366.87 32.4315 Q1360.63 32.4315 1356.86 35.9558 Q1353.14 39.4801 1352.57 45.8805 L1379.14 45.84 Z" fill="#000000" fill-rule="evenodd" fill-opacity="1" /><path clip-path="url(#clip220)" d="M1436.54 45.1919 L1436.54 72.576 L1429.09 72.576 L1429.09 45.4349 Q1429.09 38.994 1426.58 35.7938 Q1424.07 32.5936 1419.04 32.5936 Q1413.01 32.5936 1409.53 36.4419 Q1406.04 40.2903 1406.04 46.9338 L1406.04 72.576 L1398.55 72.576 L1398.55 9.54393 L1406.04 9.54393 L1406.04 34.2544 Q1408.71 30.163 1412.32 28.1376 Q1415.97 26.1121 1420.71 26.1121 Q1428.52 26.1121 1432.53 30.9732 Q1436.54 35.7938 1436.54 45.1919 Z" fill="#000000" fill-rule="evenodd" fill-opacity="1" /><path clip-path="url(#clip220)" d="M1451.41 27.2059 L1458.87 27.2059 L1458.87 72.576 L1451.41 72.576 L1451.41 27.2059 M1451.41 9.54393 L1458.87 9.54393 L1458.87 18.9825 L1451.41 18.9825 L1451.41 9.54393 Z" fill="#000000" fill-rule="evenodd" fill-opacity="1" /><path clip-path="url(#clip220)" d="M1507.11 28.9478 L1507.11 35.9153 Q1503.95 34.1734 1500.75 33.3227 Q1497.59 32.4315 1494.35 32.4315 Q1487.1 32.4315 1483.09 37.0496 Q1479.08 41.6271 1479.08 49.9314 Q1479.08 58.2358 1483.09 62.8538 Q1487.1 67.4314 1494.35 67.4314 Q1497.59 67.4314 1500.75 66.5807 Q1503.95 65.6895 1507.11 63.9476 L1507.11 70.8341 Q1503.99 72.2924 1500.63 73.0216 Q1497.31 73.7508 1493.54 73.7508 Q1483.29 73.7508 1477.26 67.3098 Q1471.22 60.8689 1471.22 49.9314 Q1471.22 38.832 1477.3 32.472 Q1483.41 26.1121 1494.03 26.1121 Q1497.47 26.1121 1500.75 26.8413 Q1504.03 27.5299 1507.11 28.9478 Z" fill="#000000" fill-rule="evenodd" fill-opacity="1" /><path clip-path="url(#clip220)" d="M1520.07 9.54393 L1527.53 9.54393 L1527.53 72.576 L1520.07 72.576 L1520.07 9.54393 Z" fill="#000000" fill-rule="evenodd" fill-opacity="1" /><path clip-path="url(#clip220)" d="M1581.93 48.0275 L1581.93 51.6733 L1547.66 51.6733 Q1548.15 59.3701 1552.28 63.421 Q1556.45 67.4314 1563.86 67.4314 Q1568.16 67.4314 1572.17 66.3781 Q1576.22 65.3249 1580.19 63.2184 L1580.19 70.267 Q1576.18 71.9684 1571.97 72.8596 Q1567.75 73.7508 1563.42 73.7508 Q1552.56 73.7508 1546.2 67.4314 Q1539.88 61.1119 1539.88 50.3365 Q1539.88 39.1965 1545.88 32.6746 Q1551.91 26.1121 1562.12 26.1121 Q1571.28 26.1121 1576.58 32.0264 Q1581.93 37.9003 1581.93 48.0275 M1574.48 45.84 Q1574.4 39.7232 1571.03 36.0774 Q1567.71 32.4315 1562.2 32.4315 Q1555.97 32.4315 1552.2 35.9558 Q1548.47 39.4801 1547.9 45.8805 L1574.48 45.84 Z" fill="#000000" fill-rule="evenodd" fill-opacity="1" /><path clip-path="url(#clip220)" d="M1612.48 12.096 L1663.64 12.096 L1663.64 18.9825 L1642.17 18.9825 L1642.17 72.576 L1633.95 72.576 L1633.95 18.9825 L1612.48 18.9825 L1612.48 12.096 Z" fill="#000000" fill-rule="evenodd" fill-opacity="1" /><path clip-path="url(#clip220)" d="M1708.93 45.1919 L1708.93 72.576 L1701.47 72.576 L1701.47 45.4349 Q1701.47 38.994 1698.96 35.7938 Q1696.45 32.5936 1691.43 32.5936 Q1685.39 32.5936 1681.91 36.4419 Q1678.42 40.2903 1678.42 46.9338 L1678.42 72.576 L1670.93 72.576 L1670.93 9.54393 L1678.42 9.54393 L1678.42 34.2544 Q1681.1 30.163 1684.7 28.1376 Q1688.35 26.1121 1693.09 26.1121 Q1700.91 26.1121 1704.92 30.9732 Q1708.93 35.7938 1708.93 45.1919 Z" fill="#000000" fill-rule="evenodd" fill-opacity="1" /><path clip-path="url(#clip220)" d="M1762.6 48.0275 L1762.6 51.6733 L1728.33 51.6733 Q1728.82 59.3701 1732.95 63.421 Q1737.12 67.4314 1744.53 67.4314 Q1748.83 67.4314 1752.84 66.3781 Q1756.89 65.3249 1760.86 63.2184 L1760.86 70.267 Q1756.85 71.9684 1752.64 72.8596 Q1748.42 73.7508 1744.09 73.7508 Q1733.23 73.7508 1726.87 67.4314 Q1720.55 61.1119 1720.55 50.3365 Q1720.55 39.1965 1726.55 32.6746 Q1732.58 26.1121 1742.79 26.1121 Q1751.95 26.1121 1757.25 32.0264 Q1762.6 37.9003 1762.6 48.0275 M1755.15 45.84 Q1755.07 39.7232 1751.71 36.0774 Q1748.38 32.4315 1742.87 32.4315 Q1736.64 32.4315 1732.87 35.9558 Q1729.14 39.4801 1728.57 45.8805 L1755.15 45.84 Z" fill="#000000" fill-rule="evenodd" fill-opacity="1" /><path clip-path="url(#clip220)" d="M1797.8 9.54393 L1797.8 15.7418 L1790.67 15.7418 Q1786.66 15.7418 1785.08 17.3622 Q1783.55 18.9825 1783.55 23.1955 L1783.55 27.2059 L1795.82 27.2059 L1795.82 32.9987 L1783.55 32.9987 L1783.55 72.576 L1776.05 72.576 L1776.05 32.9987 L1768.92 32.9987 L1768.92 27.2059 L1776.05 27.2059 L1776.05 24.0462 Q1776.05 16.471 1779.58 13.0277 Q1783.1 9.54393 1790.76 9.54393 L1797.8 9.54393 Z" fill="#000000" fill-rule="evenodd" fill-opacity="1" /><path clip-path="url(#clip220)" d="M1809.96 14.324 L1809.96 27.2059 L1825.31 27.2059 L1825.31 32.9987 L1809.96 32.9987 L1809.96 57.6282 Q1809.96 63.1779 1811.46 64.7578 Q1813 66.3376 1817.65 66.3376 L1825.31 66.3376 L1825.31 72.576 L1817.65 72.576 Q1809.03 72.576 1805.74 69.3758 Q1802.46 66.1351 1802.46 57.6282 L1802.46 32.9987 L1796.99 32.9987 L1796.99 27.2059 L1802.46 27.2059 L1802.46 14.324 L1809.96 14.324 Z" fill="#000000" fill-rule="evenodd" fill-opacity="1" /><polyline clip-path="url(#clip222)" style="stroke:#009af9; stroke-linecap:butt; stroke-linejoin:round; stroke-width:4; stroke-opacity:1; fill:none" points="
  425.648,620.856 497.608,569.406 569.569,513.317 641.53,544.068 713.491,490.971 785.451,480.412 857.412,495.258 929.373,426.418 1001.33,419.212 1073.29,613.606 
  1145.25,725.101 1217.22,801.272 1289.18,856.92 1361.14,893.619 1433.1,928.634 1505.06,945.936 1577.02,1014.28 1648.98,1044.78 1720.94,1035.56 1792.9,1017.28 
  1864.86,1061.78 1936.82,1078.88 2008.78,1069 2080.74,1035.75 2152.71,1062.27 2224.67,1055.78 2296.63,1021.24 
  "/>
<polyline clip-path="url(#clip222)" style="stroke:#e26f46; stroke-linecap:butt; stroke-linejoin:round; stroke-width:4; stroke-opacity:1; fill:none" points="
  641.53,1447.87 641.53,162.047 
  "/>
<path clip-path="url(#clip220)" d="
M1864.69 324.425 L2286.65 324.425 L2286.65 168.905 L1864.69 168.905  Z
  " fill="#ffffff" fill-rule="evenodd" fill-opacity="1"/>
<polyline clip-path="url(#clip220)" style="stroke:#000000; stroke-linecap:butt; stroke-linejoin:round; stroke-width:4; stroke-opacity:1; fill:none" points="
  1864.69,324.425 2286.65,324.425 2286.65,168.905 1864.69,168.905 1864.69,324.425 
  "/>
<polyline clip-path="url(#clip220)" style="stroke:#009af9; stroke-linecap:butt; stroke-linejoin:round; stroke-width:4; stroke-opacity:1; fill:none" points="
  1886.73,220.745 2018.94,220.745 
  "/>
<path clip-path="url(#clip220)" d="M2054.82 240.432 Q2053.02 245.062 2051.3 246.474 Q2049.59 247.886 2046.72 247.886 L2043.32 247.886 L2043.32 244.321 L2045.82 244.321 Q2047.58 244.321 2048.55 243.488 Q2049.52 242.654 2050.7 239.552 L2051.47 237.608 L2040.98 212.099 L2045.49 212.099 L2053.6 232.377 L2061.7 212.099 L2066.21 212.099 L2054.82 240.432 Z" fill="#000000" fill-rule="evenodd" fill-opacity="1" /><path clip-path="url(#clip220)" d="M2073.5 234.089 L2081.14 234.089 L2081.14 207.724 L2072.83 209.391 L2072.83 205.131 L2081.1 203.465 L2085.77 203.465 L2085.77 234.089 L2093.41 234.089 L2093.41 238.025 L2073.5 238.025 L2073.5 234.089 Z" fill="#000000" fill-rule="evenodd" fill-opacity="1" /><polyline clip-path="url(#clip220)" style="stroke:#e26f46; stroke-linecap:butt; stroke-linejoin:round; stroke-width:4; stroke-opacity:1; fill:none" points="
  1886.73,272.585 2018.94,272.585 
  "/>
<path clip-path="url(#clip220)" d="M2040.98 255.305 L2047.28 255.305 L2062.6 284.217 L2062.6 255.305 L2067.14 255.305 L2067.14 289.865 L2060.84 289.865 L2045.52 260.953 L2045.52 289.865 L2040.98 289.865 L2040.98 255.305 Z" fill="#000000" fill-rule="evenodd" fill-opacity="1" /><path clip-path="url(#clip220)" d="M2076.44 255.305 L2096.3 255.305 L2096.3 259.24 L2081.12 259.24 L2081.12 269.425 L2094.82 269.425 L2094.82 273.36 L2081.12 273.36 L2081.12 289.865 L2076.44 289.865 L2076.44 255.305 Z" fill="#000000" fill-rule="evenodd" fill-opacity="1" /><path clip-path="url(#clip220)" d="M2110.91 259.911 L2104.57 277.11 L2117.28 277.11 L2110.91 259.911 M2108.27 255.305 L2113.57 255.305 L2126.74 289.865 L2121.88 289.865 L2118.73 280.999 L2103.16 280.999 L2100.01 289.865 L2095.08 289.865 L2108.27 255.305 Z" fill="#000000" fill-rule="evenodd" fill-opacity="1" /><path clip-path="url(#clip220)" d="M2142.11 255.305 L2147.14 255.305 L2156.72 269.518 L2166.23 255.305 L2171.26 255.305 L2159.03 273.406 L2159.03 289.865 L2154.34 289.865 L2154.34 273.406 L2142.11 255.305 Z" fill="#000000" fill-rule="evenodd" fill-opacity="1" /><path clip-path="url(#clip220)" d="M2191.51 275.837 L2191.51 277.92 L2171.93 277.92 Q2172.21 282.318 2174.57 284.633 Q2176.95 286.925 2181.19 286.925 Q2183.64 286.925 2185.93 286.323 Q2188.25 285.721 2190.52 284.517 L2190.52 288.545 Q2188.22 289.517 2185.82 290.027 Q2183.41 290.536 2180.93 290.536 Q2174.73 290.536 2171.09 286.925 Q2167.48 283.314 2167.48 277.156 Q2167.48 270.791 2170.91 267.064 Q2174.36 263.314 2180.19 263.314 Q2185.42 263.314 2188.46 266.693 Q2191.51 270.05 2191.51 275.837 M2187.25 274.587 Q2187.21 271.092 2185.28 269.008 Q2183.39 266.925 2180.24 266.925 Q2176.67 266.925 2174.52 268.939 Q2172.39 270.953 2172.07 274.61 L2187.25 274.587 Z" fill="#000000" fill-rule="evenodd" fill-opacity="1" /><path clip-path="url(#clip220)" d="M2210.28 276.832 Q2205.12 276.832 2203.13 278.013 Q2201.14 279.193 2201.14 282.041 Q2201.14 284.309 2202.62 285.652 Q2204.13 286.971 2206.7 286.971 Q2210.24 286.971 2212.37 284.471 Q2214.52 281.948 2214.52 277.781 L2214.52 276.832 L2210.28 276.832 M2218.78 275.073 L2218.78 289.865 L2214.52 289.865 L2214.52 285.929 Q2213.06 288.291 2210.89 289.425 Q2208.71 290.536 2205.56 290.536 Q2201.58 290.536 2199.22 288.314 Q2196.88 286.068 2196.88 282.318 Q2196.88 277.943 2199.8 275.721 Q2202.74 273.499 2208.55 273.499 L2214.52 273.499 L2214.52 273.082 Q2214.52 270.143 2212.58 268.545 Q2210.65 266.925 2207.16 266.925 Q2204.94 266.925 2202.83 267.457 Q2200.72 267.99 2198.78 269.055 L2198.78 265.119 Q2201.12 264.217 2203.32 263.777 Q2205.52 263.314 2207.6 263.314 Q2213.22 263.314 2216 266.231 Q2218.78 269.147 2218.78 275.073 Z" fill="#000000" fill-rule="evenodd" fill-opacity="1" /><path clip-path="url(#clip220)" d="M2242.58 267.92 Q2241.86 267.504 2241 267.318 Q2240.17 267.11 2239.15 267.11 Q2235.54 267.11 2233.59 269.471 Q2231.67 271.809 2231.67 276.207 L2231.67 289.865 L2227.39 289.865 L2227.39 263.939 L2231.67 263.939 L2231.67 267.967 Q2233.02 265.606 2235.17 264.471 Q2237.32 263.314 2240.4 263.314 Q2240.84 263.314 2241.37 263.383 Q2241.9 263.43 2242.55 263.545 L2242.58 267.92 Z" fill="#000000" fill-rule="evenodd" fill-opacity="1" /></svg>
