<?xml version="1.0" encoding="utf-8"?>
<svg xmlns="http://www.w3.org/2000/svg" xmlns:xlink="http://www.w3.org/1999/xlink" width="500" height="250" viewBox="0 0 2000 1000">
<defs>
  <clipPath id="clip530">
    <rect x="0" y="0" width="2000" height="1000"/>
  </clipPath>
</defs>
<path clip-path="url(#clip530)" d="
M0 1000 L2000 1000 L2000 0 L0 0  Z
  " fill="#ffffff" fill-rule="evenodd" fill-opacity="1"/>
<defs>
  <clipPath id="clip531">
    <rect x="400" y="0" width="1401" height="1000"/>
  </clipPath>
</defs>
<path clip-path="url(#clip530)" d="
M189.241 849.7 L1952.76 849.7 L1952.76 108.352 L189.241 108.352  Z
  " fill="#ffffff" fill-rule="evenodd" fill-opacity="1"/>
<defs>
  <clipPath id="clip532">
    <rect x="189" y="108" width="1765" height="742"/>
  </clipPath>
</defs>
<polyline clip-path="url(#clip532)" style="stroke:#000000; stroke-linecap:butt; stroke-linejoin:round; stroke-width:2; stroke-opacity:0.1; fill:none" points="
  279.589,849.7 279.589,108.352 
  "/>
<polyline clip-path="url(#clip532)" style="stroke:#000000; stroke-linecap:butt; stroke-linejoin:round; stroke-width:2; stroke-opacity:0.1; fill:none" points="
  551.404,849.7 551.404,108.352 
  "/>
<polyline clip-path="url(#clip532)" style="stroke:#000000; stroke-linecap:butt; stroke-linejoin:round; stroke-width:2; stroke-opacity:0.1; fill:none" points="
  823.219,849.7 823.219,108.352 
  "/>
<polyline clip-path="url(#clip532)" style="stroke:#000000; stroke-linecap:butt; stroke-linejoin:round; stroke-width:2; stroke-opacity:0.1; fill:none" points="
  1095.03,849.7 1095.03,108.352 
  "/>
<polyline clip-path="url(#clip532)" style="stroke:#000000; stroke-linecap:butt; stroke-linejoin:round; stroke-width:2; stroke-opacity:0.1; fill:none" points="
  1366.85,849.7 1366.85,108.352 
  "/>
<polyline clip-path="url(#clip532)" style="stroke:#000000; stroke-linecap:butt; stroke-linejoin:round; stroke-width:2; stroke-opacity:0.1; fill:none" points="
  1638.66,849.7 1638.66,108.352 
  "/>
<polyline clip-path="url(#clip532)" style="stroke:#000000; stroke-linecap:butt; stroke-linejoin:round; stroke-width:2; stroke-opacity:0.1; fill:none" points="
  1910.48,849.7 1910.48,108.352 
  "/>
<polyline clip-path="url(#clip530)" style="stroke:#000000; stroke-linecap:butt; stroke-linejoin:round; stroke-width:4; stroke-opacity:1; fill:none" points="
  189.241,849.7 1952.76,849.7 
  "/>
<polyline clip-path="url(#clip530)" style="stroke:#000000; stroke-linecap:butt; stroke-linejoin:round; stroke-width:4; stroke-opacity:1; fill:none" points="
  279.589,849.7 279.589,830.802 
  "/>
<polyline clip-path="url(#clip530)" style="stroke:#000000; stroke-linecap:butt; stroke-linejoin:round; stroke-width:4; stroke-opacity:1; fill:none" points="
  551.404,849.7 551.404,830.802 
  "/>
<polyline clip-path="url(#clip530)" style="stroke:#000000; stroke-linecap:butt; stroke-linejoin:round; stroke-width:4; stroke-opacity:1; fill:none" points="
  823.219,849.7 823.219,830.802 
  "/>
<polyline clip-path="url(#clip530)" style="stroke:#000000; stroke-linecap:butt; stroke-linejoin:round; stroke-width:4; stroke-opacity:1; fill:none" points="
  1095.03,849.7 1095.03,830.802 
  "/>
<polyline clip-path="url(#clip530)" style="stroke:#000000; stroke-linecap:butt; stroke-linejoin:round; stroke-width:4; stroke-opacity:1; fill:none" points="
  1366.85,849.7 1366.85,830.802 
  "/>
<polyline clip-path="url(#clip530)" style="stroke:#000000; stroke-linecap:butt; stroke-linejoin:round; stroke-width:4; stroke-opacity:1; fill:none" points="
  1638.66,849.7 1638.66,830.802 
  "/>
<polyline clip-path="url(#clip530)" style="stroke:#000000; stroke-linecap:butt; stroke-linejoin:round; stroke-width:4; stroke-opacity:1; fill:none" points="
  1910.48,849.7 1910.48,830.802 
  "/>
<path clip-path="url(#clip530)" d="M227.31 877.419 Q223.698 877.419 221.87 880.983 Q220.064 884.525 220.064 891.655 Q220.064 898.761 221.87 902.326 Q223.698 905.867 227.31 905.867 Q230.944 905.867 232.749 902.326 Q234.578 898.761 234.578 891.655 Q234.578 884.525 232.749 880.983 Q230.944 877.419 227.31 877.419 M227.31 873.715 Q233.12 873.715 236.175 878.321 Q239.254 882.905 239.254 891.655 Q239.254 900.381 236.175 904.988 Q233.12 909.571 227.31 909.571 Q221.499 909.571 218.421 904.988 Q215.365 900.381 215.365 891.655 Q215.365 882.905 218.421 878.321 Q221.499 873.715 227.31 873.715 Z" fill="#000000" fill-rule="evenodd" fill-opacity="1" /><path clip-path="url(#clip530)" d="M247.471 903.02 L252.356 903.02 L252.356 908.9 L247.471 908.9 L247.471 903.02 Z" fill="#000000" fill-rule="evenodd" fill-opacity="1" /><path clip-path="url(#clip530)" d="M272.541 877.419 Q268.93 877.419 267.101 880.983 Q265.295 884.525 265.295 891.655 Q265.295 898.761 267.101 902.326 Q268.93 905.867 272.541 905.867 Q276.175 905.867 277.981 902.326 Q279.809 898.761 279.809 891.655 Q279.809 884.525 277.981 880.983 Q276.175 877.419 272.541 877.419 M272.541 873.715 Q278.351 873.715 281.406 878.321 Q284.485 882.905 284.485 891.655 Q284.485 900.381 281.406 904.988 Q278.351 909.571 272.541 909.571 Q266.731 909.571 263.652 904.988 Q260.596 900.381 260.596 891.655 Q260.596 882.905 263.652 878.321 Q266.731 873.715 272.541 873.715 Z" fill="#000000" fill-rule="evenodd" fill-opacity="1" /><path clip-path="url(#clip530)" d="M292.749 874.34 L311.105 874.34 L311.105 878.275 L297.031 878.275 L297.031 886.747 Q298.05 886.4 299.068 886.238 Q300.087 886.053 301.105 886.053 Q306.892 886.053 310.272 889.224 Q313.652 892.395 313.652 897.812 Q313.652 903.391 310.179 906.492 Q306.707 909.571 300.388 909.571 Q298.212 909.571 295.943 909.201 Q293.698 908.83 291.291 908.09 L291.291 903.391 Q293.374 904.525 295.596 905.08 Q297.818 905.636 300.295 905.636 Q304.3 905.636 306.638 903.53 Q308.976 901.423 308.976 897.812 Q308.976 894.201 306.638 892.094 Q304.3 889.988 300.295 889.988 Q298.42 889.988 296.545 890.405 Q294.693 890.821 292.749 891.701 L292.749 874.34 Z" fill="#000000" fill-rule="evenodd" fill-opacity="1" /><path clip-path="url(#clip530)" d="M322.911 874.34 L341.267 874.34 L341.267 878.275 L327.193 878.275 L327.193 886.747 Q328.212 886.4 329.23 886.238 Q330.249 886.053 331.267 886.053 Q337.054 886.053 340.434 889.224 Q343.814 892.395 343.814 897.812 Q343.814 903.391 340.341 906.492 Q336.869 909.571 330.55 909.571 Q328.374 909.571 326.105 909.201 Q323.86 908.83 321.453 908.09 L321.453 903.391 Q323.536 904.525 325.758 905.08 Q327.98 905.636 330.457 905.636 Q334.462 905.636 336.8 903.53 Q339.138 901.423 339.138 897.812 Q339.138 894.201 336.8 892.094 Q334.462 889.988 330.457 889.988 Q328.582 889.988 326.707 890.405 Q324.855 890.821 322.911 891.701 L322.911 874.34 Z" fill="#000000" fill-rule="evenodd" fill-opacity="1" /><path clip-path="url(#clip530)" d="M498.627 877.419 Q495.015 877.419 493.187 880.983 Q491.381 884.525 491.381 891.655 Q491.381 898.761 493.187 902.326 Q495.015 905.867 498.627 905.867 Q502.261 905.867 504.066 902.326 Q505.895 898.761 505.895 891.655 Q505.895 884.525 504.066 880.983 Q502.261 877.419 498.627 877.419 M498.627 873.715 Q504.437 873.715 507.492 878.321 Q510.571 882.905 510.571 891.655 Q510.571 900.381 507.492 904.988 Q504.437 909.571 498.627 909.571 Q492.816 909.571 489.738 904.988 Q486.682 900.381 486.682 891.655 Q486.682 882.905 489.738 878.321 Q492.816 873.715 498.627 873.715 Z" fill="#000000" fill-rule="evenodd" fill-opacity="1" /><path clip-path="url(#clip530)" d="M518.788 903.02 L523.673 903.02 L523.673 908.9 L518.788 908.9 L518.788 903.02 Z" fill="#000000" fill-rule="evenodd" fill-opacity="1" /><path clip-path="url(#clip530)" d="M543.858 877.419 Q540.247 877.419 538.418 880.983 Q536.612 884.525 536.612 891.655 Q536.612 898.761 538.418 902.326 Q540.247 905.867 543.858 905.867 Q547.492 905.867 549.298 902.326 Q551.126 898.761 551.126 891.655 Q551.126 884.525 549.298 880.983 Q547.492 877.419 543.858 877.419 M543.858 873.715 Q549.668 873.715 552.723 878.321 Q555.802 882.905 555.802 891.655 Q555.802 900.381 552.723 904.988 Q549.668 909.571 543.858 909.571 Q538.048 909.571 534.969 904.988 Q531.913 900.381 531.913 891.655 Q531.913 882.905 534.969 878.321 Q538.048 873.715 543.858 873.715 Z" fill="#000000" fill-rule="evenodd" fill-opacity="1" /><path clip-path="url(#clip530)" d="M574.598 889.756 Q571.45 889.756 569.598 891.909 Q567.77 894.062 567.77 897.812 Q567.77 901.539 569.598 903.715 Q571.45 905.867 574.598 905.867 Q577.746 905.867 579.575 903.715 Q581.427 901.539 581.427 897.812 Q581.427 894.062 579.575 891.909 Q577.746 889.756 574.598 889.756 M583.881 875.104 L583.881 879.363 Q582.121 878.53 580.316 878.09 Q578.534 877.65 576.774 877.65 Q572.145 877.65 569.691 880.775 Q567.26 883.9 566.913 890.219 Q568.279 888.206 570.339 887.141 Q572.399 886.053 574.876 886.053 Q580.084 886.053 583.094 889.224 Q586.126 892.372 586.126 897.812 Q586.126 903.136 582.978 906.354 Q579.83 909.571 574.598 909.571 Q568.603 909.571 565.432 904.988 Q562.26 900.381 562.26 891.655 Q562.26 883.46 566.149 878.599 Q570.038 873.715 576.589 873.715 Q578.348 873.715 580.131 874.062 Q581.936 874.409 583.881 875.104 Z" fill="#000000" fill-rule="evenodd" fill-opacity="1" /><path clip-path="url(#clip530)" d="M604.182 877.419 Q600.57 877.419 598.742 880.983 Q596.936 884.525 596.936 891.655 Q596.936 898.761 598.742 902.326 Q600.57 905.867 604.182 905.867 Q607.816 905.867 609.621 902.326 Q611.45 898.761 611.45 891.655 Q611.45 884.525 609.621 880.983 Q607.816 877.419 604.182 877.419 M604.182 873.715 Q609.992 873.715 613.047 878.321 Q616.126 882.905 616.126 891.655 Q616.126 900.381 613.047 904.988 Q609.992 909.571 604.182 909.571 Q598.371 909.571 595.293 904.988 Q592.237 900.381 592.237 891.655 Q592.237 882.905 595.293 878.321 Q598.371 873.715 604.182 873.715 Z" fill="#000000" fill-rule="evenodd" fill-opacity="1" /><path clip-path="url(#clip530)" d="M770.939 877.419 Q767.328 877.419 765.499 880.983 Q763.694 884.525 763.694 891.655 Q763.694 898.761 765.499 902.326 Q767.328 905.867 770.939 905.867 Q774.573 905.867 776.379 902.326 Q778.207 898.761 778.207 891.655 Q778.207 884.525 776.379 880.983 Q774.573 877.419 770.939 877.419 M770.939 873.715 Q776.749 873.715 779.805 878.321 Q782.883 882.905 782.883 891.655 Q782.883 900.381 779.805 904.988 Q776.749 909.571 770.939 909.571 Q765.129 909.571 762.05 904.988 Q758.995 900.381 758.995 891.655 Q758.995 882.905 762.05 878.321 Q765.129 873.715 770.939 873.715 Z" fill="#000000" fill-rule="evenodd" fill-opacity="1" /><path clip-path="url(#clip530)" d="M791.101 903.02 L795.985 903.02 L795.985 908.9 L791.101 908.9 L791.101 903.02 Z" fill="#000000" fill-rule="evenodd" fill-opacity="1" /><path clip-path="url(#clip530)" d="M816.17 877.419 Q812.559 877.419 810.73 880.983 Q808.925 884.525 808.925 891.655 Q808.925 898.761 810.73 902.326 Q812.559 905.867 816.17 905.867 Q819.804 905.867 821.61 902.326 Q823.439 898.761 823.439 891.655 Q823.439 884.525 821.61 880.983 Q819.804 877.419 816.17 877.419 M816.17 873.715 Q821.98 873.715 825.036 878.321 Q828.115 882.905 828.115 891.655 Q828.115 900.381 825.036 904.988 Q821.98 909.571 816.17 909.571 Q810.36 909.571 807.281 904.988 Q804.226 900.381 804.226 891.655 Q804.226 882.905 807.281 878.321 Q810.36 873.715 816.17 873.715 Z" fill="#000000" fill-rule="evenodd" fill-opacity="1" /><path clip-path="url(#clip530)" d="M846.911 889.756 Q843.763 889.756 841.911 891.909 Q840.082 894.062 840.082 897.812 Q840.082 901.539 841.911 903.715 Q843.763 905.867 846.911 905.867 Q850.059 905.867 851.888 903.715 Q853.739 901.539 853.739 897.812 Q853.739 894.062 851.888 891.909 Q850.059 889.756 846.911 889.756 M856.193 875.104 L856.193 879.363 Q854.434 878.53 852.628 878.09 Q850.846 877.65 849.087 877.65 Q844.457 877.65 842.003 880.775 Q839.573 883.9 839.226 890.219 Q840.591 888.206 842.651 887.141 Q844.712 886.053 847.188 886.053 Q852.397 886.053 855.406 889.224 Q858.438 892.372 858.438 897.812 Q858.438 903.136 855.29 906.354 Q852.142 909.571 846.911 909.571 Q840.915 909.571 837.744 904.988 Q834.573 900.381 834.573 891.655 Q834.573 883.46 838.462 878.599 Q842.351 873.715 848.901 873.715 Q850.661 873.715 852.443 874.062 Q854.249 874.409 856.193 875.104 Z" fill="#000000" fill-rule="evenodd" fill-opacity="1" /><path clip-path="url(#clip530)" d="M866.54 874.34 L884.897 874.34 L884.897 878.275 L870.823 878.275 L870.823 886.747 Q871.841 886.4 872.86 886.238 Q873.878 886.053 874.897 886.053 Q880.684 886.053 884.063 889.224 Q887.443 892.395 887.443 897.812 Q887.443 903.391 883.971 906.492 Q880.498 909.571 874.179 909.571 Q872.003 909.571 869.735 909.201 Q867.489 908.83 865.082 908.09 L865.082 903.391 Q867.165 904.525 869.387 905.08 Q871.61 905.636 874.086 905.636 Q878.091 905.636 880.429 903.53 Q882.767 901.423 882.767 897.812 Q882.767 894.201 880.429 892.094 Q878.091 889.988 874.086 889.988 Q872.212 889.988 870.337 890.405 Q868.485 890.821 866.54 891.701 L866.54 874.34 Z" fill="#000000" fill-rule="evenodd" fill-opacity="1" /><path clip-path="url(#clip530)" d="M1042.26 877.419 Q1038.64 877.419 1036.82 880.983 Q1035.01 884.525 1035.01 891.655 Q1035.01 898.761 1036.82 902.326 Q1038.64 905.867 1042.26 905.867 Q1045.89 905.867 1047.7 902.326 Q1049.52 898.761 1049.52 891.655 Q1049.52 884.525 1047.7 880.983 Q1045.89 877.419 1042.26 877.419 M1042.26 873.715 Q1048.07 873.715 1051.12 878.321 Q1054.2 882.905 1054.2 891.655 Q1054.2 900.381 1051.12 904.988 Q1048.07 909.571 1042.26 909.571 Q1036.45 909.571 1033.37 904.988 Q1030.31 900.381 1030.31 891.655 Q1030.31 882.905 1033.37 878.321 Q1036.45 873.715 1042.26 873.715 Z" fill="#000000" fill-rule="evenodd" fill-opacity="1" /><path clip-path="url(#clip530)" d="M1062.42 903.02 L1067.3 903.02 L1067.3 908.9 L1062.42 908.9 L1062.42 903.02 Z" fill="#000000" fill-rule="evenodd" fill-opacity="1" /><path clip-path="url(#clip530)" d="M1087.49 877.419 Q1083.88 877.419 1082.05 880.983 Q1080.24 884.525 1080.24 891.655 Q1080.24 898.761 1082.05 902.326 Q1083.88 905.867 1087.49 905.867 Q1091.12 905.867 1092.93 902.326 Q1094.76 898.761 1094.76 891.655 Q1094.76 884.525 1092.93 880.983 Q1091.12 877.419 1087.49 877.419 M1087.49 873.715 Q1093.3 873.715 1096.35 878.321 Q1099.43 882.905 1099.43 891.655 Q1099.43 900.381 1096.35 904.988 Q1093.3 909.571 1087.49 909.571 Q1081.68 909.571 1078.6 904.988 Q1075.54 900.381 1075.54 891.655 Q1075.54 882.905 1078.6 878.321 Q1081.68 873.715 1087.49 873.715 Z" fill="#000000" fill-rule="evenodd" fill-opacity="1" /><path clip-path="url(#clip530)" d="M1106.47 874.34 L1128.69 874.34 L1128.69 876.331 L1116.14 908.9 L1111.26 908.9 L1123.07 878.275 L1106.47 878.275 L1106.47 874.34 Z" fill="#000000" fill-rule="evenodd" fill-opacity="1" /><path clip-path="url(#clip530)" d="M1147.81 877.419 Q1144.2 877.419 1142.37 880.983 Q1140.57 884.525 1140.57 891.655 Q1140.57 898.761 1142.37 902.326 Q1144.2 905.867 1147.81 905.867 Q1151.45 905.867 1153.25 902.326 Q1155.08 898.761 1155.08 891.655 Q1155.08 884.525 1153.25 880.983 Q1151.45 877.419 1147.81 877.419 M1147.81 873.715 Q1153.62 873.715 1156.68 878.321 Q1159.76 882.905 1159.76 891.655 Q1159.76 900.381 1156.68 904.988 Q1153.62 909.571 1147.81 909.571 Q1142 909.571 1138.92 904.988 Q1135.87 900.381 1135.87 891.655 Q1135.87 882.905 1138.92 878.321 Q1142 873.715 1147.81 873.715 Z" fill="#000000" fill-rule="evenodd" fill-opacity="1" /><path clip-path="url(#clip530)" d="M1314.57 877.419 Q1310.96 877.419 1309.13 880.983 Q1307.32 884.525 1307.32 891.655 Q1307.32 898.761 1309.13 902.326 Q1310.96 905.867 1314.57 905.867 Q1318.2 905.867 1320.01 902.326 Q1321.84 898.761 1321.84 891.655 Q1321.84 884.525 1320.01 880.983 Q1318.2 877.419 1314.57 877.419 M1314.57 873.715 Q1320.38 873.715 1323.43 878.321 Q1326.51 882.905 1326.51 891.655 Q1326.51 900.381 1323.43 904.988 Q1320.38 909.571 1314.57 909.571 Q1308.76 909.571 1305.68 904.988 Q1302.62 900.381 1302.62 891.655 Q1302.62 882.905 1305.68 878.321 Q1308.76 873.715 1314.57 873.715 Z" fill="#000000" fill-rule="evenodd" fill-opacity="1" /><path clip-path="url(#clip530)" d="M1334.73 903.02 L1339.61 903.02 L1339.61 908.9 L1334.73 908.9 L1334.73 903.02 Z" fill="#000000" fill-rule="evenodd" fill-opacity="1" /><path clip-path="url(#clip530)" d="M1359.8 877.419 Q1356.19 877.419 1354.36 880.983 Q1352.55 884.525 1352.55 891.655 Q1352.55 898.761 1354.36 902.326 Q1356.19 905.867 1359.8 905.867 Q1363.43 905.867 1365.24 902.326 Q1367.07 898.761 1367.07 891.655 Q1367.07 884.525 1365.24 880.983 Q1363.43 877.419 1359.8 877.419 M1359.8 873.715 Q1365.61 873.715 1368.67 878.321 Q1371.74 882.905 1371.74 891.655 Q1371.74 900.381 1368.67 904.988 Q1365.61 909.571 1359.8 909.571 Q1353.99 909.571 1350.91 904.988 Q1347.86 900.381 1347.86 891.655 Q1347.86 882.905 1350.91 878.321 Q1353.99 873.715 1359.8 873.715 Z" fill="#000000" fill-rule="evenodd" fill-opacity="1" /><path clip-path="url(#clip530)" d="M1378.78 874.34 L1401 874.34 L1401 876.331 L1388.46 908.9 L1383.57 908.9 L1395.38 878.275 L1378.78 878.275 L1378.78 874.34 Z" fill="#000000" fill-rule="evenodd" fill-opacity="1" /><path clip-path="url(#clip530)" d="M1410.17 874.34 L1428.53 874.34 L1428.53 878.275 L1414.45 878.275 L1414.45 886.747 Q1415.47 886.4 1416.49 886.238 Q1417.51 886.053 1418.53 886.053 Q1424.31 886.053 1427.69 889.224 Q1431.07 892.395 1431.07 897.812 Q1431.07 903.391 1427.6 906.492 Q1424.13 909.571 1417.81 909.571 Q1415.63 909.571 1413.36 909.201 Q1411.12 908.83 1408.71 908.09 L1408.71 903.391 Q1410.79 904.525 1413.02 905.08 Q1415.24 905.636 1417.72 905.636 Q1421.72 905.636 1424.06 903.53 Q1426.4 901.423 1426.4 897.812 Q1426.4 894.201 1424.06 892.094 Q1421.72 889.988 1417.72 889.988 Q1415.84 889.988 1413.97 890.405 Q1412.11 890.821 1410.17 891.701 L1410.17 874.34 Z" fill="#000000" fill-rule="evenodd" fill-opacity="1" /><path clip-path="url(#clip530)" d="M1585.89 877.419 Q1582.27 877.419 1580.45 880.983 Q1578.64 884.525 1578.64 891.655 Q1578.64 898.761 1580.45 902.326 Q1582.27 905.867 1585.89 905.867 Q1589.52 905.867 1591.33 902.326 Q1593.15 898.761 1593.15 891.655 Q1593.15 884.525 1591.33 880.983 Q1589.52 877.419 1585.89 877.419 M1585.89 873.715 Q1591.7 873.715 1594.75 878.321 Q1597.83 882.905 1597.83 891.655 Q1597.83 900.381 1594.75 904.988 Q1591.7 909.571 1585.89 909.571 Q1580.08 909.571 1577 904.988 Q1573.94 900.381 1573.94 891.655 Q1573.94 882.905 1577 878.321 Q1580.08 873.715 1585.89 873.715 Z" fill="#000000" fill-rule="evenodd" fill-opacity="1" /><path clip-path="url(#clip530)" d="M1606.05 903.02 L1610.93 903.02 L1610.93 908.9 L1606.05 908.9 L1606.05 903.02 Z" fill="#000000" fill-rule="evenodd" fill-opacity="1" /><path clip-path="url(#clip530)" d="M1631.12 877.419 Q1627.51 877.419 1625.68 880.983 Q1623.87 884.525 1623.87 891.655 Q1623.87 898.761 1625.68 902.326 Q1627.51 905.867 1631.12 905.867 Q1634.75 905.867 1636.56 902.326 Q1638.39 898.761 1638.39 891.655 Q1638.39 884.525 1636.56 880.983 Q1634.75 877.419 1631.12 877.419 M1631.12 873.715 Q1636.93 873.715 1639.98 878.321 Q1643.06 882.905 1643.06 891.655 Q1643.06 900.381 1639.98 904.988 Q1636.93 909.571 1631.12 909.571 Q1625.31 909.571 1622.23 904.988 Q1619.17 900.381 1619.17 891.655 Q1619.17 882.905 1622.23 878.321 Q1625.31 873.715 1631.12 873.715 Z" fill="#000000" fill-rule="evenodd" fill-opacity="1" /><path clip-path="url(#clip530)" d="M1661.28 892.488 Q1657.95 892.488 1656.02 894.27 Q1654.13 896.053 1654.13 899.178 Q1654.13 902.303 1656.02 904.085 Q1657.95 905.867 1661.28 905.867 Q1664.61 905.867 1666.53 904.085 Q1668.45 902.28 1668.45 899.178 Q1668.45 896.053 1666.53 894.27 Q1664.63 892.488 1661.28 892.488 M1656.6 890.497 Q1653.59 889.756 1651.9 887.696 Q1650.24 885.636 1650.24 882.673 Q1650.24 878.53 1653.18 876.122 Q1656.14 873.715 1661.28 873.715 Q1666.44 873.715 1669.38 876.122 Q1672.32 878.53 1672.32 882.673 Q1672.32 885.636 1670.63 887.696 Q1668.96 889.756 1665.98 890.497 Q1669.36 891.284 1671.23 893.576 Q1673.13 895.868 1673.13 899.178 Q1673.13 904.201 1670.05 906.886 Q1667 909.571 1661.28 909.571 Q1655.56 909.571 1652.48 906.886 Q1649.43 904.201 1649.43 899.178 Q1649.43 895.868 1651.32 893.576 Q1653.22 891.284 1656.6 890.497 M1654.89 883.113 Q1654.89 885.798 1656.56 887.303 Q1658.25 888.807 1661.28 888.807 Q1664.29 888.807 1665.98 887.303 Q1667.69 885.798 1667.69 883.113 Q1667.69 880.428 1665.98 878.923 Q1664.29 877.419 1661.28 877.419 Q1658.25 877.419 1656.56 878.923 Q1654.89 880.428 1654.89 883.113 Z" fill="#000000" fill-rule="evenodd" fill-opacity="1" /><path clip-path="url(#clip530)" d="M1691.44 877.419 Q1687.83 877.419 1686 880.983 Q1684.19 884.525 1684.19 891.655 Q1684.19 898.761 1686 902.326 Q1687.83 905.867 1691.44 905.867 Q1695.07 905.867 1696.88 902.326 Q1698.71 898.761 1698.71 891.655 Q1698.71 884.525 1696.88 880.983 Q1695.07 877.419 1691.44 877.419 M1691.44 873.715 Q1697.25 873.715 1700.31 878.321 Q1703.38 882.905 1703.38 891.655 Q1703.38 900.381 1700.31 904.988 Q1697.25 909.571 1691.44 909.571 Q1685.63 909.571 1682.55 904.988 Q1679.5 900.381 1679.5 891.655 Q1679.5 882.905 1682.55 878.321 Q1685.63 873.715 1691.44 873.715 Z" fill="#000000" fill-rule="evenodd" fill-opacity="1" /><path clip-path="url(#clip530)" d="M1858.2 877.419 Q1854.59 877.419 1852.76 880.983 Q1850.95 884.525 1850.95 891.655 Q1850.95 898.761 1852.76 902.326 Q1854.59 905.867 1858.2 905.867 Q1861.83 905.867 1863.64 902.326 Q1865.47 898.761 1865.47 891.655 Q1865.47 884.525 1863.64 880.983 Q1861.83 877.419 1858.2 877.419 M1858.2 873.715 Q1864.01 873.715 1867.06 878.321 Q1870.14 882.905 1870.14 891.655 Q1870.14 900.381 1867.06 904.988 Q1864.01 909.571 1858.2 909.571 Q1852.39 909.571 1849.31 904.988 Q1846.25 900.381 1846.25 891.655 Q1846.25 882.905 1849.31 878.321 Q1852.39 873.715 1858.2 873.715 Z" fill="#000000" fill-rule="evenodd" fill-opacity="1" /><path clip-path="url(#clip530)" d="M1878.36 903.02 L1883.24 903.02 L1883.24 908.9 L1878.36 908.9 L1878.36 903.02 Z" fill="#000000" fill-rule="evenodd" fill-opacity="1" /><path clip-path="url(#clip530)" d="M1903.43 877.419 Q1899.82 877.419 1897.99 880.983 Q1896.18 884.525 1896.18 891.655 Q1896.18 898.761 1897.99 902.326 Q1899.82 905.867 1903.43 905.867 Q1907.06 905.867 1908.87 902.326 Q1910.7 898.761 1910.7 891.655 Q1910.7 884.525 1908.87 880.983 Q1907.06 877.419 1903.43 877.419 M1903.43 873.715 Q1909.24 873.715 1912.29 878.321 Q1915.37 882.905 1915.37 891.655 Q1915.37 900.381 1912.29 904.988 Q1909.24 909.571 1903.43 909.571 Q1897.62 909.571 1894.54 904.988 Q1891.48 900.381 1891.48 891.655 Q1891.48 882.905 1894.54 878.321 Q1897.62 873.715 1903.43 873.715 Z" fill="#000000" fill-rule="evenodd" fill-opacity="1" /><path clip-path="url(#clip530)" d="M1933.59 892.488 Q1930.26 892.488 1928.34 894.27 Q1926.44 896.053 1926.44 899.178 Q1926.44 902.303 1928.34 904.085 Q1930.26 905.867 1933.59 905.867 Q1936.92 905.867 1938.85 904.085 Q1940.77 902.28 1940.77 899.178 Q1940.77 896.053 1938.85 894.27 Q1936.95 892.488 1933.59 892.488 M1928.91 890.497 Q1925.91 889.756 1924.22 887.696 Q1922.55 885.636 1922.55 882.673 Q1922.55 878.53 1925.49 876.122 Q1928.45 873.715 1933.59 873.715 Q1938.75 873.715 1941.69 876.122 Q1944.63 878.53 1944.63 882.673 Q1944.63 885.636 1942.94 887.696 Q1941.28 889.756 1938.29 890.497 Q1941.67 891.284 1943.54 893.576 Q1945.44 895.868 1945.44 899.178 Q1945.44 904.201 1942.36 906.886 Q1939.31 909.571 1933.59 909.571 Q1927.87 909.571 1924.79 906.886 Q1921.74 904.201 1921.74 899.178 Q1921.74 895.868 1923.64 893.576 Q1925.54 891.284 1928.91 890.497 M1927.2 883.113 Q1927.2 885.798 1928.87 887.303 Q1930.56 888.807 1933.59 888.807 Q1936.6 888.807 1938.29 887.303 Q1940 885.798 1940 883.113 Q1940 880.428 1938.29 878.923 Q1936.6 877.419 1933.59 877.419 Q1930.56 877.419 1928.87 878.923 Q1927.2 880.428 1927.2 883.113 Z" fill="#000000" fill-rule="evenodd" fill-opacity="1" /><path clip-path="url(#clip530)" d="M1953.8 874.34 L1972.16 874.34 L1972.16 878.275 L1958.08 878.275 L1958.08 886.747 Q1959.1 886.4 1960.12 886.238 Q1961.14 886.053 1962.16 886.053 Q1967.94 886.053 1971.32 889.224 Q1974.7 892.395 1974.7 897.812 Q1974.7 903.391 1971.23 906.492 Q1967.76 909.571 1961.44 909.571 Q1959.26 909.571 1956.99 909.201 Q1954.75 908.83 1952.34 908.09 L1952.34 903.391 Q1954.42 904.525 1956.65 905.08 Q1958.87 905.636 1961.35 905.636 Q1965.35 905.636 1967.69 903.53 Q1970.03 901.423 1970.03 897.812 Q1970.03 894.201 1967.69 892.094 Q1965.35 889.988 1961.35 889.988 Q1959.47 889.988 1957.6 890.405 Q1955.74 890.821 1953.8 891.701 L1953.8 874.34 Z" fill="#000000" fill-rule="evenodd" fill-opacity="1" /><path clip-path="url(#clip530)" d="M883.878 942.603 L883.878 948.874 Q880.218 947.123 876.972 946.264 Q873.725 945.404 870.701 945.404 Q865.45 945.404 862.585 947.441 Q859.752 949.478 859.752 953.234 Q859.752 956.385 861.63 958.008 Q863.54 959.6 868.824 960.587 L872.707 961.382 Q879.9 962.751 883.306 966.22 Q886.743 969.658 886.743 975.45 Q886.743 982.357 882.096 985.922 Q877.481 989.487 868.537 989.487 Q865.163 989.487 861.344 988.723 Q857.556 987.959 853.482 986.463 L853.482 979.843 Q857.397 982.039 861.153 983.153 Q864.909 984.267 868.537 984.267 Q874.043 984.267 877.035 982.103 Q880.027 979.938 880.027 975.928 Q880.027 972.427 877.863 970.453 Q875.73 968.48 870.829 967.493 L866.914 966.729 Q859.721 965.297 856.506 962.242 Q853.291 959.186 853.291 953.743 Q853.291 947.441 857.715 943.813 Q862.171 940.184 869.969 940.184 Q873.311 940.184 876.781 940.789 Q880.25 941.394 883.878 942.603 Z" fill="#000000" fill-rule="evenodd" fill-opacity="1" /><path clip-path="url(#clip530)" d="M912.715 970.644 Q905.617 970.644 902.88 972.268 Q900.143 973.891 900.143 977.806 Q900.143 980.925 902.18 982.771 Q904.249 984.585 907.782 984.585 Q912.651 984.585 915.58 981.148 Q918.54 977.678 918.54 971.949 L918.54 970.644 L912.715 970.644 M924.396 968.225 L924.396 988.564 L918.54 988.564 L918.54 983.153 Q916.535 986.4 913.543 987.959 Q910.551 989.487 906.222 989.487 Q900.748 989.487 897.501 986.431 Q894.286 983.344 894.286 978.188 Q894.286 972.172 898.297 969.117 Q902.339 966.061 910.328 966.061 L918.54 966.061 L918.54 965.488 Q918.54 961.446 915.866 959.25 Q913.224 957.022 908.418 957.022 Q905.363 957.022 902.466 957.754 Q899.57 958.486 896.896 959.95 L896.896 954.539 Q900.111 953.298 903.135 952.693 Q906.158 952.057 909.023 952.057 Q916.757 952.057 920.577 956.067 Q924.396 960.077 924.396 968.225 Z" fill="#000000" fill-rule="evenodd" fill-opacity="1" /><path clip-path="url(#clip530)" d="M964.214 959.759 Q966.41 955.812 969.465 953.934 Q972.521 952.057 976.659 952.057 Q982.229 952.057 985.252 955.971 Q988.276 959.855 988.276 967.048 L988.276 988.564 L982.388 988.564 L982.388 967.239 Q982.388 962.114 980.574 959.632 Q978.759 957.149 975.035 957.149 Q970.484 957.149 967.842 960.173 Q965.2 963.197 965.2 968.416 L965.2 988.564 L959.312 988.564 L959.312 967.239 Q959.312 962.083 957.498 959.632 Q955.684 957.149 951.896 957.149 Q947.408 957.149 944.766 960.205 Q942.125 963.228 942.125 968.416 L942.125 988.564 L936.236 988.564 L936.236 952.916 L942.125 952.916 L942.125 958.454 Q944.13 955.176 946.931 953.616 Q949.732 952.057 953.583 952.057 Q957.466 952.057 960.171 954.03 Q962.909 956.003 964.214 959.759 Z" fill="#000000" fill-rule="evenodd" fill-opacity="1" /><path clip-path="url(#clip530)" d="M1005.62 983.217 L1005.62 1002.12 L999.734 1002.12 L999.734 952.916 L1005.62 952.916 L1005.62 958.327 Q1007.47 955.144 1010.27 953.616 Q1013.1 952.057 1017.02 952.057 Q1023.51 952.057 1027.55 957.213 Q1031.63 962.369 1031.63 970.772 Q1031.63 979.174 1027.55 984.331 Q1023.51 989.487 1017.02 989.487 Q1013.1 989.487 1010.27 987.959 Q1007.47 986.4 1005.62 983.217 M1025.55 970.772 Q1025.55 964.311 1022.87 960.65 Q1020.23 956.958 1015.58 956.958 Q1010.94 956.958 1008.26 960.65 Q1005.62 964.311 1005.62 970.772 Q1005.62 977.233 1008.26 980.925 Q1010.94 984.585 1015.58 984.585 Q1020.23 984.585 1022.87 980.925 Q1025.55 977.233 1025.55 970.772 Z" fill="#000000" fill-rule="evenodd" fill-opacity="1" /><path clip-path="url(#clip530)" d="M1041.33 939.039 L1047.19 939.039 L1047.19 988.564 L1041.33 988.564 L1041.33 939.039 Z" fill="#000000" fill-rule="evenodd" fill-opacity="1" /><path clip-path="url(#clip530)" d="M1089.94 969.276 L1089.94 972.14 L1063.01 972.14 Q1063.39 978.188 1066.64 981.371 Q1069.92 984.522 1075.74 984.522 Q1079.11 984.522 1082.27 983.694 Q1085.45 982.867 1088.57 981.211 L1088.57 986.75 Q1085.42 988.086 1082.11 988.787 Q1078.8 989.487 1075.39 989.487 Q1066.86 989.487 1061.86 984.522 Q1056.9 979.556 1056.9 971.09 Q1056.9 962.337 1061.61 957.213 Q1066.35 952.057 1074.37 952.057 Q1081.57 952.057 1085.74 956.703 Q1089.94 961.319 1089.94 969.276 M1084.08 967.557 Q1084.02 962.751 1081.37 959.886 Q1078.76 957.022 1074.44 957.022 Q1069.53 957.022 1066.57 959.791 Q1063.65 962.56 1063.2 967.589 L1084.08 967.557 Z" fill="#000000" fill-rule="evenodd" fill-opacity="1" /><path clip-path="url(#clip530)" d="M1116.07 952.916 L1122.27 952.916 L1133.41 982.835 L1144.55 952.916 L1150.76 952.916 L1137.39 988.564 L1129.44 988.564 L1116.07 952.916 Z" fill="#000000" fill-rule="evenodd" fill-opacity="1" /><path clip-path="url(#clip530)" d="M1175.05 970.644 Q1167.95 970.644 1165.21 972.268 Q1162.47 973.891 1162.47 977.806 Q1162.47 980.925 1164.51 982.771 Q1166.58 984.585 1170.11 984.585 Q1174.98 984.585 1177.91 981.148 Q1180.87 977.678 1180.87 971.949 L1180.87 970.644 L1175.05 970.644 M1186.73 968.225 L1186.73 988.564 L1180.87 988.564 L1180.87 983.153 Q1178.87 986.4 1175.87 987.959 Q1172.88 989.487 1168.55 989.487 Q1163.08 989.487 1159.83 986.431 Q1156.62 983.344 1156.62 978.188 Q1156.62 972.172 1160.63 969.117 Q1164.67 966.061 1172.66 966.061 L1180.87 966.061 L1180.87 965.488 Q1180.87 961.446 1178.2 959.25 Q1175.56 957.022 1170.75 957.022 Q1167.69 957.022 1164.8 957.754 Q1161.9 958.486 1159.23 959.95 L1159.23 954.539 Q1162.44 953.298 1165.47 952.693 Q1168.49 952.057 1171.35 952.057 Q1179.09 952.057 1182.91 956.067 Q1186.73 960.077 1186.73 968.225 Z" fill="#000000" fill-rule="evenodd" fill-opacity="1" /><path clip-path="url(#clip530)" d="M1198.79 939.039 L1204.65 939.039 L1204.65 988.564 L1198.79 988.564 L1198.79 939.039 Z" fill="#000000" fill-rule="evenodd" fill-opacity="1" /><path clip-path="url(#clip530)" d="M1216.3 974.496 L1216.3 952.916 L1222.15 952.916 L1222.15 974.273 Q1222.15 979.334 1224.13 981.88 Q1226.1 984.394 1230.05 984.394 Q1234.79 984.394 1237.53 981.371 Q1240.29 978.347 1240.29 973.127 L1240.29 952.916 L1246.15 952.916 L1246.15 988.564 L1240.29 988.564 L1240.29 983.089 Q1238.16 986.336 1235.33 987.927 Q1232.53 989.487 1228.8 989.487 Q1222.66 989.487 1219.48 985.667 Q1216.3 981.848 1216.3 974.496 M1231.03 952.057 L1231.03 952.057 Z" fill="#000000" fill-rule="evenodd" fill-opacity="1" /><path clip-path="url(#clip530)" d="M1288.71 969.276 L1288.71 972.14 L1261.78 972.14 Q1262.16 978.188 1265.41 981.371 Q1268.69 984.522 1274.51 984.522 Q1277.88 984.522 1281.03 983.694 Q1284.22 982.867 1287.34 981.211 L1287.34 986.75 Q1284.19 988.086 1280.88 988.787 Q1277.57 989.487 1274.16 989.487 Q1265.63 989.487 1260.63 984.522 Q1255.67 979.556 1255.67 971.09 Q1255.67 962.337 1260.38 957.213 Q1265.12 952.057 1273.14 952.057 Q1280.33 952.057 1284.5 956.703 Q1288.71 961.319 1288.71 969.276 M1282.85 967.557 Q1282.79 962.751 1280.14 959.886 Q1277.53 957.022 1273.21 957.022 Q1268.3 957.022 1265.34 959.791 Q1262.42 962.56 1261.97 967.589 L1282.85 967.557 Z" fill="#000000" fill-rule="evenodd" fill-opacity="1" /><polyline clip-path="url(#clip532)" style="stroke:#000000; stroke-linecap:butt; stroke-linejoin:round; stroke-width:2; stroke-opacity:0.1; fill:none" points="
  189.241,834.104 1952.76,834.104 
  "/>
<polyline clip-path="url(#clip532)" style="stroke:#000000; stroke-linecap:butt; stroke-linejoin:round; stroke-width:2; stroke-opacity:0.1; fill:none" points="
  189.241,677.728 1952.76,677.728 
  "/>
<polyline clip-path="url(#clip532)" style="stroke:#000000; stroke-linecap:butt; stroke-linejoin:round; stroke-width:2; stroke-opacity:0.1; fill:none" points="
  189.241,521.351 1952.76,521.351 
  "/>
<polyline clip-path="url(#clip532)" style="stroke:#000000; stroke-linecap:butt; stroke-linejoin:round; stroke-width:2; stroke-opacity:0.1; fill:none" points="
  189.241,364.975 1952.76,364.975 
  "/>
<polyline clip-path="url(#clip532)" style="stroke:#000000; stroke-linecap:butt; stroke-linejoin:round; stroke-width:2; stroke-opacity:0.1; fill:none" points="
  189.241,208.598 1952.76,208.598 
  "/>
<polyline clip-path="url(#clip530)" style="stroke:#000000; stroke-linecap:butt; stroke-linejoin:round; stroke-width:4; stroke-opacity:1; fill:none" points="
  189.241,849.7 189.241,108.352 
  "/>
<polyline clip-path="url(#clip530)" style="stroke:#000000; stroke-linecap:butt; stroke-linejoin:round; stroke-width:4; stroke-opacity:1; fill:none" points="
  189.241,834.104 208.139,834.104 
  "/>
<polyline clip-path="url(#clip530)" style="stroke:#000000; stroke-linecap:butt; stroke-linejoin:round; stroke-width:4; stroke-opacity:1; fill:none" points="
  189.241,677.728 208.139,677.728 
  "/>
<polyline clip-path="url(#clip530)" style="stroke:#000000; stroke-linecap:butt; stroke-linejoin:round; stroke-width:4; stroke-opacity:1; fill:none" points="
  189.241,521.351 208.139,521.351 
  "/>
<polyline clip-path="url(#clip530)" style="stroke:#000000; stroke-linecap:butt; stroke-linejoin:round; stroke-width:4; stroke-opacity:1; fill:none" points="
  189.241,364.975 208.139,364.975 
  "/>
<polyline clip-path="url(#clip530)" style="stroke:#000000; stroke-linecap:butt; stroke-linejoin:round; stroke-width:4; stroke-opacity:1; fill:none" points="
  189.241,208.598 208.139,208.598 
  "/>
<path clip-path="url(#clip530)" d="M147.297 819.903 Q143.686 819.903 141.857 823.468 Q140.051 827.009 140.051 834.139 Q140.051 841.245 141.857 844.81 Q143.686 848.352 147.297 848.352 Q150.931 848.352 152.736 844.81 Q154.565 841.245 154.565 834.139 Q154.565 827.009 152.736 823.468 Q150.931 819.903 147.297 819.903 M147.297 816.199 Q153.107 816.199 156.162 820.806 Q159.241 825.389 159.241 834.139 Q159.241 842.866 156.162 847.472 Q153.107 852.056 147.297 852.056 Q141.486 852.056 138.408 847.472 Q135.352 842.866 135.352 834.139 Q135.352 825.389 138.408 820.806 Q141.486 816.199 147.297 816.199 Z" fill="#000000" fill-rule="evenodd" fill-opacity="1" /><path clip-path="url(#clip530)" d="M111.163 691.073 L127.482 691.073 L127.482 695.008 L105.538 695.008 L105.538 691.073 Q108.2 688.318 112.783 683.688 Q117.389 679.036 118.57 677.693 Q120.815 675.17 121.695 673.434 Q122.598 671.675 122.598 669.985 Q122.598 667.23 120.653 665.494 Q118.732 663.758 115.63 663.758 Q113.431 663.758 110.977 664.522 Q108.547 665.286 105.769 666.837 L105.769 662.114 Q108.593 660.98 111.047 660.401 Q113.5 659.823 115.538 659.823 Q120.908 659.823 124.102 662.508 Q127.297 665.193 127.297 669.684 Q127.297 671.813 126.487 673.735 Q125.699 675.633 123.593 678.225 Q123.014 678.897 119.912 682.114 Q116.811 685.309 111.163 691.073 Z" fill="#000000" fill-rule="evenodd" fill-opacity="1" /><path clip-path="url(#clip530)" d="M147.297 663.526 Q143.686 663.526 141.857 667.091 Q140.051 670.633 140.051 677.762 Q140.051 684.869 141.857 688.434 Q143.686 691.975 147.297 691.975 Q150.931 691.975 152.736 688.434 Q154.565 684.869 154.565 677.762 Q154.565 670.633 152.736 667.091 Q150.931 663.526 147.297 663.526 M147.297 659.823 Q153.107 659.823 156.162 664.429 Q159.241 669.013 159.241 677.762 Q159.241 686.489 156.162 691.096 Q153.107 695.679 147.297 695.679 Q141.486 695.679 138.408 691.096 Q135.352 686.489 135.352 677.762 Q135.352 669.013 138.408 664.429 Q141.486 659.823 147.297 659.823 Z" fill="#000000" fill-rule="evenodd" fill-opacity="1" /><path clip-path="url(#clip530)" d="M119.982 508.145 L108.176 526.594 L119.982 526.594 L119.982 508.145 M118.755 504.071 L124.635 504.071 L124.635 526.594 L129.565 526.594 L129.565 530.483 L124.635 530.483 L124.635 538.631 L119.982 538.631 L119.982 530.483 L104.38 530.483 L104.38 525.969 L118.755 504.071 Z" fill="#000000" fill-rule="evenodd" fill-opacity="1" /><path clip-path="url(#clip530)" d="M147.297 507.15 Q143.686 507.15 141.857 510.715 Q140.051 514.256 140.051 521.386 Q140.051 528.492 141.857 532.057 Q143.686 535.599 147.297 535.599 Q150.931 535.599 152.736 532.057 Q154.565 528.492 154.565 521.386 Q154.565 514.256 152.736 510.715 Q150.931 507.15 147.297 507.15 M147.297 503.446 Q153.107 503.446 156.162 508.053 Q159.241 512.636 159.241 521.386 Q159.241 530.113 156.162 534.719 Q153.107 539.303 147.297 539.303 Q141.486 539.303 138.408 534.719 Q135.352 530.113 135.352 521.386 Q135.352 512.636 138.408 508.053 Q141.486 503.446 147.297 503.446 Z" fill="#000000" fill-rule="evenodd" fill-opacity="1" /><path clip-path="url(#clip530)" d="M117.713 363.111 Q114.565 363.111 112.713 365.264 Q110.885 367.417 110.885 371.167 Q110.885 374.894 112.713 377.07 Q114.565 379.222 117.713 379.222 Q120.862 379.222 122.69 377.07 Q124.542 374.894 124.542 371.167 Q124.542 367.417 122.69 365.264 Q120.862 363.111 117.713 363.111 M126.996 348.459 L126.996 352.718 Q125.237 351.885 123.431 351.445 Q121.649 351.005 119.889 351.005 Q115.26 351.005 112.806 354.13 Q110.375 357.255 110.028 363.574 Q111.394 361.56 113.454 360.496 Q115.514 359.408 117.991 359.408 Q123.2 359.408 126.209 362.579 Q129.241 365.727 129.241 371.167 Q129.241 376.491 126.093 379.708 Q122.945 382.926 117.713 382.926 Q111.718 382.926 108.547 378.343 Q105.376 373.736 105.376 365.009 Q105.376 356.815 109.264 351.954 Q113.153 347.07 119.704 347.07 Q121.463 347.07 123.246 347.417 Q125.051 347.764 126.996 348.459 Z" fill="#000000" fill-rule="evenodd" fill-opacity="1" /><path clip-path="url(#clip530)" d="M147.297 350.773 Q143.686 350.773 141.857 354.338 Q140.051 357.88 140.051 365.009 Q140.051 372.116 141.857 375.681 Q143.686 379.222 147.297 379.222 Q150.931 379.222 152.736 375.681 Q154.565 372.116 154.565 365.009 Q154.565 357.88 152.736 354.338 Q150.931 350.773 147.297 350.773 M147.297 347.07 Q153.107 347.07 156.162 351.676 Q159.241 356.26 159.241 365.009 Q159.241 373.736 156.162 378.343 Q153.107 382.926 147.297 382.926 Q141.486 382.926 138.408 378.343 Q135.352 373.736 135.352 365.009 Q135.352 356.26 138.408 351.676 Q141.486 347.07 147.297 347.07 Z" fill="#000000" fill-rule="evenodd" fill-opacity="1" /><path clip-path="url(#clip530)" d="M117.135 209.466 Q113.801 209.466 111.88 211.249 Q109.982 213.031 109.982 216.156 Q109.982 219.281 111.88 221.063 Q113.801 222.846 117.135 222.846 Q120.468 222.846 122.389 221.063 Q124.311 219.258 124.311 216.156 Q124.311 213.031 122.389 211.249 Q120.491 209.466 117.135 209.466 M112.459 207.476 Q109.45 206.735 107.76 204.675 Q106.093 202.615 106.093 199.652 Q106.093 195.508 109.033 193.101 Q111.996 190.693 117.135 190.693 Q122.297 190.693 125.237 193.101 Q128.176 195.508 128.176 199.652 Q128.176 202.615 126.487 204.675 Q124.82 206.735 121.834 207.476 Q125.213 208.263 127.088 210.554 Q128.987 212.846 128.987 216.156 Q128.987 221.179 125.908 223.864 Q122.852 226.55 117.135 226.55 Q111.417 226.55 108.338 223.864 Q105.283 221.179 105.283 216.156 Q105.283 212.846 107.181 210.554 Q109.079 208.263 112.459 207.476 M110.746 200.091 Q110.746 202.777 112.413 204.281 Q114.102 205.786 117.135 205.786 Q120.144 205.786 121.834 204.281 Q123.547 202.777 123.547 200.091 Q123.547 197.406 121.834 195.902 Q120.144 194.397 117.135 194.397 Q114.102 194.397 112.413 195.902 Q110.746 197.406 110.746 200.091 Z" fill="#000000" fill-rule="evenodd" fill-opacity="1" /><path clip-path="url(#clip530)" d="M147.297 194.397 Q143.686 194.397 141.857 197.962 Q140.051 201.503 140.051 208.633 Q140.051 215.739 141.857 219.304 Q143.686 222.846 147.297 222.846 Q150.931 222.846 152.736 219.304 Q154.565 215.739 154.565 208.633 Q154.565 201.503 152.736 197.962 Q150.931 194.397 147.297 194.397 M147.297 190.693 Q153.107 190.693 156.162 195.3 Q159.241 199.883 159.241 208.633 Q159.241 217.36 156.162 221.966 Q153.107 226.55 147.297 226.55 Q141.486 226.55 138.408 221.966 Q135.352 217.36 135.352 208.633 Q135.352 199.883 138.408 195.3 Q141.486 190.693 147.297 190.693 Z" fill="#000000" fill-rule="evenodd" fill-opacity="1" /><path clip-path="url(#clip530)" d="M17.8877 592.336 L54.8406 592.336 L54.8406 584.569 Q54.8406 574.734 50.3846 570.183 Q45.9286 565.6 36.3164 565.6 Q26.7679 565.6 22.3437 570.183 Q17.8877 574.734 17.8877 584.569 L17.8877 592.336 M12.6042 598.765 L12.6042 585.556 Q12.6042 571.743 18.3651 565.281 Q24.0943 558.82 36.3164 558.82 Q48.6022 558.82 54.3632 565.313 Q60.1242 571.806 60.1242 585.556 L60.1242 598.765 L12.6042 598.765 Z" fill="#000000" fill-rule="evenodd" fill-opacity="1" /><path clip-path="url(#clip530)" d="M40.8361 518.334 L43.7006 518.334 L43.7006 545.261 Q49.7481 544.879 52.9309 541.633 Q56.0819 538.354 56.0819 532.53 Q56.0819 529.156 55.2544 526.005 Q54.4269 522.822 52.7718 519.703 L58.3099 519.703 Q59.6467 522.854 60.347 526.164 Q61.0472 529.474 61.0472 532.88 Q61.0472 541.41 56.0819 546.407 Q51.1167 551.372 42.6503 551.372 Q33.8974 551.372 28.7731 546.662 Q23.6168 541.919 23.6168 533.898 Q23.6168 526.705 28.2638 522.536 Q32.8789 518.334 40.8361 518.334 M39.1173 524.191 Q34.3112 524.254 31.4466 526.896 Q28.5821 529.506 28.5821 533.835 Q28.5821 538.736 31.3512 541.696 Q34.1202 544.625 39.1492 545.07 L39.1173 524.191 Z" fill="#000000" fill-rule="evenodd" fill-opacity="1" /><path clip-path="url(#clip530)" d="M38.6081 479.09 L60.1242 479.09 L60.1242 484.946 L38.799 484.946 Q33.7383 484.946 31.2238 486.919 Q28.7094 488.893 28.7094 492.84 Q28.7094 497.582 31.7331 500.319 Q34.7568 503.057 39.9767 503.057 L60.1242 503.057 L60.1242 508.945 L24.4762 508.945 L24.4762 503.057 L30.0144 503.057 Q26.7997 500.956 25.2083 498.123 Q23.6168 495.259 23.6168 491.535 Q23.6168 485.392 27.4363 482.241 Q31.2238 479.09 38.6081 479.09 Z" fill="#000000" fill-rule="evenodd" fill-opacity="1" /><path clip-path="url(#clip530)" d="M25.5265 444.683 L31.0647 444.683 Q29.7916 447.166 29.155 449.839 Q28.5184 452.513 28.5184 455.377 Q28.5184 459.738 29.8552 461.934 Q31.192 464.098 33.8656 464.098 Q35.9026 464.098 37.0803 462.539 Q38.2261 460.979 39.2765 456.269 L39.7221 454.263 Q41.0589 448.025 43.5097 445.415 Q45.9286 442.773 50.2891 442.773 Q55.2544 442.773 58.1508 446.72 Q61.0472 450.635 61.0472 457.51 Q61.0472 460.374 60.4743 463.494 Q59.9332 466.581 58.8192 470.019 L52.7718 470.019 Q54.4587 466.772 55.318 463.621 Q56.1456 460.47 56.1456 457.383 Q56.1456 453.245 54.7451 451.017 Q53.3129 448.789 50.7347 448.789 Q48.3476 448.789 47.0745 450.412 Q45.8013 452.004 44.6237 457.446 L44.1462 459.483 Q43.0004 464.926 40.6451 467.345 Q38.258 469.764 34.1202 469.764 Q29.0913 469.764 26.3541 466.199 Q23.6168 462.634 23.6168 456.078 Q23.6168 452.831 24.0943 449.967 Q24.5717 447.102 25.5265 444.683 Z" fill="#000000" fill-rule="evenodd" fill-opacity="1" /><path clip-path="url(#clip530)" d="M24.4762 433.448 L24.4762 427.591 L60.1242 427.591 L60.1242 433.448 L24.4762 433.448 M10.599 433.448 L10.599 427.591 L18.015 427.591 L18.015 433.448 L10.599 433.448 Z" fill="#000000" fill-rule="evenodd" fill-opacity="1" /><path clip-path="url(#clip530)" d="M14.3547 409.544 L24.4762 409.544 L24.4762 397.481 L29.0277 397.481 L29.0277 409.544 L48.3794 409.544 Q52.7399 409.544 53.9813 408.367 Q55.2226 407.157 55.2226 403.497 L55.2226 397.481 L60.1242 397.481 L60.1242 403.497 Q60.1242 410.276 57.6097 412.854 Q55.0634 415.433 48.3794 415.433 L29.0277 415.433 L29.0277 419.729 L24.4762 419.729 L24.4762 415.433 L14.3547 415.433 L14.3547 409.544 Z" fill="#000000" fill-rule="evenodd" fill-opacity="1" /><path clip-path="url(#clip530)" d="M63.4343 374.947 Q69.8 377.429 71.7416 379.785 Q73.6831 382.14 73.6831 386.087 L73.6831 390.765 L68.7815 390.765 L68.7815 387.328 Q68.7815 384.909 67.6357 383.572 Q66.4899 382.235 62.2248 380.612 L59.5512 379.562 L24.4762 393.98 L24.4762 387.774 L52.358 376.634 L24.4762 365.494 L24.4762 359.287 L63.4343 374.947 Z" fill="#000000" fill-rule="evenodd" fill-opacity="1" /><path clip-path="url(#clip530)" d="M1056.44 48.0275 L1056.44 51.6733 L1022.16 51.6733 Q1022.65 59.3701 1026.78 63.421 Q1030.96 67.4314 1038.37 67.4314 Q1042.66 67.4314 1046.67 66.3781 Q1050.72 65.3249 1054.69 63.2184 L1054.69 70.267 Q1050.68 71.9684 1046.47 72.8596 Q1042.26 73.7508 1037.92 73.7508 Q1027.07 73.7508 1020.71 67.4314 Q1014.39 61.1119 1014.39 50.3365 Q1014.39 39.1965 1020.38 32.6746 Q1026.42 26.1121 1036.63 26.1121 Q1045.78 26.1121 1051.09 32.0264 Q1056.44 37.9003 1056.44 48.0275 M1048.98 45.84 Q1048.9 39.7232 1045.54 36.0774 Q1042.22 32.4315 1036.71 32.4315 Q1030.47 32.4315 1026.7 35.9558 Q1022.97 39.4801 1022.41 45.8805 L1048.98 45.84 Z" fill="#000000" fill-rule="evenodd" fill-opacity="1" /><path clip-path="url(#clip530)" d="M1094.96 34.1734 Q1093.7 33.4443 1092.2 33.1202 Q1090.75 32.7556 1088.96 32.7556 Q1082.64 32.7556 1079.24 36.8875 Q1075.88 40.9789 1075.88 48.6757 L1075.88 72.576 L1068.39 72.576 L1068.39 27.2059 L1075.88 27.2059 L1075.88 34.2544 Q1078.23 30.1225 1082 28.1376 Q1085.76 26.1121 1091.15 26.1121 Q1091.92 26.1121 1092.85 26.2337 Q1093.78 26.3147 1094.92 26.5172 L1094.96 34.1734 Z" fill="#000000" fill-rule="evenodd" fill-opacity="1" /><path clip-path="url(#clip530)" d="M1127.61 34.1734 Q1126.35 33.4443 1124.86 33.1202 Q1123.4 32.7556 1121.61 32.7556 Q1115.3 32.7556 1111.89 36.8875 Q1108.53 40.9789 1108.53 48.6757 L1108.53 72.576 L1101.04 72.576 L1101.04 27.2059 L1108.53 27.2059 L1108.53 34.2544 Q1110.88 30.1225 1114.65 28.1376 Q1118.41 26.1121 1123.8 26.1121 Q1124.57 26.1121 1125.5 26.2337 Q1126.44 26.3147 1127.57 26.5172 L1127.61 34.1734 Z" fill="#000000" fill-rule="evenodd" fill-opacity="1" /><polyline clip-path="url(#clip532)" style="stroke:#009af9; stroke-linecap:butt; stroke-linejoin:round; stroke-width:4; stroke-opacity:1; fill:none" points="
  239.152,821.161 249.447,819.25 259.742,817.084 270.037,814.619 280.332,811.809 290.627,808.613 300.922,804.997 311.218,800.937 321.513,796.423 331.808,791.458 
  342.103,786.056 352.398,780.234 362.693,774.012 372.988,767.399 383.283,760.391 393.579,752.961 403.874,745.063 414.169,736.63 424.464,727.587 434.759,717.857 
  445.054,707.385 455.349,696.144 465.644,684.156 475.939,671.488 486.235,658.254 496.53,644.599 506.825,630.677 517.12,616.622 527.415,602.52 537.71,588.385 
  548.005,574.146 558.3,559.644 568.596,544.656 578.891,528.916 589.186,512.166 599.481,494.191 609.776,474.867 620.071,454.195 630.366,432.313 640.661,409.503 
  650.956,386.171 661.252,362.816 671.547,339.986 681.842,318.233 692.137,298.059 702.432,279.879 712.727,263.984 723.022,250.521 733.317,239.487 743.613,230.739 
  753.908,224.012 764.203,218.954 774.498,215.157 784.793,212.204 795.088,209.699 805.383,207.306 815.678,204.766 825.974,201.919 836.269,198.702 846.564,195.151 
  856.859,191.386 867.154,187.598 877.449,184.028 887.744,180.946 898.039,178.627 908.334,177.337 918.63,177.305 928.925,178.718 939.22,181.698 949.515,186.304 
  959.81,192.531 970.105,200.311 980.4,209.535 990.695,220.065 1000.99,231.757 1011.29,244.485 1021.58,258.148 1031.88,272.687 1042.17,288.076 1052.47,304.315 
  1062.76,321.408 1073.06,339.341 1083.35,358.063 1093.65,377.463 1103.94,397.369 1114.24,417.547 1124.53,437.717 1134.83,457.577 1145.12,476.831 1155.42,495.217 
  1165.71,512.535 1176.01,528.657 1186.3,543.54 1196.6,557.217 1206.89,569.782 1217.19,581.371 1227.48,592.137 1237.78,602.23 1248.07,611.777 1258.37,620.876 
  1268.66,629.594 1278.96,637.976 1289.25,646.053 1299.55,653.855 1309.84,661.422 1320.14,668.807 1330.43,676.072 1340.73,683.286 1351.02,690.508 1361.32,697.78 
  1371.61,705.114 1381.91,712.488 1392.2,719.849 1402.5,727.119 1412.8,734.206 1423.09,741.014 1433.39,747.458 1443.68,753.471 1453.98,759.008 1464.27,764.046 
  1474.57,768.58 1484.86,772.623 1495.16,776.193 1505.45,779.317 1515.75,782.021 1526.04,784.333 1536.34,786.28 1546.63,787.891 1556.93,789.196 1567.22,790.227 
  1577.52,791.018 1587.81,791.605 1598.11,792.028 1608.4,792.328 1618.7,792.546 1628.99,792.728 1639.29,792.921 1649.58,793.173 1659.88,793.532 1670.17,794.046 
  1680.47,794.758 1690.76,795.706 1701.06,796.917 1711.35,798.408 1721.65,800.178 1731.94,802.216 1742.24,804.491 1752.53,806.96 
  "/>
<polyline clip-path="url(#clip532)" style="stroke:#e26f46; stroke-linecap:butt; stroke-linejoin:round; stroke-width:4; stroke-opacity:1; fill:none" points="
  274.505,824.735 285.147,823.323 295.79,821.643 306.433,819.617 317.076,817.168 327.718,814.228 338.361,810.745 349.004,806.681 359.647,802.014 370.289,796.725 
  380.932,790.791 391.575,784.174 402.218,776.812 412.86,768.616 423.503,759.479 434.146,749.287 444.789,737.942 455.431,725.383 466.074,711.618 476.717,696.734 
  487.36,680.917 498.002,664.443 508.645,647.665 519.288,630.986 529.931,614.815 540.573,599.516 551.216,585.367 561.859,572.505 572.502,560.904 583.144,550.358 
  593.787,540.496 604.43,530.817 615.073,520.746 625.715,509.708 636.358,497.195 647.001,482.835 657.644,466.439 668.286,448.023 678.929,427.812 689.572,406.211 
  700.215,383.761 710.857,361.085 721.5,338.826 732.143,317.591 742.786,297.893 753.428,280.119 764.071,264.498 774.714,251.093 785.357,239.803 795.999,230.387 
  806.642,222.493 817.285,215.701 827.928,209.567 838.57,203.671 849.213,197.66 859.856,191.273 870.499,184.373 881.141,176.944 891.784,169.102 902.427,161.07 
  913.07,153.165 923.712,145.767 934.355,139.287 944.998,134.138 955.641,130.707 966.283,129.334 976.926,130.296 987.569,133.803 998.212,139.993 1008.85,148.935 
  1019.5,160.633 1030.14,175.02 1040.78,191.961 1051.43,211.249 1062.07,232.603 1072.71,255.676 1083.35,280.06 1094,305.313 1104.64,330.977 1115.28,356.614 
  1125.92,381.828 1136.57,406.292 1147.21,429.762 1157.85,452.081 1168.5,473.171 1179.14,493.02 1189.78,511.663 1200.42,529.158 1211.07,545.569 1221.71,560.951 
  1232.35,575.344 1242.99,588.773 1253.64,601.254 1264.28,612.802 1274.92,623.445 1285.57,633.23 1296.21,642.231 1306.85,650.55 1317.49,658.31 1328.14,665.649 
  1338.78,672.707 1349.42,679.613 1360.06,686.471 1370.71,693.346 1381.35,700.266 1391.99,707.21 1402.64,714.125 1413.28,720.929 1423.92,727.534 1434.56,733.859 
  1445.21,739.85 1455.85,745.489 1466.49,750.793 1477.14,755.811 1487.78,760.602 1498.42,765.22 1509.06,769.692 1519.71,774.003 1530.35,778.099 1540.99,781.888 
  1551.63,785.261 1562.28,788.114 1572.92,790.377 1583.56,792.026 1594.21,793.104 1604.85,793.713 1615.49,794.004 1626.13,794.161 1636.78,794.369 1647.42,794.799 
  1658.06,795.581 1668.7,796.796 1679.35,798.469 1689.99,800.574 1700.63,803.046 1711.28,805.79 1721.92,808.698 1732.56,811.658 1743.2,814.565 1753.85,817.328 
  1764.49,819.868 1775.13,822.126 1785.77,824.06 1796.42,825.645 1807.06,826.875 1817.7,827.76 1828.35,828.33 1838.99,828.63 1849.63,828.718 1860.27,828.663 
  1870.92,828.534 1881.56,828.401 1892.2,828.321 1902.85,828.34 
  "/>
<polyline clip-path="url(#clip532)" style="stroke:#3da44d; stroke-linecap:butt; stroke-linejoin:round; stroke-width:4; stroke-opacity:1; fill:none" points="
  337.441,818.346 348.052,815.441 358.663,811.985 369.273,807.887 379.884,803.06 390.494,797.436 401.105,790.972 411.715,783.659 422.326,775.522 432.936,766.62 
  443.547,757.035 454.157,746.863 464.768,736.194 475.378,725.099 485.989,713.607 496.599,701.7 507.21,689.306 517.82,676.298 528.431,662.513 539.041,647.767 
  549.652,631.884 560.262,614.724 570.873,596.206 581.483,576.335 592.094,555.21 602.705,533.026 613.315,510.063 623.926,486.666 634.536,463.217 645.147,440.103 
  655.757,417.688 666.368,396.284 676.978,376.138 687.589,357.419 698.199,340.221 708.81,324.561 719.42,310.398 730.031,297.64 740.641,286.161 751.252,275.813 
  761.862,266.44 772.473,257.895 783.083,250.048 793.694,242.802 804.304,236.102 814.915,229.948 825.526,224.395 836.136,219.553 846.747,215.581 857.357,212.669 
  867.968,211.018 878.578,210.815 889.189,212.207 899.799,215.275 910.41,220.016 921.02,226.328 931.631,234.012 942.241,242.776 952.852,252.251 963.462,262.018 
  974.073,271.633 984.683,280.663 995.294,288.718 1005.9,295.482 1016.51,300.739 1027.13,304.397 1037.74,306.497 1048.35,307.219 1058.96,306.873 1069.57,305.879 
  1080.18,304.744 1090.79,304.018 1101.4,304.258 1112.01,305.982 1122.62,309.633 1133.23,315.537 1143.84,323.882 1154.45,334.705 1165.06,347.888 1175.67,363.17 
  1186.28,380.17 1196.89,398.424 1207.5,417.424 1218.11,436.664 1228.73,455.689 1239.34,474.129 1249.95,491.734 1260.56,508.383 1271.17,524.086 1281.78,538.964 
  1292.39,553.217 1303,567.082 1313.61,580.792 1324.22,594.532 1334.83,608.419 1345.44,622.481 1356.05,636.659 1366.66,650.822 1377.27,664.793 1387.88,678.373 
  1398.49,691.374 1409.1,703.64 1419.71,715.06 1430.33,725.581 1440.94,735.198 1451.55,743.951 1462.16,751.911 1472.77,759.163 1483.38,765.795 1493.99,771.884 
  1504.6,777.492 1515.21,782.66 1525.82,787.409 1536.43,791.74 1547.04,795.644 1557.65,799.105 1568.26,802.111 1578.87,804.655 1589.48,806.743 1600.09,808.398 
  1610.7,809.66 1621.31,810.58 1631.93,811.222 1642.54,811.653 1653.15,811.94 1663.76,812.143 1674.37,812.308 1684.98,812.47 1695.59,812.646 1706.2,812.841 
  1716.81,813.05 1727.42,813.26 1738.03,813.458 1748.64,813.633 1759.25,813.78 1769.86,813.903 1780.47,814.015 1791.08,814.134 1801.69,814.285 1812.3,814.497 
  1822.91,814.795 1833.53,815.204 1844.14,815.741 1854.75,816.417 1865.36,817.235 1875.97,818.189 1886.58,819.265 1897.19,820.445 
  "/>
</svg>
