<?xml version="1.0" encoding="utf-8"?>
<svg xmlns="http://www.w3.org/2000/svg" xmlns:xlink="http://www.w3.org/1999/xlink" width="600" height="400" viewBox="0 0 2400 1600">
<defs>
  <clipPath id="clip940">
    <rect x="0" y="0" width="2400" height="1600"/>
  </clipPath>
</defs>
<path clip-path="url(#clip940)" d="
M0 1600 L2400 1600 L2400 0 L0 0  Z
  " fill="#ffffff" fill-rule="evenodd" fill-opacity="1"/>
<defs>
  <clipPath id="clip941">
    <rect x="480" y="0" width="1681" height="1600"/>
  </clipPath>
</defs>
<path clip-path="url(#clip940)" d="
M112.177 1486.45 L2352.76 1486.45 L2352.76 123.472 L112.177 123.472  Z
  " fill="#ffffff" fill-rule="evenodd" fill-opacity="1"/>
<defs>
  <clipPath id="clip942">
    <rect x="112" y="123" width="2242" height="1364"/>
  </clipPath>
</defs>
<polyline clip-path="url(#clip942)" style="stroke:#000000; stroke-linecap:butt; stroke-linejoin:round; stroke-width:2; stroke-opacity:0.1; fill:none" points="
  338.186,1486.45 338.186,123.472 
  "/>
<polyline clip-path="url(#clip942)" style="stroke:#000000; stroke-linecap:butt; stroke-linejoin:round; stroke-width:2; stroke-opacity:0.1; fill:none" points="
  744.677,1486.45 744.677,123.472 
  "/>
<polyline clip-path="url(#clip942)" style="stroke:#000000; stroke-linecap:butt; stroke-linejoin:round; stroke-width:2; stroke-opacity:0.1; fill:none" points="
  1151.17,1486.45 1151.17,123.472 
  "/>
<polyline clip-path="url(#clip942)" style="stroke:#000000; stroke-linecap:butt; stroke-linejoin:round; stroke-width:2; stroke-opacity:0.1; fill:none" points="
  1557.66,1486.45 1557.66,123.472 
  "/>
<polyline clip-path="url(#clip942)" style="stroke:#000000; stroke-linecap:butt; stroke-linejoin:round; stroke-width:2; stroke-opacity:0.1; fill:none" points="
  1964.15,1486.45 1964.15,123.472 
  "/>
<polyline clip-path="url(#clip940)" style="stroke:#000000; stroke-linecap:butt; stroke-linejoin:round; stroke-width:4; stroke-opacity:1; fill:none" points="
  112.177,1486.45 2352.76,1486.45 
  "/>
<polyline clip-path="url(#clip940)" style="stroke:#000000; stroke-linecap:butt; stroke-linejoin:round; stroke-width:4; stroke-opacity:1; fill:none" points="
  338.186,1486.45 338.186,1467.55 
  "/>
<polyline clip-path="url(#clip940)" style="stroke:#000000; stroke-linecap:butt; stroke-linejoin:round; stroke-width:4; stroke-opacity:1; fill:none" points="
  744.677,1486.45 744.677,1467.55 
  "/>
<polyline clip-path="url(#clip940)" style="stroke:#000000; stroke-linecap:butt; stroke-linejoin:round; stroke-width:4; stroke-opacity:1; fill:none" points="
  1151.17,1486.45 1151.17,1467.55 
  "/>
<polyline clip-path="url(#clip940)" style="stroke:#000000; stroke-linecap:butt; stroke-linejoin:round; stroke-width:4; stroke-opacity:1; fill:none" points="
  1557.66,1486.45 1557.66,1467.55 
  "/>
<polyline clip-path="url(#clip940)" style="stroke:#000000; stroke-linecap:butt; stroke-linejoin:round; stroke-width:4; stroke-opacity:1; fill:none" points="
  1964.15,1486.45 1964.15,1467.55 
  "/>
<path clip-path="url(#clip940)" d="M283.21 1544.91 L290.848 1544.91 L290.848 1518.55 L282.538 1520.21 L282.538 1515.95 L290.802 1514.29 L295.478 1514.29 L295.478 1544.91 L303.117 1544.91 L303.117 1548.85 L283.21 1548.85 L283.21 1544.91 Z" fill="#000000" fill-rule="evenodd" fill-opacity="1" /><path clip-path="url(#clip940)" d="M312.7 1548.13 L312.7 1543.87 Q314.459 1544.7 316.265 1545.14 Q318.071 1545.58 319.807 1545.58 Q324.436 1545.58 326.867 1542.48 Q329.321 1539.36 329.668 1533.01 Q328.325 1535.01 326.265 1536.07 Q324.205 1537.13 321.705 1537.13 Q316.52 1537.13 313.487 1534.01 Q310.478 1530.86 310.478 1525.42 Q310.478 1520.1 313.626 1516.88 Q316.774 1513.66 322.006 1513.66 Q328.001 1513.66 331.149 1518.27 Q334.32 1522.85 334.32 1531.6 Q334.32 1539.77 330.432 1544.66 Q326.566 1549.52 320.015 1549.52 Q318.256 1549.52 316.45 1549.17 Q314.645 1548.82 312.7 1548.13 M322.006 1533.48 Q325.154 1533.48 326.983 1531.32 Q328.834 1529.17 328.834 1525.42 Q328.834 1521.7 326.983 1519.54 Q325.154 1517.37 322.006 1517.37 Q318.858 1517.37 317.006 1519.54 Q315.177 1521.7 315.177 1525.42 Q315.177 1529.17 317.006 1531.32 Q318.858 1533.48 322.006 1533.48 Z" fill="#000000" fill-rule="evenodd" fill-opacity="1" /><path clip-path="url(#clip940)" d="M342.862 1548.13 L342.862 1543.87 Q344.621 1544.7 346.427 1545.14 Q348.232 1545.58 349.969 1545.58 Q354.598 1545.58 357.029 1542.48 Q359.482 1539.36 359.83 1533.01 Q358.487 1535.01 356.427 1536.07 Q354.367 1537.13 351.867 1537.13 Q346.682 1537.13 343.649 1534.01 Q340.64 1530.86 340.64 1525.42 Q340.64 1520.1 343.788 1516.88 Q346.936 1513.66 352.168 1513.66 Q358.163 1513.66 361.311 1518.27 Q364.482 1522.85 364.482 1531.6 Q364.482 1539.77 360.593 1544.66 Q356.728 1549.52 350.177 1549.52 Q348.418 1549.52 346.612 1549.17 Q344.807 1548.82 342.862 1548.13 M352.168 1533.48 Q355.316 1533.48 357.144 1531.32 Q358.996 1529.17 358.996 1525.42 Q358.996 1521.7 357.144 1519.54 Q355.316 1517.37 352.168 1517.37 Q349.019 1517.37 347.168 1519.54 Q345.339 1521.7 345.339 1525.42 Q345.339 1529.17 347.168 1531.32 Q349.019 1533.48 352.168 1533.48 Z" fill="#000000" fill-rule="evenodd" fill-opacity="1" /><path clip-path="url(#clip940)" d="M372.931 1514.29 L391.288 1514.29 L391.288 1518.22 L377.214 1518.22 L377.214 1526.7 Q378.232 1526.35 379.251 1526.19 Q380.269 1526 381.288 1526 Q387.075 1526 390.454 1529.17 Q393.834 1532.34 393.834 1537.76 Q393.834 1543.34 390.362 1546.44 Q386.89 1549.52 380.57 1549.52 Q378.394 1549.52 376.126 1549.15 Q373.88 1548.78 371.473 1548.04 L371.473 1543.34 Q373.556 1544.47 375.779 1545.03 Q378.001 1545.58 380.478 1545.58 Q384.482 1545.58 386.82 1543.48 Q389.158 1541.37 389.158 1537.76 Q389.158 1534.15 386.82 1532.04 Q384.482 1529.94 380.478 1529.94 Q378.603 1529.94 376.728 1530.35 Q374.876 1530.77 372.931 1531.65 L372.931 1514.29 Z" fill="#000000" fill-rule="evenodd" fill-opacity="1" /><path clip-path="url(#clip940)" d="M693.289 1544.91 L709.608 1544.91 L709.608 1548.85 L687.664 1548.85 L687.664 1544.91 Q690.326 1542.16 694.909 1537.53 Q699.515 1532.88 700.696 1531.53 Q702.941 1529.01 703.821 1527.27 Q704.724 1525.51 704.724 1523.82 Q704.724 1521.07 702.779 1519.33 Q700.858 1517.6 697.756 1517.6 Q695.557 1517.6 693.103 1518.36 Q690.673 1519.13 687.895 1520.68 L687.895 1515.95 Q690.719 1514.82 693.173 1514.24 Q695.627 1513.66 697.664 1513.66 Q703.034 1513.66 706.228 1516.35 Q709.423 1519.03 709.423 1523.52 Q709.423 1525.65 708.613 1527.57 Q707.826 1529.47 705.719 1532.07 Q705.14 1532.74 702.039 1535.95 Q698.937 1539.15 693.289 1544.91 Z" fill="#000000" fill-rule="evenodd" fill-opacity="1" /><path clip-path="url(#clip940)" d="M729.423 1517.37 Q725.812 1517.37 723.983 1520.93 Q722.177 1524.47 722.177 1531.6 Q722.177 1538.71 723.983 1542.27 Q725.812 1545.82 729.423 1545.82 Q733.057 1545.82 734.863 1542.27 Q736.691 1538.71 736.691 1531.6 Q736.691 1524.47 734.863 1520.93 Q733.057 1517.37 729.423 1517.37 M729.423 1513.66 Q735.233 1513.66 738.288 1518.27 Q741.367 1522.85 741.367 1531.6 Q741.367 1540.33 738.288 1544.94 Q735.233 1549.52 729.423 1549.52 Q723.613 1549.52 720.534 1544.94 Q717.478 1540.33 717.478 1531.6 Q717.478 1522.85 720.534 1518.27 Q723.613 1513.66 729.423 1513.66 Z" fill="#000000" fill-rule="evenodd" fill-opacity="1" /><path clip-path="url(#clip940)" d="M759.585 1517.37 Q755.974 1517.37 754.145 1520.93 Q752.339 1524.47 752.339 1531.6 Q752.339 1538.71 754.145 1542.27 Q755.974 1545.82 759.585 1545.82 Q763.219 1545.82 765.024 1542.27 Q766.853 1538.71 766.853 1531.6 Q766.853 1524.47 765.024 1520.93 Q763.219 1517.37 759.585 1517.37 M759.585 1513.66 Q765.395 1513.66 768.45 1518.27 Q771.529 1522.85 771.529 1531.6 Q771.529 1540.33 768.45 1544.94 Q765.395 1549.52 759.585 1549.52 Q753.774 1549.52 750.696 1544.94 Q747.64 1540.33 747.64 1531.6 Q747.64 1522.85 750.696 1518.27 Q753.774 1513.66 759.585 1513.66 Z" fill="#000000" fill-rule="evenodd" fill-opacity="1" /><path clip-path="url(#clip940)" d="M789.746 1517.37 Q786.135 1517.37 784.307 1520.93 Q782.501 1524.47 782.501 1531.6 Q782.501 1538.71 784.307 1542.27 Q786.135 1545.82 789.746 1545.82 Q793.381 1545.82 795.186 1542.27 Q797.015 1538.71 797.015 1531.6 Q797.015 1524.47 795.186 1520.93 Q793.381 1517.37 789.746 1517.37 M789.746 1513.66 Q795.557 1513.66 798.612 1518.27 Q801.691 1522.85 801.691 1531.6 Q801.691 1540.33 798.612 1544.94 Q795.557 1549.52 789.746 1549.52 Q783.936 1549.52 780.858 1544.94 Q777.802 1540.33 777.802 1531.6 Q777.802 1522.85 780.858 1518.27 Q783.936 1513.66 789.746 1513.66 Z" fill="#000000" fill-rule="evenodd" fill-opacity="1" /><path clip-path="url(#clip940)" d="M1100.28 1544.91 L1116.6 1544.91 L1116.6 1548.85 L1094.65 1548.85 L1094.65 1544.91 Q1097.31 1542.16 1101.9 1537.53 Q1106.5 1532.88 1107.68 1531.53 Q1109.93 1529.01 1110.81 1527.27 Q1111.71 1525.51 1111.71 1523.82 Q1111.71 1521.07 1109.77 1519.33 Q1107.85 1517.6 1104.74 1517.6 Q1102.55 1517.6 1100.09 1518.36 Q1097.66 1519.13 1094.88 1520.68 L1094.88 1515.95 Q1097.71 1514.82 1100.16 1514.24 Q1102.62 1513.66 1104.65 1513.66 Q1110.02 1513.66 1113.22 1516.35 Q1116.41 1519.03 1116.41 1523.52 Q1116.41 1525.65 1115.6 1527.57 Q1114.81 1529.47 1112.71 1532.07 Q1112.13 1532.74 1109.03 1535.95 Q1105.93 1539.15 1100.28 1544.91 Z" fill="#000000" fill-rule="evenodd" fill-opacity="1" /><path clip-path="url(#clip940)" d="M1136.41 1517.37 Q1132.8 1517.37 1130.97 1520.93 Q1129.17 1524.47 1129.17 1531.6 Q1129.17 1538.71 1130.97 1542.27 Q1132.8 1545.82 1136.41 1545.82 Q1140.05 1545.82 1141.85 1542.27 Q1143.68 1538.71 1143.68 1531.6 Q1143.68 1524.47 1141.85 1520.93 Q1140.05 1517.37 1136.41 1517.37 M1136.41 1513.66 Q1142.22 1513.66 1145.28 1518.27 Q1148.36 1522.85 1148.36 1531.6 Q1148.36 1540.33 1145.28 1544.94 Q1142.22 1549.52 1136.41 1549.52 Q1130.6 1549.52 1127.52 1544.94 Q1124.47 1540.33 1124.47 1531.6 Q1124.47 1522.85 1127.52 1518.27 Q1130.6 1513.66 1136.41 1513.66 Z" fill="#000000" fill-rule="evenodd" fill-opacity="1" /><path clip-path="url(#clip940)" d="M1166.57 1517.37 Q1162.96 1517.37 1161.13 1520.93 Q1159.33 1524.47 1159.33 1531.6 Q1159.33 1538.71 1161.13 1542.27 Q1162.96 1545.82 1166.57 1545.82 Q1170.21 1545.82 1172.01 1542.27 Q1173.84 1538.71 1173.84 1531.6 Q1173.84 1524.47 1172.01 1520.93 Q1170.21 1517.37 1166.57 1517.37 M1166.57 1513.66 Q1172.38 1513.66 1175.44 1518.27 Q1178.52 1522.85 1178.52 1531.6 Q1178.52 1540.33 1175.44 1544.94 Q1172.38 1549.52 1166.57 1549.52 Q1160.76 1549.52 1157.68 1544.94 Q1154.63 1540.33 1154.63 1531.6 Q1154.63 1522.85 1157.68 1518.27 Q1160.76 1513.66 1166.57 1513.66 Z" fill="#000000" fill-rule="evenodd" fill-opacity="1" /><path clip-path="url(#clip940)" d="M1186.78 1514.29 L1205.14 1514.29 L1205.14 1518.22 L1191.06 1518.22 L1191.06 1526.7 Q1192.08 1526.35 1193.1 1526.19 Q1194.12 1526 1195.14 1526 Q1200.93 1526 1204.3 1529.17 Q1207.68 1532.34 1207.68 1537.76 Q1207.68 1543.34 1204.21 1546.44 Q1200.74 1549.52 1194.42 1549.52 Q1192.24 1549.52 1189.98 1549.15 Q1187.73 1548.78 1185.32 1548.04 L1185.32 1543.34 Q1187.41 1544.47 1189.63 1545.03 Q1191.85 1545.58 1194.33 1545.58 Q1198.33 1545.58 1200.67 1543.48 Q1203.01 1541.37 1203.01 1537.76 Q1203.01 1534.15 1200.67 1532.04 Q1198.33 1529.94 1194.33 1529.94 Q1192.45 1529.94 1190.58 1530.35 Q1188.73 1530.77 1186.78 1531.65 L1186.78 1514.29 Z" fill="#000000" fill-rule="evenodd" fill-opacity="1" /><path clip-path="url(#clip940)" d="M1506.27 1544.91 L1522.59 1544.91 L1522.59 1548.85 L1500.65 1548.85 L1500.65 1544.91 Q1503.31 1542.16 1507.89 1537.53 Q1512.5 1532.88 1513.68 1531.53 Q1515.92 1529.01 1516.8 1527.27 Q1517.71 1525.51 1517.71 1523.82 Q1517.71 1521.07 1515.76 1519.33 Q1513.84 1517.6 1510.74 1517.6 Q1508.54 1517.6 1506.09 1518.36 Q1503.66 1519.13 1500.88 1520.68 L1500.88 1515.95 Q1503.7 1514.82 1506.16 1514.24 Q1508.61 1513.66 1510.65 1513.66 Q1516.02 1513.66 1519.21 1516.35 Q1522.4 1519.03 1522.4 1523.52 Q1522.4 1525.65 1521.59 1527.57 Q1520.81 1529.47 1518.7 1532.07 Q1518.12 1532.74 1515.02 1535.95 Q1511.92 1539.15 1506.27 1544.91 Z" fill="#000000" fill-rule="evenodd" fill-opacity="1" /><path clip-path="url(#clip940)" d="M1542.4 1517.37 Q1538.79 1517.37 1536.97 1520.93 Q1535.16 1524.47 1535.16 1531.6 Q1535.16 1538.71 1536.97 1542.27 Q1538.79 1545.82 1542.4 1545.82 Q1546.04 1545.82 1547.84 1542.27 Q1549.67 1538.71 1549.67 1531.6 Q1549.67 1524.47 1547.84 1520.93 Q1546.04 1517.37 1542.4 1517.37 M1542.4 1513.66 Q1548.21 1513.66 1551.27 1518.27 Q1554.35 1522.85 1554.35 1531.6 Q1554.35 1540.33 1551.27 1544.94 Q1548.21 1549.52 1542.4 1549.52 Q1536.59 1549.52 1533.52 1544.94 Q1530.46 1540.33 1530.46 1531.6 Q1530.46 1522.85 1533.52 1518.27 Q1536.59 1513.66 1542.4 1513.66 Z" fill="#000000" fill-rule="evenodd" fill-opacity="1" /><path clip-path="url(#clip940)" d="M1563.38 1544.91 L1571.02 1544.91 L1571.02 1518.55 L1562.71 1520.21 L1562.71 1515.95 L1570.97 1514.29 L1575.65 1514.29 L1575.65 1544.91 L1583.28 1544.91 L1583.28 1548.85 L1563.38 1548.85 L1563.38 1544.91 Z" fill="#000000" fill-rule="evenodd" fill-opacity="1" /><path clip-path="url(#clip940)" d="M1602.73 1517.37 Q1599.12 1517.37 1597.29 1520.93 Q1595.48 1524.47 1595.48 1531.6 Q1595.48 1538.71 1597.29 1542.27 Q1599.12 1545.82 1602.73 1545.82 Q1606.36 1545.82 1608.17 1542.27 Q1610 1538.71 1610 1531.6 Q1610 1524.47 1608.17 1520.93 Q1606.36 1517.37 1602.73 1517.37 M1602.73 1513.66 Q1608.54 1513.66 1611.59 1518.27 Q1614.67 1522.85 1614.67 1531.6 Q1614.67 1540.33 1611.59 1544.94 Q1608.54 1549.52 1602.73 1549.52 Q1596.92 1549.52 1593.84 1544.94 Q1590.78 1540.33 1590.78 1531.6 Q1590.78 1522.85 1593.84 1518.27 Q1596.92 1513.66 1602.73 1513.66 Z" fill="#000000" fill-rule="evenodd" fill-opacity="1" /><path clip-path="url(#clip940)" d="M1913.26 1544.91 L1929.58 1544.91 L1929.58 1548.85 L1907.63 1548.85 L1907.63 1544.91 Q1910.3 1542.16 1914.88 1537.53 Q1919.49 1532.88 1920.67 1531.53 Q1922.91 1529.01 1923.79 1527.27 Q1924.69 1525.51 1924.69 1523.82 Q1924.69 1521.07 1922.75 1519.33 Q1920.83 1517.6 1917.73 1517.6 Q1915.53 1517.6 1913.07 1518.36 Q1910.64 1519.13 1907.87 1520.68 L1907.87 1515.95 Q1910.69 1514.82 1913.14 1514.24 Q1915.6 1513.66 1917.63 1513.66 Q1923 1513.66 1926.2 1516.35 Q1929.39 1519.03 1929.39 1523.52 Q1929.39 1525.65 1928.58 1527.57 Q1927.8 1529.47 1925.69 1532.07 Q1925.11 1532.74 1922.01 1535.95 Q1918.91 1539.15 1913.26 1544.91 Z" fill="#000000" fill-rule="evenodd" fill-opacity="1" /><path clip-path="url(#clip940)" d="M1949.39 1517.37 Q1945.78 1517.37 1943.95 1520.93 Q1942.15 1524.47 1942.15 1531.6 Q1942.15 1538.71 1943.95 1542.27 Q1945.78 1545.82 1949.39 1545.82 Q1953.03 1545.82 1954.83 1542.27 Q1956.66 1538.71 1956.66 1531.6 Q1956.66 1524.47 1954.83 1520.93 Q1953.03 1517.37 1949.39 1517.37 M1949.39 1513.66 Q1955.2 1513.66 1958.26 1518.27 Q1961.34 1522.85 1961.34 1531.6 Q1961.34 1540.33 1958.26 1544.94 Q1955.2 1549.52 1949.39 1549.52 Q1943.58 1549.52 1940.5 1544.94 Q1937.45 1540.33 1937.45 1531.6 Q1937.45 1522.85 1940.5 1518.27 Q1943.58 1513.66 1949.39 1513.66 Z" fill="#000000" fill-rule="evenodd" fill-opacity="1" /><path clip-path="url(#clip940)" d="M1970.37 1544.91 L1978 1544.91 L1978 1518.55 L1969.69 1520.21 L1969.69 1515.95 L1977.96 1514.29 L1982.63 1514.29 L1982.63 1544.91 L1990.27 1544.91 L1990.27 1548.85 L1970.37 1548.85 L1970.37 1544.91 Z" fill="#000000" fill-rule="evenodd" fill-opacity="1" /><path clip-path="url(#clip940)" d="M1999.76 1514.29 L2018.12 1514.29 L2018.12 1518.22 L2004.05 1518.22 L2004.05 1526.7 Q2005.06 1526.35 2006.08 1526.19 Q2007.1 1526 2008.12 1526 Q2013.91 1526 2017.29 1529.17 Q2020.67 1532.34 2020.67 1537.76 Q2020.67 1543.34 2017.19 1546.44 Q2013.72 1549.52 2007.4 1549.52 Q2005.23 1549.52 2002.96 1549.15 Q2000.71 1548.78 1998.31 1548.04 L1998.31 1543.34 Q2000.39 1544.47 2002.61 1545.03 Q2004.83 1545.58 2007.31 1545.58 Q2011.31 1545.58 2013.65 1543.48 Q2015.99 1541.37 2015.99 1537.76 Q2015.99 1534.15 2013.65 1532.04 Q2011.31 1529.94 2007.31 1529.94 Q2005.43 1529.94 2003.56 1530.35 Q2001.71 1530.77 1999.76 1531.65 L1999.76 1514.29 Z" fill="#000000" fill-rule="evenodd" fill-opacity="1" /><polyline clip-path="url(#clip942)" style="stroke:#000000; stroke-linecap:butt; stroke-linejoin:round; stroke-width:2; stroke-opacity:0.1; fill:none" points="
  112.177,1447.87 2352.76,1447.87 
  "/>
<polyline clip-path="url(#clip942)" style="stroke:#000000; stroke-linecap:butt; stroke-linejoin:round; stroke-width:2; stroke-opacity:0.1; fill:none" points="
  112.177,1202.42 2352.76,1202.42 
  "/>
<polyline clip-path="url(#clip942)" style="stroke:#000000; stroke-linecap:butt; stroke-linejoin:round; stroke-width:2; stroke-opacity:0.1; fill:none" points="
  112.177,956.968 2352.76,956.968 
  "/>
<polyline clip-path="url(#clip942)" style="stroke:#000000; stroke-linecap:butt; stroke-linejoin:round; stroke-width:2; stroke-opacity:0.1; fill:none" points="
  112.177,711.515 2352.76,711.515 
  "/>
<polyline clip-path="url(#clip942)" style="stroke:#000000; stroke-linecap:butt; stroke-linejoin:round; stroke-width:2; stroke-opacity:0.1; fill:none" points="
  112.177,466.062 2352.76,466.062 
  "/>
<polyline clip-path="url(#clip942)" style="stroke:#000000; stroke-linecap:butt; stroke-linejoin:round; stroke-width:2; stroke-opacity:0.1; fill:none" points="
  112.177,220.609 2352.76,220.609 
  "/>
<polyline clip-path="url(#clip940)" style="stroke:#000000; stroke-linecap:butt; stroke-linejoin:round; stroke-width:4; stroke-opacity:1; fill:none" points="
  112.177,1486.45 112.177,123.472 
  "/>
<polyline clip-path="url(#clip940)" style="stroke:#000000; stroke-linecap:butt; stroke-linejoin:round; stroke-width:4; stroke-opacity:1; fill:none" points="
  112.177,1447.87 131.075,1447.87 
  "/>
<polyline clip-path="url(#clip940)" style="stroke:#000000; stroke-linecap:butt; stroke-linejoin:round; stroke-width:4; stroke-opacity:1; fill:none" points="
  112.177,1202.42 131.075,1202.42 
  "/>
<polyline clip-path="url(#clip940)" style="stroke:#000000; stroke-linecap:butt; stroke-linejoin:round; stroke-width:4; stroke-opacity:1; fill:none" points="
  112.177,956.968 131.075,956.968 
  "/>
<polyline clip-path="url(#clip940)" style="stroke:#000000; stroke-linecap:butt; stroke-linejoin:round; stroke-width:4; stroke-opacity:1; fill:none" points="
  112.177,711.515 131.075,711.515 
  "/>
<polyline clip-path="url(#clip940)" style="stroke:#000000; stroke-linecap:butt; stroke-linejoin:round; stroke-width:4; stroke-opacity:1; fill:none" points="
  112.177,466.062 131.075,466.062 
  "/>
<polyline clip-path="url(#clip940)" style="stroke:#000000; stroke-linecap:butt; stroke-linejoin:round; stroke-width:4; stroke-opacity:1; fill:none" points="
  112.177,220.609 131.075,220.609 
  "/>
<path clip-path="url(#clip940)" d="M64.2328 1433.67 Q60.6217 1433.67 58.793 1437.24 Q56.9875 1440.78 56.9875 1447.91 Q56.9875 1455.01 58.793 1458.58 Q60.6217 1462.12 64.2328 1462.12 Q67.867 1462.12 69.6726 1458.58 Q71.5013 1455.01 71.5013 1447.91 Q71.5013 1440.78 69.6726 1437.24 Q67.867 1433.67 64.2328 1433.67 M64.2328 1429.97 Q70.0429 1429.97 73.0985 1434.57 Q76.1772 1439.16 76.1772 1447.91 Q76.1772 1456.63 73.0985 1461.24 Q70.0429 1465.82 64.2328 1465.82 Q58.4226 1465.82 55.344 1461.24 Q52.2884 1456.63 52.2884 1447.91 Q52.2884 1439.16 55.344 1434.57 Q58.4226 1429.97 64.2328 1429.97 Z" fill="#000000" fill-rule="evenodd" fill-opacity="1" /><path clip-path="url(#clip940)" d="M56.2699 1215.77 L63.9087 1215.77 L63.9087 1189.4 L55.5986 1191.07 L55.5986 1186.81 L63.8624 1185.14 L68.5383 1185.14 L68.5383 1215.77 L76.1772 1215.77 L76.1772 1219.7 L56.2699 1219.7 L56.2699 1215.77 Z" fill="#000000" fill-rule="evenodd" fill-opacity="1" /><path clip-path="url(#clip940)" d="M59.8578 970.312 L76.1772 970.312 L76.1772 974.248 L54.2328 974.248 L54.2328 970.312 Q56.8949 967.558 61.4782 962.928 Q66.0846 958.275 67.2652 956.933 Q69.5105 954.41 70.3902 952.674 Q71.2929 950.914 71.2929 949.225 Q71.2929 946.47 69.3485 944.734 Q67.4272 942.998 64.3254 942.998 Q62.1263 942.998 59.6726 943.762 Q57.2421 944.525 54.4643 946.076 L54.4643 941.354 Q57.2884 940.22 59.7421 939.641 Q62.1958 939.063 64.2328 939.063 Q69.6031 939.063 72.7976 941.748 Q75.992 944.433 75.992 948.924 Q75.992 951.053 75.1818 952.975 Q74.3948 954.873 72.2883 957.465 Q71.7096 958.137 68.6078 961.354 Q65.5059 964.549 59.8578 970.312 Z" fill="#000000" fill-rule="evenodd" fill-opacity="1" /><path clip-path="url(#clip940)" d="M69.0476 710.161 Q72.404 710.878 74.279 713.147 Q76.1772 715.415 76.1772 718.749 Q76.1772 723.864 72.6587 726.665 Q69.1402 729.466 62.6587 729.466 Q60.4828 729.466 58.168 729.026 Q55.8764 728.61 53.4227 727.753 L53.4227 723.239 Q55.3671 724.373 57.6819 724.952 Q59.9967 725.531 62.5198 725.531 Q66.918 725.531 69.2096 723.795 Q71.5244 722.059 71.5244 718.749 Q71.5244 715.693 69.3717 713.98 Q67.242 712.244 63.4226 712.244 L59.3949 712.244 L59.3949 708.401 L63.6078 708.401 Q67.0569 708.401 68.8855 707.036 Q70.7142 705.647 70.7142 703.054 Q70.7142 700.392 68.8161 698.98 Q66.9411 697.545 63.4226 697.545 Q61.5013 697.545 59.3023 697.962 Q57.1032 698.378 54.4643 699.258 L54.4643 695.091 Q57.1264 694.351 59.4412 693.98 Q61.7791 693.61 63.8393 693.61 Q69.1633 693.61 72.2652 696.04 Q75.367 698.448 75.367 702.568 Q75.367 705.438 73.7235 707.429 Q72.08 709.397 69.0476 710.161 Z" fill="#000000" fill-rule="evenodd" fill-opacity="1" /><path clip-path="url(#clip940)" d="M66.5939 452.856 L54.7884 471.305 L66.5939 471.305 L66.5939 452.856 M65.367 448.782 L71.2466 448.782 L71.2466 471.305 L76.1772 471.305 L76.1772 475.194 L71.2466 475.194 L71.2466 483.342 L66.5939 483.342 L66.5939 475.194 L50.9921 475.194 L50.9921 470.68 L65.367 448.782 Z" fill="#000000" fill-rule="evenodd" fill-opacity="1" /><path clip-path="url(#clip940)" d="M55.2745 203.329 L73.6309 203.329 L73.6309 207.264 L59.5569 207.264 L59.5569 215.737 Q60.5754 215.389 61.5939 215.227 Q62.6124 215.042 63.6309 215.042 Q69.418 215.042 72.7976 218.213 Q76.1772 221.385 76.1772 226.801 Q76.1772 232.38 72.705 235.482 Q69.2328 238.561 62.9134 238.561 Q60.7374 238.561 58.4689 238.19 Q56.2236 237.82 53.8162 237.079 L53.8162 232.38 Q55.8995 233.514 58.1217 234.07 Q60.3439 234.625 62.8208 234.625 Q66.8254 234.625 69.1633 232.519 Q71.5013 230.412 71.5013 226.801 Q71.5013 223.19 69.1633 221.084 Q66.8254 218.977 62.8208 218.977 Q60.9458 218.977 59.0708 219.394 Q57.2189 219.811 55.2745 220.69 L55.2745 203.329 Z" fill="#000000" fill-rule="evenodd" fill-opacity="1" /><path clip-path="url(#clip940)" d="M610.957 20.1573 L599.857 50.2555 L622.097 50.2555 L610.957 20.1573 M606.339 12.096 L615.615 12.096 L638.665 72.576 L630.158 72.576 L624.649 57.061 L597.386 57.061 L591.877 72.576 L583.248 72.576 L606.339 12.096 Z" fill="#000000" fill-rule="evenodd" fill-opacity="1" /><path clip-path="url(#clip940)" d="M646.402 54.671 L646.402 27.2059 L653.856 27.2059 L653.856 54.3874 Q653.856 60.8284 656.367 64.0691 Q658.879 67.2693 663.902 67.2693 Q669.938 67.2693 673.422 63.421 Q676.946 59.5726 676.946 52.9291 L676.946 27.2059 L684.399 27.2059 L684.399 72.576 L676.946 72.576 L676.946 65.6084 Q674.232 69.7404 670.626 71.7658 Q667.062 73.7508 662.322 73.7508 Q654.504 73.7508 650.453 68.8897 Q646.402 64.0286 646.402 54.671 M665.158 26.1121 L665.158 26.1121 Z" fill="#000000" fill-rule="evenodd" fill-opacity="1" /><path clip-path="url(#clip940)" d="M728.676 28.5427 L728.676 35.5912 Q725.516 33.9709 722.113 33.1607 Q718.711 32.3505 715.065 32.3505 Q709.515 32.3505 706.72 34.0519 Q703.965 35.7533 703.965 39.156 Q703.965 41.7486 705.95 43.2475 Q707.935 44.7058 713.931 46.0426 L716.483 46.6097 Q724.422 48.3111 727.744 51.4303 Q731.106 54.509 731.106 60.0587 Q731.106 66.3781 726.083 70.0644 Q721.101 73.7508 712.351 73.7508 Q708.705 73.7508 704.735 73.0216 Q700.806 72.3329 696.431 70.9151 L696.431 63.2184 Q700.563 65.3654 704.573 66.4591 Q708.583 67.5124 712.513 67.5124 Q717.779 67.5124 720.615 65.73 Q723.45 63.9071 723.45 60.6258 Q723.45 57.5877 721.384 55.9673 Q719.359 54.3469 712.432 52.8481 L709.839 52.2405 Q702.912 50.7821 699.833 47.7845 Q696.755 44.7463 696.755 39.4801 Q696.755 33.0797 701.292 29.5959 Q705.829 26.1121 714.174 26.1121 Q718.306 26.1121 721.951 26.7198 Q725.597 27.3274 728.676 28.5427 Z" fill="#000000" fill-rule="evenodd" fill-opacity="1" /><path clip-path="url(#clip940)" d="M750.348 14.324 L750.348 27.2059 L765.701 27.2059 L765.701 32.9987 L750.348 32.9987 L750.348 57.6282 Q750.348 63.1779 751.847 64.7578 Q753.386 66.3376 758.045 66.3376 L765.701 66.3376 L765.701 72.576 L758.045 72.576 Q749.416 72.576 746.135 69.3758 Q742.854 66.1351 742.854 57.6282 L742.854 32.9987 L737.385 32.9987 L737.385 27.2059 L742.854 27.2059 L742.854 14.324 L750.348 14.324 Z" fill="#000000" fill-rule="evenodd" fill-opacity="1" /><path clip-path="url(#clip940)" d="M801.795 34.1734 Q800.539 33.4443 799.04 33.1202 Q797.582 32.7556 795.799 32.7556 Q789.48 32.7556 786.077 36.8875 Q782.715 40.9789 782.715 48.6757 L782.715 72.576 L775.221 72.576 L775.221 27.2059 L782.715 27.2059 L782.715 34.2544 Q785.064 30.1225 788.832 28.1376 Q792.599 26.1121 797.987 26.1121 Q798.756 26.1121 799.688 26.2337 Q800.62 26.3147 801.754 26.5172 L801.795 34.1734 Z" fill="#000000" fill-rule="evenodd" fill-opacity="1" /><path clip-path="url(#clip940)" d="M830.232 49.7694 Q821.198 49.7694 817.715 51.8354 Q814.231 53.9013 814.231 58.8839 Q814.231 62.8538 816.824 65.2034 Q819.457 67.5124 823.953 67.5124 Q830.151 67.5124 833.878 63.1374 Q837.645 58.7219 837.645 51.4303 L837.645 49.7694 L830.232 49.7694 M845.099 46.6907 L845.099 72.576 L837.645 72.576 L837.645 65.6895 Q835.093 69.8214 831.285 71.8063 Q827.477 73.7508 821.968 73.7508 Q815.001 73.7508 810.869 69.8619 Q806.777 65.9325 806.777 59.3701 Q806.777 51.7138 811.881 47.825 Q817.026 43.9361 827.194 43.9361 L837.645 43.9361 L837.645 43.2069 Q837.645 38.0623 834.242 35.2672 Q830.88 32.4315 824.763 32.4315 Q820.874 32.4315 817.188 33.3632 Q813.502 34.295 810.099 36.1584 L810.099 29.2718 Q814.19 27.692 818.039 26.9223 Q821.887 26.1121 825.533 26.1121 Q835.377 26.1121 840.238 31.2163 Q845.099 36.3204 845.099 46.6907 Z" fill="#000000" fill-rule="evenodd" fill-opacity="1" /><path clip-path="url(#clip940)" d="M860.452 9.54393 L867.905 9.54393 L867.905 72.576 L860.452 72.576 L860.452 9.54393 Z" fill="#000000" fill-rule="evenodd" fill-opacity="1" /><path clip-path="url(#clip940)" d="M883.501 27.2059 L890.955 27.2059 L890.955 72.576 L883.501 72.576 L883.501 27.2059 M883.501 9.54393 L890.955 9.54393 L890.955 18.9825 L883.501 18.9825 L883.501 9.54393 Z" fill="#000000" fill-rule="evenodd" fill-opacity="1" /><path clip-path="url(#clip940)" d="M927.17 49.7694 Q918.137 49.7694 914.653 51.8354 Q911.169 53.9013 911.169 58.8839 Q911.169 62.8538 913.762 65.2034 Q916.395 67.5124 920.891 67.5124 Q927.089 67.5124 930.816 63.1374 Q934.583 58.7219 934.583 51.4303 L934.583 49.7694 L927.17 49.7694 M942.037 46.6907 L942.037 72.576 L934.583 72.576 L934.583 65.6895 Q932.031 69.8214 928.223 71.8063 Q924.416 73.7508 918.906 73.7508 Q911.939 73.7508 907.807 69.8619 Q903.715 65.9325 903.715 59.3701 Q903.715 51.7138 908.82 47.825 Q913.964 43.9361 924.132 43.9361 L934.583 43.9361 L934.583 43.2069 Q934.583 38.0623 931.181 35.2672 Q927.818 32.4315 921.701 32.4315 Q917.813 32.4315 914.126 33.3632 Q910.44 34.295 907.037 36.1584 L907.037 29.2718 Q911.129 27.692 914.977 26.9223 Q918.825 26.1121 922.471 26.1121 Q932.315 26.1121 937.176 31.2163 Q942.037 36.3204 942.037 46.6907 Z" fill="#000000" fill-rule="evenodd" fill-opacity="1" /><path clip-path="url(#clip940)" d="M984.085 12.096 L992.268 12.096 L992.268 36.8875 L1022 36.8875 L1022 12.096 L1030.18 12.096 L1030.18 72.576 L1022 72.576 L1022 43.7741 L992.268 43.7741 L992.268 72.576 L984.085 72.576 L984.085 12.096 Z" fill="#000000" fill-rule="evenodd" fill-opacity="1" /><path clip-path="url(#clip940)" d="M1063.73 32.4315 Q1057.73 32.4315 1054.25 37.1306 Q1050.76 41.7891 1050.76 49.9314 Q1050.76 58.0738 1054.21 62.7728 Q1057.69 67.4314 1063.73 67.4314 Q1069.68 67.4314 1073.16 62.7323 Q1076.65 58.0333 1076.65 49.9314 Q1076.65 41.8701 1073.16 37.1711 Q1069.68 32.4315 1063.73 32.4315 M1063.73 26.1121 Q1073.45 26.1121 1079 32.4315 Q1084.55 38.7509 1084.55 49.9314 Q1084.55 61.0714 1079 67.4314 Q1073.45 73.7508 1063.73 73.7508 Q1053.96 73.7508 1048.41 67.4314 Q1042.9 61.0714 1042.9 49.9314 Q1042.9 38.7509 1048.41 32.4315 Q1053.96 26.1121 1063.73 26.1121 Z" fill="#000000" fill-rule="evenodd" fill-opacity="1" /><path clip-path="url(#clip940)" d="M1132.23 35.9153 Q1135.02 30.8922 1138.91 28.5022 Q1142.8 26.1121 1148.07 26.1121 Q1155.16 26.1121 1159 31.0947 Q1162.85 36.0368 1162.85 45.1919 L1162.85 72.576 L1155.36 72.576 L1155.36 45.4349 Q1155.36 38.913 1153.05 35.7533 Q1150.74 32.5936 1146 32.5936 Q1140.21 32.5936 1136.84 36.4419 Q1133.48 40.2903 1133.48 46.9338 L1133.48 72.576 L1125.99 72.576 L1125.99 45.4349 Q1125.99 38.8725 1123.68 35.7533 Q1121.37 32.5936 1116.55 32.5936 Q1110.84 32.5936 1107.48 36.4824 Q1104.11 40.3308 1104.11 46.9338 L1104.11 72.576 L1096.62 72.576 L1096.62 27.2059 L1104.11 27.2059 L1104.11 34.2544 Q1106.67 30.082 1110.23 28.0971 Q1113.8 26.1121 1118.7 26.1121 Q1123.64 26.1121 1127.08 28.6237 Q1130.57 31.1352 1132.23 35.9153 Z" fill="#000000" fill-rule="evenodd" fill-opacity="1" /><path clip-path="url(#clip940)" d="M1177.72 27.2059 L1185.17 27.2059 L1185.17 72.576 L1177.72 72.576 L1177.72 27.2059 M1177.72 9.54393 L1185.17 9.54393 L1185.17 18.9825 L1177.72 18.9825 L1177.72 9.54393 Z" fill="#000000" fill-rule="evenodd" fill-opacity="1" /><path clip-path="url(#clip940)" d="M1233.42 28.9478 L1233.42 35.9153 Q1230.26 34.1734 1227.06 33.3227 Q1223.9 32.4315 1220.66 32.4315 Q1213.41 32.4315 1209.4 37.0496 Q1205.39 41.6271 1205.39 49.9314 Q1205.39 58.2358 1209.4 62.8538 Q1213.41 67.4314 1220.66 67.4314 Q1223.9 67.4314 1227.06 66.5807 Q1230.26 65.6895 1233.42 63.9476 L1233.42 70.8341 Q1230.3 72.2924 1226.94 73.0216 Q1223.62 73.7508 1219.85 73.7508 Q1209.6 73.7508 1203.56 67.3098 Q1197.53 60.8689 1197.53 49.9314 Q1197.53 38.832 1203.6 32.472 Q1209.72 26.1121 1220.33 26.1121 Q1223.78 26.1121 1227.06 26.8413 Q1230.34 27.5299 1233.42 28.9478 Z" fill="#000000" fill-rule="evenodd" fill-opacity="1" /><path clip-path="url(#clip940)" d="M1246.38 27.2059 L1253.84 27.2059 L1253.84 72.576 L1246.38 72.576 L1246.38 27.2059 M1246.38 9.54393 L1253.84 9.54393 L1253.84 18.9825 L1246.38 18.9825 L1246.38 9.54393 Z" fill="#000000" fill-rule="evenodd" fill-opacity="1" /><path clip-path="url(#clip940)" d="M1299.29 34.0924 L1299.29 9.54393 L1306.74 9.54393 L1306.74 72.576 L1299.29 72.576 L1299.29 65.7705 Q1296.94 69.8214 1293.33 71.8063 Q1289.77 73.7508 1284.74 73.7508 Q1276.52 73.7508 1271.33 67.1883 Q1266.19 60.6258 1266.19 49.9314 Q1266.19 39.2371 1271.33 32.6746 Q1276.52 26.1121 1284.74 26.1121 Q1289.77 26.1121 1293.33 28.0971 Q1296.94 30.0415 1299.29 34.0924 M1273.89 49.9314 Q1273.89 58.1548 1277.25 62.8538 Q1280.65 67.5124 1286.57 67.5124 Q1292.48 67.5124 1295.88 62.8538 Q1299.29 58.1548 1299.29 49.9314 Q1299.29 41.7081 1295.88 37.0496 Q1292.48 32.3505 1286.57 32.3505 Q1280.65 32.3505 1277.25 37.0496 Q1273.89 41.7081 1273.89 49.9314 Z" fill="#000000" fill-rule="evenodd" fill-opacity="1" /><path clip-path="url(#clip940)" d="M1360.9 48.0275 L1360.9 51.6733 L1326.63 51.6733 Q1327.12 59.3701 1331.25 63.421 Q1335.42 67.4314 1342.83 67.4314 Q1347.13 67.4314 1351.14 66.3781 Q1355.19 65.3249 1359.16 63.2184 L1359.16 70.267 Q1355.15 71.9684 1350.94 72.8596 Q1346.72 73.7508 1342.39 73.7508 Q1331.53 73.7508 1325.17 67.4314 Q1318.85 61.1119 1318.85 50.3365 Q1318.85 39.1965 1324.85 32.6746 Q1330.88 26.1121 1341.09 26.1121 Q1350.25 26.1121 1355.55 32.0264 Q1360.9 37.9003 1360.9 48.0275 M1353.45 45.84 Q1353.37 39.7232 1350 36.0774 Q1346.68 32.4315 1341.17 32.4315 Q1334.93 32.4315 1331.17 35.9558 Q1327.44 39.4801 1326.87 45.8805 L1353.45 45.84 Z" fill="#000000" fill-rule="evenodd" fill-opacity="1" /><path clip-path="url(#clip940)" d="M1420.12 49.7694 Q1411.09 49.7694 1407.61 51.8354 Q1404.12 53.9013 1404.12 58.8839 Q1404.12 62.8538 1406.72 65.2034 Q1409.35 67.5124 1413.85 67.5124 Q1420.04 67.5124 1423.77 63.1374 Q1427.54 58.7219 1427.54 51.4303 L1427.54 49.7694 L1420.12 49.7694 M1434.99 46.6907 L1434.99 72.576 L1427.54 72.576 L1427.54 65.6895 Q1424.99 69.8214 1421.18 71.8063 Q1417.37 73.7508 1411.86 73.7508 Q1404.89 73.7508 1400.76 69.8619 Q1396.67 65.9325 1396.67 59.3701 Q1396.67 51.7138 1401.77 47.825 Q1406.92 43.9361 1417.09 43.9361 L1427.54 43.9361 L1427.54 43.2069 Q1427.54 38.0623 1424.14 35.2672 Q1420.77 32.4315 1414.66 32.4315 Q1410.77 32.4315 1407.08 33.3632 Q1403.39 34.295 1399.99 36.1584 L1399.99 29.2718 Q1404.08 27.692 1407.93 26.9223 Q1411.78 26.1121 1415.43 26.1121 Q1425.27 26.1121 1430.13 31.2163 Q1434.99 36.3204 1434.99 46.6907 Z" fill="#000000" fill-rule="evenodd" fill-opacity="1" /><path clip-path="url(#clip940)" d="M1488.06 45.1919 L1488.06 72.576 L1480.6 72.576 L1480.6 45.4349 Q1480.6 38.994 1478.09 35.7938 Q1475.58 32.5936 1470.56 32.5936 Q1464.52 32.5936 1461.04 36.4419 Q1457.56 40.2903 1457.56 46.9338 L1457.56 72.576 L1450.06 72.576 L1450.06 27.2059 L1457.56 27.2059 L1457.56 34.2544 Q1460.23 30.163 1463.83 28.1376 Q1467.48 26.1121 1472.22 26.1121 Q1480.04 26.1121 1484.05 30.9732 Q1488.06 35.7938 1488.06 45.1919 Z" fill="#000000" fill-rule="evenodd" fill-opacity="1" /><path clip-path="url(#clip940)" d="M1532.78 34.0924 L1532.78 9.54393 L1540.23 9.54393 L1540.23 72.576 L1532.78 72.576 L1532.78 65.7705 Q1530.43 69.8214 1526.83 71.8063 Q1523.26 73.7508 1518.24 73.7508 Q1510.01 73.7508 1504.83 67.1883 Q1499.68 60.6258 1499.68 49.9314 Q1499.68 39.2371 1504.83 32.6746 Q1510.01 26.1121 1518.24 26.1121 Q1523.26 26.1121 1526.83 28.0971 Q1530.43 30.0415 1532.78 34.0924 M1507.38 49.9314 Q1507.38 58.1548 1510.74 62.8538 Q1514.15 67.5124 1520.06 67.5124 Q1525.97 67.5124 1529.38 62.8538 Q1532.78 58.1548 1532.78 49.9314 Q1532.78 41.7081 1529.38 37.0496 Q1525.97 32.3505 1520.06 32.3505 Q1514.15 32.3505 1510.74 37.0496 Q1507.38 41.7081 1507.38 49.9314 Z" fill="#000000" fill-rule="evenodd" fill-opacity="1" /><path clip-path="url(#clip940)" d="M1610.96 44.2197 Q1613.6 45.1109 1616.07 48.0275 Q1618.58 50.9442 1621.09 56.0483 L1629.39 72.576 L1620.6 72.576 L1612.87 57.061 Q1609.87 50.9847 1607.03 48.9997 Q1604.24 47.0148 1599.38 47.0148 L1590.47 47.0148 L1590.47 72.576 L1582.28 72.576 L1582.28 12.096 L1600.75 12.096 Q1611.12 12.096 1616.23 16.4305 Q1621.33 20.7649 1621.33 29.5149 Q1621.33 35.2267 1618.66 38.994 Q1616.03 42.7613 1610.96 44.2197 M1590.47 18.8205 L1590.47 40.2903 L1600.75 40.2903 Q1606.67 40.2903 1609.67 37.5762 Q1612.7 34.8216 1612.7 29.5149 Q1612.7 24.2082 1609.67 21.5346 Q1606.67 18.8205 1600.75 18.8205 L1590.47 18.8205 Z" fill="#000000" fill-rule="evenodd" fill-opacity="1" /><path clip-path="url(#clip940)" d="M1674.68 48.0275 L1674.68 51.6733 L1640.41 51.6733 Q1640.9 59.3701 1645.03 63.421 Q1649.2 67.4314 1656.62 67.4314 Q1660.91 67.4314 1664.92 66.3781 Q1668.97 65.3249 1672.94 63.2184 L1672.94 70.267 Q1668.93 71.9684 1664.72 72.8596 Q1660.51 73.7508 1656.17 73.7508 Q1645.31 73.7508 1638.95 67.4314 Q1632.64 61.1119 1632.64 50.3365 Q1632.64 39.1965 1638.63 32.6746 Q1644.67 26.1121 1654.87 26.1121 Q1664.03 26.1121 1669.34 32.0264 Q1674.68 37.9003 1674.68 48.0275 M1667.23 45.84 Q1667.15 39.7232 1663.79 36.0774 Q1660.46 32.4315 1654.96 32.4315 Q1648.72 32.4315 1644.95 35.9558 Q1641.22 39.4801 1640.66 45.8805 L1667.23 45.84 Z" fill="#000000" fill-rule="evenodd" fill-opacity="1" /><path clip-path="url(#clip940)" d="M1686.92 9.54393 L1694.37 9.54393 L1694.37 72.576 L1686.92 72.576 L1686.92 9.54393 Z" fill="#000000" fill-rule="evenodd" fill-opacity="1" /><path clip-path="url(#clip940)" d="M1730.59 49.7694 Q1721.55 49.7694 1718.07 51.8354 Q1714.58 53.9013 1714.58 58.8839 Q1714.58 62.8538 1717.18 65.2034 Q1719.81 67.5124 1724.31 67.5124 Q1730.5 67.5124 1734.23 63.1374 Q1738 58.7219 1738 51.4303 L1738 49.7694 L1730.59 49.7694 M1745.45 46.6907 L1745.45 72.576 L1738 72.576 L1738 65.6895 Q1735.45 69.8214 1731.64 71.8063 Q1727.83 73.7508 1722.32 73.7508 Q1715.35 73.7508 1711.22 69.8619 Q1707.13 65.9325 1707.13 59.3701 Q1707.13 51.7138 1712.24 47.825 Q1717.38 43.9361 1727.55 43.9361 L1738 43.9361 L1738 43.2069 Q1738 38.0623 1734.6 35.2672 Q1731.23 32.4315 1725.12 32.4315 Q1721.23 32.4315 1717.54 33.3632 Q1713.86 34.295 1710.45 36.1584 L1710.45 29.2718 Q1714.54 27.692 1718.39 26.9223 Q1722.24 26.1121 1725.89 26.1121 Q1735.73 26.1121 1740.59 31.2163 Q1745.45 36.3204 1745.45 46.6907 Z" fill="#000000" fill-rule="evenodd" fill-opacity="1" /><path clip-path="url(#clip940)" d="M1768.18 14.324 L1768.18 27.2059 L1783.53 27.2059 L1783.53 32.9987 L1768.18 32.9987 L1768.18 57.6282 Q1768.18 63.1779 1769.68 64.7578 Q1771.22 66.3376 1775.88 66.3376 L1783.53 66.3376 L1783.53 72.576 L1775.88 72.576 Q1767.25 72.576 1763.97 69.3758 Q1760.68 66.1351 1760.68 57.6282 L1760.68 32.9987 L1755.22 32.9987 L1755.22 27.2059 L1760.68 27.2059 L1760.68 14.324 L1768.18 14.324 Z" fill="#000000" fill-rule="evenodd" fill-opacity="1" /><path clip-path="url(#clip940)" d="M1832.14 48.0275 L1832.14 51.6733 L1797.87 51.6733 Q1798.36 59.3701 1802.49 63.421 Q1806.66 67.4314 1814.08 67.4314 Q1818.37 67.4314 1822.38 66.3781 Q1826.43 65.3249 1830.4 63.2184 L1830.4 70.267 Q1826.39 71.9684 1822.18 72.8596 Q1817.96 73.7508 1813.63 73.7508 Q1802.77 73.7508 1796.41 67.4314 Q1790.09 61.1119 1790.09 50.3365 Q1790.09 39.1965 1796.09 32.6746 Q1802.12 26.1121 1812.33 26.1121 Q1821.49 26.1121 1826.79 32.0264 Q1832.14 37.9003 1832.14 48.0275 M1824.69 45.84 Q1824.61 39.7232 1821.25 36.0774 Q1817.92 32.4315 1812.41 32.4315 Q1806.18 32.4315 1802.41 35.9558 Q1798.68 39.4801 1798.11 45.8805 L1824.69 45.84 Z" fill="#000000" fill-rule="evenodd" fill-opacity="1" /><path clip-path="url(#clip940)" d="M1874.23 34.0924 L1874.23 9.54393 L1881.68 9.54393 L1881.68 72.576 L1874.23 72.576 L1874.23 65.7705 Q1871.88 69.8214 1868.28 71.8063 Q1864.71 73.7508 1859.69 73.7508 Q1851.46 73.7508 1846.28 67.1883 Q1841.14 60.6258 1841.14 49.9314 Q1841.14 39.2371 1846.28 32.6746 Q1851.46 26.1121 1859.69 26.1121 Q1864.71 26.1121 1868.28 28.0971 Q1871.88 30.0415 1874.23 34.0924 M1848.83 49.9314 Q1848.83 58.1548 1852.19 62.8538 Q1855.6 67.5124 1861.51 67.5124 Q1867.43 67.5124 1870.83 62.8538 Q1874.23 58.1548 1874.23 49.9314 Q1874.23 41.7081 1870.83 37.0496 Q1867.43 32.3505 1861.51 32.3505 Q1855.6 32.3505 1852.19 37.0496 Q1848.83 41.7081 1848.83 49.9314 Z" fill="#000000" fill-rule="evenodd" fill-opacity="1" /><polyline clip-path="url(#clip942)" style="stroke:#009af9; stroke-linecap:butt; stroke-linejoin:round; stroke-width:4; stroke-opacity:1; fill:none" points="
  175.59,479.225 256.888,542.182 338.186,553.687 419.484,525.393 500.783,544.437 582.081,502.203 663.379,477.391 744.677,474.337 825.975,419.212 907.274,484.954 
  988.572,580.377 1069.87,690.577 1151.17,749.699 1232.47,775.129 1313.76,822.416 1395.06,839.711 1476.36,850.523 1557.66,936.239 1638.96,932.652 1720.26,964.166 
  1801.55,988.158 1882.85,1006.46 1964.15,1017.92 2045.45,989.254 2126.75,1019.53 2208.05,1078 2289.34,1045.8 
  "/>
<polyline clip-path="url(#clip942)" style="stroke:#e26f46; stroke-linecap:butt; stroke-linejoin:round; stroke-width:4; stroke-opacity:1; fill:none" points="
  419.484,1447.87 419.484,162.047 
  "/>
<path clip-path="url(#clip940)" d="
M1827.52 324.425 L2278.07 324.425 L2278.07 168.905 L1827.52 168.905  Z
  " fill="#ffffff" fill-rule="evenodd" fill-opacity="1"/>
<polyline clip-path="url(#clip940)" style="stroke:#000000; stroke-linecap:butt; stroke-linejoin:round; stroke-width:4; stroke-opacity:1; fill:none" points="
  1827.52,324.425 2278.07,324.425 2278.07,168.905 1827.52,168.905 1827.52,324.425 
  "/>
<polyline clip-path="url(#clip940)" style="stroke:#009af9; stroke-linecap:butt; stroke-linejoin:round; stroke-width:4; stroke-opacity:1; fill:none" points="
  1852.42,220.745 2001.79,220.745 
  "/>
<path clip-path="url(#clip940)" d="M2040.53 240.432 Q2038.72 245.062 2037.01 246.474 Q2035.29 247.886 2032.42 247.886 L2029.02 247.886 L2029.02 244.321 L2031.52 244.321 Q2033.28 244.321 2034.25 243.488 Q2035.22 242.654 2036.41 239.552 L2037.17 237.608 L2026.68 212.099 L2031.2 212.099 L2039.3 232.377 L2047.4 212.099 L2051.91 212.099 L2040.53 240.432 Z" fill="#000000" fill-rule="evenodd" fill-opacity="1" /><path clip-path="url(#clip940)" d="M2059.21 234.089 L2066.84 234.089 L2066.84 207.724 L2058.53 209.391 L2058.53 205.131 L2066.8 203.465 L2071.47 203.465 L2071.47 234.089 L2079.11 234.089 L2079.11 238.025 L2059.21 238.025 L2059.21 234.089 Z" fill="#000000" fill-rule="evenodd" fill-opacity="1" /><polyline clip-path="url(#clip940)" style="stroke:#e26f46; stroke-linecap:butt; stroke-linejoin:round; stroke-width:4; stroke-opacity:1; fill:none" points="
  1852.42,272.585 2001.79,272.585 
  "/>
<path clip-path="url(#clip940)" d="M2026.68 255.305 L2032.98 255.305 L2048.3 284.217 L2048.3 255.305 L2052.84 255.305 L2052.84 289.865 L2046.54 289.865 L2031.22 260.953 L2031.22 289.865 L2026.68 289.865 L2026.68 255.305 Z" fill="#000000" fill-rule="evenodd" fill-opacity="1" /><path clip-path="url(#clip940)" d="M2062.15 255.305 L2082.01 255.305 L2082.01 259.24 L2066.82 259.24 L2066.82 269.425 L2080.53 269.425 L2080.53 273.36 L2066.82 273.36 L2066.82 289.865 L2062.15 289.865 L2062.15 255.305 Z" fill="#000000" fill-rule="evenodd" fill-opacity="1" /><path clip-path="url(#clip940)" d="M2096.61 259.911 L2090.27 277.11 L2102.98 277.11 L2096.61 259.911 M2093.97 255.305 L2099.28 255.305 L2112.45 289.865 L2107.59 289.865 L2104.44 280.999 L2088.86 280.999 L2085.71 289.865 L2080.78 289.865 L2093.97 255.305 Z" fill="#000000" fill-rule="evenodd" fill-opacity="1" /><path clip-path="url(#clip940)" d="M2127.82 255.305 L2132.84 255.305 L2142.42 269.518 L2151.94 255.305 L2156.96 255.305 L2144.74 273.406 L2144.74 289.865 L2140.04 289.865 L2140.04 273.406 L2127.82 255.305 Z" fill="#000000" fill-rule="evenodd" fill-opacity="1" /><path clip-path="url(#clip940)" d="M2177.21 275.837 L2177.21 277.92 L2157.63 277.92 Q2157.91 282.318 2160.27 284.633 Q2162.65 286.925 2166.89 286.925 Q2169.34 286.925 2171.64 286.323 Q2173.95 285.721 2176.22 284.517 L2176.22 288.545 Q2173.93 289.517 2171.52 290.027 Q2169.11 290.536 2166.64 290.536 Q2160.43 290.536 2156.8 286.925 Q2153.19 283.314 2153.19 277.156 Q2153.19 270.791 2156.61 267.064 Q2160.06 263.314 2165.9 263.314 Q2171.13 263.314 2174.16 266.693 Q2177.21 270.05 2177.21 275.837 M2172.96 274.587 Q2172.91 271.092 2170.99 269.008 Q2169.09 266.925 2165.94 266.925 Q2162.38 266.925 2160.22 268.939 Q2158.09 270.953 2157.77 274.61 L2172.96 274.587 Z" fill="#000000" fill-rule="evenodd" fill-opacity="1" /><path clip-path="url(#clip940)" d="M2195.99 276.832 Q2190.83 276.832 2188.84 278.013 Q2186.84 279.193 2186.84 282.041 Q2186.84 284.309 2188.33 285.652 Q2189.83 286.971 2192.4 286.971 Q2195.94 286.971 2198.07 284.471 Q2200.22 281.948 2200.22 277.781 L2200.22 276.832 L2195.99 276.832 M2204.48 275.073 L2204.48 289.865 L2200.22 289.865 L2200.22 285.929 Q2198.77 288.291 2196.59 289.425 Q2194.41 290.536 2191.27 290.536 Q2187.28 290.536 2184.92 288.314 Q2182.59 286.068 2182.59 282.318 Q2182.59 277.943 2185.5 275.721 Q2188.44 273.499 2194.25 273.499 L2200.22 273.499 L2200.22 273.082 Q2200.22 270.143 2198.28 268.545 Q2196.36 266.925 2192.86 266.925 Q2190.64 266.925 2188.53 267.457 Q2186.43 267.99 2184.48 269.055 L2184.48 265.119 Q2186.82 264.217 2189.02 263.777 Q2191.22 263.314 2193.3 263.314 Q2198.93 263.314 2201.71 266.231 Q2204.48 269.147 2204.48 275.073 Z" fill="#000000" fill-rule="evenodd" fill-opacity="1" /><path clip-path="url(#clip940)" d="M2228.28 267.92 Q2227.56 267.504 2226.71 267.318 Q2225.87 267.11 2224.85 267.11 Q2221.24 267.11 2219.3 269.471 Q2217.38 271.809 2217.38 276.207 L2217.38 289.865 L2213.09 289.865 L2213.09 263.939 L2217.38 263.939 L2217.38 267.967 Q2218.72 265.606 2220.87 264.471 Q2223.02 263.314 2226.1 263.314 Q2226.54 263.314 2227.08 263.383 Q2227.61 263.43 2228.26 263.545 L2228.28 267.92 Z" fill="#000000" fill-rule="evenodd" fill-opacity="1" /></svg>
