<?xml version="1.0" encoding="utf-8"?>
<svg xmlns="http://www.w3.org/2000/svg" xmlns:xlink="http://www.w3.org/1999/xlink" width="600" height="400" viewBox="0 0 2400 1600">
<defs>
  <clipPath id="clip300">
    <rect x="0" y="0" width="2400" height="1600"/>
  </clipPath>
</defs>
<path clip-path="url(#clip300)" d="
M0 1600 L2400 1600 L2400 0 L0 0  Z
  " fill="#ffffff" fill-rule="evenodd" fill-opacity="1"/>
<defs>
  <clipPath id="clip301">
    <rect x="480" y="0" width="1681" height="1600"/>
  </clipPath>
</defs>
<path clip-path="url(#clip300)" d="
M277.431 1486.45 L2352.76 1486.45 L2352.76 123.472 L277.431 123.472  Z
  " fill="#ffffff" fill-rule="evenodd" fill-opacity="1"/>
<defs>
  <clipPath id="clip302">
    <rect x="277" y="123" width="2076" height="1364"/>
  </clipPath>
</defs>
<polyline clip-path="url(#clip302)" style="stroke:#000000; stroke-linecap:butt; stroke-linejoin:round; stroke-width:2; stroke-opacity:0.1; fill:none" points="
  336.167,1486.45 336.167,123.472 
  "/>
<polyline clip-path="url(#clip302)" style="stroke:#000000; stroke-linecap:butt; stroke-linejoin:round; stroke-width:2; stroke-opacity:0.1; fill:none" points="
  657.126,1486.45 657.126,123.472 
  "/>
<polyline clip-path="url(#clip302)" style="stroke:#000000; stroke-linecap:butt; stroke-linejoin:round; stroke-width:2; stroke-opacity:0.1; fill:none" points="
  978.086,1486.45 978.086,123.472 
  "/>
<polyline clip-path="url(#clip302)" style="stroke:#000000; stroke-linecap:butt; stroke-linejoin:round; stroke-width:2; stroke-opacity:0.1; fill:none" points="
  1299.05,1486.45 1299.05,123.472 
  "/>
<polyline clip-path="url(#clip302)" style="stroke:#000000; stroke-linecap:butt; stroke-linejoin:round; stroke-width:2; stroke-opacity:0.1; fill:none" points="
  1620.01,1486.45 1620.01,123.472 
  "/>
<polyline clip-path="url(#clip302)" style="stroke:#000000; stroke-linecap:butt; stroke-linejoin:round; stroke-width:2; stroke-opacity:0.1; fill:none" points="
  1940.96,1486.45 1940.96,123.472 
  "/>
<polyline clip-path="url(#clip302)" style="stroke:#000000; stroke-linecap:butt; stroke-linejoin:round; stroke-width:2; stroke-opacity:0.1; fill:none" points="
  2261.92,1486.45 2261.92,123.472 
  "/>
<polyline clip-path="url(#clip300)" style="stroke:#000000; stroke-linecap:butt; stroke-linejoin:round; stroke-width:4; stroke-opacity:1; fill:none" points="
  277.431,1486.45 2352.76,1486.45 
  "/>
<polyline clip-path="url(#clip300)" style="stroke:#000000; stroke-linecap:butt; stroke-linejoin:round; stroke-width:4; stroke-opacity:1; fill:none" points="
  336.167,1486.45 336.167,1467.55 
  "/>
<polyline clip-path="url(#clip300)" style="stroke:#000000; stroke-linecap:butt; stroke-linejoin:round; stroke-width:4; stroke-opacity:1; fill:none" points="
  657.126,1486.45 657.126,1467.55 
  "/>
<polyline clip-path="url(#clip300)" style="stroke:#000000; stroke-linecap:butt; stroke-linejoin:round; stroke-width:4; stroke-opacity:1; fill:none" points="
  978.086,1486.45 978.086,1467.55 
  "/>
<polyline clip-path="url(#clip300)" style="stroke:#000000; stroke-linecap:butt; stroke-linejoin:round; stroke-width:4; stroke-opacity:1; fill:none" points="
  1299.05,1486.45 1299.05,1467.55 
  "/>
<polyline clip-path="url(#clip300)" style="stroke:#000000; stroke-linecap:butt; stroke-linejoin:round; stroke-width:4; stroke-opacity:1; fill:none" points="
  1620.01,1486.45 1620.01,1467.55 
  "/>
<polyline clip-path="url(#clip300)" style="stroke:#000000; stroke-linecap:butt; stroke-linejoin:round; stroke-width:4; stroke-opacity:1; fill:none" points="
  1940.96,1486.45 1940.96,1467.55 
  "/>
<polyline clip-path="url(#clip300)" style="stroke:#000000; stroke-linecap:butt; stroke-linejoin:round; stroke-width:4; stroke-opacity:1; fill:none" points="
  2261.92,1486.45 2261.92,1467.55 
  "/>
<path clip-path="url(#clip300)" d="M280.692 1544.91 L288.331 1544.91 L288.331 1518.55 L280.021 1520.21 L280.021 1515.95 L288.285 1514.29 L292.961 1514.29 L292.961 1544.91 L300.6 1544.91 L300.6 1548.85 L280.692 1548.85 L280.692 1544.91 Z" fill="#000000" fill-rule="evenodd" fill-opacity="1" /><path clip-path="url(#clip300)" d="M310.183 1548.13 L310.183 1543.87 Q311.942 1544.7 313.748 1545.14 Q315.553 1545.58 317.289 1545.58 Q321.919 1545.58 324.349 1542.48 Q326.803 1539.36 327.15 1533.01 Q325.808 1535.01 323.748 1536.07 Q321.687 1537.13 319.187 1537.13 Q314.002 1537.13 310.97 1534.01 Q307.961 1530.86 307.961 1525.42 Q307.961 1520.1 311.109 1516.88 Q314.257 1513.66 319.488 1513.66 Q325.484 1513.66 328.632 1518.27 Q331.803 1522.85 331.803 1531.6 Q331.803 1539.77 327.914 1544.66 Q324.049 1549.52 317.498 1549.52 Q315.738 1549.52 313.933 1549.17 Q312.127 1548.82 310.183 1548.13 M319.488 1533.48 Q322.637 1533.48 324.465 1531.32 Q326.317 1529.17 326.317 1525.42 Q326.317 1521.7 324.465 1519.54 Q322.637 1517.37 319.488 1517.37 Q316.34 1517.37 314.488 1519.54 Q312.66 1521.7 312.66 1525.42 Q312.66 1529.17 314.488 1531.32 Q316.34 1533.48 319.488 1533.48 Z" fill="#000000" fill-rule="evenodd" fill-opacity="1" /><path clip-path="url(#clip300)" d="M350.785 1529.7 Q347.636 1529.7 345.785 1531.86 Q343.956 1534.01 343.956 1537.76 Q343.956 1541.49 345.785 1543.66 Q347.636 1545.82 350.785 1545.82 Q353.933 1545.82 355.761 1543.66 Q357.613 1541.49 357.613 1537.76 Q357.613 1534.01 355.761 1531.86 Q353.933 1529.7 350.785 1529.7 M360.067 1515.05 L360.067 1519.31 Q358.308 1518.48 356.502 1518.04 Q354.72 1517.6 352.96 1517.6 Q348.331 1517.6 345.877 1520.72 Q343.447 1523.85 343.099 1530.17 Q344.465 1528.15 346.525 1527.09 Q348.585 1526 351.062 1526 Q356.271 1526 359.28 1529.17 Q362.312 1532.32 362.312 1537.76 Q362.312 1543.08 359.164 1546.3 Q356.016 1549.52 350.785 1549.52 Q344.789 1549.52 341.618 1544.94 Q338.447 1540.33 338.447 1531.6 Q338.447 1523.41 342.335 1518.55 Q346.224 1513.66 352.775 1513.66 Q354.534 1513.66 356.317 1514.01 Q358.122 1514.36 360.067 1515.05 Z" fill="#000000" fill-rule="evenodd" fill-opacity="1" /><path clip-path="url(#clip300)" d="M380.368 1517.37 Q376.757 1517.37 374.928 1520.93 Q373.122 1524.47 373.122 1531.6 Q373.122 1538.71 374.928 1542.27 Q376.757 1545.82 380.368 1545.82 Q384.002 1545.82 385.807 1542.27 Q387.636 1538.71 387.636 1531.6 Q387.636 1524.47 385.807 1520.93 Q384.002 1517.37 380.368 1517.37 M380.368 1513.66 Q386.178 1513.66 389.233 1518.27 Q392.312 1522.85 392.312 1531.6 Q392.312 1540.33 389.233 1544.94 Q386.178 1549.52 380.368 1549.52 Q374.558 1549.52 371.479 1544.94 Q368.423 1540.33 368.423 1531.6 Q368.423 1522.85 371.479 1518.27 Q374.558 1513.66 380.368 1513.66 Z" fill="#000000" fill-rule="evenodd" fill-opacity="1" /><path clip-path="url(#clip300)" d="M601.652 1544.91 L609.291 1544.91 L609.291 1518.55 L600.981 1520.21 L600.981 1515.95 L609.244 1514.29 L613.92 1514.29 L613.92 1544.91 L621.559 1544.91 L621.559 1548.85 L601.652 1548.85 L601.652 1544.91 Z" fill="#000000" fill-rule="evenodd" fill-opacity="1" /><path clip-path="url(#clip300)" d="M631.143 1548.13 L631.143 1543.87 Q632.902 1544.7 634.707 1545.14 Q636.513 1545.58 638.249 1545.58 Q642.879 1545.58 645.309 1542.48 Q647.763 1539.36 648.11 1533.01 Q646.767 1535.01 644.707 1536.07 Q642.647 1537.13 640.147 1537.13 Q634.962 1537.13 631.93 1534.01 Q628.92 1530.86 628.92 1525.42 Q628.92 1520.1 632.068 1516.88 Q635.217 1513.66 640.448 1513.66 Q646.443 1513.66 649.591 1518.27 Q652.763 1522.85 652.763 1531.6 Q652.763 1539.77 648.874 1544.66 Q645.008 1549.52 638.457 1549.52 Q636.698 1549.52 634.892 1549.17 Q633.087 1548.82 631.143 1548.13 M640.448 1533.48 Q643.596 1533.48 645.425 1531.32 Q647.277 1529.17 647.277 1525.42 Q647.277 1521.7 645.425 1519.54 Q643.596 1517.37 640.448 1517.37 Q637.3 1517.37 635.448 1519.54 Q633.619 1521.7 633.619 1525.42 Q633.619 1529.17 635.448 1531.32 Q637.3 1533.48 640.448 1533.48 Z" fill="#000000" fill-rule="evenodd" fill-opacity="1" /><path clip-path="url(#clip300)" d="M659.985 1514.29 L682.207 1514.29 L682.207 1516.28 L669.661 1548.85 L664.777 1548.85 L676.582 1518.22 L659.985 1518.22 L659.985 1514.29 Z" fill="#000000" fill-rule="evenodd" fill-opacity="1" /><path clip-path="url(#clip300)" d="M701.327 1517.37 Q697.716 1517.37 695.888 1520.93 Q694.082 1524.47 694.082 1531.6 Q694.082 1538.71 695.888 1542.27 Q697.716 1545.82 701.327 1545.82 Q704.962 1545.82 706.767 1542.27 Q708.596 1538.71 708.596 1531.6 Q708.596 1524.47 706.767 1520.93 Q704.962 1517.37 701.327 1517.37 M701.327 1513.66 Q707.137 1513.66 710.193 1518.27 Q713.272 1522.85 713.272 1531.6 Q713.272 1540.33 710.193 1544.94 Q707.137 1549.52 701.327 1549.52 Q695.517 1549.52 692.438 1544.94 Q689.383 1540.33 689.383 1531.6 Q689.383 1522.85 692.438 1518.27 Q695.517 1513.66 701.327 1513.66 Z" fill="#000000" fill-rule="evenodd" fill-opacity="1" /><path clip-path="url(#clip300)" d="M922.612 1544.91 L930.25 1544.91 L930.25 1518.55 L921.94 1520.21 L921.94 1515.95 L930.204 1514.29 L934.88 1514.29 L934.88 1544.91 L942.519 1544.91 L942.519 1548.85 L922.612 1548.85 L922.612 1544.91 Z" fill="#000000" fill-rule="evenodd" fill-opacity="1" /><path clip-path="url(#clip300)" d="M952.102 1548.13 L952.102 1543.87 Q953.861 1544.7 955.667 1545.14 Q957.472 1545.58 959.209 1545.58 Q963.838 1545.58 966.269 1542.48 Q968.722 1539.36 969.07 1533.01 Q967.727 1535.01 965.667 1536.07 Q963.607 1537.13 961.107 1537.13 Q955.922 1537.13 952.889 1534.01 Q949.88 1530.86 949.88 1525.42 Q949.88 1520.1 953.028 1516.88 Q956.176 1513.66 961.408 1513.66 Q967.403 1513.66 970.551 1518.27 Q973.722 1522.85 973.722 1531.6 Q973.722 1539.77 969.834 1544.66 Q965.968 1549.52 959.417 1549.52 Q957.658 1549.52 955.852 1549.17 Q954.047 1548.82 952.102 1548.13 M961.408 1533.48 Q964.556 1533.48 966.384 1531.32 Q968.236 1529.17 968.236 1525.42 Q968.236 1521.7 966.384 1519.54 Q964.556 1517.37 961.408 1517.37 Q958.26 1517.37 956.408 1519.54 Q954.579 1521.7 954.579 1525.42 Q954.579 1529.17 956.408 1531.32 Q958.26 1533.48 961.408 1533.48 Z" fill="#000000" fill-rule="evenodd" fill-opacity="1" /><path clip-path="url(#clip300)" d="M992.125 1532.44 Q988.792 1532.44 986.87 1534.22 Q984.972 1536 984.972 1539.13 Q984.972 1542.25 986.87 1544.03 Q988.792 1545.82 992.125 1545.82 Q995.458 1545.82 997.38 1544.03 Q999.301 1542.23 999.301 1539.13 Q999.301 1536 997.38 1534.22 Q995.482 1532.44 992.125 1532.44 M987.449 1530.45 Q984.44 1529.7 982.75 1527.64 Q981.083 1525.58 981.083 1522.62 Q981.083 1518.48 984.023 1516.07 Q986.986 1513.66 992.125 1513.66 Q997.287 1513.66 1000.23 1516.07 Q1003.17 1518.48 1003.17 1522.62 Q1003.17 1525.58 1001.48 1527.64 Q999.81 1529.7 996.824 1530.45 Q1000.2 1531.23 1002.08 1533.52 Q1003.98 1535.82 1003.98 1539.13 Q1003.98 1544.15 1000.9 1546.83 Q997.843 1549.52 992.125 1549.52 Q986.408 1549.52 983.329 1546.83 Q980.273 1544.15 980.273 1539.13 Q980.273 1535.82 982.171 1533.52 Q984.07 1531.23 987.449 1530.45 M985.736 1523.06 Q985.736 1525.75 987.403 1527.25 Q989.093 1528.76 992.125 1528.76 Q995.134 1528.76 996.824 1527.25 Q998.537 1525.75 998.537 1523.06 Q998.537 1520.38 996.824 1518.87 Q995.134 1517.37 992.125 1517.37 Q989.093 1517.37 987.403 1518.87 Q985.736 1520.38 985.736 1523.06 Z" fill="#000000" fill-rule="evenodd" fill-opacity="1" /><path clip-path="url(#clip300)" d="M1022.29 1517.37 Q1018.68 1517.37 1016.85 1520.93 Q1015.04 1524.47 1015.04 1531.6 Q1015.04 1538.71 1016.85 1542.27 Q1018.68 1545.82 1022.29 1545.82 Q1025.92 1545.82 1027.73 1542.27 Q1029.56 1538.71 1029.56 1531.6 Q1029.56 1524.47 1027.73 1520.93 Q1025.92 1517.37 1022.29 1517.37 M1022.29 1513.66 Q1028.1 1513.66 1031.15 1518.27 Q1034.23 1522.85 1034.23 1531.6 Q1034.23 1540.33 1031.15 1544.94 Q1028.1 1549.52 1022.29 1549.52 Q1016.48 1549.52 1013.4 1544.94 Q1010.34 1540.33 1010.34 1531.6 Q1010.34 1522.85 1013.4 1518.27 Q1016.48 1513.66 1022.29 1513.66 Z" fill="#000000" fill-rule="evenodd" fill-opacity="1" /><path clip-path="url(#clip300)" d="M1243.57 1544.91 L1251.21 1544.91 L1251.21 1518.55 L1242.9 1520.21 L1242.9 1515.95 L1251.16 1514.29 L1255.84 1514.29 L1255.84 1544.91 L1263.48 1544.91 L1263.48 1548.85 L1243.57 1548.85 L1243.57 1544.91 Z" fill="#000000" fill-rule="evenodd" fill-opacity="1" /><path clip-path="url(#clip300)" d="M1273.06 1548.13 L1273.06 1543.87 Q1274.82 1544.7 1276.63 1545.14 Q1278.43 1545.58 1280.17 1545.58 Q1284.8 1545.58 1287.23 1542.48 Q1289.68 1539.36 1290.03 1533.01 Q1288.69 1535.01 1286.63 1536.07 Q1284.57 1537.13 1282.07 1537.13 Q1276.88 1537.13 1273.85 1534.01 Q1270.84 1530.86 1270.84 1525.42 Q1270.84 1520.1 1273.99 1516.88 Q1277.14 1513.66 1282.37 1513.66 Q1288.36 1513.66 1291.51 1518.27 Q1294.68 1522.85 1294.68 1531.6 Q1294.68 1539.77 1290.79 1544.66 Q1286.93 1549.52 1280.38 1549.52 Q1278.62 1549.52 1276.81 1549.17 Q1275.01 1548.82 1273.06 1548.13 M1282.37 1533.48 Q1285.52 1533.48 1287.34 1531.32 Q1289.2 1529.17 1289.2 1525.42 Q1289.2 1521.7 1287.34 1519.54 Q1285.52 1517.37 1282.37 1517.37 Q1279.22 1517.37 1277.37 1519.54 Q1275.54 1521.7 1275.54 1525.42 Q1275.54 1529.17 1277.37 1531.32 Q1279.22 1533.48 1282.37 1533.48 Z" fill="#000000" fill-rule="evenodd" fill-opacity="1" /><path clip-path="url(#clip300)" d="M1303.22 1548.13 L1303.22 1543.87 Q1304.98 1544.7 1306.79 1545.14 Q1308.59 1545.58 1310.33 1545.58 Q1314.96 1545.58 1317.39 1542.48 Q1319.84 1539.36 1320.19 1533.01 Q1318.85 1535.01 1316.79 1536.07 Q1314.73 1537.13 1312.23 1537.13 Q1307.04 1537.13 1304.01 1534.01 Q1301 1530.86 1301 1525.42 Q1301 1520.1 1304.15 1516.88 Q1307.3 1513.66 1312.53 1513.66 Q1318.52 1513.66 1321.67 1518.27 Q1324.84 1522.85 1324.84 1531.6 Q1324.84 1539.77 1320.96 1544.66 Q1317.09 1549.52 1310.54 1549.52 Q1308.78 1549.52 1306.97 1549.17 Q1305.17 1548.82 1303.22 1548.13 M1312.53 1533.48 Q1315.68 1533.48 1317.51 1531.32 Q1319.36 1529.17 1319.36 1525.42 Q1319.36 1521.7 1317.51 1519.54 Q1315.68 1517.37 1312.53 1517.37 Q1309.38 1517.37 1307.53 1519.54 Q1305.7 1521.7 1305.7 1525.42 Q1305.7 1529.17 1307.53 1531.32 Q1309.38 1533.48 1312.53 1533.48 Z" fill="#000000" fill-rule="evenodd" fill-opacity="1" /><path clip-path="url(#clip300)" d="M1343.25 1517.37 Q1339.64 1517.37 1337.81 1520.93 Q1336 1524.47 1336 1531.6 Q1336 1538.71 1337.81 1542.27 Q1339.64 1545.82 1343.25 1545.82 Q1346.88 1545.82 1348.69 1542.27 Q1350.52 1538.71 1350.52 1531.6 Q1350.52 1524.47 1348.69 1520.93 Q1346.88 1517.37 1343.25 1517.37 M1343.25 1513.66 Q1349.06 1513.66 1352.11 1518.27 Q1355.19 1522.85 1355.19 1531.6 Q1355.19 1540.33 1352.11 1544.94 Q1349.06 1549.52 1343.25 1549.52 Q1337.44 1549.52 1334.36 1544.94 Q1331.3 1540.33 1331.3 1531.6 Q1331.3 1522.85 1334.36 1518.27 Q1337.44 1513.66 1343.25 1513.66 Z" fill="#000000" fill-rule="evenodd" fill-opacity="1" /><path clip-path="url(#clip300)" d="M1568.62 1544.91 L1584.94 1544.91 L1584.94 1548.85 L1562.99 1548.85 L1562.99 1544.91 Q1565.65 1542.16 1570.24 1537.53 Q1574.84 1532.88 1576.02 1531.53 Q1578.27 1529.01 1579.15 1527.27 Q1580.05 1525.51 1580.05 1523.82 Q1580.05 1521.07 1578.11 1519.33 Q1576.19 1517.6 1573.08 1517.6 Q1570.88 1517.6 1568.43 1518.36 Q1566 1519.13 1563.22 1520.68 L1563.22 1515.95 Q1566.05 1514.82 1568.5 1514.24 Q1570.95 1513.66 1572.99 1513.66 Q1578.36 1513.66 1581.56 1516.35 Q1584.75 1519.03 1584.75 1523.52 Q1584.75 1525.65 1583.94 1527.57 Q1583.15 1529.47 1581.05 1532.07 Q1580.47 1532.74 1577.37 1535.95 Q1574.26 1539.15 1568.62 1544.91 Z" fill="#000000" fill-rule="evenodd" fill-opacity="1" /><path clip-path="url(#clip300)" d="M1604.75 1517.37 Q1601.14 1517.37 1599.31 1520.93 Q1597.51 1524.47 1597.51 1531.6 Q1597.51 1538.71 1599.31 1542.27 Q1601.14 1545.82 1604.75 1545.82 Q1608.38 1545.82 1610.19 1542.27 Q1612.02 1538.71 1612.02 1531.6 Q1612.02 1524.47 1610.19 1520.93 Q1608.38 1517.37 1604.75 1517.37 M1604.75 1513.66 Q1610.56 1513.66 1613.62 1518.27 Q1616.69 1522.85 1616.69 1531.6 Q1616.69 1540.33 1613.62 1544.94 Q1610.56 1549.52 1604.75 1549.52 Q1598.94 1549.52 1595.86 1544.94 Q1592.81 1540.33 1592.81 1531.6 Q1592.81 1522.85 1595.86 1518.27 Q1598.94 1513.66 1604.75 1513.66 Z" fill="#000000" fill-rule="evenodd" fill-opacity="1" /><path clip-path="url(#clip300)" d="M1634.91 1517.37 Q1631.3 1517.37 1629.47 1520.93 Q1627.67 1524.47 1627.67 1531.6 Q1627.67 1538.71 1629.47 1542.27 Q1631.3 1545.82 1634.91 1545.82 Q1638.55 1545.82 1640.35 1542.27 Q1642.18 1538.71 1642.18 1531.6 Q1642.18 1524.47 1640.35 1520.93 Q1638.55 1517.37 1634.91 1517.37 M1634.91 1513.66 Q1640.72 1513.66 1643.78 1518.27 Q1646.86 1522.85 1646.86 1531.6 Q1646.86 1540.33 1643.78 1544.94 Q1640.72 1549.52 1634.91 1549.52 Q1629.1 1549.52 1626.02 1544.94 Q1622.97 1540.33 1622.97 1531.6 Q1622.97 1522.85 1626.02 1518.27 Q1629.1 1513.66 1634.91 1513.66 Z" fill="#000000" fill-rule="evenodd" fill-opacity="1" /><path clip-path="url(#clip300)" d="M1665.07 1517.37 Q1661.46 1517.37 1659.63 1520.93 Q1657.83 1524.47 1657.83 1531.6 Q1657.83 1538.71 1659.63 1542.27 Q1661.46 1545.82 1665.07 1545.82 Q1668.71 1545.82 1670.51 1542.27 Q1672.34 1538.71 1672.34 1531.6 Q1672.34 1524.47 1670.51 1520.93 Q1668.71 1517.37 1665.07 1517.37 M1665.07 1513.66 Q1670.88 1513.66 1673.94 1518.27 Q1677.02 1522.85 1677.02 1531.6 Q1677.02 1540.33 1673.94 1544.94 Q1670.88 1549.52 1665.07 1549.52 Q1659.26 1549.52 1656.19 1544.94 Q1653.13 1540.33 1653.13 1531.6 Q1653.13 1522.85 1656.19 1518.27 Q1659.26 1513.66 1665.07 1513.66 Z" fill="#000000" fill-rule="evenodd" fill-opacity="1" /><path clip-path="url(#clip300)" d="M1889.58 1544.91 L1905.9 1544.91 L1905.9 1548.85 L1883.95 1548.85 L1883.95 1544.91 Q1886.61 1542.16 1891.2 1537.53 Q1895.8 1532.88 1896.98 1531.53 Q1899.23 1529.01 1900.11 1527.27 Q1901.01 1525.51 1901.01 1523.82 Q1901.01 1521.07 1899.07 1519.33 Q1897.15 1517.6 1894.04 1517.6 Q1891.84 1517.6 1889.39 1518.36 Q1886.96 1519.13 1884.18 1520.68 L1884.18 1515.95 Q1887.01 1514.82 1889.46 1514.24 Q1891.91 1513.66 1893.95 1513.66 Q1899.32 1513.66 1902.52 1516.35 Q1905.71 1519.03 1905.71 1523.52 Q1905.71 1525.65 1904.9 1527.57 Q1904.11 1529.47 1902.01 1532.07 Q1901.43 1532.74 1898.33 1535.95 Q1895.22 1539.15 1889.58 1544.91 Z" fill="#000000" fill-rule="evenodd" fill-opacity="1" /><path clip-path="url(#clip300)" d="M1925.71 1517.37 Q1922.1 1517.37 1920.27 1520.93 Q1918.46 1524.47 1918.46 1531.6 Q1918.46 1538.71 1920.27 1542.27 Q1922.1 1545.82 1925.71 1545.82 Q1929.34 1545.82 1931.15 1542.27 Q1932.98 1538.71 1932.98 1531.6 Q1932.98 1524.47 1931.15 1520.93 Q1929.34 1517.37 1925.71 1517.37 M1925.71 1513.66 Q1931.52 1513.66 1934.58 1518.27 Q1937.65 1522.85 1937.65 1531.6 Q1937.65 1540.33 1934.58 1544.94 Q1931.52 1549.52 1925.71 1549.52 Q1919.9 1549.52 1916.82 1544.94 Q1913.77 1540.33 1913.77 1531.6 Q1913.77 1522.85 1916.82 1518.27 Q1919.9 1513.66 1925.71 1513.66 Z" fill="#000000" fill-rule="evenodd" fill-opacity="1" /><path clip-path="url(#clip300)" d="M1946.68 1544.91 L1954.32 1544.91 L1954.32 1518.55 L1946.01 1520.21 L1946.01 1515.95 L1954.27 1514.29 L1958.95 1514.29 L1958.95 1544.91 L1966.59 1544.91 L1966.59 1548.85 L1946.68 1548.85 L1946.68 1544.91 Z" fill="#000000" fill-rule="evenodd" fill-opacity="1" /><path clip-path="url(#clip300)" d="M1986.03 1517.37 Q1982.42 1517.37 1980.59 1520.93 Q1978.79 1524.47 1978.79 1531.6 Q1978.79 1538.71 1980.59 1542.27 Q1982.42 1545.82 1986.03 1545.82 Q1989.67 1545.82 1991.47 1542.27 Q1993.3 1538.71 1993.3 1531.6 Q1993.3 1524.47 1991.47 1520.93 Q1989.67 1517.37 1986.03 1517.37 M1986.03 1513.66 Q1991.84 1513.66 1994.9 1518.27 Q1997.98 1522.85 1997.98 1531.6 Q1997.98 1540.33 1994.9 1544.94 Q1991.84 1549.52 1986.03 1549.52 Q1980.22 1549.52 1977.15 1544.94 Q1974.09 1540.33 1974.09 1531.6 Q1974.09 1522.85 1977.15 1518.27 Q1980.22 1513.66 1986.03 1513.66 Z" fill="#000000" fill-rule="evenodd" fill-opacity="1" /><path clip-path="url(#clip300)" d="M2210.54 1544.91 L2226.86 1544.91 L2226.86 1548.85 L2204.91 1548.85 L2204.91 1544.91 Q2207.57 1542.16 2212.16 1537.53 Q2216.76 1532.88 2217.94 1531.53 Q2220.19 1529.01 2221.07 1527.27 Q2221.97 1525.51 2221.97 1523.82 Q2221.97 1521.07 2220.03 1519.33 Q2218.11 1517.6 2215 1517.6 Q2212.8 1517.6 2210.35 1518.36 Q2207.92 1519.13 2205.14 1520.68 L2205.14 1515.95 Q2207.97 1514.82 2210.42 1514.24 Q2212.87 1513.66 2214.91 1513.66 Q2220.28 1513.66 2223.48 1516.35 Q2226.67 1519.03 2226.67 1523.52 Q2226.67 1525.65 2225.86 1527.57 Q2225.07 1529.47 2222.97 1532.07 Q2222.39 1532.74 2219.29 1535.95 Q2216.18 1539.15 2210.54 1544.91 Z" fill="#000000" fill-rule="evenodd" fill-opacity="1" /><path clip-path="url(#clip300)" d="M2246.67 1517.37 Q2243.06 1517.37 2241.23 1520.93 Q2239.42 1524.47 2239.42 1531.6 Q2239.42 1538.71 2241.23 1542.27 Q2243.06 1545.82 2246.67 1545.82 Q2250.3 1545.82 2252.11 1542.27 Q2253.94 1538.71 2253.94 1531.6 Q2253.94 1524.47 2252.11 1520.93 Q2250.3 1517.37 2246.67 1517.37 M2246.67 1513.66 Q2252.48 1513.66 2255.54 1518.27 Q2258.61 1522.85 2258.61 1531.6 Q2258.61 1540.33 2255.54 1544.94 Q2252.48 1549.52 2246.67 1549.52 Q2240.86 1549.52 2237.78 1544.94 Q2234.73 1540.33 2234.73 1531.6 Q2234.73 1522.85 2237.78 1518.27 Q2240.86 1513.66 2246.67 1513.66 Z" fill="#000000" fill-rule="evenodd" fill-opacity="1" /><path clip-path="url(#clip300)" d="M2270.86 1544.91 L2287.18 1544.91 L2287.18 1548.85 L2265.23 1548.85 L2265.23 1544.91 Q2267.9 1542.16 2272.48 1537.53 Q2277.09 1532.88 2278.27 1531.53 Q2280.51 1529.01 2281.39 1527.27 Q2282.29 1525.51 2282.29 1523.82 Q2282.29 1521.07 2280.35 1519.33 Q2278.43 1517.6 2275.33 1517.6 Q2273.13 1517.6 2270.67 1518.36 Q2268.24 1519.13 2265.47 1520.68 L2265.47 1515.95 Q2268.29 1514.82 2270.74 1514.24 Q2273.2 1513.66 2275.23 1513.66 Q2280.6 1513.66 2283.8 1516.35 Q2286.99 1519.03 2286.99 1523.52 Q2286.99 1525.65 2286.18 1527.57 Q2285.4 1529.47 2283.29 1532.07 Q2282.71 1532.74 2279.61 1535.95 Q2276.51 1539.15 2270.86 1544.91 Z" fill="#000000" fill-rule="evenodd" fill-opacity="1" /><path clip-path="url(#clip300)" d="M2306.99 1517.37 Q2303.38 1517.37 2301.55 1520.93 Q2299.75 1524.47 2299.75 1531.6 Q2299.75 1538.71 2301.55 1542.27 Q2303.38 1545.82 2306.99 1545.82 Q2310.63 1545.82 2312.43 1542.27 Q2314.26 1538.71 2314.26 1531.6 Q2314.26 1524.47 2312.43 1520.93 Q2310.63 1517.37 2306.99 1517.37 M2306.99 1513.66 Q2312.8 1513.66 2315.86 1518.27 Q2318.94 1522.85 2318.94 1531.6 Q2318.94 1540.33 2315.86 1544.94 Q2312.8 1549.52 2306.99 1549.52 Q2301.18 1549.52 2298.1 1544.94 Q2295.05 1540.33 2295.05 1531.6 Q2295.05 1522.85 2298.1 1518.27 Q2301.18 1513.66 2306.99 1513.66 Z" fill="#000000" fill-rule="evenodd" fill-opacity="1" /><polyline clip-path="url(#clip302)" style="stroke:#000000; stroke-linecap:butt; stroke-linejoin:round; stroke-width:2; stroke-opacity:0.1; fill:none" points="
  277.431,1447.87 2352.76,1447.87 
  "/>
<polyline clip-path="url(#clip302)" style="stroke:#000000; stroke-linecap:butt; stroke-linejoin:round; stroke-width:2; stroke-opacity:0.1; fill:none" points="
  277.431,1080.49 2352.76,1080.49 
  "/>
<polyline clip-path="url(#clip302)" style="stroke:#000000; stroke-linecap:butt; stroke-linejoin:round; stroke-width:2; stroke-opacity:0.1; fill:none" points="
  277.431,713.115 2352.76,713.115 
  "/>
<polyline clip-path="url(#clip302)" style="stroke:#000000; stroke-linecap:butt; stroke-linejoin:round; stroke-width:2; stroke-opacity:0.1; fill:none" points="
  277.431,345.736 2352.76,345.736 
  "/>
<polyline clip-path="url(#clip300)" style="stroke:#000000; stroke-linecap:butt; stroke-linejoin:round; stroke-width:4; stroke-opacity:1; fill:none" points="
  277.431,1486.45 277.431,123.472 
  "/>
<polyline clip-path="url(#clip300)" style="stroke:#000000; stroke-linecap:butt; stroke-linejoin:round; stroke-width:4; stroke-opacity:1; fill:none" points="
  277.431,1447.87 296.329,1447.87 
  "/>
<polyline clip-path="url(#clip300)" style="stroke:#000000; stroke-linecap:butt; stroke-linejoin:round; stroke-width:4; stroke-opacity:1; fill:none" points="
  277.431,1080.49 296.329,1080.49 
  "/>
<polyline clip-path="url(#clip300)" style="stroke:#000000; stroke-linecap:butt; stroke-linejoin:round; stroke-width:4; stroke-opacity:1; fill:none" points="
  277.431,713.115 296.329,713.115 
  "/>
<polyline clip-path="url(#clip300)" style="stroke:#000000; stroke-linecap:butt; stroke-linejoin:round; stroke-width:4; stroke-opacity:1; fill:none" points="
  277.431,345.736 296.329,345.736 
  "/>
<path clip-path="url(#clip300)" d="M229.487 1433.67 Q225.875 1433.67 224.047 1437.24 Q222.241 1440.78 222.241 1447.91 Q222.241 1455.01 224.047 1458.58 Q225.875 1462.12 229.487 1462.12 Q233.121 1462.12 234.926 1458.58 Q236.755 1455.01 236.755 1447.91 Q236.755 1440.78 234.926 1437.24 Q233.121 1433.67 229.487 1433.67 M229.487 1429.97 Q235.297 1429.97 238.352 1434.57 Q241.431 1439.16 241.431 1447.91 Q241.431 1456.63 238.352 1461.24 Q235.297 1465.82 229.487 1465.82 Q223.676 1465.82 220.598 1461.24 Q217.542 1456.63 217.542 1447.91 Q217.542 1439.16 220.598 1434.57 Q223.676 1429.97 229.487 1429.97 Z" fill="#000000" fill-rule="evenodd" fill-opacity="1" /><path clip-path="url(#clip300)" d="M57.7745 1100.29 L74.0939 1100.29 L74.0939 1104.22 L52.1495 1104.22 L52.1495 1100.29 Q54.8115 1097.53 59.3949 1092.9 Q64.0013 1088.25 65.1819 1086.91 Q67.4272 1084.38 68.3068 1082.65 Q69.2096 1080.89 69.2096 1079.2 Q69.2096 1076.44 67.2652 1074.71 Q65.3439 1072.97 62.2421 1072.97 Q60.043 1072.97 57.5893 1073.74 Q55.1588 1074.5 52.381 1076.05 L52.381 1071.33 Q55.2051 1070.19 57.6588 1069.62 Q60.1124 1069.04 62.1495 1069.04 Q67.5198 1069.04 70.7142 1071.72 Q73.9087 1074.41 73.9087 1078.9 Q73.9087 1081.03 73.0985 1082.95 Q72.3115 1084.85 70.205 1087.44 Q69.6263 1088.11 66.5245 1091.33 Q63.4226 1094.52 57.7745 1100.29 Z" fill="#000000" fill-rule="evenodd" fill-opacity="1" /><path clip-path="url(#clip300)" d="M83.9086 1098.34 L88.7928 1098.34 L88.7928 1104.22 L83.9086 1104.22 L83.9086 1098.34 Z" fill="#000000" fill-rule="evenodd" fill-opacity="1" /><path clip-path="url(#clip300)" d="M108.978 1072.74 Q105.367 1072.74 103.538 1076.31 Q101.733 1079.85 101.733 1086.98 Q101.733 1094.08 103.538 1097.65 Q105.367 1101.19 108.978 1101.19 Q112.612 1101.19 114.418 1097.65 Q116.246 1094.08 116.246 1086.98 Q116.246 1079.85 114.418 1076.31 Q112.612 1072.74 108.978 1072.74 M108.978 1069.04 Q114.788 1069.04 117.844 1073.64 Q120.922 1078.23 120.922 1086.98 Q120.922 1095.7 117.844 1100.31 Q114.788 1104.89 108.978 1104.89 Q103.168 1104.89 100.089 1100.31 Q97.0335 1095.7 97.0335 1086.98 Q97.0335 1078.23 100.089 1073.64 Q103.168 1069.04 108.978 1069.04 Z" fill="#000000" fill-rule="evenodd" fill-opacity="1" /><path clip-path="url(#clip300)" d="M157.311 1078.76 L146.732 1089.38 L157.311 1099.96 L154.556 1102.76 L143.931 1092.14 L133.306 1102.76 L130.575 1099.96 L141.131 1089.38 L130.575 1078.76 L133.306 1075.96 L143.931 1086.58 L154.556 1075.96 L157.311 1078.76 Z" fill="#000000" fill-rule="evenodd" fill-opacity="1" /><path clip-path="url(#clip300)" d="M169.672 1100.29 L177.311 1100.29 L177.311 1073.92 L169.001 1075.59 L169.001 1071.33 L177.265 1069.66 L181.94 1069.66 L181.94 1100.29 L189.579 1100.29 L189.579 1104.22 L169.672 1104.22 L169.672 1100.29 Z" fill="#000000" fill-rule="evenodd" fill-opacity="1" /><path clip-path="url(#clip300)" d="M209.024 1072.74 Q205.413 1072.74 203.584 1076.31 Q201.778 1079.85 201.778 1086.98 Q201.778 1094.08 203.584 1097.65 Q205.413 1101.19 209.024 1101.19 Q212.658 1101.19 214.463 1097.65 Q216.292 1094.08 216.292 1086.98 Q216.292 1079.85 214.463 1076.31 Q212.658 1072.74 209.024 1072.74 M209.024 1069.04 Q214.834 1069.04 217.889 1073.64 Q220.968 1078.23 220.968 1086.98 Q220.968 1095.7 217.889 1100.31 Q214.834 1104.89 209.024 1104.89 Q203.214 1104.89 200.135 1100.31 Q197.079 1095.7 197.079 1086.98 Q197.079 1078.23 200.135 1073.64 Q203.214 1069.04 209.024 1069.04 Z" fill="#000000" fill-rule="evenodd" fill-opacity="1" /><path clip-path="url(#clip300)" d="M233.645 1052.04 L224.053 1067.03 L233.645 1067.03 L233.645 1052.04 M232.648 1048.73 L237.425 1048.73 L237.425 1067.03 L241.431 1067.03 L241.431 1070.19 L237.425 1070.19 L237.425 1076.81 L233.645 1076.81 L233.645 1070.19 L220.968 1070.19 L220.968 1066.52 L232.648 1048.73 Z" fill="#000000" fill-rule="evenodd" fill-opacity="1" /><path clip-path="url(#clip300)" d="M66.5939 706.357 L54.7884 724.806 L66.5939 724.806 L66.5939 706.357 M65.367 702.283 L71.2466 702.283 L71.2466 724.806 L76.1772 724.806 L76.1772 728.695 L71.2466 728.695 L71.2466 736.843 L66.5939 736.843 L66.5939 728.695 L50.9921 728.695 L50.9921 724.181 L65.367 702.283 Z" fill="#000000" fill-rule="evenodd" fill-opacity="1" /><path clip-path="url(#clip300)" d="M83.9086 730.963 L88.7928 730.963 L88.7928 736.843 L83.9086 736.843 L83.9086 730.963 Z" fill="#000000" fill-rule="evenodd" fill-opacity="1" /><path clip-path="url(#clip300)" d="M108.978 705.362 Q105.367 705.362 103.538 708.926 Q101.733 712.468 101.733 719.598 Q101.733 726.704 103.538 730.269 Q105.367 733.81 108.978 733.81 Q112.612 733.81 114.418 730.269 Q116.246 726.704 116.246 719.598 Q116.246 712.468 114.418 708.926 Q112.612 705.362 108.978 705.362 M108.978 701.658 Q114.788 701.658 117.844 706.264 Q120.922 710.848 120.922 719.598 Q120.922 728.324 117.844 732.931 Q114.788 737.514 108.978 737.514 Q103.168 737.514 100.089 732.931 Q97.0335 728.324 97.0335 719.598 Q97.0335 710.848 100.089 706.264 Q103.168 701.658 108.978 701.658 Z" fill="#000000" fill-rule="evenodd" fill-opacity="1" /><path clip-path="url(#clip300)" d="M157.311 711.38 L146.732 722.005 L157.311 732.584 L154.556 735.385 L143.931 724.76 L133.306 735.385 L130.575 732.584 L141.131 722.005 L130.575 711.38 L133.306 708.579 L143.931 719.204 L154.556 708.579 L157.311 711.38 Z" fill="#000000" fill-rule="evenodd" fill-opacity="1" /><path clip-path="url(#clip300)" d="M169.672 732.908 L177.311 732.908 L177.311 706.542 L169.001 708.209 L169.001 703.95 L177.265 702.283 L181.94 702.283 L181.94 732.908 L189.579 732.908 L189.579 736.843 L169.672 736.843 L169.672 732.908 Z" fill="#000000" fill-rule="evenodd" fill-opacity="1" /><path clip-path="url(#clip300)" d="M209.024 705.362 Q205.413 705.362 203.584 708.926 Q201.778 712.468 201.778 719.598 Q201.778 726.704 203.584 730.269 Q205.413 733.81 209.024 733.81 Q212.658 733.81 214.463 730.269 Q216.292 726.704 216.292 719.598 Q216.292 712.468 214.463 708.926 Q212.658 705.362 209.024 705.362 M209.024 701.658 Q214.834 701.658 217.889 706.264 Q220.968 710.848 220.968 719.598 Q220.968 728.324 217.889 732.931 Q214.834 737.514 209.024 737.514 Q203.214 737.514 200.135 732.931 Q197.079 728.324 197.079 719.598 Q197.079 710.848 200.135 706.264 Q203.214 701.658 209.024 701.658 Z" fill="#000000" fill-rule="evenodd" fill-opacity="1" /><path clip-path="url(#clip300)" d="M233.645 684.663 L224.053 699.652 L233.645 699.652 L233.645 684.663 M232.648 681.352 L237.425 681.352 L237.425 699.652 L241.431 699.652 L241.431 702.812 L237.425 702.812 L237.425 709.432 L233.645 709.432 L233.645 702.812 L220.968 702.812 L220.968 699.145 L232.648 681.352 Z" fill="#000000" fill-rule="evenodd" fill-opacity="1" /><path clip-path="url(#clip300)" d="M64.3254 350.321 Q61.1773 350.321 59.3254 352.473 Q57.4967 354.626 57.4967 358.376 Q57.4967 362.103 59.3254 364.279 Q61.1773 366.432 64.3254 366.432 Q67.4735 366.432 69.3022 364.279 Q71.1541 362.103 71.1541 358.376 Q71.1541 354.626 69.3022 352.473 Q67.4735 350.321 64.3254 350.321 M73.6077 335.668 L73.6077 339.927 Q71.8485 339.094 70.0429 338.654 Q68.2606 338.214 66.5013 338.214 Q61.8717 338.214 59.418 341.339 Q56.9875 344.464 56.6402 350.784 Q58.006 348.77 60.0662 347.705 Q62.1263 346.617 64.6032 346.617 Q69.8115 346.617 72.8207 349.788 Q75.8531 352.936 75.8531 358.376 Q75.8531 363.7 72.705 366.918 Q69.5568 370.135 64.3254 370.135 Q58.33 370.135 55.1588 365.552 Q51.9875 360.945 51.9875 352.219 Q51.9875 344.024 55.8764 339.163 Q59.7652 334.279 66.3161 334.279 Q68.0754 334.279 69.8578 334.626 Q71.6633 334.973 73.6077 335.668 Z" fill="#000000" fill-rule="evenodd" fill-opacity="1" /><path clip-path="url(#clip300)" d="M83.9086 363.584 L88.7928 363.584 L88.7928 369.464 L83.9086 369.464 L83.9086 363.584 Z" fill="#000000" fill-rule="evenodd" fill-opacity="1" /><path clip-path="url(#clip300)" d="M108.978 337.983 Q105.367 337.983 103.538 341.547 Q101.733 345.089 101.733 352.219 Q101.733 359.325 103.538 362.89 Q105.367 366.432 108.978 366.432 Q112.612 366.432 114.418 362.89 Q116.246 359.325 116.246 352.219 Q116.246 345.089 114.418 341.547 Q112.612 337.983 108.978 337.983 M108.978 334.279 Q114.788 334.279 117.844 338.885 Q120.922 343.469 120.922 352.219 Q120.922 360.945 117.844 365.552 Q114.788 370.135 108.978 370.135 Q103.168 370.135 100.089 365.552 Q97.0335 360.945 97.0335 352.219 Q97.0335 343.469 100.089 338.885 Q103.168 334.279 108.978 334.279 Z" fill="#000000" fill-rule="evenodd" fill-opacity="1" /><path clip-path="url(#clip300)" d="M157.311 344.001 L146.732 354.626 L157.311 365.205 L154.556 368.006 L143.931 357.381 L133.306 368.006 L130.575 365.205 L141.131 354.626 L130.575 344.001 L133.306 341.2 L143.931 351.825 L154.556 341.2 L157.311 344.001 Z" fill="#000000" fill-rule="evenodd" fill-opacity="1" /><path clip-path="url(#clip300)" d="M169.672 365.529 L177.311 365.529 L177.311 339.163 L169.001 340.83 L169.001 336.571 L177.265 334.904 L181.94 334.904 L181.94 365.529 L189.579 365.529 L189.579 369.464 L169.672 369.464 L169.672 365.529 Z" fill="#000000" fill-rule="evenodd" fill-opacity="1" /><path clip-path="url(#clip300)" d="M209.024 337.983 Q205.413 337.983 203.584 341.547 Q201.778 345.089 201.778 352.219 Q201.778 359.325 203.584 362.89 Q205.413 366.432 209.024 366.432 Q212.658 366.432 214.463 362.89 Q216.292 359.325 216.292 352.219 Q216.292 345.089 214.463 341.547 Q212.658 337.983 209.024 337.983 M209.024 334.279 Q214.834 334.279 217.889 338.885 Q220.968 343.469 220.968 352.219 Q220.968 360.945 217.889 365.552 Q214.834 370.135 209.024 370.135 Q203.214 370.135 200.135 365.552 Q197.079 360.945 197.079 352.219 Q197.079 343.469 200.135 338.885 Q203.214 334.279 209.024 334.279 Z" fill="#000000" fill-rule="evenodd" fill-opacity="1" /><path clip-path="url(#clip300)" d="M233.645 317.284 L224.053 332.274 L233.645 332.274 L233.645 317.284 M232.648 313.974 L237.425 313.974 L237.425 332.274 L241.431 332.274 L241.431 335.433 L237.425 335.433 L237.425 342.054 L233.645 342.054 L233.645 335.433 L220.968 335.433 L220.968 331.766 L232.648 313.974 Z" fill="#000000" fill-rule="evenodd" fill-opacity="1" /><path clip-path="url(#clip300)" d="M441.577 20.1573 L430.477 50.2555 L452.717 50.2555 L441.577 20.1573 M436.959 12.096 L446.235 12.096 L469.285 72.576 L460.778 72.576 L455.269 57.061 L428.006 57.061 L422.497 72.576 L413.868 72.576 L436.959 12.096 Z" fill="#000000" fill-rule="evenodd" fill-opacity="1" /><path clip-path="url(#clip300)" d="M477.022 54.671 L477.022 27.2059 L484.476 27.2059 L484.476 54.3874 Q484.476 60.8284 486.987 64.0691 Q489.499 67.2693 494.522 67.2693 Q500.558 67.2693 504.042 63.421 Q507.566 59.5726 507.566 52.9291 L507.566 27.2059 L515.02 27.2059 L515.02 72.576 L507.566 72.576 L507.566 65.6084 Q504.852 69.7404 501.247 71.7658 Q497.682 73.7508 492.942 73.7508 Q485.124 73.7508 481.073 68.8897 Q477.022 64.0286 477.022 54.671 M495.778 26.1121 L495.778 26.1121 Z" fill="#000000" fill-rule="evenodd" fill-opacity="1" /><path clip-path="url(#clip300)" d="M559.296 28.5427 L559.296 35.5912 Q556.136 33.9709 552.733 33.1607 Q549.331 32.3505 545.685 32.3505 Q540.135 32.3505 537.34 34.0519 Q534.585 35.7533 534.585 39.156 Q534.585 41.7486 536.57 43.2475 Q538.555 44.7058 544.551 46.0426 L547.103 46.6097 Q555.043 48.3111 558.364 51.4303 Q561.727 54.509 561.727 60.0587 Q561.727 66.3781 556.703 70.0644 Q551.721 73.7508 542.971 73.7508 Q539.325 73.7508 535.355 73.0216 Q531.426 72.3329 527.051 70.9151 L527.051 63.2184 Q531.183 65.3654 535.193 66.4591 Q539.203 67.5124 543.133 67.5124 Q548.399 67.5124 551.235 65.73 Q554.07 63.9071 554.07 60.6258 Q554.07 57.5877 552.004 55.9673 Q549.979 54.3469 543.052 52.8481 L540.459 52.2405 Q533.532 50.7821 530.454 47.7845 Q527.375 44.7463 527.375 39.4801 Q527.375 33.0797 531.912 29.5959 Q536.449 26.1121 544.794 26.1121 Q548.926 26.1121 552.571 26.7198 Q556.217 27.3274 559.296 28.5427 Z" fill="#000000" fill-rule="evenodd" fill-opacity="1" /><path clip-path="url(#clip300)" d="M580.968 14.324 L580.968 27.2059 L596.321 27.2059 L596.321 32.9987 L580.968 32.9987 L580.968 57.6282 Q580.968 63.1779 582.467 64.7578 Q584.006 66.3376 588.665 66.3376 L596.321 66.3376 L596.321 72.576 L588.665 72.576 Q580.037 72.576 576.755 69.3758 Q573.474 66.1351 573.474 57.6282 L573.474 32.9987 L568.005 32.9987 L568.005 27.2059 L573.474 27.2059 L573.474 14.324 L580.968 14.324 Z" fill="#000000" fill-rule="evenodd" fill-opacity="1" /><path clip-path="url(#clip300)" d="M632.415 34.1734 Q631.159 33.4443 629.66 33.1202 Q628.202 32.7556 626.419 32.7556 Q620.1 32.7556 616.697 36.8875 Q613.335 40.9789 613.335 48.6757 L613.335 72.576 L605.841 72.576 L605.841 27.2059 L613.335 27.2059 L613.335 34.2544 Q615.685 30.1225 619.452 28.1376 Q623.219 26.1121 628.607 26.1121 Q629.377 26.1121 630.308 26.2337 Q631.24 26.3147 632.374 26.5172 L632.415 34.1734 Z" fill="#000000" fill-rule="evenodd" fill-opacity="1" /><path clip-path="url(#clip300)" d="M660.852 49.7694 Q651.819 49.7694 648.335 51.8354 Q644.851 53.9013 644.851 58.8839 Q644.851 62.8538 647.444 65.2034 Q650.077 67.5124 654.573 67.5124 Q660.771 67.5124 664.498 63.1374 Q668.265 58.7219 668.265 51.4303 L668.265 49.7694 L660.852 49.7694 M675.719 46.6907 L675.719 72.576 L668.265 72.576 L668.265 65.6895 Q665.713 69.8214 661.905 71.8063 Q658.098 73.7508 652.588 73.7508 Q645.621 73.7508 641.489 69.8619 Q637.397 65.9325 637.397 59.3701 Q637.397 51.7138 642.502 47.825 Q647.646 43.9361 657.814 43.9361 L668.265 43.9361 L668.265 43.2069 Q668.265 38.0623 664.863 35.2672 Q661.5 32.4315 655.383 32.4315 Q651.495 32.4315 647.808 33.3632 Q644.122 34.295 640.719 36.1584 L640.719 29.2718 Q644.811 27.692 648.659 26.9223 Q652.507 26.1121 656.153 26.1121 Q665.997 26.1121 670.858 31.2163 Q675.719 36.3204 675.719 46.6907 Z" fill="#000000" fill-rule="evenodd" fill-opacity="1" /><path clip-path="url(#clip300)" d="M691.072 9.54393 L698.526 9.54393 L698.526 72.576 L691.072 72.576 L691.072 9.54393 Z" fill="#000000" fill-rule="evenodd" fill-opacity="1" /><path clip-path="url(#clip300)" d="M714.122 27.2059 L721.575 27.2059 L721.575 72.576 L714.122 72.576 L714.122 27.2059 M714.122 9.54393 L721.575 9.54393 L721.575 18.9825 L714.122 18.9825 L714.122 9.54393 Z" fill="#000000" fill-rule="evenodd" fill-opacity="1" /><path clip-path="url(#clip300)" d="M757.79 49.7694 Q748.757 49.7694 745.273 51.8354 Q741.789 53.9013 741.789 58.8839 Q741.789 62.8538 744.382 65.2034 Q747.015 67.5124 751.511 67.5124 Q757.709 67.5124 761.436 63.1374 Q765.203 58.7219 765.203 51.4303 L765.203 49.7694 L757.79 49.7694 M772.657 46.6907 L772.657 72.576 L765.203 72.576 L765.203 65.6895 Q762.651 69.8214 758.844 71.8063 Q755.036 73.7508 749.526 73.7508 Q742.559 73.7508 738.427 69.8619 Q734.336 65.9325 734.336 59.3701 Q734.336 51.7138 739.44 47.825 Q744.584 43.9361 754.752 43.9361 L765.203 43.9361 L765.203 43.2069 Q765.203 38.0623 761.801 35.2672 Q758.438 32.4315 752.322 32.4315 Q748.433 32.4315 744.746 33.3632 Q741.06 34.295 737.657 36.1584 L737.657 29.2718 Q741.749 27.692 745.597 26.9223 Q749.445 26.1121 753.091 26.1121 Q762.935 26.1121 767.796 31.2163 Q772.657 36.3204 772.657 46.6907 Z" fill="#000000" fill-rule="evenodd" fill-opacity="1" /><path clip-path="url(#clip300)" d="M855.944 63.9476 L855.944 47.7034 L842.576 47.7034 L842.576 40.9789 L864.045 40.9789 L864.045 66.9452 Q859.306 70.3075 853.594 72.0494 Q847.882 73.7508 841.401 73.7508 Q827.223 73.7508 819.202 65.4869 Q811.222 57.1826 811.222 42.3968 Q811.222 27.5705 819.202 19.3066 Q827.223 11.0023 841.401 11.0023 Q847.315 11.0023 852.622 12.4606 Q857.969 13.9189 862.466 16.7545 L862.466 25.464 Q857.929 21.6156 852.824 19.6712 Q847.72 17.7268 842.09 17.7268 Q830.99 17.7268 825.4 23.9246 Q819.85 30.1225 819.85 42.3968 Q819.85 54.6305 825.4 60.8284 Q830.99 67.0263 842.09 67.0263 Q846.424 67.0263 849.827 66.2971 Q853.23 65.5274 855.944 63.9476 Z" fill="#000000" fill-rule="evenodd" fill-opacity="1" /><path clip-path="url(#clip300)" d="M887.176 18.8205 L887.176 65.8515 L897.06 65.8515 Q909.578 65.8515 915.37 60.1802 Q921.204 54.509 921.204 42.2752 Q921.204 30.1225 915.37 24.4918 Q909.578 18.8205 897.06 18.8205 L887.176 18.8205 M878.993 12.096 L895.805 12.096 Q913.385 12.096 921.609 19.4281 Q929.832 26.7198 929.832 42.2752 Q929.832 57.9117 921.568 65.2439 Q913.304 72.576 895.805 72.576 L878.993 72.576 L878.993 12.096 Z" fill="#000000" fill-rule="evenodd" fill-opacity="1" /><path clip-path="url(#clip300)" d="M951.059 18.8205 L951.059 41.5461 L961.348 41.5461 Q967.06 41.5461 970.179 38.5889 Q973.298 35.6318 973.298 30.163 Q973.298 24.7348 970.179 21.7777 Q967.06 18.8205 961.348 18.8205 L951.059 18.8205 M942.876 12.096 L961.348 12.096 Q971.516 12.096 976.701 16.714 Q981.927 21.2916 981.927 30.163 Q981.927 39.1155 976.701 43.6931 Q971.516 48.2706 961.348 48.2706 L951.059 48.2706 L951.059 72.576 L942.876 72.576 L942.876 12.096 Z" fill="#000000" fill-rule="evenodd" fill-opacity="1" /><path clip-path="url(#clip300)" d="M1005.83 12.096 L1012.71 12.096 L991.649 80.2727 L984.762 80.2727 L1005.83 12.096 Z" fill="#000000" fill-rule="evenodd" fill-opacity="1" /><path clip-path="url(#clip300)" d="M1053.18 28.9478 L1053.18 35.9153 Q1050.02 34.1734 1046.82 33.3227 Q1043.66 32.4315 1040.42 32.4315 Q1033.17 32.4315 1029.16 37.0496 Q1025.15 41.6271 1025.15 49.9314 Q1025.15 58.2358 1029.16 62.8538 Q1033.17 67.4314 1040.42 67.4314 Q1043.66 67.4314 1046.82 66.5807 Q1050.02 65.6895 1053.18 63.9476 L1053.18 70.8341 Q1050.06 72.2924 1046.7 73.0216 Q1043.38 73.7508 1039.61 73.7508 Q1029.36 73.7508 1023.33 67.3098 Q1017.29 60.8689 1017.29 49.9314 Q1017.29 38.832 1023.37 32.472 Q1029.48 26.1121 1040.1 26.1121 Q1043.54 26.1121 1046.82 26.8413 Q1050.1 27.5299 1053.18 28.9478 Z" fill="#000000" fill-rule="evenodd" fill-opacity="1" /><path clip-path="url(#clip300)" d="M1086.76 49.7694 Q1077.73 49.7694 1074.25 51.8354 Q1070.76 53.9013 1070.76 58.8839 Q1070.76 62.8538 1073.36 65.2034 Q1075.99 67.5124 1080.49 67.5124 Q1086.68 67.5124 1090.41 63.1374 Q1094.18 58.7219 1094.18 51.4303 L1094.18 49.7694 L1086.76 49.7694 M1101.63 46.6907 L1101.63 72.576 L1094.18 72.576 L1094.18 65.6895 Q1091.63 69.8214 1087.82 71.8063 Q1084.01 73.7508 1078.5 73.7508 Q1071.53 73.7508 1067.4 69.8619 Q1063.31 65.9325 1063.31 59.3701 Q1063.31 51.7138 1068.41 47.825 Q1073.56 43.9361 1083.73 43.9361 L1094.18 43.9361 L1094.18 43.2069 Q1094.18 38.0623 1090.77 35.2672 Q1087.41 32.4315 1081.3 32.4315 Q1077.41 32.4315 1073.72 33.3632 Q1070.03 34.295 1066.63 36.1584 L1066.63 29.2718 Q1070.72 27.692 1074.57 26.9223 Q1078.42 26.1121 1082.07 26.1121 Q1091.91 26.1121 1096.77 31.2163 Q1101.63 36.3204 1101.63 46.6907 Z" fill="#000000" fill-rule="evenodd" fill-opacity="1" /><path clip-path="url(#clip300)" d="M1124.19 65.7705 L1124.19 89.8329 L1116.7 89.8329 L1116.7 27.2059 L1124.19 27.2059 L1124.19 34.0924 Q1126.54 30.0415 1130.11 28.0971 Q1133.71 26.1121 1138.7 26.1121 Q1146.96 26.1121 1152.11 32.6746 Q1157.29 39.2371 1157.29 49.9314 Q1157.29 60.6258 1152.11 67.1883 Q1146.96 73.7508 1138.7 73.7508 Q1133.71 73.7508 1130.11 71.8063 Q1126.54 69.8214 1124.19 65.7705 M1149.55 49.9314 Q1149.55 41.7081 1146.15 37.0496 Q1142.79 32.3505 1136.87 32.3505 Q1130.96 32.3505 1127.56 37.0496 Q1124.19 41.7081 1124.19 49.9314 Q1124.19 58.1548 1127.56 62.8538 Q1130.96 67.5124 1136.87 67.5124 Q1142.79 67.5124 1146.15 62.8538 Q1149.55 58.1548 1149.55 49.9314 Z" fill="#000000" fill-rule="evenodd" fill-opacity="1" /><path clip-path="url(#clip300)" d="M1169.65 27.2059 L1177.1 27.2059 L1177.1 72.576 L1169.65 72.576 L1169.65 27.2059 M1169.65 9.54393 L1177.1 9.54393 L1177.1 18.9825 L1169.65 18.9825 L1169.65 9.54393 Z" fill="#000000" fill-rule="evenodd" fill-opacity="1" /><path clip-path="url(#clip300)" d="M1200.07 14.324 L1200.07 27.2059 L1215.42 27.2059 L1215.42 32.9987 L1200.07 32.9987 L1200.07 57.6282 Q1200.07 63.1779 1201.57 64.7578 Q1203.11 66.3376 1207.76 66.3376 L1215.42 66.3376 L1215.42 72.576 L1207.76 72.576 Q1199.14 72.576 1195.86 69.3758 Q1192.57 66.1351 1192.57 57.6282 L1192.57 32.9987 L1187.11 32.9987 L1187.11 27.2059 L1192.57 27.2059 L1192.57 14.324 L1200.07 14.324 Z" fill="#000000" fill-rule="evenodd" fill-opacity="1" /><path clip-path="url(#clip300)" d="M1245.84 49.7694 Q1236.81 49.7694 1233.33 51.8354 Q1229.84 53.9013 1229.84 58.8839 Q1229.84 62.8538 1232.43 65.2034 Q1235.07 67.5124 1239.56 67.5124 Q1245.76 67.5124 1249.49 63.1374 Q1253.26 58.7219 1253.26 51.4303 L1253.26 49.7694 L1245.84 49.7694 M1260.71 46.6907 L1260.71 72.576 L1253.26 72.576 L1253.26 65.6895 Q1250.7 69.8214 1246.9 71.8063 Q1243.09 73.7508 1237.58 73.7508 Q1230.61 73.7508 1226.48 69.8619 Q1222.39 65.9325 1222.39 59.3701 Q1222.39 51.7138 1227.49 47.825 Q1232.64 43.9361 1242.81 43.9361 L1253.26 43.9361 L1253.26 43.2069 Q1253.26 38.0623 1249.85 35.2672 Q1246.49 32.4315 1240.37 32.4315 Q1236.49 32.4315 1232.8 33.3632 Q1229.11 34.295 1225.71 36.1584 L1225.71 29.2718 Q1229.8 27.692 1233.65 26.9223 Q1237.5 26.1121 1241.14 26.1121 Q1250.99 26.1121 1255.85 31.2163 Q1260.71 36.3204 1260.71 46.6907 Z" fill="#000000" fill-rule="evenodd" fill-opacity="1" /><path clip-path="url(#clip300)" d="M1348.05 16.7545 L1348.05 25.383 Q1343.92 21.5346 1339.22 19.6307 Q1334.56 17.7268 1329.29 17.7268 Q1318.92 17.7268 1313.41 24.0867 Q1307.9 30.4061 1307.9 42.3968 Q1307.9 54.3469 1313.41 60.7069 Q1318.92 67.0263 1329.29 67.0263 Q1334.56 67.0263 1339.22 65.1223 Q1343.92 63.2184 1348.05 59.3701 L1348.05 67.9175 Q1343.75 70.8341 1338.93 72.2924 Q1334.15 73.7508 1328.81 73.7508 Q1315.07 73.7508 1307.17 65.3654 Q1299.27 56.9395 1299.27 42.3968 Q1299.27 27.8135 1307.17 19.4281 Q1315.07 11.0023 1328.81 11.0023 Q1334.23 11.0023 1339.01 12.4606 Q1343.83 13.8784 1348.05 16.7545 Z" fill="#000000" fill-rule="evenodd" fill-opacity="1" /><path clip-path="url(#clip300)" d="M1377.94 32.4315 Q1371.95 32.4315 1368.46 37.1306 Q1364.98 41.7891 1364.98 49.9314 Q1364.98 58.0738 1368.42 62.7728 Q1371.91 67.4314 1377.94 67.4314 Q1383.9 67.4314 1387.38 62.7323 Q1390.87 58.0333 1390.87 49.9314 Q1390.87 41.8701 1387.38 37.1711 Q1383.9 32.4315 1377.94 32.4315 M1377.94 26.1121 Q1387.67 26.1121 1393.22 32.4315 Q1398.76 38.7509 1398.76 49.9314 Q1398.76 61.0714 1393.22 67.4314 Q1387.67 73.7508 1377.94 73.7508 Q1368.18 73.7508 1362.63 67.4314 Q1357.12 61.0714 1357.12 49.9314 Q1357.12 38.7509 1362.63 32.4315 Q1368.18 26.1121 1377.94 26.1121 Z" fill="#000000" fill-rule="evenodd" fill-opacity="1" /><path clip-path="url(#clip300)" d="M1448.83 45.1919 L1448.83 72.576 L1441.38 72.576 L1441.38 45.4349 Q1441.38 38.994 1438.87 35.7938 Q1436.36 32.5936 1431.33 32.5936 Q1425.3 32.5936 1421.81 36.4419 Q1418.33 40.2903 1418.33 46.9338 L1418.33 72.576 L1410.84 72.576 L1410.84 27.2059 L1418.33 27.2059 L1418.33 34.2544 Q1421 30.163 1424.61 28.1376 Q1428.26 26.1121 1432.99 26.1121 Q1440.81 26.1121 1444.82 30.9732 Q1448.83 35.7938 1448.83 45.1919 Z" fill="#000000" fill-rule="evenodd" fill-opacity="1" /><path clip-path="url(#clip300)" d="M1492.62 28.5427 L1492.62 35.5912 Q1489.46 33.9709 1486.06 33.1607 Q1482.66 32.3505 1479.01 32.3505 Q1473.46 32.3505 1470.67 34.0519 Q1467.91 35.7533 1467.91 39.156 Q1467.91 41.7486 1469.9 43.2475 Q1471.88 44.7058 1477.88 46.0426 L1480.43 46.6097 Q1488.37 48.3111 1491.69 51.4303 Q1495.05 54.509 1495.05 60.0587 Q1495.05 66.3781 1490.03 70.0644 Q1485.05 73.7508 1476.3 73.7508 Q1472.65 73.7508 1468.68 73.0216 Q1464.75 72.3329 1460.38 70.9151 L1460.38 63.2184 Q1464.51 65.3654 1468.52 66.4591 Q1472.53 67.5124 1476.46 67.5124 Q1481.73 67.5124 1484.56 65.73 Q1487.4 63.9071 1487.4 60.6258 Q1487.4 57.5877 1485.33 55.9673 Q1483.31 54.3469 1476.38 52.8481 L1473.79 52.2405 Q1466.86 50.7821 1463.78 47.7845 Q1460.7 44.7463 1460.7 39.4801 Q1460.7 33.0797 1465.24 29.5959 Q1469.78 26.1121 1478.12 26.1121 Q1482.25 26.1121 1485.9 26.7198 Q1489.55 27.3274 1492.62 28.5427 Z" fill="#000000" fill-rule="evenodd" fill-opacity="1" /><path clip-path="url(#clip300)" d="M1514.3 14.324 L1514.3 27.2059 L1529.65 27.2059 L1529.65 32.9987 L1514.3 32.9987 L1514.3 57.6282 Q1514.3 63.1779 1515.8 64.7578 Q1517.33 66.3376 1521.99 66.3376 L1529.65 66.3376 L1529.65 72.576 L1521.99 72.576 Q1513.36 72.576 1510.08 69.3758 Q1506.8 66.1351 1506.8 57.6282 L1506.8 32.9987 L1501.33 32.9987 L1501.33 27.2059 L1506.8 27.2059 L1506.8 14.324 L1514.3 14.324 Z" fill="#000000" fill-rule="evenodd" fill-opacity="1" /><path clip-path="url(#clip300)" d="M1560.07 49.7694 Q1551.04 49.7694 1547.55 51.8354 Q1544.07 53.9013 1544.07 58.8839 Q1544.07 62.8538 1546.66 65.2034 Q1549.3 67.5124 1553.79 67.5124 Q1559.99 67.5124 1563.72 63.1374 Q1567.49 58.7219 1567.49 51.4303 L1567.49 49.7694 L1560.07 49.7694 M1574.94 46.6907 L1574.94 72.576 L1567.49 72.576 L1567.49 65.6895 Q1564.93 69.8214 1561.13 71.8063 Q1557.32 73.7508 1551.81 73.7508 Q1544.84 73.7508 1540.71 69.8619 Q1536.62 65.9325 1536.62 59.3701 Q1536.62 51.7138 1541.72 47.825 Q1546.87 43.9361 1557.03 43.9361 L1567.49 43.9361 L1567.49 43.2069 Q1567.49 38.0623 1564.08 35.2672 Q1560.72 32.4315 1554.6 32.4315 Q1550.71 32.4315 1547.03 33.3632 Q1543.34 34.295 1539.94 36.1584 L1539.94 29.2718 Q1544.03 27.692 1547.88 26.9223 Q1551.73 26.1121 1555.37 26.1121 Q1565.22 26.1121 1570.08 31.2163 Q1574.94 36.3204 1574.94 46.6907 Z" fill="#000000" fill-rule="evenodd" fill-opacity="1" /><path clip-path="url(#clip300)" d="M1628.01 45.1919 L1628.01 72.576 L1620.55 72.576 L1620.55 45.4349 Q1620.55 38.994 1618.04 35.7938 Q1615.53 32.5936 1610.51 32.5936 Q1604.47 32.5936 1600.99 36.4419 Q1597.5 40.2903 1597.5 46.9338 L1597.5 72.576 L1590.01 72.576 L1590.01 27.2059 L1597.5 27.2059 L1597.5 34.2544 Q1600.18 30.163 1603.78 28.1376 Q1607.43 26.1121 1612.17 26.1121 Q1619.98 26.1121 1624 30.9732 Q1628.01 35.7938 1628.01 45.1919 Z" fill="#000000" fill-rule="evenodd" fill-opacity="1" /><path clip-path="url(#clip300)" d="M1650.24 14.324 L1650.24 27.2059 L1665.6 27.2059 L1665.6 32.9987 L1650.24 32.9987 L1650.24 57.6282 Q1650.24 63.1779 1651.74 64.7578 Q1653.28 66.3376 1657.94 66.3376 L1665.6 66.3376 L1665.6 72.576 L1657.94 72.576 Q1649.31 72.576 1646.03 69.3758 Q1642.75 66.1351 1642.75 57.6282 L1642.75 32.9987 L1637.28 32.9987 L1637.28 27.2059 L1642.75 27.2059 L1642.75 14.324 L1650.24 14.324 Z" fill="#000000" fill-rule="evenodd" fill-opacity="1" /><path clip-path="url(#clip300)" d="M1709.87 65.6895 L1738.43 65.6895 L1738.43 72.576 L1700.03 72.576 L1700.03 65.6895 Q1704.69 60.8689 1712.71 52.7671 Q1720.77 44.6248 1722.84 42.2752 Q1726.77 37.8598 1728.31 34.8216 Q1729.89 31.7429 1729.89 28.7857 Q1729.89 23.9651 1726.48 20.927 Q1723.12 17.8888 1717.69 17.8888 Q1713.84 17.8888 1709.55 19.2256 Q1705.3 20.5624 1700.44 23.2765 L1700.44 15.0127 Q1705.38 13.0277 1709.67 12.015 Q1713.97 11.0023 1717.53 11.0023 Q1726.93 11.0023 1732.52 15.7013 Q1738.11 20.4004 1738.11 28.2591 Q1738.11 31.9859 1736.69 35.3482 Q1735.31 38.6699 1731.63 43.2069 Q1730.61 44.3817 1725.19 50.0125 Q1719.76 55.6027 1709.87 65.6895 Z" fill="#000000" fill-rule="evenodd" fill-opacity="1" /><path clip-path="url(#clip300)" d="M1773.11 17.4837 Q1766.79 17.4837 1763.59 23.7221 Q1760.43 29.92 1760.43 42.3968 Q1760.43 54.833 1763.59 61.0714 Q1766.79 67.2693 1773.11 67.2693 Q1779.47 67.2693 1782.63 61.0714 Q1785.83 54.833 1785.83 42.3968 Q1785.83 29.92 1782.63 23.7221 Q1779.47 17.4837 1773.11 17.4837 M1773.11 11.0023 Q1783.28 11.0023 1788.62 19.0636 Q1794.01 27.0843 1794.01 42.3968 Q1794.01 57.6687 1788.62 65.73 Q1783.28 73.7508 1773.11 73.7508 Q1762.94 73.7508 1757.55 65.73 Q1752.21 57.6687 1752.21 42.3968 Q1752.21 27.0843 1757.55 19.0636 Q1762.94 11.0023 1773.11 11.0023 Z" fill="#000000" fill-rule="evenodd" fill-opacity="1" /><path clip-path="url(#clip300)" d="M1815.44 65.6895 L1844 65.6895 L1844 72.576 L1805.6 72.576 L1805.6 65.6895 Q1810.26 60.8689 1818.28 52.7671 Q1826.34 44.6248 1828.4 42.2752 Q1832.33 37.8598 1833.87 34.8216 Q1835.45 31.7429 1835.45 28.7857 Q1835.45 23.9651 1832.05 20.927 Q1828.69 17.8888 1823.26 17.8888 Q1819.41 17.8888 1815.12 19.2256 Q1810.86 20.5624 1806 23.2765 L1806 15.0127 Q1810.94 13.0277 1815.24 12.015 Q1819.53 11.0023 1823.1 11.0023 Q1832.5 11.0023 1838.09 15.7013 Q1843.68 20.4004 1843.68 28.2591 Q1843.68 31.9859 1842.26 35.3482 Q1840.88 38.6699 1837.19 43.2069 Q1836.18 44.3817 1830.75 50.0125 Q1825.33 55.6027 1815.44 65.6895 Z" fill="#000000" fill-rule="evenodd" fill-opacity="1" /><path clip-path="url(#clip300)" d="M1868.22 65.6895 L1896.78 65.6895 L1896.78 72.576 L1858.38 72.576 L1858.38 65.6895 Q1863.04 60.8689 1871.06 52.7671 Q1879.12 44.6248 1881.19 42.2752 Q1885.12 37.8598 1886.66 34.8216 Q1888.24 31.7429 1888.24 28.7857 Q1888.24 23.9651 1884.83 20.927 Q1881.47 17.8888 1876.04 17.8888 Q1872.19 17.8888 1867.9 19.2256 Q1863.65 20.5624 1858.79 23.2765 L1858.79 15.0127 Q1863.73 13.0277 1868.02 12.015 Q1872.32 11.0023 1875.88 11.0023 Q1885.28 11.0023 1890.87 15.7013 Q1896.46 20.4004 1896.46 28.2591 Q1896.46 31.9859 1895.04 35.3482 Q1893.66 38.6699 1889.98 43.2069 Q1888.96 44.3817 1883.54 50.0125 Q1878.11 55.6027 1868.22 65.6895 Z" fill="#000000" fill-rule="evenodd" fill-opacity="1" /><path clip-path="url(#clip300)" d="M1947.78 18.8205 L1947.78 65.8515 L1957.67 65.8515 Q1970.19 65.8515 1975.98 60.1802 Q1981.81 54.509 1981.81 42.2752 Q1981.81 30.1225 1975.98 24.4918 Q1970.19 18.8205 1957.67 18.8205 L1947.78 18.8205 M1939.6 12.096 L1956.41 12.096 Q1973.99 12.096 1982.22 19.4281 Q1990.44 26.7198 1990.44 42.2752 Q1990.44 57.9117 1982.18 65.2439 Q1973.91 72.576 1956.41 72.576 L1939.6 72.576 L1939.6 12.096 Z" fill="#000000" fill-rule="evenodd" fill-opacity="1" /><path clip-path="url(#clip300)" d="M2020.74 32.4315 Q2014.75 32.4315 2011.26 37.1306 Q2007.78 41.7891 2007.78 49.9314 Q2007.78 58.0738 2011.22 62.7728 Q2014.7 67.4314 2020.74 67.4314 Q2026.7 67.4314 2030.18 62.7323 Q2033.66 58.0333 2033.66 49.9314 Q2033.66 41.8701 2030.18 37.1711 Q2026.7 32.4315 2020.74 32.4315 M2020.74 26.1121 Q2030.46 26.1121 2036.01 32.4315 Q2041.56 38.7509 2041.56 49.9314 Q2041.56 61.0714 2036.01 67.4314 Q2030.46 73.7508 2020.74 73.7508 Q2010.98 73.7508 2005.43 67.4314 Q1999.92 61.0714 1999.92 49.9314 Q1999.92 38.7509 2005.43 32.4315 Q2010.98 26.1121 2020.74 26.1121 Z" fill="#000000" fill-rule="evenodd" fill-opacity="1" /><path clip-path="url(#clip300)" d="M2053.92 9.54393 L2061.37 9.54393 L2061.37 72.576 L2053.92 72.576 L2053.92 9.54393 Z" fill="#000000" fill-rule="evenodd" fill-opacity="1" /><path clip-path="url(#clip300)" d="M2076.97 9.54393 L2084.42 9.54393 L2084.42 72.576 L2076.97 72.576 L2076.97 9.54393 Z" fill="#000000" fill-rule="evenodd" fill-opacity="1" /><path clip-path="url(#clip300)" d="M2120.64 49.7694 Q2111.6 49.7694 2108.12 51.8354 Q2104.63 53.9013 2104.63 58.8839 Q2104.63 62.8538 2107.23 65.2034 Q2109.86 67.5124 2114.36 67.5124 Q2120.55 67.5124 2124.28 63.1374 Q2128.05 58.7219 2128.05 51.4303 L2128.05 49.7694 L2120.64 49.7694 M2135.5 46.6907 L2135.5 72.576 L2128.05 72.576 L2128.05 65.6895 Q2125.5 69.8214 2121.69 71.8063 Q2117.88 73.7508 2112.37 73.7508 Q2105.4 73.7508 2101.27 69.8619 Q2097.18 65.9325 2097.18 59.3701 Q2097.18 51.7138 2102.29 47.825 Q2107.43 43.9361 2117.6 43.9361 L2128.05 43.9361 L2128.05 43.2069 Q2128.05 38.0623 2124.65 35.2672 Q2121.28 32.4315 2115.17 32.4315 Q2111.28 32.4315 2107.59 33.3632 Q2103.91 34.295 2100.5 36.1584 L2100.5 29.2718 Q2104.59 27.692 2108.44 26.9223 Q2112.29 26.1121 2115.94 26.1121 Q2125.78 26.1121 2130.64 31.2163 Q2135.5 36.3204 2135.5 46.6907 Z" fill="#000000" fill-rule="evenodd" fill-opacity="1" /><path clip-path="url(#clip300)" d="M2177.15 34.1734 Q2175.89 33.4443 2174.39 33.1202 Q2172.93 32.7556 2171.15 32.7556 Q2164.83 32.7556 2161.43 36.8875 Q2158.07 40.9789 2158.07 48.6757 L2158.07 72.576 L2150.57 72.576 L2150.57 27.2059 L2158.07 27.2059 L2158.07 34.2544 Q2160.42 30.1225 2164.18 28.1376 Q2167.95 26.1121 2173.34 26.1121 Q2174.11 26.1121 2175.04 26.2337 Q2175.97 26.3147 2177.11 26.5172 L2177.15 34.1734 Z" fill="#000000" fill-rule="evenodd" fill-opacity="1" /><path clip-path="url(#clip300)" d="M2213.89 28.5427 L2213.89 35.5912 Q2210.73 33.9709 2207.33 33.1607 Q2203.92 32.3505 2200.28 32.3505 Q2194.73 32.3505 2191.93 34.0519 Q2189.18 35.7533 2189.18 39.156 Q2189.18 41.7486 2191.16 43.2475 Q2193.15 44.7058 2199.14 46.0426 L2201.69 46.6097 Q2209.63 48.3111 2212.96 51.4303 Q2216.32 54.509 2216.32 60.0587 Q2216.32 66.3781 2211.3 70.0644 Q2206.31 73.7508 2197.56 73.7508 Q2193.92 73.7508 2189.95 73.0216 Q2186.02 72.3329 2181.64 70.9151 L2181.64 63.2184 Q2185.77 65.3654 2189.78 66.4591 Q2193.8 67.5124 2197.72 67.5124 Q2202.99 67.5124 2205.83 65.73 Q2208.66 63.9071 2208.66 60.6258 Q2208.66 57.5877 2206.6 55.9673 Q2204.57 54.3469 2197.64 52.8481 L2195.05 52.2405 Q2188.12 50.7821 2185.05 47.7845 Q2181.97 44.7463 2181.97 39.4801 Q2181.97 33.0797 2186.5 29.5959 Q2191.04 26.1121 2199.39 26.1121 Q2203.52 26.1121 2207.16 26.7198 Q2210.81 27.3274 2213.89 28.5427 Z" fill="#000000" fill-rule="evenodd" fill-opacity="1" /><polyline clip-path="url(#clip302)" style="stroke:#009af9; stroke-linecap:butt; stroke-linejoin:round; stroke-width:4; stroke-opacity:1; fill:none" points="
  336.167,1414.61 368.262,1413.38 400.358,1413.8 432.454,1411.74 464.55,1408.72 496.646,1405.97 528.742,1404.82 560.838,1400.48 592.934,1397.83 625.03,1392.92 
  657.126,1387.16 689.222,1383.66 721.318,1375.31 753.414,1360.22 785.51,1328.77 817.606,1319.18 849.702,1310.3 881.798,1305 913.894,1296.22 945.99,1277.09 
  978.086,1260.29 1010.18,1230.12 1042.28,1212.96 1074.37,1235.92 1106.47,1219.1 1138.57,1237.38 1170.66,1238.74 1202.76,1233.96 1234.85,1185.58 1266.95,1120.39 
  1299.05,1112.76 1331.14,1101.51 1363.24,1106.13 1395.33,1123.35 1427.43,1115.77 1459.53,1073.91 1491.62,1045.51 1523.72,1016.03 1555.81,1055.77 1587.91,1070.23 
  1620.01,1049.31 1652.1,1089.18 1684.2,1078.33 1716.29,1016.34 1748.39,887.364 1780.48,821.841 1812.58,784.433 1844.68,694.725 1876.77,535.765 1908.87,661.989 
  1940.96,491.072 1973.06,298.452 2005.16,198.273 2037.25,195.908 2069.35,299.599 2101.44,406.225 2133.54,531.598 2165.64,457.158 2197.73,397.522 2229.83,439.872 
  2261.92,498.56 2294.02,346.946 
  "/>
<polyline clip-path="url(#clip302)" style="stroke:#e26f46; stroke-linecap:butt; stroke-linejoin:round; stroke-width:4; stroke-opacity:1; fill:none" points="
  1491.62,1447.87 1491.62,162.047 
  "/>
<path clip-path="url(#clip300)" d="
M346.608 324.425 L784.19 324.425 L784.19 168.905 L346.608 168.905  Z
  " fill="#ffffff" fill-rule="evenodd" fill-opacity="1"/>
<polyline clip-path="url(#clip300)" style="stroke:#000000; stroke-linecap:butt; stroke-linejoin:round; stroke-width:4; stroke-opacity:1; fill:none" points="
  346.608,324.425 784.19,324.425 784.19,168.905 346.608,168.905 346.608,324.425 
  "/>
<polyline clip-path="url(#clip300)" style="stroke:#009af9; stroke-linecap:butt; stroke-linejoin:round; stroke-width:4; stroke-opacity:1; fill:none" points="
  369.668,220.745 508.023,220.745 
  "/>
<path clip-path="url(#clip300)" d="M544.924 240.432 Q543.119 245.062 541.406 246.474 Q539.693 247.886 536.822 247.886 L533.42 247.886 L533.42 244.321 L535.92 244.321 Q537.679 244.321 538.651 243.488 Q539.623 242.654 540.804 239.552 L541.568 237.608 L531.082 212.099 L535.596 212.099 L543.697 232.377 L551.799 212.099 L556.313 212.099 L544.924 240.432 Z" fill="#000000" fill-rule="evenodd" fill-opacity="1" /><path clip-path="url(#clip300)" d="M563.605 234.089 L571.244 234.089 L571.244 207.724 L562.933 209.391 L562.933 205.131 L571.197 203.465 L575.873 203.465 L575.873 234.089 L583.512 234.089 L583.512 238.025 L563.605 238.025 L563.605 234.089 Z" fill="#000000" fill-rule="evenodd" fill-opacity="1" /><polyline clip-path="url(#clip300)" style="stroke:#e26f46; stroke-linecap:butt; stroke-linejoin:round; stroke-width:4; stroke-opacity:1; fill:none" points="
  369.668,272.585 508.023,272.585 
  "/>
<path clip-path="url(#clip300)" d="M531.082 255.305 L537.378 255.305 L552.702 284.217 L552.702 255.305 L557.239 255.305 L557.239 289.865 L550.943 289.865 L535.619 260.953 L535.619 289.865 L531.082 289.865 L531.082 255.305 Z" fill="#000000" fill-rule="evenodd" fill-opacity="1" /><path clip-path="url(#clip300)" d="M566.545 255.305 L586.406 255.305 L586.406 259.24 L571.22 259.24 L571.22 269.425 L584.924 269.425 L584.924 273.36 L571.22 273.36 L571.22 289.865 L566.545 289.865 L566.545 255.305 Z" fill="#000000" fill-rule="evenodd" fill-opacity="1" /><path clip-path="url(#clip300)" d="M601.012 259.911 L594.669 277.11 L607.378 277.11 L601.012 259.911 M598.373 255.305 L603.674 255.305 L616.845 289.865 L611.984 289.865 L608.836 280.999 L593.257 280.999 L590.109 289.865 L585.179 289.865 L598.373 255.305 Z" fill="#000000" fill-rule="evenodd" fill-opacity="1" /><path clip-path="url(#clip300)" d="M647.563 292.272 Q645.757 296.902 644.044 298.314 Q642.331 299.726 639.461 299.726 L636.058 299.726 L636.058 296.161 L638.558 296.161 Q640.317 296.161 641.289 295.328 Q642.262 294.494 643.442 291.392 L644.206 289.448 L633.72 263.939 L638.234 263.939 L646.336 284.217 L654.438 263.939 L658.951 263.939 L647.563 292.272 Z" fill="#000000" fill-rule="evenodd" fill-opacity="1" /><path clip-path="url(#clip300)" d="M687.007 275.837 L687.007 277.92 L667.424 277.92 Q667.701 282.318 670.062 284.633 Q672.447 286.925 676.683 286.925 Q679.137 286.925 681.428 286.323 Q683.743 285.721 686.011 284.517 L686.011 288.545 Q683.72 289.517 681.312 290.027 Q678.905 290.536 676.428 290.536 Q670.225 290.536 666.59 286.925 Q662.979 283.314 662.979 277.156 Q662.979 270.791 666.405 267.064 Q669.854 263.314 675.687 263.314 Q680.919 263.314 683.951 266.693 Q687.007 270.05 687.007 275.837 M682.748 274.587 Q682.701 271.092 680.78 269.008 Q678.882 266.925 675.734 266.925 Q672.169 266.925 670.016 268.939 Q667.887 270.953 667.563 274.61 L682.748 274.587 Z" fill="#000000" fill-rule="evenodd" fill-opacity="1" /><path clip-path="url(#clip300)" d="M705.78 276.832 Q700.618 276.832 698.627 278.013 Q696.636 279.193 696.636 282.041 Q696.636 284.309 698.118 285.652 Q699.623 286.971 702.192 286.971 Q705.734 286.971 707.863 284.471 Q710.016 281.948 710.016 277.781 L710.016 276.832 L705.78 276.832 M714.275 275.073 L714.275 289.865 L710.016 289.865 L710.016 285.929 Q708.558 288.291 706.382 289.425 Q704.206 290.536 701.058 290.536 Q697.076 290.536 694.715 288.314 Q692.377 286.068 692.377 282.318 Q692.377 277.943 695.294 275.721 Q698.234 273.499 704.044 273.499 L710.016 273.499 L710.016 273.082 Q710.016 270.143 708.072 268.545 Q706.15 266.925 702.655 266.925 Q700.433 266.925 698.326 267.457 Q696.22 267.99 694.275 269.055 L694.275 265.119 Q696.613 264.217 698.812 263.777 Q701.011 263.314 703.095 263.314 Q708.72 263.314 711.497 266.231 Q714.275 269.147 714.275 275.073 Z" fill="#000000" fill-rule="evenodd" fill-opacity="1" /><path clip-path="url(#clip300)" d="M738.071 267.92 Q737.354 267.504 736.497 267.318 Q735.664 267.11 734.645 267.11 Q731.034 267.11 729.09 269.471 Q727.169 271.809 727.169 276.207 L727.169 289.865 L722.886 289.865 L722.886 263.939 L727.169 263.939 L727.169 267.967 Q728.511 265.606 730.664 264.471 Q732.817 263.314 735.895 263.314 Q736.335 263.314 736.868 263.383 Q737.4 263.43 738.048 263.545 L738.071 267.92 Z" fill="#000000" fill-rule="evenodd" fill-opacity="1" /></svg>
