<?xml version="1.0" encoding="utf-8"?>
<svg xmlns="http://www.w3.org/2000/svg" xmlns:xlink="http://www.w3.org/1999/xlink" width="600" height="400" viewBox="0 0 2400 1600">
<defs>
  <clipPath id="clip540">
    <rect x="0" y="0" width="2400" height="1600"/>
  </clipPath>
</defs>
<path clip-path="url(#clip540)" d="
M0 1600 L2400 1600 L2400 0 L0 0  Z
  " fill="#ffffff" fill-rule="evenodd" fill-opacity="1"/>
<defs>
  <clipPath id="clip541">
    <rect x="480" y="0" width="1681" height="1600"/>
  </clipPath>
</defs>
<path clip-path="url(#clip540)" d="
M156.02 1486.45 L2352.76 1486.45 L2352.76 183.952 L156.02 183.952  Z
  " fill="#ffffff" fill-rule="evenodd" fill-opacity="1"/>
<defs>
  <clipPath id="clip542">
    <rect x="156" y="183" width="2198" height="1303"/>
  </clipPath>
</defs>
<polyline clip-path="url(#clip542)" style="stroke:#000000; stroke-linecap:butt; stroke-linejoin:round; stroke-width:2; stroke-opacity:0.1; fill:none" points="
  377.606,1486.45 377.606,183.952 
  "/>
<polyline clip-path="url(#clip542)" style="stroke:#000000; stroke-linecap:butt; stroke-linejoin:round; stroke-width:2; stroke-opacity:0.1; fill:none" points="
  776.143,1486.45 776.143,183.952 
  "/>
<polyline clip-path="url(#clip542)" style="stroke:#000000; stroke-linecap:butt; stroke-linejoin:round; stroke-width:2; stroke-opacity:0.1; fill:none" points="
  1174.68,1486.45 1174.68,183.952 
  "/>
<polyline clip-path="url(#clip542)" style="stroke:#000000; stroke-linecap:butt; stroke-linejoin:round; stroke-width:2; stroke-opacity:0.1; fill:none" points="
  1573.22,1486.45 1573.22,183.952 
  "/>
<polyline clip-path="url(#clip542)" style="stroke:#000000; stroke-linecap:butt; stroke-linejoin:round; stroke-width:2; stroke-opacity:0.1; fill:none" points="
  1971.75,1486.45 1971.75,183.952 
  "/>
<polyline clip-path="url(#clip540)" style="stroke:#000000; stroke-linecap:butt; stroke-linejoin:round; stroke-width:4; stroke-opacity:1; fill:none" points="
  156.02,1486.45 2352.76,1486.45 
  "/>
<polyline clip-path="url(#clip540)" style="stroke:#000000; stroke-linecap:butt; stroke-linejoin:round; stroke-width:4; stroke-opacity:1; fill:none" points="
  377.606,1486.45 377.606,1467.55 
  "/>
<polyline clip-path="url(#clip540)" style="stroke:#000000; stroke-linecap:butt; stroke-linejoin:round; stroke-width:4; stroke-opacity:1; fill:none" points="
  776.143,1486.45 776.143,1467.55 
  "/>
<polyline clip-path="url(#clip540)" style="stroke:#000000; stroke-linecap:butt; stroke-linejoin:round; stroke-width:4; stroke-opacity:1; fill:none" points="
  1174.68,1486.45 1174.68,1467.55 
  "/>
<polyline clip-path="url(#clip540)" style="stroke:#000000; stroke-linecap:butt; stroke-linejoin:round; stroke-width:4; stroke-opacity:1; fill:none" points="
  1573.22,1486.45 1573.22,1467.55 
  "/>
<polyline clip-path="url(#clip540)" style="stroke:#000000; stroke-linecap:butt; stroke-linejoin:round; stroke-width:4; stroke-opacity:1; fill:none" points="
  1971.75,1486.45 1971.75,1467.55 
  "/>
<path clip-path="url(#clip540)" d="M322.63 1544.91 L330.268 1544.91 L330.268 1518.55 L321.958 1520.21 L321.958 1515.95 L330.222 1514.29 L334.898 1514.29 L334.898 1544.91 L342.537 1544.91 L342.537 1548.85 L322.63 1548.85 L322.63 1544.91 Z" fill="#000000" fill-rule="evenodd" fill-opacity="1" /><path clip-path="url(#clip540)" d="M352.12 1548.13 L352.12 1543.87 Q353.879 1544.7 355.685 1545.14 Q357.491 1545.58 359.227 1545.58 Q363.856 1545.58 366.287 1542.48 Q368.74 1539.36 369.088 1533.01 Q367.745 1535.01 365.685 1536.07 Q363.625 1537.13 361.125 1537.13 Q355.94 1537.13 352.907 1534.01 Q349.898 1530.86 349.898 1525.42 Q349.898 1520.1 353.046 1516.88 Q356.194 1513.66 361.426 1513.66 Q367.421 1513.66 370.569 1518.27 Q373.74 1522.85 373.74 1531.6 Q373.74 1539.77 369.852 1544.66 Q365.986 1549.52 359.435 1549.52 Q357.676 1549.52 355.87 1549.17 Q354.065 1548.82 352.12 1548.13 M361.426 1533.48 Q364.574 1533.48 366.403 1531.32 Q368.254 1529.17 368.254 1525.42 Q368.254 1521.7 366.403 1519.54 Q364.574 1517.37 361.426 1517.37 Q358.278 1517.37 356.426 1519.54 Q354.597 1521.7 354.597 1525.42 Q354.597 1529.17 356.426 1531.32 Q358.278 1533.48 361.426 1533.48 Z" fill="#000000" fill-rule="evenodd" fill-opacity="1" /><path clip-path="url(#clip540)" d="M382.282 1548.13 L382.282 1543.87 Q384.041 1544.7 385.847 1545.14 Q387.652 1545.58 389.388 1545.58 Q394.018 1545.58 396.449 1542.48 Q398.902 1539.36 399.25 1533.01 Q397.907 1535.01 395.847 1536.07 Q393.787 1537.13 391.287 1537.13 Q386.101 1537.13 383.069 1534.01 Q380.06 1530.86 380.06 1525.42 Q380.06 1520.1 383.208 1516.88 Q386.356 1513.66 391.588 1513.66 Q397.583 1513.66 400.731 1518.27 Q403.902 1522.85 403.902 1531.6 Q403.902 1539.77 400.013 1544.66 Q396.148 1549.52 389.597 1549.52 Q387.838 1549.52 386.032 1549.17 Q384.226 1548.82 382.282 1548.13 M391.588 1533.48 Q394.736 1533.48 396.564 1531.32 Q398.416 1529.17 398.416 1525.42 Q398.416 1521.7 396.564 1519.54 Q394.736 1517.37 391.588 1517.37 Q388.439 1517.37 386.588 1519.54 Q384.759 1521.7 384.759 1525.42 Q384.759 1529.17 386.588 1531.32 Q388.439 1533.48 391.588 1533.48 Z" fill="#000000" fill-rule="evenodd" fill-opacity="1" /><path clip-path="url(#clip540)" d="M412.351 1514.29 L430.708 1514.29 L430.708 1518.22 L416.634 1518.22 L416.634 1526.7 Q417.652 1526.35 418.671 1526.19 Q419.689 1526 420.708 1526 Q426.495 1526 429.874 1529.17 Q433.254 1532.34 433.254 1537.76 Q433.254 1543.34 429.782 1546.44 Q426.31 1549.52 419.99 1549.52 Q417.814 1549.52 415.546 1549.15 Q413.3 1548.78 410.893 1548.04 L410.893 1543.34 Q412.976 1544.47 415.199 1545.03 Q417.421 1545.58 419.898 1545.58 Q423.902 1545.58 426.24 1543.48 Q428.578 1541.37 428.578 1537.76 Q428.578 1534.15 426.24 1532.04 Q423.902 1529.94 419.898 1529.94 Q418.023 1529.94 416.148 1530.35 Q414.296 1530.77 412.351 1531.65 L412.351 1514.29 Z" fill="#000000" fill-rule="evenodd" fill-opacity="1" /><path clip-path="url(#clip540)" d="M724.755 1544.91 L741.074 1544.91 L741.074 1548.85 L719.13 1548.85 L719.13 1544.91 Q721.792 1542.16 726.375 1537.53 Q730.981 1532.88 732.162 1531.53 Q734.407 1529.01 735.287 1527.27 Q736.19 1525.51 736.19 1523.82 Q736.19 1521.07 734.245 1519.33 Q732.324 1517.6 729.222 1517.6 Q727.023 1517.6 724.569 1518.36 Q722.139 1519.13 719.361 1520.68 L719.361 1515.95 Q722.185 1514.82 724.639 1514.24 Q727.093 1513.66 729.13 1513.66 Q734.5 1513.66 737.694 1516.35 Q740.889 1519.03 740.889 1523.52 Q740.889 1525.65 740.079 1527.57 Q739.292 1529.47 737.185 1532.07 Q736.606 1532.74 733.505 1535.95 Q730.403 1539.15 724.755 1544.91 Z" fill="#000000" fill-rule="evenodd" fill-opacity="1" /><path clip-path="url(#clip540)" d="M760.889 1517.37 Q757.278 1517.37 755.449 1520.93 Q753.643 1524.47 753.643 1531.6 Q753.643 1538.71 755.449 1542.27 Q757.278 1545.82 760.889 1545.82 Q764.523 1545.82 766.328 1542.27 Q768.157 1538.71 768.157 1531.6 Q768.157 1524.47 766.328 1520.93 Q764.523 1517.37 760.889 1517.37 M760.889 1513.66 Q766.699 1513.66 769.754 1518.27 Q772.833 1522.85 772.833 1531.6 Q772.833 1540.33 769.754 1544.94 Q766.699 1549.52 760.889 1549.52 Q755.079 1549.52 752 1544.94 Q748.944 1540.33 748.944 1531.6 Q748.944 1522.85 752 1518.27 Q755.079 1513.66 760.889 1513.66 Z" fill="#000000" fill-rule="evenodd" fill-opacity="1" /><path clip-path="url(#clip540)" d="M791.051 1517.37 Q787.439 1517.37 785.611 1520.93 Q783.805 1524.47 783.805 1531.6 Q783.805 1538.71 785.611 1542.27 Q787.439 1545.82 791.051 1545.82 Q794.685 1545.82 796.49 1542.27 Q798.319 1538.71 798.319 1531.6 Q798.319 1524.47 796.49 1520.93 Q794.685 1517.37 791.051 1517.37 M791.051 1513.66 Q796.861 1513.66 799.916 1518.27 Q802.995 1522.85 802.995 1531.6 Q802.995 1540.33 799.916 1544.94 Q796.861 1549.52 791.051 1549.52 Q785.24 1549.52 782.162 1544.94 Q779.106 1540.33 779.106 1531.6 Q779.106 1522.85 782.162 1518.27 Q785.24 1513.66 791.051 1513.66 Z" fill="#000000" fill-rule="evenodd" fill-opacity="1" /><path clip-path="url(#clip540)" d="M821.212 1517.37 Q817.601 1517.37 815.773 1520.93 Q813.967 1524.47 813.967 1531.6 Q813.967 1538.71 815.773 1542.27 Q817.601 1545.82 821.212 1545.82 Q824.847 1545.82 826.652 1542.27 Q828.481 1538.71 828.481 1531.6 Q828.481 1524.47 826.652 1520.93 Q824.847 1517.37 821.212 1517.37 M821.212 1513.66 Q827.023 1513.66 830.078 1518.27 Q833.157 1522.85 833.157 1531.6 Q833.157 1540.33 830.078 1544.94 Q827.023 1549.52 821.212 1549.52 Q815.402 1549.52 812.324 1544.94 Q809.268 1540.33 809.268 1531.6 Q809.268 1522.85 812.324 1518.27 Q815.402 1513.66 821.212 1513.66 Z" fill="#000000" fill-rule="evenodd" fill-opacity="1" /><path clip-path="url(#clip540)" d="M1123.79 1544.91 L1140.11 1544.91 L1140.11 1548.85 L1118.16 1548.85 L1118.16 1544.91 Q1120.83 1542.16 1125.41 1537.53 Q1130.02 1532.88 1131.2 1531.53 Q1133.44 1529.01 1134.32 1527.27 Q1135.22 1525.51 1135.22 1523.82 Q1135.22 1521.07 1133.28 1519.33 Q1131.36 1517.6 1128.26 1517.6 Q1126.06 1517.6 1123.6 1518.36 Q1121.17 1519.13 1118.4 1520.68 L1118.4 1515.95 Q1121.22 1514.82 1123.67 1514.24 Q1126.13 1513.66 1128.16 1513.66 Q1133.53 1513.66 1136.73 1516.35 Q1139.92 1519.03 1139.92 1523.52 Q1139.92 1525.65 1139.11 1527.57 Q1138.33 1529.47 1136.22 1532.07 Q1135.64 1532.74 1132.54 1535.95 Q1129.44 1539.15 1123.79 1544.91 Z" fill="#000000" fill-rule="evenodd" fill-opacity="1" /><path clip-path="url(#clip540)" d="M1159.92 1517.37 Q1156.31 1517.37 1154.48 1520.93 Q1152.68 1524.47 1152.68 1531.6 Q1152.68 1538.71 1154.48 1542.27 Q1156.31 1545.82 1159.92 1545.82 Q1163.56 1545.82 1165.36 1542.27 Q1167.19 1538.71 1167.19 1531.6 Q1167.19 1524.47 1165.36 1520.93 Q1163.56 1517.37 1159.92 1517.37 M1159.92 1513.66 Q1165.73 1513.66 1168.79 1518.27 Q1171.87 1522.85 1171.87 1531.6 Q1171.87 1540.33 1168.79 1544.94 Q1165.73 1549.52 1159.92 1549.52 Q1154.11 1549.52 1151.03 1544.94 Q1147.98 1540.33 1147.98 1531.6 Q1147.98 1522.85 1151.03 1518.27 Q1154.11 1513.66 1159.92 1513.66 Z" fill="#000000" fill-rule="evenodd" fill-opacity="1" /><path clip-path="url(#clip540)" d="M1190.09 1517.37 Q1186.47 1517.37 1184.65 1520.93 Q1182.84 1524.47 1182.84 1531.6 Q1182.84 1538.71 1184.65 1542.27 Q1186.47 1545.82 1190.09 1545.82 Q1193.72 1545.82 1195.53 1542.27 Q1197.35 1538.71 1197.35 1531.6 Q1197.35 1524.47 1195.53 1520.93 Q1193.72 1517.37 1190.09 1517.37 M1190.09 1513.66 Q1195.9 1513.66 1198.95 1518.27 Q1202.03 1522.85 1202.03 1531.6 Q1202.03 1540.33 1198.95 1544.94 Q1195.9 1549.52 1190.09 1549.52 Q1184.28 1549.52 1181.2 1544.94 Q1178.14 1540.33 1178.14 1531.6 Q1178.14 1522.85 1181.2 1518.27 Q1184.28 1513.66 1190.09 1513.66 Z" fill="#000000" fill-rule="evenodd" fill-opacity="1" /><path clip-path="url(#clip540)" d="M1210.29 1514.29 L1228.65 1514.29 L1228.65 1518.22 L1214.58 1518.22 L1214.58 1526.7 Q1215.59 1526.35 1216.61 1526.19 Q1217.63 1526 1218.65 1526 Q1224.44 1526 1227.82 1529.17 Q1231.2 1532.34 1231.2 1537.76 Q1231.2 1543.34 1227.72 1546.44 Q1224.25 1549.52 1217.93 1549.52 Q1215.76 1549.52 1213.49 1549.15 Q1211.24 1548.78 1208.84 1548.04 L1208.84 1543.34 Q1210.92 1544.47 1213.14 1545.03 Q1215.36 1545.58 1217.84 1545.58 Q1221.84 1545.58 1224.18 1543.48 Q1226.52 1541.37 1226.52 1537.76 Q1226.52 1534.15 1224.18 1532.04 Q1221.84 1529.94 1217.84 1529.94 Q1215.96 1529.94 1214.09 1530.35 Q1212.24 1530.77 1210.29 1531.65 L1210.29 1514.29 Z" fill="#000000" fill-rule="evenodd" fill-opacity="1" /><path clip-path="url(#clip540)" d="M1521.83 1544.91 L1538.15 1544.91 L1538.15 1548.85 L1516.2 1548.85 L1516.2 1544.91 Q1518.87 1542.16 1523.45 1537.53 Q1528.06 1532.88 1529.24 1531.53 Q1531.48 1529.01 1532.36 1527.27 Q1533.26 1525.51 1533.26 1523.82 Q1533.26 1521.07 1531.32 1519.33 Q1529.4 1517.6 1526.3 1517.6 Q1524.1 1517.6 1521.64 1518.36 Q1519.21 1519.13 1516.44 1520.68 L1516.44 1515.95 Q1519.26 1514.82 1521.71 1514.24 Q1524.17 1513.66 1526.2 1513.66 Q1531.57 1513.66 1534.77 1516.35 Q1537.96 1519.03 1537.96 1523.52 Q1537.96 1525.65 1537.15 1527.57 Q1536.37 1529.47 1534.26 1532.07 Q1533.68 1532.74 1530.58 1535.95 Q1527.48 1539.15 1521.83 1544.91 Z" fill="#000000" fill-rule="evenodd" fill-opacity="1" /><path clip-path="url(#clip540)" d="M1557.96 1517.37 Q1554.35 1517.37 1552.52 1520.93 Q1550.72 1524.47 1550.72 1531.6 Q1550.72 1538.71 1552.52 1542.27 Q1554.35 1545.82 1557.96 1545.82 Q1561.6 1545.82 1563.4 1542.27 Q1565.23 1538.71 1565.23 1531.6 Q1565.23 1524.47 1563.4 1520.93 Q1561.6 1517.37 1557.96 1517.37 M1557.96 1513.66 Q1563.77 1513.66 1566.83 1518.27 Q1569.91 1522.85 1569.91 1531.6 Q1569.91 1540.33 1566.83 1544.94 Q1563.77 1549.52 1557.96 1549.52 Q1552.15 1549.52 1549.07 1544.94 Q1546.02 1540.33 1546.02 1531.6 Q1546.02 1522.85 1549.07 1518.27 Q1552.15 1513.66 1557.96 1513.66 Z" fill="#000000" fill-rule="evenodd" fill-opacity="1" /><path clip-path="url(#clip540)" d="M1578.93 1544.91 L1586.57 1544.91 L1586.57 1518.55 L1578.26 1520.21 L1578.26 1515.95 L1586.53 1514.29 L1591.2 1514.29 L1591.2 1544.91 L1598.84 1544.91 L1598.84 1548.85 L1578.93 1548.85 L1578.93 1544.91 Z" fill="#000000" fill-rule="evenodd" fill-opacity="1" /><path clip-path="url(#clip540)" d="M1618.29 1517.37 Q1614.68 1517.37 1612.85 1520.93 Q1611.04 1524.47 1611.04 1531.6 Q1611.04 1538.71 1612.85 1542.27 Q1614.68 1545.82 1618.29 1545.82 Q1621.92 1545.82 1623.73 1542.27 Q1625.56 1538.71 1625.56 1531.6 Q1625.56 1524.47 1623.73 1520.93 Q1621.92 1517.37 1618.29 1517.37 M1618.29 1513.66 Q1624.1 1513.66 1627.15 1518.27 Q1630.23 1522.85 1630.23 1531.6 Q1630.23 1540.33 1627.15 1544.94 Q1624.1 1549.52 1618.29 1549.52 Q1612.48 1549.52 1609.4 1544.94 Q1606.34 1540.33 1606.34 1531.6 Q1606.34 1522.85 1609.4 1518.27 Q1612.48 1513.66 1618.29 1513.66 Z" fill="#000000" fill-rule="evenodd" fill-opacity="1" /><path clip-path="url(#clip540)" d="M1920.86 1544.91 L1937.18 1544.91 L1937.18 1548.85 L1915.24 1548.85 L1915.24 1544.91 Q1917.9 1542.16 1922.48 1537.53 Q1927.09 1532.88 1928.27 1531.53 Q1930.52 1529.01 1931.4 1527.27 Q1932.3 1525.51 1932.3 1523.82 Q1932.3 1521.07 1930.35 1519.33 Q1928.43 1517.6 1925.33 1517.6 Q1923.13 1517.6 1920.68 1518.36 Q1918.25 1519.13 1915.47 1520.68 L1915.47 1515.95 Q1918.29 1514.82 1920.75 1514.24 Q1923.2 1513.66 1925.24 1513.66 Q1930.61 1513.66 1933.8 1516.35 Q1937 1519.03 1937 1523.52 Q1937 1525.65 1936.19 1527.57 Q1935.4 1529.47 1933.29 1532.07 Q1932.72 1532.74 1929.61 1535.95 Q1926.51 1539.15 1920.86 1544.91 Z" fill="#000000" fill-rule="evenodd" fill-opacity="1" /><path clip-path="url(#clip540)" d="M1957 1517.37 Q1953.39 1517.37 1951.56 1520.93 Q1949.75 1524.47 1949.75 1531.6 Q1949.75 1538.71 1951.56 1542.27 Q1953.39 1545.82 1957 1545.82 Q1960.63 1545.82 1962.44 1542.27 Q1964.27 1538.71 1964.27 1531.6 Q1964.27 1524.47 1962.44 1520.93 Q1960.63 1517.37 1957 1517.37 M1957 1513.66 Q1962.81 1513.66 1965.86 1518.27 Q1968.94 1522.85 1968.94 1531.6 Q1968.94 1540.33 1965.86 1544.94 Q1962.81 1549.52 1957 1549.52 Q1951.19 1549.52 1948.11 1544.94 Q1945.05 1540.33 1945.05 1531.6 Q1945.05 1522.85 1948.11 1518.27 Q1951.19 1513.66 1957 1513.66 Z" fill="#000000" fill-rule="evenodd" fill-opacity="1" /><path clip-path="url(#clip540)" d="M1977.97 1544.91 L1985.61 1544.91 L1985.61 1518.55 L1977.3 1520.21 L1977.3 1515.95 L1985.56 1514.29 L1990.24 1514.29 L1990.24 1544.91 L1997.88 1544.91 L1997.88 1548.85 L1977.97 1548.85 L1977.97 1544.91 Z" fill="#000000" fill-rule="evenodd" fill-opacity="1" /><path clip-path="url(#clip540)" d="M2007.37 1514.29 L2025.72 1514.29 L2025.72 1518.22 L2011.65 1518.22 L2011.65 1526.7 Q2012.67 1526.35 2013.69 1526.19 Q2014.71 1526 2015.72 1526 Q2021.51 1526 2024.89 1529.17 Q2028.27 1532.34 2028.27 1537.76 Q2028.27 1543.34 2024.8 1546.44 Q2021.33 1549.52 2015.01 1549.52 Q2012.83 1549.52 2010.56 1549.15 Q2008.32 1548.78 2005.91 1548.04 L2005.91 1543.34 Q2007.99 1544.47 2010.21 1545.03 Q2012.44 1545.58 2014.91 1545.58 Q2018.92 1545.58 2021.26 1543.48 Q2023.59 1541.37 2023.59 1537.76 Q2023.59 1534.15 2021.26 1532.04 Q2018.92 1529.94 2014.91 1529.94 Q2013.04 1529.94 2011.16 1530.35 Q2009.31 1530.77 2007.37 1531.65 L2007.37 1514.29 Z" fill="#000000" fill-rule="evenodd" fill-opacity="1" /><polyline clip-path="url(#clip542)" style="stroke:#000000; stroke-linecap:butt; stroke-linejoin:round; stroke-width:2; stroke-opacity:0.1; fill:none" points="
  156.02,1339.32 2352.76,1339.32 
  "/>
<polyline clip-path="url(#clip542)" style="stroke:#000000; stroke-linecap:butt; stroke-linejoin:round; stroke-width:2; stroke-opacity:0.1; fill:none" points="
  156.02,1164.92 2352.76,1164.92 
  "/>
<polyline clip-path="url(#clip542)" style="stroke:#000000; stroke-linecap:butt; stroke-linejoin:round; stroke-width:2; stroke-opacity:0.1; fill:none" points="
  156.02,990.525 2352.76,990.525 
  "/>
<polyline clip-path="url(#clip542)" style="stroke:#000000; stroke-linecap:butt; stroke-linejoin:round; stroke-width:2; stroke-opacity:0.1; fill:none" points="
  156.02,816.129 2352.76,816.129 
  "/>
<polyline clip-path="url(#clip542)" style="stroke:#000000; stroke-linecap:butt; stroke-linejoin:round; stroke-width:2; stroke-opacity:0.1; fill:none" points="
  156.02,641.733 2352.76,641.733 
  "/>
<polyline clip-path="url(#clip542)" style="stroke:#000000; stroke-linecap:butt; stroke-linejoin:round; stroke-width:2; stroke-opacity:0.1; fill:none" points="
  156.02,467.336 2352.76,467.336 
  "/>
<polyline clip-path="url(#clip542)" style="stroke:#000000; stroke-linecap:butt; stroke-linejoin:round; stroke-width:2; stroke-opacity:0.1; fill:none" points="
  156.02,292.94 2352.76,292.94 
  "/>
<polyline clip-path="url(#clip540)" style="stroke:#000000; stroke-linecap:butt; stroke-linejoin:round; stroke-width:4; stroke-opacity:1; fill:none" points="
  156.02,1486.45 156.02,183.952 
  "/>
<polyline clip-path="url(#clip540)" style="stroke:#000000; stroke-linecap:butt; stroke-linejoin:round; stroke-width:4; stroke-opacity:1; fill:none" points="
  156.02,1339.32 174.917,1339.32 
  "/>
<polyline clip-path="url(#clip540)" style="stroke:#000000; stroke-linecap:butt; stroke-linejoin:round; stroke-width:4; stroke-opacity:1; fill:none" points="
  156.02,1164.92 174.917,1164.92 
  "/>
<polyline clip-path="url(#clip540)" style="stroke:#000000; stroke-linecap:butt; stroke-linejoin:round; stroke-width:4; stroke-opacity:1; fill:none" points="
  156.02,990.525 174.917,990.525 
  "/>
<polyline clip-path="url(#clip540)" style="stroke:#000000; stroke-linecap:butt; stroke-linejoin:round; stroke-width:4; stroke-opacity:1; fill:none" points="
  156.02,816.129 174.917,816.129 
  "/>
<polyline clip-path="url(#clip540)" style="stroke:#000000; stroke-linecap:butt; stroke-linejoin:round; stroke-width:4; stroke-opacity:1; fill:none" points="
  156.02,641.733 174.917,641.733 
  "/>
<polyline clip-path="url(#clip540)" style="stroke:#000000; stroke-linecap:butt; stroke-linejoin:round; stroke-width:4; stroke-opacity:1; fill:none" points="
  156.02,467.336 174.917,467.336 
  "/>
<polyline clip-path="url(#clip540)" style="stroke:#000000; stroke-linecap:butt; stroke-linejoin:round; stroke-width:4; stroke-opacity:1; fill:none" points="
  156.02,292.94 174.917,292.94 
  "/>
<path clip-path="url(#clip540)" d="M62.9365 1325.12 Q59.3254 1325.12 57.4967 1328.68 Q55.6912 1332.22 55.6912 1339.35 Q55.6912 1346.46 57.4967 1350.02 Q59.3254 1353.57 62.9365 1353.57 Q66.5707 1353.57 68.3763 1350.02 Q70.205 1346.46 70.205 1339.35 Q70.205 1332.22 68.3763 1328.68 Q66.5707 1325.12 62.9365 1325.12 M62.9365 1321.41 Q68.7467 1321.41 71.8022 1326.02 Q74.8809 1330.6 74.8809 1339.35 Q74.8809 1348.08 71.8022 1352.69 Q68.7467 1357.27 62.9365 1357.27 Q57.1264 1357.27 54.0477 1352.69 Q50.9921 1348.08 50.9921 1339.35 Q50.9921 1330.6 54.0477 1326.02 Q57.1264 1321.41 62.9365 1321.41 Z" fill="#000000" fill-rule="evenodd" fill-opacity="1" /><path clip-path="url(#clip540)" d="M83.0984 1350.72 L87.9827 1350.72 L87.9827 1356.6 L83.0984 1356.6 L83.0984 1350.72 Z" fill="#000000" fill-rule="evenodd" fill-opacity="1" /><path clip-path="url(#clip540)" d="M108.168 1340.19 Q104.834 1340.19 102.913 1341.97 Q101.015 1343.75 101.015 1346.88 Q101.015 1350 102.913 1351.78 Q104.834 1353.57 108.168 1353.57 Q111.501 1353.57 113.422 1351.78 Q115.344 1349.98 115.344 1346.88 Q115.344 1343.75 113.422 1341.97 Q111.524 1340.19 108.168 1340.19 M103.492 1338.2 Q100.483 1337.45 98.7928 1335.39 Q97.1261 1333.33 97.1261 1330.37 Q97.1261 1326.23 100.066 1323.82 Q103.029 1321.41 108.168 1321.41 Q113.33 1321.41 116.27 1323.82 Q119.209 1326.23 119.209 1330.37 Q119.209 1333.33 117.52 1335.39 Q115.853 1337.45 112.867 1338.2 Q116.246 1338.98 118.121 1341.27 Q120.02 1343.57 120.02 1346.88 Q120.02 1351.9 116.941 1354.58 Q113.885 1357.27 108.168 1357.27 Q102.45 1357.27 99.3715 1354.58 Q96.316 1351.9 96.316 1346.88 Q96.316 1343.57 98.2141 1341.27 Q100.112 1338.98 103.492 1338.2 M101.779 1330.81 Q101.779 1333.5 103.446 1335 Q105.135 1336.51 108.168 1336.51 Q111.177 1336.51 112.867 1335 Q114.58 1333.5 114.58 1330.81 Q114.58 1328.13 112.867 1326.62 Q111.177 1325.12 108.168 1325.12 Q105.135 1325.12 103.446 1326.62 Q101.779 1328.13 101.779 1330.81 Z" fill="#000000" fill-rule="evenodd" fill-opacity="1" /><path clip-path="url(#clip540)" d="M53.6541 1178.27 L61.293 1178.27 L61.293 1151.9 L52.9829 1153.57 L52.9829 1149.31 L61.2467 1147.64 L65.9226 1147.64 L65.9226 1178.27 L73.5614 1178.27 L73.5614 1182.2 L53.6541 1182.2 L53.6541 1178.27 Z" fill="#000000" fill-rule="evenodd" fill-opacity="1" /><path clip-path="url(#clip540)" d="M83.0058 1176.32 L87.8901 1176.32 L87.8901 1182.2 L83.0058 1182.2 L83.0058 1176.32 Z" fill="#000000" fill-rule="evenodd" fill-opacity="1" /><path clip-path="url(#clip540)" d="M108.075 1150.72 Q104.464 1150.72 102.635 1154.29 Q100.83 1157.83 100.83 1164.96 Q100.83 1172.06 102.635 1175.63 Q104.464 1179.17 108.075 1179.17 Q111.709 1179.17 113.515 1175.63 Q115.344 1172.06 115.344 1164.96 Q115.344 1157.83 113.515 1154.29 Q111.709 1150.72 108.075 1150.72 M108.075 1147.02 Q113.885 1147.02 116.941 1151.62 Q120.02 1156.21 120.02 1164.96 Q120.02 1173.68 116.941 1178.29 Q113.885 1182.87 108.075 1182.87 Q102.265 1182.87 99.1863 1178.29 Q96.1308 1173.68 96.1308 1164.96 Q96.1308 1156.21 99.1863 1151.62 Q102.265 1147.02 108.075 1147.02 Z" fill="#000000" fill-rule="evenodd" fill-opacity="1" /><path clip-path="url(#clip540)" d="M55.2514 1003.87 L62.8902 1003.87 L62.8902 977.505 L54.5801 979.171 L54.5801 974.912 L62.8439 973.245 L67.5198 973.245 L67.5198 1003.87 L75.1587 1003.87 L75.1587 1007.81 L55.2514 1007.81 L55.2514 1003.87 Z" fill="#000000" fill-rule="evenodd" fill-opacity="1" /><path clip-path="url(#clip540)" d="M84.6031 1001.93 L89.4873 1001.93 L89.4873 1007.81 L84.6031 1007.81 L84.6031 1001.93 Z" fill="#000000" fill-rule="evenodd" fill-opacity="1" /><path clip-path="url(#clip540)" d="M103.7 1003.87 L120.02 1003.87 L120.02 1007.81 L98.0752 1007.81 L98.0752 1003.87 Q100.737 1001.12 105.321 996.486 Q109.927 991.833 111.108 990.491 Q113.353 987.968 114.233 986.231 Q115.135 984.472 115.135 982.782 Q115.135 980.028 113.191 978.292 Q111.27 976.556 108.168 976.556 Q105.969 976.556 103.515 977.319 Q101.084 978.083 98.3067 979.634 L98.3067 974.912 Q101.131 973.778 103.584 973.199 Q106.038 972.62 108.075 972.62 Q113.445 972.62 116.64 975.306 Q119.834 977.991 119.834 982.481 Q119.834 984.611 119.024 986.532 Q118.237 988.431 116.131 991.023 Q115.552 991.694 112.45 994.912 Q109.348 998.106 103.7 1003.87 Z" fill="#000000" fill-rule="evenodd" fill-opacity="1" /><path clip-path="url(#clip540)" d="M53.168 829.474 L60.8069 829.474 L60.8069 803.108 L52.4967 804.775 L52.4967 800.516 L60.7606 798.849 L65.4365 798.849 L65.4365 829.474 L73.0753 829.474 L73.0753 833.409 L53.168 833.409 L53.168 829.474 Z" fill="#000000" fill-rule="evenodd" fill-opacity="1" /><path clip-path="url(#clip540)" d="M82.5197 827.529 L87.404 827.529 L87.404 833.409 L82.5197 833.409 L82.5197 827.529 Z" fill="#000000" fill-rule="evenodd" fill-opacity="1" /><path clip-path="url(#clip540)" d="M110.436 802.923 L98.6308 821.372 L110.436 821.372 L110.436 802.923 M109.209 798.849 L115.089 798.849 L115.089 821.372 L120.02 821.372 L120.02 825.261 L115.089 825.261 L115.089 833.409 L110.436 833.409 L110.436 825.261 L94.8345 825.261 L94.8345 820.747 L109.209 798.849 Z" fill="#000000" fill-rule="evenodd" fill-opacity="1" /><path clip-path="url(#clip540)" d="M53.4921 655.077 L61.131 655.077 L61.131 628.712 L52.8208 630.378 L52.8208 626.119 L61.0847 624.453 L65.7606 624.453 L65.7606 655.077 L73.3994 655.077 L73.3994 659.013 L53.4921 659.013 L53.4921 655.077 Z" fill="#000000" fill-rule="evenodd" fill-opacity="1" /><path clip-path="url(#clip540)" d="M82.8438 653.133 L87.728 653.133 L87.728 659.013 L82.8438 659.013 L82.8438 653.133 Z" fill="#000000" fill-rule="evenodd" fill-opacity="1" /><path clip-path="url(#clip540)" d="M108.492 639.869 Q105.344 639.869 103.492 642.022 Q101.663 644.175 101.663 647.925 Q101.663 651.651 103.492 653.827 Q105.344 655.98 108.492 655.98 Q111.64 655.98 113.469 653.827 Q115.32 651.651 115.32 647.925 Q115.32 644.175 113.469 642.022 Q111.64 639.869 108.492 639.869 M117.774 625.216 L117.774 629.476 Q116.015 628.642 114.209 628.203 Q112.427 627.763 110.668 627.763 Q106.038 627.763 103.584 630.888 Q101.154 634.013 100.807 640.332 Q102.172 638.318 104.233 637.253 Q106.293 636.165 108.77 636.165 Q113.978 636.165 116.987 639.337 Q120.02 642.485 120.02 647.925 Q120.02 653.249 116.871 656.466 Q113.723 659.684 108.492 659.684 Q102.496 659.684 99.3252 655.101 Q96.1539 650.494 96.1539 641.767 Q96.1539 633.573 100.043 628.712 Q103.932 623.828 110.483 623.828 Q112.242 623.828 114.024 624.175 Q115.83 624.522 117.774 625.216 Z" fill="#000000" fill-rule="evenodd" fill-opacity="1" /><path clip-path="url(#clip540)" d="M53.7467 480.681 L61.3856 480.681 L61.3856 454.315 L53.0754 455.982 L53.0754 451.723 L61.3393 450.056 L66.0152 450.056 L66.0152 480.681 L73.654 480.681 L73.654 484.616 L53.7467 484.616 L53.7467 480.681 Z" fill="#000000" fill-rule="evenodd" fill-opacity="1" /><path clip-path="url(#clip540)" d="M83.0984 478.737 L87.9827 478.737 L87.9827 484.616 L83.0984 484.616 L83.0984 478.737 Z" fill="#000000" fill-rule="evenodd" fill-opacity="1" /><path clip-path="url(#clip540)" d="M108.168 468.204 Q104.834 468.204 102.913 469.987 Q101.015 471.769 101.015 474.894 Q101.015 478.019 102.913 479.801 Q104.834 481.584 108.168 481.584 Q111.501 481.584 113.422 479.801 Q115.344 477.996 115.344 474.894 Q115.344 471.769 113.422 469.987 Q111.524 468.204 108.168 468.204 M103.492 466.213 Q100.483 465.473 98.7928 463.413 Q97.1261 461.352 97.1261 458.389 Q97.1261 454.246 100.066 451.839 Q103.029 449.431 108.168 449.431 Q113.33 449.431 116.27 451.839 Q119.209 454.246 119.209 458.389 Q119.209 461.352 117.52 463.413 Q115.853 465.473 112.867 466.213 Q116.246 467 118.121 469.292 Q120.02 471.584 120.02 474.894 Q120.02 479.917 116.941 482.602 Q113.885 485.287 108.168 485.287 Q102.45 485.287 99.3715 482.602 Q96.316 479.917 96.316 474.894 Q96.316 471.584 98.2141 469.292 Q100.112 467 103.492 466.213 M101.779 458.829 Q101.779 461.514 103.446 463.019 Q105.135 464.524 108.168 464.524 Q111.177 464.524 112.867 463.019 Q114.58 461.514 114.58 458.829 Q114.58 456.144 112.867 454.639 Q111.177 453.135 108.168 453.135 Q105.135 453.135 103.446 454.639 Q101.779 456.144 101.779 458.829 Z" fill="#000000" fill-rule="evenodd" fill-opacity="1" /><path clip-path="url(#clip540)" d="M56.8717 306.285 L73.1911 306.285 L73.1911 310.22 L51.2468 310.22 L51.2468 306.285 Q53.9088 303.53 58.4921 298.9 Q63.0985 294.248 64.2791 292.905 Q66.5245 290.382 67.4041 288.646 Q68.3068 286.886 68.3068 285.197 Q68.3068 282.442 66.3624 280.706 Q64.4411 278.97 61.3393 278.97 Q59.1402 278.97 56.6865 279.734 Q54.256 280.498 51.4782 282.049 L51.4782 277.326 Q54.3023 276.192 56.756 275.613 Q59.2097 275.035 61.2467 275.035 Q66.617 275.035 69.8115 277.72 Q73.0059 280.405 73.0059 284.896 Q73.0059 287.025 72.1957 288.947 Q71.4087 290.845 69.3022 293.437 Q68.7235 294.109 65.6217 297.326 Q62.5198 300.521 56.8717 306.285 Z" fill="#000000" fill-rule="evenodd" fill-opacity="1" /><path clip-path="url(#clip540)" d="M83.0058 304.34 L87.8901 304.34 L87.8901 310.22 L83.0058 310.22 L83.0058 304.34 Z" fill="#000000" fill-rule="evenodd" fill-opacity="1" /><path clip-path="url(#clip540)" d="M108.075 278.738 Q104.464 278.738 102.635 282.303 Q100.83 285.845 100.83 292.974 Q100.83 300.081 102.635 303.646 Q104.464 307.187 108.075 307.187 Q111.709 307.187 113.515 303.646 Q115.344 300.081 115.344 292.974 Q115.344 285.845 113.515 282.303 Q111.709 278.738 108.075 278.738 M108.075 275.035 Q113.885 275.035 116.941 279.641 Q120.02 284.224 120.02 292.974 Q120.02 301.701 116.941 306.308 Q113.885 310.891 108.075 310.891 Q102.265 310.891 99.1863 306.308 Q96.1308 301.701 96.1308 292.974 Q96.1308 284.224 99.1863 279.641 Q102.265 275.035 108.075 275.035 Z" fill="#000000" fill-rule="evenodd" fill-opacity="1" /><path clip-path="url(#clip540)" d="M705.085 41.3253 L693.986 71.4235 L716.225 71.4235 L705.085 41.3253 M700.467 33.264 L709.744 33.264 L732.793 93.744 L724.286 93.744 L718.777 78.229 L691.515 78.229 L686.005 93.744 L677.377 93.744 L700.467 33.264 Z" fill="#000000" fill-rule="evenodd" fill-opacity="1" /><path clip-path="url(#clip540)" d="M740.693 33.264 L748.916 33.264 L748.916 70.0057 Q748.916 79.7279 752.44 84.0218 Q755.964 88.2753 763.864 88.2753 Q771.722 88.2753 775.247 84.0218 Q778.771 79.7279 778.771 70.0057 L778.771 33.264 L786.994 33.264 L786.994 71.0184 Q786.994 82.8471 781.121 88.8829 Q775.287 94.9188 763.864 94.9188 Q752.4 94.9188 746.526 88.8829 Q740.693 82.8471 740.693 71.0184 L740.693 33.264 Z" fill="#000000" fill-rule="evenodd" fill-opacity="1" /><path clip-path="url(#clip540)" d="M857.399 65.3877 Q860.032 66.2789 862.503 69.1955 Q865.015 72.1122 867.526 77.2163 L875.831 93.744 L867.04 93.744 L859.303 78.229 Q856.305 72.1527 853.47 70.1677 Q850.675 68.1828 845.814 68.1828 L836.902 68.1828 L836.902 93.744 L828.719 93.744 L828.719 33.264 L847.191 33.264 Q857.561 33.264 862.665 37.5985 Q867.769 41.9329 867.769 50.6829 Q867.769 56.3947 865.096 60.162 Q862.463 63.9293 857.399 65.3877 M836.902 39.9885 L836.902 61.4583 L847.191 61.4583 Q853.105 61.4583 856.103 58.7442 Q859.141 55.9896 859.141 50.6829 Q859.141 45.3762 856.103 42.7026 Q853.105 39.9885 847.191 39.9885 L836.902 39.9885 Z" fill="#000000" fill-rule="evenodd" fill-opacity="1" /><path clip-path="url(#clip540)" d="M899.893 53.5995 Q893.898 53.5995 890.414 58.2986 Q886.93 62.9571 886.93 71.0994 Q886.93 79.2418 890.373 83.9408 Q893.857 88.5994 899.893 88.5994 Q905.848 88.5994 909.332 83.9003 Q912.815 79.2013 912.815 71.0994 Q912.815 63.0381 909.332 58.3391 Q905.848 53.5995 899.893 53.5995 M899.893 47.2801 Q909.615 47.2801 915.165 53.5995 Q920.715 59.9189 920.715 71.0994 Q920.715 82.2394 915.165 88.5994 Q909.615 94.9188 899.893 94.9188 Q890.13 94.9188 884.581 88.5994 Q879.071 82.2394 879.071 71.0994 Q879.071 59.9189 884.581 53.5995 Q890.13 47.2801 899.893 47.2801 Z" fill="#000000" fill-rule="evenodd" fill-opacity="1" /><path clip-path="url(#clip540)" d="M965.639 71.0994 Q965.639 62.8761 962.237 58.2176 Q958.874 53.5185 952.96 53.5185 Q947.046 53.5185 943.643 58.2176 Q940.281 62.8761 940.281 71.0994 Q940.281 79.3228 943.643 84.0218 Q947.046 88.6804 952.96 88.6804 Q958.874 88.6804 962.237 84.0218 Q965.639 79.3228 965.639 71.0994 M940.281 55.2604 Q942.63 51.2095 946.195 49.2651 Q949.8 47.2801 954.783 47.2801 Q963.047 47.2801 968.191 53.8426 Q973.376 60.4051 973.376 71.0994 Q973.376 81.7938 968.191 88.3563 Q963.047 94.9188 954.783 94.9188 Q949.8 94.9188 946.195 92.9743 Q942.63 90.9894 940.281 86.9385 L940.281 93.744 L932.786 93.744 L932.786 30.7119 L940.281 30.7119 L940.281 55.2604 Z" fill="#000000" fill-rule="evenodd" fill-opacity="1" /><path clip-path="url(#clip540)" d="M1018.3 71.0994 Q1018.3 62.8761 1014.9 58.2176 Q1011.54 53.5185 1005.62 53.5185 Q999.707 53.5185 996.305 58.2176 Q992.942 62.8761 992.942 71.0994 Q992.942 79.3228 996.305 84.0218 Q999.707 88.6804 1005.62 88.6804 Q1011.54 88.6804 1014.9 84.0218 Q1018.3 79.3228 1018.3 71.0994 M992.942 55.2604 Q995.292 51.2095 998.857 49.2651 Q1002.46 47.2801 1007.44 47.2801 Q1015.71 47.2801 1020.85 53.8426 Q1026.04 60.4051 1026.04 71.0994 Q1026.04 81.7938 1020.85 88.3563 Q1015.71 94.9188 1007.44 94.9188 Q1002.46 94.9188 998.857 92.9743 Q995.292 90.9894 992.942 86.9385 L992.942 93.744 L985.448 93.744 L985.448 30.7119 L992.942 30.7119 L992.942 55.2604 Z" fill="#000000" fill-rule="evenodd" fill-opacity="1" /><path clip-path="url(#clip540)" d="M1077.2 69.1955 L1077.2 72.8413 L1042.93 72.8413 Q1043.42 80.5381 1047.55 84.589 Q1051.72 88.5994 1059.13 88.5994 Q1063.43 88.5994 1067.44 87.5461 Q1071.49 86.4929 1075.46 84.3864 L1075.46 91.435 Q1071.45 93.1364 1067.24 94.0276 Q1063.02 94.9188 1058.69 94.9188 Q1047.83 94.9188 1041.47 88.5994 Q1035.15 82.2799 1035.15 71.5045 Q1035.15 60.3645 1041.15 53.8426 Q1047.18 47.2801 1057.39 47.2801 Q1066.55 47.2801 1071.85 53.1944 Q1077.2 59.0683 1077.2 69.1955 M1069.75 67.008 Q1069.67 60.8912 1066.3 57.2454 Q1062.98 53.5995 1057.47 53.5995 Q1051.23 53.5995 1047.47 57.1238 Q1043.74 60.6481 1043.17 67.0485 L1069.75 67.008 Z" fill="#000000" fill-rule="evenodd" fill-opacity="1" /><path clip-path="url(#clip540)" d="M1115.73 55.3414 Q1114.47 54.6123 1112.97 54.2882 Q1111.51 53.9236 1109.73 53.9236 Q1103.41 53.9236 1100.01 58.0555 Q1096.65 62.1469 1096.65 69.8437 L1096.65 93.744 L1089.15 93.744 L1089.15 48.3739 L1096.65 48.3739 L1096.65 55.4224 Q1099 51.2905 1102.76 49.3056 Q1106.53 47.2801 1111.92 47.2801 Q1112.69 47.2801 1113.62 47.4017 Q1114.55 47.4827 1115.68 47.6852 L1115.73 55.3414 Z" fill="#000000" fill-rule="evenodd" fill-opacity="1" /><path clip-path="url(#clip540)" d="M1142.42 97.9569 Q1139.26 106.059 1136.26 108.53 Q1133.27 111.001 1128.24 111.001 L1122.29 111.001 L1122.29 104.762 L1126.66 104.762 Q1129.74 104.762 1131.44 103.304 Q1133.14 101.846 1135.21 96.4176 L1136.55 93.0148 L1118.2 48.3739 L1126.1 48.3739 L1140.27 83.8598 L1154.45 48.3739 L1162.35 48.3739 L1142.42 97.9569 Z" fill="#000000" fill-rule="evenodd" fill-opacity="1" /><path clip-path="url(#clip540)" d="M1225.3 55.3414 Q1224.05 54.6123 1222.55 54.2882 Q1221.09 53.9236 1219.31 53.9236 Q1212.99 53.9236 1209.58 58.0555 Q1206.22 62.1469 1206.22 69.8437 L1206.22 93.744 L1198.73 93.744 L1198.73 48.3739 L1206.22 48.3739 L1206.22 55.4224 Q1208.57 51.2905 1212.34 49.3056 Q1216.11 47.2801 1221.49 47.2801 Q1222.26 47.2801 1223.2 47.4017 Q1224.13 47.4827 1225.26 47.6852 L1225.3 55.3414 Z" fill="#000000" fill-rule="evenodd" fill-opacity="1" /><path clip-path="url(#clip540)" d="M1270.11 69.1955 L1270.11 72.8413 L1235.83 72.8413 Q1236.32 80.5381 1240.45 84.589 Q1244.63 88.5994 1252.04 88.5994 Q1256.33 88.5994 1260.34 87.5461 Q1264.39 86.4929 1268.36 84.3864 L1268.36 91.435 Q1264.35 93.1364 1260.14 94.0276 Q1255.93 94.9188 1251.59 94.9188 Q1240.74 94.9188 1234.38 88.5994 Q1228.06 82.2799 1228.06 71.5045 Q1228.06 60.3645 1234.05 53.8426 Q1240.09 47.2801 1250.3 47.2801 Q1259.45 47.2801 1264.76 53.1944 Q1270.11 59.0683 1270.11 69.1955 M1262.65 67.008 Q1262.57 60.8912 1259.21 57.2454 Q1255.89 53.5995 1250.38 53.5995 Q1244.14 53.5995 1240.37 57.1238 Q1236.64 60.6481 1236.08 67.0485 L1262.65 67.008 Z" fill="#000000" fill-rule="evenodd" fill-opacity="1" /><path clip-path="url(#clip540)" d="M1282.34 30.7119 L1289.79 30.7119 L1289.79 93.744 L1282.34 93.744 L1282.34 30.7119 Z" fill="#000000" fill-rule="evenodd" fill-opacity="1" /><path clip-path="url(#clip540)" d="M1326.01 70.9374 Q1316.97 70.9374 1313.49 73.0034 Q1310.01 75.0693 1310.01 80.0519 Q1310.01 84.0218 1312.6 86.3714 Q1315.23 88.6804 1319.73 88.6804 Q1325.93 88.6804 1329.65 84.3054 Q1333.42 79.8899 1333.42 72.5983 L1333.42 70.9374 L1326.01 70.9374 M1340.87 67.8587 L1340.87 93.744 L1333.42 93.744 L1333.42 86.8575 Q1330.87 90.9894 1327.06 92.9743 Q1323.25 94.9188 1317.74 94.9188 Q1310.78 94.9188 1306.64 91.0299 Q1302.55 87.1005 1302.55 80.5381 Q1302.55 72.8818 1307.66 68.993 Q1312.8 65.1041 1322.97 65.1041 L1333.42 65.1041 L1333.42 64.3749 Q1333.42 59.2303 1330.02 56.4352 Q1326.66 53.5995 1320.54 53.5995 Q1316.65 53.5995 1312.96 54.5312 Q1309.28 55.463 1305.87 57.3264 L1305.87 50.4398 Q1309.97 48.86 1313.81 48.0903 Q1317.66 47.2801 1321.31 47.2801 Q1331.15 47.2801 1336.01 52.3843 Q1340.87 57.4884 1340.87 67.8587 Z" fill="#000000" fill-rule="evenodd" fill-opacity="1" /><path clip-path="url(#clip540)" d="M1363.6 35.492 L1363.6 48.3739 L1378.95 48.3739 L1378.95 54.1667 L1363.6 54.1667 L1363.6 78.7962 Q1363.6 84.3459 1365.1 85.9258 Q1366.64 87.5056 1371.3 87.5056 L1378.95 87.5056 L1378.95 93.744 L1371.3 93.744 Q1362.67 93.744 1359.39 90.5438 Q1356.11 87.3031 1356.11 78.7962 L1356.11 54.1667 L1350.64 54.1667 L1350.64 48.3739 L1356.11 48.3739 L1356.11 35.492 L1363.6 35.492 Z" fill="#000000" fill-rule="evenodd" fill-opacity="1" /><path clip-path="url(#clip540)" d="M1388.76 48.3739 L1396.21 48.3739 L1396.21 93.744 L1388.76 93.744 L1388.76 48.3739 M1388.76 30.7119 L1396.21 30.7119 L1396.21 40.1505 L1388.76 40.1505 L1388.76 30.7119 Z" fill="#000000" fill-rule="evenodd" fill-opacity="1" /><path clip-path="url(#clip540)" d="M1406.46 48.3739 L1414.36 48.3739 L1428.54 86.4524 L1442.71 48.3739 L1450.61 48.3739 L1433.6 93.744 L1423.47 93.744 L1406.46 48.3739 Z" fill="#000000" fill-rule="evenodd" fill-opacity="1" /><path clip-path="url(#clip540)" d="M1499.71 69.1955 L1499.71 72.8413 L1465.44 72.8413 Q1465.93 80.5381 1470.06 84.589 Q1474.23 88.5994 1481.64 88.5994 Q1485.94 88.5994 1489.95 87.5461 Q1494 86.4929 1497.97 84.3864 L1497.97 91.435 Q1493.96 93.1364 1489.75 94.0276 Q1485.53 94.9188 1481.2 94.9188 Q1470.34 94.9188 1463.98 88.5994 Q1457.66 82.2799 1457.66 71.5045 Q1457.66 60.3645 1463.66 53.8426 Q1469.69 47.2801 1479.9 47.2801 Q1489.06 47.2801 1494.36 53.1944 Q1499.71 59.0683 1499.71 69.1955 M1492.26 67.008 Q1492.18 60.8912 1488.81 57.2454 Q1485.49 53.5995 1479.98 53.5995 Q1473.74 53.5995 1469.98 57.1238 Q1466.25 60.6481 1465.68 67.0485 L1492.26 67.008 Z" fill="#000000" fill-rule="evenodd" fill-opacity="1" /><path clip-path="url(#clip540)" d="M1570.97 50.1158 L1570.97 57.0833 Q1567.81 55.3414 1564.61 54.4907 Q1561.45 53.5995 1558.21 53.5995 Q1550.95 53.5995 1546.94 58.2176 Q1542.93 62.7951 1542.93 71.0994 Q1542.93 79.4038 1546.94 84.0218 Q1550.95 88.5994 1558.21 88.5994 Q1561.45 88.5994 1564.61 87.7487 Q1567.81 86.8575 1570.97 85.1156 L1570.97 92.0021 Q1567.85 93.4604 1564.48 94.1896 Q1561.16 94.9188 1557.4 94.9188 Q1547.15 94.9188 1541.11 88.4778 Q1535.07 82.0369 1535.07 71.0994 Q1535.07 60 1541.15 53.64 Q1547.27 47.2801 1557.88 47.2801 Q1561.32 47.2801 1564.61 48.0093 Q1567.89 48.6979 1570.97 50.1158 Z" fill="#000000" fill-rule="evenodd" fill-opacity="1" /><path clip-path="url(#clip540)" d="M1621.64 66.3599 L1621.64 93.744 L1614.19 93.744 L1614.19 66.6029 Q1614.19 60.162 1611.68 56.9618 Q1609.17 53.7616 1604.14 53.7616 Q1598.11 53.7616 1594.62 57.6099 Q1591.14 61.4583 1591.14 68.1018 L1591.14 93.744 L1583.65 93.744 L1583.65 30.7119 L1591.14 30.7119 L1591.14 55.4224 Q1593.81 51.331 1597.42 49.3056 Q1601.06 47.2801 1605.8 47.2801 Q1613.62 47.2801 1617.63 52.1412 Q1621.64 56.9618 1621.64 66.3599 Z" fill="#000000" fill-rule="evenodd" fill-opacity="1" /><path clip-path="url(#clip540)" d="M1657.13 70.9374 Q1648.1 70.9374 1644.61 73.0034 Q1641.13 75.0693 1641.13 80.0519 Q1641.13 84.0218 1643.72 86.3714 Q1646.35 88.6804 1650.85 88.6804 Q1657.05 88.6804 1660.77 84.3054 Q1664.54 79.8899 1664.54 72.5983 L1664.54 70.9374 L1657.13 70.9374 M1672 67.8587 L1672 93.744 L1664.54 93.744 L1664.54 86.8575 Q1661.99 90.9894 1658.18 92.9743 Q1654.37 94.9188 1648.86 94.9188 Q1641.9 94.9188 1637.77 91.0299 Q1633.67 87.1005 1633.67 80.5381 Q1633.67 72.8818 1638.78 68.993 Q1643.92 65.1041 1654.09 65.1041 L1664.54 65.1041 L1664.54 64.3749 Q1664.54 59.2303 1661.14 56.4352 Q1657.78 53.5995 1651.66 53.5995 Q1647.77 53.5995 1644.08 54.5312 Q1640.4 55.463 1637 57.3264 L1637 50.4398 Q1641.09 48.86 1644.94 48.0903 Q1648.78 47.2801 1652.43 47.2801 Q1662.27 47.2801 1667.13 52.3843 Q1672 57.4884 1672 67.8587 Z" fill="#000000" fill-rule="evenodd" fill-opacity="1" /><path clip-path="url(#clip540)" d="M1725.06 66.3599 L1725.06 93.744 L1717.61 93.744 L1717.61 66.6029 Q1717.61 60.162 1715.1 56.9618 Q1712.59 53.7616 1707.56 53.7616 Q1701.53 53.7616 1698.04 57.6099 Q1694.56 61.4583 1694.56 68.1018 L1694.56 93.744 L1687.06 93.744 L1687.06 48.3739 L1694.56 48.3739 L1694.56 55.4224 Q1697.23 51.331 1700.84 49.3056 Q1704.48 47.2801 1709.22 47.2801 Q1717.04 47.2801 1721.05 52.1412 Q1725.06 56.9618 1725.06 66.3599 Z" fill="#000000" fill-rule="evenodd" fill-opacity="1" /><path clip-path="url(#clip540)" d="M1769.78 70.5323 Q1769.78 62.4305 1766.42 57.9745 Q1763.1 53.5185 1757.06 53.5185 Q1751.07 53.5185 1747.71 57.9745 Q1744.39 62.4305 1744.39 70.5323 Q1744.39 78.5936 1747.71 83.0496 Q1751.07 87.5056 1757.06 87.5056 Q1763.1 87.5056 1766.42 83.0496 Q1769.78 78.5936 1769.78 70.5323 M1777.24 88.1132 Q1777.24 99.6988 1772.09 105.33 Q1766.95 111.001 1756.34 111.001 Q1752.41 111.001 1748.92 110.393 Q1745.44 109.826 1742.16 108.611 L1742.16 101.36 Q1745.44 103.142 1748.64 103.993 Q1751.84 104.843 1755.16 104.843 Q1762.49 104.843 1766.14 100.995 Q1769.78 97.1873 1769.78 89.45 L1769.78 85.7637 Q1767.48 89.7741 1763.87 91.7591 Q1760.26 93.744 1755.24 93.744 Q1746.9 93.744 1741.79 87.3841 Q1736.69 81.0242 1736.69 70.5323 Q1736.69 60 1741.79 53.64 Q1746.9 47.2801 1755.24 47.2801 Q1760.26 47.2801 1763.87 49.2651 Q1767.48 51.25 1769.78 55.2604 L1769.78 48.3739 L1777.24 48.3739 L1777.24 88.1132 Z" fill="#000000" fill-rule="evenodd" fill-opacity="1" /><path clip-path="url(#clip540)" d="M1831.4 69.1955 L1831.4 72.8413 L1797.13 72.8413 Q1797.61 80.5381 1801.75 84.589 Q1805.92 88.5994 1813.33 88.5994 Q1817.63 88.5994 1821.64 87.5461 Q1825.69 86.4929 1829.66 84.3864 L1829.66 91.435 Q1825.65 93.1364 1821.43 94.0276 Q1817.22 94.9188 1812.89 94.9188 Q1802.03 94.9188 1795.67 88.5994 Q1789.35 82.2799 1789.35 71.5045 Q1789.35 60.3645 1795.35 53.8426 Q1801.38 47.2801 1811.59 47.2801 Q1820.74 47.2801 1826.05 53.1944 Q1831.4 59.0683 1831.4 69.1955 M1823.94 67.008 Q1823.86 60.8912 1820.5 57.2454 Q1817.18 53.5995 1811.67 53.5995 Q1805.43 53.5995 1801.66 57.1238 Q1797.94 60.6481 1797.37 67.0485 L1823.94 67.008 Z" fill="#000000" fill-rule="evenodd" fill-opacity="1" /><path clip-path="url(#clip540)" d="M870.605 132.045 L859.506 162.144 L881.745 162.144 L870.605 132.045 M865.987 123.984 L875.264 123.984 L898.313 184.464 L889.806 184.464 L884.297 168.949 L857.035 168.949 L851.525 184.464 L842.897 184.464 L865.987 123.984 Z" fill="#000000" fill-rule="evenodd" fill-opacity="1" /><path clip-path="url(#clip540)" d="M938.012 140.836 L938.012 147.803 Q934.852 146.061 931.652 145.211 Q928.492 144.32 925.252 144.32 Q918.001 144.32 913.99 148.938 Q909.98 153.515 909.98 161.819 Q909.98 170.124 913.99 174.742 Q918.001 179.319 925.252 179.319 Q928.492 179.319 931.652 178.469 Q934.852 177.577 938.012 175.836 L938.012 182.722 Q934.893 184.18 931.531 184.91 Q928.209 185.639 924.442 185.639 Q914.193 185.639 908.157 179.198 Q902.121 172.757 902.121 161.819 Q902.121 150.72 908.197 144.36 Q914.314 138 924.928 138 Q928.371 138 931.652 138.729 Q934.933 139.418 938.012 140.836 Z" fill="#000000" fill-rule="evenodd" fill-opacity="1" /><path clip-path="url(#clip540)" d="M958.348 126.212 L958.348 139.094 L973.701 139.094 L973.701 144.887 L958.348 144.887 L958.348 169.516 Q958.348 175.066 959.846 176.646 Q961.386 178.226 966.044 178.226 L973.701 178.226 L973.701 184.464 L966.044 184.464 Q957.416 184.464 954.135 181.264 Q950.853 178.023 950.853 169.516 L950.853 144.887 L945.385 144.887 L945.385 139.094 L950.853 139.094 L950.853 126.212 L958.348 126.212 Z" fill="#000000" fill-rule="evenodd" fill-opacity="1" /><path clip-path="url(#clip540)" d="M982.734 166.559 L982.734 139.094 L990.188 139.094 L990.188 166.275 Q990.188 172.716 992.699 175.957 Q995.211 179.157 1000.23 179.157 Q1006.27 179.157 1009.75 175.309 Q1013.28 171.461 1013.28 164.817 L1013.28 139.094 L1020.73 139.094 L1020.73 184.464 L1013.28 184.464 L1013.28 177.496 Q1010.56 181.628 1006.96 183.654 Q1003.39 185.639 998.654 185.639 Q990.836 185.639 986.785 180.778 Q982.734 175.917 982.734 166.559 M1001.49 138 L1001.49 138 Z" fill="#000000" fill-rule="evenodd" fill-opacity="1" /><path clip-path="url(#clip540)" d="M1056.7 161.657 Q1047.67 161.657 1044.19 163.723 Q1040.7 165.789 1040.7 170.772 Q1040.7 174.742 1043.3 177.091 Q1045.93 179.4 1050.42 179.4 Q1056.62 179.4 1060.35 175.025 Q1064.12 170.61 1064.12 163.318 L1064.12 161.657 L1056.7 161.657 M1071.57 158.579 L1071.57 184.464 L1064.12 184.464 L1064.12 177.577 Q1061.56 181.709 1057.76 183.694 Q1053.95 185.639 1048.44 185.639 Q1041.47 185.639 1037.34 181.75 Q1033.25 177.821 1033.25 171.258 Q1033.25 163.602 1038.35 159.713 Q1043.5 155.824 1053.67 155.824 L1064.12 155.824 L1064.12 155.095 Q1064.12 149.95 1060.71 147.155 Q1057.35 144.32 1051.23 144.32 Q1047.35 144.32 1043.66 145.251 Q1039.97 146.183 1036.57 148.046 L1036.57 141.16 Q1040.66 139.58 1044.51 138.81 Q1048.36 138 1052 138 Q1061.85 138 1066.71 143.104 Q1071.57 148.208 1071.57 158.579 Z" fill="#000000" fill-rule="evenodd" fill-opacity="1" /><path clip-path="url(#clip540)" d="M1086.92 121.432 L1094.38 121.432 L1094.38 184.464 L1086.92 184.464 L1086.92 121.432 Z" fill="#000000" fill-rule="evenodd" fill-opacity="1" /><path clip-path="url(#clip540)" d="M1156.96 161.657 Q1147.93 161.657 1144.45 163.723 Q1140.96 165.789 1140.96 170.772 Q1140.96 174.742 1143.55 177.091 Q1146.19 179.4 1150.68 179.4 Q1156.88 179.4 1160.61 175.025 Q1164.38 170.61 1164.38 163.318 L1164.38 161.657 L1156.96 161.657 M1171.83 158.579 L1171.83 184.464 L1164.38 184.464 L1164.38 177.577 Q1161.82 181.709 1158.02 183.694 Q1154.21 185.639 1148.7 185.639 Q1141.73 185.639 1137.6 181.75 Q1133.51 177.821 1133.51 171.258 Q1133.51 163.602 1138.61 159.713 Q1143.76 155.824 1153.93 155.824 L1164.38 155.824 L1164.38 155.095 Q1164.38 149.95 1160.97 147.155 Q1157.61 144.32 1151.49 144.32 Q1147.61 144.32 1143.92 145.251 Q1140.23 146.183 1136.83 148.046 L1136.83 141.16 Q1140.92 139.58 1144.77 138.81 Q1148.62 138 1152.26 138 Q1162.11 138 1166.97 143.104 Q1171.83 148.208 1171.83 158.579 Z" fill="#000000" fill-rule="evenodd" fill-opacity="1" /><path clip-path="url(#clip540)" d="M1224.9 157.08 L1224.9 184.464 L1217.44 184.464 L1217.44 157.323 Q1217.44 150.882 1214.93 147.682 Q1212.42 144.482 1207.4 144.482 Q1201.36 144.482 1197.88 148.33 Q1194.39 152.178 1194.39 158.822 L1194.39 184.464 L1186.9 184.464 L1186.9 139.094 L1194.39 139.094 L1194.39 146.142 Q1197.07 142.051 1200.67 140.026 Q1204.32 138 1209.06 138 Q1216.88 138 1220.89 142.861 Q1224.9 147.682 1224.9 157.08 Z" fill="#000000" fill-rule="evenodd" fill-opacity="1" /><path clip-path="url(#clip540)" d="M1269.62 145.98 L1269.62 121.432 L1277.07 121.432 L1277.07 184.464 L1269.62 184.464 L1269.62 177.658 Q1267.27 181.709 1263.66 183.694 Q1260.1 185.639 1255.08 185.639 Q1246.85 185.639 1241.67 179.076 Q1236.52 172.514 1236.52 161.819 Q1236.52 151.125 1241.67 144.563 Q1246.85 138 1255.08 138 Q1260.1 138 1263.66 139.985 Q1267.27 141.93 1269.62 145.98 M1244.22 161.819 Q1244.22 170.043 1247.58 174.742 Q1250.98 179.4 1256.9 179.4 Q1262.81 179.4 1266.22 174.742 Q1269.62 170.043 1269.62 161.819 Q1269.62 153.596 1266.22 148.938 Q1262.81 144.239 1256.9 144.239 Q1250.98 144.239 1247.58 148.938 Q1244.22 153.596 1244.22 161.819 Z" fill="#000000" fill-rule="evenodd" fill-opacity="1" /><path clip-path="url(#clip540)" d="M1327.3 130.709 L1327.3 153.434 L1337.59 153.434 Q1343.31 153.434 1346.42 150.477 Q1349.54 147.52 1349.54 142.051 Q1349.54 136.623 1346.42 133.666 Q1343.31 130.709 1337.59 130.709 L1327.3 130.709 M1319.12 123.984 L1337.59 123.984 Q1347.76 123.984 1352.95 128.602 Q1358.17 133.18 1358.17 142.051 Q1358.17 151.004 1352.95 155.581 Q1347.76 160.159 1337.59 160.159 L1327.3 160.159 L1327.3 184.464 L1319.12 184.464 L1319.12 123.984 Z" fill="#000000" fill-rule="evenodd" fill-opacity="1" /><path clip-path="url(#clip540)" d="M1393.66 146.061 Q1392.4 145.332 1390.9 145.008 Q1389.44 144.644 1387.66 144.644 Q1381.34 144.644 1377.94 148.776 Q1374.58 152.867 1374.58 160.564 L1374.58 184.464 L1367.08 184.464 L1367.08 139.094 L1374.58 139.094 L1374.58 146.142 Q1376.93 142.011 1380.69 140.026 Q1384.46 138 1389.85 138 Q1390.62 138 1391.55 138.122 Q1392.48 138.203 1393.62 138.405 L1393.66 146.061 Z" fill="#000000" fill-rule="evenodd" fill-opacity="1" /><path clip-path="url(#clip540)" d="M1438.46 159.916 L1438.46 163.561 L1404.19 163.561 Q1404.68 171.258 1408.81 175.309 Q1412.98 179.319 1420.39 179.319 Q1424.69 179.319 1428.7 178.266 Q1432.75 177.213 1436.72 175.106 L1436.72 182.155 Q1432.71 183.856 1428.5 184.748 Q1424.28 185.639 1419.95 185.639 Q1409.09 185.639 1402.73 179.319 Q1396.41 173 1396.41 162.225 Q1396.41 151.085 1402.41 144.563 Q1408.44 138 1418.65 138 Q1427.81 138 1433.11 143.914 Q1438.46 149.788 1438.46 159.916 M1431.01 157.728 Q1430.93 151.611 1427.56 147.965 Q1424.24 144.32 1418.73 144.32 Q1412.49 144.32 1408.73 147.844 Q1405 151.368 1404.43 157.769 L1431.01 157.728 Z" fill="#000000" fill-rule="evenodd" fill-opacity="1" /><path clip-path="url(#clip540)" d="M1480.55 145.98 L1480.55 121.432 L1488 121.432 L1488 184.464 L1480.55 184.464 L1480.55 177.658 Q1478.2 181.709 1474.59 183.694 Q1471.03 185.639 1466.01 185.639 Q1457.78 185.639 1452.6 179.076 Q1447.45 172.514 1447.45 161.819 Q1447.45 151.125 1452.6 144.563 Q1457.78 138 1466.01 138 Q1471.03 138 1474.59 139.985 Q1478.2 141.93 1480.55 145.98 M1455.15 161.819 Q1455.15 170.043 1458.51 174.742 Q1461.92 179.4 1467.83 179.4 Q1473.74 179.4 1477.15 174.742 Q1480.55 170.043 1480.55 161.819 Q1480.55 153.596 1477.15 148.938 Q1473.74 144.239 1467.83 144.239 Q1461.92 144.239 1458.51 148.938 Q1455.15 153.596 1455.15 161.819 Z" fill="#000000" fill-rule="evenodd" fill-opacity="1" /><path clip-path="url(#clip540)" d="M1503.36 139.094 L1510.81 139.094 L1510.81 184.464 L1503.36 184.464 L1503.36 139.094 M1503.36 121.432 L1510.81 121.432 L1510.81 130.871 L1503.36 130.871 L1503.36 121.432 Z" fill="#000000" fill-rule="evenodd" fill-opacity="1" /><path clip-path="url(#clip540)" d="M1559.06 140.836 L1559.06 147.803 Q1555.9 146.061 1552.7 145.211 Q1549.54 144.32 1546.3 144.32 Q1539.04 144.32 1535.03 148.938 Q1531.02 153.515 1531.02 161.819 Q1531.02 170.124 1535.03 174.742 Q1539.04 179.319 1546.3 179.319 Q1549.54 179.319 1552.7 178.469 Q1555.9 177.577 1559.06 175.836 L1559.06 182.722 Q1555.94 184.18 1552.57 184.91 Q1549.25 185.639 1545.49 185.639 Q1535.24 185.639 1529.2 179.198 Q1523.17 172.757 1523.17 161.819 Q1523.17 150.72 1529.24 144.36 Q1535.36 138 1545.97 138 Q1549.42 138 1552.7 138.729 Q1555.98 139.418 1559.06 140.836 Z" fill="#000000" fill-rule="evenodd" fill-opacity="1" /><path clip-path="url(#clip540)" d="M1579.39 126.212 L1579.39 139.094 L1594.74 139.094 L1594.74 144.887 L1579.39 144.887 L1579.39 169.516 Q1579.39 175.066 1580.89 176.646 Q1582.43 178.226 1587.09 178.226 L1594.74 178.226 L1594.74 184.464 L1587.09 184.464 Q1578.46 184.464 1575.18 181.264 Q1571.9 178.023 1571.9 169.516 L1571.9 144.887 L1566.43 144.887 L1566.43 139.094 L1571.9 139.094 L1571.9 126.212 L1579.39 126.212 Z" fill="#000000" fill-rule="evenodd" fill-opacity="1" /><path clip-path="url(#clip540)" d="M1643.36 159.916 L1643.36 163.561 L1609.08 163.561 Q1609.57 171.258 1613.7 175.309 Q1617.88 179.319 1625.29 179.319 Q1629.58 179.319 1633.59 178.266 Q1637.64 177.213 1641.61 175.106 L1641.61 182.155 Q1637.6 183.856 1633.39 184.748 Q1629.18 185.639 1624.84 185.639 Q1613.99 185.639 1607.63 179.319 Q1601.31 173 1601.31 162.225 Q1601.31 151.085 1607.3 144.563 Q1613.34 138 1623.55 138 Q1632.7 138 1638.01 143.914 Q1643.36 149.788 1643.36 159.916 M1635.9 157.728 Q1635.82 151.611 1632.46 147.965 Q1629.14 144.32 1623.63 144.32 Q1617.39 144.32 1613.62 147.844 Q1609.9 151.368 1609.33 157.769 L1635.9 157.728 Z" fill="#000000" fill-rule="evenodd" fill-opacity="1" /><path clip-path="url(#clip540)" d="M1685.44 145.98 L1685.44 121.432 L1692.9 121.432 L1692.9 184.464 L1685.44 184.464 L1685.44 177.658 Q1683.09 181.709 1679.49 183.694 Q1675.92 185.639 1670.9 185.639 Q1662.68 185.639 1657.49 179.076 Q1652.35 172.514 1652.35 161.819 Q1652.35 151.125 1657.49 144.563 Q1662.68 138 1670.9 138 Q1675.92 138 1679.49 139.985 Q1683.09 141.93 1685.44 145.98 M1660.05 161.819 Q1660.05 170.043 1663.41 174.742 Q1666.81 179.4 1672.72 179.4 Q1678.64 179.4 1682.04 174.742 Q1685.44 170.043 1685.44 161.819 Q1685.44 153.596 1682.04 148.938 Q1678.64 144.239 1672.72 144.239 Q1666.81 144.239 1663.41 148.938 Q1660.05 153.596 1660.05 161.819 Z" fill="#000000" fill-rule="evenodd" fill-opacity="1" /><polyline clip-path="url(#clip542)" style="stroke:#009af9; stroke-linecap:butt; stroke-linejoin:round; stroke-width:12; stroke-opacity:1; fill:none" points="
  218.191,1164.92 297.899,1082.89 377.606,1041.98 457.314,918.77 537.021,581.642 616.728,411.098 696.436,492.853 776.143,443.267 855.851,220.815 935.558,603.293 
  1015.27,690.854 1094.97,909.208 1174.68,863.857 1254.39,850.265 1334.1,807.988 1413.8,909.003 1493.51,995.47 1573.22,1037.41 1652.92,1104.61 1732.63,1138.01 
  1812.34,1237.05 1892.05,1361.22 1971.75,1424.39 2051.46,1394.07 2131.17,1381.77 2210.88,1345.57 2290.58,1232.68 
  "/>
<polyline clip-path="url(#clip542)" style="stroke:#e26f46; stroke-linecap:butt; stroke-linejoin:round; stroke-width:4; stroke-opacity:0.5; fill:none" points="
  218.191,1164.92 297.899,1015.52 377.606,956.357 457.314,923.411 537.021,505.808 616.728,441.947 696.436,427.758 776.143,462.039 855.851,458.829 935.558,530 
  1015.27,626.661 1094.97,739.941 1174.68,837.835 1254.39,926.291 1334.1,908.421 1413.8,991.868 1493.51,945.369 1573.22,1026.76 1652.92,1118.5 1732.63,1190.71 
  1812.34,1244.58 1892.05,1264.79 1971.75,1276.79 2051.46,1266.9 2131.17,1315.22 2210.88,1359.05 2290.58,1373.14 
  "/>
<polyline clip-path="url(#clip542)" style="stroke:#3da44d; stroke-linecap:butt; stroke-linejoin:round; stroke-width:4; stroke-opacity:0.5; fill:none" points="
  218.191,1164.92 297.899,1045.99 377.606,978.462 457.314,930.947 537.021,420.56 616.728,416.147 696.436,426.692 776.143,460.155 855.851,466.781 935.558,537.977 
  1015.27,622.814 1094.97,723.021 1174.68,810.715 1254.39,889.384 1334.1,869.778 1413.8,951.698 1493.51,964.137 1573.22,1039.34 1652.92,1125.67 1732.63,1196.23 
  1812.34,1255.25 1892.05,1292.3 1971.75,1320.19 2051.46,1327.15 2131.17,1363.21 2210.88,1396.36 2290.58,1406.58 
  "/>
<polyline clip-path="url(#clip542)" style="stroke:#c271d2; stroke-linecap:butt; stroke-linejoin:round; stroke-width:4; stroke-opacity:0.5; fill:none" points="
  218.191,1164.92 297.899,1050.56 377.606,993.4 457.314,944.172 537.021,480.045 616.728,470.85 696.436,478.972 776.143,517.837 855.851,495.04 935.558,559.457 
  1015.27,647.826 1094.97,762.11 1174.68,848.821 1254.39,917.32 1334.1,869.987 1413.8,975.712 1493.51,942.346 1573.22,1044.79 1652.92,1154.26 1732.63,1238.37 
  1812.34,1300.33 1892.05,1320.2 1971.75,1324.59 2051.46,1291.03 2131.17,1335.17 2210.88,1374.22 2290.58,1369.32 
  "/>
<polyline clip-path="url(#clip542)" style="stroke:#ac8d18; stroke-linecap:butt; stroke-linejoin:round; stroke-width:4; stroke-opacity:0.5; fill:none" points="
  218.191,1164.92 297.899,1046.05 377.606,971.758 457.314,903.814 537.021,402.84 616.728,416.923 696.436,440.106 776.143,481.359 855.851,482.084 935.558,554.338 
  1015.27,634.593 1094.97,726.852 1174.68,798.947 1254.39,856.506 1334.1,899.665 1413.8,984.056 1493.51,995.095 1573.22,1073.8 1652.92,1149.04 1732.63,1213.38 
  1812.34,1265.79 1892.05,1291.97 1971.75,1310.41 2051.46,1302 2131.17,1337.66 2210.88,1367.96 2290.58,1366.2 
  "/>
<polyline clip-path="url(#clip542)" style="stroke:#00a9ad; stroke-linecap:butt; stroke-linejoin:round; stroke-width:4; stroke-opacity:0.5; fill:none" points="
  218.191,1164.92 297.899,1064.03 377.606,998.873 457.314,949.506 537.021,492.279 616.728,476.265 696.436,472.844 776.143,487.865 855.851,484.89 935.558,548.917 
  1015.27,623.783 1094.97,711.012 1174.68,789.122 1254.39,860.707 1334.1,890.274 1413.8,959.367 1493.51,979.041 1573.22,1041.61 1652.92,1106.96 1732.63,1165.14 
  1812.34,1216.36 1892.05,1250.52 1971.75,1279.98 2051.46,1293.05 2131.17,1325.94 2210.88,1355.25 2290.58,1365.07 
  "/>
<polyline clip-path="url(#clip542)" style="stroke:#ed5d92; stroke-linecap:butt; stroke-linejoin:round; stroke-width:4; stroke-opacity:0.5; fill:none" points="
  218.191,1164.92 297.899,1063.41 377.606,1012.88 457.314,981.153 537.021,434.421 616.728,434.125 696.436,450.24 776.143,489.705 855.851,503.622 935.558,574.076 
  1015.27,658.259 1094.97,756.259 1174.68,843.344 1254.39,922.497 1334.1,855.847 1413.8,936.524 1493.51,946.023 1573.22,1020.76 1652.92,1108.91 1732.63,1180.71 
  1812.34,1241.21 1892.05,1281.36 1971.75,1312.15 2051.46,1323.52 2131.17,1362.63 2210.88,1399.17 2290.58,1414.86 
  "/>
<polyline clip-path="url(#clip542)" style="stroke:#c68125; stroke-linecap:butt; stroke-linejoin:round; stroke-width:4; stroke-opacity:0.5; fill:none" points="
  218.191,1164.92 297.899,1026.48 377.606,966.341 457.314,882.583 537.021,500.848 616.728,503.966 696.436,518.153 776.143,564.174 855.851,489.459 935.558,534.654 
  1015.27,605.665 1094.97,698.854 1174.68,766.41 1254.39,807.376 1334.1,876.861 1413.8,963.299 1493.51,962.065 1573.22,1042.77 1652.92,1117.98 1732.63,1186.91 
  1812.34,1248.75 1892.05,1291.5 1971.75,1318.63 2051.46,1290.22 2131.17,1340.26 2210.88,1386.17 2290.58,1402.45 
  "/>
<polyline clip-path="url(#clip542)" style="stroke:#00a98d; stroke-linecap:butt; stroke-linejoin:round; stroke-width:4; stroke-opacity:0.5; fill:none" points="
  218.191,1164.92 297.899,1039.47 377.606,977.003 457.314,941.739 537.021,555.987 616.728,496.896 696.436,471.433 776.143,480.782 855.851,476.679 935.558,533.62 
  1015.27,609.175 1094.97,698.31 1174.68,781.744 1254.39,861.286 1334.1,895.456 1413.8,961.793 1493.51,974.964 1573.22,1035.14 1652.92,1102.77 1732.63,1161.88 
  1812.34,1213.17 1892.05,1250.26 1971.75,1282.92 2051.46,1304.32 2131.17,1343.69 2210.88,1380.45 2290.58,1403.52 
  "/>
<polyline clip-path="url(#clip542)" style="stroke:#8e971d; stroke-linecap:butt; stroke-linejoin:round; stroke-width:4; stroke-opacity:0.5; fill:none" points="
  218.191,1164.92 297.899,1068.5 377.606,1027.94 457.314,996.788 537.021,498.544 616.728,460.902 696.436,449.473 776.143,476.496 855.851,445.14 935.558,505.936 
  1015.27,596.096 1094.97,710.92 1174.68,806.712 1254.39,890.169 1334.1,856.806 1413.8,955.066 1493.51,929.253 1573.22,1023.63 1652.92,1124.4 1732.63,1206.39 
  1812.34,1271.43 1892.05,1304.43 1971.75,1324.77 2051.46,1315.45 2131.17,1363.13 2210.88,1406.64 2290.58,1418.47 
  "/>
<polyline clip-path="url(#clip542)" style="stroke:#00a8cb; stroke-linecap:butt; stroke-linejoin:round; stroke-width:4; stroke-opacity:0.5; fill:none" points="
  218.191,1164.92 297.899,1040.08 377.606,972.451 457.314,914.518 537.021,493.206 616.728,466.222 696.436,462.175 776.143,490.031 855.851,467.339 935.558,532.484 
  1015.27,617.736 1094.97,722.907 1174.68,805.368 1254.39,873.35 1334.1,905.605 1413.8,995.432 1493.51,973.617 1573.22,1059.9 1652.92,1146.77 1732.63,1216.57 
  1812.34,1268.58 1892.05,1284.5 1971.75,1291.85 2051.46,1269.37 2131.17,1311.33 2210.88,1347.45 2290.58,1345.2 
  "/>
<polyline clip-path="url(#clip542)" style="stroke:#9b7fe8; stroke-linecap:butt; stroke-linejoin:round; stroke-width:4; stroke-opacity:0.5; fill:none" points="
  218.191,1164.92 297.899,1044.11 377.606,989.611 457.314,950.179 537.021,481.681 616.728,423.773 696.436,405.818 776.143,431.41 855.851,410.611 935.558,486.185 
  1015.27,585.114 1094.97,700.581 1174.68,798.291 1254.39,885.152 1334.1,930.591 1413.8,1016.56 1493.51,990.875 1573.22,1072.74 1652.92,1155.92 1732.63,1223.56 
  1812.34,1274.8 1892.05,1293.88 1971.75,1308.4 2051.46,1300.61 2131.17,1346.88 2210.88,1387.48 2290.58,1396.77 
  "/>
<polyline clip-path="url(#clip542)" style="stroke:#608cf6; stroke-linecap:butt; stroke-linejoin:round; stroke-width:4; stroke-opacity:0.5; fill:none" points="
  218.191,1164.92 297.899,1061.96 377.606,1002.62 457.314,950.032 537.021,492.598 616.728,485.455 696.436,490.727 776.143,519.341 855.851,502.001 935.558,562.67 
  1015.27,639.711 1094.97,736.267 1174.68,812.282 1254.39,874.431 1334.1,876.096 1413.8,965.039 1493.51,957.862 1573.22,1042.64 1652.92,1131.23 1732.63,1202.8 
  1812.34,1258.97 1892.05,1284.07 1971.75,1298.79 2051.46,1284.28 2131.17,1322.49 2210.88,1356.17 2290.58,1355.49 
  "/>
<polyline clip-path="url(#clip542)" style="stroke:#f05f73; stroke-linecap:butt; stroke-linejoin:round; stroke-width:4; stroke-opacity:0.5; fill:none" points="
  218.191,1164.92 297.899,1056.72 377.606,1001.83 457.314,952.302 537.021,457.055 616.728,435.117 696.436,435.335 776.143,467.487 855.851,443.423 935.558,511.835 
  1015.27,599.737 1094.97,705.681 1174.68,790.377 1254.39,861.05 1334.1,895.549 1413.8,985.83 1493.51,967.538 1573.22,1053.97 1652.92,1139.7 1732.63,1210.57 
  1812.34,1265.74 1892.05,1287.56 1971.75,1300.77 2051.46,1283.78 2131.17,1328.2 2210.88,1367.02 2290.58,1369.73 
  "/>
<polyline clip-path="url(#clip542)" style="stroke:#dd64b5; stroke-linecap:butt; stroke-linejoin:round; stroke-width:4; stroke-opacity:0.5; fill:none" points="
  218.191,1164.92 297.899,1118.95 377.606,1097.04 457.314,1068.86 537.021,437.794 616.728,446.695 696.436,463.232 776.143,499.449 855.851,474.982 935.558,547.795 
  1015.27,635.453 1094.97,739.69 1174.68,819.702 1254.39,883.118 1334.1,876.994 1413.8,969.289 1493.51,948.207 1573.22,1037.8 1652.92,1127.86 1732.63,1199.21 
  1812.34,1254.07 1892.05,1273.21 1971.75,1285.32 2051.46,1265.27 2131.17,1309.02 2210.88,1346.31 2290.58,1341.73 
  "/>
<polyline clip-path="url(#clip542)" style="stroke:#6b9e32; stroke-linecap:butt; stroke-linejoin:round; stroke-width:4; stroke-opacity:0.5; fill:none" points="
  218.191,1164.92 297.899,1077.96 377.606,1027.22 457.314,982.058 537.021,442.201 616.728,458.56 696.436,477.596 776.143,513.872 855.851,501.703 935.558,566.21 
  1015.27,645.854 1094.97,747.424 1174.68,828.587 1254.39,894.802 1334.1,837.021 1413.8,937.83 1493.51,945.738 1573.22,1039.6 1652.92,1142.34 1732.63,1224.31 
  1812.34,1290.57 1892.05,1327.08 1971.75,1349.62 2051.46,1340.99 2131.17,1377.37 2210.88,1410.63 2290.58,1411.65 
  "/>
<polyline clip-path="url(#clip542)" style="stroke:#009af9; stroke-linecap:butt; stroke-linejoin:round; stroke-width:4; stroke-opacity:0.5; fill:none" points="
  218.191,1164.92 297.899,1030.66 377.606,940.399 457.314,862.246 537.021,495.376 616.728,486.824 696.436,488.976 776.143,509.084 855.851,501.866 935.558,558.306 
  1015.27,623.009 1094.97,699.086 1174.68,762.263 1254.39,816.389 1334.1,884.125 1413.8,957.949 1493.51,986.283 1573.22,1054.06 1652.92,1114.16 1732.63,1171.7 
  1812.34,1221.83 1892.05,1254.77 1971.75,1282.28 2051.46,1291.47 2131.17,1325.38 2210.88,1355.04 2290.58,1363.87 
  "/>
<polyline clip-path="url(#clip542)" style="stroke:#e26f46; stroke-linecap:butt; stroke-linejoin:round; stroke-width:4; stroke-opacity:0.5; fill:none" points="
  218.191,1164.92 297.899,1079.44 377.606,1023.95 457.314,965.717 537.021,447.503 616.728,473.004 696.436,498.861 776.143,537.456 855.851,528.082 935.558,586.156 
  1015.27,652.573 1094.97,734.918 1174.68,795.526 1254.39,838.887 1334.1,838.537 1413.8,926.804 1493.51,939.159 1573.22,1022.66 1652.92,1106.19 1732.63,1177.13 
  1812.34,1236.34 1892.05,1269.81 1971.75,1291.48 2051.46,1281.08 2131.17,1317.37 2210.88,1349.53 2290.58,1348.54 
  "/>
<polyline clip-path="url(#clip542)" style="stroke:#3da44d; stroke-linecap:butt; stroke-linejoin:round; stroke-width:4; stroke-opacity:0.5; fill:none" points="
  218.191,1164.92 297.899,1052.93 377.606,998.518 457.314,967.369 537.021,428.789 616.728,424.228 696.436,438.59 776.143,478.014 855.851,495.599 935.558,565.543 
  1015.27,649.767 1094.97,747.562 1174.68,836.119 1254.39,917.711 1334.1,846.098 1413.8,925.84 1493.51,939.44 1573.22,1012.74 1652.92,1100.27 1732.63,1172.48 
  1812.34,1234.14 1892.05,1277.46 1971.75,1311.41 2051.46,1327.6 2131.17,1367.44 2210.88,1405.07 2290.58,1424.53 
  "/>
<polyline clip-path="url(#clip542)" style="stroke:#c271d2; stroke-linecap:butt; stroke-linejoin:round; stroke-width:4; stroke-opacity:0.5; fill:none" points="
  218.191,1164.92 297.899,1072.66 377.606,1021.62 457.314,979.744 537.021,470.204 616.728,469.701 696.436,479.052 776.143,510.381 855.851,498.509 935.558,562.566 
  1015.27,644.107 1094.97,746.722 1174.68,830.944 1254.39,902.378 1334.1,852.671 1413.8,946.287 1493.51,945.121 1573.22,1033.19 1652.92,1132.01 1732.63,1210.1 
  1812.34,1272.54 1892.05,1305.5 1971.75,1326.36 2051.46,1319.09 2131.17,1356.91 2210.88,1391.36 2290.58,1394.66 
  "/>
<polyline clip-path="url(#clip542)" style="stroke:#ac8d18; stroke-linecap:butt; stroke-linejoin:round; stroke-width:4; stroke-opacity:0.5; fill:none" points="
  218.191,1164.92 297.899,1068.72 377.606,1023.34 457.314,989.055 537.021,542.526 616.728,496.291 696.436,472.618 776.143,483.993 855.851,447.982 935.558,498.025 
  1015.27,574.316 1094.97,672.508 1174.68,759.049 1254.39,837.854 1334.1,867.919 1413.8,953.262 1493.51,962.85 1573.22,1042.28 1652.92,1123.99 1732.63,1195.4 
  1812.34,1256.66 1892.05,1298.78 1971.75,1331.92 2051.46,1344.83 2131.17,1388.24 2210.88,1428.58 2290.58,1449.58 
  "/>
</svg>
