<?xml version="1.0" encoding="utf-8"?>
<svg xmlns="http://www.w3.org/2000/svg" xmlns:xlink="http://www.w3.org/1999/xlink" width="600" height="400" viewBox="0 0 2400 1600">
<defs>
  <clipPath id="clip460">
    <rect x="0" y="0" width="2400" height="1600"/>
  </clipPath>
</defs>
<path clip-path="url(#clip460)" d="
M0 1600 L2400 1600 L2400 0 L0 0  Z
  " fill="#ffffff" fill-rule="evenodd" fill-opacity="1"/>
<defs>
  <clipPath id="clip461">
    <rect x="480" y="0" width="1681" height="1600"/>
  </clipPath>
</defs>
<path clip-path="url(#clip460)" d="
M156.02 1486.45 L2352.76 1486.45 L2352.76 183.952 L156.02 183.952  Z
  " fill="#ffffff" fill-rule="evenodd" fill-opacity="1"/>
<defs>
  <clipPath id="clip462">
    <rect x="156" y="183" width="2198" height="1303"/>
  </clipPath>
</defs>
<polyline clip-path="url(#clip462)" style="stroke:#000000; stroke-linecap:butt; stroke-linejoin:round; stroke-width:2; stroke-opacity:0.1; fill:none" points="
  377.606,1486.45 377.606,183.952 
  "/>
<polyline clip-path="url(#clip462)" style="stroke:#000000; stroke-linecap:butt; stroke-linejoin:round; stroke-width:2; stroke-opacity:0.1; fill:none" points="
  776.143,1486.45 776.143,183.952 
  "/>
<polyline clip-path="url(#clip462)" style="stroke:#000000; stroke-linecap:butt; stroke-linejoin:round; stroke-width:2; stroke-opacity:0.1; fill:none" points="
  1174.68,1486.45 1174.68,183.952 
  "/>
<polyline clip-path="url(#clip462)" style="stroke:#000000; stroke-linecap:butt; stroke-linejoin:round; stroke-width:2; stroke-opacity:0.1; fill:none" points="
  1573.22,1486.45 1573.22,183.952 
  "/>
<polyline clip-path="url(#clip462)" style="stroke:#000000; stroke-linecap:butt; stroke-linejoin:round; stroke-width:2; stroke-opacity:0.1; fill:none" points="
  1971.75,1486.45 1971.75,183.952 
  "/>
<polyline clip-path="url(#clip460)" style="stroke:#000000; stroke-linecap:butt; stroke-linejoin:round; stroke-width:4; stroke-opacity:1; fill:none" points="
  156.02,1486.45 2352.76,1486.45 
  "/>
<polyline clip-path="url(#clip460)" style="stroke:#000000; stroke-linecap:butt; stroke-linejoin:round; stroke-width:4; stroke-opacity:1; fill:none" points="
  377.606,1486.45 377.606,1467.55 
  "/>
<polyline clip-path="url(#clip460)" style="stroke:#000000; stroke-linecap:butt; stroke-linejoin:round; stroke-width:4; stroke-opacity:1; fill:none" points="
  776.143,1486.45 776.143,1467.55 
  "/>
<polyline clip-path="url(#clip460)" style="stroke:#000000; stroke-linecap:butt; stroke-linejoin:round; stroke-width:4; stroke-opacity:1; fill:none" points="
  1174.68,1486.45 1174.68,1467.55 
  "/>
<polyline clip-path="url(#clip460)" style="stroke:#000000; stroke-linecap:butt; stroke-linejoin:round; stroke-width:4; stroke-opacity:1; fill:none" points="
  1573.22,1486.45 1573.22,1467.55 
  "/>
<polyline clip-path="url(#clip460)" style="stroke:#000000; stroke-linecap:butt; stroke-linejoin:round; stroke-width:4; stroke-opacity:1; fill:none" points="
  1971.75,1486.45 1971.75,1467.55 
  "/>
<path clip-path="url(#clip460)" d="M322.63 1544.91 L330.268 1544.91 L330.268 1518.55 L321.958 1520.21 L321.958 1515.95 L330.222 1514.29 L334.898 1514.29 L334.898 1544.91 L342.537 1544.91 L342.537 1548.85 L322.63 1548.85 L322.63 1544.91 Z" fill="#000000" fill-rule="evenodd" fill-opacity="1" /><path clip-path="url(#clip460)" d="M352.12 1548.13 L352.12 1543.87 Q353.879 1544.7 355.685 1545.14 Q357.491 1545.58 359.227 1545.58 Q363.856 1545.58 366.287 1542.48 Q368.74 1539.36 369.088 1533.01 Q367.745 1535.01 365.685 1536.07 Q363.625 1537.13 361.125 1537.13 Q355.94 1537.13 352.907 1534.01 Q349.898 1530.86 349.898 1525.42 Q349.898 1520.1 353.046 1516.88 Q356.194 1513.66 361.426 1513.66 Q367.421 1513.66 370.569 1518.27 Q373.74 1522.85 373.74 1531.6 Q373.74 1539.77 369.852 1544.66 Q365.986 1549.52 359.435 1549.52 Q357.676 1549.52 355.87 1549.17 Q354.065 1548.82 352.12 1548.13 M361.426 1533.48 Q364.574 1533.48 366.403 1531.32 Q368.254 1529.17 368.254 1525.42 Q368.254 1521.7 366.403 1519.54 Q364.574 1517.37 361.426 1517.37 Q358.278 1517.37 356.426 1519.54 Q354.597 1521.7 354.597 1525.42 Q354.597 1529.17 356.426 1531.32 Q358.278 1533.48 361.426 1533.48 Z" fill="#000000" fill-rule="evenodd" fill-opacity="1" /><path clip-path="url(#clip460)" d="M382.282 1548.13 L382.282 1543.87 Q384.041 1544.7 385.847 1545.14 Q387.652 1545.58 389.388 1545.58 Q394.018 1545.58 396.449 1542.48 Q398.902 1539.36 399.25 1533.01 Q397.907 1535.01 395.847 1536.07 Q393.787 1537.13 391.287 1537.13 Q386.101 1537.13 383.069 1534.01 Q380.06 1530.86 380.06 1525.42 Q380.06 1520.1 383.208 1516.88 Q386.356 1513.66 391.588 1513.66 Q397.583 1513.66 400.731 1518.27 Q403.902 1522.85 403.902 1531.6 Q403.902 1539.77 400.013 1544.66 Q396.148 1549.52 389.597 1549.52 Q387.838 1549.52 386.032 1549.17 Q384.226 1548.82 382.282 1548.13 M391.588 1533.48 Q394.736 1533.48 396.564 1531.32 Q398.416 1529.17 398.416 1525.42 Q398.416 1521.7 396.564 1519.54 Q394.736 1517.37 391.588 1517.37 Q388.439 1517.37 386.588 1519.54 Q384.759 1521.7 384.759 1525.42 Q384.759 1529.17 386.588 1531.32 Q388.439 1533.48 391.588 1533.48 Z" fill="#000000" fill-rule="evenodd" fill-opacity="1" /><path clip-path="url(#clip460)" d="M412.351 1514.29 L430.708 1514.29 L430.708 1518.22 L416.634 1518.22 L416.634 1526.7 Q417.652 1526.35 418.671 1526.19 Q419.689 1526 420.708 1526 Q426.495 1526 429.874 1529.17 Q433.254 1532.34 433.254 1537.76 Q433.254 1543.34 429.782 1546.44 Q426.31 1549.52 419.99 1549.52 Q417.814 1549.52 415.546 1549.15 Q413.3 1548.78 410.893 1548.04 L410.893 1543.34 Q412.976 1544.47 415.199 1545.03 Q417.421 1545.58 419.898 1545.58 Q423.902 1545.58 426.24 1543.48 Q428.578 1541.37 428.578 1537.76 Q428.578 1534.15 426.24 1532.04 Q423.902 1529.94 419.898 1529.94 Q418.023 1529.94 416.148 1530.35 Q414.296 1530.77 412.351 1531.65 L412.351 1514.29 Z" fill="#000000" fill-rule="evenodd" fill-opacity="1" /><path clip-path="url(#clip460)" d="M724.755 1544.91 L741.074 1544.91 L741.074 1548.85 L719.13 1548.85 L719.13 1544.91 Q721.792 1542.16 726.375 1537.53 Q730.981 1532.88 732.162 1531.53 Q734.407 1529.01 735.287 1527.27 Q736.19 1525.51 736.19 1523.82 Q736.19 1521.07 734.245 1519.33 Q732.324 1517.6 729.222 1517.6 Q727.023 1517.6 724.569 1518.36 Q722.139 1519.13 719.361 1520.68 L719.361 1515.95 Q722.185 1514.82 724.639 1514.24 Q727.093 1513.66 729.13 1513.66 Q734.5 1513.66 737.694 1516.35 Q740.889 1519.03 740.889 1523.52 Q740.889 1525.65 740.079 1527.57 Q739.292 1529.47 737.185 1532.07 Q736.606 1532.74 733.505 1535.95 Q730.403 1539.15 724.755 1544.91 Z" fill="#000000" fill-rule="evenodd" fill-opacity="1" /><path clip-path="url(#clip460)" d="M760.889 1517.37 Q757.278 1517.37 755.449 1520.93 Q753.643 1524.47 753.643 1531.6 Q753.643 1538.71 755.449 1542.27 Q757.278 1545.82 760.889 1545.82 Q764.523 1545.82 766.328 1542.27 Q768.157 1538.71 768.157 1531.6 Q768.157 1524.47 766.328 1520.93 Q764.523 1517.37 760.889 1517.37 M760.889 1513.66 Q766.699 1513.66 769.754 1518.27 Q772.833 1522.85 772.833 1531.6 Q772.833 1540.33 769.754 1544.94 Q766.699 1549.52 760.889 1549.52 Q755.079 1549.52 752 1544.94 Q748.944 1540.33 748.944 1531.6 Q748.944 1522.85 752 1518.27 Q755.079 1513.66 760.889 1513.66 Z" fill="#000000" fill-rule="evenodd" fill-opacity="1" /><path clip-path="url(#clip460)" d="M791.051 1517.37 Q787.439 1517.37 785.611 1520.93 Q783.805 1524.47 783.805 1531.6 Q783.805 1538.71 785.611 1542.27 Q787.439 1545.82 791.051 1545.82 Q794.685 1545.82 796.49 1542.27 Q798.319 1538.71 798.319 1531.6 Q798.319 1524.47 796.49 1520.93 Q794.685 1517.37 791.051 1517.37 M791.051 1513.66 Q796.861 1513.66 799.916 1518.27 Q802.995 1522.85 802.995 1531.6 Q802.995 1540.33 799.916 1544.94 Q796.861 1549.52 791.051 1549.52 Q785.24 1549.52 782.162 1544.94 Q779.106 1540.33 779.106 1531.6 Q779.106 1522.85 782.162 1518.27 Q785.24 1513.66 791.051 1513.66 Z" fill="#000000" fill-rule="evenodd" fill-opacity="1" /><path clip-path="url(#clip460)" d="M821.212 1517.37 Q817.601 1517.37 815.773 1520.93 Q813.967 1524.47 813.967 1531.6 Q813.967 1538.71 815.773 1542.27 Q817.601 1545.82 821.212 1545.82 Q824.847 1545.82 826.652 1542.27 Q828.481 1538.71 828.481 1531.6 Q828.481 1524.47 826.652 1520.93 Q824.847 1517.37 821.212 1517.37 M821.212 1513.66 Q827.023 1513.66 830.078 1518.27 Q833.157 1522.85 833.157 1531.6 Q833.157 1540.33 830.078 1544.94 Q827.023 1549.52 821.212 1549.52 Q815.402 1549.52 812.324 1544.94 Q809.268 1540.33 809.268 1531.6 Q809.268 1522.85 812.324 1518.27 Q815.402 1513.66 821.212 1513.66 Z" fill="#000000" fill-rule="evenodd" fill-opacity="1" /><path clip-path="url(#clip460)" d="M1123.79 1544.91 L1140.11 1544.91 L1140.11 1548.85 L1118.16 1548.85 L1118.16 1544.91 Q1120.83 1542.16 1125.41 1537.53 Q1130.02 1532.88 1131.2 1531.53 Q1133.44 1529.01 1134.32 1527.27 Q1135.22 1525.51 1135.22 1523.82 Q1135.22 1521.07 1133.28 1519.33 Q1131.36 1517.6 1128.26 1517.6 Q1126.06 1517.6 1123.6 1518.36 Q1121.17 1519.13 1118.4 1520.68 L1118.4 1515.95 Q1121.22 1514.82 1123.67 1514.24 Q1126.13 1513.66 1128.16 1513.66 Q1133.53 1513.66 1136.73 1516.35 Q1139.92 1519.03 1139.92 1523.52 Q1139.92 1525.65 1139.11 1527.57 Q1138.33 1529.47 1136.22 1532.07 Q1135.64 1532.74 1132.54 1535.95 Q1129.44 1539.15 1123.79 1544.91 Z" fill="#000000" fill-rule="evenodd" fill-opacity="1" /><path clip-path="url(#clip460)" d="M1159.92 1517.37 Q1156.31 1517.37 1154.48 1520.93 Q1152.68 1524.47 1152.68 1531.6 Q1152.68 1538.71 1154.48 1542.27 Q1156.31 1545.82 1159.92 1545.82 Q1163.56 1545.82 1165.36 1542.27 Q1167.19 1538.71 1167.19 1531.6 Q1167.19 1524.47 1165.36 1520.93 Q1163.56 1517.37 1159.92 1517.37 M1159.92 1513.66 Q1165.73 1513.66 1168.79 1518.27 Q1171.87 1522.85 1171.87 1531.6 Q1171.87 1540.33 1168.79 1544.94 Q1165.73 1549.52 1159.92 1549.52 Q1154.11 1549.52 1151.03 1544.94 Q1147.98 1540.33 1147.98 1531.6 Q1147.98 1522.85 1151.03 1518.27 Q1154.11 1513.66 1159.92 1513.66 Z" fill="#000000" fill-rule="evenodd" fill-opacity="1" /><path clip-path="url(#clip460)" d="M1190.09 1517.37 Q1186.47 1517.37 1184.65 1520.93 Q1182.84 1524.47 1182.84 1531.6 Q1182.84 1538.71 1184.65 1542.27 Q1186.47 1545.82 1190.09 1545.82 Q1193.72 1545.82 1195.53 1542.27 Q1197.35 1538.71 1197.35 1531.6 Q1197.35 1524.47 1195.53 1520.93 Q1193.72 1517.37 1190.09 1517.37 M1190.09 1513.66 Q1195.9 1513.66 1198.95 1518.27 Q1202.03 1522.85 1202.03 1531.6 Q1202.03 1540.33 1198.95 1544.94 Q1195.9 1549.52 1190.09 1549.52 Q1184.28 1549.52 1181.2 1544.94 Q1178.14 1540.33 1178.14 1531.6 Q1178.14 1522.85 1181.2 1518.27 Q1184.28 1513.66 1190.09 1513.66 Z" fill="#000000" fill-rule="evenodd" fill-opacity="1" /><path clip-path="url(#clip460)" d="M1210.29 1514.29 L1228.65 1514.29 L1228.65 1518.22 L1214.58 1518.22 L1214.58 1526.7 Q1215.59 1526.35 1216.61 1526.19 Q1217.63 1526 1218.65 1526 Q1224.44 1526 1227.82 1529.17 Q1231.2 1532.34 1231.2 1537.76 Q1231.2 1543.34 1227.72 1546.44 Q1224.25 1549.52 1217.93 1549.52 Q1215.76 1549.52 1213.49 1549.15 Q1211.24 1548.78 1208.84 1548.04 L1208.84 1543.34 Q1210.92 1544.47 1213.14 1545.03 Q1215.36 1545.58 1217.84 1545.58 Q1221.84 1545.58 1224.18 1543.48 Q1226.52 1541.37 1226.52 1537.76 Q1226.52 1534.15 1224.18 1532.04 Q1221.84 1529.94 1217.84 1529.94 Q1215.96 1529.94 1214.09 1530.35 Q1212.24 1530.77 1210.29 1531.65 L1210.29 1514.29 Z" fill="#000000" fill-rule="evenodd" fill-opacity="1" /><path clip-path="url(#clip460)" d="M1521.83 1544.91 L1538.15 1544.91 L1538.15 1548.85 L1516.2 1548.85 L1516.2 1544.91 Q1518.87 1542.16 1523.45 1537.53 Q1528.06 1532.88 1529.24 1531.53 Q1531.48 1529.01 1532.36 1527.27 Q1533.26 1525.51 1533.26 1523.82 Q1533.26 1521.07 1531.32 1519.33 Q1529.4 1517.6 1526.3 1517.6 Q1524.1 1517.6 1521.64 1518.36 Q1519.21 1519.13 1516.44 1520.68 L1516.44 1515.95 Q1519.26 1514.82 1521.71 1514.24 Q1524.17 1513.66 1526.2 1513.66 Q1531.57 1513.66 1534.77 1516.35 Q1537.96 1519.03 1537.96 1523.52 Q1537.96 1525.65 1537.15 1527.57 Q1536.37 1529.47 1534.26 1532.07 Q1533.68 1532.74 1530.58 1535.95 Q1527.48 1539.15 1521.83 1544.91 Z" fill="#000000" fill-rule="evenodd" fill-opacity="1" /><path clip-path="url(#clip460)" d="M1557.96 1517.37 Q1554.35 1517.37 1552.52 1520.93 Q1550.72 1524.47 1550.72 1531.6 Q1550.72 1538.71 1552.52 1542.27 Q1554.35 1545.82 1557.96 1545.82 Q1561.6 1545.82 1563.4 1542.27 Q1565.23 1538.71 1565.23 1531.6 Q1565.23 1524.47 1563.4 1520.93 Q1561.6 1517.37 1557.96 1517.37 M1557.96 1513.66 Q1563.77 1513.66 1566.83 1518.27 Q1569.91 1522.85 1569.91 1531.6 Q1569.91 1540.33 1566.83 1544.94 Q1563.77 1549.52 1557.96 1549.52 Q1552.15 1549.52 1549.07 1544.94 Q1546.02 1540.33 1546.02 1531.6 Q1546.02 1522.85 1549.07 1518.27 Q1552.15 1513.66 1557.96 1513.66 Z" fill="#000000" fill-rule="evenodd" fill-opacity="1" /><path clip-path="url(#clip460)" d="M1578.93 1544.91 L1586.57 1544.91 L1586.57 1518.55 L1578.26 1520.21 L1578.26 1515.95 L1586.53 1514.29 L1591.2 1514.29 L1591.2 1544.91 L1598.84 1544.91 L1598.84 1548.85 L1578.93 1548.85 L1578.93 1544.91 Z" fill="#000000" fill-rule="evenodd" fill-opacity="1" /><path clip-path="url(#clip460)" d="M1618.29 1517.37 Q1614.68 1517.37 1612.85 1520.93 Q1611.04 1524.47 1611.04 1531.6 Q1611.04 1538.71 1612.85 1542.27 Q1614.68 1545.82 1618.29 1545.82 Q1621.92 1545.82 1623.73 1542.27 Q1625.56 1538.71 1625.56 1531.6 Q1625.56 1524.47 1623.73 1520.93 Q1621.92 1517.37 1618.29 1517.37 M1618.29 1513.66 Q1624.1 1513.66 1627.15 1518.27 Q1630.23 1522.85 1630.23 1531.6 Q1630.23 1540.33 1627.15 1544.94 Q1624.1 1549.52 1618.29 1549.52 Q1612.48 1549.52 1609.4 1544.94 Q1606.34 1540.33 1606.34 1531.6 Q1606.34 1522.85 1609.4 1518.27 Q1612.48 1513.66 1618.29 1513.66 Z" fill="#000000" fill-rule="evenodd" fill-opacity="1" /><path clip-path="url(#clip460)" d="M1920.86 1544.91 L1937.18 1544.91 L1937.18 1548.85 L1915.24 1548.85 L1915.24 1544.91 Q1917.9 1542.16 1922.48 1537.53 Q1927.09 1532.88 1928.27 1531.53 Q1930.52 1529.01 1931.4 1527.27 Q1932.3 1525.51 1932.3 1523.82 Q1932.3 1521.07 1930.35 1519.33 Q1928.43 1517.6 1925.33 1517.6 Q1923.13 1517.6 1920.68 1518.36 Q1918.25 1519.13 1915.47 1520.68 L1915.47 1515.95 Q1918.29 1514.82 1920.75 1514.24 Q1923.2 1513.66 1925.24 1513.66 Q1930.61 1513.66 1933.8 1516.35 Q1937 1519.03 1937 1523.52 Q1937 1525.65 1936.19 1527.57 Q1935.4 1529.47 1933.29 1532.07 Q1932.72 1532.74 1929.61 1535.95 Q1926.51 1539.15 1920.86 1544.91 Z" fill="#000000" fill-rule="evenodd" fill-opacity="1" /><path clip-path="url(#clip460)" d="M1957 1517.37 Q1953.39 1517.37 1951.56 1520.93 Q1949.75 1524.47 1949.75 1531.6 Q1949.75 1538.71 1951.56 1542.27 Q1953.39 1545.82 1957 1545.82 Q1960.63 1545.82 1962.44 1542.27 Q1964.27 1538.71 1964.27 1531.6 Q1964.27 1524.47 1962.44 1520.93 Q1960.63 1517.37 1957 1517.37 M1957 1513.66 Q1962.81 1513.66 1965.86 1518.27 Q1968.94 1522.85 1968.94 1531.6 Q1968.94 1540.33 1965.86 1544.94 Q1962.81 1549.52 1957 1549.52 Q1951.19 1549.52 1948.11 1544.94 Q1945.05 1540.33 1945.05 1531.6 Q1945.05 1522.85 1948.11 1518.27 Q1951.19 1513.66 1957 1513.66 Z" fill="#000000" fill-rule="evenodd" fill-opacity="1" /><path clip-path="url(#clip460)" d="M1977.97 1544.91 L1985.61 1544.91 L1985.61 1518.55 L1977.3 1520.21 L1977.3 1515.95 L1985.56 1514.29 L1990.24 1514.29 L1990.24 1544.91 L1997.88 1544.91 L1997.88 1548.85 L1977.97 1548.85 L1977.97 1544.91 Z" fill="#000000" fill-rule="evenodd" fill-opacity="1" /><path clip-path="url(#clip460)" d="M2007.37 1514.29 L2025.72 1514.29 L2025.72 1518.22 L2011.65 1518.22 L2011.65 1526.7 Q2012.67 1526.35 2013.69 1526.19 Q2014.71 1526 2015.72 1526 Q2021.51 1526 2024.89 1529.17 Q2028.27 1532.34 2028.27 1537.76 Q2028.27 1543.34 2024.8 1546.44 Q2021.33 1549.52 2015.01 1549.52 Q2012.83 1549.52 2010.56 1549.15 Q2008.32 1548.78 2005.91 1548.04 L2005.91 1543.34 Q2007.99 1544.47 2010.21 1545.03 Q2012.44 1545.58 2014.91 1545.58 Q2018.92 1545.58 2021.26 1543.48 Q2023.59 1541.37 2023.59 1537.76 Q2023.59 1534.15 2021.26 1532.04 Q2018.92 1529.94 2014.91 1529.94 Q2013.04 1529.94 2011.16 1530.35 Q2009.31 1530.77 2007.37 1531.65 L2007.37 1514.29 Z" fill="#000000" fill-rule="evenodd" fill-opacity="1" /><polyline clip-path="url(#clip462)" style="stroke:#000000; stroke-linecap:butt; stroke-linejoin:round; stroke-width:2; stroke-opacity:0.1; fill:none" points="
  156.02,1354.83 2352.76,1354.83 
  "/>
<polyline clip-path="url(#clip462)" style="stroke:#000000; stroke-linecap:butt; stroke-linejoin:round; stroke-width:2; stroke-opacity:0.1; fill:none" points="
  156.02,1178.01 2352.76,1178.01 
  "/>
<polyline clip-path="url(#clip462)" style="stroke:#000000; stroke-linecap:butt; stroke-linejoin:round; stroke-width:2; stroke-opacity:0.1; fill:none" points="
  156.02,1001.2 2352.76,1001.2 
  "/>
<polyline clip-path="url(#clip462)" style="stroke:#000000; stroke-linecap:butt; stroke-linejoin:round; stroke-width:2; stroke-opacity:0.1; fill:none" points="
  156.02,824.382 2352.76,824.382 
  "/>
<polyline clip-path="url(#clip462)" style="stroke:#000000; stroke-linecap:butt; stroke-linejoin:round; stroke-width:2; stroke-opacity:0.1; fill:none" points="
  156.02,647.568 2352.76,647.568 
  "/>
<polyline clip-path="url(#clip462)" style="stroke:#000000; stroke-linecap:butt; stroke-linejoin:round; stroke-width:2; stroke-opacity:0.1; fill:none" points="
  156.02,470.754 2352.76,470.754 
  "/>
<polyline clip-path="url(#clip462)" style="stroke:#000000; stroke-linecap:butt; stroke-linejoin:round; stroke-width:2; stroke-opacity:0.1; fill:none" points="
  156.02,293.94 2352.76,293.94 
  "/>
<polyline clip-path="url(#clip460)" style="stroke:#000000; stroke-linecap:butt; stroke-linejoin:round; stroke-width:4; stroke-opacity:1; fill:none" points="
  156.02,1486.45 156.02,183.952 
  "/>
<polyline clip-path="url(#clip460)" style="stroke:#000000; stroke-linecap:butt; stroke-linejoin:round; stroke-width:4; stroke-opacity:1; fill:none" points="
  156.02,1354.83 174.917,1354.83 
  "/>
<polyline clip-path="url(#clip460)" style="stroke:#000000; stroke-linecap:butt; stroke-linejoin:round; stroke-width:4; stroke-opacity:1; fill:none" points="
  156.02,1178.01 174.917,1178.01 
  "/>
<polyline clip-path="url(#clip460)" style="stroke:#000000; stroke-linecap:butt; stroke-linejoin:round; stroke-width:4; stroke-opacity:1; fill:none" points="
  156.02,1001.2 174.917,1001.2 
  "/>
<polyline clip-path="url(#clip460)" style="stroke:#000000; stroke-linecap:butt; stroke-linejoin:round; stroke-width:4; stroke-opacity:1; fill:none" points="
  156.02,824.382 174.917,824.382 
  "/>
<polyline clip-path="url(#clip460)" style="stroke:#000000; stroke-linecap:butt; stroke-linejoin:round; stroke-width:4; stroke-opacity:1; fill:none" points="
  156.02,647.568 174.917,647.568 
  "/>
<polyline clip-path="url(#clip460)" style="stroke:#000000; stroke-linecap:butt; stroke-linejoin:round; stroke-width:4; stroke-opacity:1; fill:none" points="
  156.02,470.754 174.917,470.754 
  "/>
<polyline clip-path="url(#clip460)" style="stroke:#000000; stroke-linecap:butt; stroke-linejoin:round; stroke-width:4; stroke-opacity:1; fill:none" points="
  156.02,293.94 174.917,293.94 
  "/>
<path clip-path="url(#clip460)" d="M62.9365 1340.62 Q59.3254 1340.62 57.4967 1344.19 Q55.6912 1347.73 55.6912 1354.86 Q55.6912 1361.97 57.4967 1365.53 Q59.3254 1369.07 62.9365 1369.07 Q66.5707 1369.07 68.3763 1365.53 Q70.205 1361.97 70.205 1354.86 Q70.205 1347.73 68.3763 1344.19 Q66.5707 1340.62 62.9365 1340.62 M62.9365 1336.92 Q68.7467 1336.92 71.8022 1341.53 Q74.8809 1346.11 74.8809 1354.86 Q74.8809 1363.59 71.8022 1368.19 Q68.7467 1372.78 62.9365 1372.78 Q57.1264 1372.78 54.0477 1368.19 Q50.9921 1363.59 50.9921 1354.86 Q50.9921 1346.11 54.0477 1341.53 Q57.1264 1336.92 62.9365 1336.92 Z" fill="#000000" fill-rule="evenodd" fill-opacity="1" /><path clip-path="url(#clip460)" d="M83.0984 1366.23 L87.9827 1366.23 L87.9827 1372.11 L83.0984 1372.11 L83.0984 1366.23 Z" fill="#000000" fill-rule="evenodd" fill-opacity="1" /><path clip-path="url(#clip460)" d="M108.168 1355.69 Q104.834 1355.69 102.913 1357.48 Q101.015 1359.26 101.015 1362.38 Q101.015 1365.51 102.913 1367.29 Q104.834 1369.07 108.168 1369.07 Q111.501 1369.07 113.422 1367.29 Q115.344 1365.48 115.344 1362.38 Q115.344 1359.26 113.422 1357.48 Q111.524 1355.69 108.168 1355.69 M103.492 1353.7 Q100.483 1352.96 98.7928 1350.9 Q97.1261 1348.84 97.1261 1345.88 Q97.1261 1341.74 100.066 1339.33 Q103.029 1336.92 108.168 1336.92 Q113.33 1336.92 116.27 1339.33 Q119.209 1341.74 119.209 1345.88 Q119.209 1348.84 117.52 1350.9 Q115.853 1352.96 112.867 1353.7 Q116.246 1354.49 118.121 1356.78 Q120.02 1359.07 120.02 1362.38 Q120.02 1367.41 116.941 1370.09 Q113.885 1372.78 108.168 1372.78 Q102.45 1372.78 99.3715 1370.09 Q96.316 1367.41 96.316 1362.38 Q96.316 1359.07 98.2141 1356.78 Q100.112 1354.49 103.492 1353.7 M101.779 1346.32 Q101.779 1349 103.446 1350.51 Q105.135 1352.01 108.168 1352.01 Q111.177 1352.01 112.867 1350.51 Q114.58 1349 114.58 1346.32 Q114.58 1343.63 112.867 1342.13 Q111.177 1340.62 108.168 1340.62 Q105.135 1340.62 103.446 1342.13 Q101.779 1343.63 101.779 1346.32 Z" fill="#000000" fill-rule="evenodd" fill-opacity="1" /><path clip-path="url(#clip460)" d="M53.6541 1191.36 L61.293 1191.36 L61.293 1164.99 L52.9829 1166.66 L52.9829 1162.4 L61.2467 1160.73 L65.9226 1160.73 L65.9226 1191.36 L73.5614 1191.36 L73.5614 1195.29 L53.6541 1195.29 L53.6541 1191.36 Z" fill="#000000" fill-rule="evenodd" fill-opacity="1" /><path clip-path="url(#clip460)" d="M83.0058 1189.41 L87.8901 1189.41 L87.8901 1195.29 L83.0058 1195.29 L83.0058 1189.41 Z" fill="#000000" fill-rule="evenodd" fill-opacity="1" /><path clip-path="url(#clip460)" d="M108.075 1163.81 Q104.464 1163.81 102.635 1167.37 Q100.83 1170.92 100.83 1178.05 Q100.83 1185.15 102.635 1188.72 Q104.464 1192.26 108.075 1192.26 Q111.709 1192.26 113.515 1188.72 Q115.344 1185.15 115.344 1178.05 Q115.344 1170.92 113.515 1167.37 Q111.709 1163.81 108.075 1163.81 M108.075 1160.11 Q113.885 1160.11 116.941 1164.71 Q120.02 1169.3 120.02 1178.05 Q120.02 1186.77 116.941 1191.38 Q113.885 1195.96 108.075 1195.96 Q102.265 1195.96 99.1863 1191.38 Q96.1308 1186.77 96.1308 1178.05 Q96.1308 1169.3 99.1863 1164.71 Q102.265 1160.11 108.075 1160.11 Z" fill="#000000" fill-rule="evenodd" fill-opacity="1" /><path clip-path="url(#clip460)" d="M55.2514 1014.54 L62.8902 1014.54 L62.8902 988.176 L54.5801 989.843 L54.5801 985.583 L62.8439 983.917 L67.5198 983.917 L67.5198 1014.54 L75.1587 1014.54 L75.1587 1018.48 L55.2514 1018.48 L55.2514 1014.54 Z" fill="#000000" fill-rule="evenodd" fill-opacity="1" /><path clip-path="url(#clip460)" d="M84.6031 1012.6 L89.4873 1012.6 L89.4873 1018.48 L84.6031 1018.48 L84.6031 1012.6 Z" fill="#000000" fill-rule="evenodd" fill-opacity="1" /><path clip-path="url(#clip460)" d="M103.7 1014.54 L120.02 1014.54 L120.02 1018.48 L98.0752 1018.48 L98.0752 1014.54 Q100.737 1011.79 105.321 1007.16 Q109.927 1002.5 111.108 1001.16 Q113.353 998.639 114.233 996.903 Q115.135 995.144 115.135 993.454 Q115.135 990.699 113.191 988.963 Q111.27 987.227 108.168 987.227 Q105.969 987.227 103.515 987.991 Q101.084 988.755 98.3067 990.306 L98.3067 985.583 Q101.131 984.449 103.584 983.87 Q106.038 983.292 108.075 983.292 Q113.445 983.292 116.64 985.977 Q119.834 988.662 119.834 993.153 Q119.834 995.282 119.024 997.204 Q118.237 999.102 116.131 1001.69 Q115.552 1002.37 112.45 1005.58 Q109.348 1008.78 103.7 1014.54 Z" fill="#000000" fill-rule="evenodd" fill-opacity="1" /><path clip-path="url(#clip460)" d="M53.168 837.727 L60.8069 837.727 L60.8069 811.362 L52.4967 813.028 L52.4967 808.769 L60.7606 807.102 L65.4365 807.102 L65.4365 837.727 L73.0753 837.727 L73.0753 841.662 L53.168 841.662 L53.168 837.727 Z" fill="#000000" fill-rule="evenodd" fill-opacity="1" /><path clip-path="url(#clip460)" d="M82.5197 835.783 L87.404 835.783 L87.404 841.662 L82.5197 841.662 L82.5197 835.783 Z" fill="#000000" fill-rule="evenodd" fill-opacity="1" /><path clip-path="url(#clip460)" d="M110.436 811.177 L98.6308 829.625 L110.436 829.625 L110.436 811.177 M109.209 807.102 L115.089 807.102 L115.089 829.625 L120.02 829.625 L120.02 833.514 L115.089 833.514 L115.089 841.662 L110.436 841.662 L110.436 833.514 L94.8345 833.514 L94.8345 829 L109.209 807.102 Z" fill="#000000" fill-rule="evenodd" fill-opacity="1" /><path clip-path="url(#clip460)" d="M53.4921 660.913 L61.131 660.913 L61.131 634.547 L52.8208 636.214 L52.8208 631.955 L61.0847 630.288 L65.7606 630.288 L65.7606 660.913 L73.3994 660.913 L73.3994 664.848 L53.4921 664.848 L53.4921 660.913 Z" fill="#000000" fill-rule="evenodd" fill-opacity="1" /><path clip-path="url(#clip460)" d="M82.8438 658.969 L87.728 658.969 L87.728 664.848 L82.8438 664.848 L82.8438 658.969 Z" fill="#000000" fill-rule="evenodd" fill-opacity="1" /><path clip-path="url(#clip460)" d="M108.492 645.705 Q105.344 645.705 103.492 647.858 Q101.663 650.01 101.663 653.76 Q101.663 657.487 103.492 659.663 Q105.344 661.816 108.492 661.816 Q111.64 661.816 113.469 659.663 Q115.32 657.487 115.32 653.76 Q115.32 650.01 113.469 647.858 Q111.64 645.705 108.492 645.705 M117.774 631.052 L117.774 635.311 Q116.015 634.478 114.209 634.038 Q112.427 633.598 110.668 633.598 Q106.038 633.598 103.584 636.723 Q101.154 639.848 100.807 646.168 Q102.172 644.154 104.233 643.089 Q106.293 642.001 108.77 642.001 Q113.978 642.001 116.987 645.172 Q120.02 648.32 120.02 653.76 Q120.02 659.084 116.871 662.302 Q113.723 665.519 108.492 665.519 Q102.496 665.519 99.3252 660.936 Q96.1539 656.33 96.1539 647.603 Q96.1539 639.409 100.043 634.547 Q103.932 629.663 110.483 629.663 Q112.242 629.663 114.024 630.01 Q115.83 630.358 117.774 631.052 Z" fill="#000000" fill-rule="evenodd" fill-opacity="1" /><path clip-path="url(#clip460)" d="M53.7467 484.099 L61.3856 484.099 L61.3856 457.733 L53.0754 459.4 L53.0754 455.141 L61.3393 453.474 L66.0152 453.474 L66.0152 484.099 L73.654 484.099 L73.654 488.034 L53.7467 488.034 L53.7467 484.099 Z" fill="#000000" fill-rule="evenodd" fill-opacity="1" /><path clip-path="url(#clip460)" d="M83.0984 482.154 L87.9827 482.154 L87.9827 488.034 L83.0984 488.034 L83.0984 482.154 Z" fill="#000000" fill-rule="evenodd" fill-opacity="1" /><path clip-path="url(#clip460)" d="M108.168 471.622 Q104.834 471.622 102.913 473.404 Q101.015 475.187 101.015 478.312 Q101.015 481.437 102.913 483.219 Q104.834 485.002 108.168 485.002 Q111.501 485.002 113.422 483.219 Q115.344 481.414 115.344 478.312 Q115.344 475.187 113.422 473.404 Q111.524 471.622 108.168 471.622 M103.492 469.631 Q100.483 468.89 98.7928 466.83 Q97.1261 464.77 97.1261 461.807 Q97.1261 457.664 100.066 455.256 Q103.029 452.849 108.168 452.849 Q113.33 452.849 116.27 455.256 Q119.209 457.664 119.209 461.807 Q119.209 464.77 117.52 466.83 Q115.853 468.89 112.867 469.631 Q116.246 470.418 118.121 472.71 Q120.02 475.002 120.02 478.312 Q120.02 483.335 116.941 486.02 Q113.885 488.705 108.168 488.705 Q102.45 488.705 99.3715 486.02 Q96.316 483.335 96.316 478.312 Q96.316 475.002 98.2141 472.71 Q100.112 470.418 103.492 469.631 M101.779 462.247 Q101.779 464.932 103.446 466.437 Q105.135 467.941 108.168 467.941 Q111.177 467.941 112.867 466.437 Q114.58 464.932 114.58 462.247 Q114.58 459.562 112.867 458.057 Q111.177 456.553 108.168 456.553 Q105.135 456.553 103.446 458.057 Q101.779 459.562 101.779 462.247 Z" fill="#000000" fill-rule="evenodd" fill-opacity="1" /><path clip-path="url(#clip460)" d="M56.8717 307.284 L73.1911 307.284 L73.1911 311.22 L51.2468 311.22 L51.2468 307.284 Q53.9088 304.53 58.4921 299.9 Q63.0985 295.247 64.2791 293.905 Q66.5245 291.382 67.4041 289.646 Q68.3068 287.886 68.3068 286.197 Q68.3068 283.442 66.3624 281.706 Q64.4411 279.97 61.3393 279.97 Q59.1402 279.97 56.6865 280.734 Q54.256 281.498 51.4782 283.048 L51.4782 278.326 Q54.3023 277.192 56.756 276.613 Q59.2097 276.035 61.2467 276.035 Q66.617 276.035 69.8115 278.72 Q73.0059 281.405 73.0059 285.896 Q73.0059 288.025 72.1957 289.947 Q71.4087 291.845 69.3022 294.437 Q68.7235 295.109 65.6217 298.326 Q62.5198 301.521 56.8717 307.284 Z" fill="#000000" fill-rule="evenodd" fill-opacity="1" /><path clip-path="url(#clip460)" d="M83.0058 305.34 L87.8901 305.34 L87.8901 311.22 L83.0058 311.22 L83.0058 305.34 Z" fill="#000000" fill-rule="evenodd" fill-opacity="1" /><path clip-path="url(#clip460)" d="M108.075 279.738 Q104.464 279.738 102.635 283.303 Q100.83 286.845 100.83 293.974 Q100.83 301.081 102.635 304.646 Q104.464 308.187 108.075 308.187 Q111.709 308.187 113.515 304.646 Q115.344 301.081 115.344 293.974 Q115.344 286.845 113.515 283.303 Q111.709 279.738 108.075 279.738 M108.075 276.035 Q113.885 276.035 116.941 280.641 Q120.02 285.224 120.02 293.974 Q120.02 302.701 116.941 307.308 Q113.885 311.891 108.075 311.891 Q102.265 311.891 99.1863 307.308 Q96.1308 302.701 96.1308 293.974 Q96.1308 285.224 99.1863 280.641 Q102.265 276.035 108.075 276.035 Z" fill="#000000" fill-rule="evenodd" fill-opacity="1" /><path clip-path="url(#clip460)" d="M705.085 41.3253 L693.986 71.4235 L716.225 71.4235 L705.085 41.3253 M700.467 33.264 L709.744 33.264 L732.793 93.744 L724.286 93.744 L718.777 78.229 L691.515 78.229 L686.005 93.744 L677.377 93.744 L700.467 33.264 Z" fill="#000000" fill-rule="evenodd" fill-opacity="1" /><path clip-path="url(#clip460)" d="M740.693 33.264 L748.916 33.264 L748.916 70.0057 Q748.916 79.7279 752.44 84.0218 Q755.964 88.2753 763.864 88.2753 Q771.722 88.2753 775.247 84.0218 Q778.771 79.7279 778.771 70.0057 L778.771 33.264 L786.994 33.264 L786.994 71.0184 Q786.994 82.8471 781.121 88.8829 Q775.287 94.9188 763.864 94.9188 Q752.4 94.9188 746.526 88.8829 Q740.693 82.8471 740.693 71.0184 L740.693 33.264 Z" fill="#000000" fill-rule="evenodd" fill-opacity="1" /><path clip-path="url(#clip460)" d="M857.399 65.3877 Q860.032 66.2789 862.503 69.1955 Q865.015 72.1122 867.526 77.2163 L875.831 93.744 L867.04 93.744 L859.303 78.229 Q856.305 72.1527 853.47 70.1677 Q850.675 68.1828 845.814 68.1828 L836.902 68.1828 L836.902 93.744 L828.719 93.744 L828.719 33.264 L847.191 33.264 Q857.561 33.264 862.665 37.5985 Q867.769 41.9329 867.769 50.6829 Q867.769 56.3947 865.096 60.162 Q862.463 63.9293 857.399 65.3877 M836.902 39.9885 L836.902 61.4583 L847.191 61.4583 Q853.105 61.4583 856.103 58.7442 Q859.141 55.9896 859.141 50.6829 Q859.141 45.3762 856.103 42.7026 Q853.105 39.9885 847.191 39.9885 L836.902 39.9885 Z" fill="#000000" fill-rule="evenodd" fill-opacity="1" /><path clip-path="url(#clip460)" d="M899.893 53.5995 Q893.898 53.5995 890.414 58.2986 Q886.93 62.9571 886.93 71.0994 Q886.93 79.2418 890.373 83.9408 Q893.857 88.5994 899.893 88.5994 Q905.848 88.5994 909.332 83.9003 Q912.815 79.2013 912.815 71.0994 Q912.815 63.0381 909.332 58.3391 Q905.848 53.5995 899.893 53.5995 M899.893 47.2801 Q909.615 47.2801 915.165 53.5995 Q920.715 59.9189 920.715 71.0994 Q920.715 82.2394 915.165 88.5994 Q909.615 94.9188 899.893 94.9188 Q890.13 94.9188 884.581 88.5994 Q879.071 82.2394 879.071 71.0994 Q879.071 59.9189 884.581 53.5995 Q890.13 47.2801 899.893 47.2801 Z" fill="#000000" fill-rule="evenodd" fill-opacity="1" /><path clip-path="url(#clip460)" d="M965.639 71.0994 Q965.639 62.8761 962.237 58.2176 Q958.874 53.5185 952.96 53.5185 Q947.046 53.5185 943.643 58.2176 Q940.281 62.8761 940.281 71.0994 Q940.281 79.3228 943.643 84.0218 Q947.046 88.6804 952.96 88.6804 Q958.874 88.6804 962.237 84.0218 Q965.639 79.3228 965.639 71.0994 M940.281 55.2604 Q942.63 51.2095 946.195 49.2651 Q949.8 47.2801 954.783 47.2801 Q963.047 47.2801 968.191 53.8426 Q973.376 60.4051 973.376 71.0994 Q973.376 81.7938 968.191 88.3563 Q963.047 94.9188 954.783 94.9188 Q949.8 94.9188 946.195 92.9743 Q942.63 90.9894 940.281 86.9385 L940.281 93.744 L932.786 93.744 L932.786 30.7119 L940.281 30.7119 L940.281 55.2604 Z" fill="#000000" fill-rule="evenodd" fill-opacity="1" /><path clip-path="url(#clip460)" d="M1018.3 71.0994 Q1018.3 62.8761 1014.9 58.2176 Q1011.54 53.5185 1005.62 53.5185 Q999.707 53.5185 996.305 58.2176 Q992.942 62.8761 992.942 71.0994 Q992.942 79.3228 996.305 84.0218 Q999.707 88.6804 1005.62 88.6804 Q1011.54 88.6804 1014.9 84.0218 Q1018.3 79.3228 1018.3 71.0994 M992.942 55.2604 Q995.292 51.2095 998.857 49.2651 Q1002.46 47.2801 1007.44 47.2801 Q1015.71 47.2801 1020.85 53.8426 Q1026.04 60.4051 1026.04 71.0994 Q1026.04 81.7938 1020.85 88.3563 Q1015.71 94.9188 1007.44 94.9188 Q1002.46 94.9188 998.857 92.9743 Q995.292 90.9894 992.942 86.9385 L992.942 93.744 L985.448 93.744 L985.448 30.7119 L992.942 30.7119 L992.942 55.2604 Z" fill="#000000" fill-rule="evenodd" fill-opacity="1" /><path clip-path="url(#clip460)" d="M1077.2 69.1955 L1077.2 72.8413 L1042.93 72.8413 Q1043.42 80.5381 1047.55 84.589 Q1051.72 88.5994 1059.13 88.5994 Q1063.43 88.5994 1067.44 87.5461 Q1071.49 86.4929 1075.46 84.3864 L1075.46 91.435 Q1071.45 93.1364 1067.24 94.0276 Q1063.02 94.9188 1058.69 94.9188 Q1047.83 94.9188 1041.47 88.5994 Q1035.15 82.2799 1035.15 71.5045 Q1035.15 60.3645 1041.15 53.8426 Q1047.18 47.2801 1057.39 47.2801 Q1066.55 47.2801 1071.85 53.1944 Q1077.2 59.0683 1077.2 69.1955 M1069.75 67.008 Q1069.67 60.8912 1066.3 57.2454 Q1062.98 53.5995 1057.47 53.5995 Q1051.23 53.5995 1047.47 57.1238 Q1043.74 60.6481 1043.17 67.0485 L1069.75 67.008 Z" fill="#000000" fill-rule="evenodd" fill-opacity="1" /><path clip-path="url(#clip460)" d="M1115.73 55.3414 Q1114.47 54.6123 1112.97 54.2882 Q1111.51 53.9236 1109.73 53.9236 Q1103.41 53.9236 1100.01 58.0555 Q1096.65 62.1469 1096.65 69.8437 L1096.65 93.744 L1089.15 93.744 L1089.15 48.3739 L1096.65 48.3739 L1096.65 55.4224 Q1099 51.2905 1102.76 49.3056 Q1106.53 47.2801 1111.92 47.2801 Q1112.69 47.2801 1113.62 47.4017 Q1114.55 47.4827 1115.68 47.6852 L1115.73 55.3414 Z" fill="#000000" fill-rule="evenodd" fill-opacity="1" /><path clip-path="url(#clip460)" d="M1142.42 97.9569 Q1139.26 106.059 1136.26 108.53 Q1133.27 111.001 1128.24 111.001 L1122.29 111.001 L1122.29 104.762 L1126.66 104.762 Q1129.74 104.762 1131.44 103.304 Q1133.14 101.846 1135.21 96.4176 L1136.55 93.0148 L1118.2 48.3739 L1126.1 48.3739 L1140.27 83.8598 L1154.45 48.3739 L1162.35 48.3739 L1142.42 97.9569 Z" fill="#000000" fill-rule="evenodd" fill-opacity="1" /><path clip-path="url(#clip460)" d="M1225.3 55.3414 Q1224.05 54.6123 1222.55 54.2882 Q1221.09 53.9236 1219.31 53.9236 Q1212.99 53.9236 1209.58 58.0555 Q1206.22 62.1469 1206.22 69.8437 L1206.22 93.744 L1198.73 93.744 L1198.73 48.3739 L1206.22 48.3739 L1206.22 55.4224 Q1208.57 51.2905 1212.34 49.3056 Q1216.11 47.2801 1221.49 47.2801 Q1222.26 47.2801 1223.2 47.4017 Q1224.13 47.4827 1225.26 47.6852 L1225.3 55.3414 Z" fill="#000000" fill-rule="evenodd" fill-opacity="1" /><path clip-path="url(#clip460)" d="M1270.11 69.1955 L1270.11 72.8413 L1235.83 72.8413 Q1236.32 80.5381 1240.45 84.589 Q1244.63 88.5994 1252.04 88.5994 Q1256.33 88.5994 1260.34 87.5461 Q1264.39 86.4929 1268.36 84.3864 L1268.36 91.435 Q1264.35 93.1364 1260.14 94.0276 Q1255.93 94.9188 1251.59 94.9188 Q1240.74 94.9188 1234.38 88.5994 Q1228.06 82.2799 1228.06 71.5045 Q1228.06 60.3645 1234.05 53.8426 Q1240.09 47.2801 1250.3 47.2801 Q1259.45 47.2801 1264.76 53.1944 Q1270.11 59.0683 1270.11 69.1955 M1262.65 67.008 Q1262.57 60.8912 1259.21 57.2454 Q1255.89 53.5995 1250.38 53.5995 Q1244.14 53.5995 1240.37 57.1238 Q1236.64 60.6481 1236.08 67.0485 L1262.65 67.008 Z" fill="#000000" fill-rule="evenodd" fill-opacity="1" /><path clip-path="url(#clip460)" d="M1282.34 30.7119 L1289.79 30.7119 L1289.79 93.744 L1282.34 93.744 L1282.34 30.7119 Z" fill="#000000" fill-rule="evenodd" fill-opacity="1" /><path clip-path="url(#clip460)" d="M1326.01 70.9374 Q1316.97 70.9374 1313.49 73.0034 Q1310.01 75.0693 1310.01 80.0519 Q1310.01 84.0218 1312.6 86.3714 Q1315.23 88.6804 1319.73 88.6804 Q1325.93 88.6804 1329.65 84.3054 Q1333.42 79.8899 1333.42 72.5983 L1333.42 70.9374 L1326.01 70.9374 M1340.87 67.8587 L1340.87 93.744 L1333.42 93.744 L1333.42 86.8575 Q1330.87 90.9894 1327.06 92.9743 Q1323.25 94.9188 1317.74 94.9188 Q1310.78 94.9188 1306.64 91.0299 Q1302.55 87.1005 1302.55 80.5381 Q1302.55 72.8818 1307.66 68.993 Q1312.8 65.1041 1322.97 65.1041 L1333.42 65.1041 L1333.42 64.3749 Q1333.42 59.2303 1330.02 56.4352 Q1326.66 53.5995 1320.54 53.5995 Q1316.65 53.5995 1312.96 54.5312 Q1309.28 55.463 1305.87 57.3264 L1305.87 50.4398 Q1309.97 48.86 1313.81 48.0903 Q1317.66 47.2801 1321.31 47.2801 Q1331.15 47.2801 1336.01 52.3843 Q1340.87 57.4884 1340.87 67.8587 Z" fill="#000000" fill-rule="evenodd" fill-opacity="1" /><path clip-path="url(#clip460)" d="M1363.6 35.492 L1363.6 48.3739 L1378.95 48.3739 L1378.95 54.1667 L1363.6 54.1667 L1363.6 78.7962 Q1363.6 84.3459 1365.1 85.9258 Q1366.64 87.5056 1371.3 87.5056 L1378.95 87.5056 L1378.95 93.744 L1371.3 93.744 Q1362.67 93.744 1359.39 90.5438 Q1356.11 87.3031 1356.11 78.7962 L1356.11 54.1667 L1350.64 54.1667 L1350.64 48.3739 L1356.11 48.3739 L1356.11 35.492 L1363.6 35.492 Z" fill="#000000" fill-rule="evenodd" fill-opacity="1" /><path clip-path="url(#clip460)" d="M1388.76 48.3739 L1396.21 48.3739 L1396.21 93.744 L1388.76 93.744 L1388.76 48.3739 M1388.76 30.7119 L1396.21 30.7119 L1396.21 40.1505 L1388.76 40.1505 L1388.76 30.7119 Z" fill="#000000" fill-rule="evenodd" fill-opacity="1" /><path clip-path="url(#clip460)" d="M1406.46 48.3739 L1414.36 48.3739 L1428.54 86.4524 L1442.71 48.3739 L1450.61 48.3739 L1433.6 93.744 L1423.47 93.744 L1406.46 48.3739 Z" fill="#000000" fill-rule="evenodd" fill-opacity="1" /><path clip-path="url(#clip460)" d="M1499.71 69.1955 L1499.71 72.8413 L1465.44 72.8413 Q1465.93 80.5381 1470.06 84.589 Q1474.23 88.5994 1481.64 88.5994 Q1485.94 88.5994 1489.95 87.5461 Q1494 86.4929 1497.97 84.3864 L1497.97 91.435 Q1493.96 93.1364 1489.75 94.0276 Q1485.53 94.9188 1481.2 94.9188 Q1470.34 94.9188 1463.98 88.5994 Q1457.66 82.2799 1457.66 71.5045 Q1457.66 60.3645 1463.66 53.8426 Q1469.69 47.2801 1479.9 47.2801 Q1489.06 47.2801 1494.36 53.1944 Q1499.71 59.0683 1499.71 69.1955 M1492.26 67.008 Q1492.18 60.8912 1488.81 57.2454 Q1485.49 53.5995 1479.98 53.5995 Q1473.74 53.5995 1469.98 57.1238 Q1466.25 60.6481 1465.68 67.0485 L1492.26 67.008 Z" fill="#000000" fill-rule="evenodd" fill-opacity="1" /><path clip-path="url(#clip460)" d="M1570.97 50.1158 L1570.97 57.0833 Q1567.81 55.3414 1564.61 54.4907 Q1561.45 53.5995 1558.21 53.5995 Q1550.95 53.5995 1546.94 58.2176 Q1542.93 62.7951 1542.93 71.0994 Q1542.93 79.4038 1546.94 84.0218 Q1550.95 88.5994 1558.21 88.5994 Q1561.45 88.5994 1564.61 87.7487 Q1567.81 86.8575 1570.97 85.1156 L1570.97 92.0021 Q1567.85 93.4604 1564.48 94.1896 Q1561.16 94.9188 1557.4 94.9188 Q1547.15 94.9188 1541.11 88.4778 Q1535.07 82.0369 1535.07 71.0994 Q1535.07 60 1541.15 53.64 Q1547.27 47.2801 1557.88 47.2801 Q1561.32 47.2801 1564.61 48.0093 Q1567.89 48.6979 1570.97 50.1158 Z" fill="#000000" fill-rule="evenodd" fill-opacity="1" /><path clip-path="url(#clip460)" d="M1621.64 66.3599 L1621.64 93.744 L1614.19 93.744 L1614.19 66.6029 Q1614.19 60.162 1611.68 56.9618 Q1609.17 53.7616 1604.14 53.7616 Q1598.11 53.7616 1594.62 57.6099 Q1591.14 61.4583 1591.14 68.1018 L1591.14 93.744 L1583.65 93.744 L1583.65 30.7119 L1591.14 30.7119 L1591.14 55.4224 Q1593.81 51.331 1597.42 49.3056 Q1601.06 47.2801 1605.8 47.2801 Q1613.62 47.2801 1617.63 52.1412 Q1621.64 56.9618 1621.64 66.3599 Z" fill="#000000" fill-rule="evenodd" fill-opacity="1" /><path clip-path="url(#clip460)" d="M1657.13 70.9374 Q1648.1 70.9374 1644.61 73.0034 Q1641.13 75.0693 1641.13 80.0519 Q1641.13 84.0218 1643.72 86.3714 Q1646.35 88.6804 1650.85 88.6804 Q1657.05 88.6804 1660.77 84.3054 Q1664.54 79.8899 1664.54 72.5983 L1664.54 70.9374 L1657.13 70.9374 M1672 67.8587 L1672 93.744 L1664.54 93.744 L1664.54 86.8575 Q1661.99 90.9894 1658.18 92.9743 Q1654.37 94.9188 1648.86 94.9188 Q1641.9 94.9188 1637.77 91.0299 Q1633.67 87.1005 1633.67 80.5381 Q1633.67 72.8818 1638.78 68.993 Q1643.92 65.1041 1654.09 65.1041 L1664.54 65.1041 L1664.54 64.3749 Q1664.54 59.2303 1661.14 56.4352 Q1657.78 53.5995 1651.66 53.5995 Q1647.77 53.5995 1644.08 54.5312 Q1640.4 55.463 1637 57.3264 L1637 50.4398 Q1641.09 48.86 1644.94 48.0903 Q1648.78 47.2801 1652.43 47.2801 Q1662.27 47.2801 1667.13 52.3843 Q1672 57.4884 1672 67.8587 Z" fill="#000000" fill-rule="evenodd" fill-opacity="1" /><path clip-path="url(#clip460)" d="M1725.06 66.3599 L1725.06 93.744 L1717.61 93.744 L1717.61 66.6029 Q1717.61 60.162 1715.1 56.9618 Q1712.59 53.7616 1707.56 53.7616 Q1701.53 53.7616 1698.04 57.6099 Q1694.56 61.4583 1694.56 68.1018 L1694.56 93.744 L1687.06 93.744 L1687.06 48.3739 L1694.56 48.3739 L1694.56 55.4224 Q1697.23 51.331 1700.84 49.3056 Q1704.48 47.2801 1709.22 47.2801 Q1717.04 47.2801 1721.05 52.1412 Q1725.06 56.9618 1725.06 66.3599 Z" fill="#000000" fill-rule="evenodd" fill-opacity="1" /><path clip-path="url(#clip460)" d="M1769.78 70.5323 Q1769.78 62.4305 1766.42 57.9745 Q1763.1 53.5185 1757.06 53.5185 Q1751.07 53.5185 1747.71 57.9745 Q1744.39 62.4305 1744.39 70.5323 Q1744.39 78.5936 1747.71 83.0496 Q1751.07 87.5056 1757.06 87.5056 Q1763.1 87.5056 1766.42 83.0496 Q1769.78 78.5936 1769.78 70.5323 M1777.24 88.1132 Q1777.24 99.6988 1772.09 105.33 Q1766.95 111.001 1756.34 111.001 Q1752.41 111.001 1748.92 110.393 Q1745.44 109.826 1742.16 108.611 L1742.16 101.36 Q1745.44 103.142 1748.64 103.993 Q1751.84 104.843 1755.16 104.843 Q1762.49 104.843 1766.14 100.995 Q1769.78 97.1873 1769.78 89.45 L1769.78 85.7637 Q1767.48 89.7741 1763.87 91.7591 Q1760.26 93.744 1755.24 93.744 Q1746.9 93.744 1741.79 87.3841 Q1736.69 81.0242 1736.69 70.5323 Q1736.69 60 1741.79 53.64 Q1746.9 47.2801 1755.24 47.2801 Q1760.26 47.2801 1763.87 49.2651 Q1767.48 51.25 1769.78 55.2604 L1769.78 48.3739 L1777.24 48.3739 L1777.24 88.1132 Z" fill="#000000" fill-rule="evenodd" fill-opacity="1" /><path clip-path="url(#clip460)" d="M1831.4 69.1955 L1831.4 72.8413 L1797.13 72.8413 Q1797.61 80.5381 1801.75 84.589 Q1805.92 88.5994 1813.33 88.5994 Q1817.63 88.5994 1821.64 87.5461 Q1825.69 86.4929 1829.66 84.3864 L1829.66 91.435 Q1825.65 93.1364 1821.43 94.0276 Q1817.22 94.9188 1812.89 94.9188 Q1802.03 94.9188 1795.67 88.5994 Q1789.35 82.2799 1789.35 71.5045 Q1789.35 60.3645 1795.35 53.8426 Q1801.38 47.2801 1811.59 47.2801 Q1820.74 47.2801 1826.05 53.1944 Q1831.4 59.0683 1831.4 69.1955 M1823.94 67.008 Q1823.86 60.8912 1820.5 57.2454 Q1817.18 53.5995 1811.67 53.5995 Q1805.43 53.5995 1801.66 57.1238 Q1797.94 60.6481 1797.37 67.0485 L1823.94 67.008 Z" fill="#000000" fill-rule="evenodd" fill-opacity="1" /><path clip-path="url(#clip460)" d="M870.605 132.045 L859.506 162.144 L881.745 162.144 L870.605 132.045 M865.987 123.984 L875.264 123.984 L898.313 184.464 L889.806 184.464 L884.297 168.949 L857.035 168.949 L851.525 184.464 L842.897 184.464 L865.987 123.984 Z" fill="#000000" fill-rule="evenodd" fill-opacity="1" /><path clip-path="url(#clip460)" d="M938.012 140.836 L938.012 147.803 Q934.852 146.061 931.652 145.211 Q928.492 144.32 925.252 144.32 Q918.001 144.32 913.99 148.938 Q909.98 153.515 909.98 161.819 Q909.98 170.124 913.99 174.742 Q918.001 179.319 925.252 179.319 Q928.492 179.319 931.652 178.469 Q934.852 177.577 938.012 175.836 L938.012 182.722 Q934.893 184.18 931.531 184.91 Q928.209 185.639 924.442 185.639 Q914.193 185.639 908.157 179.198 Q902.121 172.757 902.121 161.819 Q902.121 150.72 908.197 144.36 Q914.314 138 924.928 138 Q928.371 138 931.652 138.729 Q934.933 139.418 938.012 140.836 Z" fill="#000000" fill-rule="evenodd" fill-opacity="1" /><path clip-path="url(#clip460)" d="M958.348 126.212 L958.348 139.094 L973.701 139.094 L973.701 144.887 L958.348 144.887 L958.348 169.516 Q958.348 175.066 959.846 176.646 Q961.386 178.226 966.044 178.226 L973.701 178.226 L973.701 184.464 L966.044 184.464 Q957.416 184.464 954.135 181.264 Q950.853 178.023 950.853 169.516 L950.853 144.887 L945.385 144.887 L945.385 139.094 L950.853 139.094 L950.853 126.212 L958.348 126.212 Z" fill="#000000" fill-rule="evenodd" fill-opacity="1" /><path clip-path="url(#clip460)" d="M982.734 166.559 L982.734 139.094 L990.188 139.094 L990.188 166.275 Q990.188 172.716 992.699 175.957 Q995.211 179.157 1000.23 179.157 Q1006.27 179.157 1009.75 175.309 Q1013.28 171.461 1013.28 164.817 L1013.28 139.094 L1020.73 139.094 L1020.73 184.464 L1013.28 184.464 L1013.28 177.496 Q1010.56 181.628 1006.96 183.654 Q1003.39 185.639 998.654 185.639 Q990.836 185.639 986.785 180.778 Q982.734 175.917 982.734 166.559 M1001.49 138 L1001.49 138 Z" fill="#000000" fill-rule="evenodd" fill-opacity="1" /><path clip-path="url(#clip460)" d="M1056.7 161.657 Q1047.67 161.657 1044.19 163.723 Q1040.7 165.789 1040.7 170.772 Q1040.7 174.742 1043.3 177.091 Q1045.93 179.4 1050.42 179.4 Q1056.62 179.4 1060.35 175.025 Q1064.12 170.61 1064.12 163.318 L1064.12 161.657 L1056.7 161.657 M1071.57 158.579 L1071.57 184.464 L1064.12 184.464 L1064.12 177.577 Q1061.56 181.709 1057.76 183.694 Q1053.95 185.639 1048.44 185.639 Q1041.47 185.639 1037.34 181.75 Q1033.25 177.821 1033.25 171.258 Q1033.25 163.602 1038.35 159.713 Q1043.5 155.824 1053.67 155.824 L1064.12 155.824 L1064.12 155.095 Q1064.12 149.95 1060.71 147.155 Q1057.35 144.32 1051.23 144.32 Q1047.35 144.32 1043.66 145.251 Q1039.97 146.183 1036.57 148.046 L1036.57 141.16 Q1040.66 139.58 1044.51 138.81 Q1048.36 138 1052 138 Q1061.85 138 1066.71 143.104 Q1071.57 148.208 1071.57 158.579 Z" fill="#000000" fill-rule="evenodd" fill-opacity="1" /><path clip-path="url(#clip460)" d="M1086.92 121.432 L1094.38 121.432 L1094.38 184.464 L1086.92 184.464 L1086.92 121.432 Z" fill="#000000" fill-rule="evenodd" fill-opacity="1" /><path clip-path="url(#clip460)" d="M1156.96 161.657 Q1147.93 161.657 1144.45 163.723 Q1140.96 165.789 1140.96 170.772 Q1140.96 174.742 1143.55 177.091 Q1146.19 179.4 1150.68 179.4 Q1156.88 179.4 1160.61 175.025 Q1164.38 170.61 1164.38 163.318 L1164.38 161.657 L1156.96 161.657 M1171.83 158.579 L1171.83 184.464 L1164.38 184.464 L1164.38 177.577 Q1161.82 181.709 1158.02 183.694 Q1154.21 185.639 1148.7 185.639 Q1141.73 185.639 1137.6 181.75 Q1133.51 177.821 1133.51 171.258 Q1133.51 163.602 1138.61 159.713 Q1143.76 155.824 1153.93 155.824 L1164.38 155.824 L1164.38 155.095 Q1164.38 149.95 1160.97 147.155 Q1157.61 144.32 1151.49 144.32 Q1147.61 144.32 1143.92 145.251 Q1140.23 146.183 1136.83 148.046 L1136.83 141.16 Q1140.92 139.58 1144.77 138.81 Q1148.62 138 1152.26 138 Q1162.11 138 1166.97 143.104 Q1171.83 148.208 1171.83 158.579 Z" fill="#000000" fill-rule="evenodd" fill-opacity="1" /><path clip-path="url(#clip460)" d="M1224.9 157.08 L1224.9 184.464 L1217.44 184.464 L1217.44 157.323 Q1217.44 150.882 1214.93 147.682 Q1212.42 144.482 1207.4 144.482 Q1201.36 144.482 1197.88 148.33 Q1194.39 152.178 1194.39 158.822 L1194.39 184.464 L1186.9 184.464 L1186.9 139.094 L1194.39 139.094 L1194.39 146.142 Q1197.07 142.051 1200.67 140.026 Q1204.32 138 1209.06 138 Q1216.88 138 1220.89 142.861 Q1224.9 147.682 1224.9 157.08 Z" fill="#000000" fill-rule="evenodd" fill-opacity="1" /><path clip-path="url(#clip460)" d="M1269.62 145.98 L1269.62 121.432 L1277.07 121.432 L1277.07 184.464 L1269.62 184.464 L1269.62 177.658 Q1267.27 181.709 1263.66 183.694 Q1260.1 185.639 1255.08 185.639 Q1246.85 185.639 1241.67 179.076 Q1236.52 172.514 1236.52 161.819 Q1236.52 151.125 1241.67 144.563 Q1246.85 138 1255.08 138 Q1260.1 138 1263.66 139.985 Q1267.27 141.93 1269.62 145.98 M1244.22 161.819 Q1244.22 170.043 1247.58 174.742 Q1250.98 179.4 1256.9 179.4 Q1262.81 179.4 1266.22 174.742 Q1269.62 170.043 1269.62 161.819 Q1269.62 153.596 1266.22 148.938 Q1262.81 144.239 1256.9 144.239 Q1250.98 144.239 1247.58 148.938 Q1244.22 153.596 1244.22 161.819 Z" fill="#000000" fill-rule="evenodd" fill-opacity="1" /><path clip-path="url(#clip460)" d="M1327.3 130.709 L1327.3 153.434 L1337.59 153.434 Q1343.31 153.434 1346.42 150.477 Q1349.54 147.52 1349.54 142.051 Q1349.54 136.623 1346.42 133.666 Q1343.31 130.709 1337.59 130.709 L1327.3 130.709 M1319.12 123.984 L1337.59 123.984 Q1347.76 123.984 1352.95 128.602 Q1358.17 133.18 1358.17 142.051 Q1358.17 151.004 1352.95 155.581 Q1347.76 160.159 1337.59 160.159 L1327.3 160.159 L1327.3 184.464 L1319.12 184.464 L1319.12 123.984 Z" fill="#000000" fill-rule="evenodd" fill-opacity="1" /><path clip-path="url(#clip460)" d="M1393.66 146.061 Q1392.4 145.332 1390.9 145.008 Q1389.44 144.644 1387.66 144.644 Q1381.34 144.644 1377.94 148.776 Q1374.58 152.867 1374.58 160.564 L1374.58 184.464 L1367.08 184.464 L1367.08 139.094 L1374.58 139.094 L1374.58 146.142 Q1376.93 142.011 1380.69 140.026 Q1384.46 138 1389.85 138 Q1390.62 138 1391.55 138.122 Q1392.48 138.203 1393.62 138.405 L1393.66 146.061 Z" fill="#000000" fill-rule="evenodd" fill-opacity="1" /><path clip-path="url(#clip460)" d="M1438.46 159.916 L1438.46 163.561 L1404.19 163.561 Q1404.68 171.258 1408.81 175.309 Q1412.98 179.319 1420.39 179.319 Q1424.69 179.319 1428.7 178.266 Q1432.75 177.213 1436.72 175.106 L1436.72 182.155 Q1432.71 183.856 1428.5 184.748 Q1424.28 185.639 1419.95 185.639 Q1409.09 185.639 1402.73 179.319 Q1396.41 173 1396.41 162.225 Q1396.41 151.085 1402.41 144.563 Q1408.44 138 1418.65 138 Q1427.81 138 1433.11 143.914 Q1438.46 149.788 1438.46 159.916 M1431.01 157.728 Q1430.93 151.611 1427.56 147.965 Q1424.24 144.32 1418.73 144.32 Q1412.49 144.32 1408.73 147.844 Q1405 151.368 1404.43 157.769 L1431.01 157.728 Z" fill="#000000" fill-rule="evenodd" fill-opacity="1" /><path clip-path="url(#clip460)" d="M1480.55 145.98 L1480.55 121.432 L1488 121.432 L1488 184.464 L1480.55 184.464 L1480.55 177.658 Q1478.2 181.709 1474.59 183.694 Q1471.03 185.639 1466.01 185.639 Q1457.78 185.639 1452.6 179.076 Q1447.45 172.514 1447.45 161.819 Q1447.45 151.125 1452.6 144.563 Q1457.78 138 1466.01 138 Q1471.03 138 1474.59 139.985 Q1478.2 141.93 1480.55 145.98 M1455.15 161.819 Q1455.15 170.043 1458.51 174.742 Q1461.92 179.4 1467.83 179.4 Q1473.74 179.4 1477.15 174.742 Q1480.55 170.043 1480.55 161.819 Q1480.55 153.596 1477.15 148.938 Q1473.74 144.239 1467.83 144.239 Q1461.92 144.239 1458.51 148.938 Q1455.15 153.596 1455.15 161.819 Z" fill="#000000" fill-rule="evenodd" fill-opacity="1" /><path clip-path="url(#clip460)" d="M1503.36 139.094 L1510.81 139.094 L1510.81 184.464 L1503.36 184.464 L1503.36 139.094 M1503.36 121.432 L1510.81 121.432 L1510.81 130.871 L1503.36 130.871 L1503.36 121.432 Z" fill="#000000" fill-rule="evenodd" fill-opacity="1" /><path clip-path="url(#clip460)" d="M1559.06 140.836 L1559.06 147.803 Q1555.9 146.061 1552.7 145.211 Q1549.54 144.32 1546.3 144.32 Q1539.04 144.32 1535.03 148.938 Q1531.02 153.515 1531.02 161.819 Q1531.02 170.124 1535.03 174.742 Q1539.04 179.319 1546.3 179.319 Q1549.54 179.319 1552.7 178.469 Q1555.9 177.577 1559.06 175.836 L1559.06 182.722 Q1555.94 184.18 1552.57 184.91 Q1549.25 185.639 1545.49 185.639 Q1535.24 185.639 1529.2 179.198 Q1523.17 172.757 1523.17 161.819 Q1523.17 150.72 1529.24 144.36 Q1535.36 138 1545.97 138 Q1549.42 138 1552.7 138.729 Q1555.98 139.418 1559.06 140.836 Z" fill="#000000" fill-rule="evenodd" fill-opacity="1" /><path clip-path="url(#clip460)" d="M1579.39 126.212 L1579.39 139.094 L1594.74 139.094 L1594.74 144.887 L1579.39 144.887 L1579.39 169.516 Q1579.39 175.066 1580.89 176.646 Q1582.43 178.226 1587.09 178.226 L1594.74 178.226 L1594.74 184.464 L1587.09 184.464 Q1578.46 184.464 1575.18 181.264 Q1571.9 178.023 1571.9 169.516 L1571.9 144.887 L1566.43 144.887 L1566.43 139.094 L1571.9 139.094 L1571.9 126.212 L1579.39 126.212 Z" fill="#000000" fill-rule="evenodd" fill-opacity="1" /><path clip-path="url(#clip460)" d="M1643.36 159.916 L1643.36 163.561 L1609.08 163.561 Q1609.57 171.258 1613.7 175.309 Q1617.88 179.319 1625.29 179.319 Q1629.58 179.319 1633.59 178.266 Q1637.64 177.213 1641.61 175.106 L1641.61 182.155 Q1637.6 183.856 1633.39 184.748 Q1629.18 185.639 1624.84 185.639 Q1613.99 185.639 1607.63 179.319 Q1601.31 173 1601.31 162.225 Q1601.31 151.085 1607.3 144.563 Q1613.34 138 1623.55 138 Q1632.7 138 1638.01 143.914 Q1643.36 149.788 1643.36 159.916 M1635.9 157.728 Q1635.82 151.611 1632.46 147.965 Q1629.14 144.32 1623.63 144.32 Q1617.39 144.32 1613.62 147.844 Q1609.9 151.368 1609.33 157.769 L1635.9 157.728 Z" fill="#000000" fill-rule="evenodd" fill-opacity="1" /><path clip-path="url(#clip460)" d="M1685.44 145.98 L1685.44 121.432 L1692.9 121.432 L1692.9 184.464 L1685.44 184.464 L1685.44 177.658 Q1683.09 181.709 1679.49 183.694 Q1675.92 185.639 1670.9 185.639 Q1662.68 185.639 1657.49 179.076 Q1652.35 172.514 1652.35 161.819 Q1652.35 151.125 1657.49 144.563 Q1662.68 138 1670.9 138 Q1675.92 138 1679.49 139.985 Q1683.09 141.93 1685.44 145.98 M1660.05 161.819 Q1660.05 170.043 1663.41 174.742 Q1666.81 179.4 1672.72 179.4 Q1678.64 179.4 1682.04 174.742 Q1685.44 170.043 1685.44 161.819 Q1685.44 153.596 1682.04 148.938 Q1678.64 144.239 1672.72 144.239 Q1666.81 144.239 1663.41 148.938 Q1660.05 153.596 1660.05 161.819 Z" fill="#000000" fill-rule="evenodd" fill-opacity="1" /><polyline clip-path="url(#clip462)" style="stroke:#009af9; stroke-linecap:butt; stroke-linejoin:round; stroke-width:12; stroke-opacity:1; fill:none" points="
  218.191,1178.01 297.899,1094.85 377.606,1053.37 457.314,928.446 537.021,586.645 616.728,413.736 696.436,496.624 776.143,446.351 855.851,220.815 935.558,608.596 
  1015.27,697.37 1094.97,918.752 1174.68,872.772 1254.39,858.992 1334.1,816.128 1413.8,918.544 1493.51,1006.21 1573.22,1048.73 1652.92,1116.87 1732.63,1150.73 
  1812.34,1251.14 1892.05,1377.03 1971.75,1441.08 2051.46,1410.33 2131.17,1397.87 2210.88,1361.17 2290.58,1246.7 
  "/>
<polyline clip-path="url(#clip462)" style="stroke:#e26f46; stroke-linecap:butt; stroke-linejoin:round; stroke-width:4; stroke-opacity:0.5; fill:none" points="
  218.191,1178.01 297.899,1059.57 377.606,992.981 457.314,963.4 537.021,429.204 616.728,419.202 696.436,430.701 776.143,461.514 855.851,501.426 935.558,580.672 
  1015.27,666.162 1094.97,756.043 1174.68,844.964 1254.39,931.037 1334.1,921.895 1413.8,971.015 1493.51,1006.29 1573.22,1044.68 1652.92,1104.06 1732.63,1156.27 
  1812.34,1207.78 1892.05,1253.58 1971.75,1296.24 2051.46,1331.37 2131.17,1365.9 2210.88,1398.6 2290.58,1424.26 
  "/>
<polyline clip-path="url(#clip462)" style="stroke:#3da44d; stroke-linecap:butt; stroke-linejoin:round; stroke-width:4; stroke-opacity:0.5; fill:none" points="
  218.191,1178.01 297.899,1104.99 377.606,1060.6 457.314,1028.69 537.021,445.721 616.728,446.474 696.436,456.183 776.143,481.376 855.851,487.11 935.558,565.104 
  1015.27,653.082 1094.97,752.527 1174.68,842.101 1254.39,923.972 1334.1,906.776 1413.8,977.888 1493.51,995.451 1573.22,1059.29 1652.92,1135.12 1732.63,1197.41 
  1812.34,1252.51 1892.05,1289.57 1971.75,1321.62 2051.46,1336.27 2131.17,1369.98 2210.88,1400.22 2290.58,1409.58 
  "/>
<polyline clip-path="url(#clip462)" style="stroke:#c271d2; stroke-linecap:butt; stroke-linejoin:round; stroke-width:4; stroke-opacity:0.5; fill:none" points="
  218.191,1178.01 297.899,1058.3 377.606,989.758 457.314,953.657 537.021,487.265 616.728,457.914 696.436,451.726 776.143,469.292 855.851,488.658 935.558,558.912 
  1015.27,641.412 1094.97,734.269 1174.68,824.921 1254.39,912.341 1334.1,897.411 1413.8,952.828 1493.51,976.62 1573.22,1022.86 1652.92,1091.34 1732.63,1149.24 
  1812.34,1202.93 1892.05,1245.93 1971.75,1284.34 2051.46,1312.03 2131.17,1346.77 2210.88,1379.73 2290.58,1401.29 
  "/>
<polyline clip-path="url(#clip462)" style="stroke:#ac8d18; stroke-linecap:butt; stroke-linejoin:round; stroke-width:4; stroke-opacity:0.5; fill:none" points="
  218.191,1178.01 297.899,1100.55 377.606,1042.98 457.314,977.366 537.021,424.951 616.728,450.456 696.436,472.25 776.143,503.673 855.851,482.23 935.558,547.512 
  1015.27,618.985 1094.97,705.338 1174.68,767.231 1254.39,809.922 1334.1,864.859 1413.8,958.158 1493.51,982.906 1573.22,1069.23 1652.92,1147.45 1732.63,1217.04 
  1812.34,1275.7 1892.05,1308.59 1971.75,1332.59 2051.46,1326.19 2131.17,1361.3 2210.88,1390.8 2290.58,1386.13 
  "/>
<polyline clip-path="url(#clip462)" style="stroke:#00a9ad; stroke-linecap:butt; stroke-linejoin:round; stroke-width:4; stroke-opacity:0.5; fill:none" points="
  218.191,1178.01 297.899,1087.17 377.606,1048.39 457.314,990.621 537.021,507.862 616.728,510.921 696.436,523.787 776.143,569.265 855.851,493.399 935.558,544.692 
  1015.27,626.049 1094.97,737.501 1174.68,812.423 1254.39,856.111 1334.1,890.066 1413.8,999.735 1493.51,960.683 1573.22,1066.11 1652.92,1164.6 1732.63,1249.94 
  1812.34,1320.14 1892.05,1351.35 1971.75,1360.75 2051.46,1303.31 2131.17,1359.4 2210.88,1409.14 2290.58,1408.3 
  "/>
<polyline clip-path="url(#clip462)" style="stroke:#ed5d92; stroke-linecap:butt; stroke-linejoin:round; stroke-width:4; stroke-opacity:0.5; fill:none" points="
  218.191,1178.01 297.899,1062.96 377.606,999.736 457.314,952.951 537.021,491.489 616.728,482.114 696.436,487.656 776.143,518.36 855.851,512.565 935.558,575.017 
  1015.27,655.99 1094.97,758.179 1174.68,843.786 1254.39,918.004 1334.1,859.239 1413.8,949.684 1493.51,946.094 1573.22,1031.22 1652.92,1131.17 1732.63,1209.28 
  1812.34,1271.29 1892.05,1303.98 1971.75,1324.16 2051.46,1317.63 2131.17,1355.12 2210.88,1389.79 2290.58,1394.75 
  "/>
<polyline clip-path="url(#clip462)" style="stroke:#c68125; stroke-linecap:butt; stroke-linejoin:round; stroke-width:4; stroke-opacity:0.5; fill:none" points="
  218.191,1178.01 297.899,1044.23 377.606,992.219 457.314,957.888 537.021,556.871 616.728,516.092 696.436,508.567 776.143,542.345 855.851,525.497 935.558,579.121 
  1015.27,660.142 1094.97,761.736 1174.68,848.634 1254.39,925.887 1334.1,888.254 1413.8,977.22 1493.51,950.434 1573.22,1036.37 1652.92,1126.09 1732.63,1202.55 
  1812.34,1265.68 1892.05,1302.12 1971.75,1324.95 2051.46,1319.45 2131.17,1367.12 2210.88,1411.5 2290.58,1430.27 
  "/>
<polyline clip-path="url(#clip462)" style="stroke:#00a98d; stroke-linecap:butt; stroke-linejoin:round; stroke-width:4; stroke-opacity:0.5; fill:none" points="
  218.191,1178.01 297.899,1046.82 377.606,990.001 457.314,928.179 537.021,500.815 616.728,493.948 696.436,500.249 776.143,542.429 855.851,482.031 935.558,521.975 
  1015.27,596.102 1094.97,702.536 1174.68,782.146 1254.39,839.942 1334.1,837.508 1413.8,943.812 1493.51,927.703 1573.22,1028.15 1652.92,1123.65 1732.63,1208.11 
  1812.34,1280.75 1892.05,1327.07 1971.75,1353.47 2051.46,1329.14 2131.17,1381.99 2210.88,1430.65 2290.58,1445.97 
  "/>
<polyline clip-path="url(#clip462)" style="stroke:#8e971d; stroke-linecap:butt; stroke-linejoin:round; stroke-width:4; stroke-opacity:0.5; fill:none" points="
  218.191,1178.01 297.899,1068.31 377.606,1012.65 457.314,962.443 537.021,460.33 616.728,438.088 696.436,438.309 776.143,470.907 855.851,446.51 935.558,515.87 
  1015.27,604.99 1094.97,712.404 1174.68,798.273 1254.39,869.926 1334.1,904.903 1413.8,996.436 1493.51,977.891 1573.22,1065.52 1652.92,1152.44 1732.63,1224.29 
  1812.34,1280.23 1892.05,1302.34 1971.75,1315.75 2051.46,1298.52 2131.17,1343.55 2210.88,1382.91 2290.58,1385.66 
  "/>
<polyline clip-path="url(#clip462)" style="stroke:#00a8cb; stroke-linecap:butt; stroke-linejoin:round; stroke-width:4; stroke-opacity:0.5; fill:none" points="
  218.191,1178.01 297.899,1066.58 377.606,1009.26 457.314,915.408 537.021,388.411 616.728,424.797 696.436,468.793 776.143,533.104 855.851,501.258 935.558,578.572 
  1015.27,663.842 1094.97,758.179 1174.68,823.803 1254.39,856.498 1334.1,942.041 1413.8,1026.68 1493.51,1034.13 1573.22,1112.38 1652.92,1183.88 1732.63,1249.03 
  1812.34,1305.17 1892.05,1330.22 1971.75,1343.37 2051.46,1293.85 2131.17,1343.38 2210.88,1386.42 2290.58,1380.01 
  "/>
<polyline clip-path="url(#clip462)" style="stroke:#9b7fe8; stroke-linecap:butt; stroke-linejoin:round; stroke-width:4; stroke-opacity:0.5; fill:none" points="
  218.191,1178.01 297.899,1083.19 377.606,1018.1 457.314,953.716 537.021,529.391 616.728,507.952 696.436,495.764 776.143,503.267 855.851,468.085 935.558,524.602 
  1015.27,593.976 1094.97,678.865 1174.68,747.443 1254.39,805.01 1334.1,885.914 1413.8,968.748 1493.51,994.223 1573.22,1070.25 1652.92,1134.28 1732.63,1196.32 
  1812.34,1249.6 1892.05,1282.06 1971.75,1309.86 2051.46,1316.66 2131.17,1354.61 2210.88,1387.29 2290.58,1394.63 
  "/>
<polyline clip-path="url(#clip462)" style="stroke:#608cf6; stroke-linecap:butt; stroke-linejoin:round; stroke-width:4; stroke-opacity:0.5; fill:none" points="
  218.191,1178.01 297.899,1067.91 377.606,1009.79 457.314,968.283 537.021,511.165 616.728,479.319 696.436,469.652 776.143,491.176 855.851,474.925 935.558,542.228 
  1015.27,633.202 1094.97,747.451 1174.68,843.528 1254.39,927.837 1334.1,893.736 1413.8,982.79 1493.51,965.915 1573.22,1049.97 1652.92,1150.28 1732.63,1226.03 
  1812.34,1283.66 1892.05,1308.89 1971.75,1324.43 2051.46,1314.97 2131.17,1354.27 2210.88,1389.74 2290.58,1392.86 
  "/>
<polyline clip-path="url(#clip462)" style="stroke:#f05f73; stroke-linecap:butt; stroke-linejoin:round; stroke-width:4; stroke-opacity:0.5; fill:none" points="
  218.191,1178.01 297.899,1068.53 377.606,1013.42 457.314,969.782 537.021,539.902 616.728,511.337 696.436,501.868 776.143,524.523 855.851,496.577 935.558,549.293 
  1015.27,628.248 1094.97,733.341 1174.68,820.283 1254.39,895.204 1334.1,872.796 1413.8,968.562 1493.51,958.324 1573.22,1049.23 1652.92,1147.62 1732.63,1227.91 
  1812.34,1292.18 1892.05,1326.49 1971.75,1347.4 2051.46,1339.14 2131.17,1381.9 2210.88,1421.31 2290.58,1430.39 
  "/>
<polyline clip-path="url(#clip462)" style="stroke:#dd64b5; stroke-linecap:butt; stroke-linejoin:round; stroke-width:4; stroke-opacity:0.5; fill:none" points="
  218.191,1178.01 297.899,1075.48 377.606,1019.08 457.314,979.431 537.021,531.751 616.728,474.723 696.436,449.776 776.143,457.157 855.851,444.804 935.558,515.458 
  1015.27,601.836 1094.97,699.417 1174.68,786.834 1254.39,868.291 1334.1,934.413 1413.8,1003.46 1493.51,1010.32 1573.22,1072.75 1652.92,1129.2 1732.63,1181.12 
  1812.34,1224.45 1892.05,1249.3 1971.75,1275.56 2051.46,1289.86 2131.17,1330.31 2210.88,1365.47 2290.58,1379.78 
  "/>
<polyline clip-path="url(#clip462)" style="stroke:#6b9e32; stroke-linecap:butt; stroke-linejoin:round; stroke-width:4; stroke-opacity:0.5; fill:none" points="
  218.191,1178.01 297.899,1076.71 377.606,1014.79 457.314,970.131 537.021,505.686 616.728,485.526 696.436,476.269 776.143,487.948 855.851,476.703 935.558,532.649 
  1015.27,605.325 1094.97,697.197 1174.68,781.737 1254.39,860.088 1334.1,860.575 1413.8,940.139 1493.51,966.198 1573.22,1038.35 1652.92,1121.25 1732.63,1192.76 
  1812.34,1255.4 1892.05,1300.31 1971.75,1336.11 2051.46,1353.26 2131.17,1389.22 2210.88,1423.19 2290.58,1439.3 
  "/>
<polyline clip-path="url(#clip462)" style="stroke:#009af9; stroke-linecap:butt; stroke-linejoin:round; stroke-width:4; stroke-opacity:0.5; fill:none" points="
  218.191,1178.01 297.899,1100.08 377.606,1051.76 457.314,1022.29 537.021,431.03 616.728,441.697 696.436,461.26 776.143,493.106 855.851,519.009 935.558,602.047 
  1015.27,690.034 1094.97,783.746 1174.68,872.275 1254.39,955.476 1334.1,954.847 1413.8,1015.19 1493.51,1047.41 1573.22,1098.77 1652.92,1160.65 1732.63,1215.58 
  1812.34,1268.27 1892.05,1310.21 1971.75,1348.43 2051.46,1374.1 2131.17,1405.62 2210.88,1434.22 2290.58,1449.58 
  "/>
<polyline clip-path="url(#clip462)" style="stroke:#e26f46; stroke-linecap:butt; stroke-linejoin:round; stroke-width:4; stroke-opacity:0.5; fill:none" points="
  218.191,1178.01 297.899,1105.18 377.606,1063.34 457.314,1011.59 537.021,486.341 616.728,493.948 696.436,506.19 776.143,538.7 855.851,499.561 935.558,558.17 
  1015.27,632.673 1094.97,727.38 1174.68,796.317 1254.39,845.504 1334.1,889.858 1413.8,984.287 1493.51,985.184 1573.22,1074.31 1652.92,1159.02 1732.63,1232.05 
  1812.34,1292.08 1892.05,1322.26 1971.75,1341.1 2051.46,1323.24 2131.17,1366.33 2210.88,1404.05 2290.58,1403.99 
  "/>
<polyline clip-path="url(#clip462)" style="stroke:#3da44d; stroke-linecap:butt; stroke-linejoin:round; stroke-width:4; stroke-opacity:0.5; fill:none" points="
  218.191,1178.01 297.899,1089.84 377.606,1038.4 457.314,992.612 537.021,445.27 616.728,461.856 696.436,481.156 776.143,517.935 855.851,505.597 935.558,570.999 
  1015.27,651.746 1094.97,754.725 1174.68,837.014 1254.39,904.146 1334.1,845.565 1413.8,947.771 1493.51,955.788 1573.22,1050.95 1652.92,1155.12 1732.63,1238.23 
  1812.34,1305.4 1892.05,1342.42 1971.75,1365.26 2051.46,1356.52 2131.17,1393.41 2210.88,1427.12 2290.58,1428.16 
  "/>
<polyline clip-path="url(#clip462)" style="stroke:#c271d2; stroke-linecap:butt; stroke-linejoin:round; stroke-width:4; stroke-opacity:0.5; fill:none" points="
  218.191,1178.01 297.899,1131.4 377.606,1109.19 457.314,1080.62 537.021,440.803 616.728,449.826 696.436,466.592 776.143,503.312 855.851,478.506 935.558,552.328 
  1015.27,641.202 1094.97,746.883 1174.68,828.005 1254.39,892.3 1334.1,886.091 1413.8,979.665 1493.51,958.291 1573.22,1049.12 1652.92,1140.43 1732.63,1212.78 
  1812.34,1268.39 1892.05,1287.8 1971.75,1300.08 2051.46,1279.75 2131.17,1324.1 2210.88,1361.92 2290.58,1357.27 
  "/>
<polyline clip-path="url(#clip462)" style="stroke:#ac8d18; stroke-linecap:butt; stroke-linejoin:round; stroke-width:4; stroke-opacity:0.5; fill:none" points="
  218.191,1178.01 297.899,1061.22 377.606,986.84 457.314,923.699 537.021,465.931 616.728,468.631 696.436,481.302 776.143,512.046 855.851,511.22 935.558,576.528 
  1015.27,651.013 1094.97,738.425 1174.68,809.878 1254.39,870.142 1334.1,901.684 1413.8,980.957 1493.51,994.872 1573.22,1068.69 1652.92,1142.4 1732.63,1205.55 
  1812.34,1258.06 1892.05,1287.5 1971.75,1309.57 2051.46,1308.72 2131.17,1342.55 2210.88,1372.01 2290.58,1374.53 
  "/>
</svg>
