<?xml version="1.0" encoding="utf-8"?>
<svg xmlns="http://www.w3.org/2000/svg" xmlns:xlink="http://www.w3.org/1999/xlink" width="600" height="400" viewBox="0 0 2400 1600">
<defs>
  <clipPath id="clip100">
    <rect x="0" y="0" width="2400" height="1600"/>
  </clipPath>
</defs>
<path clip-path="url(#clip100)" d="
M0 1600 L2400 1600 L2400 0 L0 0  Z
  " fill="#ffffff" fill-rule="evenodd" fill-opacity="1"/>
<defs>
  <clipPath id="clip101">
    <rect x="480" y="0" width="1681" height="1600"/>
  </clipPath>
</defs>
<path clip-path="url(#clip100)" d="
M232.389 1486.45 L2352.76 1486.45 L2352.76 123.472 L232.389 123.472  Z
  " fill="#ffffff" fill-rule="evenodd" fill-opacity="1"/>
<defs>
  <clipPath id="clip102">
    <rect x="232" y="123" width="2121" height="1364"/>
  </clipPath>
</defs>
<polyline clip-path="url(#clip102)" style="stroke:#000000; stroke-linecap:butt; stroke-linejoin:round; stroke-width:2; stroke-opacity:0.1; fill:none" points="
  446.272,1486.45 446.272,123.472 
  "/>
<polyline clip-path="url(#clip102)" style="stroke:#000000; stroke-linecap:butt; stroke-linejoin:round; stroke-width:2; stroke-opacity:0.1; fill:none" points="
  830.954,1486.45 830.954,123.472 
  "/>
<polyline clip-path="url(#clip102)" style="stroke:#000000; stroke-linecap:butt; stroke-linejoin:round; stroke-width:2; stroke-opacity:0.1; fill:none" points="
  1215.64,1486.45 1215.64,123.472 
  "/>
<polyline clip-path="url(#clip102)" style="stroke:#000000; stroke-linecap:butt; stroke-linejoin:round; stroke-width:2; stroke-opacity:0.1; fill:none" points="
  1600.32,1486.45 1600.32,123.472 
  "/>
<polyline clip-path="url(#clip102)" style="stroke:#000000; stroke-linecap:butt; stroke-linejoin:round; stroke-width:2; stroke-opacity:0.1; fill:none" points="
  1985,1486.45 1985,123.472 
  "/>
<polyline clip-path="url(#clip100)" style="stroke:#000000; stroke-linecap:butt; stroke-linejoin:round; stroke-width:4; stroke-opacity:1; fill:none" points="
  232.389,1486.45 2352.76,1486.45 
  "/>
<polyline clip-path="url(#clip100)" style="stroke:#000000; stroke-linecap:butt; stroke-linejoin:round; stroke-width:4; stroke-opacity:1; fill:none" points="
  446.272,1486.45 446.272,1467.55 
  "/>
<polyline clip-path="url(#clip100)" style="stroke:#000000; stroke-linecap:butt; stroke-linejoin:round; stroke-width:4; stroke-opacity:1; fill:none" points="
  830.954,1486.45 830.954,1467.55 
  "/>
<polyline clip-path="url(#clip100)" style="stroke:#000000; stroke-linecap:butt; stroke-linejoin:round; stroke-width:4; stroke-opacity:1; fill:none" points="
  1215.64,1486.45 1215.64,1467.55 
  "/>
<polyline clip-path="url(#clip100)" style="stroke:#000000; stroke-linecap:butt; stroke-linejoin:round; stroke-width:4; stroke-opacity:1; fill:none" points="
  1600.32,1486.45 1600.32,1467.55 
  "/>
<polyline clip-path="url(#clip100)" style="stroke:#000000; stroke-linecap:butt; stroke-linejoin:round; stroke-width:4; stroke-opacity:1; fill:none" points="
  1985,1486.45 1985,1467.55 
  "/>
<path clip-path="url(#clip100)" d="M391.296 1544.91 L398.935 1544.91 L398.935 1518.55 L390.625 1520.21 L390.625 1515.95 L398.888 1514.29 L403.564 1514.29 L403.564 1544.91 L411.203 1544.91 L411.203 1548.85 L391.296 1548.85 L391.296 1544.91 Z" fill="#000000" fill-rule="evenodd" fill-opacity="1" /><path clip-path="url(#clip100)" d="M420.787 1548.13 L420.787 1543.87 Q422.546 1544.7 424.351 1545.14 Q426.157 1545.58 427.893 1545.58 Q432.523 1545.58 434.953 1542.48 Q437.407 1539.36 437.754 1533.01 Q436.411 1535.01 434.351 1536.07 Q432.291 1537.13 429.791 1537.13 Q424.606 1537.13 421.574 1534.01 Q418.564 1530.86 418.564 1525.42 Q418.564 1520.1 421.712 1516.88 Q424.861 1513.66 430.092 1513.66 Q436.087 1513.66 439.235 1518.27 Q442.407 1522.85 442.407 1531.6 Q442.407 1539.77 438.518 1544.66 Q434.652 1549.52 428.101 1549.52 Q426.342 1549.52 424.536 1549.17 Q422.731 1548.82 420.787 1548.13 M430.092 1533.48 Q433.24 1533.48 435.069 1531.32 Q436.921 1529.17 436.921 1525.42 Q436.921 1521.7 435.069 1519.54 Q433.24 1517.37 430.092 1517.37 Q426.944 1517.37 425.092 1519.54 Q423.263 1521.7 423.263 1525.42 Q423.263 1529.17 425.092 1531.32 Q426.944 1533.48 430.092 1533.48 Z" fill="#000000" fill-rule="evenodd" fill-opacity="1" /><path clip-path="url(#clip100)" d="M450.948 1548.13 L450.948 1543.87 Q452.708 1544.7 454.513 1545.14 Q456.319 1545.58 458.055 1545.58 Q462.684 1545.58 465.115 1542.48 Q467.569 1539.36 467.916 1533.01 Q466.573 1535.01 464.513 1536.07 Q462.453 1537.13 459.953 1537.13 Q454.768 1537.13 451.735 1534.01 Q448.726 1530.86 448.726 1525.42 Q448.726 1520.1 451.874 1516.88 Q455.022 1513.66 460.254 1513.66 Q466.249 1513.66 469.397 1518.27 Q472.569 1522.85 472.569 1531.6 Q472.569 1539.77 468.68 1544.66 Q464.814 1549.52 458.263 1549.52 Q456.504 1549.52 454.698 1549.17 Q452.893 1548.82 450.948 1548.13 M460.254 1533.48 Q463.402 1533.48 465.231 1531.32 Q467.083 1529.17 467.083 1525.42 Q467.083 1521.7 465.231 1519.54 Q463.402 1517.37 460.254 1517.37 Q457.106 1517.37 455.254 1519.54 Q453.425 1521.7 453.425 1525.42 Q453.425 1529.17 455.254 1531.32 Q457.106 1533.48 460.254 1533.48 Z" fill="#000000" fill-rule="evenodd" fill-opacity="1" /><path clip-path="url(#clip100)" d="M481.018 1514.29 L499.374 1514.29 L499.374 1518.22 L485.3 1518.22 L485.3 1526.7 Q486.319 1526.35 487.337 1526.19 Q488.356 1526 489.374 1526 Q495.161 1526 498.541 1529.17 Q501.92 1532.34 501.92 1537.76 Q501.92 1543.34 498.448 1546.44 Q494.976 1549.52 488.657 1549.52 Q486.481 1549.52 484.212 1549.15 Q481.967 1548.78 479.559 1548.04 L479.559 1543.34 Q481.643 1544.47 483.865 1545.03 Q486.087 1545.58 488.564 1545.58 Q492.569 1545.58 494.906 1543.48 Q497.244 1541.37 497.244 1537.76 Q497.244 1534.15 494.906 1532.04 Q492.569 1529.94 488.564 1529.94 Q486.689 1529.94 484.814 1530.35 Q482.962 1530.77 481.018 1531.65 L481.018 1514.29 Z" fill="#000000" fill-rule="evenodd" fill-opacity="1" /><path clip-path="url(#clip100)" d="M779.566 1544.91 L795.885 1544.91 L795.885 1548.85 L773.941 1548.85 L773.941 1544.91 Q776.603 1542.16 781.186 1537.53 Q785.793 1532.88 786.973 1531.53 Q789.218 1529.01 790.098 1527.27 Q791.001 1525.51 791.001 1523.82 Q791.001 1521.07 789.056 1519.33 Q787.135 1517.6 784.033 1517.6 Q781.834 1517.6 779.381 1518.36 Q776.95 1519.13 774.172 1520.68 L774.172 1515.95 Q776.996 1514.82 779.45 1514.24 Q781.904 1513.66 783.941 1513.66 Q789.311 1513.66 792.505 1516.35 Q795.7 1519.03 795.7 1523.52 Q795.7 1525.65 794.89 1527.57 Q794.103 1529.47 791.996 1532.07 Q791.418 1532.74 788.316 1535.95 Q785.214 1539.15 779.566 1544.91 Z" fill="#000000" fill-rule="evenodd" fill-opacity="1" /><path clip-path="url(#clip100)" d="M815.7 1517.37 Q812.089 1517.37 810.26 1520.93 Q808.454 1524.47 808.454 1531.6 Q808.454 1538.71 810.26 1542.27 Q812.089 1545.82 815.7 1545.82 Q819.334 1545.82 821.14 1542.27 Q822.968 1538.71 822.968 1531.6 Q822.968 1524.47 821.14 1520.93 Q819.334 1517.37 815.7 1517.37 M815.7 1513.66 Q821.51 1513.66 824.566 1518.27 Q827.644 1522.85 827.644 1531.6 Q827.644 1540.33 824.566 1544.94 Q821.51 1549.52 815.7 1549.52 Q809.89 1549.52 806.811 1544.94 Q803.755 1540.33 803.755 1531.6 Q803.755 1522.85 806.811 1518.27 Q809.89 1513.66 815.7 1513.66 Z" fill="#000000" fill-rule="evenodd" fill-opacity="1" /><path clip-path="url(#clip100)" d="M845.862 1517.37 Q842.251 1517.37 840.422 1520.93 Q838.616 1524.47 838.616 1531.6 Q838.616 1538.71 840.422 1542.27 Q842.251 1545.82 845.862 1545.82 Q849.496 1545.82 851.301 1542.27 Q853.13 1538.71 853.13 1531.6 Q853.13 1524.47 851.301 1520.93 Q849.496 1517.37 845.862 1517.37 M845.862 1513.66 Q851.672 1513.66 854.727 1518.27 Q857.806 1522.85 857.806 1531.6 Q857.806 1540.33 854.727 1544.94 Q851.672 1549.52 845.862 1549.52 Q840.052 1549.52 836.973 1544.94 Q833.917 1540.33 833.917 1531.6 Q833.917 1522.85 836.973 1518.27 Q840.052 1513.66 845.862 1513.66 Z" fill="#000000" fill-rule="evenodd" fill-opacity="1" /><path clip-path="url(#clip100)" d="M876.024 1517.37 Q872.412 1517.37 870.584 1520.93 Q868.778 1524.47 868.778 1531.6 Q868.778 1538.71 870.584 1542.27 Q872.412 1545.82 876.024 1545.82 Q879.658 1545.82 881.463 1542.27 Q883.292 1538.71 883.292 1531.6 Q883.292 1524.47 881.463 1520.93 Q879.658 1517.37 876.024 1517.37 M876.024 1513.66 Q881.834 1513.66 884.889 1518.27 Q887.968 1522.85 887.968 1531.6 Q887.968 1540.33 884.889 1544.94 Q881.834 1549.52 876.024 1549.52 Q870.213 1549.52 867.135 1544.94 Q864.079 1540.33 864.079 1531.6 Q864.079 1522.85 867.135 1518.27 Q870.213 1513.66 876.024 1513.66 Z" fill="#000000" fill-rule="evenodd" fill-opacity="1" /><path clip-path="url(#clip100)" d="M1164.75 1544.91 L1181.06 1544.91 L1181.06 1548.85 L1159.12 1548.85 L1159.12 1544.91 Q1161.78 1542.16 1166.37 1537.53 Q1170.97 1532.88 1172.15 1531.53 Q1174.4 1529.01 1175.28 1527.27 Q1176.18 1525.51 1176.18 1523.82 Q1176.18 1521.07 1174.24 1519.33 Q1172.31 1517.6 1169.21 1517.6 Q1167.01 1517.6 1164.56 1518.36 Q1162.13 1519.13 1159.35 1520.68 L1159.35 1515.95 Q1162.18 1514.82 1164.63 1514.24 Q1167.08 1513.66 1169.12 1513.66 Q1174.49 1513.66 1177.69 1516.35 Q1180.88 1519.03 1180.88 1523.52 Q1180.88 1525.65 1180.07 1527.57 Q1179.28 1529.47 1177.18 1532.07 Q1176.6 1532.74 1173.5 1535.95 Q1170.39 1539.15 1164.75 1544.91 Z" fill="#000000" fill-rule="evenodd" fill-opacity="1" /><path clip-path="url(#clip100)" d="M1200.88 1517.37 Q1197.27 1517.37 1195.44 1520.93 Q1193.63 1524.47 1193.63 1531.6 Q1193.63 1538.71 1195.44 1542.27 Q1197.27 1545.82 1200.88 1545.82 Q1204.51 1545.82 1206.32 1542.27 Q1208.15 1538.71 1208.15 1531.6 Q1208.15 1524.47 1206.32 1520.93 Q1204.51 1517.37 1200.88 1517.37 M1200.88 1513.66 Q1206.69 1513.66 1209.75 1518.27 Q1212.82 1522.85 1212.82 1531.6 Q1212.82 1540.33 1209.75 1544.94 Q1206.69 1549.52 1200.88 1549.52 Q1195.07 1549.52 1191.99 1544.94 Q1188.94 1540.33 1188.94 1531.6 Q1188.94 1522.85 1191.99 1518.27 Q1195.07 1513.66 1200.88 1513.66 Z" fill="#000000" fill-rule="evenodd" fill-opacity="1" /><path clip-path="url(#clip100)" d="M1231.04 1517.37 Q1227.43 1517.37 1225.6 1520.93 Q1223.8 1524.47 1223.8 1531.6 Q1223.8 1538.71 1225.6 1542.27 Q1227.43 1545.82 1231.04 1545.82 Q1234.68 1545.82 1236.48 1542.27 Q1238.31 1538.71 1238.31 1531.6 Q1238.31 1524.47 1236.48 1520.93 Q1234.68 1517.37 1231.04 1517.37 M1231.04 1513.66 Q1236.85 1513.66 1239.91 1518.27 Q1242.99 1522.85 1242.99 1531.6 Q1242.99 1540.33 1239.91 1544.94 Q1236.85 1549.52 1231.04 1549.52 Q1225.23 1549.52 1222.15 1544.94 Q1219.1 1540.33 1219.1 1531.6 Q1219.1 1522.85 1222.15 1518.27 Q1225.23 1513.66 1231.04 1513.66 Z" fill="#000000" fill-rule="evenodd" fill-opacity="1" /><path clip-path="url(#clip100)" d="M1251.25 1514.29 L1269.61 1514.29 L1269.61 1518.22 L1255.53 1518.22 L1255.53 1526.7 Q1256.55 1526.35 1257.57 1526.19 Q1258.59 1526 1259.61 1526 Q1265.39 1526 1268.77 1529.17 Q1272.15 1532.34 1272.15 1537.76 Q1272.15 1543.34 1268.68 1546.44 Q1265.21 1549.52 1258.89 1549.52 Q1256.71 1549.52 1254.44 1549.15 Q1252.2 1548.78 1249.79 1548.04 L1249.79 1543.34 Q1251.87 1544.47 1254.1 1545.03 Q1256.32 1545.58 1258.8 1545.58 Q1262.8 1545.58 1265.14 1543.48 Q1267.48 1541.37 1267.48 1537.76 Q1267.48 1534.15 1265.14 1532.04 Q1262.8 1529.94 1258.8 1529.94 Q1256.92 1529.94 1255.05 1530.35 Q1253.19 1530.77 1251.25 1531.65 L1251.25 1514.29 Z" fill="#000000" fill-rule="evenodd" fill-opacity="1" /><path clip-path="url(#clip100)" d="M1548.93 1544.91 L1565.25 1544.91 L1565.25 1548.85 L1543.3 1548.85 L1543.3 1544.91 Q1545.97 1542.16 1550.55 1537.53 Q1555.16 1532.88 1556.34 1531.53 Q1558.58 1529.01 1559.46 1527.27 Q1560.36 1525.51 1560.36 1523.82 Q1560.36 1521.07 1558.42 1519.33 Q1556.5 1517.6 1553.4 1517.6 Q1551.2 1517.6 1548.74 1518.36 Q1546.31 1519.13 1543.54 1520.68 L1543.54 1515.95 Q1546.36 1514.82 1548.81 1514.24 Q1551.27 1513.66 1553.3 1513.66 Q1558.67 1513.66 1561.87 1516.35 Q1565.06 1519.03 1565.06 1523.52 Q1565.06 1525.65 1564.25 1527.57 Q1563.47 1529.47 1561.36 1532.07 Q1560.78 1532.74 1557.68 1535.95 Q1554.58 1539.15 1548.93 1544.91 Z" fill="#000000" fill-rule="evenodd" fill-opacity="1" /><path clip-path="url(#clip100)" d="M1585.06 1517.37 Q1581.45 1517.37 1579.62 1520.93 Q1577.82 1524.47 1577.82 1531.6 Q1577.82 1538.71 1579.62 1542.27 Q1581.45 1545.82 1585.06 1545.82 Q1588.7 1545.82 1590.5 1542.27 Q1592.33 1538.71 1592.33 1531.6 Q1592.33 1524.47 1590.5 1520.93 Q1588.7 1517.37 1585.06 1517.37 M1585.06 1513.66 Q1590.87 1513.66 1593.93 1518.27 Q1597.01 1522.85 1597.01 1531.6 Q1597.01 1540.33 1593.93 1544.94 Q1590.87 1549.52 1585.06 1549.52 Q1579.25 1549.52 1576.17 1544.94 Q1573.12 1540.33 1573.12 1531.6 Q1573.12 1522.85 1576.17 1518.27 Q1579.25 1513.66 1585.06 1513.66 Z" fill="#000000" fill-rule="evenodd" fill-opacity="1" /><path clip-path="url(#clip100)" d="M1606.04 1544.91 L1613.67 1544.91 L1613.67 1518.55 L1605.36 1520.21 L1605.36 1515.95 L1613.63 1514.29 L1618.3 1514.29 L1618.3 1544.91 L1625.94 1544.91 L1625.94 1548.85 L1606.04 1548.85 L1606.04 1544.91 Z" fill="#000000" fill-rule="evenodd" fill-opacity="1" /><path clip-path="url(#clip100)" d="M1645.39 1517.37 Q1641.78 1517.37 1639.95 1520.93 Q1638.14 1524.47 1638.14 1531.6 Q1638.14 1538.71 1639.95 1542.27 Q1641.78 1545.82 1645.39 1545.82 Q1649.02 1545.82 1650.83 1542.27 Q1652.66 1538.71 1652.66 1531.6 Q1652.66 1524.47 1650.83 1520.93 Q1649.02 1517.37 1645.39 1517.37 M1645.39 1513.66 Q1651.2 1513.66 1654.25 1518.27 Q1657.33 1522.85 1657.33 1531.6 Q1657.33 1540.33 1654.25 1544.94 Q1651.2 1549.52 1645.39 1549.52 Q1639.58 1549.52 1636.5 1544.94 Q1633.44 1540.33 1633.44 1531.6 Q1633.44 1522.85 1636.5 1518.27 Q1639.58 1513.66 1645.39 1513.66 Z" fill="#000000" fill-rule="evenodd" fill-opacity="1" /><path clip-path="url(#clip100)" d="M1934.11 1544.91 L1950.43 1544.91 L1950.43 1548.85 L1928.48 1548.85 L1928.48 1544.91 Q1931.15 1542.16 1935.73 1537.53 Q1940.34 1532.88 1941.52 1531.53 Q1943.76 1529.01 1944.64 1527.27 Q1945.54 1525.51 1945.54 1523.82 Q1945.54 1521.07 1943.6 1519.33 Q1941.68 1517.6 1938.58 1517.6 Q1936.38 1517.6 1933.92 1518.36 Q1931.49 1519.13 1928.72 1520.68 L1928.72 1515.95 Q1931.54 1514.82 1933.99 1514.24 Q1936.45 1513.66 1938.48 1513.66 Q1943.85 1513.66 1947.05 1516.35 Q1950.24 1519.03 1950.24 1523.52 Q1950.24 1525.65 1949.43 1527.57 Q1948.65 1529.47 1946.54 1532.07 Q1945.96 1532.74 1942.86 1535.95 Q1939.76 1539.15 1934.11 1544.91 Z" fill="#000000" fill-rule="evenodd" fill-opacity="1" /><path clip-path="url(#clip100)" d="M1970.24 1517.37 Q1966.63 1517.37 1964.8 1520.93 Q1963 1524.47 1963 1531.6 Q1963 1538.71 1964.8 1542.27 Q1966.63 1545.82 1970.24 1545.82 Q1973.88 1545.82 1975.68 1542.27 Q1977.51 1538.71 1977.51 1531.6 Q1977.51 1524.47 1975.68 1520.93 Q1973.88 1517.37 1970.24 1517.37 M1970.24 1513.66 Q1976.05 1513.66 1979.11 1518.27 Q1982.19 1522.85 1982.19 1531.6 Q1982.19 1540.33 1979.11 1544.94 Q1976.05 1549.52 1970.24 1549.52 Q1964.43 1549.52 1961.35 1544.94 Q1958.3 1540.33 1958.3 1531.6 Q1958.3 1522.85 1961.35 1518.27 Q1964.43 1513.66 1970.24 1513.66 Z" fill="#000000" fill-rule="evenodd" fill-opacity="1" /><path clip-path="url(#clip100)" d="M1991.22 1544.91 L1998.85 1544.91 L1998.85 1518.55 L1990.54 1520.21 L1990.54 1515.95 L1998.81 1514.29 L2003.48 1514.29 L2003.48 1544.91 L2011.12 1544.91 L2011.12 1548.85 L1991.22 1548.85 L1991.22 1544.91 Z" fill="#000000" fill-rule="evenodd" fill-opacity="1" /><path clip-path="url(#clip100)" d="M2020.61 1514.29 L2038.97 1514.29 L2038.97 1518.22 L2024.9 1518.22 L2024.9 1526.7 Q2025.91 1526.35 2026.93 1526.19 Q2027.95 1526 2028.97 1526 Q2034.76 1526 2038.14 1529.17 Q2041.52 1532.34 2041.52 1537.76 Q2041.52 1543.34 2038.04 1546.44 Q2034.57 1549.52 2028.25 1549.52 Q2026.08 1549.52 2023.81 1549.15 Q2021.56 1548.78 2019.15 1548.04 L2019.15 1543.34 Q2021.24 1544.47 2023.46 1545.03 Q2025.68 1545.58 2028.16 1545.58 Q2032.16 1545.58 2034.5 1543.48 Q2036.84 1541.37 2036.84 1537.76 Q2036.84 1534.15 2034.5 1532.04 Q2032.16 1529.94 2028.16 1529.94 Q2026.28 1529.94 2024.41 1530.35 Q2022.56 1530.77 2020.61 1531.65 L2020.61 1514.29 Z" fill="#000000" fill-rule="evenodd" fill-opacity="1" /><polyline clip-path="url(#clip102)" style="stroke:#000000; stroke-linecap:butt; stroke-linejoin:round; stroke-width:2; stroke-opacity:0.1; fill:none" points="
  232.389,1447.87 2352.76,1447.87 
  "/>
<polyline clip-path="url(#clip102)" style="stroke:#000000; stroke-linecap:butt; stroke-linejoin:round; stroke-width:2; stroke-opacity:0.1; fill:none" points="
  232.389,1253.79 2352.76,1253.79 
  "/>
<polyline clip-path="url(#clip102)" style="stroke:#000000; stroke-linecap:butt; stroke-linejoin:round; stroke-width:2; stroke-opacity:0.1; fill:none" points="
  232.389,1059.7 2352.76,1059.7 
  "/>
<polyline clip-path="url(#clip102)" style="stroke:#000000; stroke-linecap:butt; stroke-linejoin:round; stroke-width:2; stroke-opacity:0.1; fill:none" points="
  232.389,865.612 2352.76,865.612 
  "/>
<polyline clip-path="url(#clip102)" style="stroke:#000000; stroke-linecap:butt; stroke-linejoin:round; stroke-width:2; stroke-opacity:0.1; fill:none" points="
  232.389,671.525 2352.76,671.525 
  "/>
<polyline clip-path="url(#clip102)" style="stroke:#000000; stroke-linecap:butt; stroke-linejoin:round; stroke-width:2; stroke-opacity:0.1; fill:none" points="
  232.389,477.438 2352.76,477.438 
  "/>
<polyline clip-path="url(#clip102)" style="stroke:#000000; stroke-linecap:butt; stroke-linejoin:round; stroke-width:2; stroke-opacity:0.1; fill:none" points="
  232.389,283.351 2352.76,283.351 
  "/>
<polyline clip-path="url(#clip100)" style="stroke:#000000; stroke-linecap:butt; stroke-linejoin:round; stroke-width:4; stroke-opacity:1; fill:none" points="
  232.389,1486.45 232.389,123.472 
  "/>
<polyline clip-path="url(#clip100)" style="stroke:#000000; stroke-linecap:butt; stroke-linejoin:round; stroke-width:4; stroke-opacity:1; fill:none" points="
  232.389,1447.87 251.287,1447.87 
  "/>
<polyline clip-path="url(#clip100)" style="stroke:#000000; stroke-linecap:butt; stroke-linejoin:round; stroke-width:4; stroke-opacity:1; fill:none" points="
  232.389,1253.79 251.287,1253.79 
  "/>
<polyline clip-path="url(#clip100)" style="stroke:#000000; stroke-linecap:butt; stroke-linejoin:round; stroke-width:4; stroke-opacity:1; fill:none" points="
  232.389,1059.7 251.287,1059.7 
  "/>
<polyline clip-path="url(#clip100)" style="stroke:#000000; stroke-linecap:butt; stroke-linejoin:round; stroke-width:4; stroke-opacity:1; fill:none" points="
  232.389,865.612 251.287,865.612 
  "/>
<polyline clip-path="url(#clip100)" style="stroke:#000000; stroke-linecap:butt; stroke-linejoin:round; stroke-width:4; stroke-opacity:1; fill:none" points="
  232.389,671.525 251.287,671.525 
  "/>
<polyline clip-path="url(#clip100)" style="stroke:#000000; stroke-linecap:butt; stroke-linejoin:round; stroke-width:4; stroke-opacity:1; fill:none" points="
  232.389,477.438 251.287,477.438 
  "/>
<polyline clip-path="url(#clip100)" style="stroke:#000000; stroke-linecap:butt; stroke-linejoin:round; stroke-width:4; stroke-opacity:1; fill:none" points="
  232.389,283.351 251.287,283.351 
  "/>
<path clip-path="url(#clip100)" d="M184.445 1433.67 Q180.834 1433.67 179.005 1437.24 Q177.2 1440.78 177.2 1447.91 Q177.2 1455.01 179.005 1458.58 Q180.834 1462.12 184.445 1462.12 Q188.079 1462.12 189.885 1458.58 Q191.713 1455.01 191.713 1447.91 Q191.713 1440.78 189.885 1437.24 Q188.079 1433.67 184.445 1433.67 M184.445 1429.97 Q190.255 1429.97 193.311 1434.57 Q196.389 1439.16 196.389 1447.91 Q196.389 1456.63 193.311 1461.24 Q190.255 1465.82 184.445 1465.82 Q178.635 1465.82 175.556 1461.24 Q172.501 1456.63 172.501 1447.91 Q172.501 1439.16 175.556 1434.57 Q178.635 1429.97 184.445 1429.97 Z" fill="#000000" fill-rule="evenodd" fill-opacity="1" /><path clip-path="url(#clip100)" d="M148.311 1267.13 L164.63 1267.13 L164.63 1271.07 L142.686 1271.07 L142.686 1267.13 Q145.348 1264.38 149.931 1259.75 Q154.538 1255.09 155.718 1253.75 Q157.964 1251.23 158.843 1249.49 Q159.746 1247.73 159.746 1246.04 Q159.746 1243.29 157.802 1241.55 Q155.88 1239.82 152.778 1239.82 Q150.579 1239.82 148.126 1240.58 Q145.695 1241.34 142.917 1242.89 L142.917 1238.17 Q145.741 1237.04 148.195 1236.46 Q150.649 1235.88 152.686 1235.88 Q158.056 1235.88 161.251 1238.57 Q164.445 1241.25 164.445 1245.74 Q164.445 1247.87 163.635 1249.79 Q162.848 1251.69 160.741 1254.28 Q160.163 1254.96 157.061 1258.17 Q153.959 1261.37 148.311 1267.13 Z" fill="#000000" fill-rule="evenodd" fill-opacity="1" /><path clip-path="url(#clip100)" d="M184.445 1239.58 Q180.834 1239.58 179.005 1243.15 Q177.2 1246.69 177.2 1253.82 Q177.2 1260.93 179.005 1264.49 Q180.834 1268.03 184.445 1268.03 Q188.079 1268.03 189.885 1264.49 Q191.713 1260.93 191.713 1253.82 Q191.713 1246.69 189.885 1243.15 Q188.079 1239.58 184.445 1239.58 M184.445 1235.88 Q190.255 1235.88 193.311 1240.49 Q196.389 1245.07 196.389 1253.82 Q196.389 1262.55 193.311 1267.15 Q190.255 1271.74 184.445 1271.74 Q178.635 1271.74 175.556 1267.15 Q172.501 1262.55 172.501 1253.82 Q172.501 1245.07 175.556 1240.49 Q178.635 1235.88 184.445 1235.88 Z" fill="#000000" fill-rule="evenodd" fill-opacity="1" /><path clip-path="url(#clip100)" d="M157.13 1046.49 L145.325 1064.94 L157.13 1064.94 L157.13 1046.49 M155.903 1042.42 L161.783 1042.42 L161.783 1064.94 L166.714 1064.94 L166.714 1068.83 L161.783 1068.83 L161.783 1076.98 L157.13 1076.98 L157.13 1068.83 L141.529 1068.83 L141.529 1064.32 L155.903 1042.42 Z" fill="#000000" fill-rule="evenodd" fill-opacity="1" /><path clip-path="url(#clip100)" d="M184.445 1045.5 Q180.834 1045.5 179.005 1049.06 Q177.2 1052.6 177.2 1059.73 Q177.2 1066.84 179.005 1070.41 Q180.834 1073.95 184.445 1073.95 Q188.079 1073.95 189.885 1070.41 Q191.713 1066.84 191.713 1059.73 Q191.713 1052.6 189.885 1049.06 Q188.079 1045.5 184.445 1045.5 M184.445 1041.79 Q190.255 1041.79 193.311 1046.4 Q196.389 1050.98 196.389 1059.73 Q196.389 1068.46 193.311 1073.07 Q190.255 1077.65 184.445 1077.65 Q178.635 1077.65 175.556 1073.07 Q172.501 1068.46 172.501 1059.73 Q172.501 1050.98 175.556 1046.4 Q178.635 1041.79 184.445 1041.79 Z" fill="#000000" fill-rule="evenodd" fill-opacity="1" /><path clip-path="url(#clip100)" d="M154.862 863.749 Q151.714 863.749 149.862 865.902 Q148.033 868.054 148.033 871.804 Q148.033 875.531 149.862 877.707 Q151.714 879.86 154.862 879.86 Q158.01 879.86 159.839 877.707 Q161.69 875.531 161.69 871.804 Q161.69 868.054 159.839 865.902 Q158.01 863.749 154.862 863.749 M164.144 849.096 L164.144 853.355 Q162.385 852.522 160.579 852.082 Q158.797 851.642 157.038 851.642 Q152.408 851.642 149.954 854.767 Q147.524 857.892 147.177 864.212 Q148.542 862.198 150.603 861.133 Q152.663 860.045 155.14 860.045 Q160.348 860.045 163.357 863.216 Q166.39 866.364 166.39 871.804 Q166.39 877.128 163.241 880.346 Q160.093 883.563 154.862 883.563 Q148.866 883.563 145.695 878.98 Q142.524 874.374 142.524 865.647 Q142.524 857.452 146.413 852.591 Q150.302 847.707 156.853 847.707 Q158.612 847.707 160.394 848.054 Q162.2 848.402 164.144 849.096 Z" fill="#000000" fill-rule="evenodd" fill-opacity="1" /><path clip-path="url(#clip100)" d="M184.445 851.411 Q180.834 851.411 179.005 854.976 Q177.2 858.517 177.2 865.647 Q177.2 872.753 179.005 876.318 Q180.834 879.86 184.445 879.86 Q188.079 879.86 189.885 876.318 Q191.713 872.753 191.713 865.647 Q191.713 858.517 189.885 854.976 Q188.079 851.411 184.445 851.411 M184.445 847.707 Q190.255 847.707 193.311 852.314 Q196.389 856.897 196.389 865.647 Q196.389 874.374 193.311 878.98 Q190.255 883.563 184.445 883.563 Q178.635 883.563 175.556 878.98 Q172.501 874.374 172.501 865.647 Q172.501 856.897 175.556 852.314 Q178.635 847.707 184.445 847.707 Z" fill="#000000" fill-rule="evenodd" fill-opacity="1" /><path clip-path="url(#clip100)" d="M154.283 672.393 Q150.95 672.393 149.028 674.176 Q147.13 675.958 147.13 679.083 Q147.13 682.208 149.028 683.99 Q150.95 685.773 154.283 685.773 Q157.616 685.773 159.538 683.99 Q161.459 682.185 161.459 679.083 Q161.459 675.958 159.538 674.176 Q157.64 672.393 154.283 672.393 M149.607 670.403 Q146.598 669.662 144.908 667.602 Q143.241 665.541 143.241 662.578 Q143.241 658.435 146.181 656.028 Q149.144 653.62 154.283 653.62 Q159.445 653.62 162.385 656.028 Q165.325 658.435 165.325 662.578 Q165.325 665.541 163.635 667.602 Q161.968 669.662 158.982 670.403 Q162.362 671.19 164.237 673.481 Q166.135 675.773 166.135 679.083 Q166.135 684.106 163.056 686.791 Q160.001 689.477 154.283 689.477 Q148.566 689.477 145.487 686.791 Q142.431 684.106 142.431 679.083 Q142.431 675.773 144.329 673.481 Q146.228 671.19 149.607 670.403 M147.894 663.018 Q147.894 665.703 149.561 667.208 Q151.251 668.713 154.283 668.713 Q157.292 668.713 158.982 667.208 Q160.695 665.703 160.695 663.018 Q160.695 660.333 158.982 658.829 Q157.292 657.324 154.283 657.324 Q151.251 657.324 149.561 658.829 Q147.894 660.333 147.894 663.018 Z" fill="#000000" fill-rule="evenodd" fill-opacity="1" /><path clip-path="url(#clip100)" d="M184.445 657.324 Q180.834 657.324 179.005 660.889 Q177.2 664.43 177.2 671.56 Q177.2 678.666 179.005 682.231 Q180.834 685.773 184.445 685.773 Q188.079 685.773 189.885 682.231 Q191.713 678.666 191.713 671.56 Q191.713 664.43 189.885 660.889 Q188.079 657.324 184.445 657.324 M184.445 653.62 Q190.255 653.62 193.311 658.227 Q196.389 662.81 196.389 671.56 Q196.389 680.287 193.311 684.893 Q190.255 689.477 184.445 689.477 Q178.635 689.477 175.556 684.893 Q172.501 680.287 172.501 671.56 Q172.501 662.81 175.556 658.227 Q178.635 653.62 184.445 653.62 Z" fill="#000000" fill-rule="evenodd" fill-opacity="1" /><path clip-path="url(#clip100)" d="M114.931 490.783 L122.57 490.783 L122.57 464.417 L114.26 466.084 L114.26 461.825 L122.524 460.158 L127.2 460.158 L127.2 490.783 L134.839 490.783 L134.839 494.718 L114.931 494.718 L114.931 490.783 Z" fill="#000000" fill-rule="evenodd" fill-opacity="1" /><path clip-path="url(#clip100)" d="M154.283 463.237 Q150.672 463.237 148.843 466.802 Q147.038 470.343 147.038 477.473 Q147.038 484.579 148.843 488.144 Q150.672 491.686 154.283 491.686 Q157.917 491.686 159.723 488.144 Q161.552 484.579 161.552 477.473 Q161.552 470.343 159.723 466.802 Q157.917 463.237 154.283 463.237 M154.283 459.533 Q160.093 459.533 163.149 464.14 Q166.227 468.723 166.227 477.473 Q166.227 486.2 163.149 490.806 Q160.093 495.39 154.283 495.39 Q148.473 495.39 145.394 490.806 Q142.339 486.2 142.339 477.473 Q142.339 468.723 145.394 464.14 Q148.473 459.533 154.283 459.533 Z" fill="#000000" fill-rule="evenodd" fill-opacity="1" /><path clip-path="url(#clip100)" d="M184.445 463.237 Q180.834 463.237 179.005 466.802 Q177.2 470.343 177.2 477.473 Q177.2 484.579 179.005 488.144 Q180.834 491.686 184.445 491.686 Q188.079 491.686 189.885 488.144 Q191.713 484.579 191.713 477.473 Q191.713 470.343 189.885 466.802 Q188.079 463.237 184.445 463.237 M184.445 459.533 Q190.255 459.533 193.311 464.14 Q196.389 468.723 196.389 477.473 Q196.389 486.2 193.311 490.806 Q190.255 495.39 184.445 495.39 Q178.635 495.39 175.556 490.806 Q172.501 486.2 172.501 477.473 Q172.501 468.723 175.556 464.14 Q178.635 459.533 184.445 459.533 Z" fill="#000000" fill-rule="evenodd" fill-opacity="1" /><path clip-path="url(#clip100)" d="M114.931 296.696 L122.57 296.696 L122.57 270.331 L114.26 271.997 L114.26 267.738 L122.524 266.071 L127.2 266.071 L127.2 296.696 L134.839 296.696 L134.839 300.631 L114.931 300.631 L114.931 296.696 Z" fill="#000000" fill-rule="evenodd" fill-opacity="1" /><path clip-path="url(#clip100)" d="M148.311 296.696 L164.63 296.696 L164.63 300.631 L142.686 300.631 L142.686 296.696 Q145.348 293.941 149.931 289.312 Q154.538 284.659 155.718 283.317 Q157.964 280.793 158.843 279.057 Q159.746 277.298 159.746 275.608 Q159.746 272.854 157.802 271.118 Q155.88 269.381 152.778 269.381 Q150.579 269.381 148.126 270.145 Q145.695 270.909 142.917 272.46 L142.917 267.738 Q145.741 266.604 148.195 266.025 Q150.649 265.446 152.686 265.446 Q158.056 265.446 161.251 268.131 Q164.445 270.817 164.445 275.307 Q164.445 277.437 163.635 279.358 Q162.848 281.256 160.741 283.849 Q160.163 284.52 157.061 287.738 Q153.959 290.932 148.311 296.696 Z" fill="#000000" fill-rule="evenodd" fill-opacity="1" /><path clip-path="url(#clip100)" d="M184.445 269.15 Q180.834 269.15 179.005 272.715 Q177.2 276.256 177.2 283.386 Q177.2 290.492 179.005 294.057 Q180.834 297.599 184.445 297.599 Q188.079 297.599 189.885 294.057 Q191.713 290.492 191.713 283.386 Q191.713 276.256 189.885 272.715 Q188.079 269.15 184.445 269.15 M184.445 265.446 Q190.255 265.446 193.311 270.053 Q196.389 274.636 196.389 283.386 Q196.389 292.113 193.311 296.719 Q190.255 301.303 184.445 301.303 Q178.635 301.303 175.556 296.719 Q172.501 292.113 172.501 283.386 Q172.501 274.636 175.556 270.053 Q178.635 265.446 184.445 265.446 Z" fill="#000000" fill-rule="evenodd" fill-opacity="1" /><path clip-path="url(#clip100)" d="M58.657 985.364 L77.5631 985.364 L77.5631 991.252 L28.3562 991.252 L28.3562 985.364 L33.7671 985.364 Q30.5842 983.518 29.0564 980.717 Q27.4968 977.884 27.4968 973.97 Q27.4968 967.476 32.6531 963.434 Q37.8093 959.36 46.212 959.36 Q54.6147 959.36 59.771 963.434 Q64.9272 967.476 64.9272 973.97 Q64.9272 977.884 63.3994 980.717 Q61.8398 983.518 58.657 985.364 M46.212 965.439 Q39.7508 965.439 36.0905 968.113 Q32.3984 970.755 32.3984 975.402 Q32.3984 980.049 36.0905 982.722 Q39.7508 985.364 46.212 985.364 Q52.6732 985.364 56.3653 982.722 Q60.0256 980.049 60.0256 975.402 Q60.0256 970.755 56.3653 968.113 Q52.6732 965.439 46.212 965.439 Z" fill="#000000" fill-rule="evenodd" fill-opacity="1" /><path clip-path="url(#clip100)" d="M44.7161 919.161 L47.5806 919.161 L47.5806 946.088 Q53.6281 945.706 56.8109 942.459 Q59.9619 939.181 59.9619 933.356 Q59.9619 929.982 59.1344 926.831 Q58.3069 923.649 56.6518 920.529 L62.1899 920.529 Q63.5267 923.68 64.227 926.991 Q64.9272 930.301 64.9272 933.706 Q64.9272 942.236 59.9619 947.234 Q54.9967 952.199 46.5303 952.199 Q37.7774 952.199 32.6531 947.488 Q27.4968 942.746 27.4968 934.725 Q27.4968 927.532 32.1438 923.362 Q36.7589 919.161 44.7161 919.161 M42.9973 925.017 Q38.1912 925.081 35.3266 927.723 Q32.4621 930.333 32.4621 934.661 Q32.4621 939.563 35.2312 942.523 Q38.0002 945.451 43.0292 945.897 L42.9973 925.017 Z" fill="#000000" fill-rule="evenodd" fill-opacity="1" /><path clip-path="url(#clip100)" d="M33.8307 888.892 Q33.2578 889.879 33.0032 891.056 Q32.7167 892.202 32.7167 893.602 Q32.7167 898.568 35.9632 901.241 Q39.1779 903.883 45.2253 903.883 L64.0042 903.883 L64.0042 909.771 L28.3562 909.771 L28.3562 903.883 L33.8944 903.883 Q30.6479 902.037 29.0883 899.077 Q27.4968 896.117 27.4968 891.884 Q27.4968 891.279 27.5923 890.547 Q27.656 889.815 27.8151 888.924 L33.8307 888.892 Z" fill="#000000" fill-rule="evenodd" fill-opacity="1" /><path clip-path="url(#clip100)" d="M58.5933 860.087 L58.5933 849.584 L22.3406 849.584 L24.6323 861.01 L18.7758 861.01 L16.4842 849.647 L16.4842 843.218 L58.5933 843.218 L58.5933 832.714 L64.0042 832.714 L64.0042 860.087 L58.5933 860.087 Z" fill="#000000" fill-rule="evenodd" fill-opacity="1" /><path clip-path="url(#clip100)" d="M20.7174 805.979 Q20.7174 810.944 25.6189 813.458 Q30.4887 815.941 40.2919 815.941 Q50.0633 815.941 54.9649 813.458 Q59.8346 810.944 59.8346 805.979 Q59.8346 800.981 54.9649 798.499 Q50.0633 795.984 40.2919 795.984 Q30.4887 795.984 25.6189 798.499 Q20.7174 800.981 20.7174 805.979 M15.6248 805.979 Q15.6248 797.99 21.9587 793.788 Q28.2607 789.555 40.2919 789.555 Q52.2913 789.555 58.6251 793.788 Q64.9272 797.99 64.9272 805.979 Q64.9272 813.967 58.6251 818.201 Q52.2913 822.402 40.2919 822.402 Q28.2607 822.402 21.9587 818.201 Q15.6248 813.967 15.6248 805.979 Z" fill="#000000" fill-rule="evenodd" fill-opacity="1" /><path clip-path="url(#clip100)" d="M20.7174 764.506 Q20.7174 769.471 25.6189 771.986 Q30.4887 774.468 40.2919 774.468 Q50.0633 774.468 54.9649 771.986 Q59.8346 769.471 59.8346 764.506 Q59.8346 759.509 54.9649 757.026 Q50.0633 754.512 40.2919 754.512 Q30.4887 754.512 25.6189 757.026 Q20.7174 759.509 20.7174 764.506 M15.6248 764.506 Q15.6248 756.517 21.9587 752.316 Q28.2607 748.082 40.2919 748.082 Q52.2913 748.082 58.6251 752.316 Q64.9272 756.517 64.9272 764.506 Q64.9272 772.495 58.6251 776.728 Q52.2913 780.929 40.2919 780.929 Q28.2607 780.929 21.9587 776.728 Q15.6248 772.495 15.6248 764.506 Z" fill="#000000" fill-rule="evenodd" fill-opacity="1" /><path clip-path="url(#clip100)" d="M14.479 737.834 L14.479 731.945 L43.7294 731.945 L28.3562 714.471 L28.3562 706.992 L45.0344 725.898 L64.0042 706.196 L64.0042 713.835 L46.5939 731.945 L64.0042 731.945 L64.0042 737.834 L14.479 737.834 Z" fill="#000000" fill-rule="evenodd" fill-opacity="1" /><path clip-path="url(#clip100)" d="M16.4842 689.454 L16.4842 684.043 L70.0516 700.594 L70.0516 706.005 L16.4842 689.454 Z" fill="#000000" fill-rule="evenodd" fill-opacity="1" /><path clip-path="url(#clip100)" d="M67.3143 663.068 Q73.68 665.551 75.6216 667.906 Q77.5631 670.262 77.5631 674.208 L77.5631 678.887 L72.6615 678.887 L72.6615 675.45 Q72.6615 673.031 71.5157 671.694 Q70.3699 670.357 66.1048 668.734 L63.4312 667.684 L28.3562 682.102 L28.3562 675.895 L56.238 664.755 L28.3562 653.615 L28.3562 647.409 L67.3143 663.068 Z" fill="#000000" fill-rule="evenodd" fill-opacity="1" /><path clip-path="url(#clip100)" d="M33.8307 618.668 Q33.2578 619.654 33.0032 620.832 Q32.7167 621.978 32.7167 623.378 Q32.7167 628.343 35.9632 631.017 Q39.1779 633.659 45.2253 633.659 L64.0042 633.659 L64.0042 639.547 L28.3562 639.547 L28.3562 633.659 L33.8944 633.659 Q30.6479 631.813 29.0883 628.853 Q27.4968 625.893 27.4968 621.659 Q27.4968 621.055 27.5923 620.323 Q27.656 619.591 27.8151 618.699 L33.8307 618.668 Z" fill="#000000" fill-rule="evenodd" fill-opacity="1" /><path clip-path="url(#clip100)" d="M884.971 20.1573 L873.871 50.2555 L896.111 50.2555 L884.971 20.1573 M880.353 12.096 L889.629 12.096 L912.679 72.576 L904.172 72.576 L898.663 57.061 L871.4 57.061 L865.891 72.576 L857.262 72.576 L880.353 12.096 Z" fill="#000000" fill-rule="evenodd" fill-opacity="1" /><path clip-path="url(#clip100)" d="M920.416 54.671 L920.416 27.2059 L927.87 27.2059 L927.87 54.3874 Q927.87 60.8284 930.381 64.0691 Q932.893 67.2693 937.916 67.2693 Q943.952 67.2693 947.436 63.421 Q950.96 59.5726 950.96 52.9291 L950.96 27.2059 L958.414 27.2059 L958.414 72.576 L950.96 72.576 L950.96 65.6084 Q948.246 69.7404 944.64 71.7658 Q941.076 73.7508 936.336 73.7508 Q928.518 73.7508 924.467 68.8897 Q920.416 64.0286 920.416 54.671 M939.172 26.1121 L939.172 26.1121 Z" fill="#000000" fill-rule="evenodd" fill-opacity="1" /><path clip-path="url(#clip100)" d="M1002.69 28.5427 L1002.69 35.5912 Q999.53 33.9709 996.127 33.1607 Q992.725 32.3505 989.079 32.3505 Q983.529 32.3505 980.734 34.0519 Q977.979 35.7533 977.979 39.156 Q977.979 41.7486 979.964 43.2475 Q981.949 44.7058 987.945 46.0426 L990.497 46.6097 Q998.436 48.3111 1001.76 51.4303 Q1005.12 54.509 1005.12 60.0587 Q1005.12 66.3781 1000.1 70.0644 Q995.115 73.7508 986.365 73.7508 Q982.719 73.7508 978.749 73.0216 Q974.82 72.3329 970.445 70.9151 L970.445 63.2184 Q974.577 65.3654 978.587 66.4591 Q982.597 67.5124 986.527 67.5124 Q991.793 67.5124 994.629 65.73 Q997.464 63.9071 997.464 60.6258 Q997.464 57.5877 995.398 55.9673 Q993.373 54.3469 986.446 52.8481 L983.853 52.2405 Q976.926 50.7821 973.847 47.7845 Q970.769 44.7463 970.769 39.4801 Q970.769 33.0797 975.306 29.5959 Q979.843 26.1121 988.188 26.1121 Q992.32 26.1121 995.965 26.7198 Q999.611 27.3274 1002.69 28.5427 Z" fill="#000000" fill-rule="evenodd" fill-opacity="1" /><path clip-path="url(#clip100)" d="M1024.36 14.324 L1024.36 27.2059 L1039.72 27.2059 L1039.72 32.9987 L1024.36 32.9987 L1024.36 57.6282 Q1024.36 63.1779 1025.86 64.7578 Q1027.4 66.3376 1032.06 66.3376 L1039.72 66.3376 L1039.72 72.576 L1032.06 72.576 Q1023.43 72.576 1020.15 69.3758 Q1016.87 66.1351 1016.87 57.6282 L1016.87 32.9987 L1011.4 32.9987 L1011.4 27.2059 L1016.87 27.2059 L1016.87 14.324 L1024.36 14.324 Z" fill="#000000" fill-rule="evenodd" fill-opacity="1" /><path clip-path="url(#clip100)" d="M1075.81 34.1734 Q1074.55 33.4443 1073.05 33.1202 Q1071.6 32.7556 1069.81 32.7556 Q1063.49 32.7556 1060.09 36.8875 Q1056.73 40.9789 1056.73 48.6757 L1056.73 72.576 L1049.23 72.576 L1049.23 27.2059 L1056.73 27.2059 L1056.73 34.2544 Q1059.08 30.1225 1062.85 28.1376 Q1066.61 26.1121 1072 26.1121 Q1072.77 26.1121 1073.7 26.2337 Q1074.63 26.3147 1075.77 26.5172 L1075.81 34.1734 Z" fill="#000000" fill-rule="evenodd" fill-opacity="1" /><path clip-path="url(#clip100)" d="M1104.25 49.7694 Q1095.21 49.7694 1091.73 51.8354 Q1088.25 53.9013 1088.25 58.8839 Q1088.25 62.8538 1090.84 65.2034 Q1093.47 67.5124 1097.97 67.5124 Q1104.17 67.5124 1107.89 63.1374 Q1111.66 58.7219 1111.66 51.4303 L1111.66 49.7694 L1104.25 49.7694 M1119.11 46.6907 L1119.11 72.576 L1111.66 72.576 L1111.66 65.6895 Q1109.11 69.8214 1105.3 71.8063 Q1101.49 73.7508 1095.98 73.7508 Q1089.01 73.7508 1084.88 69.8619 Q1080.79 65.9325 1080.79 59.3701 Q1080.79 51.7138 1085.9 47.825 Q1091.04 43.9361 1101.21 43.9361 L1111.66 43.9361 L1111.66 43.2069 Q1111.66 38.0623 1108.26 35.2672 Q1104.89 32.4315 1098.78 32.4315 Q1094.89 32.4315 1091.2 33.3632 Q1087.52 34.295 1084.11 36.1584 L1084.11 29.2718 Q1088.2 27.692 1092.05 26.9223 Q1095.9 26.1121 1099.55 26.1121 Q1109.39 26.1121 1114.25 31.2163 Q1119.11 36.3204 1119.11 46.6907 Z" fill="#000000" fill-rule="evenodd" fill-opacity="1" /><path clip-path="url(#clip100)" d="M1134.47 9.54393 L1141.92 9.54393 L1141.92 72.576 L1134.47 72.576 L1134.47 9.54393 Z" fill="#000000" fill-rule="evenodd" fill-opacity="1" /><path clip-path="url(#clip100)" d="M1157.52 27.2059 L1164.97 27.2059 L1164.97 72.576 L1157.52 72.576 L1157.52 27.2059 M1157.52 9.54393 L1164.97 9.54393 L1164.97 18.9825 L1157.52 18.9825 L1157.52 9.54393 Z" fill="#000000" fill-rule="evenodd" fill-opacity="1" /><path clip-path="url(#clip100)" d="M1201.18 49.7694 Q1192.15 49.7694 1188.67 51.8354 Q1185.18 53.9013 1185.18 58.8839 Q1185.18 62.8538 1187.78 65.2034 Q1190.41 67.5124 1194.91 67.5124 Q1201.1 67.5124 1204.83 63.1374 Q1208.6 58.7219 1208.6 51.4303 L1208.6 49.7694 L1201.18 49.7694 M1216.05 46.6907 L1216.05 72.576 L1208.6 72.576 L1208.6 65.6895 Q1206.05 69.8214 1202.24 71.8063 Q1198.43 73.7508 1192.92 73.7508 Q1185.95 73.7508 1181.82 69.8619 Q1177.73 65.9325 1177.73 59.3701 Q1177.73 51.7138 1182.83 47.825 Q1187.98 43.9361 1198.15 43.9361 L1208.6 43.9361 L1208.6 43.2069 Q1208.6 38.0623 1205.19 35.2672 Q1201.83 32.4315 1195.72 32.4315 Q1191.83 32.4315 1188.14 33.3632 Q1184.45 34.295 1181.05 36.1584 L1181.05 29.2718 Q1185.14 27.692 1188.99 26.9223 Q1192.84 26.1121 1196.49 26.1121 Q1206.33 26.1121 1211.19 31.2163 Q1216.05 36.3204 1216.05 46.6907 Z" fill="#000000" fill-rule="evenodd" fill-opacity="1" /><path clip-path="url(#clip100)" d="M1294.36 14.0809 L1294.36 22.0612 Q1289.7 19.8332 1285.56 18.7395 Q1281.43 17.6457 1277.58 17.6457 Q1270.9 17.6457 1267.25 20.2383 Q1263.65 22.8309 1263.65 27.611 Q1263.65 31.6214 1266.04 33.6873 Q1268.47 35.7128 1275.19 36.9686 L1280.14 37.9813 Q1289.29 39.7232 1293.63 44.1387 Q1298 48.5136 1298 55.8863 Q1298 64.6767 1292.09 69.2137 Q1286.21 73.7508 1274.83 73.7508 Q1270.54 73.7508 1265.67 72.7785 Q1260.85 71.8063 1255.67 69.9024 L1255.67 61.4765 Q1260.65 64.2716 1265.43 65.6895 Q1270.21 67.1073 1274.83 67.1073 Q1281.84 67.1073 1285.65 64.3527 Q1289.45 61.598 1289.45 56.4939 Q1289.45 52.0379 1286.7 49.5264 Q1283.98 47.0148 1277.75 45.759 L1272.76 44.7868 Q1263.61 42.9639 1259.52 39.075 Q1255.43 35.1862 1255.43 28.2591 Q1255.43 20.2383 1261.06 15.6203 Q1266.73 11.0023 1276.65 11.0023 Q1280.91 11.0023 1285.32 11.7719 Q1289.74 12.5416 1294.36 14.0809 Z" fill="#000000" fill-rule="evenodd" fill-opacity="1" /><path clip-path="url(#clip100)" d="M1349.24 48.0275 L1349.24 51.6733 L1314.97 51.6733 Q1315.46 59.3701 1319.59 63.421 Q1323.76 67.4314 1331.18 67.4314 Q1335.47 67.4314 1339.48 66.3781 Q1343.53 65.3249 1347.5 63.2184 L1347.5 70.267 Q1343.49 71.9684 1339.28 72.8596 Q1335.07 73.7508 1330.73 73.7508 Q1319.88 73.7508 1313.52 67.4314 Q1307.2 61.1119 1307.2 50.3365 Q1307.2 39.1965 1313.19 32.6746 Q1319.23 26.1121 1329.44 26.1121 Q1338.59 26.1121 1343.9 32.0264 Q1349.24 37.9003 1349.24 48.0275 M1341.79 45.84 Q1341.71 39.7232 1338.35 36.0774 Q1335.03 32.4315 1329.52 32.4315 Q1323.28 32.4315 1319.51 35.9558 Q1315.78 39.4801 1315.22 45.8805 L1341.79 45.84 Z" fill="#000000" fill-rule="evenodd" fill-opacity="1" /><path clip-path="url(#clip100)" d="M1397.73 27.2059 L1381.33 49.2833 L1398.58 72.576 L1389.79 72.576 L1376.59 54.752 L1363.38 72.576 L1354.59 72.576 L1372.21 48.8377 L1356.09 27.2059 L1364.88 27.2059 L1376.91 43.369 L1388.94 27.2059 L1397.73 27.2059 Z" fill="#000000" fill-rule="evenodd" fill-opacity="1" /><path clip-path="url(#clip100)" d="M1456.03 20.1573 L1444.93 50.2555 L1467.17 50.2555 L1456.03 20.1573 M1451.41 12.096 L1460.69 12.096 L1483.73 72.576 L1475.23 72.576 L1469.72 57.061 L1442.46 57.061 L1436.95 72.576 L1428.32 72.576 L1451.41 12.096 Z" fill="#000000" fill-rule="evenodd" fill-opacity="1" /><path clip-path="url(#clip100)" d="M1521.17 28.5427 L1521.17 35.5912 Q1518.01 33.9709 1514.6 33.1607 Q1511.2 32.3505 1507.55 32.3505 Q1502 32.3505 1499.21 34.0519 Q1496.45 35.7533 1496.45 39.156 Q1496.45 41.7486 1498.44 43.2475 Q1500.42 44.7058 1506.42 46.0426 L1508.97 46.6097 Q1516.91 48.3111 1520.23 51.4303 Q1523.6 54.509 1523.6 60.0587 Q1523.6 66.3781 1518.57 70.0644 Q1513.59 73.7508 1504.84 73.7508 Q1501.19 73.7508 1497.22 73.0216 Q1493.29 72.3329 1488.92 70.9151 L1488.92 63.2184 Q1493.05 65.3654 1497.06 66.4591 Q1501.07 67.5124 1505 67.5124 Q1510.27 67.5124 1513.1 65.73 Q1515.94 63.9071 1515.94 60.6258 Q1515.94 57.5877 1513.87 55.9673 Q1511.85 54.3469 1504.92 52.8481 L1502.33 52.2405 Q1495.4 50.7821 1492.32 47.7845 Q1489.24 44.7463 1489.24 39.4801 Q1489.24 33.0797 1493.78 29.5959 Q1498.32 26.1121 1506.66 26.1121 Q1510.79 26.1121 1514.44 26.7198 Q1518.09 27.3274 1521.17 28.5427 Z" fill="#000000" fill-rule="evenodd" fill-opacity="1" /><path clip-path="url(#clip100)" d="M1564.39 28.5427 L1564.39 35.5912 Q1561.23 33.9709 1557.83 33.1607 Q1554.42 32.3505 1550.78 32.3505 Q1545.23 32.3505 1542.43 34.0519 Q1539.68 35.7533 1539.68 39.156 Q1539.68 41.7486 1541.66 43.2475 Q1543.65 44.7058 1549.64 46.0426 L1552.2 46.6097 Q1560.13 48.3111 1563.46 51.4303 Q1566.82 54.509 1566.82 60.0587 Q1566.82 66.3781 1561.8 70.0644 Q1556.81 73.7508 1548.06 73.7508 Q1544.42 73.7508 1540.45 73.0216 Q1536.52 72.3329 1532.14 70.9151 L1532.14 63.2184 Q1536.28 65.3654 1540.29 66.4591 Q1544.3 67.5124 1548.23 67.5124 Q1553.49 67.5124 1556.33 65.73 Q1559.16 63.9071 1559.16 60.6258 Q1559.16 57.5877 1557.1 55.9673 Q1555.07 54.3469 1548.14 52.8481 L1545.55 52.2405 Q1538.62 50.7821 1535.55 47.7845 Q1532.47 44.7463 1532.47 39.4801 Q1532.47 33.0797 1537 29.5959 Q1541.54 26.1121 1549.89 26.1121 Q1554.02 26.1121 1557.66 26.7198 Q1561.31 27.3274 1564.39 28.5427 Z" fill="#000000" fill-rule="evenodd" fill-opacity="1" /><path clip-path="url(#clip100)" d="M1599.31 49.7694 Q1590.27 49.7694 1586.79 51.8354 Q1583.31 53.9013 1583.31 58.8839 Q1583.31 62.8538 1585.9 65.2034 Q1588.53 67.5124 1593.03 67.5124 Q1599.23 67.5124 1602.95 63.1374 Q1606.72 58.7219 1606.72 51.4303 L1606.72 49.7694 L1599.31 49.7694 M1614.17 46.6907 L1614.17 72.576 L1606.72 72.576 L1606.72 65.6895 Q1604.17 69.8214 1600.36 71.8063 Q1596.55 73.7508 1591.04 73.7508 Q1584.08 73.7508 1579.94 69.8619 Q1575.85 65.9325 1575.85 59.3701 Q1575.85 51.7138 1580.96 47.825 Q1586.1 43.9361 1596.27 43.9361 L1606.72 43.9361 L1606.72 43.2069 Q1606.72 38.0623 1603.32 35.2672 Q1599.96 32.4315 1593.84 32.4315 Q1589.95 32.4315 1586.26 33.3632 Q1582.58 34.295 1579.17 36.1584 L1579.17 29.2718 Q1583.27 27.692 1587.11 26.9223 Q1590.96 26.1121 1594.61 26.1121 Q1604.45 26.1121 1609.31 31.2163 Q1614.17 36.3204 1614.17 46.6907 Z" fill="#000000" fill-rule="evenodd" fill-opacity="1" /><path clip-path="url(#clip100)" d="M1628.76 54.671 L1628.76 27.2059 L1636.21 27.2059 L1636.21 54.3874 Q1636.21 60.8284 1638.72 64.0691 Q1641.23 67.2693 1646.26 67.2693 Q1652.29 67.2693 1655.78 63.421 Q1659.3 59.5726 1659.3 52.9291 L1659.3 27.2059 L1666.75 27.2059 L1666.75 72.576 L1659.3 72.576 L1659.3 65.6084 Q1656.59 69.7404 1652.98 71.7658 Q1649.42 73.7508 1644.68 73.7508 Q1636.86 73.7508 1632.81 68.8897 Q1628.76 64.0286 1628.76 54.671 M1647.51 26.1121 L1647.51 26.1121 Z" fill="#000000" fill-rule="evenodd" fill-opacity="1" /><path clip-path="url(#clip100)" d="M1682.11 9.54393 L1689.56 9.54393 L1689.56 72.576 L1682.11 72.576 L1682.11 9.54393 Z" fill="#000000" fill-rule="evenodd" fill-opacity="1" /><path clip-path="url(#clip100)" d="M1712.53 14.324 L1712.53 27.2059 L1727.88 27.2059 L1727.88 32.9987 L1712.53 32.9987 L1712.53 57.6282 Q1712.53 63.1779 1714.03 64.7578 Q1715.57 66.3376 1720.23 66.3376 L1727.88 66.3376 L1727.88 72.576 L1720.23 72.576 Q1711.6 72.576 1708.32 69.3758 Q1705.04 66.1351 1705.04 57.6282 L1705.04 32.9987 L1699.57 32.9987 L1699.57 27.2059 L1705.04 27.2059 L1705.04 14.324 L1712.53 14.324 Z" fill="#000000" fill-rule="evenodd" fill-opacity="1" /><polyline clip-path="url(#clip102)" style="stroke:#009af9; stroke-linecap:butt; stroke-linejoin:round; stroke-width:4; stroke-opacity:1; fill:none" points="
  292.4,777.303 369.336,754.012 446.272,741.397 523.209,672.496 600.145,688.993 677.082,682.2 754.018,689.963 830.954,611.358 907.891,562.837 984.827,516.256 
  1061.76,560.896 1138.7,514.315 1215.64,548.28 1292.57,520.137 1369.51,518.197 1446.45,534.694 1523.38,600.683 1600.32,617.181 1677.25,639.501 1754.19,617.181 
  1831.13,607.477 1908.06,590.009 1985,553.132 2061.94,523.049 2138.87,427.946 2215.81,425.035 2292.75,419.212 
  "/>
<polyline clip-path="url(#clip102)" style="stroke:#e26f46; stroke-linecap:butt; stroke-linejoin:round; stroke-width:4; stroke-opacity:1; fill:none" points="
  523.209,1447.87 523.209,162.047 
  "/>
<path clip-path="url(#clip100)" d="
M1844.88 324.425 L2282.08 324.425 L2282.08 168.905 L1844.88 168.905  Z
  " fill="#ffffff" fill-rule="evenodd" fill-opacity="1"/>
<polyline clip-path="url(#clip100)" style="stroke:#000000; stroke-linecap:butt; stroke-linejoin:round; stroke-width:4; stroke-opacity:1; fill:none" points="
  1844.88,324.425 2282.08,324.425 2282.08,168.905 1844.88,168.905 1844.88,324.425 
  "/>
<polyline clip-path="url(#clip100)" style="stroke:#009af9; stroke-linecap:butt; stroke-linejoin:round; stroke-width:4; stroke-opacity:1; fill:none" points="
  1868.44,220.745 2009.8,220.745 
  "/>
<path clip-path="url(#clip100)" d="M2047.2 240.432 Q2045.4 245.062 2043.69 246.474 Q2041.97 247.886 2039.1 247.886 L2035.7 247.886 L2035.7 244.321 L2038.2 244.321 Q2039.96 244.321 2040.93 243.488 Q2041.9 242.654 2043.08 239.552 L2043.85 237.608 L2033.36 212.099 L2037.88 212.099 L2045.98 232.377 L2054.08 212.099 L2058.59 212.099 L2047.2 240.432 Z" fill="#000000" fill-rule="evenodd" fill-opacity="1" /><path clip-path="url(#clip100)" d="M2065.88 234.089 L2073.52 234.089 L2073.52 207.724 L2065.21 209.391 L2065.21 205.131 L2073.48 203.465 L2078.15 203.465 L2078.15 234.089 L2085.79 234.089 L2085.79 238.025 L2065.88 238.025 L2065.88 234.089 Z" fill="#000000" fill-rule="evenodd" fill-opacity="1" /><polyline clip-path="url(#clip100)" style="stroke:#e26f46; stroke-linecap:butt; stroke-linejoin:round; stroke-width:4; stroke-opacity:1; fill:none" points="
  1868.44,272.585 2009.8,272.585 
  "/>
<path clip-path="url(#clip100)" d="M2033.36 255.305 L2039.66 255.305 L2054.98 284.217 L2054.98 255.305 L2059.52 255.305 L2059.52 289.865 L2053.22 289.865 L2037.9 260.953 L2037.9 289.865 L2033.36 289.865 L2033.36 255.305 Z" fill="#000000" fill-rule="evenodd" fill-opacity="1" /><path clip-path="url(#clip100)" d="M2068.82 255.305 L2088.69 255.305 L2088.69 259.24 L2073.5 259.24 L2073.5 269.425 L2087.2 269.425 L2087.2 273.36 L2073.5 273.36 L2073.5 289.865 L2068.82 289.865 L2068.82 255.305 Z" fill="#000000" fill-rule="evenodd" fill-opacity="1" /><path clip-path="url(#clip100)" d="M2103.29 259.911 L2096.95 277.11 L2109.66 277.11 L2103.29 259.911 M2100.65 255.305 L2105.95 255.305 L2119.13 289.865 L2114.26 289.865 L2111.12 280.999 L2095.54 280.999 L2092.39 289.865 L2087.46 289.865 L2100.65 255.305 Z" fill="#000000" fill-rule="evenodd" fill-opacity="1" /><path clip-path="url(#clip100)" d="M2134.5 255.305 L2139.52 255.305 L2149.1 269.518 L2158.62 255.305 L2163.64 255.305 L2151.42 273.406 L2151.42 289.865 L2146.72 289.865 L2146.72 273.406 L2134.5 255.305 Z" fill="#000000" fill-rule="evenodd" fill-opacity="1" /><path clip-path="url(#clip100)" d="M2183.89 275.837 L2183.89 277.92 L2164.31 277.92 Q2164.59 282.318 2166.95 284.633 Q2169.33 286.925 2173.57 286.925 Q2176.02 286.925 2178.31 286.323 Q2180.63 285.721 2182.9 284.517 L2182.9 288.545 Q2180.61 289.517 2178.2 290.027 Q2175.79 290.536 2173.31 290.536 Q2167.11 290.536 2163.48 286.925 Q2159.87 283.314 2159.87 277.156 Q2159.87 270.791 2163.29 267.064 Q2166.74 263.314 2172.57 263.314 Q2177.81 263.314 2180.84 266.693 Q2183.89 270.05 2183.89 275.837 M2179.63 274.587 Q2179.59 271.092 2177.67 269.008 Q2175.77 266.925 2172.62 266.925 Q2169.06 266.925 2166.9 268.939 Q2164.77 270.953 2164.45 274.61 L2179.63 274.587 Z" fill="#000000" fill-rule="evenodd" fill-opacity="1" /><path clip-path="url(#clip100)" d="M2202.67 276.832 Q2197.5 276.832 2195.51 278.013 Q2193.52 279.193 2193.52 282.041 Q2193.52 284.309 2195 285.652 Q2196.51 286.971 2199.08 286.971 Q2202.62 286.971 2204.75 284.471 Q2206.9 281.948 2206.9 277.781 L2206.9 276.832 L2202.67 276.832 M2211.16 275.073 L2211.16 289.865 L2206.9 289.865 L2206.9 285.929 Q2205.44 288.291 2203.27 289.425 Q2201.09 290.536 2197.94 290.536 Q2193.96 290.536 2191.6 288.314 Q2189.26 286.068 2189.26 282.318 Q2189.26 277.943 2192.18 275.721 Q2195.12 273.499 2200.93 273.499 L2206.9 273.499 L2206.9 273.082 Q2206.9 270.143 2204.96 268.545 Q2203.04 266.925 2199.54 266.925 Q2197.32 266.925 2195.21 267.457 Q2193.11 267.99 2191.16 269.055 L2191.16 265.119 Q2193.5 264.217 2195.7 263.777 Q2197.9 263.314 2199.98 263.314 Q2205.61 263.314 2208.38 266.231 Q2211.16 269.147 2211.16 275.073 Z" fill="#000000" fill-rule="evenodd" fill-opacity="1" /><path clip-path="url(#clip100)" d="M2234.96 267.92 Q2234.24 267.504 2233.38 267.318 Q2232.55 267.11 2231.53 267.11 Q2227.92 267.11 2225.98 269.471 Q2224.06 271.809 2224.06 276.207 L2224.06 289.865 L2219.77 289.865 L2219.77 263.939 L2224.06 263.939 L2224.06 267.967 Q2225.4 265.606 2227.55 264.471 Q2229.7 263.314 2232.78 263.314 Q2233.22 263.314 2233.75 263.383 Q2234.29 263.43 2234.93 263.545 L2234.96 267.92 Z" fill="#000000" fill-rule="evenodd" fill-opacity="1" /></svg>
