<?xml version="1.0" encoding="utf-8"?>
<svg xmlns="http://www.w3.org/2000/svg" xmlns:xlink="http://www.w3.org/1999/xlink" width="600" height="400" viewBox="0 0 2400 1600">
<defs>
  <clipPath id="clip140">
    <rect x="0" y="0" width="2400" height="1600"/>
  </clipPath>
</defs>
<path clip-path="url(#clip140)" d="
M0 1600 L2400 1600 L2400 0 L0 0  Z
  " fill="#ffffff" fill-rule="evenodd" fill-opacity="1"/>
<defs>
  <clipPath id="clip141">
    <rect x="480" y="0" width="1681" height="1600"/>
  </clipPath>
</defs>
<path clip-path="url(#clip140)" d="
M339.542 1486.45 L2352.76 1486.45 L2352.76 123.472 L339.542 123.472  Z
  " fill="#ffffff" fill-rule="evenodd" fill-opacity="1"/>
<defs>
  <clipPath id="clip142">
    <rect x="339" y="123" width="2014" height="1364"/>
  </clipPath>
</defs>
<polyline clip-path="url(#clip142)" style="stroke:#000000; stroke-linecap:butt; stroke-linejoin:round; stroke-width:2; stroke-opacity:0.1; fill:none" points="
  542.616,1486.45 542.616,123.472 
  "/>
<polyline clip-path="url(#clip142)" style="stroke:#000000; stroke-linecap:butt; stroke-linejoin:round; stroke-width:2; stroke-opacity:0.1; fill:none" points="
  907.858,1486.45 907.858,123.472 
  "/>
<polyline clip-path="url(#clip142)" style="stroke:#000000; stroke-linecap:butt; stroke-linejoin:round; stroke-width:2; stroke-opacity:0.1; fill:none" points="
  1273.1,1486.45 1273.1,123.472 
  "/>
<polyline clip-path="url(#clip142)" style="stroke:#000000; stroke-linecap:butt; stroke-linejoin:round; stroke-width:2; stroke-opacity:0.1; fill:none" points="
  1638.34,1486.45 1638.34,123.472 
  "/>
<polyline clip-path="url(#clip142)" style="stroke:#000000; stroke-linecap:butt; stroke-linejoin:round; stroke-width:2; stroke-opacity:0.1; fill:none" points="
  2003.58,1486.45 2003.58,123.472 
  "/>
<polyline clip-path="url(#clip140)" style="stroke:#000000; stroke-linecap:butt; stroke-linejoin:round; stroke-width:4; stroke-opacity:1; fill:none" points="
  339.542,1486.45 2352.76,1486.45 
  "/>
<polyline clip-path="url(#clip140)" style="stroke:#000000; stroke-linecap:butt; stroke-linejoin:round; stroke-width:4; stroke-opacity:1; fill:none" points="
  542.616,1486.45 542.616,1467.55 
  "/>
<polyline clip-path="url(#clip140)" style="stroke:#000000; stroke-linecap:butt; stroke-linejoin:round; stroke-width:4; stroke-opacity:1; fill:none" points="
  907.858,1486.45 907.858,1467.55 
  "/>
<polyline clip-path="url(#clip140)" style="stroke:#000000; stroke-linecap:butt; stroke-linejoin:round; stroke-width:4; stroke-opacity:1; fill:none" points="
  1273.1,1486.45 1273.1,1467.55 
  "/>
<polyline clip-path="url(#clip140)" style="stroke:#000000; stroke-linecap:butt; stroke-linejoin:round; stroke-width:4; stroke-opacity:1; fill:none" points="
  1638.34,1486.45 1638.34,1467.55 
  "/>
<polyline clip-path="url(#clip140)" style="stroke:#000000; stroke-linecap:butt; stroke-linejoin:round; stroke-width:4; stroke-opacity:1; fill:none" points="
  2003.58,1486.45 2003.58,1467.55 
  "/>
<path clip-path="url(#clip140)" d="M487.64 1544.91 L495.278 1544.91 L495.278 1518.55 L486.968 1520.21 L486.968 1515.95 L495.232 1514.29 L499.908 1514.29 L499.908 1544.91 L507.547 1544.91 L507.547 1548.85 L487.64 1548.85 L487.64 1544.91 Z" fill="#000000" fill-rule="evenodd" fill-opacity="1" /><path clip-path="url(#clip140)" d="M517.13 1548.13 L517.13 1543.87 Q518.889 1544.7 520.695 1545.14 Q522.501 1545.58 524.237 1545.58 Q528.866 1545.58 531.297 1542.48 Q533.75 1539.36 534.098 1533.01 Q532.755 1535.01 530.695 1536.07 Q528.635 1537.13 526.135 1537.13 Q520.95 1537.13 517.917 1534.01 Q514.908 1530.86 514.908 1525.42 Q514.908 1520.1 518.056 1516.88 Q521.204 1513.66 526.436 1513.66 Q532.431 1513.66 535.579 1518.27 Q538.75 1522.85 538.75 1531.6 Q538.75 1539.77 534.862 1544.66 Q530.996 1549.52 524.445 1549.52 Q522.686 1549.52 520.88 1549.17 Q519.075 1548.82 517.13 1548.13 M526.436 1533.48 Q529.584 1533.48 531.413 1531.32 Q533.264 1529.17 533.264 1525.42 Q533.264 1521.7 531.413 1519.54 Q529.584 1517.37 526.436 1517.37 Q523.288 1517.37 521.436 1519.54 Q519.607 1521.7 519.607 1525.42 Q519.607 1529.17 521.436 1531.32 Q523.288 1533.48 526.436 1533.48 Z" fill="#000000" fill-rule="evenodd" fill-opacity="1" /><path clip-path="url(#clip140)" d="M547.292 1548.13 L547.292 1543.87 Q549.051 1544.7 550.857 1545.14 Q552.662 1545.58 554.398 1545.58 Q559.028 1545.58 561.459 1542.48 Q563.912 1539.36 564.26 1533.01 Q562.917 1535.01 560.857 1536.07 Q558.797 1537.13 556.297 1537.13 Q551.111 1537.13 548.079 1534.01 Q545.07 1530.86 545.07 1525.42 Q545.07 1520.1 548.218 1516.88 Q551.366 1513.66 556.598 1513.66 Q562.593 1513.66 565.741 1518.27 Q568.912 1522.85 568.912 1531.6 Q568.912 1539.77 565.023 1544.66 Q561.158 1549.52 554.607 1549.52 Q552.848 1549.52 551.042 1549.17 Q549.236 1548.82 547.292 1548.13 M556.598 1533.48 Q559.746 1533.48 561.574 1531.32 Q563.426 1529.17 563.426 1525.42 Q563.426 1521.7 561.574 1519.54 Q559.746 1517.37 556.598 1517.37 Q553.449 1517.37 551.598 1519.54 Q549.769 1521.7 549.769 1525.42 Q549.769 1529.17 551.598 1531.32 Q553.449 1533.48 556.598 1533.48 Z" fill="#000000" fill-rule="evenodd" fill-opacity="1" /><path clip-path="url(#clip140)" d="M577.361 1514.29 L595.718 1514.29 L595.718 1518.22 L581.644 1518.22 L581.644 1526.7 Q582.662 1526.35 583.681 1526.19 Q584.699 1526 585.718 1526 Q591.505 1526 594.884 1529.17 Q598.264 1532.34 598.264 1537.76 Q598.264 1543.34 594.792 1546.44 Q591.32 1549.52 585 1549.52 Q582.824 1549.52 580.556 1549.15 Q578.31 1548.78 575.903 1548.04 L575.903 1543.34 Q577.986 1544.47 580.209 1545.03 Q582.431 1545.58 584.908 1545.58 Q588.912 1545.58 591.25 1543.48 Q593.588 1541.37 593.588 1537.76 Q593.588 1534.15 591.25 1532.04 Q588.912 1529.94 584.908 1529.94 Q583.033 1529.94 581.158 1530.35 Q579.306 1530.77 577.361 1531.65 L577.361 1514.29 Z" fill="#000000" fill-rule="evenodd" fill-opacity="1" /><path clip-path="url(#clip140)" d="M856.47 1544.91 L872.789 1544.91 L872.789 1548.85 L850.845 1548.85 L850.845 1544.91 Q853.507 1542.16 858.09 1537.53 Q862.696 1532.88 863.877 1531.53 Q866.122 1529.01 867.002 1527.27 Q867.905 1525.51 867.905 1523.82 Q867.905 1521.07 865.96 1519.33 Q864.039 1517.6 860.937 1517.6 Q858.738 1517.6 856.284 1518.36 Q853.854 1519.13 851.076 1520.68 L851.076 1515.95 Q853.9 1514.82 856.354 1514.24 Q858.808 1513.66 860.845 1513.66 Q866.215 1513.66 869.409 1516.35 Q872.604 1519.03 872.604 1523.52 Q872.604 1525.65 871.794 1527.57 Q871.007 1529.47 868.9 1532.07 Q868.321 1532.74 865.22 1535.95 Q862.118 1539.15 856.47 1544.91 Z" fill="#000000" fill-rule="evenodd" fill-opacity="1" /><path clip-path="url(#clip140)" d="M892.604 1517.37 Q888.993 1517.37 887.164 1520.93 Q885.358 1524.47 885.358 1531.6 Q885.358 1538.71 887.164 1542.27 Q888.993 1545.82 892.604 1545.82 Q896.238 1545.82 898.043 1542.27 Q899.872 1538.71 899.872 1531.6 Q899.872 1524.47 898.043 1520.93 Q896.238 1517.37 892.604 1517.37 M892.604 1513.66 Q898.414 1513.66 901.469 1518.27 Q904.548 1522.85 904.548 1531.6 Q904.548 1540.33 901.469 1544.94 Q898.414 1549.52 892.604 1549.52 Q886.794 1549.52 883.715 1544.94 Q880.659 1540.33 880.659 1531.6 Q880.659 1522.85 883.715 1518.27 Q886.794 1513.66 892.604 1513.66 Z" fill="#000000" fill-rule="evenodd" fill-opacity="1" /><path clip-path="url(#clip140)" d="M922.766 1517.37 Q919.154 1517.37 917.326 1520.93 Q915.52 1524.47 915.52 1531.6 Q915.52 1538.71 917.326 1542.27 Q919.154 1545.82 922.766 1545.82 Q926.4 1545.82 928.205 1542.27 Q930.034 1538.71 930.034 1531.6 Q930.034 1524.47 928.205 1520.93 Q926.4 1517.37 922.766 1517.37 M922.766 1513.66 Q928.576 1513.66 931.631 1518.27 Q934.71 1522.85 934.71 1531.6 Q934.71 1540.33 931.631 1544.94 Q928.576 1549.52 922.766 1549.52 Q916.955 1549.52 913.877 1544.94 Q910.821 1540.33 910.821 1531.6 Q910.821 1522.85 913.877 1518.27 Q916.955 1513.66 922.766 1513.66 Z" fill="#000000" fill-rule="evenodd" fill-opacity="1" /><path clip-path="url(#clip140)" d="M952.927 1517.37 Q949.316 1517.37 947.488 1520.93 Q945.682 1524.47 945.682 1531.6 Q945.682 1538.71 947.488 1542.27 Q949.316 1545.82 952.927 1545.82 Q956.562 1545.82 958.367 1542.27 Q960.196 1538.71 960.196 1531.6 Q960.196 1524.47 958.367 1520.93 Q956.562 1517.37 952.927 1517.37 M952.927 1513.66 Q958.738 1513.66 961.793 1518.27 Q964.872 1522.85 964.872 1531.6 Q964.872 1540.33 961.793 1544.94 Q958.738 1549.52 952.927 1549.52 Q947.117 1549.52 944.039 1544.94 Q940.983 1540.33 940.983 1531.6 Q940.983 1522.85 944.039 1518.27 Q947.117 1513.66 952.927 1513.66 Z" fill="#000000" fill-rule="evenodd" fill-opacity="1" /><path clip-path="url(#clip140)" d="M1222.21 1544.91 L1238.53 1544.91 L1238.53 1548.85 L1216.58 1548.85 L1216.58 1544.91 Q1219.25 1542.16 1223.83 1537.53 Q1228.44 1532.88 1229.62 1531.53 Q1231.86 1529.01 1232.74 1527.27 Q1233.64 1525.51 1233.64 1523.82 Q1233.64 1521.07 1231.7 1519.33 Q1229.78 1517.6 1226.68 1517.6 Q1224.48 1517.6 1222.02 1518.36 Q1219.59 1519.13 1216.82 1520.68 L1216.82 1515.95 Q1219.64 1514.82 1222.09 1514.24 Q1224.55 1513.66 1226.58 1513.66 Q1231.95 1513.66 1235.15 1516.35 Q1238.34 1519.03 1238.34 1523.52 Q1238.34 1525.65 1237.53 1527.57 Q1236.75 1529.47 1234.64 1532.07 Q1234.06 1532.74 1230.96 1535.95 Q1227.86 1539.15 1222.21 1544.91 Z" fill="#000000" fill-rule="evenodd" fill-opacity="1" /><path clip-path="url(#clip140)" d="M1258.34 1517.37 Q1254.73 1517.37 1252.9 1520.93 Q1251.1 1524.47 1251.1 1531.6 Q1251.1 1538.71 1252.9 1542.27 Q1254.73 1545.82 1258.34 1545.82 Q1261.98 1545.82 1263.78 1542.27 Q1265.61 1538.71 1265.61 1531.6 Q1265.61 1524.47 1263.78 1520.93 Q1261.98 1517.37 1258.34 1517.37 M1258.34 1513.66 Q1264.15 1513.66 1267.21 1518.27 Q1270.29 1522.85 1270.29 1531.6 Q1270.29 1540.33 1267.21 1544.94 Q1264.15 1549.52 1258.34 1549.52 Q1252.53 1549.52 1249.45 1544.94 Q1246.4 1540.33 1246.4 1531.6 Q1246.4 1522.85 1249.45 1518.27 Q1252.53 1513.66 1258.34 1513.66 Z" fill="#000000" fill-rule="evenodd" fill-opacity="1" /><path clip-path="url(#clip140)" d="M1288.51 1517.37 Q1284.89 1517.37 1283.07 1520.93 Q1281.26 1524.47 1281.26 1531.6 Q1281.26 1538.71 1283.07 1542.27 Q1284.89 1545.82 1288.51 1545.82 Q1292.14 1545.82 1293.95 1542.27 Q1295.77 1538.71 1295.77 1531.6 Q1295.77 1524.47 1293.95 1520.93 Q1292.14 1517.37 1288.51 1517.37 M1288.51 1513.66 Q1294.32 1513.66 1297.37 1518.27 Q1300.45 1522.85 1300.45 1531.6 Q1300.45 1540.33 1297.37 1544.94 Q1294.32 1549.52 1288.51 1549.52 Q1282.7 1549.52 1279.62 1544.94 Q1276.56 1540.33 1276.56 1531.6 Q1276.56 1522.85 1279.62 1518.27 Q1282.7 1513.66 1288.51 1513.66 Z" fill="#000000" fill-rule="evenodd" fill-opacity="1" /><path clip-path="url(#clip140)" d="M1308.71 1514.29 L1327.07 1514.29 L1327.07 1518.22 L1313 1518.22 L1313 1526.7 Q1314.01 1526.35 1315.03 1526.19 Q1316.05 1526 1317.07 1526 Q1322.86 1526 1326.24 1529.17 Q1329.62 1532.34 1329.62 1537.76 Q1329.62 1543.34 1326.14 1546.44 Q1322.67 1549.52 1316.35 1549.52 Q1314.18 1549.52 1311.91 1549.15 Q1309.66 1548.78 1307.26 1548.04 L1307.26 1543.34 Q1309.34 1544.47 1311.56 1545.03 Q1313.78 1545.58 1316.26 1545.58 Q1320.26 1545.58 1322.6 1543.48 Q1324.94 1541.37 1324.94 1537.76 Q1324.94 1534.15 1322.6 1532.04 Q1320.26 1529.94 1316.26 1529.94 Q1314.38 1529.94 1312.51 1530.35 Q1310.66 1530.77 1308.71 1531.65 L1308.71 1514.29 Z" fill="#000000" fill-rule="evenodd" fill-opacity="1" /><path clip-path="url(#clip140)" d="M1586.95 1544.91 L1603.27 1544.91 L1603.27 1548.85 L1581.33 1548.85 L1581.33 1544.91 Q1583.99 1542.16 1588.57 1537.53 Q1593.18 1532.88 1594.36 1531.53 Q1596.61 1529.01 1597.49 1527.27 Q1598.39 1525.51 1598.39 1523.82 Q1598.39 1521.07 1596.44 1519.33 Q1594.52 1517.6 1591.42 1517.6 Q1589.22 1517.6 1586.77 1518.36 Q1584.34 1519.13 1581.56 1520.68 L1581.56 1515.95 Q1584.38 1514.82 1586.84 1514.24 Q1589.29 1513.66 1591.33 1513.66 Q1596.7 1513.66 1599.89 1516.35 Q1603.09 1519.03 1603.09 1523.52 Q1603.09 1525.65 1602.28 1527.57 Q1601.49 1529.47 1599.38 1532.07 Q1598.81 1532.74 1595.7 1535.95 Q1592.6 1539.15 1586.95 1544.91 Z" fill="#000000" fill-rule="evenodd" fill-opacity="1" /><path clip-path="url(#clip140)" d="M1623.09 1517.37 Q1619.48 1517.37 1617.65 1520.93 Q1615.84 1524.47 1615.84 1531.6 Q1615.84 1538.71 1617.65 1542.27 Q1619.48 1545.82 1623.09 1545.82 Q1626.72 1545.82 1628.53 1542.27 Q1630.36 1538.71 1630.36 1531.6 Q1630.36 1524.47 1628.53 1520.93 Q1626.72 1517.37 1623.09 1517.37 M1623.09 1513.66 Q1628.9 1513.66 1631.95 1518.27 Q1635.03 1522.85 1635.03 1531.6 Q1635.03 1540.33 1631.95 1544.94 Q1628.9 1549.52 1623.09 1549.52 Q1617.28 1549.52 1614.2 1544.94 Q1611.14 1540.33 1611.14 1531.6 Q1611.14 1522.85 1614.2 1518.27 Q1617.28 1513.66 1623.09 1513.66 Z" fill="#000000" fill-rule="evenodd" fill-opacity="1" /><path clip-path="url(#clip140)" d="M1644.06 1544.91 L1651.7 1544.91 L1651.7 1518.55 L1643.39 1520.21 L1643.39 1515.95 L1651.65 1514.29 L1656.33 1514.29 L1656.33 1544.91 L1663.97 1544.91 L1663.97 1548.85 L1644.06 1548.85 L1644.06 1544.91 Z" fill="#000000" fill-rule="evenodd" fill-opacity="1" /><path clip-path="url(#clip140)" d="M1683.41 1517.37 Q1679.8 1517.37 1677.97 1520.93 Q1676.17 1524.47 1676.17 1531.6 Q1676.17 1538.71 1677.97 1542.27 Q1679.8 1545.82 1683.41 1545.82 Q1687.05 1545.82 1688.85 1542.27 Q1690.68 1538.71 1690.68 1531.6 Q1690.68 1524.47 1688.85 1520.93 Q1687.05 1517.37 1683.41 1517.37 M1683.41 1513.66 Q1689.22 1513.66 1692.28 1518.27 Q1695.36 1522.85 1695.36 1531.6 Q1695.36 1540.33 1692.28 1544.94 Q1689.22 1549.52 1683.41 1549.52 Q1677.6 1549.52 1674.52 1544.94 Q1671.47 1540.33 1671.47 1531.6 Q1671.47 1522.85 1674.52 1518.27 Q1677.6 1513.66 1683.41 1513.66 Z" fill="#000000" fill-rule="evenodd" fill-opacity="1" /><path clip-path="url(#clip140)" d="M1952.69 1544.91 L1969.01 1544.91 L1969.01 1548.85 L1947.07 1548.85 L1947.07 1544.91 Q1949.73 1542.16 1954.31 1537.53 Q1958.92 1532.88 1960.1 1531.53 Q1962.35 1529.01 1963.23 1527.27 Q1964.13 1525.51 1964.13 1523.82 Q1964.13 1521.07 1962.18 1519.33 Q1960.26 1517.6 1957.16 1517.6 Q1954.96 1517.6 1952.51 1518.36 Q1950.08 1519.13 1947.3 1520.68 L1947.3 1515.95 Q1950.12 1514.82 1952.58 1514.24 Q1955.03 1513.66 1957.07 1513.66 Q1962.44 1513.66 1965.63 1516.35 Q1968.83 1519.03 1968.83 1523.52 Q1968.83 1525.65 1968.02 1527.57 Q1967.23 1529.47 1965.12 1532.07 Q1964.55 1532.74 1961.44 1535.95 Q1958.34 1539.15 1952.69 1544.91 Z" fill="#000000" fill-rule="evenodd" fill-opacity="1" /><path clip-path="url(#clip140)" d="M1988.83 1517.37 Q1985.22 1517.37 1983.39 1520.93 Q1981.58 1524.47 1981.58 1531.6 Q1981.58 1538.71 1983.39 1542.27 Q1985.22 1545.82 1988.83 1545.82 Q1992.46 1545.82 1994.27 1542.27 Q1996.1 1538.71 1996.1 1531.6 Q1996.1 1524.47 1994.27 1520.93 Q1992.46 1517.37 1988.83 1517.37 M1988.83 1513.66 Q1994.64 1513.66 1997.69 1518.27 Q2000.77 1522.85 2000.77 1531.6 Q2000.77 1540.33 1997.69 1544.94 Q1994.64 1549.52 1988.83 1549.52 Q1983.02 1549.52 1979.94 1544.94 Q1976.88 1540.33 1976.88 1531.6 Q1976.88 1522.85 1979.94 1518.27 Q1983.02 1513.66 1988.83 1513.66 Z" fill="#000000" fill-rule="evenodd" fill-opacity="1" /><path clip-path="url(#clip140)" d="M2009.8 1544.91 L2017.44 1544.91 L2017.44 1518.55 L2009.13 1520.21 L2009.13 1515.95 L2017.39 1514.29 L2022.07 1514.29 L2022.07 1544.91 L2029.71 1544.91 L2029.71 1548.85 L2009.8 1548.85 L2009.8 1544.91 Z" fill="#000000" fill-rule="evenodd" fill-opacity="1" /><path clip-path="url(#clip140)" d="M2039.2 1514.29 L2057.55 1514.29 L2057.55 1518.22 L2043.48 1518.22 L2043.48 1526.7 Q2044.5 1526.35 2045.52 1526.19 Q2046.54 1526 2047.55 1526 Q2053.34 1526 2056.72 1529.17 Q2060.1 1532.34 2060.1 1537.76 Q2060.1 1543.34 2056.63 1546.44 Q2053.16 1549.52 2046.84 1549.52 Q2044.66 1549.52 2042.39 1549.15 Q2040.15 1548.78 2037.74 1548.04 L2037.74 1543.34 Q2039.82 1544.47 2042.04 1545.03 Q2044.27 1545.58 2046.74 1545.58 Q2050.75 1545.58 2053.09 1543.48 Q2055.42 1541.37 2055.42 1537.76 Q2055.42 1534.15 2053.09 1532.04 Q2050.75 1529.94 2046.74 1529.94 Q2044.87 1529.94 2042.99 1530.35 Q2041.14 1530.77 2039.2 1531.65 L2039.2 1514.29 Z" fill="#000000" fill-rule="evenodd" fill-opacity="1" /><polyline clip-path="url(#clip142)" style="stroke:#000000; stroke-linecap:butt; stroke-linejoin:round; stroke-width:2; stroke-opacity:0.1; fill:none" points="
  339.542,1447.87 2352.76,1447.87 
  "/>
<polyline clip-path="url(#clip142)" style="stroke:#000000; stroke-linecap:butt; stroke-linejoin:round; stroke-width:2; stroke-opacity:0.1; fill:none" points="
  339.542,1061.01 2352.76,1061.01 
  "/>
<polyline clip-path="url(#clip142)" style="stroke:#000000; stroke-linecap:butt; stroke-linejoin:round; stroke-width:2; stroke-opacity:0.1; fill:none" points="
  339.542,674.153 2352.76,674.153 
  "/>
<polyline clip-path="url(#clip142)" style="stroke:#000000; stroke-linecap:butt; stroke-linejoin:round; stroke-width:2; stroke-opacity:0.1; fill:none" points="
  339.542,287.293 2352.76,287.293 
  "/>
<polyline clip-path="url(#clip140)" style="stroke:#000000; stroke-linecap:butt; stroke-linejoin:round; stroke-width:4; stroke-opacity:1; fill:none" points="
  339.542,1486.45 339.542,123.472 
  "/>
<polyline clip-path="url(#clip140)" style="stroke:#000000; stroke-linecap:butt; stroke-linejoin:round; stroke-width:4; stroke-opacity:1; fill:none" points="
  339.542,1447.87 358.439,1447.87 
  "/>
<polyline clip-path="url(#clip140)" style="stroke:#000000; stroke-linecap:butt; stroke-linejoin:round; stroke-width:4; stroke-opacity:1; fill:none" points="
  339.542,1061.01 358.439,1061.01 
  "/>
<polyline clip-path="url(#clip140)" style="stroke:#000000; stroke-linecap:butt; stroke-linejoin:round; stroke-width:4; stroke-opacity:1; fill:none" points="
  339.542,674.153 358.439,674.153 
  "/>
<polyline clip-path="url(#clip140)" style="stroke:#000000; stroke-linecap:butt; stroke-linejoin:round; stroke-width:4; stroke-opacity:1; fill:none" points="
  339.542,287.293 358.439,287.293 
  "/>
<path clip-path="url(#clip140)" d="M291.597 1433.67 Q287.986 1433.67 286.157 1437.24 Q284.352 1440.78 284.352 1447.91 Q284.352 1455.01 286.157 1458.58 Q287.986 1462.12 291.597 1462.12 Q295.231 1462.12 297.037 1458.58 Q298.866 1455.01 298.866 1447.91 Q298.866 1440.78 297.037 1437.24 Q295.231 1433.67 291.597 1433.67 M291.597 1429.97 Q297.407 1429.97 300.463 1434.57 Q303.542 1439.16 303.542 1447.91 Q303.542 1456.63 300.463 1461.24 Q297.407 1465.82 291.597 1465.82 Q285.787 1465.82 282.708 1461.24 Q279.653 1456.63 279.653 1447.91 Q279.653 1439.16 282.708 1434.57 Q285.787 1429.97 291.597 1429.97 Z" fill="#000000" fill-rule="evenodd" fill-opacity="1" /><path clip-path="url(#clip140)" d="M116.668 1080.81 L124.306 1080.81 L124.306 1054.44 L115.996 1056.11 L115.996 1051.85 L124.26 1050.18 L128.936 1050.18 L128.936 1080.81 L136.575 1080.81 L136.575 1084.74 L116.668 1084.74 L116.668 1080.81 Z" fill="#000000" fill-rule="evenodd" fill-opacity="1" /><path clip-path="url(#clip140)" d="M146.019 1078.86 L150.903 1078.86 L150.903 1084.74 L146.019 1084.74 L146.019 1078.86 Z" fill="#000000" fill-rule="evenodd" fill-opacity="1" /><path clip-path="url(#clip140)" d="M171.089 1053.26 Q167.477 1053.26 165.649 1056.82 Q163.843 1060.37 163.843 1067.5 Q163.843 1074.6 165.649 1078.17 Q167.477 1081.71 171.089 1081.71 Q174.723 1081.71 176.528 1078.17 Q178.357 1074.6 178.357 1067.5 Q178.357 1060.37 176.528 1056.82 Q174.723 1053.26 171.089 1053.26 M171.089 1049.56 Q176.899 1049.56 179.954 1054.16 Q183.033 1058.75 183.033 1067.5 Q183.033 1076.22 179.954 1080.83 Q176.899 1085.41 171.089 1085.41 Q165.278 1085.41 162.2 1080.83 Q159.144 1076.22 159.144 1067.5 Q159.144 1058.75 162.2 1054.16 Q165.278 1049.56 171.089 1049.56 Z" fill="#000000" fill-rule="evenodd" fill-opacity="1" /><path clip-path="url(#clip140)" d="M219.422 1059.28 L208.843 1069.9 L219.422 1080.48 L216.667 1083.28 L206.042 1072.66 L195.417 1083.28 L192.686 1080.48 L203.241 1069.9 L192.686 1059.28 L195.417 1056.48 L206.042 1067.1 L216.667 1056.48 L219.422 1059.28 Z" fill="#000000" fill-rule="evenodd" fill-opacity="1" /><path clip-path="url(#clip140)" d="M231.783 1080.81 L239.422 1080.81 L239.422 1054.44 L231.111 1056.11 L231.111 1051.85 L239.375 1050.18 L244.051 1050.18 L244.051 1080.81 L251.69 1080.81 L251.69 1084.74 L231.783 1084.74 L231.783 1080.81 Z" fill="#000000" fill-rule="evenodd" fill-opacity="1" /><path clip-path="url(#clip140)" d="M271.134 1053.26 Q267.523 1053.26 265.695 1056.82 Q263.889 1060.37 263.889 1067.5 Q263.889 1074.6 265.695 1078.17 Q267.523 1081.71 271.134 1081.71 Q274.769 1081.71 276.574 1078.17 Q278.403 1074.6 278.403 1067.5 Q278.403 1060.37 276.574 1056.82 Q274.769 1053.26 271.134 1053.26 M271.134 1049.56 Q276.944 1049.56 280 1054.16 Q283.079 1058.75 283.079 1067.5 Q283.079 1076.22 280 1080.83 Q276.944 1085.41 271.134 1085.41 Q265.324 1085.41 262.245 1080.83 Q259.19 1076.22 259.19 1067.5 Q259.19 1058.75 262.245 1054.16 Q265.324 1049.56 271.134 1049.56 Z" fill="#000000" fill-rule="evenodd" fill-opacity="1" /><path clip-path="url(#clip140)" d="M295.755 1032.56 L286.163 1047.55 L295.755 1047.55 L295.755 1032.56 M294.758 1029.25 L299.535 1029.25 L299.535 1047.55 L303.542 1047.55 L303.542 1050.71 L299.535 1050.71 L299.535 1057.33 L295.755 1057.33 L295.755 1050.71 L283.079 1050.71 L283.079 1047.04 L294.758 1029.25 Z" fill="#000000" fill-rule="evenodd" fill-opacity="1" /><path clip-path="url(#clip140)" d="M119.885 693.945 L136.204 693.945 L136.204 697.881 L114.26 697.881 L114.26 693.945 Q116.922 691.191 121.505 686.561 Q126.112 681.908 127.292 680.566 Q129.538 678.043 130.417 676.307 Q131.32 674.547 131.32 672.858 Q131.32 670.103 129.376 668.367 Q127.455 666.631 124.353 666.631 Q122.154 666.631 119.7 667.395 Q117.269 668.158 114.492 669.709 L114.492 664.987 Q117.316 663.853 119.769 663.274 Q122.223 662.696 124.26 662.696 Q129.63 662.696 132.825 665.381 Q136.019 668.066 136.019 672.557 Q136.019 674.686 135.209 676.608 Q134.422 678.506 132.316 681.098 Q131.737 681.77 128.635 684.987 Q125.533 688.182 119.885 693.945 Z" fill="#000000" fill-rule="evenodd" fill-opacity="1" /><path clip-path="url(#clip140)" d="M146.019 692.001 L150.903 692.001 L150.903 697.881 L146.019 697.881 L146.019 692.001 Z" fill="#000000" fill-rule="evenodd" fill-opacity="1" /><path clip-path="url(#clip140)" d="M171.089 666.399 Q167.477 666.399 165.649 669.964 Q163.843 673.506 163.843 680.635 Q163.843 687.742 165.649 691.306 Q167.477 694.848 171.089 694.848 Q174.723 694.848 176.528 691.306 Q178.357 687.742 178.357 680.635 Q178.357 673.506 176.528 669.964 Q174.723 666.399 171.089 666.399 M171.089 662.696 Q176.899 662.696 179.954 667.302 Q183.033 671.885 183.033 680.635 Q183.033 689.362 179.954 693.969 Q176.899 698.552 171.089 698.552 Q165.278 698.552 162.2 693.969 Q159.144 689.362 159.144 680.635 Q159.144 671.885 162.2 667.302 Q165.278 662.696 171.089 662.696 Z" fill="#000000" fill-rule="evenodd" fill-opacity="1" /><path clip-path="url(#clip140)" d="M219.422 672.418 L208.843 683.043 L219.422 693.621 L216.667 696.422 L206.042 685.797 L195.417 696.422 L192.686 693.621 L203.241 683.043 L192.686 672.418 L195.417 669.617 L206.042 680.242 L216.667 669.617 L219.422 672.418 Z" fill="#000000" fill-rule="evenodd" fill-opacity="1" /><path clip-path="url(#clip140)" d="M231.783 693.945 L239.422 693.945 L239.422 667.58 L231.111 669.246 L231.111 664.987 L239.375 663.321 L244.051 663.321 L244.051 693.945 L251.69 693.945 L251.69 697.881 L231.783 697.881 L231.783 693.945 Z" fill="#000000" fill-rule="evenodd" fill-opacity="1" /><path clip-path="url(#clip140)" d="M271.134 666.399 Q267.523 666.399 265.695 669.964 Q263.889 673.506 263.889 680.635 Q263.889 687.742 265.695 691.306 Q267.523 694.848 271.134 694.848 Q274.769 694.848 276.574 691.306 Q278.403 687.742 278.403 680.635 Q278.403 673.506 276.574 669.964 Q274.769 666.399 271.134 666.399 M271.134 662.696 Q276.944 662.696 280 667.302 Q283.079 671.885 283.079 680.635 Q283.079 689.362 280 693.969 Q276.944 698.552 271.134 698.552 Q265.324 698.552 262.245 693.969 Q259.19 689.362 259.19 680.635 Q259.19 671.885 262.245 667.302 Q265.324 662.696 271.134 662.696 Z" fill="#000000" fill-rule="evenodd" fill-opacity="1" /><path clip-path="url(#clip140)" d="M295.755 645.7 L286.163 660.69 L295.755 660.69 L295.755 645.7 M294.758 642.39 L299.535 642.39 L299.535 660.69 L303.542 660.69 L303.542 663.85 L299.535 663.85 L299.535 670.47 L295.755 670.47 L295.755 663.85 L283.079 663.85 L283.079 660.182 L294.758 642.39 Z" fill="#000000" fill-rule="evenodd" fill-opacity="1" /><path clip-path="url(#clip140)" d="M130.024 292.386 Q133.38 293.104 135.255 295.372 Q137.154 297.641 137.154 300.974 Q137.154 306.09 133.635 308.891 Q130.117 311.692 123.635 311.692 Q121.459 311.692 119.144 311.252 Q116.853 310.835 114.399 309.979 L114.399 305.465 Q116.343 306.599 118.658 307.178 Q120.973 307.757 123.496 307.757 Q127.894 307.757 130.186 306.02 Q132.501 304.284 132.501 300.974 Q132.501 297.919 130.348 296.206 Q128.218 294.47 124.399 294.47 L120.371 294.47 L120.371 290.627 L124.584 290.627 Q128.033 290.627 129.862 289.261 Q131.691 287.872 131.691 285.28 Q131.691 282.618 129.792 281.206 Q127.917 279.771 124.399 279.771 Q122.478 279.771 120.279 280.187 Q118.08 280.604 115.441 281.484 L115.441 277.317 Q118.103 276.576 120.418 276.206 Q122.755 275.835 124.816 275.835 Q130.14 275.835 133.242 278.266 Q136.343 280.673 136.343 284.794 Q136.343 287.664 134.7 289.655 Q133.056 291.622 130.024 292.386 Z" fill="#000000" fill-rule="evenodd" fill-opacity="1" /><path clip-path="url(#clip140)" d="M146.019 305.141 L150.903 305.141 L150.903 311.02 L146.019 311.02 L146.019 305.141 Z" fill="#000000" fill-rule="evenodd" fill-opacity="1" /><path clip-path="url(#clip140)" d="M171.089 279.539 Q167.477 279.539 165.649 283.104 Q163.843 286.646 163.843 293.775 Q163.843 300.882 165.649 304.446 Q167.477 307.988 171.089 307.988 Q174.723 307.988 176.528 304.446 Q178.357 300.882 178.357 293.775 Q178.357 286.646 176.528 283.104 Q174.723 279.539 171.089 279.539 M171.089 275.835 Q176.899 275.835 179.954 280.442 Q183.033 285.025 183.033 293.775 Q183.033 302.502 179.954 307.108 Q176.899 311.692 171.089 311.692 Q165.278 311.692 162.2 307.108 Q159.144 302.502 159.144 293.775 Q159.144 285.025 162.2 280.442 Q165.278 275.835 171.089 275.835 Z" fill="#000000" fill-rule="evenodd" fill-opacity="1" /><path clip-path="url(#clip140)" d="M219.422 285.558 L208.843 296.183 L219.422 306.761 L216.667 309.562 L206.042 298.937 L195.417 309.562 L192.686 306.761 L203.241 296.183 L192.686 285.558 L195.417 282.757 L206.042 293.382 L216.667 282.757 L219.422 285.558 Z" fill="#000000" fill-rule="evenodd" fill-opacity="1" /><path clip-path="url(#clip140)" d="M231.783 307.085 L239.422 307.085 L239.422 280.72 L231.111 282.386 L231.111 278.127 L239.375 276.46 L244.051 276.46 L244.051 307.085 L251.69 307.085 L251.69 311.02 L231.783 311.02 L231.783 307.085 Z" fill="#000000" fill-rule="evenodd" fill-opacity="1" /><path clip-path="url(#clip140)" d="M271.134 279.539 Q267.523 279.539 265.695 283.104 Q263.889 286.646 263.889 293.775 Q263.889 300.882 265.695 304.446 Q267.523 307.988 271.134 307.988 Q274.769 307.988 276.574 304.446 Q278.403 300.882 278.403 293.775 Q278.403 286.646 276.574 283.104 Q274.769 279.539 271.134 279.539 M271.134 275.835 Q276.944 275.835 280 280.442 Q283.079 285.025 283.079 293.775 Q283.079 302.502 280 307.108 Q276.944 311.692 271.134 311.692 Q265.324 311.692 262.245 307.108 Q259.19 302.502 259.19 293.775 Q259.19 285.025 262.245 280.442 Q265.324 275.835 271.134 275.835 Z" fill="#000000" fill-rule="evenodd" fill-opacity="1" /><path clip-path="url(#clip140)" d="M295.755 258.84 L286.163 273.83 L295.755 273.83 L295.755 258.84 M294.758 255.53 L299.535 255.53 L299.535 273.83 L303.542 273.83 L303.542 276.99 L299.535 276.99 L299.535 283.61 L295.755 283.61 L295.755 276.99 L283.079 276.99 L283.079 273.322 L294.758 255.53 Z" fill="#000000" fill-rule="evenodd" fill-opacity="1" /><path clip-path="url(#clip140)" d="M58.657 985.364 L77.5631 985.364 L77.5631 991.252 L28.3562 991.252 L28.3562 985.364 L33.7671 985.364 Q30.5842 983.518 29.0564 980.717 Q27.4968 977.884 27.4968 973.97 Q27.4968 967.476 32.6531 963.434 Q37.8093 959.36 46.212 959.36 Q54.6147 959.36 59.771 963.434 Q64.9272 967.476 64.9272 973.97 Q64.9272 977.884 63.3994 980.717 Q61.8398 983.518 58.657 985.364 M46.212 965.439 Q39.7508 965.439 36.0905 968.113 Q32.3984 970.755 32.3984 975.402 Q32.3984 980.049 36.0905 982.722 Q39.7508 985.364 46.212 985.364 Q52.6732 985.364 56.3653 982.722 Q60.0256 980.049 60.0256 975.402 Q60.0256 970.755 56.3653 968.113 Q52.6732 965.439 46.212 965.439 Z" fill="#000000" fill-rule="evenodd" fill-opacity="1" /><path clip-path="url(#clip140)" d="M44.7161 919.161 L47.5806 919.161 L47.5806 946.088 Q53.6281 945.706 56.8109 942.459 Q59.9619 939.181 59.9619 933.356 Q59.9619 929.982 59.1344 926.831 Q58.3069 923.649 56.6518 920.529 L62.1899 920.529 Q63.5267 923.68 64.227 926.991 Q64.9272 930.301 64.9272 933.706 Q64.9272 942.236 59.9619 947.234 Q54.9967 952.199 46.5303 952.199 Q37.7774 952.199 32.6531 947.488 Q27.4968 942.746 27.4968 934.725 Q27.4968 927.532 32.1438 923.362 Q36.7589 919.161 44.7161 919.161 M42.9973 925.017 Q38.1912 925.081 35.3266 927.723 Q32.4621 930.333 32.4621 934.661 Q32.4621 939.563 35.2312 942.523 Q38.0002 945.451 43.0292 945.897 L42.9973 925.017 Z" fill="#000000" fill-rule="evenodd" fill-opacity="1" /><path clip-path="url(#clip140)" d="M33.8307 888.892 Q33.2578 889.879 33.0032 891.056 Q32.7167 892.202 32.7167 893.602 Q32.7167 898.568 35.9632 901.241 Q39.1779 903.883 45.2253 903.883 L64.0042 903.883 L64.0042 909.771 L28.3562 909.771 L28.3562 903.883 L33.8944 903.883 Q30.6479 902.037 29.0883 899.077 Q27.4968 896.117 27.4968 891.884 Q27.4968 891.279 27.5923 890.547 Q27.656 889.815 27.8151 888.924 L33.8307 888.892 Z" fill="#000000" fill-rule="evenodd" fill-opacity="1" /><path clip-path="url(#clip140)" d="M58.5933 860.087 L58.5933 849.584 L22.3406 849.584 L24.6323 861.01 L18.7758 861.01 L16.4842 849.647 L16.4842 843.218 L58.5933 843.218 L58.5933 832.714 L64.0042 832.714 L64.0042 860.087 L58.5933 860.087 Z" fill="#000000" fill-rule="evenodd" fill-opacity="1" /><path clip-path="url(#clip140)" d="M20.7174 805.979 Q20.7174 810.944 25.6189 813.458 Q30.4887 815.941 40.2919 815.941 Q50.0633 815.941 54.9649 813.458 Q59.8346 810.944 59.8346 805.979 Q59.8346 800.981 54.9649 798.499 Q50.0633 795.984 40.2919 795.984 Q30.4887 795.984 25.6189 798.499 Q20.7174 800.981 20.7174 805.979 M15.6248 805.979 Q15.6248 797.99 21.9587 793.788 Q28.2607 789.555 40.2919 789.555 Q52.2913 789.555 58.6251 793.788 Q64.9272 797.99 64.9272 805.979 Q64.9272 813.967 58.6251 818.201 Q52.2913 822.402 40.2919 822.402 Q28.2607 822.402 21.9587 818.201 Q15.6248 813.967 15.6248 805.979 Z" fill="#000000" fill-rule="evenodd" fill-opacity="1" /><path clip-path="url(#clip140)" d="M20.7174 764.506 Q20.7174 769.471 25.6189 771.986 Q30.4887 774.468 40.2919 774.468 Q50.0633 774.468 54.9649 771.986 Q59.8346 769.471 59.8346 764.506 Q59.8346 759.509 54.9649 757.026 Q50.0633 754.512 40.2919 754.512 Q30.4887 754.512 25.6189 757.026 Q20.7174 759.509 20.7174 764.506 M15.6248 764.506 Q15.6248 756.517 21.9587 752.316 Q28.2607 748.082 40.2919 748.082 Q52.2913 748.082 58.6251 752.316 Q64.9272 756.517 64.9272 764.506 Q64.9272 772.495 58.6251 776.728 Q52.2913 780.929 40.2919 780.929 Q28.2607 780.929 21.9587 776.728 Q15.6248 772.495 15.6248 764.506 Z" fill="#000000" fill-rule="evenodd" fill-opacity="1" /><path clip-path="url(#clip140)" d="M14.479 737.834 L14.479 731.945 L43.7294 731.945 L28.3562 714.471 L28.3562 706.992 L45.0344 725.898 L64.0042 706.196 L64.0042 713.835 L46.5939 731.945 L64.0042 731.945 L64.0042 737.834 L14.479 737.834 Z" fill="#000000" fill-rule="evenodd" fill-opacity="1" /><path clip-path="url(#clip140)" d="M16.4842 689.454 L16.4842 684.043 L70.0516 700.594 L70.0516 706.005 L16.4842 689.454 Z" fill="#000000" fill-rule="evenodd" fill-opacity="1" /><path clip-path="url(#clip140)" d="M67.3143 663.068 Q73.68 665.551 75.6216 667.906 Q77.5631 670.262 77.5631 674.208 L77.5631 678.887 L72.6615 678.887 L72.6615 675.45 Q72.6615 673.031 71.5157 671.694 Q70.3699 670.357 66.1048 668.734 L63.4312 667.684 L28.3562 682.102 L28.3562 675.895 L56.238 664.755 L28.3562 653.615 L28.3562 647.409 L67.3143 663.068 Z" fill="#000000" fill-rule="evenodd" fill-opacity="1" /><path clip-path="url(#clip140)" d="M33.8307 618.668 Q33.2578 619.654 33.0032 620.832 Q32.7167 621.978 32.7167 623.378 Q32.7167 628.343 35.9632 631.017 Q39.1779 633.659 45.2253 633.659 L64.0042 633.659 L64.0042 639.547 L28.3562 639.547 L28.3562 633.659 L33.8944 633.659 Q30.6479 631.813 29.0883 628.853 Q27.4968 625.893 27.4968 621.659 Q27.4968 621.055 27.5923 620.323 Q27.656 619.591 27.8151 618.699 L33.8307 618.668 Z" fill="#000000" fill-rule="evenodd" fill-opacity="1" /><path clip-path="url(#clip140)" d="M1006.62 20.1573 L995.523 50.2555 L1017.76 50.2555 L1006.62 20.1573 M1002 12.096 L1011.28 12.096 L1034.33 72.576 L1025.82 72.576 L1020.31 57.061 L993.052 57.061 L987.542 72.576 L978.914 72.576 L1002 12.096 Z" fill="#000000" fill-rule="evenodd" fill-opacity="1" /><path clip-path="url(#clip140)" d="M1042.07 54.671 L1042.07 27.2059 L1049.52 27.2059 L1049.52 54.3874 Q1049.52 60.8284 1052.03 64.0691 Q1054.54 67.2693 1059.57 67.2693 Q1065.6 67.2693 1069.09 63.421 Q1072.61 59.5726 1072.61 52.9291 L1072.61 27.2059 L1080.07 27.2059 L1080.07 72.576 L1072.61 72.576 L1072.61 65.6084 Q1069.9 69.7404 1066.29 71.7658 Q1062.73 73.7508 1057.99 73.7508 Q1050.17 73.7508 1046.12 68.8897 Q1042.07 64.0286 1042.07 54.671 M1060.82 26.1121 L1060.82 26.1121 Z" fill="#000000" fill-rule="evenodd" fill-opacity="1" /><path clip-path="url(#clip140)" d="M1124.34 28.5427 L1124.34 35.5912 Q1121.18 33.9709 1117.78 33.1607 Q1114.38 32.3505 1110.73 32.3505 Q1105.18 32.3505 1102.39 34.0519 Q1099.63 35.7533 1099.63 39.156 Q1099.63 41.7486 1101.62 43.2475 Q1103.6 44.7058 1109.6 46.0426 L1112.15 46.6097 Q1120.09 48.3111 1123.41 51.4303 Q1126.77 54.509 1126.77 60.0587 Q1126.77 66.3781 1121.75 70.0644 Q1116.77 73.7508 1108.02 73.7508 Q1104.37 73.7508 1100.4 73.0216 Q1096.47 72.3329 1092.1 70.9151 L1092.1 63.2184 Q1096.23 65.3654 1100.24 66.4591 Q1104.25 67.5124 1108.18 67.5124 Q1113.44 67.5124 1116.28 65.73 Q1119.12 63.9071 1119.12 60.6258 Q1119.12 57.5877 1117.05 55.9673 Q1115.02 54.3469 1108.1 52.8481 L1105.5 52.2405 Q1098.58 50.7821 1095.5 47.7845 Q1092.42 44.7463 1092.42 39.4801 Q1092.42 33.0797 1096.96 29.5959 Q1101.49 26.1121 1109.84 26.1121 Q1113.97 26.1121 1117.62 26.7198 Q1121.26 27.3274 1124.34 28.5427 Z" fill="#000000" fill-rule="evenodd" fill-opacity="1" /><path clip-path="url(#clip140)" d="M1146.01 14.324 L1146.01 27.2059 L1161.37 27.2059 L1161.37 32.9987 L1146.01 32.9987 L1146.01 57.6282 Q1146.01 63.1779 1147.51 64.7578 Q1149.05 66.3376 1153.71 66.3376 L1161.37 66.3376 L1161.37 72.576 L1153.71 72.576 Q1145.08 72.576 1141.8 69.3758 Q1138.52 66.1351 1138.52 57.6282 L1138.52 32.9987 L1133.05 32.9987 L1133.05 27.2059 L1138.52 27.2059 L1138.52 14.324 L1146.01 14.324 Z" fill="#000000" fill-rule="evenodd" fill-opacity="1" /><path clip-path="url(#clip140)" d="M1197.46 34.1734 Q1196.2 33.4443 1194.71 33.1202 Q1193.25 32.7556 1191.46 32.7556 Q1185.15 32.7556 1181.74 36.8875 Q1178.38 40.9789 1178.38 48.6757 L1178.38 72.576 L1170.89 72.576 L1170.89 27.2059 L1178.38 27.2059 L1178.38 34.2544 Q1180.73 30.1225 1184.5 28.1376 Q1188.26 26.1121 1193.65 26.1121 Q1194.42 26.1121 1195.35 26.2337 Q1196.29 26.3147 1197.42 26.5172 L1197.46 34.1734 Z" fill="#000000" fill-rule="evenodd" fill-opacity="1" /><path clip-path="url(#clip140)" d="M1225.9 49.7694 Q1216.86 49.7694 1213.38 51.8354 Q1209.9 53.9013 1209.9 58.8839 Q1209.9 62.8538 1212.49 65.2034 Q1215.12 67.5124 1219.62 67.5124 Q1225.82 67.5124 1229.54 63.1374 Q1233.31 58.7219 1233.31 51.4303 L1233.31 49.7694 L1225.9 49.7694 M1240.76 46.6907 L1240.76 72.576 L1233.31 72.576 L1233.31 65.6895 Q1230.76 69.8214 1226.95 71.8063 Q1223.14 73.7508 1217.63 73.7508 Q1210.67 73.7508 1206.53 69.8619 Q1202.44 65.9325 1202.44 59.3701 Q1202.44 51.7138 1207.55 47.825 Q1212.69 43.9361 1222.86 43.9361 L1233.31 43.9361 L1233.31 43.2069 Q1233.31 38.0623 1229.91 35.2672 Q1226.55 32.4315 1220.43 32.4315 Q1216.54 32.4315 1212.85 33.3632 Q1209.17 34.295 1205.76 36.1584 L1205.76 29.2718 Q1209.86 27.692 1213.7 26.9223 Q1217.55 26.1121 1221.2 26.1121 Q1231.04 26.1121 1235.9 31.2163 Q1240.76 36.3204 1240.76 46.6907 Z" fill="#000000" fill-rule="evenodd" fill-opacity="1" /><path clip-path="url(#clip140)" d="M1256.12 9.54393 L1263.57 9.54393 L1263.57 72.576 L1256.12 72.576 L1256.12 9.54393 Z" fill="#000000" fill-rule="evenodd" fill-opacity="1" /><path clip-path="url(#clip140)" d="M1279.17 27.2059 L1286.62 27.2059 L1286.62 72.576 L1279.17 72.576 L1279.17 27.2059 M1279.17 9.54393 L1286.62 9.54393 L1286.62 18.9825 L1279.17 18.9825 L1279.17 9.54393 Z" fill="#000000" fill-rule="evenodd" fill-opacity="1" /><path clip-path="url(#clip140)" d="M1322.84 49.7694 Q1313.8 49.7694 1310.32 51.8354 Q1306.83 53.9013 1306.83 58.8839 Q1306.83 62.8538 1309.43 65.2034 Q1312.06 67.5124 1316.56 67.5124 Q1322.75 67.5124 1326.48 63.1374 Q1330.25 58.7219 1330.25 51.4303 L1330.25 49.7694 L1322.84 49.7694 M1337.7 46.6907 L1337.7 72.576 L1330.25 72.576 L1330.25 65.6895 Q1327.7 69.8214 1323.89 71.8063 Q1320.08 73.7508 1314.57 73.7508 Q1307.6 73.7508 1303.47 69.8619 Q1299.38 65.9325 1299.38 59.3701 Q1299.38 51.7138 1304.49 47.825 Q1309.63 43.9361 1319.8 43.9361 L1330.25 43.9361 L1330.25 43.2069 Q1330.25 38.0623 1326.85 35.2672 Q1323.48 32.4315 1317.37 32.4315 Q1313.48 32.4315 1309.79 33.3632 Q1306.11 34.295 1302.7 36.1584 L1302.7 29.2718 Q1306.79 27.692 1310.64 26.9223 Q1314.49 26.1121 1318.14 26.1121 Q1327.98 26.1121 1332.84 31.2163 Q1337.7 36.3204 1337.7 46.6907 Z" fill="#000000" fill-rule="evenodd" fill-opacity="1" /><path clip-path="url(#clip140)" d="M1408.43 44.2197 Q1411.06 45.1109 1413.54 48.0275 Q1416.05 50.9442 1418.56 56.0483 L1426.86 72.576 L1418.07 72.576 L1410.34 57.061 Q1407.34 50.9847 1404.5 48.9997 Q1401.71 47.0148 1396.85 47.0148 L1387.93 47.0148 L1387.93 72.576 L1379.75 72.576 L1379.75 12.096 L1398.22 12.096 Q1408.59 12.096 1413.7 16.4305 Q1418.8 20.7649 1418.8 29.5149 Q1418.8 35.2267 1416.13 38.994 Q1413.5 42.7613 1408.43 44.2197 M1387.93 18.8205 L1387.93 40.2903 L1398.22 40.2903 Q1404.14 40.2903 1407.14 37.5762 Q1410.17 34.8216 1410.17 29.5149 Q1410.17 24.2082 1407.14 21.5346 Q1404.14 18.8205 1398.22 18.8205 L1387.93 18.8205 Z" fill="#000000" fill-rule="evenodd" fill-opacity="1" /><path clip-path="url(#clip140)" d="M1450.93 32.4315 Q1444.93 32.4315 1441.45 37.1306 Q1437.96 41.7891 1437.96 49.9314 Q1437.96 58.0738 1441.41 62.7728 Q1444.89 67.4314 1450.93 67.4314 Q1456.88 67.4314 1460.36 62.7323 Q1463.85 58.0333 1463.85 49.9314 Q1463.85 41.8701 1460.36 37.1711 Q1456.88 32.4315 1450.93 32.4315 M1450.93 26.1121 Q1460.65 26.1121 1466.2 32.4315 Q1471.75 38.7509 1471.75 49.9314 Q1471.75 61.0714 1466.2 67.4314 Q1460.65 73.7508 1450.93 73.7508 Q1441.16 73.7508 1435.61 67.4314 Q1430.1 61.0714 1430.1 49.9314 Q1430.1 38.7509 1435.61 32.4315 Q1441.16 26.1121 1450.93 26.1121 Z" fill="#000000" fill-rule="evenodd" fill-opacity="1" /><path clip-path="url(#clip140)" d="M1516.67 49.9314 Q1516.67 41.7081 1513.27 37.0496 Q1509.91 32.3505 1503.99 32.3505 Q1498.08 32.3505 1494.68 37.0496 Q1491.31 41.7081 1491.31 49.9314 Q1491.31 58.1548 1494.68 62.8538 Q1498.08 67.5124 1503.99 67.5124 Q1509.91 67.5124 1513.27 62.8538 Q1516.67 58.1548 1516.67 49.9314 M1491.31 34.0924 Q1493.66 30.0415 1497.23 28.0971 Q1500.83 26.1121 1505.82 26.1121 Q1514.08 26.1121 1519.22 32.6746 Q1524.41 39.2371 1524.41 49.9314 Q1524.41 60.6258 1519.22 67.1883 Q1514.08 73.7508 1505.82 73.7508 Q1500.83 73.7508 1497.23 71.8063 Q1493.66 69.8214 1491.31 65.7705 L1491.31 72.576 L1483.82 72.576 L1483.82 9.54393 L1491.31 9.54393 L1491.31 34.0924 Z" fill="#000000" fill-rule="evenodd" fill-opacity="1" /><path clip-path="url(#clip140)" d="M1569.33 49.9314 Q1569.33 41.7081 1565.93 37.0496 Q1562.57 32.3505 1556.65 32.3505 Q1550.74 32.3505 1547.34 37.0496 Q1543.97 41.7081 1543.97 49.9314 Q1543.97 58.1548 1547.34 62.8538 Q1550.74 67.5124 1556.65 67.5124 Q1562.57 67.5124 1565.93 62.8538 Q1569.33 58.1548 1569.33 49.9314 M1543.97 34.0924 Q1546.32 30.0415 1549.89 28.0971 Q1553.49 26.1121 1558.48 26.1121 Q1566.74 26.1121 1571.89 32.6746 Q1577.07 39.2371 1577.07 49.9314 Q1577.07 60.6258 1571.89 67.1883 Q1566.74 73.7508 1558.48 73.7508 Q1553.49 73.7508 1549.89 71.8063 Q1546.32 69.8214 1543.97 65.7705 L1543.97 72.576 L1536.48 72.576 L1536.48 9.54393 L1543.97 9.54393 L1543.97 34.0924 Z" fill="#000000" fill-rule="evenodd" fill-opacity="1" /><path clip-path="url(#clip140)" d="M1628.23 48.0275 L1628.23 51.6733 L1593.96 51.6733 Q1594.45 59.3701 1598.58 63.421 Q1602.75 67.4314 1610.17 67.4314 Q1614.46 67.4314 1618.47 66.3781 Q1622.52 65.3249 1626.49 63.2184 L1626.49 70.267 Q1622.48 71.9684 1618.27 72.8596 Q1614.06 73.7508 1609.72 73.7508 Q1598.86 73.7508 1592.5 67.4314 Q1586.19 61.1119 1586.19 50.3365 Q1586.19 39.1965 1592.18 32.6746 Q1598.22 26.1121 1608.42 26.1121 Q1617.58 26.1121 1622.89 32.0264 Q1628.23 37.9003 1628.23 48.0275 M1620.78 45.84 Q1620.7 39.7232 1617.34 36.0774 Q1614.01 32.4315 1608.51 32.4315 Q1602.27 32.4315 1598.5 35.9558 Q1594.77 39.4801 1594.21 45.8805 L1620.78 45.84 Z" fill="#000000" fill-rule="evenodd" fill-opacity="1" /><path clip-path="url(#clip140)" d="M1666.76 34.1734 Q1665.5 33.4443 1664 33.1202 Q1662.54 32.7556 1660.76 32.7556 Q1654.44 32.7556 1651.04 36.8875 Q1647.68 40.9789 1647.68 48.6757 L1647.68 72.576 L1640.18 72.576 L1640.18 27.2059 L1647.68 27.2059 L1647.68 34.2544 Q1650.03 30.1225 1653.79 28.1376 Q1657.56 26.1121 1662.95 26.1121 Q1663.72 26.1121 1664.65 26.2337 Q1665.58 26.3147 1666.72 26.5172 L1666.76 34.1734 Z" fill="#000000" fill-rule="evenodd" fill-opacity="1" /><path clip-path="url(#clip140)" d="M1693.45 76.7889 Q1690.29 84.8907 1687.3 87.3618 Q1684.3 89.8329 1679.27 89.8329 L1673.32 89.8329 L1673.32 83.5945 L1677.69 83.5945 Q1680.77 83.5945 1682.48 82.1361 Q1684.18 80.6778 1686.24 75.2496 L1687.58 71.8468 L1669.23 27.2059 L1677.13 27.2059 L1691.31 62.6918 L1705.48 27.2059 L1713.38 27.2059 L1693.45 76.7889 Z" fill="#000000" fill-rule="evenodd" fill-opacity="1" /><polyline clip-path="url(#clip142)" style="stroke:#009af9; stroke-linecap:butt; stroke-linejoin:round; stroke-width:4; stroke-opacity:1; fill:none" points="
  396.519,953.969 469.568,907.507 542.616,884.334 615.665,814.544 688.713,623.59 761.761,526.991 834.81,573.299 907.858,545.212 980.907,419.212 1053.96,635.854 
  1127,685.449 1200.05,809.128 1273.1,783.441 1346.15,775.742 1419.2,751.796 1492.25,809.012 1565.29,857.989 1638.34,881.742 1711.39,919.809 1784.44,938.727 
  1857.49,994.821 1930.54,1065.15 2003.58,1100.94 2076.63,1083.76 2149.68,1076.8 2222.73,1056.29 2295.78,992.345 
  "/>
<polyline clip-path="url(#clip142)" style="stroke:#e26f46; stroke-linecap:butt; stroke-linejoin:round; stroke-width:4; stroke-opacity:1; fill:none" points="
  615.665,1447.87 615.665,162.047 
  "/>
<path clip-path="url(#clip140)" d="
M1860.36 324.425 L2285.65 324.425 L2285.65 168.905 L1860.36 168.905  Z
  " fill="#ffffff" fill-rule="evenodd" fill-opacity="1"/>
<polyline clip-path="url(#clip140)" style="stroke:#000000; stroke-linecap:butt; stroke-linejoin:round; stroke-width:4; stroke-opacity:1; fill:none" points="
  1860.36,324.425 2285.65,324.425 2285.65,168.905 1860.36,168.905 1860.36,324.425 
  "/>
<polyline clip-path="url(#clip140)" style="stroke:#009af9; stroke-linecap:butt; stroke-linejoin:round; stroke-width:4; stroke-opacity:1; fill:none" points="
  1882.73,220.745 2016.95,220.745 
  "/>
<path clip-path="url(#clip140)" d="M2053.16 240.432 Q2051.35 245.062 2049.64 246.474 Q2047.93 247.886 2045.06 247.886 L2041.65 247.886 L2041.65 244.321 L2044.15 244.321 Q2045.91 244.321 2046.88 243.488 Q2047.86 242.654 2049.04 239.552 L2049.8 237.608 L2039.31 212.099 L2043.83 212.099 L2051.93 232.377 L2060.03 212.099 L2064.55 212.099 L2053.16 240.432 Z" fill="#000000" fill-rule="evenodd" fill-opacity="1" /><path clip-path="url(#clip140)" d="M2071.84 234.089 L2079.48 234.089 L2079.48 207.724 L2071.17 209.391 L2071.17 205.131 L2079.43 203.465 L2084.11 203.465 L2084.11 234.089 L2091.74 234.089 L2091.74 238.025 L2071.84 238.025 L2071.84 234.089 Z" fill="#000000" fill-rule="evenodd" fill-opacity="1" /><polyline clip-path="url(#clip140)" style="stroke:#e26f46; stroke-linecap:butt; stroke-linejoin:round; stroke-width:4; stroke-opacity:1; fill:none" points="
  1882.73,272.585 2016.95,272.585 
  "/>
<path clip-path="url(#clip140)" d="M2039.31 255.305 L2045.61 255.305 L2060.93 284.217 L2060.93 255.305 L2065.47 255.305 L2065.47 289.865 L2059.18 289.865 L2043.85 260.953 L2043.85 289.865 L2039.31 289.865 L2039.31 255.305 Z" fill="#000000" fill-rule="evenodd" fill-opacity="1" /><path clip-path="url(#clip140)" d="M2074.78 255.305 L2094.64 255.305 L2094.64 259.24 L2079.45 259.24 L2079.45 269.425 L2093.16 269.425 L2093.16 273.36 L2079.45 273.36 L2079.45 289.865 L2074.78 289.865 L2074.78 255.305 Z" fill="#000000" fill-rule="evenodd" fill-opacity="1" /><path clip-path="url(#clip140)" d="M2109.24 259.911 L2102.9 277.11 L2115.61 277.11 L2109.24 259.911 M2106.61 255.305 L2111.91 255.305 L2125.08 289.865 L2120.22 289.865 L2117.07 280.999 L2101.49 280.999 L2098.34 289.865 L2093.41 289.865 L2106.61 255.305 Z" fill="#000000" fill-rule="evenodd" fill-opacity="1" /><path clip-path="url(#clip140)" d="M2140.45 255.305 L2145.47 255.305 L2155.05 269.518 L2164.57 255.305 L2169.59 255.305 L2157.37 273.406 L2157.37 289.865 L2152.67 289.865 L2152.67 273.406 L2140.45 255.305 Z" fill="#000000" fill-rule="evenodd" fill-opacity="1" /><path clip-path="url(#clip140)" d="M2189.85 275.837 L2189.85 277.92 L2170.26 277.92 Q2170.54 282.318 2172.9 284.633 Q2175.29 286.925 2179.52 286.925 Q2181.98 286.925 2184.27 286.323 Q2186.58 285.721 2188.85 284.517 L2188.85 288.545 Q2186.56 289.517 2184.15 290.027 Q2181.74 290.536 2179.27 290.536 Q2173.06 290.536 2169.43 286.925 Q2165.82 283.314 2165.82 277.156 Q2165.82 270.791 2169.24 267.064 Q2172.69 263.314 2178.53 263.314 Q2183.76 263.314 2186.79 266.693 Q2189.85 270.05 2189.85 275.837 M2185.59 274.587 Q2185.54 271.092 2183.62 269.008 Q2181.72 266.925 2178.57 266.925 Q2175.01 266.925 2172.86 268.939 Q2170.73 270.953 2170.4 274.61 L2185.59 274.587 Z" fill="#000000" fill-rule="evenodd" fill-opacity="1" /><path clip-path="url(#clip140)" d="M2208.62 276.832 Q2203.46 276.832 2201.47 278.013 Q2199.48 279.193 2199.48 282.041 Q2199.48 284.309 2200.96 285.652 Q2202.46 286.971 2205.03 286.971 Q2208.57 286.971 2210.7 284.471 Q2212.86 281.948 2212.86 277.781 L2212.86 276.832 L2208.62 276.832 M2217.11 275.073 L2217.11 289.865 L2212.86 289.865 L2212.86 285.929 Q2211.4 288.291 2209.22 289.425 Q2207.05 290.536 2203.9 290.536 Q2199.92 290.536 2197.55 288.314 Q2195.22 286.068 2195.22 282.318 Q2195.22 277.943 2198.13 275.721 Q2201.07 273.499 2206.88 273.499 L2212.86 273.499 L2212.86 273.082 Q2212.86 270.143 2210.91 268.545 Q2208.99 266.925 2205.49 266.925 Q2203.27 266.925 2201.17 267.457 Q2199.06 267.99 2197.11 269.055 L2197.11 265.119 Q2199.45 264.217 2201.65 263.777 Q2203.85 263.314 2205.93 263.314 Q2211.56 263.314 2214.34 266.231 Q2217.11 269.147 2217.11 275.073 Z" fill="#000000" fill-rule="evenodd" fill-opacity="1" /><path clip-path="url(#clip140)" d="M2240.91 267.92 Q2240.19 267.504 2239.34 267.318 Q2238.5 267.11 2237.48 267.11 Q2233.87 267.11 2231.93 269.471 Q2230.01 271.809 2230.01 276.207 L2230.01 289.865 L2225.73 289.865 L2225.73 263.939 L2230.01 263.939 L2230.01 267.967 Q2231.35 265.606 2233.5 264.471 Q2235.66 263.314 2238.73 263.314 Q2239.17 263.314 2239.71 263.383 Q2240.24 263.43 2240.89 263.545 L2240.91 267.92 Z" fill="#000000" fill-rule="evenodd" fill-opacity="1" /></svg>
