<?xml version="1.0" encoding="utf-8"?>
<svg xmlns="http://www.w3.org/2000/svg" xmlns:xlink="http://www.w3.org/1999/xlink" width="600" height="400" viewBox="0 0 2400 1600">
<defs>
  <clipPath id="clip980">
    <rect x="0" y="0" width="2400" height="1600"/>
  </clipPath>
</defs>
<path clip-path="url(#clip980)" d="
M0 1600 L2400 1600 L2400 0 L0 0  Z
  " fill="#ffffff" fill-rule="evenodd" fill-opacity="1"/>
<defs>
  <clipPath id="clip981">
    <rect x="480" y="0" width="1681" height="1600"/>
  </clipPath>
</defs>
<path clip-path="url(#clip980)" d="
M138.959 1486.45 L2352.76 1486.45 L2352.76 123.472 L138.959 123.472  Z
  " fill="#ffffff" fill-rule="evenodd" fill-opacity="1"/>
<defs>
  <clipPath id="clip982">
    <rect x="138" y="123" width="2215" height="1364"/>
  </clipPath>
</defs>
<polyline clip-path="url(#clip982)" style="stroke:#000000; stroke-linecap:butt; stroke-linejoin:round; stroke-width:2; stroke-opacity:0.1; fill:none" points="
  201.614,1486.45 201.614,123.472 
  "/>
<polyline clip-path="url(#clip982)" style="stroke:#000000; stroke-linecap:butt; stroke-linejoin:round; stroke-width:2; stroke-opacity:0.1; fill:none" points="
  751.216,1486.45 751.216,123.472 
  "/>
<polyline clip-path="url(#clip982)" style="stroke:#000000; stroke-linecap:butt; stroke-linejoin:round; stroke-width:2; stroke-opacity:0.1; fill:none" points="
  1300.82,1486.45 1300.82,123.472 
  "/>
<polyline clip-path="url(#clip982)" style="stroke:#000000; stroke-linecap:butt; stroke-linejoin:round; stroke-width:2; stroke-opacity:0.1; fill:none" points="
  1850.42,1486.45 1850.42,123.472 
  "/>
<polyline clip-path="url(#clip980)" style="stroke:#000000; stroke-linecap:butt; stroke-linejoin:round; stroke-width:4; stroke-opacity:1; fill:none" points="
  138.959,1486.45 2352.76,1486.45 
  "/>
<polyline clip-path="url(#clip980)" style="stroke:#000000; stroke-linecap:butt; stroke-linejoin:round; stroke-width:4; stroke-opacity:1; fill:none" points="
  201.614,1486.45 201.614,1467.55 
  "/>
<polyline clip-path="url(#clip980)" style="stroke:#000000; stroke-linecap:butt; stroke-linejoin:round; stroke-width:4; stroke-opacity:1; fill:none" points="
  751.216,1486.45 751.216,1467.55 
  "/>
<polyline clip-path="url(#clip980)" style="stroke:#000000; stroke-linecap:butt; stroke-linejoin:round; stroke-width:4; stroke-opacity:1; fill:none" points="
  1300.82,1486.45 1300.82,1467.55 
  "/>
<polyline clip-path="url(#clip980)" style="stroke:#000000; stroke-linecap:butt; stroke-linejoin:round; stroke-width:4; stroke-opacity:1; fill:none" points="
  1850.42,1486.45 1850.42,1467.55 
  "/>
<path clip-path="url(#clip980)" d="M150.225 1544.91 L166.545 1544.91 L166.545 1548.85 L144.6 1548.85 L144.6 1544.91 Q147.262 1542.16 151.846 1537.53 Q156.452 1532.88 157.633 1531.53 Q159.878 1529.01 160.758 1527.27 Q161.661 1525.51 161.661 1523.82 Q161.661 1521.07 159.716 1519.33 Q157.795 1517.6 154.693 1517.6 Q152.494 1517.6 150.04 1518.36 Q147.61 1519.13 144.832 1520.68 L144.832 1515.95 Q147.656 1514.82 150.11 1514.24 Q152.563 1513.66 154.6 1513.66 Q159.971 1513.66 163.165 1516.35 Q166.36 1519.03 166.36 1523.52 Q166.36 1525.65 165.549 1527.57 Q164.762 1529.47 162.656 1532.07 Q162.077 1532.74 158.975 1535.95 Q155.874 1539.15 150.225 1544.91 Z" fill="#000000" fill-rule="evenodd" fill-opacity="1" /><path clip-path="url(#clip980)" d="M186.36 1517.37 Q182.748 1517.37 180.92 1520.93 Q179.114 1524.47 179.114 1531.6 Q179.114 1538.71 180.92 1542.27 Q182.748 1545.82 186.36 1545.82 Q189.994 1545.82 191.799 1542.27 Q193.628 1538.71 193.628 1531.6 Q193.628 1524.47 191.799 1520.93 Q189.994 1517.37 186.36 1517.37 M186.36 1513.66 Q192.17 1513.66 195.225 1518.27 Q198.304 1522.85 198.304 1531.6 Q198.304 1540.33 195.225 1544.94 Q192.17 1549.52 186.36 1549.52 Q180.549 1549.52 177.471 1544.94 Q174.415 1540.33 174.415 1531.6 Q174.415 1522.85 177.471 1518.27 Q180.549 1513.66 186.36 1513.66 Z" fill="#000000" fill-rule="evenodd" fill-opacity="1" /><path clip-path="url(#clip980)" d="M216.521 1517.37 Q212.91 1517.37 211.082 1520.93 Q209.276 1524.47 209.276 1531.6 Q209.276 1538.71 211.082 1542.27 Q212.91 1545.82 216.521 1545.82 Q220.156 1545.82 221.961 1542.27 Q223.79 1538.71 223.79 1531.6 Q223.79 1524.47 221.961 1520.93 Q220.156 1517.37 216.521 1517.37 M216.521 1513.66 Q222.332 1513.66 225.387 1518.27 Q228.466 1522.85 228.466 1531.6 Q228.466 1540.33 225.387 1544.94 Q222.332 1549.52 216.521 1549.52 Q210.711 1549.52 207.633 1544.94 Q204.577 1540.33 204.577 1531.6 Q204.577 1522.85 207.633 1518.27 Q210.711 1513.66 216.521 1513.66 Z" fill="#000000" fill-rule="evenodd" fill-opacity="1" /><path clip-path="url(#clip980)" d="M246.683 1517.37 Q243.072 1517.37 241.243 1520.93 Q239.438 1524.47 239.438 1531.6 Q239.438 1538.71 241.243 1542.27 Q243.072 1545.82 246.683 1545.82 Q250.317 1545.82 252.123 1542.27 Q253.952 1538.71 253.952 1531.6 Q253.952 1524.47 252.123 1520.93 Q250.317 1517.37 246.683 1517.37 M246.683 1513.66 Q252.493 1513.66 255.549 1518.27 Q258.628 1522.85 258.628 1531.6 Q258.628 1540.33 255.549 1544.94 Q252.493 1549.52 246.683 1549.52 Q240.873 1549.52 237.794 1544.94 Q234.739 1540.33 234.739 1531.6 Q234.739 1522.85 237.794 1518.27 Q240.873 1513.66 246.683 1513.66 Z" fill="#000000" fill-rule="evenodd" fill-opacity="1" /><path clip-path="url(#clip980)" d="M700.325 1544.91 L716.644 1544.91 L716.644 1548.85 L694.7 1548.85 L694.7 1544.91 Q697.362 1542.16 701.945 1537.53 Q706.552 1532.88 707.732 1531.53 Q709.978 1529.01 710.857 1527.27 Q711.76 1525.51 711.76 1523.82 Q711.76 1521.07 709.816 1519.33 Q707.894 1517.6 704.793 1517.6 Q702.594 1517.6 700.14 1518.36 Q697.709 1519.13 694.932 1520.68 L694.932 1515.95 Q697.756 1514.82 700.209 1514.24 Q702.663 1513.66 704.7 1513.66 Q710.07 1513.66 713.265 1516.35 Q716.459 1519.03 716.459 1523.52 Q716.459 1525.65 715.649 1527.57 Q714.862 1529.47 712.756 1532.07 Q712.177 1532.74 709.075 1535.95 Q705.973 1539.15 700.325 1544.91 Z" fill="#000000" fill-rule="evenodd" fill-opacity="1" /><path clip-path="url(#clip980)" d="M736.459 1517.37 Q732.848 1517.37 731.019 1520.93 Q729.214 1524.47 729.214 1531.6 Q729.214 1538.71 731.019 1542.27 Q732.848 1545.82 736.459 1545.82 Q740.093 1545.82 741.899 1542.27 Q743.728 1538.71 743.728 1531.6 Q743.728 1524.47 741.899 1520.93 Q740.093 1517.37 736.459 1517.37 M736.459 1513.66 Q742.269 1513.66 745.325 1518.27 Q748.403 1522.85 748.403 1531.6 Q748.403 1540.33 745.325 1544.94 Q742.269 1549.52 736.459 1549.52 Q730.649 1549.52 727.57 1544.94 Q724.515 1540.33 724.515 1531.6 Q724.515 1522.85 727.57 1518.27 Q730.649 1513.66 736.459 1513.66 Z" fill="#000000" fill-rule="evenodd" fill-opacity="1" /><path clip-path="url(#clip980)" d="M766.621 1517.37 Q763.01 1517.37 761.181 1520.93 Q759.376 1524.47 759.376 1531.6 Q759.376 1538.71 761.181 1542.27 Q763.01 1545.82 766.621 1545.82 Q770.255 1545.82 772.061 1542.27 Q773.889 1538.71 773.889 1531.6 Q773.889 1524.47 772.061 1520.93 Q770.255 1517.37 766.621 1517.37 M766.621 1513.66 Q772.431 1513.66 775.487 1518.27 Q778.565 1522.85 778.565 1531.6 Q778.565 1540.33 775.487 1544.94 Q772.431 1549.52 766.621 1549.52 Q760.811 1549.52 757.732 1544.94 Q754.677 1540.33 754.677 1531.6 Q754.677 1522.85 757.732 1518.27 Q760.811 1513.66 766.621 1513.66 Z" fill="#000000" fill-rule="evenodd" fill-opacity="1" /><path clip-path="url(#clip980)" d="M786.829 1514.29 L805.186 1514.29 L805.186 1518.22 L791.112 1518.22 L791.112 1526.7 Q792.13 1526.35 793.149 1526.19 Q794.167 1526 795.186 1526 Q800.973 1526 804.352 1529.17 Q807.732 1532.34 807.732 1537.76 Q807.732 1543.34 804.26 1546.44 Q800.787 1549.52 794.468 1549.52 Q792.292 1549.52 790.024 1549.15 Q787.778 1548.78 785.371 1548.04 L785.371 1543.34 Q787.454 1544.47 789.676 1545.03 Q791.899 1545.58 794.375 1545.58 Q798.38 1545.58 800.718 1543.48 Q803.056 1541.37 803.056 1537.76 Q803.056 1534.15 800.718 1532.04 Q798.38 1529.94 794.375 1529.94 Q792.5 1529.94 790.625 1530.35 Q788.774 1530.77 786.829 1531.65 L786.829 1514.29 Z" fill="#000000" fill-rule="evenodd" fill-opacity="1" /><path clip-path="url(#clip980)" d="M1249.43 1544.91 L1265.75 1544.91 L1265.75 1548.85 L1243.8 1548.85 L1243.8 1544.91 Q1246.47 1542.16 1251.05 1537.53 Q1255.66 1532.88 1256.84 1531.53 Q1259.08 1529.01 1259.96 1527.27 Q1260.86 1525.51 1260.86 1523.82 Q1260.86 1521.07 1258.92 1519.33 Q1257 1517.6 1253.9 1517.6 Q1251.7 1517.6 1249.24 1518.36 Q1246.81 1519.13 1244.04 1520.68 L1244.04 1515.95 Q1246.86 1514.82 1249.31 1514.24 Q1251.77 1513.66 1253.8 1513.66 Q1259.17 1513.66 1262.37 1516.35 Q1265.56 1519.03 1265.56 1523.52 Q1265.56 1525.65 1264.75 1527.57 Q1263.97 1529.47 1261.86 1532.07 Q1261.28 1532.74 1258.18 1535.95 Q1255.08 1539.15 1249.43 1544.91 Z" fill="#000000" fill-rule="evenodd" fill-opacity="1" /><path clip-path="url(#clip980)" d="M1285.56 1517.37 Q1281.95 1517.37 1280.12 1520.93 Q1278.32 1524.47 1278.32 1531.6 Q1278.32 1538.71 1280.12 1542.27 Q1281.95 1545.82 1285.56 1545.82 Q1289.2 1545.82 1291 1542.27 Q1292.83 1538.71 1292.83 1531.6 Q1292.83 1524.47 1291 1520.93 Q1289.2 1517.37 1285.56 1517.37 M1285.56 1513.66 Q1291.37 1513.66 1294.43 1518.27 Q1297.51 1522.85 1297.51 1531.6 Q1297.51 1540.33 1294.43 1544.94 Q1291.37 1549.52 1285.56 1549.52 Q1279.75 1549.52 1276.67 1544.94 Q1273.62 1540.33 1273.62 1531.6 Q1273.62 1522.85 1276.67 1518.27 Q1279.75 1513.66 1285.56 1513.66 Z" fill="#000000" fill-rule="evenodd" fill-opacity="1" /><path clip-path="url(#clip980)" d="M1306.54 1544.91 L1314.17 1544.91 L1314.17 1518.55 L1305.86 1520.21 L1305.86 1515.95 L1314.13 1514.29 L1318.8 1514.29 L1318.8 1544.91 L1326.44 1544.91 L1326.44 1548.85 L1306.54 1548.85 L1306.54 1544.91 Z" fill="#000000" fill-rule="evenodd" fill-opacity="1" /><path clip-path="url(#clip980)" d="M1345.89 1517.37 Q1342.28 1517.37 1340.45 1520.93 Q1338.64 1524.47 1338.64 1531.6 Q1338.64 1538.71 1340.45 1542.27 Q1342.28 1545.82 1345.89 1545.82 Q1349.52 1545.82 1351.33 1542.27 Q1353.16 1538.71 1353.16 1531.6 Q1353.16 1524.47 1351.33 1520.93 Q1349.52 1517.37 1345.89 1517.37 M1345.89 1513.66 Q1351.7 1513.66 1354.75 1518.27 Q1357.83 1522.85 1357.83 1531.6 Q1357.83 1540.33 1354.75 1544.94 Q1351.7 1549.52 1345.89 1549.52 Q1340.08 1549.52 1337 1544.94 Q1333.94 1540.33 1333.94 1531.6 Q1333.94 1522.85 1337 1518.27 Q1340.08 1513.66 1345.89 1513.66 Z" fill="#000000" fill-rule="evenodd" fill-opacity="1" /><path clip-path="url(#clip980)" d="M1799.53 1544.91 L1815.85 1544.91 L1815.85 1548.85 L1793.9 1548.85 L1793.9 1544.91 Q1796.57 1542.16 1801.15 1537.53 Q1805.76 1532.88 1806.94 1531.53 Q1809.18 1529.01 1810.06 1527.27 Q1810.96 1525.51 1810.96 1523.82 Q1810.96 1521.07 1809.02 1519.33 Q1807.1 1517.6 1804 1517.6 Q1801.8 1517.6 1799.34 1518.36 Q1796.91 1519.13 1794.14 1520.68 L1794.14 1515.95 Q1796.96 1514.82 1799.41 1514.24 Q1801.87 1513.66 1803.9 1513.66 Q1809.27 1513.66 1812.47 1516.35 Q1815.66 1519.03 1815.66 1523.52 Q1815.66 1525.65 1814.85 1527.57 Q1814.07 1529.47 1811.96 1532.07 Q1811.38 1532.74 1808.28 1535.95 Q1805.18 1539.15 1799.53 1544.91 Z" fill="#000000" fill-rule="evenodd" fill-opacity="1" /><path clip-path="url(#clip980)" d="M1835.66 1517.37 Q1832.05 1517.37 1830.22 1520.93 Q1828.42 1524.47 1828.42 1531.6 Q1828.42 1538.71 1830.22 1542.27 Q1832.05 1545.82 1835.66 1545.82 Q1839.3 1545.82 1841.1 1542.27 Q1842.93 1538.71 1842.93 1531.6 Q1842.93 1524.47 1841.1 1520.93 Q1839.3 1517.37 1835.66 1517.37 M1835.66 1513.66 Q1841.47 1513.66 1844.53 1518.27 Q1847.61 1522.85 1847.61 1531.6 Q1847.61 1540.33 1844.53 1544.94 Q1841.47 1549.52 1835.66 1549.52 Q1829.85 1549.52 1826.77 1544.94 Q1823.72 1540.33 1823.72 1531.6 Q1823.72 1522.85 1826.77 1518.27 Q1829.85 1513.66 1835.66 1513.66 Z" fill="#000000" fill-rule="evenodd" fill-opacity="1" /><path clip-path="url(#clip980)" d="M1856.64 1544.91 L1864.27 1544.91 L1864.27 1518.55 L1855.96 1520.21 L1855.96 1515.95 L1864.23 1514.29 L1868.9 1514.29 L1868.9 1544.91 L1876.54 1544.91 L1876.54 1548.85 L1856.64 1548.85 L1856.64 1544.91 Z" fill="#000000" fill-rule="evenodd" fill-opacity="1" /><path clip-path="url(#clip980)" d="M1886.03 1514.29 L1904.39 1514.29 L1904.39 1518.22 L1890.32 1518.22 L1890.32 1526.7 Q1891.33 1526.35 1892.35 1526.19 Q1893.37 1526 1894.39 1526 Q1900.18 1526 1903.56 1529.17 Q1906.94 1532.34 1906.94 1537.76 Q1906.94 1543.34 1903.46 1546.44 Q1899.99 1549.52 1893.67 1549.52 Q1891.5 1549.52 1889.23 1549.15 Q1886.98 1548.78 1884.57 1548.04 L1884.57 1543.34 Q1886.66 1544.47 1888.88 1545.03 Q1891.1 1545.58 1893.58 1545.58 Q1897.58 1545.58 1899.92 1543.48 Q1902.26 1541.37 1902.26 1537.76 Q1902.26 1534.15 1899.92 1532.04 Q1897.58 1529.94 1893.58 1529.94 Q1891.7 1529.94 1889.83 1530.35 Q1887.98 1530.77 1886.03 1531.65 L1886.03 1514.29 Z" fill="#000000" fill-rule="evenodd" fill-opacity="1" /><polyline clip-path="url(#clip982)" style="stroke:#000000; stroke-linecap:butt; stroke-linejoin:round; stroke-width:2; stroke-opacity:0.1; fill:none" points="
  138.959,1447.87 2352.76,1447.87 
  "/>
<polyline clip-path="url(#clip982)" style="stroke:#000000; stroke-linecap:butt; stroke-linejoin:round; stroke-width:2; stroke-opacity:0.1; fill:none" points="
  138.959,1090.7 2352.76,1090.7 
  "/>
<polyline clip-path="url(#clip982)" style="stroke:#000000; stroke-linecap:butt; stroke-linejoin:round; stroke-width:2; stroke-opacity:0.1; fill:none" points="
  138.959,733.525 2352.76,733.525 
  "/>
<polyline clip-path="url(#clip982)" style="stroke:#000000; stroke-linecap:butt; stroke-linejoin:round; stroke-width:2; stroke-opacity:0.1; fill:none" points="
  138.959,376.351 2352.76,376.351 
  "/>
<polyline clip-path="url(#clip980)" style="stroke:#000000; stroke-linecap:butt; stroke-linejoin:round; stroke-width:4; stroke-opacity:1; fill:none" points="
  138.959,1486.45 138.959,123.472 
  "/>
<polyline clip-path="url(#clip980)" style="stroke:#000000; stroke-linecap:butt; stroke-linejoin:round; stroke-width:4; stroke-opacity:1; fill:none" points="
  138.959,1447.87 157.857,1447.87 
  "/>
<polyline clip-path="url(#clip980)" style="stroke:#000000; stroke-linecap:butt; stroke-linejoin:round; stroke-width:4; stroke-opacity:1; fill:none" points="
  138.959,1090.7 157.857,1090.7 
  "/>
<polyline clip-path="url(#clip980)" style="stroke:#000000; stroke-linecap:butt; stroke-linejoin:round; stroke-width:4; stroke-opacity:1; fill:none" points="
  138.959,733.525 157.857,733.525 
  "/>
<polyline clip-path="url(#clip980)" style="stroke:#000000; stroke-linecap:butt; stroke-linejoin:round; stroke-width:4; stroke-opacity:1; fill:none" points="
  138.959,376.351 157.857,376.351 
  "/>
<path clip-path="url(#clip980)" d="M91.0151 1433.67 Q87.404 1433.67 85.5753 1437.24 Q83.7697 1440.78 83.7697 1447.91 Q83.7697 1455.01 85.5753 1458.58 Q87.404 1462.12 91.0151 1462.12 Q94.6493 1462.12 96.4548 1458.58 Q98.2835 1455.01 98.2835 1447.91 Q98.2835 1440.78 96.4548 1437.24 Q94.6493 1433.67 91.0151 1433.67 M91.0151 1429.97 Q96.8252 1429.97 99.8808 1434.57 Q102.959 1439.16 102.959 1447.91 Q102.959 1456.63 99.8808 1461.24 Q96.8252 1465.82 91.0151 1465.82 Q85.2049 1465.82 82.1262 1461.24 Q79.0707 1456.63 79.0707 1447.91 Q79.0707 1439.16 82.1262 1434.57 Q85.2049 1429.97 91.0151 1429.97 Z" fill="#000000" fill-rule="evenodd" fill-opacity="1" /><path clip-path="url(#clip980)" d="M82.0568 1073.42 L100.413 1073.42 L100.413 1077.35 L86.3392 1077.35 L86.3392 1085.83 Q87.3577 1085.48 88.3762 1085.32 Q89.3947 1085.13 90.4132 1085.13 Q96.2002 1085.13 99.5798 1088.3 Q102.959 1091.47 102.959 1096.89 Q102.959 1102.47 99.4872 1105.57 Q96.015 1108.65 89.6956 1108.65 Q87.5197 1108.65 85.2512 1108.28 Q83.0058 1107.91 80.5984 1107.17 L80.5984 1102.47 Q82.6818 1103.6 84.904 1104.16 Q87.1262 1104.72 89.603 1104.72 Q93.6076 1104.72 95.9456 1102.61 Q98.2835 1100.5 98.2835 1096.89 Q98.2835 1093.28 95.9456 1091.17 Q93.6076 1089.07 89.603 1089.07 Q87.728 1089.07 85.8531 1089.48 Q84.0012 1089.9 82.0568 1090.78 L82.0568 1073.42 Z" fill="#000000" fill-rule="evenodd" fill-opacity="1" /><path clip-path="url(#clip980)" d="M51.6634 746.87 L59.3023 746.87 L59.3023 720.504 L50.9921 722.171 L50.9921 717.912 L59.256 716.245 L63.9319 716.245 L63.9319 746.87 L71.5707 746.87 L71.5707 750.805 L51.6634 750.805 L51.6634 746.87 Z" fill="#000000" fill-rule="evenodd" fill-opacity="1" /><path clip-path="url(#clip980)" d="M91.0151 719.324 Q87.404 719.324 85.5753 722.889 Q83.7697 726.43 83.7697 733.56 Q83.7697 740.666 85.5753 744.231 Q87.404 747.773 91.0151 747.773 Q94.6493 747.773 96.4548 744.231 Q98.2835 740.666 98.2835 733.56 Q98.2835 726.43 96.4548 722.889 Q94.6493 719.324 91.0151 719.324 M91.0151 715.62 Q96.8252 715.62 99.8808 720.227 Q102.959 724.81 102.959 733.56 Q102.959 742.287 99.8808 746.893 Q96.8252 751.477 91.0151 751.477 Q85.2049 751.477 82.1262 746.893 Q79.0707 742.287 79.0707 733.56 Q79.0707 724.81 82.1262 720.227 Q85.2049 715.62 91.0151 715.62 Z" fill="#000000" fill-rule="evenodd" fill-opacity="1" /><path clip-path="url(#clip980)" d="M52.6588 389.696 L60.2976 389.696 L60.2976 363.331 L51.9875 364.997 L51.9875 360.738 L60.2513 359.071 L64.9272 359.071 L64.9272 389.696 L72.5661 389.696 L72.5661 393.631 L52.6588 393.631 L52.6588 389.696 Z" fill="#000000" fill-rule="evenodd" fill-opacity="1" /><path clip-path="url(#clip980)" d="M82.0568 359.071 L100.413 359.071 L100.413 363.006 L86.3392 363.006 L86.3392 371.479 Q87.3577 371.131 88.3762 370.969 Q89.3947 370.784 90.4132 370.784 Q96.2002 370.784 99.5798 373.955 Q102.959 377.127 102.959 382.543 Q102.959 388.122 99.4872 391.224 Q96.015 394.303 89.6956 394.303 Q87.5197 394.303 85.2512 393.932 Q83.0058 393.562 80.5984 392.821 L80.5984 388.122 Q82.6818 389.256 84.904 389.812 Q87.1262 390.367 89.603 390.367 Q93.6076 390.367 95.9456 388.261 Q98.2835 386.154 98.2835 382.543 Q98.2835 378.932 95.9456 376.826 Q93.6076 374.719 89.603 374.719 Q87.728 374.719 85.8531 375.136 Q84.0012 375.553 82.0568 376.432 L82.0568 359.071 Z" fill="#000000" fill-rule="evenodd" fill-opacity="1" /><path clip-path="url(#clip980)" d="M782.414 18.8205 L782.414 41.5461 L792.703 41.5461 Q798.415 41.5461 801.534 38.5889 Q804.653 35.6318 804.653 30.163 Q804.653 24.7348 801.534 21.7777 Q798.415 18.8205 792.703 18.8205 L782.414 18.8205 M774.231 12.096 L792.703 12.096 Q802.871 12.096 808.056 16.714 Q813.282 21.2916 813.282 30.163 Q813.282 39.1155 808.056 43.6931 Q802.871 48.2706 792.703 48.2706 L782.414 48.2706 L782.414 72.576 L774.231 72.576 L774.231 12.096 Z" fill="#000000" fill-rule="evenodd" fill-opacity="1" /><path clip-path="url(#clip980)" d="M821.708 54.671 L821.708 27.2059 L829.161 27.2059 L829.161 54.3874 Q829.161 60.8284 831.673 64.0691 Q834.185 67.2693 839.208 67.2693 Q845.244 67.2693 848.727 63.421 Q852.252 59.5726 852.252 52.9291 L852.252 27.2059 L859.705 27.2059 L859.705 72.576 L852.252 72.576 L852.252 65.6084 Q849.537 69.7404 845.932 71.7658 Q842.367 73.7508 837.628 73.7508 Q829.81 73.7508 825.759 68.8897 Q821.708 64.0286 821.708 54.671 M840.463 26.1121 L840.463 26.1121 Z" fill="#000000" fill-rule="evenodd" fill-opacity="1" /><path clip-path="url(#clip980)" d="M907.627 49.9314 Q907.627 41.7081 904.225 37.0496 Q900.862 32.3505 894.948 32.3505 Q889.034 32.3505 885.631 37.0496 Q882.269 41.7081 882.269 49.9314 Q882.269 58.1548 885.631 62.8538 Q889.034 67.5124 894.948 67.5124 Q900.862 67.5124 904.225 62.8538 Q907.627 58.1548 907.627 49.9314 M882.269 34.0924 Q884.618 30.0415 888.183 28.0971 Q891.788 26.1121 896.771 26.1121 Q905.035 26.1121 910.179 32.6746 Q915.365 39.2371 915.365 49.9314 Q915.365 60.6258 910.179 67.1883 Q905.035 73.7508 896.771 73.7508 Q891.788 73.7508 888.183 71.8063 Q884.618 69.8214 882.269 65.7705 L882.269 72.576 L874.775 72.576 L874.775 9.54393 L882.269 9.54393 L882.269 34.0924 Z" fill="#000000" fill-rule="evenodd" fill-opacity="1" /><path clip-path="url(#clip980)" d="M927.72 9.54393 L935.174 9.54393 L935.174 72.576 L927.72 72.576 L927.72 9.54393 Z" fill="#000000" fill-rule="evenodd" fill-opacity="1" /><path clip-path="url(#clip980)" d="M950.77 27.2059 L958.223 27.2059 L958.223 72.576 L950.77 72.576 L950.77 27.2059 M950.77 9.54393 L958.223 9.54393 L958.223 18.9825 L950.77 18.9825 L950.77 9.54393 Z" fill="#000000" fill-rule="evenodd" fill-opacity="1" /><path clip-path="url(#clip980)" d="M1006.47 28.9478 L1006.47 35.9153 Q1003.31 34.1734 1000.11 33.3227 Q996.95 32.4315 993.709 32.4315 Q986.458 32.4315 982.448 37.0496 Q978.437 41.6271 978.437 49.9314 Q978.437 58.2358 982.448 62.8538 Q986.458 67.4314 993.709 67.4314 Q996.95 67.4314 1000.11 66.5807 Q1003.31 65.6895 1006.47 63.9476 L1006.47 70.8341 Q1003.35 72.2924 999.988 73.0216 Q996.666 73.7508 992.899 73.7508 Q982.65 73.7508 976.614 67.3098 Q970.578 60.8689 970.578 49.9314 Q970.578 38.832 976.655 32.472 Q982.772 26.1121 993.385 26.1121 Q996.828 26.1121 1000.11 26.8413 Q1003.39 27.5299 1006.47 28.9478 Z" fill="#000000" fill-rule="evenodd" fill-opacity="1" /><path clip-path="url(#clip980)" d="M1082.38 14.0809 L1082.38 22.0612 Q1077.72 19.8332 1073.59 18.7395 Q1069.46 17.6457 1065.61 17.6457 Q1058.93 17.6457 1055.28 20.2383 Q1051.68 22.8309 1051.68 27.611 Q1051.68 31.6214 1054.07 33.6873 Q1056.5 35.7128 1063.22 36.9686 L1068.16 37.9813 Q1077.32 39.7232 1081.65 44.1387 Q1086.03 48.5136 1086.03 55.8863 Q1086.03 64.6767 1080.11 69.2137 Q1074.24 73.7508 1062.86 73.7508 Q1058.56 73.7508 1053.7 72.7785 Q1048.88 71.8063 1043.7 69.9024 L1043.7 61.4765 Q1048.68 64.2716 1053.46 65.6895 Q1058.24 67.1073 1062.86 67.1073 Q1069.87 67.1073 1073.67 64.3527 Q1077.48 61.598 1077.48 56.4939 Q1077.48 52.0379 1074.73 49.5264 Q1072.01 47.0148 1065.77 45.759 L1060.79 44.7868 Q1051.64 42.9639 1047.55 39.075 Q1043.45 35.1862 1043.45 28.2591 Q1043.45 20.2383 1049.09 15.6203 Q1054.76 11.0023 1064.68 11.0023 Q1068.93 11.0023 1073.35 11.7719 Q1077.77 12.5416 1082.38 14.0809 Z" fill="#000000" fill-rule="evenodd" fill-opacity="1" /><path clip-path="url(#clip980)" d="M1136.18 45.1919 L1136.18 72.576 L1128.73 72.576 L1128.73 45.4349 Q1128.73 38.994 1126.21 35.7938 Q1123.7 32.5936 1118.68 32.5936 Q1112.64 32.5936 1109.16 36.4419 Q1105.68 40.2903 1105.68 46.9338 L1105.68 72.576 L1098.18 72.576 L1098.18 9.54393 L1105.68 9.54393 L1105.68 34.2544 Q1108.35 30.163 1111.96 28.1376 Q1115.6 26.1121 1120.34 26.1121 Q1128.16 26.1121 1132.17 30.9732 Q1136.18 35.7938 1136.18 45.1919 Z" fill="#000000" fill-rule="evenodd" fill-opacity="1" /><path clip-path="url(#clip980)" d="M1168.63 32.4315 Q1162.63 32.4315 1159.15 37.1306 Q1155.66 41.7891 1155.66 49.9314 Q1155.66 58.0738 1159.11 62.7728 Q1162.59 67.4314 1168.63 67.4314 Q1174.58 67.4314 1178.07 62.7323 Q1181.55 58.0333 1181.55 49.9314 Q1181.55 41.8701 1178.07 37.1711 Q1174.58 32.4315 1168.63 32.4315 M1168.63 26.1121 Q1178.35 26.1121 1183.9 32.4315 Q1189.45 38.7509 1189.45 49.9314 Q1189.45 61.0714 1183.9 67.4314 Q1178.35 73.7508 1168.63 73.7508 Q1158.86 73.7508 1153.31 67.4314 Q1147.81 61.0714 1147.81 49.9314 Q1147.81 38.7509 1153.31 32.4315 Q1158.86 26.1121 1168.63 26.1121 Z" fill="#000000" fill-rule="evenodd" fill-opacity="1" /><path clip-path="url(#clip980)" d="M1219.39 32.4315 Q1213.39 32.4315 1209.91 37.1306 Q1206.42 41.7891 1206.42 49.9314 Q1206.42 58.0738 1209.87 62.7728 Q1213.35 67.4314 1219.39 67.4314 Q1225.34 67.4314 1228.82 62.7323 Q1232.31 58.0333 1232.31 49.9314 Q1232.31 41.8701 1228.82 37.1711 Q1225.34 32.4315 1219.39 32.4315 M1219.39 26.1121 Q1229.11 26.1121 1234.66 32.4315 Q1240.21 38.7509 1240.21 49.9314 Q1240.21 61.0714 1234.66 67.4314 Q1229.11 73.7508 1219.39 73.7508 Q1209.62 73.7508 1204.07 67.4314 Q1198.56 61.0714 1198.56 49.9314 Q1198.56 38.7509 1204.07 32.4315 Q1209.62 26.1121 1219.39 26.1121 Z" fill="#000000" fill-rule="evenodd" fill-opacity="1" /><path clip-path="url(#clip980)" d="M1259.93 14.324 L1259.93 27.2059 L1275.29 27.2059 L1275.29 32.9987 L1259.93 32.9987 L1259.93 57.6282 Q1259.93 63.1779 1261.43 64.7578 Q1262.97 66.3376 1267.63 66.3376 L1275.29 66.3376 L1275.29 72.576 L1267.63 72.576 Q1259 72.576 1255.72 69.3758 Q1252.44 66.1351 1252.44 57.6282 L1252.44 32.9987 L1246.97 32.9987 L1246.97 27.2059 L1252.44 27.2059 L1252.44 14.324 L1259.93 14.324 Z" fill="#000000" fill-rule="evenodd" fill-opacity="1" /><path clip-path="url(#clip980)" d="M1285.09 27.2059 L1292.54 27.2059 L1292.54 72.576 L1285.09 72.576 L1285.09 27.2059 M1285.09 9.54393 L1292.54 9.54393 L1292.54 18.9825 L1285.09 18.9825 L1285.09 9.54393 Z" fill="#000000" fill-rule="evenodd" fill-opacity="1" /><path clip-path="url(#clip980)" d="M1345.85 45.1919 L1345.85 72.576 L1338.4 72.576 L1338.4 45.4349 Q1338.4 38.994 1335.89 35.7938 Q1333.38 32.5936 1328.35 32.5936 Q1322.32 32.5936 1318.83 36.4419 Q1315.35 40.2903 1315.35 46.9338 L1315.35 72.576 L1307.86 72.576 L1307.86 27.2059 L1315.35 27.2059 L1315.35 34.2544 Q1318.02 30.163 1321.63 28.1376 Q1325.28 26.1121 1330.02 26.1121 Q1337.83 26.1121 1341.84 30.9732 Q1345.85 35.7938 1345.85 45.1919 Z" fill="#000000" fill-rule="evenodd" fill-opacity="1" /><path clip-path="url(#clip980)" d="M1390.58 49.3643 Q1390.58 41.2625 1387.21 36.8065 Q1383.89 32.3505 1377.86 32.3505 Q1371.86 32.3505 1368.5 36.8065 Q1365.18 41.2625 1365.18 49.3643 Q1365.18 57.4256 1368.5 61.8816 Q1371.86 66.3376 1377.86 66.3376 Q1383.89 66.3376 1387.21 61.8816 Q1390.58 57.4256 1390.58 49.3643 M1398.03 66.9452 Q1398.03 78.5308 1392.89 84.1616 Q1387.74 89.8329 1377.13 89.8329 Q1373.2 89.8329 1369.71 89.2252 Q1366.23 88.6581 1362.95 87.4428 L1362.95 80.1917 Q1366.23 81.9741 1369.43 82.8248 Q1372.63 83.6755 1375.95 83.6755 Q1383.28 83.6755 1386.93 79.8271 Q1390.58 76.0193 1390.58 68.282 L1390.58 64.5957 Q1388.27 68.6061 1384.66 70.5911 Q1381.06 72.576 1376.03 72.576 Q1367.69 72.576 1362.58 66.2161 Q1357.48 59.8562 1357.48 49.3643 Q1357.48 38.832 1362.58 32.472 Q1367.69 26.1121 1376.03 26.1121 Q1381.06 26.1121 1384.66 28.0971 Q1388.27 30.082 1390.58 34.0924 L1390.58 27.2059 L1398.03 27.2059 L1398.03 66.9452 Z" fill="#000000" fill-rule="evenodd" fill-opacity="1" /><path clip-path="url(#clip980)" d="M1485.37 16.7545 L1485.37 25.383 Q1481.24 21.5346 1476.54 19.6307 Q1471.88 17.7268 1466.61 17.7268 Q1456.24 17.7268 1450.73 24.0867 Q1445.22 30.4061 1445.22 42.3968 Q1445.22 54.3469 1450.73 60.7069 Q1456.24 67.0263 1466.61 67.0263 Q1471.88 67.0263 1476.54 65.1223 Q1481.24 63.2184 1485.37 59.3701 L1485.37 67.9175 Q1481.07 70.8341 1476.25 72.2924 Q1471.47 73.7508 1466.13 73.7508 Q1452.39 73.7508 1444.49 65.3654 Q1436.59 56.9395 1436.59 42.3968 Q1436.59 27.8135 1444.49 19.4281 Q1452.39 11.0023 1466.13 11.0023 Q1471.55 11.0023 1476.33 12.4606 Q1481.15 13.8784 1485.37 16.7545 Z" fill="#000000" fill-rule="evenodd" fill-opacity="1" /><path clip-path="url(#clip980)" d="M1515.26 32.4315 Q1509.27 32.4315 1505.78 37.1306 Q1502.3 41.7891 1502.3 49.9314 Q1502.3 58.0738 1505.74 62.7728 Q1509.23 67.4314 1515.26 67.4314 Q1521.22 67.4314 1524.7 62.7323 Q1528.19 58.0333 1528.19 49.9314 Q1528.19 41.8701 1524.7 37.1711 Q1521.22 32.4315 1515.26 32.4315 M1515.26 26.1121 Q1524.99 26.1121 1530.53 32.4315 Q1536.08 38.7509 1536.08 49.9314 Q1536.08 61.0714 1530.53 67.4314 Q1524.99 73.7508 1515.26 73.7508 Q1505.5 73.7508 1499.95 67.4314 Q1494.44 61.0714 1494.44 49.9314 Q1494.44 38.7509 1499.95 32.4315 Q1505.5 26.1121 1515.26 26.1121 Z" fill="#000000" fill-rule="evenodd" fill-opacity="1" /><path clip-path="url(#clip980)" d="M1547.67 54.671 L1547.67 27.2059 L1555.12 27.2059 L1555.12 54.3874 Q1555.12 60.8284 1557.64 64.0691 Q1560.15 67.2693 1565.17 67.2693 Q1571.21 67.2693 1574.69 63.421 Q1578.21 59.5726 1578.21 52.9291 L1578.21 27.2059 L1585.67 27.2059 L1585.67 72.576 L1578.21 72.576 L1578.21 65.6084 Q1575.5 69.7404 1571.89 71.7658 Q1568.33 73.7508 1563.59 73.7508 Q1555.77 73.7508 1551.72 68.8897 Q1547.67 64.0286 1547.67 54.671 M1566.43 26.1121 L1566.43 26.1121 Z" fill="#000000" fill-rule="evenodd" fill-opacity="1" /><path clip-path="url(#clip980)" d="M1638.73 45.1919 L1638.73 72.576 L1631.28 72.576 L1631.28 45.4349 Q1631.28 38.994 1628.77 35.7938 Q1626.26 32.5936 1621.23 32.5936 Q1615.2 32.5936 1611.72 36.4419 Q1608.23 40.2903 1608.23 46.9338 L1608.23 72.576 L1600.74 72.576 L1600.74 27.2059 L1608.23 27.2059 L1608.23 34.2544 Q1610.9 30.163 1614.51 28.1376 Q1618.16 26.1121 1622.9 26.1121 Q1630.71 26.1121 1634.72 30.9732 Q1638.73 35.7938 1638.73 45.1919 Z" fill="#000000" fill-rule="evenodd" fill-opacity="1" /><path clip-path="url(#clip980)" d="M1660.97 14.324 L1660.97 27.2059 L1676.33 27.2059 L1676.33 32.9987 L1660.97 32.9987 L1660.97 57.6282 Q1660.97 63.1779 1662.47 64.7578 Q1664.01 66.3376 1668.67 66.3376 L1676.33 66.3376 L1676.33 72.576 L1668.67 72.576 Q1660.04 72.576 1656.76 69.3758 Q1653.48 66.1351 1653.48 57.6282 L1653.48 32.9987 L1648.01 32.9987 L1648.01 27.2059 L1653.48 27.2059 L1653.48 14.324 L1660.97 14.324 Z" fill="#000000" fill-rule="evenodd" fill-opacity="1" /><path clip-path="url(#clip980)" d="M1715.05 28.5427 L1715.05 35.5912 Q1711.89 33.9709 1708.49 33.1607 Q1705.09 32.3505 1701.44 32.3505 Q1695.89 32.3505 1693.1 34.0519 Q1690.34 35.7533 1690.34 39.156 Q1690.34 41.7486 1692.33 43.2475 Q1694.31 44.7058 1700.31 46.0426 L1702.86 46.6097 Q1710.8 48.3111 1714.12 51.4303 Q1717.48 54.509 1717.48 60.0587 Q1717.48 66.3781 1712.46 70.0644 Q1707.48 73.7508 1698.73 73.7508 Q1695.08 73.7508 1691.11 73.0216 Q1687.18 72.3329 1682.81 70.9151 L1682.81 63.2184 Q1686.94 65.3654 1690.95 66.4591 Q1694.96 67.5124 1698.89 67.5124 Q1704.16 67.5124 1706.99 65.73 Q1709.83 63.9071 1709.83 60.6258 Q1709.83 57.5877 1707.76 55.9673 Q1705.74 54.3469 1698.81 52.8481 L1696.22 52.2405 Q1689.29 50.7821 1686.21 47.7845 Q1683.13 44.7463 1683.13 39.4801 Q1683.13 33.0797 1687.67 29.5959 Q1692.21 26.1121 1700.55 26.1121 Q1704.68 26.1121 1708.33 26.7198 Q1711.97 27.3274 1715.05 28.5427 Z" fill="#000000" fill-rule="evenodd" fill-opacity="1" /><polyline clip-path="url(#clip982)" style="stroke:#009af9; stroke-linecap:butt; stroke-linejoin:round; stroke-width:4; stroke-opacity:1; fill:none" points="
  2180.18,447.786 2070.26,162.047 1960.34,519.221 1850.42,304.916 1740.5,447.786 1630.58,662.09 1520.66,519.221 1410.74,1162.13 1300.82,876.395 1190.9,733.525 
  1080.98,1090.7 971.057,1019.26 861.136,1305 751.216,1019.26 641.296,1376.44 531.375,1233.57 421.455,1233.57 311.534,1376.44 201.614,1447.87 
  "/>
</svg>
