<?xml version="1.0" encoding="utf-8"?>
<svg xmlns="http://www.w3.org/2000/svg" xmlns:xlink="http://www.w3.org/1999/xlink" width="600" height="400" viewBox="0 0 2400 1600">
<defs>
  <clipPath id="clip270">
    <rect x="0" y="0" width="2400" height="1600"/>
  </clipPath>
</defs>
<path clip-path="url(#clip270)" d="
M0 1600 L2400 1600 L2400 0 L0 0  Z
  " fill="#ffffff" fill-rule="evenodd" fill-opacity="1"/>
<defs>
  <clipPath id="clip271">
    <rect x="480" y="0" width="1681" height="1600"/>
  </clipPath>
</defs>
<path clip-path="url(#clip270)" d="
M203.964 1423.18 L2352.76 1423.18 L2352.76 47.2441 L203.964 47.2441  Z
  " fill="#ffffff" fill-rule="evenodd" fill-opacity="1"/>
<defs>
  <clipPath id="clip272">
    <rect x="203" y="47" width="2150" height="1377"/>
  </clipPath>
</defs>
<polyline clip-path="url(#clip272)" style="stroke:#000000; stroke-linecap:butt; stroke-linejoin:round; stroke-width:2; stroke-opacity:0.1; fill:none" points="
  264.778,1423.18 264.778,47.2441 
  "/>
<polyline clip-path="url(#clip272)" style="stroke:#000000; stroke-linecap:butt; stroke-linejoin:round; stroke-width:2; stroke-opacity:0.1; fill:none" points="
  798.242,1423.18 798.242,47.2441 
  "/>
<polyline clip-path="url(#clip272)" style="stroke:#000000; stroke-linecap:butt; stroke-linejoin:round; stroke-width:2; stroke-opacity:0.1; fill:none" points="
  1331.71,1423.18 1331.71,47.2441 
  "/>
<polyline clip-path="url(#clip272)" style="stroke:#000000; stroke-linecap:butt; stroke-linejoin:round; stroke-width:2; stroke-opacity:0.1; fill:none" points="
  1865.17,1423.18 1865.17,47.2441 
  "/>
<polyline clip-path="url(#clip270)" style="stroke:#000000; stroke-linecap:butt; stroke-linejoin:round; stroke-width:4; stroke-opacity:1; fill:none" points="
  203.964,1423.18 2352.76,1423.18 
  "/>
<polyline clip-path="url(#clip270)" style="stroke:#000000; stroke-linecap:butt; stroke-linejoin:round; stroke-width:4; stroke-opacity:1; fill:none" points="
  264.778,1423.18 264.778,1404.28 
  "/>
<polyline clip-path="url(#clip270)" style="stroke:#000000; stroke-linecap:butt; stroke-linejoin:round; stroke-width:4; stroke-opacity:1; fill:none" points="
  798.242,1423.18 798.242,1404.28 
  "/>
<polyline clip-path="url(#clip270)" style="stroke:#000000; stroke-linecap:butt; stroke-linejoin:round; stroke-width:4; stroke-opacity:1; fill:none" points="
  1331.71,1423.18 1331.71,1404.28 
  "/>
<polyline clip-path="url(#clip270)" style="stroke:#000000; stroke-linecap:butt; stroke-linejoin:round; stroke-width:4; stroke-opacity:1; fill:none" points="
  1865.17,1423.18 1865.17,1404.28 
  "/>
<path clip-path="url(#clip270)" d="M213.39 1481.64 L229.709 1481.64 L229.709 1485.58 L207.765 1485.58 L207.765 1481.64 Q210.427 1478.89 215.01 1474.26 Q219.617 1469.61 220.797 1468.27 Q223.043 1465.74 223.922 1464.01 Q224.825 1462.25 224.825 1460.56 Q224.825 1457.8 222.881 1456.07 Q220.959 1454.33 217.857 1454.33 Q215.658 1454.33 213.205 1455.09 Q210.774 1455.86 207.996 1457.41 L207.996 1452.69 Q210.82 1451.55 213.274 1450.97 Q215.728 1450.39 217.765 1450.39 Q223.135 1450.39 226.33 1453.08 Q229.524 1455.77 229.524 1460.26 Q229.524 1462.39 228.714 1464.31 Q227.927 1466.2 225.82 1468.8 Q225.242 1469.47 222.14 1472.69 Q219.038 1475.88 213.39 1481.64 Z" fill="#000000" fill-rule="evenodd" fill-opacity="1" /><path clip-path="url(#clip270)" d="M249.524 1454.1 Q245.913 1454.1 244.084 1457.66 Q242.279 1461.2 242.279 1468.33 Q242.279 1475.44 244.084 1479.01 Q245.913 1482.55 249.524 1482.55 Q253.158 1482.55 254.964 1479.01 Q256.792 1475.44 256.792 1468.33 Q256.792 1461.2 254.964 1457.66 Q253.158 1454.1 249.524 1454.1 M249.524 1450.39 Q255.334 1450.39 258.39 1455 Q261.468 1459.58 261.468 1468.33 Q261.468 1477.06 258.39 1481.67 Q255.334 1486.25 249.524 1486.25 Q243.714 1486.25 240.635 1481.67 Q237.58 1477.06 237.58 1468.33 Q237.58 1459.58 240.635 1455 Q243.714 1450.39 249.524 1450.39 Z" fill="#000000" fill-rule="evenodd" fill-opacity="1" /><path clip-path="url(#clip270)" d="M279.686 1454.1 Q276.075 1454.1 274.246 1457.66 Q272.44 1461.2 272.44 1468.33 Q272.44 1475.44 274.246 1479.01 Q276.075 1482.55 279.686 1482.55 Q283.32 1482.55 285.126 1479.01 Q286.954 1475.44 286.954 1468.33 Q286.954 1461.2 285.126 1457.66 Q283.32 1454.1 279.686 1454.1 M279.686 1450.39 Q285.496 1450.39 288.551 1455 Q291.63 1459.58 291.63 1468.33 Q291.63 1477.06 288.551 1481.67 Q285.496 1486.25 279.686 1486.25 Q273.876 1486.25 270.797 1481.67 Q267.741 1477.06 267.741 1468.33 Q267.741 1459.58 270.797 1455 Q273.876 1450.39 279.686 1450.39 Z" fill="#000000" fill-rule="evenodd" fill-opacity="1" /><path clip-path="url(#clip270)" d="M309.848 1454.1 Q306.237 1454.1 304.408 1457.66 Q302.602 1461.2 302.602 1468.33 Q302.602 1475.44 304.408 1479.01 Q306.237 1482.55 309.848 1482.55 Q313.482 1482.55 315.287 1479.01 Q317.116 1475.44 317.116 1468.33 Q317.116 1461.2 315.287 1457.66 Q313.482 1454.1 309.848 1454.1 M309.848 1450.39 Q315.658 1450.39 318.713 1455 Q321.792 1459.58 321.792 1468.33 Q321.792 1477.06 318.713 1481.67 Q315.658 1486.25 309.848 1486.25 Q304.037 1486.25 300.959 1481.67 Q297.903 1477.06 297.903 1468.33 Q297.903 1459.58 300.959 1455 Q304.037 1450.39 309.848 1450.39 Z" fill="#000000" fill-rule="evenodd" fill-opacity="1" /><path clip-path="url(#clip270)" d="M747.351 1481.64 L763.671 1481.64 L763.671 1485.58 L741.726 1485.58 L741.726 1481.64 Q744.388 1478.89 748.972 1474.26 Q753.578 1469.61 754.759 1468.27 Q757.004 1465.74 757.884 1464.01 Q758.786 1462.25 758.786 1460.56 Q758.786 1457.8 756.842 1456.07 Q754.921 1454.33 751.819 1454.33 Q749.62 1454.33 747.166 1455.09 Q744.736 1455.86 741.958 1457.41 L741.958 1452.69 Q744.782 1451.55 747.236 1450.97 Q749.689 1450.39 751.726 1450.39 Q757.097 1450.39 760.291 1453.08 Q763.486 1455.77 763.486 1460.26 Q763.486 1462.39 762.675 1464.31 Q761.888 1466.2 759.782 1468.8 Q759.203 1469.47 756.101 1472.69 Q752.999 1475.88 747.351 1481.64 Z" fill="#000000" fill-rule="evenodd" fill-opacity="1" /><path clip-path="url(#clip270)" d="M783.485 1454.1 Q779.874 1454.1 778.046 1457.66 Q776.24 1461.2 776.24 1468.33 Q776.24 1475.44 778.046 1479.01 Q779.874 1482.55 783.485 1482.55 Q787.12 1482.55 788.925 1479.01 Q790.754 1475.44 790.754 1468.33 Q790.754 1461.2 788.925 1457.66 Q787.12 1454.1 783.485 1454.1 M783.485 1450.39 Q789.296 1450.39 792.351 1455 Q795.43 1459.58 795.43 1468.33 Q795.43 1477.06 792.351 1481.67 Q789.296 1486.25 783.485 1486.25 Q777.675 1486.25 774.597 1481.67 Q771.541 1477.06 771.541 1468.33 Q771.541 1459.58 774.597 1455 Q777.675 1450.39 783.485 1450.39 Z" fill="#000000" fill-rule="evenodd" fill-opacity="1" /><path clip-path="url(#clip270)" d="M813.647 1454.1 Q810.036 1454.1 808.208 1457.66 Q806.402 1461.2 806.402 1468.33 Q806.402 1475.44 808.208 1479.01 Q810.036 1482.55 813.647 1482.55 Q817.282 1482.55 819.087 1479.01 Q820.916 1475.44 820.916 1468.33 Q820.916 1461.2 819.087 1457.66 Q817.282 1454.1 813.647 1454.1 M813.647 1450.39 Q819.457 1450.39 822.513 1455 Q825.592 1459.58 825.592 1468.33 Q825.592 1477.06 822.513 1481.67 Q819.457 1486.25 813.647 1486.25 Q807.837 1486.25 804.758 1481.67 Q801.703 1477.06 801.703 1468.33 Q801.703 1459.58 804.758 1455 Q807.837 1450.39 813.647 1450.39 Z" fill="#000000" fill-rule="evenodd" fill-opacity="1" /><path clip-path="url(#clip270)" d="M833.856 1451.02 L852.212 1451.02 L852.212 1454.96 L838.138 1454.96 L838.138 1463.43 Q839.156 1463.08 840.175 1462.92 Q841.193 1462.73 842.212 1462.73 Q847.999 1462.73 851.379 1465.9 Q854.758 1469.08 854.758 1474.49 Q854.758 1480.07 851.286 1483.17 Q847.814 1486.25 841.494 1486.25 Q839.318 1486.25 837.05 1485.88 Q834.805 1485.51 832.397 1484.77 L832.397 1480.07 Q834.481 1481.2 836.703 1481.76 Q838.925 1482.32 841.402 1482.32 Q845.406 1482.32 847.744 1480.21 Q850.082 1478.1 850.082 1474.49 Q850.082 1470.88 847.744 1468.77 Q845.406 1466.67 841.402 1466.67 Q839.527 1466.67 837.652 1467.08 Q835.8 1467.5 833.856 1468.38 L833.856 1451.02 Z" fill="#000000" fill-rule="evenodd" fill-opacity="1" /><path clip-path="url(#clip270)" d="M1280.32 1481.64 L1296.64 1481.64 L1296.64 1485.58 L1274.69 1485.58 L1274.69 1481.64 Q1277.35 1478.89 1281.94 1474.26 Q1286.54 1469.61 1287.72 1468.27 Q1289.97 1465.74 1290.85 1464.01 Q1291.75 1462.25 1291.75 1460.56 Q1291.75 1457.8 1289.81 1456.07 Q1287.89 1454.33 1284.79 1454.33 Q1282.59 1454.33 1280.13 1455.09 Q1277.7 1455.86 1274.92 1457.41 L1274.92 1452.69 Q1277.75 1451.55 1280.2 1450.97 Q1282.66 1450.39 1284.69 1450.39 Q1290.06 1450.39 1293.26 1453.08 Q1296.45 1455.77 1296.45 1460.26 Q1296.45 1462.39 1295.64 1464.31 Q1294.85 1466.2 1292.75 1468.8 Q1292.17 1469.47 1289.07 1472.69 Q1285.97 1475.88 1280.32 1481.64 Z" fill="#000000" fill-rule="evenodd" fill-opacity="1" /><path clip-path="url(#clip270)" d="M1316.45 1454.1 Q1312.84 1454.1 1311.01 1457.66 Q1309.21 1461.2 1309.21 1468.33 Q1309.21 1475.44 1311.01 1479.01 Q1312.84 1482.55 1316.45 1482.55 Q1320.09 1482.55 1321.89 1479.01 Q1323.72 1475.44 1323.72 1468.33 Q1323.72 1461.2 1321.89 1457.66 Q1320.09 1454.1 1316.45 1454.1 M1316.45 1450.39 Q1322.26 1450.39 1325.32 1455 Q1328.4 1459.58 1328.4 1468.33 Q1328.4 1477.06 1325.32 1481.67 Q1322.26 1486.25 1316.45 1486.25 Q1310.64 1486.25 1307.56 1481.67 Q1304.51 1477.06 1304.51 1468.33 Q1304.51 1459.58 1307.56 1455 Q1310.64 1450.39 1316.45 1450.39 Z" fill="#000000" fill-rule="evenodd" fill-opacity="1" /><path clip-path="url(#clip270)" d="M1337.42 1481.64 L1345.06 1481.64 L1345.06 1455.28 L1336.75 1456.95 L1336.75 1452.69 L1345.02 1451.02 L1349.69 1451.02 L1349.69 1481.64 L1357.33 1481.64 L1357.33 1485.58 L1337.42 1485.58 L1337.42 1481.64 Z" fill="#000000" fill-rule="evenodd" fill-opacity="1" /><path clip-path="url(#clip270)" d="M1376.78 1454.1 Q1373.16 1454.1 1371.34 1457.66 Q1369.53 1461.2 1369.53 1468.33 Q1369.53 1475.44 1371.34 1479.01 Q1373.16 1482.55 1376.78 1482.55 Q1380.41 1482.55 1382.22 1479.01 Q1384.04 1475.44 1384.04 1468.33 Q1384.04 1461.2 1382.22 1457.66 Q1380.41 1454.1 1376.78 1454.1 M1376.78 1450.39 Q1382.59 1450.39 1385.64 1455 Q1388.72 1459.58 1388.72 1468.33 Q1388.72 1477.06 1385.64 1481.67 Q1382.59 1486.25 1376.78 1486.25 Q1370.97 1486.25 1367.89 1481.67 Q1364.83 1477.06 1364.83 1468.33 Q1364.83 1459.58 1367.89 1455 Q1370.97 1450.39 1376.78 1450.39 Z" fill="#000000" fill-rule="evenodd" fill-opacity="1" /><path clip-path="url(#clip270)" d="M1814.28 1481.64 L1830.6 1481.64 L1830.6 1485.58 L1808.65 1485.58 L1808.65 1481.64 Q1811.32 1478.89 1815.9 1474.26 Q1820.51 1469.61 1821.69 1468.27 Q1823.93 1465.74 1824.81 1464.01 Q1825.71 1462.25 1825.71 1460.56 Q1825.71 1457.8 1823.77 1456.07 Q1821.85 1454.33 1818.75 1454.33 Q1816.55 1454.33 1814.09 1455.09 Q1811.66 1455.86 1808.89 1457.41 L1808.89 1452.69 Q1811.71 1451.55 1814.16 1450.97 Q1816.62 1450.39 1818.65 1450.39 Q1824.02 1450.39 1827.22 1453.08 Q1830.41 1455.77 1830.41 1460.26 Q1830.41 1462.39 1829.6 1464.31 Q1828.82 1466.2 1826.71 1468.8 Q1826.13 1469.47 1823.03 1472.69 Q1819.93 1475.88 1814.28 1481.64 Z" fill="#000000" fill-rule="evenodd" fill-opacity="1" /><path clip-path="url(#clip270)" d="M1850.41 1454.1 Q1846.8 1454.1 1844.97 1457.66 Q1843.17 1461.2 1843.17 1468.33 Q1843.17 1475.44 1844.97 1479.01 Q1846.8 1482.55 1850.41 1482.55 Q1854.05 1482.55 1855.85 1479.01 Q1857.68 1475.44 1857.68 1468.33 Q1857.68 1461.2 1855.85 1457.66 Q1854.05 1454.1 1850.41 1454.1 M1850.41 1450.39 Q1856.22 1450.39 1859.28 1455 Q1862.36 1459.58 1862.36 1468.33 Q1862.36 1477.06 1859.28 1481.67 Q1856.22 1486.25 1850.41 1486.25 Q1844.6 1486.25 1841.52 1481.67 Q1838.47 1477.06 1838.47 1468.33 Q1838.47 1459.58 1841.52 1455 Q1844.6 1450.39 1850.41 1450.39 Z" fill="#000000" fill-rule="evenodd" fill-opacity="1" /><path clip-path="url(#clip270)" d="M1871.39 1481.64 L1879.02 1481.64 L1879.02 1455.28 L1870.71 1456.95 L1870.71 1452.69 L1878.98 1451.02 L1883.65 1451.02 L1883.65 1481.64 L1891.29 1481.64 L1891.29 1485.58 L1871.39 1485.58 L1871.39 1481.64 Z" fill="#000000" fill-rule="evenodd" fill-opacity="1" /><path clip-path="url(#clip270)" d="M1900.78 1451.02 L1919.14 1451.02 L1919.14 1454.96 L1905.07 1454.96 L1905.07 1463.43 Q1906.08 1463.08 1907.1 1462.92 Q1908.12 1462.73 1909.14 1462.73 Q1914.93 1462.73 1918.31 1465.9 Q1921.69 1469.08 1921.69 1474.49 Q1921.69 1480.07 1918.21 1483.17 Q1914.74 1486.25 1908.42 1486.25 Q1906.25 1486.25 1903.98 1485.88 Q1901.73 1485.51 1899.32 1484.77 L1899.32 1480.07 Q1901.41 1481.2 1903.63 1481.76 Q1905.85 1482.32 1908.33 1482.32 Q1912.33 1482.32 1914.67 1480.21 Q1917.01 1478.1 1917.01 1474.49 Q1917.01 1470.88 1914.67 1468.77 Q1912.33 1466.67 1908.33 1466.67 Q1906.45 1466.67 1904.58 1467.08 Q1902.73 1467.5 1900.78 1468.38 L1900.78 1451.02 Z" fill="#000000" fill-rule="evenodd" fill-opacity="1" /><path clip-path="url(#clip270)" d="M1209.29 1520.52 L1216.2 1520.52 L1229.38 1540.07 L1242.46 1520.52 L1249.36 1520.52 L1232.56 1545.41 L1232.56 1568.04 L1226.1 1568.04 L1226.1 1545.41 L1209.29 1520.52 Z" fill="#000000" fill-rule="evenodd" fill-opacity="1" /><path clip-path="url(#clip270)" d="M1277.21 1548.76 L1277.21 1551.62 L1250.29 1551.62 Q1250.67 1557.67 1253.92 1560.85 Q1257.19 1564 1263.02 1564 Q1266.39 1564 1269.54 1563.17 Q1272.73 1562.35 1275.85 1560.69 L1275.85 1566.23 Q1272.69 1567.57 1269.38 1568.27 Q1266.07 1568.97 1262.67 1568.97 Q1254.14 1568.97 1249.14 1564 Q1244.18 1559.04 1244.18 1550.57 Q1244.18 1541.82 1248.89 1536.69 Q1253.63 1531.54 1261.65 1531.54 Q1268.84 1531.54 1273.01 1536.18 Q1277.21 1540.8 1277.21 1548.76 M1271.36 1547.04 Q1271.29 1542.23 1268.65 1539.37 Q1266.04 1536.5 1261.71 1536.5 Q1256.81 1536.5 1253.85 1539.27 Q1250.92 1542.04 1250.48 1547.07 L1271.36 1547.04 Z" fill="#000000" fill-rule="evenodd" fill-opacity="1" /><path clip-path="url(#clip270)" d="M1303.03 1550.12 Q1295.93 1550.12 1293.19 1551.75 Q1290.45 1553.37 1290.45 1557.29 Q1290.45 1560.4 1292.49 1562.25 Q1294.56 1564.07 1298.09 1564.07 Q1302.96 1564.07 1305.89 1560.63 Q1308.85 1557.16 1308.85 1551.43 L1308.85 1550.12 L1303.03 1550.12 M1314.71 1547.71 L1314.71 1568.04 L1308.85 1568.04 L1308.85 1562.63 Q1306.85 1565.88 1303.85 1567.44 Q1300.86 1568.97 1296.53 1568.97 Q1291.06 1568.97 1287.81 1565.91 Q1284.6 1562.82 1284.6 1557.67 Q1284.6 1551.65 1288.61 1548.6 Q1292.65 1545.54 1300.64 1545.54 L1308.85 1545.54 L1308.85 1544.97 Q1308.85 1540.93 1306.18 1538.73 Q1303.54 1536.5 1298.73 1536.5 Q1295.67 1536.5 1292.78 1537.23 Q1289.88 1537.97 1287.21 1539.43 L1287.21 1534.02 Q1290.42 1532.78 1293.45 1532.17 Q1296.47 1531.54 1299.33 1531.54 Q1307.07 1531.54 1310.89 1535.55 Q1314.71 1539.56 1314.71 1547.71 Z" fill="#000000" fill-rule="evenodd" fill-opacity="1" /><path clip-path="url(#clip270)" d="M1347.43 1537.87 Q1346.44 1537.3 1345.26 1537.04 Q1344.12 1536.76 1342.72 1536.76 Q1337.75 1536.76 1335.08 1540 Q1332.44 1543.22 1332.44 1549.27 L1332.44 1568.04 L1326.55 1568.04 L1326.55 1532.4 L1332.44 1532.4 L1332.44 1537.93 Q1334.28 1534.69 1337.24 1533.13 Q1340.2 1531.54 1344.44 1531.54 Q1345.04 1531.54 1345.77 1531.63 Q1346.5 1531.7 1347.4 1531.85 L1347.43 1537.87 Z" fill="#000000" fill-rule="evenodd" fill-opacity="1" /><polyline clip-path="url(#clip272)" style="stroke:#000000; stroke-linecap:butt; stroke-linejoin:round; stroke-width:2; stroke-opacity:0.1; fill:none" points="
  203.964,1264.68 2352.76,1264.68 
  "/>
<polyline clip-path="url(#clip272)" style="stroke:#000000; stroke-linecap:butt; stroke-linejoin:round; stroke-width:2; stroke-opacity:0.1; fill:none" points="
  203.964,1051.19 2352.76,1051.19 
  "/>
<polyline clip-path="url(#clip272)" style="stroke:#000000; stroke-linecap:butt; stroke-linejoin:round; stroke-width:2; stroke-opacity:0.1; fill:none" points="
  203.964,837.69 2352.76,837.69 
  "/>
<polyline clip-path="url(#clip272)" style="stroke:#000000; stroke-linecap:butt; stroke-linejoin:round; stroke-width:2; stroke-opacity:0.1; fill:none" points="
  203.964,624.194 2352.76,624.194 
  "/>
<polyline clip-path="url(#clip272)" style="stroke:#000000; stroke-linecap:butt; stroke-linejoin:round; stroke-width:2; stroke-opacity:0.1; fill:none" points="
  203.964,410.699 2352.76,410.699 
  "/>
<polyline clip-path="url(#clip272)" style="stroke:#000000; stroke-linecap:butt; stroke-linejoin:round; stroke-width:2; stroke-opacity:0.1; fill:none" points="
  203.964,197.203 2352.76,197.203 
  "/>
<polyline clip-path="url(#clip270)" style="stroke:#000000; stroke-linecap:butt; stroke-linejoin:round; stroke-width:4; stroke-opacity:1; fill:none" points="
  203.964,1423.18 203.964,47.2441 
  "/>
<polyline clip-path="url(#clip270)" style="stroke:#000000; stroke-linecap:butt; stroke-linejoin:round; stroke-width:4; stroke-opacity:1; fill:none" points="
  203.964,1264.68 222.861,1264.68 
  "/>
<polyline clip-path="url(#clip270)" style="stroke:#000000; stroke-linecap:butt; stroke-linejoin:round; stroke-width:4; stroke-opacity:1; fill:none" points="
  203.964,1051.19 222.861,1051.19 
  "/>
<polyline clip-path="url(#clip270)" style="stroke:#000000; stroke-linecap:butt; stroke-linejoin:round; stroke-width:4; stroke-opacity:1; fill:none" points="
  203.964,837.69 222.861,837.69 
  "/>
<polyline clip-path="url(#clip270)" style="stroke:#000000; stroke-linecap:butt; stroke-linejoin:round; stroke-width:4; stroke-opacity:1; fill:none" points="
  203.964,624.194 222.861,624.194 
  "/>
<polyline clip-path="url(#clip270)" style="stroke:#000000; stroke-linecap:butt; stroke-linejoin:round; stroke-width:4; stroke-opacity:1; fill:none" points="
  203.964,410.699 222.861,410.699 
  "/>
<polyline clip-path="url(#clip270)" style="stroke:#000000; stroke-linecap:butt; stroke-linejoin:round; stroke-width:4; stroke-opacity:1; fill:none" points="
  203.964,197.203 222.861,197.203 
  "/>
<path clip-path="url(#clip270)" d="M117.57 1278.03 L125.209 1278.03 L125.209 1251.66 L116.899 1253.33 L116.899 1249.07 L125.163 1247.4 L129.839 1247.4 L129.839 1278.03 L137.478 1278.03 L137.478 1281.96 L117.57 1281.96 L117.57 1278.03 Z" fill="#000000" fill-rule="evenodd" fill-opacity="1" /><path clip-path="url(#clip270)" d="M145.741 1247.4 L167.964 1247.4 L167.964 1249.39 L155.417 1281.96 L150.533 1281.96 L162.339 1251.34 L145.741 1251.34 L145.741 1247.4 Z" fill="#000000" fill-rule="evenodd" fill-opacity="1" /><path clip-path="url(#clip270)" d="M116.76 1064.53 L124.399 1064.53 L124.399 1038.16 L116.089 1039.83 L116.089 1035.57 L124.353 1033.91 L129.029 1033.91 L129.029 1064.53 L136.667 1064.53 L136.667 1068.47 L116.76 1068.47 L116.76 1064.53 Z" fill="#000000" fill-rule="evenodd" fill-opacity="1" /><path clip-path="url(#clip270)" d="M156.112 1052.05 Q152.778 1052.05 150.857 1053.84 Q148.959 1055.62 148.959 1058.74 Q148.959 1061.87 150.857 1063.65 Q152.778 1065.43 156.112 1065.43 Q159.445 1065.43 161.366 1063.65 Q163.288 1061.84 163.288 1058.74 Q163.288 1055.62 161.366 1053.84 Q159.468 1052.05 156.112 1052.05 M151.436 1050.06 Q148.427 1049.32 146.737 1047.26 Q145.07 1045.2 145.07 1042.24 Q145.07 1038.1 148.01 1035.69 Q150.973 1033.28 156.112 1033.28 Q161.274 1033.28 164.214 1035.69 Q167.153 1038.1 167.153 1042.24 Q167.153 1045.2 165.464 1047.26 Q163.797 1049.32 160.811 1050.06 Q164.19 1050.85 166.065 1053.14 Q167.964 1055.43 167.964 1058.74 Q167.964 1063.77 164.885 1066.45 Q161.829 1069.14 156.112 1069.14 Q150.394 1069.14 147.316 1066.45 Q144.26 1063.77 144.26 1058.74 Q144.26 1055.43 146.158 1053.14 Q148.056 1050.85 151.436 1050.06 M149.723 1042.68 Q149.723 1045.36 151.39 1046.87 Q153.079 1048.37 156.112 1048.37 Q159.121 1048.37 160.811 1046.87 Q162.524 1045.36 162.524 1042.68 Q162.524 1039.99 160.811 1038.49 Q159.121 1036.98 156.112 1036.98 Q153.079 1036.98 151.39 1038.49 Q149.723 1039.99 149.723 1042.68 Z" fill="#000000" fill-rule="evenodd" fill-opacity="1" /><path clip-path="url(#clip270)" d="M116.853 851.035 L124.492 851.035 L124.492 824.669 L116.181 826.336 L116.181 822.076 L124.445 820.41 L129.121 820.41 L129.121 851.035 L136.76 851.035 L136.76 854.97 L116.853 854.97 L116.853 851.035 Z" fill="#000000" fill-rule="evenodd" fill-opacity="1" /><path clip-path="url(#clip270)" d="M146.343 854.252 L146.343 849.993 Q148.103 850.826 149.908 851.266 Q151.714 851.706 153.45 851.706 Q158.079 851.706 160.51 848.604 Q162.964 845.479 163.311 839.137 Q161.968 841.127 159.908 842.192 Q157.848 843.257 155.348 843.257 Q150.163 843.257 147.13 840.132 Q144.121 836.984 144.121 831.544 Q144.121 826.22 147.269 823.002 Q150.417 819.785 155.649 819.785 Q161.644 819.785 164.792 824.391 Q167.964 828.975 167.964 837.725 Q167.964 845.896 164.075 850.78 Q160.209 855.641 153.658 855.641 Q151.899 855.641 150.093 855.294 Q148.288 854.947 146.343 854.252 M155.649 839.6 Q158.797 839.6 160.626 837.447 Q162.477 835.294 162.477 831.544 Q162.477 827.817 160.626 825.664 Q158.797 823.488 155.649 823.488 Q152.501 823.488 150.649 825.664 Q148.82 827.817 148.82 831.544 Q148.82 835.294 150.649 837.447 Q152.501 839.6 155.649 839.6 Z" fill="#000000" fill-rule="evenodd" fill-opacity="1" /><path clip-path="url(#clip270)" d="M119.885 637.539 L136.204 637.539 L136.204 641.474 L114.26 641.474 L114.26 637.539 Q116.922 634.785 121.505 630.155 Q126.112 625.502 127.292 624.16 Q129.538 621.636 130.417 619.9 Q131.32 618.141 131.32 616.451 Q131.32 613.697 129.376 611.961 Q127.455 610.224 124.353 610.224 Q122.154 610.224 119.7 610.988 Q117.269 611.752 114.492 613.303 L114.492 608.581 Q117.316 607.447 119.769 606.868 Q122.223 606.289 124.26 606.289 Q129.63 606.289 132.825 608.974 Q136.019 611.66 136.019 616.15 Q136.019 618.28 135.209 620.201 Q134.422 622.099 132.316 624.692 Q131.737 625.363 128.635 628.581 Q125.533 631.775 119.885 637.539 Z" fill="#000000" fill-rule="evenodd" fill-opacity="1" /><path clip-path="url(#clip270)" d="M156.019 609.993 Q152.408 609.993 150.579 613.558 Q148.774 617.099 148.774 624.229 Q148.774 631.335 150.579 634.9 Q152.408 638.442 156.019 638.442 Q159.653 638.442 161.459 634.9 Q163.288 631.335 163.288 624.229 Q163.288 617.099 161.459 613.558 Q159.653 609.993 156.019 609.993 M156.019 606.289 Q161.829 606.289 164.885 610.896 Q167.964 615.479 167.964 624.229 Q167.964 632.956 164.885 637.562 Q161.829 642.146 156.019 642.146 Q150.209 642.146 147.13 637.562 Q144.075 632.956 144.075 624.229 Q144.075 615.479 147.13 610.896 Q150.209 606.289 156.019 606.289 Z" fill="#000000" fill-rule="evenodd" fill-opacity="1" /><path clip-path="url(#clip270)" d="M121.112 424.044 L137.431 424.044 L137.431 427.979 L115.487 427.979 L115.487 424.044 Q118.149 421.289 122.732 416.659 Q127.339 412.007 128.519 410.664 Q130.765 408.141 131.644 406.405 Q132.547 404.646 132.547 402.956 Q132.547 400.201 130.603 398.465 Q128.681 396.729 125.58 396.729 Q123.38 396.729 120.927 397.493 Q118.496 398.257 115.718 399.808 L115.718 395.085 Q118.543 393.951 120.996 393.373 Q123.45 392.794 125.487 392.794 Q130.857 392.794 134.052 395.479 Q137.246 398.164 137.246 402.655 Q137.246 404.785 136.436 406.706 Q135.649 408.604 133.542 411.197 Q132.964 411.868 129.862 415.085 Q126.76 418.28 121.112 424.044 Z" fill="#000000" fill-rule="evenodd" fill-opacity="1" /><path clip-path="url(#clip270)" d="M148.056 424.044 L155.695 424.044 L155.695 397.678 L147.385 399.345 L147.385 395.085 L155.649 393.419 L160.325 393.419 L160.325 424.044 L167.964 424.044 L167.964 427.979 L148.056 427.979 L148.056 424.044 Z" fill="#000000" fill-rule="evenodd" fill-opacity="1" /><path clip-path="url(#clip270)" d="M121.482 210.548 L137.802 210.548 L137.802 214.483 L115.857 214.483 L115.857 210.548 Q118.519 207.794 123.103 203.164 Q127.709 198.511 128.89 197.169 Q131.135 194.645 132.015 192.909 Q132.917 191.15 132.917 189.46 Q132.917 186.706 130.973 184.97 Q129.052 183.233 125.95 183.233 Q123.751 183.233 121.297 183.997 Q118.867 184.761 116.089 186.312 L116.089 181.59 Q118.913 180.456 121.367 179.877 Q123.82 179.298 125.857 179.298 Q131.228 179.298 134.422 181.984 Q137.617 184.669 137.617 189.159 Q137.617 191.289 136.806 193.21 Q136.019 195.108 133.913 197.701 Q133.334 198.372 130.232 201.59 Q127.13 204.784 121.482 210.548 Z" fill="#000000" fill-rule="evenodd" fill-opacity="1" /><path clip-path="url(#clip270)" d="M151.644 210.548 L167.964 210.548 L167.964 214.483 L146.019 214.483 L146.019 210.548 Q148.681 207.794 153.265 203.164 Q157.871 198.511 159.052 197.169 Q161.297 194.645 162.177 192.909 Q163.079 191.15 163.079 189.46 Q163.079 186.706 161.135 184.97 Q159.214 183.233 156.112 183.233 Q153.913 183.233 151.459 183.997 Q149.028 184.761 146.251 186.312 L146.251 181.59 Q149.075 180.456 151.528 179.877 Q153.982 179.298 156.019 179.298 Q161.39 179.298 164.584 181.984 Q167.778 184.669 167.778 189.159 Q167.778 191.289 166.968 193.21 Q166.181 195.108 164.075 197.701 Q163.496 198.372 160.394 201.59 Q157.292 204.784 151.644 210.548 Z" fill="#000000" fill-rule="evenodd" fill-opacity="1" /><path clip-path="url(#clip270)" d="M16.4842 1073.42 L16.4842 1063.84 L48.8219 1051.71 L16.4842 1039.52 L16.4842 1029.94 L64.0042 1029.94 L64.0042 1036.21 L22.277 1036.21 L54.8694 1048.47 L54.8694 1054.93 L22.277 1067.18 L64.0042 1067.18 L64.0042 1073.42 L16.4842 1073.42 Z" fill="#000000" fill-rule="evenodd" fill-opacity="1" /><path clip-path="url(#clip270)" d="M46.0847 1001.23 Q46.0847 1008.33 47.7079 1011.07 Q49.3312 1013.81 53.2461 1013.81 Q56.3653 1013.81 58.2114 1011.77 Q60.0256 1009.7 60.0256 1006.17 Q60.0256 1001.3 56.5881 998.37 Q53.1188 995.41 47.3897 995.41 L46.0847 995.41 L46.0847 1001.23 M43.6657 989.554 L64.0042 989.554 L64.0042 995.41 L58.5933 995.41 Q61.8398 997.415 63.3994 1000.41 Q64.9272 1003.4 64.9272 1007.73 Q64.9272 1013.2 61.8716 1016.45 Q58.7843 1019.66 53.6281 1019.66 Q47.6125 1019.66 44.5569 1015.65 Q41.5014 1011.61 41.5014 1003.62 L41.5014 995.41 L40.9285 995.41 Q36.8862 995.41 34.6901 998.084 Q32.4621 1000.73 32.4621 1005.53 Q32.4621 1008.59 33.1941 1011.48 Q33.9262 1014.38 35.3903 1017.05 L29.9795 1017.05 Q28.7381 1013.84 28.1334 1010.82 Q27.4968 1007.79 27.4968 1004.93 Q27.4968 997.193 31.5072 993.373 Q35.5176 989.554 43.6657 989.554 Z" fill="#000000" fill-rule="evenodd" fill-opacity="1" /><path clip-path="url(#clip270)" d="M14.479 977.491 L14.479 971.634 L64.0042 971.634 L64.0042 977.491 L14.479 977.491 Z" fill="#000000" fill-rule="evenodd" fill-opacity="1" /><path clip-path="url(#clip270)" d="M44.7161 928.889 L47.5806 928.889 L47.5806 955.816 Q53.6281 955.434 56.8109 952.187 Q59.9619 948.909 59.9619 943.084 Q59.9619 939.71 59.1344 936.559 Q58.3069 933.376 56.6518 930.257 L62.1899 930.257 Q63.5267 933.408 64.227 936.718 Q64.9272 940.029 64.9272 943.434 Q64.9272 951.964 59.9619 956.961 Q54.9967 961.927 46.5303 961.927 Q37.7774 961.927 32.6531 957.216 Q27.4968 952.474 27.4968 944.453 Q27.4968 937.259 32.1438 933.09 Q36.7589 928.889 44.7161 928.889 M42.9973 934.745 Q38.1912 934.809 35.3266 937.45 Q32.4621 940.06 32.4621 944.389 Q32.4621 949.291 35.2312 952.251 Q38.0002 955.179 43.0292 955.625 L42.9973 934.745 Z" fill="#000000" fill-rule="evenodd" fill-opacity="1" /><path clip-path="url(#clip270)" d="M18.0438 869.815 L24.314 869.815 Q22.5634 873.475 21.704 876.722 Q20.8447 879.968 20.8447 882.992 Q20.8447 888.244 22.8817 891.108 Q24.9187 893.941 28.6745 893.941 Q31.8255 893.941 33.4488 892.063 Q35.0402 890.153 36.0269 884.87 L36.8226 880.987 Q38.1912 873.793 41.6605 870.388 Q45.098 866.95 50.8908 866.95 Q57.7976 866.95 61.3624 871.597 Q64.9272 876.212 64.9272 885.156 Q64.9272 888.53 64.1633 892.349 Q63.3994 896.137 61.9035 900.211 L55.2831 900.211 Q57.4793 896.296 58.5933 892.54 Q59.7073 888.785 59.7073 885.156 Q59.7073 879.65 57.543 876.658 Q55.3786 873.666 51.3682 873.666 Q47.8671 873.666 45.8937 875.83 Q43.9204 877.963 42.9337 882.865 L42.1698 886.779 Q40.7375 893.973 37.682 897.187 Q34.6264 900.402 29.1837 900.402 Q22.8817 900.402 19.2532 895.978 Q15.6248 891.522 15.6248 883.724 Q15.6248 880.382 16.2295 876.913 Q16.8343 873.443 18.0438 869.815 Z" fill="#000000" fill-rule="evenodd" fill-opacity="1" /><path clip-path="url(#clip270)" d="M49.9359 857.784 L28.3562 857.784 L28.3562 851.927 L49.7131 851.927 Q54.7739 851.927 57.3202 849.954 Q59.8346 847.98 59.8346 844.034 Q59.8346 839.291 56.8109 836.554 Q53.7872 833.785 48.5673 833.785 L28.3562 833.785 L28.3562 827.928 L64.0042 827.928 L64.0042 833.785 L58.5296 833.785 Q61.7762 835.917 63.3676 838.75 Q64.9272 841.551 64.9272 845.275 Q64.9272 851.418 61.1078 854.601 Q57.2883 857.784 49.9359 857.784 M27.4968 843.047 L27.4968 843.047 Z" fill="#000000" fill-rule="evenodd" fill-opacity="1" /><path clip-path="url(#clip270)" d="M28.3562 815.865 L28.3562 810.009 L64.0042 810.009 L64.0042 815.865 L28.3562 815.865 M14.479 815.865 L14.479 810.009 L21.895 810.009 L21.895 815.865 L14.479 815.865 Z" fill="#000000" fill-rule="evenodd" fill-opacity="1" /><path clip-path="url(#clip270)" d="M29.7248 772.101 L35.1993 772.101 Q33.8307 774.584 33.1623 777.098 Q32.4621 779.581 32.4621 782.127 Q32.4621 787.825 36.0905 790.976 Q39.6872 794.127 46.212 794.127 Q52.7369 794.127 56.3653 790.976 Q59.9619 787.825 59.9619 782.127 Q59.9619 779.581 59.2935 777.098 Q58.5933 774.584 57.2247 772.101 L62.6355 772.101 Q63.7814 774.552 64.3543 777.194 Q64.9272 779.804 64.9272 782.764 Q64.9272 790.816 59.8664 795.559 Q54.8057 800.301 46.212 800.301 Q37.491 800.301 32.4939 795.527 Q27.4968 790.721 27.4968 782.382 Q27.4968 779.676 28.0697 777.098 Q28.6108 774.52 29.7248 772.101 Z" fill="#000000" fill-rule="evenodd" fill-opacity="1" /><path clip-path="url(#clip270)" d="M28.3562 761.916 L28.3562 756.06 L64.0042 756.06 L64.0042 761.916 L28.3562 761.916 M14.479 761.916 L14.479 756.06 L21.895 756.06 L21.895 761.916 L14.479 761.916 Z" fill="#000000" fill-rule="evenodd" fill-opacity="1" /><path clip-path="url(#clip270)" d="M33.7671 720.348 L14.479 720.348 L14.479 714.492 L64.0042 714.492 L64.0042 720.348 L58.657 720.348 Q61.8398 722.194 63.3994 725.027 Q64.9272 727.828 64.9272 731.774 Q64.9272 738.236 59.771 742.31 Q54.6147 746.352 46.212 746.352 Q37.8093 746.352 32.6531 742.31 Q27.4968 738.236 27.4968 731.774 Q27.4968 727.828 29.0564 725.027 Q30.5842 722.194 33.7671 720.348 M46.212 740.305 Q52.6732 740.305 56.3653 737.663 Q60.0256 734.989 60.0256 730.342 Q60.0256 725.695 56.3653 723.022 Q52.6732 720.348 46.212 720.348 Q39.7508 720.348 36.0905 723.022 Q32.3984 725.695 32.3984 730.342 Q32.3984 734.989 36.0905 737.663 Q39.7508 740.305 46.212 740.305 Z" fill="#000000" fill-rule="evenodd" fill-opacity="1" /><path clip-path="url(#clip270)" d="M44.7161 671.937 L47.5806 671.937 L47.5806 698.864 Q53.6281 698.482 56.8109 695.235 Q59.9619 691.957 59.9619 686.132 Q59.9619 682.759 59.1344 679.608 Q58.3069 676.425 56.6518 673.305 L62.1899 673.305 Q63.5267 676.456 64.227 679.767 Q64.9272 683.077 64.9272 686.482 Q64.9272 695.013 59.9619 700.01 Q54.9967 704.975 46.5303 704.975 Q37.7774 704.975 32.6531 700.264 Q27.4968 695.522 27.4968 687.501 Q27.4968 680.308 32.1438 676.138 Q36.7589 671.937 44.7161 671.937 M42.9973 677.793 Q38.1912 677.857 35.3266 680.499 Q32.4621 683.109 32.4621 687.437 Q32.4621 692.339 35.2312 695.299 Q38.0002 698.227 43.0292 698.673 L42.9973 677.793 Z" fill="#000000" fill-rule="evenodd" fill-opacity="1" /><path clip-path="url(#clip270)" d="M16.4842 651.917 L16.4842 646.506 L70.0516 663.057 L70.0516 668.468 L16.4842 651.917 Z" fill="#000000" fill-rule="evenodd" fill-opacity="1" /><path clip-path="url(#clip270)" d="M58.5933 638.421 L58.5933 627.918 L22.3406 627.918 L24.6323 639.344 L18.7758 639.344 L16.4842 627.982 L16.4842 621.552 L58.5933 621.552 L58.5933 611.049 L64.0042 611.049 L64.0042 638.421 L58.5933 638.421 Z" fill="#000000" fill-rule="evenodd" fill-opacity="1" /><path clip-path="url(#clip270)" d="M20.7174 584.313 Q20.7174 589.278 25.6189 591.793 Q30.4887 594.275 40.2919 594.275 Q50.0633 594.275 54.9649 591.793 Q59.8346 589.278 59.8346 584.313 Q59.8346 579.316 54.9649 576.833 Q50.0633 574.319 40.2919 574.319 Q30.4887 574.319 25.6189 576.833 Q20.7174 579.316 20.7174 584.313 M15.6248 584.313 Q15.6248 576.324 21.9587 572.123 Q28.2607 567.889 40.2919 567.889 Q52.2913 567.889 58.6251 572.123 Q64.9272 576.324 64.9272 584.313 Q64.9272 592.302 58.6251 596.535 Q52.2913 600.736 40.2919 600.736 Q28.2607 600.736 21.9587 596.535 Q15.6248 592.302 15.6248 584.313 Z" fill="#000000" fill-rule="evenodd" fill-opacity="1" /><path clip-path="url(#clip270)" d="M20.7174 542.84 Q20.7174 547.806 25.6189 550.32 Q30.4887 552.803 40.2919 552.803 Q50.0633 552.803 54.9649 550.32 Q59.8346 547.806 59.8346 542.84 Q59.8346 537.843 54.9649 535.361 Q50.0633 532.846 40.2919 532.846 Q30.4887 532.846 25.6189 535.361 Q20.7174 537.843 20.7174 542.84 M15.6248 542.84 Q15.6248 534.851 21.9587 530.65 Q28.2607 526.417 40.2919 526.417 Q52.2913 526.417 58.6251 530.65 Q64.9272 534.851 64.9272 542.84 Q64.9272 550.829 58.6251 555.062 Q52.2913 559.264 40.2919 559.264 Q28.2607 559.264 21.9587 555.062 Q15.6248 550.829 15.6248 542.84 Z" fill="#000000" fill-rule="evenodd" fill-opacity="1" /><path clip-path="url(#clip270)" d="M14.479 516.168 L14.479 510.28 L43.7294 510.28 L28.3562 492.806 L28.3562 485.326 L45.0344 504.232 L64.0042 484.53 L64.0042 492.169 L46.5939 510.28 L64.0042 510.28 L64.0042 516.168 L14.479 516.168 Z" fill="#000000" fill-rule="evenodd" fill-opacity="1" /><path clip-path="url(#clip270)" d="M16.4842 467.789 L16.4842 462.378 L70.0516 478.929 L70.0516 484.339 L16.4842 467.789 Z" fill="#000000" fill-rule="evenodd" fill-opacity="1" /><path clip-path="url(#clip270)" d="M67.3143 441.403 Q73.68 443.885 75.6216 446.241 Q77.5631 448.596 77.5631 452.543 L77.5631 457.222 L72.6615 457.222 L72.6615 453.784 Q72.6615 451.365 71.5157 450.028 Q70.3699 448.692 66.1048 447.068 L63.4312 446.018 L28.3562 460.436 L28.3562 454.23 L56.238 443.09 L28.3562 431.95 L28.3562 425.743 L67.3143 441.403 Z" fill="#000000" fill-rule="evenodd" fill-opacity="1" /><path clip-path="url(#clip270)" d="M33.8307 397.002 Q33.2578 397.989 33.0032 399.166 Q32.7167 400.312 32.7167 401.713 Q32.7167 406.678 35.9632 409.351 Q39.1779 411.993 45.2253 411.993 L64.0042 411.993 L64.0042 417.881 L28.3562 417.881 L28.3562 411.993 L33.8944 411.993 Q30.6479 410.147 29.0883 407.187 Q27.4968 404.227 27.4968 399.994 Q27.4968 399.389 27.5923 398.657 Q27.656 397.925 27.8151 397.034 L33.8307 397.002 Z" fill="#000000" fill-rule="evenodd" fill-opacity="1" /><circle clip-path="url(#clip272)" cx="2291.94" cy="111.805" r="14.4" fill="#009af9" fill-rule="evenodd" fill-opacity="1" stroke="#000000" stroke-opacity="1" stroke-width="3.2"/>
<circle clip-path="url(#clip272)" cx="2185.25" cy="242.037" r="14.4" fill="#009af9" fill-rule="evenodd" fill-opacity="1" stroke="#000000" stroke-opacity="1" stroke-width="3.2"/>
<circle clip-path="url(#clip272)" cx="2078.56" cy="86.1857" r="14.4" fill="#009af9" fill-rule="evenodd" fill-opacity="1" stroke="#000000" stroke-opacity="1" stroke-width="3.2"/>
<circle clip-path="url(#clip272)" cx="1971.86" cy="368" r="14.4" fill="#009af9" fill-rule="evenodd" fill-opacity="1" stroke="#000000" stroke-opacity="1" stroke-width="3.2"/>
<circle clip-path="url(#clip272)" cx="1865.17" cy="654.084" r="14.4" fill="#009af9" fill-rule="evenodd" fill-opacity="1" stroke="#000000" stroke-opacity="1" stroke-width="3.2"/>
<circle clip-path="url(#clip272)" cx="1758.48" cy="786.451" r="14.4" fill="#009af9" fill-rule="evenodd" fill-opacity="1" stroke="#000000" stroke-opacity="1" stroke-width="3.2"/>
<circle clip-path="url(#clip272)" cx="1651.78" cy="886.794" r="14.4" fill="#009af9" fill-rule="evenodd" fill-opacity="1" stroke="#000000" stroke-opacity="1" stroke-width="3.2"/>
<circle clip-path="url(#clip272)" cx="1545.09" cy="856.904" r="14.4" fill="#009af9" fill-rule="evenodd" fill-opacity="1" stroke="#000000" stroke-opacity="1" stroke-width="3.2"/>
<circle clip-path="url(#clip272)" cx="1438.4" cy="865.444" r="14.4" fill="#009af9" fill-rule="evenodd" fill-opacity="1" stroke="#000000" stroke-opacity="1" stroke-width="3.2"/>
<circle clip-path="url(#clip272)" cx="1331.71" cy="940.168" r="14.4" fill="#009af9" fill-rule="evenodd" fill-opacity="1" stroke="#000000" stroke-opacity="1" stroke-width="3.2"/>
<circle clip-path="url(#clip272)" cx="1225.01" cy="1036.24" r="14.4" fill="#009af9" fill-rule="evenodd" fill-opacity="1" stroke="#000000" stroke-opacity="1" stroke-width="3.2"/>
<circle clip-path="url(#clip272)" cx="1118.32" cy="1031.97" r="14.4" fill="#009af9" fill-rule="evenodd" fill-opacity="1" stroke="#000000" stroke-opacity="1" stroke-width="3.2"/>
<circle clip-path="url(#clip272)" cx="1011.63" cy="1104.56" r="14.4" fill="#009af9" fill-rule="evenodd" fill-opacity="1" stroke="#000000" stroke-opacity="1" stroke-width="3.2"/>
<circle clip-path="url(#clip272)" cx="904.935" cy="1164.34" r="14.4" fill="#009af9" fill-rule="evenodd" fill-opacity="1" stroke="#000000" stroke-opacity="1" stroke-width="3.2"/>
<circle clip-path="url(#clip272)" cx="798.242" cy="1241.2" r="14.4" fill="#009af9" fill-rule="evenodd" fill-opacity="1" stroke="#000000" stroke-opacity="1" stroke-width="3.2"/>
<circle clip-path="url(#clip272)" cx="691.55" cy="1230.52" r="14.4" fill="#009af9" fill-rule="evenodd" fill-opacity="1" stroke="#000000" stroke-opacity="1" stroke-width="3.2"/>
<circle clip-path="url(#clip272)" cx="584.857" cy="1243.33" r="14.4" fill="#009af9" fill-rule="evenodd" fill-opacity="1" stroke="#000000" stroke-opacity="1" stroke-width="3.2"/>
<circle clip-path="url(#clip272)" cx="478.164" cy="1204.9" r="14.4" fill="#009af9" fill-rule="evenodd" fill-opacity="1" stroke="#000000" stroke-opacity="1" stroke-width="3.2"/>
<circle clip-path="url(#clip272)" cx="371.471" cy="1279.63" r="14.4" fill="#009af9" fill-rule="evenodd" fill-opacity="1" stroke="#000000" stroke-opacity="1" stroke-width="3.2"/>
<circle clip-path="url(#clip272)" cx="264.778" cy="1384.24" r="14.4" fill="#009af9" fill-rule="evenodd" fill-opacity="1" stroke="#000000" stroke-opacity="1" stroke-width="3.2"/>
</svg>
