<?xml version="1.0" encoding="utf-8"?>
<svg xmlns="http://www.w3.org/2000/svg" xmlns:xlink="http://www.w3.org/1999/xlink" width="600" height="400" viewBox="0 0 2400 1600">
<defs>
  <clipPath id="clip780">
    <rect x="0" y="0" width="2400" height="1600"/>
  </clipPath>
</defs>
<path clip-path="url(#clip780)" d="
M0 1600 L2400 1600 L2400 0 L0 0  Z
  " fill="#ffffff" fill-rule="evenodd" fill-opacity="1"/>
<defs>
  <clipPath id="clip781">
    <rect x="480" y="0" width="1681" height="1600"/>
  </clipPath>
</defs>
<path clip-path="url(#clip780)" d="
M186.274 1486.45 L2352.76 1486.45 L2352.76 123.472 L186.274 123.472  Z
  " fill="#ffffff" fill-rule="evenodd" fill-opacity="1"/>
<defs>
  <clipPath id="clip782">
    <rect x="186" y="123" width="2167" height="1364"/>
  </clipPath>
</defs>
<polyline clip-path="url(#clip782)" style="stroke:#000000; stroke-linecap:butt; stroke-linejoin:round; stroke-width:2; stroke-opacity:0.1; fill:none" points="
  247.59,1486.45 247.59,123.472 
  "/>
<polyline clip-path="url(#clip782)" style="stroke:#000000; stroke-linecap:butt; stroke-linejoin:round; stroke-width:2; stroke-opacity:0.1; fill:none" points="
  599.978,1486.45 599.978,123.472 
  "/>
<polyline clip-path="url(#clip782)" style="stroke:#000000; stroke-linecap:butt; stroke-linejoin:round; stroke-width:2; stroke-opacity:0.1; fill:none" points="
  952.366,1486.45 952.366,123.472 
  "/>
<polyline clip-path="url(#clip782)" style="stroke:#000000; stroke-linecap:butt; stroke-linejoin:round; stroke-width:2; stroke-opacity:0.1; fill:none" points="
  1304.75,1486.45 1304.75,123.472 
  "/>
<polyline clip-path="url(#clip782)" style="stroke:#000000; stroke-linecap:butt; stroke-linejoin:round; stroke-width:2; stroke-opacity:0.1; fill:none" points="
  1657.14,1486.45 1657.14,123.472 
  "/>
<polyline clip-path="url(#clip782)" style="stroke:#000000; stroke-linecap:butt; stroke-linejoin:round; stroke-width:2; stroke-opacity:0.1; fill:none" points="
  2009.53,1486.45 2009.53,123.472 
  "/>
<polyline clip-path="url(#clip780)" style="stroke:#000000; stroke-linecap:butt; stroke-linejoin:round; stroke-width:4; stroke-opacity:1; fill:none" points="
  186.274,1486.45 2352.76,1486.45 
  "/>
<polyline clip-path="url(#clip780)" style="stroke:#000000; stroke-linecap:butt; stroke-linejoin:round; stroke-width:4; stroke-opacity:1; fill:none" points="
  247.59,1486.45 247.59,1467.55 
  "/>
<polyline clip-path="url(#clip780)" style="stroke:#000000; stroke-linecap:butt; stroke-linejoin:round; stroke-width:4; stroke-opacity:1; fill:none" points="
  599.978,1486.45 599.978,1467.55 
  "/>
<polyline clip-path="url(#clip780)" style="stroke:#000000; stroke-linecap:butt; stroke-linejoin:round; stroke-width:4; stroke-opacity:1; fill:none" points="
  952.366,1486.45 952.366,1467.55 
  "/>
<polyline clip-path="url(#clip780)" style="stroke:#000000; stroke-linecap:butt; stroke-linejoin:round; stroke-width:4; stroke-opacity:1; fill:none" points="
  1304.75,1486.45 1304.75,1467.55 
  "/>
<polyline clip-path="url(#clip780)" style="stroke:#000000; stroke-linecap:butt; stroke-linejoin:round; stroke-width:4; stroke-opacity:1; fill:none" points="
  1657.14,1486.45 1657.14,1467.55 
  "/>
<polyline clip-path="url(#clip780)" style="stroke:#000000; stroke-linecap:butt; stroke-linejoin:round; stroke-width:4; stroke-opacity:1; fill:none" points="
  2009.53,1486.45 2009.53,1467.55 
  "/>
<path clip-path="url(#clip780)" d="M247.59 1517.37 Q243.978 1517.37 242.15 1520.93 Q240.344 1524.47 240.344 1531.6 Q240.344 1538.71 242.15 1542.27 Q243.978 1545.82 247.59 1545.82 Q251.224 1545.82 253.029 1542.27 Q254.858 1538.71 254.858 1531.6 Q254.858 1524.47 253.029 1520.93 Q251.224 1517.37 247.59 1517.37 M247.59 1513.66 Q253.4 1513.66 256.455 1518.27 Q259.534 1522.85 259.534 1531.6 Q259.534 1540.33 256.455 1544.94 Q253.4 1549.52 247.59 1549.52 Q241.779 1549.52 238.701 1544.94 Q235.645 1540.33 235.645 1531.6 Q235.645 1522.85 238.701 1518.27 Q241.779 1513.66 247.59 1513.66 Z" fill="#000000" fill-rule="evenodd" fill-opacity="1" /><path clip-path="url(#clip780)" d="M574.665 1544.91 L582.304 1544.91 L582.304 1518.55 L573.994 1520.21 L573.994 1515.95 L582.258 1514.29 L586.934 1514.29 L586.934 1544.91 L594.573 1544.91 L594.573 1548.85 L574.665 1548.85 L574.665 1544.91 Z" fill="#000000" fill-rule="evenodd" fill-opacity="1" /><path clip-path="url(#clip780)" d="M614.017 1517.37 Q610.406 1517.37 608.577 1520.93 Q606.772 1524.47 606.772 1531.6 Q606.772 1538.71 608.577 1542.27 Q610.406 1545.82 614.017 1545.82 Q617.651 1545.82 619.457 1542.27 Q621.285 1538.71 621.285 1531.6 Q621.285 1524.47 619.457 1520.93 Q617.651 1517.37 614.017 1517.37 M614.017 1513.66 Q619.827 1513.66 622.883 1518.27 Q625.961 1522.85 625.961 1531.6 Q625.961 1540.33 622.883 1544.94 Q619.827 1549.52 614.017 1549.52 Q608.207 1549.52 605.128 1544.94 Q602.073 1540.33 602.073 1531.6 Q602.073 1522.85 605.128 1518.27 Q608.207 1513.66 614.017 1513.66 Z" fill="#000000" fill-rule="evenodd" fill-opacity="1" /><path clip-path="url(#clip780)" d="M931.139 1544.91 L947.458 1544.91 L947.458 1548.85 L925.514 1548.85 L925.514 1544.91 Q928.176 1542.16 932.759 1537.53 Q937.366 1532.88 938.546 1531.53 Q940.792 1529.01 941.671 1527.27 Q942.574 1525.51 942.574 1523.82 Q942.574 1521.07 940.63 1519.33 Q938.708 1517.6 935.607 1517.6 Q933.407 1517.6 930.954 1518.36 Q928.523 1519.13 925.745 1520.68 L925.745 1515.95 Q928.57 1514.82 931.023 1514.24 Q933.477 1513.66 935.514 1513.66 Q940.884 1513.66 944.079 1516.35 Q947.273 1519.03 947.273 1523.52 Q947.273 1525.65 946.463 1527.57 Q945.676 1529.47 943.569 1532.07 Q942.991 1532.74 939.889 1535.95 Q936.787 1539.15 931.139 1544.91 Z" fill="#000000" fill-rule="evenodd" fill-opacity="1" /><path clip-path="url(#clip780)" d="M967.273 1517.37 Q963.662 1517.37 961.833 1520.93 Q960.028 1524.47 960.028 1531.6 Q960.028 1538.71 961.833 1542.27 Q963.662 1545.82 967.273 1545.82 Q970.907 1545.82 972.713 1542.27 Q974.541 1538.71 974.541 1531.6 Q974.541 1524.47 972.713 1520.93 Q970.907 1517.37 967.273 1517.37 M967.273 1513.66 Q973.083 1513.66 976.139 1518.27 Q979.217 1522.85 979.217 1531.6 Q979.217 1540.33 976.139 1544.94 Q973.083 1549.52 967.273 1549.52 Q961.463 1549.52 958.384 1544.94 Q955.329 1540.33 955.329 1531.6 Q955.329 1522.85 958.384 1518.27 Q961.463 1513.66 967.273 1513.66 Z" fill="#000000" fill-rule="evenodd" fill-opacity="1" /><path clip-path="url(#clip780)" d="M1293.6 1530.21 Q1296.95 1530.93 1298.83 1533.2 Q1300.73 1535.47 1300.73 1538.8 Q1300.73 1543.92 1297.21 1546.72 Q1293.69 1549.52 1287.21 1549.52 Q1285.03 1549.52 1282.72 1549.08 Q1280.43 1548.66 1277.97 1547.81 L1277.97 1543.29 Q1279.92 1544.43 1282.23 1545.01 Q1284.55 1545.58 1287.07 1545.58 Q1291.47 1545.58 1293.76 1543.85 Q1296.07 1542.11 1296.07 1538.8 Q1296.07 1535.75 1293.92 1534.03 Q1291.79 1532.3 1287.97 1532.3 L1283.94 1532.3 L1283.94 1528.45 L1288.16 1528.45 Q1291.61 1528.45 1293.43 1527.09 Q1295.26 1525.7 1295.26 1523.11 Q1295.26 1520.45 1293.36 1519.03 Q1291.49 1517.6 1287.97 1517.6 Q1286.05 1517.6 1283.85 1518.01 Q1281.65 1518.43 1279.01 1519.31 L1279.01 1515.14 Q1281.68 1514.4 1283.99 1514.03 Q1286.33 1513.66 1288.39 1513.66 Q1293.71 1513.66 1296.81 1516.09 Q1299.92 1518.5 1299.92 1522.62 Q1299.92 1525.49 1298.27 1527.48 Q1296.63 1529.45 1293.6 1530.21 Z" fill="#000000" fill-rule="evenodd" fill-opacity="1" /><path clip-path="url(#clip780)" d="M1319.59 1517.37 Q1315.98 1517.37 1314.15 1520.93 Q1312.35 1524.47 1312.35 1531.6 Q1312.35 1538.71 1314.15 1542.27 Q1315.98 1545.82 1319.59 1545.82 Q1323.23 1545.82 1325.03 1542.27 Q1326.86 1538.71 1326.86 1531.6 Q1326.86 1524.47 1325.03 1520.93 Q1323.23 1517.37 1319.59 1517.37 M1319.59 1513.66 Q1325.4 1513.66 1328.46 1518.27 Q1331.54 1522.85 1331.54 1531.6 Q1331.54 1540.33 1328.46 1544.94 Q1325.4 1549.52 1319.59 1549.52 Q1313.78 1549.52 1310.7 1544.94 Q1307.65 1540.33 1307.65 1531.6 Q1307.65 1522.85 1310.7 1518.27 Q1313.78 1513.66 1319.59 1513.66 Z" fill="#000000" fill-rule="evenodd" fill-opacity="1" /><path clip-path="url(#clip780)" d="M1645.31 1518.36 L1633.51 1536.81 L1645.31 1536.81 L1645.31 1518.36 M1644.09 1514.29 L1649.97 1514.29 L1649.97 1536.81 L1654.9 1536.81 L1654.9 1540.7 L1649.97 1540.7 L1649.97 1548.85 L1645.31 1548.85 L1645.31 1540.7 L1629.71 1540.7 L1629.71 1536.19 L1644.09 1514.29 Z" fill="#000000" fill-rule="evenodd" fill-opacity="1" /><path clip-path="url(#clip780)" d="M1672.63 1517.37 Q1669.02 1517.37 1667.19 1520.93 Q1665.38 1524.47 1665.38 1531.6 Q1665.38 1538.71 1667.19 1542.27 Q1669.02 1545.82 1672.63 1545.82 Q1676.26 1545.82 1678.07 1542.27 Q1679.9 1538.71 1679.9 1531.6 Q1679.9 1524.47 1678.07 1520.93 Q1676.26 1517.37 1672.63 1517.37 M1672.63 1513.66 Q1678.44 1513.66 1681.49 1518.27 Q1684.57 1522.85 1684.57 1531.6 Q1684.57 1540.33 1681.49 1544.94 Q1678.44 1549.52 1672.63 1549.52 Q1666.82 1549.52 1663.74 1544.94 Q1660.68 1540.33 1660.68 1531.6 Q1660.68 1522.85 1663.74 1518.27 Q1666.82 1513.66 1672.63 1513.66 Z" fill="#000000" fill-rule="evenodd" fill-opacity="1" /><path clip-path="url(#clip780)" d="M1984.23 1514.29 L2002.59 1514.29 L2002.59 1518.22 L1988.51 1518.22 L1988.51 1526.7 Q1989.53 1526.35 1990.55 1526.19 Q1991.57 1526 1992.59 1526 Q1998.37 1526 2001.75 1529.17 Q2005.13 1532.34 2005.13 1537.76 Q2005.13 1543.34 2001.66 1546.44 Q1998.19 1549.52 1991.87 1549.52 Q1989.69 1549.52 1987.42 1549.15 Q1985.18 1548.78 1982.77 1548.04 L1982.77 1543.34 Q1984.85 1544.47 1987.08 1545.03 Q1989.3 1545.58 1991.78 1545.58 Q1995.78 1545.58 1998.12 1543.48 Q2000.46 1541.37 2000.46 1537.76 Q2000.46 1534.15 1998.12 1532.04 Q1995.78 1529.94 1991.78 1529.94 Q1989.9 1529.94 1988.03 1530.35 Q1986.17 1530.77 1984.23 1531.65 L1984.23 1514.29 Z" fill="#000000" fill-rule="evenodd" fill-opacity="1" /><path clip-path="url(#clip780)" d="M2024.34 1517.37 Q2020.73 1517.37 2018.9 1520.93 Q2017.1 1524.47 2017.1 1531.6 Q2017.1 1538.71 2018.9 1542.27 Q2020.73 1545.82 2024.34 1545.82 Q2027.98 1545.82 2029.78 1542.27 Q2031.61 1538.71 2031.61 1531.6 Q2031.61 1524.47 2029.78 1520.93 Q2027.98 1517.37 2024.34 1517.37 M2024.34 1513.66 Q2030.15 1513.66 2033.21 1518.27 Q2036.29 1522.85 2036.29 1531.6 Q2036.29 1540.33 2033.21 1544.94 Q2030.15 1549.52 2024.34 1549.52 Q2018.53 1549.52 2015.46 1544.94 Q2012.4 1540.33 2012.4 1531.6 Q2012.4 1522.85 2015.46 1518.27 Q2018.53 1513.66 2024.34 1513.66 Z" fill="#000000" fill-rule="evenodd" fill-opacity="1" /><polyline clip-path="url(#clip782)" style="stroke:#000000; stroke-linecap:butt; stroke-linejoin:round; stroke-width:2; stroke-opacity:0.1; fill:none" points="
  186.274,1447.87 2352.76,1447.87 
  "/>
<polyline clip-path="url(#clip782)" style="stroke:#000000; stroke-linecap:butt; stroke-linejoin:round; stroke-width:2; stroke-opacity:0.1; fill:none" points="
  186.274,1126.42 2352.76,1126.42 
  "/>
<polyline clip-path="url(#clip782)" style="stroke:#000000; stroke-linecap:butt; stroke-linejoin:round; stroke-width:2; stroke-opacity:0.1; fill:none" points="
  186.274,804.96 2352.76,804.96 
  "/>
<polyline clip-path="url(#clip782)" style="stroke:#000000; stroke-linecap:butt; stroke-linejoin:round; stroke-width:2; stroke-opacity:0.1; fill:none" points="
  186.274,483.503 2352.76,483.503 
  "/>
<polyline clip-path="url(#clip782)" style="stroke:#000000; stroke-linecap:butt; stroke-linejoin:round; stroke-width:2; stroke-opacity:0.1; fill:none" points="
  186.274,162.047 2352.76,162.047 
  "/>
<polyline clip-path="url(#clip780)" style="stroke:#000000; stroke-linecap:butt; stroke-linejoin:round; stroke-width:4; stroke-opacity:1; fill:none" points="
  186.274,1486.45 186.274,123.472 
  "/>
<polyline clip-path="url(#clip780)" style="stroke:#000000; stroke-linecap:butt; stroke-linejoin:round; stroke-width:4; stroke-opacity:1; fill:none" points="
  186.274,1447.87 205.172,1447.87 
  "/>
<polyline clip-path="url(#clip780)" style="stroke:#000000; stroke-linecap:butt; stroke-linejoin:round; stroke-width:4; stroke-opacity:1; fill:none" points="
  186.274,1126.42 205.172,1126.42 
  "/>
<polyline clip-path="url(#clip780)" style="stroke:#000000; stroke-linecap:butt; stroke-linejoin:round; stroke-width:4; stroke-opacity:1; fill:none" points="
  186.274,804.96 205.172,804.96 
  "/>
<polyline clip-path="url(#clip780)" style="stroke:#000000; stroke-linecap:butt; stroke-linejoin:round; stroke-width:4; stroke-opacity:1; fill:none" points="
  186.274,483.503 205.172,483.503 
  "/>
<polyline clip-path="url(#clip780)" style="stroke:#000000; stroke-linecap:butt; stroke-linejoin:round; stroke-width:4; stroke-opacity:1; fill:none" points="
  186.274,162.047 205.172,162.047 
  "/>
<path clip-path="url(#clip780)" d="M62.9365 1433.67 Q59.3254 1433.67 57.4967 1437.24 Q55.6912 1440.78 55.6912 1447.91 Q55.6912 1455.01 57.4967 1458.58 Q59.3254 1462.12 62.9365 1462.12 Q66.5707 1462.12 68.3763 1458.58 Q70.205 1455.01 70.205 1447.91 Q70.205 1440.78 68.3763 1437.24 Q66.5707 1433.67 62.9365 1433.67 M62.9365 1429.97 Q68.7467 1429.97 71.8022 1434.57 Q74.8809 1439.16 74.8809 1447.91 Q74.8809 1456.63 71.8022 1461.24 Q68.7467 1465.82 62.9365 1465.82 Q57.1264 1465.82 54.0477 1461.24 Q50.9921 1456.63 50.9921 1447.91 Q50.9921 1439.16 54.0477 1434.57 Q57.1264 1429.97 62.9365 1429.97 Z" fill="#000000" fill-rule="evenodd" fill-opacity="1" /><path clip-path="url(#clip780)" d="M83.0984 1459.27 L87.9827 1459.27 L87.9827 1465.15 L83.0984 1465.15 L83.0984 1459.27 Z" fill="#000000" fill-rule="evenodd" fill-opacity="1" /><path clip-path="url(#clip780)" d="M108.168 1433.67 Q104.557 1433.67 102.728 1437.24 Q100.922 1440.78 100.922 1447.91 Q100.922 1455.01 102.728 1458.58 Q104.557 1462.12 108.168 1462.12 Q111.802 1462.12 113.608 1458.58 Q115.436 1455.01 115.436 1447.91 Q115.436 1440.78 113.608 1437.24 Q111.802 1433.67 108.168 1433.67 M108.168 1429.97 Q113.978 1429.97 117.033 1434.57 Q120.112 1439.16 120.112 1447.91 Q120.112 1456.63 117.033 1461.24 Q113.978 1465.82 108.168 1465.82 Q102.358 1465.82 99.2789 1461.24 Q96.2234 1456.63 96.2234 1447.91 Q96.2234 1439.16 99.2789 1434.57 Q102.358 1429.97 108.168 1429.97 Z" fill="#000000" fill-rule="evenodd" fill-opacity="1" /><path clip-path="url(#clip780)" d="M138.33 1433.67 Q134.719 1433.67 132.89 1437.24 Q131.084 1440.78 131.084 1447.91 Q131.084 1455.01 132.89 1458.58 Q134.719 1462.12 138.33 1462.12 Q141.964 1462.12 143.769 1458.58 Q145.598 1455.01 145.598 1447.91 Q145.598 1440.78 143.769 1437.24 Q141.964 1433.67 138.33 1433.67 M138.33 1429.97 Q144.14 1429.97 147.195 1434.57 Q150.274 1439.16 150.274 1447.91 Q150.274 1456.63 147.195 1461.24 Q144.14 1465.82 138.33 1465.82 Q132.519 1465.82 129.441 1461.24 Q126.385 1456.63 126.385 1447.91 Q126.385 1439.16 129.441 1434.57 Q132.519 1429.97 138.33 1429.97 Z" fill="#000000" fill-rule="evenodd" fill-opacity="1" /><path clip-path="url(#clip780)" d="M63.9319 1112.22 Q60.3208 1112.22 58.4921 1115.78 Q56.6865 1119.32 56.6865 1126.45 Q56.6865 1133.56 58.4921 1137.12 Q60.3208 1140.66 63.9319 1140.66 Q67.5661 1140.66 69.3717 1137.12 Q71.2004 1133.56 71.2004 1126.45 Q71.2004 1119.32 69.3717 1115.78 Q67.5661 1112.22 63.9319 1112.22 M63.9319 1108.51 Q69.742 1108.51 72.7976 1113.12 Q75.8763 1117.7 75.8763 1126.45 Q75.8763 1135.18 72.7976 1139.78 Q69.742 1144.37 63.9319 1144.37 Q58.1217 1144.37 55.043 1139.78 Q51.9875 1135.18 51.9875 1126.45 Q51.9875 1117.7 55.043 1113.12 Q58.1217 1108.51 63.9319 1108.51 Z" fill="#000000" fill-rule="evenodd" fill-opacity="1" /><path clip-path="url(#clip780)" d="M84.0938 1137.82 L88.978 1137.82 L88.978 1143.7 L84.0938 1143.7 L84.0938 1137.82 Z" fill="#000000" fill-rule="evenodd" fill-opacity="1" /><path clip-path="url(#clip780)" d="M103.191 1139.76 L119.51 1139.76 L119.51 1143.7 L97.566 1143.7 L97.566 1139.76 Q100.228 1137.01 104.811 1132.38 Q109.418 1127.72 110.598 1126.38 Q112.844 1123.86 113.723 1122.12 Q114.626 1120.36 114.626 1118.67 Q114.626 1115.92 112.682 1114.18 Q110.76 1112.45 107.658 1112.45 Q105.459 1112.45 103.006 1113.21 Q100.575 1113.97 97.7974 1115.53 L97.7974 1110.8 Q100.621 1109.67 103.075 1109.09 Q105.529 1108.51 107.566 1108.51 Q112.936 1108.51 116.131 1111.2 Q119.325 1113.88 119.325 1118.37 Q119.325 1120.5 118.515 1122.42 Q117.728 1124.32 115.621 1126.91 Q115.043 1127.59 111.941 1130.8 Q108.839 1134 103.191 1139.76 Z" fill="#000000" fill-rule="evenodd" fill-opacity="1" /><path clip-path="url(#clip780)" d="M129.371 1109.14 L147.728 1109.14 L147.728 1113.07 L133.654 1113.07 L133.654 1121.54 Q134.672 1121.2 135.691 1121.03 Q136.709 1120.85 137.728 1120.85 Q143.515 1120.85 146.894 1124.02 Q150.274 1127.19 150.274 1132.61 Q150.274 1138.19 146.802 1141.29 Q143.33 1144.37 137.01 1144.37 Q134.834 1144.37 132.566 1144 Q130.32 1143.63 127.913 1142.89 L127.913 1138.19 Q129.996 1139.32 132.219 1139.88 Q134.441 1140.43 136.918 1140.43 Q140.922 1140.43 143.26 1138.33 Q145.598 1136.22 145.598 1132.61 Q145.598 1129 143.26 1126.89 Q140.922 1124.78 136.918 1124.78 Q135.043 1124.78 133.168 1125.2 Q131.316 1125.62 129.371 1126.5 L129.371 1109.14 Z" fill="#000000" fill-rule="evenodd" fill-opacity="1" /><path clip-path="url(#clip780)" d="M62.9365 790.759 Q59.3254 790.759 57.4967 794.323 Q55.6912 797.865 55.6912 804.995 Q55.6912 812.101 57.4967 815.666 Q59.3254 819.208 62.9365 819.208 Q66.5707 819.208 68.3763 815.666 Q70.205 812.101 70.205 804.995 Q70.205 797.865 68.3763 794.323 Q66.5707 790.759 62.9365 790.759 M62.9365 787.055 Q68.7467 787.055 71.8022 791.661 Q74.8809 796.245 74.8809 804.995 Q74.8809 813.722 71.8022 818.328 Q68.7467 822.911 62.9365 822.911 Q57.1264 822.911 54.0477 818.328 Q50.9921 813.722 50.9921 804.995 Q50.9921 796.245 54.0477 791.661 Q57.1264 787.055 62.9365 787.055 Z" fill="#000000" fill-rule="evenodd" fill-opacity="1" /><path clip-path="url(#clip780)" d="M83.0984 816.36 L87.9827 816.36 L87.9827 822.24 L83.0984 822.24 L83.0984 816.36 Z" fill="#000000" fill-rule="evenodd" fill-opacity="1" /><path clip-path="url(#clip780)" d="M98.2141 787.68 L116.57 787.68 L116.57 791.615 L102.496 791.615 L102.496 800.087 Q103.515 799.74 104.534 799.578 Q105.552 799.393 106.571 799.393 Q112.358 799.393 115.737 802.564 Q119.117 805.735 119.117 811.152 Q119.117 816.731 115.645 819.833 Q112.172 822.911 105.853 822.911 Q103.677 822.911 101.409 822.541 Q99.1632 822.171 96.7558 821.43 L96.7558 816.731 Q98.8391 817.865 101.061 818.421 Q103.284 818.976 105.76 818.976 Q109.765 818.976 112.103 816.87 Q114.441 814.763 114.441 811.152 Q114.441 807.541 112.103 805.435 Q109.765 803.328 105.76 803.328 Q103.885 803.328 102.01 803.745 Q100.159 804.161 98.2141 805.041 L98.2141 787.68 Z" fill="#000000" fill-rule="evenodd" fill-opacity="1" /><path clip-path="url(#clip780)" d="M138.33 790.759 Q134.719 790.759 132.89 794.323 Q131.084 797.865 131.084 804.995 Q131.084 812.101 132.89 815.666 Q134.719 819.208 138.33 819.208 Q141.964 819.208 143.769 815.666 Q145.598 812.101 145.598 804.995 Q145.598 797.865 143.769 794.323 Q141.964 790.759 138.33 790.759 M138.33 787.055 Q144.14 787.055 147.195 791.661 Q150.274 796.245 150.274 804.995 Q150.274 813.722 147.195 818.328 Q144.14 822.911 138.33 822.911 Q132.519 822.911 129.441 818.328 Q126.385 813.722 126.385 804.995 Q126.385 796.245 129.441 791.661 Q132.519 787.055 138.33 787.055 Z" fill="#000000" fill-rule="evenodd" fill-opacity="1" /><path clip-path="url(#clip780)" d="M63.9319 469.302 Q60.3208 469.302 58.4921 472.867 Q56.6865 476.409 56.6865 483.538 Q56.6865 490.645 58.4921 494.209 Q60.3208 497.751 63.9319 497.751 Q67.5661 497.751 69.3717 494.209 Q71.2004 490.645 71.2004 483.538 Q71.2004 476.409 69.3717 472.867 Q67.5661 469.302 63.9319 469.302 M63.9319 465.598 Q69.742 465.598 72.7976 470.205 Q75.8763 474.788 75.8763 483.538 Q75.8763 492.265 72.7976 496.871 Q69.742 501.455 63.9319 501.455 Q58.1217 501.455 55.043 496.871 Q51.9875 492.265 51.9875 483.538 Q51.9875 474.788 55.043 470.205 Q58.1217 465.598 63.9319 465.598 Z" fill="#000000" fill-rule="evenodd" fill-opacity="1" /><path clip-path="url(#clip780)" d="M84.0938 494.904 L88.978 494.904 L88.978 500.783 L84.0938 500.783 L84.0938 494.904 Z" fill="#000000" fill-rule="evenodd" fill-opacity="1" /><path clip-path="url(#clip780)" d="M97.9826 466.223 L120.205 466.223 L120.205 468.214 L107.658 500.783 L102.774 500.783 L114.58 470.159 L97.9826 470.159 L97.9826 466.223 Z" fill="#000000" fill-rule="evenodd" fill-opacity="1" /><path clip-path="url(#clip780)" d="M129.371 466.223 L147.728 466.223 L147.728 470.159 L133.654 470.159 L133.654 478.631 Q134.672 478.284 135.691 478.122 Q136.709 477.936 137.728 477.936 Q143.515 477.936 146.894 481.108 Q150.274 484.279 150.274 489.696 Q150.274 495.274 146.802 498.376 Q143.33 501.455 137.01 501.455 Q134.834 501.455 132.566 501.084 Q130.32 500.714 127.913 499.973 L127.913 495.274 Q129.996 496.408 132.219 496.964 Q134.441 497.52 136.918 497.52 Q140.922 497.52 143.26 495.413 Q145.598 493.307 145.598 489.696 Q145.598 486.084 143.26 483.978 Q140.922 481.872 136.918 481.872 Q135.043 481.872 133.168 482.288 Q131.316 482.705 129.371 483.584 L129.371 466.223 Z" fill="#000000" fill-rule="evenodd" fill-opacity="1" /><path clip-path="url(#clip780)" d="M53.7467 175.392 L61.3856 175.392 L61.3856 149.026 L53.0754 150.693 L53.0754 146.434 L61.3393 144.767 L66.0152 144.767 L66.0152 175.392 L73.654 175.392 L73.654 179.327 L53.7467 179.327 L53.7467 175.392 Z" fill="#000000" fill-rule="evenodd" fill-opacity="1" /><path clip-path="url(#clip780)" d="M83.0984 173.447 L87.9827 173.447 L87.9827 179.327 L83.0984 179.327 L83.0984 173.447 Z" fill="#000000" fill-rule="evenodd" fill-opacity="1" /><path clip-path="url(#clip780)" d="M108.168 147.846 Q104.557 147.846 102.728 151.41 Q100.922 154.952 100.922 162.082 Q100.922 169.188 102.728 172.753 Q104.557 176.295 108.168 176.295 Q111.802 176.295 113.608 172.753 Q115.436 169.188 115.436 162.082 Q115.436 154.952 113.608 151.41 Q111.802 147.846 108.168 147.846 M108.168 144.142 Q113.978 144.142 117.033 148.748 Q120.112 153.332 120.112 162.082 Q120.112 170.808 117.033 175.415 Q113.978 179.998 108.168 179.998 Q102.358 179.998 99.2789 175.415 Q96.2234 170.808 96.2234 162.082 Q96.2234 153.332 99.2789 148.748 Q102.358 144.142 108.168 144.142 Z" fill="#000000" fill-rule="evenodd" fill-opacity="1" /><path clip-path="url(#clip780)" d="M138.33 147.846 Q134.719 147.846 132.89 151.41 Q131.084 154.952 131.084 162.082 Q131.084 169.188 132.89 172.753 Q134.719 176.295 138.33 176.295 Q141.964 176.295 143.769 172.753 Q145.598 169.188 145.598 162.082 Q145.598 154.952 143.769 151.41 Q141.964 147.846 138.33 147.846 M138.33 144.142 Q144.14 144.142 147.195 148.748 Q150.274 153.332 150.274 162.082 Q150.274 170.808 147.195 175.415 Q144.14 179.998 138.33 179.998 Q132.519 179.998 129.441 175.415 Q126.385 170.808 126.385 162.082 Q126.385 153.332 129.441 148.748 Q132.519 144.142 138.33 144.142 Z" fill="#000000" fill-rule="evenodd" fill-opacity="1" /><path clip-path="url(#clip780)" d="M835.44 12.096 L873.681 12.096 L873.681 18.9825 L843.623 18.9825 L843.623 36.8875 L872.425 36.8875 L872.425 43.7741 L843.623 43.7741 L843.623 65.6895 L874.41 65.6895 L874.41 72.576 L835.44 72.576 L835.44 12.096 Z" fill="#000000" fill-rule="evenodd" fill-opacity="1" /><path clip-path="url(#clip780)" d="M933.148 16.7545 L933.148 25.383 Q929.016 21.5346 924.317 19.6307 Q919.659 17.7268 914.392 17.7268 Q904.022 17.7268 898.513 24.0867 Q893.004 30.4061 893.004 42.3968 Q893.004 54.3469 898.513 60.7069 Q904.022 67.0263 914.392 67.0263 Q919.659 67.0263 924.317 65.1223 Q929.016 63.2184 933.148 59.3701 L933.148 67.9175 Q928.854 70.8341 924.034 72.2924 Q919.254 73.7508 913.906 73.7508 Q900.174 73.7508 892.274 65.3654 Q884.375 56.9395 884.375 42.3968 Q884.375 27.8135 892.274 19.4281 Q900.174 11.0023 913.906 11.0023 Q919.335 11.0023 924.115 12.4606 Q928.935 13.8784 933.148 16.7545 Z" fill="#000000" fill-rule="evenodd" fill-opacity="1" /><path clip-path="url(#clip780)" d="M953.97 18.8205 L953.97 65.8515 L963.854 65.8515 Q976.371 65.8515 982.164 60.1802 Q987.997 54.509 987.997 42.2752 Q987.997 30.1225 982.164 24.4918 Q976.371 18.8205 963.854 18.8205 L953.97 18.8205 M945.787 12.096 L962.598 12.096 Q980.179 12.096 988.402 19.4281 Q996.626 26.7198 996.626 42.2752 Q996.626 57.9117 988.362 65.2439 Q980.098 72.576 962.598 72.576 L945.787 72.576 L945.787 12.096 Z" fill="#000000" fill-rule="evenodd" fill-opacity="1" /><path clip-path="url(#clip780)" d="M1009.67 12.096 L1044.43 12.096 L1044.43 18.9825 L1017.85 18.9825 L1017.85 36.8065 L1041.83 36.8065 L1041.83 43.6931 L1017.85 43.6931 L1017.85 72.576 L1009.67 72.576 L1009.67 12.096 Z" fill="#000000" fill-rule="evenodd" fill-opacity="1" /><path clip-path="url(#clip780)" d="M1101.02 32.4315 Q1095.02 32.4315 1091.54 37.1306 Q1088.05 41.7891 1088.05 49.9314 Q1088.05 58.0738 1091.5 62.7728 Q1094.98 67.4314 1101.02 67.4314 Q1106.97 67.4314 1110.46 62.7323 Q1113.94 58.0333 1113.94 49.9314 Q1113.94 41.8701 1110.46 37.1711 Q1106.97 32.4315 1101.02 32.4315 M1101.02 26.1121 Q1110.74 26.1121 1116.29 32.4315 Q1121.84 38.7509 1121.84 49.9314 Q1121.84 61.0714 1116.29 67.4314 Q1110.74 73.7508 1101.02 73.7508 Q1091.25 73.7508 1085.71 67.4314 Q1080.2 61.0714 1080.2 49.9314 Q1080.2 38.7509 1085.71 32.4315 Q1091.25 26.1121 1101.02 26.1121 Z" fill="#000000" fill-rule="evenodd" fill-opacity="1" /><path clip-path="url(#clip780)" d="M1157.16 9.54393 L1157.16 15.7418 L1150.03 15.7418 Q1146.02 15.7418 1144.44 17.3622 Q1142.9 18.9825 1142.9 23.1955 L1142.9 27.2059 L1155.18 27.2059 L1155.18 32.9987 L1142.9 32.9987 L1142.9 72.576 L1135.41 72.576 L1135.41 32.9987 L1128.28 32.9987 L1128.28 27.2059 L1135.41 27.2059 L1135.41 24.0462 Q1135.41 16.471 1138.93 13.0277 Q1142.46 9.54393 1150.11 9.54393 L1157.16 9.54393 Z" fill="#000000" fill-rule="evenodd" fill-opacity="1" /><path clip-path="url(#clip780)" d="M1198.28 18.8205 L1198.28 65.8515 L1208.16 65.8515 Q1220.68 65.8515 1226.47 60.1802 Q1232.31 54.509 1232.31 42.2752 Q1232.31 30.1225 1226.47 24.4918 Q1220.68 18.8205 1208.16 18.8205 L1198.28 18.8205 M1190.1 12.096 L1206.91 12.096 Q1224.49 12.096 1232.71 19.4281 Q1240.94 26.7198 1240.94 42.2752 Q1240.94 57.9117 1232.67 65.2439 Q1224.41 72.576 1206.91 72.576 L1190.1 72.576 L1190.1 12.096 Z" fill="#000000" fill-rule="evenodd" fill-opacity="1" /><path clip-path="url(#clip780)" d="M1292.46 48.0275 L1292.46 51.6733 L1258.19 51.6733 Q1258.68 59.3701 1262.81 63.421 Q1266.98 67.4314 1274.4 67.4314 Q1278.69 67.4314 1282.7 66.3781 Q1286.75 65.3249 1290.72 63.2184 L1290.72 70.267 Q1286.71 71.9684 1282.5 72.8596 Q1278.29 73.7508 1273.95 73.7508 Q1263.09 73.7508 1256.73 67.4314 Q1250.41 61.1119 1250.41 50.3365 Q1250.41 39.1965 1256.41 32.6746 Q1262.45 26.1121 1272.65 26.1121 Q1281.81 26.1121 1287.12 32.0264 Q1292.46 37.9003 1292.46 48.0275 M1285.01 45.84 Q1284.93 39.7232 1281.57 36.0774 Q1278.24 32.4315 1272.74 32.4315 Q1266.5 32.4315 1262.73 35.9558 Q1259 39.4801 1258.44 45.8805 L1285.01 45.84 Z" fill="#000000" fill-rule="evenodd" fill-opacity="1" /><path clip-path="url(#clip780)" d="M1325.32 49.7694 Q1316.28 49.7694 1312.8 51.8354 Q1309.32 53.9013 1309.32 58.8839 Q1309.32 62.8538 1311.91 65.2034 Q1314.54 67.5124 1319.04 67.5124 Q1325.24 67.5124 1328.96 63.1374 Q1332.73 58.7219 1332.73 51.4303 L1332.73 49.7694 L1325.32 49.7694 M1340.18 46.6907 L1340.18 72.576 L1332.73 72.576 L1332.73 65.6895 Q1330.18 69.8214 1326.37 71.8063 Q1322.56 73.7508 1317.05 73.7508 Q1310.08 73.7508 1305.95 69.8619 Q1301.86 65.9325 1301.86 59.3701 Q1301.86 51.7138 1306.97 47.825 Q1312.11 43.9361 1322.28 43.9361 L1332.73 43.9361 L1332.73 43.2069 Q1332.73 38.0623 1329.33 35.2672 Q1325.96 32.4315 1319.85 32.4315 Q1315.96 32.4315 1312.27 33.3632 Q1308.59 34.295 1305.18 36.1584 L1305.18 29.2718 Q1309.27 27.692 1313.12 26.9223 Q1316.97 26.1121 1320.62 26.1121 Q1330.46 26.1121 1335.32 31.2163 Q1340.18 36.3204 1340.18 46.6907 Z" fill="#000000" fill-rule="evenodd" fill-opacity="1" /><path clip-path="url(#clip780)" d="M1362.91 14.324 L1362.91 27.2059 L1378.26 27.2059 L1378.26 32.9987 L1362.91 32.9987 L1362.91 57.6282 Q1362.91 63.1779 1364.41 64.7578 Q1365.95 66.3376 1370.61 66.3376 L1378.26 66.3376 L1378.26 72.576 L1370.61 72.576 Q1361.98 72.576 1358.7 69.3758 Q1355.41 66.1351 1355.41 57.6282 L1355.41 32.9987 L1349.95 32.9987 L1349.95 27.2059 L1355.41 27.2059 L1355.41 14.324 L1362.91 14.324 Z" fill="#000000" fill-rule="evenodd" fill-opacity="1" /><path clip-path="url(#clip780)" d="M1425.78 45.1919 L1425.78 72.576 L1418.32 72.576 L1418.32 45.4349 Q1418.32 38.994 1415.81 35.7938 Q1413.3 32.5936 1408.28 32.5936 Q1402.24 32.5936 1398.76 36.4419 Q1395.28 40.2903 1395.28 46.9338 L1395.28 72.576 L1387.78 72.576 L1387.78 9.54393 L1395.28 9.54393 L1395.28 34.2544 Q1397.95 30.163 1401.55 28.1376 Q1405.2 26.1121 1409.94 26.1121 Q1417.76 26.1121 1421.77 30.9732 Q1425.78 35.7938 1425.78 45.1919 Z" fill="#000000" fill-rule="evenodd" fill-opacity="1" /><path clip-path="url(#clip780)" d="M1512.63 16.7545 L1512.63 25.383 Q1508.5 21.5346 1503.8 19.6307 Q1499.14 17.7268 1493.87 17.7268 Q1483.5 17.7268 1477.99 24.0867 Q1472.49 30.4061 1472.49 42.3968 Q1472.49 54.3469 1477.99 60.7069 Q1483.5 67.0263 1493.87 67.0263 Q1499.14 67.0263 1503.8 65.1223 Q1508.5 63.2184 1512.63 59.3701 L1512.63 67.9175 Q1508.34 70.8341 1503.52 72.2924 Q1498.74 73.7508 1493.39 73.7508 Q1479.66 73.7508 1471.76 65.3654 Q1463.86 56.9395 1463.86 42.3968 Q1463.86 27.8135 1471.76 19.4281 Q1479.66 11.0023 1493.39 11.0023 Q1498.82 11.0023 1503.6 12.4606 Q1508.42 13.8784 1512.63 16.7545 Z" fill="#000000" fill-rule="evenodd" fill-opacity="1" /><path clip-path="url(#clip780)" d="M1542.53 32.4315 Q1536.53 32.4315 1533.05 37.1306 Q1529.56 41.7891 1529.56 49.9314 Q1529.56 58.0738 1533.01 62.7728 Q1536.49 67.4314 1542.53 67.4314 Q1548.48 67.4314 1551.96 62.7323 Q1555.45 58.0333 1555.45 49.9314 Q1555.45 41.8701 1551.96 37.1711 Q1548.48 32.4315 1542.53 32.4315 M1542.53 26.1121 Q1552.25 26.1121 1557.8 32.4315 Q1563.35 38.7509 1563.35 49.9314 Q1563.35 61.0714 1557.8 67.4314 Q1552.25 73.7508 1542.53 73.7508 Q1532.76 73.7508 1527.21 67.4314 Q1521.7 61.0714 1521.7 49.9314 Q1521.7 38.7509 1527.21 32.4315 Q1532.76 26.1121 1542.53 26.1121 Z" fill="#000000" fill-rule="evenodd" fill-opacity="1" /><path clip-path="url(#clip780)" d="M1574.93 54.671 L1574.93 27.2059 L1582.39 27.2059 L1582.39 54.3874 Q1582.39 60.8284 1584.9 64.0691 Q1587.41 67.2693 1592.43 67.2693 Q1598.47 67.2693 1601.95 63.421 Q1605.48 59.5726 1605.48 52.9291 L1605.48 27.2059 L1612.93 27.2059 L1612.93 72.576 L1605.48 72.576 L1605.48 65.6084 Q1602.76 69.7404 1599.16 71.7658 Q1595.59 73.7508 1590.85 73.7508 Q1583.03 73.7508 1578.98 68.8897 Q1574.93 64.0286 1574.93 54.671 M1593.69 26.1121 L1593.69 26.1121 Z" fill="#000000" fill-rule="evenodd" fill-opacity="1" /><path clip-path="url(#clip780)" d="M1666 45.1919 L1666 72.576 L1658.54 72.576 L1658.54 45.4349 Q1658.54 38.994 1656.03 35.7938 Q1653.52 32.5936 1648.5 32.5936 Q1642.46 32.5936 1638.98 36.4419 Q1635.49 40.2903 1635.49 46.9338 L1635.49 72.576 L1628 72.576 L1628 27.2059 L1635.49 27.2059 L1635.49 34.2544 Q1638.17 30.163 1641.77 28.1376 Q1645.42 26.1121 1650.16 26.1121 Q1657.98 26.1121 1661.99 30.9732 Q1666 35.7938 1666 45.1919 Z" fill="#000000" fill-rule="evenodd" fill-opacity="1" /><path clip-path="url(#clip780)" d="M1688.24 14.324 L1688.24 27.2059 L1703.59 27.2059 L1703.59 32.9987 L1688.24 32.9987 L1688.24 57.6282 Q1688.24 63.1779 1689.74 64.7578 Q1691.27 66.3376 1695.93 66.3376 L1703.59 66.3376 L1703.59 72.576 L1695.93 72.576 Q1687.3 72.576 1684.02 69.3758 Q1680.74 66.1351 1680.74 57.6282 L1680.74 32.9987 L1675.27 32.9987 L1675.27 27.2059 L1680.74 27.2059 L1680.74 14.324 L1688.24 14.324 Z" fill="#000000" fill-rule="evenodd" fill-opacity="1" /><polyline clip-path="url(#clip782)" style="stroke:#009af9; stroke-linecap:butt; stroke-linejoin:round; stroke-width:4; stroke-opacity:1; fill:none" points="
  247.59,1447.87 247.59,1447.87 247.59,1443.18 247.59,1438.49 247.59,1433.79 247.59,1429.1 
  247.59,1424.41 247.59,1419.72 247.59,1415.02 247.59,1410.33 247.59,1405.64 
  247.59,1400.95 247.59,1396.25 247.59,1391.56 247.59,1386.87 247.59,1382.17 
  247.59,1377.48 247.59,1372.79 247.59,1368.1 247.59,1363.4 247.59,1358.71 
  247.59,1354.02 247.59,1349.32 247.59,1344.63 247.59,1339.94 247.59,1335.25 
  247.59,1330.55 247.59,1325.86 247.59,1321.17 247.59,1316.47 247.59,1311.78 
  247.59,1307.09 247.59,1302.4 247.59,1297.7 247.59,1293.01 247.59,1288.32 
  247.59,1283.63 247.59,1278.93 247.59,1274.24 247.59,1269.55 247.59,1264.85 
  247.59,1260.16 247.59,1255.47 247.59,1250.78 247.59,1246.08 247.59,1241.39 
  247.59,1236.7 247.59,1232 247.59,1227.31 247.59,1222.62 247.59,1217.93 
  247.59,1213.23 247.59,1208.54 247.59,1203.85 247.59,1199.15 247.59,1194.46 
  247.59,1189.77 247.59,1185.08 247.59,1180.38 247.59,1175.69 247.59,1171 
  247.59,1166.31 247.59,1161.61 247.59,1156.92 247.59,1152.23 282.828,1152.23 282.828,1147.53 
  282.828,1142.84 282.828,1138.15 282.828,1133.46 282.828,1128.76 282.828,1124.07 
  282.828,1119.38 282.828,1114.68 282.828,1109.99 282.828,1105.3 282.828,1100.61 
  282.828,1095.91 282.828,1091.22 282.828,1086.53 282.828,1081.83 282.828,1077.14 
  282.828,1072.45 282.828,1067.76 282.828,1063.06 282.828,1058.37 282.828,1053.68 
  282.828,1048.99 282.828,1044.29 282.828,1039.6 282.828,1034.91 282.828,1030.21 
  282.828,1025.52 282.828,1020.83 282.828,1016.14 282.828,1011.44 282.828,1006.75 
  282.828,1002.06 282.828,997.365 282.828,992.672 282.828,987.979 282.828,983.286 
  282.828,978.593 282.828,973.901 282.828,969.208 282.828,964.515 282.828,959.822 
  282.828,955.129 282.828,950.437 282.828,945.744 282.828,941.051 282.828,936.358 
  282.828,931.665 282.828,926.973 282.828,922.28 282.828,917.587 282.828,912.894 
  282.828,908.202 282.828,903.509 282.828,898.816 282.828,894.123 282.828,889.43 
  282.828,884.738 282.828,880.045 282.828,875.352 318.067,875.352 318.067,870.659 318.067,865.966 
  318.067,861.274 318.067,856.581 318.067,851.888 318.067,847.195 318.067,842.502 
  318.067,837.81 318.067,833.117 318.067,828.424 318.067,823.731 318.067,819.038 
  318.067,814.346 318.067,809.653 318.067,804.96 318.067,800.267 318.067,795.574 
  318.067,790.882 318.067,786.189 318.067,781.496 318.067,776.803 318.067,772.11 
  318.067,767.418 318.067,762.725 318.067,758.032 318.067,753.339 318.067,748.646 
  318.067,743.954 318.067,739.261 318.067,734.568 318.067,729.875 318.067,725.182 
  318.067,720.49 318.067,715.797 318.067,711.104 318.067,706.411 318.067,701.718 
  318.067,697.026 318.067,692.333 318.067,687.64 318.067,682.947 318.067,678.255 
  318.067,673.562 353.306,673.562 353.306,668.869 353.306,664.176 353.306,659.483 353.306,654.791 
  353.306,650.098 353.306,645.405 353.306,640.712 353.306,636.019 353.306,631.327 
  353.306,626.634 353.306,621.941 353.306,617.248 353.306,612.555 353.306,607.863 
  353.306,603.17 353.306,598.477 353.306,593.784 353.306,589.091 353.306,584.399 
  353.306,579.706 353.306,575.013 353.306,570.32 353.306,565.627 353.306,560.935 
  353.306,556.242 353.306,551.549 353.306,546.856 353.306,542.163 353.306,537.471 
  353.306,532.778 353.306,528.085 353.306,523.392 353.306,518.699 353.306,514.007 
  353.306,509.314 353.306,504.621 353.306,499.928 353.306,495.235 353.306,490.543 
  353.306,485.85 388.545,485.85 388.545,481.157 388.545,476.464 388.545,471.771 388.545,467.079 
  388.545,462.386 388.545,457.693 388.545,453 388.545,448.307 388.545,443.615 
  388.545,438.922 388.545,434.229 388.545,429.536 388.545,424.844 388.545,420.151 423.784,420.151 
  423.784,415.458 423.784,410.765 423.784,406.072 423.784,401.38 423.784,396.687 
  423.784,391.994 423.784,387.301 423.784,382.608 423.784,377.916 423.784,373.223 
  423.784,368.53 423.784,363.837 423.784,359.144 423.784,354.452 459.022,354.452 459.022,349.759 
  459.022,345.066 459.022,340.373 459.022,335.68 459.022,330.988 459.022,326.295 
  459.022,321.602 459.022,316.909 459.022,312.216 459.022,307.524 459.022,302.831 
  459.022,298.138 459.022,293.445 459.022,288.752 459.022,284.06 494.261,284.06 494.261,279.367 
  494.261,274.674 494.261,269.981 494.261,265.288 494.261,260.596 529.5,260.596 529.5,255.903 
  529.5,251.21 529.5,246.517 564.739,246.517 564.739,241.824 564.739,237.132 564.739,232.439 599.978,232.439 
  599.978,227.746 599.978,223.053 635.216,223.053 635.216,218.36 670.455,218.36 670.455,213.668 670.455,208.975 
  670.455,204.282 705.694,204.282 705.694,199.589 705.694,194.896 740.933,194.896 740.933,190.204 846.649,190.204 846.649,185.511 1163.8,185.511 
  1163.8,180.818 1199.04,180.818 1199.04,176.125 1375.23,176.125 1375.23,171.433 1974.29,171.433 1974.29,166.74 2291.44,166.74 2291.44,162.047 
  "/>
</svg>
