<?xml version="1.0" encoding="utf-8"?>
<svg xmlns="http://www.w3.org/2000/svg" xmlns:xlink="http://www.w3.org/1999/xlink" width="600" height="400" viewBox="0 0 2400 1600">
<defs>
  <clipPath id="clip950">
    <rect x="0" y="0" width="2400" height="1600"/>
  </clipPath>
</defs>
<path clip-path="url(#clip950)" d="
M0 1600 L2400 1600 L2400 0 L0 0  Z
  " fill="#ffffff" fill-rule="evenodd" fill-opacity="1"/>
<defs>
  <clipPath id="clip951">
    <rect x="480" y="0" width="1681" height="1600"/>
  </clipPath>
</defs>
<path clip-path="url(#clip950)" d="
M170.857 1486.45 L2352.76 1486.45 L2352.76 123.472 L170.857 123.472  Z
  " fill="#ffffff" fill-rule="evenodd" fill-opacity="1"/>
<defs>
  <clipPath id="clip952">
    <rect x="170" y="123" width="2183" height="1364"/>
  </clipPath>
</defs>
<polyline clip-path="url(#clip952)" style="stroke:#000000; stroke-linecap:butt; stroke-linejoin:round; stroke-width:2; stroke-opacity:0.1; fill:none" points="
  237.932,1486.45 237.932,123.472 
  "/>
<polyline clip-path="url(#clip952)" style="stroke:#000000; stroke-linecap:butt; stroke-linejoin:round; stroke-width:2; stroke-opacity:0.1; fill:none" points="
  809.674,1486.45 809.674,123.472 
  "/>
<polyline clip-path="url(#clip952)" style="stroke:#000000; stroke-linecap:butt; stroke-linejoin:round; stroke-width:2; stroke-opacity:0.1; fill:none" points="
  1381.42,1486.45 1381.42,123.472 
  "/>
<polyline clip-path="url(#clip952)" style="stroke:#000000; stroke-linecap:butt; stroke-linejoin:round; stroke-width:2; stroke-opacity:0.1; fill:none" points="
  1953.16,1486.45 1953.16,123.472 
  "/>
<polyline clip-path="url(#clip950)" style="stroke:#000000; stroke-linecap:butt; stroke-linejoin:round; stroke-width:4; stroke-opacity:1; fill:none" points="
  170.857,1486.45 2352.76,1486.45 
  "/>
<polyline clip-path="url(#clip950)" style="stroke:#000000; stroke-linecap:butt; stroke-linejoin:round; stroke-width:4; stroke-opacity:1; fill:none" points="
  237.932,1486.45 237.932,1467.55 
  "/>
<polyline clip-path="url(#clip950)" style="stroke:#000000; stroke-linecap:butt; stroke-linejoin:round; stroke-width:4; stroke-opacity:1; fill:none" points="
  809.674,1486.45 809.674,1467.55 
  "/>
<polyline clip-path="url(#clip950)" style="stroke:#000000; stroke-linecap:butt; stroke-linejoin:round; stroke-width:4; stroke-opacity:1; fill:none" points="
  1381.42,1486.45 1381.42,1467.55 
  "/>
<polyline clip-path="url(#clip950)" style="stroke:#000000; stroke-linecap:butt; stroke-linejoin:round; stroke-width:4; stroke-opacity:1; fill:none" points="
  1953.16,1486.45 1953.16,1467.55 
  "/>
<path clip-path="url(#clip950)" d="M109.727 1544.91 L126.046 1544.91 L126.046 1548.85 L104.102 1548.85 L104.102 1544.91 Q106.764 1542.16 111.347 1537.53 Q115.954 1532.88 117.134 1531.53 Q119.38 1529.01 120.259 1527.27 Q121.162 1525.51 121.162 1523.82 Q121.162 1521.07 119.218 1519.33 Q117.296 1517.6 114.194 1517.6 Q111.995 1517.6 109.542 1518.36 Q107.111 1519.13 104.333 1520.68 L104.333 1515.95 Q107.157 1514.82 109.611 1514.24 Q112.065 1513.66 114.102 1513.66 Q119.472 1513.66 122.667 1516.35 Q125.861 1519.03 125.861 1523.52 Q125.861 1525.65 125.051 1527.57 Q124.264 1529.47 122.157 1532.07 Q121.579 1532.74 118.477 1535.95 Q115.375 1539.15 109.727 1544.91 Z" fill="#000000" fill-rule="evenodd" fill-opacity="1" /><path clip-path="url(#clip950)" d="M145.861 1517.37 Q142.25 1517.37 140.421 1520.93 Q138.616 1524.47 138.616 1531.6 Q138.616 1538.71 140.421 1542.27 Q142.25 1545.82 145.861 1545.82 Q149.495 1545.82 151.301 1542.27 Q153.129 1538.71 153.129 1531.6 Q153.129 1524.47 151.301 1520.93 Q149.495 1517.37 145.861 1517.37 M145.861 1513.66 Q151.671 1513.66 154.727 1518.27 Q157.805 1522.85 157.805 1531.6 Q157.805 1540.33 154.727 1544.94 Q151.671 1549.52 145.861 1549.52 Q140.051 1549.52 136.972 1544.94 Q133.917 1540.33 133.917 1531.6 Q133.917 1522.85 136.972 1518.27 Q140.051 1513.66 145.861 1513.66 Z" fill="#000000" fill-rule="evenodd" fill-opacity="1" /><path clip-path="url(#clip950)" d="M176.023 1517.37 Q172.412 1517.37 170.583 1520.93 Q168.777 1524.47 168.777 1531.6 Q168.777 1538.71 170.583 1542.27 Q172.412 1545.82 176.023 1545.82 Q179.657 1545.82 181.463 1542.27 Q183.291 1538.71 183.291 1531.6 Q183.291 1524.47 181.463 1520.93 Q179.657 1517.37 176.023 1517.37 M176.023 1513.66 Q181.833 1513.66 184.888 1518.27 Q187.967 1522.85 187.967 1531.6 Q187.967 1540.33 184.888 1544.94 Q181.833 1549.52 176.023 1549.52 Q170.213 1549.52 167.134 1544.94 Q164.078 1540.33 164.078 1531.6 Q164.078 1522.85 167.134 1518.27 Q170.213 1513.66 176.023 1513.66 Z" fill="#000000" fill-rule="evenodd" fill-opacity="1" /><path clip-path="url(#clip950)" d="M196.995 1544.91 L204.634 1544.91 L204.634 1518.55 L196.324 1520.21 L196.324 1515.95 L204.587 1514.29 L209.263 1514.29 L209.263 1544.91 L216.902 1544.91 L216.902 1548.85 L196.995 1548.85 L196.995 1544.91 Z" fill="#000000" fill-rule="evenodd" fill-opacity="1" /><path clip-path="url(#clip950)" d="M223.592 1533.96 L236.069 1533.96 L236.069 1537.76 L223.592 1537.76 L223.592 1533.96 Z" fill="#000000" fill-rule="evenodd" fill-opacity="1" /><path clip-path="url(#clip950)" d="M253.453 1517.37 Q249.842 1517.37 248.013 1520.93 Q246.208 1524.47 246.208 1531.6 Q246.208 1538.71 248.013 1542.27 Q249.842 1545.82 253.453 1545.82 Q257.087 1545.82 258.893 1542.27 Q260.721 1538.71 260.721 1531.6 Q260.721 1524.47 258.893 1520.93 Q257.087 1517.37 253.453 1517.37 M253.453 1513.66 Q259.263 1513.66 262.319 1518.27 Q265.397 1522.85 265.397 1531.6 Q265.397 1540.33 262.319 1544.94 Q259.263 1549.52 253.453 1549.52 Q247.643 1549.52 244.564 1544.94 Q241.509 1540.33 241.509 1531.6 Q241.509 1522.85 244.564 1518.27 Q247.643 1513.66 253.453 1513.66 Z" fill="#000000" fill-rule="evenodd" fill-opacity="1" /><path clip-path="url(#clip950)" d="M274.425 1544.91 L282.064 1544.91 L282.064 1518.55 L273.754 1520.21 L273.754 1515.95 L282.018 1514.29 L286.693 1514.29 L286.693 1544.91 L294.332 1544.91 L294.332 1548.85 L274.425 1548.85 L274.425 1544.91 Z" fill="#000000" fill-rule="evenodd" fill-opacity="1" /><path clip-path="url(#clip950)" d="M301.022 1533.96 L313.499 1533.96 L313.499 1537.76 L301.022 1537.76 L301.022 1533.96 Z" fill="#000000" fill-rule="evenodd" fill-opacity="1" /><path clip-path="url(#clip950)" d="M330.883 1517.37 Q327.272 1517.37 325.443 1520.93 Q323.638 1524.47 323.638 1531.6 Q323.638 1538.71 325.443 1542.27 Q327.272 1545.82 330.883 1545.82 Q334.517 1545.82 336.323 1542.27 Q338.152 1538.71 338.152 1531.6 Q338.152 1524.47 336.323 1520.93 Q334.517 1517.37 330.883 1517.37 M330.883 1513.66 Q336.693 1513.66 339.749 1518.27 Q342.827 1522.85 342.827 1531.6 Q342.827 1540.33 339.749 1544.94 Q336.693 1549.52 330.883 1549.52 Q325.073 1549.52 321.994 1544.94 Q318.939 1540.33 318.939 1531.6 Q318.939 1522.85 321.994 1518.27 Q325.073 1513.66 330.883 1513.66 Z" fill="#000000" fill-rule="evenodd" fill-opacity="1" /><path clip-path="url(#clip950)" d="M351.855 1544.91 L359.494 1544.91 L359.494 1518.55 L351.184 1520.21 L351.184 1515.95 L359.448 1514.29 L364.124 1514.29 L364.124 1544.91 L371.762 1544.91 L371.762 1548.85 L351.855 1548.85 L351.855 1544.91 Z" fill="#000000" fill-rule="evenodd" fill-opacity="1" /><path clip-path="url(#clip950)" d="M681.468 1544.91 L697.788 1544.91 L697.788 1548.85 L675.843 1548.85 L675.843 1544.91 Q678.505 1542.16 683.089 1537.53 Q687.695 1532.88 688.876 1531.53 Q691.121 1529.01 692.001 1527.27 Q692.903 1525.51 692.903 1523.82 Q692.903 1521.07 690.959 1519.33 Q689.038 1517.6 685.936 1517.6 Q683.737 1517.6 681.283 1518.36 Q678.853 1519.13 676.075 1520.68 L676.075 1515.95 Q678.899 1514.82 681.353 1514.24 Q683.806 1513.66 685.843 1513.66 Q691.214 1513.66 694.408 1516.35 Q697.603 1519.03 697.603 1523.52 Q697.603 1525.65 696.792 1527.57 Q696.005 1529.47 693.899 1532.07 Q693.32 1532.74 690.218 1535.95 Q687.116 1539.15 681.468 1544.91 Z" fill="#000000" fill-rule="evenodd" fill-opacity="1" /><path clip-path="url(#clip950)" d="M717.602 1517.37 Q713.991 1517.37 712.163 1520.93 Q710.357 1524.47 710.357 1531.6 Q710.357 1538.71 712.163 1542.27 Q713.991 1545.82 717.602 1545.82 Q721.237 1545.82 723.042 1542.27 Q724.871 1538.71 724.871 1531.6 Q724.871 1524.47 723.042 1520.93 Q721.237 1517.37 717.602 1517.37 M717.602 1513.66 Q723.413 1513.66 726.468 1518.27 Q729.547 1522.85 729.547 1531.6 Q729.547 1540.33 726.468 1544.94 Q723.413 1549.52 717.602 1549.52 Q711.792 1549.52 708.714 1544.94 Q705.658 1540.33 705.658 1531.6 Q705.658 1522.85 708.714 1518.27 Q711.792 1513.66 717.602 1513.66 Z" fill="#000000" fill-rule="evenodd" fill-opacity="1" /><path clip-path="url(#clip950)" d="M747.764 1517.37 Q744.153 1517.37 742.325 1520.93 Q740.519 1524.47 740.519 1531.6 Q740.519 1538.71 742.325 1542.27 Q744.153 1545.82 747.764 1545.82 Q751.399 1545.82 753.204 1542.27 Q755.033 1538.71 755.033 1531.6 Q755.033 1524.47 753.204 1520.93 Q751.399 1517.37 747.764 1517.37 M747.764 1513.66 Q753.574 1513.66 756.63 1518.27 Q759.709 1522.85 759.709 1531.6 Q759.709 1540.33 756.63 1544.94 Q753.574 1549.52 747.764 1549.52 Q741.954 1549.52 738.875 1544.94 Q735.82 1540.33 735.82 1531.6 Q735.82 1522.85 738.875 1518.27 Q741.954 1513.66 747.764 1513.66 Z" fill="#000000" fill-rule="evenodd" fill-opacity="1" /><path clip-path="url(#clip950)" d="M778.505 1529.7 Q775.357 1529.7 773.505 1531.86 Q771.676 1534.01 771.676 1537.76 Q771.676 1541.49 773.505 1543.66 Q775.357 1545.82 778.505 1545.82 Q781.653 1545.82 783.482 1543.66 Q785.334 1541.49 785.334 1537.76 Q785.334 1534.01 783.482 1531.86 Q781.653 1529.7 778.505 1529.7 M787.787 1515.05 L787.787 1519.31 Q786.028 1518.48 784.222 1518.04 Q782.44 1517.6 780.681 1517.6 Q776.051 1517.6 773.598 1520.72 Q771.167 1523.85 770.82 1530.17 Q772.185 1528.15 774.246 1527.09 Q776.306 1526 778.783 1526 Q783.991 1526 787 1529.17 Q790.033 1532.32 790.033 1537.76 Q790.033 1543.08 786.884 1546.3 Q783.736 1549.52 778.505 1549.52 Q772.51 1549.52 769.338 1544.94 Q766.167 1540.33 766.167 1531.6 Q766.167 1523.41 770.056 1518.55 Q773.945 1513.66 780.496 1513.66 Q782.255 1513.66 784.037 1514.01 Q785.843 1514.36 787.787 1515.05 Z" fill="#000000" fill-rule="evenodd" fill-opacity="1" /><path clip-path="url(#clip950)" d="M795.333 1533.96 L807.81 1533.96 L807.81 1537.76 L795.333 1537.76 L795.333 1533.96 Z" fill="#000000" fill-rule="evenodd" fill-opacity="1" /><path clip-path="url(#clip950)" d="M825.194 1517.37 Q821.583 1517.37 819.755 1520.93 Q817.949 1524.47 817.949 1531.6 Q817.949 1538.71 819.755 1542.27 Q821.583 1545.82 825.194 1545.82 Q828.829 1545.82 830.634 1542.27 Q832.463 1538.71 832.463 1531.6 Q832.463 1524.47 830.634 1520.93 Q828.829 1517.37 825.194 1517.37 M825.194 1513.66 Q831.005 1513.66 834.06 1518.27 Q837.139 1522.85 837.139 1531.6 Q837.139 1540.33 834.06 1544.94 Q831.005 1549.52 825.194 1549.52 Q819.384 1549.52 816.306 1544.94 Q813.25 1540.33 813.25 1531.6 Q813.25 1522.85 816.306 1518.27 Q819.384 1513.66 825.194 1513.66 Z" fill="#000000" fill-rule="evenodd" fill-opacity="1" /><path clip-path="url(#clip950)" d="M846.167 1544.91 L853.805 1544.91 L853.805 1518.55 L845.495 1520.21 L845.495 1515.95 L853.759 1514.29 L858.435 1514.29 L858.435 1544.91 L866.074 1544.91 L866.074 1548.85 L846.167 1548.85 L846.167 1544.91 Z" fill="#000000" fill-rule="evenodd" fill-opacity="1" /><path clip-path="url(#clip950)" d="M872.764 1533.96 L885.24 1533.96 L885.24 1537.76 L872.764 1537.76 L872.764 1533.96 Z" fill="#000000" fill-rule="evenodd" fill-opacity="1" /><path clip-path="url(#clip950)" d="M902.625 1517.37 Q899.013 1517.37 897.185 1520.93 Q895.379 1524.47 895.379 1531.6 Q895.379 1538.71 897.185 1542.27 Q899.013 1545.82 902.625 1545.82 Q906.259 1545.82 908.064 1542.27 Q909.893 1538.71 909.893 1531.6 Q909.893 1524.47 908.064 1520.93 Q906.259 1517.37 902.625 1517.37 M902.625 1513.66 Q908.435 1513.66 911.49 1518.27 Q914.569 1522.85 914.569 1531.6 Q914.569 1540.33 911.49 1544.94 Q908.435 1549.52 902.625 1549.52 Q896.814 1549.52 893.736 1544.94 Q890.68 1540.33 890.68 1531.6 Q890.68 1522.85 893.736 1518.27 Q896.814 1513.66 902.625 1513.66 Z" fill="#000000" fill-rule="evenodd" fill-opacity="1" /><path clip-path="url(#clip950)" d="M923.597 1544.91 L931.236 1544.91 L931.236 1518.55 L922.925 1520.21 L922.925 1515.95 L931.189 1514.29 L935.865 1514.29 L935.865 1544.91 L943.504 1544.91 L943.504 1548.85 L923.597 1548.85 L923.597 1544.91 Z" fill="#000000" fill-rule="evenodd" fill-opacity="1" /><path clip-path="url(#clip950)" d="M1253.21 1544.91 L1269.53 1544.91 L1269.53 1548.85 L1247.58 1548.85 L1247.58 1544.91 Q1250.25 1542.16 1254.83 1537.53 Q1259.44 1532.88 1260.62 1531.53 Q1262.86 1529.01 1263.74 1527.27 Q1264.65 1525.51 1264.65 1523.82 Q1264.65 1521.07 1262.7 1519.33 Q1260.78 1517.6 1257.68 1517.6 Q1255.48 1517.6 1253.02 1518.36 Q1250.59 1519.13 1247.82 1520.68 L1247.82 1515.95 Q1250.64 1514.82 1253.09 1514.24 Q1255.55 1513.66 1257.58 1513.66 Q1262.96 1513.66 1266.15 1516.35 Q1269.34 1519.03 1269.34 1523.52 Q1269.34 1525.65 1268.53 1527.57 Q1267.75 1529.47 1265.64 1532.07 Q1265.06 1532.74 1261.96 1535.95 Q1258.86 1539.15 1253.21 1544.91 Z" fill="#000000" fill-rule="evenodd" fill-opacity="1" /><path clip-path="url(#clip950)" d="M1289.34 1517.37 Q1285.73 1517.37 1283.9 1520.93 Q1282.1 1524.47 1282.1 1531.6 Q1282.1 1538.71 1283.9 1542.27 Q1285.73 1545.82 1289.34 1545.82 Q1292.98 1545.82 1294.78 1542.27 Q1296.61 1538.71 1296.61 1531.6 Q1296.61 1524.47 1294.78 1520.93 Q1292.98 1517.37 1289.34 1517.37 M1289.34 1513.66 Q1295.15 1513.66 1298.21 1518.27 Q1301.29 1522.85 1301.29 1531.6 Q1301.29 1540.33 1298.21 1544.94 Q1295.15 1549.52 1289.34 1549.52 Q1283.53 1549.52 1280.46 1544.94 Q1277.4 1540.33 1277.4 1531.6 Q1277.4 1522.85 1280.46 1518.27 Q1283.53 1513.66 1289.34 1513.66 Z" fill="#000000" fill-rule="evenodd" fill-opacity="1" /><path clip-path="url(#clip950)" d="M1310.32 1544.91 L1317.95 1544.91 L1317.95 1518.55 L1309.64 1520.21 L1309.64 1515.95 L1317.91 1514.29 L1322.58 1514.29 L1322.58 1544.91 L1330.22 1544.91 L1330.22 1548.85 L1310.32 1548.85 L1310.32 1544.91 Z" fill="#000000" fill-rule="evenodd" fill-opacity="1" /><path clip-path="url(#clip950)" d="M1340.48 1544.91 L1348.12 1544.91 L1348.12 1518.55 L1339.81 1520.21 L1339.81 1515.95 L1348.07 1514.29 L1352.75 1514.29 L1352.75 1544.91 L1360.39 1544.91 L1360.39 1548.85 L1340.48 1548.85 L1340.48 1544.91 Z" fill="#000000" fill-rule="evenodd" fill-opacity="1" /><path clip-path="url(#clip950)" d="M1367.08 1533.96 L1379.55 1533.96 L1379.55 1537.76 L1367.08 1537.76 L1367.08 1533.96 Z" fill="#000000" fill-rule="evenodd" fill-opacity="1" /><path clip-path="url(#clip950)" d="M1396.94 1517.37 Q1393.32 1517.37 1391.5 1520.93 Q1389.69 1524.47 1389.69 1531.6 Q1389.69 1538.71 1391.5 1542.27 Q1393.32 1545.82 1396.94 1545.82 Q1400.57 1545.82 1402.38 1542.27 Q1404.2 1538.71 1404.2 1531.6 Q1404.2 1524.47 1402.38 1520.93 Q1400.57 1517.37 1396.94 1517.37 M1396.94 1513.66 Q1402.75 1513.66 1405.8 1518.27 Q1408.88 1522.85 1408.88 1531.6 Q1408.88 1540.33 1405.8 1544.94 Q1402.75 1549.52 1396.94 1549.52 Q1391.13 1549.52 1388.05 1544.94 Q1384.99 1540.33 1384.99 1531.6 Q1384.99 1522.85 1388.05 1518.27 Q1391.13 1513.66 1396.94 1513.66 Z" fill="#000000" fill-rule="evenodd" fill-opacity="1" /><path clip-path="url(#clip950)" d="M1417.91 1544.91 L1425.55 1544.91 L1425.55 1518.55 L1417.24 1520.21 L1417.24 1515.95 L1425.5 1514.29 L1430.18 1514.29 L1430.18 1544.91 L1437.82 1544.91 L1437.82 1548.85 L1417.91 1548.85 L1417.91 1544.91 Z" fill="#000000" fill-rule="evenodd" fill-opacity="1" /><path clip-path="url(#clip950)" d="M1444.51 1533.96 L1456.98 1533.96 L1456.98 1537.76 L1444.51 1537.76 L1444.51 1533.96 Z" fill="#000000" fill-rule="evenodd" fill-opacity="1" /><path clip-path="url(#clip950)" d="M1474.37 1517.37 Q1470.76 1517.37 1468.93 1520.93 Q1467.12 1524.47 1467.12 1531.6 Q1467.12 1538.71 1468.93 1542.27 Q1470.76 1545.82 1474.37 1545.82 Q1478 1545.82 1479.81 1542.27 Q1481.63 1538.71 1481.63 1531.6 Q1481.63 1524.47 1479.81 1520.93 Q1478 1517.37 1474.37 1517.37 M1474.37 1513.66 Q1480.18 1513.66 1483.23 1518.27 Q1486.31 1522.85 1486.31 1531.6 Q1486.31 1540.33 1483.23 1544.94 Q1480.18 1549.52 1474.37 1549.52 Q1468.56 1549.52 1465.48 1544.94 Q1462.42 1540.33 1462.42 1531.6 Q1462.42 1522.85 1465.48 1518.27 Q1468.56 1513.66 1474.37 1513.66 Z" fill="#000000" fill-rule="evenodd" fill-opacity="1" /><path clip-path="url(#clip950)" d="M1495.34 1544.91 L1502.98 1544.91 L1502.98 1518.55 L1494.67 1520.21 L1494.67 1515.95 L1502.93 1514.29 L1507.61 1514.29 L1507.61 1544.91 L1515.25 1544.91 L1515.25 1548.85 L1495.34 1548.85 L1495.34 1544.91 Z" fill="#000000" fill-rule="evenodd" fill-opacity="1" /><path clip-path="url(#clip950)" d="M1824.95 1544.91 L1841.27 1544.91 L1841.27 1548.85 L1819.33 1548.85 L1819.33 1544.91 Q1821.99 1542.16 1826.57 1537.53 Q1831.18 1532.88 1832.36 1531.53 Q1834.6 1529.01 1835.48 1527.27 Q1836.39 1525.51 1836.39 1523.82 Q1836.39 1521.07 1834.44 1519.33 Q1832.52 1517.6 1829.42 1517.6 Q1827.22 1517.6 1824.77 1518.36 Q1822.34 1519.13 1819.56 1520.68 L1819.56 1515.95 Q1822.38 1514.82 1824.84 1514.24 Q1827.29 1513.66 1829.33 1513.66 Q1834.7 1513.66 1837.89 1516.35 Q1841.09 1519.03 1841.09 1523.52 Q1841.09 1525.65 1840.28 1527.57 Q1839.49 1529.47 1837.38 1532.07 Q1836.8 1532.74 1833.7 1535.95 Q1830.6 1539.15 1824.95 1544.91 Z" fill="#000000" fill-rule="evenodd" fill-opacity="1" /><path clip-path="url(#clip950)" d="M1861.09 1517.37 Q1857.47 1517.37 1855.65 1520.93 Q1853.84 1524.47 1853.84 1531.6 Q1853.84 1538.71 1855.65 1542.27 Q1857.47 1545.82 1861.09 1545.82 Q1864.72 1545.82 1866.53 1542.27 Q1868.35 1538.71 1868.35 1531.6 Q1868.35 1524.47 1866.53 1520.93 Q1864.72 1517.37 1861.09 1517.37 M1861.09 1513.66 Q1866.9 1513.66 1869.95 1518.27 Q1873.03 1522.85 1873.03 1531.6 Q1873.03 1540.33 1869.95 1544.94 Q1866.9 1549.52 1861.09 1549.52 Q1855.28 1549.52 1852.2 1544.94 Q1849.14 1540.33 1849.14 1531.6 Q1849.14 1522.85 1852.2 1518.27 Q1855.28 1513.66 1861.09 1513.66 Z" fill="#000000" fill-rule="evenodd" fill-opacity="1" /><path clip-path="url(#clip950)" d="M1882.06 1544.91 L1889.7 1544.91 L1889.7 1518.55 L1881.39 1520.21 L1881.39 1515.95 L1889.65 1514.29 L1894.33 1514.29 L1894.33 1544.91 L1901.96 1544.91 L1901.96 1548.85 L1882.06 1548.85 L1882.06 1544.91 Z" fill="#000000" fill-rule="evenodd" fill-opacity="1" /><path clip-path="url(#clip950)" d="M1921.99 1529.7 Q1918.84 1529.7 1916.99 1531.86 Q1915.16 1534.01 1915.16 1537.76 Q1915.16 1541.49 1916.99 1543.66 Q1918.84 1545.82 1921.99 1545.82 Q1925.14 1545.82 1926.96 1543.66 Q1928.82 1541.49 1928.82 1537.76 Q1928.82 1534.01 1926.96 1531.86 Q1925.14 1529.7 1921.99 1529.7 M1931.27 1515.05 L1931.27 1519.31 Q1929.51 1518.48 1927.71 1518.04 Q1925.92 1517.6 1924.16 1517.6 Q1919.53 1517.6 1917.08 1520.72 Q1914.65 1523.85 1914.3 1530.17 Q1915.67 1528.15 1917.73 1527.09 Q1919.79 1526 1922.27 1526 Q1927.47 1526 1930.48 1529.17 Q1933.52 1532.32 1933.52 1537.76 Q1933.52 1543.08 1930.37 1546.3 Q1927.22 1549.52 1921.99 1549.52 Q1915.99 1549.52 1912.82 1544.94 Q1909.65 1540.33 1909.65 1531.6 Q1909.65 1523.41 1913.54 1518.55 Q1917.43 1513.66 1923.98 1513.66 Q1925.74 1513.66 1927.52 1514.01 Q1929.33 1514.36 1931.27 1515.05 Z" fill="#000000" fill-rule="evenodd" fill-opacity="1" /><path clip-path="url(#clip950)" d="M1938.82 1533.96 L1951.29 1533.96 L1951.29 1537.76 L1938.82 1537.76 L1938.82 1533.96 Z" fill="#000000" fill-rule="evenodd" fill-opacity="1" /><path clip-path="url(#clip950)" d="M1968.68 1517.37 Q1965.07 1517.37 1963.24 1520.93 Q1961.43 1524.47 1961.43 1531.6 Q1961.43 1538.71 1963.24 1542.27 Q1965.07 1545.82 1968.68 1545.82 Q1972.31 1545.82 1974.12 1542.27 Q1975.95 1538.71 1975.95 1531.6 Q1975.95 1524.47 1974.12 1520.93 Q1972.31 1517.37 1968.68 1517.37 M1968.68 1513.66 Q1974.49 1513.66 1977.54 1518.27 Q1980.62 1522.85 1980.62 1531.6 Q1980.62 1540.33 1977.54 1544.94 Q1974.49 1549.52 1968.68 1549.52 Q1962.87 1549.52 1959.79 1544.94 Q1956.73 1540.33 1956.73 1531.6 Q1956.73 1522.85 1959.79 1518.27 Q1962.87 1513.66 1968.68 1513.66 Z" fill="#000000" fill-rule="evenodd" fill-opacity="1" /><path clip-path="url(#clip950)" d="M1989.65 1544.91 L1997.29 1544.91 L1997.29 1518.55 L1988.98 1520.21 L1988.98 1515.95 L1997.24 1514.29 L2001.92 1514.29 L2001.92 1544.91 L2009.56 1544.91 L2009.56 1548.85 L1989.65 1548.85 L1989.65 1544.91 Z" fill="#000000" fill-rule="evenodd" fill-opacity="1" /><path clip-path="url(#clip950)" d="M2016.25 1533.96 L2028.72 1533.96 L2028.72 1537.76 L2016.25 1537.76 L2016.25 1533.96 Z" fill="#000000" fill-rule="evenodd" fill-opacity="1" /><path clip-path="url(#clip950)" d="M2046.11 1517.37 Q2042.5 1517.37 2040.67 1520.93 Q2038.86 1524.47 2038.86 1531.6 Q2038.86 1538.71 2040.67 1542.27 Q2042.5 1545.82 2046.11 1545.82 Q2049.74 1545.82 2051.55 1542.27 Q2053.38 1538.71 2053.38 1531.6 Q2053.38 1524.47 2051.55 1520.93 Q2049.74 1517.37 2046.11 1517.37 M2046.11 1513.66 Q2051.92 1513.66 2054.97 1518.27 Q2058.05 1522.85 2058.05 1531.6 Q2058.05 1540.33 2054.97 1544.94 Q2051.92 1549.52 2046.11 1549.52 Q2040.3 1549.52 2037.22 1544.94 Q2034.16 1540.33 2034.16 1531.6 Q2034.16 1522.85 2037.22 1518.27 Q2040.3 1513.66 2046.11 1513.66 Z" fill="#000000" fill-rule="evenodd" fill-opacity="1" /><path clip-path="url(#clip950)" d="M2067.08 1544.91 L2074.72 1544.91 L2074.72 1518.55 L2066.41 1520.21 L2066.41 1515.95 L2074.67 1514.29 L2079.35 1514.29 L2079.35 1544.91 L2086.99 1544.91 L2086.99 1548.85 L2067.08 1548.85 L2067.08 1544.91 Z" fill="#000000" fill-rule="evenodd" fill-opacity="1" /><polyline clip-path="url(#clip952)" style="stroke:#000000; stroke-linecap:butt; stroke-linejoin:round; stroke-width:2; stroke-opacity:0.1; fill:none" points="
  170.857,1447.87 2352.76,1447.87 
  "/>
<polyline clip-path="url(#clip952)" style="stroke:#000000; stroke-linecap:butt; stroke-linejoin:round; stroke-width:2; stroke-opacity:0.1; fill:none" points="
  170.857,1094.62 2352.76,1094.62 
  "/>
<polyline clip-path="url(#clip952)" style="stroke:#000000; stroke-linecap:butt; stroke-linejoin:round; stroke-width:2; stroke-opacity:0.1; fill:none" points="
  170.857,741.375 2352.76,741.375 
  "/>
<polyline clip-path="url(#clip952)" style="stroke:#000000; stroke-linecap:butt; stroke-linejoin:round; stroke-width:2; stroke-opacity:0.1; fill:none" points="
  170.857,388.126 2352.76,388.126 
  "/>
<polyline clip-path="url(#clip950)" style="stroke:#000000; stroke-linecap:butt; stroke-linejoin:round; stroke-width:4; stroke-opacity:1; fill:none" points="
  170.857,1486.45 170.857,123.472 
  "/>
<polyline clip-path="url(#clip950)" style="stroke:#000000; stroke-linecap:butt; stroke-linejoin:round; stroke-width:4; stroke-opacity:1; fill:none" points="
  170.857,1447.87 189.755,1447.87 
  "/>
<polyline clip-path="url(#clip950)" style="stroke:#000000; stroke-linecap:butt; stroke-linejoin:round; stroke-width:4; stroke-opacity:1; fill:none" points="
  170.857,1094.62 189.755,1094.62 
  "/>
<polyline clip-path="url(#clip950)" style="stroke:#000000; stroke-linecap:butt; stroke-linejoin:round; stroke-width:4; stroke-opacity:1; fill:none" points="
  170.857,741.375 189.755,741.375 
  "/>
<polyline clip-path="url(#clip950)" style="stroke:#000000; stroke-linecap:butt; stroke-linejoin:round; stroke-width:4; stroke-opacity:1; fill:none" points="
  170.857,388.126 189.755,388.126 
  "/>
<path clip-path="url(#clip950)" d="M122.913 1433.67 Q119.302 1433.67 117.473 1437.24 Q115.668 1440.78 115.668 1447.91 Q115.668 1455.01 117.473 1458.58 Q119.302 1462.12 122.913 1462.12 Q126.547 1462.12 128.353 1458.58 Q130.182 1455.01 130.182 1447.91 Q130.182 1440.78 128.353 1437.24 Q126.547 1433.67 122.913 1433.67 M122.913 1429.97 Q128.723 1429.97 131.779 1434.57 Q134.857 1439.16 134.857 1447.91 Q134.857 1456.63 131.779 1461.24 Q128.723 1465.82 122.913 1465.82 Q117.103 1465.82 114.024 1461.24 Q110.969 1456.63 110.969 1447.91 Q110.969 1439.16 114.024 1434.57 Q117.103 1429.97 122.913 1429.97 Z" fill="#000000" fill-rule="evenodd" fill-opacity="1" /><path clip-path="url(#clip950)" d="M53.3995 1107.97 L61.0384 1107.97 L61.0384 1081.6 L52.7282 1083.27 L52.7282 1079.01 L60.9921 1077.34 L65.668 1077.34 L65.668 1107.97 L73.3068 1107.97 L73.3068 1111.9 L53.3995 1111.9 L53.3995 1107.97 Z" fill="#000000" fill-rule="evenodd" fill-opacity="1" /><path clip-path="url(#clip950)" d="M92.7512 1080.42 Q89.1401 1080.42 87.3114 1083.99 Q85.5058 1087.53 85.5058 1094.66 Q85.5058 1101.77 87.3114 1105.33 Q89.1401 1108.87 92.7512 1108.87 Q96.3854 1108.87 98.1909 1105.33 Q100.02 1101.77 100.02 1094.66 Q100.02 1087.53 98.1909 1083.99 Q96.3854 1080.42 92.7512 1080.42 M92.7512 1076.72 Q98.5613 1076.72 101.617 1081.33 Q104.696 1085.91 104.696 1094.66 Q104.696 1103.39 101.617 1107.99 Q98.5613 1112.58 92.7512 1112.58 Q86.941 1112.58 83.8623 1107.99 Q80.8068 1103.39 80.8068 1094.66 Q80.8068 1085.91 83.8623 1081.33 Q86.941 1076.72 92.7512 1076.72 Z" fill="#000000" fill-rule="evenodd" fill-opacity="1" /><path clip-path="url(#clip950)" d="M122.913 1080.42 Q119.302 1080.42 117.473 1083.99 Q115.668 1087.53 115.668 1094.66 Q115.668 1101.77 117.473 1105.33 Q119.302 1108.87 122.913 1108.87 Q126.547 1108.87 128.353 1105.33 Q130.182 1101.77 130.182 1094.66 Q130.182 1087.53 128.353 1083.99 Q126.547 1080.42 122.913 1080.42 M122.913 1076.72 Q128.723 1076.72 131.779 1081.33 Q134.857 1085.91 134.857 1094.66 Q134.857 1103.39 131.779 1107.99 Q128.723 1112.58 122.913 1112.58 Q117.103 1112.58 114.024 1107.99 Q110.969 1103.39 110.969 1094.66 Q110.969 1085.91 114.024 1081.33 Q117.103 1076.72 122.913 1076.72 Z" fill="#000000" fill-rule="evenodd" fill-opacity="1" /><path clip-path="url(#clip950)" d="M56.6171 754.72 L72.9365 754.72 L72.9365 758.655 L50.9921 758.655 L50.9921 754.72 Q53.6541 751.965 58.2375 747.336 Q62.8439 742.683 64.0245 741.34 Q66.2698 738.817 67.1494 737.081 Q68.0522 735.322 68.0522 733.632 Q68.0522 730.878 66.1078 729.141 Q64.1865 727.405 61.0847 727.405 Q58.8856 727.405 56.4319 728.169 Q54.0014 728.933 51.2236 730.484 L51.2236 725.762 Q54.0477 724.628 56.5014 724.049 Q58.955 723.47 60.9921 723.47 Q66.3624 723.47 69.5568 726.155 Q72.7513 728.841 72.7513 733.331 Q72.7513 735.461 71.9411 737.382 Q71.1541 739.28 69.0476 741.873 Q68.4689 742.544 65.367 745.762 Q62.2652 748.956 56.6171 754.72 Z" fill="#000000" fill-rule="evenodd" fill-opacity="1" /><path clip-path="url(#clip950)" d="M92.7512 727.174 Q89.1401 727.174 87.3114 730.739 Q85.5058 734.28 85.5058 741.41 Q85.5058 748.516 87.3114 752.081 Q89.1401 755.623 92.7512 755.623 Q96.3854 755.623 98.1909 752.081 Q100.02 748.516 100.02 741.41 Q100.02 734.28 98.1909 730.739 Q96.3854 727.174 92.7512 727.174 M92.7512 723.47 Q98.5613 723.47 101.617 728.077 Q104.696 732.66 104.696 741.41 Q104.696 750.137 101.617 754.743 Q98.5613 759.326 92.7512 759.326 Q86.941 759.326 83.8623 754.743 Q80.8068 750.137 80.8068 741.41 Q80.8068 732.66 83.8623 728.077 Q86.941 723.47 92.7512 723.47 Z" fill="#000000" fill-rule="evenodd" fill-opacity="1" /><path clip-path="url(#clip950)" d="M122.913 727.174 Q119.302 727.174 117.473 730.739 Q115.668 734.28 115.668 741.41 Q115.668 748.516 117.473 752.081 Q119.302 755.623 122.913 755.623 Q126.547 755.623 128.353 752.081 Q130.182 748.516 130.182 741.41 Q130.182 734.28 128.353 730.739 Q126.547 727.174 122.913 727.174 M122.913 723.47 Q128.723 723.47 131.779 728.077 Q134.857 732.66 134.857 741.41 Q134.857 750.137 131.779 754.743 Q128.723 759.326 122.913 759.326 Q117.103 759.326 114.024 754.743 Q110.969 750.137 110.969 741.41 Q110.969 732.66 114.024 728.077 Q117.103 723.47 122.913 723.47 Z" fill="#000000" fill-rule="evenodd" fill-opacity="1" /><path clip-path="url(#clip950)" d="M66.7559 386.772 Q70.1124 387.49 71.9874 389.758 Q73.8855 392.027 73.8855 395.36 Q73.8855 400.476 70.367 403.277 Q66.8485 406.078 60.3671 406.078 Q58.1912 406.078 55.8764 405.638 Q53.5847 405.221 51.131 404.365 L51.131 399.851 Q53.0754 400.985 55.3903 401.564 Q57.7051 402.142 60.2282 402.142 Q64.6263 402.142 66.918 400.406 Q69.2328 398.67 69.2328 395.36 Q69.2328 392.304 67.08 390.592 Q64.9504 388.855 61.131 388.855 L57.1032 388.855 L57.1032 385.013 L61.3161 385.013 Q64.7652 385.013 66.5939 383.647 Q68.4226 382.258 68.4226 379.666 Q68.4226 377.004 66.5245 375.592 Q64.6495 374.156 61.131 374.156 Q59.2097 374.156 57.0106 374.573 Q54.8115 374.99 52.1727 375.869 L52.1727 371.703 Q54.8347 370.962 57.1495 370.592 Q59.4875 370.221 61.5476 370.221 Q66.8717 370.221 69.9735 372.652 Q73.0753 375.059 73.0753 379.18 Q73.0753 382.05 71.4318 384.041 Q69.7883 386.008 66.7559 386.772 Z" fill="#000000" fill-rule="evenodd" fill-opacity="1" /><path clip-path="url(#clip950)" d="M92.7512 373.925 Q89.1401 373.925 87.3114 377.49 Q85.5058 381.031 85.5058 388.161 Q85.5058 395.267 87.3114 398.832 Q89.1401 402.374 92.7512 402.374 Q96.3854 402.374 98.1909 398.832 Q100.02 395.267 100.02 388.161 Q100.02 381.031 98.1909 377.49 Q96.3854 373.925 92.7512 373.925 M92.7512 370.221 Q98.5613 370.221 101.617 374.828 Q104.696 379.411 104.696 388.161 Q104.696 396.888 101.617 401.494 Q98.5613 406.078 92.7512 406.078 Q86.941 406.078 83.8623 401.494 Q80.8068 396.888 80.8068 388.161 Q80.8068 379.411 83.8623 374.828 Q86.941 370.221 92.7512 370.221 Z" fill="#000000" fill-rule="evenodd" fill-opacity="1" /><path clip-path="url(#clip950)" d="M122.913 373.925 Q119.302 373.925 117.473 377.49 Q115.668 381.031 115.668 388.161 Q115.668 395.267 117.473 398.832 Q119.302 402.374 122.913 402.374 Q126.547 402.374 128.353 398.832 Q130.182 395.267 130.182 388.161 Q130.182 381.031 128.353 377.49 Q126.547 373.925 122.913 373.925 M122.913 370.221 Q128.723 370.221 131.779 374.828 Q134.857 379.411 134.857 388.161 Q134.857 396.888 131.779 401.494 Q128.723 406.078 122.913 406.078 Q117.103 406.078 114.024 401.494 Q110.969 396.888 110.969 388.161 Q110.969 379.411 114.024 374.828 Q117.103 370.221 122.913 370.221 Z" fill="#000000" fill-rule="evenodd" fill-opacity="1" /><path clip-path="url(#clip950)" d="M869.173 12.096 L877.356 12.096 L877.356 37.6572 L904.497 12.096 L915.029 12.096 L885.012 40.2903 L917.176 72.576 L906.401 72.576 L877.356 43.45 L877.356 72.576 L869.173 72.576 L869.173 12.096 Z" fill="#000000" fill-rule="evenodd" fill-opacity="1" /><path clip-path="url(#clip950)" d="M923.252 27.2059 L930.706 27.2059 L930.706 72.576 L923.252 72.576 L923.252 27.2059 M923.252 9.54393 L930.706 9.54393 L930.706 18.9825 L923.252 18.9825 L923.252 9.54393 Z" fill="#000000" fill-rule="evenodd" fill-opacity="1" /><path clip-path="url(#clip950)" d="M946.302 9.54393 L953.756 9.54393 L953.756 72.576 L946.302 72.576 L946.302 9.54393 Z" fill="#000000" fill-rule="evenodd" fill-opacity="1" /><path clip-path="url(#clip950)" d="M969.352 9.54393 L976.805 9.54393 L976.805 72.576 L969.352 72.576 L969.352 9.54393 Z" fill="#000000" fill-rule="evenodd" fill-opacity="1" /><path clip-path="url(#clip950)" d="M992.401 27.2059 L999.855 27.2059 L999.855 72.576 L992.401 72.576 L992.401 27.2059 M992.401 9.54393 L999.855 9.54393 L999.855 18.9825 L992.401 18.9825 L992.401 9.54393 Z" fill="#000000" fill-rule="evenodd" fill-opacity="1" /><path clip-path="url(#clip950)" d="M1053.16 45.1919 L1053.16 72.576 L1045.71 72.576 L1045.71 45.4349 Q1045.71 38.994 1043.2 35.7938 Q1040.69 32.5936 1035.66 32.5936 Q1029.63 32.5936 1026.15 36.4419 Q1022.66 40.2903 1022.66 46.9338 L1022.66 72.576 L1015.17 72.576 L1015.17 27.2059 L1022.66 27.2059 L1022.66 34.2544 Q1025.34 30.163 1028.94 28.1376 Q1032.59 26.1121 1037.33 26.1121 Q1045.14 26.1121 1049.15 30.9732 Q1053.16 35.7938 1053.16 45.1919 Z" fill="#000000" fill-rule="evenodd" fill-opacity="1" /><path clip-path="url(#clip950)" d="M1097.89 49.3643 Q1097.89 41.2625 1094.52 36.8065 Q1091.2 32.3505 1085.17 32.3505 Q1079.17 32.3505 1075.81 36.8065 Q1072.49 41.2625 1072.49 49.3643 Q1072.49 57.4256 1075.81 61.8816 Q1079.17 66.3376 1085.17 66.3376 Q1091.2 66.3376 1094.52 61.8816 Q1097.89 57.4256 1097.89 49.3643 M1105.34 66.9452 Q1105.34 78.5308 1100.2 84.1616 Q1095.05 89.8329 1084.44 89.8329 Q1080.51 89.8329 1077.02 89.2252 Q1073.54 88.6581 1070.26 87.4428 L1070.26 80.1917 Q1073.54 81.9741 1076.74 82.8248 Q1079.94 83.6755 1083.26 83.6755 Q1090.6 83.6755 1094.24 79.8271 Q1097.89 76.0193 1097.89 68.282 L1097.89 64.5957 Q1095.58 68.6061 1091.97 70.5911 Q1088.37 72.576 1083.34 72.576 Q1075 72.576 1069.9 66.2161 Q1064.79 59.8562 1064.79 49.3643 Q1064.79 38.832 1069.9 32.472 Q1075 26.1121 1083.34 26.1121 Q1088.37 26.1121 1091.97 28.0971 Q1095.58 30.082 1097.89 34.0924 L1097.89 27.2059 L1105.34 27.2059 L1105.34 66.9452 Z" fill="#000000" fill-rule="evenodd" fill-opacity="1" /><path clip-path="url(#clip950)" d="M1149.62 28.5427 L1149.62 35.5912 Q1146.46 33.9709 1143.05 33.1607 Q1139.65 32.3505 1136.01 32.3505 Q1130.46 32.3505 1127.66 34.0519 Q1124.91 35.7533 1124.91 39.156 Q1124.91 41.7486 1126.89 43.2475 Q1128.88 44.7058 1134.87 46.0426 L1137.42 46.6097 Q1145.36 48.3111 1148.69 51.4303 Q1152.05 54.509 1152.05 60.0587 Q1152.05 66.3781 1147.02 70.0644 Q1142.04 73.7508 1133.29 73.7508 Q1129.65 73.7508 1125.68 73.0216 Q1121.75 72.3329 1117.37 70.9151 L1117.37 63.2184 Q1121.5 65.3654 1125.51 66.4591 Q1129.52 67.5124 1133.45 67.5124 Q1138.72 67.5124 1141.56 65.73 Q1144.39 63.9071 1144.39 60.6258 Q1144.39 57.5877 1142.33 55.9673 Q1140.3 54.3469 1133.37 52.8481 L1130.78 52.2405 Q1123.85 50.7821 1120.77 47.7845 Q1117.7 44.7463 1117.7 39.4801 Q1117.7 33.0797 1122.23 29.5959 Q1126.77 26.1121 1135.11 26.1121 Q1139.25 26.1121 1142.89 26.7198 Q1146.54 27.3274 1149.62 28.5427 Z" fill="#000000" fill-rule="evenodd" fill-opacity="1" /><path clip-path="url(#clip950)" d="M1222.86 49.9314 Q1222.86 41.7081 1219.45 37.0496 Q1216.09 32.3505 1210.18 32.3505 Q1204.26 32.3505 1200.86 37.0496 Q1197.5 41.7081 1197.5 49.9314 Q1197.5 58.1548 1200.86 62.8538 Q1204.26 67.5124 1210.18 67.5124 Q1216.09 67.5124 1219.45 62.8538 Q1222.86 58.1548 1222.86 49.9314 M1197.5 34.0924 Q1199.85 30.0415 1203.41 28.0971 Q1207.02 26.1121 1212 26.1121 Q1220.26 26.1121 1225.41 32.6746 Q1230.59 39.2371 1230.59 49.9314 Q1230.59 60.6258 1225.41 67.1883 Q1220.26 73.7508 1212 73.7508 Q1207.02 73.7508 1203.41 71.8063 Q1199.85 69.8214 1197.5 65.7705 L1197.5 72.576 L1190 72.576 L1190 9.54393 L1197.5 9.54393 L1197.5 34.0924 Z" fill="#000000" fill-rule="evenodd" fill-opacity="1" /><path clip-path="url(#clip950)" d="M1261.83 76.7889 Q1258.67 84.8907 1255.67 87.3618 Q1252.67 89.8329 1247.65 89.8329 L1241.69 89.8329 L1241.69 83.5945 L1246.07 83.5945 Q1249.15 83.5945 1250.85 82.1361 Q1252.55 80.6778 1254.62 75.2496 L1255.95 71.8468 L1237.6 27.2059 L1245.5 27.2059 L1259.68 62.6918 L1273.86 27.2059 L1281.76 27.2059 L1261.83 76.7889 Z" fill="#000000" fill-rule="evenodd" fill-opacity="1" /><path clip-path="url(#clip950)" d="M1318.74 12.096 L1326.92 12.096 L1326.92 65.6895 L1356.38 65.6895 L1356.38 72.576 L1318.74 72.576 L1318.74 12.096 Z" fill="#000000" fill-rule="evenodd" fill-opacity="1" /><path clip-path="url(#clip950)" d="M1380.76 32.4315 Q1374.77 32.4315 1371.28 37.1306 Q1367.8 41.7891 1367.8 49.9314 Q1367.8 58.0738 1371.24 62.7728 Q1374.73 67.4314 1380.76 67.4314 Q1386.72 67.4314 1390.2 62.7323 Q1393.68 58.0333 1393.68 49.9314 Q1393.68 41.8701 1390.2 37.1711 Q1386.72 32.4315 1380.76 32.4315 M1380.76 26.1121 Q1390.48 26.1121 1396.03 32.4315 Q1401.58 38.7509 1401.58 49.9314 Q1401.58 61.0714 1396.03 67.4314 Q1390.48 73.7508 1380.76 73.7508 Q1371 73.7508 1365.45 67.4314 Q1359.94 61.0714 1359.94 49.9314 Q1359.94 38.7509 1365.45 32.4315 Q1371 26.1121 1380.76 26.1121 Z" fill="#000000" fill-rule="evenodd" fill-opacity="1" /><path clip-path="url(#clip950)" d="M1446.59 28.9478 L1446.59 35.9153 Q1443.43 34.1734 1440.23 33.3227 Q1437.07 32.4315 1433.83 32.4315 Q1426.58 32.4315 1422.57 37.0496 Q1418.56 41.6271 1418.56 49.9314 Q1418.56 58.2358 1422.57 62.8538 Q1426.58 67.4314 1433.83 67.4314 Q1437.07 67.4314 1440.23 66.5807 Q1443.43 65.6895 1446.59 63.9476 L1446.59 70.8341 Q1443.47 72.2924 1440.11 73.0216 Q1436.79 73.7508 1433.02 73.7508 Q1422.77 73.7508 1416.73 67.3098 Q1410.7 60.8689 1410.7 49.9314 Q1410.7 38.832 1416.77 32.472 Q1422.89 26.1121 1433.5 26.1121 Q1436.95 26.1121 1440.23 26.8413 Q1443.51 27.5299 1446.59 28.9478 Z" fill="#000000" fill-rule="evenodd" fill-opacity="1" /><path clip-path="url(#clip950)" d="M1480.17 49.7694 Q1471.14 49.7694 1467.65 51.8354 Q1464.17 53.9013 1464.17 58.8839 Q1464.17 62.8538 1466.76 65.2034 Q1469.4 67.5124 1473.89 67.5124 Q1480.09 67.5124 1483.82 63.1374 Q1487.58 58.7219 1487.58 51.4303 L1487.58 49.7694 L1480.17 49.7694 M1495.04 46.6907 L1495.04 72.576 L1487.58 72.576 L1487.58 65.6895 Q1485.03 69.8214 1481.22 71.8063 Q1477.42 73.7508 1471.91 73.7508 Q1464.94 73.7508 1460.81 69.8619 Q1456.72 65.9325 1456.72 59.3701 Q1456.72 51.7138 1461.82 47.825 Q1466.96 43.9361 1477.13 43.9361 L1487.58 43.9361 L1487.58 43.2069 Q1487.58 38.0623 1484.18 35.2672 Q1480.82 32.4315 1474.7 32.4315 Q1470.81 32.4315 1467.13 33.3632 Q1463.44 34.295 1460.04 36.1584 L1460.04 29.2718 Q1464.13 27.692 1467.98 26.9223 Q1471.83 26.1121 1475.47 26.1121 Q1485.32 26.1121 1490.18 31.2163 Q1495.04 36.3204 1495.04 46.6907 Z" fill="#000000" fill-rule="evenodd" fill-opacity="1" /><path clip-path="url(#clip950)" d="M1517.76 14.324 L1517.76 27.2059 L1533.12 27.2059 L1533.12 32.9987 L1517.76 32.9987 L1517.76 57.6282 Q1517.76 63.1779 1519.26 64.7578 Q1520.8 66.3376 1525.46 66.3376 L1533.12 66.3376 L1533.12 72.576 L1525.46 72.576 Q1516.83 72.576 1513.55 69.3758 Q1510.27 66.1351 1510.27 57.6282 L1510.27 32.9987 L1504.8 32.9987 L1504.8 27.2059 L1510.27 27.2059 L1510.27 14.324 L1517.76 14.324 Z" fill="#000000" fill-rule="evenodd" fill-opacity="1" /><path clip-path="url(#clip950)" d="M1542.92 27.2059 L1550.37 27.2059 L1550.37 72.576 L1542.92 72.576 L1542.92 27.2059 M1542.92 9.54393 L1550.37 9.54393 L1550.37 18.9825 L1542.92 18.9825 L1542.92 9.54393 Z" fill="#000000" fill-rule="evenodd" fill-opacity="1" /><path clip-path="url(#clip950)" d="M1583.55 32.4315 Q1577.55 32.4315 1574.07 37.1306 Q1570.59 41.7891 1570.59 49.9314 Q1570.59 58.0738 1574.03 62.7728 Q1577.51 67.4314 1583.55 67.4314 Q1589.5 67.4314 1592.99 62.7323 Q1596.47 58.0333 1596.47 49.9314 Q1596.47 41.8701 1592.99 37.1711 Q1589.5 32.4315 1583.55 32.4315 M1583.55 26.1121 Q1593.27 26.1121 1598.82 32.4315 Q1604.37 38.7509 1604.37 49.9314 Q1604.37 61.0714 1598.82 67.4314 Q1593.27 73.7508 1583.55 73.7508 Q1573.79 73.7508 1568.24 67.4314 Q1562.73 61.0714 1562.73 49.9314 Q1562.73 38.7509 1568.24 32.4315 Q1573.79 26.1121 1583.55 26.1121 Z" fill="#000000" fill-rule="evenodd" fill-opacity="1" /><path clip-path="url(#clip950)" d="M1654.44 45.1919 L1654.44 72.576 L1646.99 72.576 L1646.99 45.4349 Q1646.99 38.994 1644.48 35.7938 Q1641.96 32.5936 1636.94 32.5936 Q1630.9 32.5936 1627.42 36.4419 Q1623.94 40.2903 1623.94 46.9338 L1623.94 72.576 L1616.44 72.576 L1616.44 27.2059 L1623.94 27.2059 L1623.94 34.2544 Q1626.61 30.163 1630.22 28.1376 Q1633.86 26.1121 1638.6 26.1121 Q1646.42 26.1121 1650.43 30.9732 Q1654.44 35.7938 1654.44 45.1919 Z" fill="#000000" fill-rule="evenodd" fill-opacity="1" /><polyline clip-path="url(#clip952)" style="stroke:#009af9; stroke-linecap:butt; stroke-linejoin:round; stroke-width:4; stroke-opacity:1; fill:none" points="
  232.609,1423.15 242.316,1409.02 252.022,1394.89 260.789,1394.89 270.496,1391.35 346.895,1387.82 356.601,1387.82 375.075,1373.69 413.275,1373.69 442.081,1373.69 
  480.594,1359.56 499.067,1359.56 508.46,1359.56 527.56,1317.17 537.267,1292.44 556.367,1292.44 566.073,1285.38 594.879,1285.38 642.159,1264.18 680.672,1257.12 
  699.772,1253.59 709.478,1253.59 718.245,1253.59 766.151,1242.99 785.251,1242.99 794.957,1239.46 814.057,1239.46 832.531,1239.46 861.337,1235.92 870.73,1235.92 
  880.437,1235.92 890.143,1235.92 899.537,1235.92 938.049,1207.66 946.817,1207.66 956.523,1200.6 965.916,1200.6 994.723,1190 1013.82,1179.4 1032.92,1151.14 
  1052.34,1151.14 1061.42,1147.61 1080.52,1140.55 1090.22,1122.88 1099.61,1122.88 1119.03,1122.88 1157.23,1115.82 1175.7,1115.82 1185.41,1069.9 1194.8,1069.9 
  1204.51,1069.9 1213.9,1066.36 1223.61,1055.77 1233.31,1055.77 1252.41,1031.04 1261.81,1023.97 1271.51,1002.78 1281.22,1002.78 1289.99,999.247 1299.69,999.247 
  1309.09,992.182 1318.79,978.052 1328.19,970.987 1337.89,942.727 1347.6,935.662 1356.99,935.662 1376.09,935.662 1385.8,935.662 1413.98,928.597 1452.18,928.597 
  1461.88,914.467 1471.28,879.142 1490.38,872.077 1500.08,861.48 1509.79,861.48 1518.87,854.415 1528.58,854.415 1537.97,836.752 1557.07,794.363 1566.78,787.298 
  1576.48,766.103 1585.88,744.908 1595.58,737.843 1604.98,730.778 1614.68,723.713 1633.16,709.583 1642.86,709.583 1652.26,709.583 1661.96,709.583 1681.06,709.583 
  1690.77,709.583 1700.16,709.583 1709.87,709.583 1719.26,709.583 1728.97,695.453 1738.68,695.453 1757.15,695.453 1766.54,695.453 1776.25,684.855 1795.35,684.855 
  1805.06,677.79 1814.45,677.79 1824.15,677.79 1843.25,674.258 1852.96,670.725 1861.73,670.725 1871.43,670.725 1880.83,667.193 1890.53,667.193 1899.93,656.595 
  1928.73,656.595 1938.44,656.595 1947.83,607.141 1967.25,596.543 1976.33,596.543 1986.03,596.543 1995.43,589.478 2005.13,416.386 2014.53,416.386 2024.23,416.386 
  2033.94,398.724 2043.33,395.191 2053.04,391.659 2072.14,391.659 2090.61,377.529 2100.32,377.529 2109.71,377.529 2119.42,338.671 2138.52,338.671 2148.23,338.671 
  2157.62,321.009 2167.33,306.879 2176.72,306.879 2186.42,306.879 2196.13,306.879 2204.9,299.814 2214.6,285.684 2224,285.684 2233.7,268.022 2252.8,257.424 
  2262.51,218.567 2271.9,211.502 2281.61,162.047 2291,162.047 
  "/>
<polyline clip-path="url(#clip952)" style="stroke:#e26f46; stroke-linecap:butt; stroke-linejoin:round; stroke-width:4; stroke-opacity:1; fill:none" points="
  232.609,1447.87 242.316,1447.87 252.022,1447.87 260.789,1440.81 270.496,1440.81 346.895,1440.81 356.601,1430.21 375.075,1430.21 413.275,1430.21 442.081,1430.21 
  480.594,1430.21 499.067,1426.68 508.46,1423.15 527.56,1423.15 537.267,1423.15 556.367,1416.08 566.073,1416.08 594.879,1416.08 642.159,1416.08 680.672,1416.08 
  699.772,1416.08 709.478,1416.08 718.245,1384.29 766.151,1384.29 785.251,1384.29 794.957,1380.76 814.057,1380.76 832.531,1380.76 861.337,1380.76 870.73,1380.76 
  880.437,1370.16 890.143,1366.63 899.537,1348.96 938.049,1348.96 946.817,1348.96 956.523,1235.92 965.916,1235.92 994.723,1235.92 1013.82,1235.92 1032.92,1235.92 
  1052.34,1211.2 1061.42,1211.2 1080.52,1211.2 1090.22,1211.2 1099.61,1211.2 1119.03,1211.2 1157.23,1211.2 1175.7,1211.2 1185.41,1211.2 1194.8,1211.2 
  1204.51,1211.2 1213.9,1211.2 1223.61,1211.2 1233.31,1211.2 1252.41,1211.2 1261.81,1211.2 1271.51,1211.2 1281.22,1200.6 1289.99,1197.07 1299.69,1197.07 
  1309.09,1197.07 1318.79,1197.07 1328.19,1197.07 1337.89,1197.07 1347.6,1197.07 1356.99,1193.53 1376.09,1193.53 1385.8,1190 1413.98,1190 1452.18,1190 
  1461.88,1190 1471.28,1190 1490.38,1190 1500.08,1190 1509.79,1179.4 1518.87,1175.87 1528.58,1151.14 1537.97,1151.14 1557.07,1151.14 1566.78,1151.14 
  1576.48,1151.14 1585.88,1151.14 1595.58,1151.14 1604.98,1055.77 1614.68,1055.77 1633.16,1055.77 1642.86,1055.77 1652.26,1055.77 1661.96,1038.1 1681.06,1038.1 
  1690.77,1038.1 1700.16,1034.57 1709.87,1034.57 1719.26,1031.04 1728.97,1031.04 1738.68,1031.04 1757.15,1031.04 1766.54,1031.04 1776.25,1023.97 1795.35,1023.97 
  1805.06,1023.97 1814.45,1009.84 1824.15,1009.84 1843.25,1009.84 1852.96,1009.84 1861.73,1009.84 1871.43,1009.84 1880.83,1009.84 1890.53,1009.84 1899.93,1009.84 
  1928.73,978.052 1938.44,978.052 1947.83,978.052 1967.25,978.052 1976.33,978.052 1986.03,978.052 1995.43,978.052 2005.13,978.052 2014.53,978.052 2024.23,978.052 
  2033.94,970.987 2043.33,970.987 2053.04,970.987 2072.14,970.987 2090.61,970.987 2100.32,970.987 2109.71,970.987 2119.42,970.987 2138.52,970.987 2148.23,967.455 
  2157.62,967.455 2167.33,949.792 2176.72,942.727 2186.42,935.662 2196.13,875.61 2204.9,875.61 2214.6,875.61 2224,840.285 2233.7,840.285 2252.8,840.285 
  2262.51,840.285 2271.9,840.285 2281.61,840.285 2291,840.285 
  "/>
<polyline clip-path="url(#clip952)" style="stroke:#3da44d; stroke-linecap:butt; stroke-linejoin:round; stroke-width:4; stroke-opacity:1; fill:none" points="
  232.609,1447.87 242.316,1447.87 252.022,1447.87 260.789,1447.87 270.496,1447.87 346.895,1447.87 356.601,1447.87 375.075,1447.87 413.275,1440.81 442.081,1440.81 
  480.594,1440.81 499.067,1440.81 508.46,1440.81 527.56,1440.81 537.267,1440.81 556.367,1440.81 566.073,1440.81 594.879,1440.81 642.159,1440.81 680.672,1440.81 
  699.772,1440.81 709.478,1440.81 718.245,1440.81 766.151,1440.81 785.251,1440.81 794.957,1440.81 814.057,1419.61 832.531,1419.61 861.337,1419.61 870.73,1419.61 
  880.437,1419.61 890.143,1419.61 899.537,1419.61 938.049,1419.61 946.817,1419.61 956.523,1419.61 965.916,1409.02 994.723,1409.02 1013.82,1409.02 1032.92,1409.02 
  1052.34,1387.82 1061.42,1387.82 1080.52,1387.82 1090.22,1387.82 1099.61,1387.82 1119.03,1387.82 1157.23,1387.82 1175.7,1387.82 1185.41,1387.82 1194.8,1387.82 
  1204.51,1380.76 1213.9,1380.76 1223.61,1380.76 1233.31,1380.76 1252.41,1334.83 1261.81,1334.83 1271.51,1331.3 1281.22,1331.3 1289.99,1331.3 1299.69,1331.3 
  1309.09,1331.3 1318.79,1331.3 1328.19,1331.3 1337.89,1331.3 1347.6,1327.77 1356.99,1327.77 1376.09,1327.77 1385.8,1327.77 1413.98,1327.77 1452.18,1327.77 
  1461.88,1327.77 1471.28,1327.77 1490.38,1327.77 1500.08,1327.77 1509.79,1327.77 1518.87,1327.77 1528.58,1327.77 1537.97,1327.77 1557.07,1327.77 1566.78,1327.77 
  1576.48,1327.77 1585.88,1327.77 1595.58,1327.77 1604.98,1327.77 1614.68,1327.77 1633.16,1327.77 1642.86,1327.77 1652.26,1327.77 1661.96,1327.77 1681.06,1317.17 
  1690.77,1274.78 1700.16,1274.78 1709.87,1271.25 1719.26,1271.25 1728.97,1271.25 1738.68,1257.12 1757.15,1246.52 1766.54,1246.52 1776.25,1246.52 1795.35,1246.52 
  1805.06,1246.52 1814.45,1246.52 1824.15,1246.52 1843.25,1246.52 1852.96,1246.52 1861.73,1246.52 1871.43,1246.52 1880.83,1246.52 1890.53,1246.52 1899.93,1228.86 
  1928.73,1228.86 1938.44,1228.86 1947.83,1228.86 1967.25,1228.86 1976.33,1225.33 1986.03,1225.33 1995.43,1225.33 2005.13,1225.33 2014.53,1225.33 2024.23,1225.33 
  2033.94,1225.33 2043.33,1225.33 2053.04,1225.33 2072.14,1207.66 2090.61,1207.66 2100.32,1207.66 2109.71,1207.66 2119.42,1207.66 2138.52,1200.6 2148.23,1200.6 
  2157.62,1200.6 2167.33,1200.6 2176.72,1200.6 2186.42,1200.6 2196.13,1200.6 2204.9,1200.6 2214.6,1200.6 2224,1200.6 2233.7,1200.6 2252.8,1200.6 
  2262.51,1200.6 2271.9,1200.6 2281.61,1200.6 2291,1200.6 
  "/>
<path clip-path="url(#clip950)" d="
M243.587 376.265 L777.871 376.265 L777.871 168.905 L243.587 168.905  Z
  " fill="#ffffff" fill-rule="evenodd" fill-opacity="1"/>
<polyline clip-path="url(#clip950)" style="stroke:#000000; stroke-linecap:butt; stroke-linejoin:round; stroke-width:4; stroke-opacity:1; fill:none" points="
  243.587,376.265 777.871,376.265 777.871,168.905 243.587,168.905 243.587,376.265 
  "/>
<polyline clip-path="url(#clip950)" style="stroke:#009af9; stroke-linecap:butt; stroke-linejoin:round; stroke-width:4; stroke-opacity:1; fill:none" points="
  267.831,220.745 413.291,220.745 
  "/>
<path clip-path="url(#clip950)" d="M465.404 206.127 L465.404 211.057 Q463.043 208.858 460.358 207.77 Q457.696 206.682 454.687 206.682 Q448.761 206.682 445.613 210.316 Q442.464 213.928 442.464 220.779 Q442.464 227.608 445.613 231.242 Q448.761 234.853 454.687 234.853 Q457.696 234.853 460.358 233.765 Q463.043 232.677 465.404 230.478 L465.404 235.363 Q462.95 237.029 460.196 237.863 Q457.464 238.696 454.409 238.696 Q446.562 238.696 442.048 233.904 Q437.534 229.09 437.534 220.779 Q437.534 212.446 442.048 207.654 Q446.562 202.84 454.409 202.84 Q457.511 202.84 460.242 203.673 Q462.997 204.483 465.404 206.127 Z" fill="#000000" fill-rule="evenodd" fill-opacity="1" /><path clip-path="url(#clip950)" d="M482.487 215.085 Q479.061 215.085 477.071 217.77 Q475.08 220.432 475.08 225.085 Q475.08 229.738 477.048 232.423 Q479.038 235.085 482.487 235.085 Q485.89 235.085 487.881 232.4 Q489.872 229.715 489.872 225.085 Q489.872 220.478 487.881 217.793 Q485.89 215.085 482.487 215.085 M482.487 211.474 Q488.043 211.474 491.214 215.085 Q494.385 218.696 494.385 225.085 Q494.385 231.451 491.214 235.085 Q488.043 238.696 482.487 238.696 Q476.909 238.696 473.737 235.085 Q470.589 231.451 470.589 225.085 Q470.589 218.696 473.737 215.085 Q476.909 211.474 482.487 211.474 Z" fill="#000000" fill-rule="evenodd" fill-opacity="1" /><path clip-path="url(#clip950)" d="M521.631 217.076 Q523.228 214.205 525.45 212.84 Q527.672 211.474 530.682 211.474 Q534.732 211.474 536.932 214.321 Q539.131 217.145 539.131 222.377 L539.131 238.025 L534.848 238.025 L534.848 222.515 Q534.848 218.789 533.529 216.983 Q532.209 215.178 529.501 215.178 Q526.191 215.178 524.27 217.377 Q522.348 219.576 522.348 223.372 L522.348 238.025 L518.066 238.025 L518.066 222.515 Q518.066 218.765 516.746 216.983 Q515.427 215.178 512.672 215.178 Q509.409 215.178 507.487 217.4 Q505.566 219.599 505.566 223.372 L505.566 238.025 L501.284 238.025 L501.284 212.099 L505.566 212.099 L505.566 216.127 Q507.024 213.742 509.061 212.608 Q511.098 211.474 513.899 211.474 Q516.723 211.474 518.691 212.909 Q520.682 214.344 521.631 217.076 Z" fill="#000000" fill-rule="evenodd" fill-opacity="1" /><path clip-path="url(#clip950)" d="M567.811 217.076 Q569.408 214.205 571.63 212.84 Q573.853 211.474 576.862 211.474 Q580.913 211.474 583.112 214.321 Q585.311 217.145 585.311 222.377 L585.311 238.025 L581.029 238.025 L581.029 222.515 Q581.029 218.789 579.709 216.983 Q578.39 215.178 575.681 215.178 Q572.371 215.178 570.45 217.377 Q568.529 219.576 568.529 223.372 L568.529 238.025 L564.246 238.025 L564.246 222.515 Q564.246 218.765 562.927 216.983 Q561.607 215.178 558.853 215.178 Q555.589 215.178 553.668 217.4 Q551.746 219.599 551.746 223.372 L551.746 238.025 L547.464 238.025 L547.464 212.099 L551.746 212.099 L551.746 216.127 Q553.205 213.742 555.242 212.608 Q557.279 211.474 560.08 211.474 Q562.904 211.474 564.871 212.909 Q566.862 214.344 567.811 217.076 Z" fill="#000000" fill-rule="evenodd" fill-opacity="1" /><path clip-path="url(#clip950)" d="M615.982 223.997 L615.982 226.08 L596.399 226.08 Q596.677 230.478 599.038 232.793 Q601.422 235.085 605.658 235.085 Q608.112 235.085 610.403 234.483 Q612.718 233.881 614.987 232.677 L614.987 236.705 Q612.695 237.677 610.288 238.187 Q607.88 238.696 605.403 238.696 Q599.2 238.696 595.565 235.085 Q591.954 231.474 591.954 225.316 Q591.954 218.951 595.38 215.224 Q598.829 211.474 604.663 211.474 Q609.894 211.474 612.926 214.853 Q615.982 218.21 615.982 223.997 M611.723 222.747 Q611.676 219.252 609.755 217.168 Q607.857 215.085 604.709 215.085 Q601.144 215.085 598.991 217.099 Q596.862 219.113 596.538 222.77 L611.723 222.747 Z" fill="#000000" fill-rule="evenodd" fill-opacity="1" /><path clip-path="url(#clip950)" d="M637.996 216.08 Q637.278 215.664 636.422 215.478 Q635.588 215.27 634.57 215.27 Q630.959 215.27 629.014 217.631 Q627.093 219.969 627.093 224.367 L627.093 238.025 L622.811 238.025 L622.811 212.099 L627.093 212.099 L627.093 216.127 Q628.436 213.766 630.588 212.631 Q632.741 211.474 635.82 211.474 Q636.26 211.474 636.792 211.543 Q637.324 211.59 637.973 211.705 L637.996 216.08 Z" fill="#000000" fill-rule="evenodd" fill-opacity="1" /><path clip-path="url(#clip950)" d="M660.079 213.094 L660.079 217.076 Q658.273 216.08 656.445 215.594 Q654.639 215.085 652.787 215.085 Q648.644 215.085 646.352 217.724 Q644.061 220.34 644.061 225.085 Q644.061 229.83 646.352 232.469 Q648.644 235.085 652.787 235.085 Q654.639 235.085 656.445 234.599 Q658.273 234.089 660.079 233.094 L660.079 237.029 Q658.297 237.863 656.375 238.279 Q654.477 238.696 652.324 238.696 Q646.468 238.696 643.019 235.015 Q639.57 231.335 639.57 225.085 Q639.57 218.742 643.042 215.108 Q646.537 211.474 652.602 211.474 Q654.57 211.474 656.445 211.891 Q658.32 212.284 660.079 213.094 Z" fill="#000000" fill-rule="evenodd" fill-opacity="1" /><path clip-path="url(#clip950)" d="M689.662 223.997 L689.662 226.08 L670.079 226.08 Q670.357 230.478 672.718 232.793 Q675.102 235.085 679.338 235.085 Q681.792 235.085 684.084 234.483 Q686.398 233.881 688.667 232.677 L688.667 236.705 Q686.375 237.677 683.968 238.187 Q681.56 238.696 679.084 238.696 Q672.88 238.696 669.246 235.085 Q665.635 231.474 665.635 225.316 Q665.635 218.951 669.06 215.224 Q672.509 211.474 678.343 211.474 Q683.574 211.474 686.607 214.853 Q689.662 218.21 689.662 223.997 M685.403 222.747 Q685.357 219.252 683.435 217.168 Q681.537 215.085 678.389 215.085 Q674.824 215.085 672.672 217.099 Q670.542 219.113 670.218 222.77 L685.403 222.747 Z" fill="#000000" fill-rule="evenodd" fill-opacity="1" /><polyline clip-path="url(#clip950)" style="stroke:#e26f46; stroke-linecap:butt; stroke-linejoin:round; stroke-width:4; stroke-opacity:1; fill:none" points="
  267.831,272.585 413.291,272.585 
  "/>
<path clip-path="url(#clip950)" d="M437.534 255.305 L459.386 255.305 L459.386 259.24 L442.21 259.24 L442.21 269.471 L458.668 269.471 L458.668 273.406 L442.21 273.406 L442.21 285.929 L459.802 285.929 L459.802 289.865 L437.534 289.865 L437.534 255.305 Z" fill="#000000" fill-rule="evenodd" fill-opacity="1" /><path clip-path="url(#clip950)" d="M484.362 267.874 L484.362 253.846 L488.622 253.846 L488.622 289.865 L484.362 289.865 L484.362 285.976 Q483.02 288.291 480.96 289.425 Q478.923 290.536 476.052 290.536 Q471.353 290.536 468.39 286.786 Q465.45 283.036 465.45 276.925 Q465.45 270.814 468.39 267.064 Q471.353 263.314 476.052 263.314 Q478.923 263.314 480.96 264.448 Q483.02 265.559 484.362 267.874 M469.849 276.925 Q469.849 281.624 471.77 284.309 Q473.714 286.971 477.094 286.971 Q480.473 286.971 482.418 284.309 Q484.362 281.624 484.362 276.925 Q484.362 272.226 482.418 269.564 Q480.473 266.879 477.094 266.879 Q473.714 266.879 471.77 269.564 Q469.849 272.226 469.849 276.925 Z" fill="#000000" fill-rule="evenodd" fill-opacity="1" /><path clip-path="url(#clip950)" d="M496.955 279.633 L496.955 263.939 L501.214 263.939 L501.214 279.471 Q501.214 283.152 502.649 285.004 Q504.084 286.832 506.955 286.832 Q510.404 286.832 512.395 284.633 Q514.408 282.434 514.408 278.638 L514.408 263.939 L518.668 263.939 L518.668 289.865 L514.408 289.865 L514.408 285.883 Q512.858 288.244 510.797 289.402 Q508.76 290.536 506.052 290.536 Q501.584 290.536 499.27 287.758 Q496.955 284.98 496.955 279.633 M507.672 263.314 L507.672 263.314 Z" fill="#000000" fill-rule="evenodd" fill-opacity="1" /><path clip-path="url(#clip950)" d="M546.098 264.934 L546.098 268.916 Q544.293 267.92 542.464 267.434 Q540.658 266.925 538.807 266.925 Q534.663 266.925 532.371 269.564 Q530.08 272.18 530.08 276.925 Q530.08 281.67 532.371 284.309 Q534.663 286.925 538.807 286.925 Q540.658 286.925 542.464 286.439 Q544.293 285.929 546.098 284.934 L546.098 288.869 Q544.316 289.703 542.394 290.119 Q540.496 290.536 538.344 290.536 Q532.487 290.536 529.038 286.855 Q525.589 283.175 525.589 276.925 Q525.589 270.582 529.061 266.948 Q532.557 263.314 538.621 263.314 Q540.589 263.314 542.464 263.731 Q544.339 264.124 546.098 264.934 Z" fill="#000000" fill-rule="evenodd" fill-opacity="1" /><path clip-path="url(#clip950)" d="M565.288 276.832 Q560.126 276.832 558.135 278.013 Q556.144 279.193 556.144 282.041 Q556.144 284.309 557.626 285.652 Q559.13 286.971 561.7 286.971 Q565.242 286.971 567.371 284.471 Q569.524 281.948 569.524 277.781 L569.524 276.832 L565.288 276.832 M573.783 275.073 L573.783 289.865 L569.524 289.865 L569.524 285.929 Q568.066 288.291 565.89 289.425 Q563.714 290.536 560.566 290.536 Q556.584 290.536 554.223 288.314 Q551.885 286.068 551.885 282.318 Q551.885 277.943 554.802 275.721 Q557.742 273.499 563.552 273.499 L569.524 273.499 L569.524 273.082 Q569.524 270.143 567.579 268.545 Q565.658 266.925 562.163 266.925 Q559.941 266.925 557.834 267.457 Q555.728 267.99 553.783 269.055 L553.783 265.119 Q556.121 264.217 558.32 263.777 Q560.519 263.314 562.603 263.314 Q568.228 263.314 571.005 266.231 Q573.783 269.147 573.783 275.073 Z" fill="#000000" fill-rule="evenodd" fill-opacity="1" /><path clip-path="url(#clip950)" d="M586.769 256.578 L586.769 263.939 L595.542 263.939 L595.542 267.249 L586.769 267.249 L586.769 281.323 Q586.769 284.494 587.626 285.397 Q588.505 286.3 591.167 286.3 L595.542 286.3 L595.542 289.865 L591.167 289.865 Q586.237 289.865 584.362 288.036 Q582.487 286.184 582.487 281.323 L582.487 267.249 L579.362 267.249 L579.362 263.939 L582.487 263.939 L582.487 256.578 L586.769 256.578 Z" fill="#000000" fill-rule="evenodd" fill-opacity="1" /><path clip-path="url(#clip950)" d="M601.144 263.939 L605.403 263.939 L605.403 289.865 L601.144 289.865 L601.144 263.939 M601.144 253.846 L605.403 253.846 L605.403 259.24 L601.144 259.24 L601.144 253.846 Z" fill="#000000" fill-rule="evenodd" fill-opacity="1" /><path clip-path="url(#clip950)" d="M624.362 266.925 Q620.936 266.925 618.945 269.61 Q616.954 272.272 616.954 276.925 Q616.954 281.578 618.922 284.263 Q620.913 286.925 624.362 286.925 Q627.764 286.925 629.755 284.24 Q631.746 281.555 631.746 276.925 Q631.746 272.318 629.755 269.633 Q627.764 266.925 624.362 266.925 M624.362 263.314 Q629.917 263.314 633.088 266.925 Q636.26 270.536 636.26 276.925 Q636.26 283.291 633.088 286.925 Q629.917 290.536 624.362 290.536 Q618.783 290.536 615.612 286.925 Q612.464 283.291 612.464 276.925 Q612.464 270.536 615.612 266.925 Q618.783 263.314 624.362 263.314 Z" fill="#000000" fill-rule="evenodd" fill-opacity="1" /><path clip-path="url(#clip950)" d="M664.871 274.217 L664.871 289.865 L660.611 289.865 L660.611 274.355 Q660.611 270.675 659.176 268.846 Q657.741 267.018 654.871 267.018 Q651.422 267.018 649.431 269.217 Q647.44 271.416 647.44 275.212 L647.44 289.865 L643.158 289.865 L643.158 263.939 L647.44 263.939 L647.44 267.967 Q648.968 265.629 651.028 264.471 Q653.111 263.314 655.82 263.314 Q660.287 263.314 662.579 266.092 Q664.871 268.846 664.871 274.217 Z" fill="#000000" fill-rule="evenodd" fill-opacity="1" /><polyline clip-path="url(#clip950)" style="stroke:#3da44d; stroke-linecap:butt; stroke-linejoin:round; stroke-width:4; stroke-opacity:1; fill:none" points="
  267.831,324.425 413.291,324.425 
  "/>
<path clip-path="url(#clip950)" d="M463.089 336.774 L463.089 327.492 L455.45 327.492 L455.45 323.649 L467.719 323.649 L467.719 338.487 Q465.011 340.408 461.747 341.404 Q458.483 342.376 454.779 342.376 Q446.677 342.376 442.094 337.654 Q437.534 332.908 437.534 324.459 Q437.534 315.987 442.094 311.265 Q446.677 306.52 454.779 306.52 Q458.159 306.52 461.191 307.353 Q464.247 308.186 466.816 309.807 L466.816 314.783 Q464.224 312.584 461.307 311.473 Q458.39 310.362 455.173 310.362 Q448.83 310.362 445.636 313.904 Q442.464 317.446 442.464 324.459 Q442.464 331.45 445.636 334.992 Q448.83 338.533 455.173 338.533 Q457.65 338.533 459.594 338.117 Q461.538 337.677 463.089 336.774 Z" fill="#000000" fill-rule="evenodd" fill-opacity="1" /><path clip-path="url(#clip950)" d="M486.122 318.765 Q482.696 318.765 480.705 321.45 Q478.714 324.112 478.714 328.765 Q478.714 333.418 480.682 336.103 Q482.673 338.765 486.122 338.765 Q489.524 338.765 491.515 336.08 Q493.506 333.395 493.506 328.765 Q493.506 324.158 491.515 321.473 Q489.524 318.765 486.122 318.765 M486.122 315.154 Q491.677 315.154 494.848 318.765 Q498.02 322.376 498.02 328.765 Q498.02 335.131 494.848 338.765 Q491.677 342.376 486.122 342.376 Q480.543 342.376 477.372 338.765 Q474.224 335.131 474.224 328.765 Q474.224 322.376 477.372 318.765 Q480.543 315.154 486.122 315.154 Z" fill="#000000" fill-rule="evenodd" fill-opacity="1" /><path clip-path="url(#clip950)" d="M502.024 315.779 L506.538 315.779 L514.64 337.538 L522.742 315.779 L527.256 315.779 L517.533 341.705 L511.746 341.705 L502.024 315.779 Z" fill="#000000" fill-rule="evenodd" fill-opacity="1" /><path clip-path="url(#clip950)" d="M555.311 327.677 L555.311 329.76 L535.728 329.76 Q536.006 334.158 538.367 336.473 Q540.751 338.765 544.987 338.765 Q547.441 338.765 549.732 338.163 Q552.047 337.561 554.316 336.357 L554.316 340.385 Q552.024 341.357 549.617 341.867 Q547.209 342.376 544.732 342.376 Q538.529 342.376 534.894 338.765 Q531.283 335.154 531.283 328.996 Q531.283 322.631 534.709 318.904 Q538.158 315.154 543.992 315.154 Q549.223 315.154 552.256 318.533 Q555.311 321.89 555.311 327.677 M551.052 326.427 Q551.006 322.932 549.084 320.848 Q547.186 318.765 544.038 318.765 Q540.473 318.765 538.32 320.779 Q536.191 322.793 535.867 326.45 L551.052 326.427 Z" fill="#000000" fill-rule="evenodd" fill-opacity="1" /><path clip-path="url(#clip950)" d="M577.325 319.76 Q576.607 319.344 575.751 319.158 Q574.917 318.95 573.899 318.95 Q570.288 318.95 568.343 321.311 Q566.422 323.649 566.422 328.047 L566.422 341.705 L562.14 341.705 L562.14 315.779 L566.422 315.779 L566.422 319.807 Q567.765 317.446 569.917 316.311 Q572.07 315.154 575.149 315.154 Q575.589 315.154 576.121 315.223 Q576.654 315.27 577.302 315.385 L577.325 319.76 Z" fill="#000000" fill-rule="evenodd" fill-opacity="1" /><path clip-path="url(#clip950)" d="M602.51 326.057 L602.51 341.705 L598.251 341.705 L598.251 326.195 Q598.251 322.515 596.815 320.686 Q595.38 318.858 592.51 318.858 Q589.061 318.858 587.07 321.057 Q585.079 323.256 585.079 327.052 L585.079 341.705 L580.797 341.705 L580.797 315.779 L585.079 315.779 L585.079 319.807 Q586.607 317.469 588.667 316.311 Q590.751 315.154 593.459 315.154 Q597.927 315.154 600.218 317.932 Q602.51 320.686 602.51 326.057 Z" fill="#000000" fill-rule="evenodd" fill-opacity="1" /><path clip-path="url(#clip950)" d="M631.19 320.756 Q632.787 317.885 635.01 316.52 Q637.232 315.154 640.241 315.154 Q644.292 315.154 646.491 318.001 Q648.69 320.825 648.69 326.057 L648.69 341.705 L644.408 341.705 L644.408 326.195 Q644.408 322.469 643.088 320.663 Q641.769 318.858 639.061 318.858 Q635.75 318.858 633.829 321.057 Q631.908 323.256 631.908 327.052 L631.908 341.705 L627.625 341.705 L627.625 326.195 Q627.625 322.445 626.306 320.663 Q624.987 318.858 622.232 318.858 Q618.968 318.858 617.047 321.08 Q615.126 323.279 615.126 327.052 L615.126 341.705 L610.843 341.705 L610.843 315.779 L615.126 315.779 L615.126 319.807 Q616.584 317.422 618.621 316.288 Q620.658 315.154 623.459 315.154 Q626.283 315.154 628.25 316.589 Q630.241 318.024 631.19 320.756 Z" fill="#000000" fill-rule="evenodd" fill-opacity="1" /><path clip-path="url(#clip950)" d="M679.361 327.677 L679.361 329.76 L659.778 329.76 Q660.056 334.158 662.417 336.473 Q664.801 338.765 669.037 338.765 Q671.491 338.765 673.783 338.163 Q676.097 337.561 678.366 336.357 L678.366 340.385 Q676.074 341.357 673.667 341.867 Q671.259 342.376 668.783 342.376 Q662.579 342.376 658.945 338.765 Q655.334 335.154 655.334 328.996 Q655.334 322.631 658.76 318.904 Q662.209 315.154 668.042 315.154 Q673.273 315.154 676.306 318.533 Q679.361 321.89 679.361 327.677 M675.102 326.427 Q675.056 322.932 673.134 320.848 Q671.236 318.765 668.088 318.765 Q664.523 318.765 662.371 320.779 Q660.241 322.793 659.917 326.45 L675.102 326.427 Z" fill="#000000" fill-rule="evenodd" fill-opacity="1" /><path clip-path="url(#clip950)" d="M707.903 326.057 L707.903 341.705 L703.644 341.705 L703.644 326.195 Q703.644 322.515 702.208 320.686 Q700.773 318.858 697.903 318.858 Q694.454 318.858 692.463 321.057 Q690.472 323.256 690.472 327.052 L690.472 341.705 L686.19 341.705 L686.19 315.779 L690.472 315.779 L690.472 319.807 Q692 317.469 694.06 316.311 Q696.144 315.154 698.852 315.154 Q703.32 315.154 705.611 317.932 Q707.903 320.686 707.903 326.057 Z" fill="#000000" fill-rule="evenodd" fill-opacity="1" /><path clip-path="url(#clip950)" d="M720.611 308.418 L720.611 315.779 L729.384 315.779 L729.384 319.089 L720.611 319.089 L720.611 333.163 Q720.611 336.334 721.468 337.237 Q722.347 338.14 725.009 338.14 L729.384 338.14 L729.384 341.705 L725.009 341.705 Q720.079 341.705 718.204 339.876 Q716.329 338.024 716.329 333.163 L716.329 319.089 L713.204 319.089 L713.204 315.779 L716.329 315.779 L716.329 308.418 L720.611 308.418 Z" fill="#000000" fill-rule="evenodd" fill-opacity="1" /></svg>
