<?xml version="1.0" encoding="utf-8"?>
<svg xmlns="http://www.w3.org/2000/svg" xmlns:xlink="http://www.w3.org/1999/xlink" width="600" height="400" viewBox="0 0 2400 1600">
<defs>
  <clipPath id="clip660">
    <rect x="0" y="0" width="2400" height="1600"/>
  </clipPath>
</defs>
<path clip-path="url(#clip660)" d="
M0 1600 L2400 1600 L2400 0 L0 0  Z
  " fill="#ffffff" fill-rule="evenodd" fill-opacity="1"/>
<defs>
  <clipPath id="clip661">
    <rect x="480" y="0" width="1681" height="1600"/>
  </clipPath>
</defs>
<path clip-path="url(#clip660)" d="
M141.853 1486.45 L2352.76 1486.45 L2352.76 123.472 L141.853 123.472  Z
  " fill="#ffffff" fill-rule="evenodd" fill-opacity="1"/>
<defs>
  <clipPath id="clip662">
    <rect x="141" y="123" width="2212" height="1364"/>
  </clipPath>
</defs>
<polyline clip-path="url(#clip662)" style="stroke:#000000; stroke-linecap:butt; stroke-linejoin:round; stroke-width:2; stroke-opacity:0.1; fill:none" points="
  276.402,1486.45 276.402,123.472 
  "/>
<polyline clip-path="url(#clip662)" style="stroke:#000000; stroke-linecap:butt; stroke-linejoin:round; stroke-width:2; stroke-opacity:0.1; fill:none" points="
  794.217,1486.45 794.217,123.472 
  "/>
<polyline clip-path="url(#clip662)" style="stroke:#000000; stroke-linecap:butt; stroke-linejoin:round; stroke-width:2; stroke-opacity:0.1; fill:none" points="
  1312.03,1486.45 1312.03,123.472 
  "/>
<polyline clip-path="url(#clip662)" style="stroke:#000000; stroke-linecap:butt; stroke-linejoin:round; stroke-width:2; stroke-opacity:0.1; fill:none" points="
  1829.85,1486.45 1829.85,123.472 
  "/>
<polyline clip-path="url(#clip662)" style="stroke:#000000; stroke-linecap:butt; stroke-linejoin:round; stroke-width:2; stroke-opacity:0.1; fill:none" points="
  2347.66,1486.45 2347.66,123.472 
  "/>
<polyline clip-path="url(#clip660)" style="stroke:#000000; stroke-linecap:butt; stroke-linejoin:round; stroke-width:4; stroke-opacity:1; fill:none" points="
  141.853,1486.45 2352.76,1486.45 
  "/>
<polyline clip-path="url(#clip660)" style="stroke:#000000; stroke-linecap:butt; stroke-linejoin:round; stroke-width:4; stroke-opacity:1; fill:none" points="
  276.402,1486.45 276.402,1467.55 
  "/>
<polyline clip-path="url(#clip660)" style="stroke:#000000; stroke-linecap:butt; stroke-linejoin:round; stroke-width:4; stroke-opacity:1; fill:none" points="
  794.217,1486.45 794.217,1467.55 
  "/>
<polyline clip-path="url(#clip660)" style="stroke:#000000; stroke-linecap:butt; stroke-linejoin:round; stroke-width:4; stroke-opacity:1; fill:none" points="
  1312.03,1486.45 1312.03,1467.55 
  "/>
<polyline clip-path="url(#clip660)" style="stroke:#000000; stroke-linecap:butt; stroke-linejoin:round; stroke-width:4; stroke-opacity:1; fill:none" points="
  1829.85,1486.45 1829.85,1467.55 
  "/>
<polyline clip-path="url(#clip660)" style="stroke:#000000; stroke-linecap:butt; stroke-linejoin:round; stroke-width:4; stroke-opacity:1; fill:none" points="
  2347.66,1486.45 2347.66,1467.55 
  "/>
<path clip-path="url(#clip660)" d="M276.402 1517.37 Q272.791 1517.37 270.962 1520.93 Q269.157 1524.47 269.157 1531.6 Q269.157 1538.71 270.962 1542.27 Q272.791 1545.82 276.402 1545.82 Q280.036 1545.82 281.842 1542.27 Q283.67 1538.71 283.67 1531.6 Q283.67 1524.47 281.842 1520.93 Q280.036 1517.37 276.402 1517.37 M276.402 1513.66 Q282.212 1513.66 285.268 1518.27 Q288.346 1522.85 288.346 1531.6 Q288.346 1540.33 285.268 1544.94 Q282.212 1549.52 276.402 1549.52 Q270.592 1549.52 267.513 1544.94 Q264.458 1540.33 264.458 1531.6 Q264.458 1522.85 267.513 1518.27 Q270.592 1513.66 276.402 1513.66 Z" fill="#000000" fill-rule="evenodd" fill-opacity="1" /><path clip-path="url(#clip660)" d="M772.99 1544.91 L789.309 1544.91 L789.309 1548.85 L767.365 1548.85 L767.365 1544.91 Q770.027 1542.16 774.61 1537.53 Q779.217 1532.88 780.397 1531.53 Q782.643 1529.01 783.522 1527.27 Q784.425 1525.51 784.425 1523.82 Q784.425 1521.07 782.481 1519.33 Q780.559 1517.6 777.457 1517.6 Q775.258 1517.6 772.805 1518.36 Q770.374 1519.13 767.596 1520.68 L767.596 1515.95 Q770.42 1514.82 772.874 1514.24 Q775.328 1513.66 777.365 1513.66 Q782.735 1513.66 785.93 1516.35 Q789.124 1519.03 789.124 1523.52 Q789.124 1525.65 788.314 1527.57 Q787.527 1529.47 785.42 1532.07 Q784.842 1532.74 781.74 1535.95 Q778.638 1539.15 772.99 1544.91 Z" fill="#000000" fill-rule="evenodd" fill-opacity="1" /><path clip-path="url(#clip660)" d="M809.124 1517.37 Q805.513 1517.37 803.684 1520.93 Q801.879 1524.47 801.879 1531.6 Q801.879 1538.71 803.684 1542.27 Q805.513 1545.82 809.124 1545.82 Q812.758 1545.82 814.564 1542.27 Q816.392 1538.71 816.392 1531.6 Q816.392 1524.47 814.564 1520.93 Q812.758 1517.37 809.124 1517.37 M809.124 1513.66 Q814.934 1513.66 817.99 1518.27 Q821.068 1522.85 821.068 1531.6 Q821.068 1540.33 817.99 1544.94 Q814.934 1549.52 809.124 1549.52 Q803.314 1549.52 800.235 1544.94 Q797.18 1540.33 797.18 1531.6 Q797.18 1522.85 800.235 1518.27 Q803.314 1513.66 809.124 1513.66 Z" fill="#000000" fill-rule="evenodd" fill-opacity="1" /><path clip-path="url(#clip660)" d="M1300.2 1518.36 L1288.4 1536.81 L1300.2 1536.81 L1300.2 1518.36 M1298.98 1514.29 L1304.86 1514.29 L1304.86 1536.81 L1309.79 1536.81 L1309.79 1540.7 L1304.86 1540.7 L1304.86 1548.85 L1300.2 1548.85 L1300.2 1540.7 L1284.6 1540.7 L1284.6 1536.19 L1298.98 1514.29 Z" fill="#000000" fill-rule="evenodd" fill-opacity="1" /><path clip-path="url(#clip660)" d="M1327.52 1517.37 Q1323.91 1517.37 1322.08 1520.93 Q1320.27 1524.47 1320.27 1531.6 Q1320.27 1538.71 1322.08 1542.27 Q1323.91 1545.82 1327.52 1545.82 Q1331.15 1545.82 1332.96 1542.27 Q1334.79 1538.71 1334.79 1531.6 Q1334.79 1524.47 1332.96 1520.93 Q1331.15 1517.37 1327.52 1517.37 M1327.52 1513.66 Q1333.33 1513.66 1336.38 1518.27 Q1339.46 1522.85 1339.46 1531.6 Q1339.46 1540.33 1336.38 1544.94 Q1333.33 1549.52 1327.52 1549.52 Q1321.71 1549.52 1318.63 1544.94 Q1315.57 1540.33 1315.57 1531.6 Q1315.57 1522.85 1318.63 1518.27 Q1321.71 1513.66 1327.52 1513.66 Z" fill="#000000" fill-rule="evenodd" fill-opacity="1" /><path clip-path="url(#clip660)" d="M1815.25 1529.7 Q1812.1 1529.7 1810.25 1531.86 Q1808.42 1534.01 1808.42 1537.76 Q1808.42 1541.49 1810.25 1543.66 Q1812.1 1545.82 1815.25 1545.82 Q1818.4 1545.82 1820.23 1543.66 Q1822.08 1541.49 1822.08 1537.76 Q1822.08 1534.01 1820.23 1531.86 Q1818.4 1529.7 1815.25 1529.7 M1824.53 1515.05 L1824.53 1519.31 Q1822.77 1518.48 1820.97 1518.04 Q1819.19 1517.6 1817.43 1517.6 Q1812.8 1517.6 1810.34 1520.72 Q1807.91 1523.85 1807.57 1530.17 Q1808.93 1528.15 1810.99 1527.09 Q1813.05 1526 1815.53 1526 Q1820.74 1526 1823.75 1529.17 Q1826.78 1532.32 1826.78 1537.76 Q1826.78 1543.08 1823.63 1546.3 Q1820.48 1549.52 1815.25 1549.52 Q1809.26 1549.52 1806.08 1544.94 Q1802.91 1540.33 1802.91 1531.6 Q1802.91 1523.41 1806.8 1518.55 Q1810.69 1513.66 1817.24 1513.66 Q1819 1513.66 1820.78 1514.01 Q1822.59 1514.36 1824.53 1515.05 Z" fill="#000000" fill-rule="evenodd" fill-opacity="1" /><path clip-path="url(#clip660)" d="M1844.83 1517.37 Q1841.22 1517.37 1839.39 1520.93 Q1837.59 1524.47 1837.59 1531.6 Q1837.59 1538.71 1839.39 1542.27 Q1841.22 1545.82 1844.83 1545.82 Q1848.47 1545.82 1850.27 1542.27 Q1852.1 1538.71 1852.1 1531.6 Q1852.1 1524.47 1850.27 1520.93 Q1848.47 1517.37 1844.83 1517.37 M1844.83 1513.66 Q1850.64 1513.66 1853.7 1518.27 Q1856.78 1522.85 1856.78 1531.6 Q1856.78 1540.33 1853.7 1544.94 Q1850.64 1549.52 1844.83 1549.52 Q1839.02 1549.52 1835.95 1544.94 Q1832.89 1540.33 1832.89 1531.6 Q1832.89 1522.85 1835.95 1518.27 Q1839.02 1513.66 1844.83 1513.66 Z" fill="#000000" fill-rule="evenodd" fill-opacity="1" /><path clip-path="url(#clip660)" d="M2332.53 1532.44 Q2329.2 1532.44 2327.28 1534.22 Q2325.38 1536 2325.38 1539.13 Q2325.38 1542.25 2327.28 1544.03 Q2329.2 1545.82 2332.53 1545.82 Q2335.87 1545.82 2337.79 1544.03 Q2339.71 1542.23 2339.71 1539.13 Q2339.71 1536 2337.79 1534.22 Q2335.89 1532.44 2332.53 1532.44 M2327.86 1530.45 Q2324.85 1529.7 2323.16 1527.64 Q2321.49 1525.58 2321.49 1522.62 Q2321.49 1518.48 2324.43 1516.07 Q2327.39 1513.66 2332.53 1513.66 Q2337.7 1513.66 2340.64 1516.07 Q2343.57 1518.48 2343.57 1522.62 Q2343.57 1525.58 2341.89 1527.64 Q2340.22 1529.7 2337.23 1530.45 Q2340.61 1531.23 2342.49 1533.52 Q2344.39 1535.82 2344.39 1539.13 Q2344.39 1544.15 2341.31 1546.83 Q2338.25 1549.52 2332.53 1549.52 Q2326.82 1549.52 2323.74 1546.83 Q2320.68 1544.15 2320.68 1539.13 Q2320.68 1535.82 2322.58 1533.52 Q2324.48 1531.23 2327.86 1530.45 M2326.14 1523.06 Q2326.14 1525.75 2327.81 1527.25 Q2329.5 1528.76 2332.53 1528.76 Q2335.54 1528.76 2337.23 1527.25 Q2338.95 1525.75 2338.95 1523.06 Q2338.95 1520.38 2337.23 1518.87 Q2335.54 1517.37 2332.53 1517.37 Q2329.5 1517.37 2327.81 1518.87 Q2326.14 1520.38 2326.14 1523.06 Z" fill="#000000" fill-rule="evenodd" fill-opacity="1" /><path clip-path="url(#clip660)" d="M2362.7 1517.37 Q2359.08 1517.37 2357.26 1520.93 Q2355.45 1524.47 2355.45 1531.6 Q2355.45 1538.71 2357.26 1542.27 Q2359.08 1545.82 2362.7 1545.82 Q2366.33 1545.82 2368.14 1542.27 Q2369.96 1538.71 2369.96 1531.6 Q2369.96 1524.47 2368.14 1520.93 Q2366.33 1517.37 2362.7 1517.37 M2362.7 1513.66 Q2368.51 1513.66 2371.56 1518.27 Q2374.64 1522.85 2374.64 1531.6 Q2374.64 1540.33 2371.56 1544.94 Q2368.51 1549.52 2362.7 1549.52 Q2356.89 1549.52 2353.81 1544.94 Q2350.75 1540.33 2350.75 1531.6 Q2350.75 1522.85 2353.81 1518.27 Q2356.89 1513.66 2362.7 1513.66 Z" fill="#000000" fill-rule="evenodd" fill-opacity="1" /><polyline clip-path="url(#clip662)" style="stroke:#000000; stroke-linecap:butt; stroke-linejoin:round; stroke-width:2; stroke-opacity:0.1; fill:none" points="
  141.853,1447.87 2352.76,1447.87 
  "/>
<polyline clip-path="url(#clip662)" style="stroke:#000000; stroke-linecap:butt; stroke-linejoin:round; stroke-width:2; stroke-opacity:0.1; fill:none" points="
  141.853,1243.77 2352.76,1243.77 
  "/>
<polyline clip-path="url(#clip662)" style="stroke:#000000; stroke-linecap:butt; stroke-linejoin:round; stroke-width:2; stroke-opacity:0.1; fill:none" points="
  141.853,1039.67 2352.76,1039.67 
  "/>
<polyline clip-path="url(#clip662)" style="stroke:#000000; stroke-linecap:butt; stroke-linejoin:round; stroke-width:2; stroke-opacity:0.1; fill:none" points="
  141.853,835.575 2352.76,835.575 
  "/>
<polyline clip-path="url(#clip662)" style="stroke:#000000; stroke-linecap:butt; stroke-linejoin:round; stroke-width:2; stroke-opacity:0.1; fill:none" points="
  141.853,631.476 2352.76,631.476 
  "/>
<polyline clip-path="url(#clip662)" style="stroke:#000000; stroke-linecap:butt; stroke-linejoin:round; stroke-width:2; stroke-opacity:0.1; fill:none" points="
  141.853,427.376 2352.76,427.376 
  "/>
<polyline clip-path="url(#clip662)" style="stroke:#000000; stroke-linecap:butt; stroke-linejoin:round; stroke-width:2; stroke-opacity:0.1; fill:none" points="
  141.853,223.277 2352.76,223.277 
  "/>
<polyline clip-path="url(#clip660)" style="stroke:#000000; stroke-linecap:butt; stroke-linejoin:round; stroke-width:4; stroke-opacity:1; fill:none" points="
  141.853,1486.45 141.853,123.472 
  "/>
<polyline clip-path="url(#clip660)" style="stroke:#000000; stroke-linecap:butt; stroke-linejoin:round; stroke-width:4; stroke-opacity:1; fill:none" points="
  141.853,1447.87 160.751,1447.87 
  "/>
<polyline clip-path="url(#clip660)" style="stroke:#000000; stroke-linecap:butt; stroke-linejoin:round; stroke-width:4; stroke-opacity:1; fill:none" points="
  141.853,1243.77 160.751,1243.77 
  "/>
<polyline clip-path="url(#clip660)" style="stroke:#000000; stroke-linecap:butt; stroke-linejoin:round; stroke-width:4; stroke-opacity:1; fill:none" points="
  141.853,1039.67 160.751,1039.67 
  "/>
<polyline clip-path="url(#clip660)" style="stroke:#000000; stroke-linecap:butt; stroke-linejoin:round; stroke-width:4; stroke-opacity:1; fill:none" points="
  141.853,835.575 160.751,835.575 
  "/>
<polyline clip-path="url(#clip660)" style="stroke:#000000; stroke-linecap:butt; stroke-linejoin:round; stroke-width:4; stroke-opacity:1; fill:none" points="
  141.853,631.476 160.751,631.476 
  "/>
<polyline clip-path="url(#clip660)" style="stroke:#000000; stroke-linecap:butt; stroke-linejoin:round; stroke-width:4; stroke-opacity:1; fill:none" points="
  141.853,427.376 160.751,427.376 
  "/>
<polyline clip-path="url(#clip660)" style="stroke:#000000; stroke-linecap:butt; stroke-linejoin:round; stroke-width:4; stroke-opacity:1; fill:none" points="
  141.853,223.277 160.751,223.277 
  "/>
<path clip-path="url(#clip660)" d="M93.9086 1433.67 Q90.2975 1433.67 88.4688 1437.24 Q86.6632 1440.78 86.6632 1447.91 Q86.6632 1455.01 88.4688 1458.58 Q90.2975 1462.12 93.9086 1462.12 Q97.5428 1462.12 99.3483 1458.58 Q101.177 1455.01 101.177 1447.91 Q101.177 1440.78 99.3483 1437.24 Q97.5428 1433.67 93.9086 1433.67 M93.9086 1429.97 Q99.7187 1429.97 102.774 1434.57 Q105.853 1439.16 105.853 1447.91 Q105.853 1456.63 102.774 1461.24 Q99.7187 1465.82 93.9086 1465.82 Q88.0984 1465.82 85.0197 1461.24 Q81.9642 1456.63 81.9642 1447.91 Q81.9642 1439.16 85.0197 1434.57 Q88.0984 1429.97 93.9086 1429.97 Z" fill="#000000" fill-rule="evenodd" fill-opacity="1" /><path clip-path="url(#clip660)" d="M54.5569 1257.12 L62.1958 1257.12 L62.1958 1230.75 L53.8856 1232.42 L53.8856 1228.16 L62.1495 1226.49 L66.8254 1226.49 L66.8254 1257.12 L74.4642 1257.12 L74.4642 1261.05 L54.5569 1261.05 L54.5569 1257.12 Z" fill="#000000" fill-rule="evenodd" fill-opacity="1" /><path clip-path="url(#clip660)" d="M93.9086 1229.57 Q90.2975 1229.57 88.4688 1233.14 Q86.6632 1236.68 86.6632 1243.81 Q86.6632 1250.91 88.4688 1254.48 Q90.2975 1258.02 93.9086 1258.02 Q97.5428 1258.02 99.3483 1254.48 Q101.177 1250.91 101.177 1243.81 Q101.177 1236.68 99.3483 1233.14 Q97.5428 1229.57 93.9086 1229.57 M93.9086 1225.87 Q99.7187 1225.87 102.774 1230.48 Q105.853 1235.06 105.853 1243.81 Q105.853 1252.54 102.774 1257.14 Q99.7187 1261.72 93.9086 1261.72 Q88.0984 1261.72 85.0197 1257.14 Q81.9642 1252.54 81.9642 1243.81 Q81.9642 1235.06 85.0197 1230.48 Q88.0984 1225.87 93.9086 1225.87 Z" fill="#000000" fill-rule="evenodd" fill-opacity="1" /><path clip-path="url(#clip660)" d="M57.7745 1053.02 L74.0939 1053.02 L74.0939 1056.95 L52.1495 1056.95 L52.1495 1053.02 Q54.8115 1050.26 59.3949 1045.63 Q64.0013 1040.98 65.1819 1039.64 Q67.4272 1037.12 68.3068 1035.38 Q69.2096 1033.62 69.2096 1031.93 Q69.2096 1029.18 67.2652 1027.44 Q65.3439 1025.7 62.2421 1025.7 Q60.043 1025.7 57.5893 1026.47 Q55.1588 1027.23 52.381 1028.78 L52.381 1024.06 Q55.2051 1022.93 57.6588 1022.35 Q60.1124 1021.77 62.1495 1021.77 Q67.5198 1021.77 70.7142 1024.45 Q73.9087 1027.14 73.9087 1031.63 Q73.9087 1033.76 73.0985 1035.68 Q72.3115 1037.58 70.205 1040.17 Q69.6263 1040.84 66.5245 1044.06 Q63.4226 1047.26 57.7745 1053.02 Z" fill="#000000" fill-rule="evenodd" fill-opacity="1" /><path clip-path="url(#clip660)" d="M93.9086 1025.47 Q90.2975 1025.47 88.4688 1029.04 Q86.6632 1032.58 86.6632 1039.71 Q86.6632 1046.82 88.4688 1050.38 Q90.2975 1053.92 93.9086 1053.92 Q97.5428 1053.92 99.3483 1050.38 Q101.177 1046.82 101.177 1039.71 Q101.177 1032.58 99.3483 1029.04 Q97.5428 1025.47 93.9086 1025.47 M93.9086 1021.77 Q99.7187 1021.77 102.774 1026.38 Q105.853 1030.96 105.853 1039.71 Q105.853 1048.44 102.774 1053.04 Q99.7187 1057.63 93.9086 1057.63 Q88.0984 1057.63 85.0197 1053.04 Q81.9642 1048.44 81.9642 1039.71 Q81.9642 1030.96 85.0197 1026.38 Q88.0984 1021.77 93.9086 1021.77 Z" fill="#000000" fill-rule="evenodd" fill-opacity="1" /><path clip-path="url(#clip660)" d="M67.9133 834.221 Q71.2698 834.938 73.1448 837.207 Q75.0429 839.475 75.0429 842.809 Q75.0429 847.924 71.5244 850.725 Q68.0059 853.526 61.5245 853.526 Q59.3486 853.526 57.0338 853.086 Q54.7421 852.67 52.2884 851.813 L52.2884 847.299 Q54.2328 848.434 56.5477 849.012 Q58.8625 849.591 61.3856 849.591 Q65.7837 849.591 68.0754 847.855 Q70.3902 846.119 70.3902 842.809 Q70.3902 839.753 68.2374 838.04 Q66.1078 836.304 62.2884 836.304 L58.2606 836.304 L58.2606 832.461 L62.4735 832.461 Q65.9226 832.461 67.7513 831.096 Q69.58 829.707 69.58 827.114 Q69.58 824.452 67.6819 823.04 Q65.8069 821.605 62.2884 821.605 Q60.3671 821.605 58.168 822.022 Q55.969 822.438 53.3301 823.318 L53.3301 819.151 Q55.9921 818.411 58.3069 818.04 Q60.6449 817.67 62.705 817.67 Q68.0291 817.67 71.1309 820.1 Q74.2327 822.508 74.2327 826.628 Q74.2327 829.499 72.5892 831.489 Q70.9457 833.457 67.9133 834.221 Z" fill="#000000" fill-rule="evenodd" fill-opacity="1" /><path clip-path="url(#clip660)" d="M93.9086 821.374 Q90.2975 821.374 88.4688 824.938 Q86.6632 828.48 86.6632 835.61 Q86.6632 842.716 88.4688 846.281 Q90.2975 849.823 93.9086 849.823 Q97.5428 849.823 99.3483 846.281 Q101.177 842.716 101.177 835.61 Q101.177 828.48 99.3483 824.938 Q97.5428 821.374 93.9086 821.374 M93.9086 817.67 Q99.7187 817.67 102.774 822.276 Q105.853 826.86 105.853 835.61 Q105.853 844.336 102.774 848.943 Q99.7187 853.526 93.9086 853.526 Q88.0984 853.526 85.0197 848.943 Q81.9642 844.336 81.9642 835.61 Q81.9642 826.86 85.0197 822.276 Q88.0984 817.67 93.9086 817.67 Z" fill="#000000" fill-rule="evenodd" fill-opacity="1" /><path clip-path="url(#clip660)" d="M66.5939 618.27 L54.7884 636.719 L66.5939 636.719 L66.5939 618.27 M65.367 614.196 L71.2466 614.196 L71.2466 636.719 L76.1772 636.719 L76.1772 640.607 L71.2466 640.607 L71.2466 648.756 L66.5939 648.756 L66.5939 640.607 L50.9921 640.607 L50.9921 636.094 L65.367 614.196 Z" fill="#000000" fill-rule="evenodd" fill-opacity="1" /><path clip-path="url(#clip660)" d="M93.9086 617.274 Q90.2975 617.274 88.4688 620.839 Q86.6632 624.381 86.6632 631.51 Q86.6632 638.617 88.4688 642.181 Q90.2975 645.723 93.9086 645.723 Q97.5428 645.723 99.3483 642.181 Q101.177 638.617 101.177 631.51 Q101.177 624.381 99.3483 620.839 Q97.5428 617.274 93.9086 617.274 M93.9086 613.571 Q99.7187 613.571 102.774 618.177 Q105.853 622.76 105.853 631.51 Q105.853 640.237 102.774 644.843 Q99.7187 649.427 93.9086 649.427 Q88.0984 649.427 85.0197 644.843 Q81.9642 640.237 81.9642 631.51 Q81.9642 622.76 85.0197 618.177 Q88.0984 613.571 93.9086 613.571 Z" fill="#000000" fill-rule="evenodd" fill-opacity="1" /><path clip-path="url(#clip660)" d="M53.793 410.096 L72.1494 410.096 L72.1494 414.031 L58.0754 414.031 L58.0754 422.503 Q59.0939 422.156 60.1124 421.994 Q61.131 421.809 62.1495 421.809 Q67.9365 421.809 71.3161 424.98 Q74.6957 428.152 74.6957 433.568 Q74.6957 439.147 71.2235 442.249 Q67.7513 445.327 61.4319 445.327 Q59.256 445.327 56.9875 444.957 Q54.7421 444.587 52.3347 443.846 L52.3347 439.147 Q54.418 440.281 56.6402 440.837 Q58.8625 441.392 61.3393 441.392 Q65.3439 441.392 67.6819 439.286 Q70.0198 437.179 70.0198 433.568 Q70.0198 429.957 67.6819 427.851 Q65.3439 425.744 61.3393 425.744 Q59.4643 425.744 57.5893 426.161 Q55.7375 426.578 53.793 427.457 L53.793 410.096 Z" fill="#000000" fill-rule="evenodd" fill-opacity="1" /><path clip-path="url(#clip660)" d="M93.9086 413.175 Q90.2975 413.175 88.4688 416.74 Q86.6632 420.281 86.6632 427.411 Q86.6632 434.517 88.4688 438.082 Q90.2975 441.624 93.9086 441.624 Q97.5428 441.624 99.3483 438.082 Q101.177 434.517 101.177 427.411 Q101.177 420.281 99.3483 416.74 Q97.5428 413.175 93.9086 413.175 M93.9086 409.471 Q99.7187 409.471 102.774 414.078 Q105.853 418.661 105.853 427.411 Q105.853 436.138 102.774 440.744 Q99.7187 445.327 93.9086 445.327 Q88.0984 445.327 85.0197 440.744 Q81.9642 436.138 81.9642 427.411 Q81.9642 418.661 85.0197 414.078 Q88.0984 409.471 93.9086 409.471 Z" fill="#000000" fill-rule="evenodd" fill-opacity="1" /><path clip-path="url(#clip660)" d="M64.3254 221.413 Q61.1773 221.413 59.3254 223.566 Q57.4967 225.719 57.4967 229.469 Q57.4967 233.196 59.3254 235.372 Q61.1773 237.524 64.3254 237.524 Q67.4735 237.524 69.3022 235.372 Q71.1541 233.196 71.1541 229.469 Q71.1541 225.719 69.3022 223.566 Q67.4735 221.413 64.3254 221.413 M73.6077 206.761 L73.6077 211.02 Q71.8485 210.187 70.0429 209.747 Q68.2606 209.307 66.5013 209.307 Q61.8717 209.307 59.418 212.432 Q56.9875 215.557 56.6402 221.876 Q58.006 219.862 60.0662 218.798 Q62.1263 217.71 64.6032 217.71 Q69.8115 217.71 72.8207 220.881 Q75.8531 224.029 75.8531 229.469 Q75.8531 234.793 72.705 238.01 Q69.5568 241.228 64.3254 241.228 Q58.33 241.228 55.1588 236.645 Q51.9875 232.038 51.9875 223.311 Q51.9875 215.117 55.8764 210.256 Q59.7652 205.372 66.3161 205.372 Q68.0754 205.372 69.8578 205.719 Q71.6633 206.066 73.6077 206.761 Z" fill="#000000" fill-rule="evenodd" fill-opacity="1" /><path clip-path="url(#clip660)" d="M93.9086 209.075 Q90.2975 209.075 88.4688 212.64 Q86.6632 216.182 86.6632 223.311 Q86.6632 230.418 88.4688 233.983 Q90.2975 237.524 93.9086 237.524 Q97.5428 237.524 99.3483 233.983 Q101.177 230.418 101.177 223.311 Q101.177 216.182 99.3483 212.64 Q97.5428 209.075 93.9086 209.075 M93.9086 205.372 Q99.7187 205.372 102.774 209.978 Q105.853 214.561 105.853 223.311 Q105.853 232.038 102.774 236.645 Q99.7187 241.228 93.9086 241.228 Q88.0984 241.228 85.0197 236.645 Q81.9642 232.038 81.9642 223.311 Q81.9642 214.561 85.0197 209.978 Q88.0984 205.372 93.9086 205.372 Z" fill="#000000" fill-rule="evenodd" fill-opacity="1" /><path clip-path="url(#clip660)" d="M853.759 18.8205 L853.759 65.8515 L863.643 65.8515 Q876.161 65.8515 881.953 60.1802 Q887.787 54.509 887.787 42.2752 Q887.787 30.1225 881.953 24.4918 Q876.161 18.8205 863.643 18.8205 L853.759 18.8205 M845.576 12.096 L862.388 12.096 Q879.968 12.096 888.192 19.4281 Q896.415 26.7198 896.415 42.2752 Q896.415 57.9117 888.151 65.2439 Q879.887 72.576 862.388 72.576 L845.576 72.576 L845.576 12.096 Z" fill="#000000" fill-rule="evenodd" fill-opacity="1" /><path clip-path="url(#clip660)" d="M947.943 48.0275 L947.943 51.6733 L913.672 51.6733 Q914.158 59.3701 918.29 63.421 Q922.462 67.4314 929.876 67.4314 Q934.17 67.4314 938.18 66.3781 Q942.231 65.3249 946.201 63.2184 L946.201 70.267 Q942.19 71.9684 937.977 72.8596 Q933.764 73.7508 929.43 73.7508 Q918.574 73.7508 912.214 67.4314 Q905.894 61.1119 905.894 50.3365 Q905.894 39.1965 911.89 32.6746 Q917.925 26.1121 928.134 26.1121 Q937.289 26.1121 942.595 32.0264 Q947.943 37.9003 947.943 48.0275 M940.489 45.84 Q940.408 39.7232 937.046 36.0774 Q933.724 32.4315 928.215 32.4315 Q921.976 32.4315 918.209 35.9558 Q914.482 39.4801 913.915 45.8805 L940.489 45.84 Z" fill="#000000" fill-rule="evenodd" fill-opacity="1" /><path clip-path="url(#clip660)" d="M980.795 49.7694 Q971.762 49.7694 968.278 51.8354 Q964.794 53.9013 964.794 58.8839 Q964.794 62.8538 967.387 65.2034 Q970.02 67.5124 974.517 67.5124 Q980.714 67.5124 984.441 63.1374 Q988.209 58.7219 988.209 51.4303 L988.209 49.7694 L980.795 49.7694 M995.662 46.6907 L995.662 72.576 L988.209 72.576 L988.209 65.6895 Q985.657 69.8214 981.849 71.8063 Q978.041 73.7508 972.532 73.7508 Q965.564 73.7508 961.432 69.8619 Q957.341 65.9325 957.341 59.3701 Q957.341 51.7138 962.445 47.825 Q967.589 43.9361 977.757 43.9361 L988.209 43.9361 L988.209 43.2069 Q988.209 38.0623 984.806 35.2672 Q981.444 32.4315 975.327 32.4315 Q971.438 32.4315 967.752 33.3632 Q964.065 34.295 960.662 36.1584 L960.662 29.2718 Q964.754 27.692 968.602 26.9223 Q972.451 26.1121 976.096 26.1121 Q985.94 26.1121 990.801 31.2163 Q995.662 36.3204 995.662 46.6907 Z" fill="#000000" fill-rule="evenodd" fill-opacity="1" /><path clip-path="url(#clip660)" d="M1018.39 14.324 L1018.39 27.2059 L1033.74 27.2059 L1033.74 32.9987 L1018.39 32.9987 L1018.39 57.6282 Q1018.39 63.1779 1019.89 64.7578 Q1021.43 66.3376 1026.08 66.3376 L1033.74 66.3376 L1033.74 72.576 L1026.08 72.576 Q1017.46 72.576 1014.17 69.3758 Q1010.89 66.1351 1010.89 57.6282 L1010.89 32.9987 L1005.42 32.9987 L1005.42 27.2059 L1010.89 27.2059 L1010.89 14.324 L1018.39 14.324 Z" fill="#000000" fill-rule="evenodd" fill-opacity="1" /><path clip-path="url(#clip660)" d="M1081.26 45.1919 L1081.26 72.576 L1073.8 72.576 L1073.8 45.4349 Q1073.8 38.994 1071.29 35.7938 Q1068.78 32.5936 1063.76 32.5936 Q1057.72 32.5936 1054.24 36.4419 Q1050.75 40.2903 1050.75 46.9338 L1050.75 72.576 L1043.26 72.576 L1043.26 9.54393 L1050.75 9.54393 L1050.75 34.2544 Q1053.43 30.163 1057.03 28.1376 Q1060.68 26.1121 1065.42 26.1121 Q1073.24 26.1121 1077.25 30.9732 Q1081.26 35.7938 1081.26 45.1919 Z" fill="#000000" fill-rule="evenodd" fill-opacity="1" /><path clip-path="url(#clip660)" d="M1125.05 28.5427 L1125.05 35.5912 Q1121.89 33.9709 1118.49 33.1607 Q1115.08 32.3505 1111.44 32.3505 Q1105.89 32.3505 1103.09 34.0519 Q1100.34 35.7533 1100.34 39.156 Q1100.34 41.7486 1102.32 43.2475 Q1104.31 44.7058 1110.3 46.0426 L1112.85 46.6097 Q1120.79 48.3111 1124.12 51.4303 Q1127.48 54.509 1127.48 60.0587 Q1127.48 66.3781 1122.46 70.0644 Q1117.47 73.7508 1108.72 73.7508 Q1105.08 73.7508 1101.11 73.0216 Q1097.18 72.3329 1092.8 70.9151 L1092.8 63.2184 Q1096.93 65.3654 1100.95 66.4591 Q1104.96 67.5124 1108.89 67.5124 Q1114.15 67.5124 1116.99 65.73 Q1119.82 63.9071 1119.82 60.6258 Q1119.82 57.5877 1117.76 55.9673 Q1115.73 54.3469 1108.8 52.8481 L1106.21 52.2405 Q1099.28 50.7821 1096.21 47.7845 Q1093.13 44.7463 1093.13 39.4801 Q1093.13 33.0797 1097.66 29.5959 Q1102.2 26.1121 1110.55 26.1121 Q1114.68 26.1121 1118.32 26.7198 Q1121.97 27.3274 1125.05 28.5427 Z" fill="#000000" fill-rule="evenodd" fill-opacity="1" /><path clip-path="url(#clip660)" d="M1174.23 18.8205 L1174.23 41.5461 L1184.52 41.5461 Q1190.23 41.5461 1193.35 38.5889 Q1196.47 35.6318 1196.47 30.163 Q1196.47 24.7348 1193.35 21.7777 Q1190.23 18.8205 1184.52 18.8205 L1174.23 18.8205 M1166.04 12.096 L1184.52 12.096 Q1194.68 12.096 1199.87 16.714 Q1205.09 21.2916 1205.09 30.163 Q1205.09 39.1155 1199.87 43.6931 Q1194.68 48.2706 1184.52 48.2706 L1174.23 48.2706 L1174.23 72.576 L1166.04 72.576 L1166.04 12.096 Z" fill="#000000" fill-rule="evenodd" fill-opacity="1" /><path clip-path="url(#clip660)" d="M1251.6 48.0275 L1251.6 51.6733 L1217.33 51.6733 Q1217.81 59.3701 1221.95 63.421 Q1226.12 67.4314 1233.53 67.4314 Q1237.83 67.4314 1241.84 66.3781 Q1245.89 65.3249 1249.86 63.2184 L1249.86 70.267 Q1245.85 71.9684 1241.63 72.8596 Q1237.42 73.7508 1233.09 73.7508 Q1222.23 73.7508 1215.87 67.4314 Q1209.55 61.1119 1209.55 50.3365 Q1209.55 39.1965 1215.55 32.6746 Q1221.58 26.1121 1231.79 26.1121 Q1240.94 26.1121 1246.25 32.0264 Q1251.6 37.9003 1251.6 48.0275 M1244.14 45.84 Q1244.06 39.7232 1240.7 36.0774 Q1237.38 32.4315 1231.87 32.4315 Q1225.63 32.4315 1221.86 35.9558 Q1218.14 39.4801 1217.57 45.8805 L1244.14 45.84 Z" fill="#000000" fill-rule="evenodd" fill-opacity="1" /><path clip-path="url(#clip660)" d="M1290.12 34.1734 Q1288.87 33.4443 1287.37 33.1202 Q1285.91 32.7556 1284.13 32.7556 Q1277.81 32.7556 1274.4 36.8875 Q1271.04 40.9789 1271.04 48.6757 L1271.04 72.576 L1263.55 72.576 L1263.55 27.2059 L1271.04 27.2059 L1271.04 34.2544 Q1273.39 30.1225 1277.16 28.1376 Q1280.93 26.1121 1286.31 26.1121 Q1287.08 26.1121 1288.02 26.2337 Q1288.95 26.3147 1290.08 26.5172 L1290.12 34.1734 Z" fill="#000000" fill-rule="evenodd" fill-opacity="1" /><path clip-path="url(#clip660)" d="M1324.64 12.096 L1332.82 12.096 L1332.82 72.576 L1324.64 72.576 L1324.64 12.096 Z" fill="#000000" fill-rule="evenodd" fill-opacity="1" /><path clip-path="url(#clip660)" d="M1386.49 45.1919 L1386.49 72.576 L1379.04 72.576 L1379.04 45.4349 Q1379.04 38.994 1376.53 35.7938 Q1374.02 32.5936 1368.99 32.5936 Q1362.96 32.5936 1359.47 36.4419 Q1355.99 40.2903 1355.99 46.9338 L1355.99 72.576 L1348.5 72.576 L1348.5 27.2059 L1355.99 27.2059 L1355.99 34.2544 Q1358.66 30.163 1362.27 28.1376 Q1365.91 26.1121 1370.65 26.1121 Q1378.47 26.1121 1382.48 30.9732 Q1386.49 35.7938 1386.49 45.1919 Z" fill="#000000" fill-rule="evenodd" fill-opacity="1" /><path clip-path="url(#clip660)" d="M1434.01 28.9478 L1434.01 35.9153 Q1430.85 34.1734 1427.65 33.3227 Q1424.49 32.4315 1421.25 32.4315 Q1414 32.4315 1409.99 37.0496 Q1405.98 41.6271 1405.98 49.9314 Q1405.98 58.2358 1409.99 62.8538 Q1414 67.4314 1421.25 67.4314 Q1424.49 67.4314 1427.65 66.5807 Q1430.85 65.6895 1434.01 63.9476 L1434.01 70.8341 Q1430.89 72.2924 1427.53 73.0216 Q1424.21 73.7508 1420.44 73.7508 Q1410.19 73.7508 1404.16 67.3098 Q1398.12 60.8689 1398.12 49.9314 Q1398.12 38.832 1404.2 32.472 Q1410.31 26.1121 1420.93 26.1121 Q1424.37 26.1121 1427.65 26.8413 Q1430.93 27.5299 1434.01 28.9478 Z" fill="#000000" fill-rule="evenodd" fill-opacity="1" /><path clip-path="url(#clip660)" d="M1446.97 27.2059 L1454.43 27.2059 L1454.43 72.576 L1446.97 72.576 L1446.97 27.2059 M1446.97 9.54393 L1454.43 9.54393 L1454.43 18.9825 L1446.97 18.9825 L1446.97 9.54393 Z" fill="#000000" fill-rule="evenodd" fill-opacity="1" /><path clip-path="url(#clip660)" d="M1499.88 34.0924 L1499.88 9.54393 L1507.33 9.54393 L1507.33 72.576 L1499.88 72.576 L1499.88 65.7705 Q1497.53 69.8214 1493.92 71.8063 Q1490.36 73.7508 1485.34 73.7508 Q1477.11 73.7508 1471.93 67.1883 Q1466.78 60.6258 1466.78 49.9314 Q1466.78 39.2371 1471.93 32.6746 Q1477.11 26.1121 1485.34 26.1121 Q1490.36 26.1121 1493.92 28.0971 Q1497.53 30.0415 1499.88 34.0924 M1474.48 49.9314 Q1474.48 58.1548 1477.84 62.8538 Q1481.24 67.5124 1487.16 67.5124 Q1493.07 67.5124 1496.48 62.8538 Q1499.88 58.1548 1499.88 49.9314 Q1499.88 41.7081 1496.48 37.0496 Q1493.07 32.3505 1487.16 32.3505 Q1481.24 32.3505 1477.84 37.0496 Q1474.48 41.7081 1474.48 49.9314 Z" fill="#000000" fill-rule="evenodd" fill-opacity="1" /><path clip-path="url(#clip660)" d="M1561.49 48.0275 L1561.49 51.6733 L1527.22 51.6733 Q1527.71 59.3701 1531.84 63.421 Q1536.01 67.4314 1543.43 67.4314 Q1547.72 67.4314 1551.73 66.3781 Q1555.78 65.3249 1559.75 63.2184 L1559.75 70.267 Q1555.74 71.9684 1551.53 72.8596 Q1547.31 73.7508 1542.98 73.7508 Q1532.12 73.7508 1525.76 67.4314 Q1519.44 61.1119 1519.44 50.3365 Q1519.44 39.1965 1525.44 32.6746 Q1531.48 26.1121 1541.68 26.1121 Q1550.84 26.1121 1556.15 32.0264 Q1561.49 37.9003 1561.49 48.0275 M1554.04 45.84 Q1553.96 39.7232 1550.6 36.0774 Q1547.27 32.4315 1541.76 32.4315 Q1535.53 32.4315 1531.76 35.9558 Q1528.03 39.4801 1527.46 45.8805 L1554.04 45.84 Z" fill="#000000" fill-rule="evenodd" fill-opacity="1" /><path clip-path="url(#clip660)" d="M1611.44 45.1919 L1611.44 72.576 L1603.99 72.576 L1603.99 45.4349 Q1603.99 38.994 1601.47 35.7938 Q1598.96 32.5936 1593.94 32.5936 Q1587.9 32.5936 1584.42 36.4419 Q1580.94 40.2903 1580.94 46.9338 L1580.94 72.576 L1573.44 72.576 L1573.44 27.2059 L1580.94 27.2059 L1580.94 34.2544 Q1583.61 30.163 1587.22 28.1376 Q1590.86 26.1121 1595.6 26.1121 Q1603.42 26.1121 1607.43 30.9732 Q1611.44 35.7938 1611.44 45.1919 Z" fill="#000000" fill-rule="evenodd" fill-opacity="1" /><path clip-path="url(#clip660)" d="M1633.68 14.324 L1633.68 27.2059 L1649.03 27.2059 L1649.03 32.9987 L1633.68 32.9987 L1633.68 57.6282 Q1633.68 63.1779 1635.18 64.7578 Q1636.72 66.3376 1641.38 66.3376 L1649.03 66.3376 L1649.03 72.576 L1641.38 72.576 Q1632.75 72.576 1629.47 69.3758 Q1626.19 66.1351 1626.19 57.6282 L1626.19 32.9987 L1620.72 32.9987 L1620.72 27.2059 L1626.19 27.2059 L1626.19 14.324 L1633.68 14.324 Z" fill="#000000" fill-rule="evenodd" fill-opacity="1" /><path clip-path="url(#clip662)" d="
M263.457 162.047 L263.457 1447.87 L289.347 1447.87 L289.347 162.047 L263.457 162.047 L263.457 162.047  Z
  " fill="#009af9" fill-rule="evenodd" fill-opacity="1"/>
<polyline clip-path="url(#clip662)" style="stroke:#000000; stroke-linecap:butt; stroke-linejoin:round; stroke-width:4; stroke-opacity:1; fill:none" points="
  263.457,162.047 263.457,1447.87 289.347,1447.87 289.347,162.047 263.457,162.047 
  "/>
<path clip-path="url(#clip662)" d="
M289.347 243.687 L289.347 1447.87 L315.238 1447.87 L315.238 243.687 L289.347 243.687 L289.347 243.687  Z
  " fill="#009af9" fill-rule="evenodd" fill-opacity="1"/>
<polyline clip-path="url(#clip662)" style="stroke:#000000; stroke-linecap:butt; stroke-linejoin:round; stroke-width:4; stroke-opacity:1; fill:none" points="
  289.347,243.687 289.347,1447.87 315.238,1447.87 315.238,243.687 289.347,243.687 
  "/>
<path clip-path="url(#clip662)" d="
M315.238 570.246 L315.238 1447.87 L341.129 1447.87 L341.129 570.246 L315.238 570.246 L315.238 570.246  Z
  " fill="#009af9" fill-rule="evenodd" fill-opacity="1"/>
<polyline clip-path="url(#clip662)" style="stroke:#000000; stroke-linecap:butt; stroke-linejoin:round; stroke-width:4; stroke-opacity:1; fill:none" points="
  315.238,570.246 315.238,1447.87 341.129,1447.87 341.129,570.246 315.238,570.246 
  "/>
<path clip-path="url(#clip662)" d="
M341.129 631.476 L341.129 1447.87 L367.019 1447.87 L367.019 631.476 L341.129 631.476 L341.129 631.476  Z
  " fill="#009af9" fill-rule="evenodd" fill-opacity="1"/>
<polyline clip-path="url(#clip662)" style="stroke:#000000; stroke-linecap:butt; stroke-linejoin:round; stroke-width:4; stroke-opacity:1; fill:none" points="
  341.129,631.476 341.129,1447.87 367.019,1447.87 367.019,631.476 341.129,631.476 
  "/>
<path clip-path="url(#clip662)" d="
M367.019 1162.13 L367.019 1447.87 L392.91 1447.87 L392.91 1162.13 L367.019 1162.13 L367.019 1162.13  Z
  " fill="#009af9" fill-rule="evenodd" fill-opacity="1"/>
<polyline clip-path="url(#clip662)" style="stroke:#000000; stroke-linecap:butt; stroke-linejoin:round; stroke-width:4; stroke-opacity:1; fill:none" points="
  367.019,1162.13 367.019,1447.87 392.91,1447.87 392.91,1162.13 367.019,1162.13 
  "/>
<path clip-path="url(#clip662)" d="
M392.91 1162.13 L392.91 1447.87 L418.801 1447.87 L418.801 1162.13 L392.91 1162.13 L392.91 1162.13  Z
  " fill="#009af9" fill-rule="evenodd" fill-opacity="1"/>
<polyline clip-path="url(#clip662)" style="stroke:#000000; stroke-linecap:butt; stroke-linejoin:round; stroke-width:4; stroke-opacity:1; fill:none" points="
  392.91,1162.13 392.91,1447.87 418.801,1447.87 418.801,1162.13 392.91,1162.13 
  "/>
<path clip-path="url(#clip662)" d="
M418.801 1141.72 L418.801 1447.87 L444.692 1447.87 L444.692 1141.72 L418.801 1141.72 L418.801 1141.72  Z
  " fill="#009af9" fill-rule="evenodd" fill-opacity="1"/>
<polyline clip-path="url(#clip662)" style="stroke:#000000; stroke-linecap:butt; stroke-linejoin:round; stroke-width:4; stroke-opacity:1; fill:none" points="
  418.801,1141.72 418.801,1447.87 444.692,1447.87 444.692,1141.72 418.801,1141.72 
  "/>
<path clip-path="url(#clip662)" d="
M444.692 1345.82 L444.692 1447.87 L470.582 1447.87 L470.582 1345.82 L444.692 1345.82 L444.692 1345.82  Z
  " fill="#009af9" fill-rule="evenodd" fill-opacity="1"/>
<polyline clip-path="url(#clip662)" style="stroke:#000000; stroke-linecap:butt; stroke-linejoin:round; stroke-width:4; stroke-opacity:1; fill:none" points="
  444.692,1345.82 444.692,1447.87 470.582,1447.87 470.582,1345.82 444.692,1345.82 
  "/>
<path clip-path="url(#clip662)" d="
M470.582 1386.64 L470.582 1447.87 L496.473 1447.87 L496.473 1386.64 L470.582 1386.64 L470.582 1386.64  Z
  " fill="#009af9" fill-rule="evenodd" fill-opacity="1"/>
<polyline clip-path="url(#clip662)" style="stroke:#000000; stroke-linecap:butt; stroke-linejoin:round; stroke-width:4; stroke-opacity:1; fill:none" points="
  470.582,1386.64 470.582,1447.87 496.473,1447.87 496.473,1386.64 470.582,1386.64 
  "/>
<path clip-path="url(#clip662)" d="
M496.473 1386.64 L496.473 1447.87 L522.364 1447.87 L522.364 1386.64 L496.473 1386.64 L496.473 1386.64  Z
  " fill="#009af9" fill-rule="evenodd" fill-opacity="1"/>
<polyline clip-path="url(#clip662)" style="stroke:#000000; stroke-linecap:butt; stroke-linejoin:round; stroke-width:4; stroke-opacity:1; fill:none" points="
  496.473,1386.64 496.473,1447.87 522.364,1447.87 522.364,1386.64 496.473,1386.64 
  "/>
<path clip-path="url(#clip662)" d="
M522.364 1407.05 L522.364 1447.87 L548.255 1447.87 L548.255 1407.05 L522.364 1407.05 L522.364 1407.05  Z
  " fill="#009af9" fill-rule="evenodd" fill-opacity="1"/>
<polyline clip-path="url(#clip662)" style="stroke:#000000; stroke-linecap:butt; stroke-linejoin:round; stroke-width:4; stroke-opacity:1; fill:none" points="
  522.364,1407.05 522.364,1447.87 548.255,1447.87 548.255,1407.05 522.364,1407.05 
  "/>
<path clip-path="url(#clip662)" d="
M548.255 1427.46 L548.255 1447.87 L574.145 1447.87 L574.145 1427.46 L548.255 1427.46 L548.255 1427.46  Z
  " fill="#009af9" fill-rule="evenodd" fill-opacity="1"/>
<polyline clip-path="url(#clip662)" style="stroke:#000000; stroke-linecap:butt; stroke-linejoin:round; stroke-width:4; stroke-opacity:1; fill:none" points="
  548.255,1427.46 548.255,1447.87 574.145,1447.87 574.145,1427.46 548.255,1427.46 
  "/>
<path clip-path="url(#clip662)" d="
M574.145 1386.64 L574.145 1447.87 L600.036 1447.87 L600.036 1386.64 L574.145 1386.64 L574.145 1386.64  Z
  " fill="#009af9" fill-rule="evenodd" fill-opacity="1"/>
<polyline clip-path="url(#clip662)" style="stroke:#000000; stroke-linecap:butt; stroke-linejoin:round; stroke-width:4; stroke-opacity:1; fill:none" points="
  574.145,1386.64 574.145,1447.87 600.036,1447.87 600.036,1386.64 574.145,1386.64 
  "/>
<path clip-path="url(#clip662)" d="
M600.036 1407.05 L600.036 1447.87 L625.927 1447.87 L625.927 1407.05 L600.036 1407.05 L600.036 1407.05  Z
  " fill="#009af9" fill-rule="evenodd" fill-opacity="1"/>
<polyline clip-path="url(#clip662)" style="stroke:#000000; stroke-linecap:butt; stroke-linejoin:round; stroke-width:4; stroke-opacity:1; fill:none" points="
  600.036,1407.05 600.036,1447.87 625.927,1447.87 625.927,1407.05 600.036,1407.05 
  "/>
<path clip-path="url(#clip662)" d="
M625.927 1427.46 L625.927 1447.87 L651.818 1447.87 L651.818 1427.46 L625.927 1427.46 L625.927 1427.46  Z
  " fill="#009af9" fill-rule="evenodd" fill-opacity="1"/>
<polyline clip-path="url(#clip662)" style="stroke:#000000; stroke-linecap:butt; stroke-linejoin:round; stroke-width:4; stroke-opacity:1; fill:none" points="
  625.927,1427.46 625.927,1447.87 651.818,1447.87 651.818,1427.46 625.927,1427.46 
  "/>
<path clip-path="url(#clip662)" d="
M651.818 1447.87 L651.818 1447.87 L677.708 1447.87 L677.708 1447.87 L651.818 1447.87 L651.818 1447.87  Z
  " fill="#009af9" fill-rule="evenodd" fill-opacity="1"/>
<polyline clip-path="url(#clip662)" style="stroke:#000000; stroke-linecap:butt; stroke-linejoin:round; stroke-width:4; stroke-opacity:1; fill:none" points="
  651.818,1447.87 651.818,1447.87 677.708,1447.87 651.818,1447.87 
  "/>
<path clip-path="url(#clip662)" d="
M677.708 1447.87 L677.708 1447.87 L703.599 1447.87 L703.599 1447.87 L677.708 1447.87 L677.708 1447.87  Z
  " fill="#009af9" fill-rule="evenodd" fill-opacity="1"/>
<polyline clip-path="url(#clip662)" style="stroke:#000000; stroke-linecap:butt; stroke-linejoin:round; stroke-width:4; stroke-opacity:1; fill:none" points="
  677.708,1447.87 677.708,1447.87 703.599,1447.87 677.708,1447.87 
  "/>
<path clip-path="url(#clip662)" d="
M703.599 1427.46 L703.599 1447.87 L729.49 1447.87 L729.49 1427.46 L703.599 1427.46 L703.599 1427.46  Z
  " fill="#009af9" fill-rule="evenodd" fill-opacity="1"/>
<polyline clip-path="url(#clip662)" style="stroke:#000000; stroke-linecap:butt; stroke-linejoin:round; stroke-width:4; stroke-opacity:1; fill:none" points="
  703.599,1427.46 703.599,1447.87 729.49,1447.87 729.49,1427.46 703.599,1427.46 
  "/>
<path clip-path="url(#clip662)" d="
M729.49 1447.87 L729.49 1447.87 L755.38 1447.87 L755.38 1447.87 L729.49 1447.87 L729.49 1447.87  Z
  " fill="#009af9" fill-rule="evenodd" fill-opacity="1"/>
<polyline clip-path="url(#clip662)" style="stroke:#000000; stroke-linecap:butt; stroke-linejoin:round; stroke-width:4; stroke-opacity:1; fill:none" points="
  729.49,1447.87 729.49,1447.87 755.38,1447.87 729.49,1447.87 
  "/>
<path clip-path="url(#clip662)" d="
M755.38 1447.87 L755.38 1447.87 L781.271 1447.87 L781.271 1447.87 L755.38 1447.87 L755.38 1447.87  Z
  " fill="#009af9" fill-rule="evenodd" fill-opacity="1"/>
<polyline clip-path="url(#clip662)" style="stroke:#000000; stroke-linecap:butt; stroke-linejoin:round; stroke-width:4; stroke-opacity:1; fill:none" points="
  755.38,1447.87 755.38,1447.87 781.271,1447.87 755.38,1447.87 
  "/>
<path clip-path="url(#clip662)" d="
M781.271 1447.87 L781.271 1447.87 L807.162 1447.87 L807.162 1447.87 L781.271 1447.87 L781.271 1447.87  Z
  " fill="#009af9" fill-rule="evenodd" fill-opacity="1"/>
<polyline clip-path="url(#clip662)" style="stroke:#000000; stroke-linecap:butt; stroke-linejoin:round; stroke-width:4; stroke-opacity:1; fill:none" points="
  781.271,1447.87 781.271,1447.87 807.162,1447.87 781.271,1447.87 
  "/>
<path clip-path="url(#clip662)" d="
M807.162 1447.87 L807.162 1447.87 L833.053 1447.87 L833.053 1447.87 L807.162 1447.87 L807.162 1447.87  Z
  " fill="#009af9" fill-rule="evenodd" fill-opacity="1"/>
<polyline clip-path="url(#clip662)" style="stroke:#000000; stroke-linecap:butt; stroke-linejoin:round; stroke-width:4; stroke-opacity:1; fill:none" points="
  807.162,1447.87 807.162,1447.87 833.053,1447.87 807.162,1447.87 
  "/>
<path clip-path="url(#clip662)" d="
M833.053 1447.87 L833.053 1447.87 L858.943 1447.87 L858.943 1447.87 L833.053 1447.87 L833.053 1447.87  Z
  " fill="#009af9" fill-rule="evenodd" fill-opacity="1"/>
<polyline clip-path="url(#clip662)" style="stroke:#000000; stroke-linecap:butt; stroke-linejoin:round; stroke-width:4; stroke-opacity:1; fill:none" points="
  833.053,1447.87 833.053,1447.87 858.943,1447.87 833.053,1447.87 
  "/>
<path clip-path="url(#clip662)" d="
M858.943 1447.87 L858.943 1447.87 L884.834 1447.87 L884.834 1447.87 L858.943 1447.87 L858.943 1447.87  Z
  " fill="#009af9" fill-rule="evenodd" fill-opacity="1"/>
<polyline clip-path="url(#clip662)" style="stroke:#000000; stroke-linecap:butt; stroke-linejoin:round; stroke-width:4; stroke-opacity:1; fill:none" points="
  858.943,1447.87 858.943,1447.87 884.834,1447.87 858.943,1447.87 
  "/>
<path clip-path="url(#clip662)" d="
M884.834 1447.87 L884.834 1447.87 L910.725 1447.87 L910.725 1447.87 L884.834 1447.87 L884.834 1447.87  Z
  " fill="#009af9" fill-rule="evenodd" fill-opacity="1"/>
<polyline clip-path="url(#clip662)" style="stroke:#000000; stroke-linecap:butt; stroke-linejoin:round; stroke-width:4; stroke-opacity:1; fill:none" points="
  884.834,1447.87 884.834,1447.87 910.725,1447.87 884.834,1447.87 
  "/>
<path clip-path="url(#clip662)" d="
M910.725 1447.87 L910.725 1447.87 L936.616 1447.87 L936.616 1447.87 L910.725 1447.87 L910.725 1447.87  Z
  " fill="#009af9" fill-rule="evenodd" fill-opacity="1"/>
<polyline clip-path="url(#clip662)" style="stroke:#000000; stroke-linecap:butt; stroke-linejoin:round; stroke-width:4; stroke-opacity:1; fill:none" points="
  910.725,1447.87 910.725,1447.87 936.616,1447.87 910.725,1447.87 
  "/>
<path clip-path="url(#clip662)" d="
M936.616 1427.46 L936.616 1447.87 L962.506 1447.87 L962.506 1427.46 L936.616 1427.46 L936.616 1427.46  Z
  " fill="#009af9" fill-rule="evenodd" fill-opacity="1"/>
<polyline clip-path="url(#clip662)" style="stroke:#000000; stroke-linecap:butt; stroke-linejoin:round; stroke-width:4; stroke-opacity:1; fill:none" points="
  936.616,1427.46 936.616,1447.87 962.506,1447.87 962.506,1427.46 936.616,1427.46 
  "/>
<path clip-path="url(#clip662)" d="
M962.506 1427.46 L962.506 1447.87 L988.397 1447.87 L988.397 1427.46 L962.506 1427.46 L962.506 1427.46  Z
  " fill="#009af9" fill-rule="evenodd" fill-opacity="1"/>
<polyline clip-path="url(#clip662)" style="stroke:#000000; stroke-linecap:butt; stroke-linejoin:round; stroke-width:4; stroke-opacity:1; fill:none" points="
  962.506,1427.46 962.506,1447.87 988.397,1447.87 988.397,1427.46 962.506,1427.46 
  "/>
<path clip-path="url(#clip662)" d="
M988.397 1447.87 L988.397 1447.87 L1014.29 1447.87 L1014.29 1447.87 L988.397 1447.87 L988.397 1447.87  Z
  " fill="#009af9" fill-rule="evenodd" fill-opacity="1"/>
<polyline clip-path="url(#clip662)" style="stroke:#000000; stroke-linecap:butt; stroke-linejoin:round; stroke-width:4; stroke-opacity:1; fill:none" points="
  988.397,1447.87 988.397,1447.87 1014.29,1447.87 988.397,1447.87 
  "/>
<path clip-path="url(#clip662)" d="
M1014.29 1447.87 L1014.29 1447.87 L1040.18 1447.87 L1040.18 1447.87 L1014.29 1447.87 L1014.29 1447.87  Z
  " fill="#009af9" fill-rule="evenodd" fill-opacity="1"/>
<polyline clip-path="url(#clip662)" style="stroke:#000000; stroke-linecap:butt; stroke-linejoin:round; stroke-width:4; stroke-opacity:1; fill:none" points="
  1014.29,1447.87 1014.29,1447.87 1040.18,1447.87 1014.29,1447.87 
  "/>
<path clip-path="url(#clip662)" d="
M1040.18 1447.87 L1040.18 1447.87 L1066.07 1447.87 L1066.07 1447.87 L1040.18 1447.87 L1040.18 1447.87  Z
  " fill="#009af9" fill-rule="evenodd" fill-opacity="1"/>
<polyline clip-path="url(#clip662)" style="stroke:#000000; stroke-linecap:butt; stroke-linejoin:round; stroke-width:4; stroke-opacity:1; fill:none" points="
  1040.18,1447.87 1040.18,1447.87 1066.07,1447.87 1040.18,1447.87 
  "/>
<path clip-path="url(#clip662)" d="
M1066.07 1447.87 L1066.07 1447.87 L1091.96 1447.87 L1091.96 1447.87 L1066.07 1447.87 L1066.07 1447.87  Z
  " fill="#009af9" fill-rule="evenodd" fill-opacity="1"/>
<polyline clip-path="url(#clip662)" style="stroke:#000000; stroke-linecap:butt; stroke-linejoin:round; stroke-width:4; stroke-opacity:1; fill:none" points="
  1066.07,1447.87 1066.07,1447.87 1091.96,1447.87 1066.07,1447.87 
  "/>
<path clip-path="url(#clip662)" d="
M1091.96 1427.46 L1091.96 1447.87 L1117.85 1447.87 L1117.85 1427.46 L1091.96 1427.46 L1091.96 1427.46  Z
  " fill="#009af9" fill-rule="evenodd" fill-opacity="1"/>
<polyline clip-path="url(#clip662)" style="stroke:#000000; stroke-linecap:butt; stroke-linejoin:round; stroke-width:4; stroke-opacity:1; fill:none" points="
  1091.96,1427.46 1091.96,1447.87 1117.85,1447.87 1117.85,1427.46 1091.96,1427.46 
  "/>
<path clip-path="url(#clip662)" d="
M1117.85 1447.87 L1117.85 1447.87 L1143.74 1447.87 L1143.74 1447.87 L1117.85 1447.87 L1117.85 1447.87  Z
  " fill="#009af9" fill-rule="evenodd" fill-opacity="1"/>
<polyline clip-path="url(#clip662)" style="stroke:#000000; stroke-linecap:butt; stroke-linejoin:round; stroke-width:4; stroke-opacity:1; fill:none" points="
  1117.85,1447.87 1117.85,1447.87 1143.74,1447.87 1117.85,1447.87 
  "/>
<path clip-path="url(#clip662)" d="
M1143.74 1447.87 L1143.74 1447.87 L1169.63 1447.87 L1169.63 1447.87 L1143.74 1447.87 L1143.74 1447.87  Z
  " fill="#009af9" fill-rule="evenodd" fill-opacity="1"/>
<polyline clip-path="url(#clip662)" style="stroke:#000000; stroke-linecap:butt; stroke-linejoin:round; stroke-width:4; stroke-opacity:1; fill:none" points="
  1143.74,1447.87 1143.74,1447.87 1169.63,1447.87 1143.74,1447.87 
  "/>
<path clip-path="url(#clip662)" d="
M1169.63 1447.87 L1169.63 1447.87 L1195.52 1447.87 L1195.52 1447.87 L1169.63 1447.87 L1169.63 1447.87  Z
  " fill="#009af9" fill-rule="evenodd" fill-opacity="1"/>
<polyline clip-path="url(#clip662)" style="stroke:#000000; stroke-linecap:butt; stroke-linejoin:round; stroke-width:4; stroke-opacity:1; fill:none" points="
  1169.63,1447.87 1169.63,1447.87 1195.52,1447.87 1169.63,1447.87 
  "/>
<path clip-path="url(#clip662)" d="
M1195.52 1447.87 L1195.52 1447.87 L1221.41 1447.87 L1221.41 1447.87 L1195.52 1447.87 L1195.52 1447.87  Z
  " fill="#009af9" fill-rule="evenodd" fill-opacity="1"/>
<polyline clip-path="url(#clip662)" style="stroke:#000000; stroke-linecap:butt; stroke-linejoin:round; stroke-width:4; stroke-opacity:1; fill:none" points="
  1195.52,1447.87 1195.52,1447.87 1221.41,1447.87 1195.52,1447.87 
  "/>
<path clip-path="url(#clip662)" d="
M1221.41 1447.87 L1221.41 1447.87 L1247.3 1447.87 L1247.3 1447.87 L1221.41 1447.87 L1221.41 1447.87  Z
  " fill="#009af9" fill-rule="evenodd" fill-opacity="1"/>
<polyline clip-path="url(#clip662)" style="stroke:#000000; stroke-linecap:butt; stroke-linejoin:round; stroke-width:4; stroke-opacity:1; fill:none" points="
  1221.41,1447.87 1221.41,1447.87 1247.3,1447.87 1221.41,1447.87 
  "/>
<path clip-path="url(#clip662)" d="
M1247.3 1447.87 L1247.3 1447.87 L1273.2 1447.87 L1273.2 1447.87 L1247.3 1447.87 L1247.3 1447.87  Z
  " fill="#009af9" fill-rule="evenodd" fill-opacity="1"/>
<polyline clip-path="url(#clip662)" style="stroke:#000000; stroke-linecap:butt; stroke-linejoin:round; stroke-width:4; stroke-opacity:1; fill:none" points="
  1247.3,1447.87 1247.3,1447.87 1273.2,1447.87 1247.3,1447.87 
  "/>
<path clip-path="url(#clip662)" d="
M1273.2 1447.87 L1273.2 1447.87 L1299.09 1447.87 L1299.09 1447.87 L1273.2 1447.87 L1273.2 1447.87  Z
  " fill="#009af9" fill-rule="evenodd" fill-opacity="1"/>
<polyline clip-path="url(#clip662)" style="stroke:#000000; stroke-linecap:butt; stroke-linejoin:round; stroke-width:4; stroke-opacity:1; fill:none" points="
  1273.2,1447.87 1273.2,1447.87 1299.09,1447.87 1273.2,1447.87 
  "/>
<path clip-path="url(#clip662)" d="
M1299.09 1447.87 L1299.09 1447.87 L1324.98 1447.87 L1324.98 1447.87 L1299.09 1447.87 L1299.09 1447.87  Z
  " fill="#009af9" fill-rule="evenodd" fill-opacity="1"/>
<polyline clip-path="url(#clip662)" style="stroke:#000000; stroke-linecap:butt; stroke-linejoin:round; stroke-width:4; stroke-opacity:1; fill:none" points="
  1299.09,1447.87 1299.09,1447.87 1324.98,1447.87 1299.09,1447.87 
  "/>
<path clip-path="url(#clip662)" d="
M1324.98 1447.87 L1324.98 1447.87 L1350.87 1447.87 L1350.87 1447.87 L1324.98 1447.87 L1324.98 1447.87  Z
  " fill="#009af9" fill-rule="evenodd" fill-opacity="1"/>
<polyline clip-path="url(#clip662)" style="stroke:#000000; stroke-linecap:butt; stroke-linejoin:round; stroke-width:4; stroke-opacity:1; fill:none" points="
  1324.98,1447.87 1324.98,1447.87 1350.87,1447.87 1324.98,1447.87 
  "/>
<path clip-path="url(#clip662)" d="
M1350.87 1447.87 L1350.87 1447.87 L1376.76 1447.87 L1376.76 1447.87 L1350.87 1447.87 L1350.87 1447.87  Z
  " fill="#009af9" fill-rule="evenodd" fill-opacity="1"/>
<polyline clip-path="url(#clip662)" style="stroke:#000000; stroke-linecap:butt; stroke-linejoin:round; stroke-width:4; stroke-opacity:1; fill:none" points="
  1350.87,1447.87 1350.87,1447.87 1376.76,1447.87 1350.87,1447.87 
  "/>
<path clip-path="url(#clip662)" d="
M1376.76 1447.87 L1376.76 1447.87 L1402.65 1447.87 L1402.65 1447.87 L1376.76 1447.87 L1376.76 1447.87  Z
  " fill="#009af9" fill-rule="evenodd" fill-opacity="1"/>
<polyline clip-path="url(#clip662)" style="stroke:#000000; stroke-linecap:butt; stroke-linejoin:round; stroke-width:4; stroke-opacity:1; fill:none" points="
  1376.76,1447.87 1376.76,1447.87 1402.65,1447.87 1376.76,1447.87 
  "/>
<path clip-path="url(#clip662)" d="
M1402.65 1447.87 L1402.65 1447.87 L1428.54 1447.87 L1428.54 1447.87 L1402.65 1447.87 L1402.65 1447.87  Z
  " fill="#009af9" fill-rule="evenodd" fill-opacity="1"/>
<polyline clip-path="url(#clip662)" style="stroke:#000000; stroke-linecap:butt; stroke-linejoin:round; stroke-width:4; stroke-opacity:1; fill:none" points="
  1402.65,1447.87 1402.65,1447.87 1428.54,1447.87 1402.65,1447.87 
  "/>
<path clip-path="url(#clip662)" d="
M1428.54 1447.87 L1428.54 1447.87 L1454.43 1447.87 L1454.43 1447.87 L1428.54 1447.87 L1428.54 1447.87  Z
  " fill="#009af9" fill-rule="evenodd" fill-opacity="1"/>
<polyline clip-path="url(#clip662)" style="stroke:#000000; stroke-linecap:butt; stroke-linejoin:round; stroke-width:4; stroke-opacity:1; fill:none" points="
  1428.54,1447.87 1428.54,1447.87 1454.43,1447.87 1428.54,1447.87 
  "/>
<path clip-path="url(#clip662)" d="
M1454.43 1447.87 L1454.43 1447.87 L1480.32 1447.87 L1480.32 1447.87 L1454.43 1447.87 L1454.43 1447.87  Z
  " fill="#009af9" fill-rule="evenodd" fill-opacity="1"/>
<polyline clip-path="url(#clip662)" style="stroke:#000000; stroke-linecap:butt; stroke-linejoin:round; stroke-width:4; stroke-opacity:1; fill:none" points="
  1454.43,1447.87 1454.43,1447.87 1480.32,1447.87 1454.43,1447.87 
  "/>
<path clip-path="url(#clip662)" d="
M1480.32 1447.87 L1480.32 1447.87 L1506.21 1447.87 L1506.21 1447.87 L1480.32 1447.87 L1480.32 1447.87  Z
  " fill="#009af9" fill-rule="evenodd" fill-opacity="1"/>
<polyline clip-path="url(#clip662)" style="stroke:#000000; stroke-linecap:butt; stroke-linejoin:round; stroke-width:4; stroke-opacity:1; fill:none" points="
  1480.32,1447.87 1480.32,1447.87 1506.21,1447.87 1480.32,1447.87 
  "/>
<path clip-path="url(#clip662)" d="
M1506.21 1447.87 L1506.21 1447.87 L1532.1 1447.87 L1532.1 1447.87 L1506.21 1447.87 L1506.21 1447.87  Z
  " fill="#009af9" fill-rule="evenodd" fill-opacity="1"/>
<polyline clip-path="url(#clip662)" style="stroke:#000000; stroke-linecap:butt; stroke-linejoin:round; stroke-width:4; stroke-opacity:1; fill:none" points="
  1506.21,1447.87 1506.21,1447.87 1532.1,1447.87 1506.21,1447.87 
  "/>
<path clip-path="url(#clip662)" d="
M1532.1 1427.46 L1532.1 1447.87 L1557.99 1447.87 L1557.99 1427.46 L1532.1 1427.46 L1532.1 1427.46  Z
  " fill="#009af9" fill-rule="evenodd" fill-opacity="1"/>
<polyline clip-path="url(#clip662)" style="stroke:#000000; stroke-linecap:butt; stroke-linejoin:round; stroke-width:4; stroke-opacity:1; fill:none" points="
  1532.1,1427.46 1532.1,1447.87 1557.99,1447.87 1557.99,1427.46 1532.1,1427.46 
  "/>
<path clip-path="url(#clip662)" d="
M1557.99 1447.87 L1557.99 1447.87 L1583.88 1447.87 L1583.88 1447.87 L1557.99 1447.87 L1557.99 1447.87  Z
  " fill="#009af9" fill-rule="evenodd" fill-opacity="1"/>
<polyline clip-path="url(#clip662)" style="stroke:#000000; stroke-linecap:butt; stroke-linejoin:round; stroke-width:4; stroke-opacity:1; fill:none" points="
  1557.99,1447.87 1557.99,1447.87 1583.88,1447.87 1557.99,1447.87 
  "/>
<path clip-path="url(#clip662)" d="
M1583.88 1447.87 L1583.88 1447.87 L1609.77 1447.87 L1609.77 1447.87 L1583.88 1447.87 L1583.88 1447.87  Z
  " fill="#009af9" fill-rule="evenodd" fill-opacity="1"/>
<polyline clip-path="url(#clip662)" style="stroke:#000000; stroke-linecap:butt; stroke-linejoin:round; stroke-width:4; stroke-opacity:1; fill:none" points="
  1583.88,1447.87 1583.88,1447.87 1609.77,1447.87 1583.88,1447.87 
  "/>
<path clip-path="url(#clip662)" d="
M1609.77 1447.87 L1609.77 1447.87 L1635.67 1447.87 L1635.67 1447.87 L1609.77 1447.87 L1609.77 1447.87  Z
  " fill="#009af9" fill-rule="evenodd" fill-opacity="1"/>
<polyline clip-path="url(#clip662)" style="stroke:#000000; stroke-linecap:butt; stroke-linejoin:round; stroke-width:4; stroke-opacity:1; fill:none" points="
  1609.77,1447.87 1609.77,1447.87 1635.67,1447.87 1609.77,1447.87 
  "/>
<path clip-path="url(#clip662)" d="
M1635.67 1447.87 L1635.67 1447.87 L1661.56 1447.87 L1661.56 1447.87 L1635.67 1447.87 L1635.67 1447.87  Z
  " fill="#009af9" fill-rule="evenodd" fill-opacity="1"/>
<polyline clip-path="url(#clip662)" style="stroke:#000000; stroke-linecap:butt; stroke-linejoin:round; stroke-width:4; stroke-opacity:1; fill:none" points="
  1635.67,1447.87 1635.67,1447.87 1661.56,1447.87 1635.67,1447.87 
  "/>
<path clip-path="url(#clip662)" d="
M1661.56 1447.87 L1661.56 1447.87 L1687.45 1447.87 L1687.45 1447.87 L1661.56 1447.87 L1661.56 1447.87  Z
  " fill="#009af9" fill-rule="evenodd" fill-opacity="1"/>
<polyline clip-path="url(#clip662)" style="stroke:#000000; stroke-linecap:butt; stroke-linejoin:round; stroke-width:4; stroke-opacity:1; fill:none" points="
  1661.56,1447.87 1661.56,1447.87 1687.45,1447.87 1661.56,1447.87 
  "/>
<path clip-path="url(#clip662)" d="
M1687.45 1447.87 L1687.45 1447.87 L1713.34 1447.87 L1713.34 1447.87 L1687.45 1447.87 L1687.45 1447.87  Z
  " fill="#009af9" fill-rule="evenodd" fill-opacity="1"/>
<polyline clip-path="url(#clip662)" style="stroke:#000000; stroke-linecap:butt; stroke-linejoin:round; stroke-width:4; stroke-opacity:1; fill:none" points="
  1687.45,1447.87 1687.45,1447.87 1713.34,1447.87 1687.45,1447.87 
  "/>
<path clip-path="url(#clip662)" d="
M1713.34 1447.87 L1713.34 1447.87 L1739.23 1447.87 L1739.23 1447.87 L1713.34 1447.87 L1713.34 1447.87  Z
  " fill="#009af9" fill-rule="evenodd" fill-opacity="1"/>
<polyline clip-path="url(#clip662)" style="stroke:#000000; stroke-linecap:butt; stroke-linejoin:round; stroke-width:4; stroke-opacity:1; fill:none" points="
  1713.34,1447.87 1713.34,1447.87 1739.23,1447.87 1713.34,1447.87 
  "/>
<path clip-path="url(#clip662)" d="
M1739.23 1447.87 L1739.23 1447.87 L1765.12 1447.87 L1765.12 1447.87 L1739.23 1447.87 L1739.23 1447.87  Z
  " fill="#009af9" fill-rule="evenodd" fill-opacity="1"/>
<polyline clip-path="url(#clip662)" style="stroke:#000000; stroke-linecap:butt; stroke-linejoin:round; stroke-width:4; stroke-opacity:1; fill:none" points="
  1739.23,1447.87 1739.23,1447.87 1765.12,1447.87 1739.23,1447.87 
  "/>
<path clip-path="url(#clip662)" d="
M1765.12 1427.46 L1765.12 1447.87 L1791.01 1447.87 L1791.01 1427.46 L1765.12 1427.46 L1765.12 1427.46  Z
  " fill="#009af9" fill-rule="evenodd" fill-opacity="1"/>
<polyline clip-path="url(#clip662)" style="stroke:#000000; stroke-linecap:butt; stroke-linejoin:round; stroke-width:4; stroke-opacity:1; fill:none" points="
  1765.12,1427.46 1765.12,1447.87 1791.01,1447.87 1791.01,1427.46 1765.12,1427.46 
  "/>
<path clip-path="url(#clip662)" d="
M1791.01 1447.87 L1791.01 1447.87 L1816.9 1447.87 L1816.9 1447.87 L1791.01 1447.87 L1791.01 1447.87  Z
  " fill="#009af9" fill-rule="evenodd" fill-opacity="1"/>
<polyline clip-path="url(#clip662)" style="stroke:#000000; stroke-linecap:butt; stroke-linejoin:round; stroke-width:4; stroke-opacity:1; fill:none" points="
  1791.01,1447.87 1791.01,1447.87 1816.9,1447.87 1791.01,1447.87 
  "/>
<path clip-path="url(#clip662)" d="
M1816.9 1447.87 L1816.9 1447.87 L1842.79 1447.87 L1842.79 1447.87 L1816.9 1447.87 L1816.9 1447.87  Z
  " fill="#009af9" fill-rule="evenodd" fill-opacity="1"/>
<polyline clip-path="url(#clip662)" style="stroke:#000000; stroke-linecap:butt; stroke-linejoin:round; stroke-width:4; stroke-opacity:1; fill:none" points="
  1816.9,1447.87 1816.9,1447.87 1842.79,1447.87 1816.9,1447.87 
  "/>
<path clip-path="url(#clip662)" d="
M1842.79 1447.87 L1842.79 1447.87 L1868.68 1447.87 L1868.68 1447.87 L1842.79 1447.87 L1842.79 1447.87  Z
  " fill="#009af9" fill-rule="evenodd" fill-opacity="1"/>
<polyline clip-path="url(#clip662)" style="stroke:#000000; stroke-linecap:butt; stroke-linejoin:round; stroke-width:4; stroke-opacity:1; fill:none" points="
  1842.79,1447.87 1842.79,1447.87 1868.68,1447.87 1842.79,1447.87 
  "/>
<path clip-path="url(#clip662)" d="
M1868.68 1447.87 L1868.68 1447.87 L1894.57 1447.87 L1894.57 1447.87 L1868.68 1447.87 L1868.68 1447.87  Z
  " fill="#009af9" fill-rule="evenodd" fill-opacity="1"/>
<polyline clip-path="url(#clip662)" style="stroke:#000000; stroke-linecap:butt; stroke-linejoin:round; stroke-width:4; stroke-opacity:1; fill:none" points="
  1868.68,1447.87 1868.68,1447.87 1894.57,1447.87 1868.68,1447.87 
  "/>
<path clip-path="url(#clip662)" d="
M1894.57 1447.87 L1894.57 1447.87 L1920.46 1447.87 L1920.46 1447.87 L1894.57 1447.87 L1894.57 1447.87  Z
  " fill="#009af9" fill-rule="evenodd" fill-opacity="1"/>
<polyline clip-path="url(#clip662)" style="stroke:#000000; stroke-linecap:butt; stroke-linejoin:round; stroke-width:4; stroke-opacity:1; fill:none" points="
  1894.57,1447.87 1894.57,1447.87 1920.46,1447.87 1894.57,1447.87 
  "/>
<path clip-path="url(#clip662)" d="
M1920.46 1447.87 L1920.46 1447.87 L1946.35 1447.87 L1946.35 1447.87 L1920.46 1447.87 L1920.46 1447.87  Z
  " fill="#009af9" fill-rule="evenodd" fill-opacity="1"/>
<polyline clip-path="url(#clip662)" style="stroke:#000000; stroke-linecap:butt; stroke-linejoin:round; stroke-width:4; stroke-opacity:1; fill:none" points="
  1920.46,1447.87 1920.46,1447.87 1946.35,1447.87 1920.46,1447.87 
  "/>
<path clip-path="url(#clip662)" d="
M1946.35 1447.87 L1946.35 1447.87 L1972.24 1447.87 L1972.24 1447.87 L1946.35 1447.87 L1946.35 1447.87  Z
  " fill="#009af9" fill-rule="evenodd" fill-opacity="1"/>
<polyline clip-path="url(#clip662)" style="stroke:#000000; stroke-linecap:butt; stroke-linejoin:round; stroke-width:4; stroke-opacity:1; fill:none" points="
  1946.35,1447.87 1946.35,1447.87 1972.24,1447.87 1946.35,1447.87 
  "/>
<path clip-path="url(#clip662)" d="
M1972.24 1447.87 L1972.24 1447.87 L1998.14 1447.87 L1998.14 1447.87 L1972.24 1447.87 L1972.24 1447.87  Z
  " fill="#009af9" fill-rule="evenodd" fill-opacity="1"/>
<polyline clip-path="url(#clip662)" style="stroke:#000000; stroke-linecap:butt; stroke-linejoin:round; stroke-width:4; stroke-opacity:1; fill:none" points="
  1972.24,1447.87 1972.24,1447.87 1998.14,1447.87 1972.24,1447.87 
  "/>
<path clip-path="url(#clip662)" d="
M1998.14 1447.87 L1998.14 1447.87 L2024.03 1447.87 L2024.03 1447.87 L1998.14 1447.87 L1998.14 1447.87  Z
  " fill="#009af9" fill-rule="evenodd" fill-opacity="1"/>
<polyline clip-path="url(#clip662)" style="stroke:#000000; stroke-linecap:butt; stroke-linejoin:round; stroke-width:4; stroke-opacity:1; fill:none" points="
  1998.14,1447.87 1998.14,1447.87 2024.03,1447.87 1998.14,1447.87 
  "/>
<path clip-path="url(#clip662)" d="
M2024.03 1447.87 L2024.03 1447.87 L2049.92 1447.87 L2049.92 1447.87 L2024.03 1447.87 L2024.03 1447.87  Z
  " fill="#009af9" fill-rule="evenodd" fill-opacity="1"/>
<polyline clip-path="url(#clip662)" style="stroke:#000000; stroke-linecap:butt; stroke-linejoin:round; stroke-width:4; stroke-opacity:1; fill:none" points="
  2024.03,1447.87 2024.03,1447.87 2049.92,1447.87 2024.03,1447.87 
  "/>
<path clip-path="url(#clip662)" d="
M2049.92 1447.87 L2049.92 1447.87 L2075.81 1447.87 L2075.81 1447.87 L2049.92 1447.87 L2049.92 1447.87  Z
  " fill="#009af9" fill-rule="evenodd" fill-opacity="1"/>
<polyline clip-path="url(#clip662)" style="stroke:#000000; stroke-linecap:butt; stroke-linejoin:round; stroke-width:4; stroke-opacity:1; fill:none" points="
  2049.92,1447.87 2049.92,1447.87 2075.81,1447.87 2049.92,1447.87 
  "/>
<path clip-path="url(#clip662)" d="
M2075.81 1447.87 L2075.81 1447.87 L2101.7 1447.87 L2101.7 1447.87 L2075.81 1447.87 L2075.81 1447.87  Z
  " fill="#009af9" fill-rule="evenodd" fill-opacity="1"/>
<polyline clip-path="url(#clip662)" style="stroke:#000000; stroke-linecap:butt; stroke-linejoin:round; stroke-width:4; stroke-opacity:1; fill:none" points="
  2075.81,1447.87 2075.81,1447.87 2101.7,1447.87 2075.81,1447.87 
  "/>
<path clip-path="url(#clip662)" d="
M2101.7 1447.87 L2101.7 1447.87 L2127.59 1447.87 L2127.59 1447.87 L2101.7 1447.87 L2101.7 1447.87  Z
  " fill="#009af9" fill-rule="evenodd" fill-opacity="1"/>
<polyline clip-path="url(#clip662)" style="stroke:#000000; stroke-linecap:butt; stroke-linejoin:round; stroke-width:4; stroke-opacity:1; fill:none" points="
  2101.7,1447.87 2101.7,1447.87 2127.59,1447.87 2101.7,1447.87 
  "/>
<path clip-path="url(#clip662)" d="
M2127.59 1447.87 L2127.59 1447.87 L2153.48 1447.87 L2153.48 1447.87 L2127.59 1447.87 L2127.59 1447.87  Z
  " fill="#009af9" fill-rule="evenodd" fill-opacity="1"/>
<polyline clip-path="url(#clip662)" style="stroke:#000000; stroke-linecap:butt; stroke-linejoin:round; stroke-width:4; stroke-opacity:1; fill:none" points="
  2127.59,1447.87 2127.59,1447.87 2153.48,1447.87 2127.59,1447.87 
  "/>
<path clip-path="url(#clip662)" d="
M2153.48 1447.87 L2153.48 1447.87 L2179.37 1447.87 L2179.37 1447.87 L2153.48 1447.87 L2153.48 1447.87  Z
  " fill="#009af9" fill-rule="evenodd" fill-opacity="1"/>
<polyline clip-path="url(#clip662)" style="stroke:#000000; stroke-linecap:butt; stroke-linejoin:round; stroke-width:4; stroke-opacity:1; fill:none" points="
  2153.48,1447.87 2153.48,1447.87 2179.37,1447.87 2153.48,1447.87 
  "/>
<path clip-path="url(#clip662)" d="
M2179.37 1447.87 L2179.37 1447.87 L2205.26 1447.87 L2205.26 1447.87 L2179.37 1447.87 L2179.37 1447.87  Z
  " fill="#009af9" fill-rule="evenodd" fill-opacity="1"/>
<polyline clip-path="url(#clip662)" style="stroke:#000000; stroke-linecap:butt; stroke-linejoin:round; stroke-width:4; stroke-opacity:1; fill:none" points="
  2179.37,1447.87 2179.37,1447.87 2205.26,1447.87 2179.37,1447.87 
  "/>
<path clip-path="url(#clip662)" d="
M2205.26 1447.87 L2205.26 1447.87 L2231.15 1447.87 L2231.15 1447.87 L2205.26 1447.87 L2205.26 1447.87  Z
  " fill="#009af9" fill-rule="evenodd" fill-opacity="1"/>
<polyline clip-path="url(#clip662)" style="stroke:#000000; stroke-linecap:butt; stroke-linejoin:round; stroke-width:4; stroke-opacity:1; fill:none" points="
  2205.26,1447.87 2205.26,1447.87 2231.15,1447.87 2205.26,1447.87 
  "/>
<circle clip-path="url(#clip662)" style="fill:#009af9; stroke:none; fill-opacity:0" cx="276.402" cy="162.047" r="2"/>
<circle clip-path="url(#clip662)" style="fill:#009af9; stroke:none; fill-opacity:0" cx="302.293" cy="243.687" r="2"/>
<circle clip-path="url(#clip662)" style="fill:#009af9; stroke:none; fill-opacity:0" cx="328.183" cy="570.246" r="2"/>
<circle clip-path="url(#clip662)" style="fill:#009af9; stroke:none; fill-opacity:0" cx="354.074" cy="631.476" r="2"/>
<circle clip-path="url(#clip662)" style="fill:#009af9; stroke:none; fill-opacity:0" cx="379.965" cy="1162.13" r="2"/>
<circle clip-path="url(#clip662)" style="fill:#009af9; stroke:none; fill-opacity:0" cx="405.856" cy="1162.13" r="2"/>
<circle clip-path="url(#clip662)" style="fill:#009af9; stroke:none; fill-opacity:0" cx="431.746" cy="1141.72" r="2"/>
<circle clip-path="url(#clip662)" style="fill:#009af9; stroke:none; fill-opacity:0" cx="457.637" cy="1345.82" r="2"/>
<circle clip-path="url(#clip662)" style="fill:#009af9; stroke:none; fill-opacity:0" cx="483.528" cy="1386.64" r="2"/>
<circle clip-path="url(#clip662)" style="fill:#009af9; stroke:none; fill-opacity:0" cx="509.419" cy="1386.64" r="2"/>
<circle clip-path="url(#clip662)" style="fill:#009af9; stroke:none; fill-opacity:0" cx="535.309" cy="1407.05" r="2"/>
<circle clip-path="url(#clip662)" style="fill:#009af9; stroke:none; fill-opacity:0" cx="561.2" cy="1427.46" r="2"/>
<circle clip-path="url(#clip662)" style="fill:#009af9; stroke:none; fill-opacity:0" cx="587.091" cy="1386.64" r="2"/>
<circle clip-path="url(#clip662)" style="fill:#009af9; stroke:none; fill-opacity:0" cx="612.981" cy="1407.05" r="2"/>
<circle clip-path="url(#clip662)" style="fill:#009af9; stroke:none; fill-opacity:0" cx="638.872" cy="1427.46" r="2"/>
<circle clip-path="url(#clip662)" style="fill:#009af9; stroke:none; fill-opacity:0" cx="664.763" cy="1447.87" r="2"/>
<circle clip-path="url(#clip662)" style="fill:#009af9; stroke:none; fill-opacity:0" cx="690.654" cy="1447.87" r="2"/>
<circle clip-path="url(#clip662)" style="fill:#009af9; stroke:none; fill-opacity:0" cx="716.544" cy="1427.46" r="2"/>
<circle clip-path="url(#clip662)" style="fill:#009af9; stroke:none; fill-opacity:0" cx="742.435" cy="1447.87" r="2"/>
<circle clip-path="url(#clip662)" style="fill:#009af9; stroke:none; fill-opacity:0" cx="768.326" cy="1447.87" r="2"/>
<circle clip-path="url(#clip662)" style="fill:#009af9; stroke:none; fill-opacity:0" cx="794.217" cy="1447.87" r="2"/>
<circle clip-path="url(#clip662)" style="fill:#009af9; stroke:none; fill-opacity:0" cx="820.107" cy="1447.87" r="2"/>
<circle clip-path="url(#clip662)" style="fill:#009af9; stroke:none; fill-opacity:0" cx="845.998" cy="1447.87" r="2"/>
<circle clip-path="url(#clip662)" style="fill:#009af9; stroke:none; fill-opacity:0" cx="871.889" cy="1447.87" r="2"/>
<circle clip-path="url(#clip662)" style="fill:#009af9; stroke:none; fill-opacity:0" cx="897.78" cy="1447.87" r="2"/>
<circle clip-path="url(#clip662)" style="fill:#009af9; stroke:none; fill-opacity:0" cx="923.67" cy="1447.87" r="2"/>
<circle clip-path="url(#clip662)" style="fill:#009af9; stroke:none; fill-opacity:0" cx="949.561" cy="1427.46" r="2"/>
<circle clip-path="url(#clip662)" style="fill:#009af9; stroke:none; fill-opacity:0" cx="975.452" cy="1427.46" r="2"/>
<circle clip-path="url(#clip662)" style="fill:#009af9; stroke:none; fill-opacity:0" cx="1001.34" cy="1447.87" r="2"/>
<circle clip-path="url(#clip662)" style="fill:#009af9; stroke:none; fill-opacity:0" cx="1027.23" cy="1447.87" r="2"/>
<circle clip-path="url(#clip662)" style="fill:#009af9; stroke:none; fill-opacity:0" cx="1053.12" cy="1447.87" r="2"/>
<circle clip-path="url(#clip662)" style="fill:#009af9; stroke:none; fill-opacity:0" cx="1079.01" cy="1447.87" r="2"/>
<circle clip-path="url(#clip662)" style="fill:#009af9; stroke:none; fill-opacity:0" cx="1104.91" cy="1427.46" r="2"/>
<circle clip-path="url(#clip662)" style="fill:#009af9; stroke:none; fill-opacity:0" cx="1130.8" cy="1447.87" r="2"/>
<circle clip-path="url(#clip662)" style="fill:#009af9; stroke:none; fill-opacity:0" cx="1156.69" cy="1447.87" r="2"/>
<circle clip-path="url(#clip662)" style="fill:#009af9; stroke:none; fill-opacity:0" cx="1182.58" cy="1447.87" r="2"/>
<circle clip-path="url(#clip662)" style="fill:#009af9; stroke:none; fill-opacity:0" cx="1208.47" cy="1447.87" r="2"/>
<circle clip-path="url(#clip662)" style="fill:#009af9; stroke:none; fill-opacity:0" cx="1234.36" cy="1447.87" r="2"/>
<circle clip-path="url(#clip662)" style="fill:#009af9; stroke:none; fill-opacity:0" cx="1260.25" cy="1447.87" r="2"/>
<circle clip-path="url(#clip662)" style="fill:#009af9; stroke:none; fill-opacity:0" cx="1286.14" cy="1447.87" r="2"/>
<circle clip-path="url(#clip662)" style="fill:#009af9; stroke:none; fill-opacity:0" cx="1312.03" cy="1447.87" r="2"/>
<circle clip-path="url(#clip662)" style="fill:#009af9; stroke:none; fill-opacity:0" cx="1337.92" cy="1447.87" r="2"/>
<circle clip-path="url(#clip662)" style="fill:#009af9; stroke:none; fill-opacity:0" cx="1363.81" cy="1447.87" r="2"/>
<circle clip-path="url(#clip662)" style="fill:#009af9; stroke:none; fill-opacity:0" cx="1389.7" cy="1447.87" r="2"/>
<circle clip-path="url(#clip662)" style="fill:#009af9; stroke:none; fill-opacity:0" cx="1415.59" cy="1447.87" r="2"/>
<circle clip-path="url(#clip662)" style="fill:#009af9; stroke:none; fill-opacity:0" cx="1441.48" cy="1447.87" r="2"/>
<circle clip-path="url(#clip662)" style="fill:#009af9; stroke:none; fill-opacity:0" cx="1467.38" cy="1447.87" r="2"/>
<circle clip-path="url(#clip662)" style="fill:#009af9; stroke:none; fill-opacity:0" cx="1493.27" cy="1447.87" r="2"/>
<circle clip-path="url(#clip662)" style="fill:#009af9; stroke:none; fill-opacity:0" cx="1519.16" cy="1447.87" r="2"/>
<circle clip-path="url(#clip662)" style="fill:#009af9; stroke:none; fill-opacity:0" cx="1545.05" cy="1427.46" r="2"/>
<circle clip-path="url(#clip662)" style="fill:#009af9; stroke:none; fill-opacity:0" cx="1570.94" cy="1447.87" r="2"/>
<circle clip-path="url(#clip662)" style="fill:#009af9; stroke:none; fill-opacity:0" cx="1596.83" cy="1447.87" r="2"/>
<circle clip-path="url(#clip662)" style="fill:#009af9; stroke:none; fill-opacity:0" cx="1622.72" cy="1447.87" r="2"/>
<circle clip-path="url(#clip662)" style="fill:#009af9; stroke:none; fill-opacity:0" cx="1648.61" cy="1447.87" r="2"/>
<circle clip-path="url(#clip662)" style="fill:#009af9; stroke:none; fill-opacity:0" cx="1674.5" cy="1447.87" r="2"/>
<circle clip-path="url(#clip662)" style="fill:#009af9; stroke:none; fill-opacity:0" cx="1700.39" cy="1447.87" r="2"/>
<circle clip-path="url(#clip662)" style="fill:#009af9; stroke:none; fill-opacity:0" cx="1726.28" cy="1447.87" r="2"/>
<circle clip-path="url(#clip662)" style="fill:#009af9; stroke:none; fill-opacity:0" cx="1752.17" cy="1447.87" r="2"/>
<circle clip-path="url(#clip662)" style="fill:#009af9; stroke:none; fill-opacity:0" cx="1778.06" cy="1427.46" r="2"/>
<circle clip-path="url(#clip662)" style="fill:#009af9; stroke:none; fill-opacity:0" cx="1803.96" cy="1447.87" r="2"/>
<circle clip-path="url(#clip662)" style="fill:#009af9; stroke:none; fill-opacity:0" cx="1829.85" cy="1447.87" r="2"/>
<circle clip-path="url(#clip662)" style="fill:#009af9; stroke:none; fill-opacity:0" cx="1855.74" cy="1447.87" r="2"/>
<circle clip-path="url(#clip662)" style="fill:#009af9; stroke:none; fill-opacity:0" cx="1881.63" cy="1447.87" r="2"/>
<circle clip-path="url(#clip662)" style="fill:#009af9; stroke:none; fill-opacity:0" cx="1907.52" cy="1447.87" r="2"/>
<circle clip-path="url(#clip662)" style="fill:#009af9; stroke:none; fill-opacity:0" cx="1933.41" cy="1447.87" r="2"/>
<circle clip-path="url(#clip662)" style="fill:#009af9; stroke:none; fill-opacity:0" cx="1959.3" cy="1447.87" r="2"/>
<circle clip-path="url(#clip662)" style="fill:#009af9; stroke:none; fill-opacity:0" cx="1985.19" cy="1447.87" r="2"/>
<circle clip-path="url(#clip662)" style="fill:#009af9; stroke:none; fill-opacity:0" cx="2011.08" cy="1447.87" r="2"/>
<circle clip-path="url(#clip662)" style="fill:#009af9; stroke:none; fill-opacity:0" cx="2036.97" cy="1447.87" r="2"/>
<circle clip-path="url(#clip662)" style="fill:#009af9; stroke:none; fill-opacity:0" cx="2062.86" cy="1447.87" r="2"/>
<circle clip-path="url(#clip662)" style="fill:#009af9; stroke:none; fill-opacity:0" cx="2088.75" cy="1447.87" r="2"/>
<circle clip-path="url(#clip662)" style="fill:#009af9; stroke:none; fill-opacity:0" cx="2114.64" cy="1447.87" r="2"/>
<circle clip-path="url(#clip662)" style="fill:#009af9; stroke:none; fill-opacity:0" cx="2140.53" cy="1447.87" r="2"/>
<circle clip-path="url(#clip662)" style="fill:#009af9; stroke:none; fill-opacity:0" cx="2166.43" cy="1447.87" r="2"/>
<circle clip-path="url(#clip662)" style="fill:#009af9; stroke:none; fill-opacity:0" cx="2192.32" cy="1447.87" r="2"/>
<circle clip-path="url(#clip662)" style="fill:#009af9; stroke:none; fill-opacity:0" cx="2218.21" cy="1447.87" r="2"/>
<path clip-path="url(#clip660)" d="
M1980.97 272.585 L2279.06 272.585 L2279.06 168.905 L1980.97 168.905  Z
  " fill="#ffffff" fill-rule="evenodd" fill-opacity="1"/>
<polyline clip-path="url(#clip660)" style="stroke:#000000; stroke-linecap:butt; stroke-linejoin:round; stroke-width:4; stroke-opacity:1; fill:none" points="
  1980.97,272.585 2279.06,272.585 2279.06,168.905 1980.97,168.905 1980.97,272.585 
  "/>
<path clip-path="url(#clip660)" d="
M2005.54 241.481 L2152.93 241.481 L2152.93 200.009 L2005.54 200.009 L2005.54 241.481  Z
  " fill="#009af9" fill-rule="evenodd" fill-opacity="1"/>
<polyline clip-path="url(#clip660)" style="stroke:#000000; stroke-linecap:butt; stroke-linejoin:round; stroke-width:4; stroke-opacity:1; fill:none" points="
  2005.54,241.481 2152.93,241.481 2152.93,200.009 2005.54,200.009 2005.54,241.481 
  "/>
<path clip-path="url(#clip660)" d="M2191.34 240.432 Q2189.53 245.062 2187.82 246.474 Q2186.11 247.886 2183.24 247.886 L2179.84 247.886 L2179.84 244.321 L2182.34 244.321 Q2184.09 244.321 2185.07 243.488 Q2186.04 242.654 2187.22 239.552 L2187.98 237.608 L2177.5 212.099 L2182.01 212.099 L2190.11 232.377 L2198.22 212.099 L2202.73 212.099 L2191.34 240.432 Z" fill="#000000" fill-rule="evenodd" fill-opacity="1" /><path clip-path="url(#clip660)" d="M2210.02 234.089 L2217.66 234.089 L2217.66 207.724 L2209.35 209.391 L2209.35 205.131 L2217.61 203.465 L2222.29 203.465 L2222.29 234.089 L2229.93 234.089 L2229.93 238.025 L2210.02 238.025 L2210.02 234.089 Z" fill="#000000" fill-rule="evenodd" fill-opacity="1" /></svg>
