<?xml version="1.0" encoding="utf-8"?>
<svg xmlns="http://www.w3.org/2000/svg" xmlns:xlink="http://www.w3.org/1999/xlink" width="600" height="400" viewBox="0 0 2400 1600">
<defs>
  <clipPath id="clip830">
    <rect x="0" y="0" width="2400" height="1600"/>
  </clipPath>
</defs>
<path clip-path="url(#clip830)" d="
M0 1600 L2400 1600 L2400 0 L0 0  Z
  " fill="#ffffff" fill-rule="evenodd" fill-opacity="1"/>
<defs>
  <clipPath id="clip831">
    <rect x="480" y="0" width="1681" height="1600"/>
  </clipPath>
</defs>
<path clip-path="url(#clip830)" d="
M170.857 1486.45 L2352.76 1486.45 L2352.76 123.472 L170.857 123.472  Z
  " fill="#ffffff" fill-rule="evenodd" fill-opacity="1"/>
<defs>
  <clipPath id="clip832">
    <rect x="170" y="123" width="2183" height="1364"/>
  </clipPath>
</defs>
<polyline clip-path="url(#clip832)" style="stroke:#000000; stroke-linecap:butt; stroke-linejoin:round; stroke-width:2; stroke-opacity:0.1; fill:none" points="
  237.932,1486.45 237.932,123.472 
  "/>
<polyline clip-path="url(#clip832)" style="stroke:#000000; stroke-linecap:butt; stroke-linejoin:round; stroke-width:2; stroke-opacity:0.1; fill:none" points="
  809.674,1486.45 809.674,123.472 
  "/>
<polyline clip-path="url(#clip832)" style="stroke:#000000; stroke-linecap:butt; stroke-linejoin:round; stroke-width:2; stroke-opacity:0.1; fill:none" points="
  1381.42,1486.45 1381.42,123.472 
  "/>
<polyline clip-path="url(#clip832)" style="stroke:#000000; stroke-linecap:butt; stroke-linejoin:round; stroke-width:2; stroke-opacity:0.1; fill:none" points="
  1953.16,1486.45 1953.16,123.472 
  "/>
<polyline clip-path="url(#clip830)" style="stroke:#000000; stroke-linecap:butt; stroke-linejoin:round; stroke-width:4; stroke-opacity:1; fill:none" points="
  170.857,1486.45 2352.76,1486.45 
  "/>
<polyline clip-path="url(#clip830)" style="stroke:#000000; stroke-linecap:butt; stroke-linejoin:round; stroke-width:4; stroke-opacity:1; fill:none" points="
  237.932,1486.45 237.932,1467.55 
  "/>
<polyline clip-path="url(#clip830)" style="stroke:#000000; stroke-linecap:butt; stroke-linejoin:round; stroke-width:4; stroke-opacity:1; fill:none" points="
  809.674,1486.45 809.674,1467.55 
  "/>
<polyline clip-path="url(#clip830)" style="stroke:#000000; stroke-linecap:butt; stroke-linejoin:round; stroke-width:4; stroke-opacity:1; fill:none" points="
  1381.42,1486.45 1381.42,1467.55 
  "/>
<polyline clip-path="url(#clip830)" style="stroke:#000000; stroke-linecap:butt; stroke-linejoin:round; stroke-width:4; stroke-opacity:1; fill:none" points="
  1953.16,1486.45 1953.16,1467.55 
  "/>
<path clip-path="url(#clip830)" d="M109.727 1544.91 L126.046 1544.91 L126.046 1548.85 L104.102 1548.85 L104.102 1544.91 Q106.764 1542.16 111.347 1537.53 Q115.954 1532.88 117.134 1531.53 Q119.38 1529.01 120.259 1527.27 Q121.162 1525.51 121.162 1523.82 Q121.162 1521.07 119.218 1519.33 Q117.296 1517.6 114.194 1517.6 Q111.995 1517.6 109.542 1518.36 Q107.111 1519.13 104.333 1520.68 L104.333 1515.95 Q107.157 1514.82 109.611 1514.24 Q112.065 1513.66 114.102 1513.66 Q119.472 1513.66 122.667 1516.35 Q125.861 1519.03 125.861 1523.52 Q125.861 1525.65 125.051 1527.57 Q124.264 1529.47 122.157 1532.07 Q121.579 1532.74 118.477 1535.95 Q115.375 1539.15 109.727 1544.91 Z" fill="#000000" fill-rule="evenodd" fill-opacity="1" /><path clip-path="url(#clip830)" d="M145.861 1517.37 Q142.25 1517.37 140.421 1520.93 Q138.616 1524.47 138.616 1531.6 Q138.616 1538.71 140.421 1542.27 Q142.25 1545.82 145.861 1545.82 Q149.495 1545.82 151.301 1542.27 Q153.129 1538.71 153.129 1531.6 Q153.129 1524.47 151.301 1520.93 Q149.495 1517.37 145.861 1517.37 M145.861 1513.66 Q151.671 1513.66 154.727 1518.27 Q157.805 1522.85 157.805 1531.6 Q157.805 1540.33 154.727 1544.94 Q151.671 1549.52 145.861 1549.52 Q140.051 1549.52 136.972 1544.94 Q133.917 1540.33 133.917 1531.6 Q133.917 1522.85 136.972 1518.27 Q140.051 1513.66 145.861 1513.66 Z" fill="#000000" fill-rule="evenodd" fill-opacity="1" /><path clip-path="url(#clip830)" d="M176.023 1517.37 Q172.412 1517.37 170.583 1520.93 Q168.777 1524.47 168.777 1531.6 Q168.777 1538.71 170.583 1542.27 Q172.412 1545.82 176.023 1545.82 Q179.657 1545.82 181.463 1542.27 Q183.291 1538.71 183.291 1531.6 Q183.291 1524.47 181.463 1520.93 Q179.657 1517.37 176.023 1517.37 M176.023 1513.66 Q181.833 1513.66 184.888 1518.27 Q187.967 1522.85 187.967 1531.6 Q187.967 1540.33 184.888 1544.94 Q181.833 1549.52 176.023 1549.52 Q170.213 1549.52 167.134 1544.94 Q164.078 1540.33 164.078 1531.6 Q164.078 1522.85 167.134 1518.27 Q170.213 1513.66 176.023 1513.66 Z" fill="#000000" fill-rule="evenodd" fill-opacity="1" /><path clip-path="url(#clip830)" d="M196.995 1544.91 L204.634 1544.91 L204.634 1518.55 L196.324 1520.21 L196.324 1515.95 L204.587 1514.29 L209.263 1514.29 L209.263 1544.91 L216.902 1544.91 L216.902 1548.85 L196.995 1548.85 L196.995 1544.91 Z" fill="#000000" fill-rule="evenodd" fill-opacity="1" /><path clip-path="url(#clip830)" d="M223.592 1533.96 L236.069 1533.96 L236.069 1537.76 L223.592 1537.76 L223.592 1533.96 Z" fill="#000000" fill-rule="evenodd" fill-opacity="1" /><path clip-path="url(#clip830)" d="M253.453 1517.37 Q249.842 1517.37 248.013 1520.93 Q246.208 1524.47 246.208 1531.6 Q246.208 1538.71 248.013 1542.27 Q249.842 1545.82 253.453 1545.82 Q257.087 1545.82 258.893 1542.27 Q260.721 1538.71 260.721 1531.6 Q260.721 1524.47 258.893 1520.93 Q257.087 1517.37 253.453 1517.37 M253.453 1513.66 Q259.263 1513.66 262.319 1518.27 Q265.397 1522.85 265.397 1531.6 Q265.397 1540.33 262.319 1544.94 Q259.263 1549.52 253.453 1549.52 Q247.643 1549.52 244.564 1544.94 Q241.509 1540.33 241.509 1531.6 Q241.509 1522.85 244.564 1518.27 Q247.643 1513.66 253.453 1513.66 Z" fill="#000000" fill-rule="evenodd" fill-opacity="1" /><path clip-path="url(#clip830)" d="M274.425 1544.91 L282.064 1544.91 L282.064 1518.55 L273.754 1520.21 L273.754 1515.95 L282.018 1514.29 L286.693 1514.29 L286.693 1544.91 L294.332 1544.91 L294.332 1548.85 L274.425 1548.85 L274.425 1544.91 Z" fill="#000000" fill-rule="evenodd" fill-opacity="1" /><path clip-path="url(#clip830)" d="M301.022 1533.96 L313.499 1533.96 L313.499 1537.76 L301.022 1537.76 L301.022 1533.96 Z" fill="#000000" fill-rule="evenodd" fill-opacity="1" /><path clip-path="url(#clip830)" d="M330.883 1517.37 Q327.272 1517.37 325.443 1520.93 Q323.638 1524.47 323.638 1531.6 Q323.638 1538.71 325.443 1542.27 Q327.272 1545.82 330.883 1545.82 Q334.517 1545.82 336.323 1542.27 Q338.152 1538.71 338.152 1531.6 Q338.152 1524.47 336.323 1520.93 Q334.517 1517.37 330.883 1517.37 M330.883 1513.66 Q336.693 1513.66 339.749 1518.27 Q342.827 1522.85 342.827 1531.6 Q342.827 1540.33 339.749 1544.94 Q336.693 1549.52 330.883 1549.52 Q325.073 1549.52 321.994 1544.94 Q318.939 1540.33 318.939 1531.6 Q318.939 1522.85 321.994 1518.27 Q325.073 1513.66 330.883 1513.66 Z" fill="#000000" fill-rule="evenodd" fill-opacity="1" /><path clip-path="url(#clip830)" d="M351.855 1544.91 L359.494 1544.91 L359.494 1518.55 L351.184 1520.21 L351.184 1515.95 L359.448 1514.29 L364.124 1514.29 L364.124 1544.91 L371.762 1544.91 L371.762 1548.85 L351.855 1548.85 L351.855 1544.91 Z" fill="#000000" fill-rule="evenodd" fill-opacity="1" /><path clip-path="url(#clip830)" d="M681.468 1544.91 L697.788 1544.91 L697.788 1548.85 L675.843 1548.85 L675.843 1544.91 Q678.505 1542.16 683.089 1537.53 Q687.695 1532.88 688.876 1531.53 Q691.121 1529.01 692.001 1527.27 Q692.903 1525.51 692.903 1523.82 Q692.903 1521.07 690.959 1519.33 Q689.038 1517.6 685.936 1517.6 Q683.737 1517.6 681.283 1518.36 Q678.853 1519.13 676.075 1520.68 L676.075 1515.95 Q678.899 1514.82 681.353 1514.24 Q683.806 1513.66 685.843 1513.66 Q691.214 1513.66 694.408 1516.35 Q697.603 1519.03 697.603 1523.52 Q697.603 1525.65 696.792 1527.57 Q696.005 1529.47 693.899 1532.07 Q693.32 1532.74 690.218 1535.95 Q687.116 1539.15 681.468 1544.91 Z" fill="#000000" fill-rule="evenodd" fill-opacity="1" /><path clip-path="url(#clip830)" d="M717.602 1517.37 Q713.991 1517.37 712.163 1520.93 Q710.357 1524.47 710.357 1531.6 Q710.357 1538.71 712.163 1542.27 Q713.991 1545.82 717.602 1545.82 Q721.237 1545.82 723.042 1542.27 Q724.871 1538.71 724.871 1531.6 Q724.871 1524.47 723.042 1520.93 Q721.237 1517.37 717.602 1517.37 M717.602 1513.66 Q723.413 1513.66 726.468 1518.27 Q729.547 1522.85 729.547 1531.6 Q729.547 1540.33 726.468 1544.94 Q723.413 1549.52 717.602 1549.52 Q711.792 1549.52 708.714 1544.94 Q705.658 1540.33 705.658 1531.6 Q705.658 1522.85 708.714 1518.27 Q711.792 1513.66 717.602 1513.66 Z" fill="#000000" fill-rule="evenodd" fill-opacity="1" /><path clip-path="url(#clip830)" d="M747.764 1517.37 Q744.153 1517.37 742.325 1520.93 Q740.519 1524.47 740.519 1531.6 Q740.519 1538.71 742.325 1542.27 Q744.153 1545.82 747.764 1545.82 Q751.399 1545.82 753.204 1542.27 Q755.033 1538.71 755.033 1531.6 Q755.033 1524.47 753.204 1520.93 Q751.399 1517.37 747.764 1517.37 M747.764 1513.66 Q753.574 1513.66 756.63 1518.27 Q759.709 1522.85 759.709 1531.6 Q759.709 1540.33 756.63 1544.94 Q753.574 1549.52 747.764 1549.52 Q741.954 1549.52 738.875 1544.94 Q735.82 1540.33 735.82 1531.6 Q735.82 1522.85 738.875 1518.27 Q741.954 1513.66 747.764 1513.66 Z" fill="#000000" fill-rule="evenodd" fill-opacity="1" /><path clip-path="url(#clip830)" d="M778.505 1529.7 Q775.357 1529.7 773.505 1531.86 Q771.676 1534.01 771.676 1537.76 Q771.676 1541.49 773.505 1543.66 Q775.357 1545.82 778.505 1545.82 Q781.653 1545.82 783.482 1543.66 Q785.334 1541.49 785.334 1537.76 Q785.334 1534.01 783.482 1531.86 Q781.653 1529.7 778.505 1529.7 M787.787 1515.05 L787.787 1519.31 Q786.028 1518.48 784.222 1518.04 Q782.44 1517.6 780.681 1517.6 Q776.051 1517.6 773.598 1520.72 Q771.167 1523.85 770.82 1530.17 Q772.185 1528.15 774.246 1527.09 Q776.306 1526 778.783 1526 Q783.991 1526 787 1529.17 Q790.033 1532.32 790.033 1537.76 Q790.033 1543.08 786.884 1546.3 Q783.736 1549.52 778.505 1549.52 Q772.51 1549.52 769.338 1544.94 Q766.167 1540.33 766.167 1531.6 Q766.167 1523.41 770.056 1518.55 Q773.945 1513.66 780.496 1513.66 Q782.255 1513.66 784.037 1514.01 Q785.843 1514.36 787.787 1515.05 Z" fill="#000000" fill-rule="evenodd" fill-opacity="1" /><path clip-path="url(#clip830)" d="M795.333 1533.96 L807.81 1533.96 L807.81 1537.76 L795.333 1537.76 L795.333 1533.96 Z" fill="#000000" fill-rule="evenodd" fill-opacity="1" /><path clip-path="url(#clip830)" d="M825.194 1517.37 Q821.583 1517.37 819.755 1520.93 Q817.949 1524.47 817.949 1531.6 Q817.949 1538.71 819.755 1542.27 Q821.583 1545.82 825.194 1545.82 Q828.829 1545.82 830.634 1542.27 Q832.463 1538.71 832.463 1531.6 Q832.463 1524.47 830.634 1520.93 Q828.829 1517.37 825.194 1517.37 M825.194 1513.66 Q831.005 1513.66 834.06 1518.27 Q837.139 1522.85 837.139 1531.6 Q837.139 1540.33 834.06 1544.94 Q831.005 1549.52 825.194 1549.52 Q819.384 1549.52 816.306 1544.94 Q813.25 1540.33 813.25 1531.6 Q813.25 1522.85 816.306 1518.27 Q819.384 1513.66 825.194 1513.66 Z" fill="#000000" fill-rule="evenodd" fill-opacity="1" /><path clip-path="url(#clip830)" d="M846.167 1544.91 L853.805 1544.91 L853.805 1518.55 L845.495 1520.21 L845.495 1515.95 L853.759 1514.29 L858.435 1514.29 L858.435 1544.91 L866.074 1544.91 L866.074 1548.85 L846.167 1548.85 L846.167 1544.91 Z" fill="#000000" fill-rule="evenodd" fill-opacity="1" /><path clip-path="url(#clip830)" d="M872.764 1533.96 L885.24 1533.96 L885.24 1537.76 L872.764 1537.76 L872.764 1533.96 Z" fill="#000000" fill-rule="evenodd" fill-opacity="1" /><path clip-path="url(#clip830)" d="M902.625 1517.37 Q899.013 1517.37 897.185 1520.93 Q895.379 1524.47 895.379 1531.6 Q895.379 1538.71 897.185 1542.27 Q899.013 1545.82 902.625 1545.82 Q906.259 1545.82 908.064 1542.27 Q909.893 1538.71 909.893 1531.6 Q909.893 1524.47 908.064 1520.93 Q906.259 1517.37 902.625 1517.37 M902.625 1513.66 Q908.435 1513.66 911.49 1518.27 Q914.569 1522.85 914.569 1531.6 Q914.569 1540.33 911.49 1544.94 Q908.435 1549.52 902.625 1549.52 Q896.814 1549.52 893.736 1544.94 Q890.68 1540.33 890.68 1531.6 Q890.68 1522.85 893.736 1518.27 Q896.814 1513.66 902.625 1513.66 Z" fill="#000000" fill-rule="evenodd" fill-opacity="1" /><path clip-path="url(#clip830)" d="M923.597 1544.91 L931.236 1544.91 L931.236 1518.55 L922.925 1520.21 L922.925 1515.95 L931.189 1514.29 L935.865 1514.29 L935.865 1544.91 L943.504 1544.91 L943.504 1548.85 L923.597 1548.85 L923.597 1544.91 Z" fill="#000000" fill-rule="evenodd" fill-opacity="1" /><path clip-path="url(#clip830)" d="M1253.21 1544.91 L1269.53 1544.91 L1269.53 1548.85 L1247.58 1548.85 L1247.58 1544.91 Q1250.25 1542.16 1254.83 1537.53 Q1259.44 1532.88 1260.62 1531.53 Q1262.86 1529.01 1263.74 1527.27 Q1264.65 1525.51 1264.65 1523.82 Q1264.65 1521.07 1262.7 1519.33 Q1260.78 1517.6 1257.68 1517.6 Q1255.48 1517.6 1253.02 1518.36 Q1250.59 1519.13 1247.82 1520.68 L1247.82 1515.95 Q1250.64 1514.82 1253.09 1514.24 Q1255.55 1513.66 1257.58 1513.66 Q1262.96 1513.66 1266.15 1516.35 Q1269.34 1519.03 1269.34 1523.52 Q1269.34 1525.65 1268.53 1527.57 Q1267.75 1529.47 1265.64 1532.07 Q1265.06 1532.74 1261.96 1535.95 Q1258.86 1539.15 1253.21 1544.91 Z" fill="#000000" fill-rule="evenodd" fill-opacity="1" /><path clip-path="url(#clip830)" d="M1289.34 1517.37 Q1285.73 1517.37 1283.9 1520.93 Q1282.1 1524.47 1282.1 1531.6 Q1282.1 1538.71 1283.9 1542.27 Q1285.73 1545.82 1289.34 1545.82 Q1292.98 1545.82 1294.78 1542.27 Q1296.61 1538.71 1296.61 1531.6 Q1296.61 1524.47 1294.78 1520.93 Q1292.98 1517.37 1289.34 1517.37 M1289.34 1513.66 Q1295.15 1513.66 1298.21 1518.27 Q1301.29 1522.85 1301.29 1531.6 Q1301.29 1540.33 1298.21 1544.94 Q1295.15 1549.52 1289.34 1549.52 Q1283.53 1549.52 1280.46 1544.94 Q1277.4 1540.33 1277.4 1531.6 Q1277.4 1522.85 1280.46 1518.27 Q1283.53 1513.66 1289.34 1513.66 Z" fill="#000000" fill-rule="evenodd" fill-opacity="1" /><path clip-path="url(#clip830)" d="M1310.32 1544.91 L1317.95 1544.91 L1317.95 1518.55 L1309.64 1520.21 L1309.64 1515.95 L1317.91 1514.29 L1322.58 1514.29 L1322.58 1544.91 L1330.22 1544.91 L1330.22 1548.85 L1310.32 1548.85 L1310.32 1544.91 Z" fill="#000000" fill-rule="evenodd" fill-opacity="1" /><path clip-path="url(#clip830)" d="M1340.48 1544.91 L1348.12 1544.91 L1348.12 1518.55 L1339.81 1520.21 L1339.81 1515.95 L1348.07 1514.29 L1352.75 1514.29 L1352.75 1544.91 L1360.39 1544.91 L1360.39 1548.85 L1340.48 1548.85 L1340.48 1544.91 Z" fill="#000000" fill-rule="evenodd" fill-opacity="1" /><path clip-path="url(#clip830)" d="M1367.08 1533.96 L1379.55 1533.96 L1379.55 1537.76 L1367.08 1537.76 L1367.08 1533.96 Z" fill="#000000" fill-rule="evenodd" fill-opacity="1" /><path clip-path="url(#clip830)" d="M1396.94 1517.37 Q1393.32 1517.37 1391.5 1520.93 Q1389.69 1524.47 1389.69 1531.6 Q1389.69 1538.71 1391.5 1542.27 Q1393.32 1545.82 1396.94 1545.82 Q1400.57 1545.82 1402.38 1542.27 Q1404.2 1538.71 1404.2 1531.6 Q1404.2 1524.47 1402.38 1520.93 Q1400.57 1517.37 1396.94 1517.37 M1396.94 1513.66 Q1402.75 1513.66 1405.8 1518.27 Q1408.88 1522.85 1408.88 1531.6 Q1408.88 1540.33 1405.8 1544.94 Q1402.75 1549.52 1396.94 1549.52 Q1391.13 1549.52 1388.05 1544.94 Q1384.99 1540.33 1384.99 1531.6 Q1384.99 1522.85 1388.05 1518.27 Q1391.13 1513.66 1396.94 1513.66 Z" fill="#000000" fill-rule="evenodd" fill-opacity="1" /><path clip-path="url(#clip830)" d="M1417.91 1544.91 L1425.55 1544.91 L1425.55 1518.55 L1417.24 1520.21 L1417.24 1515.95 L1425.5 1514.29 L1430.18 1514.29 L1430.18 1544.91 L1437.82 1544.91 L1437.82 1548.85 L1417.91 1548.85 L1417.91 1544.91 Z" fill="#000000" fill-rule="evenodd" fill-opacity="1" /><path clip-path="url(#clip830)" d="M1444.51 1533.96 L1456.98 1533.96 L1456.98 1537.76 L1444.51 1537.76 L1444.51 1533.96 Z" fill="#000000" fill-rule="evenodd" fill-opacity="1" /><path clip-path="url(#clip830)" d="M1474.37 1517.37 Q1470.76 1517.37 1468.93 1520.93 Q1467.12 1524.47 1467.12 1531.6 Q1467.12 1538.71 1468.93 1542.27 Q1470.76 1545.82 1474.37 1545.82 Q1478 1545.82 1479.81 1542.27 Q1481.63 1538.71 1481.63 1531.6 Q1481.63 1524.47 1479.81 1520.93 Q1478 1517.37 1474.37 1517.37 M1474.37 1513.66 Q1480.18 1513.66 1483.23 1518.27 Q1486.31 1522.85 1486.31 1531.6 Q1486.31 1540.33 1483.23 1544.94 Q1480.18 1549.52 1474.37 1549.52 Q1468.56 1549.52 1465.48 1544.94 Q1462.42 1540.33 1462.42 1531.6 Q1462.42 1522.85 1465.48 1518.27 Q1468.56 1513.66 1474.37 1513.66 Z" fill="#000000" fill-rule="evenodd" fill-opacity="1" /><path clip-path="url(#clip830)" d="M1495.34 1544.91 L1502.98 1544.91 L1502.98 1518.55 L1494.67 1520.21 L1494.67 1515.95 L1502.93 1514.29 L1507.61 1514.29 L1507.61 1544.91 L1515.25 1544.91 L1515.25 1548.85 L1495.34 1548.85 L1495.34 1544.91 Z" fill="#000000" fill-rule="evenodd" fill-opacity="1" /><path clip-path="url(#clip830)" d="M1824.95 1544.91 L1841.27 1544.91 L1841.27 1548.85 L1819.33 1548.85 L1819.33 1544.91 Q1821.99 1542.16 1826.57 1537.53 Q1831.18 1532.88 1832.36 1531.53 Q1834.6 1529.01 1835.48 1527.27 Q1836.39 1525.51 1836.39 1523.82 Q1836.39 1521.07 1834.44 1519.33 Q1832.52 1517.6 1829.42 1517.6 Q1827.22 1517.6 1824.77 1518.36 Q1822.34 1519.13 1819.56 1520.68 L1819.56 1515.95 Q1822.38 1514.82 1824.84 1514.24 Q1827.29 1513.66 1829.33 1513.66 Q1834.7 1513.66 1837.89 1516.35 Q1841.09 1519.03 1841.09 1523.52 Q1841.09 1525.65 1840.28 1527.57 Q1839.49 1529.47 1837.38 1532.07 Q1836.8 1532.74 1833.7 1535.95 Q1830.6 1539.15 1824.95 1544.91 Z" fill="#000000" fill-rule="evenodd" fill-opacity="1" /><path clip-path="url(#clip830)" d="M1861.09 1517.37 Q1857.47 1517.37 1855.65 1520.93 Q1853.84 1524.47 1853.84 1531.6 Q1853.84 1538.71 1855.65 1542.27 Q1857.47 1545.82 1861.09 1545.82 Q1864.72 1545.82 1866.53 1542.27 Q1868.35 1538.71 1868.35 1531.6 Q1868.35 1524.47 1866.53 1520.93 Q1864.72 1517.37 1861.09 1517.37 M1861.09 1513.66 Q1866.9 1513.66 1869.95 1518.27 Q1873.03 1522.85 1873.03 1531.6 Q1873.03 1540.33 1869.95 1544.94 Q1866.9 1549.52 1861.09 1549.52 Q1855.28 1549.52 1852.2 1544.94 Q1849.14 1540.33 1849.14 1531.6 Q1849.14 1522.85 1852.2 1518.27 Q1855.28 1513.66 1861.09 1513.66 Z" fill="#000000" fill-rule="evenodd" fill-opacity="1" /><path clip-path="url(#clip830)" d="M1882.06 1544.91 L1889.7 1544.91 L1889.7 1518.55 L1881.39 1520.21 L1881.39 1515.95 L1889.65 1514.29 L1894.33 1514.29 L1894.33 1544.91 L1901.96 1544.91 L1901.96 1548.85 L1882.06 1548.85 L1882.06 1544.91 Z" fill="#000000" fill-rule="evenodd" fill-opacity="1" /><path clip-path="url(#clip830)" d="M1921.99 1529.7 Q1918.84 1529.7 1916.99 1531.86 Q1915.16 1534.01 1915.16 1537.76 Q1915.16 1541.49 1916.99 1543.66 Q1918.84 1545.82 1921.99 1545.82 Q1925.14 1545.82 1926.96 1543.66 Q1928.82 1541.49 1928.82 1537.76 Q1928.82 1534.01 1926.96 1531.86 Q1925.14 1529.7 1921.99 1529.7 M1931.27 1515.05 L1931.27 1519.31 Q1929.51 1518.48 1927.71 1518.04 Q1925.92 1517.6 1924.16 1517.6 Q1919.53 1517.6 1917.08 1520.72 Q1914.65 1523.85 1914.3 1530.17 Q1915.67 1528.15 1917.73 1527.09 Q1919.79 1526 1922.27 1526 Q1927.47 1526 1930.48 1529.17 Q1933.52 1532.32 1933.52 1537.76 Q1933.52 1543.08 1930.37 1546.3 Q1927.22 1549.52 1921.99 1549.52 Q1915.99 1549.52 1912.82 1544.94 Q1909.65 1540.33 1909.65 1531.6 Q1909.65 1523.41 1913.54 1518.55 Q1917.43 1513.66 1923.98 1513.66 Q1925.74 1513.66 1927.52 1514.01 Q1929.33 1514.36 1931.27 1515.05 Z" fill="#000000" fill-rule="evenodd" fill-opacity="1" /><path clip-path="url(#clip830)" d="M1938.82 1533.96 L1951.29 1533.96 L1951.29 1537.76 L1938.82 1537.76 L1938.82 1533.96 Z" fill="#000000" fill-rule="evenodd" fill-opacity="1" /><path clip-path="url(#clip830)" d="M1968.68 1517.37 Q1965.07 1517.37 1963.24 1520.93 Q1961.43 1524.47 1961.43 1531.6 Q1961.43 1538.71 1963.24 1542.27 Q1965.07 1545.82 1968.68 1545.82 Q1972.31 1545.82 1974.12 1542.27 Q1975.95 1538.71 1975.95 1531.6 Q1975.95 1524.47 1974.12 1520.93 Q1972.31 1517.37 1968.68 1517.37 M1968.68 1513.66 Q1974.49 1513.66 1977.54 1518.27 Q1980.62 1522.85 1980.62 1531.6 Q1980.62 1540.33 1977.54 1544.94 Q1974.49 1549.52 1968.68 1549.52 Q1962.87 1549.52 1959.79 1544.94 Q1956.73 1540.33 1956.73 1531.6 Q1956.73 1522.85 1959.79 1518.27 Q1962.87 1513.66 1968.68 1513.66 Z" fill="#000000" fill-rule="evenodd" fill-opacity="1" /><path clip-path="url(#clip830)" d="M1989.65 1544.91 L1997.29 1544.91 L1997.29 1518.55 L1988.98 1520.21 L1988.98 1515.95 L1997.24 1514.29 L2001.92 1514.29 L2001.92 1544.91 L2009.56 1544.91 L2009.56 1548.85 L1989.65 1548.85 L1989.65 1544.91 Z" fill="#000000" fill-rule="evenodd" fill-opacity="1" /><path clip-path="url(#clip830)" d="M2016.25 1533.96 L2028.72 1533.96 L2028.72 1537.76 L2016.25 1537.76 L2016.25 1533.96 Z" fill="#000000" fill-rule="evenodd" fill-opacity="1" /><path clip-path="url(#clip830)" d="M2046.11 1517.37 Q2042.5 1517.37 2040.67 1520.93 Q2038.86 1524.47 2038.86 1531.6 Q2038.86 1538.71 2040.67 1542.27 Q2042.5 1545.82 2046.11 1545.82 Q2049.74 1545.82 2051.55 1542.27 Q2053.38 1538.71 2053.38 1531.6 Q2053.38 1524.47 2051.55 1520.93 Q2049.74 1517.37 2046.11 1517.37 M2046.11 1513.66 Q2051.92 1513.66 2054.97 1518.27 Q2058.05 1522.85 2058.05 1531.6 Q2058.05 1540.33 2054.97 1544.94 Q2051.92 1549.52 2046.11 1549.52 Q2040.3 1549.52 2037.22 1544.94 Q2034.16 1540.33 2034.16 1531.6 Q2034.16 1522.85 2037.22 1518.27 Q2040.3 1513.66 2046.11 1513.66 Z" fill="#000000" fill-rule="evenodd" fill-opacity="1" /><path clip-path="url(#clip830)" d="M2067.08 1544.91 L2074.72 1544.91 L2074.72 1518.55 L2066.41 1520.21 L2066.41 1515.95 L2074.67 1514.29 L2079.35 1514.29 L2079.35 1544.91 L2086.99 1544.91 L2086.99 1548.85 L2067.08 1548.85 L2067.08 1544.91 Z" fill="#000000" fill-rule="evenodd" fill-opacity="1" /><polyline clip-path="url(#clip832)" style="stroke:#000000; stroke-linecap:butt; stroke-linejoin:round; stroke-width:2; stroke-opacity:0.1; fill:none" points="
  170.857,1447.87 2352.76,1447.87 
  "/>
<polyline clip-path="url(#clip832)" style="stroke:#000000; stroke-linecap:butt; stroke-linejoin:round; stroke-width:2; stroke-opacity:0.1; fill:none" points="
  170.857,1213.23 2352.76,1213.23 
  "/>
<polyline clip-path="url(#clip832)" style="stroke:#000000; stroke-linecap:butt; stroke-linejoin:round; stroke-width:2; stroke-opacity:0.1; fill:none" points="
  170.857,978.593 2352.76,978.593 
  "/>
<polyline clip-path="url(#clip832)" style="stroke:#000000; stroke-linecap:butt; stroke-linejoin:round; stroke-width:2; stroke-opacity:0.1; fill:none" points="
  170.857,743.954 2352.76,743.954 
  "/>
<polyline clip-path="url(#clip832)" style="stroke:#000000; stroke-linecap:butt; stroke-linejoin:round; stroke-width:2; stroke-opacity:0.1; fill:none" points="
  170.857,509.314 2352.76,509.314 
  "/>
<polyline clip-path="url(#clip832)" style="stroke:#000000; stroke-linecap:butt; stroke-linejoin:round; stroke-width:2; stroke-opacity:0.1; fill:none" points="
  170.857,274.674 2352.76,274.674 
  "/>
<polyline clip-path="url(#clip830)" style="stroke:#000000; stroke-linecap:butt; stroke-linejoin:round; stroke-width:4; stroke-opacity:1; fill:none" points="
  170.857,1486.45 170.857,123.472 
  "/>
<polyline clip-path="url(#clip830)" style="stroke:#000000; stroke-linecap:butt; stroke-linejoin:round; stroke-width:4; stroke-opacity:1; fill:none" points="
  170.857,1447.87 189.755,1447.87 
  "/>
<polyline clip-path="url(#clip830)" style="stroke:#000000; stroke-linecap:butt; stroke-linejoin:round; stroke-width:4; stroke-opacity:1; fill:none" points="
  170.857,1213.23 189.755,1213.23 
  "/>
<polyline clip-path="url(#clip830)" style="stroke:#000000; stroke-linecap:butt; stroke-linejoin:round; stroke-width:4; stroke-opacity:1; fill:none" points="
  170.857,978.593 189.755,978.593 
  "/>
<polyline clip-path="url(#clip830)" style="stroke:#000000; stroke-linecap:butt; stroke-linejoin:round; stroke-width:4; stroke-opacity:1; fill:none" points="
  170.857,743.954 189.755,743.954 
  "/>
<polyline clip-path="url(#clip830)" style="stroke:#000000; stroke-linecap:butt; stroke-linejoin:round; stroke-width:4; stroke-opacity:1; fill:none" points="
  170.857,509.314 189.755,509.314 
  "/>
<polyline clip-path="url(#clip830)" style="stroke:#000000; stroke-linecap:butt; stroke-linejoin:round; stroke-width:4; stroke-opacity:1; fill:none" points="
  170.857,274.674 189.755,274.674 
  "/>
<path clip-path="url(#clip830)" d="M122.913 1433.67 Q119.302 1433.67 117.473 1437.24 Q115.668 1440.78 115.668 1447.91 Q115.668 1455.01 117.473 1458.58 Q119.302 1462.12 122.913 1462.12 Q126.547 1462.12 128.353 1458.58 Q130.182 1455.01 130.182 1447.91 Q130.182 1440.78 128.353 1437.24 Q126.547 1433.67 122.913 1433.67 M122.913 1429.97 Q128.723 1429.97 131.779 1434.57 Q134.857 1439.16 134.857 1447.91 Q134.857 1456.63 131.779 1461.24 Q128.723 1465.82 122.913 1465.82 Q117.103 1465.82 114.024 1461.24 Q110.969 1456.63 110.969 1447.91 Q110.969 1439.16 114.024 1434.57 Q117.103 1429.97 122.913 1429.97 Z" fill="#000000" fill-rule="evenodd" fill-opacity="1" /><path clip-path="url(#clip830)" d="M82.7975 1195.95 L101.154 1195.95 L101.154 1199.89 L87.0799 1199.89 L87.0799 1208.36 Q88.0984 1208.01 89.1169 1207.85 Q90.1354 1207.67 91.1539 1207.67 Q96.941 1207.67 100.321 1210.84 Q103.7 1214.01 103.7 1219.43 Q103.7 1225 100.228 1228.11 Q96.7558 1231.18 90.4364 1231.18 Q88.2604 1231.18 85.9919 1230.81 Q83.7466 1230.44 81.3392 1229.7 L81.3392 1225 Q83.4225 1226.14 85.6447 1226.69 Q87.8669 1227.25 90.3438 1227.25 Q94.3484 1227.25 96.6863 1225.14 Q99.0243 1223.04 99.0243 1219.43 Q99.0243 1215.81 96.6863 1213.71 Q94.3484 1211.6 90.3438 1211.6 Q88.4688 1211.6 86.5938 1212.02 Q84.7419 1212.43 82.7975 1213.31 L82.7975 1195.95 Z" fill="#000000" fill-rule="evenodd" fill-opacity="1" /><path clip-path="url(#clip830)" d="M122.913 1199.03 Q119.302 1199.03 117.473 1202.6 Q115.668 1206.14 115.668 1213.27 Q115.668 1220.37 117.473 1223.94 Q119.302 1227.48 122.913 1227.48 Q126.547 1227.48 128.353 1223.94 Q130.182 1220.37 130.182 1213.27 Q130.182 1206.14 128.353 1202.6 Q126.547 1199.03 122.913 1199.03 M122.913 1195.33 Q128.723 1195.33 131.779 1199.93 Q134.857 1204.52 134.857 1213.27 Q134.857 1221.99 131.779 1226.6 Q128.723 1231.18 122.913 1231.18 Q117.103 1231.18 114.024 1226.6 Q110.969 1221.99 110.969 1213.27 Q110.969 1204.52 114.024 1199.93 Q117.103 1195.33 122.913 1195.33 Z" fill="#000000" fill-rule="evenodd" fill-opacity="1" /><path clip-path="url(#clip830)" d="M53.3995 991.938 L61.0384 991.938 L61.0384 965.573 L52.7282 967.239 L52.7282 962.98 L60.9921 961.313 L65.668 961.313 L65.668 991.938 L73.3068 991.938 L73.3068 995.873 L53.3995 995.873 L53.3995 991.938 Z" fill="#000000" fill-rule="evenodd" fill-opacity="1" /><path clip-path="url(#clip830)" d="M92.7512 964.392 Q89.1401 964.392 87.3114 967.957 Q85.5058 971.499 85.5058 978.628 Q85.5058 985.735 87.3114 989.299 Q89.1401 992.841 92.7512 992.841 Q96.3854 992.841 98.1909 989.299 Q100.02 985.735 100.02 978.628 Q100.02 971.499 98.1909 967.957 Q96.3854 964.392 92.7512 964.392 M92.7512 960.688 Q98.5613 960.688 101.617 965.295 Q104.696 969.878 104.696 978.628 Q104.696 987.355 101.617 991.961 Q98.5613 996.545 92.7512 996.545 Q86.941 996.545 83.8623 991.961 Q80.8068 987.355 80.8068 978.628 Q80.8068 969.878 83.8623 965.295 Q86.941 960.688 92.7512 960.688 Z" fill="#000000" fill-rule="evenodd" fill-opacity="1" /><path clip-path="url(#clip830)" d="M122.913 964.392 Q119.302 964.392 117.473 967.957 Q115.668 971.499 115.668 978.628 Q115.668 985.735 117.473 989.299 Q119.302 992.841 122.913 992.841 Q126.547 992.841 128.353 989.299 Q130.182 985.735 130.182 978.628 Q130.182 971.499 128.353 967.957 Q126.547 964.392 122.913 964.392 M122.913 960.688 Q128.723 960.688 131.779 965.295 Q134.857 969.878 134.857 978.628 Q134.857 987.355 131.779 991.961 Q128.723 996.545 122.913 996.545 Q117.103 996.545 114.024 991.961 Q110.969 987.355 110.969 978.628 Q110.969 969.878 114.024 965.295 Q117.103 960.688 122.913 960.688 Z" fill="#000000" fill-rule="evenodd" fill-opacity="1" /><path clip-path="url(#clip830)" d="M53.3995 757.298 L61.0384 757.298 L61.0384 730.933 L52.7282 732.6 L52.7282 728.34 L60.9921 726.674 L65.668 726.674 L65.668 757.298 L73.3068 757.298 L73.3068 761.234 L53.3995 761.234 L53.3995 757.298 Z" fill="#000000" fill-rule="evenodd" fill-opacity="1" /><path clip-path="url(#clip830)" d="M82.7975 726.674 L101.154 726.674 L101.154 730.609 L87.0799 730.609 L87.0799 739.081 Q88.0984 738.734 89.1169 738.572 Q90.1354 738.387 91.1539 738.387 Q96.941 738.387 100.321 741.558 Q103.7 744.729 103.7 750.146 Q103.7 755.724 100.228 758.826 Q96.7558 761.905 90.4364 761.905 Q88.2604 761.905 85.9919 761.535 Q83.7466 761.164 81.3392 760.423 L81.3392 755.724 Q83.4225 756.859 85.6447 757.414 Q87.8669 757.97 90.3438 757.97 Q94.3484 757.97 96.6863 755.863 Q99.0243 753.757 99.0243 750.146 Q99.0243 746.535 96.6863 744.428 Q94.3484 742.322 90.3438 742.322 Q88.4688 742.322 86.5938 742.738 Q84.7419 743.155 82.7975 744.035 L82.7975 726.674 Z" fill="#000000" fill-rule="evenodd" fill-opacity="1" /><path clip-path="url(#clip830)" d="M122.913 729.752 Q119.302 729.752 117.473 733.317 Q115.668 736.859 115.668 743.988 Q115.668 751.095 117.473 754.66 Q119.302 758.201 122.913 758.201 Q126.547 758.201 128.353 754.66 Q130.182 751.095 130.182 743.988 Q130.182 736.859 128.353 733.317 Q126.547 729.752 122.913 729.752 M122.913 726.049 Q128.723 726.049 131.779 730.655 Q134.857 735.238 134.857 743.988 Q134.857 752.715 131.779 757.322 Q128.723 761.905 122.913 761.905 Q117.103 761.905 114.024 757.322 Q110.969 752.715 110.969 743.988 Q110.969 735.238 114.024 730.655 Q117.103 726.049 122.913 726.049 Z" fill="#000000" fill-rule="evenodd" fill-opacity="1" /><path clip-path="url(#clip830)" d="M56.6171 522.659 L72.9365 522.659 L72.9365 526.594 L50.9921 526.594 L50.9921 522.659 Q53.6541 519.904 58.2375 515.274 Q62.8439 510.622 64.0245 509.279 Q66.2698 506.756 67.1494 505.02 Q68.0522 503.261 68.0522 501.571 Q68.0522 498.816 66.1078 497.08 Q64.1865 495.344 61.0847 495.344 Q58.8856 495.344 56.4319 496.108 Q54.0014 496.872 51.2236 498.423 L51.2236 493.7 Q54.0477 492.566 56.5014 491.988 Q58.955 491.409 60.9921 491.409 Q66.3624 491.409 69.5568 494.094 Q72.7513 496.779 72.7513 501.27 Q72.7513 503.4 71.9411 505.321 Q71.1541 507.219 69.0476 509.812 Q68.4689 510.483 65.367 513.7 Q62.2652 516.895 56.6171 522.659 Z" fill="#000000" fill-rule="evenodd" fill-opacity="1" /><path clip-path="url(#clip830)" d="M92.7512 495.113 Q89.1401 495.113 87.3114 498.677 Q85.5058 502.219 85.5058 509.349 Q85.5058 516.455 87.3114 520.02 Q89.1401 523.561 92.7512 523.561 Q96.3854 523.561 98.1909 520.02 Q100.02 516.455 100.02 509.349 Q100.02 502.219 98.1909 498.677 Q96.3854 495.113 92.7512 495.113 M92.7512 491.409 Q98.5613 491.409 101.617 496.015 Q104.696 500.599 104.696 509.349 Q104.696 518.075 101.617 522.682 Q98.5613 527.265 92.7512 527.265 Q86.941 527.265 83.8623 522.682 Q80.8068 518.075 80.8068 509.349 Q80.8068 500.599 83.8623 496.015 Q86.941 491.409 92.7512 491.409 Z" fill="#000000" fill-rule="evenodd" fill-opacity="1" /><path clip-path="url(#clip830)" d="M122.913 495.113 Q119.302 495.113 117.473 498.677 Q115.668 502.219 115.668 509.349 Q115.668 516.455 117.473 520.02 Q119.302 523.561 122.913 523.561 Q126.547 523.561 128.353 520.02 Q130.182 516.455 130.182 509.349 Q130.182 502.219 128.353 498.677 Q126.547 495.113 122.913 495.113 M122.913 491.409 Q128.723 491.409 131.779 496.015 Q134.857 500.599 134.857 509.349 Q134.857 518.075 131.779 522.682 Q128.723 527.265 122.913 527.265 Q117.103 527.265 114.024 522.682 Q110.969 518.075 110.969 509.349 Q110.969 500.599 114.024 496.015 Q117.103 491.409 122.913 491.409 Z" fill="#000000" fill-rule="evenodd" fill-opacity="1" /><path clip-path="url(#clip830)" d="M56.6171 288.019 L72.9365 288.019 L72.9365 291.954 L50.9921 291.954 L50.9921 288.019 Q53.6541 285.264 58.2375 280.635 Q62.8439 275.982 64.0245 274.639 Q66.2698 272.116 67.1494 270.38 Q68.0522 268.621 68.0522 266.931 Q68.0522 264.176 66.1078 262.44 Q64.1865 260.704 61.0847 260.704 Q58.8856 260.704 56.4319 261.468 Q54.0014 262.232 51.2236 263.783 L51.2236 259.061 Q54.0477 257.926 56.5014 257.348 Q58.955 256.769 60.9921 256.769 Q66.3624 256.769 69.5568 259.454 Q72.7513 262.139 72.7513 266.63 Q72.7513 268.76 71.9411 270.681 Q71.1541 272.579 69.0476 275.172 Q68.4689 275.843 65.367 279.061 Q62.2652 282.255 56.6171 288.019 Z" fill="#000000" fill-rule="evenodd" fill-opacity="1" /><path clip-path="url(#clip830)" d="M82.7975 257.394 L101.154 257.394 L101.154 261.329 L87.0799 261.329 L87.0799 269.801 Q88.0984 269.454 89.1169 269.292 Q90.1354 269.107 91.1539 269.107 Q96.941 269.107 100.321 272.278 Q103.7 275.449 103.7 280.866 Q103.7 286.445 100.228 289.547 Q96.7558 292.625 90.4364 292.625 Q88.2604 292.625 85.9919 292.255 Q83.7466 291.885 81.3392 291.144 L81.3392 286.445 Q83.4225 287.579 85.6447 288.135 Q87.8669 288.69 90.3438 288.69 Q94.3484 288.69 96.6863 286.584 Q99.0243 284.477 99.0243 280.866 Q99.0243 277.255 96.6863 275.149 Q94.3484 273.042 90.3438 273.042 Q88.4688 273.042 86.5938 273.459 Q84.7419 273.875 82.7975 274.755 L82.7975 257.394 Z" fill="#000000" fill-rule="evenodd" fill-opacity="1" /><path clip-path="url(#clip830)" d="M122.913 260.473 Q119.302 260.473 117.473 264.038 Q115.668 267.579 115.668 274.709 Q115.668 281.815 117.473 285.38 Q119.302 288.922 122.913 288.922 Q126.547 288.922 128.353 285.38 Q130.182 281.815 130.182 274.709 Q130.182 267.579 128.353 264.038 Q126.547 260.473 122.913 260.473 M122.913 256.769 Q128.723 256.769 131.779 261.375 Q134.857 265.959 134.857 274.709 Q134.857 283.436 131.779 288.042 Q128.723 292.625 122.913 292.625 Q117.103 292.625 114.024 288.042 Q110.969 283.436 110.969 274.709 Q110.969 265.959 114.024 261.375 Q117.103 256.769 122.913 256.769 Z" fill="#000000" fill-rule="evenodd" fill-opacity="1" /><path clip-path="url(#clip830)" d="M808.754 16.7545 L808.754 25.383 Q804.622 21.5346 799.923 19.6307 Q795.264 17.7268 789.998 17.7268 Q779.628 17.7268 774.118 24.0867 Q768.609 30.4061 768.609 42.3968 Q768.609 54.3469 774.118 60.7069 Q779.628 67.0263 789.998 67.0263 Q795.264 67.0263 799.923 65.1223 Q804.622 63.2184 808.754 59.3701 L808.754 67.9175 Q804.46 70.8341 799.639 72.2924 Q794.859 73.7508 789.512 73.7508 Q775.779 73.7508 767.88 65.3654 Q759.981 56.9395 759.981 42.3968 Q759.981 27.8135 767.88 19.4281 Q775.779 11.0023 789.512 11.0023 Q794.94 11.0023 799.72 12.4606 Q804.541 13.8784 808.754 16.7545 Z" fill="#000000" fill-rule="evenodd" fill-opacity="1" /><path clip-path="url(#clip830)" d="M820.299 54.671 L820.299 27.2059 L827.752 27.2059 L827.752 54.3874 Q827.752 60.8284 830.264 64.0691 Q832.775 67.2693 837.799 67.2693 Q843.834 67.2693 847.318 63.421 Q850.842 59.5726 850.842 52.9291 L850.842 27.2059 L858.296 27.2059 L858.296 72.576 L850.842 72.576 L850.842 65.6084 Q848.128 69.7404 844.523 71.7658 Q840.958 73.7508 836.219 73.7508 Q828.4 73.7508 824.35 68.8897 Q820.299 64.0286 820.299 54.671 M839.054 26.1121 L839.054 26.1121 Z" fill="#000000" fill-rule="evenodd" fill-opacity="1" /><path clip-path="url(#clip830)" d="M908.973 35.9153 Q911.768 30.8922 915.657 28.5022 Q919.546 26.1121 924.812 26.1121 Q931.901 26.1121 935.749 31.0947 Q939.598 36.0368 939.598 45.1919 L939.598 72.576 L932.104 72.576 L932.104 45.4349 Q932.104 38.913 929.795 35.7533 Q927.486 32.5936 922.746 32.5936 Q916.953 32.5936 913.591 36.4419 Q910.229 40.2903 910.229 46.9338 L910.229 72.576 L902.735 72.576 L902.735 45.4349 Q902.735 38.8725 900.425 35.7533 Q898.116 32.5936 893.296 32.5936 Q887.584 32.5936 884.222 36.4824 Q880.86 40.3308 880.86 46.9338 L880.86 72.576 L873.365 72.576 L873.365 27.2059 L880.86 27.2059 L880.86 34.2544 Q883.412 30.082 886.976 28.0971 Q890.541 26.1121 895.443 26.1121 Q900.385 26.1121 903.828 28.6237 Q907.312 31.1352 908.973 35.9153 Z" fill="#000000" fill-rule="evenodd" fill-opacity="1" /><path clip-path="url(#clip830)" d="M953.695 54.671 L953.695 27.2059 L961.149 27.2059 L961.149 54.3874 Q961.149 60.8284 963.66 64.0691 Q966.172 67.2693 971.195 67.2693 Q977.231 67.2693 980.714 63.421 Q984.239 59.5726 984.239 52.9291 L984.239 27.2059 L991.692 27.2059 L991.692 72.576 L984.239 72.576 L984.239 65.6084 Q981.525 69.7404 977.919 71.7658 Q974.354 73.7508 969.615 73.7508 Q961.797 73.7508 957.746 68.8897 Q953.695 64.0286 953.695 54.671 M972.451 26.1121 L972.451 26.1121 Z" fill="#000000" fill-rule="evenodd" fill-opacity="1" /><path clip-path="url(#clip830)" d="M1007.05 9.54393 L1014.5 9.54393 L1014.5 72.576 L1007.05 72.576 L1007.05 9.54393 Z" fill="#000000" fill-rule="evenodd" fill-opacity="1" /><path clip-path="url(#clip830)" d="M1050.71 49.7694 Q1041.68 49.7694 1038.2 51.8354 Q1034.71 53.9013 1034.71 58.8839 Q1034.71 62.8538 1037.31 65.2034 Q1039.94 67.5124 1044.44 67.5124 Q1050.63 67.5124 1054.36 63.1374 Q1058.13 58.7219 1058.13 51.4303 L1058.13 49.7694 L1050.71 49.7694 M1065.58 46.6907 L1065.58 72.576 L1058.13 72.576 L1058.13 65.6895 Q1055.58 69.8214 1051.77 71.8063 Q1047.96 73.7508 1042.45 73.7508 Q1035.48 73.7508 1031.35 69.8619 Q1027.26 65.9325 1027.26 59.3701 Q1027.26 51.7138 1032.36 47.825 Q1037.51 43.9361 1047.68 43.9361 L1058.13 43.9361 L1058.13 43.2069 Q1058.13 38.0623 1054.72 35.2672 Q1051.36 32.4315 1045.25 32.4315 Q1041.36 32.4315 1037.67 33.3632 Q1033.98 34.295 1030.58 36.1584 L1030.58 29.2718 Q1034.67 27.692 1038.52 26.9223 Q1042.37 26.1121 1046.01 26.1121 Q1055.86 26.1121 1060.72 31.2163 Q1065.58 36.3204 1065.58 46.6907 Z" fill="#000000" fill-rule="evenodd" fill-opacity="1" /><path clip-path="url(#clip830)" d="M1088.31 14.324 L1088.31 27.2059 L1103.66 27.2059 L1103.66 32.9987 L1088.31 32.9987 L1088.31 57.6282 Q1088.31 63.1779 1089.81 64.7578 Q1091.34 66.3376 1096 66.3376 L1103.66 66.3376 L1103.66 72.576 L1096 72.576 Q1087.37 72.576 1084.09 69.3758 Q1080.81 66.1351 1080.81 57.6282 L1080.81 32.9987 L1075.34 32.9987 L1075.34 27.2059 L1080.81 27.2059 L1080.81 14.324 L1088.31 14.324 Z" fill="#000000" fill-rule="evenodd" fill-opacity="1" /><path clip-path="url(#clip830)" d="M1113.46 27.2059 L1120.92 27.2059 L1120.92 72.576 L1113.46 72.576 L1113.46 27.2059 M1113.46 9.54393 L1120.92 9.54393 L1120.92 18.9825 L1113.46 18.9825 L1113.46 9.54393 Z" fill="#000000" fill-rule="evenodd" fill-opacity="1" /><path clip-path="url(#clip830)" d="M1131.17 27.2059 L1139.06 27.2059 L1153.24 65.2844 L1167.42 27.2059 L1175.32 27.2059 L1158.31 72.576 L1148.18 72.576 L1131.17 27.2059 Z" fill="#000000" fill-rule="evenodd" fill-opacity="1" /><path clip-path="url(#clip830)" d="M1224.42 48.0275 L1224.42 51.6733 L1190.15 51.6733 Q1190.63 59.3701 1194.76 63.421 Q1198.94 67.4314 1206.35 67.4314 Q1210.64 67.4314 1214.65 66.3781 Q1218.71 65.3249 1222.67 63.2184 L1222.67 70.267 Q1218.66 71.9684 1214.45 72.8596 Q1210.24 73.7508 1205.9 73.7508 Q1195.05 73.7508 1188.69 67.4314 Q1182.37 61.1119 1182.37 50.3365 Q1182.37 39.1965 1188.36 32.6746 Q1194.4 26.1121 1204.61 26.1121 Q1213.76 26.1121 1219.07 32.0264 Q1224.42 37.9003 1224.42 48.0275 M1216.96 45.84 Q1216.88 39.7232 1213.52 36.0774 Q1210.2 32.4315 1204.69 32.4315 Q1198.45 32.4315 1194.68 35.9558 Q1190.96 39.4801 1190.39 45.8805 L1216.96 45.84 Z" fill="#000000" fill-rule="evenodd" fill-opacity="1" /><path clip-path="url(#clip830)" d="M1263.35 12.096 L1301.59 12.096 L1301.59 18.9825 L1271.53 18.9825 L1271.53 36.8875 L1300.33 36.8875 L1300.33 43.7741 L1271.53 43.7741 L1271.53 65.6895 L1302.32 65.6895 L1302.32 72.576 L1263.35 72.576 L1263.35 12.096 Z" fill="#000000" fill-rule="evenodd" fill-opacity="1" /><path clip-path="url(#clip830)" d="M1310.09 27.2059 L1317.99 27.2059 L1332.17 65.2844 L1346.35 27.2059 L1354.25 27.2059 L1337.23 72.576 L1327.11 72.576 L1310.09 27.2059 Z" fill="#000000" fill-rule="evenodd" fill-opacity="1" /><path clip-path="url(#clip830)" d="M1403.35 48.0275 L1403.35 51.6733 L1369.07 51.6733 Q1369.56 59.3701 1373.69 63.421 Q1377.87 67.4314 1385.28 67.4314 Q1389.57 67.4314 1393.58 66.3781 Q1397.63 65.3249 1401.6 63.2184 L1401.6 70.267 Q1397.59 71.9684 1393.38 72.8596 Q1389.17 73.7508 1384.83 73.7508 Q1373.98 73.7508 1367.62 67.4314 Q1361.3 61.1119 1361.3 50.3365 Q1361.3 39.1965 1367.29 32.6746 Q1373.33 26.1121 1383.54 26.1121 Q1392.69 26.1121 1398 32.0264 Q1403.35 37.9003 1403.35 48.0275 M1395.89 45.84 Q1395.81 39.7232 1392.45 36.0774 Q1389.13 32.4315 1383.62 32.4315 Q1377.38 32.4315 1373.61 35.9558 Q1369.88 39.4801 1369.32 45.8805 L1395.89 45.84 Z" fill="#000000" fill-rule="evenodd" fill-opacity="1" /><path clip-path="url(#clip830)" d="M1453.29 45.1919 L1453.29 72.576 L1445.84 72.576 L1445.84 45.4349 Q1445.84 38.994 1443.33 35.7938 Q1440.82 32.5936 1435.79 32.5936 Q1429.76 32.5936 1426.27 36.4419 Q1422.79 40.2903 1422.79 46.9338 L1422.79 72.576 L1415.3 72.576 L1415.3 27.2059 L1422.79 27.2059 L1422.79 34.2544 Q1425.46 30.163 1429.07 28.1376 Q1432.71 26.1121 1437.45 26.1121 Q1445.27 26.1121 1449.28 30.9732 Q1453.29 35.7938 1453.29 45.1919 Z" fill="#000000" fill-rule="evenodd" fill-opacity="1" /><path clip-path="url(#clip830)" d="M1475.53 14.324 L1475.53 27.2059 L1490.89 27.2059 L1490.89 32.9987 L1475.53 32.9987 L1475.53 57.6282 Q1475.53 63.1779 1477.03 64.7578 Q1478.57 66.3376 1483.23 66.3376 L1490.89 66.3376 L1490.89 72.576 L1483.23 72.576 Q1474.6 72.576 1471.32 69.3758 Q1468.04 66.1351 1468.04 57.6282 L1468.04 32.9987 L1462.57 32.9987 L1462.57 27.2059 L1468.04 27.2059 L1468.04 14.324 L1475.53 14.324 Z" fill="#000000" fill-rule="evenodd" fill-opacity="1" /><path clip-path="url(#clip830)" d="M1572.67 16.7545 L1572.67 25.383 Q1568.54 21.5346 1563.84 19.6307 Q1559.18 17.7268 1553.92 17.7268 Q1543.55 17.7268 1538.04 24.0867 Q1532.53 30.4061 1532.53 42.3968 Q1532.53 54.3469 1538.04 60.7069 Q1543.55 67.0263 1553.92 67.0263 Q1559.18 67.0263 1563.84 65.1223 Q1568.54 63.2184 1572.67 59.3701 L1572.67 67.9175 Q1568.38 70.8341 1563.56 72.2924 Q1558.78 73.7508 1553.43 73.7508 Q1539.7 73.7508 1531.8 65.3654 Q1523.9 56.9395 1523.9 42.3968 Q1523.9 27.8135 1531.8 19.4281 Q1539.7 11.0023 1553.43 11.0023 Q1558.86 11.0023 1563.64 12.4606 Q1568.46 13.8784 1572.67 16.7545 Z" fill="#000000" fill-rule="evenodd" fill-opacity="1" /><path clip-path="url(#clip830)" d="M1602.57 32.4315 Q1596.57 32.4315 1593.09 37.1306 Q1589.61 41.7891 1589.61 49.9314 Q1589.61 58.0738 1593.05 62.7728 Q1596.53 67.4314 1602.57 67.4314 Q1608.52 67.4314 1612.01 62.7323 Q1615.49 58.0333 1615.49 49.9314 Q1615.49 41.8701 1612.01 37.1711 Q1608.52 32.4315 1602.57 32.4315 M1602.57 26.1121 Q1612.29 26.1121 1617.84 32.4315 Q1623.39 38.7509 1623.39 49.9314 Q1623.39 61.0714 1617.84 67.4314 Q1612.29 73.7508 1602.57 73.7508 Q1592.81 73.7508 1587.26 67.4314 Q1581.75 61.0714 1581.75 49.9314 Q1581.75 38.7509 1587.26 32.4315 Q1592.81 26.1121 1602.57 26.1121 Z" fill="#000000" fill-rule="evenodd" fill-opacity="1" /><path clip-path="url(#clip830)" d="M1634.98 54.671 L1634.98 27.2059 L1642.43 27.2059 L1642.43 54.3874 Q1642.43 60.8284 1644.94 64.0691 Q1647.45 67.2693 1652.48 67.2693 Q1658.51 67.2693 1662 63.421 Q1665.52 59.5726 1665.52 52.9291 L1665.52 27.2059 L1672.97 27.2059 L1672.97 72.576 L1665.52 72.576 L1665.52 65.6084 Q1662.81 69.7404 1659.2 71.7658 Q1655.64 73.7508 1650.9 73.7508 Q1643.08 73.7508 1639.03 68.8897 Q1634.98 64.0286 1634.98 54.671 M1653.73 26.1121 L1653.73 26.1121 Z" fill="#000000" fill-rule="evenodd" fill-opacity="1" /><path clip-path="url(#clip830)" d="M1726.04 45.1919 L1726.04 72.576 L1718.59 72.576 L1718.59 45.4349 Q1718.59 38.994 1716.08 35.7938 Q1713.56 32.5936 1708.54 32.5936 Q1702.5 32.5936 1699.02 36.4419 Q1695.54 40.2903 1695.54 46.9338 L1695.54 72.576 L1688.04 72.576 L1688.04 27.2059 L1695.54 27.2059 L1695.54 34.2544 Q1698.21 30.163 1701.82 28.1376 Q1705.46 26.1121 1710.2 26.1121 Q1718.02 26.1121 1722.03 30.9732 Q1726.04 35.7938 1726.04 45.1919 Z" fill="#000000" fill-rule="evenodd" fill-opacity="1" /><path clip-path="url(#clip830)" d="M1748.28 14.324 L1748.28 27.2059 L1763.63 27.2059 L1763.63 32.9987 L1748.28 32.9987 L1748.28 57.6282 Q1748.28 63.1779 1749.78 64.7578 Q1751.32 66.3376 1755.98 66.3376 L1763.63 66.3376 L1763.63 72.576 L1755.98 72.576 Q1747.35 72.576 1744.07 69.3758 Q1740.79 66.1351 1740.79 57.6282 L1740.79 32.9987 L1735.32 32.9987 L1735.32 27.2059 L1740.79 27.2059 L1740.79 14.324 L1748.28 14.324 Z" fill="#000000" fill-rule="evenodd" fill-opacity="1" /><polyline clip-path="url(#clip832)" style="stroke:#009af9; stroke-linecap:butt; stroke-linejoin:round; stroke-width:4; stroke-opacity:1; fill:none" points="
  232.609,1443.18 242.316,1438.49 252.022,1433.79 260.789,1424.41 270.496,1419.72 346.895,1415.02 356.601,1410.33 375.075,1405.64 413.275,1400.95 442.081,1396.25 
  480.594,1391.56 499.067,1386.87 508.46,1382.17 527.56,1363.4 537.267,1354.02 556.367,1349.32 566.073,1344.63 594.879,1339.94 642.159,1335.25 680.672,1325.86 
  699.772,1321.17 709.478,1316.47 718.245,1307.09 766.151,1302.4 785.251,1297.7 794.957,1283.63 814.057,1278.93 832.531,1269.55 861.337,1264.85 870.73,1260.16 
  880.437,1250.78 890.143,1246.08 899.537,1236.7 938.049,1227.31 946.817,1222.62 956.523,1213.23 965.916,1208.54 994.723,1199.15 1013.82,1180.38 1032.92,1171 
  1052.34,1156.92 1061.42,1152.23 1080.52,1147.53 1090.22,1142.84 1099.61,1138.15 1119.03,1133.46 1157.23,1128.76 1175.7,1119.38 1185.41,1105.3 1194.8,1100.61 
  1204.51,1091.22 1213.9,1086.53 1223.61,1081.83 1233.31,1077.14 1252.41,1053.68 1261.81,1048.99 1271.51,1030.21 1281.22,1016.14 1289.99,1002.06 1299.69,997.365 
  1309.09,983.286 1318.79,978.593 1328.19,973.901 1337.89,969.208 1347.6,955.129 1356.99,936.358 1376.09,931.665 1385.8,922.28 1413.98,917.587 1452.18,908.202 
  1461.88,898.816 1471.28,889.43 1490.38,884.738 1500.08,880.045 1509.79,870.659 1518.87,861.274 1528.58,851.888 1537.97,847.195 1557.07,837.81 1566.78,823.731 
  1576.48,819.038 1585.88,809.653 1595.58,804.96 1604.98,786.189 1614.68,776.803 1633.16,772.11 1642.86,762.725 1652.26,758.032 1661.96,743.954 1681.06,734.568 
  1690.77,729.875 1700.16,720.49 1709.87,715.797 1719.26,706.411 1728.97,692.333 1738.68,687.64 1757.15,673.562 1766.54,664.176 1776.25,640.712 1795.35,636.019 
  1805.06,631.327 1814.45,626.634 1824.15,612.555 1843.25,598.477 1852.96,589.091 1861.73,575.013 1871.43,570.32 1880.83,560.935 1890.53,556.242 1899.93,542.163 
  1928.73,528.085 1938.44,523.392 1947.83,518.699 1967.25,504.621 1976.33,499.928 1986.03,495.235 1995.43,481.157 2005.13,476.464 2014.53,457.693 2024.23,453 
  2033.94,434.229 2043.33,429.536 2053.04,424.844 2072.14,415.458 2090.61,401.38 2100.32,382.608 2109.71,377.916 2119.42,349.759 2138.52,345.066 2148.23,335.68 
  2157.62,321.602 2167.33,298.138 2176.72,284.06 2186.42,279.367 2196.13,274.674 2204.9,269.981 2214.6,260.596 2224,237.132 2233.7,232.439 2252.8,223.053 
  2262.51,199.589 2271.9,190.204 2281.61,166.74 2291,162.047 
  "/>
<polyline clip-path="url(#clip832)" style="stroke:#e26f46; stroke-linecap:butt; stroke-linejoin:round; stroke-width:4; stroke-opacity:1; fill:none" points="
  232.609,1447.87 242.316,1443.18 252.022,1443.18 260.789,1438.49 270.496,1433.79 346.895,1433.79 356.601,1429.1 375.075,1429.1 413.275,1424.41 442.081,1424.41 
  480.594,1419.72 499.067,1415.02 508.46,1415.02 527.56,1405.64 537.267,1396.25 556.367,1391.56 566.073,1386.87 594.879,1386.87 642.159,1382.17 680.672,1377.48 
  699.772,1377.48 709.478,1377.48 718.245,1372.79 766.151,1368.1 785.251,1363.4 794.957,1358.71 814.057,1354.02 832.531,1349.32 861.337,1344.63 870.73,1339.94 
  880.437,1335.25 890.143,1335.25 899.537,1335.25 938.049,1335.25 946.817,1330.55 956.523,1325.86 965.916,1325.86 994.723,1321.17 1013.82,1307.09 1032.92,1307.09 
  1052.34,1297.7 1061.42,1293.01 1080.52,1288.32 1090.22,1283.63 1099.61,1283.63 1119.03,1283.63 1157.23,1278.93 1175.7,1278.93 1185.41,1264.85 1194.8,1260.16 
  1204.51,1260.16 1213.9,1260.16 1223.61,1255.47 1233.31,1250.78 1252.41,1232 1261.81,1227.31 1271.51,1217.93 1281.22,1208.54 1289.99,1194.46 1299.69,1189.77 
  1309.09,1175.69 1318.79,1171 1328.19,1166.31 1337.89,1161.61 1347.6,1147.53 1356.99,1128.76 1376.09,1124.07 1385.8,1114.68 1413.98,1109.99 1452.18,1100.61 
  1461.88,1100.61 1471.28,1095.91 1490.38,1091.22 1500.08,1091.22 1509.79,1086.53 1518.87,1077.14 1528.58,1067.76 1537.97,1063.06 1557.07,1063.06 1566.78,1058.37 
  1576.48,1053.68 1585.88,1044.29 1595.58,1039.6 1604.98,1030.21 1614.68,1025.52 1633.16,1025.52 1642.86,1025.52 1652.26,1025.52 1661.96,1016.14 1681.06,1016.14 
  1690.77,1016.14 1700.16,1011.44 1709.87,1011.44 1719.26,1011.44 1728.97,1006.75 1738.68,1002.06 1757.15,997.365 1766.54,987.979 1776.25,983.286 1795.35,983.286 
  1805.06,978.593 1814.45,973.901 1824.15,964.515 1843.25,955.129 1852.96,945.744 1861.73,931.665 1871.43,926.973 1880.83,917.587 1890.53,917.587 1899.93,912.894 
  1928.73,908.202 1938.44,908.202 1947.83,908.202 1967.25,898.816 1976.33,894.123 1986.03,894.123 1995.43,894.123 2005.13,894.123 2014.53,894.123 2024.23,894.123 
  2033.94,880.045 2043.33,875.352 2053.04,870.659 2072.14,865.966 2090.61,861.274 2100.32,842.502 2109.71,842.502 2119.42,828.424 2138.52,823.731 2148.23,819.038 
  2157.62,814.346 2167.33,804.96 2176.72,795.574 2186.42,790.882 2196.13,790.882 2204.9,790.882 2214.6,786.189 2224,772.11 2233.7,772.11 2252.8,762.725 
  2262.51,739.261 2271.9,734.568 2281.61,711.104 2291,711.104 
  "/>
<path clip-path="url(#clip830)" d="
M243.587 324.425 L869.653 324.425 L869.653 168.905 L243.587 168.905  Z
  " fill="#ffffff" fill-rule="evenodd" fill-opacity="1"/>
<polyline clip-path="url(#clip830)" style="stroke:#000000; stroke-linecap:butt; stroke-linejoin:round; stroke-width:4; stroke-opacity:1; fill:none" points="
  243.587,324.425 869.653,324.425 869.653,168.905 243.587,168.905 243.587,324.425 
  "/>
<polyline clip-path="url(#clip830)" style="stroke:#009af9; stroke-linecap:butt; stroke-linejoin:round; stroke-width:4; stroke-opacity:1; fill:none" points="
  267.831,220.745 413.291,220.745 
  "/>
<path clip-path="url(#clip830)" d="M453.367 208.071 L447.025 225.27 L459.733 225.27 L453.367 208.071 M450.728 203.465 L456.029 203.465 L469.2 238.025 L464.339 238.025 L461.191 229.159 L445.613 229.159 L442.464 238.025 L437.534 238.025 L450.728 203.465 Z" fill="#000000" fill-rule="evenodd" fill-opacity="1" /><path clip-path="url(#clip830)" d="M474.061 202.006 L478.321 202.006 L478.321 238.025 L474.061 238.025 L474.061 202.006 Z" fill="#000000" fill-rule="evenodd" fill-opacity="1" /><path clip-path="url(#clip830)" d="M487.233 202.006 L491.492 202.006 L491.492 238.025 L487.233 238.025 L487.233 202.006 Z" fill="#000000" fill-rule="evenodd" fill-opacity="1" /><path clip-path="url(#clip830)" d="M515.658 203.465 L537.51 203.465 L537.51 207.4 L520.334 207.4 L520.334 217.631 L536.793 217.631 L536.793 221.566 L520.334 221.566 L520.334 234.089 L537.927 234.089 L537.927 238.025 L515.658 238.025 L515.658 203.465 Z" fill="#000000" fill-rule="evenodd" fill-opacity="1" /><path clip-path="url(#clip830)" d="M542.371 212.099 L546.885 212.099 L554.987 233.858 L563.089 212.099 L567.603 212.099 L557.88 238.025 L552.093 238.025 L542.371 212.099 Z" fill="#000000" fill-rule="evenodd" fill-opacity="1" /><path clip-path="url(#clip830)" d="M595.658 223.997 L595.658 226.08 L576.075 226.08 Q576.353 230.478 578.714 232.793 Q581.098 235.085 585.334 235.085 Q587.788 235.085 590.079 234.483 Q592.394 233.881 594.663 232.677 L594.663 236.705 Q592.371 237.677 589.964 238.187 Q587.556 238.696 585.079 238.696 Q578.876 238.696 575.241 235.085 Q571.63 231.474 571.63 225.316 Q571.63 218.951 575.056 215.224 Q578.505 211.474 584.339 211.474 Q589.57 211.474 592.603 214.853 Q595.658 218.21 595.658 223.997 M591.399 222.747 Q591.353 219.252 589.431 217.168 Q587.533 215.085 584.385 215.085 Q580.82 215.085 578.667 217.099 Q576.538 219.113 576.214 222.77 L591.399 222.747 Z" fill="#000000" fill-rule="evenodd" fill-opacity="1" /><path clip-path="url(#clip830)" d="M624.2 222.377 L624.2 238.025 L619.94 238.025 L619.94 222.515 Q619.94 218.835 618.505 217.006 Q617.07 215.178 614.2 215.178 Q610.751 215.178 608.76 217.377 Q606.769 219.576 606.769 223.372 L606.769 238.025 L602.487 238.025 L602.487 212.099 L606.769 212.099 L606.769 216.127 Q608.297 213.789 610.357 212.631 Q612.44 211.474 615.149 211.474 Q619.616 211.474 621.908 214.252 Q624.2 217.006 624.2 222.377 Z" fill="#000000" fill-rule="evenodd" fill-opacity="1" /><path clip-path="url(#clip830)" d="M636.908 204.738 L636.908 212.099 L645.681 212.099 L645.681 215.409 L636.908 215.409 L636.908 229.483 Q636.908 232.654 637.764 233.557 Q638.644 234.46 641.306 234.46 L645.681 234.46 L645.681 238.025 L641.306 238.025 Q636.375 238.025 634.5 236.196 Q632.625 234.344 632.625 229.483 L632.625 215.409 L629.5 215.409 L629.5 212.099 L632.625 212.099 L632.625 204.738 L636.908 204.738 Z" fill="#000000" fill-rule="evenodd" fill-opacity="1" /><path clip-path="url(#clip830)" d="M667.81 212.863 L667.81 216.891 Q666.005 215.965 664.06 215.502 Q662.116 215.039 660.033 215.039 Q656.861 215.039 655.264 216.011 Q653.69 216.983 653.69 218.928 Q653.69 220.409 654.824 221.265 Q655.959 222.099 659.385 222.863 L660.843 223.187 Q665.38 224.159 667.278 225.941 Q669.199 227.701 669.199 230.872 Q669.199 234.483 666.329 236.589 Q663.482 238.696 658.482 238.696 Q656.398 238.696 654.13 238.279 Q651.885 237.886 649.385 237.076 L649.385 232.677 Q651.746 233.904 654.037 234.529 Q656.329 235.131 658.574 235.131 Q661.584 235.131 663.204 234.113 Q664.824 233.071 664.824 231.196 Q664.824 229.46 663.644 228.534 Q662.486 227.608 658.528 226.752 L657.047 226.404 Q653.088 225.571 651.329 223.858 Q649.57 222.122 649.57 219.113 Q649.57 215.455 652.162 213.465 Q654.755 211.474 659.523 211.474 Q661.885 211.474 663.968 211.821 Q666.051 212.168 667.81 212.863 Z" fill="#000000" fill-rule="evenodd" fill-opacity="1" /><polyline clip-path="url(#clip830)" style="stroke:#e26f46; stroke-linecap:butt; stroke-linejoin:round; stroke-width:4; stroke-opacity:1; fill:none" points="
  267.831,272.585 413.291,272.585 
  "/>
<path clip-path="url(#clip830)" d="M437.534 255.305 L442.21 255.305 L442.21 269.471 L459.2 269.471 L459.2 255.305 L463.876 255.305 L463.876 289.865 L459.2 289.865 L459.2 273.406 L442.21 273.406 L442.21 289.865 L437.534 289.865 L437.534 255.305 Z" fill="#000000" fill-rule="evenodd" fill-opacity="1" /><path clip-path="url(#clip830)" d="M484.779 276.832 Q479.617 276.832 477.626 278.013 Q475.636 279.193 475.636 282.041 Q475.636 284.309 477.117 285.652 Q478.622 286.971 481.191 286.971 Q484.733 286.971 486.862 284.471 Q489.015 281.948 489.015 277.781 L489.015 276.832 L484.779 276.832 M493.274 275.073 L493.274 289.865 L489.015 289.865 L489.015 285.929 Q487.557 288.291 485.381 289.425 Q483.205 290.536 480.057 290.536 Q476.075 290.536 473.714 288.314 Q471.376 286.068 471.376 282.318 Q471.376 277.943 474.293 275.721 Q477.233 273.499 483.043 273.499 L489.015 273.499 L489.015 273.082 Q489.015 270.143 487.071 268.545 Q485.149 266.925 481.654 266.925 Q479.432 266.925 477.325 267.457 Q475.219 267.99 473.274 269.055 L473.274 265.119 Q475.612 264.217 477.811 263.777 Q480.011 263.314 482.094 263.314 Q487.719 263.314 490.497 266.231 Q493.274 269.147 493.274 275.073 Z" fill="#000000" fill-rule="evenodd" fill-opacity="1" /><path clip-path="url(#clip830)" d="M523.598 274.217 L523.598 289.865 L519.339 289.865 L519.339 274.355 Q519.339 270.675 517.904 268.846 Q516.469 267.018 513.598 267.018 Q510.149 267.018 508.159 269.217 Q506.168 271.416 506.168 275.212 L506.168 289.865 L501.885 289.865 L501.885 263.939 L506.168 263.939 L506.168 267.967 Q507.696 265.629 509.756 264.471 Q511.839 263.314 514.547 263.314 Q519.015 263.314 521.307 266.092 Q523.598 268.846 523.598 274.217 Z" fill="#000000" fill-rule="evenodd" fill-opacity="1" /><path clip-path="url(#clip830)" d="M549.154 267.874 L549.154 253.846 L553.413 253.846 L553.413 289.865 L549.154 289.865 L549.154 285.976 Q547.811 288.291 545.751 289.425 Q543.714 290.536 540.844 290.536 Q536.144 290.536 533.182 286.786 Q530.242 283.036 530.242 276.925 Q530.242 270.814 533.182 267.064 Q536.144 263.314 540.844 263.314 Q543.714 263.314 545.751 264.448 Q547.811 265.559 549.154 267.874 M534.64 276.925 Q534.64 281.624 536.561 284.309 Q538.506 286.971 541.885 286.971 Q545.265 286.971 547.209 284.309 Q549.154 281.624 549.154 276.925 Q549.154 272.226 547.209 269.564 Q545.265 266.879 541.885 266.879 Q538.506 266.879 536.561 269.564 Q534.64 272.226 534.64 276.925 Z" fill="#000000" fill-rule="evenodd" fill-opacity="1" /><path clip-path="url(#clip830)" d="M579.246 276.601 Q579.246 271.971 577.325 269.425 Q575.427 266.879 571.978 266.879 Q568.552 266.879 566.63 269.425 Q564.732 271.971 564.732 276.601 Q564.732 281.207 566.63 283.754 Q568.552 286.3 571.978 286.3 Q575.427 286.3 577.325 283.754 Q579.246 281.207 579.246 276.601 M583.505 286.647 Q583.505 293.267 580.566 296.485 Q577.626 299.726 571.561 299.726 Q569.316 299.726 567.325 299.378 Q565.334 299.054 563.459 298.36 L563.459 294.216 Q565.334 295.235 567.163 295.721 Q568.992 296.207 570.89 296.207 Q575.079 296.207 577.163 294.008 Q579.246 291.832 579.246 287.411 L579.246 285.304 Q577.927 287.596 575.866 288.73 Q573.806 289.865 570.936 289.865 Q566.167 289.865 563.251 286.23 Q560.334 282.596 560.334 276.601 Q560.334 270.582 563.251 266.948 Q566.167 263.314 570.936 263.314 Q573.806 263.314 575.866 264.448 Q577.927 265.582 579.246 267.874 L579.246 263.939 L583.505 263.939 L583.505 286.647 Z" fill="#000000" fill-rule="evenodd" fill-opacity="1" /><path clip-path="url(#clip830)" d="M591.839 279.633 L591.839 263.939 L596.098 263.939 L596.098 279.471 Q596.098 283.152 597.533 285.004 Q598.968 286.832 601.839 286.832 Q605.288 286.832 607.278 284.633 Q609.292 282.434 609.292 278.638 L609.292 263.939 L613.551 263.939 L613.551 289.865 L609.292 289.865 L609.292 285.883 Q607.741 288.244 605.681 289.402 Q603.644 290.536 600.936 290.536 Q596.468 290.536 594.153 287.758 Q591.839 284.98 591.839 279.633 M602.556 263.314 L602.556 263.314 Z" fill="#000000" fill-rule="evenodd" fill-opacity="1" /><path clip-path="url(#clip830)" d="M643.875 274.217 L643.875 289.865 L639.616 289.865 L639.616 274.355 Q639.616 270.675 638.181 268.846 Q636.746 267.018 633.875 267.018 Q630.426 267.018 628.436 269.217 Q626.445 271.416 626.445 275.212 L626.445 289.865 L622.163 289.865 L622.163 263.939 L626.445 263.939 L626.445 267.967 Q627.973 265.629 630.033 264.471 Q632.116 263.314 634.825 263.314 Q639.292 263.314 641.584 266.092 Q643.875 268.846 643.875 274.217 Z" fill="#000000" fill-rule="evenodd" fill-opacity="1" /><path clip-path="url(#clip830)" d="M667.625 255.305 L689.477 255.305 L689.477 259.24 L672.301 259.24 L672.301 269.471 L688.759 269.471 L688.759 273.406 L672.301 273.406 L672.301 285.929 L689.894 285.929 L689.894 289.865 L667.625 289.865 L667.625 255.305 Z" fill="#000000" fill-rule="evenodd" fill-opacity="1" /><path clip-path="url(#clip830)" d="M694.338 263.939 L698.852 263.939 L706.954 285.698 L715.056 263.939 L719.569 263.939 L709.847 289.865 L704.06 289.865 L694.338 263.939 Z" fill="#000000" fill-rule="evenodd" fill-opacity="1" /><path clip-path="url(#clip830)" d="M747.625 275.837 L747.625 277.92 L728.042 277.92 Q728.319 282.318 730.68 284.633 Q733.065 286.925 737.301 286.925 Q739.755 286.925 742.046 286.323 Q744.361 285.721 746.629 284.517 L746.629 288.545 Q744.338 289.517 741.93 290.027 Q739.523 290.536 737.046 290.536 Q730.843 290.536 727.208 286.925 Q723.597 283.314 723.597 277.156 Q723.597 270.791 727.023 267.064 Q730.472 263.314 736.305 263.314 Q741.537 263.314 744.569 266.693 Q747.625 270.05 747.625 275.837 M743.366 274.587 Q743.319 271.092 741.398 269.008 Q739.5 266.925 736.352 266.925 Q732.787 266.925 730.634 268.939 Q728.505 270.953 728.18 274.61 L743.366 274.587 Z" fill="#000000" fill-rule="evenodd" fill-opacity="1" /><path clip-path="url(#clip830)" d="M776.166 274.217 L776.166 289.865 L771.907 289.865 L771.907 274.355 Q771.907 270.675 770.472 268.846 Q769.037 267.018 766.166 267.018 Q762.717 267.018 760.727 269.217 Q758.736 271.416 758.736 275.212 L758.736 289.865 L754.453 289.865 L754.453 263.939 L758.736 263.939 L758.736 267.967 Q760.264 265.629 762.324 264.471 Q764.407 263.314 767.115 263.314 Q771.583 263.314 773.875 266.092 Q776.166 268.846 776.166 274.217 Z" fill="#000000" fill-rule="evenodd" fill-opacity="1" /><path clip-path="url(#clip830)" d="M788.875 256.578 L788.875 263.939 L797.648 263.939 L797.648 267.249 L788.875 267.249 L788.875 281.323 Q788.875 284.494 789.731 285.397 Q790.611 286.3 793.273 286.3 L797.648 286.3 L797.648 289.865 L793.273 289.865 Q788.342 289.865 786.467 288.036 Q784.592 286.184 784.592 281.323 L784.592 267.249 L781.467 267.249 L781.467 263.939 L784.592 263.939 L784.592 256.578 L788.875 256.578 Z" fill="#000000" fill-rule="evenodd" fill-opacity="1" /><path clip-path="url(#clip830)" d="M819.777 264.703 L819.777 268.731 Q817.972 267.805 816.027 267.342 Q814.083 266.879 811.999 266.879 Q808.828 266.879 807.231 267.851 Q805.657 268.823 805.657 270.768 Q805.657 272.249 806.791 273.105 Q807.925 273.939 811.351 274.703 L812.81 275.027 Q817.347 275.999 819.245 277.781 Q821.166 279.541 821.166 282.712 Q821.166 286.323 818.296 288.429 Q815.449 290.536 810.449 290.536 Q808.365 290.536 806.097 290.119 Q803.851 289.726 801.351 288.916 L801.351 284.517 Q803.712 285.744 806.004 286.369 Q808.296 286.971 810.541 286.971 Q813.55 286.971 815.171 285.953 Q816.791 284.911 816.791 283.036 Q816.791 281.3 815.611 280.374 Q814.453 279.448 810.495 278.592 L809.013 278.244 Q805.055 277.411 803.296 275.698 Q801.537 273.962 801.537 270.953 Q801.537 267.295 804.129 265.305 Q806.722 263.314 811.49 263.314 Q813.851 263.314 815.935 263.661 Q818.018 264.008 819.777 264.703 Z" fill="#000000" fill-rule="evenodd" fill-opacity="1" /></svg>
