<?xml version="1.0" encoding="utf-8"?>
<svg xmlns="http://www.w3.org/2000/svg" xmlns:xlink="http://www.w3.org/1999/xlink" width="600" height="400" viewBox="0 0 2400 1600">
<defs>
  <clipPath id="clip340">
    <rect x="0" y="0" width="2400" height="1600"/>
  </clipPath>
</defs>
<path clip-path="url(#clip340)" d="
M0 1600 L2400 1600 L2400 0 L0 0  Z
  " fill="#ffffff" fill-rule="evenodd" fill-opacity="1"/>
<defs>
  <clipPath id="clip341">
    <rect x="480" y="0" width="1681" height="1600"/>
  </clipPath>
</defs>
<path clip-path="url(#clip340)" d="
M172.015 1486.45 L2352.76 1486.45 L2352.76 123.472 L172.015 123.472  Z
  " fill="#ffffff" fill-rule="evenodd" fill-opacity="1"/>
<defs>
  <clipPath id="clip342">
    <rect x="172" y="123" width="2182" height="1364"/>
  </clipPath>
</defs>
<polyline clip-path="url(#clip342)" style="stroke:#000000; stroke-linecap:butt; stroke-linejoin:round; stroke-width:2; stroke-opacity:0.1; fill:none" points="
  239.054,1486.45 239.054,123.472 
  "/>
<polyline clip-path="url(#clip342)" style="stroke:#000000; stroke-linecap:butt; stroke-linejoin:round; stroke-width:2; stroke-opacity:0.1; fill:none" points="
  810.492,1486.45 810.492,123.472 
  "/>
<polyline clip-path="url(#clip342)" style="stroke:#000000; stroke-linecap:butt; stroke-linejoin:round; stroke-width:2; stroke-opacity:0.1; fill:none" points="
  1381.93,1486.45 1381.93,123.472 
  "/>
<polyline clip-path="url(#clip342)" style="stroke:#000000; stroke-linecap:butt; stroke-linejoin:round; stroke-width:2; stroke-opacity:0.1; fill:none" points="
  1953.37,1486.45 1953.37,123.472 
  "/>
<polyline clip-path="url(#clip340)" style="stroke:#000000; stroke-linecap:butt; stroke-linejoin:round; stroke-width:4; stroke-opacity:1; fill:none" points="
  172.015,1486.45 2352.76,1486.45 
  "/>
<polyline clip-path="url(#clip340)" style="stroke:#000000; stroke-linecap:butt; stroke-linejoin:round; stroke-width:4; stroke-opacity:1; fill:none" points="
  239.054,1486.45 239.054,1467.55 
  "/>
<polyline clip-path="url(#clip340)" style="stroke:#000000; stroke-linecap:butt; stroke-linejoin:round; stroke-width:4; stroke-opacity:1; fill:none" points="
  810.492,1486.45 810.492,1467.55 
  "/>
<polyline clip-path="url(#clip340)" style="stroke:#000000; stroke-linecap:butt; stroke-linejoin:round; stroke-width:4; stroke-opacity:1; fill:none" points="
  1381.93,1486.45 1381.93,1467.55 
  "/>
<polyline clip-path="url(#clip340)" style="stroke:#000000; stroke-linecap:butt; stroke-linejoin:round; stroke-width:4; stroke-opacity:1; fill:none" points="
  1953.37,1486.45 1953.37,1467.55 
  "/>
<path clip-path="url(#clip340)" d="M110.849 1544.91 L127.168 1544.91 L127.168 1548.85 L105.224 1548.85 L105.224 1544.91 Q107.886 1542.16 112.469 1537.53 Q117.075 1532.88 118.256 1531.53 Q120.501 1529.01 121.381 1527.27 Q122.284 1525.51 122.284 1523.82 Q122.284 1521.07 120.339 1519.33 Q118.418 1517.6 115.316 1517.6 Q113.117 1517.6 110.663 1518.36 Q108.233 1519.13 105.455 1520.68 L105.455 1515.95 Q108.279 1514.82 110.733 1514.24 Q113.187 1513.66 115.224 1513.66 Q120.594 1513.66 123.788 1516.35 Q126.983 1519.03 126.983 1523.52 Q126.983 1525.65 126.173 1527.57 Q125.386 1529.47 123.279 1532.07 Q122.7 1532.74 119.599 1535.95 Q116.497 1539.15 110.849 1544.91 Z" fill="#000000" fill-rule="evenodd" fill-opacity="1" /><path clip-path="url(#clip340)" d="M146.983 1517.37 Q143.372 1517.37 141.543 1520.93 Q139.737 1524.47 139.737 1531.6 Q139.737 1538.71 141.543 1542.27 Q143.372 1545.82 146.983 1545.82 Q150.617 1545.82 152.422 1542.27 Q154.251 1538.71 154.251 1531.6 Q154.251 1524.47 152.422 1520.93 Q150.617 1517.37 146.983 1517.37 M146.983 1513.66 Q152.793 1513.66 155.848 1518.27 Q158.927 1522.85 158.927 1531.6 Q158.927 1540.33 155.848 1544.94 Q152.793 1549.52 146.983 1549.52 Q141.173 1549.52 138.094 1544.94 Q135.038 1540.33 135.038 1531.6 Q135.038 1522.85 138.094 1518.27 Q141.173 1513.66 146.983 1513.66 Z" fill="#000000" fill-rule="evenodd" fill-opacity="1" /><path clip-path="url(#clip340)" d="M177.145 1517.37 Q173.533 1517.37 171.705 1520.93 Q169.899 1524.47 169.899 1531.6 Q169.899 1538.71 171.705 1542.27 Q173.533 1545.82 177.145 1545.82 Q180.779 1545.82 182.584 1542.27 Q184.413 1538.71 184.413 1531.6 Q184.413 1524.47 182.584 1520.93 Q180.779 1517.37 177.145 1517.37 M177.145 1513.66 Q182.955 1513.66 186.01 1518.27 Q189.089 1522.85 189.089 1531.6 Q189.089 1540.33 186.01 1544.94 Q182.955 1549.52 177.145 1549.52 Q171.334 1549.52 168.256 1544.94 Q165.2 1540.33 165.2 1531.6 Q165.2 1522.85 168.256 1518.27 Q171.334 1513.66 177.145 1513.66 Z" fill="#000000" fill-rule="evenodd" fill-opacity="1" /><path clip-path="url(#clip340)" d="M198.117 1544.91 L205.756 1544.91 L205.756 1518.55 L197.445 1520.21 L197.445 1515.95 L205.709 1514.29 L210.385 1514.29 L210.385 1544.91 L218.024 1544.91 L218.024 1548.85 L198.117 1548.85 L198.117 1544.91 Z" fill="#000000" fill-rule="evenodd" fill-opacity="1" /><path clip-path="url(#clip340)" d="M224.714 1533.96 L237.191 1533.96 L237.191 1537.76 L224.714 1537.76 L224.714 1533.96 Z" fill="#000000" fill-rule="evenodd" fill-opacity="1" /><path clip-path="url(#clip340)" d="M254.575 1517.37 Q250.964 1517.37 249.135 1520.93 Q247.329 1524.47 247.329 1531.6 Q247.329 1538.71 249.135 1542.27 Q250.964 1545.82 254.575 1545.82 Q258.209 1545.82 260.015 1542.27 Q261.843 1538.71 261.843 1531.6 Q261.843 1524.47 260.015 1520.93 Q258.209 1517.37 254.575 1517.37 M254.575 1513.66 Q260.385 1513.66 263.44 1518.27 Q266.519 1522.85 266.519 1531.6 Q266.519 1540.33 263.44 1544.94 Q260.385 1549.52 254.575 1549.52 Q248.765 1549.52 245.686 1544.94 Q242.63 1540.33 242.63 1531.6 Q242.63 1522.85 245.686 1518.27 Q248.765 1513.66 254.575 1513.66 Z" fill="#000000" fill-rule="evenodd" fill-opacity="1" /><path clip-path="url(#clip340)" d="M275.547 1544.91 L283.186 1544.91 L283.186 1518.55 L274.876 1520.21 L274.876 1515.95 L283.139 1514.29 L287.815 1514.29 L287.815 1544.91 L295.454 1544.91 L295.454 1548.85 L275.547 1548.85 L275.547 1544.91 Z" fill="#000000" fill-rule="evenodd" fill-opacity="1" /><path clip-path="url(#clip340)" d="M302.144 1533.96 L314.621 1533.96 L314.621 1537.76 L302.144 1537.76 L302.144 1533.96 Z" fill="#000000" fill-rule="evenodd" fill-opacity="1" /><path clip-path="url(#clip340)" d="M332.005 1517.37 Q328.394 1517.37 326.565 1520.93 Q324.76 1524.47 324.76 1531.6 Q324.76 1538.71 326.565 1542.27 Q328.394 1545.82 332.005 1545.82 Q335.639 1545.82 337.445 1542.27 Q339.273 1538.71 339.273 1531.6 Q339.273 1524.47 337.445 1520.93 Q335.639 1517.37 332.005 1517.37 M332.005 1513.66 Q337.815 1513.66 340.871 1518.27 Q343.949 1522.85 343.949 1531.6 Q343.949 1540.33 340.871 1544.94 Q337.815 1549.52 332.005 1549.52 Q326.195 1549.52 323.116 1544.94 Q320.06 1540.33 320.06 1531.6 Q320.06 1522.85 323.116 1518.27 Q326.195 1513.66 332.005 1513.66 Z" fill="#000000" fill-rule="evenodd" fill-opacity="1" /><path clip-path="url(#clip340)" d="M352.977 1544.91 L360.616 1544.91 L360.616 1518.55 L352.306 1520.21 L352.306 1515.95 L360.57 1514.29 L365.245 1514.29 L365.245 1544.91 L372.884 1544.91 L372.884 1548.85 L352.977 1548.85 L352.977 1544.91 Z" fill="#000000" fill-rule="evenodd" fill-opacity="1" /><path clip-path="url(#clip340)" d="M682.287 1544.91 L698.606 1544.91 L698.606 1548.85 L676.662 1548.85 L676.662 1544.91 Q679.324 1542.16 683.907 1537.53 Q688.514 1532.88 689.694 1531.53 Q691.94 1529.01 692.819 1527.27 Q693.722 1525.51 693.722 1523.82 Q693.722 1521.07 691.778 1519.33 Q689.856 1517.6 686.754 1517.6 Q684.555 1517.6 682.102 1518.36 Q679.671 1519.13 676.893 1520.68 L676.893 1515.95 Q679.717 1514.82 682.171 1514.24 Q684.625 1513.66 686.662 1513.66 Q692.032 1513.66 695.227 1516.35 Q698.421 1519.03 698.421 1523.52 Q698.421 1525.65 697.611 1527.57 Q696.824 1529.47 694.717 1532.07 Q694.139 1532.74 691.037 1535.95 Q687.935 1539.15 682.287 1544.91 Z" fill="#000000" fill-rule="evenodd" fill-opacity="1" /><path clip-path="url(#clip340)" d="M718.421 1517.37 Q714.81 1517.37 712.981 1520.93 Q711.176 1524.47 711.176 1531.6 Q711.176 1538.71 712.981 1542.27 Q714.81 1545.82 718.421 1545.82 Q722.055 1545.82 723.861 1542.27 Q725.689 1538.71 725.689 1531.6 Q725.689 1524.47 723.861 1520.93 Q722.055 1517.37 718.421 1517.37 M718.421 1513.66 Q724.231 1513.66 727.287 1518.27 Q730.365 1522.85 730.365 1531.6 Q730.365 1540.33 727.287 1544.94 Q724.231 1549.52 718.421 1549.52 Q712.611 1549.52 709.532 1544.94 Q706.477 1540.33 706.477 1531.6 Q706.477 1522.85 709.532 1518.27 Q712.611 1513.66 718.421 1513.66 Z" fill="#000000" fill-rule="evenodd" fill-opacity="1" /><path clip-path="url(#clip340)" d="M748.583 1517.37 Q744.972 1517.37 743.143 1520.93 Q741.338 1524.47 741.338 1531.6 Q741.338 1538.71 743.143 1542.27 Q744.972 1545.82 748.583 1545.82 Q752.217 1545.82 754.023 1542.27 Q755.851 1538.71 755.851 1531.6 Q755.851 1524.47 754.023 1520.93 Q752.217 1517.37 748.583 1517.37 M748.583 1513.66 Q754.393 1513.66 757.449 1518.27 Q760.527 1522.85 760.527 1531.6 Q760.527 1540.33 757.449 1544.94 Q754.393 1549.52 748.583 1549.52 Q742.773 1549.52 739.694 1544.94 Q736.638 1540.33 736.638 1531.6 Q736.638 1522.85 739.694 1518.27 Q742.773 1513.66 748.583 1513.66 Z" fill="#000000" fill-rule="evenodd" fill-opacity="1" /><path clip-path="url(#clip340)" d="M779.323 1529.7 Q776.175 1529.7 774.323 1531.86 Q772.495 1534.01 772.495 1537.76 Q772.495 1541.49 774.323 1543.66 Q776.175 1545.82 779.323 1545.82 Q782.472 1545.82 784.3 1543.66 Q786.152 1541.49 786.152 1537.76 Q786.152 1534.01 784.3 1531.86 Q782.472 1529.7 779.323 1529.7 M788.606 1515.05 L788.606 1519.31 Q786.847 1518.48 785.041 1518.04 Q783.259 1517.6 781.499 1517.6 Q776.87 1517.6 774.416 1520.72 Q771.985 1523.85 771.638 1530.17 Q773.004 1528.15 775.064 1527.09 Q777.124 1526 779.601 1526 Q784.81 1526 787.819 1529.17 Q790.851 1532.32 790.851 1537.76 Q790.851 1543.08 787.703 1546.3 Q784.555 1549.52 779.323 1549.52 Q773.328 1549.52 770.157 1544.94 Q766.986 1540.33 766.986 1531.6 Q766.986 1523.41 770.874 1518.55 Q774.763 1513.66 781.314 1513.66 Q783.073 1513.66 784.856 1514.01 Q786.661 1514.36 788.606 1515.05 Z" fill="#000000" fill-rule="evenodd" fill-opacity="1" /><path clip-path="url(#clip340)" d="M796.152 1533.96 L808.629 1533.96 L808.629 1537.76 L796.152 1537.76 L796.152 1533.96 Z" fill="#000000" fill-rule="evenodd" fill-opacity="1" /><path clip-path="url(#clip340)" d="M826.013 1517.37 Q822.402 1517.37 820.573 1520.93 Q818.768 1524.47 818.768 1531.6 Q818.768 1538.71 820.573 1542.27 Q822.402 1545.82 826.013 1545.82 Q829.647 1545.82 831.453 1542.27 Q833.281 1538.71 833.281 1531.6 Q833.281 1524.47 831.453 1520.93 Q829.647 1517.37 826.013 1517.37 M826.013 1513.66 Q831.823 1513.66 834.879 1518.27 Q837.957 1522.85 837.957 1531.6 Q837.957 1540.33 834.879 1544.94 Q831.823 1549.52 826.013 1549.52 Q820.203 1549.52 817.124 1544.94 Q814.069 1540.33 814.069 1531.6 Q814.069 1522.85 817.124 1518.27 Q820.203 1513.66 826.013 1513.66 Z" fill="#000000" fill-rule="evenodd" fill-opacity="1" /><path clip-path="url(#clip340)" d="M846.985 1544.91 L854.624 1544.91 L854.624 1518.55 L846.314 1520.21 L846.314 1515.95 L854.578 1514.29 L859.254 1514.29 L859.254 1544.91 L866.892 1544.91 L866.892 1548.85 L846.985 1548.85 L846.985 1544.91 Z" fill="#000000" fill-rule="evenodd" fill-opacity="1" /><path clip-path="url(#clip340)" d="M873.582 1533.96 L886.059 1533.96 L886.059 1537.76 L873.582 1537.76 L873.582 1533.96 Z" fill="#000000" fill-rule="evenodd" fill-opacity="1" /><path clip-path="url(#clip340)" d="M903.443 1517.37 Q899.832 1517.37 898.003 1520.93 Q896.198 1524.47 896.198 1531.6 Q896.198 1538.71 898.003 1542.27 Q899.832 1545.82 903.443 1545.82 Q907.077 1545.82 908.883 1542.27 Q910.712 1538.71 910.712 1531.6 Q910.712 1524.47 908.883 1520.93 Q907.077 1517.37 903.443 1517.37 M903.443 1513.66 Q909.253 1513.66 912.309 1518.27 Q915.388 1522.85 915.388 1531.6 Q915.388 1540.33 912.309 1544.94 Q909.253 1549.52 903.443 1549.52 Q897.633 1549.52 894.554 1544.94 Q891.499 1540.33 891.499 1531.6 Q891.499 1522.85 894.554 1518.27 Q897.633 1513.66 903.443 1513.66 Z" fill="#000000" fill-rule="evenodd" fill-opacity="1" /><path clip-path="url(#clip340)" d="M924.415 1544.91 L932.054 1544.91 L932.054 1518.55 L923.744 1520.21 L923.744 1515.95 L932.008 1514.29 L936.684 1514.29 L936.684 1544.91 L944.323 1544.91 L944.323 1548.85 L924.415 1548.85 L924.415 1544.91 Z" fill="#000000" fill-rule="evenodd" fill-opacity="1" /><path clip-path="url(#clip340)" d="M1253.73 1544.91 L1270.04 1544.91 L1270.04 1548.85 L1248.1 1548.85 L1248.1 1544.91 Q1250.76 1542.16 1255.35 1537.53 Q1259.95 1532.88 1261.13 1531.53 Q1263.38 1529.01 1264.26 1527.27 Q1265.16 1525.51 1265.16 1523.82 Q1265.16 1521.07 1263.22 1519.33 Q1261.29 1517.6 1258.19 1517.6 Q1255.99 1517.6 1253.54 1518.36 Q1251.11 1519.13 1248.33 1520.68 L1248.33 1515.95 Q1251.16 1514.82 1253.61 1514.24 Q1256.06 1513.66 1258.1 1513.66 Q1263.47 1513.66 1266.66 1516.35 Q1269.86 1519.03 1269.86 1523.52 Q1269.86 1525.65 1269.05 1527.57 Q1268.26 1529.47 1266.16 1532.07 Q1265.58 1532.74 1262.48 1535.95 Q1259.37 1539.15 1253.73 1544.91 Z" fill="#000000" fill-rule="evenodd" fill-opacity="1" /><path clip-path="url(#clip340)" d="M1289.86 1517.37 Q1286.25 1517.37 1284.42 1520.93 Q1282.61 1524.47 1282.61 1531.6 Q1282.61 1538.71 1284.42 1542.27 Q1286.25 1545.82 1289.86 1545.82 Q1293.49 1545.82 1295.3 1542.27 Q1297.13 1538.71 1297.13 1531.6 Q1297.13 1524.47 1295.3 1520.93 Q1293.49 1517.37 1289.86 1517.37 M1289.86 1513.66 Q1295.67 1513.66 1298.72 1518.27 Q1301.8 1522.85 1301.8 1531.6 Q1301.8 1540.33 1298.72 1544.94 Q1295.67 1549.52 1289.86 1549.52 Q1284.05 1549.52 1280.97 1544.94 Q1277.91 1540.33 1277.91 1531.6 Q1277.91 1522.85 1280.97 1518.27 Q1284.05 1513.66 1289.86 1513.66 Z" fill="#000000" fill-rule="evenodd" fill-opacity="1" /><path clip-path="url(#clip340)" d="M1310.83 1544.91 L1318.47 1544.91 L1318.47 1518.55 L1310.16 1520.21 L1310.16 1515.95 L1318.42 1514.29 L1323.1 1514.29 L1323.1 1544.91 L1330.74 1544.91 L1330.74 1548.85 L1310.83 1548.85 L1310.83 1544.91 Z" fill="#000000" fill-rule="evenodd" fill-opacity="1" /><path clip-path="url(#clip340)" d="M1340.99 1544.91 L1348.63 1544.91 L1348.63 1518.55 L1340.32 1520.21 L1340.32 1515.95 L1348.59 1514.29 L1353.26 1514.29 L1353.26 1544.91 L1360.9 1544.91 L1360.9 1548.85 L1340.99 1548.85 L1340.99 1544.91 Z" fill="#000000" fill-rule="evenodd" fill-opacity="1" /><path clip-path="url(#clip340)" d="M1367.59 1533.96 L1380.07 1533.96 L1380.07 1537.76 L1367.59 1537.76 L1367.59 1533.96 Z" fill="#000000" fill-rule="evenodd" fill-opacity="1" /><path clip-path="url(#clip340)" d="M1397.45 1517.37 Q1393.84 1517.37 1392.01 1520.93 Q1390.21 1524.47 1390.21 1531.6 Q1390.21 1538.71 1392.01 1542.27 Q1393.84 1545.82 1397.45 1545.82 Q1401.09 1545.82 1402.89 1542.27 Q1404.72 1538.71 1404.72 1531.6 Q1404.72 1524.47 1402.89 1520.93 Q1401.09 1517.37 1397.45 1517.37 M1397.45 1513.66 Q1403.26 1513.66 1406.32 1518.27 Q1409.4 1522.85 1409.4 1531.6 Q1409.4 1540.33 1406.32 1544.94 Q1403.26 1549.52 1397.45 1549.52 Q1391.64 1549.52 1388.56 1544.94 Q1385.51 1540.33 1385.51 1531.6 Q1385.51 1522.85 1388.56 1518.27 Q1391.64 1513.66 1397.45 1513.66 Z" fill="#000000" fill-rule="evenodd" fill-opacity="1" /><path clip-path="url(#clip340)" d="M1418.42 1544.91 L1426.06 1544.91 L1426.06 1518.55 L1417.75 1520.21 L1417.75 1515.95 L1426.02 1514.29 L1430.69 1514.29 L1430.69 1544.91 L1438.33 1544.91 L1438.33 1548.85 L1418.42 1548.85 L1418.42 1544.91 Z" fill="#000000" fill-rule="evenodd" fill-opacity="1" /><path clip-path="url(#clip340)" d="M1445.02 1533.96 L1457.5 1533.96 L1457.5 1537.76 L1445.02 1537.76 L1445.02 1533.96 Z" fill="#000000" fill-rule="evenodd" fill-opacity="1" /><path clip-path="url(#clip340)" d="M1474.88 1517.37 Q1471.27 1517.37 1469.44 1520.93 Q1467.64 1524.47 1467.64 1531.6 Q1467.64 1538.71 1469.44 1542.27 Q1471.27 1545.82 1474.88 1545.82 Q1478.52 1545.82 1480.32 1542.27 Q1482.15 1538.71 1482.15 1531.6 Q1482.15 1524.47 1480.32 1520.93 Q1478.52 1517.37 1474.88 1517.37 M1474.88 1513.66 Q1480.69 1513.66 1483.75 1518.27 Q1486.83 1522.85 1486.83 1531.6 Q1486.83 1540.33 1483.75 1544.94 Q1480.69 1549.52 1474.88 1549.52 Q1469.07 1549.52 1465.99 1544.94 Q1462.94 1540.33 1462.94 1531.6 Q1462.94 1522.85 1465.99 1518.27 Q1469.07 1513.66 1474.88 1513.66 Z" fill="#000000" fill-rule="evenodd" fill-opacity="1" /><path clip-path="url(#clip340)" d="M1495.85 1544.91 L1503.49 1544.91 L1503.49 1518.55 L1495.18 1520.21 L1495.18 1515.95 L1503.45 1514.29 L1508.12 1514.29 L1508.12 1544.91 L1515.76 1544.91 L1515.76 1548.85 L1495.85 1548.85 L1495.85 1544.91 Z" fill="#000000" fill-rule="evenodd" fill-opacity="1" /><path clip-path="url(#clip340)" d="M1825.16 1544.91 L1841.48 1544.91 L1841.48 1548.85 L1819.54 1548.85 L1819.54 1544.91 Q1822.2 1542.16 1826.78 1537.53 Q1831.39 1532.88 1832.57 1531.53 Q1834.82 1529.01 1835.7 1527.27 Q1836.6 1525.51 1836.6 1523.82 Q1836.6 1521.07 1834.65 1519.33 Q1832.73 1517.6 1829.63 1517.6 Q1827.43 1517.6 1824.98 1518.36 Q1822.55 1519.13 1819.77 1520.68 L1819.77 1515.95 Q1822.59 1514.82 1825.05 1514.24 Q1827.5 1513.66 1829.54 1513.66 Q1834.91 1513.66 1838.1 1516.35 Q1841.3 1519.03 1841.3 1523.52 Q1841.3 1525.65 1840.49 1527.57 Q1839.7 1529.47 1837.59 1532.07 Q1837.02 1532.74 1833.91 1535.95 Q1830.81 1539.15 1825.16 1544.91 Z" fill="#000000" fill-rule="evenodd" fill-opacity="1" /><path clip-path="url(#clip340)" d="M1861.3 1517.37 Q1857.69 1517.37 1855.86 1520.93 Q1854.05 1524.47 1854.05 1531.6 Q1854.05 1538.71 1855.86 1542.27 Q1857.69 1545.82 1861.3 1545.82 Q1864.93 1545.82 1866.74 1542.27 Q1868.57 1538.71 1868.57 1531.6 Q1868.57 1524.47 1866.74 1520.93 Q1864.93 1517.37 1861.3 1517.37 M1861.3 1513.66 Q1867.11 1513.66 1870.16 1518.27 Q1873.24 1522.85 1873.24 1531.6 Q1873.24 1540.33 1870.16 1544.94 Q1867.11 1549.52 1861.3 1549.52 Q1855.49 1549.52 1852.41 1544.94 Q1849.35 1540.33 1849.35 1531.6 Q1849.35 1522.85 1852.41 1518.27 Q1855.49 1513.66 1861.3 1513.66 Z" fill="#000000" fill-rule="evenodd" fill-opacity="1" /><path clip-path="url(#clip340)" d="M1882.27 1544.91 L1889.91 1544.91 L1889.91 1518.55 L1881.6 1520.21 L1881.6 1515.95 L1889.86 1514.29 L1894.54 1514.29 L1894.54 1544.91 L1902.18 1544.91 L1902.18 1548.85 L1882.27 1548.85 L1882.27 1544.91 Z" fill="#000000" fill-rule="evenodd" fill-opacity="1" /><path clip-path="url(#clip340)" d="M1922.2 1529.7 Q1919.05 1529.7 1917.2 1531.86 Q1915.37 1534.01 1915.37 1537.76 Q1915.37 1541.49 1917.2 1543.66 Q1919.05 1545.82 1922.2 1545.82 Q1925.35 1545.82 1927.18 1543.66 Q1929.03 1541.49 1929.03 1537.76 Q1929.03 1534.01 1927.18 1531.86 Q1925.35 1529.7 1922.2 1529.7 M1931.48 1515.05 L1931.48 1519.31 Q1929.72 1518.48 1927.92 1518.04 Q1926.14 1517.6 1924.38 1517.6 Q1919.75 1517.6 1917.29 1520.72 Q1914.86 1523.85 1914.51 1530.17 Q1915.88 1528.15 1917.94 1527.09 Q1920 1526 1922.48 1526 Q1927.69 1526 1930.7 1529.17 Q1933.73 1532.32 1933.73 1537.76 Q1933.73 1543.08 1930.58 1546.3 Q1927.43 1549.52 1922.2 1549.52 Q1916.2 1549.52 1913.03 1544.94 Q1909.86 1540.33 1909.86 1531.6 Q1909.86 1523.41 1913.75 1518.55 Q1917.64 1513.66 1924.19 1513.66 Q1925.95 1513.66 1927.73 1514.01 Q1929.54 1514.36 1931.48 1515.05 Z" fill="#000000" fill-rule="evenodd" fill-opacity="1" /><path clip-path="url(#clip340)" d="M1939.03 1533.96 L1951.51 1533.96 L1951.51 1537.76 L1939.03 1537.76 L1939.03 1533.96 Z" fill="#000000" fill-rule="evenodd" fill-opacity="1" /><path clip-path="url(#clip340)" d="M1968.89 1517.37 Q1965.28 1517.37 1963.45 1520.93 Q1961.64 1524.47 1961.64 1531.6 Q1961.64 1538.71 1963.45 1542.27 Q1965.28 1545.82 1968.89 1545.82 Q1972.52 1545.82 1974.33 1542.27 Q1976.16 1538.71 1976.16 1531.6 Q1976.16 1524.47 1974.33 1520.93 Q1972.52 1517.37 1968.89 1517.37 M1968.89 1513.66 Q1974.7 1513.66 1977.76 1518.27 Q1980.83 1522.85 1980.83 1531.6 Q1980.83 1540.33 1977.76 1544.94 Q1974.7 1549.52 1968.89 1549.52 Q1963.08 1549.52 1960 1544.94 Q1956.95 1540.33 1956.95 1531.6 Q1956.95 1522.85 1960 1518.27 Q1963.08 1513.66 1968.89 1513.66 Z" fill="#000000" fill-rule="evenodd" fill-opacity="1" /><path clip-path="url(#clip340)" d="M1989.86 1544.91 L1997.5 1544.91 L1997.5 1518.55 L1989.19 1520.21 L1989.19 1515.95 L1997.45 1514.29 L2002.13 1514.29 L2002.13 1544.91 L2009.77 1544.91 L2009.77 1548.85 L1989.86 1548.85 L1989.86 1544.91 Z" fill="#000000" fill-rule="evenodd" fill-opacity="1" /><path clip-path="url(#clip340)" d="M2016.46 1533.96 L2028.94 1533.96 L2028.94 1537.76 L2016.46 1537.76 L2016.46 1533.96 Z" fill="#000000" fill-rule="evenodd" fill-opacity="1" /><path clip-path="url(#clip340)" d="M2046.32 1517.37 Q2042.71 1517.37 2040.88 1520.93 Q2039.07 1524.47 2039.07 1531.6 Q2039.07 1538.71 2040.88 1542.27 Q2042.71 1545.82 2046.32 1545.82 Q2049.95 1545.82 2051.76 1542.27 Q2053.59 1538.71 2053.59 1531.6 Q2053.59 1524.47 2051.76 1520.93 Q2049.95 1517.37 2046.32 1517.37 M2046.32 1513.66 Q2052.13 1513.66 2055.19 1518.27 Q2058.26 1522.85 2058.26 1531.6 Q2058.26 1540.33 2055.19 1544.94 Q2052.13 1549.52 2046.32 1549.52 Q2040.51 1549.52 2037.43 1544.94 Q2034.38 1540.33 2034.38 1531.6 Q2034.38 1522.85 2037.43 1518.27 Q2040.51 1513.66 2046.32 1513.66 Z" fill="#000000" fill-rule="evenodd" fill-opacity="1" /><path clip-path="url(#clip340)" d="M2067.29 1544.91 L2074.93 1544.91 L2074.93 1518.55 L2066.62 1520.21 L2066.62 1515.95 L2074.88 1514.29 L2079.56 1514.29 L2079.56 1544.91 L2087.2 1544.91 L2087.2 1548.85 L2067.29 1548.85 L2067.29 1544.91 Z" fill="#000000" fill-rule="evenodd" fill-opacity="1" /><polyline clip-path="url(#clip342)" style="stroke:#000000; stroke-linecap:butt; stroke-linejoin:round; stroke-width:2; stroke-opacity:0.1; fill:none" points="
  172.015,1447.87 2352.76,1447.87 
  "/>
<polyline clip-path="url(#clip342)" style="stroke:#000000; stroke-linecap:butt; stroke-linejoin:round; stroke-width:2; stroke-opacity:0.1; fill:none" points="
  172.015,1121.52 2352.76,1121.52 
  "/>
<polyline clip-path="url(#clip342)" style="stroke:#000000; stroke-linecap:butt; stroke-linejoin:round; stroke-width:2; stroke-opacity:0.1; fill:none" points="
  172.015,795.169 2352.76,795.169 
  "/>
<polyline clip-path="url(#clip342)" style="stroke:#000000; stroke-linecap:butt; stroke-linejoin:round; stroke-width:2; stroke-opacity:0.1; fill:none" points="
  172.015,468.818 2352.76,468.818 
  "/>
<polyline clip-path="url(#clip342)" style="stroke:#000000; stroke-linecap:butt; stroke-linejoin:round; stroke-width:2; stroke-opacity:0.1; fill:none" points="
  172.015,142.466 2352.76,142.466 
  "/>
<polyline clip-path="url(#clip340)" style="stroke:#000000; stroke-linecap:butt; stroke-linejoin:round; stroke-width:4; stroke-opacity:1; fill:none" points="
  172.015,1486.45 172.015,123.472 
  "/>
<polyline clip-path="url(#clip340)" style="stroke:#000000; stroke-linecap:butt; stroke-linejoin:round; stroke-width:4; stroke-opacity:1; fill:none" points="
  172.015,1447.87 190.912,1447.87 
  "/>
<polyline clip-path="url(#clip340)" style="stroke:#000000; stroke-linecap:butt; stroke-linejoin:round; stroke-width:4; stroke-opacity:1; fill:none" points="
  172.015,1121.52 190.912,1121.52 
  "/>
<polyline clip-path="url(#clip340)" style="stroke:#000000; stroke-linecap:butt; stroke-linejoin:round; stroke-width:4; stroke-opacity:1; fill:none" points="
  172.015,795.169 190.912,795.169 
  "/>
<polyline clip-path="url(#clip340)" style="stroke:#000000; stroke-linecap:butt; stroke-linejoin:round; stroke-width:4; stroke-opacity:1; fill:none" points="
  172.015,468.818 190.912,468.818 
  "/>
<polyline clip-path="url(#clip340)" style="stroke:#000000; stroke-linecap:butt; stroke-linejoin:round; stroke-width:4; stroke-opacity:1; fill:none" points="
  172.015,142.466 190.912,142.466 
  "/>
<path clip-path="url(#clip340)" d="M124.07 1433.67 Q120.459 1433.67 118.631 1437.24 Q116.825 1440.78 116.825 1447.91 Q116.825 1455.01 118.631 1458.58 Q120.459 1462.12 124.07 1462.12 Q127.705 1462.12 129.51 1458.58 Q131.339 1455.01 131.339 1447.91 Q131.339 1440.78 129.51 1437.24 Q127.705 1433.67 124.07 1433.67 M124.07 1429.97 Q129.881 1429.97 132.936 1434.57 Q136.015 1439.16 136.015 1447.91 Q136.015 1456.63 132.936 1461.24 Q129.881 1465.82 124.07 1465.82 Q118.26 1465.82 115.182 1461.24 Q112.126 1456.63 112.126 1447.91 Q112.126 1439.16 115.182 1434.57 Q118.26 1429.97 124.07 1429.97 Z" fill="#000000" fill-rule="evenodd" fill-opacity="1" /><path clip-path="url(#clip340)" d="M54.5569 1134.87 L62.1958 1134.87 L62.1958 1108.5 L53.8856 1110.17 L53.8856 1105.91 L62.1495 1104.24 L66.8254 1104.24 L66.8254 1134.87 L74.4642 1134.87 L74.4642 1138.8 L54.5569 1138.8 L54.5569 1134.87 Z" fill="#000000" fill-rule="evenodd" fill-opacity="1" /><path clip-path="url(#clip340)" d="M93.9086 1107.32 Q90.2975 1107.32 88.4688 1110.88 Q86.6632 1114.43 86.6632 1121.56 Q86.6632 1128.66 88.4688 1132.23 Q90.2975 1135.77 93.9086 1135.77 Q97.5428 1135.77 99.3483 1132.23 Q101.177 1128.66 101.177 1121.56 Q101.177 1114.43 99.3483 1110.88 Q97.5428 1107.32 93.9086 1107.32 M93.9086 1103.62 Q99.7187 1103.62 102.774 1108.22 Q105.853 1112.81 105.853 1121.56 Q105.853 1130.28 102.774 1134.89 Q99.7187 1139.47 93.9086 1139.47 Q88.0984 1139.47 85.0197 1134.89 Q81.9642 1130.28 81.9642 1121.56 Q81.9642 1112.81 85.0197 1108.22 Q88.0984 1103.62 93.9086 1103.62 Z" fill="#000000" fill-rule="evenodd" fill-opacity="1" /><path clip-path="url(#clip340)" d="M124.07 1107.32 Q120.459 1107.32 118.631 1110.88 Q116.825 1114.43 116.825 1121.56 Q116.825 1128.66 118.631 1132.23 Q120.459 1135.77 124.07 1135.77 Q127.705 1135.77 129.51 1132.23 Q131.339 1128.66 131.339 1121.56 Q131.339 1114.43 129.51 1110.88 Q127.705 1107.32 124.07 1107.32 M124.07 1103.62 Q129.881 1103.62 132.936 1108.22 Q136.015 1112.81 136.015 1121.56 Q136.015 1130.28 132.936 1134.89 Q129.881 1139.47 124.07 1139.47 Q118.26 1139.47 115.182 1134.89 Q112.126 1130.28 112.126 1121.56 Q112.126 1112.81 115.182 1108.22 Q118.26 1103.62 124.07 1103.62 Z" fill="#000000" fill-rule="evenodd" fill-opacity="1" /><path clip-path="url(#clip340)" d="M57.7745 808.514 L74.0939 808.514 L74.0939 812.449 L52.1495 812.449 L52.1495 808.514 Q54.8115 805.76 59.3949 801.13 Q64.0013 796.477 65.1819 795.135 Q67.4272 792.612 68.3068 790.875 Q69.2096 789.116 69.2096 787.426 Q69.2096 784.672 67.2652 782.936 Q65.3439 781.2 62.2421 781.2 Q60.043 781.2 57.5893 781.963 Q55.1588 782.727 52.381 784.278 L52.381 779.556 Q55.2051 778.422 57.6588 777.843 Q60.1124 777.264 62.1495 777.264 Q67.5198 777.264 70.7142 779.95 Q73.9087 782.635 73.9087 787.126 Q73.9087 789.255 73.0985 791.176 Q72.3115 793.075 70.205 795.667 Q69.6263 796.338 66.5245 799.556 Q63.4226 802.75 57.7745 808.514 Z" fill="#000000" fill-rule="evenodd" fill-opacity="1" /><path clip-path="url(#clip340)" d="M93.9086 780.968 Q90.2975 780.968 88.4688 784.533 Q86.6632 788.075 86.6632 795.204 Q86.6632 802.311 88.4688 805.875 Q90.2975 809.417 93.9086 809.417 Q97.5428 809.417 99.3483 805.875 Q101.177 802.311 101.177 795.204 Q101.177 788.075 99.3483 784.533 Q97.5428 780.968 93.9086 780.968 M93.9086 777.264 Q99.7187 777.264 102.774 781.871 Q105.853 786.454 105.853 795.204 Q105.853 803.931 102.774 808.537 Q99.7187 813.121 93.9086 813.121 Q88.0984 813.121 85.0197 808.537 Q81.9642 803.931 81.9642 795.204 Q81.9642 786.454 85.0197 781.871 Q88.0984 777.264 93.9086 777.264 Z" fill="#000000" fill-rule="evenodd" fill-opacity="1" /><path clip-path="url(#clip340)" d="M124.07 780.968 Q120.459 780.968 118.631 784.533 Q116.825 788.075 116.825 795.204 Q116.825 802.311 118.631 805.875 Q120.459 809.417 124.07 809.417 Q127.705 809.417 129.51 805.875 Q131.339 802.311 131.339 795.204 Q131.339 788.075 129.51 784.533 Q127.705 780.968 124.07 780.968 M124.07 777.264 Q129.881 777.264 132.936 781.871 Q136.015 786.454 136.015 795.204 Q136.015 803.931 132.936 808.537 Q129.881 813.121 124.07 813.121 Q118.26 813.121 115.182 808.537 Q112.126 803.931 112.126 795.204 Q112.126 786.454 115.182 781.871 Q118.26 777.264 124.07 777.264 Z" fill="#000000" fill-rule="evenodd" fill-opacity="1" /><path clip-path="url(#clip340)" d="M67.9133 467.463 Q71.2698 468.181 73.1448 470.45 Q75.0429 472.718 75.0429 476.051 Q75.0429 481.167 71.5244 483.968 Q68.0059 486.769 61.5245 486.769 Q59.3486 486.769 57.0338 486.329 Q54.7421 485.912 52.2884 485.056 L52.2884 480.542 Q54.2328 481.676 56.5477 482.255 Q58.8625 482.834 61.3856 482.834 Q65.7837 482.834 68.0754 481.098 Q70.3902 479.362 70.3902 476.051 Q70.3902 472.996 68.2374 471.283 Q66.1078 469.547 62.2884 469.547 L58.2606 469.547 L58.2606 465.704 L62.4735 465.704 Q65.9226 465.704 67.7513 464.338 Q69.58 462.95 69.58 460.357 Q69.58 457.695 67.6819 456.283 Q65.8069 454.848 62.2884 454.848 Q60.3671 454.848 58.168 455.264 Q55.969 455.681 53.3301 456.561 L53.3301 452.394 Q55.9921 451.653 58.3069 451.283 Q60.6449 450.913 62.705 450.913 Q68.0291 450.913 71.1309 453.343 Q74.2327 455.751 74.2327 459.871 Q74.2327 462.741 72.5892 464.732 Q70.9457 466.7 67.9133 467.463 Z" fill="#000000" fill-rule="evenodd" fill-opacity="1" /><path clip-path="url(#clip340)" d="M93.9086 454.616 Q90.2975 454.616 88.4688 458.181 Q86.6632 461.723 86.6632 468.852 Q86.6632 475.959 88.4688 479.524 Q90.2975 483.065 93.9086 483.065 Q97.5428 483.065 99.3483 479.524 Q101.177 475.959 101.177 468.852 Q101.177 461.723 99.3483 458.181 Q97.5428 454.616 93.9086 454.616 M93.9086 450.913 Q99.7187 450.913 102.774 455.519 Q105.853 460.102 105.853 468.852 Q105.853 477.579 102.774 482.186 Q99.7187 486.769 93.9086 486.769 Q88.0984 486.769 85.0197 482.186 Q81.9642 477.579 81.9642 468.852 Q81.9642 460.102 85.0197 455.519 Q88.0984 450.913 93.9086 450.913 Z" fill="#000000" fill-rule="evenodd" fill-opacity="1" /><path clip-path="url(#clip340)" d="M124.07 454.616 Q120.459 454.616 118.631 458.181 Q116.825 461.723 116.825 468.852 Q116.825 475.959 118.631 479.524 Q120.459 483.065 124.07 483.065 Q127.705 483.065 129.51 479.524 Q131.339 475.959 131.339 468.852 Q131.339 461.723 129.51 458.181 Q127.705 454.616 124.07 454.616 M124.07 450.913 Q129.881 450.913 132.936 455.519 Q136.015 460.102 136.015 468.852 Q136.015 477.579 132.936 482.186 Q129.881 486.769 124.07 486.769 Q118.26 486.769 115.182 482.186 Q112.126 477.579 112.126 468.852 Q112.126 460.102 115.182 455.519 Q118.26 450.913 124.07 450.913 Z" fill="#000000" fill-rule="evenodd" fill-opacity="1" /><path clip-path="url(#clip340)" d="M66.5939 129.26 L54.7884 147.709 L66.5939 147.709 L66.5939 129.26 M65.367 125.186 L71.2466 125.186 L71.2466 147.709 L76.1772 147.709 L76.1772 151.598 L71.2466 151.598 L71.2466 159.746 L66.5939 159.746 L66.5939 151.598 L50.9921 151.598 L50.9921 147.084 L65.367 125.186 Z" fill="#000000" fill-rule="evenodd" fill-opacity="1" /><path clip-path="url(#clip340)" d="M93.9086 128.264 Q90.2975 128.264 88.4688 131.829 Q86.6632 135.371 86.6632 142.501 Q86.6632 149.607 88.4688 153.172 Q90.2975 156.713 93.9086 156.713 Q97.5428 156.713 99.3483 153.172 Q101.177 149.607 101.177 142.501 Q101.177 135.371 99.3483 131.829 Q97.5428 128.264 93.9086 128.264 M93.9086 124.561 Q99.7187 124.561 102.774 129.167 Q105.853 133.751 105.853 142.501 Q105.853 151.227 102.774 155.834 Q99.7187 160.417 93.9086 160.417 Q88.0984 160.417 85.0197 155.834 Q81.9642 151.227 81.9642 142.501 Q81.9642 133.751 85.0197 129.167 Q88.0984 124.561 93.9086 124.561 Z" fill="#000000" fill-rule="evenodd" fill-opacity="1" /><path clip-path="url(#clip340)" d="M124.07 128.264 Q120.459 128.264 118.631 131.829 Q116.825 135.371 116.825 142.501 Q116.825 149.607 118.631 153.172 Q120.459 156.713 124.07 156.713 Q127.705 156.713 129.51 153.172 Q131.339 149.607 131.339 142.501 Q131.339 135.371 129.51 131.829 Q127.705 128.264 124.07 128.264 M124.07 124.561 Q129.881 124.561 132.936 129.167 Q136.015 133.751 136.015 142.501 Q136.015 151.227 132.936 155.834 Q129.881 160.417 124.07 160.417 Q118.26 160.417 115.182 155.834 Q112.126 151.227 112.126 142.501 Q112.126 133.751 115.182 129.167 Q118.26 124.561 124.07 124.561 Z" fill="#000000" fill-rule="evenodd" fill-opacity="1" /><path clip-path="url(#clip340)" d="M626.839 12.096 L635.022 12.096 L635.022 37.6572 L662.163 12.096 L672.695 12.096 L642.678 40.2903 L674.842 72.576 L664.067 72.576 L635.022 43.45 L635.022 72.576 L626.839 72.576 L626.839 12.096 Z" fill="#000000" fill-rule="evenodd" fill-opacity="1" /><path clip-path="url(#clip340)" d="M680.919 27.2059 L688.372 27.2059 L688.372 72.576 L680.919 72.576 L680.919 27.2059 M680.919 9.54393 L688.372 9.54393 L688.372 18.9825 L680.919 18.9825 L680.919 9.54393 Z" fill="#000000" fill-rule="evenodd" fill-opacity="1" /><path clip-path="url(#clip340)" d="M703.968 9.54393 L711.422 9.54393 L711.422 72.576 L703.968 72.576 L703.968 9.54393 Z" fill="#000000" fill-rule="evenodd" fill-opacity="1" /><path clip-path="url(#clip340)" d="M727.018 9.54393 L734.472 9.54393 L734.472 72.576 L727.018 72.576 L727.018 9.54393 Z" fill="#000000" fill-rule="evenodd" fill-opacity="1" /><path clip-path="url(#clip340)" d="M750.068 27.2059 L757.521 27.2059 L757.521 72.576 L750.068 72.576 L750.068 27.2059 M750.068 9.54393 L757.521 9.54393 L757.521 18.9825 L750.068 18.9825 L750.068 9.54393 Z" fill="#000000" fill-rule="evenodd" fill-opacity="1" /><path clip-path="url(#clip340)" d="M810.831 45.1919 L810.831 72.576 L803.377 72.576 L803.377 45.4349 Q803.377 38.994 800.866 35.7938 Q798.354 32.5936 793.331 32.5936 Q787.295 32.5936 783.812 36.4419 Q780.328 40.2903 780.328 46.9338 L780.328 72.576 L772.834 72.576 L772.834 27.2059 L780.328 27.2059 L780.328 34.2544 Q783.001 30.163 786.607 28.1376 Q790.252 26.1121 794.992 26.1121 Q802.81 26.1121 806.821 30.9732 Q810.831 35.7938 810.831 45.1919 Z" fill="#000000" fill-rule="evenodd" fill-opacity="1" /><path clip-path="url(#clip340)" d="M855.553 49.3643 Q855.553 41.2625 852.191 36.8065 Q848.869 32.3505 842.833 32.3505 Q836.838 32.3505 833.476 36.8065 Q830.154 41.2625 830.154 49.3643 Q830.154 57.4256 833.476 61.8816 Q836.838 66.3376 842.833 66.3376 Q848.869 66.3376 852.191 61.8816 Q855.553 57.4256 855.553 49.3643 M863.007 66.9452 Q863.007 78.5308 857.862 84.1616 Q852.717 89.8329 842.104 89.8329 Q838.175 89.8329 834.691 89.2252 Q831.207 88.6581 827.926 87.4428 L827.926 80.1917 Q831.207 81.9741 834.407 82.8248 Q837.608 83.6755 840.929 83.6755 Q848.261 83.6755 851.907 79.8271 Q855.553 76.0193 855.553 68.282 L855.553 64.5957 Q853.244 68.6061 849.639 70.5911 Q846.033 72.576 841.01 72.576 Q832.665 72.576 827.561 66.2161 Q822.457 59.8562 822.457 49.3643 Q822.457 38.832 827.561 32.472 Q832.665 26.1121 841.01 26.1121 Q846.033 26.1121 849.639 28.0971 Q853.244 30.082 855.553 34.0924 L855.553 27.2059 L863.007 27.2059 L863.007 66.9452 Z" fill="#000000" fill-rule="evenodd" fill-opacity="1" /><path clip-path="url(#clip340)" d="M907.283 28.5427 L907.283 35.5912 Q904.123 33.9709 900.721 33.1607 Q897.318 32.3505 893.672 32.3505 Q888.122 32.3505 885.327 34.0519 Q882.573 35.7533 882.573 39.156 Q882.573 41.7486 884.558 43.2475 Q886.542 44.7058 892.538 46.0426 L895.09 46.6097 Q903.03 48.3111 906.351 51.4303 Q909.714 54.509 909.714 60.0587 Q909.714 66.3781 904.691 70.0644 Q899.708 73.7508 890.958 73.7508 Q887.312 73.7508 883.342 73.0216 Q879.413 72.3329 875.038 70.9151 L875.038 63.2184 Q879.17 65.3654 883.18 66.4591 Q887.191 67.5124 891.12 67.5124 Q896.386 67.5124 899.222 65.73 Q902.057 63.9071 902.057 60.6258 Q902.057 57.5877 899.991 55.9673 Q897.966 54.3469 891.039 52.8481 L888.446 52.2405 Q881.519 50.7821 878.441 47.7845 Q875.362 44.7463 875.362 39.4801 Q875.362 33.0797 879.899 29.5959 Q884.436 26.1121 892.781 26.1121 Q896.913 26.1121 900.559 26.7198 Q904.204 27.3274 907.283 28.5427 Z" fill="#000000" fill-rule="evenodd" fill-opacity="1" /><path clip-path="url(#clip340)" d="M942.607 27.2059 L950.506 27.2059 L964.684 65.2844 L978.863 27.2059 L986.762 27.2059 L969.748 72.576 L959.621 72.576 L942.607 27.2059 Z" fill="#000000" fill-rule="evenodd" fill-opacity="1" /><path clip-path="url(#clip340)" d="M997.051 27.2059 L1004.5 27.2059 L1004.5 72.576 L997.051 72.576 L997.051 27.2059 M997.051 9.54393 L1004.5 9.54393 L1004.5 18.9825 L997.051 18.9825 L997.051 9.54393 Z" fill="#000000" fill-rule="evenodd" fill-opacity="1" /><path clip-path="url(#clip340)" d="M1040.72 49.7694 Q1031.69 49.7694 1028.2 51.8354 Q1024.72 53.9013 1024.72 58.8839 Q1024.72 62.8538 1027.31 65.2034 Q1029.94 67.5124 1034.44 67.5124 Q1040.64 67.5124 1044.37 63.1374 Q1048.13 58.7219 1048.13 51.4303 L1048.13 49.7694 L1040.72 49.7694 M1055.59 46.6907 L1055.59 72.576 L1048.13 72.576 L1048.13 65.6895 Q1045.58 69.8214 1041.77 71.8063 Q1037.97 73.7508 1032.46 73.7508 Q1025.49 73.7508 1021.36 69.8619 Q1017.27 65.9325 1017.27 59.3701 Q1017.27 51.7138 1022.37 47.825 Q1027.51 43.9361 1037.68 43.9361 L1048.13 43.9361 L1048.13 43.2069 Q1048.13 38.0623 1044.73 35.2672 Q1041.37 32.4315 1035.25 32.4315 Q1031.36 32.4315 1027.68 33.3632 Q1023.99 34.295 1020.59 36.1584 L1020.59 29.2718 Q1024.68 27.692 1028.53 26.9223 Q1032.38 26.1121 1036.02 26.1121 Q1045.86 26.1121 1050.73 31.2163 Q1055.59 36.3204 1055.59 46.6907 Z" fill="#000000" fill-rule="evenodd" fill-opacity="1" /><path clip-path="url(#clip340)" d="M1113.23 72.576 L1090.14 12.096 L1098.69 12.096 L1117.85 63.0159 L1137.05 12.096 L1145.56 12.096 L1122.51 72.576 L1113.23 72.576 Z" fill="#000000" fill-rule="evenodd" fill-opacity="1" /><path clip-path="url(#clip340)" d="M1168.24 49.7694 Q1159.21 49.7694 1155.73 51.8354 Q1152.24 53.9013 1152.24 58.8839 Q1152.24 62.8538 1154.83 65.2034 Q1157.47 67.5124 1161.96 67.5124 Q1168.16 67.5124 1171.89 63.1374 Q1175.66 58.7219 1175.66 51.4303 L1175.66 49.7694 L1168.24 49.7694 M1183.11 46.6907 L1183.11 72.576 L1175.66 72.576 L1175.66 65.6895 Q1173.1 69.8214 1169.3 71.8063 Q1165.49 73.7508 1159.98 73.7508 Q1153.01 73.7508 1148.88 69.8619 Q1144.79 65.9325 1144.79 59.3701 Q1144.79 51.7138 1149.89 47.825 Q1155.04 43.9361 1165.2 43.9361 L1175.66 43.9361 L1175.66 43.2069 Q1175.66 38.0623 1172.25 35.2672 Q1168.89 32.4315 1162.77 32.4315 Q1158.88 32.4315 1155.2 33.3632 Q1151.51 34.295 1148.11 36.1584 L1148.11 29.2718 Q1152.2 27.692 1156.05 26.9223 Q1159.9 26.1121 1163.54 26.1121 Q1173.39 26.1121 1178.25 31.2163 Q1183.11 36.3204 1183.11 46.6907 Z" fill="#000000" fill-rule="evenodd" fill-opacity="1" /><path clip-path="url(#clip340)" d="M1224.75 34.1734 Q1223.5 33.4443 1222 33.1202 Q1220.54 32.7556 1218.76 32.7556 Q1212.44 32.7556 1209.03 36.8875 Q1205.67 40.9789 1205.67 48.6757 L1205.67 72.576 L1198.18 72.576 L1198.18 27.2059 L1205.67 27.2059 L1205.67 34.2544 Q1208.02 30.1225 1211.79 28.1376 Q1215.56 26.1121 1220.94 26.1121 Q1221.71 26.1121 1222.65 26.2337 Q1223.58 26.3147 1224.71 26.5172 L1224.75 34.1734 Z" fill="#000000" fill-rule="evenodd" fill-opacity="1" /><path clip-path="url(#clip340)" d="M1232.57 27.2059 L1240.02 27.2059 L1240.02 72.576 L1232.57 72.576 L1232.57 27.2059 M1232.57 9.54393 L1240.02 9.54393 L1240.02 18.9825 L1232.57 18.9825 L1232.57 9.54393 Z" fill="#000000" fill-rule="evenodd" fill-opacity="1" /><path clip-path="url(#clip340)" d="M1273.2 32.4315 Q1267.21 32.4315 1263.72 37.1306 Q1260.24 41.7891 1260.24 49.9314 Q1260.24 58.0738 1263.68 62.7728 Q1267.17 67.4314 1273.2 67.4314 Q1279.16 67.4314 1282.64 62.7323 Q1286.12 58.0333 1286.12 49.9314 Q1286.12 41.8701 1282.64 37.1711 Q1279.16 32.4315 1273.2 32.4315 M1273.2 26.1121 Q1282.92 26.1121 1288.47 32.4315 Q1294.02 38.7509 1294.02 49.9314 Q1294.02 61.0714 1288.47 67.4314 Q1282.92 73.7508 1273.2 73.7508 Q1263.44 73.7508 1257.89 67.4314 Q1252.38 61.0714 1252.38 49.9314 Q1252.38 38.7509 1257.89 32.4315 Q1263.44 26.1121 1273.2 26.1121 Z" fill="#000000" fill-rule="evenodd" fill-opacity="1" /><path clip-path="url(#clip340)" d="M1305.61 54.671 L1305.61 27.2059 L1313.06 27.2059 L1313.06 54.3874 Q1313.06 60.8284 1315.57 64.0691 Q1318.09 67.2693 1323.11 67.2693 Q1329.14 67.2693 1332.63 63.421 Q1336.15 59.5726 1336.15 52.9291 L1336.15 27.2059 L1343.61 27.2059 L1343.61 72.576 L1336.15 72.576 L1336.15 65.6084 Q1333.44 69.7404 1329.83 71.7658 Q1326.27 73.7508 1321.53 73.7508 Q1313.71 73.7508 1309.66 68.8897 Q1305.61 64.0286 1305.61 54.671 M1324.36 26.1121 L1324.36 26.1121 Z" fill="#000000" fill-rule="evenodd" fill-opacity="1" /><path clip-path="url(#clip340)" d="M1387.88 28.5427 L1387.88 35.5912 Q1384.72 33.9709 1381.32 33.1607 Q1377.92 32.3505 1374.27 32.3505 Q1368.72 32.3505 1365.93 34.0519 Q1363.17 35.7533 1363.17 39.156 Q1363.17 41.7486 1365.16 43.2475 Q1367.14 44.7058 1373.14 46.0426 L1375.69 46.6097 Q1383.63 48.3111 1386.95 51.4303 Q1390.31 54.509 1390.31 60.0587 Q1390.31 66.3781 1385.29 70.0644 Q1380.31 73.7508 1371.56 73.7508 Q1367.91 73.7508 1363.94 73.0216 Q1360.01 72.3329 1355.64 70.9151 L1355.64 63.2184 Q1359.77 65.3654 1363.78 66.4591 Q1367.79 67.5124 1371.72 67.5124 Q1376.99 67.5124 1379.82 65.73 Q1382.66 63.9071 1382.66 60.6258 Q1382.66 57.5877 1380.59 55.9673 Q1378.57 54.3469 1371.64 52.8481 L1369.05 52.2405 Q1362.12 50.7821 1359.04 47.7845 Q1355.96 44.7463 1355.96 39.4801 Q1355.96 33.0797 1360.5 29.5959 Q1365.04 26.1121 1373.38 26.1121 Q1377.51 26.1121 1381.16 26.7198 Q1384.8 27.3274 1387.88 28.5427 Z" fill="#000000" fill-rule="evenodd" fill-opacity="1" /><path clip-path="url(#clip340)" d="M1449.09 20.1573 L1437.99 50.2555 L1460.23 50.2555 L1449.09 20.1573 M1444.47 12.096 L1453.75 12.096 L1476.8 72.576 L1468.29 72.576 L1462.78 57.061 L1435.52 57.061 L1430.01 72.576 L1421.38 72.576 L1444.47 12.096 Z" fill="#000000" fill-rule="evenodd" fill-opacity="1" /><path clip-path="url(#clip340)" d="M1511.6 34.1734 Q1510.34 33.4443 1508.84 33.1202 Q1507.38 32.7556 1505.6 32.7556 Q1499.28 32.7556 1495.88 36.8875 Q1492.52 40.9789 1492.52 48.6757 L1492.52 72.576 L1485.02 72.576 L1485.02 27.2059 L1492.52 27.2059 L1492.52 34.2544 Q1494.87 30.1225 1498.63 28.1376 Q1502.4 26.1121 1507.79 26.1121 Q1508.56 26.1121 1509.49 26.2337 Q1510.42 26.3147 1511.56 26.5172 L1511.6 34.1734 Z" fill="#000000" fill-rule="evenodd" fill-opacity="1" /><path clip-path="url(#clip340)" d="M1553.28 35.9153 Q1556.08 30.8922 1559.96 28.5022 Q1563.85 26.1121 1569.12 26.1121 Q1576.21 26.1121 1580.06 31.0947 Q1583.91 36.0368 1583.91 45.1919 L1583.91 72.576 L1576.41 72.576 L1576.41 45.4349 Q1576.41 38.913 1574.1 35.7533 Q1571.79 32.5936 1567.05 32.5936 Q1561.26 32.5936 1557.9 36.4419 Q1554.54 40.2903 1554.54 46.9338 L1554.54 72.576 L1547.04 72.576 L1547.04 45.4349 Q1547.04 38.8725 1544.73 35.7533 Q1542.42 32.5936 1537.6 32.5936 Q1531.89 32.5936 1528.53 36.4824 Q1525.17 40.3308 1525.17 46.9338 L1525.17 72.576 L1517.67 72.576 L1517.67 27.2059 L1525.17 27.2059 L1525.17 34.2544 Q1527.72 30.082 1531.28 28.0971 Q1534.85 26.1121 1539.75 26.1121 Q1544.69 26.1121 1548.14 28.6237 Q1551.62 31.1352 1553.28 35.9153 Z" fill="#000000" fill-rule="evenodd" fill-opacity="1" /><path clip-path="url(#clip340)" d="M1619.39 49.7694 Q1610.36 49.7694 1606.87 51.8354 Q1603.39 53.9013 1603.39 58.8839 Q1603.39 62.8538 1605.98 65.2034 Q1608.62 67.5124 1613.11 67.5124 Q1619.31 67.5124 1623.04 63.1374 Q1626.8 58.7219 1626.8 51.4303 L1626.8 49.7694 L1619.39 49.7694 M1634.26 46.6907 L1634.26 72.576 L1626.8 72.576 L1626.8 65.6895 Q1624.25 69.8214 1620.44 71.8063 Q1616.64 73.7508 1611.13 73.7508 Q1604.16 73.7508 1600.03 69.8619 Q1595.94 65.9325 1595.94 59.3701 Q1595.94 51.7138 1601.04 47.825 Q1606.19 43.9361 1616.35 43.9361 L1626.8 43.9361 L1626.8 43.2069 Q1626.8 38.0623 1623.4 35.2672 Q1620.04 32.4315 1613.92 32.4315 Q1610.03 32.4315 1606.35 33.3632 Q1602.66 34.295 1599.26 36.1584 L1599.26 29.2718 Q1603.35 27.692 1607.2 26.9223 Q1611.05 26.1121 1614.69 26.1121 Q1624.54 26.1121 1629.4 31.2163 Q1634.26 36.3204 1634.26 46.6907 Z" fill="#000000" fill-rule="evenodd" fill-opacity="1" /><path clip-path="url(#clip340)" d="M1684.94 35.9153 Q1687.73 30.8922 1691.62 28.5022 Q1695.51 26.1121 1700.77 26.1121 Q1707.86 26.1121 1711.71 31.0947 Q1715.56 36.0368 1715.56 45.1919 L1715.56 72.576 L1708.07 72.576 L1708.07 45.4349 Q1708.07 38.913 1705.76 35.7533 Q1703.45 32.5936 1698.71 32.5936 Q1692.92 32.5936 1689.55 36.4419 Q1686.19 40.2903 1686.19 46.9338 L1686.19 72.576 L1678.7 72.576 L1678.7 45.4349 Q1678.7 38.8725 1676.39 35.7533 Q1674.08 32.5936 1669.26 32.5936 Q1663.55 32.5936 1660.18 36.4824 Q1656.82 40.3308 1656.82 46.9338 L1656.82 72.576 L1649.33 72.576 L1649.33 27.2059 L1656.82 27.2059 L1656.82 34.2544 Q1659.37 30.082 1662.94 28.0971 Q1666.5 26.1121 1671.41 26.1121 Q1676.35 26.1121 1679.79 28.6237 Q1683.27 31.1352 1684.94 35.9153 Z" fill="#000000" fill-rule="evenodd" fill-opacity="1" /><path clip-path="url(#clip340)" d="M1769.23 48.0275 L1769.23 51.6733 L1734.96 51.6733 Q1735.45 59.3701 1739.58 63.421 Q1743.75 67.4314 1751.17 67.4314 Q1755.46 67.4314 1759.47 66.3781 Q1763.52 65.3249 1767.49 63.2184 L1767.49 70.267 Q1763.48 71.9684 1759.27 72.8596 Q1755.06 73.7508 1750.72 73.7508 Q1739.87 73.7508 1733.51 67.4314 Q1727.19 61.1119 1727.19 50.3365 Q1727.19 39.1965 1733.18 32.6746 Q1739.22 26.1121 1749.43 26.1121 Q1758.58 26.1121 1763.89 32.0264 Q1769.23 37.9003 1769.23 48.0275 M1761.78 45.84 Q1761.7 39.7232 1758.34 36.0774 Q1755.02 32.4315 1749.51 32.4315 Q1743.27 32.4315 1739.5 35.9558 Q1735.77 39.4801 1735.21 45.8805 L1761.78 45.84 Z" fill="#000000" fill-rule="evenodd" fill-opacity="1" /><path clip-path="url(#clip340)" d="M1819.18 45.1919 L1819.18 72.576 L1811.73 72.576 L1811.73 45.4349 Q1811.73 38.994 1809.22 35.7938 Q1806.71 32.5936 1801.68 32.5936 Q1795.65 32.5936 1792.16 36.4419 Q1788.68 40.2903 1788.68 46.9338 L1788.68 72.576 L1781.18 72.576 L1781.18 27.2059 L1788.68 27.2059 L1788.68 34.2544 Q1791.35 30.163 1794.96 28.1376 Q1798.6 26.1121 1803.34 26.1121 Q1811.16 26.1121 1815.17 30.9732 Q1819.18 35.7938 1819.18 45.1919 Z" fill="#000000" fill-rule="evenodd" fill-opacity="1" /><path clip-path="url(#clip340)" d="M1841.42 14.324 L1841.42 27.2059 L1856.77 27.2059 L1856.77 32.9987 L1841.42 32.9987 L1841.42 57.6282 Q1841.42 63.1779 1842.92 64.7578 Q1844.46 66.3376 1849.12 66.3376 L1856.77 66.3376 L1856.77 72.576 L1849.12 72.576 Q1840.49 72.576 1837.21 69.3758 Q1833.93 66.1351 1833.93 57.6282 L1833.93 32.9987 L1828.46 32.9987 L1828.46 27.2059 L1833.93 27.2059 L1833.93 14.324 L1841.42 14.324 Z" fill="#000000" fill-rule="evenodd" fill-opacity="1" /><path clip-path="url(#clip340)" d="M1895.5 28.5427 L1895.5 35.5912 Q1892.34 33.9709 1888.94 33.1607 Q1885.54 32.3505 1881.89 32.3505 Q1876.34 32.3505 1873.55 34.0519 Q1870.79 35.7533 1870.79 39.156 Q1870.79 41.7486 1872.78 43.2475 Q1874.76 44.7058 1880.76 46.0426 L1883.31 46.6097 Q1891.25 48.3111 1894.57 51.4303 Q1897.93 54.509 1897.93 60.0587 Q1897.93 66.3781 1892.91 70.0644 Q1887.93 73.7508 1879.18 73.7508 Q1875.53 73.7508 1871.56 73.0216 Q1867.63 72.3329 1863.26 70.9151 L1863.26 63.2184 Q1867.39 65.3654 1871.4 66.4591 Q1875.41 67.5124 1879.34 67.5124 Q1884.6 67.5124 1887.44 65.73 Q1890.28 63.9071 1890.28 60.6258 Q1890.28 57.5877 1888.21 55.9673 Q1886.18 54.3469 1879.26 52.8481 L1876.66 52.2405 Q1869.74 50.7821 1866.66 47.7845 Q1863.58 44.7463 1863.58 39.4801 Q1863.58 33.0797 1868.12 29.5959 Q1872.65 26.1121 1881 26.1121 Q1885.13 26.1121 1888.78 26.7198 Q1892.42 27.3274 1895.5 28.5427 Z" fill="#000000" fill-rule="evenodd" fill-opacity="1" /><polyline clip-path="url(#clip342)" style="stroke:#009af9; stroke-linecap:butt; stroke-linejoin:round; stroke-width:4; stroke-opacity:1; fill:none" points="
  233.734,1447.87 243.435,1434.82 253.137,1434.82 261.899,1428.29 271.6,1425.03 347.959,1425.03 357.66,1415.24 376.124,1415.24 414.303,1408.71 443.094,1408.71 
  481.587,1395.66 500.05,1392.39 509.439,1392.39 528.528,1372.81 538.23,1349.97 557.319,1343.44 567.021,1336.91 595.812,1336.91 643.066,1317.33 681.559,1310.81 
  700.648,1310.81 710.35,1310.81 719.112,1287.96 766.993,1278.17 786.082,1271.64 795.784,1268.38 814.873,1248.8 833.337,1248.8 862.128,1245.53 871.517,1242.27 
  881.218,1235.74 890.919,1235.74 900.308,1235.74 938.8,1235.74 947.562,1235.74 957.264,1131.31 966.652,1131.31 995.443,1128.05 1014.53,1118.26 1033.62,1118.26 
  1053.02,1092.15 1062.1,1088.89 1081.19,1082.36 1090.89,1066.04 1100.28,1066.04 1119.68,1066.04 1157.86,1059.51 1176.33,1059.51 1186.03,1013.83 1195.42,1013.83 
  1205.12,1013.83 1214.5,1013.83 1224.21,1004.03 1233.91,997.508 1253,935.501 1262.39,928.974 1272.09,909.393 1281.79,899.602 1290.55,893.075 1300.25,889.811 
  1309.64,883.284 1319.34,870.23 1328.73,863.703 1338.43,837.595 1348.13,827.805 1357.52,821.278 1376.61,821.278 1386.31,798.433 1414.48,791.906 1452.66,769.061 
  1462.36,769.061 1471.75,746.217 1490.84,739.69 1500.54,739.69 1510.24,729.899 1519.31,720.109 1529.01,687.473 1538.4,671.156 1557.49,671.156 1567.19,651.575 
  1576.9,631.994 1586.28,612.412 1595.99,605.885 1605.37,596.095 1615.07,589.568 1633.54,589.568 1643.24,589.568 1652.63,589.568 1662.33,553.669 1681.42,553.669 
  1691.12,553.669 1700.51,550.406 1710.21,550.406 1719.6,550.406 1729.3,543.879 1739,530.824 1757.46,521.034 1766.85,491.662 1776.55,488.399 1795.64,488.399 
  1805.35,481.872 1814.73,468.818 1824.44,465.554 1843.52,452.5 1853.23,449.237 1861.99,445.973 1871.69,445.973 1881.08,432.919 1890.78,432.919 1900.17,426.392 
  1928.96,426.392 1938.66,426.392 1948.05,426.392 1967.45,406.811 1976.53,403.547 1986.23,403.547 1995.62,403.547 2005.32,403.547 2014.71,403.547 2024.41,403.547 
  2034.11,393.757 2043.5,390.493 2053.2,387.23 2072.29,370.912 2090.75,367.649 2100.45,344.804 2109.84,344.804 2119.54,318.696 2138.63,312.169 2148.33,308.905 
  2157.72,299.115 2167.42,286.061 2176.81,279.534 2186.51,273.007 2196.21,273.007 2204.98,273.007 2214.68,273.007 2224.07,273.007 2233.77,273.007 2252.86,263.216 
  2262.56,227.317 2271.95,220.79 2281.65,162.047 2291.04,162.047 
  "/>
<polyline clip-path="url(#clip342)" style="stroke:#e26f46; stroke-linecap:butt; stroke-linejoin:round; stroke-width:4; stroke-opacity:1; fill:none" points="
  233.734,1425.03 243.435,1425.03 253.137,1411.97 261.899,1411.97 271.6,1411.97 347.959,1411.97 357.66,1411.97 376.124,1398.92 414.303,1398.92 443.094,1398.92 
  481.587,1398.92 500.05,1398.92 509.439,1395.66 528.528,1376.08 538.23,1376.08 557.319,1376.08 567.021,1376.08 595.812,1376.08 643.066,1376.08 681.559,1376.08 
  700.648,1376.08 710.35,1376.08 719.112,1346.7 766.993,1346.7 786.082,1346.7 795.784,1346.7 814.873,1346.7 833.337,1327.12 862.128,1327.12 871.517,1327.12 
  881.218,1323.86 890.919,1320.6 900.308,1304.28 938.8,1278.17 947.562,1278.17 957.264,1278.17 966.652,1278.17 995.443,1271.64 1014.53,1271.64 1033.62,1258.59 
  1053.02,1242.27 1062.1,1242.27 1081.19,1242.27 1090.89,1242.27 1100.28,1242.27 1119.68,1242.27 1157.86,1242.27 1176.33,1216.16 1186.03,1216.16 1195.42,1216.16 
  1205.12,1212.9 1214.5,1212.9 1224.21,1212.9 1233.91,1212.9 1253,1209.64 1262.39,1209.64 1272.09,1199.85 1281.79,1199.85 1290.55,1199.85 1300.25,1199.85 
  1309.64,1199.85 1319.34,1199.85 1328.73,1199.85 1338.43,1199.85 1348.13,1199.85 1357.52,1199.85 1376.61,1199.85 1386.31,1199.85 1414.48,1199.85 1452.66,1199.85 
  1462.36,1199.85 1471.75,1190.06 1490.84,1190.06 1500.54,1190.06 1510.24,1190.06 1519.31,1190.06 1529.01,1190.06 1538.4,1190.06 1557.49,1150.89 1567.19,1144.37 
  1576.9,1144.37 1586.28,1144.37 1595.99,1144.37 1605.37,1056.25 1615.07,1056.25 1633.54,1056.25 1643.24,1043.2 1652.63,1036.67 1662.33,1036.67 1681.42,1020.35 
  1691.12,1020.35 1700.51,1020.35 1710.21,1020.35 1719.6,1017.09 1729.3,1017.09 1739,1017.09 1757.46,1007.3 1766.85,1007.3 1776.55,994.244 1795.64,994.244 
  1805.35,994.244 1814.73,994.244 1824.44,994.244 1843.52,994.244 1853.23,994.244 1861.99,994.244 1871.69,994.244 1881.08,994.244 1890.78,994.244 1900.17,994.244 
  1928.96,955.082 1938.66,955.082 1948.05,909.393 1967.45,899.602 1976.53,899.602 1986.23,899.602 1995.62,893.075 2005.32,733.163 2014.71,703.791 2024.41,703.791 
  2034.11,703.791 2043.5,703.791 2053.2,703.791 2072.29,703.791 2090.75,690.737 2100.45,690.737 2109.84,680.946 2119.54,680.946 2138.63,680.946 2148.33,677.683 
  2157.72,671.156 2167.42,654.838 2176.81,654.838 2186.51,654.838 2196.21,654.838 2204.98,654.838 2214.68,654.838 2224.07,622.203 2233.77,622.203 2252.86,622.203 
  2262.56,622.203 2271.95,586.304 2281.65,586.304 2291.04,586.304 
  "/>
<polyline clip-path="url(#clip342)" style="stroke:#3da44d; stroke-linecap:butt; stroke-linejoin:round; stroke-width:4; stroke-opacity:1; fill:none" points="
  233.734,1447.87 243.435,1447.87 253.137,1447.87 261.899,1447.87 271.6,1447.87 347.959,1447.87 357.66,1447.87 376.124,1447.87 414.303,1447.87 443.094,1447.87 
  481.587,1447.87 500.05,1447.87 509.439,1447.87 528.528,1447.87 538.23,1447.87 557.319,1447.87 567.021,1447.87 595.812,1447.87 643.066,1447.87 681.559,1428.29 
  700.648,1428.29 710.35,1428.29 719.112,1428.29 766.993,1428.29 786.082,1428.29 795.784,1425.03 814.873,1425.03 833.337,1425.03 862.128,1425.03 871.517,1425.03 
  881.218,1425.03 890.919,1425.03 900.308,1425.03 938.8,1425.03 947.562,1425.03 957.264,1418.5 966.652,1408.71 995.443,1408.71 1014.53,1389.13 1033.62,1363.02 
  1053.02,1363.02 1062.1,1363.02 1081.19,1363.02 1090.89,1363.02 1100.28,1363.02 1119.68,1343.44 1157.86,1343.44 1176.33,1310.81 1186.03,1310.81 1195.42,1310.81 
  1205.12,1307.54 1214.5,1304.28 1224.21,1304.28 1233.91,1304.28 1253,1304.28 1262.39,1304.28 1272.09,1304.28 1281.79,1304.28 1290.55,1304.28 1300.25,1304.28 
  1309.64,1304.28 1319.34,1304.28 1328.73,1304.28 1338.43,1304.28 1348.13,1304.28 1357.52,1304.28 1376.61,1304.28 1386.31,1304.28 1414.48,1304.28 1452.66,1304.28 
  1462.36,1291.22 1471.75,1291.22 1490.84,1291.22 1500.54,1291.22 1510.24,1291.22 1519.31,1291.22 1529.01,1291.22 1538.4,1291.22 1557.49,1291.22 1567.19,1291.22 
  1576.9,1291.22 1586.28,1291.22 1595.99,1291.22 1605.37,1284.7 1615.07,1284.7 1633.54,1284.7 1643.24,1284.7 1652.63,1284.7 1662.33,1284.7 1681.42,1284.7 
  1691.12,1284.7 1700.51,1284.7 1710.21,1281.43 1719.6,1281.43 1729.3,1281.43 1739,1281.43 1757.46,1281.43 1766.85,1281.43 1776.55,1281.43 1795.64,1281.43 
  1805.35,1281.43 1814.73,1281.43 1824.44,1281.43 1843.52,1281.43 1853.23,1281.43 1861.99,1281.43 1871.69,1281.43 1881.08,1281.43 1890.78,1252.06 1900.17,1232.48 
  1928.96,1232.48 1938.66,1222.69 1948.05,1222.69 1967.45,1222.69 1976.53,1222.69 1986.23,1222.69 1995.62,1222.69 2005.32,1222.69 2014.71,1212.9 2024.41,1212.9 
  2034.11,1196.58 2043.5,1196.58 2053.2,1196.58 2072.29,1196.58 2090.75,1190.06 2100.45,1190.06 2109.84,1190.06 2119.54,1186.79 2138.63,1186.79 2148.33,1186.79 
  2157.72,997.508 2167.42,912.656 2176.81,912.656 2186.51,912.656 2196.21,857.176 2204.98,850.649 2214.68,837.595 2224.07,837.595 2233.77,837.595 2252.86,837.595 
  2262.56,837.595 2271.95,837.595 2281.65,837.595 2291.04,837.595 
  "/>
<polyline clip-path="url(#clip342)" style="stroke:#c271d2; stroke-linecap:butt; stroke-linejoin:round; stroke-width:4; stroke-opacity:1; fill:none" points="
  233.734,1447.87 243.435,1447.87 253.137,1447.87 261.899,1447.87 271.6,1447.87 347.959,1444.61 357.66,1444.61 376.124,1444.61 414.303,1444.61 443.094,1438.08 
  481.587,1438.08 500.05,1438.08 509.439,1438.08 528.528,1438.08 538.23,1438.08 557.319,1438.08 567.021,1438.08 595.812,1438.08 643.066,1438.08 681.559,1438.08 
  700.648,1434.82 710.35,1434.82 719.112,1434.82 766.993,1434.82 786.082,1434.82 795.784,1434.82 814.873,1434.82 833.337,1434.82 862.128,1434.82 871.517,1434.82 
  881.218,1434.82 890.919,1434.82 900.308,1434.82 938.8,1434.82 947.562,1434.82 957.264,1434.82 966.652,1434.82 995.443,1434.82 1014.53,1434.82 1033.62,1434.82 
  1053.02,1434.82 1062.1,1434.82 1081.19,1434.82 1090.89,1434.82 1100.28,1428.29 1119.68,1428.29 1157.86,1428.29 1176.33,1428.29 1186.03,1428.29 1195.42,1428.29 
  1205.12,1428.29 1214.5,1428.29 1224.21,1428.29 1233.91,1428.29 1253,1428.29 1262.39,1428.29 1272.09,1425.03 1281.79,1425.03 1290.55,1425.03 1300.25,1425.03 
  1309.64,1425.03 1319.34,1425.03 1328.73,1425.03 1338.43,1425.03 1348.13,1425.03 1357.52,1425.03 1376.61,1425.03 1386.31,1425.03 1414.48,1425.03 1452.66,1425.03 
  1462.36,1425.03 1471.75,1425.03 1490.84,1425.03 1500.54,1415.24 1510.24,1415.24 1519.31,1415.24 1529.01,1415.24 1538.4,1415.24 1557.49,1415.24 1567.19,1415.24 
  1576.9,1415.24 1586.28,1415.24 1595.99,1415.24 1605.37,1415.24 1615.07,1415.24 1633.54,1402.18 1643.24,1402.18 1652.63,1402.18 1662.33,1402.18 1681.42,1402.18 
  1691.12,1363.02 1700.51,1363.02 1710.21,1363.02 1719.6,1359.76 1729.3,1353.23 1739,1353.23 1757.46,1353.23 1766.85,1353.23 1776.55,1349.97 1795.64,1349.97 
  1805.35,1349.97 1814.73,1349.97 1824.44,1349.97 1843.52,1349.97 1853.23,1349.97 1861.99,1349.97 1871.69,1349.97 1881.08,1349.97 1890.78,1349.97 1900.17,1349.97 
  1928.96,1349.97 1938.66,1349.97 1948.05,1349.97 1967.45,1349.97 1976.53,1349.97 1986.23,1349.97 1995.62,1349.97 2005.32,1349.97 2014.71,1349.97 2024.41,1349.97 
  2034.11,1349.97 2043.5,1349.97 2053.2,1349.97 2072.29,1349.97 2090.75,1349.97 2100.45,1349.97 2109.84,1349.97 2119.54,1340.18 2138.63,1340.18 2148.33,1340.18 
  2157.72,1340.18 2167.42,1340.18 2176.81,1340.18 2186.51,1340.18 2196.21,1340.18 2204.98,1340.18 2214.68,1340.18 2224.07,1340.18 2233.77,1323.86 2252.86,1323.86 
  2262.56,1323.86 2271.95,1323.86 2281.65,1323.86 2291.04,1323.86 
  "/>
<path clip-path="url(#clip340)" d="
M244.706 428.105 L719.764 428.105 L719.764 168.905 L244.706 168.905  Z
  " fill="#ffffff" fill-rule="evenodd" fill-opacity="1"/>
<polyline clip-path="url(#clip340)" style="stroke:#000000; stroke-linecap:butt; stroke-linejoin:round; stroke-width:4; stroke-opacity:1; fill:none" points="
  244.706,428.105 719.764,428.105 719.764,168.905 244.706,168.905 244.706,428.105 
  "/>
<polyline clip-path="url(#clip340)" style="stroke:#009af9; stroke-linecap:butt; stroke-linejoin:round; stroke-width:4; stroke-opacity:1; fill:none" points="
  268.937,220.745 414.319,220.745 
  "/>
<path clip-path="url(#clip340)" d="M438.55 203.465 L443.226 203.465 L443.226 217.631 L460.216 217.631 L460.216 203.465 L464.892 203.465 L464.892 238.025 L460.216 238.025 L460.216 221.566 L443.226 221.566 L443.226 238.025 L438.55 238.025 L438.55 203.465 Z" fill="#000000" fill-rule="evenodd" fill-opacity="1" /><path clip-path="url(#clip340)" d="M485.795 224.992 Q480.633 224.992 478.642 226.173 Q476.651 227.353 476.651 230.201 Q476.651 232.469 478.133 233.812 Q479.638 235.131 482.207 235.131 Q485.749 235.131 487.878 232.631 Q490.031 230.108 490.031 225.941 L490.031 224.992 L485.795 224.992 M494.29 223.233 L494.29 238.025 L490.031 238.025 L490.031 234.089 Q488.573 236.451 486.397 237.585 Q484.221 238.696 481.073 238.696 Q477.091 238.696 474.73 236.474 Q472.392 234.228 472.392 230.478 Q472.392 226.103 475.309 223.881 Q478.249 221.659 484.059 221.659 L490.031 221.659 L490.031 221.242 Q490.031 218.303 488.087 216.705 Q486.165 215.085 482.67 215.085 Q480.448 215.085 478.341 215.617 Q476.235 216.15 474.29 217.215 L474.29 213.279 Q476.628 212.377 478.827 211.937 Q481.026 211.474 483.11 211.474 Q488.735 211.474 491.513 214.391 Q494.29 217.307 494.29 223.233 Z" fill="#000000" fill-rule="evenodd" fill-opacity="1" /><path clip-path="url(#clip340)" d="M524.614 222.377 L524.614 238.025 L520.355 238.025 L520.355 222.515 Q520.355 218.835 518.92 217.006 Q517.485 215.178 514.614 215.178 Q511.165 215.178 509.174 217.377 Q507.184 219.576 507.184 223.372 L507.184 238.025 L502.901 238.025 L502.901 212.099 L507.184 212.099 L507.184 216.127 Q508.712 213.789 510.772 212.631 Q512.855 211.474 515.563 211.474 Q520.031 211.474 522.323 214.252 Q524.614 217.006 524.614 222.377 Z" fill="#000000" fill-rule="evenodd" fill-opacity="1" /><path clip-path="url(#clip340)" d="M550.17 216.034 L550.17 202.006 L554.429 202.006 L554.429 238.025 L550.17 238.025 L550.17 234.136 Q548.827 236.451 546.767 237.585 Q544.73 238.696 541.859 238.696 Q537.16 238.696 534.197 234.946 Q531.258 231.196 531.258 225.085 Q531.258 218.974 534.197 215.224 Q537.16 211.474 541.859 211.474 Q544.73 211.474 546.767 212.608 Q548.827 213.719 550.17 216.034 M535.656 225.085 Q535.656 229.784 537.577 232.469 Q539.522 235.131 542.901 235.131 Q546.281 235.131 548.225 232.469 Q550.17 229.784 550.17 225.085 Q550.17 220.386 548.225 217.724 Q546.281 215.039 542.901 215.039 Q539.522 215.039 537.577 217.724 Q535.656 220.386 535.656 225.085 Z" fill="#000000" fill-rule="evenodd" fill-opacity="1" /><path clip-path="url(#clip340)" d="M580.262 224.761 Q580.262 220.131 578.341 217.585 Q576.443 215.039 572.994 215.039 Q569.568 215.039 567.646 217.585 Q565.748 220.131 565.748 224.761 Q565.748 229.367 567.646 231.914 Q569.568 234.46 572.994 234.46 Q576.443 234.46 578.341 231.914 Q580.262 229.367 580.262 224.761 M584.521 234.807 Q584.521 241.427 581.581 244.645 Q578.642 247.886 572.577 247.886 Q570.332 247.886 568.341 247.538 Q566.35 247.214 564.475 246.52 L564.475 242.376 Q566.35 243.395 568.179 243.881 Q570.007 244.367 571.906 244.367 Q576.095 244.367 578.179 242.168 Q580.262 239.992 580.262 235.571 L580.262 233.464 Q578.943 235.756 576.882 236.89 Q574.822 238.025 571.952 238.025 Q567.183 238.025 564.267 234.39 Q561.35 230.756 561.35 224.761 Q561.35 218.742 564.267 215.108 Q567.183 211.474 571.952 211.474 Q574.822 211.474 576.882 212.608 Q578.943 213.742 580.262 216.034 L580.262 212.099 L584.521 212.099 L584.521 234.807 Z" fill="#000000" fill-rule="evenodd" fill-opacity="1" /><path clip-path="url(#clip340)" d="M592.855 227.793 L592.855 212.099 L597.114 212.099 L597.114 227.631 Q597.114 231.312 598.549 233.164 Q599.984 234.992 602.855 234.992 Q606.304 234.992 608.294 232.793 Q610.308 230.594 610.308 226.798 L610.308 212.099 L614.567 212.099 L614.567 238.025 L610.308 238.025 L610.308 234.043 Q608.757 236.404 606.697 237.562 Q604.66 238.696 601.952 238.696 Q597.484 238.696 595.169 235.918 Q592.855 233.14 592.855 227.793 M603.572 211.474 L603.572 211.474 Z" fill="#000000" fill-rule="evenodd" fill-opacity="1" /><path clip-path="url(#clip340)" d="M644.891 222.377 L644.891 238.025 L640.632 238.025 L640.632 222.515 Q640.632 218.835 639.197 217.006 Q637.762 215.178 634.891 215.178 Q631.442 215.178 629.452 217.377 Q627.461 219.576 627.461 223.372 L627.461 238.025 L623.178 238.025 L623.178 212.099 L627.461 212.099 L627.461 216.127 Q628.989 213.789 631.049 212.631 Q633.132 211.474 635.84 211.474 Q640.308 211.474 642.6 214.252 Q644.891 217.006 644.891 222.377 Z" fill="#000000" fill-rule="evenodd" fill-opacity="1" /><path clip-path="url(#clip340)" d="M669.914 212.863 L669.914 216.891 Q668.109 215.965 666.164 215.502 Q664.22 215.039 662.137 215.039 Q658.965 215.039 657.368 216.011 Q655.794 216.983 655.794 218.928 Q655.794 220.409 656.928 221.265 Q658.063 222.099 661.488 222.863 L662.947 223.187 Q667.484 224.159 669.382 225.941 Q671.303 227.701 671.303 230.872 Q671.303 234.483 668.433 236.589 Q665.586 238.696 660.586 238.696 Q658.502 238.696 656.234 238.279 Q653.989 237.886 651.489 237.076 L651.489 232.677 Q653.85 233.904 656.141 234.529 Q658.433 235.131 660.678 235.131 Q663.688 235.131 665.308 234.113 Q666.928 233.071 666.928 231.196 Q666.928 229.46 665.748 228.534 Q664.59 227.608 660.632 226.752 L659.151 226.404 Q655.192 225.571 653.433 223.858 Q651.674 222.122 651.674 219.113 Q651.674 215.455 654.266 213.465 Q656.859 211.474 661.627 211.474 Q663.988 211.474 666.072 211.821 Q668.155 212.168 669.914 212.863 Z" fill="#000000" fill-rule="evenodd" fill-opacity="1" /><polyline clip-path="url(#clip340)" style="stroke:#e26f46; stroke-linecap:butt; stroke-linejoin:round; stroke-width:4; stroke-opacity:1; fill:none" points="
  268.937,272.585 414.319,272.585 
  "/>
<path clip-path="url(#clip340)" d="M438.55 255.305 L445.517 255.305 L454.337 278.823 L463.202 255.305 L470.17 255.305 L470.17 289.865 L465.61 289.865 L465.61 259.518 L456.698 283.221 L451.999 283.221 L443.087 259.518 L443.087 289.865 L438.55 289.865 L438.55 255.305 Z" fill="#000000" fill-rule="evenodd" fill-opacity="1" /><path clip-path="url(#clip340)" d="M479.267 263.939 L483.526 263.939 L483.526 289.865 L479.267 289.865 L479.267 263.939 M479.267 253.846 L483.526 253.846 L483.526 259.24 L479.267 259.24 L479.267 253.846 Z" fill="#000000" fill-rule="evenodd" fill-opacity="1" /><path clip-path="url(#clip340)" d="M513.989 263.939 L504.614 276.555 L514.475 289.865 L509.452 289.865 L501.906 279.68 L494.36 289.865 L489.337 289.865 L499.406 276.3 L490.193 263.939 L495.216 263.939 L502.091 273.175 L508.966 263.939 L513.989 263.939 Z" fill="#000000" fill-rule="evenodd" fill-opacity="1" /><path clip-path="url(#clip340)" d="M541.211 275.837 L541.211 277.92 L521.628 277.92 Q521.906 282.318 524.267 284.633 Q526.651 286.925 530.887 286.925 Q533.341 286.925 535.633 286.323 Q537.947 285.721 540.216 284.517 L540.216 288.545 Q537.924 289.517 535.517 290.027 Q533.11 290.536 530.633 290.536 Q524.429 290.536 520.795 286.925 Q517.184 283.314 517.184 277.156 Q517.184 270.791 520.61 267.064 Q524.059 263.314 529.892 263.314 Q535.123 263.314 538.156 266.693 Q541.211 270.05 541.211 275.837 M536.952 274.587 Q536.906 271.092 534.985 269.008 Q533.086 266.925 529.938 266.925 Q526.373 266.925 524.221 268.939 Q522.091 270.953 521.767 274.61 L536.952 274.587 Z" fill="#000000" fill-rule="evenodd" fill-opacity="1" /><path clip-path="url(#clip340)" d="M565.262 267.874 L565.262 253.846 L569.521 253.846 L569.521 289.865 L565.262 289.865 L565.262 285.976 Q563.92 288.291 561.859 289.425 Q559.822 290.536 556.952 290.536 Q552.253 290.536 549.29 286.786 Q546.35 283.036 546.35 276.925 Q546.35 270.814 549.29 267.064 Q552.253 263.314 556.952 263.314 Q559.822 263.314 561.859 264.448 Q563.92 265.559 565.262 267.874 M550.748 276.925 Q550.748 281.624 552.67 284.309 Q554.614 286.971 557.994 286.971 Q561.373 286.971 563.318 284.309 Q565.262 281.624 565.262 276.925 Q565.262 272.226 563.318 269.564 Q561.373 266.879 557.994 266.879 Q554.614 266.879 552.67 269.564 Q550.748 272.226 550.748 276.925 Z" fill="#000000" fill-rule="evenodd" fill-opacity="1" /><polyline clip-path="url(#clip340)" style="stroke:#3da44d; stroke-linecap:butt; stroke-linejoin:round; stroke-width:4; stroke-opacity:1; fill:none" points="
  268.937,324.425 414.319,324.425 
  "/>
<path clip-path="url(#clip340)" d="M454.939 325.501 Q456.443 326.01 457.855 327.677 Q459.29 329.344 460.726 332.26 L465.471 341.705 L460.448 341.705 L456.027 332.839 Q454.314 329.367 452.693 328.233 Q451.096 327.098 448.318 327.098 L443.226 327.098 L443.226 341.705 L438.55 341.705 L438.55 307.145 L449.105 307.145 Q455.031 307.145 457.948 309.621 Q460.865 312.098 460.865 317.098 Q460.865 320.362 459.337 322.515 Q457.832 324.668 454.939 325.501 M443.226 310.987 L443.226 323.256 L449.105 323.256 Q452.485 323.256 454.198 321.705 Q455.934 320.131 455.934 317.098 Q455.934 314.066 454.198 312.538 Q452.485 310.987 449.105 310.987 L443.226 310.987 Z" fill="#000000" fill-rule="evenodd" fill-opacity="1" /><path clip-path="url(#clip340)" d="M471.304 315.779 L475.564 315.779 L475.564 341.705 L471.304 341.705 L471.304 315.779 M471.304 305.686 L475.564 305.686 L475.564 311.08 L471.304 311.08 L471.304 305.686 Z" fill="#000000" fill-rule="evenodd" fill-opacity="1" /><path clip-path="url(#clip340)" d="M497.6 305.686 L497.6 309.228 L493.526 309.228 Q491.235 309.228 490.332 310.154 Q489.452 311.08 489.452 313.487 L489.452 315.779 L496.466 315.779 L496.466 319.089 L489.452 319.089 L489.452 341.705 L485.17 341.705 L485.17 319.089 L481.096 319.089 L481.096 315.779 L485.17 315.779 L485.17 313.973 Q485.17 309.645 487.184 307.677 Q489.198 305.686 493.573 305.686 L497.6 305.686 Z" fill="#000000" fill-rule="evenodd" fill-opacity="1" /><path clip-path="url(#clip340)" d="M501.165 305.686 L505.424 305.686 L505.424 341.705 L501.165 341.705 L501.165 305.686 Z" fill="#000000" fill-rule="evenodd" fill-opacity="1" /><path clip-path="url(#clip340)" d="M536.512 327.677 L536.512 329.76 L516.929 329.76 Q517.207 334.158 519.568 336.473 Q521.952 338.765 526.188 338.765 Q528.642 338.765 530.934 338.163 Q533.248 337.561 535.517 336.357 L535.517 340.385 Q533.225 341.357 530.818 341.867 Q528.41 342.376 525.934 342.376 Q519.73 342.376 516.096 338.765 Q512.485 335.154 512.485 328.996 Q512.485 322.631 515.911 318.904 Q519.36 315.154 525.193 315.154 Q530.424 315.154 533.457 318.533 Q536.512 321.89 536.512 327.677 M532.253 326.427 Q532.207 322.932 530.285 320.848 Q528.387 318.765 525.239 318.765 Q521.674 318.765 519.522 320.779 Q517.392 322.793 517.068 326.45 L532.253 326.427 Z" fill="#000000" fill-rule="evenodd" fill-opacity="1" /><path clip-path="url(#clip340)" d="M560.031 316.543 L560.031 320.571 Q558.225 319.645 556.281 319.182 Q554.336 318.719 552.253 318.719 Q549.082 318.719 547.484 319.691 Q545.91 320.663 545.91 322.608 Q545.91 324.089 547.045 324.945 Q548.179 325.779 551.605 326.543 L553.063 326.867 Q557.6 327.839 559.498 329.621 Q561.42 331.381 561.42 334.552 Q561.42 338.163 558.549 340.269 Q555.702 342.376 550.702 342.376 Q548.619 342.376 546.35 341.959 Q544.105 341.566 541.605 340.756 L541.605 336.357 Q543.966 337.584 546.258 338.209 Q548.549 338.811 550.795 338.811 Q553.804 338.811 555.424 337.793 Q557.045 336.751 557.045 334.876 Q557.045 333.14 555.864 332.214 Q554.707 331.288 550.748 330.432 L549.267 330.084 Q545.309 329.251 543.549 327.538 Q541.79 325.802 541.79 322.793 Q541.79 319.135 544.383 317.145 Q546.975 315.154 551.744 315.154 Q554.105 315.154 556.188 315.501 Q558.271 315.848 560.031 316.543 Z" fill="#000000" fill-rule="evenodd" fill-opacity="1" /><polyline clip-path="url(#clip340)" style="stroke:#c271d2; stroke-linecap:butt; stroke-linejoin:round; stroke-width:4; stroke-opacity:1; fill:none" points="
  268.937,376.265 414.319,376.265 
  "/>
<path clip-path="url(#clip340)" d="M460.795 360.119 L460.795 364.679 Q458.133 363.406 455.772 362.781 Q453.411 362.156 451.212 362.156 Q447.392 362.156 445.309 363.637 Q443.249 365.119 443.249 367.85 Q443.249 370.142 444.615 371.323 Q446.004 372.48 449.846 373.198 L452.67 373.776 Q457.902 374.772 460.378 377.295 Q462.878 379.795 462.878 384.008 Q462.878 389.031 459.499 391.623 Q456.142 394.216 449.638 394.216 Q447.184 394.216 444.406 393.66 Q441.652 393.105 438.689 392.017 L438.689 387.202 Q441.536 388.799 444.267 389.609 Q446.999 390.42 449.638 390.42 Q453.642 390.42 455.818 388.846 Q457.994 387.272 457.994 384.355 Q457.994 381.809 456.42 380.373 Q454.869 378.938 451.304 378.221 L448.457 377.665 Q443.226 376.623 440.888 374.401 Q438.55 372.179 438.55 368.221 Q438.55 363.637 441.767 360.999 Q445.008 358.36 450.679 358.36 Q453.11 358.36 455.633 358.799 Q458.156 359.239 460.795 360.119 Z" fill="#000000" fill-rule="evenodd" fill-opacity="1" /><path clip-path="url(#clip340)" d="M491.536 377.897 L491.536 393.545 L487.276 393.545 L487.276 378.035 Q487.276 374.355 485.841 372.526 Q484.406 370.698 481.536 370.698 Q478.087 370.698 476.096 372.897 Q474.105 375.096 474.105 378.892 L474.105 393.545 L469.823 393.545 L469.823 357.526 L474.105 357.526 L474.105 371.647 Q475.633 369.309 477.693 368.151 Q479.776 366.994 482.485 366.994 Q486.952 366.994 489.244 369.772 Q491.536 372.526 491.536 377.897 Z" fill="#000000" fill-rule="evenodd" fill-opacity="1" /><path clip-path="url(#clip340)" d="M510.077 370.605 Q506.651 370.605 504.661 373.29 Q502.67 375.952 502.67 380.605 Q502.67 385.258 504.637 387.943 Q506.628 390.605 510.077 390.605 Q513.48 390.605 515.471 387.92 Q517.461 385.235 517.461 380.605 Q517.461 375.998 515.471 373.313 Q513.48 370.605 510.077 370.605 M510.077 366.994 Q515.633 366.994 518.804 370.605 Q521.975 374.216 521.975 380.605 Q521.975 386.971 518.804 390.605 Q515.633 394.216 510.077 394.216 Q504.499 394.216 501.327 390.605 Q498.179 386.971 498.179 380.605 Q498.179 374.216 501.327 370.605 Q504.499 366.994 510.077 366.994 Z" fill="#000000" fill-rule="evenodd" fill-opacity="1" /><path clip-path="url(#clip340)" d="M533.248 360.258 L533.248 367.619 L542.022 367.619 L542.022 370.929 L533.248 370.929 L533.248 385.003 Q533.248 388.174 534.105 389.077 Q534.985 389.98 537.647 389.98 L542.022 389.98 L542.022 393.545 L537.647 393.545 Q532.716 393.545 530.841 391.716 Q528.966 389.864 528.966 385.003 L528.966 370.929 L525.841 370.929 L525.841 367.619 L528.966 367.619 L528.966 360.258 L533.248 360.258 Z" fill="#000000" fill-rule="evenodd" fill-opacity="1" /><path clip-path="url(#clip340)" d="M564.683 380.281 Q564.683 375.651 562.762 373.105 Q560.864 370.559 557.415 370.559 Q553.989 370.559 552.068 373.105 Q550.17 375.651 550.17 380.281 Q550.17 384.887 552.068 387.434 Q553.989 389.98 557.415 389.98 Q560.864 389.98 562.762 387.434 Q564.683 384.887 564.683 380.281 M568.943 390.327 Q568.943 396.947 566.003 400.165 Q563.063 403.406 556.998 403.406 Q554.753 403.406 552.762 403.058 Q550.771 402.734 548.896 402.04 L548.896 397.896 Q550.771 398.915 552.6 399.401 Q554.429 399.887 556.327 399.887 Q560.517 399.887 562.6 397.688 Q564.683 395.512 564.683 391.091 L564.683 388.984 Q563.364 391.276 561.304 392.41 Q559.244 393.545 556.373 393.545 Q551.605 393.545 548.688 389.91 Q545.771 386.276 545.771 380.281 Q545.771 374.262 548.688 370.628 Q551.605 366.994 556.373 366.994 Q559.244 366.994 561.304 368.128 Q563.364 369.262 564.683 371.554 L564.683 367.619 L568.943 367.619 L568.943 390.327 Z" fill="#000000" fill-rule="evenodd" fill-opacity="1" /><path clip-path="url(#clip340)" d="M577.276 383.313 L577.276 367.619 L581.535 367.619 L581.535 383.151 Q581.535 386.832 582.97 388.684 Q584.406 390.512 587.276 390.512 Q590.725 390.512 592.716 388.313 Q594.73 386.114 594.73 382.318 L594.73 367.619 L598.989 367.619 L598.989 393.545 L594.73 393.545 L594.73 389.563 Q593.179 391.924 591.118 393.082 Q589.081 394.216 586.373 394.216 Q581.906 394.216 579.591 391.438 Q577.276 388.66 577.276 383.313 M587.993 366.994 L587.993 366.994 Z" fill="#000000" fill-rule="evenodd" fill-opacity="1" /><path clip-path="url(#clip340)" d="M629.313 377.897 L629.313 393.545 L625.053 393.545 L625.053 378.035 Q625.053 374.355 623.618 372.526 Q622.183 370.698 619.313 370.698 Q615.864 370.698 613.873 372.897 Q611.882 375.096 611.882 378.892 L611.882 393.545 L607.6 393.545 L607.6 367.619 L611.882 367.619 L611.882 371.647 Q613.41 369.309 615.47 368.151 Q617.554 366.994 620.262 366.994 Q624.729 366.994 627.021 369.772 Q629.313 372.526 629.313 377.897 Z" fill="#000000" fill-rule="evenodd" fill-opacity="1" /><path clip-path="url(#clip340)" d="M654.336 368.383 L654.336 372.411 Q652.53 371.485 650.586 371.022 Q648.641 370.559 646.558 370.559 Q643.387 370.559 641.789 371.531 Q640.215 372.503 640.215 374.448 Q640.215 375.929 641.35 376.785 Q642.484 377.619 645.91 378.383 L647.368 378.707 Q651.905 379.679 653.803 381.461 Q655.725 383.221 655.725 386.392 Q655.725 390.003 652.854 392.109 Q650.007 394.216 645.007 394.216 Q642.924 394.216 640.655 393.799 Q638.41 393.406 635.91 392.596 L635.91 388.197 Q638.271 389.424 640.563 390.049 Q642.854 390.651 645.1 390.651 Q648.109 390.651 649.729 389.633 Q651.35 388.591 651.35 386.716 Q651.35 384.98 650.169 384.054 Q649.012 383.128 645.053 382.272 L643.572 381.924 Q639.614 381.091 637.854 379.378 Q636.095 377.642 636.095 374.633 Q636.095 370.975 638.688 368.985 Q641.28 366.994 646.049 366.994 Q648.41 366.994 650.493 367.341 Q652.576 367.688 654.336 368.383 Z" fill="#000000" fill-rule="evenodd" fill-opacity="1" /></svg>
