<?xml version="1.0" encoding="utf-8"?>
<svg xmlns="http://www.w3.org/2000/svg" xmlns:xlink="http://www.w3.org/1999/xlink" width="600" height="400" viewBox="0 0 2400 1600">
<defs>
  <clipPath id="clip350">
    <rect x="0" y="0" width="2400" height="1600"/>
  </clipPath>
</defs>
<path clip-path="url(#clip350)" d="
M0 1600 L2400 1600 L2400 0 L0 0  Z
  " fill="#ffffff" fill-rule="evenodd" fill-opacity="1"/>
<defs>
  <clipPath id="clip351">
    <rect x="480" y="0" width="1681" height="1600"/>
  </clipPath>
</defs>
<path clip-path="url(#clip350)" d="
M202.227 1423.18 L2352.76 1423.18 L2352.76 123.472 L202.227 123.472  Z
  " fill="#ffffff" fill-rule="evenodd" fill-opacity="1"/>
<defs>
  <clipPath id="clip352">
    <rect x="202" y="123" width="2152" height="1301"/>
  </clipPath>
</defs>
<polyline clip-path="url(#clip352)" style="stroke:#000000; stroke-linecap:butt; stroke-linejoin:round; stroke-width:2; stroke-opacity:0.1; fill:none" points="
  449.955,1423.18 449.955,123.472 
  "/>
<polyline clip-path="url(#clip352)" style="stroke:#000000; stroke-linecap:butt; stroke-linejoin:round; stroke-width:2; stroke-opacity:0.1; fill:none" points="
  783.639,1423.18 783.639,123.472 
  "/>
<polyline clip-path="url(#clip352)" style="stroke:#000000; stroke-linecap:butt; stroke-linejoin:round; stroke-width:2; stroke-opacity:0.1; fill:none" points="
  1117.32,1423.18 1117.32,123.472 
  "/>
<polyline clip-path="url(#clip352)" style="stroke:#000000; stroke-linecap:butt; stroke-linejoin:round; stroke-width:2; stroke-opacity:0.1; fill:none" points="
  1451.01,1423.18 1451.01,123.472 
  "/>
<polyline clip-path="url(#clip352)" style="stroke:#000000; stroke-linecap:butt; stroke-linejoin:round; stroke-width:2; stroke-opacity:0.1; fill:none" points="
  1784.69,1423.18 1784.69,123.472 
  "/>
<polyline clip-path="url(#clip352)" style="stroke:#000000; stroke-linecap:butt; stroke-linejoin:round; stroke-width:2; stroke-opacity:0.1; fill:none" points="
  2118.38,1423.18 2118.38,123.472 
  "/>
<polyline clip-path="url(#clip350)" style="stroke:#000000; stroke-linecap:butt; stroke-linejoin:round; stroke-width:4; stroke-opacity:1; fill:none" points="
  202.227,1423.18 2352.76,1423.18 
  "/>
<polyline clip-path="url(#clip350)" style="stroke:#000000; stroke-linecap:butt; stroke-linejoin:round; stroke-width:4; stroke-opacity:1; fill:none" points="
  449.955,1423.18 449.955,1404.28 
  "/>
<polyline clip-path="url(#clip350)" style="stroke:#000000; stroke-linecap:butt; stroke-linejoin:round; stroke-width:4; stroke-opacity:1; fill:none" points="
  783.639,1423.18 783.639,1404.28 
  "/>
<polyline clip-path="url(#clip350)" style="stroke:#000000; stroke-linecap:butt; stroke-linejoin:round; stroke-width:4; stroke-opacity:1; fill:none" points="
  1117.32,1423.18 1117.32,1404.28 
  "/>
<polyline clip-path="url(#clip350)" style="stroke:#000000; stroke-linecap:butt; stroke-linejoin:round; stroke-width:4; stroke-opacity:1; fill:none" points="
  1451.01,1423.18 1451.01,1404.28 
  "/>
<polyline clip-path="url(#clip350)" style="stroke:#000000; stroke-linecap:butt; stroke-linejoin:round; stroke-width:4; stroke-opacity:1; fill:none" points="
  1784.69,1423.18 1784.69,1404.28 
  "/>
<polyline clip-path="url(#clip350)" style="stroke:#000000; stroke-linecap:butt; stroke-linejoin:round; stroke-width:4; stroke-opacity:1; fill:none" points="
  2118.38,1423.18 2118.38,1404.28 
  "/>
<path clip-path="url(#clip350)" d="M425.094 1481.64 L432.733 1481.64 L432.733 1455.28 L424.422 1456.95 L424.422 1452.69 L432.686 1451.02 L437.362 1451.02 L437.362 1481.64 L445.001 1481.64 L445.001 1485.58 L425.094 1485.58 L425.094 1481.64 Z" fill="#000000" fill-rule="evenodd" fill-opacity="1" /><path clip-path="url(#clip350)" d="M453.265 1451.02 L475.487 1451.02 L475.487 1453.01 L462.941 1485.58 L458.056 1485.58 L469.862 1454.96 L453.265 1454.96 L453.265 1451.02 Z" fill="#000000" fill-rule="evenodd" fill-opacity="1" /><path clip-path="url(#clip350)" d="M758.373 1481.64 L766.012 1481.64 L766.012 1455.28 L757.702 1456.95 L757.702 1452.69 L765.965 1451.02 L770.641 1451.02 L770.641 1481.64 L778.28 1481.64 L778.28 1485.58 L758.373 1485.58 L758.373 1481.64 Z" fill="#000000" fill-rule="evenodd" fill-opacity="1" /><path clip-path="url(#clip350)" d="M797.725 1469.17 Q794.391 1469.17 792.47 1470.95 Q790.572 1472.73 790.572 1475.86 Q790.572 1478.98 792.47 1480.77 Q794.391 1482.55 797.725 1482.55 Q801.058 1482.55 802.979 1480.77 Q804.9 1478.96 804.9 1475.86 Q804.9 1472.73 802.979 1470.95 Q801.081 1469.17 797.725 1469.17 M793.049 1467.18 Q790.039 1466.44 788.35 1464.38 Q786.683 1462.32 786.683 1459.35 Q786.683 1455.21 789.623 1452.8 Q792.586 1450.39 797.725 1450.39 Q802.887 1450.39 805.826 1452.8 Q808.766 1455.21 808.766 1459.35 Q808.766 1462.32 807.076 1464.38 Q805.41 1466.44 802.424 1467.18 Q805.803 1467.96 807.678 1470.26 Q809.576 1472.55 809.576 1475.86 Q809.576 1480.88 806.498 1483.57 Q803.442 1486.25 797.725 1486.25 Q792.007 1486.25 788.928 1483.57 Q785.873 1480.88 785.873 1475.86 Q785.873 1472.55 787.771 1470.26 Q789.669 1467.96 793.049 1467.18 M791.336 1459.79 Q791.336 1462.48 793.002 1463.98 Q794.692 1465.49 797.725 1465.49 Q800.734 1465.49 802.424 1463.98 Q804.137 1462.48 804.137 1459.79 Q804.137 1457.11 802.424 1455.6 Q800.734 1454.1 797.725 1454.1 Q794.692 1454.1 793.002 1455.6 Q791.336 1457.11 791.336 1459.79 Z" fill="#000000" fill-rule="evenodd" fill-opacity="1" /><path clip-path="url(#clip350)" d="M1092.1 1481.64 L1099.74 1481.64 L1099.74 1455.28 L1091.43 1456.95 L1091.43 1452.69 L1099.7 1451.02 L1104.37 1451.02 L1104.37 1481.64 L1112.01 1481.64 L1112.01 1485.58 L1092.1 1485.58 L1092.1 1481.64 Z" fill="#000000" fill-rule="evenodd" fill-opacity="1" /><path clip-path="url(#clip350)" d="M1121.59 1484.86 L1121.59 1480.6 Q1123.35 1481.44 1125.16 1481.88 Q1126.96 1482.32 1128.7 1482.32 Q1133.33 1482.32 1135.76 1479.21 Q1138.21 1476.09 1138.56 1469.75 Q1137.22 1471.74 1135.16 1472.8 Q1133.1 1473.87 1130.6 1473.87 Q1125.41 1473.87 1122.38 1470.74 Q1119.37 1467.59 1119.37 1462.15 Q1119.37 1456.83 1122.52 1453.61 Q1125.67 1450.39 1130.9 1450.39 Q1136.89 1450.39 1140.04 1455 Q1143.21 1459.58 1143.21 1468.33 Q1143.21 1476.51 1139.33 1481.39 Q1135.46 1486.25 1128.91 1486.25 Q1127.15 1486.25 1125.34 1485.9 Q1123.54 1485.56 1121.59 1484.86 M1130.9 1470.21 Q1134.05 1470.21 1135.88 1468.06 Q1137.73 1465.9 1137.73 1462.15 Q1137.73 1458.43 1135.88 1456.27 Q1134.05 1454.1 1130.9 1454.1 Q1127.75 1454.1 1125.9 1456.27 Q1124.07 1458.43 1124.07 1462.15 Q1124.07 1465.9 1125.9 1468.06 Q1127.75 1470.21 1130.9 1470.21 Z" fill="#000000" fill-rule="evenodd" fill-opacity="1" /><path clip-path="url(#clip350)" d="M1429.78 1481.64 L1446.1 1481.64 L1446.1 1485.58 L1424.16 1485.58 L1424.16 1481.64 Q1426.82 1478.89 1431.4 1474.26 Q1436.01 1469.61 1437.19 1468.27 Q1439.43 1465.74 1440.31 1464.01 Q1441.22 1462.25 1441.22 1460.56 Q1441.22 1457.8 1439.27 1456.07 Q1437.35 1454.33 1434.25 1454.33 Q1432.05 1454.33 1429.6 1455.09 Q1427.17 1455.86 1424.39 1457.41 L1424.39 1452.69 Q1427.21 1451.55 1429.67 1450.97 Q1432.12 1450.39 1434.16 1450.39 Q1439.53 1450.39 1442.72 1453.08 Q1445.91 1455.77 1445.91 1460.26 Q1445.91 1462.39 1445.1 1464.31 Q1444.32 1466.2 1442.21 1468.8 Q1441.63 1469.47 1438.53 1472.69 Q1435.43 1475.88 1429.78 1481.64 Z" fill="#000000" fill-rule="evenodd" fill-opacity="1" /><path clip-path="url(#clip350)" d="M1465.91 1454.1 Q1462.3 1454.1 1460.48 1457.66 Q1458.67 1461.2 1458.67 1468.33 Q1458.67 1475.44 1460.48 1479.01 Q1462.3 1482.55 1465.91 1482.55 Q1469.55 1482.55 1471.35 1479.01 Q1473.18 1475.44 1473.18 1468.33 Q1473.18 1461.2 1471.35 1457.66 Q1469.55 1454.1 1465.91 1454.1 M1465.91 1450.39 Q1471.72 1450.39 1474.78 1455 Q1477.86 1459.58 1477.86 1468.33 Q1477.86 1477.06 1474.78 1481.67 Q1471.72 1486.25 1465.91 1486.25 Q1460.1 1486.25 1457.03 1481.67 Q1453.97 1477.06 1453.97 1468.33 Q1453.97 1459.58 1457.03 1455 Q1460.1 1450.39 1465.91 1450.39 Z" fill="#000000" fill-rule="evenodd" fill-opacity="1" /><path clip-path="url(#clip350)" d="M1764.08 1481.64 L1780.4 1481.64 L1780.4 1485.58 L1758.45 1485.58 L1758.45 1481.64 Q1761.12 1478.89 1765.7 1474.26 Q1770.31 1469.61 1771.49 1468.27 Q1773.73 1465.74 1774.61 1464.01 Q1775.51 1462.25 1775.51 1460.56 Q1775.51 1457.8 1773.57 1456.07 Q1771.65 1454.33 1768.55 1454.33 Q1766.35 1454.33 1763.89 1455.09 Q1761.46 1455.86 1758.68 1457.41 L1758.68 1452.69 Q1761.51 1451.55 1763.96 1450.97 Q1766.42 1450.39 1768.45 1450.39 Q1773.82 1450.39 1777.02 1453.08 Q1780.21 1455.77 1780.21 1460.26 Q1780.21 1462.39 1779.4 1464.31 Q1778.62 1466.2 1776.51 1468.8 Q1775.93 1469.47 1772.83 1472.69 Q1769.73 1475.88 1764.08 1481.64 Z" fill="#000000" fill-rule="evenodd" fill-opacity="1" /><path clip-path="url(#clip350)" d="M1791.02 1481.64 L1798.66 1481.64 L1798.66 1455.28 L1790.35 1456.95 L1790.35 1452.69 L1798.62 1451.02 L1803.29 1451.02 L1803.29 1481.64 L1810.93 1481.64 L1810.93 1485.58 L1791.02 1485.58 L1791.02 1481.64 Z" fill="#000000" fill-rule="evenodd" fill-opacity="1" /><path clip-path="url(#clip350)" d="M2097.95 1481.64 L2114.27 1481.64 L2114.27 1485.58 L2092.32 1485.58 L2092.32 1481.64 Q2094.98 1478.89 2099.57 1474.26 Q2104.17 1469.61 2105.36 1468.27 Q2107.6 1465.74 2108.48 1464.01 Q2109.38 1462.25 2109.38 1460.56 Q2109.38 1457.8 2107.44 1456.07 Q2105.52 1454.33 2102.42 1454.33 Q2100.22 1454.33 2097.76 1455.09 Q2095.33 1455.86 2092.55 1457.41 L2092.55 1452.69 Q2095.38 1451.55 2097.83 1450.97 Q2100.29 1450.39 2102.32 1450.39 Q2107.69 1450.39 2110.89 1453.08 Q2114.08 1455.77 2114.08 1460.26 Q2114.08 1462.39 2113.27 1464.31 Q2112.48 1466.2 2110.38 1468.8 Q2109.8 1469.47 2106.7 1472.69 Q2103.6 1475.88 2097.95 1481.64 Z" fill="#000000" fill-rule="evenodd" fill-opacity="1" /><path clip-path="url(#clip350)" d="M2128.11 1481.64 L2144.43 1481.64 L2144.43 1485.58 L2122.48 1485.58 L2122.48 1481.64 Q2125.15 1478.89 2129.73 1474.26 Q2134.34 1469.61 2135.52 1468.27 Q2137.76 1465.74 2138.64 1464.01 Q2139.54 1462.25 2139.54 1460.56 Q2139.54 1457.8 2137.6 1456.07 Q2135.68 1454.33 2132.58 1454.33 Q2130.38 1454.33 2127.92 1455.09 Q2125.49 1455.86 2122.72 1457.41 L2122.72 1452.69 Q2125.54 1451.55 2127.99 1450.97 Q2130.45 1450.39 2132.48 1450.39 Q2137.86 1450.39 2141.05 1453.08 Q2144.24 1455.77 2144.24 1460.26 Q2144.24 1462.39 2143.43 1464.31 Q2142.65 1466.2 2140.54 1468.8 Q2139.96 1469.47 2136.86 1472.69 Q2133.76 1475.88 2128.11 1481.64 Z" fill="#000000" fill-rule="evenodd" fill-opacity="1" /><path clip-path="url(#clip350)" d="M833.468 1520.52 L843.048 1520.52 L855.175 1552.86 L867.365 1520.52 L876.946 1520.52 L876.946 1568.04 L870.675 1568.04 L870.675 1526.32 L858.421 1558.91 L851.96 1558.91 L839.706 1526.32 L839.706 1568.04 L833.468 1568.04 L833.468 1520.52 Z" fill="#000000" fill-rule="evenodd" fill-opacity="1" /><path clip-path="url(#clip350)" d="M905.655 1550.12 Q898.557 1550.12 895.82 1551.75 Q893.083 1553.37 893.083 1557.29 Q893.083 1560.4 895.12 1562.25 Q897.188 1564.07 900.721 1564.07 Q905.591 1564.07 908.519 1560.63 Q911.479 1557.16 911.479 1551.43 L911.479 1550.12 L905.655 1550.12 M917.336 1547.71 L917.336 1568.04 L911.479 1568.04 L911.479 1562.63 Q909.474 1565.88 906.482 1567.44 Q903.491 1568.97 899.162 1568.97 Q893.687 1568.97 890.441 1565.91 Q887.226 1562.82 887.226 1557.67 Q887.226 1551.65 891.237 1548.6 Q895.279 1545.54 903.268 1545.54 L911.479 1545.54 L911.479 1544.97 Q911.479 1540.93 908.806 1538.73 Q906.164 1536.5 901.358 1536.5 Q898.302 1536.5 895.406 1537.23 Q892.51 1537.97 889.836 1539.43 L889.836 1534.02 Q893.051 1532.78 896.074 1532.17 Q899.098 1531.54 901.963 1531.54 Q909.697 1531.54 913.516 1535.55 Q917.336 1539.56 917.336 1547.71 Z" fill="#000000" fill-rule="evenodd" fill-opacity="1" /><path clip-path="url(#clip350)" d="M929.399 1518.52 L935.255 1518.52 L935.255 1568.04 L929.399 1568.04 L929.399 1518.52 Z" fill="#000000" fill-rule="evenodd" fill-opacity="1" /><path clip-path="url(#clip350)" d="M978.001 1548.76 L978.001 1551.62 L951.074 1551.62 Q951.456 1557.67 954.703 1560.85 Q957.981 1564 963.806 1564 Q967.179 1564 970.33 1563.17 Q973.513 1562.35 976.632 1560.69 L976.632 1566.23 Q973.481 1567.57 970.171 1568.27 Q966.861 1568.97 963.455 1568.97 Q954.925 1568.97 949.928 1564 Q944.963 1559.04 944.963 1550.57 Q944.963 1541.82 949.674 1536.69 Q954.416 1531.54 962.437 1531.54 Q969.63 1531.54 973.8 1536.18 Q978.001 1540.8 978.001 1548.76 M972.145 1547.04 Q972.081 1542.23 969.439 1539.37 Q966.829 1536.5 962.501 1536.5 Q957.599 1536.5 954.639 1539.27 Q951.711 1542.04 951.265 1547.07 L972.145 1547.04 Z" fill="#000000" fill-rule="evenodd" fill-opacity="1" /><path clip-path="url(#clip350)" d="M1037.07 1522.08 L1037.07 1528.35 Q1033.41 1526.6 1030.17 1525.74 Q1026.92 1524.88 1023.9 1524.88 Q1018.65 1524.88 1015.78 1526.92 Q1012.95 1528.96 1012.95 1532.71 Q1012.95 1535.87 1014.83 1537.49 Q1016.74 1539.08 1022.02 1540.07 L1025.9 1540.86 Q1033.1 1542.23 1036.5 1545.7 Q1039.94 1549.14 1039.94 1554.93 Q1039.94 1561.84 1035.29 1565.4 Q1030.68 1568.97 1021.73 1568.97 Q1018.36 1568.97 1014.54 1568.2 Q1010.75 1567.44 1006.68 1565.94 L1006.68 1559.32 Q1010.59 1561.52 1014.35 1562.63 Q1018.11 1563.75 1021.73 1563.75 Q1027.24 1563.75 1030.23 1561.58 Q1033.22 1559.42 1033.22 1555.41 Q1033.22 1551.91 1031.06 1549.93 Q1028.93 1547.96 1024.03 1546.97 L1020.11 1546.21 Q1012.92 1544.78 1009.7 1541.72 Q1006.49 1538.67 1006.49 1533.22 Q1006.49 1526.92 1010.91 1523.29 Q1015.37 1519.66 1023.17 1519.66 Q1026.51 1519.66 1029.98 1520.27 Q1033.45 1520.87 1037.07 1522.08 Z" fill="#000000" fill-rule="evenodd" fill-opacity="1" /><path clip-path="url(#clip350)" d="M1049.11 1553.98 L1049.11 1532.4 L1054.96 1532.4 L1054.96 1553.75 Q1054.96 1558.81 1056.94 1561.36 Q1058.91 1563.87 1062.86 1563.87 Q1067.6 1563.87 1070.34 1560.85 Q1073.1 1557.83 1073.1 1552.61 L1073.1 1532.4 L1078.96 1532.4 L1078.96 1568.04 L1073.1 1568.04 L1073.1 1562.57 Q1070.97 1565.82 1068.14 1567.41 Q1065.34 1568.97 1061.61 1568.97 Q1055.47 1568.97 1052.29 1565.15 Q1049.11 1561.33 1049.11 1553.98 M1063.84 1531.54 L1063.84 1531.54 Z" fill="#000000" fill-rule="evenodd" fill-opacity="1" /><path clip-path="url(#clip350)" d="M1091.02 1532.4 L1096.88 1532.4 L1096.88 1568.04 L1091.02 1568.04 L1091.02 1532.4 M1091.02 1518.52 L1096.88 1518.52 L1096.88 1525.93 L1091.02 1525.93 L1091.02 1518.52 Z" fill="#000000" fill-rule="evenodd" fill-opacity="1" /><path clip-path="url(#clip350)" d="M1134.79 1533.76 L1134.79 1539.24 Q1132.31 1537.87 1129.79 1537.2 Q1127.31 1536.5 1124.76 1536.5 Q1119.07 1536.5 1115.91 1540.13 Q1112.76 1543.73 1112.76 1550.25 Q1112.76 1556.78 1115.91 1560.4 Q1119.07 1564 1124.76 1564 Q1127.31 1564 1129.79 1563.33 Q1132.31 1562.63 1134.79 1561.26 L1134.79 1566.68 Q1132.34 1567.82 1129.7 1568.39 Q1127.09 1568.97 1124.13 1568.97 Q1116.07 1568.97 1111.33 1563.91 Q1106.59 1558.85 1106.59 1550.25 Q1106.59 1541.53 1111.36 1536.53 Q1116.17 1531.54 1124.51 1531.54 Q1127.21 1531.54 1129.79 1532.11 Q1132.37 1532.65 1134.79 1533.76 Z" fill="#000000" fill-rule="evenodd" fill-opacity="1" /><path clip-path="url(#clip350)" d="M1144.97 1532.4 L1150.83 1532.4 L1150.83 1568.04 L1144.97 1568.04 L1144.97 1532.4 M1144.97 1518.52 L1150.83 1518.52 L1150.83 1525.93 L1144.97 1525.93 L1144.97 1518.52 Z" fill="#000000" fill-rule="evenodd" fill-opacity="1" /><path clip-path="url(#clip350)" d="M1186.54 1537.81 L1186.54 1518.52 L1192.4 1518.52 L1192.4 1568.04 L1186.54 1568.04 L1186.54 1562.7 Q1184.7 1565.88 1181.86 1567.44 Q1179.06 1568.97 1175.12 1568.97 Q1168.65 1568.97 1164.58 1563.81 Q1160.54 1558.65 1160.54 1550.25 Q1160.54 1541.85 1164.58 1536.69 Q1168.65 1531.54 1175.12 1531.54 Q1179.06 1531.54 1181.86 1533.1 Q1184.7 1534.62 1186.54 1537.81 M1166.59 1550.25 Q1166.59 1556.71 1169.23 1560.4 Q1171.9 1564.07 1176.55 1564.07 Q1181.19 1564.07 1183.87 1560.4 Q1186.54 1556.71 1186.54 1550.25 Q1186.54 1543.79 1183.87 1540.13 Q1181.19 1536.44 1176.55 1536.44 Q1171.9 1536.44 1169.23 1540.13 Q1166.59 1543.79 1166.59 1550.25 Z" fill="#000000" fill-rule="evenodd" fill-opacity="1" /><path clip-path="url(#clip350)" d="M1234.95 1548.76 L1234.95 1551.62 L1208.03 1551.62 Q1208.41 1557.67 1211.65 1560.85 Q1214.93 1564 1220.76 1564 Q1224.13 1564 1227.28 1563.17 Q1230.47 1562.35 1233.58 1560.69 L1233.58 1566.23 Q1230.43 1567.57 1227.12 1568.27 Q1223.81 1568.97 1220.41 1568.97 Q1211.88 1568.97 1206.88 1564 Q1201.91 1559.04 1201.91 1550.57 Q1201.91 1541.82 1206.63 1536.69 Q1211.37 1531.54 1219.39 1531.54 Q1226.58 1531.54 1230.75 1536.18 Q1234.95 1540.8 1234.95 1548.76 M1229.1 1547.04 Q1229.03 1542.23 1226.39 1539.37 Q1223.78 1536.5 1219.45 1536.5 Q1214.55 1536.5 1211.59 1539.27 Q1208.66 1542.04 1208.22 1547.07 L1229.1 1547.04 Z" fill="#000000" fill-rule="evenodd" fill-opacity="1" /><path clip-path="url(#clip350)" d="M1288.07 1545.76 Q1290.14 1546.46 1292.09 1548.76 Q1294.06 1551.05 1296.03 1555.06 L1302.56 1568.04 L1295.65 1568.04 L1289.57 1555.85 Q1287.22 1551.08 1284.99 1549.52 Q1282.79 1547.96 1278.97 1547.96 L1271.97 1547.96 L1271.97 1568.04 L1265.54 1568.04 L1265.54 1520.52 L1280.05 1520.52 Q1288.2 1520.52 1292.21 1523.93 Q1296.22 1527.34 1296.22 1534.21 Q1296.22 1538.7 1294.12 1541.66 Q1292.05 1544.62 1288.07 1545.76 M1271.97 1525.81 L1271.97 1542.68 L1280.05 1542.68 Q1284.7 1542.68 1287.06 1540.54 Q1289.44 1538.38 1289.44 1534.21 Q1289.44 1530.04 1287.06 1527.94 Q1284.7 1525.81 1280.05 1525.81 L1271.97 1525.81 Z" fill="#000000" fill-rule="evenodd" fill-opacity="1" /><path clip-path="url(#clip350)" d="M1325.35 1550.12 Q1318.25 1550.12 1315.51 1551.75 Q1312.77 1553.37 1312.77 1557.29 Q1312.77 1560.4 1314.81 1562.25 Q1316.88 1564.07 1320.41 1564.07 Q1325.28 1564.07 1328.21 1560.63 Q1331.17 1557.16 1331.17 1551.43 L1331.17 1550.12 L1325.35 1550.12 M1337.03 1547.71 L1337.03 1568.04 L1331.17 1568.04 L1331.17 1562.63 Q1329.17 1565.88 1326.17 1567.44 Q1323.18 1568.97 1318.85 1568.97 Q1313.38 1568.97 1310.13 1565.91 Q1306.92 1562.82 1306.92 1557.67 Q1306.92 1551.65 1310.93 1548.6 Q1314.97 1545.54 1322.96 1545.54 L1331.17 1545.54 L1331.17 1544.97 Q1331.17 1540.93 1328.5 1538.73 Q1325.86 1536.5 1321.05 1536.5 Q1317.99 1536.5 1315.1 1537.23 Q1312.2 1537.97 1309.53 1539.43 L1309.53 1534.02 Q1312.74 1532.78 1315.77 1532.17 Q1318.79 1531.54 1321.65 1531.54 Q1329.39 1531.54 1333.21 1535.55 Q1337.03 1539.56 1337.03 1547.71 Z" fill="#000000" fill-rule="evenodd" fill-opacity="1" /><path clip-path="url(#clip350)" d="M1354.88 1522.27 L1354.88 1532.4 L1366.95 1532.4 L1366.95 1536.95 L1354.88 1536.95 L1354.88 1556.3 Q1354.88 1560.66 1356.06 1561.9 Q1357.27 1563.14 1360.93 1563.14 L1366.95 1563.14 L1366.95 1568.04 L1360.93 1568.04 Q1354.15 1568.04 1351.57 1565.53 Q1348.99 1562.98 1348.99 1556.3 L1348.99 1536.95 L1344.7 1536.95 L1344.7 1532.4 L1348.99 1532.4 L1348.99 1522.27 L1354.88 1522.27 Z" fill="#000000" fill-rule="evenodd" fill-opacity="1" /><path clip-path="url(#clip350)" d="M1405.14 1548.76 L1405.14 1551.62 L1378.21 1551.62 Q1378.6 1557.67 1381.84 1560.85 Q1385.12 1564 1390.94 1564 Q1394.32 1564 1397.47 1563.17 Q1400.65 1562.35 1403.77 1560.69 L1403.77 1566.23 Q1400.62 1567.57 1397.31 1568.27 Q1394 1568.97 1390.59 1568.97 Q1382.06 1568.97 1377.07 1564 Q1372.1 1559.04 1372.1 1550.57 Q1372.1 1541.82 1376.81 1536.69 Q1381.56 1531.54 1389.58 1531.54 Q1396.77 1531.54 1400.94 1536.18 Q1405.14 1540.8 1405.14 1548.76 M1399.28 1547.04 Q1399.22 1542.23 1396.58 1539.37 Q1393.97 1536.5 1389.64 1536.5 Q1384.74 1536.5 1381.78 1539.27 Q1378.85 1542.04 1378.4 1547.07 L1399.28 1547.04 Z" fill="#000000" fill-rule="evenodd" fill-opacity="1" /><path clip-path="url(#clip350)" d="M1445.88 1520.52 L1451.29 1520.52 L1434.74 1574.09 L1429.33 1574.09 L1445.88 1520.52 Z" fill="#000000" fill-rule="evenodd" fill-opacity="1" /><path clip-path="url(#clip350)" d="M1480.1 1562.63 L1490.6 1562.63 L1490.6 1526.38 L1479.17 1528.67 L1479.17 1522.82 L1490.54 1520.52 L1496.97 1520.52 L1496.97 1562.63 L1507.47 1562.63 L1507.47 1568.04 L1480.1 1568.04 L1480.1 1562.63 Z" fill="#000000" fill-rule="evenodd" fill-opacity="1" /><path clip-path="url(#clip350)" d="M1534.2 1524.76 Q1529.24 1524.76 1526.73 1529.66 Q1524.24 1534.53 1524.24 1544.33 Q1524.24 1554.1 1526.73 1559 Q1529.24 1563.87 1534.2 1563.87 Q1539.2 1563.87 1541.68 1559 Q1544.2 1554.1 1544.2 1544.33 Q1544.2 1534.53 1541.68 1529.66 Q1539.2 1524.76 1534.2 1524.76 M1534.2 1519.66 Q1542.19 1519.66 1546.4 1526 Q1550.63 1532.3 1550.63 1544.33 Q1550.63 1556.33 1546.4 1562.66 Q1542.19 1568.97 1534.2 1568.97 Q1526.22 1568.97 1521.98 1562.66 Q1517.78 1556.33 1517.78 1544.33 Q1517.78 1532.3 1521.98 1526 Q1526.22 1519.66 1534.2 1519.66 Z" fill="#000000" fill-rule="evenodd" fill-opacity="1" /><path clip-path="url(#clip350)" d="M1575.68 1524.76 Q1570.71 1524.76 1568.2 1529.66 Q1565.71 1534.53 1565.71 1544.33 Q1565.71 1554.1 1568.2 1559 Q1570.71 1563.87 1575.68 1563.87 Q1580.67 1563.87 1583.16 1559 Q1585.67 1554.1 1585.67 1544.33 Q1585.67 1534.53 1583.16 1529.66 Q1580.67 1524.76 1575.68 1524.76 M1575.68 1519.66 Q1583.67 1519.66 1587.87 1526 Q1592.1 1532.3 1592.1 1544.33 Q1592.1 1556.33 1587.87 1562.66 Q1583.67 1568.97 1575.68 1568.97 Q1567.69 1568.97 1563.46 1562.66 Q1559.25 1556.33 1559.25 1544.33 Q1559.25 1532.3 1563.46 1526 Q1567.69 1519.66 1575.68 1519.66 Z" fill="#000000" fill-rule="evenodd" fill-opacity="1" /><path clip-path="url(#clip350)" d="M1602.35 1518.52 L1608.24 1518.52 L1608.24 1547.77 L1625.71 1532.4 L1633.19 1532.4 L1614.29 1549.07 L1633.99 1568.04 L1626.35 1568.04 L1608.24 1550.63 L1608.24 1568.04 L1602.35 1568.04 L1602.35 1518.52 Z" fill="#000000" fill-rule="evenodd" fill-opacity="1" /><path clip-path="url(#clip350)" d="M1650.73 1520.52 L1656.14 1520.52 L1639.59 1574.09 L1634.18 1574.09 L1650.73 1520.52 Z" fill="#000000" fill-rule="evenodd" fill-opacity="1" /><path clip-path="url(#clip350)" d="M1677.11 1571.35 Q1674.63 1577.72 1672.28 1579.66 Q1669.92 1581.6 1665.97 1581.6 L1661.3 1581.6 L1661.3 1576.7 L1664.73 1576.7 Q1667.15 1576.7 1668.49 1575.56 Q1669.83 1574.41 1671.45 1570.14 L1672.5 1567.47 L1658.08 1532.4 L1664.29 1532.4 L1675.43 1560.28 L1686.57 1532.4 L1692.77 1532.4 L1677.11 1571.35 Z" fill="#000000" fill-rule="evenodd" fill-opacity="1" /><path clip-path="url(#clip350)" d="M1721.52 1537.87 Q1720.53 1537.3 1719.35 1537.04 Q1718.21 1536.76 1716.81 1536.76 Q1711.84 1536.76 1709.17 1540 Q1706.52 1543.22 1706.52 1549.27 L1706.52 1568.04 L1700.64 1568.04 L1700.64 1532.4 L1706.52 1532.4 L1706.52 1537.93 Q1708.37 1534.69 1711.33 1533.13 Q1714.29 1531.54 1718.52 1531.54 Q1719.13 1531.54 1719.86 1531.63 Q1720.59 1531.7 1721.48 1531.85 L1721.52 1537.87 Z" fill="#000000" fill-rule="evenodd" fill-opacity="1" /><polyline clip-path="url(#clip352)" style="stroke:#000000; stroke-linecap:butt; stroke-linejoin:round; stroke-width:2; stroke-opacity:0.1; fill:none" points="
  202.227,1386.4 2352.76,1386.4 
  "/>
<polyline clip-path="url(#clip352)" style="stroke:#000000; stroke-linecap:butt; stroke-linejoin:round; stroke-width:2; stroke-opacity:0.1; fill:none" points="
  202.227,1045.8 2352.76,1045.8 
  "/>
<polyline clip-path="url(#clip352)" style="stroke:#000000; stroke-linecap:butt; stroke-linejoin:round; stroke-width:2; stroke-opacity:0.1; fill:none" points="
  202.227,705.207 2352.76,705.207 
  "/>
<polyline clip-path="url(#clip352)" style="stroke:#000000; stroke-linecap:butt; stroke-linejoin:round; stroke-width:2; stroke-opacity:0.1; fill:none" points="
  202.227,364.613 2352.76,364.613 
  "/>
<polyline clip-path="url(#clip350)" style="stroke:#000000; stroke-linecap:butt; stroke-linejoin:round; stroke-width:4; stroke-opacity:1; fill:none" points="
  202.227,1423.18 202.227,123.472 
  "/>
<polyline clip-path="url(#clip350)" style="stroke:#000000; stroke-linecap:butt; stroke-linejoin:round; stroke-width:4; stroke-opacity:1; fill:none" points="
  202.227,1386.4 221.125,1386.4 
  "/>
<polyline clip-path="url(#clip350)" style="stroke:#000000; stroke-linecap:butt; stroke-linejoin:round; stroke-width:4; stroke-opacity:1; fill:none" points="
  202.227,1045.8 221.125,1045.8 
  "/>
<polyline clip-path="url(#clip350)" style="stroke:#000000; stroke-linecap:butt; stroke-linejoin:round; stroke-width:4; stroke-opacity:1; fill:none" points="
  202.227,705.207 221.125,705.207 
  "/>
<polyline clip-path="url(#clip350)" style="stroke:#000000; stroke-linecap:butt; stroke-linejoin:round; stroke-width:4; stroke-opacity:1; fill:none" points="
  202.227,364.613 221.125,364.613 
  "/>
<path clip-path="url(#clip350)" d="M154.283 1372.19 Q150.672 1372.19 148.843 1375.76 Q147.038 1379.3 147.038 1386.43 Q147.038 1393.54 148.843 1397.1 Q150.672 1400.64 154.283 1400.64 Q157.917 1400.64 159.723 1397.1 Q161.552 1393.54 161.552 1386.43 Q161.552 1379.3 159.723 1375.76 Q157.917 1372.19 154.283 1372.19 M154.283 1368.49 Q160.093 1368.49 163.149 1373.1 Q166.227 1377.68 166.227 1386.43 Q166.227 1395.16 163.149 1399.76 Q160.093 1404.35 154.283 1404.35 Q148.473 1404.35 145.394 1399.76 Q142.339 1395.16 142.339 1386.43 Q142.339 1377.68 145.394 1373.1 Q148.473 1368.49 154.283 1368.49 Z" fill="#000000" fill-rule="evenodd" fill-opacity="1" /><path clip-path="url(#clip350)" d="M145.325 1028.52 L163.681 1028.52 L163.681 1032.46 L149.607 1032.46 L149.607 1040.93 Q150.626 1040.58 151.644 1040.42 Q152.663 1040.23 153.681 1040.23 Q159.468 1040.23 162.848 1043.41 Q166.227 1046.58 166.227 1051.99 Q166.227 1057.57 162.755 1060.67 Q159.283 1063.75 152.964 1063.75 Q150.788 1063.75 148.519 1063.38 Q146.274 1063.01 143.866 1062.27 L143.866 1057.57 Q145.95 1058.71 148.172 1059.26 Q150.394 1059.82 152.871 1059.82 Q156.876 1059.82 159.214 1057.71 Q161.552 1055.6 161.552 1051.99 Q161.552 1048.38 159.214 1046.28 Q156.876 1044.17 152.871 1044.17 Q150.996 1044.17 149.121 1044.59 Q147.269 1045 145.325 1045.88 L145.325 1028.52 Z" fill="#000000" fill-rule="evenodd" fill-opacity="1" /><path clip-path="url(#clip350)" d="M114.931 718.552 L122.57 718.552 L122.57 692.186 L114.26 693.853 L114.26 689.594 L122.524 687.927 L127.2 687.927 L127.2 718.552 L134.839 718.552 L134.839 722.487 L114.931 722.487 L114.931 718.552 Z" fill="#000000" fill-rule="evenodd" fill-opacity="1" /><path clip-path="url(#clip350)" d="M154.283 691.006 Q150.672 691.006 148.843 694.571 Q147.038 698.112 147.038 705.242 Q147.038 712.348 148.843 715.913 Q150.672 719.455 154.283 719.455 Q157.917 719.455 159.723 715.913 Q161.552 712.348 161.552 705.242 Q161.552 698.112 159.723 694.571 Q157.917 691.006 154.283 691.006 M154.283 687.302 Q160.093 687.302 163.149 691.909 Q166.227 696.492 166.227 705.242 Q166.227 713.969 163.149 718.575 Q160.093 723.158 154.283 723.158 Q148.473 723.158 145.394 718.575 Q142.339 713.969 142.339 705.242 Q142.339 696.492 145.394 691.909 Q148.473 687.302 154.283 687.302 Z" fill="#000000" fill-rule="evenodd" fill-opacity="1" /><path clip-path="url(#clip350)" d="M115.927 377.958 L123.566 377.958 L123.566 351.592 L115.256 353.259 L115.256 349 L123.519 347.333 L128.195 347.333 L128.195 377.958 L135.834 377.958 L135.834 381.893 L115.927 381.893 L115.927 377.958 Z" fill="#000000" fill-rule="evenodd" fill-opacity="1" /><path clip-path="url(#clip350)" d="M145.325 347.333 L163.681 347.333 L163.681 351.268 L149.607 351.268 L149.607 359.74 Q150.626 359.393 151.644 359.231 Q152.663 359.046 153.681 359.046 Q159.468 359.046 162.848 362.217 Q166.227 365.388 166.227 370.805 Q166.227 376.384 162.755 379.485 Q159.283 382.564 152.964 382.564 Q150.788 382.564 148.519 382.194 Q146.274 381.823 143.866 381.083 L143.866 376.384 Q145.95 377.518 148.172 378.073 Q150.394 378.629 152.871 378.629 Q156.876 378.629 159.214 376.523 Q161.552 374.416 161.552 370.805 Q161.552 367.194 159.214 365.087 Q156.876 362.981 152.871 362.981 Q150.996 362.981 149.121 363.398 Q147.269 363.814 145.325 364.694 L145.325 347.333 Z" fill="#000000" fill-rule="evenodd" fill-opacity="1" /><path clip-path="url(#clip350)" d="M21.7677 1121.29 L39.6235 1121.29 L39.6235 1113.21 Q39.6235 1108.72 37.3 1106.27 Q34.9765 1103.82 30.6797 1103.82 Q26.4147 1103.82 24.0912 1106.27 Q21.7677 1108.72 21.7677 1113.21 L21.7677 1121.29 M16.4842 1127.72 L16.4842 1113.21 Q16.4842 1105.22 20.1126 1101.14 Q23.7092 1097.04 30.6797 1097.04 Q37.7138 1097.04 41.3104 1101.14 Q44.907 1105.22 44.907 1113.21 L44.907 1121.29 L64.0042 1121.29 L64.0042 1127.72 L16.4842 1127.72 Z" fill="#000000" fill-rule="evenodd" fill-opacity="1" /><path clip-path="url(#clip350)" d="M49.9359 1090.42 L28.3562 1090.42 L28.3562 1084.56 L49.7131 1084.56 Q54.7739 1084.56 57.3202 1082.59 Q59.8346 1080.61 59.8346 1076.67 Q59.8346 1071.93 56.8109 1069.19 Q53.7872 1066.42 48.5673 1066.42 L28.3562 1066.42 L28.3562 1060.56 L64.0042 1060.56 L64.0042 1066.42 L58.5296 1066.42 Q61.7762 1068.55 63.3676 1071.38 Q64.9272 1074.19 64.9272 1077.91 Q64.9272 1084.05 61.1078 1087.23 Q57.2883 1090.42 49.9359 1090.42 M27.4968 1075.68 L27.4968 1075.68 Z" fill="#000000" fill-rule="evenodd" fill-opacity="1" /><path clip-path="url(#clip350)" d="M46.212 1022.91 Q39.7508 1022.91 36.0905 1025.58 Q32.3984 1028.22 32.3984 1032.87 Q32.3984 1037.52 36.0905 1040.19 Q39.7508 1042.83 46.212 1042.83 Q52.6732 1042.83 56.3653 1040.19 Q60.0256 1037.52 60.0256 1032.87 Q60.0256 1028.22 56.3653 1025.58 Q52.6732 1022.91 46.212 1022.91 M33.7671 1042.83 Q30.5842 1040.99 29.0564 1038.19 Q27.4968 1035.35 27.4968 1031.44 Q27.4968 1024.95 32.6531 1020.9 Q37.8093 1016.83 46.212 1016.83 Q54.6147 1016.83 59.771 1020.9 Q64.9272 1024.95 64.9272 1031.44 Q64.9272 1035.35 63.3994 1038.19 Q61.8398 1040.99 58.657 1042.83 L64.0042 1042.83 L64.0042 1048.72 L14.479 1048.72 L14.479 1042.83 L33.7671 1042.83 Z" fill="#000000" fill-rule="evenodd" fill-opacity="1" /><path clip-path="url(#clip350)" d="M14.479 1007.12 L14.479 1001.27 L64.0042 1001.27 L64.0042 1007.12 L14.479 1007.12 Z" fill="#000000" fill-rule="evenodd" fill-opacity="1" /><path clip-path="url(#clip350)" d="M28.3562 989.012 L28.3562 983.156 L64.0042 983.156 L64.0042 989.012 L28.3562 989.012 M14.479 989.012 L14.479 983.156 L21.895 983.156 L21.895 989.012 L14.479 989.012 Z" fill="#000000" fill-rule="evenodd" fill-opacity="1" /><path clip-path="url(#clip350)" d="M29.7248 945.248 L35.1993 945.248 Q33.8307 947.73 33.1623 950.245 Q32.4621 952.728 32.4621 955.274 Q32.4621 960.971 36.0905 964.122 Q39.6872 967.273 46.212 967.273 Q52.7369 967.273 56.3653 964.122 Q59.9619 960.971 59.9619 955.274 Q59.9619 952.728 59.2935 950.245 Q58.5933 947.73 57.2247 945.248 L62.6355 945.248 Q63.7814 947.699 64.3543 950.34 Q64.9272 952.95 64.9272 955.91 Q64.9272 963.963 59.8664 968.705 Q54.8057 973.448 46.212 973.448 Q37.491 973.448 32.4939 968.674 Q27.4968 963.867 27.4968 955.528 Q27.4968 952.823 28.0697 950.245 Q28.6108 947.667 29.7248 945.248 Z" fill="#000000" fill-rule="evenodd" fill-opacity="1" /><path clip-path="url(#clip350)" d="M18.0438 885.601 L24.314 885.601 Q22.5634 889.261 21.704 892.508 Q20.8447 895.754 20.8447 898.778 Q20.8447 904.03 22.8817 906.894 Q24.9187 909.727 28.6745 909.727 Q31.8255 909.727 33.4488 907.849 Q35.0402 905.94 36.0269 900.656 L36.8226 896.773 Q38.1912 889.58 41.6605 886.174 Q45.098 882.737 50.8908 882.737 Q57.7976 882.737 61.3624 887.384 Q64.9272 891.999 64.9272 900.942 Q64.9272 904.316 64.1633 908.136 Q63.3994 911.923 61.9035 915.997 L55.2831 915.997 Q57.4793 912.082 58.5933 908.327 Q59.7073 904.571 59.7073 900.942 Q59.7073 895.436 57.543 892.444 Q55.3786 889.452 51.3682 889.452 Q47.8671 889.452 45.8937 891.617 Q43.9204 893.749 42.9337 898.651 L42.1698 902.566 Q40.7375 909.759 37.682 912.974 Q34.6264 916.188 29.1837 916.188 Q22.8817 916.188 19.2532 911.764 Q15.6248 907.308 15.6248 899.51 Q15.6248 896.168 16.2295 892.699 Q16.8343 889.23 18.0438 885.601 Z" fill="#000000" fill-rule="evenodd" fill-opacity="1" /><path clip-path="url(#clip350)" d="M42.4881 843.333 L64.0042 843.333 L64.0042 849.189 L42.679 849.189 Q37.6183 849.189 35.1038 851.163 Q32.5894 853.136 32.5894 857.083 Q32.5894 861.825 35.6131 864.562 Q38.6368 867.3 43.8567 867.3 L64.0042 867.3 L64.0042 873.188 L14.479 873.188 L14.479 867.3 L33.8944 867.3 Q30.6797 865.199 29.0883 862.366 Q27.4968 859.502 27.4968 855.778 Q27.4968 849.635 31.3163 846.484 Q35.1038 843.333 42.4881 843.333 Z" fill="#000000" fill-rule="evenodd" fill-opacity="1" /><path clip-path="url(#clip350)" d="M32.4621 817.838 Q32.4621 822.549 36.1542 825.286 Q39.8145 828.023 46.212 828.023 Q52.6095 828.023 56.3017 825.318 Q59.9619 822.581 59.9619 817.838 Q59.9619 813.159 56.2698 810.422 Q52.5777 807.685 46.212 807.685 Q39.8781 807.685 36.186 810.422 Q32.4621 813.159 32.4621 817.838 M27.4968 817.838 Q27.4968 810.199 32.4621 805.839 Q37.4273 801.478 46.212 801.478 Q54.9649 801.478 59.9619 805.839 Q64.9272 810.199 64.9272 817.838 Q64.9272 825.509 59.9619 829.869 Q54.9649 834.198 46.212 834.198 Q37.4273 834.198 32.4621 829.869 Q27.4968 825.509 27.4968 817.838 Z" fill="#000000" fill-rule="evenodd" fill-opacity="1" /><path clip-path="url(#clip350)" d="M32.4621 777.957 Q32.4621 782.668 36.1542 785.405 Q39.8145 788.142 46.212 788.142 Q52.6095 788.142 56.3017 785.437 Q59.9619 782.699 59.9619 777.957 Q59.9619 773.278 56.2698 770.541 Q52.5777 767.804 46.212 767.804 Q39.8781 767.804 36.186 770.541 Q32.4621 773.278 32.4621 777.957 M27.4968 777.957 Q27.4968 770.318 32.4621 765.958 Q37.4273 761.597 46.212 761.597 Q54.9649 761.597 59.9619 765.958 Q64.9272 770.318 64.9272 777.957 Q64.9272 785.628 59.9619 789.988 Q54.9649 794.317 46.212 794.317 Q37.4273 794.317 32.4621 789.988 Q27.4968 785.628 27.4968 777.957 Z" fill="#000000" fill-rule="evenodd" fill-opacity="1" /><path clip-path="url(#clip350)" d="M18.2347 746.097 L28.3562 746.097 L28.3562 734.034 L32.9077 734.034 L32.9077 746.097 L52.2594 746.097 Q56.6199 746.097 57.8613 744.919 Q59.1026 743.71 59.1026 740.049 L59.1026 734.034 L64.0042 734.034 L64.0042 740.049 Q64.0042 746.829 61.4897 749.407 Q58.9434 751.985 52.2594 751.985 L32.9077 751.985 L32.9077 756.282 L28.3562 756.282 L28.3562 751.985 L18.2347 751.985 L18.2347 746.097 Z" fill="#000000" fill-rule="evenodd" fill-opacity="1" /><path clip-path="url(#clip350)" d="M28.3562 726.331 L28.3562 720.475 L64.0042 720.475 L64.0042 726.331 L28.3562 726.331 M14.479 726.331 L14.479 720.475 L21.895 720.475 L21.895 726.331 L14.479 726.331 Z" fill="#000000" fill-rule="evenodd" fill-opacity="1" /><path clip-path="url(#clip350)" d="M42.4881 678.588 L64.0042 678.588 L64.0042 684.445 L42.679 684.445 Q37.6183 684.445 35.1038 686.418 Q32.5894 688.392 32.5894 692.338 Q32.5894 697.081 35.6131 699.818 Q38.6368 702.555 43.8567 702.555 L64.0042 702.555 L64.0042 708.444 L28.3562 708.444 L28.3562 702.555 L33.8944 702.555 Q30.6797 700.455 29.0883 697.622 Q27.4968 694.757 27.4968 691.033 Q27.4968 684.89 31.3163 681.739 Q35.1038 678.588 42.4881 678.588 Z" fill="#000000" fill-rule="evenodd" fill-opacity="1" /><path clip-path="url(#clip350)" d="M45.7664 643.45 Q39.4007 643.45 35.8996 646.091 Q32.3984 648.701 32.3984 653.444 Q32.3984 658.154 35.8996 660.796 Q39.4007 663.406 45.7664 663.406 Q52.1003 663.406 55.6014 660.796 Q59.1026 658.154 59.1026 653.444 Q59.1026 648.701 55.6014 646.091 Q52.1003 643.45 45.7664 643.45 M59.58 637.593 Q68.683 637.593 73.1071 641.635 Q77.5631 645.678 77.5631 654.017 Q77.5631 657.104 77.0857 659.841 Q76.6401 662.579 75.6852 665.157 L69.9879 665.157 Q71.3884 662.579 72.0568 660.064 Q72.7252 657.55 72.7252 654.94 Q72.7252 649.179 69.7015 646.314 Q66.7096 643.45 60.6303 643.45 L57.7339 643.45 Q60.885 645.264 62.4446 648.097 Q64.0042 650.929 64.0042 654.876 Q64.0042 661.433 59.0071 665.443 Q54.01 669.454 45.7664 669.454 Q37.491 669.454 32.4939 665.443 Q27.4968 661.433 27.4968 654.876 Q27.4968 650.929 29.0564 648.097 Q30.616 645.264 33.7671 643.45 L28.3562 643.45 L28.3562 637.593 L59.58 637.593 Z" fill="#000000" fill-rule="evenodd" fill-opacity="1" /><path clip-path="url(#clip350)" d="M20.1444 568.971 L26.9239 568.971 Q23.9002 572.217 22.4043 575.91 Q20.9083 579.57 20.9083 583.707 Q20.9083 591.856 25.9054 596.184 Q30.8707 600.513 40.2919 600.513 Q49.6813 600.513 54.6784 596.184 Q59.6436 591.856 59.6436 583.707 Q59.6436 579.57 58.1477 575.91 Q56.6518 572.217 53.6281 568.971 L60.3439 568.971 Q62.6355 572.345 63.7814 576.132 Q64.9272 579.888 64.9272 584.089 Q64.9272 594.879 58.3387 601.086 Q51.7183 607.292 40.2919 607.292 Q28.8336 607.292 22.2451 601.086 Q15.6248 594.879 15.6248 584.089 Q15.6248 579.824 16.7706 576.069 Q17.8846 572.281 20.1444 568.971 Z" fill="#000000" fill-rule="evenodd" fill-opacity="1" /><path clip-path="url(#clip350)" d="M32.4621 545.481 Q32.4621 550.192 36.1542 552.929 Q39.8145 555.667 46.212 555.667 Q52.6095 555.667 56.3017 552.961 Q59.9619 550.224 59.9619 545.481 Q59.9619 540.803 56.2698 538.065 Q52.5777 535.328 46.212 535.328 Q39.8781 535.328 36.186 538.065 Q32.4621 540.803 32.4621 545.481 M27.4968 545.481 Q27.4968 537.843 32.4621 533.482 Q37.4273 529.122 46.212 529.122 Q54.9649 529.122 59.9619 533.482 Q64.9272 537.843 64.9272 545.481 Q64.9272 553.152 59.9619 557.513 Q54.9649 561.841 46.212 561.841 Q37.4273 561.841 32.4621 557.513 Q27.4968 553.152 27.4968 545.481 Z" fill="#000000" fill-rule="evenodd" fill-opacity="1" /><path clip-path="url(#clip350)" d="M49.9359 520.019 L28.3562 520.019 L28.3562 514.162 L49.7131 514.162 Q54.7739 514.162 57.3202 512.189 Q59.8346 510.215 59.8346 506.269 Q59.8346 501.526 56.8109 498.789 Q53.7872 496.02 48.5673 496.02 L28.3562 496.02 L28.3562 490.163 L64.0042 490.163 L64.0042 496.02 L58.5296 496.02 Q61.7762 498.152 63.3676 500.985 Q64.9272 503.786 64.9272 507.51 Q64.9272 513.653 61.1078 516.836 Q57.2883 520.019 49.9359 520.019 M27.4968 505.282 L27.4968 505.282 Z" fill="#000000" fill-rule="evenodd" fill-opacity="1" /><path clip-path="url(#clip350)" d="M42.4881 448.468 L64.0042 448.468 L64.0042 454.325 L42.679 454.325 Q37.6183 454.325 35.1038 456.298 Q32.5894 458.271 32.5894 462.218 Q32.5894 466.96 35.6131 469.698 Q38.6368 472.435 43.8567 472.435 L64.0042 472.435 L64.0042 478.323 L28.3562 478.323 L28.3562 472.435 L33.8944 472.435 Q30.6797 470.334 29.0883 467.502 Q27.4968 464.637 27.4968 460.913 Q27.4968 454.77 31.3163 451.619 Q35.1038 448.468 42.4881 448.468 Z" fill="#000000" fill-rule="evenodd" fill-opacity="1" /><path clip-path="url(#clip350)" d="M18.2347 430.994 L28.3562 430.994 L28.3562 418.931 L32.9077 418.931 L32.9077 430.994 L52.2594 430.994 Q56.6199 430.994 57.8613 429.817 Q59.1026 428.607 59.1026 424.947 L59.1026 418.931 L64.0042 418.931 L64.0042 424.947 Q64.0042 431.726 61.4897 434.304 Q58.9434 436.882 52.2594 436.882 L32.9077 436.882 L32.9077 441.179 L28.3562 441.179 L28.3562 436.882 L18.2347 436.882 L18.2347 430.994 Z" fill="#000000" fill-rule="evenodd" fill-opacity="1" /><path clip-path="url(#clip350)" d="M562.102 12.096 L570.325 12.096 L570.325 48.8377 Q570.325 58.5599 573.85 62.8538 Q577.374 67.1073 585.273 67.1073 Q593.132 67.1073 596.656 62.8538 Q600.181 58.5599 600.181 48.8377 L600.181 12.096 L608.404 12.096 L608.404 49.8504 Q608.404 61.6791 602.53 67.7149 Q596.697 73.7508 585.273 73.7508 Q573.809 73.7508 567.935 67.7149 Q562.102 61.6791 562.102 49.8504 L562.102 12.096 Z" fill="#000000" fill-rule="evenodd" fill-opacity="1" /><path clip-path="url(#clip350)" d="M660.012 14.0809 L660.012 22.0612 Q655.354 19.8332 651.222 18.7395 Q647.09 17.6457 643.242 17.6457 Q636.558 17.6457 632.912 20.2383 Q629.307 22.8309 629.307 27.611 Q629.307 31.6214 631.697 33.6873 Q634.127 35.7128 640.852 36.9686 L645.794 37.9813 Q654.949 39.7232 659.283 44.1387 Q663.658 48.5136 663.658 55.8863 Q663.658 64.6767 657.744 69.2137 Q651.87 73.7508 640.487 73.7508 Q636.193 73.7508 631.332 72.7785 Q626.511 71.8063 621.326 69.9024 L621.326 61.4765 Q626.309 64.2716 631.089 65.6895 Q635.869 67.1073 640.487 67.1073 Q647.495 67.1073 651.303 64.3527 Q655.111 61.598 655.111 56.4939 Q655.111 52.0379 652.356 49.5264 Q649.642 47.0148 643.404 45.759 L638.421 44.7868 Q629.266 42.9639 625.175 39.075 Q621.083 35.1862 621.083 28.2591 Q621.083 20.2383 626.714 15.6203 Q632.385 11.0023 642.31 11.0023 Q646.563 11.0023 650.979 11.7719 Q655.394 12.5416 660.012 14.0809 Z" fill="#000000" fill-rule="evenodd" fill-opacity="1" /><path clip-path="url(#clip350)" d="M739.045 14.0809 L739.045 22.0612 Q734.387 19.8332 730.255 18.7395 Q726.123 17.6457 722.275 17.6457 Q715.591 17.6457 711.945 20.2383 Q708.34 22.8309 708.34 27.611 Q708.34 31.6214 710.73 33.6873 Q713.16 35.7128 719.885 36.9686 L724.827 37.9813 Q733.982 39.7232 738.316 44.1387 Q742.691 48.5136 742.691 55.8863 Q742.691 64.6767 736.777 69.2137 Q730.903 73.7508 719.52 73.7508 Q715.226 73.7508 710.365 72.7785 Q705.545 71.8063 700.359 69.9024 L700.359 61.4765 Q705.342 64.2716 710.122 65.6895 Q714.902 67.1073 719.52 67.1073 Q726.528 67.1073 730.336 64.3527 Q734.144 61.598 734.144 56.4939 Q734.144 52.0379 731.389 49.5264 Q728.675 47.0148 722.437 45.759 L717.454 44.7868 Q708.299 42.9639 704.208 39.075 Q700.116 35.1862 700.116 28.2591 Q700.116 20.2383 705.747 15.6203 Q711.418 11.0023 721.343 11.0023 Q725.596 11.0023 730.012 11.7719 Q734.427 12.5416 739.045 14.0809 Z" fill="#000000" fill-rule="evenodd" fill-opacity="1" /><path clip-path="url(#clip350)" d="M792.842 45.1919 L792.842 72.576 L785.388 72.576 L785.388 45.4349 Q785.388 38.994 782.876 35.7938 Q780.365 32.5936 775.342 32.5936 Q769.306 32.5936 765.822 36.4419 Q762.338 40.2903 762.338 46.9338 L762.338 72.576 L754.844 72.576 L754.844 9.54393 L762.338 9.54393 L762.338 34.2544 Q765.012 30.163 768.617 28.1376 Q772.263 26.1121 777.002 26.1121 Q784.821 26.1121 788.831 30.9732 Q792.842 35.7938 792.842 45.1919 Z" fill="#000000" fill-rule="evenodd" fill-opacity="1" /><path clip-path="url(#clip350)" d="M825.289 32.4315 Q819.294 32.4315 815.81 37.1306 Q812.326 41.7891 812.326 49.9314 Q812.326 58.0738 815.77 62.7728 Q819.253 67.4314 825.289 67.4314 Q831.244 67.4314 834.728 62.7323 Q838.212 58.0333 838.212 49.9314 Q838.212 41.8701 834.728 37.1711 Q831.244 32.4315 825.289 32.4315 M825.289 26.1121 Q835.011 26.1121 840.561 32.4315 Q846.111 38.7509 846.111 49.9314 Q846.111 61.0714 840.561 67.4314 Q835.011 73.7508 825.289 73.7508 Q815.527 73.7508 809.977 67.4314 Q804.468 61.0714 804.468 49.9314 Q804.468 38.7509 809.977 32.4315 Q815.527 26.1121 825.289 26.1121 Z" fill="#000000" fill-rule="evenodd" fill-opacity="1" /><path clip-path="url(#clip350)" d="M876.047 32.4315 Q870.052 32.4315 866.568 37.1306 Q863.084 41.7891 863.084 49.9314 Q863.084 58.0738 866.527 62.7728 Q870.011 67.4314 876.047 67.4314 Q882.002 67.4314 885.486 62.7323 Q888.969 58.0333 888.969 49.9314 Q888.969 41.8701 885.486 37.1711 Q882.002 32.4315 876.047 32.4315 M876.047 26.1121 Q885.769 26.1121 891.319 32.4315 Q896.869 38.7509 896.869 49.9314 Q896.869 61.0714 891.319 67.4314 Q885.769 73.7508 876.047 73.7508 Q866.284 73.7508 860.735 67.4314 Q855.225 61.0714 855.225 49.9314 Q855.225 38.7509 860.735 32.4315 Q866.284 26.1121 876.047 26.1121 Z" fill="#000000" fill-rule="evenodd" fill-opacity="1" /><path clip-path="url(#clip350)" d="M916.597 14.324 L916.597 27.2059 L931.95 27.2059 L931.95 32.9987 L916.597 32.9987 L916.597 57.6282 Q916.597 63.1779 918.095 64.7578 Q919.635 66.3376 924.293 66.3376 L931.95 66.3376 L931.95 72.576 L924.293 72.576 Q915.665 72.576 912.384 69.3758 Q909.102 66.1351 909.102 57.6282 L909.102 32.9987 L903.634 32.9987 L903.634 27.2059 L909.102 27.2059 L909.102 14.324 L916.597 14.324 Z" fill="#000000" fill-rule="evenodd" fill-opacity="1" /><path clip-path="url(#clip350)" d="M941.753 27.2059 L949.206 27.2059 L949.206 72.576 L941.753 72.576 L941.753 27.2059 M941.753 9.54393 L949.206 9.54393 L949.206 18.9825 L941.753 18.9825 L941.753 9.54393 Z" fill="#000000" fill-rule="evenodd" fill-opacity="1" /><path clip-path="url(#clip350)" d="M1002.52 45.1919 L1002.52 72.576 L995.063 72.576 L995.063 45.4349 Q995.063 38.994 992.551 35.7938 Q990.04 32.5936 985.016 32.5936 Q978.981 32.5936 975.497 36.4419 Q972.013 40.2903 972.013 46.9338 L972.013 72.576 L964.519 72.576 L964.519 27.2059 L972.013 27.2059 L972.013 34.2544 Q974.687 30.163 978.292 28.1376 Q981.938 26.1121 986.677 26.1121 Q994.496 26.1121 998.506 30.9732 Q1002.52 35.7938 1002.52 45.1919 Z" fill="#000000" fill-rule="evenodd" fill-opacity="1" /><path clip-path="url(#clip350)" d="M1047.24 49.3643 Q1047.24 41.2625 1043.88 36.8065 Q1040.55 32.3505 1034.52 32.3505 Q1028.52 32.3505 1025.16 36.8065 Q1021.84 41.2625 1021.84 49.3643 Q1021.84 57.4256 1025.16 61.8816 Q1028.52 66.3376 1034.52 66.3376 Q1040.55 66.3376 1043.88 61.8816 Q1047.24 57.4256 1047.24 49.3643 M1054.69 66.9452 Q1054.69 78.5308 1049.55 84.1616 Q1044.4 89.8329 1033.79 89.8329 Q1029.86 89.8329 1026.38 89.2252 Q1022.89 88.6581 1019.61 87.4428 L1019.61 80.1917 Q1022.89 81.9741 1026.09 82.8248 Q1029.29 83.6755 1032.61 83.6755 Q1039.95 83.6755 1043.59 79.8271 Q1047.24 76.0193 1047.24 68.282 L1047.24 64.5957 Q1044.93 68.6061 1041.32 70.5911 Q1037.72 72.576 1032.7 72.576 Q1024.35 72.576 1019.25 66.2161 Q1014.14 59.8562 1014.14 49.3643 Q1014.14 38.832 1019.25 32.472 Q1024.35 26.1121 1032.7 26.1121 Q1037.72 26.1121 1041.32 28.0971 Q1044.93 30.082 1047.24 34.0924 L1047.24 27.2059 L1054.69 27.2059 L1054.69 66.9452 Z" fill="#000000" fill-rule="evenodd" fill-opacity="1" /><path clip-path="url(#clip350)" d="M1142.03 16.7545 L1142.03 25.383 Q1137.9 21.5346 1133.2 19.6307 Q1128.54 17.7268 1123.27 17.7268 Q1112.9 17.7268 1107.39 24.0867 Q1101.88 30.4061 1101.88 42.3968 Q1101.88 54.3469 1107.39 60.7069 Q1112.9 67.0263 1123.27 67.0263 Q1128.54 67.0263 1133.2 65.1223 Q1137.9 63.2184 1142.03 59.3701 L1142.03 67.9175 Q1137.74 70.8341 1132.91 72.2924 Q1128.13 73.7508 1122.79 73.7508 Q1109.06 73.7508 1101.16 65.3654 Q1093.26 56.9395 1093.26 42.3968 Q1093.26 27.8135 1101.16 19.4281 Q1109.06 11.0023 1122.79 11.0023 Q1128.22 11.0023 1133 12.4606 Q1137.82 13.8784 1142.03 16.7545 Z" fill="#000000" fill-rule="evenodd" fill-opacity="1" /><path clip-path="url(#clip350)" d="M1171.93 32.4315 Q1165.93 32.4315 1162.45 37.1306 Q1158.96 41.7891 1158.96 49.9314 Q1158.96 58.0738 1162.41 62.7728 Q1165.89 67.4314 1171.93 67.4314 Q1177.88 67.4314 1181.36 62.7323 Q1184.85 58.0333 1184.85 49.9314 Q1184.85 41.8701 1181.36 37.1711 Q1177.88 32.4315 1171.93 32.4315 M1171.93 26.1121 Q1181.65 26.1121 1187.2 32.4315 Q1192.75 38.7509 1192.75 49.9314 Q1192.75 61.0714 1187.2 67.4314 Q1181.65 73.7508 1171.93 73.7508 Q1162.16 73.7508 1156.61 67.4314 Q1151.1 61.0714 1151.1 49.9314 Q1151.1 38.7509 1156.61 32.4315 Q1162.16 26.1121 1171.93 26.1121 Z" fill="#000000" fill-rule="evenodd" fill-opacity="1" /><path clip-path="url(#clip350)" d="M1204.33 54.671 L1204.33 27.2059 L1211.79 27.2059 L1211.79 54.3874 Q1211.79 60.8284 1214.3 64.0691 Q1216.81 67.2693 1221.83 67.2693 Q1227.87 67.2693 1231.35 63.421 Q1234.88 59.5726 1234.88 52.9291 L1234.88 27.2059 L1242.33 27.2059 L1242.33 72.576 L1234.88 72.576 L1234.88 65.6084 Q1232.16 69.7404 1228.56 71.7658 Q1224.99 73.7508 1220.25 73.7508 Q1212.43 73.7508 1208.38 68.8897 Q1204.33 64.0286 1204.33 54.671 M1223.09 26.1121 L1223.09 26.1121 Z" fill="#000000" fill-rule="evenodd" fill-opacity="1" /><path clip-path="url(#clip350)" d="M1295.4 45.1919 L1295.4 72.576 L1287.94 72.576 L1287.94 45.4349 Q1287.94 38.994 1285.43 35.7938 Q1282.92 32.5936 1277.9 32.5936 Q1271.86 32.5936 1268.38 36.4419 Q1264.89 40.2903 1264.89 46.9338 L1264.89 72.576 L1257.4 72.576 L1257.4 27.2059 L1264.89 27.2059 L1264.89 34.2544 Q1267.57 30.163 1271.17 28.1376 Q1274.82 26.1121 1279.56 26.1121 Q1287.38 26.1121 1291.39 30.9732 Q1295.4 35.7938 1295.4 45.1919 Z" fill="#000000" fill-rule="evenodd" fill-opacity="1" /><path clip-path="url(#clip350)" d="M1317.64 14.324 L1317.64 27.2059 L1332.99 27.2059 L1332.99 32.9987 L1317.64 32.9987 L1317.64 57.6282 Q1317.64 63.1779 1319.13 64.7578 Q1320.67 66.3376 1325.33 66.3376 L1332.99 66.3376 L1332.99 72.576 L1325.33 72.576 Q1316.7 72.576 1313.42 69.3758 Q1310.14 66.1351 1310.14 57.6282 L1310.14 32.9987 L1304.67 32.9987 L1304.67 27.2059 L1310.14 27.2059 L1310.14 14.324 L1317.64 14.324 Z" fill="#000000" fill-rule="evenodd" fill-opacity="1" /><path clip-path="url(#clip350)" d="M1363.82 27.2059 L1371.72 27.2059 L1385.89 65.2844 L1400.07 27.2059 L1407.97 27.2059 L1390.96 72.576 L1380.83 72.576 L1363.82 27.2059 Z" fill="#000000" fill-rule="evenodd" fill-opacity="1" /><path clip-path="url(#clip350)" d="M1447.18 28.5427 L1447.18 35.5912 Q1444.02 33.9709 1440.62 33.1607 Q1437.22 32.3505 1433.57 32.3505 Q1428.02 32.3505 1425.23 34.0519 Q1422.47 35.7533 1422.47 39.156 Q1422.47 41.7486 1424.46 43.2475 Q1426.44 44.7058 1432.44 46.0426 L1434.99 46.6097 Q1442.93 48.3111 1446.25 51.4303 Q1449.61 54.509 1449.61 60.0587 Q1449.61 66.3781 1444.59 70.0644 Q1439.61 73.7508 1430.86 73.7508 Q1427.21 73.7508 1423.24 73.0216 Q1419.31 72.3329 1414.94 70.9151 L1414.94 63.2184 Q1419.07 65.3654 1423.08 66.4591 Q1427.09 67.5124 1431.02 67.5124 Q1436.29 67.5124 1439.12 65.73 Q1441.96 63.9071 1441.96 60.6258 Q1441.96 57.5877 1439.89 55.9673 Q1437.87 54.3469 1430.94 52.8481 L1428.35 52.2405 Q1421.42 50.7821 1418.34 47.7845 Q1415.26 44.7463 1415.26 39.4801 Q1415.26 33.0797 1419.8 29.5959 Q1424.34 26.1121 1432.68 26.1121 Q1436.81 26.1121 1440.46 26.7198 Q1444.11 27.3274 1447.18 28.5427 Z" fill="#000000" fill-rule="evenodd" fill-opacity="1" /><path clip-path="url(#clip350)" d="M1524.43 14.0809 L1524.43 22.0612 Q1519.78 19.8332 1515.64 18.7395 Q1511.51 17.6457 1507.66 17.6457 Q1500.98 17.6457 1497.33 20.2383 Q1493.73 22.8309 1493.73 27.611 Q1493.73 31.6214 1496.12 33.6873 Q1498.55 35.7128 1505.27 36.9686 L1510.22 37.9813 Q1519.37 39.7232 1523.71 44.1387 Q1528.08 48.5136 1528.08 55.8863 Q1528.08 64.6767 1522.17 69.2137 Q1516.29 73.7508 1504.91 73.7508 Q1500.62 73.7508 1495.75 72.7785 Q1490.93 71.8063 1485.75 69.9024 L1485.75 61.4765 Q1490.73 64.2716 1495.51 65.6895 Q1500.29 67.1073 1504.91 67.1073 Q1511.92 67.1073 1515.73 64.3527 Q1519.53 61.598 1519.53 56.4939 Q1519.53 52.0379 1516.78 49.5264 Q1514.06 47.0148 1507.83 45.759 L1502.84 44.7868 Q1493.69 42.9639 1489.6 39.075 Q1485.51 35.1862 1485.51 28.2591 Q1485.51 20.2383 1491.14 15.6203 Q1496.81 11.0023 1506.73 11.0023 Q1510.99 11.0023 1515.4 11.7719 Q1519.82 12.5416 1524.43 14.0809 Z" fill="#000000" fill-rule="evenodd" fill-opacity="1" /><path clip-path="url(#clip350)" d="M1539.75 54.671 L1539.75 27.2059 L1547.2 27.2059 L1547.2 54.3874 Q1547.2 60.8284 1549.71 64.0691 Q1552.22 67.2693 1557.25 67.2693 Q1563.28 67.2693 1566.77 63.421 Q1570.29 59.5726 1570.29 52.9291 L1570.29 27.2059 L1577.74 27.2059 L1577.74 72.576 L1570.29 72.576 L1570.29 65.6084 Q1567.58 69.7404 1563.97 71.7658 Q1560.41 73.7508 1555.67 73.7508 Q1547.85 73.7508 1543.8 68.8897 Q1539.75 64.0286 1539.75 54.671 M1558.5 26.1121 L1558.5 26.1121 Z" fill="#000000" fill-rule="evenodd" fill-opacity="1" /><path clip-path="url(#clip350)" d="M1593.1 27.2059 L1600.55 27.2059 L1600.55 72.576 L1593.1 72.576 L1593.1 27.2059 M1593.1 9.54393 L1600.55 9.54393 L1600.55 18.9825 L1593.1 18.9825 L1593.1 9.54393 Z" fill="#000000" fill-rule="evenodd" fill-opacity="1" /><path clip-path="url(#clip350)" d="M1648.8 28.9478 L1648.8 35.9153 Q1645.64 34.1734 1642.44 33.3227 Q1639.28 32.4315 1636.04 32.4315 Q1628.79 32.4315 1624.78 37.0496 Q1620.77 41.6271 1620.77 49.9314 Q1620.77 58.2358 1624.78 62.8538 Q1628.79 67.4314 1636.04 67.4314 Q1639.28 67.4314 1642.44 66.5807 Q1645.64 65.6895 1648.8 63.9476 L1648.8 70.8341 Q1645.68 72.2924 1642.32 73.0216 Q1638.99 73.7508 1635.23 73.7508 Q1624.98 73.7508 1618.94 67.3098 Q1612.91 60.8689 1612.91 49.9314 Q1612.91 38.832 1618.98 32.472 Q1625.1 26.1121 1635.71 26.1121 Q1639.16 26.1121 1642.44 26.8413 Q1645.72 27.5299 1648.8 28.9478 Z" fill="#000000" fill-rule="evenodd" fill-opacity="1" /><path clip-path="url(#clip350)" d="M1661.76 27.2059 L1669.21 27.2059 L1669.21 72.576 L1661.76 72.576 L1661.76 27.2059 M1661.76 9.54393 L1669.21 9.54393 L1669.21 18.9825 L1661.76 18.9825 L1661.76 9.54393 Z" fill="#000000" fill-rule="evenodd" fill-opacity="1" /><path clip-path="url(#clip350)" d="M1714.67 34.0924 L1714.67 9.54393 L1722.12 9.54393 L1722.12 72.576 L1714.67 72.576 L1714.67 65.7705 Q1712.32 69.8214 1708.71 71.8063 Q1705.15 73.7508 1700.12 73.7508 Q1691.9 73.7508 1686.71 67.1883 Q1681.57 60.6258 1681.57 49.9314 Q1681.57 39.2371 1686.71 32.6746 Q1691.9 26.1121 1700.12 26.1121 Q1705.15 26.1121 1708.71 28.0971 Q1712.32 30.0415 1714.67 34.0924 M1689.27 49.9314 Q1689.27 58.1548 1692.63 62.8538 Q1696.03 67.5124 1701.95 67.5124 Q1707.86 67.5124 1711.26 62.8538 Q1714.67 58.1548 1714.67 49.9314 Q1714.67 41.7081 1711.26 37.0496 Q1707.86 32.3505 1701.95 32.3505 Q1696.03 32.3505 1692.63 37.0496 Q1689.27 41.7081 1689.27 49.9314 Z" fill="#000000" fill-rule="evenodd" fill-opacity="1" /><path clip-path="url(#clip350)" d="M1776.28 48.0275 L1776.28 51.6733 L1742.01 51.6733 Q1742.49 59.3701 1746.63 63.421 Q1750.8 67.4314 1758.21 67.4314 Q1762.51 67.4314 1766.52 66.3781 Q1770.57 65.3249 1774.54 63.2184 L1774.54 70.267 Q1770.53 71.9684 1766.31 72.8596 Q1762.1 73.7508 1757.77 73.7508 Q1746.91 73.7508 1740.55 67.4314 Q1734.23 61.1119 1734.23 50.3365 Q1734.23 39.1965 1740.23 32.6746 Q1746.26 26.1121 1756.47 26.1121 Q1765.63 26.1121 1770.93 32.0264 Q1776.28 37.9003 1776.28 48.0275 M1768.83 45.84 Q1768.74 39.7232 1765.38 36.0774 Q1762.06 32.4315 1756.55 32.4315 Q1750.31 32.4315 1746.55 35.9558 Q1742.82 39.4801 1742.25 45.8805 L1768.83 45.84 Z" fill="#000000" fill-rule="evenodd" fill-opacity="1" /><path clip-path="url(#clip350)" d="M1843.89 44.2197 Q1846.52 45.1109 1848.99 48.0275 Q1851.5 50.9442 1854.02 56.0483 L1862.32 72.576 L1853.53 72.576 L1845.79 57.061 Q1842.8 50.9847 1839.96 48.9997 Q1837.16 47.0148 1832.3 47.0148 L1823.39 47.0148 L1823.39 72.576 L1815.21 72.576 L1815.21 12.096 L1833.68 12.096 Q1844.05 12.096 1849.16 16.4305 Q1854.26 20.7649 1854.26 29.5149 Q1854.26 35.2267 1851.59 38.994 Q1848.95 42.7613 1843.89 44.2197 M1823.39 18.8205 L1823.39 40.2903 L1833.68 40.2903 Q1839.6 40.2903 1842.59 37.5762 Q1845.63 34.8216 1845.63 29.5149 Q1845.63 24.2082 1842.59 21.5346 Q1839.6 18.8205 1833.68 18.8205 L1823.39 18.8205 Z" fill="#000000" fill-rule="evenodd" fill-opacity="1" /><path clip-path="url(#clip350)" d="M1891.33 49.7694 Q1882.29 49.7694 1878.81 51.8354 Q1875.32 53.9013 1875.32 58.8839 Q1875.32 62.8538 1877.92 65.2034 Q1880.55 67.5124 1885.05 67.5124 Q1891.24 67.5124 1894.97 63.1374 Q1898.74 58.7219 1898.74 51.4303 L1898.74 49.7694 L1891.33 49.7694 M1906.19 46.6907 L1906.19 72.576 L1898.74 72.576 L1898.74 65.6895 Q1896.19 69.8214 1892.38 71.8063 Q1888.57 73.7508 1883.06 73.7508 Q1876.09 73.7508 1871.96 69.8619 Q1867.87 65.9325 1867.87 59.3701 Q1867.87 51.7138 1872.97 47.825 Q1878.12 43.9361 1888.29 43.9361 L1898.74 43.9361 L1898.74 43.2069 Q1898.74 38.0623 1895.34 35.2672 Q1891.97 32.4315 1885.86 32.4315 Q1881.97 32.4315 1878.28 33.3632 Q1874.59 34.295 1871.19 36.1584 L1871.19 29.2718 Q1875.28 27.692 1879.13 26.9223 Q1882.98 26.1121 1886.63 26.1121 Q1896.47 26.1121 1901.33 31.2163 Q1906.19 36.3204 1906.19 46.6907 Z" fill="#000000" fill-rule="evenodd" fill-opacity="1" /><path clip-path="url(#clip350)" d="M1928.92 14.324 L1928.92 27.2059 L1944.27 27.2059 L1944.27 32.9987 L1928.92 32.9987 L1928.92 57.6282 Q1928.92 63.1779 1930.42 64.7578 Q1931.96 66.3376 1936.61 66.3376 L1944.27 66.3376 L1944.27 72.576 L1936.61 72.576 Q1927.99 72.576 1924.7 69.3758 Q1921.42 66.1351 1921.42 57.6282 L1921.42 32.9987 L1915.95 32.9987 L1915.95 27.2059 L1921.42 27.2059 L1921.42 14.324 L1928.92 14.324 Z" fill="#000000" fill-rule="evenodd" fill-opacity="1" /><path clip-path="url(#clip350)" d="M1992.88 48.0275 L1992.88 51.6733 L1958.61 51.6733 Q1959.1 59.3701 1963.23 63.421 Q1967.4 67.4314 1974.81 67.4314 Q1979.11 67.4314 1983.12 66.3781 Q1987.17 65.3249 1991.14 63.2184 L1991.14 70.267 Q1987.13 71.9684 1982.92 72.8596 Q1978.7 73.7508 1974.37 73.7508 Q1963.51 73.7508 1957.15 67.4314 Q1950.83 61.1119 1950.83 50.3365 Q1950.83 39.1965 1956.83 32.6746 Q1962.86 26.1121 1973.07 26.1121 Q1982.23 26.1121 1987.53 32.0264 Q1992.88 37.9003 1992.88 48.0275 M1985.43 45.84 Q1985.35 39.7232 1981.98 36.0774 Q1978.66 32.4315 1973.15 32.4315 Q1966.92 32.4315 1963.15 35.9558 Q1959.42 39.4801 1958.85 45.8805 L1985.43 45.84 Z" fill="#000000" fill-rule="evenodd" fill-opacity="1" /><circle clip-path="url(#clip352)" cx="2048.3" cy="432.732" r="14.4" fill="#009af9" fill-rule="evenodd" fill-opacity="1" stroke="#000000" stroke-opacity="1" stroke-width="3.2"/>
<circle clip-path="url(#clip352)" cx="2291.89" cy="160.256" r="14.4" fill="#009af9" fill-rule="evenodd" fill-opacity="1" stroke="#000000" stroke-opacity="1" stroke-width="3.2"/>
<circle clip-path="url(#clip352)" cx="1851.43" cy="500.851" r="14.4" fill="#009af9" fill-rule="evenodd" fill-opacity="1" stroke="#000000" stroke-opacity="1" stroke-width="3.2"/>
<circle clip-path="url(#clip352)" cx="1404.29" cy="296.494" r="14.4" fill="#009af9" fill-rule="evenodd" fill-opacity="1" stroke="#000000" stroke-opacity="1" stroke-width="3.2"/>
<circle clip-path="url(#clip352)" cx="1197.41" cy="432.732" r="14.4" fill="#009af9" fill-rule="evenodd" fill-opacity="1" stroke="#000000" stroke-opacity="1" stroke-width="3.2"/>
<circle clip-path="url(#clip352)" cx="1040.58" cy="637.088" r="14.4" fill="#009af9" fill-rule="evenodd" fill-opacity="1" stroke="#000000" stroke-opacity="1" stroke-width="3.2"/>
<circle clip-path="url(#clip352)" cx="1087.29" cy="500.851" r="14.4" fill="#009af9" fill-rule="evenodd" fill-opacity="1" stroke="#000000" stroke-opacity="1" stroke-width="3.2"/>
<circle clip-path="url(#clip352)" cx="1073.94" cy="1113.92" r="14.4" fill="#009af9" fill-rule="evenodd" fill-opacity="1" stroke="#000000" stroke-opacity="1" stroke-width="3.2"/>
<circle clip-path="url(#clip352)" cx="957.155" cy="841.445" r="14.4" fill="#009af9" fill-rule="evenodd" fill-opacity="1" stroke="#000000" stroke-opacity="1" stroke-width="3.2"/>
<circle clip-path="url(#clip352)" cx="806.997" cy="705.207" r="14.4" fill="#009af9" fill-rule="evenodd" fill-opacity="1" stroke="#000000" stroke-opacity="1" stroke-width="3.2"/>
<circle clip-path="url(#clip352)" cx="813.671" cy="1045.8" r="14.4" fill="#009af9" fill-rule="evenodd" fill-opacity="1" stroke="#000000" stroke-opacity="1" stroke-width="3.2"/>
<circle clip-path="url(#clip352)" cx="700.218" cy="977.683" r="14.4" fill="#009af9" fill-rule="evenodd" fill-opacity="1" stroke="#000000" stroke-opacity="1" stroke-width="3.2"/>
<circle clip-path="url(#clip352)" cx="606.786" cy="1250.16" r="14.4" fill="#009af9" fill-rule="evenodd" fill-opacity="1" stroke="#000000" stroke-opacity="1" stroke-width="3.2"/>
<circle clip-path="url(#clip352)" cx="486.66" cy="977.683" r="14.4" fill="#009af9" fill-rule="evenodd" fill-opacity="1" stroke="#000000" stroke-opacity="1" stroke-width="3.2"/>
<circle clip-path="url(#clip352)" cx="503.344" cy="1318.28" r="14.4" fill="#009af9" fill-rule="evenodd" fill-opacity="1" stroke="#000000" stroke-opacity="1" stroke-width="3.2"/>
<circle clip-path="url(#clip352)" cx="483.323" cy="1182.04" r="14.4" fill="#009af9" fill-rule="evenodd" fill-opacity="1" stroke="#000000" stroke-opacity="1" stroke-width="3.2"/>
<circle clip-path="url(#clip352)" cx="543.386" cy="1182.04" r="14.4" fill="#009af9" fill-rule="evenodd" fill-opacity="1" stroke="#000000" stroke-opacity="1" stroke-width="3.2"/>
<circle clip-path="url(#clip352)" cx="426.597" cy="1318.28" r="14.4" fill="#009af9" fill-rule="evenodd" fill-opacity="1" stroke="#000000" stroke-opacity="1" stroke-width="3.2"/>
<circle clip-path="url(#clip352)" cx="263.091" cy="1386.4" r="14.4" fill="#009af9" fill-rule="evenodd" fill-opacity="1" stroke="#000000" stroke-opacity="1" stroke-width="3.2"/>
<polyline clip-path="url(#clip352)" style="stroke:#e26f46; stroke-linecap:butt; stroke-linejoin:round; stroke-width:4; stroke-opacity:1; fill:none" points="
  -1825.56,2496.05 4257.8,-1062.82 
  "/>
</svg>
