<?xml version="1.0" encoding="utf-8"?>
<svg xmlns="http://www.w3.org/2000/svg" xmlns:xlink="http://www.w3.org/1999/xlink" width="600" height="400" viewBox="0 0 2400 1600">
<defs>
  <clipPath id="clip820">
    <rect x="0" y="0" width="2400" height="1600"/>
  </clipPath>
</defs>
<path clip-path="url(#clip820)" d="
M0 1600 L2400 1600 L2400 0 L0 0  Z
  " fill="#ffffff" fill-rule="evenodd" fill-opacity="1"/>
<defs>
  <clipPath id="clip821">
    <rect x="480" y="0" width="1681" height="1600"/>
  </clipPath>
</defs>
<path clip-path="url(#clip820)" d="
M186.274 1486.45 L2352.76 1486.45 L2352.76 123.472 L186.274 123.472  Z
  " fill="#ffffff" fill-rule="evenodd" fill-opacity="1"/>
<defs>
  <clipPath id="clip822">
    <rect x="186" y="123" width="2167" height="1364"/>
  </clipPath>
</defs>
<polyline clip-path="url(#clip822)" style="stroke:#000000; stroke-linecap:butt; stroke-linejoin:round; stroke-width:2; stroke-opacity:0.1; fill:none" points="
  186.274,1486.45 186.274,123.472 
  "/>
<polyline clip-path="url(#clip822)" style="stroke:#000000; stroke-linecap:butt; stroke-linejoin:round; stroke-width:2; stroke-opacity:0.1; fill:none" points="
  619.57,1486.45 619.57,123.472 
  "/>
<polyline clip-path="url(#clip822)" style="stroke:#000000; stroke-linecap:butt; stroke-linejoin:round; stroke-width:2; stroke-opacity:0.1; fill:none" points="
  1052.87,1486.45 1052.87,123.472 
  "/>
<polyline clip-path="url(#clip822)" style="stroke:#000000; stroke-linecap:butt; stroke-linejoin:round; stroke-width:2; stroke-opacity:0.1; fill:none" points="
  1486.16,1486.45 1486.16,123.472 
  "/>
<polyline clip-path="url(#clip822)" style="stroke:#000000; stroke-linecap:butt; stroke-linejoin:round; stroke-width:2; stroke-opacity:0.1; fill:none" points="
  1919.46,1486.45 1919.46,123.472 
  "/>
<polyline clip-path="url(#clip822)" style="stroke:#000000; stroke-linecap:butt; stroke-linejoin:round; stroke-width:2; stroke-opacity:0.1; fill:none" points="
  2352.76,1486.45 2352.76,123.472 
  "/>
<polyline clip-path="url(#clip820)" style="stroke:#000000; stroke-linecap:butt; stroke-linejoin:round; stroke-width:4; stroke-opacity:1; fill:none" points="
  186.274,1486.45 2352.76,1486.45 
  "/>
<polyline clip-path="url(#clip820)" style="stroke:#000000; stroke-linecap:butt; stroke-linejoin:round; stroke-width:4; stroke-opacity:1; fill:none" points="
  186.274,1486.45 186.274,1467.55 
  "/>
<polyline clip-path="url(#clip820)" style="stroke:#000000; stroke-linecap:butt; stroke-linejoin:round; stroke-width:4; stroke-opacity:1; fill:none" points="
  619.57,1486.45 619.57,1467.55 
  "/>
<polyline clip-path="url(#clip820)" style="stroke:#000000; stroke-linecap:butt; stroke-linejoin:round; stroke-width:4; stroke-opacity:1; fill:none" points="
  1052.87,1486.45 1052.87,1467.55 
  "/>
<polyline clip-path="url(#clip820)" style="stroke:#000000; stroke-linecap:butt; stroke-linejoin:round; stroke-width:4; stroke-opacity:1; fill:none" points="
  1486.16,1486.45 1486.16,1467.55 
  "/>
<polyline clip-path="url(#clip820)" style="stroke:#000000; stroke-linecap:butt; stroke-linejoin:round; stroke-width:4; stroke-opacity:1; fill:none" points="
  1919.46,1486.45 1919.46,1467.55 
  "/>
<polyline clip-path="url(#clip820)" style="stroke:#000000; stroke-linecap:butt; stroke-linejoin:round; stroke-width:4; stroke-opacity:1; fill:none" points="
  2352.76,1486.45 2352.76,1467.55 
  "/>
<path clip-path="url(#clip820)" d="M186.274 1517.37 Q182.663 1517.37 180.834 1520.93 Q179.029 1524.47 179.029 1531.6 Q179.029 1538.71 180.834 1542.27 Q182.663 1545.82 186.274 1545.82 Q189.908 1545.82 191.714 1542.27 Q193.542 1538.71 193.542 1531.6 Q193.542 1524.47 191.714 1520.93 Q189.908 1517.37 186.274 1517.37 M186.274 1513.66 Q192.084 1513.66 195.14 1518.27 Q198.218 1522.85 198.218 1531.6 Q198.218 1540.33 195.14 1544.94 Q192.084 1549.52 186.274 1549.52 Q180.464 1549.52 177.385 1544.94 Q174.33 1540.33 174.33 1531.6 Q174.33 1522.85 177.385 1518.27 Q180.464 1513.66 186.274 1513.66 Z" fill="#000000" fill-rule="evenodd" fill-opacity="1" /><path clip-path="url(#clip820)" d="M598.344 1544.91 L614.663 1544.91 L614.663 1548.85 L592.719 1548.85 L592.719 1544.91 Q595.381 1542.16 599.964 1537.53 Q604.57 1532.88 605.751 1531.53 Q607.996 1529.01 608.876 1527.27 Q609.779 1525.51 609.779 1523.82 Q609.779 1521.07 607.834 1519.33 Q605.913 1517.6 602.811 1517.6 Q600.612 1517.6 598.158 1518.36 Q595.728 1519.13 592.95 1520.68 L592.95 1515.95 Q595.774 1514.82 598.228 1514.24 Q600.682 1513.66 602.719 1513.66 Q608.089 1513.66 611.283 1516.35 Q614.478 1519.03 614.478 1523.52 Q614.478 1525.65 613.668 1527.57 Q612.881 1529.47 610.774 1532.07 Q610.195 1532.74 607.094 1535.95 Q603.992 1539.15 598.344 1544.91 Z" fill="#000000" fill-rule="evenodd" fill-opacity="1" /><path clip-path="url(#clip820)" d="M634.478 1517.37 Q630.867 1517.37 629.038 1520.93 Q627.232 1524.47 627.232 1531.6 Q627.232 1538.71 629.038 1542.27 Q630.867 1545.82 634.478 1545.82 Q638.112 1545.82 639.917 1542.27 Q641.746 1538.71 641.746 1531.6 Q641.746 1524.47 639.917 1520.93 Q638.112 1517.37 634.478 1517.37 M634.478 1513.66 Q640.288 1513.66 643.343 1518.27 Q646.422 1522.85 646.422 1531.6 Q646.422 1540.33 643.343 1544.94 Q640.288 1549.52 634.478 1549.52 Q628.668 1549.52 625.589 1544.94 Q622.533 1540.33 622.533 1531.6 Q622.533 1522.85 625.589 1518.27 Q628.668 1513.66 634.478 1513.66 Z" fill="#000000" fill-rule="evenodd" fill-opacity="1" /><path clip-path="url(#clip820)" d="M1041.04 1518.36 L1029.23 1536.81 L1041.04 1536.81 L1041.04 1518.36 M1039.81 1514.29 L1045.69 1514.29 L1045.69 1536.81 L1050.62 1536.81 L1050.62 1540.7 L1045.69 1540.7 L1045.69 1548.85 L1041.04 1548.85 L1041.04 1540.7 L1025.44 1540.7 L1025.44 1536.19 L1039.81 1514.29 Z" fill="#000000" fill-rule="evenodd" fill-opacity="1" /><path clip-path="url(#clip820)" d="M1068.35 1517.37 Q1064.74 1517.37 1062.91 1520.93 Q1061.11 1524.47 1061.11 1531.6 Q1061.11 1538.71 1062.91 1542.27 Q1064.74 1545.82 1068.35 1545.82 Q1071.99 1545.82 1073.79 1542.27 Q1075.62 1538.71 1075.62 1531.6 Q1075.62 1524.47 1073.79 1520.93 Q1071.99 1517.37 1068.35 1517.37 M1068.35 1513.66 Q1074.16 1513.66 1077.22 1518.27 Q1080.3 1522.85 1080.3 1531.6 Q1080.3 1540.33 1077.22 1544.94 Q1074.16 1549.52 1068.35 1549.52 Q1062.54 1549.52 1059.46 1544.94 Q1056.41 1540.33 1056.41 1531.6 Q1056.41 1522.85 1059.46 1518.27 Q1062.54 1513.66 1068.35 1513.66 Z" fill="#000000" fill-rule="evenodd" fill-opacity="1" /><path clip-path="url(#clip820)" d="M1471.57 1529.7 Q1468.42 1529.7 1466.57 1531.86 Q1464.74 1534.01 1464.74 1537.76 Q1464.74 1541.49 1466.57 1543.66 Q1468.42 1545.82 1471.57 1545.82 Q1474.72 1545.82 1476.55 1543.66 Q1478.4 1541.49 1478.4 1537.76 Q1478.4 1534.01 1476.55 1531.86 Q1474.72 1529.7 1471.57 1529.7 M1480.85 1515.05 L1480.85 1519.31 Q1479.09 1518.48 1477.29 1518.04 Q1475.5 1517.6 1473.74 1517.6 Q1469.11 1517.6 1466.66 1520.72 Q1464.23 1523.85 1463.88 1530.17 Q1465.25 1528.15 1467.31 1527.09 Q1469.37 1526 1471.85 1526 Q1477.05 1526 1480.06 1529.17 Q1483.1 1532.32 1483.1 1537.76 Q1483.1 1543.08 1479.95 1546.3 Q1476.8 1549.52 1471.57 1549.52 Q1465.57 1549.52 1462.4 1544.94 Q1459.23 1540.33 1459.23 1531.6 Q1459.23 1523.41 1463.12 1518.55 Q1467.01 1513.66 1473.56 1513.66 Q1475.32 1513.66 1477.1 1514.01 Q1478.91 1514.36 1480.85 1515.05 Z" fill="#000000" fill-rule="evenodd" fill-opacity="1" /><path clip-path="url(#clip820)" d="M1501.15 1517.37 Q1497.54 1517.37 1495.71 1520.93 Q1493.91 1524.47 1493.91 1531.6 Q1493.91 1538.71 1495.71 1542.27 Q1497.54 1545.82 1501.15 1545.82 Q1504.79 1545.82 1506.59 1542.27 Q1508.42 1538.71 1508.42 1531.6 Q1508.42 1524.47 1506.59 1520.93 Q1504.79 1517.37 1501.15 1517.37 M1501.15 1513.66 Q1506.96 1513.66 1510.02 1518.27 Q1513.1 1522.85 1513.1 1531.6 Q1513.1 1540.33 1510.02 1544.94 Q1506.96 1549.52 1501.15 1549.52 Q1495.34 1549.52 1492.26 1544.94 Q1489.21 1540.33 1489.21 1531.6 Q1489.21 1522.85 1492.26 1518.27 Q1495.34 1513.66 1501.15 1513.66 Z" fill="#000000" fill-rule="evenodd" fill-opacity="1" /><path clip-path="url(#clip820)" d="M1904.33 1532.44 Q1901 1532.44 1899.08 1534.22 Q1897.18 1536 1897.18 1539.13 Q1897.18 1542.25 1899.08 1544.03 Q1901 1545.82 1904.33 1545.82 Q1907.67 1545.82 1909.59 1544.03 Q1911.51 1542.23 1911.51 1539.13 Q1911.51 1536 1909.59 1534.22 Q1907.69 1532.44 1904.33 1532.44 M1899.66 1530.45 Q1896.65 1529.7 1894.96 1527.64 Q1893.29 1525.58 1893.29 1522.62 Q1893.29 1518.48 1896.23 1516.07 Q1899.19 1513.66 1904.33 1513.66 Q1909.49 1513.66 1912.43 1516.07 Q1915.37 1518.48 1915.37 1522.62 Q1915.37 1525.58 1913.68 1527.64 Q1912.02 1529.7 1909.03 1530.45 Q1912.41 1531.23 1914.29 1533.52 Q1916.18 1535.82 1916.18 1539.13 Q1916.18 1544.15 1913.11 1546.83 Q1910.05 1549.52 1904.33 1549.52 Q1898.61 1549.52 1895.54 1546.83 Q1892.48 1544.15 1892.48 1539.13 Q1892.48 1535.82 1894.38 1533.52 Q1896.28 1531.23 1899.66 1530.45 M1897.94 1523.06 Q1897.94 1525.75 1899.61 1527.25 Q1901.3 1528.76 1904.33 1528.76 Q1907.34 1528.76 1909.03 1527.25 Q1910.74 1525.75 1910.74 1523.06 Q1910.74 1520.38 1909.03 1518.87 Q1907.34 1517.37 1904.33 1517.37 Q1901.3 1517.37 1899.61 1518.87 Q1897.94 1520.38 1897.94 1523.06 Z" fill="#000000" fill-rule="evenodd" fill-opacity="1" /><path clip-path="url(#clip820)" d="M1934.49 1517.37 Q1930.88 1517.37 1929.05 1520.93 Q1927.25 1524.47 1927.25 1531.6 Q1927.25 1538.71 1929.05 1542.27 Q1930.88 1545.82 1934.49 1545.82 Q1938.13 1545.82 1939.93 1542.27 Q1941.76 1538.71 1941.76 1531.6 Q1941.76 1524.47 1939.93 1520.93 Q1938.13 1517.37 1934.49 1517.37 M1934.49 1513.66 Q1940.3 1513.66 1943.36 1518.27 Q1946.44 1522.85 1946.44 1531.6 Q1946.44 1540.33 1943.36 1544.94 Q1940.3 1549.52 1934.49 1549.52 Q1928.68 1549.52 1925.61 1544.94 Q1922.55 1540.33 1922.55 1531.6 Q1922.55 1522.85 1925.61 1518.27 Q1928.68 1513.66 1934.49 1513.66 Z" fill="#000000" fill-rule="evenodd" fill-opacity="1" /><path clip-path="url(#clip820)" d="M2312.36 1544.91 L2320 1544.91 L2320 1518.55 L2311.69 1520.21 L2311.69 1515.95 L2319.96 1514.29 L2324.63 1514.29 L2324.63 1544.91 L2332.27 1544.91 L2332.27 1548.85 L2312.36 1548.85 L2312.36 1544.91 Z" fill="#000000" fill-rule="evenodd" fill-opacity="1" /><path clip-path="url(#clip820)" d="M2351.71 1517.37 Q2348.1 1517.37 2346.27 1520.93 Q2344.47 1524.47 2344.47 1531.6 Q2344.47 1538.71 2346.27 1542.27 Q2348.1 1545.82 2351.71 1545.82 Q2355.35 1545.82 2357.15 1542.27 Q2358.98 1538.71 2358.98 1531.6 Q2358.98 1524.47 2357.15 1520.93 Q2355.35 1517.37 2351.71 1517.37 M2351.71 1513.66 Q2357.52 1513.66 2360.58 1518.27 Q2363.66 1522.85 2363.66 1531.6 Q2363.66 1540.33 2360.58 1544.94 Q2357.52 1549.52 2351.71 1549.52 Q2345.9 1549.52 2342.83 1544.94 Q2339.77 1540.33 2339.77 1531.6 Q2339.77 1522.85 2342.83 1518.27 Q2345.9 1513.66 2351.71 1513.66 Z" fill="#000000" fill-rule="evenodd" fill-opacity="1" /><path clip-path="url(#clip820)" d="M2381.88 1517.37 Q2378.27 1517.37 2376.44 1520.93 Q2374.63 1524.47 2374.63 1531.6 Q2374.63 1538.71 2376.44 1542.27 Q2378.27 1545.82 2381.88 1545.82 Q2385.51 1545.82 2387.32 1542.27 Q2389.14 1538.71 2389.14 1531.6 Q2389.14 1524.47 2387.32 1520.93 Q2385.51 1517.37 2381.88 1517.37 M2381.88 1513.66 Q2387.69 1513.66 2390.74 1518.27 Q2393.82 1522.85 2393.82 1531.6 Q2393.82 1540.33 2390.74 1544.94 Q2387.69 1549.52 2381.88 1549.52 Q2376.07 1549.52 2372.99 1544.94 Q2369.93 1540.33 2369.93 1531.6 Q2369.93 1522.85 2372.99 1518.27 Q2376.07 1513.66 2381.88 1513.66 Z" fill="#000000" fill-rule="evenodd" fill-opacity="1" /><polyline clip-path="url(#clip822)" style="stroke:#000000; stroke-linecap:butt; stroke-linejoin:round; stroke-width:2; stroke-opacity:0.1; fill:none" points="
  186.274,1447.87 2352.76,1447.87 
  "/>
<polyline clip-path="url(#clip822)" style="stroke:#000000; stroke-linecap:butt; stroke-linejoin:round; stroke-width:2; stroke-opacity:0.1; fill:none" points="
  186.274,1126.42 2352.76,1126.42 
  "/>
<polyline clip-path="url(#clip822)" style="stroke:#000000; stroke-linecap:butt; stroke-linejoin:round; stroke-width:2; stroke-opacity:0.1; fill:none" points="
  186.274,804.96 2352.76,804.96 
  "/>
<polyline clip-path="url(#clip822)" style="stroke:#000000; stroke-linecap:butt; stroke-linejoin:round; stroke-width:2; stroke-opacity:0.1; fill:none" points="
  186.274,483.503 2352.76,483.503 
  "/>
<polyline clip-path="url(#clip822)" style="stroke:#000000; stroke-linecap:butt; stroke-linejoin:round; stroke-width:2; stroke-opacity:0.1; fill:none" points="
  186.274,162.047 2352.76,162.047 
  "/>
<polyline clip-path="url(#clip820)" style="stroke:#000000; stroke-linecap:butt; stroke-linejoin:round; stroke-width:4; stroke-opacity:1; fill:none" points="
  186.274,1486.45 186.274,123.472 
  "/>
<polyline clip-path="url(#clip820)" style="stroke:#000000; stroke-linecap:butt; stroke-linejoin:round; stroke-width:4; stroke-opacity:1; fill:none" points="
  186.274,1447.87 205.172,1447.87 
  "/>
<polyline clip-path="url(#clip820)" style="stroke:#000000; stroke-linecap:butt; stroke-linejoin:round; stroke-width:4; stroke-opacity:1; fill:none" points="
  186.274,1126.42 205.172,1126.42 
  "/>
<polyline clip-path="url(#clip820)" style="stroke:#000000; stroke-linecap:butt; stroke-linejoin:round; stroke-width:4; stroke-opacity:1; fill:none" points="
  186.274,804.96 205.172,804.96 
  "/>
<polyline clip-path="url(#clip820)" style="stroke:#000000; stroke-linecap:butt; stroke-linejoin:round; stroke-width:4; stroke-opacity:1; fill:none" points="
  186.274,483.503 205.172,483.503 
  "/>
<polyline clip-path="url(#clip820)" style="stroke:#000000; stroke-linecap:butt; stroke-linejoin:round; stroke-width:4; stroke-opacity:1; fill:none" points="
  186.274,162.047 205.172,162.047 
  "/>
<path clip-path="url(#clip820)" d="M62.9365 1433.67 Q59.3254 1433.67 57.4967 1437.24 Q55.6912 1440.78 55.6912 1447.91 Q55.6912 1455.01 57.4967 1458.58 Q59.3254 1462.12 62.9365 1462.12 Q66.5707 1462.12 68.3763 1458.58 Q70.205 1455.01 70.205 1447.91 Q70.205 1440.78 68.3763 1437.24 Q66.5707 1433.67 62.9365 1433.67 M62.9365 1429.97 Q68.7467 1429.97 71.8022 1434.57 Q74.8809 1439.16 74.8809 1447.91 Q74.8809 1456.63 71.8022 1461.24 Q68.7467 1465.82 62.9365 1465.82 Q57.1264 1465.82 54.0477 1461.24 Q50.9921 1456.63 50.9921 1447.91 Q50.9921 1439.16 54.0477 1434.57 Q57.1264 1429.97 62.9365 1429.97 Z" fill="#000000" fill-rule="evenodd" fill-opacity="1" /><path clip-path="url(#clip820)" d="M83.0984 1459.27 L87.9827 1459.27 L87.9827 1465.15 L83.0984 1465.15 L83.0984 1459.27 Z" fill="#000000" fill-rule="evenodd" fill-opacity="1" /><path clip-path="url(#clip820)" d="M108.168 1433.67 Q104.557 1433.67 102.728 1437.24 Q100.922 1440.78 100.922 1447.91 Q100.922 1455.01 102.728 1458.58 Q104.557 1462.12 108.168 1462.12 Q111.802 1462.12 113.608 1458.58 Q115.436 1455.01 115.436 1447.91 Q115.436 1440.78 113.608 1437.24 Q111.802 1433.67 108.168 1433.67 M108.168 1429.97 Q113.978 1429.97 117.033 1434.57 Q120.112 1439.16 120.112 1447.91 Q120.112 1456.63 117.033 1461.24 Q113.978 1465.82 108.168 1465.82 Q102.358 1465.82 99.2789 1461.24 Q96.2234 1456.63 96.2234 1447.91 Q96.2234 1439.16 99.2789 1434.57 Q102.358 1429.97 108.168 1429.97 Z" fill="#000000" fill-rule="evenodd" fill-opacity="1" /><path clip-path="url(#clip820)" d="M138.33 1433.67 Q134.719 1433.67 132.89 1437.24 Q131.084 1440.78 131.084 1447.91 Q131.084 1455.01 132.89 1458.58 Q134.719 1462.12 138.33 1462.12 Q141.964 1462.12 143.769 1458.58 Q145.598 1455.01 145.598 1447.91 Q145.598 1440.78 143.769 1437.24 Q141.964 1433.67 138.33 1433.67 M138.33 1429.97 Q144.14 1429.97 147.195 1434.57 Q150.274 1439.16 150.274 1447.91 Q150.274 1456.63 147.195 1461.24 Q144.14 1465.82 138.33 1465.82 Q132.519 1465.82 129.441 1461.24 Q126.385 1456.63 126.385 1447.91 Q126.385 1439.16 129.441 1434.57 Q132.519 1429.97 138.33 1429.97 Z" fill="#000000" fill-rule="evenodd" fill-opacity="1" /><path clip-path="url(#clip820)" d="M63.9319 1112.22 Q60.3208 1112.22 58.4921 1115.78 Q56.6865 1119.32 56.6865 1126.45 Q56.6865 1133.56 58.4921 1137.12 Q60.3208 1140.66 63.9319 1140.66 Q67.5661 1140.66 69.3717 1137.12 Q71.2004 1133.56 71.2004 1126.45 Q71.2004 1119.32 69.3717 1115.78 Q67.5661 1112.22 63.9319 1112.22 M63.9319 1108.51 Q69.742 1108.51 72.7976 1113.12 Q75.8763 1117.7 75.8763 1126.45 Q75.8763 1135.18 72.7976 1139.78 Q69.742 1144.37 63.9319 1144.37 Q58.1217 1144.37 55.043 1139.78 Q51.9875 1135.18 51.9875 1126.45 Q51.9875 1117.7 55.043 1113.12 Q58.1217 1108.51 63.9319 1108.51 Z" fill="#000000" fill-rule="evenodd" fill-opacity="1" /><path clip-path="url(#clip820)" d="M84.0938 1137.82 L88.978 1137.82 L88.978 1143.7 L84.0938 1143.7 L84.0938 1137.82 Z" fill="#000000" fill-rule="evenodd" fill-opacity="1" /><path clip-path="url(#clip820)" d="M103.191 1139.76 L119.51 1139.76 L119.51 1143.7 L97.566 1143.7 L97.566 1139.76 Q100.228 1137.01 104.811 1132.38 Q109.418 1127.72 110.598 1126.38 Q112.844 1123.86 113.723 1122.12 Q114.626 1120.36 114.626 1118.67 Q114.626 1115.92 112.682 1114.18 Q110.76 1112.45 107.658 1112.45 Q105.459 1112.45 103.006 1113.21 Q100.575 1113.97 97.7974 1115.53 L97.7974 1110.8 Q100.621 1109.67 103.075 1109.09 Q105.529 1108.51 107.566 1108.51 Q112.936 1108.51 116.131 1111.2 Q119.325 1113.88 119.325 1118.37 Q119.325 1120.5 118.515 1122.42 Q117.728 1124.32 115.621 1126.91 Q115.043 1127.59 111.941 1130.8 Q108.839 1134 103.191 1139.76 Z" fill="#000000" fill-rule="evenodd" fill-opacity="1" /><path clip-path="url(#clip820)" d="M129.371 1109.14 L147.728 1109.14 L147.728 1113.07 L133.654 1113.07 L133.654 1121.54 Q134.672 1121.2 135.691 1121.03 Q136.709 1120.85 137.728 1120.85 Q143.515 1120.85 146.894 1124.02 Q150.274 1127.19 150.274 1132.61 Q150.274 1138.19 146.802 1141.29 Q143.33 1144.37 137.01 1144.37 Q134.834 1144.37 132.566 1144 Q130.32 1143.63 127.913 1142.89 L127.913 1138.19 Q129.996 1139.32 132.219 1139.88 Q134.441 1140.43 136.918 1140.43 Q140.922 1140.43 143.26 1138.33 Q145.598 1136.22 145.598 1132.61 Q145.598 1129 143.26 1126.89 Q140.922 1124.78 136.918 1124.78 Q135.043 1124.78 133.168 1125.2 Q131.316 1125.62 129.371 1126.5 L129.371 1109.14 Z" fill="#000000" fill-rule="evenodd" fill-opacity="1" /><path clip-path="url(#clip820)" d="M62.9365 790.759 Q59.3254 790.759 57.4967 794.323 Q55.6912 797.865 55.6912 804.995 Q55.6912 812.101 57.4967 815.666 Q59.3254 819.208 62.9365 819.208 Q66.5707 819.208 68.3763 815.666 Q70.205 812.101 70.205 804.995 Q70.205 797.865 68.3763 794.323 Q66.5707 790.759 62.9365 790.759 M62.9365 787.055 Q68.7467 787.055 71.8022 791.661 Q74.8809 796.245 74.8809 804.995 Q74.8809 813.722 71.8022 818.328 Q68.7467 822.911 62.9365 822.911 Q57.1264 822.911 54.0477 818.328 Q50.9921 813.722 50.9921 804.995 Q50.9921 796.245 54.0477 791.661 Q57.1264 787.055 62.9365 787.055 Z" fill="#000000" fill-rule="evenodd" fill-opacity="1" /><path clip-path="url(#clip820)" d="M83.0984 816.36 L87.9827 816.36 L87.9827 822.24 L83.0984 822.24 L83.0984 816.36 Z" fill="#000000" fill-rule="evenodd" fill-opacity="1" /><path clip-path="url(#clip820)" d="M98.2141 787.68 L116.57 787.68 L116.57 791.615 L102.496 791.615 L102.496 800.087 Q103.515 799.74 104.534 799.578 Q105.552 799.393 106.571 799.393 Q112.358 799.393 115.737 802.564 Q119.117 805.735 119.117 811.152 Q119.117 816.731 115.645 819.833 Q112.172 822.911 105.853 822.911 Q103.677 822.911 101.409 822.541 Q99.1632 822.171 96.7558 821.43 L96.7558 816.731 Q98.8391 817.865 101.061 818.421 Q103.284 818.976 105.76 818.976 Q109.765 818.976 112.103 816.87 Q114.441 814.763 114.441 811.152 Q114.441 807.541 112.103 805.435 Q109.765 803.328 105.76 803.328 Q103.885 803.328 102.01 803.745 Q100.159 804.161 98.2141 805.041 L98.2141 787.68 Z" fill="#000000" fill-rule="evenodd" fill-opacity="1" /><path clip-path="url(#clip820)" d="M138.33 790.759 Q134.719 790.759 132.89 794.323 Q131.084 797.865 131.084 804.995 Q131.084 812.101 132.89 815.666 Q134.719 819.208 138.33 819.208 Q141.964 819.208 143.769 815.666 Q145.598 812.101 145.598 804.995 Q145.598 797.865 143.769 794.323 Q141.964 790.759 138.33 790.759 M138.33 787.055 Q144.14 787.055 147.195 791.661 Q150.274 796.245 150.274 804.995 Q150.274 813.722 147.195 818.328 Q144.14 822.911 138.33 822.911 Q132.519 822.911 129.441 818.328 Q126.385 813.722 126.385 804.995 Q126.385 796.245 129.441 791.661 Q132.519 787.055 138.33 787.055 Z" fill="#000000" fill-rule="evenodd" fill-opacity="1" /><path clip-path="url(#clip820)" d="M63.9319 469.302 Q60.3208 469.302 58.4921 472.867 Q56.6865 476.409 56.6865 483.538 Q56.6865 490.645 58.4921 494.209 Q60.3208 497.751 63.9319 497.751 Q67.5661 497.751 69.3717 494.209 Q71.2004 490.645 71.2004 483.538 Q71.2004 476.409 69.3717 472.867 Q67.5661 469.302 63.9319 469.302 M63.9319 465.598 Q69.742 465.598 72.7976 470.205 Q75.8763 474.788 75.8763 483.538 Q75.8763 492.265 72.7976 496.871 Q69.742 501.455 63.9319 501.455 Q58.1217 501.455 55.043 496.871 Q51.9875 492.265 51.9875 483.538 Q51.9875 474.788 55.043 470.205 Q58.1217 465.598 63.9319 465.598 Z" fill="#000000" fill-rule="evenodd" fill-opacity="1" /><path clip-path="url(#clip820)" d="M84.0938 494.904 L88.978 494.904 L88.978 500.783 L84.0938 500.783 L84.0938 494.904 Z" fill="#000000" fill-rule="evenodd" fill-opacity="1" /><path clip-path="url(#clip820)" d="M97.9826 466.223 L120.205 466.223 L120.205 468.214 L107.658 500.783 L102.774 500.783 L114.58 470.159 L97.9826 470.159 L97.9826 466.223 Z" fill="#000000" fill-rule="evenodd" fill-opacity="1" /><path clip-path="url(#clip820)" d="M129.371 466.223 L147.728 466.223 L147.728 470.159 L133.654 470.159 L133.654 478.631 Q134.672 478.284 135.691 478.122 Q136.709 477.936 137.728 477.936 Q143.515 477.936 146.894 481.108 Q150.274 484.279 150.274 489.696 Q150.274 495.274 146.802 498.376 Q143.33 501.455 137.01 501.455 Q134.834 501.455 132.566 501.084 Q130.32 500.714 127.913 499.973 L127.913 495.274 Q129.996 496.408 132.219 496.964 Q134.441 497.52 136.918 497.52 Q140.922 497.52 143.26 495.413 Q145.598 493.307 145.598 489.696 Q145.598 486.084 143.26 483.978 Q140.922 481.872 136.918 481.872 Q135.043 481.872 133.168 482.288 Q131.316 482.705 129.371 483.584 L129.371 466.223 Z" fill="#000000" fill-rule="evenodd" fill-opacity="1" /><path clip-path="url(#clip820)" d="M53.7467 175.392 L61.3856 175.392 L61.3856 149.026 L53.0754 150.693 L53.0754 146.434 L61.3393 144.767 L66.0152 144.767 L66.0152 175.392 L73.654 175.392 L73.654 179.327 L53.7467 179.327 L53.7467 175.392 Z" fill="#000000" fill-rule="evenodd" fill-opacity="1" /><path clip-path="url(#clip820)" d="M83.0984 173.447 L87.9827 173.447 L87.9827 179.327 L83.0984 179.327 L83.0984 173.447 Z" fill="#000000" fill-rule="evenodd" fill-opacity="1" /><path clip-path="url(#clip820)" d="M108.168 147.846 Q104.557 147.846 102.728 151.41 Q100.922 154.952 100.922 162.082 Q100.922 169.188 102.728 172.753 Q104.557 176.295 108.168 176.295 Q111.802 176.295 113.608 172.753 Q115.436 169.188 115.436 162.082 Q115.436 154.952 113.608 151.41 Q111.802 147.846 108.168 147.846 M108.168 144.142 Q113.978 144.142 117.033 148.748 Q120.112 153.332 120.112 162.082 Q120.112 170.808 117.033 175.415 Q113.978 179.998 108.168 179.998 Q102.358 179.998 99.2789 175.415 Q96.2234 170.808 96.2234 162.082 Q96.2234 153.332 99.2789 148.748 Q102.358 144.142 108.168 144.142 Z" fill="#000000" fill-rule="evenodd" fill-opacity="1" /><path clip-path="url(#clip820)" d="M138.33 147.846 Q134.719 147.846 132.89 151.41 Q131.084 154.952 131.084 162.082 Q131.084 169.188 132.89 172.753 Q134.719 176.295 138.33 176.295 Q141.964 176.295 143.769 172.753 Q145.598 169.188 145.598 162.082 Q145.598 154.952 143.769 151.41 Q141.964 147.846 138.33 147.846 M138.33 144.142 Q144.14 144.142 147.195 148.748 Q150.274 153.332 150.274 162.082 Q150.274 170.808 147.195 175.415 Q144.14 179.998 138.33 179.998 Q132.519 179.998 129.441 175.415 Q126.385 170.808 126.385 162.082 Q126.385 153.332 129.441 148.748 Q132.519 144.142 138.33 144.142 Z" fill="#000000" fill-rule="evenodd" fill-opacity="1" /><path clip-path="url(#clip820)" d="M816.543 12.096 L854.783 12.096 L854.783 18.9825 L824.726 18.9825 L824.726 36.8875 L853.528 36.8875 L853.528 43.7741 L824.726 43.7741 L824.726 65.6895 L855.513 65.6895 L855.513 72.576 L816.543 72.576 L816.543 12.096 Z" fill="#000000" fill-rule="evenodd" fill-opacity="1" /><path clip-path="url(#clip820)" d="M914.251 16.7545 L914.251 25.383 Q910.119 21.5346 905.42 19.6307 Q900.761 17.7268 895.495 17.7268 Q885.125 17.7268 879.615 24.0867 Q874.106 30.4061 874.106 42.3968 Q874.106 54.3469 879.615 60.7069 Q885.125 67.0263 895.495 67.0263 Q900.761 67.0263 905.42 65.1223 Q910.119 63.2184 914.251 59.3701 L914.251 67.9175 Q909.957 70.8341 905.136 72.2924 Q900.356 73.7508 895.009 73.7508 Q881.276 73.7508 873.377 65.3654 Q865.478 56.9395 865.478 42.3968 Q865.478 27.8135 873.377 19.4281 Q881.276 11.0023 895.009 11.0023 Q900.437 11.0023 905.217 12.4606 Q910.038 13.8784 914.251 16.7545 Z" fill="#000000" fill-rule="evenodd" fill-opacity="1" /><path clip-path="url(#clip820)" d="M935.072 18.8205 L935.072 65.8515 L944.957 65.8515 Q957.474 65.8515 963.267 60.1802 Q969.1 54.509 969.1 42.2752 Q969.1 30.1225 963.267 24.4918 Q957.474 18.8205 944.957 18.8205 L935.072 18.8205 M926.889 12.096 L943.701 12.096 Q961.282 12.096 969.505 19.4281 Q977.728 26.7198 977.728 42.2752 Q977.728 57.9117 969.464 65.2439 Q961.201 72.576 943.701 72.576 L926.889 72.576 L926.889 12.096 Z" fill="#000000" fill-rule="evenodd" fill-opacity="1" /><path clip-path="url(#clip820)" d="M990.772 12.096 L1025.53 12.096 L1025.53 18.9825 L998.955 18.9825 L998.955 36.8065 L1022.94 36.8065 L1022.94 43.6931 L998.955 43.6931 L998.955 72.576 L990.772 72.576 L990.772 12.096 Z" fill="#000000" fill-rule="evenodd" fill-opacity="1" /><path clip-path="url(#clip820)" d="M1082.12 32.4315 Q1076.12 32.4315 1072.64 37.1306 Q1069.16 41.7891 1069.16 49.9314 Q1069.16 58.0738 1072.6 62.7728 Q1076.08 67.4314 1082.12 67.4314 Q1088.07 67.4314 1091.56 62.7323 Q1095.04 58.0333 1095.04 49.9314 Q1095.04 41.8701 1091.56 37.1711 Q1088.07 32.4315 1082.12 32.4315 M1082.12 26.1121 Q1091.84 26.1121 1097.39 32.4315 Q1102.94 38.7509 1102.94 49.9314 Q1102.94 61.0714 1097.39 67.4314 Q1091.84 73.7508 1082.12 73.7508 Q1072.36 73.7508 1066.81 67.4314 Q1061.3 61.0714 1061.3 49.9314 Q1061.3 38.7509 1066.81 32.4315 Q1072.36 26.1121 1082.12 26.1121 Z" fill="#000000" fill-rule="evenodd" fill-opacity="1" /><path clip-path="url(#clip820)" d="M1138.27 9.54393 L1138.27 15.7418 L1131.14 15.7418 Q1127.13 15.7418 1125.55 17.3622 Q1124.01 18.9825 1124.01 23.1955 L1124.01 27.2059 L1136.28 27.2059 L1136.28 32.9987 L1124.01 32.9987 L1124.01 72.576 L1116.51 72.576 L1116.51 32.9987 L1109.38 32.9987 L1109.38 27.2059 L1116.51 27.2059 L1116.51 24.0462 Q1116.51 16.471 1120.04 13.0277 Q1123.56 9.54393 1131.22 9.54393 L1138.27 9.54393 Z" fill="#000000" fill-rule="evenodd" fill-opacity="1" /><path clip-path="url(#clip820)" d="M1171.2 12.096 L1179.38 12.096 L1179.38 72.576 L1171.2 72.576 L1171.2 12.096 Z" fill="#000000" fill-rule="evenodd" fill-opacity="1" /><path clip-path="url(#clip820)" d="M1233.06 45.1919 L1233.06 72.576 L1225.6 72.576 L1225.6 45.4349 Q1225.6 38.994 1223.09 35.7938 Q1220.58 32.5936 1215.56 32.5936 Q1209.52 32.5936 1206.04 36.4419 Q1202.55 40.2903 1202.55 46.9338 L1202.55 72.576 L1195.06 72.576 L1195.06 27.2059 L1202.55 27.2059 L1202.55 34.2544 Q1205.23 30.163 1208.83 28.1376 Q1212.48 26.1121 1217.22 26.1121 Q1225.04 26.1121 1229.05 30.9732 Q1233.06 35.7938 1233.06 45.1919 Z" fill="#000000" fill-rule="evenodd" fill-opacity="1" /><path clip-path="url(#clip820)" d="M1247.92 27.2059 L1255.38 27.2059 L1255.38 73.3862 Q1255.38 82.0551 1252.06 85.944 Q1248.77 89.8329 1241.44 89.8329 L1238.61 89.8329 L1238.61 83.5134 L1240.59 83.5134 Q1244.84 83.5134 1246.38 81.5285 Q1247.92 79.5841 1247.92 73.3862 L1247.92 27.2059 M1247.92 9.54393 L1255.38 9.54393 L1255.38 18.9825 L1247.92 18.9825 L1247.92 9.54393 Z" fill="#000000" fill-rule="evenodd" fill-opacity="1" /><path clip-path="url(#clip820)" d="M1270.2 54.671 L1270.2 27.2059 L1277.66 27.2059 L1277.66 54.3874 Q1277.66 60.8284 1280.17 64.0691 Q1282.68 67.2693 1287.7 67.2693 Q1293.74 67.2693 1297.22 63.421 Q1300.75 59.5726 1300.75 52.9291 L1300.75 27.2059 L1308.2 27.2059 L1308.2 72.576 L1300.75 72.576 L1300.75 65.6084 Q1298.03 69.7404 1294.43 71.7658 Q1290.86 73.7508 1286.12 73.7508 Q1278.31 73.7508 1274.25 68.8897 Q1270.2 64.0286 1270.2 54.671 M1288.96 26.1121 L1288.96 26.1121 Z" fill="#000000" fill-rule="evenodd" fill-opacity="1" /><path clip-path="url(#clip820)" d="M1349.84 34.1734 Q1348.59 33.4443 1347.09 33.1202 Q1345.63 32.7556 1343.85 32.7556 Q1337.53 32.7556 1334.13 36.8875 Q1330.76 40.9789 1330.76 48.6757 L1330.76 72.576 L1323.27 72.576 L1323.27 27.2059 L1330.76 27.2059 L1330.76 34.2544 Q1333.11 30.1225 1336.88 28.1376 Q1340.65 26.1121 1346.04 26.1121 Q1346.81 26.1121 1347.74 26.2337 Q1348.67 26.3147 1349.8 26.5172 L1349.84 34.1734 Z" fill="#000000" fill-rule="evenodd" fill-opacity="1" /><path clip-path="url(#clip820)" d="M1394.65 48.0275 L1394.65 51.6733 L1360.38 51.6733 Q1360.86 59.3701 1364.99 63.421 Q1369.17 67.4314 1376.58 67.4314 Q1380.87 67.4314 1384.88 66.3781 Q1388.94 65.3249 1392.91 63.2184 L1392.91 70.267 Q1388.9 71.9684 1384.68 72.8596 Q1380.47 73.7508 1376.13 73.7508 Q1365.28 73.7508 1358.92 67.4314 Q1352.6 61.1119 1352.6 50.3365 Q1352.6 39.1965 1358.59 32.6746 Q1364.63 26.1121 1374.84 26.1121 Q1383.99 26.1121 1389.3 32.0264 Q1394.65 37.9003 1394.65 48.0275 M1387.19 45.84 Q1387.11 39.7232 1383.75 36.0774 Q1380.43 32.4315 1374.92 32.4315 Q1368.68 32.4315 1364.91 35.9558 Q1361.19 39.4801 1360.62 45.8805 L1387.19 45.84 Z" fill="#000000" fill-rule="evenodd" fill-opacity="1" /><path clip-path="url(#clip820)" d="M1436.74 34.0924 L1436.74 9.54393 L1444.19 9.54393 L1444.19 72.576 L1436.74 72.576 L1436.74 65.7705 Q1434.39 69.8214 1430.78 71.8063 Q1427.22 73.7508 1422.19 73.7508 Q1413.97 73.7508 1408.79 67.1883 Q1403.64 60.6258 1403.64 49.9314 Q1403.64 39.2371 1408.79 32.6746 Q1413.97 26.1121 1422.19 26.1121 Q1427.22 26.1121 1430.78 28.0971 Q1434.39 30.0415 1436.74 34.0924 M1411.34 49.9314 Q1411.34 58.1548 1414.7 62.8538 Q1418.1 67.5124 1424.02 67.5124 Q1429.93 67.5124 1433.33 62.8538 Q1436.74 58.1548 1436.74 49.9314 Q1436.74 41.7081 1433.33 37.0496 Q1429.93 32.3505 1424.02 32.3505 Q1418.1 32.3505 1414.7 37.0496 Q1411.34 41.7081 1411.34 49.9314 Z" fill="#000000" fill-rule="evenodd" fill-opacity="1" /><path clip-path="url(#clip820)" d="M1531.53 16.7545 L1531.53 25.383 Q1527.4 21.5346 1522.7 19.6307 Q1518.04 17.7268 1512.77 17.7268 Q1502.4 17.7268 1496.89 24.0867 Q1491.38 30.4061 1491.38 42.3968 Q1491.38 54.3469 1496.89 60.7069 Q1502.4 67.0263 1512.77 67.0263 Q1518.04 67.0263 1522.7 65.1223 Q1527.4 63.2184 1531.53 59.3701 L1531.53 67.9175 Q1527.23 70.8341 1522.41 72.2924 Q1517.63 73.7508 1512.29 73.7508 Q1498.55 73.7508 1490.65 65.3654 Q1482.75 56.9395 1482.75 42.3968 Q1482.75 27.8135 1490.65 19.4281 Q1498.55 11.0023 1512.29 11.0023 Q1517.71 11.0023 1522.49 12.4606 Q1527.31 13.8784 1531.53 16.7545 Z" fill="#000000" fill-rule="evenodd" fill-opacity="1" /><path clip-path="url(#clip820)" d="M1561.42 32.4315 Q1555.43 32.4315 1551.94 37.1306 Q1548.46 41.7891 1548.46 49.9314 Q1548.46 58.0738 1551.9 62.7728 Q1555.39 67.4314 1561.42 67.4314 Q1567.38 67.4314 1570.86 62.7323 Q1574.35 58.0333 1574.35 49.9314 Q1574.35 41.8701 1570.86 37.1711 Q1567.38 32.4315 1561.42 32.4315 M1561.42 26.1121 Q1571.15 26.1121 1576.7 32.4315 Q1582.24 38.7509 1582.24 49.9314 Q1582.24 61.0714 1576.7 67.4314 Q1571.15 73.7508 1561.42 73.7508 Q1551.66 73.7508 1546.11 67.4314 Q1540.6 61.0714 1540.6 49.9314 Q1540.6 38.7509 1546.11 32.4315 Q1551.66 26.1121 1561.42 26.1121 Z" fill="#000000" fill-rule="evenodd" fill-opacity="1" /><path clip-path="url(#clip820)" d="M1593.83 54.671 L1593.83 27.2059 L1601.28 27.2059 L1601.28 54.3874 Q1601.28 60.8284 1603.8 64.0691 Q1606.31 67.2693 1611.33 67.2693 Q1617.37 67.2693 1620.85 63.421 Q1624.37 59.5726 1624.37 52.9291 L1624.37 27.2059 L1631.83 27.2059 L1631.83 72.576 L1624.37 72.576 L1624.37 65.6084 Q1621.66 69.7404 1618.05 71.7658 Q1614.49 73.7508 1609.75 73.7508 Q1601.93 73.7508 1597.88 68.8897 Q1593.83 64.0286 1593.83 54.671 M1612.59 26.1121 L1612.59 26.1121 Z" fill="#000000" fill-rule="evenodd" fill-opacity="1" /><path clip-path="url(#clip820)" d="M1684.89 45.1919 L1684.89 72.576 L1677.44 72.576 L1677.44 45.4349 Q1677.44 38.994 1674.93 35.7938 Q1672.42 32.5936 1667.39 32.5936 Q1661.36 32.5936 1657.88 36.4419 Q1654.39 40.2903 1654.39 46.9338 L1654.39 72.576 L1646.9 72.576 L1646.9 27.2059 L1654.39 27.2059 L1654.39 34.2544 Q1657.06 30.163 1660.67 28.1376 Q1664.32 26.1121 1669.06 26.1121 Q1676.87 26.1121 1680.88 30.9732 Q1684.89 35.7938 1684.89 45.1919 Z" fill="#000000" fill-rule="evenodd" fill-opacity="1" /><path clip-path="url(#clip820)" d="M1707.13 14.324 L1707.13 27.2059 L1722.49 27.2059 L1722.49 32.9987 L1707.13 32.9987 L1707.13 57.6282 Q1707.13 63.1779 1708.63 64.7578 Q1710.17 66.3376 1714.83 66.3376 L1722.49 66.3376 L1722.49 72.576 L1714.83 72.576 Q1706.2 72.576 1702.92 69.3758 Q1699.64 66.1351 1699.64 57.6282 L1699.64 32.9987 L1694.17 32.9987 L1694.17 27.2059 L1699.64 27.2059 L1699.64 14.324 L1707.13 14.324 Z" fill="#000000" fill-rule="evenodd" fill-opacity="1" /><polyline clip-path="url(#clip822)" style="stroke:#009af9; stroke-linecap:butt; stroke-linejoin:round; stroke-width:4; stroke-opacity:1; fill:none" points="
  186.274,1447.87 186.274,1447.87 186.274,1443.18 186.274,1438.49 186.274,1433.79 186.274,1429.1 
  186.274,1424.41 186.274,1419.72 186.274,1415.02 186.274,1410.33 186.274,1405.64 
  186.274,1400.95 186.274,1396.25 186.274,1391.56 186.274,1386.87 186.274,1382.17 
  186.274,1377.48 186.274,1372.79 186.274,1368.1 186.274,1363.4 186.274,1358.71 
  186.274,1354.02 186.274,1349.32 186.274,1344.63 186.274,1339.94 186.274,1335.25 
  186.274,1330.55 186.274,1325.86 186.274,1321.17 186.274,1316.47 186.274,1311.78 
  186.274,1307.09 186.274,1302.4 186.274,1297.7 186.274,1293.01 186.274,1288.32 
  186.274,1283.63 186.274,1278.93 186.274,1274.24 186.274,1269.55 186.274,1264.85 
  186.274,1260.16 186.274,1255.47 186.274,1250.78 186.274,1246.08 186.274,1241.39 
  186.274,1236.7 186.274,1232 186.274,1227.31 186.274,1222.62 207.939,1222.62 207.939,1217.93 
  207.939,1213.23 207.939,1208.54 207.939,1203.85 207.939,1199.15 207.939,1194.46 
  207.939,1189.77 207.939,1185.08 207.939,1180.38 207.939,1175.69 207.939,1171 
  207.939,1166.31 207.939,1161.61 207.939,1156.92 207.939,1152.23 207.939,1147.53 
  207.939,1142.84 207.939,1138.15 207.939,1133.46 207.939,1128.76 207.939,1124.07 
  207.939,1119.38 207.939,1114.68 207.939,1109.99 207.939,1105.3 207.939,1100.61 
  207.939,1095.91 207.939,1091.22 207.939,1086.53 207.939,1081.83 207.939,1077.14 
  207.939,1072.45 207.939,1067.76 207.939,1063.06 207.939,1058.37 207.939,1053.68 
  207.939,1048.99 207.939,1044.29 207.939,1039.6 207.939,1034.91 207.939,1030.21 
  207.939,1025.52 207.939,1020.83 207.939,1016.14 229.604,1016.14 229.604,1011.44 229.604,1006.75 
  229.604,1002.06 229.604,997.365 229.604,992.672 229.604,987.979 229.604,983.286 
  229.604,978.593 229.604,973.901 229.604,969.208 229.604,964.515 229.604,959.822 
  229.604,955.129 229.604,950.437 229.604,945.744 229.604,941.051 229.604,936.358 
  229.604,931.665 229.604,926.973 229.604,922.28 229.604,917.587 229.604,912.894 
  229.604,908.202 229.604,903.509 229.604,898.816 229.604,894.123 229.604,889.43 
  229.604,884.738 229.604,880.045 229.604,875.352 229.604,870.659 229.604,865.966 
  229.604,861.274 229.604,856.581 229.604,851.888 229.604,847.195 229.604,842.502 
  229.604,837.81 229.604,833.117 229.604,828.424 229.604,823.731 229.604,819.038 
  229.604,814.346 229.604,809.653 229.604,804.96 229.604,800.267 229.604,795.574 
  229.604,790.882 229.604,786.189 229.604,781.496 229.604,776.803 229.604,772.11 
  229.604,767.418 229.604,762.725 229.604,758.032 251.268,758.032 251.268,753.339 251.268,748.646 
  251.268,743.954 251.268,739.261 251.268,734.568 251.268,729.875 251.268,725.182 
  251.268,720.49 251.268,715.797 251.268,711.104 251.268,706.411 251.268,701.718 
  251.268,697.026 251.268,692.333 251.268,687.64 251.268,682.947 251.268,678.255 
  251.268,673.562 251.268,668.869 251.268,664.176 251.268,659.483 251.268,654.791 
  251.268,650.098 251.268,645.405 251.268,640.712 251.268,636.019 251.268,631.327 
  251.268,626.634 251.268,621.941 251.268,617.248 251.268,612.555 251.268,607.863 
  251.268,603.17 251.268,598.477 251.268,593.784 272.933,593.784 272.933,589.091 272.933,584.399 
  272.933,579.706 272.933,575.013 272.933,570.32 272.933,565.627 272.933,560.935 
  272.933,556.242 272.933,551.549 272.933,546.856 272.933,542.163 272.933,537.471 
  272.933,532.778 272.933,528.085 272.933,523.392 272.933,518.699 272.933,514.007 
  272.933,509.314 272.933,504.621 272.933,499.928 272.933,495.235 272.933,490.543 
  272.933,485.85 272.933,481.157 272.933,476.464 272.933,471.771 272.933,467.079 294.598,467.079 
  294.598,462.386 294.598,457.693 294.598,453 294.598,448.307 294.598,443.615 
  294.598,438.922 294.598,434.229 294.598,429.536 294.598,424.844 294.598,420.151 
  294.598,415.458 294.598,410.765 294.598,406.072 294.598,401.38 294.598,396.687 
  294.598,391.994 294.598,387.301 316.263,387.301 316.263,382.608 316.263,377.916 316.263,373.223 
  316.263,368.53 316.263,363.837 316.263,359.144 316.263,354.452 337.928,354.452 337.928,349.759 
  337.928,345.066 337.928,340.373 337.928,335.68 337.928,330.988 337.928,326.295 
  337.928,321.602 337.928,316.909 337.928,312.216 337.928,307.524 359.593,307.524 359.593,302.831 
  359.593,298.138 359.593,293.445 359.593,288.752 359.593,284.06 381.257,284.06 381.257,279.367 
  381.257,274.674 381.257,269.981 381.257,265.288 424.587,265.288 424.587,260.596 424.587,255.903 
  424.587,251.21 446.252,251.21 446.252,246.517 446.252,241.824 467.917,241.824 467.917,237.132 467.917,232.439 489.581,232.439 
  489.581,227.746 489.581,223.053 489.581,218.36 532.911,218.36 532.911,213.668 532.911,208.975 554.576,208.975 
  554.576,204.282 554.576,199.589 576.241,199.589 576.241,194.896 619.57,194.896 619.57,190.204 641.235,190.204 641.235,185.511 662.9,185.511 
  662.9,180.818 879.548,180.818 879.548,176.125 1334.51,176.125 1334.51,171.433 1442.83,171.433 1442.83,166.74 10780.4,166.74 10780.4,162.047 
  "/>
</svg>
