<?xml version="1.0" encoding="utf-8"?>
<svg xmlns="http://www.w3.org/2000/svg" xmlns:xlink="http://www.w3.org/1999/xlink" width="600" height="400" viewBox="0 0 2400 1600">
<defs>
  <clipPath id="clip750">
    <rect x="0" y="0" width="2400" height="1600"/>
  </clipPath>
</defs>
<path clip-path="url(#clip750)" d="
M0 1600 L2400 1600 L2400 0 L0 0  Z
  " fill="#ffffff" fill-rule="evenodd" fill-opacity="1"/>
<defs>
  <clipPath id="clip751">
    <rect x="480" y="0" width="1681" height="1600"/>
  </clipPath>
</defs>
<path clip-path="url(#clip750)" d="
M234.125 1486.45 L2352.76 1486.45 L2352.76 123.472 L234.125 123.472  Z
  " fill="#ffffff" fill-rule="evenodd" fill-opacity="1"/>
<defs>
  <clipPath id="clip752">
    <rect x="234" y="123" width="2120" height="1364"/>
  </clipPath>
</defs>
<polyline clip-path="url(#clip752)" style="stroke:#000000; stroke-linecap:butt; stroke-linejoin:round; stroke-width:2; stroke-opacity:0.1; fill:none" points="
  299.255,1486.45 299.255,123.472 
  "/>
<polyline clip-path="url(#clip752)" style="stroke:#000000; stroke-linecap:butt; stroke-linejoin:round; stroke-width:2; stroke-opacity:0.1; fill:none" points="
  854.418,1486.45 854.418,123.472 
  "/>
<polyline clip-path="url(#clip752)" style="stroke:#000000; stroke-linecap:butt; stroke-linejoin:round; stroke-width:2; stroke-opacity:0.1; fill:none" points="
  1409.58,1486.45 1409.58,123.472 
  "/>
<polyline clip-path="url(#clip752)" style="stroke:#000000; stroke-linecap:butt; stroke-linejoin:round; stroke-width:2; stroke-opacity:0.1; fill:none" points="
  1964.74,1486.45 1964.74,123.472 
  "/>
<polyline clip-path="url(#clip750)" style="stroke:#000000; stroke-linecap:butt; stroke-linejoin:round; stroke-width:4; stroke-opacity:1; fill:none" points="
  234.125,1486.45 2352.76,1486.45 
  "/>
<polyline clip-path="url(#clip750)" style="stroke:#000000; stroke-linecap:butt; stroke-linejoin:round; stroke-width:4; stroke-opacity:1; fill:none" points="
  299.255,1486.45 299.255,1467.55 
  "/>
<polyline clip-path="url(#clip750)" style="stroke:#000000; stroke-linecap:butt; stroke-linejoin:round; stroke-width:4; stroke-opacity:1; fill:none" points="
  854.418,1486.45 854.418,1467.55 
  "/>
<polyline clip-path="url(#clip750)" style="stroke:#000000; stroke-linecap:butt; stroke-linejoin:round; stroke-width:4; stroke-opacity:1; fill:none" points="
  1409.58,1486.45 1409.58,1467.55 
  "/>
<polyline clip-path="url(#clip750)" style="stroke:#000000; stroke-linecap:butt; stroke-linejoin:round; stroke-width:4; stroke-opacity:1; fill:none" points="
  1964.74,1486.45 1964.74,1467.55 
  "/>
<path clip-path="url(#clip750)" d="M171.05 1544.91 L187.369 1544.91 L187.369 1548.85 L165.425 1548.85 L165.425 1544.91 Q168.087 1542.16 172.67 1537.53 Q177.277 1532.88 178.457 1531.53 Q180.703 1529.01 181.582 1527.27 Q182.485 1525.51 182.485 1523.82 Q182.485 1521.07 180.541 1519.33 Q178.619 1517.6 175.517 1517.6 Q173.318 1517.6 170.865 1518.36 Q168.434 1519.13 165.656 1520.68 L165.656 1515.95 Q168.48 1514.82 170.934 1514.24 Q173.388 1513.66 175.425 1513.66 Q180.795 1513.66 183.99 1516.35 Q187.184 1519.03 187.184 1523.52 Q187.184 1525.65 186.374 1527.57 Q185.587 1529.47 183.48 1532.07 Q182.902 1532.74 179.8 1535.95 Q176.698 1539.15 171.05 1544.91 Z" fill="#000000" fill-rule="evenodd" fill-opacity="1" /><path clip-path="url(#clip750)" d="M207.184 1517.37 Q203.573 1517.37 201.744 1520.93 Q199.939 1524.47 199.939 1531.6 Q199.939 1538.71 201.744 1542.27 Q203.573 1545.82 207.184 1545.82 Q210.818 1545.82 212.624 1542.27 Q214.452 1538.71 214.452 1531.6 Q214.452 1524.47 212.624 1520.93 Q210.818 1517.37 207.184 1517.37 M207.184 1513.66 Q212.994 1513.66 216.05 1518.27 Q219.128 1522.85 219.128 1531.6 Q219.128 1540.33 216.05 1544.94 Q212.994 1549.52 207.184 1549.52 Q201.374 1549.52 198.295 1544.94 Q195.24 1540.33 195.24 1531.6 Q195.24 1522.85 198.295 1518.27 Q201.374 1513.66 207.184 1513.66 Z" fill="#000000" fill-rule="evenodd" fill-opacity="1" /><path clip-path="url(#clip750)" d="M237.346 1517.37 Q233.735 1517.37 231.906 1520.93 Q230.101 1524.47 230.101 1531.6 Q230.101 1538.71 231.906 1542.27 Q233.735 1545.82 237.346 1545.82 Q240.98 1545.82 242.786 1542.27 Q244.614 1538.71 244.614 1531.6 Q244.614 1524.47 242.786 1520.93 Q240.98 1517.37 237.346 1517.37 M237.346 1513.66 Q243.156 1513.66 246.212 1518.27 Q249.29 1522.85 249.29 1531.6 Q249.29 1540.33 246.212 1544.94 Q243.156 1549.52 237.346 1549.52 Q231.536 1549.52 228.457 1544.94 Q225.401 1540.33 225.401 1531.6 Q225.401 1522.85 228.457 1518.27 Q231.536 1513.66 237.346 1513.66 Z" fill="#000000" fill-rule="evenodd" fill-opacity="1" /><path clip-path="url(#clip750)" d="M258.318 1544.91 L265.957 1544.91 L265.957 1518.55 L257.647 1520.21 L257.647 1515.95 L265.911 1514.29 L270.586 1514.29 L270.586 1544.91 L278.225 1544.91 L278.225 1548.85 L258.318 1548.85 L258.318 1544.91 Z" fill="#000000" fill-rule="evenodd" fill-opacity="1" /><path clip-path="url(#clip750)" d="M284.915 1533.96 L297.392 1533.96 L297.392 1537.76 L284.915 1537.76 L284.915 1533.96 Z" fill="#000000" fill-rule="evenodd" fill-opacity="1" /><path clip-path="url(#clip750)" d="M314.776 1517.37 Q311.165 1517.37 309.336 1520.93 Q307.531 1524.47 307.531 1531.6 Q307.531 1538.71 309.336 1542.27 Q311.165 1545.82 314.776 1545.82 Q318.41 1545.82 320.216 1542.27 Q322.044 1538.71 322.044 1531.6 Q322.044 1524.47 320.216 1520.93 Q318.41 1517.37 314.776 1517.37 M314.776 1513.66 Q320.586 1513.66 323.642 1518.27 Q326.72 1522.85 326.72 1531.6 Q326.72 1540.33 323.642 1544.94 Q320.586 1549.52 314.776 1549.52 Q308.966 1549.52 305.887 1544.94 Q302.832 1540.33 302.832 1531.6 Q302.832 1522.85 305.887 1518.27 Q308.966 1513.66 314.776 1513.66 Z" fill="#000000" fill-rule="evenodd" fill-opacity="1" /><path clip-path="url(#clip750)" d="M335.748 1544.91 L343.387 1544.91 L343.387 1518.55 L335.077 1520.21 L335.077 1515.95 L343.341 1514.29 L348.017 1514.29 L348.017 1544.91 L355.655 1544.91 L355.655 1548.85 L335.748 1548.85 L335.748 1544.91 Z" fill="#000000" fill-rule="evenodd" fill-opacity="1" /><path clip-path="url(#clip750)" d="M362.345 1533.96 L374.822 1533.96 L374.822 1537.76 L362.345 1537.76 L362.345 1533.96 Z" fill="#000000" fill-rule="evenodd" fill-opacity="1" /><path clip-path="url(#clip750)" d="M392.206 1517.37 Q388.595 1517.37 386.766 1520.93 Q384.961 1524.47 384.961 1531.6 Q384.961 1538.71 386.766 1542.27 Q388.595 1545.82 392.206 1545.82 Q395.84 1545.82 397.646 1542.27 Q399.475 1538.71 399.475 1531.6 Q399.475 1524.47 397.646 1520.93 Q395.84 1517.37 392.206 1517.37 M392.206 1513.66 Q398.016 1513.66 401.072 1518.27 Q404.151 1522.85 404.151 1531.6 Q404.151 1540.33 401.072 1544.94 Q398.016 1549.52 392.206 1549.52 Q386.396 1549.52 383.317 1544.94 Q380.262 1540.33 380.262 1531.6 Q380.262 1522.85 383.317 1518.27 Q386.396 1513.66 392.206 1513.66 Z" fill="#000000" fill-rule="evenodd" fill-opacity="1" /><path clip-path="url(#clip750)" d="M413.178 1544.91 L420.817 1544.91 L420.817 1518.55 L412.507 1520.21 L412.507 1515.95 L420.771 1514.29 L425.447 1514.29 L425.447 1544.91 L433.086 1544.91 L433.086 1548.85 L413.178 1548.85 L413.178 1544.91 Z" fill="#000000" fill-rule="evenodd" fill-opacity="1" /><path clip-path="url(#clip750)" d="M726.213 1544.91 L742.532 1544.91 L742.532 1548.85 L720.588 1548.85 L720.588 1544.91 Q723.25 1542.16 727.833 1537.53 Q732.44 1532.88 733.62 1531.53 Q735.866 1529.01 736.745 1527.27 Q737.648 1525.51 737.648 1523.82 Q737.648 1521.07 735.703 1519.33 Q733.782 1517.6 730.68 1517.6 Q728.481 1517.6 726.028 1518.36 Q723.597 1519.13 720.819 1520.68 L720.819 1515.95 Q723.643 1514.82 726.097 1514.24 Q728.551 1513.66 730.588 1513.66 Q735.958 1513.66 739.153 1516.35 Q742.347 1519.03 742.347 1523.52 Q742.347 1525.65 741.537 1527.57 Q740.75 1529.47 738.643 1532.07 Q738.065 1532.74 734.963 1535.95 Q731.861 1539.15 726.213 1544.91 Z" fill="#000000" fill-rule="evenodd" fill-opacity="1" /><path clip-path="url(#clip750)" d="M762.347 1517.37 Q758.736 1517.37 756.907 1520.93 Q755.102 1524.47 755.102 1531.6 Q755.102 1538.71 756.907 1542.27 Q758.736 1545.82 762.347 1545.82 Q765.981 1545.82 767.787 1542.27 Q769.615 1538.71 769.615 1531.6 Q769.615 1524.47 767.787 1520.93 Q765.981 1517.37 762.347 1517.37 M762.347 1513.66 Q768.157 1513.66 771.213 1518.27 Q774.291 1522.85 774.291 1531.6 Q774.291 1540.33 771.213 1544.94 Q768.157 1549.52 762.347 1549.52 Q756.537 1549.52 753.458 1544.94 Q750.402 1540.33 750.402 1531.6 Q750.402 1522.85 753.458 1518.27 Q756.537 1513.66 762.347 1513.66 Z" fill="#000000" fill-rule="evenodd" fill-opacity="1" /><path clip-path="url(#clip750)" d="M792.509 1517.37 Q788.898 1517.37 787.069 1520.93 Q785.263 1524.47 785.263 1531.6 Q785.263 1538.71 787.069 1542.27 Q788.898 1545.82 792.509 1545.82 Q796.143 1545.82 797.949 1542.27 Q799.777 1538.71 799.777 1531.6 Q799.777 1524.47 797.949 1520.93 Q796.143 1517.37 792.509 1517.37 M792.509 1513.66 Q798.319 1513.66 801.374 1518.27 Q804.453 1522.85 804.453 1531.6 Q804.453 1540.33 801.374 1544.94 Q798.319 1549.52 792.509 1549.52 Q786.699 1549.52 783.62 1544.94 Q780.564 1540.33 780.564 1531.6 Q780.564 1522.85 783.62 1518.27 Q786.699 1513.66 792.509 1513.66 Z" fill="#000000" fill-rule="evenodd" fill-opacity="1" /><path clip-path="url(#clip750)" d="M823.249 1529.7 Q820.101 1529.7 818.249 1531.86 Q816.421 1534.01 816.421 1537.76 Q816.421 1541.49 818.249 1543.66 Q820.101 1545.82 823.249 1545.82 Q826.397 1545.82 828.226 1543.66 Q830.078 1541.49 830.078 1537.76 Q830.078 1534.01 828.226 1531.86 Q826.397 1529.7 823.249 1529.7 M832.532 1515.05 L832.532 1519.31 Q830.772 1518.48 828.967 1518.04 Q827.184 1517.6 825.425 1517.6 Q820.796 1517.6 818.342 1520.72 Q815.911 1523.85 815.564 1530.17 Q816.93 1528.15 818.99 1527.09 Q821.05 1526 823.527 1526 Q828.735 1526 831.745 1529.17 Q834.777 1532.32 834.777 1537.76 Q834.777 1543.08 831.629 1546.3 Q828.481 1549.52 823.249 1549.52 Q817.254 1549.52 814.083 1544.94 Q810.911 1540.33 810.911 1531.6 Q810.911 1523.41 814.8 1518.55 Q818.689 1513.66 825.24 1513.66 Q826.999 1513.66 828.782 1514.01 Q830.587 1514.36 832.532 1515.05 Z" fill="#000000" fill-rule="evenodd" fill-opacity="1" /><path clip-path="url(#clip750)" d="M840.078 1533.96 L852.555 1533.96 L852.555 1537.76 L840.078 1537.76 L840.078 1533.96 Z" fill="#000000" fill-rule="evenodd" fill-opacity="1" /><path clip-path="url(#clip750)" d="M869.939 1517.37 Q866.328 1517.37 864.499 1520.93 Q862.694 1524.47 862.694 1531.6 Q862.694 1538.71 864.499 1542.27 Q866.328 1545.82 869.939 1545.82 Q873.573 1545.82 875.379 1542.27 Q877.207 1538.71 877.207 1531.6 Q877.207 1524.47 875.379 1520.93 Q873.573 1517.37 869.939 1517.37 M869.939 1513.66 Q875.749 1513.66 878.805 1518.27 Q881.883 1522.85 881.883 1531.6 Q881.883 1540.33 878.805 1544.94 Q875.749 1549.52 869.939 1549.52 Q864.129 1549.52 861.05 1544.94 Q857.994 1540.33 857.994 1531.6 Q857.994 1522.85 861.05 1518.27 Q864.129 1513.66 869.939 1513.66 Z" fill="#000000" fill-rule="evenodd" fill-opacity="1" /><path clip-path="url(#clip750)" d="M890.911 1544.91 L898.55 1544.91 L898.55 1518.55 L890.24 1520.21 L890.24 1515.95 L898.504 1514.29 L903.179 1514.29 L903.179 1544.91 L910.818 1544.91 L910.818 1548.85 L890.911 1548.85 L890.911 1544.91 Z" fill="#000000" fill-rule="evenodd" fill-opacity="1" /><path clip-path="url(#clip750)" d="M917.508 1533.96 L929.985 1533.96 L929.985 1537.76 L917.508 1537.76 L917.508 1533.96 Z" fill="#000000" fill-rule="evenodd" fill-opacity="1" /><path clip-path="url(#clip750)" d="M947.369 1517.37 Q943.758 1517.37 941.929 1520.93 Q940.124 1524.47 940.124 1531.6 Q940.124 1538.71 941.929 1542.27 Q943.758 1545.82 947.369 1545.82 Q951.003 1545.82 952.809 1542.27 Q954.637 1538.71 954.637 1531.6 Q954.637 1524.47 952.809 1520.93 Q951.003 1517.37 947.369 1517.37 M947.369 1513.66 Q953.179 1513.66 956.235 1518.27 Q959.313 1522.85 959.313 1531.6 Q959.313 1540.33 956.235 1544.94 Q953.179 1549.52 947.369 1549.52 Q941.559 1549.52 938.48 1544.94 Q935.425 1540.33 935.425 1531.6 Q935.425 1522.85 938.48 1518.27 Q941.559 1513.66 947.369 1513.66 Z" fill="#000000" fill-rule="evenodd" fill-opacity="1" /><path clip-path="url(#clip750)" d="M968.341 1544.91 L975.98 1544.91 L975.98 1518.55 L967.67 1520.21 L967.67 1515.95 L975.934 1514.29 L980.61 1514.29 L980.61 1544.91 L988.248 1544.91 L988.248 1548.85 L968.341 1548.85 L968.341 1544.91 Z" fill="#000000" fill-rule="evenodd" fill-opacity="1" /><path clip-path="url(#clip750)" d="M1281.38 1544.91 L1297.7 1544.91 L1297.7 1548.85 L1275.75 1548.85 L1275.75 1544.91 Q1278.41 1542.16 1283 1537.53 Q1287.6 1532.88 1288.78 1531.53 Q1291.03 1529.01 1291.91 1527.27 Q1292.81 1525.51 1292.81 1523.82 Q1292.81 1521.07 1290.87 1519.33 Q1288.95 1517.6 1285.84 1517.6 Q1283.64 1517.6 1281.19 1518.36 Q1278.76 1519.13 1275.98 1520.68 L1275.98 1515.95 Q1278.81 1514.82 1281.26 1514.24 Q1283.71 1513.66 1285.75 1513.66 Q1291.12 1513.66 1294.32 1516.35 Q1297.51 1519.03 1297.51 1523.52 Q1297.51 1525.65 1296.7 1527.57 Q1295.91 1529.47 1293.81 1532.07 Q1293.23 1532.74 1290.13 1535.95 Q1287.02 1539.15 1281.38 1544.91 Z" fill="#000000" fill-rule="evenodd" fill-opacity="1" /><path clip-path="url(#clip750)" d="M1317.51 1517.37 Q1313.9 1517.37 1312.07 1520.93 Q1310.26 1524.47 1310.26 1531.6 Q1310.26 1538.71 1312.07 1542.27 Q1313.9 1545.82 1317.51 1545.82 Q1321.14 1545.82 1322.95 1542.27 Q1324.78 1538.71 1324.78 1531.6 Q1324.78 1524.47 1322.95 1520.93 Q1321.14 1517.37 1317.51 1517.37 M1317.51 1513.66 Q1323.32 1513.66 1326.38 1518.27 Q1329.45 1522.85 1329.45 1531.6 Q1329.45 1540.33 1326.38 1544.94 Q1323.32 1549.52 1317.51 1549.52 Q1311.7 1549.52 1308.62 1544.94 Q1305.57 1540.33 1305.57 1531.6 Q1305.57 1522.85 1308.62 1518.27 Q1311.7 1513.66 1317.51 1513.66 Z" fill="#000000" fill-rule="evenodd" fill-opacity="1" /><path clip-path="url(#clip750)" d="M1338.48 1544.91 L1346.12 1544.91 L1346.12 1518.55 L1337.81 1520.21 L1337.81 1515.95 L1346.07 1514.29 L1350.75 1514.29 L1350.75 1544.91 L1358.39 1544.91 L1358.39 1548.85 L1338.48 1548.85 L1338.48 1544.91 Z" fill="#000000" fill-rule="evenodd" fill-opacity="1" /><path clip-path="url(#clip750)" d="M1368.64 1544.91 L1376.28 1544.91 L1376.28 1518.55 L1367.97 1520.21 L1367.97 1515.95 L1376.24 1514.29 L1380.91 1514.29 L1380.91 1544.91 L1388.55 1544.91 L1388.55 1548.85 L1368.64 1548.85 L1368.64 1544.91 Z" fill="#000000" fill-rule="evenodd" fill-opacity="1" /><path clip-path="url(#clip750)" d="M1395.24 1533.96 L1407.72 1533.96 L1407.72 1537.76 L1395.24 1537.76 L1395.24 1533.96 Z" fill="#000000" fill-rule="evenodd" fill-opacity="1" /><path clip-path="url(#clip750)" d="M1425.1 1517.37 Q1421.49 1517.37 1419.66 1520.93 Q1417.86 1524.47 1417.86 1531.6 Q1417.86 1538.71 1419.66 1542.27 Q1421.49 1545.82 1425.1 1545.82 Q1428.74 1545.82 1430.54 1542.27 Q1432.37 1538.71 1432.37 1531.6 Q1432.37 1524.47 1430.54 1520.93 Q1428.74 1517.37 1425.1 1517.37 M1425.1 1513.66 Q1430.91 1513.66 1433.97 1518.27 Q1437.05 1522.85 1437.05 1531.6 Q1437.05 1540.33 1433.97 1544.94 Q1430.91 1549.52 1425.1 1549.52 Q1419.29 1549.52 1416.21 1544.94 Q1413.16 1540.33 1413.16 1531.6 Q1413.16 1522.85 1416.21 1518.27 Q1419.29 1513.66 1425.1 1513.66 Z" fill="#000000" fill-rule="evenodd" fill-opacity="1" /><path clip-path="url(#clip750)" d="M1446.07 1544.91 L1453.71 1544.91 L1453.71 1518.55 L1445.4 1520.21 L1445.4 1515.95 L1453.67 1514.29 L1458.34 1514.29 L1458.34 1544.91 L1465.98 1544.91 L1465.98 1548.85 L1446.07 1548.85 L1446.07 1544.91 Z" fill="#000000" fill-rule="evenodd" fill-opacity="1" /><path clip-path="url(#clip750)" d="M1472.67 1533.96 L1485.15 1533.96 L1485.15 1537.76 L1472.67 1537.76 L1472.67 1533.96 Z" fill="#000000" fill-rule="evenodd" fill-opacity="1" /><path clip-path="url(#clip750)" d="M1502.53 1517.37 Q1498.92 1517.37 1497.09 1520.93 Q1495.29 1524.47 1495.29 1531.6 Q1495.29 1538.71 1497.09 1542.27 Q1498.92 1545.82 1502.53 1545.82 Q1506.17 1545.82 1507.97 1542.27 Q1509.8 1538.71 1509.8 1531.6 Q1509.8 1524.47 1507.97 1520.93 Q1506.17 1517.37 1502.53 1517.37 M1502.53 1513.66 Q1508.34 1513.66 1511.4 1518.27 Q1514.48 1522.85 1514.48 1531.6 Q1514.48 1540.33 1511.4 1544.94 Q1508.34 1549.52 1502.53 1549.52 Q1496.72 1549.52 1493.64 1544.94 Q1490.59 1540.33 1490.59 1531.6 Q1490.59 1522.85 1493.64 1518.27 Q1496.72 1513.66 1502.53 1513.66 Z" fill="#000000" fill-rule="evenodd" fill-opacity="1" /><path clip-path="url(#clip750)" d="M1523.5 1544.91 L1531.14 1544.91 L1531.14 1518.55 L1522.83 1520.21 L1522.83 1515.95 L1531.1 1514.29 L1535.77 1514.29 L1535.77 1544.91 L1543.41 1544.91 L1543.41 1548.85 L1523.5 1548.85 L1523.5 1544.91 Z" fill="#000000" fill-rule="evenodd" fill-opacity="1" /><path clip-path="url(#clip750)" d="M1836.54 1544.91 L1852.86 1544.91 L1852.86 1548.85 L1830.91 1548.85 L1830.91 1544.91 Q1833.58 1542.16 1838.16 1537.53 Q1842.77 1532.88 1843.95 1531.53 Q1846.19 1529.01 1847.07 1527.27 Q1847.97 1525.51 1847.97 1523.82 Q1847.97 1521.07 1846.03 1519.33 Q1844.11 1517.6 1841.01 1517.6 Q1838.81 1517.6 1836.35 1518.36 Q1833.92 1519.13 1831.15 1520.68 L1831.15 1515.95 Q1833.97 1514.82 1836.42 1514.24 Q1838.88 1513.66 1840.91 1513.66 Q1846.28 1513.66 1849.48 1516.35 Q1852.67 1519.03 1852.67 1523.52 Q1852.67 1525.65 1851.86 1527.57 Q1851.08 1529.47 1848.97 1532.07 Q1848.39 1532.74 1845.29 1535.95 Q1842.19 1539.15 1836.54 1544.91 Z" fill="#000000" fill-rule="evenodd" fill-opacity="1" /><path clip-path="url(#clip750)" d="M1872.67 1517.37 Q1869.06 1517.37 1867.23 1520.93 Q1865.43 1524.47 1865.43 1531.6 Q1865.43 1538.71 1867.23 1542.27 Q1869.06 1545.82 1872.67 1545.82 Q1876.31 1545.82 1878.11 1542.27 Q1879.94 1538.71 1879.94 1531.6 Q1879.94 1524.47 1878.11 1520.93 Q1876.31 1517.37 1872.67 1517.37 M1872.67 1513.66 Q1878.48 1513.66 1881.54 1518.27 Q1884.62 1522.85 1884.62 1531.6 Q1884.62 1540.33 1881.54 1544.94 Q1878.48 1549.52 1872.67 1549.52 Q1866.86 1549.52 1863.78 1544.94 Q1860.73 1540.33 1860.73 1531.6 Q1860.73 1522.85 1863.78 1518.27 Q1866.86 1513.66 1872.67 1513.66 Z" fill="#000000" fill-rule="evenodd" fill-opacity="1" /><path clip-path="url(#clip750)" d="M1893.64 1544.91 L1901.28 1544.91 L1901.28 1518.55 L1892.97 1520.21 L1892.97 1515.95 L1901.24 1514.29 L1905.91 1514.29 L1905.91 1544.91 L1913.55 1544.91 L1913.55 1548.85 L1893.64 1548.85 L1893.64 1544.91 Z" fill="#000000" fill-rule="evenodd" fill-opacity="1" /><path clip-path="url(#clip750)" d="M1933.58 1529.7 Q1930.43 1529.7 1928.58 1531.86 Q1926.75 1534.01 1926.75 1537.76 Q1926.75 1541.49 1928.58 1543.66 Q1930.43 1545.82 1933.58 1545.82 Q1936.72 1545.82 1938.55 1543.66 Q1940.4 1541.49 1940.4 1537.76 Q1940.4 1534.01 1938.55 1531.86 Q1936.72 1529.7 1933.58 1529.7 M1942.86 1515.05 L1942.86 1519.31 Q1941.1 1518.48 1939.29 1518.04 Q1937.51 1517.6 1935.75 1517.6 Q1931.12 1517.6 1928.67 1520.72 Q1926.24 1523.85 1925.89 1530.17 Q1927.26 1528.15 1929.32 1527.09 Q1931.38 1526 1933.85 1526 Q1939.06 1526 1942.07 1529.17 Q1945.1 1532.32 1945.1 1537.76 Q1945.1 1543.08 1941.95 1546.3 Q1938.81 1549.52 1933.58 1549.52 Q1927.58 1549.52 1924.41 1544.94 Q1921.24 1540.33 1921.24 1531.6 Q1921.24 1523.41 1925.13 1518.55 Q1929.01 1513.66 1935.57 1513.66 Q1937.33 1513.66 1939.11 1514.01 Q1940.91 1514.36 1942.86 1515.05 Z" fill="#000000" fill-rule="evenodd" fill-opacity="1" /><path clip-path="url(#clip750)" d="M1950.4 1533.96 L1962.88 1533.96 L1962.88 1537.76 L1950.4 1537.76 L1950.4 1533.96 Z" fill="#000000" fill-rule="evenodd" fill-opacity="1" /><path clip-path="url(#clip750)" d="M1980.26 1517.37 Q1976.65 1517.37 1974.82 1520.93 Q1973.02 1524.47 1973.02 1531.6 Q1973.02 1538.71 1974.82 1542.27 Q1976.65 1545.82 1980.26 1545.82 Q1983.9 1545.82 1985.7 1542.27 Q1987.53 1538.71 1987.53 1531.6 Q1987.53 1524.47 1985.7 1520.93 Q1983.9 1517.37 1980.26 1517.37 M1980.26 1513.66 Q1986.07 1513.66 1989.13 1518.27 Q1992.21 1522.85 1992.21 1531.6 Q1992.21 1540.33 1989.13 1544.94 Q1986.07 1549.52 1980.26 1549.52 Q1974.45 1549.52 1971.38 1544.94 Q1968.32 1540.33 1968.32 1531.6 Q1968.32 1522.85 1971.38 1518.27 Q1974.45 1513.66 1980.26 1513.66 Z" fill="#000000" fill-rule="evenodd" fill-opacity="1" /><path clip-path="url(#clip750)" d="M2001.24 1544.91 L2008.88 1544.91 L2008.88 1518.55 L2000.57 1520.21 L2000.57 1515.95 L2008.83 1514.29 L2013.51 1514.29 L2013.51 1544.91 L2021.14 1544.91 L2021.14 1548.85 L2001.24 1548.85 L2001.24 1544.91 Z" fill="#000000" fill-rule="evenodd" fill-opacity="1" /><path clip-path="url(#clip750)" d="M2027.83 1533.96 L2040.31 1533.96 L2040.31 1537.76 L2027.83 1537.76 L2027.83 1533.96 Z" fill="#000000" fill-rule="evenodd" fill-opacity="1" /><path clip-path="url(#clip750)" d="M2057.69 1517.37 Q2054.08 1517.37 2052.25 1520.93 Q2050.45 1524.47 2050.45 1531.6 Q2050.45 1538.71 2052.25 1542.27 Q2054.08 1545.82 2057.69 1545.82 Q2061.33 1545.82 2063.13 1542.27 Q2064.96 1538.71 2064.96 1531.6 Q2064.96 1524.47 2063.13 1520.93 Q2061.33 1517.37 2057.69 1517.37 M2057.69 1513.66 Q2063.5 1513.66 2066.56 1518.27 Q2069.64 1522.85 2069.64 1531.6 Q2069.64 1540.33 2066.56 1544.94 Q2063.5 1549.52 2057.69 1549.52 Q2051.88 1549.52 2048.81 1544.94 Q2045.75 1540.33 2045.75 1531.6 Q2045.75 1522.85 2048.81 1518.27 Q2051.88 1513.66 2057.69 1513.66 Z" fill="#000000" fill-rule="evenodd" fill-opacity="1" /><path clip-path="url(#clip750)" d="M2078.67 1544.91 L2086.31 1544.91 L2086.31 1518.55 L2078 1520.21 L2078 1515.95 L2086.26 1514.29 L2090.94 1514.29 L2090.94 1544.91 L2098.57 1544.91 L2098.57 1548.85 L2078.67 1548.85 L2078.67 1544.91 Z" fill="#000000" fill-rule="evenodd" fill-opacity="1" /><polyline clip-path="url(#clip752)" style="stroke:#000000; stroke-linecap:butt; stroke-linejoin:round; stroke-width:2; stroke-opacity:0.1; fill:none" points="
  234.125,1447.87 2352.76,1447.87 
  "/>
<polyline clip-path="url(#clip752)" style="stroke:#000000; stroke-linecap:butt; stroke-linejoin:round; stroke-width:2; stroke-opacity:0.1; fill:none" points="
  234.125,1023.51 2352.76,1023.51 
  "/>
<polyline clip-path="url(#clip752)" style="stroke:#000000; stroke-linecap:butt; stroke-linejoin:round; stroke-width:2; stroke-opacity:0.1; fill:none" points="
  234.125,599.143 2352.76,599.143 
  "/>
<polyline clip-path="url(#clip752)" style="stroke:#000000; stroke-linecap:butt; stroke-linejoin:round; stroke-width:2; stroke-opacity:0.1; fill:none" points="
  234.125,174.778 2352.76,174.778 
  "/>
<polyline clip-path="url(#clip750)" style="stroke:#000000; stroke-linecap:butt; stroke-linejoin:round; stroke-width:4; stroke-opacity:1; fill:none" points="
  234.125,1486.45 234.125,123.472 
  "/>
<polyline clip-path="url(#clip750)" style="stroke:#000000; stroke-linecap:butt; stroke-linejoin:round; stroke-width:4; stroke-opacity:1; fill:none" points="
  234.125,1447.87 253.023,1447.87 
  "/>
<polyline clip-path="url(#clip750)" style="stroke:#000000; stroke-linecap:butt; stroke-linejoin:round; stroke-width:4; stroke-opacity:1; fill:none" points="
  234.125,1023.51 253.023,1023.51 
  "/>
<polyline clip-path="url(#clip750)" style="stroke:#000000; stroke-linecap:butt; stroke-linejoin:round; stroke-width:4; stroke-opacity:1; fill:none" points="
  234.125,599.143 253.023,599.143 
  "/>
<polyline clip-path="url(#clip750)" style="stroke:#000000; stroke-linecap:butt; stroke-linejoin:round; stroke-width:4; stroke-opacity:1; fill:none" points="
  234.125,174.778 253.023,174.778 
  "/>
<path clip-path="url(#clip750)" d="M186.181 1433.67 Q182.57 1433.67 180.741 1437.24 Q178.936 1440.78 178.936 1447.91 Q178.936 1455.01 180.741 1458.58 Q182.57 1462.12 186.181 1462.12 Q189.815 1462.12 191.621 1458.58 Q193.45 1455.01 193.45 1447.91 Q193.45 1440.78 191.621 1437.24 Q189.815 1433.67 186.181 1433.67 M186.181 1429.97 Q191.991 1429.97 195.047 1434.57 Q198.125 1439.16 198.125 1447.91 Q198.125 1456.63 195.047 1461.24 Q191.991 1465.82 186.181 1465.82 Q180.371 1465.82 177.292 1461.24 Q174.237 1456.63 174.237 1447.91 Q174.237 1439.16 177.292 1434.57 Q180.371 1429.97 186.181 1429.97 Z" fill="#000000" fill-rule="evenodd" fill-opacity="1" /><path clip-path="url(#clip750)" d="M116.668 1036.85 L124.306 1036.85 L124.306 1010.49 L115.996 1012.15 L115.996 1007.89 L124.26 1006.23 L128.936 1006.23 L128.936 1036.85 L136.575 1036.85 L136.575 1040.79 L116.668 1040.79 L116.668 1036.85 Z" fill="#000000" fill-rule="evenodd" fill-opacity="1" /><path clip-path="url(#clip750)" d="M156.019 1009.31 Q152.408 1009.31 150.579 1012.87 Q148.774 1016.41 148.774 1023.54 Q148.774 1030.65 150.579 1034.21 Q152.408 1037.76 156.019 1037.76 Q159.653 1037.76 161.459 1034.21 Q163.288 1030.65 163.288 1023.54 Q163.288 1016.41 161.459 1012.87 Q159.653 1009.31 156.019 1009.31 M156.019 1005.6 Q161.829 1005.6 164.885 1010.21 Q167.964 1014.79 167.964 1023.54 Q167.964 1032.27 164.885 1036.88 Q161.829 1041.46 156.019 1041.46 Q150.209 1041.46 147.13 1036.88 Q144.075 1032.27 144.075 1023.54 Q144.075 1014.79 147.13 1010.21 Q150.209 1005.6 156.019 1005.6 Z" fill="#000000" fill-rule="evenodd" fill-opacity="1" /><path clip-path="url(#clip750)" d="M186.181 1009.31 Q182.57 1009.31 180.741 1012.87 Q178.936 1016.41 178.936 1023.54 Q178.936 1030.65 180.741 1034.21 Q182.57 1037.76 186.181 1037.76 Q189.815 1037.76 191.621 1034.21 Q193.45 1030.65 193.45 1023.54 Q193.45 1016.41 191.621 1012.87 Q189.815 1009.31 186.181 1009.31 M186.181 1005.6 Q191.991 1005.6 195.047 1010.21 Q198.125 1014.79 198.125 1023.54 Q198.125 1032.27 195.047 1036.88 Q191.991 1041.46 186.181 1041.46 Q180.371 1041.46 177.292 1036.88 Q174.237 1032.27 174.237 1023.54 Q174.237 1014.79 177.292 1010.21 Q180.371 1005.6 186.181 1005.6 Z" fill="#000000" fill-rule="evenodd" fill-opacity="1" /><path clip-path="url(#clip750)" d="M119.885 612.488 L136.204 612.488 L136.204 616.423 L114.26 616.423 L114.26 612.488 Q116.922 609.733 121.505 605.104 Q126.112 600.451 127.292 599.108 Q129.538 596.585 130.417 594.849 Q131.32 593.09 131.32 591.4 Q131.32 588.645 129.376 586.909 Q127.455 585.173 124.353 585.173 Q122.154 585.173 119.7 585.937 Q117.269 586.701 114.492 588.252 L114.492 583.53 Q117.316 582.395 119.769 581.817 Q122.223 581.238 124.26 581.238 Q129.63 581.238 132.825 583.923 Q136.019 586.608 136.019 591.099 Q136.019 593.229 135.209 595.15 Q134.422 597.048 132.316 599.641 Q131.737 600.312 128.635 603.529 Q125.533 606.724 119.885 612.488 Z" fill="#000000" fill-rule="evenodd" fill-opacity="1" /><path clip-path="url(#clip750)" d="M156.019 584.942 Q152.408 584.942 150.579 588.506 Q148.774 592.048 148.774 599.178 Q148.774 606.284 150.579 609.849 Q152.408 613.391 156.019 613.391 Q159.653 613.391 161.459 609.849 Q163.288 606.284 163.288 599.178 Q163.288 592.048 161.459 588.506 Q159.653 584.942 156.019 584.942 M156.019 581.238 Q161.829 581.238 164.885 585.844 Q167.964 590.428 167.964 599.178 Q167.964 607.904 164.885 612.511 Q161.829 617.094 156.019 617.094 Q150.209 617.094 147.13 612.511 Q144.075 607.904 144.075 599.178 Q144.075 590.428 147.13 585.844 Q150.209 581.238 156.019 581.238 Z" fill="#000000" fill-rule="evenodd" fill-opacity="1" /><path clip-path="url(#clip750)" d="M186.181 584.942 Q182.57 584.942 180.741 588.506 Q178.936 592.048 178.936 599.178 Q178.936 606.284 180.741 609.849 Q182.57 613.391 186.181 613.391 Q189.815 613.391 191.621 609.849 Q193.45 606.284 193.45 599.178 Q193.45 592.048 191.621 588.506 Q189.815 584.942 186.181 584.942 M186.181 581.238 Q191.991 581.238 195.047 585.844 Q198.125 590.428 198.125 599.178 Q198.125 607.904 195.047 612.511 Q191.991 617.094 186.181 617.094 Q180.371 617.094 177.292 612.511 Q174.237 607.904 174.237 599.178 Q174.237 590.428 177.292 585.844 Q180.371 581.238 186.181 581.238 Z" fill="#000000" fill-rule="evenodd" fill-opacity="1" /><path clip-path="url(#clip750)" d="M130.024 173.424 Q133.38 174.141 135.255 176.41 Q137.154 178.678 137.154 182.012 Q137.154 187.127 133.635 189.928 Q130.117 192.729 123.635 192.729 Q121.459 192.729 119.144 192.289 Q116.853 191.873 114.399 191.016 L114.399 186.502 Q116.343 187.637 118.658 188.215 Q120.973 188.794 123.496 188.794 Q127.894 188.794 130.186 187.058 Q132.501 185.322 132.501 182.012 Q132.501 178.956 130.348 177.243 Q128.218 175.507 124.399 175.507 L120.371 175.507 L120.371 171.664 L124.584 171.664 Q128.033 171.664 129.862 170.299 Q131.691 168.91 131.691 166.317 Q131.691 163.655 129.792 162.243 Q127.917 160.808 124.399 160.808 Q122.478 160.808 120.279 161.225 Q118.08 161.641 115.441 162.521 L115.441 158.354 Q118.103 157.614 120.418 157.243 Q122.755 156.873 124.816 156.873 Q130.14 156.873 133.242 159.303 Q136.343 161.711 136.343 165.831 Q136.343 168.702 134.7 170.692 Q133.056 172.66 130.024 173.424 Z" fill="#000000" fill-rule="evenodd" fill-opacity="1" /><path clip-path="url(#clip750)" d="M156.019 160.577 Q152.408 160.577 150.579 164.141 Q148.774 167.683 148.774 174.813 Q148.774 181.919 150.579 185.484 Q152.408 189.025 156.019 189.025 Q159.653 189.025 161.459 185.484 Q163.288 181.919 163.288 174.813 Q163.288 167.683 161.459 164.141 Q159.653 160.577 156.019 160.577 M156.019 156.873 Q161.829 156.873 164.885 161.479 Q167.964 166.063 167.964 174.813 Q167.964 183.539 164.885 188.146 Q161.829 192.729 156.019 192.729 Q150.209 192.729 147.13 188.146 Q144.075 183.539 144.075 174.813 Q144.075 166.063 147.13 161.479 Q150.209 156.873 156.019 156.873 Z" fill="#000000" fill-rule="evenodd" fill-opacity="1" /><path clip-path="url(#clip750)" d="M186.181 160.577 Q182.57 160.577 180.741 164.141 Q178.936 167.683 178.936 174.813 Q178.936 181.919 180.741 185.484 Q182.57 189.025 186.181 189.025 Q189.815 189.025 191.621 185.484 Q193.45 181.919 193.45 174.813 Q193.45 167.683 191.621 164.141 Q189.815 160.577 186.181 160.577 M186.181 156.873 Q191.991 156.873 195.047 161.479 Q198.125 166.063 198.125 174.813 Q198.125 183.539 195.047 188.146 Q191.991 192.729 186.181 192.729 Q180.371 192.729 177.292 188.146 Q174.237 183.539 174.237 174.813 Q174.237 166.063 177.292 161.479 Q180.371 156.873 186.181 156.873 Z" fill="#000000" fill-rule="evenodd" fill-opacity="1" /><path clip-path="url(#clip750)" d="M20.1444 1075.14 L26.9239 1075.14 Q23.9002 1078.38 22.4043 1082.08 Q20.9083 1085.74 20.9083 1089.87 Q20.9083 1098.02 25.9054 1102.35 Q30.8707 1106.68 40.2919 1106.68 Q49.6813 1106.68 54.6784 1102.35 Q59.6436 1098.02 59.6436 1089.87 Q59.6436 1085.74 58.1477 1082.08 Q56.6518 1078.38 53.6281 1075.14 L60.3439 1075.14 Q62.6355 1078.51 63.7814 1082.3 Q64.9272 1086.05 64.9272 1090.26 Q64.9272 1101.04 58.3387 1107.25 Q51.7183 1113.46 40.2919 1113.46 Q28.8336 1113.46 22.2451 1107.25 Q15.6248 1101.04 15.6248 1090.26 Q15.6248 1085.99 16.7706 1082.23 Q17.8846 1078.45 20.1444 1075.14 Z" fill="#000000" fill-rule="evenodd" fill-opacity="1" /><path clip-path="url(#clip750)" d="M49.9359 1066.07 L28.3562 1066.07 L28.3562 1060.21 L49.7131 1060.21 Q54.7739 1060.21 57.3202 1058.24 Q59.8346 1056.26 59.8346 1052.32 Q59.8346 1047.57 56.8109 1044.84 Q53.7872 1042.07 48.5673 1042.07 L28.3562 1042.07 L28.3562 1036.21 L64.0042 1036.21 L64.0042 1042.07 L58.5296 1042.07 Q61.7762 1044.2 63.3676 1047.03 Q64.9272 1049.83 64.9272 1053.56 Q64.9272 1059.7 61.1078 1062.88 Q57.2883 1066.07 49.9359 1066.07 M27.4968 1051.33 L27.4968 1051.33 Z" fill="#000000" fill-rule="evenodd" fill-opacity="1" /><path clip-path="url(#clip750)" d="M35.1993 996.393 Q31.2526 994.197 29.3747 991.141 Q27.4968 988.085 27.4968 983.948 Q27.4968 978.378 31.4117 975.354 Q35.2948 972.33 42.4881 972.33 L64.0042 972.33 L64.0042 978.219 L42.679 978.219 Q37.5546 978.219 35.072 980.033 Q32.5894 981.847 32.5894 985.571 Q32.5894 990.122 35.6131 992.764 Q38.6368 995.406 43.8567 995.406 L64.0042 995.406 L64.0042 1001.29 L42.679 1001.29 Q37.5228 1001.29 35.072 1003.11 Q32.5894 1004.92 32.5894 1008.71 Q32.5894 1013.2 35.6449 1015.84 Q38.6686 1018.48 43.8567 1018.48 L64.0042 1018.48 L64.0042 1024.37 L28.3562 1024.37 L28.3562 1018.48 L33.8944 1018.48 Q30.616 1016.48 29.0564 1013.68 Q27.4968 1010.87 27.4968 1007.02 Q27.4968 1003.14 29.4702 1000.43 Q31.4436 997.698 35.1993 996.393 Z" fill="#000000" fill-rule="evenodd" fill-opacity="1" /><path clip-path="url(#clip750)" d="M49.9359 961.254 L28.3562 961.254 L28.3562 955.398 L49.7131 955.398 Q54.7739 955.398 57.3202 953.424 Q59.8346 951.451 59.8346 947.504 Q59.8346 942.762 56.8109 940.024 Q53.7872 937.255 48.5673 937.255 L28.3562 937.255 L28.3562 931.399 L64.0042 931.399 L64.0042 937.255 L58.5296 937.255 Q61.7762 939.388 63.3676 942.221 Q64.9272 945.021 64.9272 948.745 Q64.9272 954.888 61.1078 958.071 Q57.2883 961.254 49.9359 961.254 M27.4968 946.517 L27.4968 946.517 Z" fill="#000000" fill-rule="evenodd" fill-opacity="1" /><path clip-path="url(#clip750)" d="M14.479 919.336 L14.479 913.479 L64.0042 913.479 L64.0042 919.336 L14.479 919.336 Z" fill="#000000" fill-rule="evenodd" fill-opacity="1" /><path clip-path="url(#clip750)" d="M46.0847 885.025 Q46.0847 892.122 47.7079 894.86 Q49.3312 897.597 53.2461 897.597 Q56.3653 897.597 58.2114 895.56 Q60.0256 893.491 60.0256 889.958 Q60.0256 885.088 56.5881 882.16 Q53.1188 879.2 47.3897 879.2 L46.0847 879.2 L46.0847 885.025 M43.6657 873.344 L64.0042 873.344 L64.0042 879.2 L58.5933 879.2 Q61.8398 881.205 63.3994 884.197 Q64.9272 887.189 64.9272 891.518 Q64.9272 896.992 61.8716 900.239 Q58.7843 903.453 53.6281 903.453 Q47.6125 903.453 44.5569 899.443 Q41.5014 895.401 41.5014 887.412 L41.5014 879.2 L40.9285 879.2 Q36.8862 879.2 34.6901 881.874 Q32.4621 884.515 32.4621 889.322 Q32.4621 892.377 33.1941 895.273 Q33.9262 898.17 35.3903 900.843 L29.9795 900.843 Q28.7381 897.629 28.1334 894.605 Q27.4968 891.581 27.4968 888.717 Q27.4968 880.982 31.5072 877.163 Q35.5176 873.344 43.6657 873.344 Z" fill="#000000" fill-rule="evenodd" fill-opacity="1" /><path clip-path="url(#clip750)" d="M18.2347 855.488 L28.3562 855.488 L28.3562 843.425 L32.9077 843.425 L32.9077 855.488 L52.2594 855.488 Q56.6199 855.488 57.8613 854.31 Q59.1026 853.101 59.1026 849.44 L59.1026 843.425 L64.0042 843.425 L64.0042 849.44 Q64.0042 856.22 61.4897 858.798 Q58.9434 861.376 52.2594 861.376 L32.9077 861.376 L32.9077 865.673 L28.3562 865.673 L28.3562 861.376 L18.2347 861.376 L18.2347 855.488 Z" fill="#000000" fill-rule="evenodd" fill-opacity="1" /><path clip-path="url(#clip750)" d="M28.3562 835.722 L28.3562 829.866 L64.0042 829.866 L64.0042 835.722 L28.3562 835.722 M14.479 835.722 L14.479 829.866 L21.895 829.866 L21.895 835.722 L14.479 835.722 Z" fill="#000000" fill-rule="evenodd" fill-opacity="1" /><path clip-path="url(#clip750)" d="M28.3562 821.813 L28.3562 815.607 L58.275 804.467 L28.3562 793.327 L28.3562 787.12 L64.0042 800.488 L64.0042 808.445 L28.3562 821.813 Z" fill="#000000" fill-rule="evenodd" fill-opacity="1" /><path clip-path="url(#clip750)" d="M44.7161 748.544 L47.5806 748.544 L47.5806 775.471 Q53.6281 775.089 56.8109 771.842 Q59.9619 768.564 59.9619 762.739 Q59.9619 759.366 59.1344 756.215 Q58.3069 753.032 56.6518 749.913 L62.1899 749.913 Q63.5267 753.064 64.227 756.374 Q64.9272 759.684 64.9272 763.09 Q64.9272 771.62 59.9619 776.617 Q54.9967 781.582 46.5303 781.582 Q37.7774 781.582 32.6531 776.871 Q27.4968 772.129 27.4968 764.108 Q27.4968 756.915 32.1438 752.745 Q36.7589 748.544 44.7161 748.544 M42.9973 754.4 Q38.1912 754.464 35.3266 757.106 Q32.4621 759.716 32.4621 764.044 Q32.4621 768.946 35.2312 771.906 Q38.0002 774.834 43.0292 775.28 L42.9973 754.4 Z" fill="#000000" fill-rule="evenodd" fill-opacity="1" /><path clip-path="url(#clip750)" d="M21.7677 711.527 L58.7206 711.527 L58.7206 703.761 Q58.7206 693.926 54.2646 689.375 Q49.8086 684.791 40.1964 684.791 Q30.6479 684.791 26.2237 689.375 Q21.7677 693.926 21.7677 703.761 L21.7677 711.527 M16.4842 717.957 L16.4842 704.748 Q16.4842 690.934 22.2451 684.473 Q27.9743 678.012 40.1964 678.012 Q52.4822 678.012 58.2432 684.505 Q64.0042 690.998 64.0042 704.748 L64.0042 717.957 L16.4842 717.957 Z" fill="#000000" fill-rule="evenodd" fill-opacity="1" /><path clip-path="url(#clip750)" d="M44.7161 637.526 L47.5806 637.526 L47.5806 664.453 Q53.6281 664.071 56.8109 660.824 Q59.9619 657.546 59.9619 651.722 Q59.9619 648.348 59.1344 645.197 Q58.3069 642.014 56.6518 638.895 L62.1899 638.895 Q63.5267 642.046 64.227 645.356 Q64.9272 648.666 64.9272 652.072 Q64.9272 660.602 59.9619 665.599 Q54.9967 670.564 46.5303 670.564 Q37.7774 670.564 32.6531 665.853 Q27.4968 661.111 27.4968 653.09 Q27.4968 645.897 32.1438 641.727 Q36.7589 637.526 44.7161 637.526 M42.9973 643.382 Q38.1912 643.446 35.3266 646.088 Q32.4621 648.698 32.4621 653.026 Q32.4621 657.928 35.2312 660.888 Q38.0002 663.816 43.0292 664.262 L42.9973 643.382 Z" fill="#000000" fill-rule="evenodd" fill-opacity="1" /><path clip-path="url(#clip750)" d="M46.0847 611.713 Q46.0847 618.811 47.7079 621.548 Q49.3312 624.285 53.2461 624.285 Q56.3653 624.285 58.2114 622.248 Q60.0256 620.179 60.0256 616.646 Q60.0256 611.777 56.5881 608.848 Q53.1188 605.888 47.3897 605.888 L46.0847 605.888 L46.0847 611.713 M43.6657 600.032 L64.0042 600.032 L64.0042 605.888 L58.5933 605.888 Q61.8398 607.894 63.3994 610.886 Q64.9272 613.877 64.9272 618.206 Q64.9272 623.681 61.8716 626.927 Q58.7843 630.142 53.6281 630.142 Q47.6125 630.142 44.5569 626.131 Q41.5014 622.089 41.5014 614.1 L41.5014 605.888 L40.9285 605.888 Q36.8862 605.888 34.6901 608.562 Q32.4621 611.204 32.4621 616.01 Q32.4621 619.065 33.1941 621.962 Q33.9262 624.858 35.3903 627.532 L29.9795 627.532 Q28.7381 624.317 28.1334 621.293 Q27.4968 618.27 27.4968 615.405 Q27.4968 607.671 31.5072 603.851 Q35.5176 600.032 43.6657 600.032 Z" fill="#000000" fill-rule="evenodd" fill-opacity="1" /><path clip-path="url(#clip750)" d="M18.2347 582.176 L28.3562 582.176 L28.3562 570.113 L32.9077 570.113 L32.9077 582.176 L52.2594 582.176 Q56.6199 582.176 57.8613 580.999 Q59.1026 579.789 59.1026 576.129 L59.1026 570.113 L64.0042 570.113 L64.0042 576.129 Q64.0042 582.908 61.4897 585.486 Q58.9434 588.064 52.2594 588.064 L32.9077 588.064 L32.9077 592.361 L28.3562 592.361 L28.3562 588.064 L18.2347 588.064 L18.2347 582.176 Z" fill="#000000" fill-rule="evenodd" fill-opacity="1" /><path clip-path="url(#clip750)" d="M42.4881 532.778 L64.0042 532.778 L64.0042 538.635 L42.679 538.635 Q37.6183 538.635 35.1038 540.608 Q32.5894 542.581 32.5894 546.528 Q32.5894 551.271 35.6131 554.008 Q38.6368 556.745 43.8567 556.745 L64.0042 556.745 L64.0042 562.633 L14.479 562.633 L14.479 556.745 L33.8944 556.745 Q30.6797 554.645 29.0883 551.812 Q27.4968 548.947 27.4968 545.223 Q27.4968 539.08 31.3163 535.929 Q35.1038 532.778 42.4881 532.778 Z" fill="#000000" fill-rule="evenodd" fill-opacity="1" /><path clip-path="url(#clip750)" d="M29.4065 498.372 L34.9447 498.372 Q33.6716 500.854 33.035 503.528 Q32.3984 506.201 32.3984 509.066 Q32.3984 513.427 33.7352 515.623 Q35.072 517.787 37.7456 517.787 Q39.7826 517.787 40.9603 516.227 Q42.1061 514.668 43.1565 509.957 L43.6021 507.952 Q44.9389 501.714 47.3897 499.104 Q49.8086 496.462 54.1691 496.462 Q59.1344 496.462 62.0308 500.409 Q64.9272 504.324 64.9272 511.199 Q64.9272 514.063 64.3543 517.182 Q63.8132 520.27 62.6992 523.707 L56.6518 523.707 Q58.3387 520.461 59.198 517.31 Q60.0256 514.159 60.0256 511.071 Q60.0256 506.934 58.6251 504.706 Q57.1929 502.478 54.6147 502.478 Q52.2276 502.478 50.9545 504.101 Q49.6813 505.692 48.5037 511.135 L48.0262 513.172 Q46.8804 518.615 44.5251 521.034 Q42.138 523.453 38.0002 523.453 Q32.9713 523.453 30.2341 519.888 Q27.4968 516.323 27.4968 509.766 Q27.4968 506.52 27.9743 503.655 Q28.4517 500.791 29.4065 498.372 Z" fill="#000000" fill-rule="evenodd" fill-opacity="1" /><path clip-path="url(#clip750)" d="M780.961 18.8205 L780.961 41.5461 L791.25 41.5461 Q796.962 41.5461 800.081 38.5889 Q803.2 35.6318 803.2 30.163 Q803.2 24.7348 800.081 21.7777 Q796.962 18.8205 791.25 18.8205 L780.961 18.8205 M772.778 12.096 L791.25 12.096 Q801.418 12.096 806.603 16.714 Q811.829 21.2916 811.829 30.163 Q811.829 39.1155 806.603 43.6931 Q801.418 48.2706 791.25 48.2706 L780.961 48.2706 L780.961 72.576 L772.778 72.576 L772.778 12.096 Z" fill="#000000" fill-rule="evenodd" fill-opacity="1" /><path clip-path="url(#clip750)" d="M820.255 54.671 L820.255 27.2059 L827.708 27.2059 L827.708 54.3874 Q827.708 60.8284 830.22 64.0691 Q832.731 67.2693 837.754 67.2693 Q843.79 67.2693 847.274 63.421 Q850.798 59.5726 850.798 52.9291 L850.798 27.2059 L858.252 27.2059 L858.252 72.576 L850.798 72.576 L850.798 65.6084 Q848.084 69.7404 844.479 71.7658 Q840.914 73.7508 836.175 73.7508 Q828.356 73.7508 824.305 68.8897 Q820.255 64.0286 820.255 54.671 M839.01 26.1121 L839.01 26.1121 Z" fill="#000000" fill-rule="evenodd" fill-opacity="1" /><path clip-path="url(#clip750)" d="M906.174 49.9314 Q906.174 41.7081 902.771 37.0496 Q899.409 32.3505 893.495 32.3505 Q887.581 32.3505 884.178 37.0496 Q880.816 41.7081 880.816 49.9314 Q880.816 58.1548 884.178 62.8538 Q887.581 67.5124 893.495 67.5124 Q899.409 67.5124 902.771 62.8538 Q906.174 58.1548 906.174 49.9314 M880.816 34.0924 Q883.165 30.0415 886.73 28.0971 Q890.335 26.1121 895.318 26.1121 Q903.582 26.1121 908.726 32.6746 Q913.911 39.2371 913.911 49.9314 Q913.911 60.6258 908.726 67.1883 Q903.582 73.7508 895.318 73.7508 Q890.335 73.7508 886.73 71.8063 Q883.165 69.8214 880.816 65.7705 L880.816 72.576 L873.321 72.576 L873.321 9.54393 L880.816 9.54393 L880.816 34.0924 Z" fill="#000000" fill-rule="evenodd" fill-opacity="1" /><path clip-path="url(#clip750)" d="M926.267 9.54393 L933.72 9.54393 L933.72 72.576 L926.267 72.576 L926.267 9.54393 Z" fill="#000000" fill-rule="evenodd" fill-opacity="1" /><path clip-path="url(#clip750)" d="M949.316 27.2059 L956.77 27.2059 L956.77 72.576 L949.316 72.576 L949.316 27.2059 M949.316 9.54393 L956.77 9.54393 L956.77 18.9825 L949.316 18.9825 L949.316 9.54393 Z" fill="#000000" fill-rule="evenodd" fill-opacity="1" /><path clip-path="url(#clip750)" d="M1005.02 28.9478 L1005.02 35.9153 Q1001.86 34.1734 998.656 33.3227 Q995.497 32.4315 992.256 32.4315 Q985.005 32.4315 980.994 37.0496 Q976.984 41.6271 976.984 49.9314 Q976.984 58.2358 980.994 62.8538 Q985.005 67.4314 992.256 67.4314 Q995.497 67.4314 998.656 66.5807 Q1001.86 65.6895 1005.02 63.9476 L1005.02 70.8341 Q1001.9 72.2924 998.535 73.0216 Q995.213 73.7508 991.446 73.7508 Q981.197 73.7508 975.161 67.3098 Q969.125 60.8689 969.125 49.9314 Q969.125 38.832 975.202 32.472 Q981.319 26.1121 991.932 26.1121 Q995.375 26.1121 998.656 26.8413 Q1001.94 27.5299 1005.02 28.9478 Z" fill="#000000" fill-rule="evenodd" fill-opacity="1" /><path clip-path="url(#clip750)" d="M1044.67 12.096 L1052.86 12.096 L1052.86 37.6572 L1080 12.096 L1090.53 12.096 L1060.51 40.2903 L1092.68 72.576 L1081.9 72.576 L1052.86 43.45 L1052.86 72.576 L1044.67 72.576 L1044.67 12.096 Z" fill="#000000" fill-rule="evenodd" fill-opacity="1" /><path clip-path="url(#clip750)" d="M1098.75 27.2059 L1106.21 27.2059 L1106.21 72.576 L1098.75 72.576 L1098.75 27.2059 M1098.75 9.54393 L1106.21 9.54393 L1106.21 18.9825 L1098.75 18.9825 L1098.75 9.54393 Z" fill="#000000" fill-rule="evenodd" fill-opacity="1" /><path clip-path="url(#clip750)" d="M1121.8 9.54393 L1129.26 9.54393 L1129.26 72.576 L1121.8 72.576 L1121.8 9.54393 Z" fill="#000000" fill-rule="evenodd" fill-opacity="1" /><path clip-path="url(#clip750)" d="M1144.85 9.54393 L1152.31 9.54393 L1152.31 72.576 L1144.85 72.576 L1144.85 9.54393 Z" fill="#000000" fill-rule="evenodd" fill-opacity="1" /><path clip-path="url(#clip750)" d="M1167.9 27.2059 L1175.36 27.2059 L1175.36 72.576 L1167.9 72.576 L1167.9 27.2059 M1167.9 9.54393 L1175.36 9.54393 L1175.36 18.9825 L1167.9 18.9825 L1167.9 9.54393 Z" fill="#000000" fill-rule="evenodd" fill-opacity="1" /><path clip-path="url(#clip750)" d="M1228.67 45.1919 L1228.67 72.576 L1221.21 72.576 L1221.21 45.4349 Q1221.21 38.994 1218.7 35.7938 Q1216.19 32.5936 1211.17 32.5936 Q1205.13 32.5936 1201.65 36.4419 Q1198.16 40.2903 1198.16 46.9338 L1198.16 72.576 L1190.67 72.576 L1190.67 27.2059 L1198.16 27.2059 L1198.16 34.2544 Q1200.84 30.163 1204.44 28.1376 Q1208.09 26.1121 1212.83 26.1121 Q1220.65 26.1121 1224.66 30.9732 Q1228.67 35.7938 1228.67 45.1919 Z" fill="#000000" fill-rule="evenodd" fill-opacity="1" /><path clip-path="url(#clip750)" d="M1273.39 49.3643 Q1273.39 41.2625 1270.03 36.8065 Q1266.7 32.3505 1260.67 32.3505 Q1254.67 32.3505 1251.31 36.8065 Q1247.99 41.2625 1247.99 49.3643 Q1247.99 57.4256 1251.31 61.8816 Q1254.67 66.3376 1260.67 66.3376 Q1266.7 66.3376 1270.03 61.8816 Q1273.39 57.4256 1273.39 49.3643 M1280.84 66.9452 Q1280.84 78.5308 1275.7 84.1616 Q1270.55 89.8329 1259.94 89.8329 Q1256.01 89.8329 1252.53 89.2252 Q1249.04 88.6581 1245.76 87.4428 L1245.76 80.1917 Q1249.04 81.9741 1252.24 82.8248 Q1255.44 83.6755 1258.76 83.6755 Q1266.1 83.6755 1269.74 79.8271 Q1273.39 76.0193 1273.39 68.282 L1273.39 64.5957 Q1271.08 68.6061 1267.47 70.5911 Q1263.87 72.576 1258.85 72.576 Q1250.5 72.576 1245.4 66.2161 Q1240.29 59.8562 1240.29 49.3643 Q1240.29 38.832 1245.4 32.472 Q1250.5 26.1121 1258.85 26.1121 Q1263.87 26.1121 1267.47 28.0971 Q1271.08 30.082 1273.39 34.0924 L1273.39 27.2059 L1280.84 27.2059 L1280.84 66.9452 Z" fill="#000000" fill-rule="evenodd" fill-opacity="1" /><path clip-path="url(#clip750)" d="M1325.12 28.5427 L1325.12 35.5912 Q1321.96 33.9709 1318.56 33.1607 Q1315.15 32.3505 1311.51 32.3505 Q1305.96 32.3505 1303.16 34.0519 Q1300.41 35.7533 1300.41 39.156 Q1300.41 41.7486 1302.39 43.2475 Q1304.38 44.7058 1310.37 46.0426 L1312.93 46.6097 Q1320.87 48.3111 1324.19 51.4303 Q1327.55 54.509 1327.55 60.0587 Q1327.55 66.3781 1322.53 70.0644 Q1317.54 73.7508 1308.79 73.7508 Q1305.15 73.7508 1301.18 73.0216 Q1297.25 72.3329 1292.87 70.9151 L1292.87 63.2184 Q1297.01 65.3654 1301.02 66.4591 Q1305.03 67.5124 1308.96 67.5124 Q1314.22 67.5124 1317.06 65.73 Q1319.89 63.9071 1319.89 60.6258 Q1319.89 57.5877 1317.83 55.9673 Q1315.8 54.3469 1308.87 52.8481 L1306.28 52.2405 Q1299.35 50.7821 1296.28 47.7845 Q1293.2 44.7463 1293.2 39.4801 Q1293.2 33.0797 1297.73 29.5959 Q1302.27 26.1121 1310.62 26.1121 Q1314.75 26.1121 1318.39 26.7198 Q1322.04 27.3274 1325.12 28.5427 Z" fill="#000000" fill-rule="evenodd" fill-opacity="1" /><path clip-path="url(#clip750)" d="M1398.36 49.9314 Q1398.36 41.7081 1394.96 37.0496 Q1391.59 32.3505 1385.68 32.3505 Q1379.77 32.3505 1376.36 37.0496 Q1373 41.7081 1373 49.9314 Q1373 58.1548 1376.36 62.8538 Q1379.77 67.5124 1385.68 67.5124 Q1391.59 67.5124 1394.96 62.8538 Q1398.36 58.1548 1398.36 49.9314 M1373 34.0924 Q1375.35 30.0415 1378.91 28.0971 Q1382.52 26.1121 1387.5 26.1121 Q1395.77 26.1121 1400.91 32.6746 Q1406.1 39.2371 1406.1 49.9314 Q1406.1 60.6258 1400.91 67.1883 Q1395.77 73.7508 1387.5 73.7508 Q1382.52 73.7508 1378.91 71.8063 Q1375.35 69.8214 1373 65.7705 L1373 72.576 L1365.51 72.576 L1365.51 9.54393 L1373 9.54393 L1373 34.0924 Z" fill="#000000" fill-rule="evenodd" fill-opacity="1" /><path clip-path="url(#clip750)" d="M1437.33 76.7889 Q1434.17 84.8907 1431.17 87.3618 Q1428.17 89.8329 1423.15 89.8329 L1417.2 89.8329 L1417.2 83.5945 L1421.57 83.5945 Q1424.65 83.5945 1426.35 82.1361 Q1428.05 80.6778 1430.12 75.2496 L1431.45 71.8468 L1413.1 27.2059 L1421 27.2059 L1435.18 62.6918 L1449.36 27.2059 L1457.26 27.2059 L1437.33 76.7889 Z" fill="#000000" fill-rule="evenodd" fill-opacity="1" /><path clip-path="url(#clip750)" d="M1488.86 12.096 L1497.12 12.096 L1509.84 63.2184 L1522.52 12.096 L1531.71 12.096 L1544.43 63.2184 L1557.11 12.096 L1565.42 12.096 L1550.23 72.576 L1539.94 72.576 L1527.18 20.0763 L1514.3 72.576 L1504.01 72.576 L1488.86 12.096 Z" fill="#000000" fill-rule="evenodd" fill-opacity="1" /><path clip-path="url(#clip750)" d="M1609.9 48.0275 L1609.9 51.6733 L1575.63 51.6733 Q1576.11 59.3701 1580.24 63.421 Q1584.42 67.4314 1591.83 67.4314 Q1596.12 67.4314 1600.13 66.3781 Q1604.19 65.3249 1608.16 63.2184 L1608.16 70.267 Q1604.15 71.9684 1599.93 72.8596 Q1595.72 73.7508 1591.38 73.7508 Q1580.53 73.7508 1574.17 67.4314 Q1567.85 61.1119 1567.85 50.3365 Q1567.85 39.1965 1573.84 32.6746 Q1579.88 26.1121 1590.09 26.1121 Q1599.24 26.1121 1604.55 32.0264 Q1609.9 37.9003 1609.9 48.0275 M1602.44 45.84 Q1602.36 39.7232 1599 36.0774 Q1595.68 32.4315 1590.17 32.4315 Q1583.93 32.4315 1580.16 35.9558 Q1576.44 39.4801 1575.87 45.8805 L1602.44 45.84 Z" fill="#000000" fill-rule="evenodd" fill-opacity="1" /><path clip-path="url(#clip750)" d="M1642.75 49.7694 Q1633.72 49.7694 1630.23 51.8354 Q1626.75 53.9013 1626.75 58.8839 Q1626.75 62.8538 1629.34 65.2034 Q1631.97 67.5124 1636.47 67.5124 Q1642.67 67.5124 1646.4 63.1374 Q1650.16 58.7219 1650.16 51.4303 L1650.16 49.7694 L1642.75 49.7694 M1657.62 46.6907 L1657.62 72.576 L1650.16 72.576 L1650.16 65.6895 Q1647.61 69.8214 1643.8 71.8063 Q1640 73.7508 1634.49 73.7508 Q1627.52 73.7508 1623.39 69.8619 Q1619.3 65.9325 1619.3 59.3701 Q1619.3 51.7138 1624.4 47.825 Q1629.54 43.9361 1639.71 43.9361 L1650.16 43.9361 L1650.16 43.2069 Q1650.16 38.0623 1646.76 35.2672 Q1643.4 32.4315 1637.28 32.4315 Q1633.39 32.4315 1629.71 33.3632 Q1626.02 34.295 1622.62 36.1584 L1622.62 29.2718 Q1626.71 27.692 1630.56 26.9223 Q1634.41 26.1121 1638.05 26.1121 Q1647.89 26.1121 1652.76 31.2163 Q1657.62 36.3204 1657.62 46.6907 Z" fill="#000000" fill-rule="evenodd" fill-opacity="1" /><path clip-path="url(#clip750)" d="M1680.18 65.7705 L1680.18 89.8329 L1672.69 89.8329 L1672.69 27.2059 L1680.18 27.2059 L1680.18 34.0924 Q1682.53 30.0415 1686.09 28.0971 Q1689.7 26.1121 1694.68 26.1121 Q1702.95 26.1121 1708.09 32.6746 Q1713.28 39.2371 1713.28 49.9314 Q1713.28 60.6258 1708.09 67.1883 Q1702.95 73.7508 1694.68 73.7508 Q1689.7 73.7508 1686.09 71.8063 Q1682.53 69.8214 1680.18 65.7705 M1705.54 49.9314 Q1705.54 41.7081 1702.14 37.0496 Q1698.77 32.3505 1692.86 32.3505 Q1686.95 32.3505 1683.54 37.0496 Q1680.18 41.7081 1680.18 49.9314 Q1680.18 58.1548 1683.54 62.8538 Q1686.95 67.5124 1692.86 67.5124 Q1698.77 67.5124 1702.14 62.8538 Q1705.54 58.1548 1705.54 49.9314 Z" fill="#000000" fill-rule="evenodd" fill-opacity="1" /><path clip-path="url(#clip750)" d="M1743.21 32.4315 Q1737.22 32.4315 1733.73 37.1306 Q1730.25 41.7891 1730.25 49.9314 Q1730.25 58.0738 1733.69 62.7728 Q1737.18 67.4314 1743.21 67.4314 Q1749.17 67.4314 1752.65 62.7323 Q1756.13 58.0333 1756.13 49.9314 Q1756.13 41.8701 1752.65 37.1711 Q1749.17 32.4315 1743.21 32.4315 M1743.21 26.1121 Q1752.93 26.1121 1758.48 32.4315 Q1764.03 38.7509 1764.03 49.9314 Q1764.03 61.0714 1758.48 67.4314 Q1752.93 73.7508 1743.21 73.7508 Q1733.45 73.7508 1727.9 67.4314 Q1722.39 61.0714 1722.39 49.9314 Q1722.39 38.7509 1727.9 32.4315 Q1733.45 26.1121 1743.21 26.1121 Z" fill="#000000" fill-rule="evenodd" fill-opacity="1" /><path clip-path="url(#clip750)" d="M1814.1 45.1919 L1814.1 72.576 L1806.65 72.576 L1806.65 45.4349 Q1806.65 38.994 1804.14 35.7938 Q1801.63 32.5936 1796.6 32.5936 Q1790.57 32.5936 1787.08 36.4419 Q1783.6 40.2903 1783.6 46.9338 L1783.6 72.576 L1776.11 72.576 L1776.11 27.2059 L1783.6 27.2059 L1783.6 34.2544 Q1786.27 30.163 1789.88 28.1376 Q1793.52 26.1121 1798.26 26.1121 Q1806.08 26.1121 1810.09 30.9732 Q1814.1 35.7938 1814.1 45.1919 Z" fill="#000000" fill-rule="evenodd" fill-opacity="1" /><polyline clip-path="url(#clip752)" style="stroke:#009af9; stroke-linecap:butt; stroke-linejoin:round; stroke-width:4; stroke-opacity:1; fill:none" points="
  294.087,1447.87 303.512,1447.87 312.937,1447.87 321.45,1447.87 330.875,1443.63 405.058,1443.63 414.483,1430.9 432.421,1430.9 469.513,1422.41 497.484,1422.41 
  534.88,1405.44 552.818,1405.44 561.939,1405.44 580.485,1405.44 589.91,1405.44 608.456,1405.44 617.881,1405.44 645.852,1405.44 691.761,1405.44 729.157,1396.95 
  747.703,1396.95 757.128,1396.95 765.641,1367.24 812.158,1354.51 830.704,1354.51 840.129,1354.51 858.675,1354.51 876.612,1354.51 904.583,1354.51 913.704,1354.51 
  923.129,1354.51 932.554,1354.51 941.675,1354.51 979.071,1354.51 987.584,1354.51 997.009,1354.51 1006.13,1354.51 1034.1,1354.51 1052.65,1341.78 1071.19,1341.78 
  1090.04,1316.32 1098.86,1312.08 1117.41,1303.59 1126.83,1303.59 1135.95,1303.59 1154.8,1303.59 1191.89,1295.1 1209.83,1295.1 1219.26,1239.93 1228.38,1239.93 
  1237.8,1239.93 1246.92,1239.93 1256.35,1227.2 1265.77,1218.72 1284.32,1142.33 1293.44,1142.33 1302.87,1142.33 1312.29,1142.33 1320.8,1142.33 1330.23,1142.33 
  1339.35,1142.33 1348.77,1142.33 1357.9,1142.33 1367.32,1142.33 1376.75,1138.09 1385.87,1129.6 1404.41,1129.6 1413.84,1104.14 1441.2,1095.65 1478.29,1095.65 
  1487.72,1095.65 1496.84,1095.65 1515.38,1095.65 1524.81,1095.65 1534.23,1095.65 1543.05,1082.92 1552.48,1040.48 1561.6,1019.26 1580.14,1019.26 1589.57,993.802 
  1598.99,993.802 1608.11,993.802 1617.54,993.802 1626.66,981.072 1636.09,981.072 1654.02,981.072 1663.45,981.072 1672.57,981.072 1681.99,934.391 1700.54,934.391 
  1709.96,934.391 1719.09,934.391 1728.51,934.391 1737.63,934.391 1747.06,925.904 1756.48,908.929 1774.42,896.198 1783.54,870.737 1792.97,870.737 1811.51,870.737 
  1820.94,870.737 1830.06,870.737 1839.48,866.493 1858.03,853.762 1867.45,853.762 1875.97,849.518 1885.39,849.518 1894.51,832.544 1903.94,832.544 1913.06,824.056 
  1941.03,824.056 1950.45,824.056 1959.58,824.056 1978.43,798.595 1987.24,794.351 1996.67,794.351 2005.79,794.351 2015.21,794.351 2024.33,794.351 2033.76,794.351 
  2043.18,790.107 2052.31,790.107 2061.73,790.107 2080.28,768.889 2098.21,764.645 2107.64,747.671 2116.76,747.671 2126.18,747.671 2144.73,739.183 2154.16,734.94 
  2163.28,734.94 2172.7,717.965 2181.82,709.478 2191.25,709.478 2200.67,709.478 2209.19,709.478 2218.61,709.478 2227.73,709.478 2237.16,709.478 2255.7,700.991 
  2265.13,667.041 2274.25,658.554 2283.67,599.143 2292.79,599.143 
  "/>
<polyline clip-path="url(#clip752)" style="stroke:#e26f46; stroke-linecap:butt; stroke-linejoin:round; stroke-width:4; stroke-opacity:1; fill:none" points="
  294.087,1447.87 303.512,1447.87 312.937,1447.87 321.45,1447.87 330.875,1447.87 405.058,1447.87 414.483,1447.87 432.421,1447.87 469.513,1447.87 497.484,1447.87 
  534.88,1447.87 552.818,1447.87 561.939,1443.63 580.485,1443.63 589.91,1443.63 608.456,1443.63 617.881,1443.63 645.852,1443.63 691.761,1443.63 729.157,1443.63 
  747.703,1443.63 757.128,1443.63 765.641,1443.63 812.158,1443.63 830.704,1443.63 840.129,1439.39 858.675,1439.39 876.612,1413.92 904.583,1413.92 913.704,1413.92 
  923.129,1413.92 932.554,1413.92 941.675,1392.71 979.071,1392.71 987.584,1392.71 997.009,1384.22 1006.13,1371.49 1034.1,1371.49 1052.65,1371.49 1071.19,1337.54 
  1090.04,1337.54 1098.86,1337.54 1117.41,1337.54 1126.83,1337.54 1135.95,1337.54 1154.8,1312.08 1191.89,1312.08 1209.83,1269.64 1219.26,1269.64 1228.38,1269.64 
  1237.8,1261.15 1246.92,1261.15 1256.35,1261.15 1265.77,1261.15 1284.32,1261.15 1293.44,1261.15 1302.87,1261.15 1312.29,1261.15 1320.8,1261.15 1330.23,1261.15 
  1339.35,1261.15 1348.77,1261.15 1357.9,1261.15 1367.32,1261.15 1376.75,1261.15 1385.87,1261.15 1404.41,1261.15 1413.84,1261.15 1441.2,1261.15 1478.29,1261.15 
  1487.72,1244.18 1496.84,1244.18 1515.38,1244.18 1524.81,1244.18 1534.23,1244.18 1543.05,1244.18 1552.48,1244.18 1561.6,1244.18 1580.14,1193.25 1589.57,1193.25 
  1598.99,1193.25 1608.11,1193.25 1617.54,1193.25 1626.66,1070.19 1636.09,1070.19 1654.02,1070.19 1663.45,1070.19 1672.57,1061.7 1681.99,1061.7 1700.54,1048.97 
  1709.96,1048.97 1719.09,1048.97 1728.51,1044.73 1737.63,1044.73 1747.06,1044.73 1756.48,1044.73 1774.42,1044.73 1783.54,1044.73 1792.97,1044.73 1811.51,1044.73 
  1820.94,1044.73 1830.06,1044.73 1839.48,1044.73 1858.03,1044.73 1867.45,1044.73 1875.97,1044.73 1885.39,1044.73 1894.51,1044.73 1903.94,1006.53 1913.06,981.072 
  1941.03,968.341 1950.45,955.61 1959.58,896.198 1978.43,883.468 1987.24,883.468 1996.67,883.468 2005.79,879.224 2015.21,671.285 2024.33,633.092 2033.76,633.092 
  2043.18,611.874 2052.31,611.874 2061.73,611.874 2080.28,611.874 2098.21,611.874 2107.64,611.874 2116.76,611.874 2126.18,611.874 2144.73,611.874 2154.16,611.874 
  2163.28,365.742 2172.7,234.189 2181.82,234.189 2191.25,234.189 2200.67,234.189 2209.19,225.702 2218.61,208.727 2227.73,208.727 2237.16,208.727 2255.7,208.727 
  2265.13,208.727 2274.25,162.047 2283.67,162.047 2292.79,162.047 
  "/>
<path clip-path="url(#clip750)" d="
M304.746 324.425 L1210.91 324.425 L1210.91 168.905 L304.746 168.905  Z
  " fill="#ffffff" fill-rule="evenodd" fill-opacity="1"/>
<polyline clip-path="url(#clip750)" style="stroke:#000000; stroke-linecap:butt; stroke-linejoin:round; stroke-width:4; stroke-opacity:1; fill:none" points="
  304.746,324.425 1210.91,324.425 1210.91,168.905 304.746,168.905 304.746,324.425 
  "/>
<polyline clip-path="url(#clip750)" style="stroke:#009af9; stroke-linecap:butt; stroke-linejoin:round; stroke-width:4; stroke-opacity:1; fill:none" points="
  328.287,220.745 469.529,220.745 
  "/>
<path clip-path="url(#clip750)" d="M493.069 203.465 L497.745 203.465 L497.745 217.631 L514.736 217.631 L514.736 203.465 L519.412 203.465 L519.412 238.025 L514.736 238.025 L514.736 221.566 L497.745 221.566 L497.745 238.025 L493.069 238.025 L493.069 203.465 Z" fill="#000000" fill-rule="evenodd" fill-opacity="1" /><path clip-path="url(#clip750)" d="M540.314 224.992 Q535.152 224.992 533.162 226.173 Q531.171 227.353 531.171 230.201 Q531.171 232.469 532.652 233.812 Q534.157 235.131 536.726 235.131 Q540.268 235.131 542.398 232.631 Q544.55 230.108 544.55 225.941 L544.55 224.992 L540.314 224.992 M548.81 223.233 L548.81 238.025 L544.55 238.025 L544.55 234.089 Q543.092 236.451 540.916 237.585 Q538.74 238.696 535.592 238.696 Q531.611 238.696 529.25 236.474 Q526.912 234.228 526.912 230.478 Q526.912 226.103 529.828 223.881 Q532.768 221.659 538.578 221.659 L544.55 221.659 L544.55 221.242 Q544.55 218.303 542.606 216.705 Q540.685 215.085 537.189 215.085 Q534.967 215.085 532.861 215.617 Q530.754 216.15 528.81 217.215 L528.81 213.279 Q531.148 212.377 533.347 211.937 Q535.546 211.474 537.629 211.474 Q543.254 211.474 546.032 214.391 Q548.81 217.307 548.81 223.233 Z" fill="#000000" fill-rule="evenodd" fill-opacity="1" /><path clip-path="url(#clip750)" d="M579.134 222.377 L579.134 238.025 L574.874 238.025 L574.874 222.515 Q574.874 218.835 573.439 217.006 Q572.004 215.178 569.134 215.178 Q565.685 215.178 563.694 217.377 Q561.703 219.576 561.703 223.372 L561.703 238.025 L557.421 238.025 L557.421 212.099 L561.703 212.099 L561.703 216.127 Q563.231 213.789 565.291 212.631 Q567.374 211.474 570.083 211.474 Q574.55 211.474 576.842 214.252 Q579.134 217.006 579.134 222.377 Z" fill="#000000" fill-rule="evenodd" fill-opacity="1" /><path clip-path="url(#clip750)" d="M604.689 216.034 L604.689 202.006 L608.948 202.006 L608.948 238.025 L604.689 238.025 L604.689 234.136 Q603.346 236.451 601.286 237.585 Q599.249 238.696 596.379 238.696 Q591.68 238.696 588.717 234.946 Q585.777 231.196 585.777 225.085 Q585.777 218.974 588.717 215.224 Q591.68 211.474 596.379 211.474 Q599.249 211.474 601.286 212.608 Q603.346 213.719 604.689 216.034 M590.175 225.085 Q590.175 229.784 592.096 232.469 Q594.041 235.131 597.42 235.131 Q600.8 235.131 602.745 232.469 Q604.689 229.784 604.689 225.085 Q604.689 220.386 602.745 217.724 Q600.8 215.039 597.42 215.039 Q594.041 215.039 592.096 217.724 Q590.175 220.386 590.175 225.085 Z" fill="#000000" fill-rule="evenodd" fill-opacity="1" /><path clip-path="url(#clip750)" d="M634.781 224.761 Q634.781 220.131 632.86 217.585 Q630.962 215.039 627.513 215.039 Q624.087 215.039 622.166 217.585 Q620.268 220.131 620.268 224.761 Q620.268 229.367 622.166 231.914 Q624.087 234.46 627.513 234.46 Q630.962 234.46 632.86 231.914 Q634.781 229.367 634.781 224.761 M639.041 234.807 Q639.041 241.427 636.101 244.645 Q633.161 247.886 627.096 247.886 Q624.851 247.886 622.86 247.538 Q620.869 247.214 618.994 246.52 L618.994 242.376 Q620.869 243.395 622.698 243.881 Q624.527 244.367 626.425 244.367 Q630.615 244.367 632.698 242.168 Q634.781 239.992 634.781 235.571 L634.781 233.464 Q633.462 235.756 631.402 236.89 Q629.342 238.025 626.471 238.025 Q621.703 238.025 618.786 234.39 Q615.869 230.756 615.869 224.761 Q615.869 218.742 618.786 215.108 Q621.703 211.474 626.471 211.474 Q629.342 211.474 631.402 212.608 Q633.462 213.742 634.781 216.034 L634.781 212.099 L639.041 212.099 L639.041 234.807 Z" fill="#000000" fill-rule="evenodd" fill-opacity="1" /><path clip-path="url(#clip750)" d="M647.374 227.793 L647.374 212.099 L651.633 212.099 L651.633 227.631 Q651.633 231.312 653.068 233.164 Q654.503 234.992 657.374 234.992 Q660.823 234.992 662.814 232.793 Q664.828 230.594 664.828 226.798 L664.828 212.099 L669.087 212.099 L669.087 238.025 L664.828 238.025 L664.828 234.043 Q663.277 236.404 661.216 237.562 Q659.179 238.696 656.471 238.696 Q652.004 238.696 649.689 235.918 Q647.374 233.14 647.374 227.793 M658.091 211.474 L658.091 211.474 Z" fill="#000000" fill-rule="evenodd" fill-opacity="1" /><path clip-path="url(#clip750)" d="M699.411 222.377 L699.411 238.025 L695.151 238.025 L695.151 222.515 Q695.151 218.835 693.716 217.006 Q692.281 215.178 689.411 215.178 Q685.962 215.178 683.971 217.377 Q681.98 219.576 681.98 223.372 L681.98 238.025 L677.698 238.025 L677.698 212.099 L681.98 212.099 L681.98 216.127 Q683.508 213.789 685.568 212.631 Q687.651 211.474 690.36 211.474 Q694.827 211.474 697.119 214.252 Q699.411 217.006 699.411 222.377 Z" fill="#000000" fill-rule="evenodd" fill-opacity="1" /><path clip-path="url(#clip750)" d="M737.188 206.636 Q732.096 206.636 729.086 210.432 Q726.1 214.228 726.1 220.779 Q726.1 227.307 729.086 231.103 Q732.096 234.9 737.188 234.9 Q742.281 234.9 745.244 231.103 Q748.23 227.307 748.23 220.779 Q748.23 214.228 745.244 210.432 Q742.281 206.636 737.188 206.636 M737.188 202.84 Q744.457 202.84 748.809 207.724 Q753.16 212.585 753.16 220.779 Q753.16 228.951 748.809 233.835 Q744.457 238.696 737.188 238.696 Q729.897 238.696 725.522 233.835 Q721.17 228.974 721.17 220.779 Q721.17 212.585 725.522 207.724 Q729.897 202.84 737.188 202.84 Z" fill="#000000" fill-rule="evenodd" fill-opacity="1" /><path clip-path="url(#clip750)" d="M781.841 222.377 L781.841 238.025 L777.582 238.025 L777.582 222.515 Q777.582 218.835 776.146 217.006 Q774.711 215.178 771.841 215.178 Q768.392 215.178 766.401 217.377 Q764.41 219.576 764.41 223.372 L764.41 238.025 L760.128 238.025 L760.128 212.099 L764.41 212.099 L764.41 216.127 Q765.938 213.789 767.998 212.631 Q770.082 211.474 772.79 211.474 Q777.257 211.474 779.549 214.252 Q781.841 217.006 781.841 222.377 Z" fill="#000000" fill-rule="evenodd" fill-opacity="1" /><path clip-path="url(#clip750)" d="M790.336 202.006 L794.595 202.006 L794.595 238.025 L790.336 238.025 L790.336 202.006 Z" fill="#000000" fill-rule="evenodd" fill-opacity="1" /><path clip-path="url(#clip750)" d="M814.294 240.432 Q812.489 245.062 810.776 246.474 Q809.063 247.886 806.192 247.886 L802.79 247.886 L802.79 244.321 L805.29 244.321 Q807.049 244.321 808.021 243.488 Q808.993 242.654 810.174 239.552 L810.938 237.608 L800.452 212.099 L804.966 212.099 L813.067 232.377 L821.169 212.099 L825.683 212.099 L814.294 240.432 Z" fill="#000000" fill-rule="evenodd" fill-opacity="1" /><path clip-path="url(#clip750)" d="M851.493 207.307 L851.493 220.293 L857.373 220.293 Q860.637 220.293 862.419 218.603 Q864.201 216.914 864.201 213.789 Q864.201 210.687 862.419 208.997 Q860.637 207.307 857.373 207.307 L851.493 207.307 M846.817 203.465 L857.373 203.465 Q863.183 203.465 866.146 206.104 Q869.132 208.719 869.132 213.789 Q869.132 218.904 866.146 221.52 Q863.183 224.136 857.373 224.136 L851.493 224.136 L851.493 238.025 L846.817 238.025 L846.817 203.465 Z" fill="#000000" fill-rule="evenodd" fill-opacity="1" /><path clip-path="url(#clip750)" d="M873.947 227.793 L873.947 212.099 L878.206 212.099 L878.206 227.631 Q878.206 231.312 879.641 233.164 Q881.076 234.992 883.947 234.992 Q887.396 234.992 889.386 232.793 Q891.4 230.594 891.4 226.798 L891.4 212.099 L895.66 212.099 L895.66 238.025 L891.4 238.025 L891.4 234.043 Q889.849 236.404 887.789 237.562 Q885.752 238.696 883.044 238.696 Q878.576 238.696 876.262 235.918 Q873.947 233.14 873.947 227.793 M884.664 211.474 L884.664 211.474 Z" fill="#000000" fill-rule="evenodd" fill-opacity="1" /><path clip-path="url(#clip750)" d="M923.044 225.085 Q923.044 220.386 921.099 217.724 Q919.178 215.039 915.798 215.039 Q912.419 215.039 910.474 217.724 Q908.553 220.386 908.553 225.085 Q908.553 229.784 910.474 232.469 Q912.419 235.131 915.798 235.131 Q919.178 235.131 921.099 232.469 Q923.044 229.784 923.044 225.085 M908.553 216.034 Q909.896 213.719 911.933 212.608 Q913.993 211.474 916.84 211.474 Q921.562 211.474 924.502 215.224 Q927.465 218.974 927.465 225.085 Q927.465 231.196 924.502 234.946 Q921.562 238.696 916.84 238.696 Q913.993 238.696 911.933 237.585 Q909.896 236.451 908.553 234.136 L908.553 238.025 L904.271 238.025 L904.271 202.006 L908.553 202.006 L908.553 216.034 Z" fill="#000000" fill-rule="evenodd" fill-opacity="1" /><path clip-path="url(#clip750)" d="M934.525 202.006 L938.784 202.006 L938.784 238.025 L934.525 238.025 L934.525 202.006 Z" fill="#000000" fill-rule="evenodd" fill-opacity="1" /><path clip-path="url(#clip750)" d="M947.696 212.099 L951.956 212.099 L951.956 238.025 L947.696 238.025 L947.696 212.099 M947.696 202.006 L951.956 202.006 L951.956 207.4 L947.696 207.4 L947.696 202.006 Z" fill="#000000" fill-rule="evenodd" fill-opacity="1" /><path clip-path="url(#clip750)" d="M979.525 213.094 L979.525 217.076 Q977.719 216.08 975.891 215.594 Q974.085 215.085 972.233 215.085 Q968.09 215.085 965.798 217.724 Q963.506 220.34 963.506 225.085 Q963.506 229.83 965.798 232.469 Q968.09 235.085 972.233 235.085 Q974.085 235.085 975.891 234.599 Q977.719 234.089 979.525 233.094 L979.525 237.029 Q977.743 237.863 975.821 238.279 Q973.923 238.696 971.77 238.696 Q965.914 238.696 962.465 235.015 Q959.016 231.335 959.016 225.085 Q959.016 218.742 962.488 215.108 Q965.983 211.474 972.048 211.474 Q974.016 211.474 975.891 211.891 Q977.766 212.284 979.525 213.094 Z" fill="#000000" fill-rule="evenodd" fill-opacity="1" /><path clip-path="url(#clip750)" d="M1002.19 203.465 L1006.86 203.465 L1006.86 218.071 L1022.37 203.465 L1028.39 203.465 L1011.24 219.576 L1029.62 238.025 L1023.46 238.025 L1006.86 221.381 L1006.86 238.025 L1002.19 238.025 L1002.19 203.465 Z" fill="#000000" fill-rule="evenodd" fill-opacity="1" /><path clip-path="url(#clip750)" d="M1033.09 212.099 L1037.35 212.099 L1037.35 238.025 L1033.09 238.025 L1033.09 212.099 M1033.09 202.006 L1037.35 202.006 L1037.35 207.4 L1033.09 207.4 L1033.09 202.006 Z" fill="#000000" fill-rule="evenodd" fill-opacity="1" /><path clip-path="url(#clip750)" d="M1046.26 202.006 L1050.52 202.006 L1050.52 238.025 L1046.26 238.025 L1046.26 202.006 Z" fill="#000000" fill-rule="evenodd" fill-opacity="1" /><path clip-path="url(#clip750)" d="M1059.43 202.006 L1063.69 202.006 L1063.69 238.025 L1059.43 238.025 L1059.43 202.006 Z" fill="#000000" fill-rule="evenodd" fill-opacity="1" /><path clip-path="url(#clip750)" d="M1072.6 212.099 L1076.86 212.099 L1076.86 238.025 L1072.6 238.025 L1072.6 212.099 M1072.6 202.006 L1076.86 202.006 L1076.86 207.4 L1072.6 207.4 L1072.6 202.006 Z" fill="#000000" fill-rule="evenodd" fill-opacity="1" /><path clip-path="url(#clip750)" d="M1107.33 222.377 L1107.33 238.025 L1103.07 238.025 L1103.07 222.515 Q1103.07 218.835 1101.63 217.006 Q1100.2 215.178 1097.33 215.178 Q1093.88 215.178 1091.89 217.377 Q1089.89 219.576 1089.89 223.372 L1089.89 238.025 L1085.61 238.025 L1085.61 212.099 L1089.89 212.099 L1089.89 216.127 Q1091.42 213.789 1093.48 212.631 Q1095.57 211.474 1098.27 211.474 Q1102.74 211.474 1105.03 214.252 Q1107.33 217.006 1107.33 222.377 Z" fill="#000000" fill-rule="evenodd" fill-opacity="1" /><path clip-path="url(#clip750)" d="M1132.88 224.761 Q1132.88 220.131 1130.96 217.585 Q1129.06 215.039 1125.61 215.039 Q1122.19 215.039 1120.26 217.585 Q1118.37 220.131 1118.37 224.761 Q1118.37 229.367 1120.26 231.914 Q1122.19 234.46 1125.61 234.46 Q1129.06 234.46 1130.96 231.914 Q1132.88 229.367 1132.88 224.761 M1137.14 234.807 Q1137.14 241.427 1134.2 244.645 Q1131.26 247.886 1125.2 247.886 Q1122.95 247.886 1120.96 247.538 Q1118.97 247.214 1117.09 246.52 L1117.09 242.376 Q1118.97 243.395 1120.8 243.881 Q1122.63 244.367 1124.52 244.367 Q1128.71 244.367 1130.8 242.168 Q1132.88 239.992 1132.88 235.571 L1132.88 233.464 Q1131.56 235.756 1129.5 236.89 Q1127.44 238.025 1124.57 238.025 Q1119.8 238.025 1116.89 234.39 Q1113.97 230.756 1113.97 224.761 Q1113.97 218.742 1116.89 215.108 Q1119.8 211.474 1124.57 211.474 Q1127.44 211.474 1129.5 212.608 Q1131.56 213.742 1132.88 216.034 L1132.88 212.099 L1137.14 212.099 L1137.14 234.807 Z" fill="#000000" fill-rule="evenodd" fill-opacity="1" /><path clip-path="url(#clip750)" d="M1162.44 212.863 L1162.44 216.891 Q1160.64 215.965 1158.69 215.502 Q1156.75 215.039 1154.66 215.039 Q1151.49 215.039 1149.89 216.011 Q1148.32 216.983 1148.32 218.928 Q1148.32 220.409 1149.45 221.265 Q1150.59 222.099 1154.01 222.863 L1155.47 223.187 Q1160.01 224.159 1161.91 225.941 Q1163.83 227.701 1163.83 230.872 Q1163.83 234.483 1160.96 236.589 Q1158.11 238.696 1153.11 238.696 Q1151.03 238.696 1148.76 238.279 Q1146.51 237.886 1144.01 237.076 L1144.01 232.677 Q1146.38 233.904 1148.67 234.529 Q1150.96 235.131 1153.2 235.131 Q1156.21 235.131 1157.83 234.113 Q1159.45 233.071 1159.45 231.196 Q1159.45 229.46 1158.27 228.534 Q1157.12 227.608 1153.16 226.752 L1151.68 226.404 Q1147.72 225.571 1145.96 223.858 Q1144.2 222.122 1144.2 219.113 Q1144.2 215.455 1146.79 213.465 Q1149.39 211.474 1154.15 211.474 Q1156.51 211.474 1158.6 211.821 Q1160.68 212.168 1162.44 212.863 Z" fill="#000000" fill-rule="evenodd" fill-opacity="1" /><polyline clip-path="url(#clip750)" style="stroke:#e26f46; stroke-linecap:butt; stroke-linejoin:round; stroke-width:4; stroke-opacity:1; fill:none" points="
  328.287,272.585 469.529,272.585 
  "/>
<path clip-path="url(#clip750)" d="M509.458 273.661 Q510.963 274.17 512.375 275.837 Q513.81 277.504 515.245 280.42 L519.99 289.865 L514.967 289.865 L510.546 280.999 Q508.833 277.527 507.213 276.393 Q505.615 275.258 502.838 275.258 L497.745 275.258 L497.745 289.865 L493.069 289.865 L493.069 255.305 L503.625 255.305 Q509.551 255.305 512.467 257.781 Q515.384 260.258 515.384 265.258 Q515.384 268.522 513.856 270.675 Q512.351 272.828 509.458 273.661 M497.745 259.147 L497.745 271.416 L503.625 271.416 Q507.004 271.416 508.717 269.865 Q510.453 268.291 510.453 265.258 Q510.453 262.226 508.717 260.698 Q507.004 259.147 503.625 259.147 L497.745 259.147 Z" fill="#000000" fill-rule="evenodd" fill-opacity="1" /><path clip-path="url(#clip750)" d="M525.824 263.939 L530.083 263.939 L530.083 289.865 L525.824 289.865 L525.824 263.939 M525.824 253.846 L530.083 253.846 L530.083 259.24 L525.824 259.24 L525.824 253.846 Z" fill="#000000" fill-rule="evenodd" fill-opacity="1" /><path clip-path="url(#clip750)" d="M552.12 253.846 L552.12 257.388 L548.046 257.388 Q545.754 257.388 544.851 258.314 Q543.972 259.24 543.972 261.647 L543.972 263.939 L550.986 263.939 L550.986 267.249 L543.972 267.249 L543.972 289.865 L539.689 289.865 L539.689 267.249 L535.615 267.249 L535.615 263.939 L539.689 263.939 L539.689 262.133 Q539.689 257.805 541.703 255.837 Q543.717 253.846 548.092 253.846 L552.12 253.846 Z" fill="#000000" fill-rule="evenodd" fill-opacity="1" /><path clip-path="url(#clip750)" d="M555.685 253.846 L559.944 253.846 L559.944 289.865 L555.685 289.865 L555.685 253.846 Z" fill="#000000" fill-rule="evenodd" fill-opacity="1" /><path clip-path="url(#clip750)" d="M591.032 275.837 L591.032 277.92 L571.448 277.92 Q571.726 282.318 574.087 284.633 Q576.472 286.925 580.708 286.925 Q583.161 286.925 585.453 286.323 Q587.768 285.721 590.036 284.517 L590.036 288.545 Q587.745 289.517 585.337 290.027 Q582.93 290.536 580.453 290.536 Q574.249 290.536 570.615 286.925 Q567.004 283.314 567.004 277.156 Q567.004 270.791 570.43 267.064 Q573.879 263.314 579.712 263.314 Q584.944 263.314 587.976 266.693 Q591.032 270.05 591.032 275.837 M586.772 274.587 Q586.726 271.092 584.805 269.008 Q582.907 266.925 579.759 266.925 Q576.194 266.925 574.041 268.939 Q571.911 270.953 571.587 274.61 L586.772 274.587 Z" fill="#000000" fill-rule="evenodd" fill-opacity="1" /><path clip-path="url(#clip750)" d="M615.36 260.143 L615.36 273.036 L628.254 273.036 L628.254 276.971 L615.36 276.971 L615.36 289.865 L611.471 289.865 L611.471 276.971 L598.578 276.971 L598.578 273.036 L611.471 273.036 L611.471 260.143 L615.36 260.143 Z" fill="#000000" fill-rule="evenodd" fill-opacity="1" /><path clip-path="url(#clip750)" d="M657.675 259.147 L657.675 272.133 L663.554 272.133 Q666.818 272.133 668.601 270.443 Q670.383 268.754 670.383 265.629 Q670.383 262.527 668.601 260.837 Q666.818 259.147 663.554 259.147 L657.675 259.147 M652.999 255.305 L663.554 255.305 Q669.365 255.305 672.327 257.944 Q675.314 260.559 675.314 265.629 Q675.314 270.744 672.327 273.36 Q669.365 275.976 663.554 275.976 L657.675 275.976 L657.675 289.865 L652.999 289.865 L652.999 255.305 Z" fill="#000000" fill-rule="evenodd" fill-opacity="1" /><path clip-path="url(#clip750)" d="M680.128 279.633 L680.128 263.939 L684.388 263.939 L684.388 279.471 Q684.388 283.152 685.823 285.004 Q687.258 286.832 690.128 286.832 Q693.577 286.832 695.568 284.633 Q697.582 282.434 697.582 278.638 L697.582 263.939 L701.841 263.939 L701.841 289.865 L697.582 289.865 L697.582 285.883 Q696.031 288.244 693.971 289.402 Q691.934 290.536 689.226 290.536 Q684.758 290.536 682.443 287.758 Q680.128 284.98 680.128 279.633 M690.846 263.314 L690.846 263.314 Z" fill="#000000" fill-rule="evenodd" fill-opacity="1" /><path clip-path="url(#clip750)" d="M729.225 276.925 Q729.225 272.226 727.281 269.564 Q725.36 266.879 721.98 266.879 Q718.6 266.879 716.656 269.564 Q714.735 272.226 714.735 276.925 Q714.735 281.624 716.656 284.309 Q718.6 286.971 721.98 286.971 Q725.36 286.971 727.281 284.309 Q729.225 281.624 729.225 276.925 M714.735 267.874 Q716.077 265.559 718.114 264.448 Q720.174 263.314 723.022 263.314 Q727.744 263.314 730.684 267.064 Q733.647 270.814 733.647 276.925 Q733.647 283.036 730.684 286.786 Q727.744 290.536 723.022 290.536 Q720.174 290.536 718.114 289.425 Q716.077 288.291 714.735 285.976 L714.735 289.865 L710.452 289.865 L710.452 253.846 L714.735 253.846 L714.735 267.874 Z" fill="#000000" fill-rule="evenodd" fill-opacity="1" /><path clip-path="url(#clip750)" d="M740.707 253.846 L744.966 253.846 L744.966 289.865 L740.707 289.865 L740.707 253.846 Z" fill="#000000" fill-rule="evenodd" fill-opacity="1" /><path clip-path="url(#clip750)" d="M753.878 263.939 L758.137 263.939 L758.137 289.865 L753.878 289.865 L753.878 263.939 M753.878 253.846 L758.137 253.846 L758.137 259.24 L753.878 259.24 L753.878 253.846 Z" fill="#000000" fill-rule="evenodd" fill-opacity="1" /><path clip-path="url(#clip750)" d="M785.706 264.934 L785.706 268.916 Q783.901 267.92 782.072 267.434 Q780.267 266.925 778.415 266.925 Q774.271 266.925 771.98 269.564 Q769.688 272.18 769.688 276.925 Q769.688 281.67 771.98 284.309 Q774.271 286.925 778.415 286.925 Q780.267 286.925 782.072 286.439 Q783.901 285.929 785.706 284.934 L785.706 288.869 Q783.924 289.703 782.003 290.119 Q780.105 290.536 777.952 290.536 Q772.095 290.536 768.646 286.855 Q765.197 283.175 765.197 276.925 Q765.197 270.582 768.67 266.948 Q772.165 263.314 778.23 263.314 Q780.197 263.314 782.072 263.731 Q783.947 264.124 785.706 264.934 Z" fill="#000000" fill-rule="evenodd" fill-opacity="1" /><path clip-path="url(#clip750)" d="M808.368 255.305 L813.044 255.305 L813.044 269.911 L828.553 255.305 L834.572 255.305 L817.419 271.416 L835.799 289.865 L829.641 289.865 L813.044 273.221 L813.044 289.865 L808.368 289.865 L808.368 255.305 Z" fill="#000000" fill-rule="evenodd" fill-opacity="1" /><path clip-path="url(#clip750)" d="M839.271 263.939 L843.53 263.939 L843.53 289.865 L839.271 289.865 L839.271 263.939 M839.271 253.846 L843.53 253.846 L843.53 259.24 L839.271 259.24 L839.271 253.846 Z" fill="#000000" fill-rule="evenodd" fill-opacity="1" /><path clip-path="url(#clip750)" d="M852.442 253.846 L856.701 253.846 L856.701 289.865 L852.442 289.865 L852.442 253.846 Z" fill="#000000" fill-rule="evenodd" fill-opacity="1" /><path clip-path="url(#clip750)" d="M865.613 253.846 L869.873 253.846 L869.873 289.865 L865.613 289.865 L865.613 253.846 Z" fill="#000000" fill-rule="evenodd" fill-opacity="1" /><path clip-path="url(#clip750)" d="M878.785 263.939 L883.044 263.939 L883.044 289.865 L878.785 289.865 L878.785 263.939 M878.785 253.846 L883.044 253.846 L883.044 259.24 L878.785 259.24 L878.785 253.846 Z" fill="#000000" fill-rule="evenodd" fill-opacity="1" /><path clip-path="url(#clip750)" d="M913.507 274.217 L913.507 289.865 L909.247 289.865 L909.247 274.355 Q909.247 270.675 907.812 268.846 Q906.377 267.018 903.507 267.018 Q900.058 267.018 898.067 269.217 Q896.076 271.416 896.076 275.212 L896.076 289.865 L891.794 289.865 L891.794 263.939 L896.076 263.939 L896.076 267.967 Q897.604 265.629 899.664 264.471 Q901.748 263.314 904.456 263.314 Q908.923 263.314 911.215 266.092 Q913.507 268.846 913.507 274.217 Z" fill="#000000" fill-rule="evenodd" fill-opacity="1" /><path clip-path="url(#clip750)" d="M939.062 276.601 Q939.062 271.971 937.141 269.425 Q935.243 266.879 931.794 266.879 Q928.368 266.879 926.446 269.425 Q924.548 271.971 924.548 276.601 Q924.548 281.207 926.446 283.754 Q928.368 286.3 931.794 286.3 Q935.243 286.3 937.141 283.754 Q939.062 281.207 939.062 276.601 M943.321 286.647 Q943.321 293.267 940.382 296.485 Q937.442 299.726 931.377 299.726 Q929.132 299.726 927.141 299.378 Q925.15 299.054 923.275 298.36 L923.275 294.216 Q925.15 295.235 926.979 295.721 Q928.808 296.207 930.706 296.207 Q934.896 296.207 936.979 294.008 Q939.062 291.832 939.062 287.411 L939.062 285.304 Q937.743 287.596 935.683 288.73 Q933.622 289.865 930.752 289.865 Q925.984 289.865 923.067 286.23 Q920.15 282.596 920.15 276.601 Q920.15 270.582 923.067 266.948 Q925.984 263.314 930.752 263.314 Q933.622 263.314 935.683 264.448 Q937.743 265.582 939.062 267.874 L939.062 263.939 L943.321 263.939 L943.321 286.647 Z" fill="#000000" fill-rule="evenodd" fill-opacity="1" /><path clip-path="url(#clip750)" d="M968.622 264.703 L968.622 268.731 Q966.817 267.805 964.872 267.342 Q962.928 266.879 960.844 266.879 Q957.673 266.879 956.076 267.851 Q954.502 268.823 954.502 270.768 Q954.502 272.249 955.636 273.105 Q956.77 273.939 960.196 274.703 L961.655 275.027 Q966.192 275.999 968.09 277.781 Q970.011 279.541 970.011 282.712 Q970.011 286.323 967.141 288.429 Q964.293 290.536 959.294 290.536 Q957.21 290.536 954.942 290.119 Q952.696 289.726 950.196 288.916 L950.196 284.517 Q952.557 285.744 954.849 286.369 Q957.141 286.971 959.386 286.971 Q962.395 286.971 964.016 285.953 Q965.636 284.911 965.636 283.036 Q965.636 281.3 964.456 280.374 Q963.298 279.448 959.34 278.592 L957.858 278.244 Q953.9 277.411 952.141 275.698 Q950.382 273.962 950.382 270.953 Q950.382 267.295 952.974 265.305 Q955.567 263.314 960.335 263.314 Q962.696 263.314 964.78 263.661 Q966.863 264.008 968.622 264.703 Z" fill="#000000" fill-rule="evenodd" fill-opacity="1" /></svg>
