<?xml version="1.0" encoding="utf-8"?>
<svg xmlns="http://www.w3.org/2000/svg" xmlns:xlink="http://www.w3.org/1999/xlink" width="600" height="400" viewBox="0 0 2400 1600">
<defs>
  <clipPath id="clip220">
    <rect x="0" y="0" width="2400" height="1600"/>
  </clipPath>
</defs>
<path clip-path="url(#clip220)" d="
M0 1600 L2400 1600 L2400 0 L0 0  Z
  " fill="#ffffff" fill-rule="evenodd" fill-opacity="1"/>
<defs>
  <clipPath id="clip221">
    <rect x="480" y="0" width="1681" height="1600"/>
  </clipPath>
</defs>
<path clip-path="url(#clip220)" d="
M112.177 1486.45 L2352.76 1486.45 L2352.76 123.472 L112.177 123.472  Z
  " fill="#ffffff" fill-rule="evenodd" fill-opacity="1"/>
<defs>
  <clipPath id="clip222">
    <rect x="112" y="123" width="2242" height="1364"/>
  </clipPath>
</defs>
<polyline clip-path="url(#clip222)" style="stroke:#000000; stroke-linecap:butt; stroke-linejoin:round; stroke-width:2; stroke-opacity:0.1; fill:none" points="
  457.424,1486.45 457.424,123.472 
  "/>
<polyline clip-path="url(#clip222)" style="stroke:#000000; stroke-linecap:butt; stroke-linejoin:round; stroke-width:2; stroke-opacity:0.1; fill:none" points="
  880.174,1486.45 880.174,123.472 
  "/>
<polyline clip-path="url(#clip222)" style="stroke:#000000; stroke-linecap:butt; stroke-linejoin:round; stroke-width:2; stroke-opacity:0.1; fill:none" points="
  1302.92,1486.45 1302.92,123.472 
  "/>
<polyline clip-path="url(#clip222)" style="stroke:#000000; stroke-linecap:butt; stroke-linejoin:round; stroke-width:2; stroke-opacity:0.1; fill:none" points="
  1725.68,1486.45 1725.68,123.472 
  "/>
<polyline clip-path="url(#clip222)" style="stroke:#000000; stroke-linecap:butt; stroke-linejoin:round; stroke-width:2; stroke-opacity:0.1; fill:none" points="
  2148.43,1486.45 2148.43,123.472 
  "/>
<polyline clip-path="url(#clip220)" style="stroke:#000000; stroke-linecap:butt; stroke-linejoin:round; stroke-width:4; stroke-opacity:1; fill:none" points="
  112.177,1486.45 2352.76,1486.45 
  "/>
<polyline clip-path="url(#clip220)" style="stroke:#000000; stroke-linecap:butt; stroke-linejoin:round; stroke-width:4; stroke-opacity:1; fill:none" points="
  457.424,1486.45 457.424,1467.55 
  "/>
<polyline clip-path="url(#clip220)" style="stroke:#000000; stroke-linecap:butt; stroke-linejoin:round; stroke-width:4; stroke-opacity:1; fill:none" points="
  880.174,1486.45 880.174,1467.55 
  "/>
<polyline clip-path="url(#clip220)" style="stroke:#000000; stroke-linecap:butt; stroke-linejoin:round; stroke-width:4; stroke-opacity:1; fill:none" points="
  1302.92,1486.45 1302.92,1467.55 
  "/>
<polyline clip-path="url(#clip220)" style="stroke:#000000; stroke-linecap:butt; stroke-linejoin:round; stroke-width:4; stroke-opacity:1; fill:none" points="
  1725.68,1486.45 1725.68,1467.55 
  "/>
<polyline clip-path="url(#clip220)" style="stroke:#000000; stroke-linecap:butt; stroke-linejoin:round; stroke-width:4; stroke-opacity:1; fill:none" points="
  2148.43,1486.45 2148.43,1467.55 
  "/>
<path clip-path="url(#clip220)" d="M423.778 1518.36 L411.972 1536.81 L423.778 1536.81 L423.778 1518.36 M422.551 1514.29 L428.431 1514.29 L428.431 1536.81 L433.361 1536.81 L433.361 1540.7 L428.431 1540.7 L428.431 1548.85 L423.778 1548.85 L423.778 1540.7 L408.176 1540.7 L408.176 1536.19 L422.551 1514.29 Z" fill="#000000" fill-rule="evenodd" fill-opacity="1" /><path clip-path="url(#clip220)" d="M451.093 1517.37 Q447.482 1517.37 445.653 1520.93 Q443.847 1524.47 443.847 1531.6 Q443.847 1538.71 445.653 1542.27 Q447.482 1545.82 451.093 1545.82 Q454.727 1545.82 456.532 1542.27 Q458.361 1538.71 458.361 1531.6 Q458.361 1524.47 456.532 1520.93 Q454.727 1517.37 451.093 1517.37 M451.093 1513.66 Q456.903 1513.66 459.958 1518.27 Q463.037 1522.85 463.037 1531.6 Q463.037 1540.33 459.958 1544.94 Q456.903 1549.52 451.093 1549.52 Q445.282 1549.52 442.204 1544.94 Q439.148 1540.33 439.148 1531.6 Q439.148 1522.85 442.204 1518.27 Q445.282 1513.66 451.093 1513.66 Z" fill="#000000" fill-rule="evenodd" fill-opacity="1" /><path clip-path="url(#clip220)" d="M471.255 1542.97 L476.139 1542.97 L476.139 1548.85 L471.255 1548.85 L471.255 1542.97 Z" fill="#000000" fill-rule="evenodd" fill-opacity="1" /><path clip-path="url(#clip220)" d="M490.352 1544.91 L506.671 1544.91 L506.671 1548.85 L484.727 1548.85 L484.727 1544.91 Q487.389 1542.16 491.972 1537.53 Q496.578 1532.88 497.759 1531.53 Q500.004 1529.01 500.884 1527.27 Q501.787 1525.51 501.787 1523.82 Q501.787 1521.07 499.842 1519.33 Q497.921 1517.6 494.819 1517.6 Q492.62 1517.6 490.166 1518.36 Q487.736 1519.13 484.958 1520.68 L484.958 1515.95 Q487.782 1514.82 490.236 1514.24 Q492.69 1513.66 494.727 1513.66 Q500.097 1513.66 503.291 1516.35 Q506.486 1519.03 506.486 1523.52 Q506.486 1525.65 505.676 1527.57 Q504.889 1529.47 502.782 1532.07 Q502.203 1532.74 499.102 1535.95 Q496 1539.15 490.352 1544.91 Z" fill="#000000" fill-rule="evenodd" fill-opacity="1" /><path clip-path="url(#clip220)" d="M846.228 1518.36 L834.422 1536.81 L846.228 1536.81 L846.228 1518.36 M845.001 1514.29 L850.88 1514.29 L850.88 1536.81 L855.811 1536.81 L855.811 1540.7 L850.88 1540.7 L850.88 1548.85 L846.228 1548.85 L846.228 1540.7 L830.626 1540.7 L830.626 1536.19 L845.001 1514.29 Z" fill="#000000" fill-rule="evenodd" fill-opacity="1" /><path clip-path="url(#clip220)" d="M873.542 1517.37 Q869.931 1517.37 868.103 1520.93 Q866.297 1524.47 866.297 1531.6 Q866.297 1538.71 868.103 1542.27 Q869.931 1545.82 873.542 1545.82 Q877.177 1545.82 878.982 1542.27 Q880.811 1538.71 880.811 1531.6 Q880.811 1524.47 878.982 1520.93 Q877.177 1517.37 873.542 1517.37 M873.542 1513.66 Q879.353 1513.66 882.408 1518.27 Q885.487 1522.85 885.487 1531.6 Q885.487 1540.33 882.408 1544.94 Q879.353 1549.52 873.542 1549.52 Q867.732 1549.52 864.654 1544.94 Q861.598 1540.33 861.598 1531.6 Q861.598 1522.85 864.654 1518.27 Q867.732 1513.66 873.542 1513.66 Z" fill="#000000" fill-rule="evenodd" fill-opacity="1" /><path clip-path="url(#clip220)" d="M893.704 1542.97 L898.589 1542.97 L898.589 1548.85 L893.704 1548.85 L893.704 1542.97 Z" fill="#000000" fill-rule="evenodd" fill-opacity="1" /><path clip-path="url(#clip220)" d="M908.82 1514.29 L927.176 1514.29 L927.176 1518.22 L913.102 1518.22 L913.102 1526.7 Q914.121 1526.35 915.139 1526.19 Q916.158 1526 917.176 1526 Q922.963 1526 926.343 1529.17 Q929.723 1532.34 929.723 1537.76 Q929.723 1543.34 926.25 1546.44 Q922.778 1549.52 916.459 1549.52 Q914.283 1549.52 912.014 1549.15 Q909.769 1548.78 907.362 1548.04 L907.362 1543.34 Q909.445 1544.47 911.667 1545.03 Q913.889 1545.58 916.366 1545.58 Q920.371 1545.58 922.709 1543.48 Q925.047 1541.37 925.047 1537.76 Q925.047 1534.15 922.709 1532.04 Q920.371 1529.94 916.366 1529.94 Q914.491 1529.94 912.616 1530.35 Q910.764 1530.77 908.82 1531.65 L908.82 1514.29 Z" fill="#000000" fill-rule="evenodd" fill-opacity="1" /><path clip-path="url(#clip220)" d="M1268.53 1518.36 L1256.72 1536.81 L1268.53 1536.81 L1268.53 1518.36 M1267.3 1514.29 L1273.18 1514.29 L1273.18 1536.81 L1278.11 1536.81 L1278.11 1540.7 L1273.18 1540.7 L1273.18 1548.85 L1268.53 1548.85 L1268.53 1540.7 L1252.93 1540.7 L1252.93 1536.19 L1267.3 1514.29 Z" fill="#000000" fill-rule="evenodd" fill-opacity="1" /><path clip-path="url(#clip220)" d="M1295.84 1517.37 Q1292.23 1517.37 1290.4 1520.93 Q1288.6 1524.47 1288.6 1531.6 Q1288.6 1538.71 1290.4 1542.27 Q1292.23 1545.82 1295.84 1545.82 Q1299.48 1545.82 1301.28 1542.27 Q1303.11 1538.71 1303.11 1531.6 Q1303.11 1524.47 1301.28 1520.93 Q1299.48 1517.37 1295.84 1517.37 M1295.84 1513.66 Q1301.65 1513.66 1304.71 1518.27 Q1307.79 1522.85 1307.79 1531.6 Q1307.79 1540.33 1304.71 1544.94 Q1301.65 1549.52 1295.84 1549.52 Q1290.03 1549.52 1286.95 1544.94 Q1283.9 1540.33 1283.9 1531.6 Q1283.9 1522.85 1286.95 1518.27 Q1290.03 1513.66 1295.84 1513.66 Z" fill="#000000" fill-rule="evenodd" fill-opacity="1" /><path clip-path="url(#clip220)" d="M1316 1542.97 L1320.89 1542.97 L1320.89 1548.85 L1316 1548.85 L1316 1542.97 Z" fill="#000000" fill-rule="evenodd" fill-opacity="1" /><path clip-path="url(#clip220)" d="M1341.07 1532.44 Q1337.74 1532.44 1335.82 1534.22 Q1333.92 1536 1333.92 1539.13 Q1333.92 1542.25 1335.82 1544.03 Q1337.74 1545.82 1341.07 1545.82 Q1344.41 1545.82 1346.33 1544.03 Q1348.25 1542.23 1348.25 1539.13 Q1348.25 1536 1346.33 1534.22 Q1344.43 1532.44 1341.07 1532.44 M1336.4 1530.45 Q1333.39 1529.7 1331.7 1527.64 Q1330.03 1525.58 1330.03 1522.62 Q1330.03 1518.48 1332.97 1516.07 Q1335.93 1513.66 1341.07 1513.66 Q1346.23 1513.66 1349.17 1516.07 Q1352.11 1518.48 1352.11 1522.62 Q1352.11 1525.58 1350.42 1527.64 Q1348.76 1529.7 1345.77 1530.45 Q1349.15 1531.23 1351.03 1533.52 Q1352.92 1535.82 1352.92 1539.13 Q1352.92 1544.15 1349.85 1546.83 Q1346.79 1549.52 1341.07 1549.52 Q1335.36 1549.52 1332.28 1546.83 Q1329.22 1544.15 1329.22 1539.13 Q1329.22 1535.82 1331.12 1533.52 Q1333.02 1531.23 1336.4 1530.45 M1334.68 1523.06 Q1334.68 1525.75 1336.35 1527.25 Q1338.04 1528.76 1341.07 1528.76 Q1344.08 1528.76 1345.77 1527.25 Q1347.48 1525.75 1347.48 1523.06 Q1347.48 1520.38 1345.77 1518.87 Q1344.08 1517.37 1341.07 1517.37 Q1338.04 1517.37 1336.35 1518.87 Q1334.68 1520.38 1334.68 1523.06 Z" fill="#000000" fill-rule="evenodd" fill-opacity="1" /><path clip-path="url(#clip220)" d="M1691.84 1518.36 L1680.04 1536.81 L1691.84 1536.81 L1691.84 1518.36 M1690.62 1514.29 L1696.5 1514.29 L1696.5 1536.81 L1701.43 1536.81 L1701.43 1540.7 L1696.5 1540.7 L1696.5 1548.85 L1691.84 1548.85 L1691.84 1540.7 L1676.24 1540.7 L1676.24 1536.19 L1690.62 1514.29 Z" fill="#000000" fill-rule="evenodd" fill-opacity="1" /><path clip-path="url(#clip220)" d="M1709.97 1544.91 L1717.61 1544.91 L1717.61 1518.55 L1709.3 1520.21 L1709.3 1515.95 L1717.56 1514.29 L1722.24 1514.29 L1722.24 1544.91 L1729.88 1544.91 L1729.88 1548.85 L1709.97 1548.85 L1709.97 1544.91 Z" fill="#000000" fill-rule="evenodd" fill-opacity="1" /><path clip-path="url(#clip220)" d="M1739.32 1542.97 L1744.21 1542.97 L1744.21 1548.85 L1739.32 1548.85 L1739.32 1542.97 Z" fill="#000000" fill-rule="evenodd" fill-opacity="1" /><path clip-path="url(#clip220)" d="M1755.2 1544.91 L1762.84 1544.91 L1762.84 1518.55 L1754.53 1520.21 L1754.53 1515.95 L1762.79 1514.29 L1767.47 1514.29 L1767.47 1544.91 L1775.11 1544.91 L1775.11 1548.85 L1755.2 1548.85 L1755.2 1544.91 Z" fill="#000000" fill-rule="evenodd" fill-opacity="1" /><path clip-path="url(#clip220)" d="M2113.74 1518.36 L2101.93 1536.81 L2113.74 1536.81 L2113.74 1518.36 M2112.51 1514.29 L2118.39 1514.29 L2118.39 1536.81 L2123.32 1536.81 L2123.32 1540.7 L2118.39 1540.7 L2118.39 1548.85 L2113.74 1548.85 L2113.74 1540.7 L2098.14 1540.7 L2098.14 1536.19 L2112.51 1514.29 Z" fill="#000000" fill-rule="evenodd" fill-opacity="1" /><path clip-path="url(#clip220)" d="M2131.86 1544.91 L2139.5 1544.91 L2139.5 1518.55 L2131.19 1520.21 L2131.19 1515.95 L2139.46 1514.29 L2144.13 1514.29 L2144.13 1544.91 L2151.77 1544.91 L2151.77 1548.85 L2131.86 1548.85 L2131.86 1544.91 Z" fill="#000000" fill-rule="evenodd" fill-opacity="1" /><path clip-path="url(#clip220)" d="M2161.22 1542.97 L2166.1 1542.97 L2166.1 1548.85 L2161.22 1548.85 L2161.22 1542.97 Z" fill="#000000" fill-rule="evenodd" fill-opacity="1" /><path clip-path="url(#clip220)" d="M2189.13 1518.36 L2177.33 1536.81 L2189.13 1536.81 L2189.13 1518.36 M2187.91 1514.29 L2193.78 1514.29 L2193.78 1536.81 L2198.72 1536.81 L2198.72 1540.7 L2193.78 1540.7 L2193.78 1548.85 L2189.13 1548.85 L2189.13 1540.7 L2173.53 1540.7 L2173.53 1536.19 L2187.91 1514.29 Z" fill="#000000" fill-rule="evenodd" fill-opacity="1" /><polyline clip-path="url(#clip222)" style="stroke:#000000; stroke-linecap:butt; stroke-linejoin:round; stroke-width:2; stroke-opacity:0.1; fill:none" points="
  112.177,1447.87 2352.76,1447.87 
  "/>
<polyline clip-path="url(#clip222)" style="stroke:#000000; stroke-linecap:butt; stroke-linejoin:round; stroke-width:2; stroke-opacity:0.1; fill:none" points="
  112.177,1244.39 2352.76,1244.39 
  "/>
<polyline clip-path="url(#clip222)" style="stroke:#000000; stroke-linecap:butt; stroke-linejoin:round; stroke-width:2; stroke-opacity:0.1; fill:none" points="
  112.177,1040.9 2352.76,1040.9 
  "/>
<polyline clip-path="url(#clip222)" style="stroke:#000000; stroke-linecap:butt; stroke-linejoin:round; stroke-width:2; stroke-opacity:0.1; fill:none" points="
  112.177,837.413 2352.76,837.413 
  "/>
<polyline clip-path="url(#clip222)" style="stroke:#000000; stroke-linecap:butt; stroke-linejoin:round; stroke-width:2; stroke-opacity:0.1; fill:none" points="
  112.177,633.926 2352.76,633.926 
  "/>
<polyline clip-path="url(#clip222)" style="stroke:#000000; stroke-linecap:butt; stroke-linejoin:round; stroke-width:2; stroke-opacity:0.1; fill:none" points="
  112.177,430.439 2352.76,430.439 
  "/>
<polyline clip-path="url(#clip222)" style="stroke:#000000; stroke-linecap:butt; stroke-linejoin:round; stroke-width:2; stroke-opacity:0.1; fill:none" points="
  112.177,226.953 2352.76,226.953 
  "/>
<polyline clip-path="url(#clip220)" style="stroke:#000000; stroke-linecap:butt; stroke-linejoin:round; stroke-width:4; stroke-opacity:1; fill:none" points="
  112.177,1486.45 112.177,123.472 
  "/>
<polyline clip-path="url(#clip220)" style="stroke:#000000; stroke-linecap:butt; stroke-linejoin:round; stroke-width:4; stroke-opacity:1; fill:none" points="
  112.177,1447.87 131.075,1447.87 
  "/>
<polyline clip-path="url(#clip220)" style="stroke:#000000; stroke-linecap:butt; stroke-linejoin:round; stroke-width:4; stroke-opacity:1; fill:none" points="
  112.177,1244.39 131.075,1244.39 
  "/>
<polyline clip-path="url(#clip220)" style="stroke:#000000; stroke-linecap:butt; stroke-linejoin:round; stroke-width:4; stroke-opacity:1; fill:none" points="
  112.177,1040.9 131.075,1040.9 
  "/>
<polyline clip-path="url(#clip220)" style="stroke:#000000; stroke-linecap:butt; stroke-linejoin:round; stroke-width:4; stroke-opacity:1; fill:none" points="
  112.177,837.413 131.075,837.413 
  "/>
<polyline clip-path="url(#clip220)" style="stroke:#000000; stroke-linecap:butt; stroke-linejoin:round; stroke-width:4; stroke-opacity:1; fill:none" points="
  112.177,633.926 131.075,633.926 
  "/>
<polyline clip-path="url(#clip220)" style="stroke:#000000; stroke-linecap:butt; stroke-linejoin:round; stroke-width:4; stroke-opacity:1; fill:none" points="
  112.177,430.439 131.075,430.439 
  "/>
<polyline clip-path="url(#clip220)" style="stroke:#000000; stroke-linecap:butt; stroke-linejoin:round; stroke-width:4; stroke-opacity:1; fill:none" points="
  112.177,226.953 131.075,226.953 
  "/>
<path clip-path="url(#clip220)" d="M64.2328 1433.67 Q60.6217 1433.67 58.793 1437.24 Q56.9875 1440.78 56.9875 1447.91 Q56.9875 1455.01 58.793 1458.58 Q60.6217 1462.12 64.2328 1462.12 Q67.867 1462.12 69.6726 1458.58 Q71.5013 1455.01 71.5013 1447.91 Q71.5013 1440.78 69.6726 1437.24 Q67.867 1433.67 64.2328 1433.67 M64.2328 1429.97 Q70.0429 1429.97 73.0985 1434.57 Q76.1772 1439.16 76.1772 1447.91 Q76.1772 1456.63 73.0985 1461.24 Q70.0429 1465.82 64.2328 1465.82 Q58.4226 1465.82 55.344 1461.24 Q52.2884 1456.63 52.2884 1447.91 Q52.2884 1439.16 55.344 1434.57 Q58.4226 1429.97 64.2328 1429.97 Z" fill="#000000" fill-rule="evenodd" fill-opacity="1" /><path clip-path="url(#clip220)" d="M56.2699 1257.73 L63.9087 1257.73 L63.9087 1231.37 L55.5986 1233.03 L55.5986 1228.77 L63.8624 1227.11 L68.5383 1227.11 L68.5383 1257.73 L76.1772 1257.73 L76.1772 1261.67 L56.2699 1261.67 L56.2699 1257.73 Z" fill="#000000" fill-rule="evenodd" fill-opacity="1" /><path clip-path="url(#clip220)" d="M59.8578 1054.24 L76.1772 1054.24 L76.1772 1058.18 L54.2328 1058.18 L54.2328 1054.24 Q56.8949 1051.49 61.4782 1046.86 Q66.0846 1042.21 67.2652 1040.86 Q69.5105 1038.34 70.3902 1036.61 Q71.2929 1034.85 71.2929 1033.16 Q71.2929 1030.4 69.3485 1028.67 Q67.4272 1026.93 64.3254 1026.93 Q62.1263 1026.93 59.6726 1027.69 Q57.2421 1028.46 54.4643 1030.01 L54.4643 1025.29 Q57.2884 1024.15 59.7421 1023.57 Q62.1958 1022.99 64.2328 1022.99 Q69.6031 1022.99 72.7976 1025.68 Q75.992 1028.36 75.992 1032.86 Q75.992 1034.99 75.1818 1036.91 Q74.3948 1038.8 72.2883 1041.4 Q71.7096 1042.07 68.6078 1045.29 Q65.5059 1048.48 59.8578 1054.24 Z" fill="#000000" fill-rule="evenodd" fill-opacity="1" /><path clip-path="url(#clip220)" d="M69.0476 836.059 Q72.404 836.776 74.279 839.045 Q76.1772 841.313 76.1772 844.647 Q76.1772 849.762 72.6587 852.563 Q69.1402 855.364 62.6587 855.364 Q60.4828 855.364 58.168 854.924 Q55.8764 854.508 53.4227 853.651 L53.4227 849.137 Q55.3671 850.272 57.6819 850.85 Q59.9967 851.429 62.5198 851.429 Q66.918 851.429 69.2096 849.693 Q71.5244 847.957 71.5244 844.647 Q71.5244 841.591 69.3717 839.878 Q67.242 838.142 63.4226 838.142 L59.3949 838.142 L59.3949 834.299 L63.6078 834.299 Q67.0569 834.299 68.8855 832.934 Q70.7142 831.545 70.7142 828.952 Q70.7142 826.29 68.8161 824.878 Q66.9411 823.443 63.4226 823.443 Q61.5013 823.443 59.3023 823.86 Q57.1032 824.276 54.4643 825.156 L54.4643 820.989 Q57.1264 820.249 59.4412 819.878 Q61.7791 819.508 63.8393 819.508 Q69.1633 819.508 72.2652 821.938 Q75.367 824.346 75.367 828.466 Q75.367 831.337 73.7235 833.327 Q72.08 835.295 69.0476 836.059 Z" fill="#000000" fill-rule="evenodd" fill-opacity="1" /><path clip-path="url(#clip220)" d="M66.5939 620.72 L54.7884 639.169 L66.5939 639.169 L66.5939 620.72 M65.367 616.646 L71.2466 616.646 L71.2466 639.169 L76.1772 639.169 L76.1772 643.058 L71.2466 643.058 L71.2466 651.206 L66.5939 651.206 L66.5939 643.058 L50.9921 643.058 L50.9921 638.544 L65.367 616.646 Z" fill="#000000" fill-rule="evenodd" fill-opacity="1" /><path clip-path="url(#clip220)" d="M55.2745 413.159 L73.6309 413.159 L73.6309 417.095 L59.5569 417.095 L59.5569 425.567 Q60.5754 425.22 61.5939 425.058 Q62.6124 424.872 63.6309 424.872 Q69.418 424.872 72.7976 428.044 Q76.1772 431.215 76.1772 436.632 Q76.1772 442.21 72.705 445.312 Q69.2328 448.391 62.9134 448.391 Q60.7374 448.391 58.4689 448.02 Q56.2236 447.65 53.8162 446.909 L53.8162 442.21 Q55.8995 443.344 58.1217 443.9 Q60.3439 444.456 62.8208 444.456 Q66.8254 444.456 69.1633 442.349 Q71.5013 440.243 71.5013 436.632 Q71.5013 433.02 69.1633 430.914 Q66.8254 428.807 62.8208 428.807 Q60.9458 428.807 59.0708 429.224 Q57.2189 429.641 55.2745 430.52 L55.2745 413.159 Z" fill="#000000" fill-rule="evenodd" fill-opacity="1" /><path clip-path="url(#clip220)" d="M64.6495 225.089 Q61.5013 225.089 59.6495 227.242 Q57.8208 229.395 57.8208 233.145 Q57.8208 236.872 59.6495 239.048 Q61.5013 241.2 64.6495 241.2 Q67.7976 241.2 69.6263 239.048 Q71.4781 236.872 71.4781 233.145 Q71.4781 229.395 69.6263 227.242 Q67.7976 225.089 64.6495 225.089 M73.9318 210.437 L73.9318 214.696 Q72.1726 213.862 70.367 213.423 Q68.5846 212.983 66.8254 212.983 Q62.1958 212.983 59.7421 216.108 Q57.3115 219.233 56.9643 225.552 Q58.33 223.538 60.3902 222.474 Q62.4504 221.386 64.9272 221.386 Q70.1355 221.386 73.1448 224.557 Q76.1772 227.705 76.1772 233.145 Q76.1772 238.469 73.029 241.686 Q69.8809 244.904 64.6495 244.904 Q58.6541 244.904 55.4828 240.321 Q52.3116 235.714 52.3116 226.987 Q52.3116 218.793 56.2004 213.932 Q60.0893 209.048 66.6402 209.048 Q68.3994 209.048 70.1818 209.395 Q71.9874 209.742 73.9318 210.437 Z" fill="#000000" fill-rule="evenodd" fill-opacity="1" /><path clip-path="url(#clip220)" d="M753.245 18.8205 L753.245 41.5461 L763.534 41.5461 Q769.246 41.5461 772.365 38.5889 Q775.484 35.6318 775.484 30.163 Q775.484 24.7348 772.365 21.7777 Q769.246 18.8205 763.534 18.8205 L753.245 18.8205 M745.062 12.096 L763.534 12.096 Q773.702 12.096 778.887 16.714 Q784.112 21.2916 784.112 30.163 Q784.112 39.1155 778.887 43.6931 Q773.702 48.2706 763.534 48.2706 L753.245 48.2706 L753.245 72.576 L745.062 72.576 L745.062 12.096 Z" fill="#000000" fill-rule="evenodd" fill-opacity="1" /><path clip-path="url(#clip220)" d="M792.538 54.671 L792.538 27.2059 L799.992 27.2059 L799.992 54.3874 Q799.992 60.8284 802.504 64.0691 Q805.015 67.2693 810.038 67.2693 Q816.074 67.2693 819.558 63.421 Q823.082 59.5726 823.082 52.9291 L823.082 27.2059 L830.536 27.2059 L830.536 72.576 L823.082 72.576 L823.082 65.6084 Q820.368 69.7404 816.763 71.7658 Q813.198 73.7508 808.458 73.7508 Q800.64 73.7508 796.589 68.8897 Q792.538 64.0286 792.538 54.671 M811.294 26.1121 L811.294 26.1121 Z" fill="#000000" fill-rule="evenodd" fill-opacity="1" /><path clip-path="url(#clip220)" d="M878.458 49.9314 Q878.458 41.7081 875.055 37.0496 Q871.693 32.3505 865.779 32.3505 Q859.864 32.3505 856.462 37.0496 Q853.099 41.7081 853.099 49.9314 Q853.099 58.1548 856.462 62.8538 Q859.864 67.5124 865.779 67.5124 Q871.693 67.5124 875.055 62.8538 Q878.458 58.1548 878.458 49.9314 M853.099 34.0924 Q855.449 30.0415 859.014 28.0971 Q862.619 26.1121 867.602 26.1121 Q875.865 26.1121 881.01 32.6746 Q886.195 39.2371 886.195 49.9314 Q886.195 60.6258 881.01 67.1883 Q875.865 73.7508 867.602 73.7508 Q862.619 73.7508 859.014 71.8063 Q855.449 69.8214 853.099 65.7705 L853.099 72.576 L845.605 72.576 L845.605 9.54393 L853.099 9.54393 L853.099 34.0924 Z" fill="#000000" fill-rule="evenodd" fill-opacity="1" /><path clip-path="url(#clip220)" d="M898.551 9.54393 L906.004 9.54393 L906.004 72.576 L898.551 72.576 L898.551 9.54393 Z" fill="#000000" fill-rule="evenodd" fill-opacity="1" /><path clip-path="url(#clip220)" d="M921.6 27.2059 L929.054 27.2059 L929.054 72.576 L921.6 72.576 L921.6 27.2059 M921.6 9.54393 L929.054 9.54393 L929.054 18.9825 L921.6 18.9825 L921.6 9.54393 Z" fill="#000000" fill-rule="evenodd" fill-opacity="1" /><path clip-path="url(#clip220)" d="M977.3 28.9478 L977.3 35.9153 Q974.14 34.1734 970.94 33.3227 Q967.78 32.4315 964.54 32.4315 Q957.289 32.4315 953.278 37.0496 Q949.268 41.6271 949.268 49.9314 Q949.268 58.2358 953.278 62.8538 Q957.289 67.4314 964.54 67.4314 Q967.78 67.4314 970.94 66.5807 Q974.14 65.6895 977.3 63.9476 L977.3 70.8341 Q974.181 72.2924 970.819 73.0216 Q967.497 73.7508 963.73 73.7508 Q953.481 73.7508 947.445 67.3098 Q941.409 60.8689 941.409 49.9314 Q941.409 38.832 947.485 32.472 Q953.602 26.1121 964.216 26.1121 Q967.659 26.1121 970.94 26.8413 Q974.221 27.5299 977.3 28.9478 Z" fill="#000000" fill-rule="evenodd" fill-opacity="1" /><path clip-path="url(#clip220)" d="M1053.21 14.0809 L1053.21 22.0612 Q1048.56 19.8332 1044.42 18.7395 Q1040.29 17.6457 1036.44 17.6457 Q1029.76 17.6457 1026.11 20.2383 Q1022.51 22.8309 1022.51 27.611 Q1022.51 31.6214 1024.9 33.6873 Q1027.33 35.7128 1034.05 36.9686 L1039 37.9813 Q1048.15 39.7232 1052.48 44.1387 Q1056.86 48.5136 1056.86 55.8863 Q1056.86 64.6767 1050.95 69.2137 Q1045.07 73.7508 1033.69 73.7508 Q1029.39 73.7508 1024.53 72.7785 Q1019.71 71.8063 1014.53 69.9024 L1014.53 61.4765 Q1019.51 64.2716 1024.29 65.6895 Q1029.07 67.1073 1033.69 67.1073 Q1040.7 67.1073 1044.5 64.3527 Q1048.31 61.598 1048.31 56.4939 Q1048.31 52.0379 1045.56 49.5264 Q1042.84 47.0148 1036.61 45.759 L1031.62 44.7868 Q1022.47 42.9639 1018.38 39.075 Q1014.28 35.1862 1014.28 28.2591 Q1014.28 20.2383 1019.92 15.6203 Q1025.59 11.0023 1035.51 11.0023 Q1039.77 11.0023 1044.18 11.7719 Q1048.6 12.5416 1053.21 14.0809 Z" fill="#000000" fill-rule="evenodd" fill-opacity="1" /><path clip-path="url(#clip220)" d="M1107.01 45.1919 L1107.01 72.576 L1099.56 72.576 L1099.56 45.4349 Q1099.56 38.994 1097.04 35.7938 Q1094.53 32.5936 1089.51 32.5936 Q1083.47 32.5936 1079.99 36.4419 Q1076.51 40.2903 1076.51 46.9338 L1076.51 72.576 L1069.01 72.576 L1069.01 9.54393 L1076.51 9.54393 L1076.51 34.2544 Q1079.18 30.163 1082.79 28.1376 Q1086.43 26.1121 1091.17 26.1121 Q1098.99 26.1121 1103 30.9732 Q1107.01 35.7938 1107.01 45.1919 Z" fill="#000000" fill-rule="evenodd" fill-opacity="1" /><path clip-path="url(#clip220)" d="M1139.46 32.4315 Q1133.46 32.4315 1129.98 37.1306 Q1126.49 41.7891 1126.49 49.9314 Q1126.49 58.0738 1129.94 62.7728 Q1133.42 67.4314 1139.46 67.4314 Q1145.41 67.4314 1148.9 62.7323 Q1152.38 58.0333 1152.38 49.9314 Q1152.38 41.8701 1148.9 37.1711 Q1145.41 32.4315 1139.46 32.4315 M1139.46 26.1121 Q1149.18 26.1121 1154.73 32.4315 Q1160.28 38.7509 1160.28 49.9314 Q1160.28 61.0714 1154.73 67.4314 Q1149.18 73.7508 1139.46 73.7508 Q1129.7 73.7508 1124.15 67.4314 Q1118.64 61.0714 1118.64 49.9314 Q1118.64 38.7509 1124.15 32.4315 Q1129.7 26.1121 1139.46 26.1121 Z" fill="#000000" fill-rule="evenodd" fill-opacity="1" /><path clip-path="url(#clip220)" d="M1190.22 32.4315 Q1184.22 32.4315 1180.74 37.1306 Q1177.25 41.7891 1177.25 49.9314 Q1177.25 58.0738 1180.7 62.7728 Q1184.18 67.4314 1190.22 67.4314 Q1196.17 67.4314 1199.65 62.7323 Q1203.14 58.0333 1203.14 49.9314 Q1203.14 41.8701 1199.65 37.1711 Q1196.17 32.4315 1190.22 32.4315 M1190.22 26.1121 Q1199.94 26.1121 1205.49 32.4315 Q1211.04 38.7509 1211.04 49.9314 Q1211.04 61.0714 1205.49 67.4314 Q1199.94 73.7508 1190.22 73.7508 Q1180.45 73.7508 1174.9 67.4314 Q1169.39 61.0714 1169.39 49.9314 Q1169.39 38.7509 1174.9 32.4315 Q1180.45 26.1121 1190.22 26.1121 Z" fill="#000000" fill-rule="evenodd" fill-opacity="1" /><path clip-path="url(#clip220)" d="M1230.77 14.324 L1230.77 27.2059 L1246.12 27.2059 L1246.12 32.9987 L1230.77 32.9987 L1230.77 57.6282 Q1230.77 63.1779 1232.26 64.7578 Q1233.8 66.3376 1238.46 66.3376 L1246.12 66.3376 L1246.12 72.576 L1238.46 72.576 Q1229.83 72.576 1226.55 69.3758 Q1223.27 66.1351 1223.27 57.6282 L1223.27 32.9987 L1217.8 32.9987 L1217.8 27.2059 L1223.27 27.2059 L1223.27 14.324 L1230.77 14.324 Z" fill="#000000" fill-rule="evenodd" fill-opacity="1" /><path clip-path="url(#clip220)" d="M1255.92 27.2059 L1263.37 27.2059 L1263.37 72.576 L1255.92 72.576 L1255.92 27.2059 M1255.92 9.54393 L1263.37 9.54393 L1263.37 18.9825 L1255.92 18.9825 L1255.92 9.54393 Z" fill="#000000" fill-rule="evenodd" fill-opacity="1" /><path clip-path="url(#clip220)" d="M1316.68 45.1919 L1316.68 72.576 L1309.23 72.576 L1309.23 45.4349 Q1309.23 38.994 1306.72 35.7938 Q1304.21 32.5936 1299.18 32.5936 Q1293.15 32.5936 1289.67 36.4419 Q1286.18 40.2903 1286.18 46.9338 L1286.18 72.576 L1278.69 72.576 L1278.69 27.2059 L1286.18 27.2059 L1286.18 34.2544 Q1288.86 30.163 1292.46 28.1376 Q1296.11 26.1121 1300.85 26.1121 Q1308.66 26.1121 1312.67 30.9732 Q1316.68 35.7938 1316.68 45.1919 Z" fill="#000000" fill-rule="evenodd" fill-opacity="1" /><path clip-path="url(#clip220)" d="M1361.41 49.3643 Q1361.41 41.2625 1358.04 36.8065 Q1354.72 32.3505 1348.69 32.3505 Q1342.69 32.3505 1339.33 36.8065 Q1336.01 41.2625 1336.01 49.3643 Q1336.01 57.4256 1339.33 61.8816 Q1342.69 66.3376 1348.69 66.3376 Q1354.72 66.3376 1358.04 61.8816 Q1361.41 57.4256 1361.41 49.3643 M1368.86 66.9452 Q1368.86 78.5308 1363.72 84.1616 Q1358.57 89.8329 1347.96 89.8329 Q1344.03 89.8329 1340.54 89.2252 Q1337.06 88.6581 1333.78 87.4428 L1333.78 80.1917 Q1337.06 81.9741 1340.26 82.8248 Q1343.46 83.6755 1346.78 83.6755 Q1354.12 83.6755 1357.76 79.8271 Q1361.41 76.0193 1361.41 68.282 L1361.41 64.5957 Q1359.1 68.6061 1355.49 70.5911 Q1351.89 72.576 1346.86 72.576 Q1338.52 72.576 1333.42 66.2161 Q1328.31 59.8562 1328.31 49.3643 Q1328.31 38.832 1333.42 32.472 Q1338.52 26.1121 1346.86 26.1121 Q1351.89 26.1121 1355.49 28.0971 Q1359.1 30.082 1361.41 34.0924 L1361.41 27.2059 L1368.86 27.2059 L1368.86 66.9452 Z" fill="#000000" fill-rule="evenodd" fill-opacity="1" /><path clip-path="url(#clip220)" d="M1413.14 28.5427 L1413.14 35.5912 Q1409.98 33.9709 1406.57 33.1607 Q1403.17 32.3505 1399.53 32.3505 Q1393.98 32.3505 1391.18 34.0519 Q1388.43 35.7533 1388.43 39.156 Q1388.43 41.7486 1390.41 43.2475 Q1392.4 44.7058 1398.39 46.0426 L1400.94 46.6097 Q1408.88 48.3111 1412.21 51.4303 Q1415.57 54.509 1415.57 60.0587 Q1415.57 66.3781 1410.54 70.0644 Q1405.56 73.7508 1396.81 73.7508 Q1393.17 73.7508 1389.2 73.0216 Q1385.27 72.3329 1380.89 70.9151 L1380.89 63.2184 Q1385.02 65.3654 1389.03 66.4591 Q1393.04 67.5124 1396.97 67.5124 Q1402.24 67.5124 1405.08 65.73 Q1407.91 63.9071 1407.91 60.6258 Q1407.91 57.5877 1405.85 55.9673 Q1403.82 54.3469 1396.89 52.8481 L1394.3 52.2405 Q1387.37 50.7821 1384.29 47.7845 Q1381.22 44.7463 1381.22 39.4801 Q1381.22 33.0797 1385.75 29.5959 Q1390.29 26.1121 1398.63 26.1121 Q1402.77 26.1121 1406.41 26.7198 Q1410.06 27.3274 1413.14 28.5427 Z" fill="#000000" fill-rule="evenodd" fill-opacity="1" /><path clip-path="url(#clip220)" d="M1448.46 27.2059 L1456.36 27.2059 L1470.54 65.2844 L1484.72 27.2059 L1492.62 27.2059 L1475.6 72.576 L1465.47 72.576 L1448.46 27.2059 Z" fill="#000000" fill-rule="evenodd" fill-opacity="1" /><path clip-path="url(#clip220)" d="M1531.83 28.5427 L1531.83 35.5912 Q1528.67 33.9709 1525.27 33.1607 Q1521.86 32.3505 1518.22 32.3505 Q1512.67 32.3505 1509.87 34.0519 Q1507.12 35.7533 1507.12 39.156 Q1507.12 41.7486 1509.1 43.2475 Q1511.09 44.7058 1517.08 46.0426 L1519.64 46.6097 Q1527.57 48.3111 1530.9 51.4303 Q1534.26 54.509 1534.26 60.0587 Q1534.26 66.3781 1529.24 70.0644 Q1524.25 73.7508 1515.5 73.7508 Q1511.86 73.7508 1507.89 73.0216 Q1503.96 72.3329 1499.58 70.9151 L1499.58 63.2184 Q1503.72 65.3654 1507.73 66.4591 Q1511.74 67.5124 1515.67 67.5124 Q1520.93 67.5124 1523.77 65.73 Q1526.6 63.9071 1526.6 60.6258 Q1526.6 57.5877 1524.54 55.9673 Q1522.51 54.3469 1515.58 52.8481 L1512.99 52.2405 Q1506.06 50.7821 1502.99 47.7845 Q1499.91 44.7463 1499.91 39.4801 Q1499.91 33.0797 1504.44 29.5959 Q1508.98 26.1121 1517.33 26.1121 Q1521.46 26.1121 1525.1 26.7198 Q1528.75 27.3274 1531.83 28.5427 Z" fill="#000000" fill-rule="evenodd" fill-opacity="1" /><path clip-path="url(#clip220)" d="M1614.06 63.9476 L1614.06 47.7034 L1600.69 47.7034 L1600.69 40.9789 L1622.16 40.9789 L1622.16 66.9452 Q1617.42 70.3075 1611.71 72.0494 Q1606 73.7508 1599.52 73.7508 Q1585.34 73.7508 1577.32 65.4869 Q1569.34 57.1826 1569.34 42.3968 Q1569.34 27.5705 1577.32 19.3066 Q1585.34 11.0023 1599.52 11.0023 Q1605.43 11.0023 1610.74 12.4606 Q1616.09 13.9189 1620.58 16.7545 L1620.58 25.464 Q1616.05 21.6156 1610.94 19.6712 Q1605.84 17.7268 1600.21 17.7268 Q1589.11 17.7268 1583.52 23.9246 Q1577.97 30.1225 1577.97 42.3968 Q1577.97 54.6305 1583.52 60.8284 Q1589.11 67.0263 1600.21 67.0263 Q1604.54 67.0263 1607.94 66.2971 Q1611.35 65.5274 1614.06 63.9476 Z" fill="#000000" fill-rule="evenodd" fill-opacity="1" /><path clip-path="url(#clip220)" d="M1636.79 27.2059 L1644.24 27.2059 L1644.24 72.576 L1636.79 72.576 L1636.79 27.2059 M1636.79 9.54393 L1644.24 9.54393 L1644.24 18.9825 L1636.79 18.9825 L1636.79 9.54393 Z" fill="#000000" fill-rule="evenodd" fill-opacity="1" /><path clip-path="url(#clip220)" d="M1697.55 45.1919 L1697.55 72.576 L1690.1 72.576 L1690.1 45.4349 Q1690.1 38.994 1687.59 35.7938 Q1685.07 32.5936 1680.05 32.5936 Q1674.02 32.5936 1670.53 36.4419 Q1667.05 40.2903 1667.05 46.9338 L1667.05 72.576 L1659.55 72.576 L1659.55 27.2059 L1667.05 27.2059 L1667.05 34.2544 Q1669.72 30.163 1673.33 28.1376 Q1676.97 26.1121 1681.71 26.1121 Q1689.53 26.1121 1693.54 30.9732 Q1697.55 35.7938 1697.55 45.1919 Z" fill="#000000" fill-rule="evenodd" fill-opacity="1" /><path clip-path="url(#clip220)" d="M1712.42 27.2059 L1719.87 27.2059 L1719.87 72.576 L1712.42 72.576 L1712.42 27.2059 M1712.42 9.54393 L1719.87 9.54393 L1719.87 18.9825 L1712.42 18.9825 L1712.42 9.54393 Z" fill="#000000" fill-rule="evenodd" fill-opacity="1" /><circle clip-path="url(#clip222)" cx="1021.09" cy="1447.87" r="14.4" fill="#009af9" fill-rule="evenodd" fill-opacity="1" stroke="#000000" stroke-opacity="1" stroke-width="3.2"/>
<circle clip-path="url(#clip222)" cx="1021.09" cy="1447.87" r="14.4" fill="#009af9" fill-rule="evenodd" fill-opacity="1" stroke="#000000" stroke-opacity="1" stroke-width="3.2"/>
<circle clip-path="url(#clip222)" cx="739.257" cy="1165.78" r="14.4" fill="#009af9" fill-rule="evenodd" fill-opacity="1" stroke="#000000" stroke-opacity="1" stroke-width="3.2"/>
<circle clip-path="url(#clip222)" cx="739.257" cy="1165.78" r="14.4" fill="#009af9" fill-rule="evenodd" fill-opacity="1" stroke="#000000" stroke-opacity="1" stroke-width="3.2"/>
<circle clip-path="url(#clip222)" cx="739.257" cy="1083.27" r="14.4" fill="#009af9" fill-rule="evenodd" fill-opacity="1" stroke="#000000" stroke-opacity="1" stroke-width="3.2"/>
<circle clip-path="url(#clip222)" cx="739.257" cy="1024.73" r="14.4" fill="#009af9" fill-rule="evenodd" fill-opacity="1" stroke="#000000" stroke-opacity="1" stroke-width="3.2"/>
<circle clip-path="url(#clip222)" cx="1302.92" cy="942.228" r="14.4" fill="#009af9" fill-rule="evenodd" fill-opacity="1" stroke="#000000" stroke-opacity="1" stroke-width="3.2"/>
<circle clip-path="url(#clip222)" cx="1302.92" cy="942.228" r="14.4" fill="#009af9" fill-rule="evenodd" fill-opacity="1" stroke="#000000" stroke-opacity="1" stroke-width="3.2"/>
<circle clip-path="url(#clip222)" cx="1302.92" cy="925.94" r="14.4" fill="#009af9" fill-rule="evenodd" fill-opacity="1" stroke="#000000" stroke-opacity="1" stroke-width="3.2"/>
<circle clip-path="url(#clip222)" cx="1302.92" cy="925.94" r="14.4" fill="#009af9" fill-rule="evenodd" fill-opacity="1" stroke="#000000" stroke-opacity="1" stroke-width="3.2"/>
<circle clip-path="url(#clip222)" cx="1302.92" cy="925.94" r="14.4" fill="#009af9" fill-rule="evenodd" fill-opacity="1" stroke="#000000" stroke-opacity="1" stroke-width="3.2"/>
<circle clip-path="url(#clip222)" cx="1302.92" cy="925.94" r="14.4" fill="#009af9" fill-rule="evenodd" fill-opacity="1" stroke="#000000" stroke-opacity="1" stroke-width="3.2"/>
<circle clip-path="url(#clip222)" cx="1302.92" cy="925.94" r="14.4" fill="#009af9" fill-rule="evenodd" fill-opacity="1" stroke="#000000" stroke-opacity="1" stroke-width="3.2"/>
<circle clip-path="url(#clip222)" cx="598.34" cy="925.94" r="14.4" fill="#009af9" fill-rule="evenodd" fill-opacity="1" stroke="#000000" stroke-opacity="1" stroke-width="3.2"/>
<circle clip-path="url(#clip222)" cx="598.34" cy="925.94" r="14.4" fill="#009af9" fill-rule="evenodd" fill-opacity="1" stroke="#000000" stroke-opacity="1" stroke-width="3.2"/>
<circle clip-path="url(#clip222)" cx="598.34" cy="896.821" r="14.4" fill="#009af9" fill-rule="evenodd" fill-opacity="1" stroke="#000000" stroke-opacity="1" stroke-width="3.2"/>
<circle clip-path="url(#clip222)" cx="1584.76" cy="896.821" r="14.4" fill="#009af9" fill-rule="evenodd" fill-opacity="1" stroke="#000000" stroke-opacity="1" stroke-width="3.2"/>
<circle clip-path="url(#clip222)" cx="1584.76" cy="896.821" r="14.4" fill="#009af9" fill-rule="evenodd" fill-opacity="1" stroke="#000000" stroke-opacity="1" stroke-width="3.2"/>
<circle clip-path="url(#clip222)" cx="1584.76" cy="749.102" r="14.4" fill="#009af9" fill-rule="evenodd" fill-opacity="1" stroke="#000000" stroke-opacity="1" stroke-width="3.2"/>
<circle clip-path="url(#clip222)" cx="1584.76" cy="730.306" r="14.4" fill="#009af9" fill-rule="evenodd" fill-opacity="1" stroke="#000000" stroke-opacity="1" stroke-width="3.2"/>
<circle clip-path="url(#clip222)" cx="1584.76" cy="730.306" r="14.4" fill="#009af9" fill-rule="evenodd" fill-opacity="1" stroke="#000000" stroke-opacity="1" stroke-width="3.2"/>
<circle clip-path="url(#clip222)" cx="1584.76" cy="724.407" r="14.4" fill="#009af9" fill-rule="evenodd" fill-opacity="1" stroke="#000000" stroke-opacity="1" stroke-width="3.2"/>
<circle clip-path="url(#clip222)" cx="2148.43" cy="724.407" r="14.4" fill="#009af9" fill-rule="evenodd" fill-opacity="1" stroke="#000000" stroke-opacity="1" stroke-width="3.2"/>
<circle clip-path="url(#clip222)" cx="2148.43" cy="692.21" r="14.4" fill="#009af9" fill-rule="evenodd" fill-opacity="1" stroke="#000000" stroke-opacity="1" stroke-width="3.2"/>
<circle clip-path="url(#clip222)" cx="2148.43" cy="692.21" r="14.4" fill="#009af9" fill-rule="evenodd" fill-opacity="1" stroke="#000000" stroke-opacity="1" stroke-width="3.2"/>
<circle clip-path="url(#clip222)" cx="2148.43" cy="692.21" r="14.4" fill="#009af9" fill-rule="evenodd" fill-opacity="1" stroke="#000000" stroke-opacity="1" stroke-width="3.2"/>
<circle clip-path="url(#clip222)" cx="2148.43" cy="692.21" r="14.4" fill="#009af9" fill-rule="evenodd" fill-opacity="1" stroke="#000000" stroke-opacity="1" stroke-width="3.2"/>
<circle clip-path="url(#clip222)" cx="2148.43" cy="692.21" r="14.4" fill="#009af9" fill-rule="evenodd" fill-opacity="1" stroke="#000000" stroke-opacity="1" stroke-width="3.2"/>
<circle clip-path="url(#clip222)" cx="2148.43" cy="668.795" r="14.4" fill="#009af9" fill-rule="evenodd" fill-opacity="1" stroke="#000000" stroke-opacity="1" stroke-width="3.2"/>
<circle clip-path="url(#clip222)" cx="1302.92" cy="647.799" r="14.4" fill="#009af9" fill-rule="evenodd" fill-opacity="1" stroke="#000000" stroke-opacity="1" stroke-width="3.2"/>
<circle clip-path="url(#clip222)" cx="1302.92" cy="647.799" r="14.4" fill="#009af9" fill-rule="evenodd" fill-opacity="1" stroke="#000000" stroke-opacity="1" stroke-width="3.2"/>
<circle clip-path="url(#clip222)" cx="1302.92" cy="639.971" r="14.4" fill="#009af9" fill-rule="evenodd" fill-opacity="1" stroke="#000000" stroke-opacity="1" stroke-width="3.2"/>
<circle clip-path="url(#clip222)" cx="1302.92" cy="628.767" r="14.4" fill="#009af9" fill-rule="evenodd" fill-opacity="1" stroke="#000000" stroke-opacity="1" stroke-width="3.2"/>
<circle clip-path="url(#clip222)" cx="1302.92" cy="628.767" r="14.4" fill="#009af9" fill-rule="evenodd" fill-opacity="1" stroke="#000000" stroke-opacity="1" stroke-width="3.2"/>
<circle clip-path="url(#clip222)" cx="1302.92" cy="618.148" r="14.4" fill="#009af9" fill-rule="evenodd" fill-opacity="1" stroke="#000000" stroke-opacity="1" stroke-width="3.2"/>
<circle clip-path="url(#clip222)" cx="1302.92" cy="592.274" r="14.4" fill="#009af9" fill-rule="evenodd" fill-opacity="1" stroke="#000000" stroke-opacity="1" stroke-width="3.2"/>
<circle clip-path="url(#clip222)" cx="1302.92" cy="574.822" r="14.4" fill="#009af9" fill-rule="evenodd" fill-opacity="1" stroke="#000000" stroke-opacity="1" stroke-width="3.2"/>
<circle clip-path="url(#clip222)" cx="1302.92" cy="572.053" r="14.4" fill="#009af9" fill-rule="evenodd" fill-opacity="1" stroke="#000000" stroke-opacity="1" stroke-width="3.2"/>
<circle clip-path="url(#clip222)" cx="1302.92" cy="566.626" r="14.4" fill="#009af9" fill-rule="evenodd" fill-opacity="1" stroke="#000000" stroke-opacity="1" stroke-width="3.2"/>
<circle clip-path="url(#clip222)" cx="1302.92" cy="566.626" r="14.4" fill="#009af9" fill-rule="evenodd" fill-opacity="1" stroke="#000000" stroke-opacity="1" stroke-width="3.2"/>
<circle clip-path="url(#clip222)" cx="1302.92" cy="561.341" r="14.4" fill="#009af9" fill-rule="evenodd" fill-opacity="1" stroke="#000000" stroke-opacity="1" stroke-width="3.2"/>
<circle clip-path="url(#clip222)" cx="1302.92" cy="546.261" r="14.4" fill="#009af9" fill-rule="evenodd" fill-opacity="1" stroke="#000000" stroke-opacity="1" stroke-width="3.2"/>
<circle clip-path="url(#clip222)" cx="1021.09" cy="541.473" r="14.4" fill="#009af9" fill-rule="evenodd" fill-opacity="1" stroke="#000000" stroke-opacity="1" stroke-width="3.2"/>
<circle clip-path="url(#clip222)" cx="1021.09" cy="519.089" r="14.4" fill="#009af9" fill-rule="evenodd" fill-opacity="1" stroke="#000000" stroke-opacity="1" stroke-width="3.2"/>
<circle clip-path="url(#clip222)" cx="1021.09" cy="493.246" r="14.4" fill="#009af9" fill-rule="evenodd" fill-opacity="1" stroke="#000000" stroke-opacity="1" stroke-width="3.2"/>
<circle clip-path="url(#clip222)" cx="1021.09" cy="493.246" r="14.4" fill="#009af9" fill-rule="evenodd" fill-opacity="1" stroke="#000000" stroke-opacity="1" stroke-width="3.2"/>
<circle clip-path="url(#clip222)" cx="1021.09" cy="489.546" r="14.4" fill="#009af9" fill-rule="evenodd" fill-opacity="1" stroke="#000000" stroke-opacity="1" stroke-width="3.2"/>
<circle clip-path="url(#clip222)" cx="1021.09" cy="489.546" r="14.4" fill="#009af9" fill-rule="evenodd" fill-opacity="1" stroke="#000000" stroke-opacity="1" stroke-width="3.2"/>
<circle clip-path="url(#clip222)" cx="1021.09" cy="484.12" r="14.4" fill="#009af9" fill-rule="evenodd" fill-opacity="1" stroke="#000000" stroke-opacity="1" stroke-width="3.2"/>
<circle clip-path="url(#clip222)" cx="1021.09" cy="480.581" r="14.4" fill="#009af9" fill-rule="evenodd" fill-opacity="1" stroke="#000000" stroke-opacity="1" stroke-width="3.2"/>
<circle clip-path="url(#clip222)" cx="1021.09" cy="451.228" r="14.4" fill="#009af9" fill-rule="evenodd" fill-opacity="1" stroke="#000000" stroke-opacity="1" stroke-width="3.2"/>
<circle clip-path="url(#clip222)" cx="1021.09" cy="451.228" r="14.4" fill="#009af9" fill-rule="evenodd" fill-opacity="1" stroke="#000000" stroke-opacity="1" stroke-width="3.2"/>
<circle clip-path="url(#clip222)" cx="175.59" cy="449.715" r="14.4" fill="#009af9" fill-rule="evenodd" fill-opacity="1" stroke="#000000" stroke-opacity="1" stroke-width="3.2"/>
<circle clip-path="url(#clip222)" cx="175.59" cy="449.715" r="14.4" fill="#009af9" fill-rule="evenodd" fill-opacity="1" stroke="#000000" stroke-opacity="1" stroke-width="3.2"/>
<circle clip-path="url(#clip222)" cx="175.59" cy="449.715" r="14.4" fill="#009af9" fill-rule="evenodd" fill-opacity="1" stroke="#000000" stroke-opacity="1" stroke-width="3.2"/>
<circle clip-path="url(#clip222)" cx="175.59" cy="449.715" r="14.4" fill="#009af9" fill-rule="evenodd" fill-opacity="1" stroke="#000000" stroke-opacity="1" stroke-width="3.2"/>
<circle clip-path="url(#clip222)" cx="175.59" cy="449.715" r="14.4" fill="#009af9" fill-rule="evenodd" fill-opacity="1" stroke="#000000" stroke-opacity="1" stroke-width="3.2"/>
<circle clip-path="url(#clip222)" cx="175.59" cy="449.715" r="14.4" fill="#009af9" fill-rule="evenodd" fill-opacity="1" stroke="#000000" stroke-opacity="1" stroke-width="3.2"/>
<circle clip-path="url(#clip222)" cx="175.59" cy="449.715" r="14.4" fill="#009af9" fill-rule="evenodd" fill-opacity="1" stroke="#000000" stroke-opacity="1" stroke-width="3.2"/>
<circle clip-path="url(#clip222)" cx="175.59" cy="449.715" r="14.4" fill="#009af9" fill-rule="evenodd" fill-opacity="1" stroke="#000000" stroke-opacity="1" stroke-width="3.2"/>
<circle clip-path="url(#clip222)" cx="175.59" cy="448.213" r="14.4" fill="#009af9" fill-rule="evenodd" fill-opacity="1" stroke="#000000" stroke-opacity="1" stroke-width="3.2"/>
<circle clip-path="url(#clip222)" cx="175.59" cy="445.242" r="14.4" fill="#009af9" fill-rule="evenodd" fill-opacity="1" stroke="#000000" stroke-opacity="1" stroke-width="3.2"/>
<circle clip-path="url(#clip222)" cx="175.59" cy="445.242" r="14.4" fill="#009af9" fill-rule="evenodd" fill-opacity="1" stroke="#000000" stroke-opacity="1" stroke-width="3.2"/>
<circle clip-path="url(#clip222)" cx="1443.84" cy="436.582" r="14.4" fill="#009af9" fill-rule="evenodd" fill-opacity="1" stroke="#000000" stroke-opacity="1" stroke-width="3.2"/>
<circle clip-path="url(#clip222)" cx="1443.84" cy="433.775" r="14.4" fill="#009af9" fill-rule="evenodd" fill-opacity="1" stroke="#000000" stroke-opacity="1" stroke-width="3.2"/>
<circle clip-path="url(#clip222)" cx="1443.84" cy="433.775" r="14.4" fill="#009af9" fill-rule="evenodd" fill-opacity="1" stroke="#000000" stroke-opacity="1" stroke-width="3.2"/>
<circle clip-path="url(#clip222)" cx="1443.84" cy="428.275" r="14.4" fill="#009af9" fill-rule="evenodd" fill-opacity="1" stroke="#000000" stroke-opacity="1" stroke-width="3.2"/>
<circle clip-path="url(#clip222)" cx="1443.84" cy="428.275" r="14.4" fill="#009af9" fill-rule="evenodd" fill-opacity="1" stroke="#000000" stroke-opacity="1" stroke-width="3.2"/>
<circle clip-path="url(#clip222)" cx="1443.84" cy="428.275" r="14.4" fill="#009af9" fill-rule="evenodd" fill-opacity="1" stroke="#000000" stroke-opacity="1" stroke-width="3.2"/>
<circle clip-path="url(#clip222)" cx="1443.84" cy="428.275" r="14.4" fill="#009af9" fill-rule="evenodd" fill-opacity="1" stroke="#000000" stroke-opacity="1" stroke-width="3.2"/>
<circle clip-path="url(#clip222)" cx="1443.84" cy="428.275" r="14.4" fill="#009af9" fill-rule="evenodd" fill-opacity="1" stroke="#000000" stroke-opacity="1" stroke-width="3.2"/>
<circle clip-path="url(#clip222)" cx="1443.84" cy="424.246" r="14.4" fill="#009af9" fill-rule="evenodd" fill-opacity="1" stroke="#000000" stroke-opacity="1" stroke-width="3.2"/>
<circle clip-path="url(#clip222)" cx="1443.84" cy="411.363" r="14.4" fill="#009af9" fill-rule="evenodd" fill-opacity="1" stroke="#000000" stroke-opacity="1" stroke-width="3.2"/>
<circle clip-path="url(#clip222)" cx="1443.84" cy="405.214" r="14.4" fill="#009af9" fill-rule="evenodd" fill-opacity="1" stroke="#000000" stroke-opacity="1" stroke-width="3.2"/>
<circle clip-path="url(#clip222)" cx="1443.84" cy="391.175" r="14.4" fill="#009af9" fill-rule="evenodd" fill-opacity="1" stroke="#000000" stroke-opacity="1" stroke-width="3.2"/>
<circle clip-path="url(#clip222)" cx="1443.84" cy="384.503" r="14.4" fill="#009af9" fill-rule="evenodd" fill-opacity="1" stroke="#000000" stroke-opacity="1" stroke-width="3.2"/>
<circle clip-path="url(#clip222)" cx="1443.84" cy="384.503" r="14.4" fill="#009af9" fill-rule="evenodd" fill-opacity="1" stroke="#000000" stroke-opacity="1" stroke-width="3.2"/>
<circle clip-path="url(#clip222)" cx="1443.84" cy="384.503" r="14.4" fill="#009af9" fill-rule="evenodd" fill-opacity="1" stroke="#000000" stroke-opacity="1" stroke-width="3.2"/>
<circle clip-path="url(#clip222)" cx="1443.84" cy="384.503" r="14.4" fill="#009af9" fill-rule="evenodd" fill-opacity="1" stroke="#000000" stroke-opacity="1" stroke-width="3.2"/>
<circle clip-path="url(#clip222)" cx="1443.84" cy="352.2" r="14.4" fill="#009af9" fill-rule="evenodd" fill-opacity="1" stroke="#000000" stroke-opacity="1" stroke-width="3.2"/>
<circle clip-path="url(#clip222)" cx="1162.01" cy="352.2" r="14.4" fill="#009af9" fill-rule="evenodd" fill-opacity="1" stroke="#000000" stroke-opacity="1" stroke-width="3.2"/>
<circle clip-path="url(#clip222)" cx="1162.01" cy="348.5" r="14.4" fill="#009af9" fill-rule="evenodd" fill-opacity="1" stroke="#000000" stroke-opacity="1" stroke-width="3.2"/>
<circle clip-path="url(#clip222)" cx="1162.01" cy="348.5" r="14.4" fill="#009af9" fill-rule="evenodd" fill-opacity="1" stroke="#000000" stroke-opacity="1" stroke-width="3.2"/>
<circle clip-path="url(#clip222)" cx="1162.01" cy="346.675" r="14.4" fill="#009af9" fill-rule="evenodd" fill-opacity="1" stroke="#000000" stroke-opacity="1" stroke-width="3.2"/>
<circle clip-path="url(#clip222)" cx="1162.01" cy="336.92" r="14.4" fill="#009af9" fill-rule="evenodd" fill-opacity="1" stroke="#000000" stroke-opacity="1" stroke-width="3.2"/>
<circle clip-path="url(#clip222)" cx="1162.01" cy="334.339" r="14.4" fill="#009af9" fill-rule="evenodd" fill-opacity="1" stroke="#000000" stroke-opacity="1" stroke-width="3.2"/>
<circle clip-path="url(#clip222)" cx="1162.01" cy="324.329" r="14.4" fill="#009af9" fill-rule="evenodd" fill-opacity="1" stroke="#000000" stroke-opacity="1" stroke-width="3.2"/>
<circle clip-path="url(#clip222)" cx="1162.01" cy="324.329" r="14.4" fill="#009af9" fill-rule="evenodd" fill-opacity="1" stroke="#000000" stroke-opacity="1" stroke-width="3.2"/>
<circle clip-path="url(#clip222)" cx="1162.01" cy="323.517" r="14.4" fill="#009af9" fill-rule="evenodd" fill-opacity="1" stroke="#000000" stroke-opacity="1" stroke-width="3.2"/>
<circle clip-path="url(#clip222)" cx="1162.01" cy="322.708" r="14.4" fill="#009af9" fill-rule="evenodd" fill-opacity="1" stroke="#000000" stroke-opacity="1" stroke-width="3.2"/>
<circle clip-path="url(#clip222)" cx="2289.34" cy="319.503" r="14.4" fill="#009af9" fill-rule="evenodd" fill-opacity="1" stroke="#000000" stroke-opacity="1" stroke-width="3.2"/>
<circle clip-path="url(#clip222)" cx="2289.34" cy="316.348" r="14.4" fill="#009af9" fill-rule="evenodd" fill-opacity="1" stroke="#000000" stroke-opacity="1" stroke-width="3.2"/>
<circle clip-path="url(#clip222)" cx="2289.34" cy="311.706" r="14.4" fill="#009af9" fill-rule="evenodd" fill-opacity="1" stroke="#000000" stroke-opacity="1" stroke-width="3.2"/>
<circle clip-path="url(#clip222)" cx="2289.34" cy="307.167" r="14.4" fill="#009af9" fill-rule="evenodd" fill-opacity="1" stroke="#000000" stroke-opacity="1" stroke-width="3.2"/>
<circle clip-path="url(#clip222)" cx="2289.34" cy="304.196" r="14.4" fill="#009af9" fill-rule="evenodd" fill-opacity="1" stroke="#000000" stroke-opacity="1" stroke-width="3.2"/>
<circle clip-path="url(#clip222)" cx="2289.34" cy="304.196" r="14.4" fill="#009af9" fill-rule="evenodd" fill-opacity="1" stroke="#000000" stroke-opacity="1" stroke-width="3.2"/>
<circle clip-path="url(#clip222)" cx="2289.34" cy="304.196" r="14.4" fill="#009af9" fill-rule="evenodd" fill-opacity="1" stroke="#000000" stroke-opacity="1" stroke-width="3.2"/>
<circle clip-path="url(#clip222)" cx="2289.34" cy="304.196" r="14.4" fill="#009af9" fill-rule="evenodd" fill-opacity="1" stroke="#000000" stroke-opacity="1" stroke-width="3.2"/>
<circle clip-path="url(#clip222)" cx="2289.34" cy="303.46" r="14.4" fill="#009af9" fill-rule="evenodd" fill-opacity="1" stroke="#000000" stroke-opacity="1" stroke-width="3.2"/>
<circle clip-path="url(#clip222)" cx="1866.59" cy="301.268" r="14.4" fill="#009af9" fill-rule="evenodd" fill-opacity="1" stroke="#000000" stroke-opacity="1" stroke-width="3.2"/>
<circle clip-path="url(#clip222)" cx="1866.59" cy="301.268" r="14.4" fill="#009af9" fill-rule="evenodd" fill-opacity="1" stroke="#000000" stroke-opacity="1" stroke-width="3.2"/>
<circle clip-path="url(#clip222)" cx="1866.59" cy="300.543" r="14.4" fill="#009af9" fill-rule="evenodd" fill-opacity="1" stroke="#000000" stroke-opacity="1" stroke-width="3.2"/>
<circle clip-path="url(#clip222)" cx="1866.59" cy="300.543" r="14.4" fill="#009af9" fill-rule="evenodd" fill-opacity="1" stroke="#000000" stroke-opacity="1" stroke-width="3.2"/>
<circle clip-path="url(#clip222)" cx="1866.59" cy="297.667" r="14.4" fill="#009af9" fill-rule="evenodd" fill-opacity="1" stroke="#000000" stroke-opacity="1" stroke-width="3.2"/>
<circle clip-path="url(#clip222)" cx="1866.59" cy="291.34" r="14.4" fill="#009af9" fill-rule="evenodd" fill-opacity="1" stroke="#000000" stroke-opacity="1" stroke-width="3.2"/>
<circle clip-path="url(#clip222)" cx="1866.59" cy="285.877" r="14.4" fill="#009af9" fill-rule="evenodd" fill-opacity="1" stroke="#000000" stroke-opacity="1" stroke-width="3.2"/>
<circle clip-path="url(#clip222)" cx="1866.59" cy="283.866" r="14.4" fill="#009af9" fill-rule="evenodd" fill-opacity="1" stroke="#000000" stroke-opacity="1" stroke-width="3.2"/>
<circle clip-path="url(#clip222)" cx="1866.59" cy="281.874" r="14.4" fill="#009af9" fill-rule="evenodd" fill-opacity="1" stroke="#000000" stroke-opacity="1" stroke-width="3.2"/>
<circle clip-path="url(#clip222)" cx="1866.59" cy="272.828" r="14.4" fill="#009af9" fill-rule="evenodd" fill-opacity="1" stroke="#000000" stroke-opacity="1" stroke-width="3.2"/>
<circle clip-path="url(#clip222)" cx="1725.68" cy="267.219" r="14.4" fill="#009af9" fill-rule="evenodd" fill-opacity="1" stroke="#000000" stroke-opacity="1" stroke-width="3.2"/>
<circle clip-path="url(#clip222)" cx="1725.68" cy="266.605" r="14.4" fill="#009af9" fill-rule="evenodd" fill-opacity="1" stroke="#000000" stroke-opacity="1" stroke-width="3.2"/>
<circle clip-path="url(#clip222)" cx="1725.68" cy="266.605" r="14.4" fill="#009af9" fill-rule="evenodd" fill-opacity="1" stroke="#000000" stroke-opacity="1" stroke-width="3.2"/>
<circle clip-path="url(#clip222)" cx="1725.68" cy="265.993" r="14.4" fill="#009af9" fill-rule="evenodd" fill-opacity="1" stroke="#000000" stroke-opacity="1" stroke-width="3.2"/>
<circle clip-path="url(#clip222)" cx="1725.68" cy="238.059" r="14.4" fill="#009af9" fill-rule="evenodd" fill-opacity="1" stroke="#000000" stroke-opacity="1" stroke-width="3.2"/>
<circle clip-path="url(#clip222)" cx="1725.68" cy="233.32" r="14.4" fill="#009af9" fill-rule="evenodd" fill-opacity="1" stroke="#000000" stroke-opacity="1" stroke-width="3.2"/>
<circle clip-path="url(#clip222)" cx="1725.68" cy="233.32" r="14.4" fill="#009af9" fill-rule="evenodd" fill-opacity="1" stroke="#000000" stroke-opacity="1" stroke-width="3.2"/>
<circle clip-path="url(#clip222)" cx="1725.68" cy="230.221" r="14.4" fill="#009af9" fill-rule="evenodd" fill-opacity="1" stroke="#000000" stroke-opacity="1" stroke-width="3.2"/>
<circle clip-path="url(#clip222)" cx="1725.68" cy="230.221" r="14.4" fill="#009af9" fill-rule="evenodd" fill-opacity="1" stroke="#000000" stroke-opacity="1" stroke-width="3.2"/>
<circle clip-path="url(#clip222)" cx="1725.68" cy="230.221" r="14.4" fill="#009af9" fill-rule="evenodd" fill-opacity="1" stroke="#000000" stroke-opacity="1" stroke-width="3.2"/>
<circle clip-path="url(#clip222)" cx="1866.59" cy="227.675" r="14.4" fill="#009af9" fill-rule="evenodd" fill-opacity="1" stroke="#000000" stroke-opacity="1" stroke-width="3.2"/>
<circle clip-path="url(#clip222)" cx="1866.59" cy="227.169" r="14.4" fill="#009af9" fill-rule="evenodd" fill-opacity="1" stroke="#000000" stroke-opacity="1" stroke-width="3.2"/>
<circle clip-path="url(#clip222)" cx="1866.59" cy="225.159" r="14.4" fill="#009af9" fill-rule="evenodd" fill-opacity="1" stroke="#000000" stroke-opacity="1" stroke-width="3.2"/>
<circle clip-path="url(#clip222)" cx="1866.59" cy="225.159" r="14.4" fill="#009af9" fill-rule="evenodd" fill-opacity="1" stroke="#000000" stroke-opacity="1" stroke-width="3.2"/>
<circle clip-path="url(#clip222)" cx="1866.59" cy="225.159" r="14.4" fill="#009af9" fill-rule="evenodd" fill-opacity="1" stroke="#000000" stroke-opacity="1" stroke-width="3.2"/>
<circle clip-path="url(#clip222)" cx="1866.59" cy="224.162" r="14.4" fill="#009af9" fill-rule="evenodd" fill-opacity="1" stroke="#000000" stroke-opacity="1" stroke-width="3.2"/>
<circle clip-path="url(#clip222)" cx="1866.59" cy="223.665" r="14.4" fill="#009af9" fill-rule="evenodd" fill-opacity="1" stroke="#000000" stroke-opacity="1" stroke-width="3.2"/>
<circle clip-path="url(#clip222)" cx="1866.59" cy="195.874" r="14.4" fill="#009af9" fill-rule="evenodd" fill-opacity="1" stroke="#000000" stroke-opacity="1" stroke-width="3.2"/>
<circle clip-path="url(#clip222)" cx="1866.59" cy="181.258" r="14.4" fill="#009af9" fill-rule="evenodd" fill-opacity="1" stroke="#000000" stroke-opacity="1" stroke-width="3.2"/>
<circle clip-path="url(#clip222)" cx="1866.59" cy="180.454" r="14.4" fill="#009af9" fill-rule="evenodd" fill-opacity="1" stroke="#000000" stroke-opacity="1" stroke-width="3.2"/>
<circle clip-path="url(#clip222)" cx="2148.43" cy="180.454" r="14.4" fill="#009af9" fill-rule="evenodd" fill-opacity="1" stroke="#000000" stroke-opacity="1" stroke-width="3.2"/>
<circle clip-path="url(#clip222)" cx="2148.43" cy="180.454" r="14.4" fill="#009af9" fill-rule="evenodd" fill-opacity="1" stroke="#000000" stroke-opacity="1" stroke-width="3.2"/>
<circle clip-path="url(#clip222)" cx="2148.43" cy="179.653" r="14.4" fill="#009af9" fill-rule="evenodd" fill-opacity="1" stroke="#000000" stroke-opacity="1" stroke-width="3.2"/>
<circle clip-path="url(#clip222)" cx="2148.43" cy="178.06" r="14.4" fill="#009af9" fill-rule="evenodd" fill-opacity="1" stroke="#000000" stroke-opacity="1" stroke-width="3.2"/>
<circle clip-path="url(#clip222)" cx="2148.43" cy="178.06" r="14.4" fill="#009af9" fill-rule="evenodd" fill-opacity="1" stroke="#000000" stroke-opacity="1" stroke-width="3.2"/>
<circle clip-path="url(#clip222)" cx="2148.43" cy="176.086" r="14.4" fill="#009af9" fill-rule="evenodd" fill-opacity="1" stroke="#000000" stroke-opacity="1" stroke-width="3.2"/>
<circle clip-path="url(#clip222)" cx="2148.43" cy="175.302" r="14.4" fill="#009af9" fill-rule="evenodd" fill-opacity="1" stroke="#000000" stroke-opacity="1" stroke-width="3.2"/>
<circle clip-path="url(#clip222)" cx="2148.43" cy="172.195" r="14.4" fill="#009af9" fill-rule="evenodd" fill-opacity="1" stroke="#000000" stroke-opacity="1" stroke-width="3.2"/>
<circle clip-path="url(#clip222)" cx="2148.43" cy="167.246" r="14.4" fill="#009af9" fill-rule="evenodd" fill-opacity="1" stroke="#000000" stroke-opacity="1" stroke-width="3.2"/>
<circle clip-path="url(#clip222)" cx="2148.43" cy="162.047" r="14.4" fill="#009af9" fill-rule="evenodd" fill-opacity="1" stroke="#000000" stroke-opacity="1" stroke-width="3.2"/>
<circle clip-path="url(#clip222)" cx="2148.43" cy="162.047" r="14.4" fill="#009af9" fill-rule="evenodd" fill-opacity="1" stroke="#000000" stroke-opacity="1" stroke-width="3.2"/>
<path clip-path="url(#clip220)" d="
M1976.69 272.585 L2278.07 272.585 L2278.07 168.905 L1976.69 168.905  Z
  " fill="#ffffff" fill-rule="evenodd" fill-opacity="1"/>
<polyline clip-path="url(#clip220)" style="stroke:#000000; stroke-linecap:butt; stroke-linejoin:round; stroke-width:4; stroke-opacity:1; fill:none" points="
  1976.69,272.585 2278.07,272.585 2278.07,168.905 1976.69,168.905 1976.69,272.585 
  "/>
<path clip-path="url(#clip220)" d="M2189.69 240.432 Q2187.89 245.062 2186.17 246.474 Q2184.46 247.886 2181.59 247.886 L2178.19 247.886 L2178.19 244.321 L2180.69 244.321 Q2182.45 244.321 2183.42 243.488 Q2184.39 242.654 2185.57 239.552 L2186.34 237.608 L2175.85 212.099 L2180.36 212.099 L2188.46 232.377 L2196.57 212.099 L2201.08 212.099 L2189.69 240.432 Z" fill="#000000" fill-rule="evenodd" fill-opacity="1" /><path clip-path="url(#clip220)" d="M2208.37 234.089 L2216.01 234.089 L2216.01 207.724 L2207.7 209.391 L2207.7 205.131 L2215.96 203.465 L2220.64 203.465 L2220.64 234.089 L2228.28 234.089 L2228.28 238.025 L2208.37 238.025 L2208.37 234.089 Z" fill="#000000" fill-rule="evenodd" fill-opacity="1" /></svg>
