<?xml version="1.0" encoding="utf-8"?>
<svg xmlns="http://www.w3.org/2000/svg" xmlns:xlink="http://www.w3.org/1999/xlink" width="600" height="400" viewBox="0 0 2400 1600">
<defs>
  <clipPath id="clip380">
    <rect x="0" y="0" width="2400" height="1600"/>
  </clipPath>
</defs>
<path clip-path="url(#clip380)" d="
M0 1600 L2400 1600 L2400 0 L0 0  Z
  " fill="#ffffff" fill-rule="evenodd" fill-opacity="1"/>
<defs>
  <clipPath id="clip381">
    <rect x="480" y="0" width="1681" height="1600"/>
  </clipPath>
</defs>
<path clip-path="url(#clip380)" d="
M212.459 1423.18 L2352.76 1423.18 L2352.76 123.472 L212.459 123.472  Z
  " fill="#ffffff" fill-rule="evenodd" fill-opacity="1"/>
<defs>
  <clipPath id="clip382">
    <rect x="212" y="123" width="2141" height="1301"/>
  </clipPath>
</defs>
<polyline clip-path="url(#clip382)" style="stroke:#000000; stroke-linecap:butt; stroke-linejoin:round; stroke-width:2; stroke-opacity:0.1; fill:none" points="
  441.296,1423.18 441.296,123.472 
  "/>
<polyline clip-path="url(#clip382)" style="stroke:#000000; stroke-linecap:butt; stroke-linejoin:round; stroke-width:2; stroke-opacity:0.1; fill:none" points="
  721.733,1423.18 721.733,123.472 
  "/>
<polyline clip-path="url(#clip382)" style="stroke:#000000; stroke-linecap:butt; stroke-linejoin:round; stroke-width:2; stroke-opacity:0.1; fill:none" points="
  1002.17,1423.18 1002.17,123.472 
  "/>
<polyline clip-path="url(#clip382)" style="stroke:#000000; stroke-linecap:butt; stroke-linejoin:round; stroke-width:2; stroke-opacity:0.1; fill:none" points="
  1282.61,1423.18 1282.61,123.472 
  "/>
<polyline clip-path="url(#clip382)" style="stroke:#000000; stroke-linecap:butt; stroke-linejoin:round; stroke-width:2; stroke-opacity:0.1; fill:none" points="
  1563.04,1423.18 1563.04,123.472 
  "/>
<polyline clip-path="url(#clip382)" style="stroke:#000000; stroke-linecap:butt; stroke-linejoin:round; stroke-width:2; stroke-opacity:0.1; fill:none" points="
  1843.48,1423.18 1843.48,123.472 
  "/>
<polyline clip-path="url(#clip382)" style="stroke:#000000; stroke-linecap:butt; stroke-linejoin:round; stroke-width:2; stroke-opacity:0.1; fill:none" points="
  2123.92,1423.18 2123.92,123.472 
  "/>
<polyline clip-path="url(#clip380)" style="stroke:#000000; stroke-linecap:butt; stroke-linejoin:round; stroke-width:4; stroke-opacity:1; fill:none" points="
  212.459,1423.18 2352.76,1423.18 
  "/>
<polyline clip-path="url(#clip380)" style="stroke:#000000; stroke-linecap:butt; stroke-linejoin:round; stroke-width:4; stroke-opacity:1; fill:none" points="
  441.296,1423.18 441.296,1404.28 
  "/>
<polyline clip-path="url(#clip380)" style="stroke:#000000; stroke-linecap:butt; stroke-linejoin:round; stroke-width:4; stroke-opacity:1; fill:none" points="
  721.733,1423.18 721.733,1404.28 
  "/>
<polyline clip-path="url(#clip380)" style="stroke:#000000; stroke-linecap:butt; stroke-linejoin:round; stroke-width:4; stroke-opacity:1; fill:none" points="
  1002.17,1423.18 1002.17,1404.28 
  "/>
<polyline clip-path="url(#clip380)" style="stroke:#000000; stroke-linecap:butt; stroke-linejoin:round; stroke-width:4; stroke-opacity:1; fill:none" points="
  1282.61,1423.18 1282.61,1404.28 
  "/>
<polyline clip-path="url(#clip380)" style="stroke:#000000; stroke-linecap:butt; stroke-linejoin:round; stroke-width:4; stroke-opacity:1; fill:none" points="
  1563.04,1423.18 1563.04,1404.28 
  "/>
<polyline clip-path="url(#clip380)" style="stroke:#000000; stroke-linecap:butt; stroke-linejoin:round; stroke-width:4; stroke-opacity:1; fill:none" points="
  1843.48,1423.18 1843.48,1404.28 
  "/>
<polyline clip-path="url(#clip380)" style="stroke:#000000; stroke-linecap:butt; stroke-linejoin:round; stroke-width:4; stroke-opacity:1; fill:none" points="
  2123.92,1423.18 2123.92,1404.28 
  "/>
<path clip-path="url(#clip380)" d="M413.032 1481.64 L429.351 1481.64 L429.351 1485.58 L407.407 1485.58 L407.407 1481.64 Q410.069 1478.89 414.652 1474.26 Q419.259 1469.61 420.439 1468.27 Q422.685 1465.74 423.564 1464.01 Q424.467 1462.25 424.467 1460.56 Q424.467 1457.8 422.523 1456.07 Q420.601 1454.33 417.5 1454.33 Q415.3 1454.33 412.847 1455.09 Q410.416 1455.86 407.638 1457.41 L407.638 1452.69 Q410.463 1451.55 412.916 1450.97 Q415.37 1450.39 417.407 1450.39 Q422.777 1450.39 425.972 1453.08 Q429.166 1455.77 429.166 1460.26 Q429.166 1462.39 428.356 1464.31 Q427.569 1466.2 425.462 1468.8 Q424.884 1469.47 421.782 1472.69 Q418.68 1475.88 413.032 1481.64 Z" fill="#000000" fill-rule="evenodd" fill-opacity="1" /><path clip-path="url(#clip380)" d="M439.166 1479.7 L444.05 1479.7 L444.05 1485.58 L439.166 1485.58 L439.166 1479.7 Z" fill="#000000" fill-rule="evenodd" fill-opacity="1" /><path clip-path="url(#clip380)" d="M454.282 1451.02 L472.638 1451.02 L472.638 1454.96 L458.564 1454.96 L458.564 1463.43 Q459.583 1463.08 460.601 1462.92 Q461.62 1462.73 462.638 1462.73 Q468.425 1462.73 471.805 1465.9 Q475.184 1469.08 475.184 1474.49 Q475.184 1480.07 471.712 1483.17 Q468.24 1486.25 461.921 1486.25 Q459.745 1486.25 457.476 1485.88 Q455.231 1485.51 452.823 1484.77 L452.823 1480.07 Q454.907 1481.2 457.129 1481.76 Q459.351 1482.32 461.828 1482.32 Q465.833 1482.32 468.171 1480.21 Q470.508 1478.1 470.508 1474.49 Q470.508 1470.88 468.171 1468.77 Q465.833 1466.67 461.828 1466.67 Q459.953 1466.67 458.078 1467.08 Q456.226 1467.5 454.282 1468.38 L454.282 1451.02 Z" fill="#000000" fill-rule="evenodd" fill-opacity="1" /><path clip-path="url(#clip380)" d="M688.897 1451.02 L707.254 1451.02 L707.254 1454.96 L693.18 1454.96 L693.18 1463.43 Q694.198 1463.08 695.217 1462.92 Q696.235 1462.73 697.254 1462.73 Q703.041 1462.73 706.421 1465.9 Q709.8 1469.08 709.8 1474.49 Q709.8 1480.07 706.328 1483.17 Q702.856 1486.25 696.536 1486.25 Q694.36 1486.25 692.092 1485.88 Q689.847 1485.51 687.439 1484.77 L687.439 1480.07 Q689.522 1481.2 691.745 1481.76 Q693.967 1482.32 696.444 1482.32 Q700.448 1482.32 702.786 1480.21 Q705.124 1478.1 705.124 1474.49 Q705.124 1470.88 702.786 1468.77 Q700.448 1466.67 696.444 1466.67 Q694.569 1466.67 692.694 1467.08 Q690.842 1467.5 688.897 1468.38 L688.897 1451.02 Z" fill="#000000" fill-rule="evenodd" fill-opacity="1" /><path clip-path="url(#clip380)" d="M719.013 1479.7 L723.897 1479.7 L723.897 1485.58 L719.013 1485.58 L719.013 1479.7 Z" fill="#000000" fill-rule="evenodd" fill-opacity="1" /><path clip-path="url(#clip380)" d="M744.082 1454.1 Q740.471 1454.1 738.643 1457.66 Q736.837 1461.2 736.837 1468.33 Q736.837 1475.44 738.643 1479.01 Q740.471 1482.55 744.082 1482.55 Q747.717 1482.55 749.522 1479.01 Q751.351 1475.44 751.351 1468.33 Q751.351 1461.2 749.522 1457.66 Q747.717 1454.1 744.082 1454.1 M744.082 1450.39 Q749.892 1450.39 752.948 1455 Q756.027 1459.58 756.027 1468.33 Q756.027 1477.06 752.948 1481.67 Q749.892 1486.25 744.082 1486.25 Q738.272 1486.25 735.194 1481.67 Q732.138 1477.06 732.138 1468.33 Q732.138 1459.58 735.194 1455 Q738.272 1450.39 744.082 1450.39 Z" fill="#000000" fill-rule="evenodd" fill-opacity="1" /><path clip-path="url(#clip380)" d="M968.49 1451.02 L990.712 1451.02 L990.712 1453.01 L978.166 1485.58 L973.281 1485.58 L985.087 1454.96 L968.49 1454.96 L968.49 1451.02 Z" fill="#000000" fill-rule="evenodd" fill-opacity="1" /><path clip-path="url(#clip380)" d="M999.832 1479.7 L1004.72 1479.7 L1004.72 1485.58 L999.832 1485.58 L999.832 1479.7 Z" fill="#000000" fill-rule="evenodd" fill-opacity="1" /><path clip-path="url(#clip380)" d="M1014.95 1451.02 L1033.3 1451.02 L1033.3 1454.96 L1019.23 1454.96 L1019.23 1463.43 Q1020.25 1463.08 1021.27 1462.92 Q1022.29 1462.73 1023.3 1462.73 Q1029.09 1462.73 1032.47 1465.9 Q1035.85 1469.08 1035.85 1474.49 Q1035.85 1480.07 1032.38 1483.17 Q1028.91 1486.25 1022.59 1486.25 Q1020.41 1486.25 1018.14 1485.88 Q1015.9 1485.51 1013.49 1484.77 L1013.49 1480.07 Q1015.57 1481.2 1017.8 1481.76 Q1020.02 1482.32 1022.49 1482.32 Q1026.5 1482.32 1028.84 1480.21 Q1031.17 1478.1 1031.17 1474.49 Q1031.17 1470.88 1028.84 1468.77 Q1026.5 1466.67 1022.49 1466.67 Q1020.62 1466.67 1018.74 1467.08 Q1016.89 1467.5 1014.95 1468.38 L1014.95 1451.02 Z" fill="#000000" fill-rule="evenodd" fill-opacity="1" /><path clip-path="url(#clip380)" d="M1234.68 1481.64 L1242.32 1481.64 L1242.32 1455.28 L1234.01 1456.95 L1234.01 1452.69 L1242.27 1451.02 L1246.95 1451.02 L1246.95 1481.64 L1254.59 1481.64 L1254.59 1485.58 L1234.68 1485.58 L1234.68 1481.64 Z" fill="#000000" fill-rule="evenodd" fill-opacity="1" /><path clip-path="url(#clip380)" d="M1274.03 1454.1 Q1270.42 1454.1 1268.59 1457.66 Q1266.79 1461.2 1266.79 1468.33 Q1266.79 1475.44 1268.59 1479.01 Q1270.42 1482.55 1274.03 1482.55 Q1277.67 1482.55 1279.47 1479.01 Q1281.3 1475.44 1281.3 1468.33 Q1281.3 1461.2 1279.47 1457.66 Q1277.67 1454.1 1274.03 1454.1 M1274.03 1450.39 Q1279.84 1450.39 1282.9 1455 Q1285.98 1459.58 1285.98 1468.33 Q1285.98 1477.06 1282.9 1481.67 Q1279.84 1486.25 1274.03 1486.25 Q1268.22 1486.25 1265.14 1481.67 Q1262.09 1477.06 1262.09 1468.33 Q1262.09 1459.58 1265.14 1455 Q1268.22 1450.39 1274.03 1450.39 Z" fill="#000000" fill-rule="evenodd" fill-opacity="1" /><path clip-path="url(#clip380)" d="M1294.19 1479.7 L1299.08 1479.7 L1299.08 1485.58 L1294.19 1485.58 L1294.19 1479.7 Z" fill="#000000" fill-rule="evenodd" fill-opacity="1" /><path clip-path="url(#clip380)" d="M1319.26 1454.1 Q1315.65 1454.1 1313.82 1457.66 Q1312.02 1461.2 1312.02 1468.33 Q1312.02 1475.44 1313.82 1479.01 Q1315.65 1482.55 1319.26 1482.55 Q1322.9 1482.55 1324.7 1479.01 Q1326.53 1475.44 1326.53 1468.33 Q1326.53 1461.2 1324.7 1457.66 Q1322.9 1454.1 1319.26 1454.1 M1319.26 1450.39 Q1325.07 1450.39 1328.13 1455 Q1331.21 1459.58 1331.21 1468.33 Q1331.21 1477.06 1328.13 1481.67 Q1325.07 1486.25 1319.26 1486.25 Q1313.45 1486.25 1310.37 1481.67 Q1307.32 1477.06 1307.32 1468.33 Q1307.32 1459.58 1310.37 1455 Q1313.45 1450.39 1319.26 1450.39 Z" fill="#000000" fill-rule="evenodd" fill-opacity="1" /><path clip-path="url(#clip380)" d="M1515.61 1481.64 L1523.25 1481.64 L1523.25 1455.28 L1514.94 1456.95 L1514.94 1452.69 L1523.21 1451.02 L1527.88 1451.02 L1527.88 1481.64 L1535.52 1481.64 L1535.52 1485.58 L1515.61 1485.58 L1515.61 1481.64 Z" fill="#000000" fill-rule="evenodd" fill-opacity="1" /><path clip-path="url(#clip380)" d="M1548.99 1481.64 L1565.31 1481.64 L1565.31 1485.58 L1543.37 1485.58 L1543.37 1481.64 Q1546.03 1478.89 1550.61 1474.26 Q1555.22 1469.61 1556.4 1468.27 Q1558.65 1465.74 1559.53 1464.01 Q1560.43 1462.25 1560.43 1460.56 Q1560.43 1457.8 1558.48 1456.07 Q1556.56 1454.33 1553.46 1454.33 Q1551.26 1454.33 1548.81 1455.09 Q1546.38 1455.86 1543.6 1457.41 L1543.6 1452.69 Q1546.42 1451.55 1548.88 1450.97 Q1551.33 1450.39 1553.37 1450.39 Q1558.74 1450.39 1561.93 1453.08 Q1565.13 1455.77 1565.13 1460.26 Q1565.13 1462.39 1564.32 1464.31 Q1563.53 1466.2 1561.42 1468.8 Q1560.85 1469.47 1557.74 1472.69 Q1554.64 1475.88 1548.99 1481.64 Z" fill="#000000" fill-rule="evenodd" fill-opacity="1" /><path clip-path="url(#clip380)" d="M1575.13 1479.7 L1580.01 1479.7 L1580.01 1485.58 L1575.13 1485.58 L1575.13 1479.7 Z" fill="#000000" fill-rule="evenodd" fill-opacity="1" /><path clip-path="url(#clip380)" d="M1590.24 1451.02 L1608.6 1451.02 L1608.6 1454.96 L1594.53 1454.96 L1594.53 1463.43 Q1595.54 1463.08 1596.56 1462.92 Q1597.58 1462.73 1598.6 1462.73 Q1604.39 1462.73 1607.77 1465.9 Q1611.15 1469.08 1611.15 1474.49 Q1611.15 1480.07 1607.67 1483.17 Q1604.2 1486.25 1597.88 1486.25 Q1595.71 1486.25 1593.44 1485.88 Q1591.19 1485.51 1588.79 1484.77 L1588.79 1480.07 Q1590.87 1481.2 1593.09 1481.76 Q1595.31 1482.32 1597.79 1482.32 Q1601.79 1482.32 1604.13 1480.21 Q1606.47 1478.1 1606.47 1474.49 Q1606.47 1470.88 1604.13 1468.77 Q1601.79 1466.67 1597.79 1466.67 Q1595.91 1466.67 1594.04 1467.08 Q1592.19 1467.5 1590.24 1468.38 L1590.24 1451.02 Z" fill="#000000" fill-rule="evenodd" fill-opacity="1" /><path clip-path="url(#clip380)" d="M1795.55 1481.64 L1803.19 1481.64 L1803.19 1455.28 L1794.88 1456.95 L1794.88 1452.69 L1803.15 1451.02 L1807.82 1451.02 L1807.82 1481.64 L1815.46 1481.64 L1815.46 1485.58 L1795.55 1485.58 L1795.55 1481.64 Z" fill="#000000" fill-rule="evenodd" fill-opacity="1" /><path clip-path="url(#clip380)" d="M1824.95 1451.02 L1843.31 1451.02 L1843.31 1454.96 L1829.23 1454.96 L1829.23 1463.43 Q1830.25 1463.08 1831.27 1462.92 Q1832.29 1462.73 1833.31 1462.73 Q1839.1 1462.73 1842.47 1465.9 Q1845.85 1469.08 1845.85 1474.49 Q1845.85 1480.07 1842.38 1483.17 Q1838.91 1486.25 1832.59 1486.25 Q1830.41 1486.25 1828.15 1485.88 Q1825.9 1485.51 1823.49 1484.77 L1823.49 1480.07 Q1825.58 1481.2 1827.8 1481.76 Q1830.02 1482.32 1832.5 1482.32 Q1836.5 1482.32 1838.84 1480.21 Q1841.18 1478.1 1841.18 1474.49 Q1841.18 1470.88 1838.84 1468.77 Q1836.5 1466.67 1832.5 1466.67 Q1830.62 1466.67 1828.75 1467.08 Q1826.9 1467.5 1824.95 1468.38 L1824.95 1451.02 Z" fill="#000000" fill-rule="evenodd" fill-opacity="1" /><path clip-path="url(#clip380)" d="M1855.07 1479.7 L1859.95 1479.7 L1859.95 1485.58 L1855.07 1485.58 L1855.07 1479.7 Z" fill="#000000" fill-rule="evenodd" fill-opacity="1" /><path clip-path="url(#clip380)" d="M1880.14 1454.1 Q1876.53 1454.1 1874.7 1457.66 Q1872.89 1461.2 1872.89 1468.33 Q1872.89 1475.44 1874.7 1479.01 Q1876.53 1482.55 1880.14 1482.55 Q1883.77 1482.55 1885.58 1479.01 Q1887.41 1475.44 1887.41 1468.33 Q1887.41 1461.2 1885.58 1457.66 Q1883.77 1454.1 1880.14 1454.1 M1880.14 1450.39 Q1885.95 1450.39 1889 1455 Q1892.08 1459.58 1892.08 1468.33 Q1892.08 1477.06 1889 1481.67 Q1885.95 1486.25 1880.14 1486.25 Q1874.33 1486.25 1871.25 1481.67 Q1868.19 1477.06 1868.19 1468.33 Q1868.19 1459.58 1871.25 1455 Q1874.33 1450.39 1880.14 1450.39 Z" fill="#000000" fill-rule="evenodd" fill-opacity="1" /><path clip-path="url(#clip380)" d="M2076.49 1481.64 L2084.13 1481.64 L2084.13 1455.28 L2075.82 1456.95 L2075.82 1452.69 L2084.08 1451.02 L2088.76 1451.02 L2088.76 1481.64 L2096.4 1481.64 L2096.4 1485.58 L2076.49 1485.58 L2076.49 1481.64 Z" fill="#000000" fill-rule="evenodd" fill-opacity="1" /><path clip-path="url(#clip380)" d="M2104.66 1451.02 L2126.88 1451.02 L2126.88 1453.01 L2114.34 1485.58 L2109.45 1485.58 L2121.26 1454.96 L2104.66 1454.96 L2104.66 1451.02 Z" fill="#000000" fill-rule="evenodd" fill-opacity="1" /><path clip-path="url(#clip380)" d="M2136 1479.7 L2140.89 1479.7 L2140.89 1485.58 L2136 1485.58 L2136 1479.7 Z" fill="#000000" fill-rule="evenodd" fill-opacity="1" /><path clip-path="url(#clip380)" d="M2151.12 1451.02 L2169.47 1451.02 L2169.47 1454.96 L2155.4 1454.96 L2155.4 1463.43 Q2156.42 1463.08 2157.44 1462.92 Q2158.46 1462.73 2159.47 1462.73 Q2165.26 1462.73 2168.64 1465.9 Q2172.02 1469.08 2172.02 1474.49 Q2172.02 1480.07 2168.55 1483.17 Q2165.08 1486.25 2158.76 1486.25 Q2156.58 1486.25 2154.31 1485.88 Q2152.07 1485.51 2149.66 1484.77 L2149.66 1480.07 Q2151.74 1481.2 2153.97 1481.76 Q2156.19 1482.32 2158.66 1482.32 Q2162.67 1482.32 2165.01 1480.21 Q2167.34 1478.1 2167.34 1474.49 Q2167.34 1470.88 2165.01 1468.77 Q2162.67 1466.67 2158.66 1466.67 Q2156.79 1466.67 2154.91 1467.08 Q2153.06 1467.5 2151.12 1468.38 L2151.12 1451.02 Z" fill="#000000" fill-rule="evenodd" fill-opacity="1" /><path clip-path="url(#clip380)" d="M981.844 1525.81 L981.844 1562.76 L989.61 1562.76 Q999.445 1562.76 1004 1558.3 Q1008.58 1553.85 1008.58 1544.24 Q1008.58 1534.69 1004 1530.26 Q999.445 1525.81 989.61 1525.81 L981.844 1525.81 M975.414 1520.52 L988.623 1520.52 Q1002.44 1520.52 1008.9 1526.28 Q1015.36 1532.01 1015.36 1544.24 Q1015.36 1556.52 1008.87 1562.28 Q1002.37 1568.04 988.623 1568.04 L975.414 1568.04 L975.414 1520.52 Z" fill="#000000" fill-rule="evenodd" fill-opacity="1" /><path clip-path="url(#clip380)" d="M1041.55 1550.12 Q1034.46 1550.12 1031.72 1551.75 Q1028.98 1553.37 1028.98 1557.29 Q1028.98 1560.4 1031.02 1562.25 Q1033.09 1564.07 1036.62 1564.07 Q1041.49 1564.07 1044.42 1560.63 Q1047.38 1557.16 1047.38 1551.43 L1047.38 1550.12 L1041.55 1550.12 M1053.24 1547.71 L1053.24 1568.04 L1047.38 1568.04 L1047.38 1562.63 Q1045.37 1565.88 1042.38 1567.44 Q1039.39 1568.97 1035.06 1568.97 Q1029.59 1568.97 1026.34 1565.91 Q1023.13 1562.82 1023.13 1557.67 Q1023.13 1551.65 1027.14 1548.6 Q1031.18 1545.54 1039.17 1545.54 L1047.38 1545.54 L1047.38 1544.97 Q1047.38 1540.93 1044.71 1538.73 Q1042.06 1536.5 1037.26 1536.5 Q1034.2 1536.5 1031.31 1537.23 Q1028.41 1537.97 1025.74 1539.43 L1025.74 1534.02 Q1028.95 1532.78 1031.97 1532.17 Q1035 1531.54 1037.86 1531.54 Q1045.6 1531.54 1049.42 1535.55 Q1053.24 1539.56 1053.24 1547.71 Z" fill="#000000" fill-rule="evenodd" fill-opacity="1" /><path clip-path="url(#clip380)" d="M1071.09 1522.27 L1071.09 1532.4 L1083.15 1532.4 L1083.15 1536.95 L1071.09 1536.95 L1071.09 1556.3 Q1071.09 1560.66 1072.27 1561.9 Q1073.48 1563.14 1077.14 1563.14 L1083.15 1563.14 L1083.15 1568.04 L1077.14 1568.04 Q1070.36 1568.04 1067.78 1565.53 Q1065.2 1562.98 1065.2 1556.3 L1065.2 1536.95 L1060.91 1536.95 L1060.91 1532.4 L1065.2 1532.4 L1065.2 1522.27 L1071.09 1522.27 Z" fill="#000000" fill-rule="evenodd" fill-opacity="1" /><path clip-path="url(#clip380)" d="M1107.06 1550.12 Q1099.96 1550.12 1097.22 1551.75 Q1094.48 1553.37 1094.48 1557.29 Q1094.48 1560.4 1096.52 1562.25 Q1098.59 1564.07 1102.12 1564.07 Q1106.99 1564.07 1109.92 1560.63 Q1112.88 1557.16 1112.88 1551.43 L1112.88 1550.12 L1107.06 1550.12 M1118.74 1547.71 L1118.74 1568.04 L1112.88 1568.04 L1112.88 1562.63 Q1110.88 1565.88 1107.88 1567.44 Q1104.89 1568.97 1100.56 1568.97 Q1095.09 1568.97 1091.84 1565.91 Q1088.63 1562.82 1088.63 1557.67 Q1088.63 1551.65 1092.64 1548.6 Q1096.68 1545.54 1104.67 1545.54 L1112.88 1545.54 L1112.88 1544.97 Q1112.88 1540.93 1110.21 1538.73 Q1107.57 1536.5 1102.76 1536.5 Q1099.7 1536.5 1096.81 1537.23 Q1093.91 1537.97 1091.24 1539.43 L1091.24 1534.02 Q1094.45 1532.78 1097.48 1532.17 Q1100.5 1531.54 1103.37 1531.54 Q1111.1 1531.54 1114.92 1535.55 Q1118.74 1539.56 1118.74 1547.71 Z" fill="#000000" fill-rule="evenodd" fill-opacity="1" /><path clip-path="url(#clip380)" d="M1158.21 1525.81 L1158.21 1543.66 L1166.29 1543.66 Q1170.78 1543.66 1173.23 1541.34 Q1175.68 1539.02 1175.68 1534.72 Q1175.68 1530.45 1173.23 1528.13 Q1170.78 1525.81 1166.29 1525.81 L1158.21 1525.81 M1151.78 1520.52 L1166.29 1520.52 Q1174.28 1520.52 1178.35 1524.15 Q1182.46 1527.75 1182.46 1534.72 Q1182.46 1541.75 1178.35 1545.35 Q1174.28 1548.95 1166.29 1548.95 L1158.21 1548.95 L1158.21 1568.04 L1151.78 1568.04 L1151.78 1520.52 Z" fill="#000000" fill-rule="evenodd" fill-opacity="1" /><path clip-path="url(#clip380)" d="M1202.32 1536.5 Q1197.61 1536.5 1194.87 1540.19 Q1192.13 1543.85 1192.13 1550.25 Q1192.13 1556.65 1194.84 1560.34 Q1197.58 1564 1202.32 1564 Q1207 1564 1209.74 1560.31 Q1212.47 1556.62 1212.47 1550.25 Q1212.47 1543.92 1209.74 1540.23 Q1207 1536.5 1202.32 1536.5 M1202.32 1531.54 Q1209.96 1531.54 1214.32 1536.5 Q1218.68 1541.47 1218.68 1550.25 Q1218.68 1559 1214.32 1564 Q1209.96 1568.97 1202.32 1568.97 Q1194.65 1568.97 1190.29 1564 Q1185.96 1559 1185.96 1550.25 Q1185.96 1541.47 1190.29 1536.5 Q1194.65 1531.54 1202.32 1531.54 Z" fill="#000000" fill-rule="evenodd" fill-opacity="1" /><path clip-path="url(#clip380)" d="M1228.39 1532.4 L1234.24 1532.4 L1234.24 1568.04 L1228.39 1568.04 L1228.39 1532.4 M1228.39 1518.52 L1234.24 1518.52 L1234.24 1525.93 L1228.39 1525.93 L1228.39 1518.52 Z" fill="#000000" fill-rule="evenodd" fill-opacity="1" /><path clip-path="url(#clip380)" d="M1276.13 1546.53 L1276.13 1568.04 L1270.27 1568.04 L1270.27 1546.72 Q1270.27 1541.66 1268.3 1539.14 Q1266.33 1536.63 1262.38 1536.63 Q1257.64 1536.63 1254.9 1539.65 Q1252.16 1542.68 1252.16 1547.9 L1252.16 1568.04 L1246.28 1568.04 L1246.28 1532.4 L1252.16 1532.4 L1252.16 1537.93 Q1254.26 1534.72 1257.1 1533.13 Q1259.96 1531.54 1263.69 1531.54 Q1269.83 1531.54 1272.98 1535.36 Q1276.13 1539.14 1276.13 1546.53 Z" fill="#000000" fill-rule="evenodd" fill-opacity="1" /><path clip-path="url(#clip380)" d="M1293.6 1522.27 L1293.6 1532.4 L1305.67 1532.4 L1305.67 1536.95 L1293.6 1536.95 L1293.6 1556.3 Q1293.6 1560.66 1294.78 1561.9 Q1295.99 1563.14 1299.65 1563.14 L1305.67 1563.14 L1305.67 1568.04 L1299.65 1568.04 Q1292.87 1568.04 1290.29 1565.53 Q1287.72 1562.98 1287.72 1556.3 L1287.72 1536.95 L1283.42 1536.95 L1283.42 1532.4 L1287.72 1532.4 L1287.72 1522.27 L1293.6 1522.27 Z" fill="#000000" fill-rule="evenodd" fill-opacity="1" /><path clip-path="url(#clip380)" d="M1334.34 1520.52 L1343 1520.52 L1364.07 1560.28 L1364.07 1520.52 L1370.31 1520.52 L1370.31 1568.04 L1361.65 1568.04 L1340.58 1528.29 L1340.58 1568.04 L1334.34 1568.04 L1334.34 1520.52 Z" fill="#000000" fill-rule="evenodd" fill-opacity="1" /><path clip-path="url(#clip380)" d="M1382.25 1553.98 L1382.25 1532.4 L1388.1 1532.4 L1388.1 1553.75 Q1388.1 1558.81 1390.08 1561.36 Q1392.05 1563.87 1396 1563.87 Q1400.74 1563.87 1403.48 1560.85 Q1406.25 1557.83 1406.25 1552.61 L1406.25 1532.4 L1412.1 1532.4 L1412.1 1568.04 L1406.25 1568.04 L1406.25 1562.57 Q1404.11 1565.82 1401.28 1567.41 Q1398.48 1568.97 1394.76 1568.97 Q1388.61 1568.97 1385.43 1565.15 Q1382.25 1561.33 1382.25 1553.98 M1396.98 1531.54 L1396.98 1531.54 Z" fill="#000000" fill-rule="evenodd" fill-opacity="1" /><path clip-path="url(#clip380)" d="M1451.92 1539.24 Q1454.12 1535.29 1457.17 1533.41 Q1460.23 1531.54 1464.36 1531.54 Q1469.93 1531.54 1472.96 1535.45 Q1475.98 1539.33 1475.98 1546.53 L1475.98 1568.04 L1470.09 1568.04 L1470.09 1546.72 Q1470.09 1541.59 1468.28 1539.11 Q1466.46 1536.63 1462.74 1536.63 Q1458.19 1536.63 1455.55 1539.65 Q1452.91 1542.68 1452.91 1547.9 L1452.91 1568.04 L1447.02 1568.04 L1447.02 1546.72 Q1447.02 1541.56 1445.2 1539.11 Q1443.39 1536.63 1439.6 1536.63 Q1435.11 1536.63 1432.47 1539.68 Q1429.83 1542.71 1429.83 1547.9 L1429.83 1568.04 L1423.94 1568.04 L1423.94 1532.4 L1429.83 1532.4 L1429.83 1537.93 Q1431.84 1534.66 1434.64 1533.1 Q1437.44 1531.54 1441.29 1531.54 Q1445.17 1531.54 1447.88 1533.51 Q1450.61 1535.48 1451.92 1539.24 Z" fill="#000000" fill-rule="evenodd" fill-opacity="1" /><path clip-path="url(#clip380)" d="M1513.25 1550.25 Q1513.25 1543.79 1510.58 1540.13 Q1507.94 1536.44 1503.29 1536.44 Q1498.64 1536.44 1495.97 1540.13 Q1493.33 1543.79 1493.33 1550.25 Q1493.33 1556.71 1495.97 1560.4 Q1498.64 1564.07 1503.29 1564.07 Q1507.94 1564.07 1510.58 1560.4 Q1513.25 1556.71 1513.25 1550.25 M1493.33 1537.81 Q1495.17 1534.62 1497.98 1533.1 Q1500.81 1531.54 1504.72 1531.54 Q1511.22 1531.54 1515.26 1536.69 Q1519.33 1541.85 1519.33 1550.25 Q1519.33 1558.65 1515.26 1563.81 Q1511.22 1568.97 1504.72 1568.97 Q1500.81 1568.97 1497.98 1567.44 Q1495.17 1565.88 1493.33 1562.7 L1493.33 1568.04 L1487.44 1568.04 L1487.44 1518.52 L1493.33 1518.52 L1493.33 1537.81 Z" fill="#000000" fill-rule="evenodd" fill-opacity="1" /><path clip-path="url(#clip380)" d="M1559.53 1548.76 L1559.53 1551.62 L1532.6 1551.62 Q1532.99 1557.67 1536.23 1560.85 Q1539.51 1564 1545.34 1564 Q1548.71 1564 1551.86 1563.17 Q1555.04 1562.35 1558.16 1560.69 L1558.16 1566.23 Q1555.01 1567.57 1551.7 1568.27 Q1548.39 1568.97 1544.99 1568.97 Q1536.46 1568.97 1531.46 1564 Q1526.49 1559.04 1526.49 1550.57 Q1526.49 1541.82 1531.2 1536.69 Q1535.95 1531.54 1543.97 1531.54 Q1551.16 1531.54 1555.33 1536.18 Q1559.53 1540.8 1559.53 1548.76 M1553.68 1547.04 Q1553.61 1542.23 1550.97 1539.37 Q1548.36 1536.5 1544.03 1536.5 Q1539.13 1536.5 1536.17 1539.27 Q1533.24 1542.04 1532.8 1547.07 L1553.68 1547.04 Z" fill="#000000" fill-rule="evenodd" fill-opacity="1" /><path clip-path="url(#clip380)" d="M1589.8 1537.87 Q1588.81 1537.3 1587.64 1537.04 Q1586.49 1536.76 1585.09 1536.76 Q1580.12 1536.76 1577.45 1540 Q1574.81 1543.22 1574.81 1549.27 L1574.81 1568.04 L1568.92 1568.04 L1568.92 1532.4 L1574.81 1532.4 L1574.81 1537.93 Q1576.66 1534.69 1579.62 1533.13 Q1582.58 1531.54 1586.81 1531.54 Q1587.41 1531.54 1588.15 1531.63 Q1588.88 1531.7 1589.77 1531.85 L1589.8 1537.87 Z" fill="#000000" fill-rule="evenodd" fill-opacity="1" /><polyline clip-path="url(#clip382)" style="stroke:#000000; stroke-linecap:butt; stroke-linejoin:round; stroke-width:2; stroke-opacity:0.1; fill:none" points="
  212.459,1304.57 2352.76,1304.57 
  "/>
<polyline clip-path="url(#clip382)" style="stroke:#000000; stroke-linecap:butt; stroke-linejoin:round; stroke-width:2; stroke-opacity:0.1; fill:none" points="
  212.459,1036.94 2352.76,1036.94 
  "/>
<polyline clip-path="url(#clip382)" style="stroke:#000000; stroke-linecap:butt; stroke-linejoin:round; stroke-width:2; stroke-opacity:0.1; fill:none" points="
  212.459,769.308 2352.76,769.308 
  "/>
<polyline clip-path="url(#clip382)" style="stroke:#000000; stroke-linecap:butt; stroke-linejoin:round; stroke-width:2; stroke-opacity:0.1; fill:none" points="
  212.459,501.677 2352.76,501.677 
  "/>
<polyline clip-path="url(#clip382)" style="stroke:#000000; stroke-linecap:butt; stroke-linejoin:round; stroke-width:2; stroke-opacity:0.1; fill:none" points="
  212.459,234.046 2352.76,234.046 
  "/>
<polyline clip-path="url(#clip380)" style="stroke:#000000; stroke-linecap:butt; stroke-linejoin:round; stroke-width:4; stroke-opacity:1; fill:none" points="
  212.459,1423.18 212.459,123.472 
  "/>
<polyline clip-path="url(#clip380)" style="stroke:#000000; stroke-linecap:butt; stroke-linejoin:round; stroke-width:4; stroke-opacity:1; fill:none" points="
  212.459,1304.57 231.357,1304.57 
  "/>
<polyline clip-path="url(#clip380)" style="stroke:#000000; stroke-linecap:butt; stroke-linejoin:round; stroke-width:4; stroke-opacity:1; fill:none" points="
  212.459,1036.94 231.357,1036.94 
  "/>
<polyline clip-path="url(#clip380)" style="stroke:#000000; stroke-linecap:butt; stroke-linejoin:round; stroke-width:4; stroke-opacity:1; fill:none" points="
  212.459,769.308 231.357,769.308 
  "/>
<polyline clip-path="url(#clip380)" style="stroke:#000000; stroke-linecap:butt; stroke-linejoin:round; stroke-width:4; stroke-opacity:1; fill:none" points="
  212.459,501.677 231.357,501.677 
  "/>
<polyline clip-path="url(#clip380)" style="stroke:#000000; stroke-linecap:butt; stroke-linejoin:round; stroke-width:4; stroke-opacity:1; fill:none" points="
  212.459,234.046 231.357,234.046 
  "/>
<path clip-path="url(#clip380)" d="M114.26 1305.02 L143.936 1305.02 L143.936 1308.96 L114.26 1308.96 L114.26 1305.02 Z" fill="#000000" fill-rule="evenodd" fill-opacity="1" /><path clip-path="url(#clip380)" d="M166.876 1291.36 L155.07 1309.81 L166.876 1309.81 L166.876 1291.36 M165.649 1287.29 L171.528 1287.29 L171.528 1309.81 L176.459 1309.81 L176.459 1313.7 L171.528 1313.7 L171.528 1321.85 L166.876 1321.85 L166.876 1313.7 L151.274 1313.7 L151.274 1309.19 L165.649 1287.29 Z" fill="#000000" fill-rule="evenodd" fill-opacity="1" /><path clip-path="url(#clip380)" d="M116.343 1037.39 L146.019 1037.39 L146.019 1041.32 L116.343 1041.32 L116.343 1037.39 Z" fill="#000000" fill-rule="evenodd" fill-opacity="1" /><path clip-path="url(#clip380)" d="M160.14 1050.28 L176.459 1050.28 L176.459 1054.22 L154.515 1054.22 L154.515 1050.28 Q157.177 1047.53 161.76 1042.9 Q166.366 1038.25 167.547 1036.9 Q169.792 1034.38 170.672 1032.64 Q171.575 1030.89 171.575 1029.2 Q171.575 1026.44 169.63 1024.7 Q167.709 1022.97 164.607 1022.97 Q162.408 1022.97 159.954 1023.73 Q157.524 1024.5 154.746 1026.05 L154.746 1021.32 Q157.57 1020.19 160.024 1019.61 Q162.477 1019.03 164.515 1019.03 Q169.885 1019.03 173.079 1021.72 Q176.274 1024.4 176.274 1028.89 Q176.274 1031.02 175.464 1032.95 Q174.677 1034.84 172.57 1037.44 Q171.991 1038.11 168.889 1041.32 Q165.788 1044.52 160.14 1050.28 Z" fill="#000000" fill-rule="evenodd" fill-opacity="1" /><path clip-path="url(#clip380)" d="M164.515 755.106 Q160.903 755.106 159.075 758.671 Q157.269 762.213 157.269 769.342 Q157.269 776.449 159.075 780.014 Q160.903 783.555 164.515 783.555 Q168.149 783.555 169.954 780.014 Q171.783 776.449 171.783 769.342 Q171.783 762.213 169.954 758.671 Q168.149 755.106 164.515 755.106 M164.515 751.403 Q170.325 751.403 173.38 756.009 Q176.459 760.592 176.459 769.342 Q176.459 778.069 173.38 782.676 Q170.325 787.259 164.515 787.259 Q158.704 787.259 155.626 782.676 Q152.57 778.069 152.57 769.342 Q152.57 760.592 155.626 756.009 Q158.704 751.403 164.515 751.403 Z" fill="#000000" fill-rule="evenodd" fill-opacity="1" /><path clip-path="url(#clip380)" d="M160.14 515.022 L176.459 515.022 L176.459 518.957 L154.515 518.957 L154.515 515.022 Q157.177 512.267 161.76 507.637 Q166.366 502.985 167.547 501.642 Q169.792 499.119 170.672 497.383 Q171.575 495.624 171.575 493.934 Q171.575 491.179 169.63 489.443 Q167.709 487.707 164.607 487.707 Q162.408 487.707 159.954 488.471 Q157.524 489.235 154.746 490.786 L154.746 486.063 Q157.57 484.929 160.024 484.35 Q162.477 483.772 164.515 483.772 Q169.885 483.772 173.079 486.457 Q176.274 489.142 176.274 493.633 Q176.274 495.762 175.464 497.684 Q174.677 499.582 172.57 502.174 Q171.991 502.846 168.889 506.063 Q165.788 509.258 160.14 515.022 Z" fill="#000000" fill-rule="evenodd" fill-opacity="1" /><path clip-path="url(#clip380)" d="M166.876 220.84 L155.07 239.289 L166.876 239.289 L166.876 220.84 M165.649 216.766 L171.528 216.766 L171.528 239.289 L176.459 239.289 L176.459 243.178 L171.528 243.178 L171.528 251.326 L166.876 251.326 L166.876 243.178 L151.274 243.178 L151.274 238.664 L165.649 216.766 Z" fill="#000000" fill-rule="evenodd" fill-opacity="1" /><path clip-path="url(#clip380)" d="M16.4842 996.014 L16.4842 965.968 L21.895 965.968 L21.895 989.585 L35.9632 989.585 L35.9632 966.955 L41.3741 966.955 L41.3741 989.585 L58.5933 989.585 L58.5933 965.395 L64.0042 965.395 L64.0042 996.014 L16.4842 996.014 Z" fill="#000000" fill-rule="evenodd" fill-opacity="1" /><path clip-path="url(#clip380)" d="M33.8307 934.426 Q33.2578 935.413 33.0032 936.59 Q32.7167 937.736 32.7167 939.137 Q32.7167 944.102 35.9632 946.776 Q39.1779 949.417 45.2253 949.417 L64.0042 949.417 L64.0042 955.306 L28.3562 955.306 L28.3562 949.417 L33.8944 949.417 Q30.6479 947.571 29.0883 944.611 Q27.4968 941.651 27.4968 937.418 Q27.4968 936.813 27.5923 936.081 Q27.656 935.349 27.8151 934.458 L33.8307 934.426 Z" fill="#000000" fill-rule="evenodd" fill-opacity="1" /><path clip-path="url(#clip380)" d="M33.8307 908.772 Q33.2578 909.759 33.0032 910.937 Q32.7167 912.082 32.7167 913.483 Q32.7167 918.448 35.9632 921.122 Q39.1779 923.764 45.2253 923.764 L64.0042 923.764 L64.0042 929.652 L28.3562 929.652 L28.3562 923.764 L33.8944 923.764 Q30.6479 921.917 29.0883 918.957 Q27.4968 915.997 27.4968 911.764 Q27.4968 911.159 27.5923 910.427 Q27.656 909.695 27.8151 908.804 L33.8307 908.772 Z" fill="#000000" fill-rule="evenodd" fill-opacity="1" /><path clip-path="url(#clip380)" d="M32.4621 890.248 Q32.4621 894.959 36.1542 897.696 Q39.8145 900.433 46.212 900.433 Q52.6095 900.433 56.3017 897.728 Q59.9619 894.991 59.9619 890.248 Q59.9619 885.569 56.2698 882.832 Q52.5777 880.095 46.212 880.095 Q39.8781 880.095 36.186 882.832 Q32.4621 885.569 32.4621 890.248 M27.4968 890.248 Q27.4968 882.609 32.4621 878.249 Q37.4273 873.888 46.212 873.888 Q54.9649 873.888 59.9619 878.249 Q64.9272 882.609 64.9272 890.248 Q64.9272 897.919 59.9619 902.279 Q54.9649 906.608 46.212 906.608 Q37.4273 906.608 32.4621 902.279 Q27.4968 897.919 27.4968 890.248 Z" fill="#000000" fill-rule="evenodd" fill-opacity="1" /><path clip-path="url(#clip380)" d="M33.8307 843.524 Q33.2578 844.51 33.0032 845.688 Q32.7167 846.834 32.7167 848.234 Q32.7167 853.2 35.9632 855.873 Q39.1779 858.515 45.2253 858.515 L64.0042 858.515 L64.0042 864.403 L28.3562 864.403 L28.3562 858.515 L33.8944 858.515 Q30.6479 856.669 29.0883 853.709 Q27.4968 850.749 27.4968 846.516 Q27.4968 845.911 27.5923 845.179 Q27.656 844.447 27.8151 843.556 L33.8307 843.524 Z" fill="#000000" fill-rule="evenodd" fill-opacity="1" /><path clip-path="url(#clip380)" d="M28.3562 816.661 L28.3562 810.804 L64.0042 810.804 L64.0042 816.661 L28.3562 816.661 M14.479 816.661 L14.479 810.804 L21.895 810.804 L21.895 816.661 L14.479 816.661 Z" fill="#000000" fill-rule="evenodd" fill-opacity="1" /><path clip-path="url(#clip380)" d="M42.4881 768.918 L64.0042 768.918 L64.0042 774.774 L42.679 774.774 Q37.6183 774.774 35.1038 776.748 Q32.5894 778.721 32.5894 782.668 Q32.5894 787.41 35.6131 790.147 Q38.6368 792.885 43.8567 792.885 L64.0042 792.885 L64.0042 798.773 L28.3562 798.773 L28.3562 792.885 L33.8944 792.885 Q30.6797 790.784 29.0883 787.951 Q27.4968 785.087 27.4968 781.363 Q27.4968 775.22 31.3163 772.069 Q35.1038 768.918 42.4881 768.918 Z" fill="#000000" fill-rule="evenodd" fill-opacity="1" /><path clip-path="url(#clip380)" d="M20.1444 700.677 L26.9239 700.677 Q23.9002 703.924 22.4043 707.616 Q20.9083 711.276 20.9083 715.414 Q20.9083 723.562 25.9054 727.891 Q30.8707 732.219 40.2919 732.219 Q49.6813 732.219 54.6784 727.891 Q59.6436 723.562 59.6436 715.414 Q59.6436 711.276 58.1477 707.616 Q56.6518 703.924 53.6281 700.677 L60.3439 700.677 Q62.6355 704.051 63.7814 707.839 Q64.9272 711.595 64.9272 715.796 Q64.9272 726.586 58.3387 732.792 Q51.7183 738.999 40.2919 738.999 Q28.8336 738.999 22.2451 732.792 Q15.6248 726.586 15.6248 715.796 Q15.6248 711.531 16.7706 707.775 Q17.8846 703.988 20.1444 700.677 Z" fill="#000000" fill-rule="evenodd" fill-opacity="1" /><path clip-path="url(#clip380)" d="M32.4621 677.188 Q32.4621 681.899 36.1542 684.636 Q39.8145 687.373 46.212 687.373 Q52.6095 687.373 56.3017 684.668 Q59.9619 681.93 59.9619 677.188 Q59.9619 672.509 56.2698 669.772 Q52.5777 667.035 46.212 667.035 Q39.8781 667.035 36.186 669.772 Q32.4621 672.509 32.4621 677.188 M27.4968 677.188 Q27.4968 669.549 32.4621 665.189 Q37.4273 660.828 46.212 660.828 Q54.9649 660.828 59.9619 665.189 Q64.9272 669.549 64.9272 677.188 Q64.9272 684.859 59.9619 689.219 Q54.9649 693.548 46.212 693.548 Q37.4273 693.548 32.4621 689.219 Q27.4968 684.859 27.4968 677.188 Z" fill="#000000" fill-rule="evenodd" fill-opacity="1" /><path clip-path="url(#clip380)" d="M49.9359 651.725 L28.3562 651.725 L28.3562 645.869 L49.7131 645.869 Q54.7739 645.869 57.3202 643.895 Q59.8346 641.922 59.8346 637.975 Q59.8346 633.233 56.8109 630.495 Q53.7872 627.726 48.5673 627.726 L28.3562 627.726 L28.3562 621.87 L64.0042 621.87 L64.0042 627.726 L58.5296 627.726 Q61.7762 629.859 63.3676 632.692 Q64.9272 635.493 64.9272 639.216 Q64.9272 645.359 61.1078 648.542 Q57.2883 651.725 49.9359 651.725 M27.4968 636.988 L27.4968 636.988 Z" fill="#000000" fill-rule="evenodd" fill-opacity="1" /><path clip-path="url(#clip380)" d="M42.4881 580.175 L64.0042 580.175 L64.0042 586.031 L42.679 586.031 Q37.6183 586.031 35.1038 588.004 Q32.5894 589.978 32.5894 593.924 Q32.5894 598.667 35.6131 601.404 Q38.6368 604.141 43.8567 604.141 L64.0042 604.141 L64.0042 610.03 L28.3562 610.03 L28.3562 604.141 L33.8944 604.141 Q30.6797 602.041 29.0883 599.208 Q27.4968 596.343 27.4968 592.619 Q27.4968 586.477 31.3163 583.326 Q35.1038 580.175 42.4881 580.175 Z" fill="#000000" fill-rule="evenodd" fill-opacity="1" /><path clip-path="url(#clip380)" d="M18.2347 562.701 L28.3562 562.701 L28.3562 550.638 L32.9077 550.638 L32.9077 562.701 L52.2594 562.701 Q56.6199 562.701 57.8613 561.523 Q59.1026 560.314 59.1026 556.653 L59.1026 550.638 L64.0042 550.638 L64.0042 556.653 Q64.0042 563.433 61.4897 566.011 Q58.9434 568.589 52.2594 568.589 L32.9077 568.589 L32.9077 572.886 L28.3562 572.886 L28.3562 568.589 L18.2347 568.589 L18.2347 562.701 Z" fill="#000000" fill-rule="evenodd" fill-opacity="1" /><path clip-path="url(#clip380)" d="M634.28 44.2197 Q636.914 45.1109 639.385 48.0275 Q641.896 50.9442 644.408 56.0483 L652.712 72.576 L643.922 72.576 L636.184 57.061 Q633.187 50.9847 630.351 48.9997 Q627.556 47.0148 622.695 47.0148 L613.783 47.0148 L613.783 72.576 L605.6 72.576 L605.6 12.096 L624.072 12.096 Q634.442 12.096 639.547 16.4305 Q644.651 20.7649 644.651 29.5149 Q644.651 35.2267 641.977 38.994 Q639.344 42.7613 634.28 44.2197 M613.783 18.8205 L613.783 40.2903 L624.072 40.2903 Q629.986 40.2903 632.984 37.5762 Q636.022 34.8216 636.022 29.5149 Q636.022 24.2082 632.984 21.5346 Q629.986 18.8205 624.072 18.8205 L613.783 18.8205 Z" fill="#000000" fill-rule="evenodd" fill-opacity="1" /><path clip-path="url(#clip380)" d="M698.001 48.0275 L698.001 51.6733 L663.731 51.6733 Q664.217 59.3701 668.349 63.421 Q672.521 67.4314 679.934 67.4314 Q684.228 67.4314 688.238 66.3781 Q692.289 65.3249 696.259 63.2184 L696.259 70.267 Q692.249 71.9684 688.036 72.8596 Q683.823 73.7508 679.489 73.7508 Q668.632 73.7508 662.272 67.4314 Q655.953 61.1119 655.953 50.3365 Q655.953 39.1965 661.948 32.6746 Q667.984 26.1121 678.192 26.1121 Q687.347 26.1121 692.654 32.0264 Q698.001 37.9003 698.001 48.0275 M690.547 45.84 Q690.466 39.7232 687.104 36.0774 Q683.782 32.4315 678.273 32.4315 Q672.035 32.4315 668.268 35.9558 Q664.541 39.4801 663.974 45.8805 L690.547 45.84 Z" fill="#000000" fill-rule="evenodd" fill-opacity="1" /><path clip-path="url(#clip380)" d="M739.158 28.5427 L739.158 35.5912 Q735.999 33.9709 732.596 33.1607 Q729.193 32.3505 725.547 32.3505 Q719.998 32.3505 717.202 34.0519 Q714.448 35.7533 714.448 39.156 Q714.448 41.7486 716.433 43.2475 Q718.418 44.7058 724.413 46.0426 L726.965 46.6097 Q734.905 48.3111 738.227 51.4303 Q741.589 54.509 741.589 60.0587 Q741.589 66.3781 736.566 70.0644 Q731.583 73.7508 722.833 73.7508 Q719.187 73.7508 715.218 73.0216 Q711.288 72.3329 706.913 70.9151 L706.913 63.2184 Q711.045 65.3654 715.055 66.4591 Q719.066 67.5124 722.995 67.5124 Q728.261 67.5124 731.097 65.73 Q733.933 63.9071 733.933 60.6258 Q733.933 57.5877 731.867 55.9673 Q729.841 54.3469 722.914 52.8481 L720.322 52.2405 Q713.395 50.7821 710.316 47.7845 Q707.237 44.7463 707.237 39.4801 Q707.237 33.0797 711.774 29.5959 Q716.311 26.1121 724.656 26.1121 Q728.788 26.1121 732.434 26.7198 Q736.08 27.3274 739.158 28.5427 Z" fill="#000000" fill-rule="evenodd" fill-opacity="1" /><path clip-path="url(#clip380)" d="M753.458 27.2059 L760.912 27.2059 L760.912 72.576 L753.458 72.576 L753.458 27.2059 M753.458 9.54393 L760.912 9.54393 L760.912 18.9825 L753.458 18.9825 L753.458 9.54393 Z" fill="#000000" fill-rule="evenodd" fill-opacity="1" /><path clip-path="url(#clip380)" d="M806.363 34.0924 L806.363 9.54393 L813.817 9.54393 L813.817 72.576 L806.363 72.576 L806.363 65.7705 Q804.013 69.8214 800.408 71.8063 Q796.843 73.7508 791.82 73.7508 Q783.597 73.7508 778.412 67.1883 Q773.267 60.6258 773.267 49.9314 Q773.267 39.2371 778.412 32.6746 Q783.597 26.1121 791.82 26.1121 Q796.843 26.1121 800.408 28.0971 Q804.013 30.0415 806.363 34.0924 M780.964 49.9314 Q780.964 58.1548 784.326 62.8538 Q787.729 67.5124 793.643 67.5124 Q799.557 67.5124 802.96 62.8538 Q806.363 58.1548 806.363 49.9314 Q806.363 41.7081 802.96 37.0496 Q799.557 32.3505 793.643 32.3505 Q787.729 32.3505 784.326 37.0496 Q780.964 41.7081 780.964 49.9314 Z" fill="#000000" fill-rule="evenodd" fill-opacity="1" /><path clip-path="url(#clip380)" d="M828.4 54.671 L828.4 27.2059 L835.853 27.2059 L835.853 54.3874 Q835.853 60.8284 838.365 64.0691 Q840.877 67.2693 845.9 67.2693 Q851.936 67.2693 855.419 63.421 Q858.944 59.5726 858.944 52.9291 L858.944 27.2059 L866.397 27.2059 L866.397 72.576 L858.944 72.576 L858.944 65.6084 Q856.229 69.7404 852.624 71.7658 Q849.059 73.7508 844.32 73.7508 Q836.502 73.7508 832.451 68.8897 Q828.4 64.0286 828.4 54.671 M847.155 26.1121 L847.155 26.1121 Z" fill="#000000" fill-rule="evenodd" fill-opacity="1" /><path clip-path="url(#clip380)" d="M902.369 49.7694 Q893.336 49.7694 889.852 51.8354 Q886.368 53.9013 886.368 58.8839 Q886.368 62.8538 888.961 65.2034 Q891.594 67.5124 896.09 67.5124 Q902.288 67.5124 906.015 63.1374 Q909.782 58.7219 909.782 51.4303 L909.782 49.7694 L902.369 49.7694 M917.236 46.6907 L917.236 72.576 L909.782 72.576 L909.782 65.6895 Q907.23 69.8214 903.423 71.8063 Q899.615 73.7508 894.105 73.7508 Q887.138 73.7508 883.006 69.8619 Q878.915 65.9325 878.915 59.3701 Q878.915 51.7138 884.019 47.825 Q889.163 43.9361 899.331 43.9361 L909.782 43.9361 L909.782 43.2069 Q909.782 38.0623 906.38 35.2672 Q903.017 32.4315 896.901 32.4315 Q893.012 32.4315 889.325 33.3632 Q885.639 34.295 882.236 36.1584 L882.236 29.2718 Q886.328 27.692 890.176 26.9223 Q894.024 26.1121 897.67 26.1121 Q907.514 26.1121 912.375 31.2163 Q917.236 36.3204 917.236 46.6907 Z" fill="#000000" fill-rule="evenodd" fill-opacity="1" /><path clip-path="url(#clip380)" d="M932.589 9.54393 L940.043 9.54393 L940.043 72.576 L932.589 72.576 L932.589 9.54393 Z" fill="#000000" fill-rule="evenodd" fill-opacity="1" /><path clip-path="url(#clip380)" d="M982.334 12.096 L1020.57 12.096 L1020.57 18.9825 L990.517 18.9825 L990.517 36.8875 L1019.32 36.8875 L1019.32 43.7741 L990.517 43.7741 L990.517 65.6895 L1021.3 65.6895 L1021.3 72.576 L982.334 72.576 L982.334 12.096 Z" fill="#000000" fill-rule="evenodd" fill-opacity="1" /><path clip-path="url(#clip380)" d="M1060.72 34.1734 Q1059.46 33.4443 1057.96 33.1202 Q1056.51 32.7556 1054.72 32.7556 Q1048.4 32.7556 1045 36.8875 Q1041.64 40.9789 1041.64 48.6757 L1041.64 72.576 L1034.15 72.576 L1034.15 27.2059 L1041.64 27.2059 L1041.64 34.2544 Q1043.99 30.1225 1047.76 28.1376 Q1051.52 26.1121 1056.91 26.1121 Q1057.68 26.1121 1058.61 26.2337 Q1059.54 26.3147 1060.68 26.5172 L1060.72 34.1734 Z" fill="#000000" fill-rule="evenodd" fill-opacity="1" /><path clip-path="url(#clip380)" d="M1093.37 34.1734 Q1092.11 33.4443 1090.61 33.1202 Q1089.16 32.7556 1087.37 32.7556 Q1081.05 32.7556 1077.65 36.8875 Q1074.29 40.9789 1074.29 48.6757 L1074.29 72.576 L1066.8 72.576 L1066.8 27.2059 L1074.29 27.2059 L1074.29 34.2544 Q1076.64 30.1225 1080.41 28.1376 Q1084.17 26.1121 1089.56 26.1121 Q1090.33 26.1121 1091.26 26.2337 Q1092.19 26.3147 1093.33 26.5172 L1093.37 34.1734 Z" fill="#000000" fill-rule="evenodd" fill-opacity="1" /><path clip-path="url(#clip380)" d="M1116.95 32.4315 Q1110.95 32.4315 1107.47 37.1306 Q1103.98 41.7891 1103.98 49.9314 Q1103.98 58.0738 1107.43 62.7728 Q1110.91 67.4314 1116.95 67.4314 Q1122.9 67.4314 1126.38 62.7323 Q1129.87 58.0333 1129.87 49.9314 Q1129.87 41.8701 1126.38 37.1711 Q1122.9 32.4315 1116.95 32.4315 M1116.95 26.1121 Q1126.67 26.1121 1132.22 32.4315 Q1137.77 38.7509 1137.77 49.9314 Q1137.77 61.0714 1132.22 67.4314 Q1126.67 73.7508 1116.95 73.7508 Q1107.18 73.7508 1101.63 67.4314 Q1096.12 61.0714 1096.12 49.9314 Q1096.12 38.7509 1101.63 32.4315 Q1107.18 26.1121 1116.95 26.1121 Z" fill="#000000" fill-rule="evenodd" fill-opacity="1" /><path clip-path="url(#clip380)" d="M1176.41 34.1734 Q1175.16 33.4443 1173.66 33.1202 Q1172.2 32.7556 1170.42 32.7556 Q1164.1 32.7556 1160.7 36.8875 Q1157.33 40.9789 1157.33 48.6757 L1157.33 72.576 L1149.84 72.576 L1149.84 27.2059 L1157.33 27.2059 L1157.33 34.2544 Q1159.68 30.1225 1163.45 28.1376 Q1167.22 26.1121 1172.61 26.1121 Q1173.37 26.1121 1174.31 26.2337 Q1175.24 26.3147 1176.37 26.5172 L1176.41 34.1734 Z" fill="#000000" fill-rule="evenodd" fill-opacity="1" /><path clip-path="url(#clip380)" d="M1210.6 27.2059 L1218.06 27.2059 L1218.06 72.576 L1210.6 72.576 L1210.6 27.2059 M1210.6 9.54393 L1218.06 9.54393 L1218.06 18.9825 L1210.6 18.9825 L1210.6 9.54393 Z" fill="#000000" fill-rule="evenodd" fill-opacity="1" /><path clip-path="url(#clip380)" d="M1271.37 45.1919 L1271.37 72.576 L1263.91 72.576 L1263.91 45.4349 Q1263.91 38.994 1261.4 35.7938 Q1258.89 32.5936 1253.87 32.5936 Q1247.83 32.5936 1244.35 36.4419 Q1240.86 40.2903 1240.86 46.9338 L1240.86 72.576 L1233.37 72.576 L1233.37 27.2059 L1240.86 27.2059 L1240.86 34.2544 Q1243.54 30.163 1247.14 28.1376 Q1250.79 26.1121 1255.53 26.1121 Q1263.35 26.1121 1267.36 30.9732 Q1271.37 35.7938 1271.37 45.1919 Z" fill="#000000" fill-rule="evenodd" fill-opacity="1" /><path clip-path="url(#clip380)" d="M1312.93 12.096 L1321.11 12.096 L1321.11 65.6895 L1350.56 65.6895 L1350.56 72.576 L1312.93 72.576 L1312.93 12.096 Z" fill="#000000" fill-rule="evenodd" fill-opacity="1" /><path clip-path="url(#clip380)" d="M1358.83 27.2059 L1366.28 27.2059 L1366.28 72.576 L1358.83 72.576 L1358.83 27.2059 M1358.83 9.54393 L1366.28 9.54393 L1366.28 18.9825 L1358.83 18.9825 L1358.83 9.54393 Z" fill="#000000" fill-rule="evenodd" fill-opacity="1" /><path clip-path="url(#clip380)" d="M1419.59 45.1919 L1419.59 72.576 L1412.14 72.576 L1412.14 45.4349 Q1412.14 38.994 1409.62 35.7938 Q1407.11 32.5936 1402.09 32.5936 Q1396.05 32.5936 1392.57 36.4419 Q1389.09 40.2903 1389.09 46.9338 L1389.09 72.576 L1381.59 72.576 L1381.59 27.2059 L1389.09 27.2059 L1389.09 34.2544 Q1391.76 30.163 1395.36 28.1376 Q1399.01 26.1121 1403.75 26.1121 Q1411.57 26.1121 1415.58 30.9732 Q1419.59 35.7938 1419.59 45.1919 Z" fill="#000000" fill-rule="evenodd" fill-opacity="1" /><path clip-path="url(#clip380)" d="M1473.26 48.0275 L1473.26 51.6733 L1438.99 51.6733 Q1439.48 59.3701 1443.61 63.421 Q1447.78 67.4314 1455.2 67.4314 Q1459.49 67.4314 1463.5 66.3781 Q1467.55 65.3249 1471.52 63.2184 L1471.52 70.267 Q1467.51 71.9684 1463.3 72.8596 Q1459.09 73.7508 1454.75 73.7508 Q1443.89 73.7508 1437.53 67.4314 Q1431.21 61.1119 1431.21 50.3365 Q1431.21 39.1965 1437.21 32.6746 Q1443.25 26.1121 1453.45 26.1121 Q1462.61 26.1121 1467.92 32.0264 Q1473.26 37.9003 1473.26 48.0275 M1465.81 45.84 Q1465.73 39.7232 1462.37 36.0774 Q1459.04 32.4315 1453.54 32.4315 Q1447.3 32.4315 1443.53 35.9558 Q1439.8 39.4801 1439.24 45.8805 L1465.81 45.84 Z" fill="#000000" fill-rule="evenodd" fill-opacity="1" /><path clip-path="url(#clip380)" d="M1506.12 49.7694 Q1497.08 49.7694 1493.6 51.8354 Q1490.11 53.9013 1490.11 58.8839 Q1490.11 62.8538 1492.71 65.2034 Q1495.34 67.5124 1499.84 67.5124 Q1506.04 67.5124 1509.76 63.1374 Q1513.53 58.7219 1513.53 51.4303 L1513.53 49.7694 L1506.12 49.7694 M1520.98 46.6907 L1520.98 72.576 L1513.53 72.576 L1513.53 65.6895 Q1510.98 69.8214 1507.17 71.8063 Q1503.36 73.7508 1497.85 73.7508 Q1490.88 73.7508 1486.75 69.8619 Q1482.66 65.9325 1482.66 59.3701 Q1482.66 51.7138 1487.77 47.825 Q1492.91 43.9361 1503.08 43.9361 L1513.53 43.9361 L1513.53 43.2069 Q1513.53 38.0623 1510.13 35.2672 Q1506.76 32.4315 1500.65 32.4315 Q1496.76 32.4315 1493.07 33.3632 Q1489.39 34.295 1485.98 36.1584 L1485.98 29.2718 Q1490.07 27.692 1493.92 26.9223 Q1497.77 26.1121 1501.42 26.1121 Q1511.26 26.1121 1516.12 31.2163 Q1520.98 36.3204 1520.98 46.6907 Z" fill="#000000" fill-rule="evenodd" fill-opacity="1" /><path clip-path="url(#clip380)" d="M1562.63 34.1734 Q1561.37 33.4443 1559.87 33.1202 Q1558.41 32.7556 1556.63 32.7556 Q1550.31 32.7556 1546.91 36.8875 Q1543.55 40.9789 1543.55 48.6757 L1543.55 72.576 L1536.05 72.576 L1536.05 27.2059 L1543.55 27.2059 L1543.55 34.2544 Q1545.9 30.1225 1549.66 28.1376 Q1553.43 26.1121 1558.82 26.1121 Q1559.59 26.1121 1560.52 26.2337 Q1561.45 26.3147 1562.59 26.5172 L1562.63 34.1734 Z" fill="#000000" fill-rule="evenodd" fill-opacity="1" /><path clip-path="url(#clip380)" d="M1605.32 18.8205 L1605.32 41.5461 L1615.61 41.5461 Q1621.32 41.5461 1624.44 38.5889 Q1627.56 35.6318 1627.56 30.163 Q1627.56 24.7348 1624.44 21.7777 Q1621.32 18.8205 1615.61 18.8205 L1605.32 18.8205 M1597.14 12.096 L1615.61 12.096 Q1625.78 12.096 1630.96 16.714 Q1636.19 21.2916 1636.19 30.163 Q1636.19 39.1155 1630.96 43.6931 Q1625.78 48.2706 1615.61 48.2706 L1605.32 48.2706 L1605.32 72.576 L1597.14 72.576 L1597.14 12.096 Z" fill="#000000" fill-rule="evenodd" fill-opacity="1" /><path clip-path="url(#clip380)" d="M1671.68 34.1734 Q1670.42 33.4443 1668.92 33.1202 Q1667.46 32.7556 1665.68 32.7556 Q1659.36 32.7556 1655.96 36.8875 Q1652.6 40.9789 1652.6 48.6757 L1652.6 72.576 L1645.1 72.576 L1645.1 27.2059 L1652.6 27.2059 L1652.6 34.2544 Q1654.95 30.1225 1658.71 28.1376 Q1662.48 26.1121 1667.87 26.1121 Q1668.64 26.1121 1669.57 26.2337 Q1670.5 26.3147 1671.64 26.5172 L1671.68 34.1734 Z" fill="#000000" fill-rule="evenodd" fill-opacity="1" /><path clip-path="url(#clip380)" d="M1716.48 48.0275 L1716.48 51.6733 L1682.21 51.6733 Q1682.69 59.3701 1686.83 63.421 Q1691 67.4314 1698.41 67.4314 Q1702.71 67.4314 1706.72 66.3781 Q1710.77 65.3249 1714.74 63.2184 L1714.74 70.267 Q1710.73 71.9684 1706.51 72.8596 Q1702.3 73.7508 1697.97 73.7508 Q1687.11 73.7508 1680.75 67.4314 Q1674.43 61.1119 1674.43 50.3365 Q1674.43 39.1965 1680.43 32.6746 Q1686.46 26.1121 1696.67 26.1121 Q1705.83 26.1121 1711.13 32.0264 Q1716.48 37.9003 1716.48 48.0275 M1709.03 45.84 Q1708.94 39.7232 1705.58 36.0774 Q1702.26 32.4315 1696.75 32.4315 Q1690.51 32.4315 1686.75 35.9558 Q1683.02 39.4801 1682.45 45.8805 L1709.03 45.84 Z" fill="#000000" fill-rule="evenodd" fill-opacity="1" /><path clip-path="url(#clip380)" d="M1758.57 34.0924 L1758.57 9.54393 L1766.02 9.54393 L1766.02 72.576 L1758.57 72.576 L1758.57 65.7705 Q1756.22 69.8214 1752.61 71.8063 Q1749.05 73.7508 1744.03 73.7508 Q1735.8 73.7508 1730.62 67.1883 Q1725.47 60.6258 1725.47 49.9314 Q1725.47 39.2371 1730.62 32.6746 Q1735.8 26.1121 1744.03 26.1121 Q1749.05 26.1121 1752.61 28.0971 Q1756.22 30.0415 1758.57 34.0924 M1733.17 49.9314 Q1733.17 58.1548 1736.53 62.8538 Q1739.93 67.5124 1745.85 67.5124 Q1751.76 67.5124 1755.17 62.8538 Q1758.57 58.1548 1758.57 49.9314 Q1758.57 41.7081 1755.17 37.0496 Q1751.76 32.3505 1745.85 32.3505 Q1739.93 32.3505 1736.53 37.0496 Q1733.17 41.7081 1733.17 49.9314 Z" fill="#000000" fill-rule="evenodd" fill-opacity="1" /><path clip-path="url(#clip380)" d="M1781.37 27.2059 L1788.83 27.2059 L1788.83 72.576 L1781.37 72.576 L1781.37 27.2059 M1781.37 9.54393 L1788.83 9.54393 L1788.83 18.9825 L1781.37 18.9825 L1781.37 9.54393 Z" fill="#000000" fill-rule="evenodd" fill-opacity="1" /><path clip-path="url(#clip380)" d="M1837.07 28.9478 L1837.07 35.9153 Q1833.92 34.1734 1830.71 33.3227 Q1827.56 32.4315 1824.31 32.4315 Q1817.06 32.4315 1813.05 37.0496 Q1809.04 41.6271 1809.04 49.9314 Q1809.04 58.2358 1813.05 62.8538 Q1817.06 67.4314 1824.31 67.4314 Q1827.56 67.4314 1830.71 66.5807 Q1833.92 65.6895 1837.07 63.9476 L1837.07 70.8341 Q1833.96 72.2924 1830.59 73.0216 Q1827.27 73.7508 1823.5 73.7508 Q1813.26 73.7508 1807.22 67.3098 Q1801.18 60.8689 1801.18 49.9314 Q1801.18 38.832 1807.26 32.472 Q1813.38 26.1121 1823.99 26.1121 Q1827.43 26.1121 1830.71 26.8413 Q1834 27.5299 1837.07 28.9478 Z" fill="#000000" fill-rule="evenodd" fill-opacity="1" /><path clip-path="url(#clip380)" d="M1857.41 14.324 L1857.41 27.2059 L1872.76 27.2059 L1872.76 32.9987 L1857.41 32.9987 L1857.41 57.6282 Q1857.41 63.1779 1858.91 64.7578 Q1860.45 66.3376 1865.11 66.3376 L1872.76 66.3376 L1872.76 72.576 L1865.11 72.576 Q1856.48 72.576 1853.2 69.3758 Q1849.92 66.1351 1849.92 57.6282 L1849.92 32.9987 L1844.45 32.9987 L1844.45 27.2059 L1849.92 27.2059 L1849.92 14.324 L1857.41 14.324 Z" fill="#000000" fill-rule="evenodd" fill-opacity="1" /><path clip-path="url(#clip380)" d="M1900.15 32.4315 Q1894.15 32.4315 1890.67 37.1306 Q1887.18 41.7891 1887.18 49.9314 Q1887.18 58.0738 1890.63 62.7728 Q1894.11 67.4314 1900.15 67.4314 Q1906.1 67.4314 1909.59 62.7323 Q1913.07 58.0333 1913.07 49.9314 Q1913.07 41.8701 1909.59 37.1711 Q1906.1 32.4315 1900.15 32.4315 M1900.15 26.1121 Q1909.87 26.1121 1915.42 32.4315 Q1920.97 38.7509 1920.97 49.9314 Q1920.97 61.0714 1915.42 67.4314 Q1909.87 73.7508 1900.15 73.7508 Q1890.38 73.7508 1884.84 67.4314 Q1879.33 61.0714 1879.33 49.9314 Q1879.33 38.7509 1884.84 32.4315 Q1890.38 26.1121 1900.15 26.1121 Z" fill="#000000" fill-rule="evenodd" fill-opacity="1" /><path clip-path="url(#clip380)" d="M1959.61 34.1734 Q1958.36 33.4443 1956.86 33.1202 Q1955.4 32.7556 1953.62 32.7556 Q1947.3 32.7556 1943.9 36.8875 Q1940.54 40.9789 1940.54 48.6757 L1940.54 72.576 L1933.04 72.576 L1933.04 27.2059 L1940.54 27.2059 L1940.54 34.2544 Q1942.88 30.1225 1946.65 28.1376 Q1950.42 26.1121 1955.81 26.1121 Q1956.58 26.1121 1957.51 26.2337 Q1958.44 26.3147 1959.57 26.5172 L1959.61 34.1734 Z" fill="#000000" fill-rule="evenodd" fill-opacity="1" /><circle clip-path="url(#clip382)" cx="273.033" cy="1168" r="14.4" fill="#009af9" fill-rule="evenodd" fill-opacity="1" stroke="#000000" stroke-opacity="1" stroke-width="3.2"/>
<circle clip-path="url(#clip382)" cx="385.208" cy="912.683" r="14.4" fill="#009af9" fill-rule="evenodd" fill-opacity="1" stroke="#000000" stroke-opacity="1" stroke-width="3.2"/>
<circle clip-path="url(#clip382)" cx="497.383" cy="1075.57" r="14.4" fill="#009af9" fill-rule="evenodd" fill-opacity="1" stroke="#000000" stroke-opacity="1" stroke-width="3.2"/>
<circle clip-path="url(#clip382)" cx="609.558" cy="160.256" r="14.4" fill="#009af9" fill-rule="evenodd" fill-opacity="1" stroke="#000000" stroke-opacity="1" stroke-width="3.2"/>
<circle clip-path="url(#clip382)" cx="721.733" cy="190.129" r="14.4" fill="#009af9" fill-rule="evenodd" fill-opacity="1" stroke="#000000" stroke-opacity="1" stroke-width="3.2"/>
<circle clip-path="url(#clip382)" cx="833.908" cy="411.34" r="14.4" fill="#009af9" fill-rule="evenodd" fill-opacity="1" stroke="#000000" stroke-opacity="1" stroke-width="3.2"/>
<circle clip-path="url(#clip382)" cx="946.083" cy="197.396" r="14.4" fill="#009af9" fill-rule="evenodd" fill-opacity="1" stroke="#000000" stroke-opacity="1" stroke-width="3.2"/>
<circle clip-path="url(#clip382)" cx="1058.26" cy="1386.4" r="14.4" fill="#009af9" fill-rule="evenodd" fill-opacity="1" stroke="#000000" stroke-opacity="1" stroke-width="3.2"/>
<circle clip-path="url(#clip382)" cx="1170.43" cy="716.916" r="14.4" fill="#009af9" fill-rule="evenodd" fill-opacity="1" stroke="#000000" stroke-opacity="1" stroke-width="3.2"/>
<circle clip-path="url(#clip382)" cx="1282.61" cy="276.719" r="14.4" fill="#009af9" fill-rule="evenodd" fill-opacity="1" stroke="#000000" stroke-opacity="1" stroke-width="3.2"/>
<circle clip-path="url(#clip382)" cx="1394.78" cy="953.466" r="14.4" fill="#009af9" fill-rule="evenodd" fill-opacity="1" stroke="#000000" stroke-opacity="1" stroke-width="3.2"/>
<circle clip-path="url(#clip382)" cx="1506.96" cy="689.267" r="14.4" fill="#009af9" fill-rule="evenodd" fill-opacity="1" stroke="#000000" stroke-opacity="1" stroke-width="3.2"/>
<circle clip-path="url(#clip382)" cx="1619.13" cy="1117.15" r="14.4" fill="#009af9" fill-rule="evenodd" fill-opacity="1" stroke="#000000" stroke-opacity="1" stroke-width="3.2"/>
<circle clip-path="url(#clip382)" cx="1731.31" cy="443.84" r="14.4" fill="#009af9" fill-rule="evenodd" fill-opacity="1" stroke="#000000" stroke-opacity="1" stroke-width="3.2"/>
<circle clip-path="url(#clip382)" cx="1843.48" cy="1132.09" r="14.4" fill="#009af9" fill-rule="evenodd" fill-opacity="1" stroke="#000000" stroke-opacity="1" stroke-width="3.2"/>
<circle clip-path="url(#clip382)" cx="1955.66" cy="841.451" r="14.4" fill="#009af9" fill-rule="evenodd" fill-opacity="1" stroke="#000000" stroke-opacity="1" stroke-width="3.2"/>
<circle clip-path="url(#clip382)" cx="2067.83" cy="910.478" r="14.4" fill="#009af9" fill-rule="evenodd" fill-opacity="1" stroke="#000000" stroke-opacity="1" stroke-width="3.2"/>
<circle clip-path="url(#clip382)" cx="2180.01" cy="1043.89" r="14.4" fill="#009af9" fill-rule="evenodd" fill-opacity="1" stroke="#000000" stroke-opacity="1" stroke-width="3.2"/>
<circle clip-path="url(#clip382)" cx="2292.18" cy="989.801" r="14.4" fill="#009af9" fill-rule="evenodd" fill-opacity="1" stroke="#000000" stroke-opacity="1" stroke-width="3.2"/>
<path clip-path="url(#clip380)" d="
M1991.17 270.476 L2281.41 270.476 L2281.41 166.796 L1991.17 166.796  Z
  " fill="#ffffff" fill-rule="evenodd" fill-opacity="1"/>
<polyline clip-path="url(#clip380)" style="stroke:#000000; stroke-linecap:butt; stroke-linejoin:round; stroke-width:4; stroke-opacity:1; fill:none" points="
  1991.17,270.476 2281.41,270.476 2281.41,166.796 1991.17,166.796 1991.17,270.476 
  "/>
<circle clip-path="url(#clip380)" cx="2086.3" cy="218.636" r="23.04" fill="#009af9" fill-rule="evenodd" fill-opacity="1" stroke="#000000" stroke-opacity="1" stroke-width="5.12"/>
<path clip-path="url(#clip380)" d="M2195.26 238.323 Q2193.46 242.953 2191.74 244.365 Q2190.03 245.777 2187.16 245.777 L2183.76 245.777 L2183.76 242.212 L2186.26 242.212 Q2188.02 242.212 2188.99 241.379 Q2189.96 240.545 2191.14 237.443 L2191.91 235.499 L2181.42 209.99 L2185.93 209.99 L2194.04 230.268 L2202.14 209.99 L2206.65 209.99 L2195.26 238.323 Z" fill="#000000" fill-rule="evenodd" fill-opacity="1" /><path clip-path="url(#clip380)" d="M2213.94 231.981 L2221.58 231.981 L2221.58 205.615 L2213.27 207.282 L2213.27 203.022 L2221.54 201.356 L2226.21 201.356 L2226.21 231.981 L2233.85 231.981 L2233.85 235.916 L2213.94 235.916 L2213.94 231.981 Z" fill="#000000" fill-rule="evenodd" fill-opacity="1" /></svg>
