<?xml version="1.0" encoding="utf-8"?>
<svg xmlns="http://www.w3.org/2000/svg" xmlns:xlink="http://www.w3.org/1999/xlink" width="600" height="400" viewBox="0 0 2400 1600">
<defs>
  <clipPath id="clip790">
    <rect x="0" y="0" width="2400" height="1600"/>
  </clipPath>
</defs>
<path clip-path="url(#clip790)" d="
M0 1600 L2400 1600 L2400 0 L0 0  Z
  " fill="#ffffff" fill-rule="evenodd" fill-opacity="1"/>
<defs>
  <clipPath id="clip791">
    <rect x="480" y="0" width="1681" height="1600"/>
  </clipPath>
</defs>
<path clip-path="url(#clip790)" d="
M112.177 1486.45 L2352.76 1486.45 L2352.76 123.472 L112.177 123.472  Z
  " fill="#ffffff" fill-rule="evenodd" fill-opacity="1"/>
<defs>
  <clipPath id="clip792">
    <rect x="112" y="123" width="2242" height="1364"/>
  </clipPath>
</defs>
<polyline clip-path="url(#clip792)" style="stroke:#000000; stroke-linecap:butt; stroke-linejoin:round; stroke-width:2; stroke-opacity:0.1; fill:none" points="
  181.056,1486.45 181.056,123.472 
  "/>
<polyline clip-path="url(#clip792)" style="stroke:#000000; stroke-linecap:butt; stroke-linejoin:round; stroke-width:2; stroke-opacity:0.1; fill:none" points="
  768.174,1486.45 768.174,123.472 
  "/>
<polyline clip-path="url(#clip792)" style="stroke:#000000; stroke-linecap:butt; stroke-linejoin:round; stroke-width:2; stroke-opacity:0.1; fill:none" points="
  1355.29,1486.45 1355.29,123.472 
  "/>
<polyline clip-path="url(#clip792)" style="stroke:#000000; stroke-linecap:butt; stroke-linejoin:round; stroke-width:2; stroke-opacity:0.1; fill:none" points="
  1942.41,1486.45 1942.41,123.472 
  "/>
<polyline clip-path="url(#clip790)" style="stroke:#000000; stroke-linecap:butt; stroke-linejoin:round; stroke-width:4; stroke-opacity:1; fill:none" points="
  112.177,1486.45 2352.76,1486.45 
  "/>
<polyline clip-path="url(#clip790)" style="stroke:#000000; stroke-linecap:butt; stroke-linejoin:round; stroke-width:4; stroke-opacity:1; fill:none" points="
  181.056,1486.45 181.056,1467.55 
  "/>
<polyline clip-path="url(#clip790)" style="stroke:#000000; stroke-linecap:butt; stroke-linejoin:round; stroke-width:4; stroke-opacity:1; fill:none" points="
  768.174,1486.45 768.174,1467.55 
  "/>
<polyline clip-path="url(#clip790)" style="stroke:#000000; stroke-linecap:butt; stroke-linejoin:round; stroke-width:4; stroke-opacity:1; fill:none" points="
  1355.29,1486.45 1355.29,1467.55 
  "/>
<polyline clip-path="url(#clip790)" style="stroke:#000000; stroke-linecap:butt; stroke-linejoin:round; stroke-width:4; stroke-opacity:1; fill:none" points="
  1942.41,1486.45 1942.41,1467.55 
  "/>
<path clip-path="url(#clip790)" d="M52.8505 1544.91 L69.1699 1544.91 L69.1699 1548.85 L47.2255 1548.85 L47.2255 1544.91 Q49.8876 1542.16 54.4709 1537.53 Q59.0773 1532.88 60.2579 1531.53 Q62.5032 1529.01 63.3829 1527.27 Q64.2856 1525.51 64.2856 1523.82 Q64.2856 1521.07 62.3412 1519.33 Q60.4199 1517.6 57.3181 1517.6 Q55.119 1517.6 52.6653 1518.36 Q50.2348 1519.13 47.457 1520.68 L47.457 1515.95 Q50.2811 1514.82 52.7348 1514.24 Q55.1885 1513.66 57.2255 1513.66 Q62.5958 1513.66 65.7902 1516.35 Q68.9847 1519.03 68.9847 1523.52 Q68.9847 1525.65 68.1745 1527.57 Q67.3875 1529.47 65.281 1532.07 Q64.7023 1532.74 61.6005 1535.95 Q58.4986 1539.15 52.8505 1544.91 Z" fill="#000000" fill-rule="evenodd" fill-opacity="1" /><path clip-path="url(#clip790)" d="M88.9846 1517.37 Q85.3735 1517.37 83.5448 1520.93 Q81.7392 1524.47 81.7392 1531.6 Q81.7392 1538.71 83.5448 1542.27 Q85.3735 1545.82 88.9846 1545.82 Q92.6188 1545.82 94.4244 1542.27 Q96.253 1538.71 96.253 1531.6 Q96.253 1524.47 94.4244 1520.93 Q92.6188 1517.37 88.9846 1517.37 M88.9846 1513.66 Q94.7947 1513.66 97.8503 1518.27 Q100.929 1522.85 100.929 1531.6 Q100.929 1540.33 97.8503 1544.94 Q94.7947 1549.52 88.9846 1549.52 Q83.1744 1549.52 80.0957 1544.94 Q77.0402 1540.33 77.0402 1531.6 Q77.0402 1522.85 80.0957 1518.27 Q83.1744 1513.66 88.9846 1513.66 Z" fill="#000000" fill-rule="evenodd" fill-opacity="1" /><path clip-path="url(#clip790)" d="M119.146 1517.37 Q115.535 1517.37 113.707 1520.93 Q111.901 1524.47 111.901 1531.6 Q111.901 1538.71 113.707 1542.27 Q115.535 1545.82 119.146 1545.82 Q122.781 1545.82 124.586 1542.27 Q126.415 1538.71 126.415 1531.6 Q126.415 1524.47 124.586 1520.93 Q122.781 1517.37 119.146 1517.37 M119.146 1513.66 Q124.957 1513.66 128.012 1518.27 Q131.091 1522.85 131.091 1531.6 Q131.091 1540.33 128.012 1544.94 Q124.957 1549.52 119.146 1549.52 Q113.336 1549.52 110.258 1544.94 Q107.202 1540.33 107.202 1531.6 Q107.202 1522.85 110.258 1518.27 Q113.336 1513.66 119.146 1513.66 Z" fill="#000000" fill-rule="evenodd" fill-opacity="1" /><path clip-path="url(#clip790)" d="M140.119 1544.91 L147.757 1544.91 L147.757 1518.55 L139.447 1520.21 L139.447 1515.95 L147.711 1514.29 L152.387 1514.29 L152.387 1544.91 L160.026 1544.91 L160.026 1548.85 L140.119 1548.85 L140.119 1544.91 Z" fill="#000000" fill-rule="evenodd" fill-opacity="1" /><path clip-path="url(#clip790)" d="M166.716 1533.96 L179.192 1533.96 L179.192 1537.76 L166.716 1537.76 L166.716 1533.96 Z" fill="#000000" fill-rule="evenodd" fill-opacity="1" /><path clip-path="url(#clip790)" d="M196.577 1517.37 Q192.965 1517.37 191.137 1520.93 Q189.331 1524.47 189.331 1531.6 Q189.331 1538.71 191.137 1542.27 Q192.965 1545.82 196.577 1545.82 Q200.211 1545.82 202.016 1542.27 Q203.845 1538.71 203.845 1531.6 Q203.845 1524.47 202.016 1520.93 Q200.211 1517.37 196.577 1517.37 M196.577 1513.66 Q202.387 1513.66 205.442 1518.27 Q208.521 1522.85 208.521 1531.6 Q208.521 1540.33 205.442 1544.94 Q202.387 1549.52 196.577 1549.52 Q190.766 1549.52 187.688 1544.94 Q184.632 1540.33 184.632 1531.6 Q184.632 1522.85 187.688 1518.27 Q190.766 1513.66 196.577 1513.66 Z" fill="#000000" fill-rule="evenodd" fill-opacity="1" /><path clip-path="url(#clip790)" d="M217.549 1544.91 L225.188 1544.91 L225.188 1518.55 L216.877 1520.21 L216.877 1515.95 L225.141 1514.29 L229.817 1514.29 L229.817 1544.91 L237.456 1544.91 L237.456 1548.85 L217.549 1548.85 L217.549 1544.91 Z" fill="#000000" fill-rule="evenodd" fill-opacity="1" /><path clip-path="url(#clip790)" d="M244.146 1533.96 L256.623 1533.96 L256.623 1537.76 L244.146 1537.76 L244.146 1533.96 Z" fill="#000000" fill-rule="evenodd" fill-opacity="1" /><path clip-path="url(#clip790)" d="M274.007 1517.37 Q270.396 1517.37 268.567 1520.93 Q266.761 1524.47 266.761 1531.6 Q266.761 1538.71 268.567 1542.27 Q270.396 1545.82 274.007 1545.82 Q277.641 1545.82 279.447 1542.27 Q281.275 1538.71 281.275 1531.6 Q281.275 1524.47 279.447 1520.93 Q277.641 1517.37 274.007 1517.37 M274.007 1513.66 Q279.817 1513.66 282.872 1518.27 Q285.951 1522.85 285.951 1531.6 Q285.951 1540.33 282.872 1544.94 Q279.817 1549.52 274.007 1549.52 Q268.197 1549.52 265.118 1544.94 Q262.062 1540.33 262.062 1531.6 Q262.062 1522.85 265.118 1518.27 Q268.197 1513.66 274.007 1513.66 Z" fill="#000000" fill-rule="evenodd" fill-opacity="1" /><path clip-path="url(#clip790)" d="M294.979 1544.91 L302.618 1544.91 L302.618 1518.55 L294.308 1520.21 L294.308 1515.95 L302.571 1514.29 L307.247 1514.29 L307.247 1544.91 L314.886 1544.91 L314.886 1548.85 L294.979 1548.85 L294.979 1544.91 Z" fill="#000000" fill-rule="evenodd" fill-opacity="1" /><path clip-path="url(#clip790)" d="M639.969 1544.91 L656.288 1544.91 L656.288 1548.85 L634.344 1548.85 L634.344 1544.91 Q637.006 1542.16 641.589 1537.53 Q646.195 1532.88 647.376 1531.53 Q649.621 1529.01 650.501 1527.27 Q651.404 1525.51 651.404 1523.82 Q651.404 1521.07 649.459 1519.33 Q647.538 1517.6 644.436 1517.6 Q642.237 1517.6 639.783 1518.36 Q637.353 1519.13 634.575 1520.68 L634.575 1515.95 Q637.399 1514.82 639.853 1514.24 Q642.306 1513.66 644.344 1513.66 Q649.714 1513.66 652.908 1516.35 Q656.103 1519.03 656.103 1523.52 Q656.103 1525.65 655.293 1527.57 Q654.505 1529.47 652.399 1532.07 Q651.82 1532.74 648.718 1535.95 Q645.617 1539.15 639.969 1544.91 Z" fill="#000000" fill-rule="evenodd" fill-opacity="1" /><path clip-path="url(#clip790)" d="M676.103 1517.37 Q672.492 1517.37 670.663 1520.93 Q668.857 1524.47 668.857 1531.6 Q668.857 1538.71 670.663 1542.27 Q672.492 1545.82 676.103 1545.82 Q679.737 1545.82 681.542 1542.27 Q683.371 1538.71 683.371 1531.6 Q683.371 1524.47 681.542 1520.93 Q679.737 1517.37 676.103 1517.37 M676.103 1513.66 Q681.913 1513.66 684.968 1518.27 Q688.047 1522.85 688.047 1531.6 Q688.047 1540.33 684.968 1544.94 Q681.913 1549.52 676.103 1549.52 Q670.292 1549.52 667.214 1544.94 Q664.158 1540.33 664.158 1531.6 Q664.158 1522.85 667.214 1518.27 Q670.292 1513.66 676.103 1513.66 Z" fill="#000000" fill-rule="evenodd" fill-opacity="1" /><path clip-path="url(#clip790)" d="M706.264 1517.37 Q702.653 1517.37 700.825 1520.93 Q699.019 1524.47 699.019 1531.6 Q699.019 1538.71 700.825 1542.27 Q702.653 1545.82 706.264 1545.82 Q709.899 1545.82 711.704 1542.27 Q713.533 1538.71 713.533 1531.6 Q713.533 1524.47 711.704 1520.93 Q709.899 1517.37 706.264 1517.37 M706.264 1513.66 Q712.075 1513.66 715.13 1518.27 Q718.209 1522.85 718.209 1531.6 Q718.209 1540.33 715.13 1544.94 Q712.075 1549.52 706.264 1549.52 Q700.454 1549.52 697.376 1544.94 Q694.32 1540.33 694.32 1531.6 Q694.32 1522.85 697.376 1518.27 Q700.454 1513.66 706.264 1513.66 Z" fill="#000000" fill-rule="evenodd" fill-opacity="1" /><path clip-path="url(#clip790)" d="M737.005 1529.7 Q733.857 1529.7 732.005 1531.86 Q730.176 1534.01 730.176 1537.76 Q730.176 1541.49 732.005 1543.66 Q733.857 1545.82 737.005 1545.82 Q740.153 1545.82 741.982 1543.66 Q743.834 1541.49 743.834 1537.76 Q743.834 1534.01 741.982 1531.86 Q740.153 1529.7 737.005 1529.7 M746.287 1515.05 L746.287 1519.31 Q744.528 1518.48 742.723 1518.04 Q740.94 1517.6 739.181 1517.6 Q734.551 1517.6 732.098 1520.72 Q729.667 1523.85 729.32 1530.17 Q730.686 1528.15 732.746 1527.09 Q734.806 1526 737.283 1526 Q742.491 1526 745.5 1529.17 Q748.533 1532.32 748.533 1537.76 Q748.533 1543.08 745.385 1546.3 Q742.236 1549.52 737.005 1549.52 Q731.01 1549.52 727.838 1544.94 Q724.667 1540.33 724.667 1531.6 Q724.667 1523.41 728.556 1518.55 Q732.445 1513.66 738.996 1513.66 Q740.755 1513.66 742.537 1514.01 Q744.343 1514.36 746.287 1515.05 Z" fill="#000000" fill-rule="evenodd" fill-opacity="1" /><path clip-path="url(#clip790)" d="M753.834 1533.96 L766.31 1533.96 L766.31 1537.76 L753.834 1537.76 L753.834 1533.96 Z" fill="#000000" fill-rule="evenodd" fill-opacity="1" /><path clip-path="url(#clip790)" d="M783.695 1517.37 Q780.084 1517.37 778.255 1520.93 Q776.449 1524.47 776.449 1531.6 Q776.449 1538.71 778.255 1542.27 Q780.084 1545.82 783.695 1545.82 Q787.329 1545.82 789.134 1542.27 Q790.963 1538.71 790.963 1531.6 Q790.963 1524.47 789.134 1520.93 Q787.329 1517.37 783.695 1517.37 M783.695 1513.66 Q789.505 1513.66 792.56 1518.27 Q795.639 1522.85 795.639 1531.6 Q795.639 1540.33 792.56 1544.94 Q789.505 1549.52 783.695 1549.52 Q777.884 1549.52 774.806 1544.94 Q771.75 1540.33 771.75 1531.6 Q771.75 1522.85 774.806 1518.27 Q777.884 1513.66 783.695 1513.66 Z" fill="#000000" fill-rule="evenodd" fill-opacity="1" /><path clip-path="url(#clip790)" d="M804.667 1544.91 L812.306 1544.91 L812.306 1518.55 L803.995 1520.21 L803.995 1515.95 L812.259 1514.29 L816.935 1514.29 L816.935 1544.91 L824.574 1544.91 L824.574 1548.85 L804.667 1548.85 L804.667 1544.91 Z" fill="#000000" fill-rule="evenodd" fill-opacity="1" /><path clip-path="url(#clip790)" d="M831.264 1533.96 L843.741 1533.96 L843.741 1537.76 L831.264 1537.76 L831.264 1533.96 Z" fill="#000000" fill-rule="evenodd" fill-opacity="1" /><path clip-path="url(#clip790)" d="M861.125 1517.37 Q857.514 1517.37 855.685 1520.93 Q853.879 1524.47 853.879 1531.6 Q853.879 1538.71 855.685 1542.27 Q857.514 1545.82 861.125 1545.82 Q864.759 1545.82 866.565 1542.27 Q868.393 1538.71 868.393 1531.6 Q868.393 1524.47 866.565 1520.93 Q864.759 1517.37 861.125 1517.37 M861.125 1513.66 Q866.935 1513.66 869.99 1518.27 Q873.069 1522.85 873.069 1531.6 Q873.069 1540.33 869.99 1544.94 Q866.935 1549.52 861.125 1549.52 Q855.315 1549.52 852.236 1544.94 Q849.18 1540.33 849.18 1531.6 Q849.18 1522.85 852.236 1518.27 Q855.315 1513.66 861.125 1513.66 Z" fill="#000000" fill-rule="evenodd" fill-opacity="1" /><path clip-path="url(#clip790)" d="M882.097 1544.91 L889.736 1544.91 L889.736 1518.55 L881.426 1520.21 L881.426 1515.95 L889.689 1514.29 L894.365 1514.29 L894.365 1544.91 L902.004 1544.91 L902.004 1548.85 L882.097 1548.85 L882.097 1544.91 Z" fill="#000000" fill-rule="evenodd" fill-opacity="1" /><path clip-path="url(#clip790)" d="M1227.09 1544.91 L1243.41 1544.91 L1243.41 1548.85 L1221.46 1548.85 L1221.46 1544.91 Q1224.12 1542.16 1228.71 1537.53 Q1233.31 1532.88 1234.49 1531.53 Q1236.74 1529.01 1237.62 1527.27 Q1238.52 1525.51 1238.52 1523.82 Q1238.52 1521.07 1236.58 1519.33 Q1234.66 1517.6 1231.55 1517.6 Q1229.36 1517.6 1226.9 1518.36 Q1224.47 1519.13 1221.69 1520.68 L1221.69 1515.95 Q1224.52 1514.82 1226.97 1514.24 Q1229.42 1513.66 1231.46 1513.66 Q1236.83 1513.66 1240.03 1516.35 Q1243.22 1519.03 1243.22 1523.52 Q1243.22 1525.65 1242.41 1527.57 Q1241.62 1529.47 1239.52 1532.07 Q1238.94 1532.74 1235.84 1535.95 Q1232.73 1539.15 1227.09 1544.91 Z" fill="#000000" fill-rule="evenodd" fill-opacity="1" /><path clip-path="url(#clip790)" d="M1263.22 1517.37 Q1259.61 1517.37 1257.78 1520.93 Q1255.98 1524.47 1255.98 1531.6 Q1255.98 1538.71 1257.78 1542.27 Q1259.61 1545.82 1263.22 1545.82 Q1266.85 1545.82 1268.66 1542.27 Q1270.49 1538.71 1270.49 1531.6 Q1270.49 1524.47 1268.66 1520.93 Q1266.85 1517.37 1263.22 1517.37 M1263.22 1513.66 Q1269.03 1513.66 1272.09 1518.27 Q1275.17 1522.85 1275.17 1531.6 Q1275.17 1540.33 1272.09 1544.94 Q1269.03 1549.52 1263.22 1549.52 Q1257.41 1549.52 1254.33 1544.94 Q1251.28 1540.33 1251.28 1531.6 Q1251.28 1522.85 1254.33 1518.27 Q1257.41 1513.66 1263.22 1513.66 Z" fill="#000000" fill-rule="evenodd" fill-opacity="1" /><path clip-path="url(#clip790)" d="M1284.19 1544.91 L1291.83 1544.91 L1291.83 1518.55 L1283.52 1520.21 L1283.52 1515.95 L1291.79 1514.29 L1296.46 1514.29 L1296.46 1544.91 L1304.1 1544.91 L1304.1 1548.85 L1284.19 1548.85 L1284.19 1544.91 Z" fill="#000000" fill-rule="evenodd" fill-opacity="1" /><path clip-path="url(#clip790)" d="M1314.35 1544.91 L1321.99 1544.91 L1321.99 1518.55 L1313.68 1520.21 L1313.68 1515.95 L1321.95 1514.29 L1326.62 1514.29 L1326.62 1544.91 L1334.26 1544.91 L1334.26 1548.85 L1314.35 1548.85 L1314.35 1544.91 Z" fill="#000000" fill-rule="evenodd" fill-opacity="1" /><path clip-path="url(#clip790)" d="M1340.95 1533.96 L1353.43 1533.96 L1353.43 1537.76 L1340.95 1537.76 L1340.95 1533.96 Z" fill="#000000" fill-rule="evenodd" fill-opacity="1" /><path clip-path="url(#clip790)" d="M1370.81 1517.37 Q1367.2 1517.37 1365.37 1520.93 Q1363.57 1524.47 1363.57 1531.6 Q1363.57 1538.71 1365.37 1542.27 Q1367.2 1545.82 1370.81 1545.82 Q1374.45 1545.82 1376.25 1542.27 Q1378.08 1538.71 1378.08 1531.6 Q1378.08 1524.47 1376.25 1520.93 Q1374.45 1517.37 1370.81 1517.37 M1370.81 1513.66 Q1376.62 1513.66 1379.68 1518.27 Q1382.76 1522.85 1382.76 1531.6 Q1382.76 1540.33 1379.68 1544.94 Q1376.62 1549.52 1370.81 1549.52 Q1365 1549.52 1361.92 1544.94 Q1358.87 1540.33 1358.87 1531.6 Q1358.87 1522.85 1361.92 1518.27 Q1365 1513.66 1370.81 1513.66 Z" fill="#000000" fill-rule="evenodd" fill-opacity="1" /><path clip-path="url(#clip790)" d="M1391.78 1544.91 L1399.42 1544.91 L1399.42 1518.55 L1391.11 1520.21 L1391.11 1515.95 L1399.38 1514.29 L1404.05 1514.29 L1404.05 1544.91 L1411.69 1544.91 L1411.69 1548.85 L1391.78 1548.85 L1391.78 1544.91 Z" fill="#000000" fill-rule="evenodd" fill-opacity="1" /><path clip-path="url(#clip790)" d="M1418.38 1533.96 L1430.86 1533.96 L1430.86 1537.76 L1418.38 1537.76 L1418.38 1533.96 Z" fill="#000000" fill-rule="evenodd" fill-opacity="1" /><path clip-path="url(#clip790)" d="M1448.24 1517.37 Q1444.63 1517.37 1442.8 1520.93 Q1441 1524.47 1441 1531.6 Q1441 1538.71 1442.8 1542.27 Q1444.63 1545.82 1448.24 1545.82 Q1451.88 1545.82 1453.68 1542.27 Q1455.51 1538.71 1455.51 1531.6 Q1455.51 1524.47 1453.68 1520.93 Q1451.88 1517.37 1448.24 1517.37 M1448.24 1513.66 Q1454.05 1513.66 1457.11 1518.27 Q1460.19 1522.85 1460.19 1531.6 Q1460.19 1540.33 1457.11 1544.94 Q1454.05 1549.52 1448.24 1549.52 Q1442.43 1549.52 1439.35 1544.94 Q1436.3 1540.33 1436.3 1531.6 Q1436.3 1522.85 1439.35 1518.27 Q1442.43 1513.66 1448.24 1513.66 Z" fill="#000000" fill-rule="evenodd" fill-opacity="1" /><path clip-path="url(#clip790)" d="M1469.21 1544.91 L1476.85 1544.91 L1476.85 1518.55 L1468.54 1520.21 L1468.54 1515.95 L1476.81 1514.29 L1481.48 1514.29 L1481.48 1544.91 L1489.12 1544.91 L1489.12 1548.85 L1469.21 1548.85 L1469.21 1544.91 Z" fill="#000000" fill-rule="evenodd" fill-opacity="1" /><path clip-path="url(#clip790)" d="M1814.2 1544.91 L1830.52 1544.91 L1830.52 1548.85 L1808.58 1548.85 L1808.58 1544.91 Q1811.24 1542.16 1815.82 1537.53 Q1820.43 1532.88 1821.61 1531.53 Q1823.86 1529.01 1824.74 1527.27 Q1825.64 1525.51 1825.64 1523.82 Q1825.64 1521.07 1823.7 1519.33 Q1821.77 1517.6 1818.67 1517.6 Q1816.47 1517.6 1814.02 1518.36 Q1811.59 1519.13 1808.81 1520.68 L1808.81 1515.95 Q1811.64 1514.82 1814.09 1514.24 Q1816.54 1513.66 1818.58 1513.66 Q1823.95 1513.66 1827.14 1516.35 Q1830.34 1519.03 1830.34 1523.52 Q1830.34 1525.65 1829.53 1527.57 Q1828.74 1529.47 1826.64 1532.07 Q1826.06 1532.74 1822.95 1535.95 Q1819.85 1539.15 1814.2 1544.91 Z" fill="#000000" fill-rule="evenodd" fill-opacity="1" /><path clip-path="url(#clip790)" d="M1850.34 1517.37 Q1846.73 1517.37 1844.9 1520.93 Q1843.09 1524.47 1843.09 1531.6 Q1843.09 1538.71 1844.9 1542.27 Q1846.73 1545.82 1850.34 1545.82 Q1853.97 1545.82 1855.78 1542.27 Q1857.61 1538.71 1857.61 1531.6 Q1857.61 1524.47 1855.78 1520.93 Q1853.97 1517.37 1850.34 1517.37 M1850.34 1513.66 Q1856.15 1513.66 1859.2 1518.27 Q1862.28 1522.85 1862.28 1531.6 Q1862.28 1540.33 1859.2 1544.94 Q1856.15 1549.52 1850.34 1549.52 Q1844.53 1549.52 1841.45 1544.94 Q1838.39 1540.33 1838.39 1531.6 Q1838.39 1522.85 1841.45 1518.27 Q1844.53 1513.66 1850.34 1513.66 Z" fill="#000000" fill-rule="evenodd" fill-opacity="1" /><path clip-path="url(#clip790)" d="M1871.31 1544.91 L1878.95 1544.91 L1878.95 1518.55 L1870.64 1520.21 L1870.64 1515.95 L1878.9 1514.29 L1883.58 1514.29 L1883.58 1544.91 L1891.22 1544.91 L1891.22 1548.85 L1871.31 1548.85 L1871.31 1544.91 Z" fill="#000000" fill-rule="evenodd" fill-opacity="1" /><path clip-path="url(#clip790)" d="M1911.24 1529.7 Q1908.09 1529.7 1906.24 1531.86 Q1904.41 1534.01 1904.41 1537.76 Q1904.41 1541.49 1906.24 1543.66 Q1908.09 1545.82 1911.24 1545.82 Q1914.39 1545.82 1916.22 1543.66 Q1918.07 1541.49 1918.07 1537.76 Q1918.07 1534.01 1916.22 1531.86 Q1914.39 1529.7 1911.24 1529.7 M1920.52 1515.05 L1920.52 1519.31 Q1918.76 1518.48 1916.96 1518.04 Q1915.18 1517.6 1913.42 1517.6 Q1908.79 1517.6 1906.33 1520.72 Q1903.9 1523.85 1903.56 1530.17 Q1904.92 1528.15 1906.98 1527.09 Q1909.04 1526 1911.52 1526 Q1916.73 1526 1919.74 1529.17 Q1922.77 1532.32 1922.77 1537.76 Q1922.77 1543.08 1919.62 1546.3 Q1916.47 1549.52 1911.24 1549.52 Q1905.25 1549.52 1902.07 1544.94 Q1898.9 1540.33 1898.9 1531.6 Q1898.9 1523.41 1902.79 1518.55 Q1906.68 1513.66 1913.23 1513.66 Q1914.99 1513.66 1916.77 1514.01 Q1918.58 1514.36 1920.52 1515.05 Z" fill="#000000" fill-rule="evenodd" fill-opacity="1" /><path clip-path="url(#clip790)" d="M1928.07 1533.96 L1940.55 1533.96 L1940.55 1537.76 L1928.07 1537.76 L1928.07 1533.96 Z" fill="#000000" fill-rule="evenodd" fill-opacity="1" /><path clip-path="url(#clip790)" d="M1957.93 1517.37 Q1954.32 1517.37 1952.49 1520.93 Q1950.69 1524.47 1950.69 1531.6 Q1950.69 1538.71 1952.49 1542.27 Q1954.32 1545.82 1957.93 1545.82 Q1961.56 1545.82 1963.37 1542.27 Q1965.2 1538.71 1965.2 1531.6 Q1965.2 1524.47 1963.37 1520.93 Q1961.56 1517.37 1957.93 1517.37 M1957.93 1513.66 Q1963.74 1513.66 1966.8 1518.27 Q1969.88 1522.85 1969.88 1531.6 Q1969.88 1540.33 1966.8 1544.94 Q1963.74 1549.52 1957.93 1549.52 Q1952.12 1549.52 1949.04 1544.94 Q1945.99 1540.33 1945.99 1531.6 Q1945.99 1522.85 1949.04 1518.27 Q1952.12 1513.66 1957.93 1513.66 Z" fill="#000000" fill-rule="evenodd" fill-opacity="1" /><path clip-path="url(#clip790)" d="M1978.9 1544.91 L1986.54 1544.91 L1986.54 1518.55 L1978.23 1520.21 L1978.23 1515.95 L1986.5 1514.29 L1991.17 1514.29 L1991.17 1544.91 L1998.81 1544.91 L1998.81 1548.85 L1978.9 1548.85 L1978.9 1544.91 Z" fill="#000000" fill-rule="evenodd" fill-opacity="1" /><path clip-path="url(#clip790)" d="M2005.5 1533.96 L2017.98 1533.96 L2017.98 1537.76 L2005.5 1537.76 L2005.5 1533.96 Z" fill="#000000" fill-rule="evenodd" fill-opacity="1" /><path clip-path="url(#clip790)" d="M2035.36 1517.37 Q2031.75 1517.37 2029.92 1520.93 Q2028.12 1524.47 2028.12 1531.6 Q2028.12 1538.71 2029.92 1542.27 Q2031.75 1545.82 2035.36 1545.82 Q2039 1545.82 2040.8 1542.27 Q2042.63 1538.71 2042.63 1531.6 Q2042.63 1524.47 2040.8 1520.93 Q2039 1517.37 2035.36 1517.37 M2035.36 1513.66 Q2041.17 1513.66 2044.23 1518.27 Q2047.31 1522.85 2047.31 1531.6 Q2047.31 1540.33 2044.23 1544.94 Q2041.17 1549.52 2035.36 1549.52 Q2029.55 1549.52 2026.47 1544.94 Q2023.42 1540.33 2023.42 1531.6 Q2023.42 1522.85 2026.47 1518.27 Q2029.55 1513.66 2035.36 1513.66 Z" fill="#000000" fill-rule="evenodd" fill-opacity="1" /><path clip-path="url(#clip790)" d="M2056.33 1544.91 L2063.97 1544.91 L2063.97 1518.55 L2055.66 1520.21 L2055.66 1515.95 L2063.93 1514.29 L2068.6 1514.29 L2068.6 1544.91 L2076.24 1544.91 L2076.24 1548.85 L2056.33 1548.85 L2056.33 1544.91 Z" fill="#000000" fill-rule="evenodd" fill-opacity="1" /><polyline clip-path="url(#clip792)" style="stroke:#000000; stroke-linecap:butt; stroke-linejoin:round; stroke-width:2; stroke-opacity:0.1; fill:none" points="
  112.177,1447.87 2352.76,1447.87 
  "/>
<polyline clip-path="url(#clip792)" style="stroke:#000000; stroke-linecap:butt; stroke-linejoin:round; stroke-width:2; stroke-opacity:0.1; fill:none" points="
  112.177,1244.39 2352.76,1244.39 
  "/>
<polyline clip-path="url(#clip792)" style="stroke:#000000; stroke-linecap:butt; stroke-linejoin:round; stroke-width:2; stroke-opacity:0.1; fill:none" points="
  112.177,1040.9 2352.76,1040.9 
  "/>
<polyline clip-path="url(#clip792)" style="stroke:#000000; stroke-linecap:butt; stroke-linejoin:round; stroke-width:2; stroke-opacity:0.1; fill:none" points="
  112.177,837.413 2352.76,837.413 
  "/>
<polyline clip-path="url(#clip792)" style="stroke:#000000; stroke-linecap:butt; stroke-linejoin:round; stroke-width:2; stroke-opacity:0.1; fill:none" points="
  112.177,633.926 2352.76,633.926 
  "/>
<polyline clip-path="url(#clip792)" style="stroke:#000000; stroke-linecap:butt; stroke-linejoin:round; stroke-width:2; stroke-opacity:0.1; fill:none" points="
  112.177,430.439 2352.76,430.439 
  "/>
<polyline clip-path="url(#clip792)" style="stroke:#000000; stroke-linecap:butt; stroke-linejoin:round; stroke-width:2; stroke-opacity:0.1; fill:none" points="
  112.177,226.953 2352.76,226.953 
  "/>
<polyline clip-path="url(#clip790)" style="stroke:#000000; stroke-linecap:butt; stroke-linejoin:round; stroke-width:4; stroke-opacity:1; fill:none" points="
  112.177,1486.45 112.177,123.472 
  "/>
<polyline clip-path="url(#clip790)" style="stroke:#000000; stroke-linecap:butt; stroke-linejoin:round; stroke-width:4; stroke-opacity:1; fill:none" points="
  112.177,1447.87 131.075,1447.87 
  "/>
<polyline clip-path="url(#clip790)" style="stroke:#000000; stroke-linecap:butt; stroke-linejoin:round; stroke-width:4; stroke-opacity:1; fill:none" points="
  112.177,1244.39 131.075,1244.39 
  "/>
<polyline clip-path="url(#clip790)" style="stroke:#000000; stroke-linecap:butt; stroke-linejoin:round; stroke-width:4; stroke-opacity:1; fill:none" points="
  112.177,1040.9 131.075,1040.9 
  "/>
<polyline clip-path="url(#clip790)" style="stroke:#000000; stroke-linecap:butt; stroke-linejoin:round; stroke-width:4; stroke-opacity:1; fill:none" points="
  112.177,837.413 131.075,837.413 
  "/>
<polyline clip-path="url(#clip790)" style="stroke:#000000; stroke-linecap:butt; stroke-linejoin:round; stroke-width:4; stroke-opacity:1; fill:none" points="
  112.177,633.926 131.075,633.926 
  "/>
<polyline clip-path="url(#clip790)" style="stroke:#000000; stroke-linecap:butt; stroke-linejoin:round; stroke-width:4; stroke-opacity:1; fill:none" points="
  112.177,430.439 131.075,430.439 
  "/>
<polyline clip-path="url(#clip790)" style="stroke:#000000; stroke-linecap:butt; stroke-linejoin:round; stroke-width:4; stroke-opacity:1; fill:none" points="
  112.177,226.953 131.075,226.953 
  "/>
<path clip-path="url(#clip790)" d="M64.2328 1433.67 Q60.6217 1433.67 58.793 1437.24 Q56.9875 1440.78 56.9875 1447.91 Q56.9875 1455.01 58.793 1458.58 Q60.6217 1462.12 64.2328 1462.12 Q67.867 1462.12 69.6726 1458.58 Q71.5013 1455.01 71.5013 1447.91 Q71.5013 1440.78 69.6726 1437.24 Q67.867 1433.67 64.2328 1433.67 M64.2328 1429.97 Q70.0429 1429.97 73.0985 1434.57 Q76.1772 1439.16 76.1772 1447.91 Q76.1772 1456.63 73.0985 1461.24 Q70.0429 1465.82 64.2328 1465.82 Q58.4226 1465.82 55.344 1461.24 Q52.2884 1456.63 52.2884 1447.91 Q52.2884 1439.16 55.344 1434.57 Q58.4226 1429.97 64.2328 1429.97 Z" fill="#000000" fill-rule="evenodd" fill-opacity="1" /><path clip-path="url(#clip790)" d="M56.2699 1257.73 L63.9087 1257.73 L63.9087 1231.37 L55.5986 1233.03 L55.5986 1228.77 L63.8624 1227.11 L68.5383 1227.11 L68.5383 1257.73 L76.1772 1257.73 L76.1772 1261.67 L56.2699 1261.67 L56.2699 1257.73 Z" fill="#000000" fill-rule="evenodd" fill-opacity="1" /><path clip-path="url(#clip790)" d="M59.8578 1054.24 L76.1772 1054.24 L76.1772 1058.18 L54.2328 1058.18 L54.2328 1054.24 Q56.8949 1051.49 61.4782 1046.86 Q66.0846 1042.21 67.2652 1040.86 Q69.5105 1038.34 70.3902 1036.61 Q71.2929 1034.85 71.2929 1033.16 Q71.2929 1030.4 69.3485 1028.67 Q67.4272 1026.93 64.3254 1026.93 Q62.1263 1026.93 59.6726 1027.69 Q57.2421 1028.46 54.4643 1030.01 L54.4643 1025.29 Q57.2884 1024.15 59.7421 1023.57 Q62.1958 1022.99 64.2328 1022.99 Q69.6031 1022.99 72.7976 1025.68 Q75.992 1028.36 75.992 1032.86 Q75.992 1034.99 75.1818 1036.91 Q74.3948 1038.8 72.2883 1041.4 Q71.7096 1042.07 68.6078 1045.29 Q65.5059 1048.48 59.8578 1054.24 Z" fill="#000000" fill-rule="evenodd" fill-opacity="1" /><path clip-path="url(#clip790)" d="M69.0476 836.059 Q72.404 836.776 74.279 839.045 Q76.1772 841.313 76.1772 844.647 Q76.1772 849.762 72.6587 852.563 Q69.1402 855.364 62.6587 855.364 Q60.4828 855.364 58.168 854.924 Q55.8764 854.508 53.4227 853.651 L53.4227 849.137 Q55.3671 850.272 57.6819 850.85 Q59.9967 851.429 62.5198 851.429 Q66.918 851.429 69.2096 849.693 Q71.5244 847.957 71.5244 844.647 Q71.5244 841.591 69.3717 839.878 Q67.242 838.142 63.4226 838.142 L59.3949 838.142 L59.3949 834.299 L63.6078 834.299 Q67.0569 834.299 68.8855 832.934 Q70.7142 831.545 70.7142 828.952 Q70.7142 826.29 68.8161 824.878 Q66.9411 823.443 63.4226 823.443 Q61.5013 823.443 59.3023 823.86 Q57.1032 824.276 54.4643 825.156 L54.4643 820.989 Q57.1264 820.249 59.4412 819.878 Q61.7791 819.508 63.8393 819.508 Q69.1633 819.508 72.2652 821.938 Q75.367 824.346 75.367 828.466 Q75.367 831.337 73.7235 833.327 Q72.08 835.295 69.0476 836.059 Z" fill="#000000" fill-rule="evenodd" fill-opacity="1" /><path clip-path="url(#clip790)" d="M66.5939 620.72 L54.7884 639.169 L66.5939 639.169 L66.5939 620.72 M65.367 616.646 L71.2466 616.646 L71.2466 639.169 L76.1772 639.169 L76.1772 643.058 L71.2466 643.058 L71.2466 651.206 L66.5939 651.206 L66.5939 643.058 L50.9921 643.058 L50.9921 638.544 L65.367 616.646 Z" fill="#000000" fill-rule="evenodd" fill-opacity="1" /><path clip-path="url(#clip790)" d="M55.2745 413.159 L73.6309 413.159 L73.6309 417.095 L59.5569 417.095 L59.5569 425.567 Q60.5754 425.22 61.5939 425.058 Q62.6124 424.872 63.6309 424.872 Q69.418 424.872 72.7976 428.044 Q76.1772 431.215 76.1772 436.632 Q76.1772 442.21 72.705 445.312 Q69.2328 448.391 62.9134 448.391 Q60.7374 448.391 58.4689 448.02 Q56.2236 447.65 53.8162 446.909 L53.8162 442.21 Q55.8995 443.344 58.1217 443.9 Q60.3439 444.456 62.8208 444.456 Q66.8254 444.456 69.1633 442.349 Q71.5013 440.243 71.5013 436.632 Q71.5013 433.02 69.1633 430.914 Q66.8254 428.807 62.8208 428.807 Q60.9458 428.807 59.0708 429.224 Q57.2189 429.641 55.2745 430.52 L55.2745 413.159 Z" fill="#000000" fill-rule="evenodd" fill-opacity="1" /><path clip-path="url(#clip790)" d="M64.6495 225.089 Q61.5013 225.089 59.6495 227.242 Q57.8208 229.395 57.8208 233.145 Q57.8208 236.872 59.6495 239.048 Q61.5013 241.2 64.6495 241.2 Q67.7976 241.2 69.6263 239.048 Q71.4781 236.872 71.4781 233.145 Q71.4781 229.395 69.6263 227.242 Q67.7976 225.089 64.6495 225.089 M73.9318 210.437 L73.9318 214.696 Q72.1726 213.862 70.367 213.423 Q68.5846 212.983 66.8254 212.983 Q62.1958 212.983 59.7421 216.108 Q57.3115 219.233 56.9643 225.552 Q58.33 223.538 60.3902 222.474 Q62.4504 221.386 64.9272 221.386 Q70.1355 221.386 73.1448 224.557 Q76.1772 227.705 76.1772 233.145 Q76.1772 238.469 73.029 241.686 Q69.8809 244.904 64.6495 244.904 Q58.6541 244.904 55.4828 240.321 Q52.3116 235.714 52.3116 226.987 Q52.3116 218.793 56.2004 213.932 Q60.0893 209.048 66.6402 209.048 Q68.3994 209.048 70.1818 209.395 Q71.9874 209.742 73.9318 210.437 Z" fill="#000000" fill-rule="evenodd" fill-opacity="1" /><path clip-path="url(#clip790)" d="M802.99 9.54393 L810.443 9.54393 L810.443 72.576 L802.99 72.576 L802.99 9.54393 Z" fill="#000000" fill-rule="evenodd" fill-opacity="1" /><path clip-path="url(#clip790)" d="M843.62 32.4315 Q837.625 32.4315 834.141 37.1306 Q830.657 41.7891 830.657 49.9314 Q830.657 58.0738 834.101 62.7728 Q837.584 67.4314 843.62 67.4314 Q849.575 67.4314 853.059 62.7323 Q856.543 58.0333 856.543 49.9314 Q856.543 41.8701 853.059 37.1711 Q849.575 32.4315 843.62 32.4315 M843.62 26.1121 Q853.342 26.1121 858.892 32.4315 Q864.442 38.7509 864.442 49.9314 Q864.442 61.0714 858.892 67.4314 Q853.342 73.7508 843.62 73.7508 Q833.858 73.7508 828.308 67.4314 Q822.799 61.0714 822.799 49.9314 Q822.799 38.7509 828.308 32.4315 Q833.858 26.1121 843.62 26.1121 Z" fill="#000000" fill-rule="evenodd" fill-opacity="1" /><path clip-path="url(#clip790)" d="M906.652 49.3643 Q906.652 41.2625 903.29 36.8065 Q899.968 32.3505 893.932 32.3505 Q887.937 32.3505 884.575 36.8065 Q881.253 41.2625 881.253 49.3643 Q881.253 57.4256 884.575 61.8816 Q887.937 66.3376 893.932 66.3376 Q899.968 66.3376 903.29 61.8816 Q906.652 57.4256 906.652 49.3643 M914.106 66.9452 Q914.106 78.5308 908.961 84.1616 Q903.817 89.8329 893.203 89.8329 Q889.274 89.8329 885.79 89.2252 Q882.306 88.6581 879.025 87.4428 L879.025 80.1917 Q882.306 81.9741 885.507 82.8248 Q888.707 83.6755 892.029 83.6755 Q899.361 83.6755 903.007 79.8271 Q906.652 76.0193 906.652 68.282 L906.652 64.5957 Q904.343 68.6061 900.738 70.5911 Q897.133 72.576 892.11 72.576 Q883.765 72.576 878.661 66.2161 Q873.556 59.8562 873.556 49.3643 Q873.556 38.832 878.661 32.472 Q883.765 26.1121 892.11 26.1121 Q897.133 26.1121 900.738 28.0971 Q904.343 30.082 906.652 34.0924 L906.652 27.2059 L914.106 27.2059 L914.106 66.9452 Z" fill="#000000" fill-rule="evenodd" fill-opacity="1" /><path clip-path="url(#clip790)" d="M947.364 9.62495 Q941.936 18.942 939.303 28.0566 Q936.67 37.1711 936.67 46.5287 Q936.67 55.8863 939.303 65.0818 Q941.976 74.2369 947.364 83.5134 L940.882 83.5134 Q934.806 73.9938 931.768 64.7983 Q928.77 55.6027 928.77 46.5287 Q928.77 37.4952 931.768 28.3401 Q934.766 19.1851 940.882 9.62495 L947.364 9.62495 Z" fill="#000000" fill-rule="evenodd" fill-opacity="1" /><path clip-path="url(#clip790)" d="M970.333 18.8205 L970.333 41.5461 L980.622 41.5461 Q986.334 41.5461 989.453 38.5889 Q992.572 35.6318 992.572 30.163 Q992.572 24.7348 989.453 21.7777 Q986.334 18.8205 980.622 18.8205 L970.333 18.8205 M962.15 12.096 L980.622 12.096 Q990.79 12.096 995.975 16.714 Q1001.2 21.2916 1001.2 30.163 Q1001.2 39.1155 995.975 43.6931 Q990.79 48.2706 980.622 48.2706 L970.333 48.2706 L970.333 72.576 L962.15 72.576 L962.15 12.096 Z" fill="#000000" fill-rule="evenodd" fill-opacity="1" /><path clip-path="url(#clip790)" d="M1009.63 54.671 L1009.63 27.2059 L1017.08 27.2059 L1017.08 54.3874 Q1017.08 60.8284 1019.59 64.0691 Q1022.1 67.2693 1027.13 67.2693 Q1033.16 67.2693 1036.65 63.421 Q1040.17 59.5726 1040.17 52.9291 L1040.17 27.2059 L1047.62 27.2059 L1047.62 72.576 L1040.17 72.576 L1040.17 65.6084 Q1037.46 69.7404 1033.85 71.7658 Q1030.29 73.7508 1025.55 73.7508 Q1017.73 73.7508 1013.68 68.8897 Q1009.63 64.0286 1009.63 54.671 M1028.38 26.1121 L1028.38 26.1121 Z" fill="#000000" fill-rule="evenodd" fill-opacity="1" /><path clip-path="url(#clip790)" d="M1095.55 49.9314 Q1095.55 41.7081 1092.14 37.0496 Q1088.78 32.3505 1082.87 32.3505 Q1076.95 32.3505 1073.55 37.0496 Q1070.19 41.7081 1070.19 49.9314 Q1070.19 58.1548 1073.55 62.8538 Q1076.95 67.5124 1082.87 67.5124 Q1088.78 67.5124 1092.14 62.8538 Q1095.55 58.1548 1095.55 49.9314 M1070.19 34.0924 Q1072.54 30.0415 1076.1 28.0971 Q1079.71 26.1121 1084.69 26.1121 Q1092.95 26.1121 1098.1 32.6746 Q1103.28 39.2371 1103.28 49.9314 Q1103.28 60.6258 1098.1 67.1883 Q1092.95 73.7508 1084.69 73.7508 Q1079.71 73.7508 1076.1 71.8063 Q1072.54 69.8214 1070.19 65.7705 L1070.19 72.576 L1062.69 72.576 L1062.69 9.54393 L1070.19 9.54393 L1070.19 34.0924 Z" fill="#000000" fill-rule="evenodd" fill-opacity="1" /><path clip-path="url(#clip790)" d="M1115.64 9.54393 L1123.09 9.54393 L1123.09 72.576 L1115.64 72.576 L1115.64 9.54393 Z" fill="#000000" fill-rule="evenodd" fill-opacity="1" /><path clip-path="url(#clip790)" d="M1138.69 27.2059 L1146.14 27.2059 L1146.14 72.576 L1138.69 72.576 L1138.69 27.2059 M1138.69 9.54393 L1146.14 9.54393 L1146.14 18.9825 L1138.69 18.9825 L1138.69 9.54393 Z" fill="#000000" fill-rule="evenodd" fill-opacity="1" /><path clip-path="url(#clip790)" d="M1194.39 28.9478 L1194.39 35.9153 Q1191.23 34.1734 1188.03 33.3227 Q1184.87 32.4315 1181.63 32.4315 Q1174.38 32.4315 1170.37 37.0496 Q1166.36 41.6271 1166.36 49.9314 Q1166.36 58.2358 1170.37 62.8538 Q1174.38 67.4314 1181.63 67.4314 Q1184.87 67.4314 1188.03 66.5807 Q1191.23 65.6895 1194.39 63.9476 L1194.39 70.8341 Q1191.27 72.2924 1187.91 73.0216 Q1184.58 73.7508 1180.82 73.7508 Q1170.57 73.7508 1164.53 67.3098 Q1158.5 60.8689 1158.5 49.9314 Q1158.5 38.832 1164.57 32.472 Q1170.69 26.1121 1181.3 26.1121 Q1184.75 26.1121 1188.03 26.8413 Q1191.31 27.5299 1194.39 28.9478 Z" fill="#000000" fill-rule="evenodd" fill-opacity="1" /><path clip-path="url(#clip790)" d="M1270.3 14.0809 L1270.3 22.0612 Q1265.64 19.8332 1261.51 18.7395 Q1257.38 17.6457 1253.53 17.6457 Q1246.85 17.6457 1243.2 20.2383 Q1239.6 22.8309 1239.6 27.611 Q1239.6 31.6214 1241.99 33.6873 Q1244.42 35.7128 1251.14 36.9686 L1256.08 37.9813 Q1265.24 39.7232 1269.57 44.1387 Q1273.95 48.5136 1273.95 55.8863 Q1273.95 64.6767 1268.03 69.2137 Q1262.16 73.7508 1250.78 73.7508 Q1246.48 73.7508 1241.62 72.7785 Q1236.8 71.8063 1231.62 69.9024 L1231.62 61.4765 Q1236.6 64.2716 1241.38 65.6895 Q1246.16 67.1073 1250.78 67.1073 Q1257.78 67.1073 1261.59 64.3527 Q1265.4 61.598 1265.4 56.4939 Q1265.4 52.0379 1262.65 49.5264 Q1259.93 47.0148 1253.69 45.759 L1248.71 44.7868 Q1239.56 42.9639 1235.46 39.075 Q1231.37 35.1862 1231.37 28.2591 Q1231.37 20.2383 1237 15.6203 Q1242.67 11.0023 1252.6 11.0023 Q1256.85 11.0023 1261.27 11.7719 Q1265.68 12.5416 1270.3 14.0809 Z" fill="#000000" fill-rule="evenodd" fill-opacity="1" /><path clip-path="url(#clip790)" d="M1324.1 45.1919 L1324.1 72.576 L1316.64 72.576 L1316.64 45.4349 Q1316.64 38.994 1314.13 35.7938 Q1311.62 32.5936 1306.6 32.5936 Q1300.56 32.5936 1297.08 36.4419 Q1293.59 40.2903 1293.59 46.9338 L1293.59 72.576 L1286.1 72.576 L1286.1 9.54393 L1293.59 9.54393 L1293.59 34.2544 Q1296.27 30.163 1299.87 28.1376 Q1303.52 26.1121 1308.26 26.1121 Q1316.08 26.1121 1320.09 30.9732 Q1324.1 35.7938 1324.1 45.1919 Z" fill="#000000" fill-rule="evenodd" fill-opacity="1" /><path clip-path="url(#clip790)" d="M1356.55 32.4315 Q1350.55 32.4315 1347.07 37.1306 Q1343.58 41.7891 1343.58 49.9314 Q1343.58 58.0738 1347.03 62.7728 Q1350.51 67.4314 1356.55 67.4314 Q1362.5 67.4314 1365.98 62.7323 Q1369.47 58.0333 1369.47 49.9314 Q1369.47 41.8701 1365.98 37.1711 Q1362.5 32.4315 1356.55 32.4315 M1356.55 26.1121 Q1366.27 26.1121 1371.82 32.4315 Q1377.37 38.7509 1377.37 49.9314 Q1377.37 61.0714 1371.82 67.4314 Q1366.27 73.7508 1356.55 73.7508 Q1346.78 73.7508 1341.23 67.4314 Q1335.72 61.0714 1335.72 49.9314 Q1335.72 38.7509 1341.23 32.4315 Q1346.78 26.1121 1356.55 26.1121 Z" fill="#000000" fill-rule="evenodd" fill-opacity="1" /><path clip-path="url(#clip790)" d="M1407.3 32.4315 Q1401.31 32.4315 1397.82 37.1306 Q1394.34 41.7891 1394.34 49.9314 Q1394.34 58.0738 1397.78 62.7728 Q1401.27 67.4314 1407.3 67.4314 Q1413.26 67.4314 1416.74 62.7323 Q1420.23 58.0333 1420.23 49.9314 Q1420.23 41.8701 1416.74 37.1711 Q1413.26 32.4315 1407.3 32.4315 M1407.3 26.1121 Q1417.03 26.1121 1422.58 32.4315 Q1428.13 38.7509 1428.13 49.9314 Q1428.13 61.0714 1422.58 67.4314 Q1417.03 73.7508 1407.3 73.7508 Q1397.54 73.7508 1391.99 67.4314 Q1386.48 61.0714 1386.48 49.9314 Q1386.48 38.7509 1391.99 32.4315 Q1397.54 26.1121 1407.3 26.1121 Z" fill="#000000" fill-rule="evenodd" fill-opacity="1" /><path clip-path="url(#clip790)" d="M1447.85 14.324 L1447.85 27.2059 L1463.21 27.2059 L1463.21 32.9987 L1447.85 32.9987 L1447.85 57.6282 Q1447.85 63.1779 1449.35 64.7578 Q1450.89 66.3376 1455.55 66.3376 L1463.21 66.3376 L1463.21 72.576 L1455.55 72.576 Q1446.92 72.576 1443.64 69.3758 Q1440.36 66.1351 1440.36 57.6282 L1440.36 32.9987 L1434.89 32.9987 L1434.89 27.2059 L1440.36 27.2059 L1440.36 14.324 L1447.85 14.324 Z" fill="#000000" fill-rule="evenodd" fill-opacity="1" /><path clip-path="url(#clip790)" d="M1473.01 27.2059 L1480.46 27.2059 L1480.46 72.576 L1473.01 72.576 L1473.01 27.2059 M1473.01 9.54393 L1480.46 9.54393 L1480.46 18.9825 L1473.01 18.9825 L1473.01 9.54393 Z" fill="#000000" fill-rule="evenodd" fill-opacity="1" /><path clip-path="url(#clip790)" d="M1533.77 45.1919 L1533.77 72.576 L1526.32 72.576 L1526.32 45.4349 Q1526.32 38.994 1523.81 35.7938 Q1521.3 32.5936 1516.27 32.5936 Q1510.24 32.5936 1506.75 36.4419 Q1503.27 40.2903 1503.27 46.9338 L1503.27 72.576 L1495.78 72.576 L1495.78 27.2059 L1503.27 27.2059 L1503.27 34.2544 Q1505.94 30.163 1509.55 28.1376 Q1513.19 26.1121 1517.93 26.1121 Q1525.75 26.1121 1529.76 30.9732 Q1533.77 35.7938 1533.77 45.1919 Z" fill="#000000" fill-rule="evenodd" fill-opacity="1" /><path clip-path="url(#clip790)" d="M1578.49 49.3643 Q1578.49 41.2625 1575.13 36.8065 Q1571.81 32.3505 1565.77 32.3505 Q1559.78 32.3505 1556.42 36.8065 Q1553.1 41.2625 1553.1 49.3643 Q1553.1 57.4256 1556.42 61.8816 Q1559.78 66.3376 1565.77 66.3376 Q1571.81 66.3376 1575.13 61.8816 Q1578.49 57.4256 1578.49 49.3643 M1585.95 66.9452 Q1585.95 78.5308 1580.8 84.1616 Q1575.66 89.8329 1565.05 89.8329 Q1561.12 89.8329 1557.63 89.2252 Q1554.15 88.6581 1550.87 87.4428 L1550.87 80.1917 Q1554.15 81.9741 1557.35 82.8248 Q1560.55 83.6755 1563.87 83.6755 Q1571.2 83.6755 1574.85 79.8271 Q1578.49 76.0193 1578.49 68.282 L1578.49 64.5957 Q1576.19 68.6061 1572.58 70.5911 Q1568.98 72.576 1563.95 72.576 Q1555.61 72.576 1550.5 66.2161 Q1545.4 59.8562 1545.4 49.3643 Q1545.4 38.832 1550.5 32.472 Q1555.61 26.1121 1563.95 26.1121 Q1568.98 26.1121 1572.58 28.0971 Q1576.19 30.082 1578.49 34.0924 L1578.49 27.2059 L1585.95 27.2059 L1585.95 66.9452 Z" fill="#000000" fill-rule="evenodd" fill-opacity="1" /><path clip-path="url(#clip790)" d="M1630.22 28.5427 L1630.22 35.5912 Q1627.07 33.9709 1623.66 33.1607 Q1620.26 32.3505 1616.61 32.3505 Q1611.06 32.3505 1608.27 34.0519 Q1605.51 35.7533 1605.51 39.156 Q1605.51 41.7486 1607.5 43.2475 Q1609.48 44.7058 1615.48 46.0426 L1618.03 46.6097 Q1625.97 48.3111 1629.29 51.4303 Q1632.66 54.509 1632.66 60.0587 Q1632.66 66.3781 1627.63 70.0644 Q1622.65 73.7508 1613.9 73.7508 Q1610.25 73.7508 1606.28 73.0216 Q1602.35 72.3329 1597.98 70.9151 L1597.98 63.2184 Q1602.11 65.3654 1606.12 66.4591 Q1610.13 67.5124 1614.06 67.5124 Q1619.33 67.5124 1622.16 65.73 Q1625 63.9071 1625 60.6258 Q1625 57.5877 1622.93 55.9673 Q1620.91 54.3469 1613.98 52.8481 L1611.39 52.2405 Q1604.46 50.7821 1601.38 47.7845 Q1598.3 44.7463 1598.3 39.4801 Q1598.3 33.0797 1602.84 29.5959 Q1607.38 26.1121 1615.72 26.1121 Q1619.85 26.1121 1623.5 26.7198 Q1627.15 27.3274 1630.22 28.5427 Z" fill="#000000" fill-rule="evenodd" fill-opacity="1" /><path clip-path="url(#clip790)" d="M1643.35 9.62495 L1649.83 9.62495 Q1655.91 19.1851 1658.91 28.3401 Q1661.94 37.4952 1661.94 46.5287 Q1661.94 55.6027 1658.91 64.7983 Q1655.91 73.9938 1649.83 83.5134 L1643.35 83.5134 Q1648.74 74.2369 1651.37 65.0818 Q1654.04 55.8863 1654.04 46.5287 Q1654.04 37.1711 1651.37 28.0566 Q1648.74 18.942 1643.35 9.62495 Z" fill="#000000" fill-rule="evenodd" fill-opacity="1" /><polyline clip-path="url(#clip792)" style="stroke:#009af9; stroke-linecap:butt; stroke-linejoin:round; stroke-width:4; stroke-opacity:1; fill:none" points="
  214.495,1447.87 292.949,1447.87 302.917,1165.78 321.887,1165.78 361.114,1083.27 390.695,1024.73 430.243,942.228 449.214,942.228 458.86,925.94 478.473,925.94 
  488.441,925.94 508.054,925.94 518.022,925.94 547.603,925.94 596.154,925.94 635.703,896.821 655.316,896.821 665.284,896.821 674.286,749.102 723.481,730.306 
  743.094,730.306 753.062,724.407 772.675,724.407 791.646,692.21 821.227,692.21 830.873,692.21 840.84,692.21 850.808,692.21 860.454,668.795 900.002,647.799 
  909.005,647.799 918.973,639.971 928.618,628.767 958.199,628.767 977.813,618.148 997.426,592.274 1017.36,574.822 1026.69,572.053 1046.3,566.626 1056.27,566.626 
  1065.91,561.341 1085.85,546.261 1125.07,541.473 1144.05,519.089 1154.01,493.246 1163.66,493.246 1173.63,489.546 1183.27,489.546 1193.24,484.12 1203.21,480.581 
  1222.82,451.228 1232.47,451.228 1242.43,449.715 1252.4,449.715 1261.4,449.715 1271.37,449.715 1281.02,449.715 1290.99,449.715 1300.63,449.715 1310.6,449.715 
  1320.57,448.213 1330.21,445.242 1349.83,445.242 1359.79,436.582 1388.73,433.775 1427.96,433.775 1437.93,428.275 1447.57,428.275 1467.19,428.275 1477.15,428.275 
  1487.12,428.275 1496.44,424.246 1506.41,411.363 1516.06,405.214 1535.67,391.175 1545.64,384.503 1555.61,384.503 1565.25,384.503 1575.22,384.503 1584.87,352.2 
  1594.83,352.2 1613.8,348.5 1623.77,348.5 1633.42,346.675 1643.38,336.92 1663,334.339 1672.97,324.329 1682.61,324.329 1692.58,323.517 1702.23,322.708 
  1712.19,319.503 1722.16,316.348 1741.13,311.706 1750.78,307.167 1760.74,304.196 1780.36,304.196 1790.33,304.196 1799.97,304.196 1809.94,303.46 1829.55,301.268 
  1839.52,301.268 1848.52,300.543 1858.49,300.543 1868.14,297.667 1878.1,291.34 1887.75,285.877 1917.33,283.866 1927.3,281.874 1936.94,272.828 1956.88,267.219 
  1966.2,266.605 1976.17,266.605 1985.82,265.993 1995.78,238.059 2005.43,233.32 2015.4,233.32 2025.37,230.221 2035.01,230.221 2044.98,230.221 2064.59,227.675 
  2083.56,227.169 2093.53,225.159 2103.18,225.159 2113.14,225.159 2132.76,224.162 2142.72,223.665 2152.37,195.874 2162.34,181.258 2171.98,180.454 2181.95,180.454 
  2191.92,180.454 2200.92,179.653 2210.89,178.06 2220.54,178.06 2230.5,176.086 2250.12,175.302 2260.08,172.195 2269.73,167.246 2279.7,162.047 2289.34,162.047 
  
  "/>
</svg>
