<?xml version="1.0" encoding="utf-8"?>
<svg xmlns="http://www.w3.org/2000/svg" xmlns:xlink="http://www.w3.org/1999/xlink" width="600" height="400" viewBox="0 0 2400 1600">
<defs>
  <clipPath id="clip180">
    <rect x="0" y="0" width="2400" height="1600"/>
  </clipPath>
</defs>
<path clip-path="url(#clip180)" d="
M0 1600 L2400 1600 L2400 0 L0 0  Z
  " fill="#ffffff" fill-rule="evenodd" fill-opacity="1"/>
<defs>
  <clipPath id="clip181">
    <rect x="480" y="0" width="1681" height="1600"/>
  </clipPath>
</defs>
<path clip-path="url(#clip180)" d="
M186.274 1486.45 L2352.76 1486.45 L2352.76 123.472 L186.274 123.472  Z
  " fill="#ffffff" fill-rule="evenodd" fill-opacity="1"/>
<defs>
  <clipPath id="clip182">
    <rect x="186" y="123" width="2167" height="1364"/>
  </clipPath>
</defs>
<polyline clip-path="url(#clip182)" style="stroke:#000000; stroke-linecap:butt; stroke-linejoin:round; stroke-width:2; stroke-opacity:0.1; fill:none" points="
  186.274,1486.45 186.274,123.472 
  "/>
<polyline clip-path="url(#clip182)" style="stroke:#000000; stroke-linecap:butt; stroke-linejoin:round; stroke-width:2; stroke-opacity:0.1; fill:none" points="
  619.57,1486.45 619.57,123.472 
  "/>
<polyline clip-path="url(#clip182)" style="stroke:#000000; stroke-linecap:butt; stroke-linejoin:round; stroke-width:2; stroke-opacity:0.1; fill:none" points="
  1052.87,1486.45 1052.87,123.472 
  "/>
<polyline clip-path="url(#clip182)" style="stroke:#000000; stroke-linecap:butt; stroke-linejoin:round; stroke-width:2; stroke-opacity:0.1; fill:none" points="
  1486.16,1486.45 1486.16,123.472 
  "/>
<polyline clip-path="url(#clip182)" style="stroke:#000000; stroke-linecap:butt; stroke-linejoin:round; stroke-width:2; stroke-opacity:0.1; fill:none" points="
  1919.46,1486.45 1919.46,123.472 
  "/>
<polyline clip-path="url(#clip182)" style="stroke:#000000; stroke-linecap:butt; stroke-linejoin:round; stroke-width:2; stroke-opacity:0.1; fill:none" points="
  2352.76,1486.45 2352.76,123.472 
  "/>
<polyline clip-path="url(#clip180)" style="stroke:#000000; stroke-linecap:butt; stroke-linejoin:round; stroke-width:4; stroke-opacity:1; fill:none" points="
  186.274,1486.45 2352.76,1486.45 
  "/>
<polyline clip-path="url(#clip180)" style="stroke:#000000; stroke-linecap:butt; stroke-linejoin:round; stroke-width:4; stroke-opacity:1; fill:none" points="
  186.274,1486.45 186.274,1467.55 
  "/>
<polyline clip-path="url(#clip180)" style="stroke:#000000; stroke-linecap:butt; stroke-linejoin:round; stroke-width:4; stroke-opacity:1; fill:none" points="
  619.57,1486.45 619.57,1467.55 
  "/>
<polyline clip-path="url(#clip180)" style="stroke:#000000; stroke-linecap:butt; stroke-linejoin:round; stroke-width:4; stroke-opacity:1; fill:none" points="
  1052.87,1486.45 1052.87,1467.55 
  "/>
<polyline clip-path="url(#clip180)" style="stroke:#000000; stroke-linecap:butt; stroke-linejoin:round; stroke-width:4; stroke-opacity:1; fill:none" points="
  1486.16,1486.45 1486.16,1467.55 
  "/>
<polyline clip-path="url(#clip180)" style="stroke:#000000; stroke-linecap:butt; stroke-linejoin:round; stroke-width:4; stroke-opacity:1; fill:none" points="
  1919.46,1486.45 1919.46,1467.55 
  "/>
<polyline clip-path="url(#clip180)" style="stroke:#000000; stroke-linecap:butt; stroke-linejoin:round; stroke-width:4; stroke-opacity:1; fill:none" points="
  2352.76,1486.45 2352.76,1467.55 
  "/>
<path clip-path="url(#clip180)" d="M186.274 1517.37 Q182.663 1517.37 180.834 1520.93 Q179.029 1524.47 179.029 1531.6 Q179.029 1538.71 180.834 1542.27 Q182.663 1545.82 186.274 1545.82 Q189.908 1545.82 191.714 1542.27 Q193.542 1538.71 193.542 1531.6 Q193.542 1524.47 191.714 1520.93 Q189.908 1517.37 186.274 1517.37 M186.274 1513.66 Q192.084 1513.66 195.14 1518.27 Q198.218 1522.85 198.218 1531.6 Q198.218 1540.33 195.14 1544.94 Q192.084 1549.52 186.274 1549.52 Q180.464 1549.52 177.385 1544.94 Q174.33 1540.33 174.33 1531.6 Q174.33 1522.85 177.385 1518.27 Q180.464 1513.66 186.274 1513.66 Z" fill="#000000" fill-rule="evenodd" fill-opacity="1" /><path clip-path="url(#clip180)" d="M598.344 1544.91 L614.663 1544.91 L614.663 1548.85 L592.719 1548.85 L592.719 1544.91 Q595.381 1542.16 599.964 1537.53 Q604.57 1532.88 605.751 1531.53 Q607.996 1529.01 608.876 1527.27 Q609.779 1525.51 609.779 1523.82 Q609.779 1521.07 607.834 1519.33 Q605.913 1517.6 602.811 1517.6 Q600.612 1517.6 598.158 1518.36 Q595.728 1519.13 592.95 1520.68 L592.95 1515.95 Q595.774 1514.82 598.228 1514.24 Q600.682 1513.66 602.719 1513.66 Q608.089 1513.66 611.283 1516.35 Q614.478 1519.03 614.478 1523.52 Q614.478 1525.65 613.668 1527.57 Q612.881 1529.47 610.774 1532.07 Q610.195 1532.74 607.094 1535.95 Q603.992 1539.15 598.344 1544.91 Z" fill="#000000" fill-rule="evenodd" fill-opacity="1" /><path clip-path="url(#clip180)" d="M634.478 1517.37 Q630.867 1517.37 629.038 1520.93 Q627.232 1524.47 627.232 1531.6 Q627.232 1538.71 629.038 1542.27 Q630.867 1545.82 634.478 1545.82 Q638.112 1545.82 639.917 1542.27 Q641.746 1538.71 641.746 1531.6 Q641.746 1524.47 639.917 1520.93 Q638.112 1517.37 634.478 1517.37 M634.478 1513.66 Q640.288 1513.66 643.343 1518.27 Q646.422 1522.85 646.422 1531.6 Q646.422 1540.33 643.343 1544.94 Q640.288 1549.52 634.478 1549.52 Q628.668 1549.52 625.589 1544.94 Q622.533 1540.33 622.533 1531.6 Q622.533 1522.85 625.589 1518.27 Q628.668 1513.66 634.478 1513.66 Z" fill="#000000" fill-rule="evenodd" fill-opacity="1" /><path clip-path="url(#clip180)" d="M1041.04 1518.36 L1029.23 1536.81 L1041.04 1536.81 L1041.04 1518.36 M1039.81 1514.29 L1045.69 1514.29 L1045.69 1536.81 L1050.62 1536.81 L1050.62 1540.7 L1045.69 1540.7 L1045.69 1548.85 L1041.04 1548.85 L1041.04 1540.7 L1025.44 1540.7 L1025.44 1536.19 L1039.81 1514.29 Z" fill="#000000" fill-rule="evenodd" fill-opacity="1" /><path clip-path="url(#clip180)" d="M1068.35 1517.37 Q1064.74 1517.37 1062.91 1520.93 Q1061.11 1524.47 1061.11 1531.6 Q1061.11 1538.71 1062.91 1542.27 Q1064.74 1545.82 1068.35 1545.82 Q1071.99 1545.82 1073.79 1542.27 Q1075.62 1538.71 1075.62 1531.6 Q1075.62 1524.47 1073.79 1520.93 Q1071.99 1517.37 1068.35 1517.37 M1068.35 1513.66 Q1074.16 1513.66 1077.22 1518.27 Q1080.3 1522.85 1080.3 1531.6 Q1080.3 1540.33 1077.22 1544.94 Q1074.16 1549.52 1068.35 1549.52 Q1062.54 1549.52 1059.46 1544.94 Q1056.41 1540.33 1056.41 1531.6 Q1056.41 1522.85 1059.46 1518.27 Q1062.54 1513.66 1068.35 1513.66 Z" fill="#000000" fill-rule="evenodd" fill-opacity="1" /><path clip-path="url(#clip180)" d="M1471.57 1529.7 Q1468.42 1529.7 1466.57 1531.86 Q1464.74 1534.01 1464.74 1537.76 Q1464.74 1541.49 1466.57 1543.66 Q1468.42 1545.82 1471.57 1545.82 Q1474.72 1545.82 1476.55 1543.66 Q1478.4 1541.49 1478.4 1537.76 Q1478.4 1534.01 1476.55 1531.86 Q1474.72 1529.7 1471.57 1529.7 M1480.85 1515.05 L1480.85 1519.31 Q1479.09 1518.48 1477.29 1518.04 Q1475.5 1517.6 1473.74 1517.6 Q1469.11 1517.6 1466.66 1520.72 Q1464.23 1523.85 1463.88 1530.17 Q1465.25 1528.15 1467.31 1527.09 Q1469.37 1526 1471.85 1526 Q1477.05 1526 1480.06 1529.17 Q1483.1 1532.32 1483.1 1537.76 Q1483.1 1543.08 1479.95 1546.3 Q1476.8 1549.52 1471.57 1549.52 Q1465.57 1549.52 1462.4 1544.94 Q1459.23 1540.33 1459.23 1531.6 Q1459.23 1523.41 1463.12 1518.55 Q1467.01 1513.66 1473.56 1513.66 Q1475.32 1513.66 1477.1 1514.01 Q1478.91 1514.36 1480.85 1515.05 Z" fill="#000000" fill-rule="evenodd" fill-opacity="1" /><path clip-path="url(#clip180)" d="M1501.15 1517.37 Q1497.54 1517.37 1495.71 1520.93 Q1493.91 1524.47 1493.91 1531.6 Q1493.91 1538.71 1495.71 1542.27 Q1497.54 1545.82 1501.15 1545.82 Q1504.79 1545.82 1506.59 1542.27 Q1508.42 1538.71 1508.42 1531.6 Q1508.42 1524.47 1506.59 1520.93 Q1504.79 1517.37 1501.15 1517.37 M1501.15 1513.66 Q1506.96 1513.66 1510.02 1518.27 Q1513.1 1522.85 1513.1 1531.6 Q1513.1 1540.33 1510.02 1544.94 Q1506.96 1549.52 1501.15 1549.52 Q1495.34 1549.52 1492.26 1544.94 Q1489.21 1540.33 1489.21 1531.6 Q1489.21 1522.85 1492.26 1518.27 Q1495.34 1513.66 1501.15 1513.66 Z" fill="#000000" fill-rule="evenodd" fill-opacity="1" /><path clip-path="url(#clip180)" d="M1904.33 1532.44 Q1901 1532.44 1899.08 1534.22 Q1897.18 1536 1897.18 1539.13 Q1897.18 1542.25 1899.08 1544.03 Q1901 1545.82 1904.33 1545.82 Q1907.67 1545.82 1909.59 1544.03 Q1911.51 1542.23 1911.51 1539.13 Q1911.51 1536 1909.59 1534.22 Q1907.69 1532.44 1904.33 1532.44 M1899.66 1530.45 Q1896.65 1529.7 1894.96 1527.64 Q1893.29 1525.58 1893.29 1522.62 Q1893.29 1518.48 1896.23 1516.07 Q1899.19 1513.66 1904.33 1513.66 Q1909.49 1513.66 1912.43 1516.07 Q1915.37 1518.48 1915.37 1522.62 Q1915.37 1525.58 1913.68 1527.64 Q1912.02 1529.7 1909.03 1530.45 Q1912.41 1531.23 1914.29 1533.52 Q1916.18 1535.82 1916.18 1539.13 Q1916.18 1544.15 1913.11 1546.83 Q1910.05 1549.52 1904.33 1549.52 Q1898.61 1549.52 1895.54 1546.83 Q1892.48 1544.15 1892.48 1539.13 Q1892.48 1535.82 1894.38 1533.52 Q1896.28 1531.23 1899.66 1530.45 M1897.94 1523.06 Q1897.94 1525.75 1899.61 1527.25 Q1901.3 1528.76 1904.33 1528.76 Q1907.34 1528.76 1909.03 1527.25 Q1910.74 1525.75 1910.74 1523.06 Q1910.74 1520.38 1909.03 1518.87 Q1907.34 1517.37 1904.33 1517.37 Q1901.3 1517.37 1899.61 1518.87 Q1897.94 1520.38 1897.94 1523.06 Z" fill="#000000" fill-rule="evenodd" fill-opacity="1" /><path clip-path="url(#clip180)" d="M1934.49 1517.37 Q1930.88 1517.37 1929.05 1520.93 Q1927.25 1524.47 1927.25 1531.6 Q1927.25 1538.71 1929.05 1542.27 Q1930.88 1545.82 1934.49 1545.82 Q1938.13 1545.82 1939.93 1542.27 Q1941.76 1538.71 1941.76 1531.6 Q1941.76 1524.47 1939.93 1520.93 Q1938.13 1517.37 1934.49 1517.37 M1934.49 1513.66 Q1940.3 1513.66 1943.36 1518.27 Q1946.44 1522.85 1946.44 1531.6 Q1946.44 1540.33 1943.36 1544.94 Q1940.3 1549.52 1934.49 1549.52 Q1928.68 1549.52 1925.61 1544.94 Q1922.55 1540.33 1922.55 1531.6 Q1922.55 1522.85 1925.61 1518.27 Q1928.68 1513.66 1934.49 1513.66 Z" fill="#000000" fill-rule="evenodd" fill-opacity="1" /><path clip-path="url(#clip180)" d="M2312.36 1544.91 L2320 1544.91 L2320 1518.55 L2311.69 1520.21 L2311.69 1515.95 L2319.96 1514.29 L2324.63 1514.29 L2324.63 1544.91 L2332.27 1544.91 L2332.27 1548.85 L2312.36 1548.85 L2312.36 1544.91 Z" fill="#000000" fill-rule="evenodd" fill-opacity="1" /><path clip-path="url(#clip180)" d="M2351.71 1517.37 Q2348.1 1517.37 2346.27 1520.93 Q2344.47 1524.47 2344.47 1531.6 Q2344.47 1538.71 2346.27 1542.27 Q2348.1 1545.82 2351.71 1545.82 Q2355.35 1545.82 2357.15 1542.27 Q2358.98 1538.71 2358.98 1531.6 Q2358.98 1524.47 2357.15 1520.93 Q2355.35 1517.37 2351.71 1517.37 M2351.71 1513.66 Q2357.52 1513.66 2360.58 1518.27 Q2363.66 1522.85 2363.66 1531.6 Q2363.66 1540.33 2360.58 1544.94 Q2357.52 1549.52 2351.71 1549.52 Q2345.9 1549.52 2342.83 1544.94 Q2339.77 1540.33 2339.77 1531.6 Q2339.77 1522.85 2342.83 1518.27 Q2345.9 1513.66 2351.71 1513.66 Z" fill="#000000" fill-rule="evenodd" fill-opacity="1" /><path clip-path="url(#clip180)" d="M2381.88 1517.37 Q2378.27 1517.37 2376.44 1520.93 Q2374.63 1524.47 2374.63 1531.6 Q2374.63 1538.71 2376.44 1542.27 Q2378.27 1545.82 2381.88 1545.82 Q2385.51 1545.82 2387.32 1542.27 Q2389.14 1538.71 2389.14 1531.6 Q2389.14 1524.47 2387.32 1520.93 Q2385.51 1517.37 2381.88 1517.37 M2381.88 1513.66 Q2387.69 1513.66 2390.74 1518.27 Q2393.82 1522.85 2393.82 1531.6 Q2393.82 1540.33 2390.74 1544.94 Q2387.69 1549.52 2381.88 1549.52 Q2376.07 1549.52 2372.99 1544.94 Q2369.93 1540.33 2369.93 1531.6 Q2369.93 1522.85 2372.99 1518.27 Q2376.07 1513.66 2381.88 1513.66 Z" fill="#000000" fill-rule="evenodd" fill-opacity="1" /><polyline clip-path="url(#clip182)" style="stroke:#000000; stroke-linecap:butt; stroke-linejoin:round; stroke-width:2; stroke-opacity:0.1; fill:none" points="
  186.274,1447.87 2352.76,1447.87 
  "/>
<polyline clip-path="url(#clip182)" style="stroke:#000000; stroke-linecap:butt; stroke-linejoin:round; stroke-width:2; stroke-opacity:0.1; fill:none" points="
  186.274,1126.42 2352.76,1126.42 
  "/>
<polyline clip-path="url(#clip182)" style="stroke:#000000; stroke-linecap:butt; stroke-linejoin:round; stroke-width:2; stroke-opacity:0.1; fill:none" points="
  186.274,804.96 2352.76,804.96 
  "/>
<polyline clip-path="url(#clip182)" style="stroke:#000000; stroke-linecap:butt; stroke-linejoin:round; stroke-width:2; stroke-opacity:0.1; fill:none" points="
  186.274,483.503 2352.76,483.503 
  "/>
<polyline clip-path="url(#clip182)" style="stroke:#000000; stroke-linecap:butt; stroke-linejoin:round; stroke-width:2; stroke-opacity:0.1; fill:none" points="
  186.274,162.047 2352.76,162.047 
  "/>
<polyline clip-path="url(#clip180)" style="stroke:#000000; stroke-linecap:butt; stroke-linejoin:round; stroke-width:4; stroke-opacity:1; fill:none" points="
  186.274,1486.45 186.274,123.472 
  "/>
<polyline clip-path="url(#clip180)" style="stroke:#000000; stroke-linecap:butt; stroke-linejoin:round; stroke-width:4; stroke-opacity:1; fill:none" points="
  186.274,1447.87 205.172,1447.87 
  "/>
<polyline clip-path="url(#clip180)" style="stroke:#000000; stroke-linecap:butt; stroke-linejoin:round; stroke-width:4; stroke-opacity:1; fill:none" points="
  186.274,1126.42 205.172,1126.42 
  "/>
<polyline clip-path="url(#clip180)" style="stroke:#000000; stroke-linecap:butt; stroke-linejoin:round; stroke-width:4; stroke-opacity:1; fill:none" points="
  186.274,804.96 205.172,804.96 
  "/>
<polyline clip-path="url(#clip180)" style="stroke:#000000; stroke-linecap:butt; stroke-linejoin:round; stroke-width:4; stroke-opacity:1; fill:none" points="
  186.274,483.503 205.172,483.503 
  "/>
<polyline clip-path="url(#clip180)" style="stroke:#000000; stroke-linecap:butt; stroke-linejoin:round; stroke-width:4; stroke-opacity:1; fill:none" points="
  186.274,162.047 205.172,162.047 
  "/>
<path clip-path="url(#clip180)" d="M62.9365 1433.67 Q59.3254 1433.67 57.4967 1437.24 Q55.6912 1440.78 55.6912 1447.91 Q55.6912 1455.01 57.4967 1458.58 Q59.3254 1462.12 62.9365 1462.12 Q66.5707 1462.12 68.3763 1458.58 Q70.205 1455.01 70.205 1447.91 Q70.205 1440.78 68.3763 1437.24 Q66.5707 1433.67 62.9365 1433.67 M62.9365 1429.97 Q68.7467 1429.97 71.8022 1434.57 Q74.8809 1439.16 74.8809 1447.91 Q74.8809 1456.63 71.8022 1461.24 Q68.7467 1465.82 62.9365 1465.82 Q57.1264 1465.82 54.0477 1461.24 Q50.9921 1456.63 50.9921 1447.91 Q50.9921 1439.16 54.0477 1434.57 Q57.1264 1429.97 62.9365 1429.97 Z" fill="#000000" fill-rule="evenodd" fill-opacity="1" /><path clip-path="url(#clip180)" d="M83.0984 1459.27 L87.9827 1459.27 L87.9827 1465.15 L83.0984 1465.15 L83.0984 1459.27 Z" fill="#000000" fill-rule="evenodd" fill-opacity="1" /><path clip-path="url(#clip180)" d="M108.168 1433.67 Q104.557 1433.67 102.728 1437.24 Q100.922 1440.78 100.922 1447.91 Q100.922 1455.01 102.728 1458.58 Q104.557 1462.12 108.168 1462.12 Q111.802 1462.12 113.608 1458.58 Q115.436 1455.01 115.436 1447.91 Q115.436 1440.78 113.608 1437.24 Q111.802 1433.67 108.168 1433.67 M108.168 1429.97 Q113.978 1429.97 117.033 1434.57 Q120.112 1439.16 120.112 1447.91 Q120.112 1456.63 117.033 1461.24 Q113.978 1465.82 108.168 1465.82 Q102.358 1465.82 99.2789 1461.24 Q96.2234 1456.63 96.2234 1447.91 Q96.2234 1439.16 99.2789 1434.57 Q102.358 1429.97 108.168 1429.97 Z" fill="#000000" fill-rule="evenodd" fill-opacity="1" /><path clip-path="url(#clip180)" d="M138.33 1433.67 Q134.719 1433.67 132.89 1437.24 Q131.084 1440.78 131.084 1447.91 Q131.084 1455.01 132.89 1458.58 Q134.719 1462.12 138.33 1462.12 Q141.964 1462.12 143.769 1458.58 Q145.598 1455.01 145.598 1447.91 Q145.598 1440.78 143.769 1437.24 Q141.964 1433.67 138.33 1433.67 M138.33 1429.97 Q144.14 1429.97 147.195 1434.57 Q150.274 1439.16 150.274 1447.91 Q150.274 1456.63 147.195 1461.24 Q144.14 1465.82 138.33 1465.82 Q132.519 1465.82 129.441 1461.24 Q126.385 1456.63 126.385 1447.91 Q126.385 1439.16 129.441 1434.57 Q132.519 1429.97 138.33 1429.97 Z" fill="#000000" fill-rule="evenodd" fill-opacity="1" /><path clip-path="url(#clip180)" d="M63.9319 1112.22 Q60.3208 1112.22 58.4921 1115.78 Q56.6865 1119.32 56.6865 1126.45 Q56.6865 1133.56 58.4921 1137.12 Q60.3208 1140.66 63.9319 1140.66 Q67.5661 1140.66 69.3717 1137.12 Q71.2004 1133.56 71.2004 1126.45 Q71.2004 1119.32 69.3717 1115.78 Q67.5661 1112.22 63.9319 1112.22 M63.9319 1108.51 Q69.742 1108.51 72.7976 1113.12 Q75.8763 1117.7 75.8763 1126.45 Q75.8763 1135.18 72.7976 1139.78 Q69.742 1144.37 63.9319 1144.37 Q58.1217 1144.37 55.043 1139.78 Q51.9875 1135.18 51.9875 1126.45 Q51.9875 1117.7 55.043 1113.12 Q58.1217 1108.51 63.9319 1108.51 Z" fill="#000000" fill-rule="evenodd" fill-opacity="1" /><path clip-path="url(#clip180)" d="M84.0938 1137.82 L88.978 1137.82 L88.978 1143.7 L84.0938 1143.7 L84.0938 1137.82 Z" fill="#000000" fill-rule="evenodd" fill-opacity="1" /><path clip-path="url(#clip180)" d="M103.191 1139.76 L119.51 1139.76 L119.51 1143.7 L97.566 1143.7 L97.566 1139.76 Q100.228 1137.01 104.811 1132.38 Q109.418 1127.72 110.598 1126.38 Q112.844 1123.86 113.723 1122.12 Q114.626 1120.36 114.626 1118.67 Q114.626 1115.92 112.682 1114.18 Q110.76 1112.45 107.658 1112.45 Q105.459 1112.45 103.006 1113.21 Q100.575 1113.97 97.7974 1115.53 L97.7974 1110.8 Q100.621 1109.67 103.075 1109.09 Q105.529 1108.51 107.566 1108.51 Q112.936 1108.51 116.131 1111.2 Q119.325 1113.88 119.325 1118.37 Q119.325 1120.5 118.515 1122.42 Q117.728 1124.32 115.621 1126.91 Q115.043 1127.59 111.941 1130.8 Q108.839 1134 103.191 1139.76 Z" fill="#000000" fill-rule="evenodd" fill-opacity="1" /><path clip-path="url(#clip180)" d="M129.371 1109.14 L147.728 1109.14 L147.728 1113.07 L133.654 1113.07 L133.654 1121.54 Q134.672 1121.2 135.691 1121.03 Q136.709 1120.85 137.728 1120.85 Q143.515 1120.85 146.894 1124.02 Q150.274 1127.19 150.274 1132.61 Q150.274 1138.19 146.802 1141.29 Q143.33 1144.37 137.01 1144.37 Q134.834 1144.37 132.566 1144 Q130.32 1143.63 127.913 1142.89 L127.913 1138.19 Q129.996 1139.32 132.219 1139.88 Q134.441 1140.43 136.918 1140.43 Q140.922 1140.43 143.26 1138.33 Q145.598 1136.22 145.598 1132.61 Q145.598 1129 143.26 1126.89 Q140.922 1124.78 136.918 1124.78 Q135.043 1124.78 133.168 1125.2 Q131.316 1125.62 129.371 1126.5 L129.371 1109.14 Z" fill="#000000" fill-rule="evenodd" fill-opacity="1" /><path clip-path="url(#clip180)" d="M62.9365 790.759 Q59.3254 790.759 57.4967 794.323 Q55.6912 797.865 55.6912 804.995 Q55.6912 812.101 57.4967 815.666 Q59.3254 819.208 62.9365 819.208 Q66.5707 819.208 68.3763 815.666 Q70.205 812.101 70.205 804.995 Q70.205 797.865 68.3763 794.323 Q66.5707 790.759 62.9365 790.759 M62.9365 787.055 Q68.7467 787.055 71.8022 791.661 Q74.8809 796.245 74.8809 804.995 Q74.8809 813.722 71.8022 818.328 Q68.7467 822.911 62.9365 822.911 Q57.1264 822.911 54.0477 818.328 Q50.9921 813.722 50.9921 804.995 Q50.9921 796.245 54.0477 791.661 Q57.1264 787.055 62.9365 787.055 Z" fill="#000000" fill-rule="evenodd" fill-opacity="1" /><path clip-path="url(#clip180)" d="M83.0984 816.36 L87.9827 816.36 L87.9827 822.24 L83.0984 822.24 L83.0984 816.36 Z" fill="#000000" fill-rule="evenodd" fill-opacity="1" /><path clip-path="url(#clip180)" d="M98.2141 787.68 L116.57 787.68 L116.57 791.615 L102.496 791.615 L102.496 800.087 Q103.515 799.74 104.534 799.578 Q105.552 799.393 106.571 799.393 Q112.358 799.393 115.737 802.564 Q119.117 805.735 119.117 811.152 Q119.117 816.731 115.645 819.833 Q112.172 822.911 105.853 822.911 Q103.677 822.911 101.409 822.541 Q99.1632 822.171 96.7558 821.43 L96.7558 816.731 Q98.8391 817.865 101.061 818.421 Q103.284 818.976 105.76 818.976 Q109.765 818.976 112.103 816.87 Q114.441 814.763 114.441 811.152 Q114.441 807.541 112.103 805.435 Q109.765 803.328 105.76 803.328 Q103.885 803.328 102.01 803.745 Q100.159 804.161 98.2141 805.041 L98.2141 787.68 Z" fill="#000000" fill-rule="evenodd" fill-opacity="1" /><path clip-path="url(#clip180)" d="M138.33 790.759 Q134.719 790.759 132.89 794.323 Q131.084 797.865 131.084 804.995 Q131.084 812.101 132.89 815.666 Q134.719 819.208 138.33 819.208 Q141.964 819.208 143.769 815.666 Q145.598 812.101 145.598 804.995 Q145.598 797.865 143.769 794.323 Q141.964 790.759 138.33 790.759 M138.33 787.055 Q144.14 787.055 147.195 791.661 Q150.274 796.245 150.274 804.995 Q150.274 813.722 147.195 818.328 Q144.14 822.911 138.33 822.911 Q132.519 822.911 129.441 818.328 Q126.385 813.722 126.385 804.995 Q126.385 796.245 129.441 791.661 Q132.519 787.055 138.33 787.055 Z" fill="#000000" fill-rule="evenodd" fill-opacity="1" /><path clip-path="url(#clip180)" d="M63.9319 469.302 Q60.3208 469.302 58.4921 472.867 Q56.6865 476.409 56.6865 483.538 Q56.6865 490.645 58.4921 494.209 Q60.3208 497.751 63.9319 497.751 Q67.5661 497.751 69.3717 494.209 Q71.2004 490.645 71.2004 483.538 Q71.2004 476.409 69.3717 472.867 Q67.5661 469.302 63.9319 469.302 M63.9319 465.598 Q69.742 465.598 72.7976 470.205 Q75.8763 474.788 75.8763 483.538 Q75.8763 492.265 72.7976 496.871 Q69.742 501.455 63.9319 501.455 Q58.1217 501.455 55.043 496.871 Q51.9875 492.265 51.9875 483.538 Q51.9875 474.788 55.043 470.205 Q58.1217 465.598 63.9319 465.598 Z" fill="#000000" fill-rule="evenodd" fill-opacity="1" /><path clip-path="url(#clip180)" d="M84.0938 494.904 L88.978 494.904 L88.978 500.783 L84.0938 500.783 L84.0938 494.904 Z" fill="#000000" fill-rule="evenodd" fill-opacity="1" /><path clip-path="url(#clip180)" d="M97.9826 466.223 L120.205 466.223 L120.205 468.214 L107.658 500.783 L102.774 500.783 L114.58 470.159 L97.9826 470.159 L97.9826 466.223 Z" fill="#000000" fill-rule="evenodd" fill-opacity="1" /><path clip-path="url(#clip180)" d="M129.371 466.223 L147.728 466.223 L147.728 470.159 L133.654 470.159 L133.654 478.631 Q134.672 478.284 135.691 478.122 Q136.709 477.936 137.728 477.936 Q143.515 477.936 146.894 481.108 Q150.274 484.279 150.274 489.696 Q150.274 495.274 146.802 498.376 Q143.33 501.455 137.01 501.455 Q134.834 501.455 132.566 501.084 Q130.32 500.714 127.913 499.973 L127.913 495.274 Q129.996 496.408 132.219 496.964 Q134.441 497.52 136.918 497.52 Q140.922 497.52 143.26 495.413 Q145.598 493.307 145.598 489.696 Q145.598 486.084 143.26 483.978 Q140.922 481.872 136.918 481.872 Q135.043 481.872 133.168 482.288 Q131.316 482.705 129.371 483.584 L129.371 466.223 Z" fill="#000000" fill-rule="evenodd" fill-opacity="1" /><path clip-path="url(#clip180)" d="M53.7467 175.392 L61.3856 175.392 L61.3856 149.026 L53.0754 150.693 L53.0754 146.434 L61.3393 144.767 L66.0152 144.767 L66.0152 175.392 L73.654 175.392 L73.654 179.327 L53.7467 179.327 L53.7467 175.392 Z" fill="#000000" fill-rule="evenodd" fill-opacity="1" /><path clip-path="url(#clip180)" d="M83.0984 173.447 L87.9827 173.447 L87.9827 179.327 L83.0984 179.327 L83.0984 173.447 Z" fill="#000000" fill-rule="evenodd" fill-opacity="1" /><path clip-path="url(#clip180)" d="M108.168 147.846 Q104.557 147.846 102.728 151.41 Q100.922 154.952 100.922 162.082 Q100.922 169.188 102.728 172.753 Q104.557 176.295 108.168 176.295 Q111.802 176.295 113.608 172.753 Q115.436 169.188 115.436 162.082 Q115.436 154.952 113.608 151.41 Q111.802 147.846 108.168 147.846 M108.168 144.142 Q113.978 144.142 117.033 148.748 Q120.112 153.332 120.112 162.082 Q120.112 170.808 117.033 175.415 Q113.978 179.998 108.168 179.998 Q102.358 179.998 99.2789 175.415 Q96.2234 170.808 96.2234 162.082 Q96.2234 153.332 99.2789 148.748 Q102.358 144.142 108.168 144.142 Z" fill="#000000" fill-rule="evenodd" fill-opacity="1" /><path clip-path="url(#clip180)" d="M138.33 147.846 Q134.719 147.846 132.89 151.41 Q131.084 154.952 131.084 162.082 Q131.084 169.188 132.89 172.753 Q134.719 176.295 138.33 176.295 Q141.964 176.295 143.769 172.753 Q145.598 169.188 145.598 162.082 Q145.598 154.952 143.769 151.41 Q141.964 147.846 138.33 147.846 M138.33 144.142 Q144.14 144.142 147.195 148.748 Q150.274 153.332 150.274 162.082 Q150.274 170.808 147.195 175.415 Q144.14 179.998 138.33 179.998 Q132.519 179.998 129.441 175.415 Q126.385 170.808 126.385 162.082 Q126.385 153.332 129.441 148.748 Q132.519 144.142 138.33 144.142 Z" fill="#000000" fill-rule="evenodd" fill-opacity="1" /><path clip-path="url(#clip180)" d="M668.158 12.096 L706.399 12.096 L706.399 18.9825 L676.341 18.9825 L676.341 36.8875 L705.143 36.8875 L705.143 43.7741 L676.341 43.7741 L676.341 65.6895 L707.128 65.6895 L707.128 72.576 L668.158 72.576 L668.158 12.096 Z" fill="#000000" fill-rule="evenodd" fill-opacity="1" /><path clip-path="url(#clip180)" d="M765.866 16.7545 L765.866 25.383 Q761.734 21.5346 757.035 19.6307 Q752.377 17.7268 747.11 17.7268 Q736.74 17.7268 731.231 24.0867 Q725.722 30.4061 725.722 42.3968 Q725.722 54.3469 731.231 60.7069 Q736.74 67.0263 747.11 67.0263 Q752.377 67.0263 757.035 65.1223 Q761.734 63.2184 765.866 59.3701 L765.866 67.9175 Q761.572 70.8341 756.751 72.2924 Q751.971 73.7508 746.624 73.7508 Q732.892 73.7508 724.992 65.3654 Q717.093 56.9395 717.093 42.3968 Q717.093 27.8135 724.992 19.4281 Q732.892 11.0023 746.624 11.0023 Q752.052 11.0023 756.833 12.4606 Q761.653 13.8784 765.866 16.7545 Z" fill="#000000" fill-rule="evenodd" fill-opacity="1" /><path clip-path="url(#clip180)" d="M786.688 18.8205 L786.688 65.8515 L796.572 65.8515 Q809.089 65.8515 814.882 60.1802 Q820.715 54.509 820.715 42.2752 Q820.715 30.1225 814.882 24.4918 Q809.089 18.8205 796.572 18.8205 L786.688 18.8205 M778.505 12.096 L795.316 12.096 Q812.897 12.096 821.12 19.4281 Q829.344 26.7198 829.344 42.2752 Q829.344 57.9117 821.08 65.2439 Q812.816 72.576 795.316 72.576 L778.505 72.576 L778.505 12.096 Z" fill="#000000" fill-rule="evenodd" fill-opacity="1" /><path clip-path="url(#clip180)" d="M842.388 12.096 L877.144 12.096 L877.144 18.9825 L850.57 18.9825 L850.57 36.8065 L874.552 36.8065 L874.552 43.6931 L850.57 43.6931 L850.57 72.576 L842.388 72.576 L842.388 12.096 Z" fill="#000000" fill-rule="evenodd" fill-opacity="1" /><path clip-path="url(#clip180)" d="M933.736 32.4315 Q927.74 32.4315 924.256 37.1306 Q920.773 41.7891 920.773 49.9314 Q920.773 58.0738 924.216 62.7728 Q927.7 67.4314 933.736 67.4314 Q939.69 67.4314 943.174 62.7323 Q946.658 58.0333 946.658 49.9314 Q946.658 41.8701 943.174 37.1711 Q939.69 32.4315 933.736 32.4315 M933.736 26.1121 Q943.458 26.1121 949.007 32.4315 Q954.557 38.7509 954.557 49.9314 Q954.557 61.0714 949.007 67.4314 Q943.458 73.7508 933.736 73.7508 Q923.973 73.7508 918.423 67.4314 Q912.914 61.0714 912.914 49.9314 Q912.914 38.7509 918.423 32.4315 Q923.973 26.1121 933.736 26.1121 Z" fill="#000000" fill-rule="evenodd" fill-opacity="1" /><path clip-path="url(#clip180)" d="M989.881 9.54393 L989.881 15.7418 L982.751 15.7418 Q978.741 15.7418 977.161 17.3622 Q975.622 18.9825 975.622 23.1955 L975.622 27.2059 L987.896 27.2059 L987.896 32.9987 L975.622 32.9987 L975.622 72.576 L968.128 72.576 L968.128 32.9987 L960.998 32.9987 L960.998 27.2059 L968.128 27.2059 L968.128 24.0462 Q968.128 16.471 971.652 13.0277 Q975.176 9.54393 982.832 9.54393 L989.881 9.54393 Z" fill="#000000" fill-rule="evenodd" fill-opacity="1" /><path clip-path="url(#clip180)" d="M1022.81 12.096 L1031 12.096 L1031 37.6572 L1058.14 12.096 L1068.67 12.096 L1038.65 40.2903 L1070.82 72.576 L1060.04 72.576 L1031 43.45 L1031 72.576 L1022.81 72.576 L1022.81 12.096 Z" fill="#000000" fill-rule="evenodd" fill-opacity="1" /><path clip-path="url(#clip180)" d="M1076.89 27.2059 L1084.35 27.2059 L1084.35 72.576 L1076.89 72.576 L1076.89 27.2059 M1076.89 9.54393 L1084.35 9.54393 L1084.35 18.9825 L1076.89 18.9825 L1076.89 9.54393 Z" fill="#000000" fill-rule="evenodd" fill-opacity="1" /><path clip-path="url(#clip180)" d="M1099.94 9.54393 L1107.4 9.54393 L1107.4 72.576 L1099.94 72.576 L1099.94 9.54393 Z" fill="#000000" fill-rule="evenodd" fill-opacity="1" /><path clip-path="url(#clip180)" d="M1122.99 9.54393 L1130.45 9.54393 L1130.45 72.576 L1122.99 72.576 L1122.99 9.54393 Z" fill="#000000" fill-rule="evenodd" fill-opacity="1" /><path clip-path="url(#clip180)" d="M1184.85 48.0275 L1184.85 51.6733 L1150.58 51.6733 Q1151.07 59.3701 1155.2 63.421 Q1159.37 67.4314 1166.78 67.4314 Q1171.08 67.4314 1175.09 66.3781 Q1179.14 65.3249 1183.11 63.2184 L1183.11 70.267 Q1179.1 71.9684 1174.89 72.8596 Q1170.67 73.7508 1166.34 73.7508 Q1155.48 73.7508 1149.12 67.4314 Q1142.8 61.1119 1142.8 50.3365 Q1142.8 39.1965 1148.8 32.6746 Q1154.83 26.1121 1165.04 26.1121 Q1174.2 26.1121 1179.5 32.0264 Q1184.85 37.9003 1184.85 48.0275 M1177.4 45.84 Q1177.32 39.7232 1173.95 36.0774 Q1170.63 32.4315 1165.12 32.4315 Q1158.88 32.4315 1155.12 35.9558 Q1151.39 39.4801 1150.82 45.8805 L1177.4 45.84 Z" fill="#000000" fill-rule="evenodd" fill-opacity="1" /><path clip-path="url(#clip180)" d="M1226.94 34.0924 L1226.94 9.54393 L1234.39 9.54393 L1234.39 72.576 L1226.94 72.576 L1226.94 65.7705 Q1224.59 69.8214 1220.99 71.8063 Q1217.42 73.7508 1212.4 73.7508 Q1204.17 73.7508 1198.99 67.1883 Q1193.84 60.6258 1193.84 49.9314 Q1193.84 39.2371 1198.99 32.6746 Q1204.17 26.1121 1212.4 26.1121 Q1217.42 26.1121 1220.99 28.0971 Q1224.59 30.0415 1226.94 34.0924 M1201.54 49.9314 Q1201.54 58.1548 1204.9 62.8538 Q1208.31 67.5124 1214.22 67.5124 Q1220.13 67.5124 1223.54 62.8538 Q1226.94 58.1548 1226.94 49.9314 Q1226.94 41.7081 1223.54 37.0496 Q1220.13 32.3505 1214.22 32.3505 Q1208.31 32.3505 1204.9 37.0496 Q1201.54 41.7081 1201.54 49.9314 Z" fill="#000000" fill-rule="evenodd" fill-opacity="1" /><path clip-path="url(#clip180)" d="M1280.09 20.5624 L1280.09 43.1259 L1302.65 43.1259 L1302.65 50.0125 L1280.09 50.0125 L1280.09 72.576 L1273.28 72.576 L1273.28 50.0125 L1250.72 50.0125 L1250.72 43.1259 L1273.28 43.1259 L1273.28 20.5624 L1280.09 20.5624 Z" fill="#000000" fill-rule="evenodd" fill-opacity="1" /><path clip-path="url(#clip180)" d="M1319.58 12.096 L1327.77 12.096 L1327.77 72.576 L1319.58 72.576 L1319.58 12.096 Z" fill="#000000" fill-rule="evenodd" fill-opacity="1" /><path clip-path="url(#clip180)" d="M1381.44 45.1919 L1381.44 72.576 L1373.99 72.576 L1373.99 45.4349 Q1373.99 38.994 1371.48 35.7938 Q1368.96 32.5936 1363.94 32.5936 Q1357.91 32.5936 1354.42 36.4419 Q1350.94 40.2903 1350.94 46.9338 L1350.94 72.576 L1343.44 72.576 L1343.44 27.2059 L1350.94 27.2059 L1350.94 34.2544 Q1353.61 30.163 1357.22 28.1376 Q1360.86 26.1121 1365.6 26.1121 Q1373.42 26.1121 1377.43 30.9732 Q1381.44 35.7938 1381.44 45.1919 Z" fill="#000000" fill-rule="evenodd" fill-opacity="1" /><path clip-path="url(#clip180)" d="M1396.31 27.2059 L1403.76 27.2059 L1403.76 73.3862 Q1403.76 82.0551 1400.44 85.944 Q1397.16 89.8329 1389.83 89.8329 L1386.99 89.8329 L1386.99 83.5134 L1388.98 83.5134 Q1393.23 83.5134 1394.77 81.5285 Q1396.31 79.5841 1396.31 73.3862 L1396.31 27.2059 M1396.31 9.54393 L1403.76 9.54393 L1403.76 18.9825 L1396.31 18.9825 L1396.31 9.54393 Z" fill="#000000" fill-rule="evenodd" fill-opacity="1" /><path clip-path="url(#clip180)" d="M1418.59 54.671 L1418.59 27.2059 L1426.04 27.2059 L1426.04 54.3874 Q1426.04 60.8284 1428.55 64.0691 Q1431.07 67.2693 1436.09 67.2693 Q1442.12 67.2693 1445.61 63.421 Q1449.13 59.5726 1449.13 52.9291 L1449.13 27.2059 L1456.59 27.2059 L1456.59 72.576 L1449.13 72.576 L1449.13 65.6084 Q1446.42 69.7404 1442.81 71.7658 Q1439.25 73.7508 1434.51 73.7508 Q1426.69 73.7508 1422.64 68.8897 Q1418.59 64.0286 1418.59 54.671 M1437.34 26.1121 L1437.34 26.1121 Z" fill="#000000" fill-rule="evenodd" fill-opacity="1" /><path clip-path="url(#clip180)" d="M1498.23 34.1734 Q1496.97 33.4443 1495.47 33.1202 Q1494.02 32.7556 1492.23 32.7556 Q1485.91 32.7556 1482.51 36.8875 Q1479.15 40.9789 1479.15 48.6757 L1479.15 72.576 L1471.66 72.576 L1471.66 27.2059 L1479.15 27.2059 L1479.15 34.2544 Q1481.5 30.1225 1485.27 28.1376 Q1489.03 26.1121 1494.42 26.1121 Q1495.19 26.1121 1496.12 26.2337 Q1497.05 26.3147 1498.19 26.5172 L1498.23 34.1734 Z" fill="#000000" fill-rule="evenodd" fill-opacity="1" /><path clip-path="url(#clip180)" d="M1543.03 48.0275 L1543.03 51.6733 L1508.76 51.6733 Q1509.25 59.3701 1513.38 63.421 Q1517.55 67.4314 1524.96 67.4314 Q1529.26 67.4314 1533.27 66.3781 Q1537.32 65.3249 1541.29 63.2184 L1541.29 70.267 Q1537.28 71.9684 1533.07 72.8596 Q1528.85 73.7508 1524.52 73.7508 Q1513.66 73.7508 1507.3 67.4314 Q1500.98 61.1119 1500.98 50.3365 Q1500.98 39.1965 1506.98 32.6746 Q1513.01 26.1121 1523.22 26.1121 Q1532.38 26.1121 1537.68 32.0264 Q1543.03 37.9003 1543.03 48.0275 M1535.58 45.84 Q1535.5 39.7232 1532.14 36.0774 Q1528.81 32.4315 1523.3 32.4315 Q1517.07 32.4315 1513.3 35.9558 Q1509.57 39.4801 1509 45.8805 L1535.58 45.84 Z" fill="#000000" fill-rule="evenodd" fill-opacity="1" /><path clip-path="url(#clip180)" d="M1585.12 34.0924 L1585.12 9.54393 L1592.57 9.54393 L1592.57 72.576 L1585.12 72.576 L1585.12 65.7705 Q1582.77 69.8214 1579.17 71.8063 Q1575.6 73.7508 1570.58 73.7508 Q1562.35 73.7508 1557.17 67.1883 Q1552.03 60.6258 1552.03 49.9314 Q1552.03 39.2371 1557.17 32.6746 Q1562.35 26.1121 1570.58 26.1121 Q1575.6 26.1121 1579.17 28.0971 Q1582.77 30.0415 1585.12 34.0924 M1559.72 49.9314 Q1559.72 58.1548 1563.08 62.8538 Q1566.49 67.5124 1572.4 67.5124 Q1578.32 67.5124 1581.72 62.8538 Q1585.12 58.1548 1585.12 49.9314 Q1585.12 41.7081 1581.72 37.0496 Q1578.32 32.3505 1572.4 32.3505 Q1566.49 32.3505 1563.08 37.0496 Q1559.72 41.7081 1559.72 49.9314 Z" fill="#000000" fill-rule="evenodd" fill-opacity="1" /><path clip-path="url(#clip180)" d="M1679.91 16.7545 L1679.91 25.383 Q1675.78 21.5346 1671.08 19.6307 Q1666.42 17.7268 1661.16 17.7268 Q1650.79 17.7268 1645.28 24.0867 Q1639.77 30.4061 1639.77 42.3968 Q1639.77 54.3469 1645.28 60.7069 Q1650.79 67.0263 1661.16 67.0263 Q1666.42 67.0263 1671.08 65.1223 Q1675.78 63.2184 1679.91 59.3701 L1679.91 67.9175 Q1675.62 70.8341 1670.8 72.2924 Q1666.02 73.7508 1660.67 73.7508 Q1646.94 73.7508 1639.04 65.3654 Q1631.14 56.9395 1631.14 42.3968 Q1631.14 27.8135 1639.04 19.4281 Q1646.94 11.0023 1660.67 11.0023 Q1666.1 11.0023 1670.88 12.4606 Q1675.7 13.8784 1679.91 16.7545 Z" fill="#000000" fill-rule="evenodd" fill-opacity="1" /><path clip-path="url(#clip180)" d="M1709.81 32.4315 Q1703.81 32.4315 1700.33 37.1306 Q1696.84 41.7891 1696.84 49.9314 Q1696.84 58.0738 1700.29 62.7728 Q1703.77 67.4314 1709.81 67.4314 Q1715.76 67.4314 1719.25 62.7323 Q1722.73 58.0333 1722.73 49.9314 Q1722.73 41.8701 1719.25 37.1711 Q1715.76 32.4315 1709.81 32.4315 M1709.81 26.1121 Q1719.53 26.1121 1725.08 32.4315 Q1730.63 38.7509 1730.63 49.9314 Q1730.63 61.0714 1725.08 67.4314 Q1719.53 73.7508 1709.81 73.7508 Q1700.05 73.7508 1694.5 67.4314 Q1688.99 61.0714 1688.99 49.9314 Q1688.99 38.7509 1694.5 32.4315 Q1700.05 26.1121 1709.81 26.1121 Z" fill="#000000" fill-rule="evenodd" fill-opacity="1" /><path clip-path="url(#clip180)" d="M1742.21 54.671 L1742.21 27.2059 L1749.67 27.2059 L1749.67 54.3874 Q1749.67 60.8284 1752.18 64.0691 Q1754.69 67.2693 1759.71 67.2693 Q1765.75 67.2693 1769.23 63.421 Q1772.76 59.5726 1772.76 52.9291 L1772.76 27.2059 L1780.21 27.2059 L1780.21 72.576 L1772.76 72.576 L1772.76 65.6084 Q1770.04 69.7404 1766.44 71.7658 Q1762.87 73.7508 1758.14 73.7508 Q1750.32 73.7508 1746.27 68.8897 Q1742.21 64.0286 1742.21 54.671 M1760.97 26.1121 L1760.97 26.1121 Z" fill="#000000" fill-rule="evenodd" fill-opacity="1" /><path clip-path="url(#clip180)" d="M1833.28 45.1919 L1833.28 72.576 L1825.83 72.576 L1825.83 45.4349 Q1825.83 38.994 1823.31 35.7938 Q1820.8 32.5936 1815.78 32.5936 Q1809.74 32.5936 1806.26 36.4419 Q1802.78 40.2903 1802.78 46.9338 L1802.78 72.576 L1795.28 72.576 L1795.28 27.2059 L1802.78 27.2059 L1802.78 34.2544 Q1805.45 30.163 1809.05 28.1376 Q1812.7 26.1121 1817.44 26.1121 Q1825.26 26.1121 1829.27 30.9732 Q1833.28 35.7938 1833.28 45.1919 Z" fill="#000000" fill-rule="evenodd" fill-opacity="1" /><path clip-path="url(#clip180)" d="M1855.52 14.324 L1855.52 27.2059 L1870.87 27.2059 L1870.87 32.9987 L1855.52 32.9987 L1855.52 57.6282 Q1855.52 63.1779 1857.02 64.7578 Q1858.56 66.3376 1863.22 66.3376 L1870.87 66.3376 L1870.87 72.576 L1863.22 72.576 Q1854.59 72.576 1851.31 69.3758 Q1848.02 66.1351 1848.02 57.6282 L1848.02 32.9987 L1842.56 32.9987 L1842.56 27.2059 L1848.02 27.2059 L1848.02 14.324 L1855.52 14.324 Z" fill="#000000" fill-rule="evenodd" fill-opacity="1" /><polyline clip-path="url(#clip182)" style="stroke:#009af9; stroke-linecap:butt; stroke-linejoin:round; stroke-width:4; stroke-opacity:1; fill:none" points="
  186.274,1447.87 186.274,1447.87 186.274,1443.18 186.274,1438.49 186.274,1433.79 186.274,1429.1 
  186.274,1424.41 186.274,1419.72 186.274,1415.02 186.274,1410.33 186.274,1405.64 207.939,1405.64 
  207.939,1400.95 207.939,1396.25 207.939,1391.56 207.939,1386.87 207.939,1382.17 
  207.939,1377.48 207.939,1372.79 207.939,1368.1 207.939,1363.4 207.939,1358.71 
  207.939,1354.02 207.939,1349.32 207.939,1344.63 207.939,1339.94 207.939,1335.25 
  207.939,1330.55 207.939,1325.86 229.604,1325.86 229.604,1321.17 229.604,1316.47 229.604,1311.78 
  229.604,1307.09 229.604,1302.4 229.604,1297.7 229.604,1293.01 229.604,1288.32 
  229.604,1283.63 229.604,1278.93 229.604,1274.24 229.604,1269.55 229.604,1264.85 
  229.604,1260.16 229.604,1255.47 229.604,1250.78 229.604,1246.08 229.604,1241.39 
  229.604,1236.7 229.604,1232 229.604,1227.31 229.604,1222.62 229.604,1217.93 
  229.604,1213.23 229.604,1208.54 229.604,1203.85 229.604,1199.15 229.604,1194.46 
  229.604,1189.77 229.604,1185.08 229.604,1180.38 229.604,1175.69 229.604,1171 
  229.604,1166.31 229.604,1161.61 229.604,1156.92 229.604,1152.23 229.604,1147.53 
  229.604,1142.84 251.268,1142.84 251.268,1138.15 251.268,1133.46 251.268,1128.76 251.268,1124.07 
  251.268,1119.38 251.268,1114.68 251.268,1109.99 251.268,1105.3 251.268,1100.61 
  251.268,1095.91 251.268,1091.22 251.268,1086.53 251.268,1081.83 251.268,1077.14 
  251.268,1072.45 251.268,1067.76 251.268,1063.06 251.268,1058.37 251.268,1053.68 
  251.268,1048.99 251.268,1044.29 251.268,1039.6 251.268,1034.91 251.268,1030.21 
  251.268,1025.52 251.268,1020.83 251.268,1016.14 251.268,1011.44 251.268,1006.75 
  251.268,1002.06 251.268,997.365 251.268,992.672 251.268,987.979 251.268,983.286 
  251.268,978.593 251.268,973.901 251.268,969.208 251.268,964.515 251.268,959.822 
  251.268,955.129 272.933,955.129 272.933,950.437 272.933,945.744 272.933,941.051 272.933,936.358 
  272.933,931.665 272.933,926.973 272.933,922.28 272.933,917.587 272.933,912.894 
  272.933,908.202 272.933,903.509 272.933,898.816 272.933,894.123 272.933,889.43 
  272.933,884.738 272.933,880.045 272.933,875.352 272.933,870.659 272.933,865.966 
  272.933,861.274 272.933,856.581 272.933,851.888 272.933,847.195 272.933,842.502 
  272.933,837.81 272.933,833.117 272.933,828.424 272.933,823.731 272.933,819.038 
  272.933,814.346 272.933,809.653 272.933,804.96 272.933,800.267 272.933,795.574 
  272.933,790.882 272.933,786.189 272.933,781.496 272.933,776.803 272.933,772.11 294.598,772.11 
  294.598,767.418 294.598,762.725 294.598,758.032 294.598,753.339 294.598,748.646 
  294.598,743.954 294.598,739.261 294.598,734.568 294.598,729.875 294.598,725.182 
  294.598,720.49 294.598,715.797 294.598,711.104 294.598,706.411 294.598,701.718 
  294.598,697.026 294.598,692.333 294.598,687.64 316.263,687.64 316.263,682.947 316.263,678.255 
  316.263,673.562 316.263,668.869 316.263,664.176 316.263,659.483 316.263,654.791 
  316.263,650.098 316.263,645.405 316.263,640.712 316.263,636.019 316.263,631.327 
  316.263,626.634 316.263,621.941 316.263,617.248 316.263,612.555 316.263,607.863 
  316.263,603.17 316.263,598.477 316.263,593.784 316.263,589.091 316.263,584.399 
  316.263,579.706 316.263,575.013 316.263,570.32 316.263,565.627 316.263,560.935 337.928,560.935 
  337.928,556.242 337.928,551.549 337.928,546.856 337.928,542.163 337.928,537.471 
  337.928,532.778 337.928,528.085 337.928,523.392 337.928,518.699 337.928,514.007 
  337.928,509.314 337.928,504.621 337.928,499.928 337.928,495.235 337.928,490.543 359.593,490.543 
  359.593,485.85 359.593,481.157 359.593,476.464 359.593,471.771 359.593,467.079 
  359.593,462.386 359.593,457.693 359.593,453 359.593,448.307 359.593,443.615 
  359.593,438.922 359.593,434.229 359.593,429.536 359.593,424.844 359.593,420.151 381.257,420.151 
  381.257,415.458 381.257,410.765 381.257,406.072 381.257,401.38 381.257,396.687 
  381.257,391.994 381.257,387.301 381.257,382.608 402.922,382.608 402.922,377.916 402.922,373.223 
  402.922,368.53 402.922,363.837 402.922,359.144 402.922,354.452 402.922,349.759 
  402.922,345.066 402.922,340.373 424.587,340.373 424.587,335.68 424.587,330.988 424.587,326.295 
  424.587,321.602 424.587,316.909 424.587,312.216 446.252,312.216 446.252,307.524 446.252,302.831 
  446.252,298.138 467.917,298.138 467.917,293.445 467.917,288.752 489.581,288.752 489.581,284.06 511.246,284.06 511.246,279.367 
  511.246,274.674 511.246,269.981 532.911,269.981 532.911,265.288 532.911,260.596 554.576,260.596 554.576,255.903 
  554.576,251.21 554.576,246.517 576.241,246.517 576.241,241.824 597.906,241.824 597.906,237.132 597.906,232.439 
  597.906,227.746 619.57,227.746 619.57,223.053 641.235,223.053 641.235,218.36 662.9,218.36 662.9,213.668 684.565,213.668 684.565,208.975 792.889,208.975 
  792.889,204.282 814.554,204.282 814.554,199.589 922.878,199.589 922.878,194.896 966.207,194.896 966.207,190.204 1161.19,190.204 1161.19,185.511 1182.86,185.511 
  1182.86,180.818 1247.85,180.818 1247.85,176.125 1702.81,176.125 1702.81,171.433 2396.09,171.433 2396.09,166.74 12036.9,166.74 12036.9,162.047 
  "/>
<polyline clip-path="url(#clip182)" style="stroke:#e26f46; stroke-linecap:butt; stroke-linejoin:round; stroke-width:4; stroke-opacity:1; fill:none" points="
  922.878,1447.87 922.878,162.047 
  "/>
<path clip-path="url(#clip180)" d="
M1315.47 1441.02 L2280.54 1441.02 L2280.54 1285.5 L1315.47 1285.5  Z
  " fill="#ffffff" fill-rule="evenodd" fill-opacity="1"/>
<polyline clip-path="url(#clip180)" style="stroke:#000000; stroke-linecap:butt; stroke-linejoin:round; stroke-width:4; stroke-opacity:1; fill:none" points="
  1315.47,1441.02 2280.54,1441.02 2280.54,1285.5 1315.47,1285.5 1315.47,1441.02 
  "/>
<polyline clip-path="url(#clip180)" style="stroke:#009af9; stroke-linecap:butt; stroke-linejoin:round; stroke-width:4; stroke-opacity:1; fill:none" points="
  1339.54,1337.34 1483.98,1337.34 
  "/>
<path clip-path="url(#clip180)" d="M1508.05 1320.06 L1537.28 1320.06 L1537.28 1323.99 L1525.02 1323.99 L1525.02 1354.62 L1520.32 1354.62 L1520.32 1323.99 L1508.05 1323.99 L1508.05 1320.06 Z" fill="#000000" fill-rule="evenodd" fill-opacity="1" /><path clip-path="url(#clip180)" d="M1543.6 1331.68 Q1540.18 1331.68 1538.19 1334.36 Q1536.2 1337.02 1536.2 1341.68 Q1536.2 1346.33 1538.16 1349.01 Q1540.15 1351.68 1543.6 1351.68 Q1547.01 1351.68 1549 1348.99 Q1550.99 1346.31 1550.99 1341.68 Q1550.99 1337.07 1549 1334.38 Q1547.01 1331.68 1543.6 1331.68 M1543.6 1328.06 Q1549.16 1328.06 1552.33 1331.68 Q1555.5 1335.29 1555.5 1341.68 Q1555.5 1348.04 1552.33 1351.68 Q1549.16 1355.29 1543.6 1355.29 Q1538.02 1355.29 1534.85 1351.68 Q1531.71 1348.04 1531.71 1341.68 Q1531.71 1335.29 1534.85 1331.68 Q1538.02 1328.06 1543.6 1328.06 Z" fill="#000000" fill-rule="evenodd" fill-opacity="1" /><path clip-path="url(#clip180)" d="M1566.77 1321.33 L1566.77 1328.69 L1575.55 1328.69 L1575.55 1332 L1566.77 1332 L1566.77 1346.07 Q1566.77 1349.25 1567.63 1350.15 Q1568.51 1351.05 1571.17 1351.05 L1575.55 1351.05 L1575.55 1354.62 L1571.17 1354.62 Q1566.24 1354.62 1564.37 1352.79 Q1562.49 1350.93 1562.49 1346.07 L1562.49 1332 L1559.37 1332 L1559.37 1328.69 L1562.49 1328.69 L1562.49 1321.33 L1566.77 1321.33 Z" fill="#000000" fill-rule="evenodd" fill-opacity="1" /><path clip-path="url(#clip180)" d="M1592.93 1341.58 Q1587.77 1341.58 1585.78 1342.76 Q1583.79 1343.94 1583.79 1346.79 Q1583.79 1349.06 1585.27 1350.4 Q1586.77 1351.72 1589.34 1351.72 Q1592.89 1351.72 1595.01 1349.22 Q1597.17 1346.7 1597.17 1342.53 L1597.17 1341.58 L1592.93 1341.58 M1601.43 1339.82 L1601.43 1354.62 L1597.17 1354.62 L1597.17 1350.68 Q1595.71 1353.04 1593.53 1354.18 Q1591.36 1355.29 1588.21 1355.29 Q1584.23 1355.29 1581.87 1353.06 Q1579.53 1350.82 1579.53 1347.07 Q1579.53 1342.69 1582.45 1340.47 Q1585.39 1338.25 1591.2 1338.25 L1597.17 1338.25 L1597.17 1337.83 Q1597.17 1334.89 1595.22 1333.3 Q1593.3 1331.68 1589.81 1331.68 Q1587.58 1331.68 1585.48 1332.21 Q1583.37 1332.74 1581.43 1333.81 L1581.43 1329.87 Q1583.77 1328.97 1585.96 1328.53 Q1588.16 1328.06 1590.25 1328.06 Q1595.87 1328.06 1598.65 1330.98 Q1601.43 1333.9 1601.43 1339.82 Z" fill="#000000" fill-rule="evenodd" fill-opacity="1" /><path clip-path="url(#clip180)" d="M1610.2 1318.6 L1614.46 1318.6 L1614.46 1354.62 L1610.2 1354.62 L1610.2 1318.6 Z" fill="#000000" fill-rule="evenodd" fill-opacity="1" /><path clip-path="url(#clip180)" d="M1638.63 1320.06 L1643.3 1320.06 L1643.3 1334.66 L1658.81 1320.06 L1664.83 1320.06 L1647.68 1336.17 L1666.06 1354.62 L1659.9 1354.62 L1643.3 1337.97 L1643.3 1354.62 L1638.63 1354.62 L1638.63 1320.06 Z" fill="#000000" fill-rule="evenodd" fill-opacity="1" /><path clip-path="url(#clip180)" d="M1669.53 1328.69 L1673.79 1328.69 L1673.79 1354.62 L1669.53 1354.62 L1669.53 1328.69 M1669.53 1318.6 L1673.79 1318.6 L1673.79 1323.99 L1669.53 1323.99 L1669.53 1318.6 Z" fill="#000000" fill-rule="evenodd" fill-opacity="1" /><path clip-path="url(#clip180)" d="M1682.7 1318.6 L1686.96 1318.6 L1686.96 1354.62 L1682.7 1354.62 L1682.7 1318.6 Z" fill="#000000" fill-rule="evenodd" fill-opacity="1" /><path clip-path="url(#clip180)" d="M1695.87 1318.6 L1700.13 1318.6 L1700.13 1354.62 L1695.87 1354.62 L1695.87 1318.6 Z" fill="#000000" fill-rule="evenodd" fill-opacity="1" /><path clip-path="url(#clip180)" d="M1731.22 1340.59 L1731.22 1342.67 L1711.63 1342.67 Q1711.91 1347.07 1714.27 1349.38 Q1716.66 1351.68 1720.89 1351.68 Q1723.35 1351.68 1725.64 1351.07 Q1727.95 1350.47 1730.22 1349.27 L1730.22 1353.3 Q1727.93 1354.27 1725.52 1354.78 Q1723.12 1355.29 1720.64 1355.29 Q1714.44 1355.29 1710.8 1351.68 Q1707.19 1348.06 1707.19 1341.91 Q1707.19 1335.54 1710.62 1331.81 Q1714.07 1328.06 1719.9 1328.06 Q1725.13 1328.06 1728.16 1331.44 Q1731.22 1334.8 1731.22 1340.59 M1726.96 1339.34 Q1726.91 1335.84 1724.99 1333.76 Q1723.09 1331.68 1719.94 1331.68 Q1716.38 1331.68 1714.23 1333.69 Q1712.1 1335.7 1711.77 1339.36 L1726.96 1339.34 Z" fill="#000000" fill-rule="evenodd" fill-opacity="1" /><path clip-path="url(#clip180)" d="M1755.27 1332.62 L1755.27 1318.6 L1759.53 1318.6 L1759.53 1354.62 L1755.27 1354.62 L1755.27 1350.73 Q1753.93 1353.04 1751.87 1354.18 Q1749.83 1355.29 1746.96 1355.29 Q1742.26 1355.29 1739.3 1351.54 Q1736.36 1347.79 1736.36 1341.68 Q1736.36 1335.56 1739.3 1331.81 Q1742.26 1328.06 1746.96 1328.06 Q1749.83 1328.06 1751.87 1329.2 Q1753.93 1330.31 1755.27 1332.62 M1740.75 1341.68 Q1740.75 1346.37 1742.68 1349.06 Q1744.62 1351.72 1748 1351.72 Q1751.38 1351.72 1753.32 1349.06 Q1755.27 1346.37 1755.27 1341.68 Q1755.27 1336.98 1753.32 1334.31 Q1751.38 1331.63 1748 1331.63 Q1744.62 1331.63 1742.68 1334.31 Q1740.75 1336.98 1740.75 1341.68 Z" fill="#000000" fill-rule="evenodd" fill-opacity="1" /><path clip-path="url(#clip180)" d="M1800.71 1324.89 L1800.71 1337.79 L1813.6 1337.79 L1813.6 1341.72 L1800.71 1341.72 L1800.71 1354.62 L1796.82 1354.62 L1796.82 1341.72 L1783.93 1341.72 L1783.93 1337.79 L1796.82 1337.79 L1796.82 1324.89 L1800.71 1324.89 Z" fill="#000000" fill-rule="evenodd" fill-opacity="1" /><path clip-path="url(#clip180)" d="M1838.35 1320.06 L1843.02 1320.06 L1843.02 1354.62 L1838.35 1354.62 L1838.35 1320.06 Z" fill="#000000" fill-rule="evenodd" fill-opacity="1" /><path clip-path="url(#clip180)" d="M1873.69 1338.97 L1873.69 1354.62 L1869.43 1354.62 L1869.43 1339.11 Q1869.43 1335.43 1868 1333.6 Q1866.56 1331.77 1863.69 1331.77 Q1860.25 1331.77 1858.25 1333.97 Q1856.26 1336.17 1856.26 1339.96 L1856.26 1354.62 L1851.98 1354.62 L1851.98 1328.69 L1856.26 1328.69 L1856.26 1332.72 Q1857.79 1330.38 1859.85 1329.22 Q1861.93 1328.06 1864.64 1328.06 Q1869.11 1328.06 1871.4 1330.84 Q1873.69 1333.6 1873.69 1338.97 Z" fill="#000000" fill-rule="evenodd" fill-opacity="1" /><path clip-path="url(#clip180)" d="M1882.19 1328.69 L1886.45 1328.69 L1886.45 1355.08 Q1886.45 1360.03 1884.55 1362.25 Q1882.68 1364.48 1878.49 1364.48 L1876.87 1364.48 L1876.87 1360.87 L1878 1360.87 Q1880.43 1360.87 1881.31 1359.73 Q1882.19 1358.62 1882.19 1355.08 L1882.19 1328.69 M1882.19 1318.6 L1886.45 1318.6 L1886.45 1323.99 L1882.19 1323.99 L1882.19 1318.6 Z" fill="#000000" fill-rule="evenodd" fill-opacity="1" /><path clip-path="url(#clip180)" d="M1894.92 1344.38 L1894.92 1328.69 L1899.18 1328.69 L1899.18 1344.22 Q1899.18 1347.9 1900.62 1349.75 Q1902.05 1351.58 1904.92 1351.58 Q1908.37 1351.58 1910.36 1349.38 Q1912.37 1347.18 1912.37 1343.39 L1912.37 1328.69 L1916.63 1328.69 L1916.63 1354.62 L1912.37 1354.62 L1912.37 1350.63 Q1910.82 1352.99 1908.76 1354.15 Q1906.73 1355.29 1904.02 1355.29 Q1899.55 1355.29 1897.24 1352.51 Q1894.92 1349.73 1894.92 1344.38 M1905.64 1328.06 L1905.64 1328.06 Z" fill="#000000" fill-rule="evenodd" fill-opacity="1" /><path clip-path="url(#clip180)" d="M1940.43 1332.67 Q1939.71 1332.25 1938.86 1332.07 Q1938.02 1331.86 1937 1331.86 Q1933.39 1331.86 1931.45 1334.22 Q1929.53 1336.56 1929.53 1340.96 L1929.53 1354.62 L1925.24 1354.62 L1925.24 1328.69 L1929.53 1328.69 L1929.53 1332.72 Q1930.87 1330.36 1933.02 1329.22 Q1935.18 1328.06 1938.25 1328.06 Q1938.69 1328.06 1939.23 1328.13 Q1939.76 1328.18 1940.41 1328.3 L1940.43 1332.67 Z" fill="#000000" fill-rule="evenodd" fill-opacity="1" /><path clip-path="url(#clip180)" d="M1966.03 1340.59 L1966.03 1342.67 L1946.45 1342.67 Q1946.73 1347.07 1949.09 1349.38 Q1951.47 1351.68 1955.71 1351.68 Q1958.16 1351.68 1960.45 1351.07 Q1962.77 1350.47 1965.04 1349.27 L1965.04 1353.3 Q1962.74 1354.27 1960.34 1354.78 Q1957.93 1355.29 1955.45 1355.29 Q1949.25 1355.29 1945.61 1351.68 Q1942 1348.06 1942 1341.91 Q1942 1335.54 1945.43 1331.81 Q1948.88 1328.06 1954.71 1328.06 Q1959.94 1328.06 1962.98 1331.44 Q1966.03 1334.8 1966.03 1340.59 M1961.77 1339.34 Q1961.73 1335.84 1959.8 1333.76 Q1957.91 1331.68 1954.76 1331.68 Q1951.19 1331.68 1949.04 1333.69 Q1946.91 1335.7 1946.59 1339.36 L1961.77 1339.34 Z" fill="#000000" fill-rule="evenodd" fill-opacity="1" /><path clip-path="url(#clip180)" d="M1990.08 1332.62 L1990.08 1318.6 L1994.34 1318.6 L1994.34 1354.62 L1990.08 1354.62 L1990.08 1350.73 Q1988.74 1353.04 1986.68 1354.18 Q1984.64 1355.29 1981.77 1355.29 Q1977.07 1355.29 1974.11 1351.54 Q1971.17 1347.79 1971.17 1341.68 Q1971.17 1335.56 1974.11 1331.81 Q1977.07 1328.06 1981.77 1328.06 Q1984.64 1328.06 1986.68 1329.2 Q1988.74 1330.31 1990.08 1332.62 M1975.57 1341.68 Q1975.57 1346.37 1977.49 1349.06 Q1979.43 1351.72 1982.81 1351.72 Q1986.19 1351.72 1988.14 1349.06 Q1990.08 1346.37 1990.08 1341.68 Q1990.08 1336.98 1988.14 1334.31 Q1986.19 1331.63 1982.81 1331.63 Q1979.43 1331.63 1977.49 1334.31 Q1975.57 1336.98 1975.57 1341.68 Z" fill="#000000" fill-rule="evenodd" fill-opacity="1" /><polyline clip-path="url(#clip180)" style="stroke:#e26f46; stroke-linecap:butt; stroke-linejoin:round; stroke-width:4; stroke-opacity:1; fill:none" points="
  1339.54,1389.18 1483.98,1389.18 
  "/>
<path clip-path="url(#clip180)" d="M1533.6 1401.52 L1533.6 1392.24 L1525.96 1392.24 L1525.96 1388.4 L1538.23 1388.4 L1538.23 1403.24 Q1535.52 1405.16 1532.26 1406.15 Q1529 1407.13 1525.29 1407.13 Q1517.19 1407.13 1512.61 1402.4 Q1508.05 1397.66 1508.05 1389.21 Q1508.05 1380.74 1512.61 1376.02 Q1517.19 1371.27 1525.29 1371.27 Q1528.67 1371.27 1531.71 1372.1 Q1534.76 1372.94 1537.33 1374.56 L1537.33 1379.53 Q1534.74 1377.34 1531.82 1376.22 Q1528.9 1375.11 1525.69 1375.11 Q1519.34 1375.11 1516.15 1378.65 Q1512.98 1382.2 1512.98 1389.21 Q1512.98 1396.2 1516.15 1399.74 Q1519.34 1403.28 1525.69 1403.28 Q1528.16 1403.28 1530.11 1402.87 Q1532.05 1402.43 1533.6 1401.52 Z" fill="#000000" fill-rule="evenodd" fill-opacity="1" /><path clip-path="url(#clip180)" d="M1546.59 1370.44 L1550.85 1370.44 L1550.85 1406.46 L1546.59 1406.46 L1546.59 1370.44 Z" fill="#000000" fill-rule="evenodd" fill-opacity="1" /><path clip-path="url(#clip180)" d="M1569.81 1383.52 Q1566.38 1383.52 1564.39 1386.2 Q1562.4 1388.86 1562.4 1393.52 Q1562.4 1398.17 1564.37 1400.85 Q1566.36 1403.52 1569.81 1403.52 Q1573.21 1403.52 1575.2 1400.83 Q1577.19 1398.15 1577.19 1393.52 Q1577.19 1388.91 1575.2 1386.22 Q1573.21 1383.52 1569.81 1383.52 M1569.81 1379.9 Q1575.36 1379.9 1578.53 1383.52 Q1581.7 1387.13 1581.7 1393.52 Q1581.7 1399.88 1578.53 1403.52 Q1575.36 1407.13 1569.81 1407.13 Q1564.23 1407.13 1561.06 1403.52 Q1557.91 1399.88 1557.91 1393.52 Q1557.91 1387.13 1561.06 1383.52 Q1564.23 1379.9 1569.81 1379.9 Z" fill="#000000" fill-rule="evenodd" fill-opacity="1" /><path clip-path="url(#clip180)" d="M1607.42 1381.52 L1607.42 1385.51 Q1605.62 1384.51 1603.79 1384.02 Q1601.98 1383.52 1600.13 1383.52 Q1595.99 1383.52 1593.7 1386.15 Q1591.4 1388.77 1591.4 1393.52 Q1591.4 1398.26 1593.7 1400.9 Q1595.99 1403.52 1600.13 1403.52 Q1601.98 1403.52 1603.79 1403.03 Q1605.62 1402.52 1607.42 1401.52 L1607.42 1405.46 Q1605.64 1406.29 1603.72 1406.71 Q1601.82 1407.13 1599.67 1407.13 Q1593.81 1407.13 1590.36 1403.45 Q1586.91 1399.77 1586.91 1393.52 Q1586.91 1387.17 1590.39 1383.54 Q1593.88 1379.9 1599.95 1379.9 Q1601.91 1379.9 1603.79 1380.32 Q1605.66 1380.71 1607.42 1381.52 Z" fill="#000000" fill-rule="evenodd" fill-opacity="1" /><path clip-path="url(#clip180)" d="M1614.67 1370.44 L1618.95 1370.44 L1618.95 1391.71 L1631.66 1380.53 L1637.1 1380.53 L1623.35 1392.66 L1637.68 1406.46 L1632.12 1406.46 L1618.95 1393.79 L1618.95 1406.46 L1614.67 1406.46 L1614.67 1370.44 Z" fill="#000000" fill-rule="evenodd" fill-opacity="1" /><path clip-path="url(#clip180)" d="M1674.69 1376.73 L1674.69 1389.63 L1687.58 1389.63 L1687.58 1393.56 L1674.69 1393.56 L1674.69 1406.46 L1670.8 1406.46 L1670.8 1393.56 L1657.91 1393.56 L1657.91 1389.63 L1670.8 1389.63 L1670.8 1376.73 L1674.69 1376.73 Z" fill="#000000" fill-rule="evenodd" fill-opacity="1" /><path clip-path="url(#clip180)" d="M1716.77 1402.52 L1733.09 1402.52 L1733.09 1406.46 L1711.15 1406.46 L1711.15 1402.52 Q1713.81 1399.77 1718.39 1395.14 Q1723 1390.48 1724.18 1389.14 Q1726.43 1386.62 1727.31 1384.88 Q1728.21 1383.12 1728.21 1381.43 Q1728.21 1378.68 1726.26 1376.94 Q1724.34 1375.21 1721.24 1375.21 Q1719.04 1375.21 1716.59 1375.97 Q1714.16 1376.73 1711.38 1378.28 L1711.38 1373.56 Q1714.2 1372.43 1716.66 1371.85 Q1719.11 1371.27 1721.15 1371.27 Q1726.52 1371.27 1729.71 1373.96 Q1732.91 1376.64 1732.91 1381.13 Q1732.91 1383.26 1732.1 1385.18 Q1731.31 1387.08 1729.2 1389.67 Q1728.63 1390.34 1725.52 1393.56 Q1722.42 1396.76 1716.77 1402.52 Z" fill="#000000" fill-rule="evenodd" fill-opacity="1" /><path clip-path="url(#clip180)" d="M1778.28 1373.03 L1778.28 1377.59 Q1775.62 1376.32 1773.25 1375.69 Q1770.89 1375.07 1768.69 1375.07 Q1764.88 1375.07 1762.79 1376.55 Q1760.73 1378.03 1760.73 1380.76 Q1760.73 1383.05 1762.1 1384.23 Q1763.49 1385.39 1767.33 1386.11 L1770.15 1386.69 Q1775.38 1387.68 1777.86 1390.21 Q1780.36 1392.71 1780.36 1396.92 Q1780.36 1401.94 1776.98 1404.53 Q1773.63 1407.13 1767.12 1407.13 Q1764.67 1407.13 1761.89 1406.57 Q1759.13 1406.02 1756.17 1404.93 L1756.17 1400.11 Q1759.02 1401.71 1761.75 1402.52 Q1764.48 1403.33 1767.12 1403.33 Q1771.13 1403.33 1773.3 1401.76 Q1775.48 1400.18 1775.48 1397.27 Q1775.48 1394.72 1773.9 1393.28 Q1772.35 1391.85 1768.79 1391.13 L1765.94 1390.58 Q1760.71 1389.53 1758.37 1387.31 Q1756.03 1385.09 1756.03 1381.13 Q1756.03 1376.55 1759.25 1373.91 Q1762.49 1371.27 1768.16 1371.27 Q1770.59 1371.27 1773.12 1371.71 Q1775.64 1372.15 1778.28 1373.03 Z" fill="#000000" fill-rule="evenodd" fill-opacity="1" /><path clip-path="url(#clip180)" d="M1791.68 1373.17 L1791.68 1380.53 L1800.45 1380.53 L1800.45 1383.84 L1791.68 1383.84 L1791.68 1397.91 Q1791.68 1401.09 1792.54 1401.99 Q1793.42 1402.89 1796.08 1402.89 L1800.45 1402.89 L1800.45 1406.46 L1796.08 1406.46 Q1791.15 1406.46 1789.27 1404.63 Q1787.4 1402.77 1787.4 1397.91 L1787.4 1383.84 L1784.27 1383.84 L1784.27 1380.53 L1787.4 1380.53 L1787.4 1373.17 L1791.68 1373.17 Z" fill="#000000" fill-rule="evenodd" fill-opacity="1" /><path clip-path="url(#clip180)" d="M1817.84 1393.42 Q1812.68 1393.42 1810.69 1394.6 Q1808.69 1395.78 1808.69 1398.63 Q1808.69 1400.9 1810.18 1402.24 Q1811.68 1403.56 1814.25 1403.56 Q1817.79 1403.56 1819.92 1401.06 Q1822.07 1398.54 1822.07 1394.37 L1822.07 1393.42 L1817.84 1393.42 M1826.33 1391.66 L1826.33 1406.46 L1822.07 1406.46 L1822.07 1402.52 Q1820.62 1404.88 1818.44 1406.02 Q1816.26 1407.13 1813.12 1407.13 Q1809.13 1407.13 1806.77 1404.9 Q1804.44 1402.66 1804.44 1398.91 Q1804.44 1394.53 1807.35 1392.31 Q1810.29 1390.09 1816.1 1390.09 L1822.07 1390.09 L1822.07 1389.67 Q1822.07 1386.73 1820.13 1385.14 Q1818.21 1383.52 1814.71 1383.52 Q1812.49 1383.52 1810.38 1384.05 Q1808.28 1384.58 1806.33 1385.65 L1806.33 1381.71 Q1808.67 1380.81 1810.87 1380.37 Q1813.07 1379.9 1815.15 1379.9 Q1820.78 1379.9 1823.56 1382.82 Q1826.33 1385.74 1826.33 1391.66 Z" fill="#000000" fill-rule="evenodd" fill-opacity="1" /><path clip-path="url(#clip180)" d="M1856.66 1390.81 L1856.66 1406.46 L1852.4 1406.46 L1852.4 1390.95 Q1852.4 1387.27 1850.96 1385.44 Q1849.53 1383.61 1846.66 1383.61 Q1843.21 1383.61 1841.22 1385.81 Q1839.23 1388.01 1839.23 1391.8 L1839.23 1406.46 L1834.94 1406.46 L1834.94 1380.53 L1839.23 1380.53 L1839.23 1384.56 Q1840.75 1382.22 1842.81 1381.06 Q1844.9 1379.9 1847.61 1379.9 Q1852.07 1379.9 1854.37 1382.68 Q1856.66 1385.44 1856.66 1390.81 Z" fill="#000000" fill-rule="evenodd" fill-opacity="1" /><path clip-path="url(#clip180)" d="M1882.21 1384.46 L1882.21 1370.44 L1886.47 1370.44 L1886.47 1406.46 L1882.21 1406.46 L1882.21 1402.57 Q1880.87 1404.88 1878.81 1406.02 Q1876.77 1407.13 1873.9 1407.13 Q1869.2 1407.13 1866.24 1403.38 Q1863.3 1399.63 1863.3 1393.52 Q1863.3 1387.4 1866.24 1383.65 Q1869.2 1379.9 1873.9 1379.9 Q1876.77 1379.9 1878.81 1381.04 Q1880.87 1382.15 1882.21 1384.46 M1867.7 1393.52 Q1867.7 1398.21 1869.62 1400.9 Q1871.56 1403.56 1874.94 1403.56 Q1878.32 1403.56 1880.27 1400.9 Q1882.21 1398.21 1882.21 1393.52 Q1882.21 1388.82 1880.27 1386.15 Q1878.32 1383.47 1874.94 1383.47 Q1871.56 1383.47 1869.62 1386.15 Q1867.7 1388.82 1867.7 1393.52 Z" fill="#000000" fill-rule="evenodd" fill-opacity="1" /><path clip-path="url(#clip180)" d="M1907.03 1393.42 Q1901.87 1393.42 1899.87 1394.6 Q1897.88 1395.78 1897.88 1398.63 Q1897.88 1400.9 1899.37 1402.24 Q1900.87 1403.56 1903.44 1403.56 Q1906.98 1403.56 1909.11 1401.06 Q1911.26 1398.54 1911.26 1394.37 L1911.26 1393.42 L1907.03 1393.42 M1915.52 1391.66 L1915.52 1406.46 L1911.26 1406.46 L1911.26 1402.52 Q1909.8 1404.88 1907.63 1406.02 Q1905.45 1407.13 1902.3 1407.13 Q1898.32 1407.13 1895.96 1404.9 Q1893.62 1402.66 1893.62 1398.91 Q1893.62 1394.53 1896.54 1392.31 Q1899.48 1390.09 1905.29 1390.09 L1911.26 1390.09 L1911.26 1389.67 Q1911.26 1386.73 1909.32 1385.14 Q1907.4 1383.52 1903.9 1383.52 Q1901.68 1383.52 1899.57 1384.05 Q1897.47 1384.58 1895.52 1385.65 L1895.52 1381.71 Q1897.86 1380.81 1900.06 1380.37 Q1902.26 1379.9 1904.34 1379.9 Q1909.97 1379.9 1912.74 1382.82 Q1915.52 1385.74 1915.52 1391.66 Z" fill="#000000" fill-rule="evenodd" fill-opacity="1" /><path clip-path="url(#clip180)" d="M1939.32 1384.51 Q1938.6 1384.09 1937.74 1383.91 Q1936.91 1383.7 1935.89 1383.7 Q1932.28 1383.7 1930.34 1386.06 Q1928.42 1388.4 1928.42 1392.8 L1928.42 1406.46 L1924.13 1406.46 L1924.13 1380.53 L1928.42 1380.53 L1928.42 1384.56 Q1929.76 1382.2 1931.91 1381.06 Q1934.06 1379.9 1937.14 1379.9 Q1937.58 1379.9 1938.11 1379.97 Q1938.65 1380.02 1939.3 1380.14 L1939.32 1384.51 Z" fill="#000000" fill-rule="evenodd" fill-opacity="1" /><path clip-path="url(#clip180)" d="M1960.01 1384.46 L1960.01 1370.44 L1964.27 1370.44 L1964.27 1406.46 L1960.01 1406.46 L1960.01 1402.57 Q1958.67 1404.88 1956.61 1406.02 Q1954.57 1407.13 1951.7 1407.13 Q1947 1407.13 1944.04 1403.38 Q1941.1 1399.63 1941.1 1393.52 Q1941.1 1387.4 1944.04 1383.65 Q1947 1379.9 1951.7 1379.9 Q1954.57 1379.9 1956.61 1381.04 Q1958.67 1382.15 1960.01 1384.46 M1945.5 1393.52 Q1945.5 1398.21 1947.42 1400.9 Q1949.36 1403.56 1952.74 1403.56 Q1956.12 1403.56 1958.07 1400.9 Q1960.01 1398.21 1960.01 1393.52 Q1960.01 1388.82 1958.07 1386.15 Q1956.12 1383.47 1952.74 1383.47 Q1949.36 1383.47 1947.42 1386.15 Q1945.5 1388.82 1945.5 1393.52 Z" fill="#000000" fill-rule="evenodd" fill-opacity="1" /><path clip-path="url(#clip180)" d="M1988.3 1371.9 L1995.27 1371.9 L2004.09 1395.41 L2012.95 1371.9 L2019.92 1371.9 L2019.92 1406.46 L2015.36 1406.46 L2015.36 1376.11 L2006.45 1399.81 L2001.75 1399.81 L1992.84 1376.11 L1992.84 1406.46 L1988.3 1406.46 L1988.3 1371.9 Z" fill="#000000" fill-rule="evenodd" fill-opacity="1" /><path clip-path="url(#clip180)" d="M2040.8 1393.42 Q2035.64 1393.42 2033.65 1394.6 Q2031.66 1395.78 2031.66 1398.63 Q2031.66 1400.9 2033.14 1402.24 Q2034.64 1403.56 2037.21 1403.56 Q2040.75 1403.56 2042.88 1401.06 Q2045.04 1398.54 2045.04 1394.37 L2045.04 1393.42 L2040.8 1393.42 M2049.29 1391.66 L2049.29 1406.46 L2045.04 1406.46 L2045.04 1402.52 Q2043.58 1404.88 2041.4 1406.02 Q2039.23 1407.13 2036.08 1407.13 Q2032.1 1407.13 2029.73 1404.9 Q2027.4 1402.66 2027.4 1398.91 Q2027.4 1394.53 2030.31 1392.31 Q2033.25 1390.09 2039.06 1390.09 L2045.04 1390.09 L2045.04 1389.67 Q2045.04 1386.73 2043.09 1385.14 Q2041.17 1383.52 2037.67 1383.52 Q2035.45 1383.52 2033.35 1384.05 Q2031.24 1384.58 2029.3 1385.65 L2029.3 1381.71 Q2031.63 1380.81 2033.83 1380.37 Q2036.03 1379.9 2038.11 1379.9 Q2043.74 1379.9 2046.52 1382.82 Q2049.29 1385.74 2049.29 1391.66 Z" fill="#000000" fill-rule="evenodd" fill-opacity="1" /><path clip-path="url(#clip180)" d="M2075.13 1393.19 Q2075.13 1388.56 2073.21 1386.02 Q2071.31 1383.47 2067.86 1383.47 Q2064.43 1383.47 2062.51 1386.02 Q2060.61 1388.56 2060.61 1393.19 Q2060.61 1397.8 2062.51 1400.34 Q2064.43 1402.89 2067.86 1402.89 Q2071.31 1402.89 2073.21 1400.34 Q2075.13 1397.8 2075.13 1393.19 M2079.39 1403.24 Q2079.39 1409.86 2076.45 1413.08 Q2073.51 1416.32 2067.44 1416.32 Q2065.2 1416.32 2063.21 1415.97 Q2061.22 1415.65 2059.34 1414.95 L2059.34 1410.81 Q2061.22 1411.83 2063.04 1412.31 Q2064.87 1412.8 2066.77 1412.8 Q2070.96 1412.8 2073.04 1410.6 Q2075.13 1408.42 2075.13 1404 L2075.13 1401.9 Q2073.81 1404.19 2071.75 1405.32 Q2069.69 1406.46 2066.82 1406.46 Q2062.05 1406.46 2059.13 1402.82 Q2056.22 1399.19 2056.22 1393.19 Q2056.22 1387.17 2059.13 1383.54 Q2062.05 1379.9 2066.82 1379.9 Q2069.69 1379.9 2071.75 1381.04 Q2073.81 1382.17 2075.13 1384.46 L2075.13 1380.53 L2079.39 1380.53 L2079.39 1403.24 Z" fill="#000000" fill-rule="evenodd" fill-opacity="1" /><path clip-path="url(#clip180)" d="M2099.94 1393.42 Q2094.78 1393.42 2092.79 1394.6 Q2090.8 1395.78 2090.8 1398.63 Q2090.8 1400.9 2092.28 1402.24 Q2093.79 1403.56 2096.35 1403.56 Q2099.9 1403.56 2102.03 1401.06 Q2104.18 1398.54 2104.18 1394.37 L2104.18 1393.42 L2099.94 1393.42 M2108.44 1391.66 L2108.44 1406.46 L2104.18 1406.46 L2104.18 1402.52 Q2102.72 1404.88 2100.54 1406.02 Q2098.37 1407.13 2095.22 1407.13 Q2091.24 1407.13 2088.88 1404.9 Q2086.54 1402.66 2086.54 1398.91 Q2086.54 1394.53 2089.46 1392.31 Q2092.4 1390.09 2098.21 1390.09 L2104.18 1390.09 L2104.18 1389.67 Q2104.18 1386.73 2102.23 1385.14 Q2100.31 1383.52 2096.82 1383.52 Q2094.6 1383.52 2092.49 1384.05 Q2090.38 1384.58 2088.44 1385.65 L2088.44 1381.71 Q2090.78 1380.81 2092.98 1380.37 Q2095.17 1379.9 2097.26 1379.9 Q2102.88 1379.9 2105.66 1382.82 Q2108.44 1385.74 2108.44 1391.66 Z" fill="#000000" fill-rule="evenodd" fill-opacity="1" /><path clip-path="url(#clip180)" d="M2115.36 1380.53 L2135.59 1380.53 L2135.59 1384.42 L2119.57 1403.05 L2135.59 1403.05 L2135.59 1406.46 L2114.78 1406.46 L2114.78 1402.57 L2130.8 1383.93 L2115.36 1383.93 L2115.36 1380.53 Z" fill="#000000" fill-rule="evenodd" fill-opacity="1" /><path clip-path="url(#clip180)" d="M2142.1 1380.53 L2146.35 1380.53 L2146.35 1406.46 L2142.1 1406.46 L2142.1 1380.53 M2142.1 1370.44 L2146.35 1370.44 L2146.35 1375.83 L2142.1 1375.83 L2142.1 1370.44 Z" fill="#000000" fill-rule="evenodd" fill-opacity="1" /><path clip-path="url(#clip180)" d="M2176.82 1390.81 L2176.82 1406.46 L2172.56 1406.46 L2172.56 1390.95 Q2172.56 1387.27 2171.12 1385.44 Q2169.69 1383.61 2166.82 1383.61 Q2163.37 1383.61 2161.38 1385.81 Q2159.39 1388.01 2159.39 1391.8 L2159.39 1406.46 L2155.1 1406.46 L2155.1 1380.53 L2159.39 1380.53 L2159.39 1384.56 Q2160.91 1382.22 2162.97 1381.06 Q2165.06 1379.9 2167.77 1379.9 Q2172.23 1379.9 2174.53 1382.68 Q2176.82 1385.44 2176.82 1390.81 Z" fill="#000000" fill-rule="evenodd" fill-opacity="1" /><path clip-path="url(#clip180)" d="M2207.49 1392.43 L2207.49 1394.51 L2187.91 1394.51 Q2188.18 1398.91 2190.54 1401.22 Q2192.93 1403.52 2197.16 1403.52 Q2199.62 1403.52 2201.91 1402.91 Q2204.22 1402.31 2206.49 1401.11 L2206.49 1405.14 Q2204.2 1406.11 2201.79 1406.62 Q2199.39 1407.13 2196.91 1407.13 Q2190.71 1407.13 2187.07 1403.52 Q2183.46 1399.9 2183.46 1393.75 Q2183.46 1387.38 2186.89 1383.65 Q2190.34 1379.9 2196.17 1379.9 Q2201.4 1379.9 2204.43 1383.28 Q2207.49 1386.64 2207.49 1392.43 M2203.23 1391.18 Q2203.18 1387.68 2201.26 1385.6 Q2199.36 1383.52 2196.22 1383.52 Q2192.65 1383.52 2190.5 1385.53 Q2188.37 1387.54 2188.04 1391.2 L2203.23 1391.18 Z" fill="#000000" fill-rule="evenodd" fill-opacity="1" /><path clip-path="url(#clip180)" d="M2231.01 1381.29 L2231.01 1385.32 Q2229.2 1384.4 2227.26 1383.93 Q2225.31 1383.47 2223.23 1383.47 Q2220.06 1383.47 2218.46 1384.44 Q2216.89 1385.41 2216.89 1387.36 Q2216.89 1388.84 2218.02 1389.7 Q2219.16 1390.53 2222.58 1391.29 L2224.04 1391.62 Q2228.58 1392.59 2230.47 1394.37 Q2232.4 1396.13 2232.4 1399.3 Q2232.4 1402.91 2229.53 1405.02 Q2226.68 1407.13 2221.68 1407.13 Q2219.59 1407.13 2217.33 1406.71 Q2215.08 1406.32 2212.58 1405.51 L2212.58 1401.11 Q2214.94 1402.34 2217.23 1402.96 Q2219.53 1403.56 2221.77 1403.56 Q2224.78 1403.56 2226.4 1402.54 Q2228.02 1401.5 2228.02 1399.63 Q2228.02 1397.89 2226.84 1396.96 Q2225.68 1396.04 2221.72 1395.18 L2220.24 1394.84 Q2216.28 1394 2214.53 1392.29 Q2212.77 1390.55 2212.77 1387.54 Q2212.77 1383.89 2215.36 1381.9 Q2217.95 1379.9 2222.72 1379.9 Q2225.08 1379.9 2227.16 1380.25 Q2229.25 1380.6 2231.01 1381.29 Z" fill="#000000" fill-rule="evenodd" fill-opacity="1" /><path clip-path="url(#clip180)" d="M946.765 340.042 L946.765 335.782 Q948.524 336.616 950.33 337.055 Q952.135 337.495 953.871 337.495 Q958.501 337.495 960.931 334.393 Q963.385 331.268 963.732 324.926 Q962.39 326.917 960.33 327.981 Q958.269 329.046 955.769 329.046 Q950.584 329.046 947.552 325.921 Q944.543 322.773 944.543 317.333 Q944.543 312.009 947.691 308.792 Q950.839 305.574 956.07 305.574 Q962.066 305.574 965.214 310.181 Q968.385 314.764 968.385 323.514 Q968.385 331.685 964.496 336.569 Q960.631 341.43 954.08 341.43 Q952.32 341.43 950.515 341.083 Q948.709 340.736 946.765 340.042 M956.07 325.389 Q959.219 325.389 961.047 323.236 Q962.899 321.083 962.899 317.333 Q962.899 313.606 961.047 311.454 Q959.219 309.278 956.07 309.278 Q952.922 309.278 951.07 311.454 Q949.242 313.606 949.242 317.333 Q949.242 321.083 951.07 323.236 Q952.922 325.389 956.07 325.389 Z" fill="#000000" fill-rule="evenodd" fill-opacity="1" /><path clip-path="url(#clip180)" d="M990.954 322.125 Q994.311 322.843 996.186 325.111 Q998.084 327.38 998.084 330.713 Q998.084 335.829 994.566 338.629 Q991.047 341.43 984.566 341.43 Q982.39 341.43 980.075 340.991 Q977.783 340.574 975.33 339.717 L975.33 335.204 Q977.274 336.338 979.589 336.917 Q981.904 337.495 984.427 337.495 Q988.825 337.495 991.116 335.759 Q993.431 334.023 993.431 330.713 Q993.431 327.657 991.279 325.944 Q989.149 324.208 985.329 324.208 L981.302 324.208 L981.302 320.366 L985.515 320.366 Q988.964 320.366 990.792 319 Q992.621 317.611 992.621 315.019 Q992.621 312.356 990.723 310.944 Q988.848 309.509 985.329 309.509 Q983.408 309.509 981.209 309.926 Q979.01 310.343 976.371 311.222 L976.371 307.056 Q979.033 306.315 981.348 305.944 Q983.686 305.574 985.746 305.574 Q991.07 305.574 994.172 308.005 Q997.274 310.412 997.274 314.532 Q997.274 317.403 995.63 319.393 Q993.987 321.361 990.954 322.125 Z" fill="#000000" fill-rule="evenodd" fill-opacity="1" /><path clip-path="url(#clip180)" d="M1006.95 334.88 L1011.83 334.88 L1011.83 340.759 L1006.95 340.759 L1006.95 334.88 Z" fill="#000000" fill-rule="evenodd" fill-opacity="1" /><path clip-path="url(#clip180)" d="M1032.02 309.278 Q1028.41 309.278 1026.58 312.843 Q1024.77 316.384 1024.77 323.514 Q1024.77 330.62 1026.58 334.185 Q1028.41 337.727 1032.02 337.727 Q1035.65 337.727 1037.46 334.185 Q1039.29 330.62 1039.29 323.514 Q1039.29 316.384 1037.46 312.843 Q1035.65 309.278 1032.02 309.278 M1032.02 305.574 Q1037.83 305.574 1040.88 310.181 Q1043.96 314.764 1043.96 323.514 Q1043.96 332.241 1040.88 336.847 Q1037.83 341.43 1032.02 341.43 Q1026.21 341.43 1023.13 336.847 Q1020.07 332.241 1020.07 323.514 Q1020.07 314.764 1023.13 310.181 Q1026.21 305.574 1032.02 305.574 Z" fill="#000000" fill-rule="evenodd" fill-opacity="1" /><path clip-path="url(#clip180)" d="M1081.58 325.551 Q1079.57 325.551 1078.41 327.264 Q1077.27 328.977 1077.27 332.032 Q1077.27 335.042 1078.41 336.778 Q1079.57 338.491 1081.58 338.491 Q1083.55 338.491 1084.68 336.778 Q1085.84 335.042 1085.84 332.032 Q1085.84 329 1084.68 327.287 Q1083.55 325.551 1081.58 325.551 M1081.58 322.611 Q1085.24 322.611 1087.39 325.157 Q1089.54 327.704 1089.54 332.032 Q1089.54 336.361 1087.37 338.907 Q1085.21 341.43 1081.58 341.43 Q1077.88 341.43 1075.72 338.907 Q1073.57 336.361 1073.57 332.032 Q1073.57 327.68 1075.72 325.157 Q1077.9 322.611 1081.58 322.611 M1057.69 308.514 Q1055.7 308.514 1054.54 310.25 Q1053.41 311.963 1053.41 314.972 Q1053.41 318.028 1054.54 319.741 Q1055.68 321.454 1057.69 321.454 Q1059.7 321.454 1060.84 319.741 Q1062 318.028 1062 314.972 Q1062 311.986 1060.84 310.25 Q1059.68 308.514 1057.69 308.514 M1078.59 305.574 L1082.3 305.574 L1060.68 341.43 L1056.97 341.43 L1078.59 305.574 M1057.69 305.574 Q1061.35 305.574 1063.52 308.12 Q1065.7 310.644 1065.7 314.972 Q1065.7 319.347 1063.52 321.87 Q1061.37 324.393 1057.69 324.393 Q1054.01 324.393 1051.86 321.87 Q1049.73 319.324 1049.73 314.972 Q1049.73 310.667 1051.88 308.12 Q1054.03 305.574 1057.69 305.574 Z" fill="#000000" fill-rule="evenodd" fill-opacity="1" /><path clip-path="url(#clip180)" d="M1111.69 304.741 L1115.95 304.741 L1115.95 340.759 L1111.69 340.759 L1111.69 304.741 Z" fill="#000000" fill-rule="evenodd" fill-opacity="1" /><path clip-path="url(#clip180)" d="M1147.04 326.731 L1147.04 328.815 L1127.46 328.815 Q1127.74 333.213 1130.1 335.528 Q1132.48 337.819 1136.72 337.819 Q1139.17 337.819 1141.46 337.217 Q1143.78 336.616 1146.05 335.412 L1146.05 339.44 Q1143.75 340.412 1141.35 340.921 Q1138.94 341.43 1136.46 341.43 Q1130.26 341.43 1126.63 337.819 Q1123.01 334.208 1123.01 328.051 Q1123.01 321.685 1126.44 317.958 Q1129.89 314.208 1135.72 314.208 Q1140.95 314.208 1143.99 317.588 Q1147.04 320.944 1147.04 326.731 M1142.78 325.481 Q1142.74 321.986 1140.81 319.903 Q1138.92 317.819 1135.77 317.819 Q1132.2 317.819 1130.05 319.833 Q1127.92 321.847 1127.6 325.505 L1142.78 325.481 Z" fill="#000000" fill-rule="evenodd" fill-opacity="1" /><path clip-path="url(#clip180)" d="M1170.56 315.597 L1170.56 319.625 Q1168.75 318.699 1166.81 318.236 Q1164.87 317.773 1162.78 317.773 Q1159.61 317.773 1158.01 318.745 Q1156.44 319.718 1156.44 321.662 Q1156.44 323.143 1157.57 324 Q1158.71 324.833 1162.13 325.597 L1163.59 325.921 Q1168.13 326.893 1170.03 328.676 Q1171.95 330.435 1171.95 333.606 Q1171.95 337.217 1169.08 339.324 Q1166.23 341.43 1161.23 341.43 Q1159.15 341.43 1156.88 341.014 Q1154.63 340.62 1152.13 339.81 L1152.13 335.412 Q1154.5 336.639 1156.79 337.264 Q1159.08 337.866 1161.32 337.866 Q1164.33 337.866 1165.95 336.847 Q1167.57 335.805 1167.57 333.93 Q1167.57 332.194 1166.39 331.268 Q1165.24 330.342 1161.28 329.486 L1159.8 329.139 Q1155.84 328.305 1154.08 326.593 Q1152.32 324.856 1152.32 321.847 Q1152.32 318.19 1154.91 316.199 Q1157.5 314.208 1162.27 314.208 Q1164.63 314.208 1166.72 314.556 Q1168.8 314.903 1170.56 315.597 Z" fill="#000000" fill-rule="evenodd" fill-opacity="1" /><path clip-path="url(#clip180)" d="M1195.26 315.597 L1195.26 319.625 Q1193.45 318.699 1191.51 318.236 Q1189.56 317.773 1187.48 317.773 Q1184.31 317.773 1182.71 318.745 Q1181.14 319.718 1181.14 321.662 Q1181.14 323.143 1182.27 324 Q1183.41 324.833 1186.83 325.597 L1188.29 325.921 Q1192.83 326.893 1194.73 328.676 Q1196.65 330.435 1196.65 333.606 Q1196.65 337.217 1193.78 339.324 Q1190.93 341.43 1185.93 341.43 Q1183.85 341.43 1181.58 341.014 Q1179.33 340.62 1176.83 339.81 L1176.83 335.412 Q1179.19 336.639 1181.49 337.264 Q1183.78 337.866 1186.02 337.866 Q1189.03 337.866 1190.65 336.847 Q1192.27 335.805 1192.27 333.93 Q1192.27 332.194 1191.09 331.268 Q1189.93 330.342 1185.98 329.486 L1184.5 329.139 Q1180.54 328.305 1178.78 326.593 Q1177.02 324.856 1177.02 321.847 Q1177.02 318.19 1179.61 316.199 Q1182.2 314.208 1186.97 314.208 Q1189.33 314.208 1191.42 314.556 Q1193.5 314.903 1195.26 315.597 Z" fill="#000000" fill-rule="evenodd" fill-opacity="1" /><path clip-path="url(#clip180)" d="M1222.71 307.472 L1222.71 314.833 L1231.49 314.833 L1231.49 318.143 L1222.71 318.143 L1222.71 332.217 Q1222.71 335.389 1223.57 336.292 Q1224.45 337.194 1227.11 337.194 L1231.49 337.194 L1231.49 340.759 L1227.11 340.759 Q1222.18 340.759 1220.31 338.93 Q1218.43 337.079 1218.43 332.217 L1218.43 318.143 L1215.31 318.143 L1215.31 314.833 L1218.43 314.833 L1218.43 307.472 L1222.71 307.472 Z" fill="#000000" fill-rule="evenodd" fill-opacity="1" /><path clip-path="url(#clip180)" d="M1258.64 325.111 L1258.64 340.759 L1254.38 340.759 L1254.38 325.25 Q1254.38 321.569 1252.94 319.741 Q1251.51 317.912 1248.64 317.912 Q1245.19 317.912 1243.2 320.111 Q1241.21 322.31 1241.21 326.106 L1241.21 340.759 L1236.93 340.759 L1236.93 304.741 L1241.21 304.741 L1241.21 318.861 Q1242.74 316.523 1244.8 315.366 Q1246.88 314.208 1249.59 314.208 Q1254.05 314.208 1256.35 316.986 Q1258.64 319.741 1258.64 325.111 Z" fill="#000000" fill-rule="evenodd" fill-opacity="1" /><path clip-path="url(#clip180)" d="M1278.92 327.727 Q1273.75 327.727 1271.76 328.907 Q1269.77 330.088 1269.77 332.935 Q1269.77 335.204 1271.25 336.546 Q1272.76 337.866 1275.33 337.866 Q1278.87 337.866 1281 335.366 Q1283.15 332.842 1283.15 328.676 L1283.15 327.727 L1278.92 327.727 M1287.41 325.968 L1287.41 340.759 L1283.15 340.759 L1283.15 336.824 Q1281.69 339.185 1279.52 340.319 Q1277.34 341.43 1274.19 341.43 Q1270.21 341.43 1267.85 339.208 Q1265.51 336.963 1265.51 333.213 Q1265.51 328.838 1268.43 326.616 Q1271.37 324.393 1277.18 324.393 L1283.15 324.393 L1283.15 323.977 Q1283.15 321.037 1281.21 319.44 Q1279.29 317.819 1275.79 317.819 Q1273.57 317.819 1271.46 318.352 Q1269.36 318.884 1267.41 319.949 L1267.41 316.014 Q1269.75 315.111 1271.95 314.671 Q1274.15 314.208 1276.23 314.208 Q1281.86 314.208 1284.63 317.125 Q1287.41 320.042 1287.41 325.968 Z" fill="#000000" fill-rule="evenodd" fill-opacity="1" /><path clip-path="url(#clip180)" d="M1317.74 325.111 L1317.74 340.759 L1313.48 340.759 L1313.48 325.25 Q1313.48 321.569 1312.04 319.741 Q1310.61 317.912 1307.74 317.912 Q1304.29 317.912 1302.3 320.111 Q1300.3 322.31 1300.3 326.106 L1300.3 340.759 L1296.02 340.759 L1296.02 314.833 L1300.3 314.833 L1300.3 318.861 Q1301.83 316.523 1303.89 315.366 Q1305.98 314.208 1308.68 314.208 Q1313.15 314.208 1315.44 316.986 Q1317.74 319.741 1317.74 325.111 Z" fill="#000000" fill-rule="evenodd" fill-opacity="1" /><path clip-path="url(#clip180)" d="M1356.07 322.125 Q1359.42 322.843 1361.3 325.111 Q1363.2 327.38 1363.2 330.713 Q1363.2 335.829 1359.68 338.629 Q1356.16 341.43 1349.68 341.43 Q1347.5 341.43 1345.19 340.991 Q1342.9 340.574 1340.44 339.717 L1340.44 335.204 Q1342.39 336.338 1344.7 336.917 Q1347.02 337.495 1349.54 337.495 Q1353.94 337.495 1356.23 335.759 Q1358.55 334.023 1358.55 330.713 Q1358.55 327.657 1356.39 325.944 Q1354.26 324.208 1350.44 324.208 L1346.42 324.208 L1346.42 320.366 L1350.63 320.366 Q1354.08 320.366 1355.91 319 Q1357.73 317.611 1357.73 315.019 Q1357.73 312.356 1355.84 310.944 Q1353.96 309.509 1350.44 309.509 Q1348.52 309.509 1346.32 309.926 Q1344.12 310.343 1341.48 311.222 L1341.48 307.056 Q1344.15 306.315 1346.46 305.944 Q1348.8 305.574 1350.86 305.574 Q1356.18 305.574 1359.29 308.005 Q1362.39 310.412 1362.39 314.532 Q1362.39 317.403 1360.74 319.393 Q1359.1 321.361 1356.07 322.125 Z" fill="#000000" fill-rule="evenodd" fill-opacity="1" /><path clip-path="url(#clip180)" d="M1384.91 310.273 L1373.11 328.722 L1384.91 328.722 L1384.91 310.273 M1383.68 306.199 L1389.56 306.199 L1389.56 328.722 L1394.49 328.722 L1394.49 332.611 L1389.56 332.611 L1389.56 340.759 L1384.91 340.759 L1384.91 332.611 L1369.31 332.611 L1369.31 328.097 L1383.68 306.199 Z" fill="#000000" fill-rule="evenodd" fill-opacity="1" /><path clip-path="url(#clip180)" d="M1435.35 315.829 L1435.35 319.81 Q1433.54 318.815 1431.72 318.329 Q1429.91 317.819 1428.06 317.819 Q1423.92 317.819 1421.62 320.458 Q1419.33 323.074 1419.33 327.819 Q1419.33 332.565 1421.62 335.204 Q1423.92 337.819 1428.06 337.819 Q1429.91 337.819 1431.72 337.333 Q1433.54 336.824 1435.35 335.829 L1435.35 339.764 Q1433.57 340.597 1431.65 341.014 Q1429.75 341.43 1427.6 341.43 Q1421.74 341.43 1418.29 337.75 Q1414.84 334.069 1414.84 327.819 Q1414.84 321.477 1418.31 317.843 Q1421.81 314.208 1427.87 314.208 Q1429.84 314.208 1431.72 314.625 Q1433.59 315.019 1435.35 315.829 Z" fill="#000000" fill-rule="evenodd" fill-opacity="1" /><path clip-path="url(#clip180)" d="M1454.54 327.727 Q1449.38 327.727 1447.39 328.907 Q1445.4 330.088 1445.4 332.935 Q1445.4 335.204 1446.88 336.546 Q1448.38 337.866 1450.95 337.866 Q1454.49 337.866 1456.62 335.366 Q1458.78 332.842 1458.78 328.676 L1458.78 327.727 L1454.54 327.727 M1463.04 325.968 L1463.04 340.759 L1458.78 340.759 L1458.78 336.824 Q1457.32 339.185 1455.14 340.319 Q1452.97 341.43 1449.82 341.43 Q1445.84 341.43 1443.48 339.208 Q1441.14 336.963 1441.14 333.213 Q1441.14 328.838 1444.05 326.616 Q1446.99 324.393 1452.8 324.393 L1458.78 324.393 L1458.78 323.977 Q1458.78 321.037 1456.83 319.44 Q1454.91 317.819 1451.41 317.819 Q1449.19 317.819 1447.09 318.352 Q1444.98 318.884 1443.04 319.949 L1443.04 316.014 Q1445.37 315.111 1447.57 314.671 Q1449.77 314.208 1451.85 314.208 Q1457.48 314.208 1460.26 317.125 Q1463.04 320.042 1463.04 325.968 Z" fill="#000000" fill-rule="evenodd" fill-opacity="1" /><path clip-path="url(#clip180)" d="M1488.34 315.597 L1488.34 319.625 Q1486.53 318.699 1484.59 318.236 Q1482.64 317.773 1480.56 317.773 Q1477.39 317.773 1475.79 318.745 Q1474.22 319.718 1474.22 321.662 Q1474.22 323.143 1475.35 324 Q1476.48 324.833 1479.91 325.597 L1481.37 325.921 Q1485.91 326.893 1487.8 328.676 Q1489.72 330.435 1489.72 333.606 Q1489.72 337.217 1486.85 339.324 Q1484.01 341.43 1479.01 341.43 Q1476.92 341.43 1474.66 341.014 Q1472.41 340.62 1469.91 339.81 L1469.91 335.412 Q1472.27 336.639 1474.56 337.264 Q1476.85 337.866 1479.1 337.866 Q1482.11 337.866 1483.73 336.847 Q1485.35 335.805 1485.35 333.93 Q1485.35 332.194 1484.17 331.268 Q1483.01 330.342 1479.05 329.486 L1477.57 329.139 Q1473.61 328.305 1471.85 326.593 Q1470.1 324.856 1470.1 321.847 Q1470.1 318.19 1472.69 316.199 Q1475.28 314.208 1480.05 314.208 Q1482.41 314.208 1484.49 314.556 Q1486.58 314.903 1488.34 315.597 Z" fill="#000000" fill-rule="evenodd" fill-opacity="1" /><path clip-path="url(#clip180)" d="M1496.07 330.528 L1496.07 314.833 L1500.33 314.833 L1500.33 330.366 Q1500.33 334.046 1501.76 335.898 Q1503.2 337.727 1506.07 337.727 Q1509.52 337.727 1511.51 335.528 Q1513.52 333.329 1513.52 329.532 L1513.52 314.833 L1517.78 314.833 L1517.78 340.759 L1513.52 340.759 L1513.52 336.778 Q1511.97 339.139 1509.91 340.296 Q1507.87 341.43 1505.16 341.43 Q1500.7 341.43 1498.38 338.653 Q1496.07 335.875 1496.07 330.528 M1506.79 314.208 L1506.79 314.208 Z" fill="#000000" fill-rule="evenodd" fill-opacity="1" /><path clip-path="url(#clip180)" d="M1538.34 327.727 Q1533.17 327.727 1531.18 328.907 Q1529.19 330.088 1529.19 332.935 Q1529.19 335.204 1530.67 336.546 Q1532.18 337.866 1534.75 337.866 Q1538.29 337.866 1540.42 335.366 Q1542.57 332.842 1542.57 328.676 L1542.57 327.727 L1538.34 327.727 M1546.83 325.968 L1546.83 340.759 L1542.57 340.759 L1542.57 336.824 Q1541.11 339.185 1538.94 340.319 Q1536.76 341.43 1533.61 341.43 Q1529.63 341.43 1527.27 339.208 Q1524.93 336.963 1524.93 333.213 Q1524.93 328.838 1527.85 326.616 Q1530.79 324.393 1536.6 324.393 L1542.57 324.393 L1542.57 323.977 Q1542.57 321.037 1540.63 319.44 Q1538.71 317.819 1535.21 317.819 Q1532.99 317.819 1530.88 318.352 Q1528.78 318.884 1526.83 319.949 L1526.83 316.014 Q1529.17 315.111 1531.37 314.671 Q1533.57 314.208 1535.65 314.208 Q1541.28 314.208 1544.05 317.125 Q1546.83 320.042 1546.83 325.968 Z" fill="#000000" fill-rule="evenodd" fill-opacity="1" /><path clip-path="url(#clip180)" d="M1555.6 304.741 L1559.86 304.741 L1559.86 340.759 L1555.6 340.759 L1555.6 304.741 Z" fill="#000000" fill-rule="evenodd" fill-opacity="1" /><path clip-path="url(#clip180)" d="M1572.99 307.472 L1572.99 314.833 L1581.76 314.833 L1581.76 318.143 L1572.99 318.143 L1572.99 332.217 Q1572.99 335.389 1573.84 336.292 Q1574.72 337.194 1577.39 337.194 L1581.76 337.194 L1581.76 340.759 L1577.39 340.759 Q1572.46 340.759 1570.58 338.93 Q1568.71 337.079 1568.71 332.217 L1568.71 318.143 L1565.58 318.143 L1565.58 314.833 L1568.71 314.833 L1568.71 307.472 L1572.99 307.472 Z" fill="#000000" fill-rule="evenodd" fill-opacity="1" /><path clip-path="url(#clip180)" d="M1587.36 314.833 L1591.62 314.833 L1591.62 340.759 L1587.36 340.759 L1587.36 314.833 M1587.36 304.741 L1591.62 304.741 L1591.62 310.134 L1587.36 310.134 L1587.36 304.741 Z" fill="#000000" fill-rule="evenodd" fill-opacity="1" /><path clip-path="url(#clip180)" d="M1622.71 326.731 L1622.71 328.815 L1603.13 328.815 Q1603.4 333.213 1605.77 335.528 Q1608.15 337.819 1612.39 337.819 Q1614.84 337.819 1617.13 337.217 Q1619.45 336.616 1621.71 335.412 L1621.71 339.44 Q1619.42 340.412 1617.02 340.921 Q1614.61 341.43 1612.13 341.43 Q1605.93 341.43 1602.29 337.819 Q1598.68 334.208 1598.68 328.051 Q1598.68 321.685 1602.11 317.958 Q1605.56 314.208 1611.39 314.208 Q1616.62 314.208 1619.65 317.588 Q1622.71 320.944 1622.71 326.731 M1618.45 325.481 Q1618.4 321.986 1616.48 319.903 Q1614.59 317.819 1611.44 317.819 Q1607.87 317.819 1605.72 319.833 Q1603.59 321.847 1603.27 325.505 L1618.45 325.481 Z" fill="#000000" fill-rule="evenodd" fill-opacity="1" /><path clip-path="url(#clip180)" d="M1646.23 315.597 L1646.23 319.625 Q1644.42 318.699 1642.48 318.236 Q1640.53 317.773 1638.45 317.773 Q1635.28 317.773 1633.68 318.745 Q1632.11 319.718 1632.11 321.662 Q1632.11 323.143 1633.24 324 Q1634.38 324.833 1637.8 325.597 L1639.26 325.921 Q1643.8 326.893 1645.7 328.676 Q1647.62 330.435 1647.62 333.606 Q1647.62 337.217 1644.75 339.324 Q1641.9 341.43 1636.9 341.43 Q1634.82 341.43 1632.55 341.014 Q1630.3 340.62 1627.8 339.81 L1627.8 335.412 Q1630.16 336.639 1632.46 337.264 Q1634.75 337.866 1636.99 337.866 Q1640 337.866 1641.62 336.847 Q1643.24 335.805 1643.24 333.93 Q1643.24 332.194 1642.06 331.268 Q1640.9 330.342 1636.95 329.486 L1635.46 329.139 Q1631.51 328.305 1629.75 326.593 Q1627.99 324.856 1627.99 321.847 Q1627.99 318.19 1630.58 316.199 Q1633.17 314.208 1637.94 314.208 Q1640.3 314.208 1642.39 314.556 Q1644.47 314.903 1646.23 315.597 Z" fill="#000000" fill-rule="evenodd" fill-opacity="1" /></svg>
