<?xml version="1.0" encoding="utf-8"?>
<svg xmlns="http://www.w3.org/2000/svg" xmlns:xlink="http://www.w3.org/1999/xlink" width="600" height="400" viewBox="0 0 2400 1600">
<defs>
  <clipPath id="clip900">
    <rect x="0" y="0" width="2400" height="1600"/>
  </clipPath>
</defs>
<path clip-path="url(#clip900)" d="
M0 1600 L2400 1600 L2400 0 L0 0  Z
  " fill="#ffffff" fill-rule="evenodd" fill-opacity="1"/>
<defs>
  <clipPath id="clip901">
    <rect x="480" y="0" width="1681" height="1600"/>
  </clipPath>
</defs>
<path clip-path="url(#clip900)" d="
M156.598 1486.45 L2352.76 1486.45 L2352.76 123.472 L156.598 123.472  Z
  " fill="#ffffff" fill-rule="evenodd" fill-opacity="1"/>
<defs>
  <clipPath id="clip902">
    <rect x="156" y="123" width="2197" height="1364"/>
  </clipPath>
</defs>
<polyline clip-path="url(#clip902)" style="stroke:#000000; stroke-linecap:butt; stroke-linejoin:round; stroke-width:2; stroke-opacity:0.1; fill:none" points="
  224.111,1486.45 224.111,123.472 
  "/>
<polyline clip-path="url(#clip902)" style="stroke:#000000; stroke-linecap:butt; stroke-linejoin:round; stroke-width:2; stroke-opacity:0.1; fill:none" points="
  799.589,1486.45 799.589,123.472 
  "/>
<polyline clip-path="url(#clip902)" style="stroke:#000000; stroke-linecap:butt; stroke-linejoin:round; stroke-width:2; stroke-opacity:0.1; fill:none" points="
  1375.07,1486.45 1375.07,123.472 
  "/>
<polyline clip-path="url(#clip902)" style="stroke:#000000; stroke-linecap:butt; stroke-linejoin:round; stroke-width:2; stroke-opacity:0.1; fill:none" points="
  1950.55,1486.45 1950.55,123.472 
  "/>
<polyline clip-path="url(#clip900)" style="stroke:#000000; stroke-linecap:butt; stroke-linejoin:round; stroke-width:4; stroke-opacity:1; fill:none" points="
  156.598,1486.45 2352.76,1486.45 
  "/>
<polyline clip-path="url(#clip900)" style="stroke:#000000; stroke-linecap:butt; stroke-linejoin:round; stroke-width:4; stroke-opacity:1; fill:none" points="
  224.111,1486.45 224.111,1467.55 
  "/>
<polyline clip-path="url(#clip900)" style="stroke:#000000; stroke-linecap:butt; stroke-linejoin:round; stroke-width:4; stroke-opacity:1; fill:none" points="
  799.589,1486.45 799.589,1467.55 
  "/>
<polyline clip-path="url(#clip900)" style="stroke:#000000; stroke-linecap:butt; stroke-linejoin:round; stroke-width:4; stroke-opacity:1; fill:none" points="
  1375.07,1486.45 1375.07,1467.55 
  "/>
<polyline clip-path="url(#clip900)" style="stroke:#000000; stroke-linecap:butt; stroke-linejoin:round; stroke-width:4; stroke-opacity:1; fill:none" points="
  1950.55,1486.45 1950.55,1467.55 
  "/>
<path clip-path="url(#clip900)" d="M95.906 1544.91 L112.225 1544.91 L112.225 1548.85 L90.281 1548.85 L90.281 1544.91 Q92.943 1542.16 97.5264 1537.53 Q102.133 1532.88 103.313 1531.53 Q105.559 1529.01 106.438 1527.27 Q107.341 1525.51 107.341 1523.82 Q107.341 1521.07 105.397 1519.33 Q103.475 1517.6 100.374 1517.6 Q98.1745 1517.6 95.7208 1518.36 Q93.2903 1519.13 90.5125 1520.68 L90.5125 1515.95 Q93.3366 1514.82 95.7902 1514.24 Q98.2439 1513.66 100.281 1513.66 Q105.651 1513.66 108.846 1516.35 Q112.04 1519.03 112.04 1523.52 Q112.04 1525.65 111.23 1527.57 Q110.443 1529.47 108.336 1532.07 Q107.758 1532.74 104.656 1535.95 Q101.554 1539.15 95.906 1544.91 Z" fill="#000000" fill-rule="evenodd" fill-opacity="1" /><path clip-path="url(#clip900)" d="M132.04 1517.37 Q128.429 1517.37 126.6 1520.93 Q124.795 1524.47 124.795 1531.6 Q124.795 1538.71 126.6 1542.27 Q128.429 1545.82 132.04 1545.82 Q135.674 1545.82 137.48 1542.27 Q139.309 1538.71 139.309 1531.6 Q139.309 1524.47 137.48 1520.93 Q135.674 1517.37 132.04 1517.37 M132.04 1513.66 Q137.85 1513.66 140.906 1518.27 Q143.984 1522.85 143.984 1531.6 Q143.984 1540.33 140.906 1544.94 Q137.85 1549.52 132.04 1549.52 Q126.23 1549.52 123.151 1544.94 Q120.096 1540.33 120.096 1531.6 Q120.096 1522.85 123.151 1518.27 Q126.23 1513.66 132.04 1513.66 Z" fill="#000000" fill-rule="evenodd" fill-opacity="1" /><path clip-path="url(#clip900)" d="M162.202 1517.37 Q158.591 1517.37 156.762 1520.93 Q154.957 1524.47 154.957 1531.6 Q154.957 1538.71 156.762 1542.27 Q158.591 1545.82 162.202 1545.82 Q165.836 1545.82 167.642 1542.27 Q169.47 1538.71 169.47 1531.6 Q169.47 1524.47 167.642 1520.93 Q165.836 1517.37 162.202 1517.37 M162.202 1513.66 Q168.012 1513.66 171.068 1518.27 Q174.146 1522.85 174.146 1531.6 Q174.146 1540.33 171.068 1544.94 Q168.012 1549.52 162.202 1549.52 Q156.392 1549.52 153.313 1544.94 Q150.258 1540.33 150.258 1531.6 Q150.258 1522.85 153.313 1518.27 Q156.392 1513.66 162.202 1513.66 Z" fill="#000000" fill-rule="evenodd" fill-opacity="1" /><path clip-path="url(#clip900)" d="M183.174 1544.91 L190.813 1544.91 L190.813 1518.55 L182.503 1520.21 L182.503 1515.95 L190.767 1514.29 L195.442 1514.29 L195.442 1544.91 L203.081 1544.91 L203.081 1548.85 L183.174 1548.85 L183.174 1544.91 Z" fill="#000000" fill-rule="evenodd" fill-opacity="1" /><path clip-path="url(#clip900)" d="M209.771 1533.96 L222.248 1533.96 L222.248 1537.76 L209.771 1537.76 L209.771 1533.96 Z" fill="#000000" fill-rule="evenodd" fill-opacity="1" /><path clip-path="url(#clip900)" d="M239.632 1517.37 Q236.021 1517.37 234.192 1520.93 Q232.387 1524.47 232.387 1531.6 Q232.387 1538.71 234.192 1542.27 Q236.021 1545.82 239.632 1545.82 Q243.266 1545.82 245.072 1542.27 Q246.901 1538.71 246.901 1531.6 Q246.901 1524.47 245.072 1520.93 Q243.266 1517.37 239.632 1517.37 M239.632 1513.66 Q245.442 1513.66 248.498 1518.27 Q251.576 1522.85 251.576 1531.6 Q251.576 1540.33 248.498 1544.94 Q245.442 1549.52 239.632 1549.52 Q233.822 1549.52 230.743 1544.94 Q227.688 1540.33 227.688 1531.6 Q227.688 1522.85 230.743 1518.27 Q233.822 1513.66 239.632 1513.66 Z" fill="#000000" fill-rule="evenodd" fill-opacity="1" /><path clip-path="url(#clip900)" d="M260.604 1544.91 L268.243 1544.91 L268.243 1518.55 L259.933 1520.21 L259.933 1515.95 L268.197 1514.29 L272.873 1514.29 L272.873 1544.91 L280.511 1544.91 L280.511 1548.85 L260.604 1548.85 L260.604 1544.91 Z" fill="#000000" fill-rule="evenodd" fill-opacity="1" /><path clip-path="url(#clip900)" d="M287.201 1533.96 L299.678 1533.96 L299.678 1537.76 L287.201 1537.76 L287.201 1533.96 Z" fill="#000000" fill-rule="evenodd" fill-opacity="1" /><path clip-path="url(#clip900)" d="M317.062 1517.37 Q313.451 1517.37 311.622 1520.93 Q309.817 1524.47 309.817 1531.6 Q309.817 1538.71 311.622 1542.27 Q313.451 1545.82 317.062 1545.82 Q320.696 1545.82 322.502 1542.27 Q324.331 1538.71 324.331 1531.6 Q324.331 1524.47 322.502 1520.93 Q320.696 1517.37 317.062 1517.37 M317.062 1513.66 Q322.872 1513.66 325.928 1518.27 Q329.007 1522.85 329.007 1531.6 Q329.007 1540.33 325.928 1544.94 Q322.872 1549.52 317.062 1549.52 Q311.252 1549.52 308.173 1544.94 Q305.118 1540.33 305.118 1531.6 Q305.118 1522.85 308.173 1518.27 Q311.252 1513.66 317.062 1513.66 Z" fill="#000000" fill-rule="evenodd" fill-opacity="1" /><path clip-path="url(#clip900)" d="M338.034 1544.91 L345.673 1544.91 L345.673 1518.55 L337.363 1520.21 L337.363 1515.95 L345.627 1514.29 L350.303 1514.29 L350.303 1544.91 L357.942 1544.91 L357.942 1548.85 L338.034 1548.85 L338.034 1544.91 Z" fill="#000000" fill-rule="evenodd" fill-opacity="1" /><path clip-path="url(#clip900)" d="M671.384 1544.91 L687.703 1544.91 L687.703 1548.85 L665.759 1548.85 L665.759 1544.91 Q668.421 1542.16 673.004 1537.53 Q677.611 1532.88 678.791 1531.53 Q681.037 1529.01 681.916 1527.27 Q682.819 1525.51 682.819 1523.82 Q682.819 1521.07 680.875 1519.33 Q678.953 1517.6 675.852 1517.6 Q673.652 1517.6 671.199 1518.36 Q668.768 1519.13 665.99 1520.68 L665.99 1515.95 Q668.815 1514.82 671.268 1514.24 Q673.722 1513.66 675.759 1513.66 Q681.129 1513.66 684.324 1516.35 Q687.518 1519.03 687.518 1523.52 Q687.518 1525.65 686.708 1527.57 Q685.921 1529.47 683.814 1532.07 Q683.236 1532.74 680.134 1535.95 Q677.032 1539.15 671.384 1544.91 Z" fill="#000000" fill-rule="evenodd" fill-opacity="1" /><path clip-path="url(#clip900)" d="M707.518 1517.37 Q703.907 1517.37 702.078 1520.93 Q700.273 1524.47 700.273 1531.6 Q700.273 1538.71 702.078 1542.27 Q703.907 1545.82 707.518 1545.82 Q711.152 1545.82 712.958 1542.27 Q714.787 1538.71 714.787 1531.6 Q714.787 1524.47 712.958 1520.93 Q711.152 1517.37 707.518 1517.37 M707.518 1513.66 Q713.328 1513.66 716.384 1518.27 Q719.462 1522.85 719.462 1531.6 Q719.462 1540.33 716.384 1544.94 Q713.328 1549.52 707.518 1549.52 Q701.708 1549.52 698.629 1544.94 Q695.574 1540.33 695.574 1531.6 Q695.574 1522.85 698.629 1518.27 Q701.708 1513.66 707.518 1513.66 Z" fill="#000000" fill-rule="evenodd" fill-opacity="1" /><path clip-path="url(#clip900)" d="M737.68 1517.37 Q734.069 1517.37 732.24 1520.93 Q730.435 1524.47 730.435 1531.6 Q730.435 1538.71 732.24 1542.27 Q734.069 1545.82 737.68 1545.82 Q741.314 1545.82 743.12 1542.27 Q744.948 1538.71 744.948 1531.6 Q744.948 1524.47 743.12 1520.93 Q741.314 1517.37 737.68 1517.37 M737.68 1513.66 Q743.49 1513.66 746.546 1518.27 Q749.624 1522.85 749.624 1531.6 Q749.624 1540.33 746.546 1544.94 Q743.49 1549.52 737.68 1549.52 Q731.87 1549.52 728.791 1544.94 Q725.736 1540.33 725.736 1531.6 Q725.736 1522.85 728.791 1518.27 Q731.87 1513.66 737.68 1513.66 Z" fill="#000000" fill-rule="evenodd" fill-opacity="1" /><path clip-path="url(#clip900)" d="M768.421 1529.7 Q765.272 1529.7 763.421 1531.86 Q761.592 1534.01 761.592 1537.76 Q761.592 1541.49 763.421 1543.66 Q765.272 1545.82 768.421 1545.82 Q771.569 1545.82 773.397 1543.66 Q775.249 1541.49 775.249 1537.76 Q775.249 1534.01 773.397 1531.86 Q771.569 1529.7 768.421 1529.7 M777.703 1515.05 L777.703 1519.31 Q775.944 1518.48 774.138 1518.04 Q772.356 1517.6 770.596 1517.6 Q765.967 1517.6 763.513 1520.72 Q761.083 1523.85 760.735 1530.17 Q762.101 1528.15 764.161 1527.09 Q766.221 1526 768.698 1526 Q773.907 1526 776.916 1529.17 Q779.948 1532.32 779.948 1537.76 Q779.948 1543.08 776.8 1546.3 Q773.652 1549.52 768.421 1549.52 Q762.425 1549.52 759.254 1544.94 Q756.083 1540.33 756.083 1531.6 Q756.083 1523.41 759.971 1518.55 Q763.86 1513.66 770.411 1513.66 Q772.17 1513.66 773.953 1514.01 Q775.758 1514.36 777.703 1515.05 Z" fill="#000000" fill-rule="evenodd" fill-opacity="1" /><path clip-path="url(#clip900)" d="M785.249 1533.96 L797.726 1533.96 L797.726 1537.76 L785.249 1537.76 L785.249 1533.96 Z" fill="#000000" fill-rule="evenodd" fill-opacity="1" /><path clip-path="url(#clip900)" d="M815.11 1517.37 Q811.499 1517.37 809.67 1520.93 Q807.865 1524.47 807.865 1531.6 Q807.865 1538.71 809.67 1542.27 Q811.499 1545.82 815.11 1545.82 Q818.744 1545.82 820.55 1542.27 Q822.379 1538.71 822.379 1531.6 Q822.379 1524.47 820.55 1520.93 Q818.744 1517.37 815.11 1517.37 M815.11 1513.66 Q820.92 1513.66 823.976 1518.27 Q827.054 1522.85 827.054 1531.6 Q827.054 1540.33 823.976 1544.94 Q820.92 1549.52 815.11 1549.52 Q809.3 1549.52 806.221 1544.94 Q803.166 1540.33 803.166 1531.6 Q803.166 1522.85 806.221 1518.27 Q809.3 1513.66 815.11 1513.66 Z" fill="#000000" fill-rule="evenodd" fill-opacity="1" /><path clip-path="url(#clip900)" d="M836.082 1544.91 L843.721 1544.91 L843.721 1518.55 L835.411 1520.21 L835.411 1515.95 L843.675 1514.29 L848.351 1514.29 L848.351 1544.91 L855.989 1544.91 L855.989 1548.85 L836.082 1548.85 L836.082 1544.91 Z" fill="#000000" fill-rule="evenodd" fill-opacity="1" /><path clip-path="url(#clip900)" d="M862.679 1533.96 L875.156 1533.96 L875.156 1537.76 L862.679 1537.76 L862.679 1533.96 Z" fill="#000000" fill-rule="evenodd" fill-opacity="1" /><path clip-path="url(#clip900)" d="M892.54 1517.37 Q888.929 1517.37 887.1 1520.93 Q885.295 1524.47 885.295 1531.6 Q885.295 1538.71 887.1 1542.27 Q888.929 1545.82 892.54 1545.82 Q896.174 1545.82 897.98 1542.27 Q899.809 1538.71 899.809 1531.6 Q899.809 1524.47 897.98 1520.93 Q896.174 1517.37 892.54 1517.37 M892.54 1513.66 Q898.35 1513.66 901.406 1518.27 Q904.485 1522.85 904.485 1531.6 Q904.485 1540.33 901.406 1544.94 Q898.35 1549.52 892.54 1549.52 Q886.73 1549.52 883.651 1544.94 Q880.596 1540.33 880.596 1531.6 Q880.596 1522.85 883.651 1518.27 Q886.73 1513.66 892.54 1513.66 Z" fill="#000000" fill-rule="evenodd" fill-opacity="1" /><path clip-path="url(#clip900)" d="M913.512 1544.91 L921.151 1544.91 L921.151 1518.55 L912.841 1520.21 L912.841 1515.95 L921.105 1514.29 L925.781 1514.29 L925.781 1544.91 L933.42 1544.91 L933.42 1548.85 L913.512 1548.85 L913.512 1544.91 Z" fill="#000000" fill-rule="evenodd" fill-opacity="1" /><path clip-path="url(#clip900)" d="M1246.86 1544.91 L1263.18 1544.91 L1263.18 1548.85 L1241.24 1548.85 L1241.24 1544.91 Q1243.9 1542.16 1248.48 1537.53 Q1253.09 1532.88 1254.27 1531.53 Q1256.51 1529.01 1257.39 1527.27 Q1258.3 1525.51 1258.3 1523.82 Q1258.3 1521.07 1256.35 1519.33 Q1254.43 1517.6 1251.33 1517.6 Q1249.13 1517.6 1246.68 1518.36 Q1244.25 1519.13 1241.47 1520.68 L1241.47 1515.95 Q1244.29 1514.82 1246.75 1514.24 Q1249.2 1513.66 1251.24 1513.66 Q1256.61 1513.66 1259.8 1516.35 Q1263 1519.03 1263 1523.52 Q1263 1525.65 1262.19 1527.57 Q1261.4 1529.47 1259.29 1532.07 Q1258.71 1532.74 1255.61 1535.95 Q1252.51 1539.15 1246.86 1544.91 Z" fill="#000000" fill-rule="evenodd" fill-opacity="1" /><path clip-path="url(#clip900)" d="M1283 1517.37 Q1279.38 1517.37 1277.56 1520.93 Q1275.75 1524.47 1275.75 1531.6 Q1275.75 1538.71 1277.56 1542.27 Q1279.38 1545.82 1283 1545.82 Q1286.63 1545.82 1288.44 1542.27 Q1290.26 1538.71 1290.26 1531.6 Q1290.26 1524.47 1288.44 1520.93 Q1286.63 1517.37 1283 1517.37 M1283 1513.66 Q1288.81 1513.66 1291.86 1518.27 Q1294.94 1522.85 1294.94 1531.6 Q1294.94 1540.33 1291.86 1544.94 Q1288.81 1549.52 1283 1549.52 Q1277.19 1549.52 1274.11 1544.94 Q1271.05 1540.33 1271.05 1531.6 Q1271.05 1522.85 1274.11 1518.27 Q1277.19 1513.66 1283 1513.66 Z" fill="#000000" fill-rule="evenodd" fill-opacity="1" /><path clip-path="url(#clip900)" d="M1303.97 1544.91 L1311.61 1544.91 L1311.61 1518.55 L1303.3 1520.21 L1303.3 1515.95 L1311.56 1514.29 L1316.24 1514.29 L1316.24 1544.91 L1323.88 1544.91 L1323.88 1548.85 L1303.97 1548.85 L1303.97 1544.91 Z" fill="#000000" fill-rule="evenodd" fill-opacity="1" /><path clip-path="url(#clip900)" d="M1334.13 1544.91 L1341.77 1544.91 L1341.77 1518.55 L1333.46 1520.21 L1333.46 1515.95 L1341.72 1514.29 L1346.4 1514.29 L1346.4 1544.91 L1354.04 1544.91 L1354.04 1548.85 L1334.13 1548.85 L1334.13 1544.91 Z" fill="#000000" fill-rule="evenodd" fill-opacity="1" /><path clip-path="url(#clip900)" d="M1360.73 1533.96 L1373.2 1533.96 L1373.2 1537.76 L1360.73 1537.76 L1360.73 1533.96 Z" fill="#000000" fill-rule="evenodd" fill-opacity="1" /><path clip-path="url(#clip900)" d="M1390.59 1517.37 Q1386.98 1517.37 1385.15 1520.93 Q1383.34 1524.47 1383.34 1531.6 Q1383.34 1538.71 1385.15 1542.27 Q1386.98 1545.82 1390.59 1545.82 Q1394.22 1545.82 1396.03 1542.27 Q1397.86 1538.71 1397.86 1531.6 Q1397.86 1524.47 1396.03 1520.93 Q1394.22 1517.37 1390.59 1517.37 M1390.59 1513.66 Q1396.4 1513.66 1399.45 1518.27 Q1402.53 1522.85 1402.53 1531.6 Q1402.53 1540.33 1399.45 1544.94 Q1396.4 1549.52 1390.59 1549.52 Q1384.78 1549.52 1381.7 1544.94 Q1378.64 1540.33 1378.64 1531.6 Q1378.64 1522.85 1381.7 1518.27 Q1384.78 1513.66 1390.59 1513.66 Z" fill="#000000" fill-rule="evenodd" fill-opacity="1" /><path clip-path="url(#clip900)" d="M1411.56 1544.91 L1419.2 1544.91 L1419.2 1518.55 L1410.89 1520.21 L1410.89 1515.95 L1419.15 1514.29 L1423.83 1514.29 L1423.83 1544.91 L1431.47 1544.91 L1431.47 1548.85 L1411.56 1548.85 L1411.56 1544.91 Z" fill="#000000" fill-rule="evenodd" fill-opacity="1" /><path clip-path="url(#clip900)" d="M1438.16 1533.96 L1450.63 1533.96 L1450.63 1537.76 L1438.16 1537.76 L1438.16 1533.96 Z" fill="#000000" fill-rule="evenodd" fill-opacity="1" /><path clip-path="url(#clip900)" d="M1468.02 1517.37 Q1464.41 1517.37 1462.58 1520.93 Q1460.77 1524.47 1460.77 1531.6 Q1460.77 1538.71 1462.58 1542.27 Q1464.41 1545.82 1468.02 1545.82 Q1471.65 1545.82 1473.46 1542.27 Q1475.29 1538.71 1475.29 1531.6 Q1475.29 1524.47 1473.46 1520.93 Q1471.65 1517.37 1468.02 1517.37 M1468.02 1513.66 Q1473.83 1513.66 1476.88 1518.27 Q1479.96 1522.85 1479.96 1531.6 Q1479.96 1540.33 1476.88 1544.94 Q1473.83 1549.52 1468.02 1549.52 Q1462.21 1549.52 1459.13 1544.94 Q1456.07 1540.33 1456.07 1531.6 Q1456.07 1522.85 1459.13 1518.27 Q1462.21 1513.66 1468.02 1513.66 Z" fill="#000000" fill-rule="evenodd" fill-opacity="1" /><path clip-path="url(#clip900)" d="M1488.99 1544.91 L1496.63 1544.91 L1496.63 1518.55 L1488.32 1520.21 L1488.32 1515.95 L1496.58 1514.29 L1501.26 1514.29 L1501.26 1544.91 L1508.9 1544.91 L1508.9 1548.85 L1488.99 1548.85 L1488.99 1544.91 Z" fill="#000000" fill-rule="evenodd" fill-opacity="1" /><path clip-path="url(#clip900)" d="M1822.34 1544.91 L1838.66 1544.91 L1838.66 1548.85 L1816.72 1548.85 L1816.72 1544.91 Q1819.38 1542.16 1823.96 1537.53 Q1828.57 1532.88 1829.75 1531.53 Q1831.99 1529.01 1832.87 1527.27 Q1833.78 1525.51 1833.78 1523.82 Q1833.78 1521.07 1831.83 1519.33 Q1829.91 1517.6 1826.81 1517.6 Q1824.61 1517.6 1822.15 1518.36 Q1819.72 1519.13 1816.95 1520.68 L1816.95 1515.95 Q1819.77 1514.82 1822.22 1514.24 Q1824.68 1513.66 1826.71 1513.66 Q1832.09 1513.66 1835.28 1516.35 Q1838.47 1519.03 1838.47 1523.52 Q1838.47 1525.65 1837.66 1527.57 Q1836.88 1529.47 1834.77 1532.07 Q1834.19 1532.74 1831.09 1535.95 Q1827.99 1539.15 1822.34 1544.91 Z" fill="#000000" fill-rule="evenodd" fill-opacity="1" /><path clip-path="url(#clip900)" d="M1858.47 1517.37 Q1854.86 1517.37 1853.03 1520.93 Q1851.23 1524.47 1851.23 1531.6 Q1851.23 1538.71 1853.03 1542.27 Q1854.86 1545.82 1858.47 1545.82 Q1862.11 1545.82 1863.91 1542.27 Q1865.74 1538.71 1865.74 1531.6 Q1865.74 1524.47 1863.91 1520.93 Q1862.11 1517.37 1858.47 1517.37 M1858.47 1513.66 Q1864.28 1513.66 1867.34 1518.27 Q1870.42 1522.85 1870.42 1531.6 Q1870.42 1540.33 1867.34 1544.94 Q1864.28 1549.52 1858.47 1549.52 Q1852.66 1549.52 1849.59 1544.94 Q1846.53 1540.33 1846.53 1531.6 Q1846.53 1522.85 1849.59 1518.27 Q1852.66 1513.66 1858.47 1513.66 Z" fill="#000000" fill-rule="evenodd" fill-opacity="1" /><path clip-path="url(#clip900)" d="M1879.45 1544.91 L1887.09 1544.91 L1887.09 1518.55 L1878.77 1520.21 L1878.77 1515.95 L1887.04 1514.29 L1891.71 1514.29 L1891.71 1544.91 L1899.35 1544.91 L1899.35 1548.85 L1879.45 1548.85 L1879.45 1544.91 Z" fill="#000000" fill-rule="evenodd" fill-opacity="1" /><path clip-path="url(#clip900)" d="M1919.38 1529.7 Q1916.23 1529.7 1914.38 1531.86 Q1912.55 1534.01 1912.55 1537.76 Q1912.55 1541.49 1914.38 1543.66 Q1916.23 1545.82 1919.38 1545.82 Q1922.52 1545.82 1924.35 1543.66 Q1926.21 1541.49 1926.21 1537.76 Q1926.21 1534.01 1924.35 1531.86 Q1922.52 1529.7 1919.38 1529.7 M1928.66 1515.05 L1928.66 1519.31 Q1926.9 1518.48 1925.09 1518.04 Q1923.31 1517.6 1921.55 1517.6 Q1916.92 1517.6 1914.47 1520.72 Q1912.04 1523.85 1911.69 1530.17 Q1913.06 1528.15 1915.12 1527.09 Q1917.18 1526 1919.65 1526 Q1924.86 1526 1927.87 1529.17 Q1930.9 1532.32 1930.9 1537.76 Q1930.9 1543.08 1927.76 1546.3 Q1924.61 1549.52 1919.38 1549.52 Q1913.38 1549.52 1910.21 1544.94 Q1907.04 1540.33 1907.04 1531.6 Q1907.04 1523.41 1910.93 1518.55 Q1914.82 1513.66 1921.37 1513.66 Q1923.13 1513.66 1924.91 1514.01 Q1926.71 1514.36 1928.66 1515.05 Z" fill="#000000" fill-rule="evenodd" fill-opacity="1" /><path clip-path="url(#clip900)" d="M1936.21 1533.96 L1948.68 1533.96 L1948.68 1537.76 L1936.21 1537.76 L1936.21 1533.96 Z" fill="#000000" fill-rule="evenodd" fill-opacity="1" /><path clip-path="url(#clip900)" d="M1966.07 1517.37 Q1962.45 1517.37 1960.63 1520.93 Q1958.82 1524.47 1958.82 1531.6 Q1958.82 1538.71 1960.63 1542.27 Q1962.45 1545.82 1966.07 1545.82 Q1969.7 1545.82 1971.51 1542.27 Q1973.33 1538.71 1973.33 1531.6 Q1973.33 1524.47 1971.51 1520.93 Q1969.7 1517.37 1966.07 1517.37 M1966.07 1513.66 Q1971.88 1513.66 1974.93 1518.27 Q1978.01 1522.85 1978.01 1531.6 Q1978.01 1540.33 1974.93 1544.94 Q1971.88 1549.52 1966.07 1549.52 Q1960.26 1549.52 1957.18 1544.94 Q1954.12 1540.33 1954.12 1531.6 Q1954.12 1522.85 1957.18 1518.27 Q1960.26 1513.66 1966.07 1513.66 Z" fill="#000000" fill-rule="evenodd" fill-opacity="1" /><path clip-path="url(#clip900)" d="M1987.04 1544.91 L1994.68 1544.91 L1994.68 1518.55 L1986.37 1520.21 L1986.37 1515.95 L1994.63 1514.29 L1999.31 1514.29 L1999.31 1544.91 L2006.95 1544.91 L2006.95 1548.85 L1987.04 1548.85 L1987.04 1544.91 Z" fill="#000000" fill-rule="evenodd" fill-opacity="1" /><path clip-path="url(#clip900)" d="M2013.64 1533.96 L2026.11 1533.96 L2026.11 1537.76 L2013.64 1537.76 L2013.64 1533.96 Z" fill="#000000" fill-rule="evenodd" fill-opacity="1" /><path clip-path="url(#clip900)" d="M2043.5 1517.37 Q2039.89 1517.37 2038.06 1520.93 Q2036.25 1524.47 2036.25 1531.6 Q2036.25 1538.71 2038.06 1542.27 Q2039.89 1545.82 2043.5 1545.82 Q2047.13 1545.82 2048.94 1542.27 Q2050.76 1538.71 2050.76 1531.6 Q2050.76 1524.47 2048.94 1520.93 Q2047.13 1517.37 2043.5 1517.37 M2043.5 1513.66 Q2049.31 1513.66 2052.36 1518.27 Q2055.44 1522.85 2055.44 1531.6 Q2055.44 1540.33 2052.36 1544.94 Q2049.31 1549.52 2043.5 1549.52 Q2037.69 1549.52 2034.61 1544.94 Q2031.55 1540.33 2031.55 1531.6 Q2031.55 1522.85 2034.61 1518.27 Q2037.69 1513.66 2043.5 1513.66 Z" fill="#000000" fill-rule="evenodd" fill-opacity="1" /><path clip-path="url(#clip900)" d="M2064.47 1544.91 L2072.11 1544.91 L2072.11 1518.55 L2063.8 1520.21 L2063.8 1515.95 L2072.06 1514.29 L2076.74 1514.29 L2076.74 1544.91 L2084.38 1544.91 L2084.38 1548.85 L2064.47 1548.85 L2064.47 1544.91 Z" fill="#000000" fill-rule="evenodd" fill-opacity="1" /><polyline clip-path="url(#clip902)" style="stroke:#000000; stroke-linecap:butt; stroke-linejoin:round; stroke-width:2; stroke-opacity:0.1; fill:none" points="
  156.598,1447.87 2352.76,1447.87 
  "/>
<polyline clip-path="url(#clip902)" style="stroke:#000000; stroke-linecap:butt; stroke-linejoin:round; stroke-width:2; stroke-opacity:0.1; fill:none" points="
  156.598,1248.05 2352.76,1248.05 
  "/>
<polyline clip-path="url(#clip902)" style="stroke:#000000; stroke-linecap:butt; stroke-linejoin:round; stroke-width:2; stroke-opacity:0.1; fill:none" points="
  156.598,1048.22 2352.76,1048.22 
  "/>
<polyline clip-path="url(#clip902)" style="stroke:#000000; stroke-linecap:butt; stroke-linejoin:round; stroke-width:2; stroke-opacity:0.1; fill:none" points="
  156.598,848.4 2352.76,848.4 
  "/>
<polyline clip-path="url(#clip902)" style="stroke:#000000; stroke-linecap:butt; stroke-linejoin:round; stroke-width:2; stroke-opacity:0.1; fill:none" points="
  156.598,648.576 2352.76,648.576 
  "/>
<polyline clip-path="url(#clip902)" style="stroke:#000000; stroke-linecap:butt; stroke-linejoin:round; stroke-width:2; stroke-opacity:0.1; fill:none" points="
  156.598,448.751 2352.76,448.751 
  "/>
<polyline clip-path="url(#clip902)" style="stroke:#000000; stroke-linecap:butt; stroke-linejoin:round; stroke-width:2; stroke-opacity:0.1; fill:none" points="
  156.598,248.927 2352.76,248.927 
  "/>
<polyline clip-path="url(#clip900)" style="stroke:#000000; stroke-linecap:butt; stroke-linejoin:round; stroke-width:4; stroke-opacity:1; fill:none" points="
  156.598,1486.45 156.598,123.472 
  "/>
<polyline clip-path="url(#clip900)" style="stroke:#000000; stroke-linecap:butt; stroke-linejoin:round; stroke-width:4; stroke-opacity:1; fill:none" points="
  156.598,1447.87 175.496,1447.87 
  "/>
<polyline clip-path="url(#clip900)" style="stroke:#000000; stroke-linecap:butt; stroke-linejoin:round; stroke-width:4; stroke-opacity:1; fill:none" points="
  156.598,1248.05 175.496,1248.05 
  "/>
<polyline clip-path="url(#clip900)" style="stroke:#000000; stroke-linecap:butt; stroke-linejoin:round; stroke-width:4; stroke-opacity:1; fill:none" points="
  156.598,1048.22 175.496,1048.22 
  "/>
<polyline clip-path="url(#clip900)" style="stroke:#000000; stroke-linecap:butt; stroke-linejoin:round; stroke-width:4; stroke-opacity:1; fill:none" points="
  156.598,848.4 175.496,848.4 
  "/>
<polyline clip-path="url(#clip900)" style="stroke:#000000; stroke-linecap:butt; stroke-linejoin:round; stroke-width:4; stroke-opacity:1; fill:none" points="
  156.598,648.576 175.496,648.576 
  "/>
<polyline clip-path="url(#clip900)" style="stroke:#000000; stroke-linecap:butt; stroke-linejoin:round; stroke-width:4; stroke-opacity:1; fill:none" points="
  156.598,448.751 175.496,448.751 
  "/>
<polyline clip-path="url(#clip900)" style="stroke:#000000; stroke-linecap:butt; stroke-linejoin:round; stroke-width:4; stroke-opacity:1; fill:none" points="
  156.598,248.927 175.496,248.927 
  "/>
<path clip-path="url(#clip900)" d="M63.4226 1433.67 Q59.8115 1433.67 57.9828 1437.24 Q56.1773 1440.78 56.1773 1447.91 Q56.1773 1455.01 57.9828 1458.58 Q59.8115 1462.12 63.4226 1462.12 Q67.0569 1462.12 68.8624 1458.58 Q70.6911 1455.01 70.6911 1447.91 Q70.6911 1440.78 68.8624 1437.24 Q67.0569 1433.67 63.4226 1433.67 M63.4226 1429.97 Q69.2328 1429.97 72.2883 1434.57 Q75.367 1439.16 75.367 1447.91 Q75.367 1456.63 72.2883 1461.24 Q69.2328 1465.82 63.4226 1465.82 Q57.6125 1465.82 54.5338 1461.24 Q51.4782 1456.63 51.4782 1447.91 Q51.4782 1439.16 54.5338 1434.57 Q57.6125 1429.97 63.4226 1429.97 Z" fill="#000000" fill-rule="evenodd" fill-opacity="1" /><path clip-path="url(#clip900)" d="M83.5845 1459.27 L88.4688 1459.27 L88.4688 1465.15 L83.5845 1465.15 L83.5845 1459.27 Z" fill="#000000" fill-rule="evenodd" fill-opacity="1" /><path clip-path="url(#clip900)" d="M108.654 1433.67 Q105.043 1433.67 103.214 1437.24 Q101.409 1440.78 101.409 1447.91 Q101.409 1455.01 103.214 1458.58 Q105.043 1462.12 108.654 1462.12 Q112.288 1462.12 114.094 1458.58 Q115.922 1455.01 115.922 1447.91 Q115.922 1440.78 114.094 1437.24 Q112.288 1433.67 108.654 1433.67 M108.654 1429.97 Q114.464 1429.97 117.52 1434.57 Q120.598 1439.16 120.598 1447.91 Q120.598 1456.63 117.52 1461.24 Q114.464 1465.82 108.654 1465.82 Q102.844 1465.82 99.765 1461.24 Q96.7095 1456.63 96.7095 1447.91 Q96.7095 1439.16 99.765 1434.57 Q102.844 1429.97 108.654 1429.97 Z" fill="#000000" fill-rule="evenodd" fill-opacity="1" /><path clip-path="url(#clip900)" d="M64.6495 1233.85 Q61.0384 1233.85 59.2097 1237.41 Q57.4041 1240.95 57.4041 1248.08 Q57.4041 1255.19 59.2097 1258.75 Q61.0384 1262.3 64.6495 1262.3 Q68.2837 1262.3 70.0892 1258.75 Q71.9179 1255.19 71.9179 1248.08 Q71.9179 1240.95 70.0892 1237.41 Q68.2837 1233.85 64.6495 1233.85 M64.6495 1230.14 Q70.4596 1230.14 73.5152 1234.75 Q76.5938 1239.33 76.5938 1248.08 Q76.5938 1256.81 73.5152 1261.42 Q70.4596 1266 64.6495 1266 Q58.8393 1266 55.7606 1261.42 Q52.7051 1256.81 52.7051 1248.08 Q52.7051 1239.33 55.7606 1234.75 Q58.8393 1230.14 64.6495 1230.14 Z" fill="#000000" fill-rule="evenodd" fill-opacity="1" /><path clip-path="url(#clip900)" d="M84.8114 1259.45 L89.6956 1259.45 L89.6956 1265.33 L84.8114 1265.33 L84.8114 1259.45 Z" fill="#000000" fill-rule="evenodd" fill-opacity="1" /><path clip-path="url(#clip900)" d="M100.691 1261.39 L108.33 1261.39 L108.33 1235.03 L100.02 1236.69 L100.02 1232.44 L108.283 1230.77 L112.959 1230.77 L112.959 1261.39 L120.598 1261.39 L120.598 1265.33 L100.691 1265.33 L100.691 1261.39 Z" fill="#000000" fill-rule="evenodd" fill-opacity="1" /><path clip-path="url(#clip900)" d="M65.0198 1034.02 Q61.4087 1034.02 59.58 1037.59 Q57.7745 1041.13 57.7745 1048.26 Q57.7745 1055.37 59.58 1058.93 Q61.4087 1062.47 65.0198 1062.47 Q68.6541 1062.47 70.4596 1058.93 Q72.2883 1055.37 72.2883 1048.26 Q72.2883 1041.13 70.4596 1037.59 Q68.6541 1034.02 65.0198 1034.02 M65.0198 1030.32 Q70.83 1030.32 73.8855 1034.93 Q76.9642 1039.51 76.9642 1048.26 Q76.9642 1056.99 73.8855 1061.59 Q70.83 1066.18 65.0198 1066.18 Q59.2097 1066.18 56.131 1061.59 Q53.0754 1056.99 53.0754 1048.26 Q53.0754 1039.51 56.131 1034.93 Q59.2097 1030.32 65.0198 1030.32 Z" fill="#000000" fill-rule="evenodd" fill-opacity="1" /><path clip-path="url(#clip900)" d="M85.1818 1059.62 L90.066 1059.62 L90.066 1065.5 L85.1818 1065.5 L85.1818 1059.62 Z" fill="#000000" fill-rule="evenodd" fill-opacity="1" /><path clip-path="url(#clip900)" d="M104.279 1061.57 L120.598 1061.57 L120.598 1065.5 L98.6539 1065.5 L98.6539 1061.57 Q101.316 1058.81 105.899 1054.19 Q110.506 1049.53 111.686 1048.19 Q113.932 1045.67 114.811 1043.93 Q115.714 1042.17 115.714 1040.48 Q115.714 1037.73 113.77 1035.99 Q111.848 1034.25 108.746 1034.25 Q106.547 1034.25 104.094 1035.02 Q101.663 1035.78 98.8854 1037.33 L98.8854 1032.61 Q101.709 1031.48 104.163 1030.9 Q106.617 1030.32 108.654 1030.32 Q114.024 1030.32 117.219 1033 Q120.413 1035.69 120.413 1040.18 Q120.413 1042.31 119.603 1044.23 Q118.816 1046.13 116.709 1048.72 Q116.131 1049.39 113.029 1052.61 Q109.927 1055.81 104.279 1061.57 Z" fill="#000000" fill-rule="evenodd" fill-opacity="1" /><path clip-path="url(#clip900)" d="M64.0708 834.199 Q60.4597 834.199 58.631 837.764 Q56.8254 841.305 56.8254 848.435 Q56.8254 855.541 58.631 859.106 Q60.4597 862.648 64.0708 862.648 Q67.705 862.648 69.5105 859.106 Q71.3392 855.541 71.3392 848.435 Q71.3392 841.305 69.5105 837.764 Q67.705 834.199 64.0708 834.199 M64.0708 830.495 Q69.8809 830.495 72.9365 835.102 Q76.0151 839.685 76.0151 848.435 Q76.0151 857.162 72.9365 861.768 Q69.8809 866.351 64.0708 866.351 Q58.2606 866.351 55.1819 861.768 Q52.1264 857.162 52.1264 848.435 Q52.1264 839.685 55.1819 835.102 Q58.2606 830.495 64.0708 830.495 Z" fill="#000000" fill-rule="evenodd" fill-opacity="1" /><path clip-path="url(#clip900)" d="M84.2327 859.8 L89.1169 859.8 L89.1169 865.68 L84.2327 865.68 L84.2327 859.8 Z" fill="#000000" fill-rule="evenodd" fill-opacity="1" /><path clip-path="url(#clip900)" d="M113.469 847.046 Q116.825 847.764 118.7 850.032 Q120.598 852.301 120.598 855.634 Q120.598 860.75 117.08 863.55 Q113.561 866.351 107.08 866.351 Q104.904 866.351 102.589 865.912 Q100.297 865.495 97.8437 864.638 L97.8437 860.125 Q99.7882 861.259 102.103 861.838 Q104.418 862.416 106.941 862.416 Q111.339 862.416 113.631 860.68 Q115.945 858.944 115.945 855.634 Q115.945 852.578 113.793 850.865 Q111.663 849.129 107.844 849.129 L103.816 849.129 L103.816 845.287 L108.029 845.287 Q111.478 845.287 113.307 843.921 Q115.135 842.532 115.135 839.939 Q115.135 837.277 113.237 835.865 Q111.362 834.43 107.844 834.43 Q105.922 834.43 103.723 834.847 Q101.524 835.264 98.8854 836.143 L98.8854 831.977 Q101.547 831.236 103.862 830.865 Q106.2 830.495 108.26 830.495 Q113.584 830.495 116.686 832.926 Q119.788 835.333 119.788 839.453 Q119.788 842.324 118.145 844.314 Q116.501 846.282 113.469 847.046 Z" fill="#000000" fill-rule="evenodd" fill-opacity="1" /><path clip-path="url(#clip900)" d="M62.9365 634.374 Q59.3254 634.374 57.4967 637.939 Q55.6912 641.481 55.6912 648.61 Q55.6912 655.717 57.4967 659.282 Q59.3254 662.823 62.9365 662.823 Q66.5707 662.823 68.3763 659.282 Q70.205 655.717 70.205 648.61 Q70.205 641.481 68.3763 637.939 Q66.5707 634.374 62.9365 634.374 M62.9365 630.671 Q68.7467 630.671 71.8022 635.277 Q74.8809 639.861 74.8809 648.61 Q74.8809 657.337 71.8022 661.944 Q68.7467 666.527 62.9365 666.527 Q57.1264 666.527 54.0477 661.944 Q50.9921 657.337 50.9921 648.61 Q50.9921 639.861 54.0477 635.277 Q57.1264 630.671 62.9365 630.671 Z" fill="#000000" fill-rule="evenodd" fill-opacity="1" /><path clip-path="url(#clip900)" d="M83.0984 659.976 L87.9827 659.976 L87.9827 665.856 L83.0984 665.856 L83.0984 659.976 Z" fill="#000000" fill-rule="evenodd" fill-opacity="1" /><path clip-path="url(#clip900)" d="M111.015 635.37 L99.2095 653.819 L111.015 653.819 L111.015 635.37 M109.788 631.296 L115.668 631.296 L115.668 653.819 L120.598 653.819 L120.598 657.708 L115.668 657.708 L115.668 665.856 L111.015 665.856 L111.015 657.708 L95.4132 657.708 L95.4132 653.194 L109.788 631.296 Z" fill="#000000" fill-rule="evenodd" fill-opacity="1" /><path clip-path="url(#clip900)" d="M64.418 434.55 Q60.8069 434.55 58.9782 438.115 Q57.1726 441.657 57.1726 448.786 Q57.1726 455.893 58.9782 459.457 Q60.8069 462.999 64.418 462.999 Q68.0522 462.999 69.8578 459.457 Q71.6865 455.893 71.6865 448.786 Q71.6865 441.657 69.8578 438.115 Q68.0522 434.55 64.418 434.55 M64.418 430.846 Q70.2281 430.846 73.2837 435.453 Q76.3624 440.036 76.3624 448.786 Q76.3624 457.513 73.2837 462.119 Q70.2281 466.703 64.418 466.703 Q58.6078 466.703 55.5291 462.119 Q52.4736 457.513 52.4736 448.786 Q52.4736 440.036 55.5291 435.453 Q58.6078 430.846 64.418 430.846 Z" fill="#000000" fill-rule="evenodd" fill-opacity="1" /><path clip-path="url(#clip900)" d="M84.5799 460.152 L89.4641 460.152 L89.4641 466.031 L84.5799 466.031 L84.5799 460.152 Z" fill="#000000" fill-rule="evenodd" fill-opacity="1" /><path clip-path="url(#clip900)" d="M99.6956 431.471 L118.052 431.471 L118.052 435.407 L103.978 435.407 L103.978 443.879 Q104.996 443.532 106.015 443.369 Q107.033 443.184 108.052 443.184 Q113.839 443.184 117.219 446.356 Q120.598 449.527 120.598 454.943 Q120.598 460.522 117.126 463.624 Q113.654 466.703 107.334 466.703 Q105.159 466.703 102.89 466.332 Q100.645 465.962 98.2372 465.221 L98.2372 460.522 Q100.321 461.656 102.543 462.212 Q104.765 462.768 107.242 462.768 Q111.246 462.768 113.584 460.661 Q115.922 458.555 115.922 454.943 Q115.922 451.332 113.584 449.226 Q111.246 447.119 107.242 447.119 Q105.367 447.119 103.492 447.536 Q101.64 447.953 99.6956 448.832 L99.6956 431.471 Z" fill="#000000" fill-rule="evenodd" fill-opacity="1" /><path clip-path="url(#clip900)" d="M63.2606 234.726 Q59.6495 234.726 57.8208 238.291 Q56.0152 241.832 56.0152 248.962 Q56.0152 256.068 57.8208 259.633 Q59.6495 263.175 63.2606 263.175 Q66.8948 263.175 68.7004 259.633 Q70.5291 256.068 70.5291 248.962 Q70.5291 241.832 68.7004 238.291 Q66.8948 234.726 63.2606 234.726 M63.2606 231.022 Q69.0707 231.022 72.1263 235.629 Q75.205 240.212 75.205 248.962 Q75.205 257.689 72.1263 262.295 Q69.0707 266.878 63.2606 266.878 Q57.4504 266.878 54.3717 262.295 Q51.3162 257.689 51.3162 248.962 Q51.3162 240.212 54.3717 235.629 Q57.4504 231.022 63.2606 231.022 Z" fill="#000000" fill-rule="evenodd" fill-opacity="1" /><path clip-path="url(#clip900)" d="M83.4225 260.327 L88.3067 260.327 L88.3067 266.207 L83.4225 266.207 L83.4225 260.327 Z" fill="#000000" fill-rule="evenodd" fill-opacity="1" /><path clip-path="url(#clip900)" d="M109.071 247.064 Q105.922 247.064 104.071 249.216 Q102.242 251.369 102.242 255.119 Q102.242 258.846 104.071 261.022 Q105.922 263.175 109.071 263.175 Q112.219 263.175 114.047 261.022 Q115.899 258.846 115.899 255.119 Q115.899 251.369 114.047 249.216 Q112.219 247.064 109.071 247.064 M118.353 232.411 L118.353 236.67 Q116.594 235.837 114.788 235.397 Q113.006 234.957 111.246 234.957 Q106.617 234.957 104.163 238.082 Q101.733 241.207 101.385 247.527 Q102.751 245.513 104.811 244.448 Q106.871 243.36 109.348 243.36 Q114.557 243.36 117.566 246.531 Q120.598 249.679 120.598 255.119 Q120.598 260.443 117.45 263.661 Q114.302 266.878 109.071 266.878 Q103.075 266.878 99.9039 262.295 Q96.7326 257.689 96.7326 248.962 Q96.7326 240.767 100.621 235.906 Q104.51 231.022 111.061 231.022 Q112.82 231.022 114.603 231.369 Q116.408 231.717 118.353 232.411 Z" fill="#000000" fill-rule="evenodd" fill-opacity="1" /><path clip-path="url(#clip900)" d="M400.382 12.096 L435.139 12.096 L435.139 18.9825 L408.565 18.9825 L408.565 36.8065 L432.546 36.8065 L432.546 43.6931 L408.565 43.6931 L408.565 72.576 L400.382 72.576 L400.382 12.096 Z" fill="#000000" fill-rule="evenodd" fill-opacity="1" /><path clip-path="url(#clip900)" d="M468.032 34.1734 Q466.776 33.4443 465.277 33.1202 Q463.819 32.7556 462.037 32.7556 Q455.717 32.7556 452.314 36.8875 Q448.952 40.9789 448.952 48.6757 L448.952 72.576 L441.458 72.576 L441.458 27.2059 L448.952 27.2059 L448.952 34.2544 Q451.302 30.1225 455.069 28.1376 Q458.836 26.1121 464.224 26.1121 Q464.994 26.1121 465.926 26.2337 Q466.857 26.3147 467.991 26.5172 L468.032 34.1734 Z" fill="#000000" fill-rule="evenodd" fill-opacity="1" /><path clip-path="url(#clip900)" d="M496.469 49.7694 Q487.436 49.7694 483.952 51.8354 Q480.468 53.9013 480.468 58.8839 Q480.468 62.8538 483.061 65.2034 Q485.694 67.5124 490.19 67.5124 Q496.388 67.5124 500.115 63.1374 Q503.882 58.7219 503.882 51.4303 L503.882 49.7694 L496.469 49.7694 M511.336 46.6907 L511.336 72.576 L503.882 72.576 L503.882 65.6895 Q501.33 69.8214 497.523 71.8063 Q493.715 73.7508 488.205 73.7508 Q481.238 73.7508 477.106 69.8619 Q473.015 65.9325 473.015 59.3701 Q473.015 51.7138 478.119 47.825 Q483.263 43.9361 493.431 43.9361 L503.882 43.9361 L503.882 43.2069 Q503.882 38.0623 500.48 35.2672 Q497.117 32.4315 491.001 32.4315 Q487.112 32.4315 483.425 33.3632 Q479.739 34.295 476.336 36.1584 L476.336 29.2718 Q480.428 27.692 484.276 26.9223 Q488.124 26.1121 491.77 26.1121 Q501.614 26.1121 506.475 31.2163 Q511.336 36.3204 511.336 46.6907 Z" fill="#000000" fill-rule="evenodd" fill-opacity="1" /><path clip-path="url(#clip900)" d="M559.339 28.9478 L559.339 35.9153 Q556.18 34.1734 552.979 33.3227 Q549.82 32.4315 546.579 32.4315 Q539.328 32.4315 535.317 37.0496 Q531.307 41.6271 531.307 49.9314 Q531.307 58.2358 535.317 62.8538 Q539.328 67.4314 546.579 67.4314 Q549.82 67.4314 552.979 66.5807 Q556.18 65.6895 559.339 63.9476 L559.339 70.8341 Q556.22 72.2924 552.858 73.0216 Q549.536 73.7508 545.769 73.7508 Q535.52 73.7508 529.484 67.3098 Q523.448 60.8689 523.448 49.9314 Q523.448 38.832 529.525 32.472 Q535.642 26.1121 546.255 26.1121 Q549.698 26.1121 552.979 26.8413 Q556.261 27.5299 559.339 28.9478 Z" fill="#000000" fill-rule="evenodd" fill-opacity="1" /><path clip-path="url(#clip900)" d="M579.675 14.324 L579.675 27.2059 L595.028 27.2059 L595.028 32.9987 L579.675 32.9987 L579.675 57.6282 Q579.675 63.1779 581.174 64.7578 Q582.713 66.3376 587.372 66.3376 L595.028 66.3376 L595.028 72.576 L587.372 72.576 Q578.743 72.576 575.462 69.3758 Q572.181 66.1351 572.181 57.6282 L572.181 32.9987 L566.712 32.9987 L566.712 27.2059 L572.181 27.2059 L572.181 14.324 L579.675 14.324 Z" fill="#000000" fill-rule="evenodd" fill-opacity="1" /><path clip-path="url(#clip900)" d="M604.831 27.2059 L612.285 27.2059 L612.285 72.576 L604.831 72.576 L604.831 27.2059 M604.831 9.54393 L612.285 9.54393 L612.285 18.9825 L604.831 18.9825 L604.831 9.54393 Z" fill="#000000" fill-rule="evenodd" fill-opacity="1" /><path clip-path="url(#clip900)" d="M645.462 32.4315 Q639.466 32.4315 635.982 37.1306 Q632.499 41.7891 632.499 49.9314 Q632.499 58.0738 635.942 62.7728 Q639.426 67.4314 645.462 67.4314 Q651.416 67.4314 654.9 62.7323 Q658.384 58.0333 658.384 49.9314 Q658.384 41.8701 654.9 37.1711 Q651.416 32.4315 645.462 32.4315 M645.462 26.1121 Q655.184 26.1121 660.733 32.4315 Q666.283 38.7509 666.283 49.9314 Q666.283 61.0714 660.733 67.4314 Q655.184 73.7508 645.462 73.7508 Q635.699 73.7508 630.149 67.4314 Q624.64 61.0714 624.64 49.9314 Q624.64 38.7509 630.149 32.4315 Q635.699 26.1121 645.462 26.1121 Z" fill="#000000" fill-rule="evenodd" fill-opacity="1" /><path clip-path="url(#clip900)" d="M716.352 45.1919 L716.352 72.576 L708.899 72.576 L708.899 45.4349 Q708.899 38.994 706.387 35.7938 Q703.876 32.5936 698.853 32.5936 Q692.817 32.5936 689.333 36.4419 Q685.849 40.2903 685.849 46.9338 L685.849 72.576 L678.355 72.576 L678.355 27.2059 L685.849 27.2059 L685.849 34.2544 Q688.523 30.163 692.128 28.1376 Q695.774 26.1121 700.513 26.1121 Q708.332 26.1121 712.342 30.9732 Q716.352 35.7938 716.352 45.1919 Z" fill="#000000" fill-rule="evenodd" fill-opacity="1" /><path clip-path="url(#clip900)" d="M775.172 32.4315 Q769.176 32.4315 765.692 37.1306 Q762.209 41.7891 762.209 49.9314 Q762.209 58.0738 765.652 62.7728 Q769.136 67.4314 775.172 67.4314 Q781.126 67.4314 784.61 62.7323 Q788.094 58.0333 788.094 49.9314 Q788.094 41.8701 784.61 37.1711 Q781.126 32.4315 775.172 32.4315 M775.172 26.1121 Q784.894 26.1121 790.443 32.4315 Q795.993 38.7509 795.993 49.9314 Q795.993 61.0714 790.443 67.4314 Q784.894 73.7508 775.172 73.7508 Q765.409 73.7508 759.859 67.4314 Q754.35 61.0714 754.35 49.9314 Q754.35 38.7509 759.859 32.4315 Q765.409 26.1121 775.172 26.1121 Z" fill="#000000" fill-rule="evenodd" fill-opacity="1" /><path clip-path="url(#clip900)" d="M831.317 9.54393 L831.317 15.7418 L824.187 15.7418 Q820.177 15.7418 818.597 17.3622 Q817.058 18.9825 817.058 23.1955 L817.058 27.2059 L829.332 27.2059 L829.332 32.9987 L817.058 32.9987 L817.058 72.576 L809.564 72.576 L809.564 32.9987 L802.434 32.9987 L802.434 27.2059 L809.564 27.2059 L809.564 24.0462 Q809.564 16.471 813.088 13.0277 Q816.612 9.54393 824.268 9.54393 L831.317 9.54393 Z" fill="#000000" fill-rule="evenodd" fill-opacity="1" /><path clip-path="url(#clip900)" d="M864.251 12.096 L902.491 12.096 L902.491 18.9825 L872.434 18.9825 L872.434 36.8875 L901.236 36.8875 L901.236 43.7741 L872.434 43.7741 L872.434 65.6895 L903.221 65.6895 L903.221 72.576 L864.251 72.576 L864.251 12.096 Z" fill="#000000" fill-rule="evenodd" fill-opacity="1" /><path clip-path="url(#clip900)" d="M910.998 27.2059 L918.898 27.2059 L933.076 65.2844 L947.254 27.2059 L955.153 27.2059 L938.139 72.576 L928.012 72.576 L910.998 27.2059 Z" fill="#000000" fill-rule="evenodd" fill-opacity="1" /><path clip-path="url(#clip900)" d="M1004.25 48.0275 L1004.25 51.6733 L969.98 51.6733 Q970.466 59.3701 974.598 63.421 Q978.77 67.4314 986.183 67.4314 Q990.477 67.4314 994.487 66.3781 Q998.538 65.3249 1002.51 63.2184 L1002.51 70.267 Q998.498 71.9684 994.285 72.8596 Q990.072 73.7508 985.738 73.7508 Q974.881 73.7508 968.521 67.4314 Q962.202 61.1119 962.202 50.3365 Q962.202 39.1965 968.197 32.6746 Q974.233 26.1121 984.441 26.1121 Q993.596 26.1121 998.903 32.0264 Q1004.25 37.9003 1004.25 48.0275 M996.797 45.84 Q996.715 39.7232 993.353 36.0774 Q990.031 32.4315 984.522 32.4315 Q978.284 32.4315 974.517 35.9558 Q970.79 39.4801 970.223 45.8805 L996.797 45.84 Z" fill="#000000" fill-rule="evenodd" fill-opacity="1" /><path clip-path="url(#clip900)" d="M1054.2 45.1919 L1054.2 72.576 L1046.74 72.576 L1046.74 45.4349 Q1046.74 38.994 1044.23 35.7938 Q1041.72 32.5936 1036.7 32.5936 Q1030.66 32.5936 1027.18 36.4419 Q1023.69 40.2903 1023.69 46.9338 L1023.69 72.576 L1016.2 72.576 L1016.2 27.2059 L1023.69 27.2059 L1023.69 34.2544 Q1026.37 30.163 1029.97 28.1376 Q1033.62 26.1121 1038.36 26.1121 Q1046.18 26.1121 1050.19 30.9732 Q1054.2 35.7938 1054.2 45.1919 Z" fill="#000000" fill-rule="evenodd" fill-opacity="1" /><path clip-path="url(#clip900)" d="M1076.44 14.324 L1076.44 27.2059 L1091.79 27.2059 L1091.79 32.9987 L1076.44 32.9987 L1076.44 57.6282 Q1076.44 63.1779 1077.94 64.7578 Q1079.48 66.3376 1084.13 66.3376 L1091.79 66.3376 L1091.79 72.576 L1084.13 72.576 Q1075.51 72.576 1072.22 69.3758 Q1068.94 66.1351 1068.94 57.6282 L1068.94 32.9987 L1063.47 32.9987 L1063.47 27.2059 L1068.94 27.2059 L1068.94 14.324 L1076.44 14.324 Z" fill="#000000" fill-rule="evenodd" fill-opacity="1" /><path clip-path="url(#clip900)" d="M1130.52 28.5427 L1130.52 35.5912 Q1127.36 33.9709 1123.95 33.1607 Q1120.55 32.3505 1116.91 32.3505 Q1111.36 32.3505 1108.56 34.0519 Q1105.81 35.7533 1105.81 39.156 Q1105.81 41.7486 1107.79 43.2475 Q1109.78 44.7058 1115.77 46.0426 L1118.32 46.6097 Q1126.26 48.3111 1129.59 51.4303 Q1132.95 54.509 1132.95 60.0587 Q1132.95 66.3781 1127.92 70.0644 Q1122.94 73.7508 1114.19 73.7508 Q1110.55 73.7508 1106.58 73.0216 Q1102.65 72.3329 1098.27 70.9151 L1098.27 63.2184 Q1102.4 65.3654 1106.41 66.4591 Q1110.42 67.5124 1114.35 67.5124 Q1119.62 67.5124 1122.46 65.73 Q1125.29 63.9071 1125.29 60.6258 Q1125.29 57.5877 1123.23 55.9673 Q1121.2 54.3469 1114.27 52.8481 L1111.68 52.2405 Q1104.75 50.7821 1101.67 47.7845 Q1098.6 44.7463 1098.6 39.4801 Q1098.6 33.0797 1103.13 29.5959 Q1107.67 26.1121 1116.01 26.1121 Q1120.15 26.1121 1123.79 26.7198 Q1127.44 27.3274 1130.52 28.5427 Z" fill="#000000" fill-rule="evenodd" fill-opacity="1" /><path clip-path="url(#clip900)" d="M1178.56 14.324 L1178.56 27.2059 L1193.91 27.2059 L1193.91 32.9987 L1178.56 32.9987 L1178.56 57.6282 Q1178.56 63.1779 1180.06 64.7578 Q1181.6 66.3376 1186.26 66.3376 L1193.91 66.3376 L1193.91 72.576 L1186.26 72.576 Q1177.63 72.576 1174.35 69.3758 Q1171.07 66.1351 1171.07 57.6282 L1171.07 32.9987 L1165.6 32.9987 L1165.6 27.2059 L1171.07 27.2059 L1171.07 14.324 L1178.56 14.324 Z" fill="#000000" fill-rule="evenodd" fill-opacity="1" /><path clip-path="url(#clip900)" d="M1241.43 45.1919 L1241.43 72.576 L1233.98 72.576 L1233.98 45.4349 Q1233.98 38.994 1231.47 35.7938 Q1228.95 32.5936 1223.93 32.5936 Q1217.89 32.5936 1214.41 36.4419 Q1210.93 40.2903 1210.93 46.9338 L1210.93 72.576 L1203.43 72.576 L1203.43 9.54393 L1210.93 9.54393 L1210.93 34.2544 Q1213.6 30.163 1217.21 28.1376 Q1220.85 26.1121 1225.59 26.1121 Q1233.41 26.1121 1237.42 30.9732 Q1241.43 35.7938 1241.43 45.1919 Z" fill="#000000" fill-rule="evenodd" fill-opacity="1" /><path clip-path="url(#clip900)" d="M1276.92 49.7694 Q1267.88 49.7694 1264.4 51.8354 Q1260.92 53.9013 1260.92 58.8839 Q1260.92 62.8538 1263.51 65.2034 Q1266.14 67.5124 1270.64 67.5124 Q1276.84 67.5124 1280.56 63.1374 Q1284.33 58.7219 1284.33 51.4303 L1284.33 49.7694 L1276.92 49.7694 M1291.78 46.6907 L1291.78 72.576 L1284.33 72.576 L1284.33 65.6895 Q1281.78 69.8214 1277.97 71.8063 Q1274.16 73.7508 1268.65 73.7508 Q1261.69 73.7508 1257.55 69.8619 Q1253.46 65.9325 1253.46 59.3701 Q1253.46 51.7138 1258.57 47.825 Q1263.71 43.9361 1273.88 43.9361 L1284.33 43.9361 L1284.33 43.2069 Q1284.33 38.0623 1280.93 35.2672 Q1277.56 32.4315 1271.45 32.4315 Q1267.56 32.4315 1263.87 33.3632 Q1260.19 34.295 1256.78 36.1584 L1256.78 29.2718 Q1260.87 27.692 1264.72 26.9223 Q1268.57 26.1121 1272.22 26.1121 Q1282.06 26.1121 1286.92 31.2163 Q1291.78 36.3204 1291.78 46.6907 Z" fill="#000000" fill-rule="evenodd" fill-opacity="1" /><path clip-path="url(#clip900)" d="M1314.51 14.324 L1314.51 27.2059 L1329.86 27.2059 L1329.86 32.9987 L1314.51 32.9987 L1314.51 57.6282 Q1314.51 63.1779 1316.01 64.7578 Q1317.55 66.3376 1322.21 66.3376 L1329.86 66.3376 L1329.86 72.576 L1322.21 72.576 Q1313.58 72.576 1310.3 69.3758 Q1307.01 66.1351 1307.01 57.6282 L1307.01 32.9987 L1301.55 32.9987 L1301.55 27.2059 L1307.01 27.2059 L1307.01 14.324 L1314.51 14.324 Z" fill="#000000" fill-rule="evenodd" fill-opacity="1" /><path clip-path="url(#clip900)" d="M1386.66 49.7694 Q1377.62 49.7694 1374.14 51.8354 Q1370.65 53.9013 1370.65 58.8839 Q1370.65 62.8538 1373.25 65.2034 Q1375.88 67.5124 1380.38 67.5124 Q1386.57 67.5124 1390.3 63.1374 Q1394.07 58.7219 1394.07 51.4303 L1394.07 49.7694 L1386.66 49.7694 M1401.52 46.6907 L1401.52 72.576 L1394.07 72.576 L1394.07 65.6895 Q1391.52 69.8214 1387.71 71.8063 Q1383.9 73.7508 1378.39 73.7508 Q1371.42 73.7508 1367.29 69.8619 Q1363.2 65.9325 1363.2 59.3701 Q1363.2 51.7138 1368.3 47.825 Q1373.45 43.9361 1383.62 43.9361 L1394.07 43.9361 L1394.07 43.2069 Q1394.07 38.0623 1390.67 35.2672 Q1387.3 32.4315 1381.19 32.4315 Q1377.3 32.4315 1373.61 33.3632 Q1369.93 34.295 1366.52 36.1584 L1366.52 29.2718 Q1370.61 27.692 1374.46 26.9223 Q1378.31 26.1121 1381.96 26.1121 Q1391.8 26.1121 1396.66 31.2163 Q1401.52 36.3204 1401.52 46.6907 Z" fill="#000000" fill-rule="evenodd" fill-opacity="1" /><path clip-path="url(#clip900)" d="M1443.17 34.1734 Q1441.91 33.4443 1440.41 33.1202 Q1438.95 32.7556 1437.17 32.7556 Q1430.85 32.7556 1427.45 36.8875 Q1424.09 40.9789 1424.09 48.6757 L1424.09 72.576 L1416.59 72.576 L1416.59 27.2059 L1424.09 27.2059 L1424.09 34.2544 Q1426.44 30.1225 1430.2 28.1376 Q1433.97 26.1121 1439.36 26.1121 Q1440.13 26.1121 1441.06 26.2337 Q1441.99 26.3147 1443.13 26.5172 L1443.17 34.1734 Z" fill="#000000" fill-rule="evenodd" fill-opacity="1" /><path clip-path="url(#clip900)" d="M1487.97 48.0275 L1487.97 51.6733 L1453.7 51.6733 Q1454.18 59.3701 1458.32 63.421 Q1462.49 67.4314 1469.9 67.4314 Q1474.2 67.4314 1478.21 66.3781 Q1482.26 65.3249 1486.23 63.2184 L1486.23 70.267 Q1482.22 71.9684 1478 72.8596 Q1473.79 73.7508 1469.46 73.7508 Q1458.6 73.7508 1452.24 67.4314 Q1445.92 61.1119 1445.92 50.3365 Q1445.92 39.1965 1451.92 32.6746 Q1457.95 26.1121 1468.16 26.1121 Q1477.31 26.1121 1482.62 32.0264 Q1487.97 37.9003 1487.97 48.0275 M1480.51 45.84 Q1480.43 39.7232 1477.07 36.0774 Q1473.75 32.4315 1468.24 32.4315 Q1462 32.4315 1458.24 35.9558 Q1454.51 39.4801 1453.94 45.8805 L1480.51 45.84 Z" fill="#000000" fill-rule="evenodd" fill-opacity="1" /><path clip-path="url(#clip900)" d="M1526.9 12.096 L1535.08 12.096 L1535.08 36.8875 L1564.81 36.8875 L1564.81 12.096 L1573 12.096 L1573 72.576 L1564.81 72.576 L1564.81 43.7741 L1535.08 43.7741 L1535.08 72.576 L1526.9 72.576 L1526.9 12.096 Z" fill="#000000" fill-rule="evenodd" fill-opacity="1" /><path clip-path="url(#clip900)" d="M1609.58 49.7694 Q1600.54 49.7694 1597.06 51.8354 Q1593.58 53.9013 1593.58 58.8839 Q1593.58 62.8538 1596.17 65.2034 Q1598.8 67.5124 1603.3 67.5124 Q1609.5 67.5124 1613.22 63.1374 Q1616.99 58.7219 1616.99 51.4303 L1616.99 49.7694 L1609.58 49.7694 M1624.44 46.6907 L1624.44 72.576 L1616.99 72.576 L1616.99 65.6895 Q1614.44 69.8214 1610.63 71.8063 Q1606.82 73.7508 1601.31 73.7508 Q1594.35 73.7508 1590.21 69.8619 Q1586.12 65.9325 1586.12 59.3701 Q1586.12 51.7138 1591.23 47.825 Q1596.37 43.9361 1606.54 43.9361 L1616.99 43.9361 L1616.99 43.2069 Q1616.99 38.0623 1613.59 35.2672 Q1610.22 32.4315 1604.11 32.4315 Q1600.22 32.4315 1596.53 33.3632 Q1592.85 34.295 1589.44 36.1584 L1589.44 29.2718 Q1593.54 27.692 1597.38 26.9223 Q1601.23 26.1121 1604.88 26.1121 Q1614.72 26.1121 1619.58 31.2163 Q1624.44 36.3204 1624.44 46.6907 Z" fill="#000000" fill-rule="evenodd" fill-opacity="1" /><path clip-path="url(#clip900)" d="M1677.51 45.1919 L1677.51 72.576 L1670.06 72.576 L1670.06 45.4349 Q1670.06 38.994 1667.55 35.7938 Q1665.03 32.5936 1660.01 32.5936 Q1653.97 32.5936 1650.49 36.4419 Q1647.01 40.2903 1647.01 46.9338 L1647.01 72.576 L1639.51 72.576 L1639.51 27.2059 L1647.01 27.2059 L1647.01 34.2544 Q1649.68 30.163 1653.29 28.1376 Q1656.93 26.1121 1661.67 26.1121 Q1669.49 26.1121 1673.5 30.9732 Q1677.51 35.7938 1677.51 45.1919 Z" fill="#000000" fill-rule="evenodd" fill-opacity="1" /><path clip-path="url(#clip900)" d="M1722.23 34.0924 L1722.23 9.54393 L1729.69 9.54393 L1729.69 72.576 L1722.23 72.576 L1722.23 65.7705 Q1719.88 69.8214 1716.28 71.8063 Q1712.71 73.7508 1707.69 73.7508 Q1699.47 73.7508 1694.28 67.1883 Q1689.14 60.6258 1689.14 49.9314 Q1689.14 39.2371 1694.28 32.6746 Q1699.47 26.1121 1707.69 26.1121 Q1712.71 26.1121 1716.28 28.0971 Q1719.88 30.0415 1722.23 34.0924 M1696.83 49.9314 Q1696.83 58.1548 1700.2 62.8538 Q1703.6 67.5124 1709.51 67.5124 Q1715.43 67.5124 1718.83 62.8538 Q1722.23 58.1548 1722.23 49.9314 Q1722.23 41.7081 1718.83 37.0496 Q1715.43 32.3505 1709.51 32.3505 Q1703.6 32.3505 1700.2 37.0496 Q1696.83 41.7081 1696.83 49.9314 Z" fill="#000000" fill-rule="evenodd" fill-opacity="1" /><path clip-path="url(#clip900)" d="M1774.89 49.3643 Q1774.89 41.2625 1771.53 36.8065 Q1768.21 32.3505 1762.17 32.3505 Q1756.18 32.3505 1752.82 36.8065 Q1749.5 41.2625 1749.5 49.3643 Q1749.5 57.4256 1752.82 61.8816 Q1756.18 66.3376 1762.17 66.3376 Q1768.21 66.3376 1771.53 61.8816 Q1774.89 57.4256 1774.89 49.3643 M1782.35 66.9452 Q1782.35 78.5308 1777.2 84.1616 Q1772.06 89.8329 1761.45 89.8329 Q1757.52 89.8329 1754.03 89.2252 Q1750.55 88.6581 1747.27 87.4428 L1747.27 80.1917 Q1750.55 81.9741 1753.75 82.8248 Q1756.95 83.6755 1760.27 83.6755 Q1767.6 83.6755 1771.25 79.8271 Q1774.89 76.0193 1774.89 68.282 L1774.89 64.5957 Q1772.59 68.6061 1768.98 70.5911 Q1765.37 72.576 1760.35 72.576 Q1752.01 72.576 1746.9 66.2161 Q1741.8 59.8562 1741.8 49.3643 Q1741.8 38.832 1746.9 32.472 Q1752.01 26.1121 1760.35 26.1121 Q1765.37 26.1121 1768.98 28.0971 Q1772.59 30.082 1774.89 34.0924 L1774.89 27.2059 L1782.35 27.2059 L1782.35 66.9452 Z" fill="#000000" fill-rule="evenodd" fill-opacity="1" /><path clip-path="url(#clip900)" d="M1796.93 54.671 L1796.93 27.2059 L1804.38 27.2059 L1804.38 54.3874 Q1804.38 60.8284 1806.9 64.0691 Q1809.41 67.2693 1814.43 67.2693 Q1820.47 67.2693 1823.95 63.421 Q1827.47 59.5726 1827.47 52.9291 L1827.47 27.2059 L1834.93 27.2059 L1834.93 72.576 L1827.47 72.576 L1827.47 65.6084 Q1824.76 69.7404 1821.16 71.7658 Q1817.59 73.7508 1812.85 73.7508 Q1805.03 73.7508 1800.98 68.8897 Q1796.93 64.0286 1796.93 54.671 M1815.69 26.1121 L1815.69 26.1121 Z" fill="#000000" fill-rule="evenodd" fill-opacity="1" /><path clip-path="url(#clip900)" d="M1888 45.1919 L1888 72.576 L1880.54 72.576 L1880.54 45.4349 Q1880.54 38.994 1878.03 35.7938 Q1875.52 32.5936 1870.5 32.5936 Q1864.46 32.5936 1860.98 36.4419 Q1857.49 40.2903 1857.49 46.9338 L1857.49 72.576 L1850 72.576 L1850 27.2059 L1857.49 27.2059 L1857.49 34.2544 Q1860.17 30.163 1863.77 28.1376 Q1867.42 26.1121 1872.16 26.1121 Q1879.97 26.1121 1883.99 30.9732 Q1888 35.7938 1888 45.1919 Z" fill="#000000" fill-rule="evenodd" fill-opacity="1" /><path clip-path="url(#clip900)" d="M1954.11 17.6457 Q1945.19 17.6457 1939.93 24.2892 Q1934.7 30.9327 1934.7 42.3968 Q1934.7 53.8203 1939.93 60.4638 Q1945.19 67.1073 1954.11 67.1073 Q1963.02 67.1073 1968.2 60.4638 Q1973.43 53.8203 1973.43 42.3968 Q1973.43 30.9327 1968.2 24.2892 Q1963.02 17.6457 1954.11 17.6457 M1954.11 11.0023 Q1966.83 11.0023 1974.44 19.5497 Q1982.06 28.0566 1982.06 42.3968 Q1982.06 56.6965 1974.44 65.2439 Q1966.83 73.7508 1954.11 73.7508 Q1941.35 73.7508 1933.69 65.2439 Q1926.07 56.737 1926.07 42.3968 Q1926.07 28.0566 1933.69 19.5497 Q1941.35 11.0023 1954.11 11.0023 Z" fill="#000000" fill-rule="evenodd" fill-opacity="1" /><path clip-path="url(#clip900)" d="M2032.25 45.1919 L2032.25 72.576 L2024.79 72.576 L2024.79 45.4349 Q2024.79 38.994 2022.28 35.7938 Q2019.77 32.5936 2014.75 32.5936 Q2008.71 32.5936 2005.23 36.4419 Q2001.74 40.2903 2001.74 46.9338 L2001.74 72.576 L1994.25 72.576 L1994.25 27.2059 L2001.74 27.2059 L2001.74 34.2544 Q2004.42 30.163 2008.02 28.1376 Q2011.67 26.1121 2016.41 26.1121 Q2024.23 26.1121 2028.24 30.9732 Q2032.25 35.7938 2032.25 45.1919 Z" fill="#000000" fill-rule="evenodd" fill-opacity="1" /><path clip-path="url(#clip900)" d="M2047.11 9.54393 L2054.57 9.54393 L2054.57 72.576 L2047.11 72.576 L2047.11 9.54393 Z" fill="#000000" fill-rule="evenodd" fill-opacity="1" /><path clip-path="url(#clip900)" d="M2089.04 76.7889 Q2085.88 84.8907 2082.88 87.3618 Q2079.89 89.8329 2074.86 89.8329 L2068.91 89.8329 L2068.91 83.5945 L2073.28 83.5945 Q2076.36 83.5945 2078.06 82.1361 Q2079.77 80.6778 2081.83 75.2496 L2083.17 71.8468 L2064.82 27.2059 L2072.72 27.2059 L2086.89 62.6918 L2101.07 27.2059 L2108.97 27.2059 L2089.04 76.7889 Z" fill="#000000" fill-rule="evenodd" fill-opacity="1" /><polyline clip-path="url(#clip902)" style="stroke:#009af9; stroke-linecap:butt; stroke-linejoin:round; stroke-width:4; stroke-opacity:1; fill:none" points="
  218.754,1447.87 228.524,448.751 238.293,781.792 247.118,648.576 256.888,448.751 333.786,591.483 343.556,448.751 362.15,559.765 400.6,448.751 429.594,539.581 
  468.359,448.751 486.953,371.896 496.408,448.751 515.632,448.751 525.402,348.839 544.627,306.02 554.397,267.093 583.391,318.431 630.98,282.231 669.744,295.04 
  688.969,337.738 698.739,377.386 707.563,382.143 755.782,352.062 775.007,323.861 784.777,363.112 804.002,337.738 822.596,343.581 851.59,320.659 861.045,298.883 
  870.815,306.02 880.585,332.574 890.04,382.143 928.804,427.493 937.628,407.121 947.398,408.787 956.853,429.161 985.848,429.9 1005.07,396.166 1024.3,431.817 
  1043.84,416.522 1052.98,401.174 1072.2,386.306 1081.97,371.896 1091.43,388.199 1110.97,404.015 1149.41,389.98 1168.01,420.205 1177.78,380.318 1187.23,367.742 
  1197,396.166 1206.46,409.825 1216.23,397.514 1226,385.516 1245.22,353.597 1254.68,342.962 1264.45,347.717 1274.22,340.151 1283.04,312.029 1292.81,303.046 
  1302.27,277.185 1312.04,268.909 1321.49,260.798 1331.26,252.845 1341.03,229.896 1350.49,201.263 1369.71,194.43 1379.48,181.13 1407.84,174.656 1446.29,162.047 
  1456.06,184.027 1465.52,188.476 1484.74,182.319 1494.51,192.778 1504.28,196.94 1513.42,184.983 1523.19,173.403 1532.65,167.748 1551.87,187.443 1561.64,200.849 
  1571.41,195.243 1580.87,184.278 1590.64,178.916 1600.09,186.571 1609.86,190.237 1628.45,198.971 1638.22,216.079 1647.68,224.459 1657.45,222.284 1676.67,238.41 
  1686.44,246.315 1695.9,248.927 1705.67,256.613 1715.12,271.692 1724.89,281.197 1734.66,276.064 1753.26,285.259 1762.71,275.251 1772.48,297.721 1791.71,304.37 
  1801.48,299.457 1810.93,294.601 1820.7,291.586 1839.92,288.671 1849.69,279.501 1858.52,266.116 1868.29,261.75 1877.74,253.156 1887.51,259.444 1896.97,267.564 
  1925.96,275.434 1935.73,281.386 1945.19,287.277 1964.73,284.716 1973.87,280.582 1983.64,286.333 1993.09,303.248 2002.86,308.778 2012.32,330.372 2022.09,335.643 
  2031.86,328.487 2041.31,324.437 2051.08,320.424 2070.31,321.59 2088.9,327.782 2098.67,312.307 2108.12,317.288 2117.89,320.659 2137.12,316.952 2146.89,318.065 
  2156.34,323.861 2166.11,330.488 2175.57,327.89 2185.34,324.363 2195.11,328.857 2203.93,333.315 2213.7,334.228 2223.16,332.574 2232.93,336.881 2252.15,330.082 
  2261.92,313.532 2271.38,314.541 2281.15,298.7 2290.6,302.894 
  "/>
</svg>
