<?xml version="1.0" encoding="utf-8"?>
<svg xmlns="http://www.w3.org/2000/svg" xmlns:xlink="http://www.w3.org/1999/xlink" width="600" height="400" viewBox="0 0 2400 1600">
<defs>
  <clipPath id="clip860">
    <rect x="0" y="0" width="2400" height="1600"/>
  </clipPath>
</defs>
<path clip-path="url(#clip860)" d="
M0 1600 L2400 1600 L2400 0 L0 0  Z
  " fill="#ffffff" fill-rule="evenodd" fill-opacity="1"/>
<defs>
  <clipPath id="clip861">
    <rect x="480" y="0" width="1681" height="1600"/>
  </clipPath>
</defs>
<path clip-path="url(#clip860)" d="
M112.177 1486.45 L2352.76 1486.45 L2352.76 123.472 L112.177 123.472  Z
  " fill="#ffffff" fill-rule="evenodd" fill-opacity="1"/>
<defs>
  <clipPath id="clip862">
    <rect x="112" y="123" width="2242" height="1364"/>
  </clipPath>
</defs>
<polyline clip-path="url(#clip862)" style="stroke:#000000; stroke-linecap:butt; stroke-linejoin:round; stroke-width:2; stroke-opacity:0.1; fill:none" points="
  181.056,1486.45 181.056,123.472 
  "/>
<polyline clip-path="url(#clip862)" style="stroke:#000000; stroke-linecap:butt; stroke-linejoin:round; stroke-width:2; stroke-opacity:0.1; fill:none" points="
  768.174,1486.45 768.174,123.472 
  "/>
<polyline clip-path="url(#clip862)" style="stroke:#000000; stroke-linecap:butt; stroke-linejoin:round; stroke-width:2; stroke-opacity:0.1; fill:none" points="
  1355.29,1486.45 1355.29,123.472 
  "/>
<polyline clip-path="url(#clip862)" style="stroke:#000000; stroke-linecap:butt; stroke-linejoin:round; stroke-width:2; stroke-opacity:0.1; fill:none" points="
  1942.41,1486.45 1942.41,123.472 
  "/>
<polyline clip-path="url(#clip860)" style="stroke:#000000; stroke-linecap:butt; stroke-linejoin:round; stroke-width:4; stroke-opacity:1; fill:none" points="
  112.177,1486.45 2352.76,1486.45 
  "/>
<polyline clip-path="url(#clip860)" style="stroke:#000000; stroke-linecap:butt; stroke-linejoin:round; stroke-width:4; stroke-opacity:1; fill:none" points="
  181.056,1486.45 181.056,1467.55 
  "/>
<polyline clip-path="url(#clip860)" style="stroke:#000000; stroke-linecap:butt; stroke-linejoin:round; stroke-width:4; stroke-opacity:1; fill:none" points="
  768.174,1486.45 768.174,1467.55 
  "/>
<polyline clip-path="url(#clip860)" style="stroke:#000000; stroke-linecap:butt; stroke-linejoin:round; stroke-width:4; stroke-opacity:1; fill:none" points="
  1355.29,1486.45 1355.29,1467.55 
  "/>
<polyline clip-path="url(#clip860)" style="stroke:#000000; stroke-linecap:butt; stroke-linejoin:round; stroke-width:4; stroke-opacity:1; fill:none" points="
  1942.41,1486.45 1942.41,1467.55 
  "/>
<path clip-path="url(#clip860)" d="M52.8505 1544.91 L69.1699 1544.91 L69.1699 1548.85 L47.2255 1548.85 L47.2255 1544.91 Q49.8876 1542.16 54.4709 1537.53 Q59.0773 1532.88 60.2579 1531.53 Q62.5032 1529.01 63.3829 1527.27 Q64.2856 1525.51 64.2856 1523.82 Q64.2856 1521.07 62.3412 1519.33 Q60.4199 1517.6 57.3181 1517.6 Q55.119 1517.6 52.6653 1518.36 Q50.2348 1519.13 47.457 1520.68 L47.457 1515.95 Q50.2811 1514.82 52.7348 1514.24 Q55.1885 1513.66 57.2255 1513.66 Q62.5958 1513.66 65.7902 1516.35 Q68.9847 1519.03 68.9847 1523.52 Q68.9847 1525.65 68.1745 1527.57 Q67.3875 1529.47 65.281 1532.07 Q64.7023 1532.74 61.6005 1535.95 Q58.4986 1539.15 52.8505 1544.91 Z" fill="#000000" fill-rule="evenodd" fill-opacity="1" /><path clip-path="url(#clip860)" d="M88.9846 1517.37 Q85.3735 1517.37 83.5448 1520.93 Q81.7392 1524.47 81.7392 1531.6 Q81.7392 1538.71 83.5448 1542.27 Q85.3735 1545.82 88.9846 1545.82 Q92.6188 1545.82 94.4244 1542.27 Q96.253 1538.71 96.253 1531.6 Q96.253 1524.47 94.4244 1520.93 Q92.6188 1517.37 88.9846 1517.37 M88.9846 1513.66 Q94.7947 1513.66 97.8503 1518.27 Q100.929 1522.85 100.929 1531.6 Q100.929 1540.33 97.8503 1544.94 Q94.7947 1549.52 88.9846 1549.52 Q83.1744 1549.52 80.0957 1544.94 Q77.0402 1540.33 77.0402 1531.6 Q77.0402 1522.85 80.0957 1518.27 Q83.1744 1513.66 88.9846 1513.66 Z" fill="#000000" fill-rule="evenodd" fill-opacity="1" /><path clip-path="url(#clip860)" d="M119.146 1517.37 Q115.535 1517.37 113.707 1520.93 Q111.901 1524.47 111.901 1531.6 Q111.901 1538.71 113.707 1542.27 Q115.535 1545.82 119.146 1545.82 Q122.781 1545.82 124.586 1542.27 Q126.415 1538.71 126.415 1531.6 Q126.415 1524.47 124.586 1520.93 Q122.781 1517.37 119.146 1517.37 M119.146 1513.66 Q124.957 1513.66 128.012 1518.27 Q131.091 1522.85 131.091 1531.6 Q131.091 1540.33 128.012 1544.94 Q124.957 1549.52 119.146 1549.52 Q113.336 1549.52 110.258 1544.94 Q107.202 1540.33 107.202 1531.6 Q107.202 1522.85 110.258 1518.27 Q113.336 1513.66 119.146 1513.66 Z" fill="#000000" fill-rule="evenodd" fill-opacity="1" /><path clip-path="url(#clip860)" d="M140.119 1544.91 L147.757 1544.91 L147.757 1518.55 L139.447 1520.21 L139.447 1515.95 L147.711 1514.29 L152.387 1514.29 L152.387 1544.91 L160.026 1544.91 L160.026 1548.85 L140.119 1548.85 L140.119 1544.91 Z" fill="#000000" fill-rule="evenodd" fill-opacity="1" /><path clip-path="url(#clip860)" d="M166.716 1533.96 L179.192 1533.96 L179.192 1537.76 L166.716 1537.76 L166.716 1533.96 Z" fill="#000000" fill-rule="evenodd" fill-opacity="1" /><path clip-path="url(#clip860)" d="M196.577 1517.37 Q192.965 1517.37 191.137 1520.93 Q189.331 1524.47 189.331 1531.6 Q189.331 1538.71 191.137 1542.27 Q192.965 1545.82 196.577 1545.82 Q200.211 1545.82 202.016 1542.27 Q203.845 1538.71 203.845 1531.6 Q203.845 1524.47 202.016 1520.93 Q200.211 1517.37 196.577 1517.37 M196.577 1513.66 Q202.387 1513.66 205.442 1518.27 Q208.521 1522.85 208.521 1531.6 Q208.521 1540.33 205.442 1544.94 Q202.387 1549.52 196.577 1549.52 Q190.766 1549.52 187.688 1544.94 Q184.632 1540.33 184.632 1531.6 Q184.632 1522.85 187.688 1518.27 Q190.766 1513.66 196.577 1513.66 Z" fill="#000000" fill-rule="evenodd" fill-opacity="1" /><path clip-path="url(#clip860)" d="M217.549 1544.91 L225.188 1544.91 L225.188 1518.55 L216.877 1520.21 L216.877 1515.95 L225.141 1514.29 L229.817 1514.29 L229.817 1544.91 L237.456 1544.91 L237.456 1548.85 L217.549 1548.85 L217.549 1544.91 Z" fill="#000000" fill-rule="evenodd" fill-opacity="1" /><path clip-path="url(#clip860)" d="M244.146 1533.96 L256.623 1533.96 L256.623 1537.76 L244.146 1537.76 L244.146 1533.96 Z" fill="#000000" fill-rule="evenodd" fill-opacity="1" /><path clip-path="url(#clip860)" d="M274.007 1517.37 Q270.396 1517.37 268.567 1520.93 Q266.761 1524.47 266.761 1531.6 Q266.761 1538.71 268.567 1542.27 Q270.396 1545.82 274.007 1545.82 Q277.641 1545.82 279.447 1542.27 Q281.275 1538.71 281.275 1531.6 Q281.275 1524.47 279.447 1520.93 Q277.641 1517.37 274.007 1517.37 M274.007 1513.66 Q279.817 1513.66 282.872 1518.27 Q285.951 1522.85 285.951 1531.6 Q285.951 1540.33 282.872 1544.94 Q279.817 1549.52 274.007 1549.52 Q268.197 1549.52 265.118 1544.94 Q262.062 1540.33 262.062 1531.6 Q262.062 1522.85 265.118 1518.27 Q268.197 1513.66 274.007 1513.66 Z" fill="#000000" fill-rule="evenodd" fill-opacity="1" /><path clip-path="url(#clip860)" d="M294.979 1544.91 L302.618 1544.91 L302.618 1518.55 L294.308 1520.21 L294.308 1515.95 L302.571 1514.29 L307.247 1514.29 L307.247 1544.91 L314.886 1544.91 L314.886 1548.85 L294.979 1548.85 L294.979 1544.91 Z" fill="#000000" fill-rule="evenodd" fill-opacity="1" /><path clip-path="url(#clip860)" d="M639.969 1544.91 L656.288 1544.91 L656.288 1548.85 L634.344 1548.85 L634.344 1544.91 Q637.006 1542.16 641.589 1537.53 Q646.195 1532.88 647.376 1531.53 Q649.621 1529.01 650.501 1527.27 Q651.404 1525.51 651.404 1523.82 Q651.404 1521.07 649.459 1519.33 Q647.538 1517.6 644.436 1517.6 Q642.237 1517.6 639.783 1518.36 Q637.353 1519.13 634.575 1520.68 L634.575 1515.95 Q637.399 1514.82 639.853 1514.24 Q642.306 1513.66 644.344 1513.66 Q649.714 1513.66 652.908 1516.35 Q656.103 1519.03 656.103 1523.52 Q656.103 1525.65 655.293 1527.57 Q654.505 1529.47 652.399 1532.07 Q651.82 1532.74 648.718 1535.95 Q645.617 1539.15 639.969 1544.91 Z" fill="#000000" fill-rule="evenodd" fill-opacity="1" /><path clip-path="url(#clip860)" d="M676.103 1517.37 Q672.492 1517.37 670.663 1520.93 Q668.857 1524.47 668.857 1531.6 Q668.857 1538.71 670.663 1542.27 Q672.492 1545.82 676.103 1545.82 Q679.737 1545.82 681.542 1542.27 Q683.371 1538.71 683.371 1531.6 Q683.371 1524.47 681.542 1520.93 Q679.737 1517.37 676.103 1517.37 M676.103 1513.66 Q681.913 1513.66 684.968 1518.27 Q688.047 1522.85 688.047 1531.6 Q688.047 1540.33 684.968 1544.94 Q681.913 1549.52 676.103 1549.52 Q670.292 1549.52 667.214 1544.94 Q664.158 1540.33 664.158 1531.6 Q664.158 1522.85 667.214 1518.27 Q670.292 1513.66 676.103 1513.66 Z" fill="#000000" fill-rule="evenodd" fill-opacity="1" /><path clip-path="url(#clip860)" d="M706.264 1517.37 Q702.653 1517.37 700.825 1520.93 Q699.019 1524.47 699.019 1531.6 Q699.019 1538.71 700.825 1542.27 Q702.653 1545.82 706.264 1545.82 Q709.899 1545.82 711.704 1542.27 Q713.533 1538.71 713.533 1531.6 Q713.533 1524.47 711.704 1520.93 Q709.899 1517.37 706.264 1517.37 M706.264 1513.66 Q712.075 1513.66 715.13 1518.27 Q718.209 1522.85 718.209 1531.6 Q718.209 1540.33 715.13 1544.94 Q712.075 1549.52 706.264 1549.52 Q700.454 1549.52 697.376 1544.94 Q694.32 1540.33 694.32 1531.6 Q694.32 1522.85 697.376 1518.27 Q700.454 1513.66 706.264 1513.66 Z" fill="#000000" fill-rule="evenodd" fill-opacity="1" /><path clip-path="url(#clip860)" d="M737.005 1529.7 Q733.857 1529.7 732.005 1531.86 Q730.176 1534.01 730.176 1537.76 Q730.176 1541.49 732.005 1543.66 Q733.857 1545.82 737.005 1545.82 Q740.153 1545.82 741.982 1543.66 Q743.834 1541.49 743.834 1537.76 Q743.834 1534.01 741.982 1531.86 Q740.153 1529.7 737.005 1529.7 M746.287 1515.05 L746.287 1519.31 Q744.528 1518.48 742.723 1518.04 Q740.94 1517.6 739.181 1517.6 Q734.551 1517.6 732.098 1520.72 Q729.667 1523.85 729.32 1530.17 Q730.686 1528.15 732.746 1527.09 Q734.806 1526 737.283 1526 Q742.491 1526 745.5 1529.17 Q748.533 1532.32 748.533 1537.76 Q748.533 1543.08 745.385 1546.3 Q742.236 1549.52 737.005 1549.52 Q731.01 1549.52 727.838 1544.94 Q724.667 1540.33 724.667 1531.6 Q724.667 1523.41 728.556 1518.55 Q732.445 1513.66 738.996 1513.66 Q740.755 1513.66 742.537 1514.01 Q744.343 1514.36 746.287 1515.05 Z" fill="#000000" fill-rule="evenodd" fill-opacity="1" /><path clip-path="url(#clip860)" d="M753.834 1533.96 L766.31 1533.96 L766.31 1537.76 L753.834 1537.76 L753.834 1533.96 Z" fill="#000000" fill-rule="evenodd" fill-opacity="1" /><path clip-path="url(#clip860)" d="M783.695 1517.37 Q780.084 1517.37 778.255 1520.93 Q776.449 1524.47 776.449 1531.6 Q776.449 1538.71 778.255 1542.27 Q780.084 1545.82 783.695 1545.82 Q787.329 1545.82 789.134 1542.27 Q790.963 1538.71 790.963 1531.6 Q790.963 1524.47 789.134 1520.93 Q787.329 1517.37 783.695 1517.37 M783.695 1513.66 Q789.505 1513.66 792.56 1518.27 Q795.639 1522.85 795.639 1531.6 Q795.639 1540.33 792.56 1544.94 Q789.505 1549.52 783.695 1549.52 Q777.884 1549.52 774.806 1544.94 Q771.75 1540.33 771.75 1531.6 Q771.75 1522.85 774.806 1518.27 Q777.884 1513.66 783.695 1513.66 Z" fill="#000000" fill-rule="evenodd" fill-opacity="1" /><path clip-path="url(#clip860)" d="M804.667 1544.91 L812.306 1544.91 L812.306 1518.55 L803.995 1520.21 L803.995 1515.95 L812.259 1514.29 L816.935 1514.29 L816.935 1544.91 L824.574 1544.91 L824.574 1548.85 L804.667 1548.85 L804.667 1544.91 Z" fill="#000000" fill-rule="evenodd" fill-opacity="1" /><path clip-path="url(#clip860)" d="M831.264 1533.96 L843.741 1533.96 L843.741 1537.76 L831.264 1537.76 L831.264 1533.96 Z" fill="#000000" fill-rule="evenodd" fill-opacity="1" /><path clip-path="url(#clip860)" d="M861.125 1517.37 Q857.514 1517.37 855.685 1520.93 Q853.879 1524.47 853.879 1531.6 Q853.879 1538.71 855.685 1542.27 Q857.514 1545.82 861.125 1545.82 Q864.759 1545.82 866.565 1542.27 Q868.393 1538.71 868.393 1531.6 Q868.393 1524.47 866.565 1520.93 Q864.759 1517.37 861.125 1517.37 M861.125 1513.66 Q866.935 1513.66 869.99 1518.27 Q873.069 1522.85 873.069 1531.6 Q873.069 1540.33 869.99 1544.94 Q866.935 1549.52 861.125 1549.52 Q855.315 1549.52 852.236 1544.94 Q849.18 1540.33 849.18 1531.6 Q849.18 1522.85 852.236 1518.27 Q855.315 1513.66 861.125 1513.66 Z" fill="#000000" fill-rule="evenodd" fill-opacity="1" /><path clip-path="url(#clip860)" d="M882.097 1544.91 L889.736 1544.91 L889.736 1518.55 L881.426 1520.21 L881.426 1515.95 L889.689 1514.29 L894.365 1514.29 L894.365 1544.91 L902.004 1544.91 L902.004 1548.85 L882.097 1548.85 L882.097 1544.91 Z" fill="#000000" fill-rule="evenodd" fill-opacity="1" /><path clip-path="url(#clip860)" d="M1227.09 1544.91 L1243.41 1544.91 L1243.41 1548.85 L1221.46 1548.85 L1221.46 1544.91 Q1224.12 1542.16 1228.71 1537.53 Q1233.31 1532.88 1234.49 1531.53 Q1236.74 1529.01 1237.62 1527.27 Q1238.52 1525.51 1238.52 1523.82 Q1238.52 1521.07 1236.58 1519.33 Q1234.66 1517.6 1231.55 1517.6 Q1229.36 1517.6 1226.9 1518.36 Q1224.47 1519.13 1221.69 1520.68 L1221.69 1515.95 Q1224.52 1514.82 1226.97 1514.24 Q1229.42 1513.66 1231.46 1513.66 Q1236.83 1513.66 1240.03 1516.35 Q1243.22 1519.03 1243.22 1523.52 Q1243.22 1525.65 1242.41 1527.57 Q1241.62 1529.47 1239.52 1532.07 Q1238.94 1532.74 1235.84 1535.95 Q1232.73 1539.15 1227.09 1544.91 Z" fill="#000000" fill-rule="evenodd" fill-opacity="1" /><path clip-path="url(#clip860)" d="M1263.22 1517.37 Q1259.61 1517.37 1257.78 1520.93 Q1255.98 1524.47 1255.98 1531.6 Q1255.98 1538.71 1257.78 1542.27 Q1259.61 1545.82 1263.22 1545.82 Q1266.85 1545.82 1268.66 1542.27 Q1270.49 1538.71 1270.49 1531.6 Q1270.49 1524.47 1268.66 1520.93 Q1266.85 1517.37 1263.22 1517.37 M1263.22 1513.66 Q1269.03 1513.66 1272.09 1518.27 Q1275.17 1522.85 1275.17 1531.6 Q1275.17 1540.33 1272.09 1544.94 Q1269.03 1549.52 1263.22 1549.52 Q1257.41 1549.52 1254.33 1544.94 Q1251.28 1540.33 1251.28 1531.6 Q1251.28 1522.85 1254.33 1518.27 Q1257.41 1513.66 1263.22 1513.66 Z" fill="#000000" fill-rule="evenodd" fill-opacity="1" /><path clip-path="url(#clip860)" d="M1284.19 1544.91 L1291.83 1544.91 L1291.83 1518.55 L1283.52 1520.21 L1283.52 1515.95 L1291.79 1514.29 L1296.46 1514.29 L1296.46 1544.91 L1304.1 1544.91 L1304.1 1548.85 L1284.19 1548.85 L1284.19 1544.91 Z" fill="#000000" fill-rule="evenodd" fill-opacity="1" /><path clip-path="url(#clip860)" d="M1314.35 1544.91 L1321.99 1544.91 L1321.99 1518.55 L1313.68 1520.21 L1313.68 1515.95 L1321.95 1514.29 L1326.62 1514.29 L1326.62 1544.91 L1334.26 1544.91 L1334.26 1548.85 L1314.35 1548.85 L1314.35 1544.91 Z" fill="#000000" fill-rule="evenodd" fill-opacity="1" /><path clip-path="url(#clip860)" d="M1340.95 1533.96 L1353.43 1533.96 L1353.43 1537.76 L1340.95 1537.76 L1340.95 1533.96 Z" fill="#000000" fill-rule="evenodd" fill-opacity="1" /><path clip-path="url(#clip860)" d="M1370.81 1517.37 Q1367.2 1517.37 1365.37 1520.93 Q1363.57 1524.47 1363.57 1531.6 Q1363.57 1538.71 1365.37 1542.27 Q1367.2 1545.82 1370.81 1545.82 Q1374.45 1545.82 1376.25 1542.27 Q1378.08 1538.71 1378.08 1531.6 Q1378.08 1524.47 1376.25 1520.93 Q1374.45 1517.37 1370.81 1517.37 M1370.81 1513.66 Q1376.62 1513.66 1379.68 1518.27 Q1382.76 1522.85 1382.76 1531.6 Q1382.76 1540.33 1379.68 1544.94 Q1376.62 1549.52 1370.81 1549.52 Q1365 1549.52 1361.92 1544.94 Q1358.87 1540.33 1358.87 1531.6 Q1358.87 1522.85 1361.92 1518.27 Q1365 1513.66 1370.81 1513.66 Z" fill="#000000" fill-rule="evenodd" fill-opacity="1" /><path clip-path="url(#clip860)" d="M1391.78 1544.91 L1399.42 1544.91 L1399.42 1518.55 L1391.11 1520.21 L1391.11 1515.95 L1399.38 1514.29 L1404.05 1514.29 L1404.05 1544.91 L1411.69 1544.91 L1411.69 1548.85 L1391.78 1548.85 L1391.78 1544.91 Z" fill="#000000" fill-rule="evenodd" fill-opacity="1" /><path clip-path="url(#clip860)" d="M1418.38 1533.96 L1430.86 1533.96 L1430.86 1537.76 L1418.38 1537.76 L1418.38 1533.96 Z" fill="#000000" fill-rule="evenodd" fill-opacity="1" /><path clip-path="url(#clip860)" d="M1448.24 1517.37 Q1444.63 1517.37 1442.8 1520.93 Q1441 1524.47 1441 1531.6 Q1441 1538.71 1442.8 1542.27 Q1444.63 1545.82 1448.24 1545.82 Q1451.88 1545.82 1453.68 1542.27 Q1455.51 1538.71 1455.51 1531.6 Q1455.51 1524.47 1453.68 1520.93 Q1451.88 1517.37 1448.24 1517.37 M1448.24 1513.66 Q1454.05 1513.66 1457.11 1518.27 Q1460.19 1522.85 1460.19 1531.6 Q1460.19 1540.33 1457.11 1544.94 Q1454.05 1549.52 1448.24 1549.52 Q1442.43 1549.52 1439.35 1544.94 Q1436.3 1540.33 1436.3 1531.6 Q1436.3 1522.85 1439.35 1518.27 Q1442.43 1513.66 1448.24 1513.66 Z" fill="#000000" fill-rule="evenodd" fill-opacity="1" /><path clip-path="url(#clip860)" d="M1469.21 1544.91 L1476.85 1544.91 L1476.85 1518.55 L1468.54 1520.21 L1468.54 1515.95 L1476.81 1514.29 L1481.48 1514.29 L1481.48 1544.91 L1489.12 1544.91 L1489.12 1548.85 L1469.21 1548.85 L1469.21 1544.91 Z" fill="#000000" fill-rule="evenodd" fill-opacity="1" /><path clip-path="url(#clip860)" d="M1814.2 1544.91 L1830.52 1544.91 L1830.52 1548.85 L1808.58 1548.85 L1808.58 1544.91 Q1811.24 1542.16 1815.82 1537.53 Q1820.43 1532.88 1821.61 1531.53 Q1823.86 1529.01 1824.74 1527.27 Q1825.64 1525.51 1825.64 1523.82 Q1825.64 1521.07 1823.7 1519.33 Q1821.77 1517.6 1818.67 1517.6 Q1816.47 1517.6 1814.02 1518.36 Q1811.59 1519.13 1808.81 1520.68 L1808.81 1515.95 Q1811.64 1514.82 1814.09 1514.24 Q1816.54 1513.66 1818.58 1513.66 Q1823.95 1513.66 1827.14 1516.35 Q1830.34 1519.03 1830.34 1523.52 Q1830.34 1525.65 1829.53 1527.57 Q1828.74 1529.47 1826.64 1532.07 Q1826.06 1532.74 1822.95 1535.95 Q1819.85 1539.15 1814.2 1544.91 Z" fill="#000000" fill-rule="evenodd" fill-opacity="1" /><path clip-path="url(#clip860)" d="M1850.34 1517.37 Q1846.73 1517.37 1844.9 1520.93 Q1843.09 1524.47 1843.09 1531.6 Q1843.09 1538.71 1844.9 1542.27 Q1846.73 1545.82 1850.34 1545.82 Q1853.97 1545.82 1855.78 1542.27 Q1857.61 1538.71 1857.61 1531.6 Q1857.61 1524.47 1855.78 1520.93 Q1853.97 1517.37 1850.34 1517.37 M1850.34 1513.66 Q1856.15 1513.66 1859.2 1518.27 Q1862.28 1522.85 1862.28 1531.6 Q1862.28 1540.33 1859.2 1544.94 Q1856.15 1549.52 1850.34 1549.52 Q1844.53 1549.52 1841.45 1544.94 Q1838.39 1540.33 1838.39 1531.6 Q1838.39 1522.85 1841.45 1518.27 Q1844.53 1513.66 1850.34 1513.66 Z" fill="#000000" fill-rule="evenodd" fill-opacity="1" /><path clip-path="url(#clip860)" d="M1871.31 1544.91 L1878.95 1544.91 L1878.95 1518.55 L1870.64 1520.21 L1870.64 1515.95 L1878.9 1514.29 L1883.58 1514.29 L1883.58 1544.91 L1891.22 1544.91 L1891.22 1548.85 L1871.31 1548.85 L1871.31 1544.91 Z" fill="#000000" fill-rule="evenodd" fill-opacity="1" /><path clip-path="url(#clip860)" d="M1911.24 1529.7 Q1908.09 1529.7 1906.24 1531.86 Q1904.41 1534.01 1904.41 1537.76 Q1904.41 1541.49 1906.24 1543.66 Q1908.09 1545.82 1911.24 1545.82 Q1914.39 1545.82 1916.22 1543.66 Q1918.07 1541.49 1918.07 1537.76 Q1918.07 1534.01 1916.22 1531.86 Q1914.39 1529.7 1911.24 1529.7 M1920.52 1515.05 L1920.52 1519.31 Q1918.76 1518.48 1916.96 1518.04 Q1915.18 1517.6 1913.42 1517.6 Q1908.79 1517.6 1906.33 1520.72 Q1903.9 1523.85 1903.56 1530.17 Q1904.92 1528.15 1906.98 1527.09 Q1909.04 1526 1911.52 1526 Q1916.73 1526 1919.74 1529.17 Q1922.77 1532.32 1922.77 1537.76 Q1922.77 1543.08 1919.62 1546.3 Q1916.47 1549.52 1911.24 1549.52 Q1905.25 1549.52 1902.07 1544.94 Q1898.9 1540.33 1898.9 1531.6 Q1898.9 1523.41 1902.79 1518.55 Q1906.68 1513.66 1913.23 1513.66 Q1914.99 1513.66 1916.77 1514.01 Q1918.58 1514.36 1920.52 1515.05 Z" fill="#000000" fill-rule="evenodd" fill-opacity="1" /><path clip-path="url(#clip860)" d="M1928.07 1533.96 L1940.55 1533.96 L1940.55 1537.76 L1928.07 1537.76 L1928.07 1533.96 Z" fill="#000000" fill-rule="evenodd" fill-opacity="1" /><path clip-path="url(#clip860)" d="M1957.93 1517.37 Q1954.32 1517.37 1952.49 1520.93 Q1950.69 1524.47 1950.69 1531.6 Q1950.69 1538.71 1952.49 1542.27 Q1954.32 1545.82 1957.93 1545.82 Q1961.56 1545.82 1963.37 1542.27 Q1965.2 1538.71 1965.2 1531.6 Q1965.2 1524.47 1963.37 1520.93 Q1961.56 1517.37 1957.93 1517.37 M1957.93 1513.66 Q1963.74 1513.66 1966.8 1518.27 Q1969.88 1522.85 1969.88 1531.6 Q1969.88 1540.33 1966.8 1544.94 Q1963.74 1549.52 1957.93 1549.52 Q1952.12 1549.52 1949.04 1544.94 Q1945.99 1540.33 1945.99 1531.6 Q1945.99 1522.85 1949.04 1518.27 Q1952.12 1513.66 1957.93 1513.66 Z" fill="#000000" fill-rule="evenodd" fill-opacity="1" /><path clip-path="url(#clip860)" d="M1978.9 1544.91 L1986.54 1544.91 L1986.54 1518.55 L1978.23 1520.21 L1978.23 1515.95 L1986.5 1514.29 L1991.17 1514.29 L1991.17 1544.91 L1998.81 1544.91 L1998.81 1548.85 L1978.9 1548.85 L1978.9 1544.91 Z" fill="#000000" fill-rule="evenodd" fill-opacity="1" /><path clip-path="url(#clip860)" d="M2005.5 1533.96 L2017.98 1533.96 L2017.98 1537.76 L2005.5 1537.76 L2005.5 1533.96 Z" fill="#000000" fill-rule="evenodd" fill-opacity="1" /><path clip-path="url(#clip860)" d="M2035.36 1517.37 Q2031.75 1517.37 2029.92 1520.93 Q2028.12 1524.47 2028.12 1531.6 Q2028.12 1538.71 2029.92 1542.27 Q2031.75 1545.82 2035.36 1545.82 Q2039 1545.82 2040.8 1542.27 Q2042.63 1538.71 2042.63 1531.6 Q2042.63 1524.47 2040.8 1520.93 Q2039 1517.37 2035.36 1517.37 M2035.36 1513.66 Q2041.17 1513.66 2044.23 1518.27 Q2047.31 1522.85 2047.31 1531.6 Q2047.31 1540.33 2044.23 1544.94 Q2041.17 1549.52 2035.36 1549.52 Q2029.55 1549.52 2026.47 1544.94 Q2023.42 1540.33 2023.42 1531.6 Q2023.42 1522.85 2026.47 1518.27 Q2029.55 1513.66 2035.36 1513.66 Z" fill="#000000" fill-rule="evenodd" fill-opacity="1" /><path clip-path="url(#clip860)" d="M2056.33 1544.91 L2063.97 1544.91 L2063.97 1518.55 L2055.66 1520.21 L2055.66 1515.95 L2063.93 1514.29 L2068.6 1514.29 L2068.6 1544.91 L2076.24 1544.91 L2076.24 1548.85 L2056.33 1548.85 L2056.33 1544.91 Z" fill="#000000" fill-rule="evenodd" fill-opacity="1" /><polyline clip-path="url(#clip862)" style="stroke:#000000; stroke-linecap:butt; stroke-linejoin:round; stroke-width:2; stroke-opacity:0.1; fill:none" points="
  112.177,1447.87 2352.76,1447.87 
  "/>
<polyline clip-path="url(#clip862)" style="stroke:#000000; stroke-linecap:butt; stroke-linejoin:round; stroke-width:2; stroke-opacity:0.1; fill:none" points="
  112.177,1218.8 2352.76,1218.8 
  "/>
<polyline clip-path="url(#clip862)" style="stroke:#000000; stroke-linecap:butt; stroke-linejoin:round; stroke-width:2; stroke-opacity:0.1; fill:none" points="
  112.177,989.723 2352.76,989.723 
  "/>
<polyline clip-path="url(#clip862)" style="stroke:#000000; stroke-linecap:butt; stroke-linejoin:round; stroke-width:2; stroke-opacity:0.1; fill:none" points="
  112.177,760.649 2352.76,760.649 
  "/>
<polyline clip-path="url(#clip862)" style="stroke:#000000; stroke-linecap:butt; stroke-linejoin:round; stroke-width:2; stroke-opacity:0.1; fill:none" points="
  112.177,531.574 2352.76,531.574 
  "/>
<polyline clip-path="url(#clip862)" style="stroke:#000000; stroke-linecap:butt; stroke-linejoin:round; stroke-width:2; stroke-opacity:0.1; fill:none" points="
  112.177,302.499 2352.76,302.499 
  "/>
<polyline clip-path="url(#clip860)" style="stroke:#000000; stroke-linecap:butt; stroke-linejoin:round; stroke-width:4; stroke-opacity:1; fill:none" points="
  112.177,1486.45 112.177,123.472 
  "/>
<polyline clip-path="url(#clip860)" style="stroke:#000000; stroke-linecap:butt; stroke-linejoin:round; stroke-width:4; stroke-opacity:1; fill:none" points="
  112.177,1447.87 131.075,1447.87 
  "/>
<polyline clip-path="url(#clip860)" style="stroke:#000000; stroke-linecap:butt; stroke-linejoin:round; stroke-width:4; stroke-opacity:1; fill:none" points="
  112.177,1218.8 131.075,1218.8 
  "/>
<polyline clip-path="url(#clip860)" style="stroke:#000000; stroke-linecap:butt; stroke-linejoin:round; stroke-width:4; stroke-opacity:1; fill:none" points="
  112.177,989.723 131.075,989.723 
  "/>
<polyline clip-path="url(#clip860)" style="stroke:#000000; stroke-linecap:butt; stroke-linejoin:round; stroke-width:4; stroke-opacity:1; fill:none" points="
  112.177,760.649 131.075,760.649 
  "/>
<polyline clip-path="url(#clip860)" style="stroke:#000000; stroke-linecap:butt; stroke-linejoin:round; stroke-width:4; stroke-opacity:1; fill:none" points="
  112.177,531.574 131.075,531.574 
  "/>
<polyline clip-path="url(#clip860)" style="stroke:#000000; stroke-linecap:butt; stroke-linejoin:round; stroke-width:4; stroke-opacity:1; fill:none" points="
  112.177,302.499 131.075,302.499 
  "/>
<path clip-path="url(#clip860)" d="M64.2328 1433.67 Q60.6217 1433.67 58.793 1437.24 Q56.9875 1440.78 56.9875 1447.91 Q56.9875 1455.01 58.793 1458.58 Q60.6217 1462.12 64.2328 1462.12 Q67.867 1462.12 69.6726 1458.58 Q71.5013 1455.01 71.5013 1447.91 Q71.5013 1440.78 69.6726 1437.24 Q67.867 1433.67 64.2328 1433.67 M64.2328 1429.97 Q70.0429 1429.97 73.0985 1434.57 Q76.1772 1439.16 76.1772 1447.91 Q76.1772 1456.63 73.0985 1461.24 Q70.0429 1465.82 64.2328 1465.82 Q58.4226 1465.82 55.344 1461.24 Q52.2884 1456.63 52.2884 1447.91 Q52.2884 1439.16 55.344 1434.57 Q58.4226 1429.97 64.2328 1429.97 Z" fill="#000000" fill-rule="evenodd" fill-opacity="1" /><path clip-path="url(#clip860)" d="M56.2699 1232.14 L63.9087 1232.14 L63.9087 1205.78 L55.5986 1207.44 L55.5986 1203.18 L63.8624 1201.52 L68.5383 1201.52 L68.5383 1232.14 L76.1772 1232.14 L76.1772 1236.08 L56.2699 1236.08 L56.2699 1232.14 Z" fill="#000000" fill-rule="evenodd" fill-opacity="1" /><path clip-path="url(#clip860)" d="M59.8578 1003.07 L76.1772 1003.07 L76.1772 1007 L54.2328 1007 L54.2328 1003.07 Q56.8949 1000.31 61.4782 995.684 Q66.0846 991.031 67.2652 989.689 Q69.5105 987.166 70.3902 985.43 Q71.2929 983.67 71.2929 981.98 Q71.2929 979.226 69.3485 977.49 Q67.4272 975.754 64.3254 975.754 Q62.1263 975.754 59.6726 976.518 Q57.2421 977.281 54.4643 978.832 L54.4643 974.11 Q57.2884 972.976 59.7421 972.397 Q62.1958 971.818 64.2328 971.818 Q69.6031 971.818 72.7976 974.504 Q75.992 977.189 75.992 981.68 Q75.992 983.809 75.1818 985.73 Q74.3948 987.629 72.2883 990.221 Q71.7096 990.892 68.6078 994.11 Q65.5059 997.304 59.8578 1003.07 Z" fill="#000000" fill-rule="evenodd" fill-opacity="1" /><path clip-path="url(#clip860)" d="M69.0476 759.295 Q72.404 760.012 74.279 762.281 Q76.1772 764.549 76.1772 767.882 Q76.1772 772.998 72.6587 775.799 Q69.1402 778.6 62.6587 778.6 Q60.4828 778.6 58.168 778.16 Q55.8764 777.744 53.4227 776.887 L53.4227 772.373 Q55.3671 773.507 57.6819 774.086 Q59.9967 774.665 62.5198 774.665 Q66.918 774.665 69.2096 772.929 Q71.5244 771.193 71.5244 767.882 Q71.5244 764.827 69.3717 763.114 Q67.242 761.378 63.4226 761.378 L59.3949 761.378 L59.3949 757.535 L63.6078 757.535 Q67.0569 757.535 68.8855 756.17 Q70.7142 754.781 70.7142 752.188 Q70.7142 749.526 68.8161 748.114 Q66.9411 746.679 63.4226 746.679 Q61.5013 746.679 59.3023 747.096 Q57.1032 747.512 54.4643 748.392 L54.4643 744.225 Q57.1264 743.484 59.4412 743.114 Q61.7791 742.744 63.8393 742.744 Q69.1633 742.744 72.2652 745.174 Q75.367 747.582 75.367 751.702 Q75.367 754.572 73.7235 756.563 Q72.08 758.531 69.0476 759.295 Z" fill="#000000" fill-rule="evenodd" fill-opacity="1" /><path clip-path="url(#clip860)" d="M66.5939 518.368 L54.7884 536.817 L66.5939 536.817 L66.5939 518.368 M65.367 514.294 L71.2466 514.294 L71.2466 536.817 L76.1772 536.817 L76.1772 540.706 L71.2466 540.706 L71.2466 548.854 L66.5939 548.854 L66.5939 540.706 L50.9921 540.706 L50.9921 536.192 L65.367 514.294 Z" fill="#000000" fill-rule="evenodd" fill-opacity="1" /><path clip-path="url(#clip860)" d="M55.2745 285.219 L73.6309 285.219 L73.6309 289.154 L59.5569 289.154 L59.5569 297.626 Q60.5754 297.279 61.5939 297.117 Q62.6124 296.932 63.6309 296.932 Q69.418 296.932 72.7976 300.103 Q76.1772 303.275 76.1772 308.691 Q76.1772 314.27 72.705 317.372 Q69.2328 320.45 62.9134 320.45 Q60.7374 320.45 58.4689 320.08 Q56.2236 319.71 53.8162 318.969 L53.8162 314.27 Q55.8995 315.404 58.1217 315.96 Q60.3439 316.515 62.8208 316.515 Q66.8254 316.515 69.1633 314.409 Q71.5013 312.302 71.5013 308.691 Q71.5013 305.08 69.1633 302.974 Q66.8254 300.867 62.8208 300.867 Q60.9458 300.867 59.0708 301.284 Q57.2189 301.701 55.2745 302.58 L55.2745 285.219 Z" fill="#000000" fill-rule="evenodd" fill-opacity="1" /><path clip-path="url(#clip860)" d="M639.191 9.54393 L646.645 9.54393 L646.645 72.576 L639.191 72.576 L639.191 9.54393 Z" fill="#000000" fill-rule="evenodd" fill-opacity="1" /><path clip-path="url(#clip860)" d="M679.822 32.4315 Q673.827 32.4315 670.343 37.1306 Q666.859 41.7891 666.859 49.9314 Q666.859 58.0738 670.302 62.7728 Q673.786 67.4314 679.822 67.4314 Q685.777 67.4314 689.261 62.7323 Q692.744 58.0333 692.744 49.9314 Q692.744 41.8701 689.261 37.1711 Q685.777 32.4315 679.822 32.4315 M679.822 26.1121 Q689.544 26.1121 695.094 32.4315 Q700.644 38.7509 700.644 49.9314 Q700.644 61.0714 695.094 67.4314 Q689.544 73.7508 679.822 73.7508 Q670.059 73.7508 664.51 67.4314 Q659 61.0714 659 49.9314 Q659 38.7509 664.51 32.4315 Q670.059 26.1121 679.822 26.1121 Z" fill="#000000" fill-rule="evenodd" fill-opacity="1" /><path clip-path="url(#clip860)" d="M742.854 49.3643 Q742.854 41.2625 739.492 36.8065 Q736.17 32.3505 730.134 32.3505 Q724.139 32.3505 720.777 36.8065 Q717.455 41.2625 717.455 49.3643 Q717.455 57.4256 720.777 61.8816 Q724.139 66.3376 730.134 66.3376 Q736.17 66.3376 739.492 61.8816 Q742.854 57.4256 742.854 49.3643 M750.308 66.9452 Q750.308 78.5308 745.163 84.1616 Q740.018 89.8329 729.405 89.8329 Q725.476 89.8329 721.992 89.2252 Q718.508 88.6581 715.227 87.4428 L715.227 80.1917 Q718.508 81.9741 721.708 82.8248 Q724.908 83.6755 728.23 83.6755 Q735.562 83.6755 739.208 79.8271 Q742.854 76.0193 742.854 68.282 L742.854 64.5957 Q740.545 68.6061 736.94 70.5911 Q733.334 72.576 728.311 72.576 Q719.966 72.576 714.862 66.2161 Q709.758 59.8562 709.758 49.3643 Q709.758 38.832 714.862 32.472 Q719.966 26.1121 728.311 26.1121 Q733.334 26.1121 736.94 28.0971 Q740.545 30.082 742.854 34.0924 L742.854 27.2059 L750.308 27.2059 L750.308 66.9452 Z" fill="#000000" fill-rule="evenodd" fill-opacity="1" /><path clip-path="url(#clip860)" d="M783.566 9.62495 Q778.137 18.942 775.504 28.0566 Q772.871 37.1711 772.871 46.5287 Q772.871 55.8863 775.504 65.0818 Q778.178 74.2369 783.566 83.5134 L777.084 83.5134 Q771.008 73.9938 767.97 64.7983 Q764.972 55.6027 764.972 46.5287 Q764.972 37.4952 767.97 28.3401 Q770.967 19.1851 777.084 9.62495 L783.566 9.62495 Z" fill="#000000" fill-rule="evenodd" fill-opacity="1" /><path clip-path="url(#clip860)" d="M843.64 16.7545 L843.64 25.383 Q839.509 21.5346 834.81 19.6307 Q830.151 17.7268 824.885 17.7268 Q814.514 17.7268 809.005 24.0867 Q803.496 30.4061 803.496 42.3968 Q803.496 54.3469 809.005 60.7069 Q814.514 67.0263 824.885 67.0263 Q830.151 67.0263 834.81 65.1223 Q839.509 63.2184 843.64 59.3701 L843.64 67.9175 Q839.347 70.8341 834.526 72.2924 Q829.746 73.7508 824.399 73.7508 Q810.666 73.7508 802.767 65.3654 Q794.868 56.9395 794.868 42.3968 Q794.868 27.8135 802.767 19.4281 Q810.666 11.0023 824.399 11.0023 Q829.827 11.0023 834.607 12.4606 Q839.428 13.8784 843.64 16.7545 Z" fill="#000000" fill-rule="evenodd" fill-opacity="1" /><path clip-path="url(#clip860)" d="M855.186 54.671 L855.186 27.2059 L862.639 27.2059 L862.639 54.3874 Q862.639 60.8284 865.151 64.0691 Q867.662 67.2693 872.685 67.2693 Q878.721 67.2693 882.205 63.421 Q885.729 59.5726 885.729 52.9291 L885.729 27.2059 L893.183 27.2059 L893.183 72.576 L885.729 72.576 L885.729 65.6084 Q883.015 69.7404 879.41 71.7658 Q875.845 73.7508 871.106 73.7508 Q863.287 73.7508 859.236 68.8897 Q855.186 64.0286 855.186 54.671 M873.941 26.1121 L873.941 26.1121 Z" fill="#000000" fill-rule="evenodd" fill-opacity="1" /><path clip-path="url(#clip860)" d="M943.86 35.9153 Q946.655 30.8922 950.544 28.5022 Q954.433 26.1121 959.699 26.1121 Q966.788 26.1121 970.636 31.0947 Q974.485 36.0368 974.485 45.1919 L974.485 72.576 L966.991 72.576 L966.991 45.4349 Q966.991 38.913 964.682 35.7533 Q962.373 32.5936 957.633 32.5936 Q951.84 32.5936 948.478 36.4419 Q945.116 40.2903 945.116 46.9338 L945.116 72.576 L937.621 72.576 L937.621 45.4349 Q937.621 38.8725 935.312 35.7533 Q933.003 32.5936 928.183 32.5936 Q922.471 32.5936 919.109 36.4824 Q915.747 40.3308 915.747 46.9338 L915.747 72.576 L908.252 72.576 L908.252 27.2059 L915.747 27.2059 L915.747 34.2544 Q918.299 30.082 921.863 28.0971 Q925.428 26.1121 930.33 26.1121 Q935.272 26.1121 938.715 28.6237 Q942.199 31.1352 943.86 35.9153 Z" fill="#000000" fill-rule="evenodd" fill-opacity="1" /><path clip-path="url(#clip860)" d="M988.582 54.671 L988.582 27.2059 L996.036 27.2059 L996.036 54.3874 Q996.036 60.8284 998.547 64.0691 Q1001.06 67.2693 1006.08 67.2693 Q1012.12 67.2693 1015.6 63.421 Q1019.13 59.5726 1019.13 52.9291 L1019.13 27.2059 L1026.58 27.2059 L1026.58 72.576 L1019.13 72.576 L1019.13 65.6084 Q1016.41 69.7404 1012.81 71.7658 Q1009.24 73.7508 1004.5 73.7508 Q996.684 73.7508 992.633 68.8897 Q988.582 64.0286 988.582 54.671 M1007.34 26.1121 L1007.34 26.1121 Z" fill="#000000" fill-rule="evenodd" fill-opacity="1" /><path clip-path="url(#clip860)" d="M1041.93 9.54393 L1049.39 9.54393 L1049.39 72.576 L1041.93 72.576 L1041.93 9.54393 Z" fill="#000000" fill-rule="evenodd" fill-opacity="1" /><path clip-path="url(#clip860)" d="M1085.6 49.7694 Q1076.57 49.7694 1073.08 51.8354 Q1069.6 53.9013 1069.6 58.8839 Q1069.6 62.8538 1072.19 65.2034 Q1074.83 67.5124 1079.32 67.5124 Q1085.52 67.5124 1089.25 63.1374 Q1093.01 58.7219 1093.01 51.4303 L1093.01 49.7694 L1085.6 49.7694 M1100.47 46.6907 L1100.47 72.576 L1093.01 72.576 L1093.01 65.6895 Q1090.46 69.8214 1086.65 71.8063 Q1082.85 73.7508 1077.34 73.7508 Q1070.37 73.7508 1066.24 69.8619 Q1062.15 65.9325 1062.15 59.3701 Q1062.15 51.7138 1067.25 47.825 Q1072.4 43.9361 1082.56 43.9361 L1093.01 43.9361 L1093.01 43.2069 Q1093.01 38.0623 1089.61 35.2672 Q1086.25 32.4315 1080.13 32.4315 Q1076.24 32.4315 1072.56 33.3632 Q1068.87 34.295 1065.47 36.1584 L1065.47 29.2718 Q1069.56 27.692 1073.41 26.9223 Q1077.26 26.1121 1080.9 26.1121 Q1090.75 26.1121 1095.61 31.2163 Q1100.47 36.3204 1100.47 46.6907 Z" fill="#000000" fill-rule="evenodd" fill-opacity="1" /><path clip-path="url(#clip860)" d="M1123.19 14.324 L1123.19 27.2059 L1138.55 27.2059 L1138.55 32.9987 L1123.19 32.9987 L1123.19 57.6282 Q1123.19 63.1779 1124.69 64.7578 Q1126.23 66.3376 1130.89 66.3376 L1138.55 66.3376 L1138.55 72.576 L1130.89 72.576 Q1122.26 72.576 1118.98 69.3758 Q1115.7 66.1351 1115.7 57.6282 L1115.7 32.9987 L1110.23 32.9987 L1110.23 27.2059 L1115.7 27.2059 L1115.7 14.324 L1123.19 14.324 Z" fill="#000000" fill-rule="evenodd" fill-opacity="1" /><path clip-path="url(#clip860)" d="M1148.35 27.2059 L1155.8 27.2059 L1155.8 72.576 L1148.35 72.576 L1148.35 27.2059 M1148.35 9.54393 L1155.8 9.54393 L1155.8 18.9825 L1148.35 18.9825 L1148.35 9.54393 Z" fill="#000000" fill-rule="evenodd" fill-opacity="1" /><path clip-path="url(#clip860)" d="M1166.05 27.2059 L1173.95 27.2059 L1188.13 65.2844 L1202.31 27.2059 L1210.21 27.2059 L1193.19 72.576 L1183.07 72.576 L1166.05 27.2059 Z" fill="#000000" fill-rule="evenodd" fill-opacity="1" /><path clip-path="url(#clip860)" d="M1259.3 48.0275 L1259.3 51.6733 L1225.03 51.6733 Q1225.52 59.3701 1229.65 63.421 Q1233.82 67.4314 1241.24 67.4314 Q1245.53 67.4314 1249.54 66.3781 Q1253.59 65.3249 1257.56 63.2184 L1257.56 70.267 Q1253.55 71.9684 1249.34 72.8596 Q1245.13 73.7508 1240.79 73.7508 Q1229.93 73.7508 1223.57 67.4314 Q1217.26 61.1119 1217.26 50.3365 Q1217.26 39.1965 1223.25 32.6746 Q1229.29 26.1121 1239.49 26.1121 Q1248.65 26.1121 1253.96 32.0264 Q1259.3 37.9003 1259.3 48.0275 M1251.85 45.84 Q1251.77 39.7232 1248.41 36.0774 Q1245.09 32.4315 1239.58 32.4315 Q1233.34 32.4315 1229.57 35.9558 Q1225.84 39.4801 1225.28 45.8805 L1251.85 45.84 Z" fill="#000000" fill-rule="evenodd" fill-opacity="1" /><path clip-path="url(#clip860)" d="M1298.23 12.096 L1336.47 12.096 L1336.47 18.9825 L1306.42 18.9825 L1306.42 36.8875 L1335.22 36.8875 L1335.22 43.7741 L1306.42 43.7741 L1306.42 65.6895 L1337.2 65.6895 L1337.2 72.576 L1298.23 72.576 L1298.23 12.096 Z" fill="#000000" fill-rule="evenodd" fill-opacity="1" /><path clip-path="url(#clip860)" d="M1344.98 27.2059 L1352.88 27.2059 L1367.06 65.2844 L1381.24 27.2059 L1389.14 27.2059 L1372.12 72.576 L1361.99 72.576 L1344.98 27.2059 Z" fill="#000000" fill-rule="evenodd" fill-opacity="1" /><path clip-path="url(#clip860)" d="M1438.23 48.0275 L1438.23 51.6733 L1403.96 51.6733 Q1404.45 59.3701 1408.58 63.421 Q1412.75 67.4314 1420.17 67.4314 Q1424.46 67.4314 1428.47 66.3781 Q1432.52 65.3249 1436.49 63.2184 L1436.49 70.267 Q1432.48 71.9684 1428.27 72.8596 Q1424.05 73.7508 1419.72 73.7508 Q1408.86 73.7508 1402.5 67.4314 Q1396.18 61.1119 1396.18 50.3365 Q1396.18 39.1965 1402.18 32.6746 Q1408.22 26.1121 1418.42 26.1121 Q1427.58 26.1121 1432.89 32.0264 Q1438.23 37.9003 1438.23 48.0275 M1430.78 45.84 Q1430.7 39.7232 1427.34 36.0774 Q1424.01 32.4315 1418.5 32.4315 Q1412.27 32.4315 1408.5 35.9558 Q1404.77 39.4801 1404.2 45.8805 L1430.78 45.84 Z" fill="#000000" fill-rule="evenodd" fill-opacity="1" /><path clip-path="url(#clip860)" d="M1488.18 45.1919 L1488.18 72.576 L1480.73 72.576 L1480.73 45.4349 Q1480.73 38.994 1478.21 35.7938 Q1475.7 32.5936 1470.68 32.5936 Q1464.64 32.5936 1461.16 36.4419 Q1457.68 40.2903 1457.68 46.9338 L1457.68 72.576 L1450.18 72.576 L1450.18 27.2059 L1457.68 27.2059 L1457.68 34.2544 Q1460.35 30.163 1463.96 28.1376 Q1467.6 26.1121 1472.34 26.1121 Q1480.16 26.1121 1484.17 30.9732 Q1488.18 35.7938 1488.18 45.1919 Z" fill="#000000" fill-rule="evenodd" fill-opacity="1" /><path clip-path="url(#clip860)" d="M1510.42 14.324 L1510.42 27.2059 L1525.77 27.2059 L1525.77 32.9987 L1510.42 32.9987 L1510.42 57.6282 Q1510.42 63.1779 1511.92 64.7578 Q1513.46 66.3376 1518.12 66.3376 L1525.77 66.3376 L1525.77 72.576 L1518.12 72.576 Q1509.49 72.576 1506.21 69.3758 Q1502.93 66.1351 1502.93 57.6282 L1502.93 32.9987 L1497.46 32.9987 L1497.46 27.2059 L1502.93 27.2059 L1502.93 14.324 L1510.42 14.324 Z" fill="#000000" fill-rule="evenodd" fill-opacity="1" /><path clip-path="url(#clip860)" d="M1607.56 16.7545 L1607.56 25.383 Q1603.43 21.5346 1598.73 19.6307 Q1594.07 17.7268 1588.8 17.7268 Q1578.43 17.7268 1572.92 24.0867 Q1567.42 30.4061 1567.42 42.3968 Q1567.42 54.3469 1572.92 60.7069 Q1578.43 67.0263 1588.8 67.0263 Q1594.07 67.0263 1598.73 65.1223 Q1603.43 63.2184 1607.56 59.3701 L1607.56 67.9175 Q1603.27 70.8341 1598.45 72.2924 Q1593.67 73.7508 1588.32 73.7508 Q1574.59 73.7508 1566.69 65.3654 Q1558.79 56.9395 1558.79 42.3968 Q1558.79 27.8135 1566.69 19.4281 Q1574.59 11.0023 1588.32 11.0023 Q1593.75 11.0023 1598.53 12.4606 Q1603.35 13.8784 1607.56 16.7545 Z" fill="#000000" fill-rule="evenodd" fill-opacity="1" /><path clip-path="url(#clip860)" d="M1637.46 32.4315 Q1631.46 32.4315 1627.98 37.1306 Q1624.49 41.7891 1624.49 49.9314 Q1624.49 58.0738 1627.94 62.7728 Q1631.42 67.4314 1637.46 67.4314 Q1643.41 67.4314 1646.89 62.7323 Q1650.38 58.0333 1650.38 49.9314 Q1650.38 41.8701 1646.89 37.1711 Q1643.41 32.4315 1637.46 32.4315 M1637.46 26.1121 Q1647.18 26.1121 1652.73 32.4315 Q1658.28 38.7509 1658.28 49.9314 Q1658.28 61.0714 1652.73 67.4314 Q1647.18 73.7508 1637.46 73.7508 Q1627.69 73.7508 1622.14 67.4314 Q1616.63 61.0714 1616.63 49.9314 Q1616.63 38.7509 1622.14 32.4315 Q1627.69 26.1121 1637.46 26.1121 Z" fill="#000000" fill-rule="evenodd" fill-opacity="1" /><path clip-path="url(#clip860)" d="M1669.86 54.671 L1669.86 27.2059 L1677.32 27.2059 L1677.32 54.3874 Q1677.32 60.8284 1679.83 64.0691 Q1682.34 67.2693 1687.36 67.2693 Q1693.4 67.2693 1696.88 63.421 Q1700.41 59.5726 1700.41 52.9291 L1700.41 27.2059 L1707.86 27.2059 L1707.86 72.576 L1700.41 72.576 L1700.41 65.6084 Q1697.69 69.7404 1694.09 71.7658 Q1690.52 73.7508 1685.78 73.7508 Q1677.96 73.7508 1673.91 68.8897 Q1669.86 64.0286 1669.86 54.671 M1688.62 26.1121 L1688.62 26.1121 Z" fill="#000000" fill-rule="evenodd" fill-opacity="1" /><path clip-path="url(#clip860)" d="M1760.93 45.1919 L1760.93 72.576 L1753.47 72.576 L1753.47 45.4349 Q1753.47 38.994 1750.96 35.7938 Q1748.45 32.5936 1743.43 32.5936 Q1737.39 32.5936 1733.91 36.4419 Q1730.42 40.2903 1730.42 46.9338 L1730.42 72.576 L1722.93 72.576 L1722.93 27.2059 L1730.42 27.2059 L1730.42 34.2544 Q1733.1 30.163 1736.7 28.1376 Q1740.35 26.1121 1745.09 26.1121 Q1752.91 26.1121 1756.92 30.9732 Q1760.93 35.7938 1760.93 45.1919 Z" fill="#000000" fill-rule="evenodd" fill-opacity="1" /><path clip-path="url(#clip860)" d="M1783.17 14.324 L1783.17 27.2059 L1798.52 27.2059 L1798.52 32.9987 L1783.17 32.9987 L1783.17 57.6282 Q1783.17 63.1779 1784.67 64.7578 Q1786.2 66.3376 1790.86 66.3376 L1798.52 66.3376 L1798.52 72.576 L1790.86 72.576 Q1782.24 72.576 1778.95 69.3758 Q1775.67 66.1351 1775.67 57.6282 L1775.67 32.9987 L1770.2 32.9987 L1770.2 27.2059 L1775.67 27.2059 L1775.67 14.324 L1783.17 14.324 Z" fill="#000000" fill-rule="evenodd" fill-opacity="1" /><path clip-path="url(#clip860)" d="M1807.15 9.62495 L1813.63 9.62495 Q1819.71 19.1851 1822.7 28.3401 Q1825.74 37.4952 1825.74 46.5287 Q1825.74 55.6027 1822.7 64.7983 Q1819.71 73.9938 1813.63 83.5134 L1807.15 83.5134 Q1812.54 74.2369 1815.17 65.0818 Q1817.84 55.8863 1817.84 46.5287 Q1817.84 37.1711 1815.17 28.0566 Q1812.54 18.942 1807.15 9.62495 Z" fill="#000000" fill-rule="evenodd" fill-opacity="1" /><polyline clip-path="url(#clip862)" style="stroke:#009af9; stroke-linecap:butt; stroke-linejoin:round; stroke-width:4; stroke-opacity:1; fill:none" points="
  175.59,1447.87 185.557,1289.09 195.525,1196.21 204.528,1079.19 214.495,1037.43 292.949,1002.11 302.917,971.525 321.887,944.544 361.114,920.409 390.695,898.576 
  430.243,878.644 449.214,860.308 458.86,843.332 478.473,785.762 488.441,761.626 508.054,750.45 518.022,739.793 547.603,729.61 596.154,719.861 635.703,701.525 
  655.316,692.88 665.284,684.549 674.286,668.744 723.481,661.233 743.094,653.96 753.062,633.432 772.675,626.979 791.646,614.594 821.227,608.643 830.873,602.844 
  840.84,591.667 850.808,586.277 860.454,575.863 900.002,565.901 909.005,561.079 918.973,551.727 928.618,547.191 958.199,538.379 977.813,521.712 997.426,513.812 
  1017.36,502.451 1026.69,498.785 1046.3,495.178 1056.27,491.626 1065.91,488.129 1085.85,484.684 1125.07,481.29 1144.05,474.65 1154.01,465.037 1163.66,461.92 
  1173.63,455.811 1183.27,452.817 1193.24,449.861 1203.21,446.943 1222.82,432.885 1232.47,430.174 1242.43,419.64 1252.4,412.045 1261.4,404.695 1271.37,402.296 
  1281.02,395.247 1290.99,392.945 1300.63,390.665 1310.6,388.408 1320.57,381.768 1330.21,373.204 1349.83,371.112 1359.79,366.984 1388.73,364.948 1427.96,360.929 
  1437.93,356.979 1447.57,353.096 1467.19,351.179 1477.15,349.278 1487.12,345.523 1496.44,341.828 1506.41,338.192 1516.06,336.395 1535.67,332.844 1545.64,327.617 
  1555.61,325.901 1565.25,322.508 1575.22,320.829 1584.87,314.237 1594.83,311.01 1613.8,309.414 1623.77,306.254 1633.42,304.691 1643.38,300.063 1663,297.029 
  1672.97,295.527 1682.61,292.552 1692.58,291.078 1702.23,288.16 1712.19,283.851 1722.16,282.433 1741.13,278.23 1750.78,275.47 1760.74,268.712 1780.36,267.384 
  1790.33,266.064 1799.97,264.751 1809.94,260.857 1829.55,257.028 1839.52,254.511 1848.52,250.786 1858.49,249.558 1868.14,247.121 1878.1,245.912 1887.75,242.323 
  1917.33,238.79 1927.3,237.624 1936.94,236.464 1956.88,233.02 1966.2,231.883 1976.17,230.752 1985.82,227.391 1995.78,226.282 2005.43,221.897 2015.4,220.814 
  2025.37,216.532 2035.01,215.474 2044.98,214.421 2064.59,212.329 2083.56,209.226 2093.53,205.154 2103.18,204.147 2113.14,198.197 2132.76,197.22 2142.72,195.278 
  2152.37,192.397 2162.34,187.673 2171.98,184.886 2181.95,183.964 2191.92,183.046 2200.92,182.131 2210.89,180.313 2220.54,175.83 2230.5,174.944 2250.12,173.182 
  2260.08,168.835 2269.73,167.119 2279.7,162.884 2289.34,162.047 
  "/>
<polyline clip-path="url(#clip862)" style="stroke:#e26f46; stroke-linecap:butt; stroke-linejoin:round; stroke-width:4; stroke-opacity:1; fill:none" points="
  185.557,1447.87 195.525,1447.87 204.528,1289.09 214.495,1196.21 292.949,1196.21 302.917,1130.31 321.887,1130.31 361.114,1079.19 390.695,1079.19 430.243,1037.43 
  449.214,1002.11 458.86,1002.11 478.473,944.544 488.441,898.576 508.054,878.644 518.022,860.308 547.603,860.308 596.154,843.332 635.703,827.527 655.316,827.527 
  665.284,827.527 674.286,812.743 723.481,798.855 743.094,785.762 753.062,773.376 772.675,761.626 791.646,750.45 821.227,739.793 830.873,729.61 840.84,719.861 
  850.808,719.861 860.454,719.861 900.002,719.861 909.005,710.51 918.973,701.525 928.618,701.525 958.199,692.88 977.813,668.744 997.426,668.744 1017.36,653.96 
  1026.69,646.911 1046.3,640.073 1056.27,633.432 1065.91,633.432 1085.85,633.432 1125.07,626.979 1144.05,626.979 1154.01,608.643 1163.66,602.844 1173.63,602.844 
  1183.27,602.844 1193.24,597.187 1203.21,591.667 1222.82,570.828 1232.47,565.901 1242.43,556.355 1252.4,547.191 1261.4,534.097 1271.37,529.894 1281.02,517.728 
  1290.99,513.812 1300.63,509.962 1310.6,506.175 1320.57,495.178 1330.21,481.29 1349.83,477.946 1359.79,471.401 1388.73,468.197 1427.96,461.92 1437.93,461.92 
  1447.57,458.845 1467.19,455.811 1477.15,455.811 1487.12,452.817 1496.44,446.943 1506.41,441.216 1516.06,438.405 1535.67,438.405 1545.64,435.628 1555.61,432.885 
  1565.25,427.494 1575.22,424.846 1584.87,419.64 1594.83,417.08 1613.8,417.08 1623.77,417.08 1633.42,417.08 1643.38,412.045 1663,412.045 1672.97,412.045 
  1682.61,409.569 1692.58,409.569 1702.23,409.569 1712.19,407.119 1722.16,404.695 1741.13,402.296 1750.78,397.573 1760.74,395.247 1780.36,395.247 1790.33,392.945 
  1799.97,390.665 1809.94,386.173 1829.55,381.768 1839.52,377.446 1848.52,371.112 1858.49,369.038 1868.14,364.948 1878.1,364.948 1887.75,362.929 1917.33,360.929 
  1927.3,360.929 1936.94,360.929 1956.88,356.979 1966.2,355.029 1976.17,355.029 1985.82,355.029 1995.78,355.029 2005.43,355.029 2015.4,355.029 2025.37,349.278 
  2035.01,347.393 2044.98,345.523 2064.59,343.668 2083.56,341.828 2093.53,334.613 2103.18,334.613 2113.14,329.346 2132.76,327.617 2142.72,325.901 2152.37,324.198 
  2162.34,320.829 2171.98,317.509 2181.95,315.867 2191.92,315.867 2200.92,315.867 2210.89,314.237 2220.54,309.414 2230.5,309.414 2250.12,306.254 2260.08,298.541 
  2269.73,297.029 2279.7,289.615 2289.34,289.615 
  "/>
<path clip-path="url(#clip860)" d="
M186.863 324.425 L819.449 324.425 L819.449 168.905 L186.863 168.905  Z
  " fill="#ffffff" fill-rule="evenodd" fill-opacity="1"/>
<polyline clip-path="url(#clip860)" style="stroke:#000000; stroke-linecap:butt; stroke-linejoin:round; stroke-width:4; stroke-opacity:1; fill:none" points="
  186.863,324.425 819.449,324.425 819.449,168.905 186.863,168.905 186.863,324.425 
  "/>
<polyline clip-path="url(#clip860)" style="stroke:#009af9; stroke-linecap:butt; stroke-linejoin:round; stroke-width:4; stroke-opacity:1; fill:none" points="
  211.758,220.745 361.13,220.745 
  "/>
<path clip-path="url(#clip860)" d="M401.859 208.071 L395.516 225.27 L408.225 225.27 L401.859 208.071 M399.22 203.465 L404.521 203.465 L417.692 238.025 L412.831 238.025 L409.683 229.159 L394.104 229.159 L390.956 238.025 L386.026 238.025 L399.22 203.465 Z" fill="#000000" fill-rule="evenodd" fill-opacity="1" /><path clip-path="url(#clip860)" d="M422.553 202.006 L426.813 202.006 L426.813 238.025 L422.553 238.025 L422.553 202.006 Z" fill="#000000" fill-rule="evenodd" fill-opacity="1" /><path clip-path="url(#clip860)" d="M435.724 202.006 L439.984 202.006 L439.984 238.025 L435.724 238.025 L435.724 202.006 Z" fill="#000000" fill-rule="evenodd" fill-opacity="1" /><path clip-path="url(#clip860)" d="M464.15 203.465 L486.002 203.465 L486.002 207.4 L468.826 207.4 L468.826 217.631 L485.284 217.631 L485.284 221.566 L468.826 221.566 L468.826 234.089 L486.419 234.089 L486.419 238.025 L464.15 238.025 L464.15 203.465 Z" fill="#000000" fill-rule="evenodd" fill-opacity="1" /><path clip-path="url(#clip860)" d="M490.863 212.099 L495.377 212.099 L503.479 233.858 L511.581 212.099 L516.094 212.099 L506.372 238.025 L500.585 238.025 L490.863 212.099 Z" fill="#000000" fill-rule="evenodd" fill-opacity="1" /><path clip-path="url(#clip860)" d="M544.15 223.997 L544.15 226.08 L524.567 226.08 Q524.844 230.478 527.205 232.793 Q529.59 235.085 533.826 235.085 Q536.28 235.085 538.571 234.483 Q540.886 233.881 543.154 232.677 L543.154 236.705 Q540.863 237.677 538.455 238.187 Q536.048 238.696 533.571 238.696 Q527.368 238.696 523.733 235.085 Q520.122 231.474 520.122 225.316 Q520.122 218.951 523.548 215.224 Q526.997 211.474 532.83 211.474 Q538.062 211.474 541.094 214.853 Q544.15 218.21 544.15 223.997 M539.891 222.747 Q539.844 219.252 537.923 217.168 Q536.025 215.085 532.877 215.085 Q529.312 215.085 527.159 217.099 Q525.03 219.113 524.706 222.77 L539.891 222.747 Z" fill="#000000" fill-rule="evenodd" fill-opacity="1" /><path clip-path="url(#clip860)" d="M572.691 222.377 L572.691 238.025 L568.432 238.025 L568.432 222.515 Q568.432 218.835 566.997 217.006 Q565.562 215.178 562.691 215.178 Q559.242 215.178 557.252 217.377 Q555.261 219.576 555.261 223.372 L555.261 238.025 L550.979 238.025 L550.979 212.099 L555.261 212.099 L555.261 216.127 Q556.789 213.789 558.849 212.631 Q560.932 211.474 563.64 211.474 Q568.108 211.474 570.4 214.252 Q572.691 217.006 572.691 222.377 Z" fill="#000000" fill-rule="evenodd" fill-opacity="1" /><path clip-path="url(#clip860)" d="M585.4 204.738 L585.4 212.099 L594.173 212.099 L594.173 215.409 L585.4 215.409 L585.4 229.483 Q585.4 232.654 586.256 233.557 Q587.136 234.46 589.798 234.46 L594.173 234.46 L594.173 238.025 L589.798 238.025 Q584.867 238.025 582.992 236.196 Q581.117 234.344 581.117 229.483 L581.117 215.409 L577.992 215.409 L577.992 212.099 L581.117 212.099 L581.117 204.738 L585.4 204.738 Z" fill="#000000" fill-rule="evenodd" fill-opacity="1" /><path clip-path="url(#clip860)" d="M616.302 212.863 L616.302 216.891 Q614.497 215.965 612.552 215.502 Q610.608 215.039 608.524 215.039 Q605.353 215.039 603.756 216.011 Q602.182 216.983 602.182 218.928 Q602.182 220.409 603.316 221.265 Q604.45 222.099 607.876 222.863 L609.335 223.187 Q613.872 224.159 615.77 225.941 Q617.691 227.701 617.691 230.872 Q617.691 234.483 614.821 236.589 Q611.974 238.696 606.974 238.696 Q604.89 238.696 602.622 238.279 Q600.376 237.886 597.876 237.076 L597.876 232.677 Q600.238 233.904 602.529 234.529 Q604.821 235.131 607.066 235.131 Q610.075 235.131 611.696 234.113 Q613.316 233.071 613.316 231.196 Q613.316 229.46 612.136 228.534 Q610.978 227.608 607.02 226.752 L605.538 226.404 Q601.58 225.571 599.821 223.858 Q598.062 222.122 598.062 219.113 Q598.062 215.455 600.654 213.465 Q603.247 211.474 608.015 211.474 Q610.376 211.474 612.46 211.821 Q614.543 212.168 616.302 212.863 Z" fill="#000000" fill-rule="evenodd" fill-opacity="1" /><polyline clip-path="url(#clip860)" style="stroke:#e26f46; stroke-linecap:butt; stroke-linejoin:round; stroke-width:4; stroke-opacity:1; fill:none" points="
  211.758,272.585 361.13,272.585 
  "/>
<path clip-path="url(#clip860)" d="M386.026 255.305 L390.702 255.305 L390.702 269.471 L407.692 269.471 L407.692 255.305 L412.368 255.305 L412.368 289.865 L407.692 289.865 L407.692 273.406 L390.702 273.406 L390.702 289.865 L386.026 289.865 L386.026 255.305 Z" fill="#000000" fill-rule="evenodd" fill-opacity="1" /><path clip-path="url(#clip860)" d="M433.271 276.832 Q428.109 276.832 426.118 278.013 Q424.127 279.193 424.127 282.041 Q424.127 284.309 425.609 285.652 Q427.113 286.971 429.683 286.971 Q433.225 286.971 435.354 284.471 Q437.507 281.948 437.507 277.781 L437.507 276.832 L433.271 276.832 M441.766 275.073 L441.766 289.865 L437.507 289.865 L437.507 285.929 Q436.049 288.291 433.873 289.425 Q431.697 290.536 428.549 290.536 Q424.567 290.536 422.206 288.314 Q419.868 286.068 419.868 282.318 Q419.868 277.943 422.785 275.721 Q425.725 273.499 431.535 273.499 L437.507 273.499 L437.507 273.082 Q437.507 270.143 435.562 268.545 Q433.641 266.925 430.146 266.925 Q427.924 266.925 425.817 267.457 Q423.711 267.99 421.766 269.055 L421.766 265.119 Q424.104 264.217 426.303 263.777 Q428.502 263.314 430.586 263.314 Q436.211 263.314 438.988 266.231 Q441.766 269.147 441.766 275.073 Z" fill="#000000" fill-rule="evenodd" fill-opacity="1" /><path clip-path="url(#clip860)" d="M472.09 274.217 L472.09 289.865 L467.831 289.865 L467.831 274.355 Q467.831 270.675 466.396 268.846 Q464.96 267.018 462.09 267.018 Q458.641 267.018 456.65 269.217 Q454.66 271.416 454.66 275.212 L454.66 289.865 L450.377 289.865 L450.377 263.939 L454.66 263.939 L454.66 267.967 Q456.187 265.629 458.248 264.471 Q460.331 263.314 463.039 263.314 Q467.507 263.314 469.798 266.092 Q472.09 268.846 472.09 274.217 Z" fill="#000000" fill-rule="evenodd" fill-opacity="1" /><path clip-path="url(#clip860)" d="M497.645 267.874 L497.645 253.846 L501.905 253.846 L501.905 289.865 L497.645 289.865 L497.645 285.976 Q496.303 288.291 494.243 289.425 Q492.206 290.536 489.335 290.536 Q484.636 290.536 481.673 286.786 Q478.734 283.036 478.734 276.925 Q478.734 270.814 481.673 267.064 Q484.636 263.314 489.335 263.314 Q492.206 263.314 494.243 264.448 Q496.303 265.559 497.645 267.874 M483.132 276.925 Q483.132 281.624 485.053 284.309 Q486.997 286.971 490.377 286.971 Q493.757 286.971 495.701 284.309 Q497.645 281.624 497.645 276.925 Q497.645 272.226 495.701 269.564 Q493.757 266.879 490.377 266.879 Q486.997 266.879 485.053 269.564 Q483.132 272.226 483.132 276.925 Z" fill="#000000" fill-rule="evenodd" fill-opacity="1" /><path clip-path="url(#clip860)" d="M527.738 276.601 Q527.738 271.971 525.817 269.425 Q523.918 266.879 520.469 266.879 Q517.044 266.879 515.122 269.425 Q513.224 271.971 513.224 276.601 Q513.224 281.207 515.122 283.754 Q517.044 286.3 520.469 286.3 Q523.918 286.3 525.817 283.754 Q527.738 281.207 527.738 276.601 M531.997 286.647 Q531.997 293.267 529.057 296.485 Q526.118 299.726 520.053 299.726 Q517.807 299.726 515.817 299.378 Q513.826 299.054 511.951 298.36 L511.951 294.216 Q513.826 295.235 515.655 295.721 Q517.483 296.207 519.381 296.207 Q523.571 296.207 525.655 294.008 Q527.738 291.832 527.738 287.411 L527.738 285.304 Q526.418 287.596 524.358 288.73 Q522.298 289.865 519.428 289.865 Q514.659 289.865 511.743 286.23 Q508.826 282.596 508.826 276.601 Q508.826 270.582 511.743 266.948 Q514.659 263.314 519.428 263.314 Q522.298 263.314 524.358 264.448 Q526.418 265.582 527.738 267.874 L527.738 263.939 L531.997 263.939 L531.997 286.647 Z" fill="#000000" fill-rule="evenodd" fill-opacity="1" /><path clip-path="url(#clip860)" d="M540.33 279.633 L540.33 263.939 L544.59 263.939 L544.59 279.471 Q544.59 283.152 546.025 285.004 Q547.46 286.832 550.33 286.832 Q553.779 286.832 555.77 284.633 Q557.784 282.434 557.784 278.638 L557.784 263.939 L562.043 263.939 L562.043 289.865 L557.784 289.865 L557.784 285.883 Q556.233 288.244 554.173 289.402 Q552.136 290.536 549.428 290.536 Q544.96 290.536 542.645 287.758 Q540.33 284.98 540.33 279.633 M551.048 263.314 L551.048 263.314 Z" fill="#000000" fill-rule="evenodd" fill-opacity="1" /><path clip-path="url(#clip860)" d="M592.367 274.217 L592.367 289.865 L588.108 289.865 L588.108 274.355 Q588.108 270.675 586.673 268.846 Q585.238 267.018 582.367 267.018 Q578.918 267.018 576.927 269.217 Q574.937 271.416 574.937 275.212 L574.937 289.865 L570.654 289.865 L570.654 263.939 L574.937 263.939 L574.937 267.967 Q576.464 265.629 578.525 264.471 Q580.608 263.314 583.316 263.314 Q587.784 263.314 590.076 266.092 Q592.367 268.846 592.367 274.217 Z" fill="#000000" fill-rule="evenodd" fill-opacity="1" /><path clip-path="url(#clip860)" d="M616.117 255.305 L637.969 255.305 L637.969 259.24 L620.793 259.24 L620.793 269.471 L637.251 269.471 L637.251 273.406 L620.793 273.406 L620.793 285.929 L638.385 285.929 L638.385 289.865 L616.117 289.865 L616.117 255.305 Z" fill="#000000" fill-rule="evenodd" fill-opacity="1" /><path clip-path="url(#clip860)" d="M642.83 263.939 L647.344 263.939 L655.446 285.698 L663.547 263.939 L668.061 263.939 L658.339 289.865 L652.552 289.865 L642.83 263.939 Z" fill="#000000" fill-rule="evenodd" fill-opacity="1" /><path clip-path="url(#clip860)" d="M696.117 275.837 L696.117 277.92 L676.533 277.92 Q676.811 282.318 679.172 284.633 Q681.557 286.925 685.793 286.925 Q688.246 286.925 690.538 286.323 Q692.853 285.721 695.121 284.517 L695.121 288.545 Q692.83 289.517 690.422 290.027 Q688.015 290.536 685.538 290.536 Q679.334 290.536 675.7 286.925 Q672.089 283.314 672.089 277.156 Q672.089 270.791 675.515 267.064 Q678.964 263.314 684.797 263.314 Q690.029 263.314 693.061 266.693 Q696.117 270.05 696.117 275.837 M691.857 274.587 Q691.811 271.092 689.89 269.008 Q687.992 266.925 684.844 266.925 Q681.279 266.925 679.126 268.939 Q676.996 270.953 676.672 274.61 L691.857 274.587 Z" fill="#000000" fill-rule="evenodd" fill-opacity="1" /><path clip-path="url(#clip860)" d="M724.658 274.217 L724.658 289.865 L720.399 289.865 L720.399 274.355 Q720.399 270.675 718.964 268.846 Q717.529 267.018 714.658 267.018 Q711.209 267.018 709.218 269.217 Q707.228 271.416 707.228 275.212 L707.228 289.865 L702.945 289.865 L702.945 263.939 L707.228 263.939 L707.228 267.967 Q708.755 265.629 710.816 264.471 Q712.899 263.314 715.607 263.314 Q720.075 263.314 722.366 266.092 Q724.658 268.846 724.658 274.217 Z" fill="#000000" fill-rule="evenodd" fill-opacity="1" /><path clip-path="url(#clip860)" d="M737.366 256.578 L737.366 263.939 L746.139 263.939 L746.139 267.249 L737.366 267.249 L737.366 281.323 Q737.366 284.494 738.223 285.397 Q739.102 286.3 741.765 286.3 L746.139 286.3 L746.139 289.865 L741.765 289.865 Q736.834 289.865 734.959 288.036 Q733.084 286.184 733.084 281.323 L733.084 267.249 L729.959 267.249 L729.959 263.939 L733.084 263.939 L733.084 256.578 L737.366 256.578 Z" fill="#000000" fill-rule="evenodd" fill-opacity="1" /><path clip-path="url(#clip860)" d="M768.269 264.703 L768.269 268.731 Q766.463 267.805 764.519 267.342 Q762.575 266.879 760.491 266.879 Q757.32 266.879 755.723 267.851 Q754.149 268.823 754.149 270.768 Q754.149 272.249 755.283 273.105 Q756.417 273.939 759.843 274.703 L761.301 275.027 Q765.838 275.999 767.737 277.781 Q769.658 279.541 769.658 282.712 Q769.658 286.323 766.788 288.429 Q763.94 290.536 758.94 290.536 Q756.857 290.536 754.589 290.119 Q752.343 289.726 749.843 288.916 L749.843 284.517 Q752.204 285.744 754.496 286.369 Q756.788 286.971 759.033 286.971 Q762.042 286.971 763.663 285.953 Q765.283 284.911 765.283 283.036 Q765.283 281.3 764.102 280.374 Q762.945 279.448 758.987 278.592 L757.505 278.244 Q753.547 277.411 751.788 275.698 Q750.028 273.962 750.028 270.953 Q750.028 267.295 752.621 265.305 Q755.214 263.314 759.982 263.314 Q762.343 263.314 764.426 263.661 Q766.51 264.008 768.269 264.703 Z" fill="#000000" fill-rule="evenodd" fill-opacity="1" /></svg>
