<?xml version="1.0" encoding="utf-8"?>
<svg xmlns="http://www.w3.org/2000/svg" xmlns:xlink="http://www.w3.org/1999/xlink" width="600" height="400" viewBox="0 0 2400 1600">
<defs>
  <clipPath id="clip850">
    <rect x="0" y="0" width="2400" height="1600"/>
  </clipPath>
</defs>
<path clip-path="url(#clip850)" d="
M0 1600 L2400 1600 L2400 0 L0 0  Z
  " fill="#ffffff" fill-rule="evenodd" fill-opacity="1"/>
<defs>
  <clipPath id="clip851">
    <rect x="480" y="0" width="1681" height="1600"/>
  </clipPath>
</defs>
<path clip-path="url(#clip850)" d="
M193.936 1486.45 L2352.76 1486.45 L2352.76 183.952 L193.936 183.952  Z
  " fill="#ffffff" fill-rule="evenodd" fill-opacity="1"/>
<defs>
  <clipPath id="clip852">
    <rect x="193" y="183" width="2160" height="1303"/>
  </clipPath>
</defs>
<polyline clip-path="url(#clip852)" style="stroke:#000000; stroke-linecap:butt; stroke-linejoin:round; stroke-width:2; stroke-opacity:0.1; fill:none" points="
  210.76,1486.45 210.76,183.952 
  "/>
<polyline clip-path="url(#clip852)" style="stroke:#000000; stroke-linecap:butt; stroke-linejoin:round; stroke-width:2; stroke-opacity:0.1; fill:none" points="
  653.504,1486.45 653.504,183.952 
  "/>
<polyline clip-path="url(#clip852)" style="stroke:#000000; stroke-linecap:butt; stroke-linejoin:round; stroke-width:2; stroke-opacity:0.1; fill:none" points="
  1096.25,1486.45 1096.25,183.952 
  "/>
<polyline clip-path="url(#clip852)" style="stroke:#000000; stroke-linecap:butt; stroke-linejoin:round; stroke-width:2; stroke-opacity:0.1; fill:none" points="
  1538.99,1486.45 1538.99,183.952 
  "/>
<polyline clip-path="url(#clip852)" style="stroke:#000000; stroke-linecap:butt; stroke-linejoin:round; stroke-width:2; stroke-opacity:0.1; fill:none" points="
  1981.74,1486.45 1981.74,183.952 
  "/>
<polyline clip-path="url(#clip850)" style="stroke:#000000; stroke-linecap:butt; stroke-linejoin:round; stroke-width:4; stroke-opacity:1; fill:none" points="
  193.936,1486.45 2352.76,1486.45 
  "/>
<polyline clip-path="url(#clip850)" style="stroke:#000000; stroke-linecap:butt; stroke-linejoin:round; stroke-width:4; stroke-opacity:1; fill:none" points="
  210.76,1486.45 210.76,1467.55 
  "/>
<polyline clip-path="url(#clip850)" style="stroke:#000000; stroke-linecap:butt; stroke-linejoin:round; stroke-width:4; stroke-opacity:1; fill:none" points="
  653.504,1486.45 653.504,1467.55 
  "/>
<polyline clip-path="url(#clip850)" style="stroke:#000000; stroke-linecap:butt; stroke-linejoin:round; stroke-width:4; stroke-opacity:1; fill:none" points="
  1096.25,1486.45 1096.25,1467.55 
  "/>
<polyline clip-path="url(#clip850)" style="stroke:#000000; stroke-linecap:butt; stroke-linejoin:round; stroke-width:4; stroke-opacity:1; fill:none" points="
  1538.99,1486.45 1538.99,1467.55 
  "/>
<polyline clip-path="url(#clip850)" style="stroke:#000000; stroke-linecap:butt; stroke-linejoin:round; stroke-width:4; stroke-opacity:1; fill:none" points="
  1981.74,1486.45 1981.74,1467.55 
  "/>
<path clip-path="url(#clip850)" d="M210.76 1517.37 Q207.149 1517.37 205.32 1520.93 Q203.515 1524.47 203.515 1531.6 Q203.515 1538.71 205.32 1542.27 Q207.149 1545.82 210.76 1545.82 Q214.395 1545.82 216.2 1542.27 Q218.029 1538.71 218.029 1531.6 Q218.029 1524.47 216.2 1520.93 Q214.395 1517.37 210.76 1517.37 M210.76 1513.66 Q216.57 1513.66 219.626 1518.27 Q222.705 1522.85 222.705 1531.6 Q222.705 1540.33 219.626 1544.94 Q216.57 1549.52 210.76 1549.52 Q204.95 1549.52 201.871 1544.94 Q198.816 1540.33 198.816 1531.6 Q198.816 1522.85 201.871 1518.27 Q204.95 1513.66 210.76 1513.66 Z" fill="#000000" fill-rule="evenodd" fill-opacity="1" /><path clip-path="url(#clip850)" d="M628.192 1544.91 L635.831 1544.91 L635.831 1518.55 L627.521 1520.21 L627.521 1515.95 L635.784 1514.29 L640.46 1514.29 L640.46 1544.91 L648.099 1544.91 L648.099 1548.85 L628.192 1548.85 L628.192 1544.91 Z" fill="#000000" fill-rule="evenodd" fill-opacity="1" /><path clip-path="url(#clip850)" d="M667.544 1517.37 Q663.932 1517.37 662.104 1520.93 Q660.298 1524.47 660.298 1531.6 Q660.298 1538.71 662.104 1542.27 Q663.932 1545.82 667.544 1545.82 Q671.178 1545.82 672.983 1542.27 Q674.812 1538.71 674.812 1531.6 Q674.812 1524.47 672.983 1520.93 Q671.178 1517.37 667.544 1517.37 M667.544 1513.66 Q673.354 1513.66 676.409 1518.27 Q679.488 1522.85 679.488 1531.6 Q679.488 1540.33 676.409 1544.94 Q673.354 1549.52 667.544 1549.52 Q661.733 1549.52 658.655 1544.94 Q655.599 1540.33 655.599 1531.6 Q655.599 1522.85 658.655 1518.27 Q661.733 1513.66 667.544 1513.66 Z" fill="#000000" fill-rule="evenodd" fill-opacity="1" /><path clip-path="url(#clip850)" d="M1075.02 1544.91 L1091.34 1544.91 L1091.34 1548.85 L1069.4 1548.85 L1069.4 1544.91 Q1072.06 1542.16 1076.64 1537.53 Q1081.25 1532.88 1082.43 1531.53 Q1084.67 1529.01 1085.55 1527.27 Q1086.46 1525.51 1086.46 1523.82 Q1086.46 1521.07 1084.51 1519.33 Q1082.59 1517.6 1079.49 1517.6 Q1077.29 1517.6 1074.84 1518.36 Q1072.41 1519.13 1069.63 1520.68 L1069.63 1515.95 Q1072.45 1514.82 1074.91 1514.24 Q1077.36 1513.66 1079.4 1513.66 Q1084.77 1513.66 1087.96 1516.35 Q1091.16 1519.03 1091.16 1523.52 Q1091.16 1525.65 1090.35 1527.57 Q1089.56 1529.47 1087.45 1532.07 Q1086.87 1532.74 1083.77 1535.95 Q1080.67 1539.15 1075.02 1544.91 Z" fill="#000000" fill-rule="evenodd" fill-opacity="1" /><path clip-path="url(#clip850)" d="M1111.16 1517.37 Q1107.54 1517.37 1105.72 1520.93 Q1103.91 1524.47 1103.91 1531.6 Q1103.91 1538.71 1105.72 1542.27 Q1107.54 1545.82 1111.16 1545.82 Q1114.79 1545.82 1116.6 1542.27 Q1118.42 1538.71 1118.42 1531.6 Q1118.42 1524.47 1116.6 1520.93 Q1114.79 1517.37 1111.16 1517.37 M1111.16 1513.66 Q1116.97 1513.66 1120.02 1518.27 Q1123.1 1522.85 1123.1 1531.6 Q1123.1 1540.33 1120.02 1544.94 Q1116.97 1549.52 1111.16 1549.52 Q1105.35 1549.52 1102.27 1544.94 Q1099.21 1540.33 1099.21 1531.6 Q1099.21 1522.85 1102.27 1518.27 Q1105.35 1513.66 1111.16 1513.66 Z" fill="#000000" fill-rule="evenodd" fill-opacity="1" /><path clip-path="url(#clip850)" d="M1527.84 1530.21 Q1531.19 1530.93 1533.07 1533.2 Q1534.96 1535.47 1534.96 1538.8 Q1534.96 1543.92 1531.45 1546.72 Q1527.93 1549.52 1521.45 1549.52 Q1519.27 1549.52 1516.96 1549.08 Q1514.66 1548.66 1512.21 1547.81 L1512.21 1543.29 Q1514.15 1544.43 1516.47 1545.01 Q1518.78 1545.58 1521.31 1545.58 Q1525.71 1545.58 1528 1543.85 Q1530.31 1542.11 1530.31 1538.8 Q1530.31 1535.75 1528.16 1534.03 Q1526.03 1532.3 1522.21 1532.3 L1518.18 1532.3 L1518.18 1528.45 L1522.4 1528.45 Q1525.84 1528.45 1527.67 1527.09 Q1529.5 1525.7 1529.5 1523.11 Q1529.5 1520.45 1527.6 1519.03 Q1525.73 1517.6 1522.21 1517.6 Q1520.29 1517.6 1518.09 1518.01 Q1515.89 1518.43 1513.25 1519.31 L1513.25 1515.14 Q1515.91 1514.4 1518.23 1514.03 Q1520.57 1513.66 1522.63 1513.66 Q1527.95 1513.66 1531.05 1516.09 Q1534.15 1518.5 1534.15 1522.62 Q1534.15 1525.49 1532.51 1527.48 Q1530.87 1529.45 1527.84 1530.21 Z" fill="#000000" fill-rule="evenodd" fill-opacity="1" /><path clip-path="url(#clip850)" d="M1553.83 1517.37 Q1550.22 1517.37 1548.39 1520.93 Q1546.58 1524.47 1546.58 1531.6 Q1546.58 1538.71 1548.39 1542.27 Q1550.22 1545.82 1553.83 1545.82 Q1557.46 1545.82 1559.27 1542.27 Q1561.1 1538.71 1561.1 1531.6 Q1561.1 1524.47 1559.27 1520.93 Q1557.46 1517.37 1553.83 1517.37 M1553.83 1513.66 Q1559.64 1513.66 1562.7 1518.27 Q1565.77 1522.85 1565.77 1531.6 Q1565.77 1540.33 1562.7 1544.94 Q1559.64 1549.52 1553.83 1549.52 Q1548.02 1549.52 1544.94 1544.94 Q1541.89 1540.33 1541.89 1531.6 Q1541.89 1522.85 1544.94 1518.27 Q1548.02 1513.66 1553.83 1513.66 Z" fill="#000000" fill-rule="evenodd" fill-opacity="1" /><path clip-path="url(#clip850)" d="M1969.91 1518.36 L1958.1 1536.81 L1969.91 1536.81 L1969.91 1518.36 M1968.68 1514.29 L1974.56 1514.29 L1974.56 1536.81 L1979.49 1536.81 L1979.49 1540.7 L1974.56 1540.7 L1974.56 1548.85 L1969.91 1548.85 L1969.91 1540.7 L1954.31 1540.7 L1954.31 1536.19 L1968.68 1514.29 Z" fill="#000000" fill-rule="evenodd" fill-opacity="1" /><path clip-path="url(#clip850)" d="M1997.22 1517.37 Q1993.61 1517.37 1991.78 1520.93 Q1989.98 1524.47 1989.98 1531.6 Q1989.98 1538.71 1991.78 1542.27 Q1993.61 1545.82 1997.22 1545.82 Q2000.86 1545.82 2002.66 1542.27 Q2004.49 1538.71 2004.49 1531.6 Q2004.49 1524.47 2002.66 1520.93 Q2000.86 1517.37 1997.22 1517.37 M1997.22 1513.66 Q2003.03 1513.66 2006.09 1518.27 Q2009.17 1522.85 2009.17 1531.6 Q2009.17 1540.33 2006.09 1544.94 Q2003.03 1549.52 1997.22 1549.52 Q1991.41 1549.52 1988.33 1544.94 Q1985.28 1540.33 1985.28 1531.6 Q1985.28 1522.85 1988.33 1518.27 Q1991.41 1513.66 1997.22 1513.66 Z" fill="#000000" fill-rule="evenodd" fill-opacity="1" /><polyline clip-path="url(#clip852)" style="stroke:#000000; stroke-linecap:butt; stroke-linejoin:round; stroke-width:2; stroke-opacity:0.1; fill:none" points="
  193.936,1301.65 2352.76,1301.65 
  "/>
<polyline clip-path="url(#clip852)" style="stroke:#000000; stroke-linecap:butt; stroke-linejoin:round; stroke-width:2; stroke-opacity:0.1; fill:none" points="
  193.936,1111.99 2352.76,1111.99 
  "/>
<polyline clip-path="url(#clip852)" style="stroke:#000000; stroke-linecap:butt; stroke-linejoin:round; stroke-width:2; stroke-opacity:0.1; fill:none" points="
  193.936,922.334 2352.76,922.334 
  "/>
<polyline clip-path="url(#clip852)" style="stroke:#000000; stroke-linecap:butt; stroke-linejoin:round; stroke-width:2; stroke-opacity:0.1; fill:none" points="
  193.936,732.677 2352.76,732.677 
  "/>
<polyline clip-path="url(#clip852)" style="stroke:#000000; stroke-linecap:butt; stroke-linejoin:round; stroke-width:2; stroke-opacity:0.1; fill:none" points="
  193.936,543.02 2352.76,543.02 
  "/>
<polyline clip-path="url(#clip852)" style="stroke:#000000; stroke-linecap:butt; stroke-linejoin:round; stroke-width:2; stroke-opacity:0.1; fill:none" points="
  193.936,353.363 2352.76,353.363 
  "/>
<polyline clip-path="url(#clip850)" style="stroke:#000000; stroke-linecap:butt; stroke-linejoin:round; stroke-width:4; stroke-opacity:1; fill:none" points="
  193.936,1486.45 193.936,183.952 
  "/>
<polyline clip-path="url(#clip850)" style="stroke:#000000; stroke-linecap:butt; stroke-linejoin:round; stroke-width:4; stroke-opacity:1; fill:none" points="
  193.936,1301.65 212.834,1301.65 
  "/>
<polyline clip-path="url(#clip850)" style="stroke:#000000; stroke-linecap:butt; stroke-linejoin:round; stroke-width:4; stroke-opacity:1; fill:none" points="
  193.936,1111.99 212.834,1111.99 
  "/>
<polyline clip-path="url(#clip850)" style="stroke:#000000; stroke-linecap:butt; stroke-linejoin:round; stroke-width:4; stroke-opacity:1; fill:none" points="
  193.936,922.334 212.834,922.334 
  "/>
<polyline clip-path="url(#clip850)" style="stroke:#000000; stroke-linecap:butt; stroke-linejoin:round; stroke-width:4; stroke-opacity:1; fill:none" points="
  193.936,732.677 212.834,732.677 
  "/>
<polyline clip-path="url(#clip850)" style="stroke:#000000; stroke-linecap:butt; stroke-linejoin:round; stroke-width:4; stroke-opacity:1; fill:none" points="
  193.936,543.02 212.834,543.02 
  "/>
<polyline clip-path="url(#clip850)" style="stroke:#000000; stroke-linecap:butt; stroke-linejoin:round; stroke-width:4; stroke-opacity:1; fill:none" points="
  193.936,353.363 212.834,353.363 
  "/>
<path clip-path="url(#clip850)" d="M50.9921 1302.1 L80.6679 1302.1 L80.6679 1306.04 L50.9921 1306.04 L50.9921 1302.1 Z" fill="#000000" fill-rule="evenodd" fill-opacity="1" /><path clip-path="url(#clip850)" d="M91.5706 1314.99 L99.2095 1314.99 L99.2095 1288.63 L90.8993 1290.29 L90.8993 1286.04 L99.1632 1284.37 L103.839 1284.37 L103.839 1314.99 L111.478 1314.99 L111.478 1318.93 L91.5706 1318.93 L91.5706 1314.99 Z" fill="#000000" fill-rule="evenodd" fill-opacity="1" /><path clip-path="url(#clip850)" d="M120.922 1313.05 L125.807 1313.05 L125.807 1318.93 L120.922 1318.93 L120.922 1313.05 Z" fill="#000000" fill-rule="evenodd" fill-opacity="1" /><path clip-path="url(#clip850)" d="M145.992 1287.45 Q142.381 1287.45 140.552 1291.01 Q138.746 1294.55 138.746 1301.68 Q138.746 1308.79 140.552 1312.35 Q142.381 1315.9 145.992 1315.9 Q149.626 1315.9 151.431 1312.35 Q153.26 1308.79 153.26 1301.68 Q153.26 1294.55 151.431 1291.01 Q149.626 1287.45 145.992 1287.45 M145.992 1283.74 Q151.802 1283.74 154.857 1288.35 Q157.936 1292.93 157.936 1301.68 Q157.936 1310.41 154.857 1315.02 Q151.802 1319.6 145.992 1319.6 Q140.181 1319.6 137.103 1315.02 Q134.047 1310.41 134.047 1301.68 Q134.047 1292.93 137.103 1288.35 Q140.181 1283.74 145.992 1283.74 Z" fill="#000000" fill-rule="evenodd" fill-opacity="1" /><path clip-path="url(#clip850)" d="M51.9875 1112.44 L81.6633 1112.44 L81.6633 1116.38 L51.9875 1116.38 L51.9875 1112.44 Z" fill="#000000" fill-rule="evenodd" fill-opacity="1" /><path clip-path="url(#clip850)" d="M101.756 1097.79 Q98.1447 1097.79 96.316 1101.35 Q94.5104 1104.9 94.5104 1112.03 Q94.5104 1119.13 96.316 1122.7 Q98.1447 1126.24 101.756 1126.24 Q105.39 1126.24 107.196 1122.7 Q109.024 1119.13 109.024 1112.03 Q109.024 1104.9 107.196 1101.35 Q105.39 1097.79 101.756 1097.79 M101.756 1094.09 Q107.566 1094.09 110.621 1098.69 Q113.7 1103.28 113.7 1112.03 Q113.7 1120.75 110.621 1125.36 Q107.566 1129.94 101.756 1129.94 Q95.9456 1129.94 92.8669 1125.36 Q89.8114 1120.75 89.8114 1112.03 Q89.8114 1103.28 92.8669 1098.69 Q95.9456 1094.09 101.756 1094.09 Z" fill="#000000" fill-rule="evenodd" fill-opacity="1" /><path clip-path="url(#clip850)" d="M121.918 1123.39 L126.802 1123.39 L126.802 1129.27 L121.918 1129.27 L121.918 1123.39 Z" fill="#000000" fill-rule="evenodd" fill-opacity="1" /><path clip-path="url(#clip850)" d="M137.033 1094.71 L155.39 1094.71 L155.39 1098.65 L141.316 1098.65 L141.316 1107.12 Q142.334 1106.77 143.353 1106.61 Q144.371 1106.42 145.39 1106.42 Q151.177 1106.42 154.556 1109.6 Q157.936 1112.77 157.936 1118.18 Q157.936 1123.76 154.464 1126.86 Q150.992 1129.94 144.672 1129.94 Q142.496 1129.94 140.228 1129.57 Q137.982 1129.2 135.575 1128.46 L135.575 1123.76 Q137.658 1124.9 139.881 1125.45 Q142.103 1126.01 144.58 1126.01 Q148.584 1126.01 150.922 1123.9 Q153.26 1121.79 153.26 1118.18 Q153.26 1114.57 150.922 1112.47 Q148.584 1110.36 144.58 1110.36 Q142.705 1110.36 140.83 1110.78 Q138.978 1111.19 137.033 1112.07 L137.033 1094.71 Z" fill="#000000" fill-rule="evenodd" fill-opacity="1" /><path clip-path="url(#clip850)" d="M100.76 908.133 Q97.1493 908.133 95.3206 911.698 Q93.515 915.239 93.515 922.369 Q93.515 929.476 95.3206 933.04 Q97.1493 936.582 100.76 936.582 Q104.395 936.582 106.2 933.04 Q108.029 929.476 108.029 922.369 Q108.029 915.239 106.2 911.698 Q104.395 908.133 100.76 908.133 M100.76 904.429 Q106.571 904.429 109.626 909.036 Q112.705 913.619 112.705 922.369 Q112.705 931.096 109.626 935.702 Q106.571 940.286 100.76 940.286 Q94.9502 940.286 91.8715 935.702 Q88.816 931.096 88.816 922.369 Q88.816 913.619 91.8715 909.036 Q94.9502 904.429 100.76 904.429 Z" fill="#000000" fill-rule="evenodd" fill-opacity="1" /><path clip-path="url(#clip850)" d="M120.922 933.735 L125.807 933.735 L125.807 939.614 L120.922 939.614 L120.922 933.735 Z" fill="#000000" fill-rule="evenodd" fill-opacity="1" /><path clip-path="url(#clip850)" d="M145.992 908.133 Q142.381 908.133 140.552 911.698 Q138.746 915.239 138.746 922.369 Q138.746 929.476 140.552 933.04 Q142.381 936.582 145.992 936.582 Q149.626 936.582 151.431 933.04 Q153.26 929.476 153.26 922.369 Q153.26 915.239 151.431 911.698 Q149.626 908.133 145.992 908.133 M145.992 904.429 Q151.802 904.429 154.857 909.036 Q157.936 913.619 157.936 922.369 Q157.936 931.096 154.857 935.702 Q151.802 940.286 145.992 940.286 Q140.181 940.286 137.103 935.702 Q134.047 931.096 134.047 922.369 Q134.047 913.619 137.103 909.036 Q140.181 904.429 145.992 904.429 Z" fill="#000000" fill-rule="evenodd" fill-opacity="1" /><path clip-path="url(#clip850)" d="M101.756 718.476 Q98.1447 718.476 96.316 722.041 Q94.5104 725.582 94.5104 732.712 Q94.5104 739.818 96.316 743.383 Q98.1447 746.925 101.756 746.925 Q105.39 746.925 107.196 743.383 Q109.024 739.818 109.024 732.712 Q109.024 725.582 107.196 722.041 Q105.39 718.476 101.756 718.476 M101.756 714.772 Q107.566 714.772 110.621 719.379 Q113.7 723.962 113.7 732.712 Q113.7 741.439 110.621 746.045 Q107.566 750.629 101.756 750.629 Q95.9456 750.629 92.8669 746.045 Q89.8114 741.439 89.8114 732.712 Q89.8114 723.962 92.8669 719.379 Q95.9456 714.772 101.756 714.772 Z" fill="#000000" fill-rule="evenodd" fill-opacity="1" /><path clip-path="url(#clip850)" d="M121.918 744.078 L126.802 744.078 L126.802 749.957 L121.918 749.957 L121.918 744.078 Z" fill="#000000" fill-rule="evenodd" fill-opacity="1" /><path clip-path="url(#clip850)" d="M137.033 715.397 L155.39 715.397 L155.39 719.332 L141.316 719.332 L141.316 727.805 Q142.334 727.457 143.353 727.295 Q144.371 727.11 145.39 727.11 Q151.177 727.11 154.556 730.281 Q157.936 733.453 157.936 738.869 Q157.936 744.448 154.464 747.55 Q150.992 750.629 144.672 750.629 Q142.496 750.629 140.228 750.258 Q137.982 749.888 135.575 749.147 L135.575 744.448 Q137.658 745.582 139.881 746.138 Q142.103 746.693 144.58 746.693 Q148.584 746.693 150.922 744.587 Q153.26 742.48 153.26 738.869 Q153.26 735.258 150.922 733.152 Q148.584 731.045 144.58 731.045 Q142.705 731.045 140.83 731.462 Q138.978 731.879 137.033 732.758 L137.033 715.397 Z" fill="#000000" fill-rule="evenodd" fill-opacity="1" /><path clip-path="url(#clip850)" d="M91.5706 556.365 L99.2095 556.365 L99.2095 529.999 L90.8993 531.666 L90.8993 527.407 L99.1632 525.74 L103.839 525.74 L103.839 556.365 L111.478 556.365 L111.478 560.3 L91.5706 560.3 L91.5706 556.365 Z" fill="#000000" fill-rule="evenodd" fill-opacity="1" /><path clip-path="url(#clip850)" d="M120.922 554.421 L125.807 554.421 L125.807 560.3 L120.922 560.3 L120.922 554.421 Z" fill="#000000" fill-rule="evenodd" fill-opacity="1" /><path clip-path="url(#clip850)" d="M145.992 528.819 Q142.381 528.819 140.552 532.384 Q138.746 535.925 138.746 543.055 Q138.746 550.161 140.552 553.726 Q142.381 557.268 145.992 557.268 Q149.626 557.268 151.431 553.726 Q153.26 550.161 153.26 543.055 Q153.26 535.925 151.431 532.384 Q149.626 528.819 145.992 528.819 M145.992 525.115 Q151.802 525.115 154.857 529.722 Q157.936 534.305 157.936 543.055 Q157.936 551.782 154.857 556.388 Q151.802 560.971 145.992 560.971 Q140.181 560.971 137.103 556.388 Q134.047 551.782 134.047 543.055 Q134.047 534.305 137.103 529.722 Q140.181 525.115 145.992 525.115 Z" fill="#000000" fill-rule="evenodd" fill-opacity="1" /><path clip-path="url(#clip850)" d="M92.566 366.708 L100.205 366.708 L100.205 340.342 L91.8947 342.009 L91.8947 337.75 L100.159 336.083 L104.834 336.083 L104.834 366.708 L112.473 366.708 L112.473 370.643 L92.566 370.643 L92.566 366.708 Z" fill="#000000" fill-rule="evenodd" fill-opacity="1" /><path clip-path="url(#clip850)" d="M121.918 364.763 L126.802 364.763 L126.802 370.643 L121.918 370.643 L121.918 364.763 Z" fill="#000000" fill-rule="evenodd" fill-opacity="1" /><path clip-path="url(#clip850)" d="M137.033 336.083 L155.39 336.083 L155.39 340.018 L141.316 340.018 L141.316 348.49 Q142.334 348.143 143.353 347.981 Q144.371 347.796 145.39 347.796 Q151.177 347.796 154.556 350.967 Q157.936 354.139 157.936 359.555 Q157.936 365.134 154.464 368.236 Q150.992 371.314 144.672 371.314 Q142.496 371.314 140.228 370.944 Q137.982 370.574 135.575 369.833 L135.575 365.134 Q137.658 366.268 139.881 366.824 Q142.103 367.379 144.58 367.379 Q148.584 367.379 150.922 365.273 Q153.26 363.166 153.26 359.555 Q153.26 355.944 150.922 353.838 Q148.584 351.731 144.58 351.731 Q142.705 351.731 140.83 352.148 Q138.978 352.564 137.033 353.444 L137.033 336.083 Z" fill="#000000" fill-rule="evenodd" fill-opacity="1" /><path clip-path="url(#clip850)" d="M927.601 65.3877 Q930.234 66.2789 932.705 69.1955 Q935.217 72.1122 937.729 77.2163 L946.033 93.744 L937.242 93.744 L929.505 78.229 Q926.508 72.1527 923.672 70.1677 Q920.877 68.1828 916.016 68.1828 L907.104 68.1828 L907.104 93.744 L898.921 93.744 L898.921 33.264 L917.393 33.264 Q927.763 33.264 932.867 37.5985 Q937.972 41.9329 937.972 50.6829 Q937.972 56.3947 935.298 60.162 Q932.665 63.9293 927.601 65.3877 M907.104 39.9885 L907.104 61.4583 L917.393 61.4583 Q923.307 61.4583 926.305 58.7442 Q929.343 55.9896 929.343 50.6829 Q929.343 45.3762 926.305 42.7026 Q923.307 39.9885 917.393 39.9885 L907.104 39.9885 Z" fill="#000000" fill-rule="evenodd" fill-opacity="1" /><path clip-path="url(#clip850)" d="M991.322 69.1955 L991.322 72.8413 L957.051 72.8413 Q957.537 80.5381 961.669 84.589 Q965.842 88.5994 973.255 88.5994 Q977.549 88.5994 981.559 87.5461 Q985.61 86.4929 989.58 84.3864 L989.58 91.435 Q985.57 93.1364 981.357 94.0276 Q977.144 94.9188 972.809 94.9188 Q961.953 94.9188 955.593 88.5994 Q949.274 82.2799 949.274 71.5045 Q949.274 60.3645 955.269 53.8426 Q961.305 47.2801 971.513 47.2801 Q980.668 47.2801 985.975 53.1944 Q991.322 59.0683 991.322 69.1955 M983.868 67.008 Q983.787 60.8912 980.425 57.2454 Q977.103 53.5995 971.594 53.5995 Q965.356 53.5995 961.588 57.1238 Q957.862 60.6481 957.294 67.0485 L983.868 67.008 Z" fill="#000000" fill-rule="evenodd" fill-opacity="1" /><path clip-path="url(#clip850)" d="M1032.48 49.7107 L1032.48 56.7592 Q1029.32 55.1389 1025.92 54.3287 Q1022.51 53.5185 1018.87 53.5185 Q1013.32 53.5185 1010.52 55.2199 Q1007.77 56.9213 1007.77 60.324 Q1007.77 62.9166 1009.75 64.4155 Q1011.74 65.8738 1017.73 67.2106 L1020.29 67.7777 Q1028.23 69.4791 1031.55 72.5983 Q1034.91 75.677 1034.91 81.2267 Q1034.91 87.5461 1029.89 91.2324 Q1024.9 94.9188 1016.15 94.9188 Q1012.51 94.9188 1008.54 94.1896 Q1004.61 93.5009 1000.23 92.0831 L1000.23 84.3864 Q1004.37 86.5334 1008.38 87.6271 Q1012.39 88.6804 1016.32 88.6804 Q1021.58 88.6804 1024.42 86.898 Q1027.25 85.0751 1027.25 81.7938 Q1027.25 78.7557 1025.19 77.1353 Q1023.16 75.5149 1016.24 74.0161 L1013.64 73.4085 Q1006.72 71.9501 1003.64 68.9525 Q1000.56 65.9143 1000.56 60.6481 Q1000.56 54.2477 1005.1 50.7639 Q1009.63 47.2801 1017.98 47.2801 Q1022.11 47.2801 1025.75 47.8878 Q1029.4 48.4954 1032.48 49.7107 Z" fill="#000000" fill-rule="evenodd" fill-opacity="1" /><path clip-path="url(#clip850)" d="M1046.78 48.3739 L1054.23 48.3739 L1054.23 93.744 L1046.78 93.744 L1046.78 48.3739 M1046.78 30.7119 L1054.23 30.7119 L1054.23 40.1505 L1046.78 40.1505 L1046.78 30.7119 Z" fill="#000000" fill-rule="evenodd" fill-opacity="1" /><path clip-path="url(#clip850)" d="M1099.68 55.2604 L1099.68 30.7119 L1107.14 30.7119 L1107.14 93.744 L1099.68 93.744 L1099.68 86.9385 Q1097.33 90.9894 1093.73 92.9743 Q1090.16 94.9188 1085.14 94.9188 Q1076.92 94.9188 1071.73 88.3563 Q1066.59 81.7938 1066.59 71.0994 Q1066.59 60.4051 1071.73 53.8426 Q1076.92 47.2801 1085.14 47.2801 Q1090.16 47.2801 1093.73 49.2651 Q1097.33 51.2095 1099.68 55.2604 M1074.28 71.0994 Q1074.28 79.3228 1077.65 84.0218 Q1081.05 88.6804 1086.96 88.6804 Q1092.88 88.6804 1096.28 84.0218 Q1099.68 79.3228 1099.68 71.0994 Q1099.68 62.8761 1096.28 58.2176 Q1092.88 53.5185 1086.96 53.5185 Q1081.05 53.5185 1077.65 58.2176 Q1074.28 62.8761 1074.28 71.0994 Z" fill="#000000" fill-rule="evenodd" fill-opacity="1" /><path clip-path="url(#clip850)" d="M1121.72 75.839 L1121.72 48.3739 L1129.17 48.3739 L1129.17 75.5554 Q1129.17 81.9964 1131.69 85.2371 Q1134.2 88.4373 1139.22 88.4373 Q1145.26 88.4373 1148.74 84.589 Q1152.26 80.7406 1152.26 74.0971 L1152.26 48.3739 L1159.72 48.3739 L1159.72 93.744 L1152.26 93.744 L1152.26 86.7764 Q1149.55 90.9084 1145.95 92.9338 Q1142.38 94.9188 1137.64 94.9188 Q1129.82 94.9188 1125.77 90.0577 Q1121.72 85.1966 1121.72 75.839 M1140.48 47.2801 L1140.48 47.2801 Z" fill="#000000" fill-rule="evenodd" fill-opacity="1" /><path clip-path="url(#clip850)" d="M1195.69 70.9374 Q1186.66 70.9374 1183.17 73.0034 Q1179.69 75.0693 1179.69 80.0519 Q1179.69 84.0218 1182.28 86.3714 Q1184.91 88.6804 1189.41 88.6804 Q1195.61 88.6804 1199.34 84.3054 Q1203.1 79.8899 1203.1 72.5983 L1203.1 70.9374 L1195.69 70.9374 M1210.56 67.8587 L1210.56 93.744 L1203.1 93.744 L1203.1 86.8575 Q1200.55 90.9894 1196.74 92.9743 Q1192.94 94.9188 1187.43 94.9188 Q1180.46 94.9188 1176.33 91.0299 Q1172.24 87.1005 1172.24 80.5381 Q1172.24 72.8818 1177.34 68.993 Q1182.48 65.1041 1192.65 65.1041 L1203.1 65.1041 L1203.1 64.3749 Q1203.1 59.2303 1199.7 56.4352 Q1196.34 53.5995 1190.22 53.5995 Q1186.33 53.5995 1182.65 54.5312 Q1178.96 55.463 1175.56 57.3264 L1175.56 50.4398 Q1179.65 48.86 1183.5 48.0903 Q1187.35 47.2801 1190.99 47.2801 Q1200.83 47.2801 1205.7 52.3843 Q1210.56 57.4884 1210.56 67.8587 Z" fill="#000000" fill-rule="evenodd" fill-opacity="1" /><path clip-path="url(#clip850)" d="M1225.91 30.7119 L1233.36 30.7119 L1233.36 93.744 L1225.91 93.744 L1225.91 30.7119 Z" fill="#000000" fill-rule="evenodd" fill-opacity="1" /><path clip-path="url(#clip850)" d="M1292.91 53.5995 Q1286.92 53.5995 1283.43 58.2986 Q1279.95 62.9571 1279.95 71.0994 Q1279.95 79.2418 1283.39 83.9408 Q1286.88 88.5994 1292.91 88.5994 Q1298.87 88.5994 1302.35 83.9003 Q1305.83 79.2013 1305.83 71.0994 Q1305.83 63.0381 1302.35 58.3391 Q1298.87 53.5995 1292.91 53.5995 M1292.91 47.2801 Q1302.63 47.2801 1308.18 53.5995 Q1313.73 59.9189 1313.73 71.0994 Q1313.73 82.2394 1308.18 88.5994 Q1302.63 94.9188 1292.91 94.9188 Q1283.15 94.9188 1277.6 88.5994 Q1272.09 82.2394 1272.09 71.0994 Q1272.09 59.9189 1277.6 53.5995 Q1283.15 47.2801 1292.91 47.2801 Z" fill="#000000" fill-rule="evenodd" fill-opacity="1" /><path clip-path="url(#clip850)" d="M1363.8 66.3599 L1363.8 93.744 L1356.35 93.744 L1356.35 66.6029 Q1356.35 60.162 1353.84 56.9618 Q1351.33 53.7616 1346.3 53.7616 Q1340.27 53.7616 1336.78 57.6099 Q1333.3 61.4583 1333.3 68.1018 L1333.3 93.744 L1325.81 93.744 L1325.81 48.3739 L1333.3 48.3739 L1333.3 55.4224 Q1335.97 51.331 1339.58 49.3056 Q1343.22 47.2801 1347.96 47.2801 Q1355.78 47.2801 1359.79 52.1412 Q1363.8 56.9618 1363.8 66.3599 Z" fill="#000000" fill-rule="evenodd" fill-opacity="1" /><path clip-path="url(#clip850)" d="M1440.36 57.0833 Q1443.16 52.0602 1447.05 49.6702 Q1450.94 47.2801 1456.2 47.2801 Q1463.29 47.2801 1467.14 52.2627 Q1470.99 57.2048 1470.99 66.3599 L1470.99 93.744 L1463.5 93.744 L1463.5 66.6029 Q1463.5 60.081 1461.19 56.9213 Q1458.88 53.7616 1454.14 53.7616 Q1448.35 53.7616 1444.98 57.6099 Q1441.62 61.4583 1441.62 68.1018 L1441.62 93.744 L1434.13 93.744 L1434.13 66.6029 Q1434.13 60.0405 1431.82 56.9213 Q1429.51 53.7616 1424.69 53.7616 Q1418.98 53.7616 1415.61 57.6504 Q1412.25 61.4988 1412.25 68.1018 L1412.25 93.744 L1404.76 93.744 L1404.76 48.3739 L1412.25 48.3739 L1412.25 55.4224 Q1414.8 51.25 1418.37 49.2651 Q1421.93 47.2801 1426.83 47.2801 Q1431.78 47.2801 1435.22 49.7917 Q1438.7 52.3032 1440.36 57.0833 Z" fill="#000000" fill-rule="evenodd" fill-opacity="1" /><path clip-path="url(#clip850)" d="M1503.44 53.5995 Q1497.44 53.5995 1493.96 58.2986 Q1490.47 62.9571 1490.47 71.0994 Q1490.47 79.2418 1493.92 83.9408 Q1497.4 88.5994 1503.44 88.5994 Q1509.39 88.5994 1512.88 83.9003 Q1516.36 79.2013 1516.36 71.0994 Q1516.36 63.0381 1512.88 58.3391 Q1509.39 53.5995 1503.44 53.5995 M1503.44 47.2801 Q1513.16 47.2801 1518.71 53.5995 Q1524.26 59.9189 1524.26 71.0994 Q1524.26 82.2394 1518.71 88.5994 Q1513.16 94.9188 1503.44 94.9188 Q1493.67 94.9188 1488.12 88.5994 Q1482.62 82.2394 1482.62 71.0994 Q1482.62 59.9189 1488.12 53.5995 Q1493.67 47.2801 1503.44 47.2801 Z" fill="#000000" fill-rule="evenodd" fill-opacity="1" /><path clip-path="url(#clip850)" d="M1566.47 55.2604 L1566.47 30.7119 L1573.92 30.7119 L1573.92 93.744 L1566.47 93.744 L1566.47 86.9385 Q1564.12 90.9894 1560.51 92.9743 Q1556.95 94.9188 1551.93 94.9188 Q1543.7 94.9188 1538.52 88.3563 Q1533.37 81.7938 1533.37 71.0994 Q1533.37 60.4051 1538.52 53.8426 Q1543.7 47.2801 1551.93 47.2801 Q1556.95 47.2801 1560.51 49.2651 Q1564.12 51.2095 1566.47 55.2604 M1541.07 71.0994 Q1541.07 79.3228 1544.43 84.0218 Q1547.84 88.6804 1553.75 88.6804 Q1559.66 88.6804 1563.07 84.0218 Q1566.47 79.3228 1566.47 71.0994 Q1566.47 62.8761 1563.07 58.2176 Q1559.66 53.5185 1553.75 53.5185 Q1547.84 53.5185 1544.43 58.2176 Q1541.07 62.8761 1541.07 71.0994 Z" fill="#000000" fill-rule="evenodd" fill-opacity="1" /><path clip-path="url(#clip850)" d="M1628.08 69.1955 L1628.08 72.8413 L1593.81 72.8413 Q1594.3 80.5381 1598.43 84.589 Q1602.6 88.5994 1610.02 88.5994 Q1614.31 88.5994 1618.32 87.5461 Q1622.37 86.4929 1626.34 84.3864 L1626.34 91.435 Q1622.33 93.1364 1618.12 94.0276 Q1613.91 94.9188 1609.57 94.9188 Q1598.71 94.9188 1592.35 88.5994 Q1586.04 82.2799 1586.04 71.5045 Q1586.04 60.3645 1592.03 53.8426 Q1598.07 47.2801 1608.27 47.2801 Q1617.43 47.2801 1622.74 53.1944 Q1628.08 59.0683 1628.08 69.1955 M1620.63 67.008 Q1620.55 60.8912 1617.19 57.2454 Q1613.86 53.5995 1608.36 53.5995 Q1602.12 53.5995 1598.35 57.1238 Q1594.62 60.6481 1594.06 67.0485 L1620.63 67.008 Z" fill="#000000" fill-rule="evenodd" fill-opacity="1" /><path clip-path="url(#clip850)" d="M1640.32 30.7119 L1647.77 30.7119 L1647.77 93.744 L1640.32 93.744 L1640.32 30.7119 Z" fill="#000000" fill-rule="evenodd" fill-opacity="1" /><path clip-path="url(#clip850)" d="M1058.4 121.513 Q1052.98 130.83 1050.34 139.945 Q1047.71 149.059 1047.71 158.417 Q1047.71 167.774 1050.34 176.97 Q1053.02 186.125 1058.4 195.401 L1051.92 195.401 Q1045.85 185.882 1042.81 176.686 Q1039.81 167.491 1039.81 158.417 Q1039.81 149.383 1042.81 140.228 Q1045.81 131.073 1051.92 121.513 L1058.4 121.513 Z" fill="#000000" fill-rule="evenodd" fill-opacity="1" /><path clip-path="url(#clip850)" d="M1091.74 188.677 Q1088.58 196.779 1085.59 199.25 Q1082.59 201.721 1077.57 201.721 L1071.61 201.721 L1071.61 195.482 L1075.99 195.482 Q1079.06 195.482 1080.77 194.024 Q1082.47 192.566 1084.53 187.138 L1085.87 183.735 L1067.52 139.094 L1075.42 139.094 L1089.6 174.58 L1103.78 139.094 L1111.67 139.094 L1091.74 188.677 Z" fill="#000000" fill-rule="evenodd" fill-opacity="1" /><path clip-path="url(#clip850)" d="M1148.25 146.061 Q1147 145.332 1145.5 145.008 Q1144.04 144.644 1142.26 144.644 Q1135.94 144.644 1132.54 148.776 Q1129.17 152.867 1129.17 160.564 L1129.17 184.464 L1121.68 184.464 L1121.68 139.094 L1129.17 139.094 L1129.17 146.142 Q1131.52 142.011 1135.29 140.026 Q1139.06 138 1144.45 138 Q1145.22 138 1146.15 138.122 Q1147.08 138.203 1148.21 138.405 L1148.25 146.061 Z" fill="#000000" fill-rule="evenodd" fill-opacity="1" /><path clip-path="url(#clip850)" d="M1183.42 146.791 L1235.35 146.791 L1235.35 153.596 L1183.42 153.596 L1183.42 146.791 M1183.42 163.318 L1235.35 163.318 L1235.35 170.205 L1183.42 170.205 L1183.42 163.318 Z" fill="#000000" fill-rule="evenodd" fill-opacity="1" /><path clip-path="url(#clip850)" d="M1286.43 177.577 L1314.99 177.577 L1314.99 184.464 L1276.59 184.464 L1276.59 177.577 Q1281.25 172.757 1289.27 164.655 Q1297.33 156.513 1299.39 154.163 Q1303.32 149.748 1304.86 146.71 Q1306.44 143.631 1306.44 140.674 Q1306.44 135.853 1303.04 132.815 Q1299.68 129.777 1294.25 129.777 Q1290.4 129.777 1286.11 131.114 Q1281.85 132.45 1276.99 135.164 L1276.99 126.901 Q1281.93 124.916 1286.23 123.903 Q1290.52 122.89 1294.09 122.89 Q1303.48 122.89 1309.07 127.589 Q1314.67 132.288 1314.67 140.147 Q1314.67 143.874 1313.25 147.236 Q1311.87 150.558 1308.18 155.095 Q1307.17 156.27 1301.74 161.9 Q1296.31 167.491 1286.43 177.577 Z" fill="#000000" fill-rule="evenodd" fill-opacity="1" /><path clip-path="url(#clip850)" d="M1349.66 129.372 Q1343.35 129.372 1340.15 135.61 Q1336.99 141.808 1336.99 154.285 Q1336.99 166.721 1340.15 172.959 Q1343.35 179.157 1349.66 179.157 Q1356.02 179.157 1359.18 172.959 Q1362.38 166.721 1362.38 154.285 Q1362.38 141.808 1359.18 135.61 Q1356.02 129.372 1349.66 129.372 M1349.66 122.89 Q1359.83 122.89 1365.18 130.952 Q1370.57 138.972 1370.57 154.285 Q1370.57 169.557 1365.18 177.618 Q1359.83 185.639 1349.66 185.639 Q1339.5 185.639 1334.11 177.618 Q1328.76 169.557 1328.76 154.285 Q1328.76 138.972 1334.11 130.952 Q1339.5 122.89 1349.66 122.89 Z" fill="#000000" fill-rule="evenodd" fill-opacity="1" /><path clip-path="url(#clip850)" d="M1386.37 177.577 L1399.73 177.577 L1399.73 131.438 L1385.19 134.354 L1385.19 126.901 L1399.65 123.984 L1407.84 123.984 L1407.84 177.577 L1421.2 177.577 L1421.2 184.464 L1386.37 184.464 L1386.37 177.577 Z" fill="#000000" fill-rule="evenodd" fill-opacity="1" /><path clip-path="url(#clip850)" d="M1437.97 183.208 L1437.97 175.755 Q1441.05 177.213 1444.21 177.983 Q1447.37 178.752 1450.41 178.752 Q1458.51 178.752 1462.77 173.324 Q1467.06 167.855 1467.67 156.756 Q1465.32 160.24 1461.71 162.103 Q1458.11 163.966 1453.73 163.966 Q1444.66 163.966 1439.35 158.498 Q1434.09 152.988 1434.09 143.469 Q1434.09 134.152 1439.6 128.521 Q1445.1 122.89 1454.26 122.89 Q1464.75 122.89 1470.26 130.952 Q1475.81 138.972 1475.81 154.285 Q1475.81 168.584 1469 177.132 Q1462.24 185.639 1450.78 185.639 Q1447.7 185.639 1444.54 185.031 Q1441.38 184.423 1437.97 183.208 M1454.26 157.566 Q1459.77 157.566 1462.97 153.799 Q1466.21 150.031 1466.21 143.469 Q1466.21 136.947 1462.97 133.18 Q1459.77 129.372 1454.26 129.372 Q1448.75 129.372 1445.51 133.18 Q1442.31 136.947 1442.31 143.469 Q1442.31 150.031 1445.51 153.799 Q1448.75 157.566 1454.26 157.566 Z" fill="#000000" fill-rule="evenodd" fill-opacity="1" /><path clip-path="url(#clip850)" d="M1488.29 121.513 L1494.77 121.513 Q1500.84 131.073 1503.84 140.228 Q1506.88 149.383 1506.88 158.417 Q1506.88 167.491 1503.84 176.686 Q1500.84 185.882 1494.77 195.401 L1488.29 195.401 Q1493.67 186.125 1496.31 176.97 Q1498.98 167.774 1498.98 158.417 Q1498.98 149.059 1496.31 139.945 Q1493.67 130.83 1488.29 121.513 Z" fill="#000000" fill-rule="evenodd" fill-opacity="1" /><circle clip-path="url(#clip852)" cx="255.035" cy="938.47" r="14.4" fill="#009af9" fill-rule="evenodd" fill-opacity="1" stroke="#000000" stroke-opacity="1" stroke-width="3.2"/>
<circle clip-path="url(#clip852)" cx="299.309" cy="965.653" r="14.4" fill="#009af9" fill-rule="evenodd" fill-opacity="1" stroke="#000000" stroke-opacity="1" stroke-width="3.2"/>
<circle clip-path="url(#clip852)" cx="343.583" cy="836.196" r="14.4" fill="#009af9" fill-rule="evenodd" fill-opacity="1" stroke="#000000" stroke-opacity="1" stroke-width="3.2"/>
<circle clip-path="url(#clip852)" cx="387.858" cy="977.006" r="14.4" fill="#009af9" fill-rule="evenodd" fill-opacity="1" stroke="#000000" stroke-opacity="1" stroke-width="3.2"/>
<circle clip-path="url(#clip852)" cx="432.132" cy="1437.91" r="14.4" fill="#009af9" fill-rule="evenodd" fill-opacity="1" stroke="#000000" stroke-opacity="1" stroke-width="3.2"/>
<circle clip-path="url(#clip852)" cx="476.407" cy="625.227" r="14.4" fill="#009af9" fill-rule="evenodd" fill-opacity="1" stroke="#000000" stroke-opacity="1" stroke-width="3.2"/>
<circle clip-path="url(#clip852)" cx="520.681" cy="879.801" r="14.4" fill="#009af9" fill-rule="evenodd" fill-opacity="1" stroke="#000000" stroke-opacity="1" stroke-width="3.2"/>
<circle clip-path="url(#clip852)" cx="564.955" cy="882.149" r="14.4" fill="#009af9" fill-rule="evenodd" fill-opacity="1" stroke="#000000" stroke-opacity="1" stroke-width="3.2"/>
<circle clip-path="url(#clip852)" cx="609.23" cy="803.676" r="14.4" fill="#009af9" fill-rule="evenodd" fill-opacity="1" stroke="#000000" stroke-opacity="1" stroke-width="3.2"/>
<circle clip-path="url(#clip852)" cx="653.504" cy="864.955" r="14.4" fill="#009af9" fill-rule="evenodd" fill-opacity="1" stroke="#000000" stroke-opacity="1" stroke-width="3.2"/>
<circle clip-path="url(#clip852)" cx="697.779" cy="956.001" r="14.4" fill="#009af9" fill-rule="evenodd" fill-opacity="1" stroke="#000000" stroke-opacity="1" stroke-width="3.2"/>
<circle clip-path="url(#clip852)" cx="742.053" cy="826.084" r="14.4" fill="#009af9" fill-rule="evenodd" fill-opacity="1" stroke="#000000" stroke-opacity="1" stroke-width="3.2"/>
<circle clip-path="url(#clip852)" cx="786.328" cy="671.922" r="14.4" fill="#009af9" fill-rule="evenodd" fill-opacity="1" stroke="#000000" stroke-opacity="1" stroke-width="3.2"/>
<circle clip-path="url(#clip852)" cx="830.602" cy="728.127" r="14.4" fill="#009af9" fill-rule="evenodd" fill-opacity="1" stroke="#000000" stroke-opacity="1" stroke-width="3.2"/>
<circle clip-path="url(#clip852)" cx="874.876" cy="965.626" r="14.4" fill="#009af9" fill-rule="evenodd" fill-opacity="1" stroke="#000000" stroke-opacity="1" stroke-width="3.2"/>
<circle clip-path="url(#clip852)" cx="919.151" cy="1206.88" r="14.4" fill="#009af9" fill-rule="evenodd" fill-opacity="1" stroke="#000000" stroke-opacity="1" stroke-width="3.2"/>
<circle clip-path="url(#clip852)" cx="963.425" cy="737.964" r="14.4" fill="#009af9" fill-rule="evenodd" fill-opacity="1" stroke="#000000" stroke-opacity="1" stroke-width="3.2"/>
<circle clip-path="url(#clip852)" cx="1007.7" cy="660.928" r="14.4" fill="#009af9" fill-rule="evenodd" fill-opacity="1" stroke="#000000" stroke-opacity="1" stroke-width="3.2"/>
<circle clip-path="url(#clip852)" cx="1051.97" cy="1191.3" r="14.4" fill="#009af9" fill-rule="evenodd" fill-opacity="1" stroke="#000000" stroke-opacity="1" stroke-width="3.2"/>
<circle clip-path="url(#clip852)" cx="1096.25" cy="1277.57" r="14.4" fill="#009af9" fill-rule="evenodd" fill-opacity="1" stroke="#000000" stroke-opacity="1" stroke-width="3.2"/>
<circle clip-path="url(#clip852)" cx="1140.52" cy="638.2" r="14.4" fill="#009af9" fill-rule="evenodd" fill-opacity="1" stroke="#000000" stroke-opacity="1" stroke-width="3.2"/>
<circle clip-path="url(#clip852)" cx="1184.8" cy="1099.43" r="14.4" fill="#009af9" fill-rule="evenodd" fill-opacity="1" stroke="#000000" stroke-opacity="1" stroke-width="3.2"/>
<circle clip-path="url(#clip852)" cx="1229.07" cy="1183.56" r="14.4" fill="#009af9" fill-rule="evenodd" fill-opacity="1" stroke="#000000" stroke-opacity="1" stroke-width="3.2"/>
<circle clip-path="url(#clip852)" cx="1273.35" cy="1016.1" r="14.4" fill="#009af9" fill-rule="evenodd" fill-opacity="1" stroke="#000000" stroke-opacity="1" stroke-width="3.2"/>
<circle clip-path="url(#clip852)" cx="1317.62" cy="772.572" r="14.4" fill="#009af9" fill-rule="evenodd" fill-opacity="1" stroke="#000000" stroke-opacity="1" stroke-width="3.2"/>
<circle clip-path="url(#clip852)" cx="1361.89" cy="1069.78" r="14.4" fill="#009af9" fill-rule="evenodd" fill-opacity="1" stroke="#000000" stroke-opacity="1" stroke-width="3.2"/>
<circle clip-path="url(#clip852)" cx="1406.17" cy="674.493" r="14.4" fill="#009af9" fill-rule="evenodd" fill-opacity="1" stroke="#000000" stroke-opacity="1" stroke-width="3.2"/>
<circle clip-path="url(#clip852)" cx="1450.44" cy="496.548" r="14.4" fill="#009af9" fill-rule="evenodd" fill-opacity="1" stroke="#000000" stroke-opacity="1" stroke-width="3.2"/>
<circle clip-path="url(#clip852)" cx="1494.72" cy="1194.11" r="14.4" fill="#009af9" fill-rule="evenodd" fill-opacity="1" stroke="#000000" stroke-opacity="1" stroke-width="3.2"/>
<circle clip-path="url(#clip852)" cx="1538.99" cy="1009.75" r="14.4" fill="#009af9" fill-rule="evenodd" fill-opacity="1" stroke="#000000" stroke-opacity="1" stroke-width="3.2"/>
<circle clip-path="url(#clip852)" cx="1583.27" cy="885.743" r="14.4" fill="#009af9" fill-rule="evenodd" fill-opacity="1" stroke="#000000" stroke-opacity="1" stroke-width="3.2"/>
<circle clip-path="url(#clip852)" cx="1627.54" cy="1001.35" r="14.4" fill="#009af9" fill-rule="evenodd" fill-opacity="1" stroke="#000000" stroke-opacity="1" stroke-width="3.2"/>
<circle clip-path="url(#clip852)" cx="1671.82" cy="914.595" r="14.4" fill="#009af9" fill-rule="evenodd" fill-opacity="1" stroke="#000000" stroke-opacity="1" stroke-width="3.2"/>
<circle clip-path="url(#clip852)" cx="1716.09" cy="1183.02" r="14.4" fill="#009af9" fill-rule="evenodd" fill-opacity="1" stroke="#000000" stroke-opacity="1" stroke-width="3.2"/>
<circle clip-path="url(#clip852)" cx="1760.36" cy="1046.76" r="14.4" fill="#009af9" fill-rule="evenodd" fill-opacity="1" stroke="#000000" stroke-opacity="1" stroke-width="3.2"/>
<circle clip-path="url(#clip852)" cx="1804.64" cy="1074.49" r="14.4" fill="#009af9" fill-rule="evenodd" fill-opacity="1" stroke="#000000" stroke-opacity="1" stroke-width="3.2"/>
<circle clip-path="url(#clip852)" cx="1848.91" cy="623.003" r="14.4" fill="#009af9" fill-rule="evenodd" fill-opacity="1" stroke="#000000" stroke-opacity="1" stroke-width="3.2"/>
<circle clip-path="url(#clip852)" cx="1893.19" cy="220.815" r="14.4" fill="#009af9" fill-rule="evenodd" fill-opacity="1" stroke="#000000" stroke-opacity="1" stroke-width="3.2"/>
<circle clip-path="url(#clip852)" cx="1937.46" cy="1344.56" r="14.4" fill="#009af9" fill-rule="evenodd" fill-opacity="1" stroke="#000000" stroke-opacity="1" stroke-width="3.2"/>
<circle clip-path="url(#clip852)" cx="1981.74" cy="573.677" r="14.4" fill="#009af9" fill-rule="evenodd" fill-opacity="1" stroke="#000000" stroke-opacity="1" stroke-width="3.2"/>
<circle clip-path="url(#clip852)" cx="2026.01" cy="1038.02" r="14.4" fill="#009af9" fill-rule="evenodd" fill-opacity="1" stroke="#000000" stroke-opacity="1" stroke-width="3.2"/>
<circle clip-path="url(#clip852)" cx="2070.29" cy="833.53" r="14.4" fill="#009af9" fill-rule="evenodd" fill-opacity="1" stroke="#000000" stroke-opacity="1" stroke-width="3.2"/>
<circle clip-path="url(#clip852)" cx="2114.56" cy="1284.79" r="14.4" fill="#009af9" fill-rule="evenodd" fill-opacity="1" stroke="#000000" stroke-opacity="1" stroke-width="3.2"/>
<circle clip-path="url(#clip852)" cx="2158.83" cy="921.609" r="14.4" fill="#009af9" fill-rule="evenodd" fill-opacity="1" stroke="#000000" stroke-opacity="1" stroke-width="3.2"/>
<circle clip-path="url(#clip852)" cx="2203.11" cy="553.867" r="14.4" fill="#009af9" fill-rule="evenodd" fill-opacity="1" stroke="#000000" stroke-opacity="1" stroke-width="3.2"/>
<circle clip-path="url(#clip852)" cx="2247.38" cy="812.312" r="14.4" fill="#009af9" fill-rule="evenodd" fill-opacity="1" stroke="#000000" stroke-opacity="1" stroke-width="3.2"/>
<circle clip-path="url(#clip852)" cx="2291.66" cy="1449.58" r="14.4" fill="#009af9" fill-rule="evenodd" fill-opacity="1" stroke="#000000" stroke-opacity="1" stroke-width="3.2"/>
</svg>
