<?xml version="1.0" encoding="utf-8"?>
<svg xmlns="http://www.w3.org/2000/svg" xmlns:xlink="http://www.w3.org/1999/xlink" width="600" height="400" viewBox="0 0 2400 1600">
<defs>
  <clipPath id="clip880">
    <rect x="0" y="0" width="2400" height="1600"/>
  </clipPath>
</defs>
<path clip-path="url(#clip880)" d="
M0 1600 L2400 1600 L2400 0 L0 0  Z
  " fill="#ffffff" fill-rule="evenodd" fill-opacity="1"/>
<defs>
  <clipPath id="clip881">
    <rect x="480" y="0" width="1681" height="1600"/>
  </clipPath>
</defs>
<path clip-path="url(#clip880)" d="
M155.765 1486.45 L2352.76 1486.45 L2352.76 183.952 L155.765 183.952  Z
  " fill="#ffffff" fill-rule="evenodd" fill-opacity="1"/>
<defs>
  <clipPath id="clip882">
    <rect x="155" y="183" width="2198" height="1303"/>
  </clipPath>
</defs>
<polyline clip-path="url(#clip882)" style="stroke:#000000; stroke-linecap:butt; stroke-linejoin:round; stroke-width:2; stroke-opacity:0.1; fill:none" points="
  582.232,1486.45 582.232,183.952 
  "/>
<polyline clip-path="url(#clip882)" style="stroke:#000000; stroke-linecap:butt; stroke-linejoin:round; stroke-width:2; stroke-opacity:0.1; fill:none" points="
  1070.44,1486.45 1070.44,183.952 
  "/>
<polyline clip-path="url(#clip882)" style="stroke:#000000; stroke-linecap:butt; stroke-linejoin:round; stroke-width:2; stroke-opacity:0.1; fill:none" points="
  1558.65,1486.45 1558.65,183.952 
  "/>
<polyline clip-path="url(#clip882)" style="stroke:#000000; stroke-linecap:butt; stroke-linejoin:round; stroke-width:2; stroke-opacity:0.1; fill:none" points="
  2046.87,1486.45 2046.87,183.952 
  "/>
<polyline clip-path="url(#clip880)" style="stroke:#000000; stroke-linecap:butt; stroke-linejoin:round; stroke-width:4; stroke-opacity:1; fill:none" points="
  155.765,1486.45 2352.76,1486.45 
  "/>
<polyline clip-path="url(#clip880)" style="stroke:#000000; stroke-linecap:butt; stroke-linejoin:round; stroke-width:4; stroke-opacity:1; fill:none" points="
  582.232,1486.45 582.232,1467.55 
  "/>
<polyline clip-path="url(#clip880)" style="stroke:#000000; stroke-linecap:butt; stroke-linejoin:round; stroke-width:4; stroke-opacity:1; fill:none" points="
  1070.44,1486.45 1070.44,1467.55 
  "/>
<polyline clip-path="url(#clip880)" style="stroke:#000000; stroke-linecap:butt; stroke-linejoin:round; stroke-width:4; stroke-opacity:1; fill:none" points="
  1558.65,1486.45 1558.65,1467.55 
  "/>
<polyline clip-path="url(#clip880)" style="stroke:#000000; stroke-linecap:butt; stroke-linejoin:round; stroke-width:4; stroke-opacity:1; fill:none" points="
  2046.87,1486.45 2046.87,1467.55 
  "/>
<path clip-path="url(#clip880)" d="M570.404 1518.36 L558.598 1536.81 L570.404 1536.81 L570.404 1518.36 M569.177 1514.29 L575.056 1514.29 L575.056 1536.81 L579.987 1536.81 L579.987 1540.7 L575.056 1540.7 L575.056 1548.85 L570.404 1548.85 L570.404 1540.7 L554.802 1540.7 L554.802 1536.19 L569.177 1514.29 Z" fill="#000000" fill-rule="evenodd" fill-opacity="1" /><path clip-path="url(#clip880)" d="M597.718 1517.37 Q594.107 1517.37 592.278 1520.93 Q590.473 1524.47 590.473 1531.6 Q590.473 1538.71 592.278 1542.27 Q594.107 1545.82 597.718 1545.82 Q601.352 1545.82 603.158 1542.27 Q604.987 1538.71 604.987 1531.6 Q604.987 1524.47 603.158 1520.93 Q601.352 1517.37 597.718 1517.37 M597.718 1513.66 Q603.528 1513.66 606.584 1518.27 Q609.663 1522.85 609.663 1531.6 Q609.663 1540.33 606.584 1544.94 Q603.528 1549.52 597.718 1549.52 Q591.908 1549.52 588.829 1544.94 Q585.774 1540.33 585.774 1531.6 Q585.774 1522.85 588.829 1518.27 Q591.908 1513.66 597.718 1513.66 Z" fill="#000000" fill-rule="evenodd" fill-opacity="1" /><path clip-path="url(#clip880)" d="M1059.11 1518.36 L1047.31 1536.81 L1059.11 1536.81 L1059.11 1518.36 M1057.89 1514.29 L1063.76 1514.29 L1063.76 1536.81 L1068.7 1536.81 L1068.7 1540.7 L1063.76 1540.7 L1063.76 1548.85 L1059.11 1548.85 L1059.11 1540.7 L1043.51 1540.7 L1043.51 1536.19 L1057.89 1514.29 Z" fill="#000000" fill-rule="evenodd" fill-opacity="1" /><path clip-path="url(#clip880)" d="M1076.47 1514.29 L1094.83 1514.29 L1094.83 1518.22 L1080.76 1518.22 L1080.76 1526.7 Q1081.77 1526.35 1082.79 1526.19 Q1083.81 1526 1084.83 1526 Q1090.62 1526 1094 1529.17 Q1097.38 1532.34 1097.38 1537.76 Q1097.38 1543.34 1093.9 1546.44 Q1090.43 1549.52 1084.11 1549.52 Q1081.94 1549.52 1079.67 1549.15 Q1077.42 1548.78 1075.01 1548.04 L1075.01 1543.34 Q1077.1 1544.47 1079.32 1545.03 Q1081.54 1545.58 1084.02 1545.58 Q1088.02 1545.58 1090.36 1543.48 Q1092.7 1541.37 1092.7 1537.76 Q1092.7 1534.15 1090.36 1532.04 Q1088.02 1529.94 1084.02 1529.94 Q1082.14 1529.94 1080.27 1530.35 Q1078.42 1530.77 1076.47 1531.65 L1076.47 1514.29 Z" fill="#000000" fill-rule="evenodd" fill-opacity="1" /><path clip-path="url(#clip880)" d="M1533.35 1514.29 L1551.71 1514.29 L1551.71 1518.22 L1537.64 1518.22 L1537.64 1526.7 Q1538.65 1526.35 1539.67 1526.19 Q1540.69 1526 1541.71 1526 Q1547.5 1526 1550.88 1529.17 Q1554.26 1532.34 1554.26 1537.76 Q1554.26 1543.34 1550.78 1546.44 Q1547.31 1549.52 1540.99 1549.52 Q1538.82 1549.52 1536.55 1549.15 Q1534.3 1548.78 1531.9 1548.04 L1531.9 1543.34 Q1533.98 1544.47 1536.2 1545.03 Q1538.42 1545.58 1540.9 1545.58 Q1544.9 1545.58 1547.24 1543.48 Q1549.58 1541.37 1549.58 1537.76 Q1549.58 1534.15 1547.24 1532.04 Q1544.9 1529.94 1540.9 1529.94 Q1539.02 1529.94 1537.15 1530.35 Q1535.3 1530.77 1533.35 1531.65 L1533.35 1514.29 Z" fill="#000000" fill-rule="evenodd" fill-opacity="1" /><path clip-path="url(#clip880)" d="M1573.47 1517.37 Q1569.86 1517.37 1568.03 1520.93 Q1566.22 1524.47 1566.22 1531.6 Q1566.22 1538.71 1568.03 1542.27 Q1569.86 1545.82 1573.47 1545.82 Q1577.1 1545.82 1578.91 1542.27 Q1580.74 1538.71 1580.74 1531.6 Q1580.74 1524.47 1578.91 1520.93 Q1577.1 1517.37 1573.47 1517.37 M1573.47 1513.66 Q1579.28 1513.66 1582.33 1518.27 Q1585.41 1522.85 1585.41 1531.6 Q1585.41 1540.33 1582.33 1544.94 Q1579.28 1549.52 1573.47 1549.52 Q1567.66 1549.52 1564.58 1544.94 Q1561.52 1540.33 1561.52 1531.6 Q1561.52 1522.85 1564.58 1518.27 Q1567.66 1513.66 1573.47 1513.66 Z" fill="#000000" fill-rule="evenodd" fill-opacity="1" /><path clip-path="url(#clip880)" d="M2022.06 1514.29 L2040.42 1514.29 L2040.42 1518.22 L2026.34 1518.22 L2026.34 1526.7 Q2027.36 1526.35 2028.38 1526.19 Q2029.4 1526 2030.42 1526 Q2036.21 1526 2039.59 1529.17 Q2042.96 1532.34 2042.96 1537.76 Q2042.96 1543.34 2039.49 1546.44 Q2036.02 1549.52 2029.7 1549.52 Q2027.53 1549.52 2025.26 1549.15 Q2023.01 1548.78 2020.6 1548.04 L2020.6 1543.34 Q2022.69 1544.47 2024.91 1545.03 Q2027.13 1545.58 2029.61 1545.58 Q2033.61 1545.58 2035.95 1543.48 Q2038.29 1541.37 2038.29 1537.76 Q2038.29 1534.15 2035.95 1532.04 Q2033.61 1529.94 2029.61 1529.94 Q2027.73 1529.94 2025.86 1530.35 Q2024.01 1530.77 2022.06 1531.65 L2022.06 1514.29 Z" fill="#000000" fill-rule="evenodd" fill-opacity="1" /><path clip-path="url(#clip880)" d="M2052.22 1514.29 L2070.58 1514.29 L2070.58 1518.22 L2056.51 1518.22 L2056.51 1526.7 Q2057.52 1526.35 2058.54 1526.19 Q2059.56 1526 2060.58 1526 Q2066.37 1526 2069.75 1529.17 Q2073.13 1532.34 2073.13 1537.76 Q2073.13 1543.34 2069.65 1546.44 Q2066.18 1549.52 2059.86 1549.52 Q2057.69 1549.52 2055.42 1549.15 Q2053.17 1548.78 2050.77 1548.04 L2050.77 1543.34 Q2052.85 1544.47 2055.07 1545.03 Q2057.29 1545.58 2059.77 1545.58 Q2063.77 1545.58 2066.11 1543.48 Q2068.45 1541.37 2068.45 1537.76 Q2068.45 1534.15 2066.11 1532.04 Q2063.77 1529.94 2059.77 1529.94 Q2057.9 1529.94 2056.02 1530.35 Q2054.17 1530.77 2052.22 1531.65 L2052.22 1514.29 Z" fill="#000000" fill-rule="evenodd" fill-opacity="1" /><polyline clip-path="url(#clip882)" style="stroke:#000000; stroke-linecap:butt; stroke-linejoin:round; stroke-width:2; stroke-opacity:0.1; fill:none" points="
  155.765,1283.59 2352.76,1283.59 
  "/>
<polyline clip-path="url(#clip882)" style="stroke:#000000; stroke-linecap:butt; stroke-linejoin:round; stroke-width:2; stroke-opacity:0.1; fill:none" points="
  155.765,1078.51 2352.76,1078.51 
  "/>
<polyline clip-path="url(#clip882)" style="stroke:#000000; stroke-linecap:butt; stroke-linejoin:round; stroke-width:2; stroke-opacity:0.1; fill:none" points="
  155.765,873.418 2352.76,873.418 
  "/>
<polyline clip-path="url(#clip882)" style="stroke:#000000; stroke-linecap:butt; stroke-linejoin:round; stroke-width:2; stroke-opacity:0.1; fill:none" points="
  155.765,668.332 2352.76,668.332 
  "/>
<polyline clip-path="url(#clip882)" style="stroke:#000000; stroke-linecap:butt; stroke-linejoin:round; stroke-width:2; stroke-opacity:0.1; fill:none" points="
  155.765,463.245 2352.76,463.245 
  "/>
<polyline clip-path="url(#clip882)" style="stroke:#000000; stroke-linecap:butt; stroke-linejoin:round; stroke-width:2; stroke-opacity:0.1; fill:none" points="
  155.765,258.158 2352.76,258.158 
  "/>
<polyline clip-path="url(#clip880)" style="stroke:#000000; stroke-linecap:butt; stroke-linejoin:round; stroke-width:4; stroke-opacity:1; fill:none" points="
  155.765,1486.45 155.765,183.952 
  "/>
<polyline clip-path="url(#clip880)" style="stroke:#000000; stroke-linecap:butt; stroke-linejoin:round; stroke-width:4; stroke-opacity:1; fill:none" points="
  155.765,1283.59 174.663,1283.59 
  "/>
<polyline clip-path="url(#clip880)" style="stroke:#000000; stroke-linecap:butt; stroke-linejoin:round; stroke-width:4; stroke-opacity:1; fill:none" points="
  155.765,1078.51 174.663,1078.51 
  "/>
<polyline clip-path="url(#clip880)" style="stroke:#000000; stroke-linecap:butt; stroke-linejoin:round; stroke-width:4; stroke-opacity:1; fill:none" points="
  155.765,873.418 174.663,873.418 
  "/>
<polyline clip-path="url(#clip880)" style="stroke:#000000; stroke-linecap:butt; stroke-linejoin:round; stroke-width:4; stroke-opacity:1; fill:none" points="
  155.765,668.332 174.663,668.332 
  "/>
<polyline clip-path="url(#clip880)" style="stroke:#000000; stroke-linecap:butt; stroke-linejoin:round; stroke-width:4; stroke-opacity:1; fill:none" points="
  155.765,463.245 174.663,463.245 
  "/>
<polyline clip-path="url(#clip880)" style="stroke:#000000; stroke-linecap:butt; stroke-linejoin:round; stroke-width:4; stroke-opacity:1; fill:none" points="
  155.765,258.158 174.663,258.158 
  "/>
<path clip-path="url(#clip880)" d="M63.5847 1269.39 Q59.9736 1269.39 58.1449 1272.96 Q56.3393 1276.5 56.3393 1283.63 Q56.3393 1290.73 58.1449 1294.3 Q59.9736 1297.84 63.5847 1297.84 Q67.2189 1297.84 69.0244 1294.3 Q70.8531 1290.73 70.8531 1283.63 Q70.8531 1276.5 69.0244 1272.96 Q67.2189 1269.39 63.5847 1269.39 M63.5847 1265.69 Q69.3948 1265.69 72.4503 1270.29 Q75.529 1274.88 75.529 1283.63 Q75.529 1292.35 72.4503 1296.96 Q69.3948 1301.54 63.5847 1301.54 Q57.7745 1301.54 54.6958 1296.96 Q51.6403 1292.35 51.6403 1283.63 Q51.6403 1274.88 54.6958 1270.29 Q57.7745 1265.69 63.5847 1265.69 Z" fill="#000000" fill-rule="evenodd" fill-opacity="1" /><path clip-path="url(#clip880)" d="M83.7466 1294.99 L88.6308 1294.99 L88.6308 1300.87 L83.7466 1300.87 L83.7466 1294.99 Z" fill="#000000" fill-rule="evenodd" fill-opacity="1" /><path clip-path="url(#clip880)" d="M98.8622 1266.31 L117.219 1266.31 L117.219 1270.25 L103.145 1270.25 L103.145 1278.72 Q104.163 1278.37 105.182 1278.21 Q106.2 1278.02 107.219 1278.02 Q113.006 1278.02 116.385 1281.2 Q119.765 1284.37 119.765 1289.78 Q119.765 1295.36 116.293 1298.46 Q112.82 1301.54 106.501 1301.54 Q104.325 1301.54 102.057 1301.17 Q99.8113 1300.8 97.4039 1300.06 L97.4039 1295.36 Q99.4872 1296.5 101.709 1297.05 Q103.932 1297.61 106.408 1297.61 Q110.413 1297.61 112.751 1295.5 Q115.089 1293.39 115.089 1289.78 Q115.089 1286.17 112.751 1284.07 Q110.413 1281.96 106.408 1281.96 Q104.534 1281.96 102.659 1282.38 Q100.807 1282.79 98.8622 1283.67 L98.8622 1266.31 Z" fill="#000000" fill-rule="evenodd" fill-opacity="1" /><path clip-path="url(#clip880)" d="M53.3995 1091.85 L61.0384 1091.85 L61.0384 1065.48 L52.7282 1067.15 L52.7282 1062.89 L60.9921 1061.23 L65.668 1061.23 L65.668 1091.85 L73.3068 1091.85 L73.3068 1095.79 L53.3995 1095.79 L53.3995 1091.85 Z" fill="#000000" fill-rule="evenodd" fill-opacity="1" /><path clip-path="url(#clip880)" d="M82.7512 1089.91 L87.6354 1089.91 L87.6354 1095.79 L82.7512 1095.79 L82.7512 1089.91 Z" fill="#000000" fill-rule="evenodd" fill-opacity="1" /><path clip-path="url(#clip880)" d="M107.821 1064.3 Q104.209 1064.3 102.381 1067.87 Q100.575 1071.41 100.575 1078.54 Q100.575 1085.65 102.381 1089.21 Q104.209 1092.75 107.821 1092.75 Q111.455 1092.75 113.26 1089.21 Q115.089 1085.65 115.089 1078.54 Q115.089 1071.41 113.26 1067.87 Q111.455 1064.3 107.821 1064.3 M107.821 1060.6 Q113.631 1060.6 116.686 1065.21 Q119.765 1069.79 119.765 1078.54 Q119.765 1087.27 116.686 1091.87 Q113.631 1096.46 107.821 1096.46 Q102.01 1096.46 98.9317 1091.87 Q95.8761 1087.27 95.8761 1078.54 Q95.8761 1069.79 98.9317 1065.21 Q102.01 1060.6 107.821 1060.6 Z" fill="#000000" fill-rule="evenodd" fill-opacity="1" /><path clip-path="url(#clip880)" d="M54.3949 886.763 L62.0337 886.763 L62.0337 860.398 L53.7236 862.064 L53.7236 857.805 L61.9874 856.138 L66.6633 856.138 L66.6633 886.763 L74.3022 886.763 L74.3022 890.698 L54.3949 890.698 L54.3949 886.763 Z" fill="#000000" fill-rule="evenodd" fill-opacity="1" /><path clip-path="url(#clip880)" d="M83.7466 884.819 L88.6308 884.819 L88.6308 890.698 L83.7466 890.698 L83.7466 884.819 Z" fill="#000000" fill-rule="evenodd" fill-opacity="1" /><path clip-path="url(#clip880)" d="M98.8622 856.138 L117.219 856.138 L117.219 860.074 L103.145 860.074 L103.145 868.546 Q104.163 868.199 105.182 868.037 Q106.2 867.851 107.219 867.851 Q113.006 867.851 116.385 871.023 Q119.765 874.194 119.765 879.611 Q119.765 885.189 116.293 888.291 Q112.82 891.37 106.501 891.37 Q104.325 891.37 102.057 890.999 Q99.8113 890.629 97.4039 889.888 L97.4039 885.189 Q99.4872 886.323 101.709 886.879 Q103.932 887.435 106.408 887.435 Q110.413 887.435 112.751 885.328 Q115.089 883.222 115.089 879.611 Q115.089 875.999 112.751 873.893 Q110.413 871.787 106.408 871.787 Q104.534 871.787 102.659 872.203 Q100.807 872.62 98.8622 873.499 L98.8622 856.138 Z" fill="#000000" fill-rule="evenodd" fill-opacity="1" /><path clip-path="url(#clip880)" d="M56.6171 681.677 L72.9365 681.677 L72.9365 685.612 L50.9921 685.612 L50.9921 681.677 Q53.6541 678.922 58.2375 674.292 Q62.8439 669.64 64.0245 668.297 Q66.2698 665.774 67.1494 664.038 Q68.0522 662.279 68.0522 660.589 Q68.0522 657.834 66.1078 656.098 Q64.1865 654.362 61.0847 654.362 Q58.8856 654.362 56.4319 655.126 Q54.0014 655.89 51.2236 657.441 L51.2236 652.718 Q54.0477 651.584 56.5014 651.005 Q58.955 650.427 60.9921 650.427 Q66.3624 650.427 69.5568 653.112 Q72.7513 655.797 72.7513 660.288 Q72.7513 662.417 71.9411 664.339 Q71.1541 666.237 69.0476 668.829 Q68.4689 669.501 65.367 672.718 Q62.2652 675.913 56.6171 681.677 Z" fill="#000000" fill-rule="evenodd" fill-opacity="1" /><path clip-path="url(#clip880)" d="M82.7512 679.732 L87.6354 679.732 L87.6354 685.612 L82.7512 685.612 L82.7512 679.732 Z" fill="#000000" fill-rule="evenodd" fill-opacity="1" /><path clip-path="url(#clip880)" d="M107.821 654.13 Q104.209 654.13 102.381 657.695 Q100.575 661.237 100.575 668.366 Q100.575 675.473 102.381 679.038 Q104.209 682.579 107.821 682.579 Q111.455 682.579 113.26 679.038 Q115.089 675.473 115.089 668.366 Q115.089 661.237 113.26 657.695 Q111.455 654.13 107.821 654.13 M107.821 650.427 Q113.631 650.427 116.686 655.033 Q119.765 659.617 119.765 668.366 Q119.765 677.093 116.686 681.7 Q113.631 686.283 107.821 686.283 Q102.01 686.283 98.9317 681.7 Q95.8761 677.093 95.8761 668.366 Q95.8761 659.617 98.9317 655.033 Q102.01 650.427 107.821 650.427 Z" fill="#000000" fill-rule="evenodd" fill-opacity="1" /><path clip-path="url(#clip880)" d="M57.6125 476.59 L73.9318 476.59 L73.9318 480.525 L51.9875 480.525 L51.9875 476.59 Q54.6495 473.835 59.2328 469.206 Q63.8393 464.553 65.0198 463.21 Q67.2652 460.687 68.1448 458.951 Q69.0476 457.192 69.0476 455.502 Q69.0476 452.747 67.1032 451.011 Q65.1819 449.275 62.08 449.275 Q59.881 449.275 57.4273 450.039 Q54.9967 450.803 52.219 452.354 L52.219 447.632 Q55.043 446.497 57.4967 445.919 Q59.9504 445.34 61.9874 445.34 Q67.3578 445.34 70.5522 448.025 Q73.7466 450.71 73.7466 455.201 Q73.7466 457.331 72.9365 459.252 Q72.1494 461.15 70.0429 463.743 Q69.4642 464.414 66.3624 467.632 Q63.2606 470.826 57.6125 476.59 Z" fill="#000000" fill-rule="evenodd" fill-opacity="1" /><path clip-path="url(#clip880)" d="M83.7466 474.645 L88.6308 474.645 L88.6308 480.525 L83.7466 480.525 L83.7466 474.645 Z" fill="#000000" fill-rule="evenodd" fill-opacity="1" /><path clip-path="url(#clip880)" d="M98.8622 445.965 L117.219 445.965 L117.219 449.9 L103.145 449.9 L103.145 458.372 Q104.163 458.025 105.182 457.863 Q106.2 457.678 107.219 457.678 Q113.006 457.678 116.385 460.849 Q119.765 464.021 119.765 469.437 Q119.765 475.016 116.293 478.118 Q112.82 481.196 106.501 481.196 Q104.325 481.196 102.057 480.826 Q99.8113 480.456 97.4039 479.715 L97.4039 475.016 Q99.4872 476.15 101.709 476.706 Q103.932 477.261 106.408 477.261 Q110.413 477.261 112.751 475.155 Q115.089 473.048 115.089 469.437 Q115.089 465.826 112.751 463.72 Q110.413 461.613 106.408 461.613 Q104.534 461.613 102.659 462.03 Q100.807 462.446 98.8622 463.326 L98.8622 445.965 Z" fill="#000000" fill-rule="evenodd" fill-opacity="1" /><path clip-path="url(#clip880)" d="M66.7559 256.804 Q70.1124 257.522 71.9874 259.79 Q73.8855 262.059 73.8855 265.392 Q73.8855 270.508 70.367 273.309 Q66.8485 276.11 60.3671 276.11 Q58.1912 276.11 55.8764 275.67 Q53.5847 275.253 51.131 274.397 L51.131 269.883 Q53.0754 271.017 55.3903 271.596 Q57.7051 272.175 60.2282 272.175 Q64.6263 272.175 66.918 270.438 Q69.2328 268.702 69.2328 265.392 Q69.2328 262.337 67.08 260.624 Q64.9504 258.888 61.131 258.888 L57.1032 258.888 L57.1032 255.045 L61.3161 255.045 Q64.7652 255.045 66.5939 253.679 Q68.4226 252.29 68.4226 249.698 Q68.4226 247.036 66.5245 245.624 Q64.6495 244.189 61.131 244.189 Q59.2097 244.189 57.0106 244.605 Q54.8115 245.022 52.1727 245.902 L52.1727 241.735 Q54.8347 240.994 57.1495 240.624 Q59.4875 240.253 61.5476 240.253 Q66.8717 240.253 69.9735 242.684 Q73.0753 245.091 73.0753 249.212 Q73.0753 252.082 71.4318 254.073 Q69.7883 256.04 66.7559 256.804 Z" fill="#000000" fill-rule="evenodd" fill-opacity="1" /><path clip-path="url(#clip880)" d="M82.7512 269.559 L87.6354 269.559 L87.6354 275.438 L82.7512 275.438 L82.7512 269.559 Z" fill="#000000" fill-rule="evenodd" fill-opacity="1" /><path clip-path="url(#clip880)" d="M107.821 243.957 Q104.209 243.957 102.381 247.522 Q100.575 251.064 100.575 258.193 Q100.575 265.3 102.381 268.864 Q104.209 272.406 107.821 272.406 Q111.455 272.406 113.26 268.864 Q115.089 265.3 115.089 258.193 Q115.089 251.064 113.26 247.522 Q111.455 243.957 107.821 243.957 M107.821 240.253 Q113.631 240.253 116.686 244.86 Q119.765 249.443 119.765 258.193 Q119.765 266.92 116.686 271.526 Q113.631 276.11 107.821 276.11 Q102.01 276.11 98.9317 271.526 Q95.8761 266.92 95.8761 258.193 Q95.8761 249.443 98.9317 244.86 Q102.01 240.253 107.821 240.253 Z" fill="#000000" fill-rule="evenodd" fill-opacity="1" /><path clip-path="url(#clip880)" d="M550.942 30.7119 L558.396 30.7119 L558.396 93.744 L550.942 93.744 L550.942 30.7119 Z" fill="#000000" fill-rule="evenodd" fill-opacity="1" /><path clip-path="url(#clip880)" d="M591.573 53.5995 Q585.578 53.5995 582.094 58.2986 Q578.61 62.9571 578.61 71.0994 Q578.61 79.2418 582.053 83.9408 Q585.537 88.5994 591.573 88.5994 Q597.528 88.5994 601.012 83.9003 Q604.495 79.2013 604.495 71.0994 Q604.495 63.0381 601.012 58.3391 Q597.528 53.5995 591.573 53.5995 M591.573 47.2801 Q601.295 47.2801 606.845 53.5995 Q612.395 59.9189 612.395 71.0994 Q612.395 82.2394 606.845 88.5994 Q601.295 94.9188 591.573 94.9188 Q581.81 94.9188 576.261 88.5994 Q570.751 82.2394 570.751 71.0994 Q570.751 59.9189 576.261 53.5995 Q581.81 47.2801 591.573 47.2801 Z" fill="#000000" fill-rule="evenodd" fill-opacity="1" /><path clip-path="url(#clip880)" d="M654.605 70.5323 Q654.605 62.4305 651.243 57.9745 Q647.921 53.5185 641.885 53.5185 Q635.89 53.5185 632.528 57.9745 Q629.206 62.4305 629.206 70.5323 Q629.206 78.5936 632.528 83.0496 Q635.89 87.5056 641.885 87.5056 Q647.921 87.5056 651.243 83.0496 Q654.605 78.5936 654.605 70.5323 M662.059 88.1132 Q662.059 99.6988 656.914 105.33 Q651.769 111.001 641.156 111.001 Q637.227 111.001 633.743 110.393 Q630.259 109.826 626.978 108.611 L626.978 101.36 Q630.259 103.142 633.459 103.993 Q636.66 104.843 639.981 104.843 Q647.313 104.843 650.959 100.995 Q654.605 97.1873 654.605 89.45 L654.605 85.7637 Q652.296 89.7741 648.691 91.7591 Q645.085 93.744 640.062 93.744 Q631.717 93.744 626.613 87.3841 Q621.509 81.0242 621.509 70.5323 Q621.509 60 626.613 53.64 Q631.717 47.2801 640.062 47.2801 Q645.085 47.2801 648.691 49.2651 Q652.296 51.25 654.605 55.2604 L654.605 48.3739 L662.059 48.3739 L662.059 88.1132 Z" fill="#000000" fill-rule="evenodd" fill-opacity="1" /><path clip-path="url(#clip880)" d="M695.317 30.7929 Q689.888 40.11 687.255 49.2246 Q684.622 58.3391 684.622 67.6967 Q684.622 77.0543 687.255 86.2498 Q689.929 95.4049 695.317 104.681 L688.835 104.681 Q682.759 95.1618 679.721 85.9663 Q676.723 76.7707 676.723 67.6967 Q676.723 58.6632 679.721 49.5081 Q682.718 40.3531 688.835 30.7929 L695.317 30.7929 Z" fill="#000000" fill-rule="evenodd" fill-opacity="1" /><path clip-path="url(#clip880)" d="M710.102 33.264 L744.859 33.264 L744.859 40.1505 L718.285 40.1505 L718.285 57.9745 L742.267 57.9745 L742.267 64.8611 L718.285 64.8611 L718.285 93.744 L710.102 93.744 L710.102 33.264 Z" fill="#000000" fill-rule="evenodd" fill-opacity="1" /><path clip-path="url(#clip880)" d="M751.462 48.3739 L758.916 48.3739 L758.916 93.744 L751.462 93.744 L751.462 48.3739 M751.462 30.7119 L758.916 30.7119 L758.916 40.1505 L751.462 40.1505 L751.462 30.7119 Z" fill="#000000" fill-rule="evenodd" fill-opacity="1" /><path clip-path="url(#clip880)" d="M800.802 55.3414 Q799.546 54.6123 798.048 54.2882 Q796.589 53.9236 794.807 53.9236 Q788.487 53.9236 785.085 58.0555 Q781.722 62.1469 781.722 69.8437 L781.722 93.744 L774.228 93.744 L774.228 48.3739 L781.722 48.3739 L781.722 55.4224 Q784.072 51.2905 787.839 49.3056 Q791.607 47.2801 796.994 47.2801 Q797.764 47.2801 798.696 47.4017 Q799.627 47.4827 800.762 47.6852 L800.802 55.3414 Z" fill="#000000" fill-rule="evenodd" fill-opacity="1" /><path clip-path="url(#clip880)" d="M845.605 69.1955 L845.605 72.8413 L811.335 72.8413 Q811.821 80.5381 815.953 84.589 Q820.125 88.5994 827.538 88.5994 Q831.832 88.5994 835.843 87.5461 Q839.893 86.4929 843.863 84.3864 L843.863 91.435 Q839.853 93.1364 835.64 94.0276 Q831.427 94.9188 827.093 94.9188 Q816.236 94.9188 809.876 88.5994 Q803.557 82.2799 803.557 71.5045 Q803.557 60.3645 809.552 53.8426 Q815.588 47.2801 825.796 47.2801 Q834.951 47.2801 840.258 53.1944 Q845.605 59.0683 845.605 69.1955 M838.152 67.008 Q838.071 60.8912 834.708 57.2454 Q831.387 53.5995 825.877 53.5995 Q819.639 53.5995 815.872 57.1238 Q812.145 60.6481 811.578 67.0485 L838.152 67.008 Z" fill="#000000" fill-rule="evenodd" fill-opacity="1" /><path clip-path="url(#clip880)" d="M878.458 70.9374 Q869.425 70.9374 865.941 73.0034 Q862.457 75.0693 862.457 80.0519 Q862.457 84.0218 865.05 86.3714 Q867.683 88.6804 872.179 88.6804 Q878.377 88.6804 882.104 84.3054 Q885.871 79.8899 885.871 72.5983 L885.871 70.9374 L878.458 70.9374 M893.325 67.8587 L893.325 93.744 L885.871 93.744 L885.871 86.8575 Q883.319 90.9894 879.511 92.9743 Q875.703 94.9188 870.194 94.9188 Q863.227 94.9188 859.095 91.0299 Q855.003 87.1005 855.003 80.5381 Q855.003 72.8818 860.107 68.993 Q865.252 65.1041 875.42 65.1041 L885.871 65.1041 L885.871 64.3749 Q885.871 59.2303 882.468 56.4352 Q879.106 53.5995 872.989 53.5995 Q869.1 53.5995 865.414 54.5312 Q861.728 55.463 858.325 57.3264 L858.325 50.4398 Q862.416 48.86 866.265 48.0903 Q870.113 47.2801 873.759 47.2801 Q883.603 47.2801 888.464 52.3843 Q893.325 57.4884 893.325 67.8587 Z" fill="#000000" fill-rule="evenodd" fill-opacity="1" /><path clip-path="url(#clip880)" d="M934.968 55.3414 Q933.712 54.6123 932.214 54.2882 Q930.755 53.9236 928.973 53.9236 Q922.653 53.9236 919.251 58.0555 Q915.888 62.1469 915.888 69.8437 L915.888 93.744 L908.394 93.744 L908.394 48.3739 L915.888 48.3739 L915.888 55.4224 Q918.238 51.2905 922.005 49.3056 Q925.773 47.2801 931.16 47.2801 Q931.93 47.2801 932.862 47.4017 Q933.793 47.4827 934.928 47.6852 L934.968 55.3414 Z" fill="#000000" fill-rule="evenodd" fill-opacity="1" /><path clip-path="url(#clip880)" d="M976.652 57.0833 Q979.447 52.0602 983.336 49.6702 Q987.225 47.2801 992.491 47.2801 Q999.58 47.2801 1003.43 52.2627 Q1007.28 57.2048 1007.28 66.3599 L1007.28 93.744 L999.783 93.744 L999.783 66.6029 Q999.783 60.081 997.474 56.9213 Q995.165 53.7616 990.425 53.7616 Q984.632 53.7616 981.27 57.6099 Q977.908 61.4583 977.908 68.1018 L977.908 93.744 L970.414 93.744 L970.414 66.6029 Q970.414 60.0405 968.105 56.9213 Q965.796 53.7616 960.975 53.7616 Q955.263 53.7616 951.901 57.6504 Q948.539 61.4988 948.539 68.1018 L948.539 93.744 L941.044 93.744 L941.044 48.3739 L948.539 48.3739 L948.539 55.4224 Q951.091 51.25 954.656 49.2651 Q958.22 47.2801 963.122 47.2801 Q968.064 47.2801 971.507 49.7917 Q974.991 52.3032 976.652 57.0833 Z" fill="#000000" fill-rule="evenodd" fill-opacity="1" /><path clip-path="url(#clip880)" d="M1048.84 33.264 L1057.02 33.264 L1057.02 58.0555 L1086.76 58.0555 L1086.76 33.264 L1094.94 33.264 L1094.94 93.744 L1086.76 93.744 L1086.76 64.9421 L1057.02 64.9421 L1057.02 93.744 L1048.84 93.744 L1048.84 33.264 Z" fill="#000000" fill-rule="evenodd" fill-opacity="1" /><path clip-path="url(#clip880)" d="M1128.48 53.5995 Q1122.48 53.5995 1119 58.2986 Q1115.52 62.9571 1115.52 71.0994 Q1115.52 79.2418 1118.96 83.9408 Q1122.44 88.5994 1128.48 88.5994 Q1134.43 88.5994 1137.92 83.9003 Q1141.4 79.2013 1141.4 71.0994 Q1141.4 63.0381 1137.92 58.3391 Q1134.43 53.5995 1128.48 53.5995 M1128.48 47.2801 Q1138.2 47.2801 1143.75 53.5995 Q1149.3 59.9189 1149.3 71.0994 Q1149.3 82.2394 1143.75 88.5994 Q1138.2 94.9188 1128.48 94.9188 Q1118.72 94.9188 1113.17 88.5994 Q1107.66 82.2394 1107.66 71.0994 Q1107.66 59.9189 1113.17 53.5995 Q1118.72 47.2801 1128.48 47.2801 Z" fill="#000000" fill-rule="evenodd" fill-opacity="1" /><path clip-path="url(#clip880)" d="M1196.98 57.0833 Q1199.78 52.0602 1203.66 49.6702 Q1207.55 47.2801 1212.82 47.2801 Q1219.91 47.2801 1223.76 52.2627 Q1227.61 57.2048 1227.61 66.3599 L1227.61 93.744 L1220.11 93.744 L1220.11 66.6029 Q1220.11 60.081 1217.8 56.9213 Q1215.49 53.7616 1210.75 53.7616 Q1204.96 53.7616 1201.6 57.6099 Q1198.24 61.4583 1198.24 68.1018 L1198.24 93.744 L1190.74 93.744 L1190.74 66.6029 Q1190.74 60.0405 1188.43 56.9213 Q1186.12 53.7616 1181.3 53.7616 Q1175.59 53.7616 1172.23 57.6504 Q1168.87 61.4988 1168.87 68.1018 L1168.87 93.744 L1161.37 93.744 L1161.37 48.3739 L1168.87 48.3739 L1168.87 55.4224 Q1171.42 51.25 1174.98 49.2651 Q1178.55 47.2801 1183.45 47.2801 Q1188.39 47.2801 1191.84 49.7917 Q1195.32 52.3032 1196.98 57.0833 Z" fill="#000000" fill-rule="evenodd" fill-opacity="1" /><path clip-path="url(#clip880)" d="M1242.47 48.3739 L1249.93 48.3739 L1249.93 93.744 L1242.47 93.744 L1242.47 48.3739 M1242.47 30.7119 L1249.93 30.7119 L1249.93 40.1505 L1242.47 40.1505 L1242.47 30.7119 Z" fill="#000000" fill-rule="evenodd" fill-opacity="1" /><path clip-path="url(#clip880)" d="M1298.17 50.1158 L1298.17 57.0833 Q1295.01 55.3414 1291.81 54.4907 Q1288.65 53.5995 1285.41 53.5995 Q1278.16 53.5995 1274.15 58.2176 Q1270.14 62.7951 1270.14 71.0994 Q1270.14 79.4038 1274.15 84.0218 Q1278.16 88.5994 1285.41 88.5994 Q1288.65 88.5994 1291.81 87.7487 Q1295.01 86.8575 1298.17 85.1156 L1298.17 92.0021 Q1295.05 93.4604 1291.69 94.1896 Q1288.37 94.9188 1284.6 94.9188 Q1274.35 94.9188 1268.32 88.4778 Q1262.28 82.0369 1262.28 71.0994 Q1262.28 60 1268.36 53.64 Q1274.47 47.2801 1285.09 47.2801 Q1288.53 47.2801 1291.81 48.0093 Q1295.09 48.6979 1298.17 50.1158 Z" fill="#000000" fill-rule="evenodd" fill-opacity="1" /><path clip-path="url(#clip880)" d="M1311.14 48.3739 L1318.59 48.3739 L1318.59 93.744 L1311.14 93.744 L1311.14 48.3739 M1311.14 30.7119 L1318.59 30.7119 L1318.59 40.1505 L1311.14 40.1505 L1311.14 30.7119 Z" fill="#000000" fill-rule="evenodd" fill-opacity="1" /><path clip-path="url(#clip880)" d="M1364.04 55.2604 L1364.04 30.7119 L1371.49 30.7119 L1371.49 93.744 L1364.04 93.744 L1364.04 86.9385 Q1361.69 90.9894 1358.09 92.9743 Q1354.52 94.9188 1349.5 94.9188 Q1341.27 94.9188 1336.09 88.3563 Q1330.94 81.7938 1330.94 71.0994 Q1330.94 60.4051 1336.09 53.8426 Q1341.27 47.2801 1349.5 47.2801 Q1354.52 47.2801 1358.09 49.2651 Q1361.69 51.2095 1364.04 55.2604 M1338.64 71.0994 Q1338.64 79.3228 1342 84.0218 Q1345.41 88.6804 1351.32 88.6804 Q1357.23 88.6804 1360.64 84.0218 Q1364.04 79.3228 1364.04 71.0994 Q1364.04 62.8761 1360.64 58.2176 Q1357.23 53.5185 1351.32 53.5185 Q1345.41 53.5185 1342 58.2176 Q1338.64 62.8761 1338.64 71.0994 Z" fill="#000000" fill-rule="evenodd" fill-opacity="1" /><path clip-path="url(#clip880)" d="M1425.65 69.1955 L1425.65 72.8413 L1391.38 72.8413 Q1391.87 80.5381 1396 84.589 Q1400.17 88.5994 1407.59 88.5994 Q1411.88 88.5994 1415.89 87.5461 Q1419.94 86.4929 1423.91 84.3864 L1423.91 91.435 Q1419.9 93.1364 1415.69 94.0276 Q1411.48 94.9188 1407.14 94.9188 Q1396.29 94.9188 1389.93 88.5994 Q1383.61 82.2799 1383.61 71.5045 Q1383.61 60.3645 1389.6 53.8426 Q1395.64 47.2801 1405.85 47.2801 Q1415 47.2801 1420.31 53.1944 Q1425.65 59.0683 1425.65 69.1955 M1418.2 67.008 Q1418.12 60.8912 1414.76 57.2454 Q1411.44 53.5995 1405.93 53.5995 Q1399.69 53.5995 1395.92 57.1238 Q1392.19 60.6481 1391.63 67.0485 L1418.2 67.008 Z" fill="#000000" fill-rule="evenodd" fill-opacity="1" /><path clip-path="url(#clip880)" d="M1490.55 55.3414 Q1489.29 54.6123 1487.8 54.2882 Q1486.34 53.9236 1484.55 53.9236 Q1478.23 53.9236 1474.83 58.0555 Q1471.47 62.1469 1471.47 69.8437 L1471.47 93.744 L1463.98 93.744 L1463.98 48.3739 L1471.47 48.3739 L1471.47 55.4224 Q1473.82 51.2905 1477.59 49.3056 Q1481.35 47.2801 1486.74 47.2801 Q1487.51 47.2801 1488.44 47.4017 Q1489.37 47.4827 1490.51 47.6852 L1490.55 55.3414 Z" fill="#000000" fill-rule="evenodd" fill-opacity="1" /><path clip-path="url(#clip880)" d="M1518.99 70.9374 Q1509.95 70.9374 1506.47 73.0034 Q1502.99 75.0693 1502.99 80.0519 Q1502.99 84.0218 1505.58 86.3714 Q1508.21 88.6804 1512.71 88.6804 Q1518.91 88.6804 1522.63 84.3054 Q1526.4 79.8899 1526.4 72.5983 L1526.4 70.9374 L1518.99 70.9374 M1533.85 67.8587 L1533.85 93.744 L1526.4 93.744 L1526.4 86.8575 Q1523.85 90.9894 1520.04 92.9743 Q1516.23 94.9188 1510.72 94.9188 Q1503.76 94.9188 1499.62 91.0299 Q1495.53 87.1005 1495.53 80.5381 Q1495.53 72.8818 1500.64 68.993 Q1505.78 65.1041 1515.95 65.1041 L1526.4 65.1041 L1526.4 64.3749 Q1526.4 59.2303 1523 56.4352 Q1519.64 53.5995 1513.52 53.5995 Q1509.63 53.5995 1505.94 54.5312 Q1502.26 55.463 1498.85 57.3264 L1498.85 50.4398 Q1502.95 48.86 1506.79 48.0903 Q1510.64 47.2801 1514.29 47.2801 Q1524.13 47.2801 1528.99 52.3843 Q1533.85 57.4884 1533.85 67.8587 Z" fill="#000000" fill-rule="evenodd" fill-opacity="1" /><path clip-path="url(#clip880)" d="M1556.58 35.492 L1556.58 48.3739 L1571.93 48.3739 L1571.93 54.1667 L1556.58 54.1667 L1556.58 78.7962 Q1556.58 84.3459 1558.08 85.9258 Q1559.62 87.5056 1564.28 87.5056 L1571.93 87.5056 L1571.93 93.744 L1564.28 93.744 Q1555.65 93.744 1552.37 90.5438 Q1549.09 87.3031 1549.09 78.7962 L1549.09 54.1667 L1543.62 54.1667 L1543.62 48.3739 L1549.09 48.3739 L1549.09 35.492 L1556.58 35.492 Z" fill="#000000" fill-rule="evenodd" fill-opacity="1" /><path clip-path="url(#clip880)" d="M1620.54 69.1955 L1620.54 72.8413 L1586.27 72.8413 Q1586.76 80.5381 1590.89 84.589 Q1595.06 88.5994 1602.48 88.5994 Q1606.77 88.5994 1610.78 87.5461 Q1614.83 86.4929 1618.8 84.3864 L1618.8 91.435 Q1614.79 93.1364 1610.58 94.0276 Q1606.37 94.9188 1602.03 94.9188 Q1591.17 94.9188 1584.81 88.5994 Q1578.49 82.2799 1578.49 71.5045 Q1578.49 60.3645 1584.49 53.8426 Q1590.53 47.2801 1600.73 47.2801 Q1609.89 47.2801 1615.2 53.1944 Q1620.54 59.0683 1620.54 69.1955 M1613.09 67.008 Q1613.01 60.8912 1609.65 57.2454 Q1606.32 53.5995 1600.82 53.5995 Q1594.58 53.5995 1590.81 57.1238 Q1587.08 60.6481 1586.52 67.0485 L1613.09 67.008 Z" fill="#000000" fill-rule="evenodd" fill-opacity="1" /><path clip-path="url(#clip880)" d="M1631.6 30.7929 L1638.08 30.7929 Q1644.16 40.3531 1647.16 49.5081 Q1650.2 58.6632 1650.2 67.6967 Q1650.2 76.7707 1647.16 85.9663 Q1644.16 95.1618 1638.08 104.681 L1631.6 104.681 Q1636.99 95.4049 1639.62 86.2498 Q1642.3 77.0543 1642.3 67.6967 Q1642.3 58.3391 1639.62 49.2246 Q1636.99 40.11 1631.6 30.7929 Z" fill="#000000" fill-rule="evenodd" fill-opacity="1" /><path clip-path="url(#clip880)" d="M1686.17 48.3739 L1694.07 48.3739 L1708.25 86.4524 L1722.42 48.3739 L1730.32 48.3739 L1713.31 93.744 L1703.18 93.744 L1686.17 48.3739 Z" fill="#000000" fill-rule="evenodd" fill-opacity="1" /><path clip-path="url(#clip880)" d="M1769.54 49.7107 L1769.54 56.7592 Q1766.38 55.1389 1762.97 54.3287 Q1759.57 53.5185 1755.92 53.5185 Q1750.37 53.5185 1747.58 55.2199 Q1744.82 56.9213 1744.82 60.324 Q1744.82 62.9166 1746.81 64.4155 Q1748.79 65.8738 1754.79 67.2106 L1757.34 67.7777 Q1765.28 69.4791 1768.6 72.5983 Q1771.97 75.677 1771.97 81.2267 Q1771.97 87.5461 1766.94 91.2324 Q1761.96 94.9188 1753.21 94.9188 Q1749.56 94.9188 1745.59 94.1896 Q1741.67 93.5009 1737.29 92.0831 L1737.29 84.3864 Q1741.42 86.5334 1745.43 87.6271 Q1749.44 88.6804 1753.37 88.6804 Q1758.64 88.6804 1761.47 86.898 Q1764.31 85.0751 1764.31 81.7938 Q1764.31 78.7557 1762.24 77.1353 Q1760.22 75.5149 1753.29 74.0161 L1750.7 73.4085 Q1743.77 71.9501 1740.69 68.9525 Q1737.61 65.9143 1737.61 60.6481 Q1737.61 54.2477 1742.15 50.7639 Q1746.69 47.2801 1755.03 47.2801 Q1759.17 47.2801 1762.81 47.8878 Q1766.46 48.4954 1769.54 49.7107 Z" fill="#000000" fill-rule="evenodd" fill-opacity="1" /><path clip-path="url(#clip880)" d="M1851.77 85.1156 L1851.77 68.8714 L1838.4 68.8714 L1838.4 62.1469 L1859.87 62.1469 L1859.87 88.1132 Q1855.13 91.4755 1849.42 93.2174 Q1843.71 94.9188 1837.23 94.9188 Q1823.05 94.9188 1815.03 86.6549 Q1807.05 78.3506 1807.05 63.5648 Q1807.05 48.7385 1815.03 40.4746 Q1823.05 32.1703 1837.23 32.1703 Q1843.14 32.1703 1848.45 33.6286 Q1853.79 35.0869 1858.29 37.9225 L1858.29 46.632 Q1853.75 42.7836 1848.65 40.8392 Q1843.55 38.8948 1837.91 38.8948 Q1826.82 38.8948 1821.22 45.0926 Q1815.68 51.2905 1815.68 63.5648 Q1815.68 75.7985 1821.22 81.9964 Q1826.82 88.1943 1837.91 88.1943 Q1842.25 88.1943 1845.65 87.4651 Q1849.05 86.6954 1851.77 85.1156 Z" fill="#000000" fill-rule="evenodd" fill-opacity="1" /><path clip-path="url(#clip880)" d="M1874.49 48.3739 L1881.95 48.3739 L1881.95 93.744 L1874.49 93.744 L1874.49 48.3739 M1874.49 30.7119 L1881.95 30.7119 L1881.95 40.1505 L1874.49 40.1505 L1874.49 30.7119 Z" fill="#000000" fill-rule="evenodd" fill-opacity="1" /><path clip-path="url(#clip880)" d="M1935.26 66.3599 L1935.26 93.744 L1927.8 93.744 L1927.8 66.6029 Q1927.8 60.162 1925.29 56.9618 Q1922.78 53.7616 1917.76 53.7616 Q1911.72 53.7616 1908.24 57.6099 Q1904.75 61.4583 1904.75 68.1018 L1904.75 93.744 L1897.26 93.744 L1897.26 48.3739 L1904.75 48.3739 L1904.75 55.4224 Q1907.43 51.331 1911.03 49.3056 Q1914.68 47.2801 1919.42 47.2801 Q1927.24 47.2801 1931.25 52.1412 Q1935.26 56.9618 1935.26 66.3599 Z" fill="#000000" fill-rule="evenodd" fill-opacity="1" /><path clip-path="url(#clip880)" d="M1950.12 48.3739 L1957.58 48.3739 L1957.58 93.744 L1950.12 93.744 L1950.12 48.3739 M1950.12 30.7119 L1957.58 30.7119 L1957.58 40.1505 L1950.12 40.1505 L1950.12 30.7119 Z" fill="#000000" fill-rule="evenodd" fill-opacity="1" /><path clip-path="url(#clip880)" d="M820.044 123.984 L828.267 123.984 L828.267 160.726 Q828.267 170.448 831.792 174.742 Q835.316 178.995 843.215 178.995 Q851.074 178.995 854.598 174.742 Q858.122 170.448 858.122 160.726 L858.122 123.984 L866.346 123.984 L866.346 161.738 Q866.346 173.567 860.472 179.603 Q854.639 185.639 843.215 185.639 Q831.751 185.639 825.877 179.603 Q820.044 173.567 820.044 161.738 L820.044 123.984 Z" fill="#000000" fill-rule="evenodd" fill-opacity="1" /><path clip-path="url(#clip880)" d="M917.954 125.969 L917.954 133.949 Q913.296 131.721 909.164 130.627 Q905.032 129.534 901.184 129.534 Q894.5 129.534 890.854 132.126 Q887.248 134.719 887.248 139.499 Q887.248 143.509 889.639 145.575 Q892.069 147.601 898.794 148.857 L903.736 149.869 Q912.891 151.611 917.225 156.027 Q921.6 160.402 921.6 167.774 Q921.6 176.565 915.686 181.102 Q909.812 185.639 898.429 185.639 Q894.135 185.639 889.274 184.667 Q884.453 183.694 879.268 181.79 L879.268 173.365 Q884.251 176.16 889.031 177.577 Q893.811 178.995 898.429 178.995 Q905.437 178.995 909.245 176.241 Q913.053 173.486 913.053 168.382 Q913.053 163.926 910.298 161.414 Q907.584 158.903 901.346 157.647 L896.363 156.675 Q887.208 154.852 883.117 150.963 Q879.025 147.074 879.025 140.147 Q879.025 132.126 884.656 127.508 Q890.327 122.89 900.252 122.89 Q904.505 122.89 908.921 123.66 Q913.336 124.43 917.954 125.969 Z" fill="#000000" fill-rule="evenodd" fill-opacity="1" /><path clip-path="url(#clip880)" d="M996.987 125.969 L996.987 133.949 Q992.329 131.721 988.197 130.627 Q984.065 129.534 980.217 129.534 Q973.533 129.534 969.887 132.126 Q966.282 134.719 966.282 139.499 Q966.282 143.509 968.672 145.575 Q971.102 147.601 977.827 148.857 L982.769 149.869 Q991.924 151.611 996.258 156.027 Q1000.63 160.402 1000.63 167.774 Q1000.63 176.565 994.719 181.102 Q988.845 185.639 977.462 185.639 Q973.168 185.639 968.307 184.667 Q963.487 183.694 958.301 181.79 L958.301 173.365 Q963.284 176.16 968.064 177.577 Q972.844 178.995 977.462 178.995 Q984.47 178.995 988.278 176.241 Q992.086 173.486 992.086 168.382 Q992.086 163.926 989.331 161.414 Q986.617 158.903 980.379 157.647 L975.396 156.675 Q966.241 154.852 962.15 150.963 Q958.058 147.074 958.058 140.147 Q958.058 132.126 963.689 127.508 Q969.36 122.89 979.285 122.89 Q983.538 122.89 987.954 123.66 Q992.369 124.43 996.987 125.969 Z" fill="#000000" fill-rule="evenodd" fill-opacity="1" /><path clip-path="url(#clip880)" d="M1020.44 126.212 L1020.44 139.094 L1035.8 139.094 L1035.8 144.887 L1020.44 144.887 L1020.44 169.516 Q1020.44 175.066 1021.94 176.646 Q1023.48 178.226 1028.14 178.226 L1035.8 178.226 L1035.8 184.464 L1028.14 184.464 Q1019.51 184.464 1016.23 181.264 Q1012.95 178.023 1012.95 169.516 L1012.95 144.887 L1007.48 144.887 L1007.48 139.094 L1012.95 139.094 L1012.95 126.212 L1020.44 126.212 Z" fill="#000000" fill-rule="evenodd" fill-opacity="1" /><path clip-path="url(#clip880)" d="M1066.22 161.657 Q1057.18 161.657 1053.7 163.723 Q1050.22 165.789 1050.22 170.772 Q1050.22 174.742 1052.81 177.091 Q1055.44 179.4 1059.94 179.4 Q1066.14 179.4 1069.86 175.025 Q1073.63 170.61 1073.63 163.318 L1073.63 161.657 L1066.22 161.657 M1081.08 158.579 L1081.08 184.464 L1073.63 184.464 L1073.63 177.577 Q1071.08 181.709 1067.27 183.694 Q1063.46 185.639 1057.95 185.639 Q1050.99 185.639 1046.85 181.75 Q1042.76 177.821 1042.76 171.258 Q1042.76 163.602 1047.87 159.713 Q1053.01 155.824 1063.18 155.824 L1073.63 155.824 L1073.63 155.095 Q1073.63 149.95 1070.23 147.155 Q1066.87 144.32 1060.75 144.32 Q1056.86 144.32 1053.17 145.251 Q1049.49 146.183 1046.08 148.046 L1046.08 141.16 Q1050.18 139.58 1054.02 138.81 Q1057.87 138 1061.52 138 Q1071.36 138 1076.22 143.104 Q1081.08 148.208 1081.08 158.579 Z" fill="#000000" fill-rule="evenodd" fill-opacity="1" /><path clip-path="url(#clip880)" d="M1103.81 126.212 L1103.81 139.094 L1119.16 139.094 L1119.16 144.887 L1103.81 144.887 L1103.81 169.516 Q1103.81 175.066 1105.31 176.646 Q1106.85 178.226 1111.51 178.226 L1119.16 178.226 L1119.16 184.464 L1111.51 184.464 Q1102.88 184.464 1099.6 181.264 Q1096.32 178.023 1096.32 169.516 L1096.32 144.887 L1090.85 144.887 L1090.85 139.094 L1096.32 139.094 L1096.32 126.212 L1103.81 126.212 Z" fill="#000000" fill-rule="evenodd" fill-opacity="1" /><path clip-path="url(#clip880)" d="M1167.77 159.916 L1167.77 163.561 L1133.5 163.561 Q1133.99 171.258 1138.12 175.309 Q1142.29 179.319 1149.71 179.319 Q1154 179.319 1158.01 178.266 Q1162.06 177.213 1166.03 175.106 L1166.03 182.155 Q1162.02 183.856 1157.81 184.748 Q1153.6 185.639 1149.26 185.639 Q1138.4 185.639 1132.04 179.319 Q1125.73 173 1125.73 162.225 Q1125.73 151.085 1131.72 144.563 Q1137.76 138 1147.96 138 Q1157.12 138 1162.43 143.914 Q1167.77 149.788 1167.77 159.916 M1160.32 157.728 Q1160.24 151.611 1156.88 147.965 Q1153.55 144.32 1148.05 144.32 Q1141.81 144.32 1138.04 147.844 Q1134.31 151.368 1133.75 157.769 L1160.32 157.728 Z" fill="#000000" fill-rule="evenodd" fill-opacity="1" /><path clip-path="url(#clip880)" d="M1208.93 140.431 L1208.93 147.479 Q1205.77 145.859 1202.37 145.049 Q1198.97 144.239 1195.32 144.239 Q1189.77 144.239 1186.97 145.94 Q1184.22 147.641 1184.22 151.044 Q1184.22 153.637 1186.21 155.135 Q1188.19 156.594 1194.19 157.931 L1196.74 158.498 Q1204.68 160.199 1208 163.318 Q1211.36 166.397 1211.36 171.947 Q1211.36 178.266 1206.34 181.952 Q1201.36 185.639 1192.61 185.639 Q1188.96 185.639 1184.99 184.91 Q1181.06 184.221 1176.69 182.803 L1176.69 175.106 Q1180.82 177.253 1184.83 178.347 Q1188.84 179.4 1192.77 179.4 Q1198.03 179.4 1200.87 177.618 Q1203.71 175.795 1203.71 172.514 Q1203.71 169.476 1201.64 167.855 Q1199.61 166.235 1192.69 164.736 L1190.09 164.128 Q1183.17 162.67 1180.09 159.672 Q1177.01 156.634 1177.01 151.368 Q1177.01 144.968 1181.55 141.484 Q1186.08 138 1194.43 138 Q1198.56 138 1202.21 138.608 Q1205.85 139.215 1208.93 140.431 Z" fill="#000000" fill-rule="evenodd" fill-opacity="1" /><path clip-path="url(#clip880)" d="M1257.7 177.577 L1286.26 177.577 L1286.26 184.464 L1247.86 184.464 L1247.86 177.577 Q1252.52 172.757 1260.54 164.655 Q1268.6 156.513 1270.67 154.163 Q1274.6 149.748 1276.14 146.71 Q1277.72 143.631 1277.72 140.674 Q1277.72 135.853 1274.31 132.815 Q1270.95 129.777 1265.52 129.777 Q1261.67 129.777 1257.38 131.114 Q1253.13 132.45 1248.27 135.164 L1248.27 126.901 Q1253.21 124.916 1257.5 123.903 Q1261.8 122.89 1265.36 122.89 Q1274.76 122.89 1280.35 127.589 Q1285.94 132.288 1285.94 140.147 Q1285.94 143.874 1284.52 147.236 Q1283.14 150.558 1279.46 155.095 Q1278.44 156.27 1273.02 161.9 Q1267.59 167.491 1257.7 177.577 Z" fill="#000000" fill-rule="evenodd" fill-opacity="1" /><path clip-path="url(#clip880)" d="M1320.94 129.372 Q1314.62 129.372 1311.42 135.61 Q1308.26 141.808 1308.26 154.285 Q1308.26 166.721 1311.42 172.959 Q1314.62 179.157 1320.94 179.157 Q1327.3 179.157 1330.46 172.959 Q1333.66 166.721 1333.66 154.285 Q1333.66 141.808 1330.46 135.61 Q1327.3 129.372 1320.94 129.372 M1320.94 122.89 Q1331.11 122.89 1336.45 130.952 Q1341.84 138.972 1341.84 154.285 Q1341.84 169.557 1336.45 177.618 Q1331.11 185.639 1320.94 185.639 Q1310.77 185.639 1305.38 177.618 Q1300.04 169.557 1300.04 154.285 Q1300.04 138.972 1305.38 130.952 Q1310.77 122.89 1320.94 122.89 Z" fill="#000000" fill-rule="evenodd" fill-opacity="1" /><path clip-path="url(#clip880)" d="M1357.64 177.577 L1371.01 177.577 L1371.01 131.438 L1356.46 134.354 L1356.46 126.901 L1370.93 123.984 L1379.11 123.984 L1379.11 177.577 L1392.48 177.577 L1392.48 184.464 L1357.64 184.464 L1357.64 177.577 Z" fill="#000000" fill-rule="evenodd" fill-opacity="1" /><path clip-path="url(#clip880)" d="M1427.52 150.963 Q1422.01 150.963 1418.77 154.73 Q1415.57 158.498 1415.57 165.06 Q1415.57 171.582 1418.77 175.39 Q1422.01 179.157 1427.52 179.157 Q1433.03 179.157 1436.23 175.39 Q1439.47 171.582 1439.47 165.06 Q1439.47 158.498 1436.23 154.73 Q1433.03 150.963 1427.52 150.963 M1443.76 125.321 L1443.76 132.774 Q1440.68 131.316 1437.52 130.546 Q1434.4 129.777 1431.33 129.777 Q1423.22 129.777 1418.93 135.246 Q1414.68 140.714 1414.07 151.773 Q1416.46 148.249 1420.06 146.386 Q1423.67 144.482 1428 144.482 Q1437.12 144.482 1442.38 150.031 Q1447.69 155.541 1447.69 165.06 Q1447.69 174.377 1442.18 180.008 Q1436.67 185.639 1427.52 185.639 Q1417.03 185.639 1411.48 177.618 Q1405.93 169.557 1405.93 154.285 Q1405.93 139.945 1412.73 131.438 Q1419.54 122.89 1431 122.89 Q1434.08 122.89 1437.2 123.498 Q1440.36 124.106 1443.76 125.321 Z" fill="#000000" fill-rule="evenodd" fill-opacity="1" /><path clip-path="url(#clip880)" d="M1456.97 158.417 L1478.8 158.417 L1478.8 165.06 L1456.97 165.06 L1456.97 158.417 Z" fill="#000000" fill-rule="evenodd" fill-opacity="1" /><path clip-path="url(#clip880)" d="M1498.77 177.577 L1527.33 177.577 L1527.33 184.464 L1488.93 184.464 L1488.93 177.577 Q1493.59 172.757 1501.61 164.655 Q1509.67 156.513 1511.74 154.163 Q1515.67 149.748 1517.2 146.71 Q1518.78 143.631 1518.78 140.674 Q1518.78 135.853 1515.38 132.815 Q1512.02 129.777 1506.59 129.777 Q1502.74 129.777 1498.45 131.114 Q1494.2 132.45 1489.33 135.164 L1489.33 126.901 Q1494.28 124.916 1498.57 123.903 Q1502.86 122.89 1506.43 122.89 Q1515.83 122.89 1521.42 127.589 Q1527.01 132.288 1527.01 140.147 Q1527.01 143.874 1525.59 147.236 Q1524.21 150.558 1520.53 155.095 Q1519.51 156.27 1514.09 161.9 Q1508.66 167.491 1498.77 177.577 Z" fill="#000000" fill-rule="evenodd" fill-opacity="1" /><path clip-path="url(#clip880)" d="M1562.01 129.372 Q1555.69 129.372 1552.49 135.61 Q1549.33 141.808 1549.33 154.285 Q1549.33 166.721 1552.49 172.959 Q1555.69 179.157 1562.01 179.157 Q1568.37 179.157 1571.53 172.959 Q1574.73 166.721 1574.73 154.285 Q1574.73 141.808 1571.53 135.61 Q1568.37 129.372 1562.01 129.372 M1562.01 122.89 Q1572.18 122.89 1577.52 130.952 Q1582.91 138.972 1582.91 154.285 Q1582.91 169.557 1577.52 177.618 Q1572.18 185.639 1562.01 185.639 Q1551.84 185.639 1546.45 177.618 Q1541.1 169.557 1541.1 154.285 Q1541.1 138.972 1546.45 130.952 Q1551.84 122.89 1562.01 122.89 Z" fill="#000000" fill-rule="evenodd" fill-opacity="1" /><path clip-path="url(#clip880)" d="M1604.34 177.577 L1632.9 177.577 L1632.9 184.464 L1594.5 184.464 L1594.5 177.577 Q1599.15 172.757 1607.18 164.655 Q1615.24 156.513 1617.3 154.163 Q1621.23 149.748 1622.77 146.71 Q1624.35 143.631 1624.35 140.674 Q1624.35 135.853 1620.95 132.815 Q1617.59 129.777 1612.16 129.777 Q1608.31 129.777 1604.02 131.114 Q1599.76 132.45 1594.9 135.164 L1594.9 126.901 Q1599.84 124.916 1604.14 123.903 Q1608.43 122.89 1612 122.89 Q1621.39 122.89 1626.98 127.589 Q1632.57 132.288 1632.57 140.147 Q1632.57 143.874 1631.16 147.236 Q1629.78 150.558 1626.09 155.095 Q1625.08 156.27 1619.65 161.9 Q1614.22 167.491 1604.34 177.577 Z" fill="#000000" fill-rule="evenodd" fill-opacity="1" /><path clip-path="url(#clip880)" d="M1667.57 129.372 Q1661.25 129.372 1658.05 135.61 Q1654.89 141.808 1654.89 154.285 Q1654.89 166.721 1658.05 172.959 Q1661.25 179.157 1667.57 179.157 Q1673.93 179.157 1677.09 172.959 Q1680.29 166.721 1680.29 154.285 Q1680.29 141.808 1677.09 135.61 Q1673.93 129.372 1667.57 129.372 M1667.57 122.89 Q1677.74 122.89 1683.09 130.952 Q1688.48 138.972 1688.48 154.285 Q1688.48 169.557 1683.09 177.618 Q1677.74 185.639 1667.57 185.639 Q1657.41 185.639 1652.02 177.618 Q1646.67 169.557 1646.67 154.285 Q1646.67 138.972 1652.02 130.952 Q1657.41 122.89 1667.57 122.89 Z" fill="#000000" fill-rule="evenodd" fill-opacity="1" /><circle clip-path="url(#clip882)" cx="1305.16" cy="573.986" r="14.4" fill="#009af9" fill-rule="evenodd" fill-opacity="1" stroke="#000000" stroke-opacity="1" stroke-width="3.2"/>
<circle clip-path="url(#clip882)" cx="1157.12" cy="528.132" r="14.4" fill="#009af9" fill-rule="evenodd" fill-opacity="1" stroke="#000000" stroke-opacity="1" stroke-width="3.2"/>
<circle clip-path="url(#clip882)" cx="1318.56" cy="560.964" r="14.4" fill="#009af9" fill-rule="evenodd" fill-opacity="1" stroke="#000000" stroke-opacity="1" stroke-width="3.2"/>
<circle clip-path="url(#clip882)" cx="1188.33" cy="548.342" r="14.4" fill="#009af9" fill-rule="evenodd" fill-opacity="1" stroke="#000000" stroke-opacity="1" stroke-width="3.2"/>
<circle clip-path="url(#clip882)" cx="1022.29" cy="486.893" r="14.4" fill="#009af9" fill-rule="evenodd" fill-opacity="1" stroke="#000000" stroke-opacity="1" stroke-width="3.2"/>
<circle clip-path="url(#clip882)" cx="953.592" cy="746.967" r="14.4" fill="#009af9" fill-rule="evenodd" fill-opacity="1" stroke="#000000" stroke-opacity="1" stroke-width="3.2"/>
<circle clip-path="url(#clip882)" cx="591.032" cy="740.297" r="14.4" fill="#009af9" fill-rule="evenodd" fill-opacity="1" stroke="#000000" stroke-opacity="1" stroke-width="3.2"/>
<circle clip-path="url(#clip882)" cx="783.44" cy="828.53" r="14.4" fill="#009af9" fill-rule="evenodd" fill-opacity="1" stroke="#000000" stroke-opacity="1" stroke-width="3.2"/>
<circle clip-path="url(#clip882)" cx="847.855" cy="690.518" r="14.4" fill="#009af9" fill-rule="evenodd" fill-opacity="1" stroke="#000000" stroke-opacity="1" stroke-width="3.2"/>
<circle clip-path="url(#clip882)" cx="344.886" cy="952.035" r="14.4" fill="#009af9" fill-rule="evenodd" fill-opacity="1" stroke="#000000" stroke-opacity="1" stroke-width="3.2"/>
<circle clip-path="url(#clip882)" cx="1317.35" cy="880.964" r="14.4" fill="#009af9" fill-rule="evenodd" fill-opacity="1" stroke="#000000" stroke-opacity="1" stroke-width="3.2"/>
<circle clip-path="url(#clip882)" cx="1393.02" cy="890.393" r="14.4" fill="#009af9" fill-rule="evenodd" fill-opacity="1" stroke="#000000" stroke-opacity="1" stroke-width="3.2"/>
<circle clip-path="url(#clip882)" cx="1009.31" cy="909.929" r="14.4" fill="#009af9" fill-rule="evenodd" fill-opacity="1" stroke="#000000" stroke-opacity="1" stroke-width="3.2"/>
<circle clip-path="url(#clip882)" cx="1125.09" cy="930.442" r="14.4" fill="#009af9" fill-rule="evenodd" fill-opacity="1" stroke="#000000" stroke-opacity="1" stroke-width="3.2"/>
<circle clip-path="url(#clip882)" cx="1370.79" cy="820.407" r="14.4" fill="#009af9" fill-rule="evenodd" fill-opacity="1" stroke="#000000" stroke-opacity="1" stroke-width="3.2"/>
<circle clip-path="url(#clip882)" cx="919.883" cy="746.967" r="14.4" fill="#009af9" fill-rule="evenodd" fill-opacity="1" stroke="#000000" stroke-opacity="1" stroke-width="3.2"/>
<circle clip-path="url(#clip882)" cx="900.459" cy="727.274" r="14.4" fill="#009af9" fill-rule="evenodd" fill-opacity="1" stroke="#000000" stroke-opacity="1" stroke-width="3.2"/>
<circle clip-path="url(#clip882)" cx="1095.16" cy="727.274" r="14.4" fill="#009af9" fill-rule="evenodd" fill-opacity="1" stroke="#000000" stroke-opacity="1" stroke-width="3.2"/>
<circle clip-path="url(#clip882)" cx="1258.24" cy="696.42" r="14.4" fill="#009af9" fill-rule="evenodd" fill-opacity="1" stroke="#000000" stroke-opacity="1" stroke-width="3.2"/>
<circle clip-path="url(#clip882)" cx="1063" cy="573.986" r="14.4" fill="#009af9" fill-rule="evenodd" fill-opacity="1" stroke="#000000" stroke-opacity="1" stroke-width="3.2"/>
<circle clip-path="url(#clip882)" cx="1532.32" cy="952.035" r="14.4" fill="#009af9" fill-rule="evenodd" fill-opacity="1" stroke="#000000" stroke-opacity="1" stroke-width="3.2"/>
<circle clip-path="url(#clip882)" cx="1296.12" cy="963.274" r="14.4" fill="#009af9" fill-rule="evenodd" fill-opacity="1" stroke="#000000" stroke-opacity="1" stroke-width="3.2"/>
<circle clip-path="url(#clip882)" cx="1393.56" cy="1011.59" r="14.4" fill="#009af9" fill-rule="evenodd" fill-opacity="1" stroke="#000000" stroke-opacity="1" stroke-width="3.2"/>
<circle clip-path="url(#clip882)" cx="1661.08" cy="1011.59" r="14.4" fill="#009af9" fill-rule="evenodd" fill-opacity="1" stroke="#000000" stroke-opacity="1" stroke-width="3.2"/>
<circle clip-path="url(#clip882)" cx="1605.03" cy="880.964" r="14.4" fill="#009af9" fill-rule="evenodd" fill-opacity="1" stroke="#000000" stroke-opacity="1" stroke-width="3.2"/>
<circle clip-path="url(#clip882)" cx="1212.03" cy="1051.96" r="14.4" fill="#009af9" fill-rule="evenodd" fill-opacity="1" stroke="#000000" stroke-opacity="1" stroke-width="3.2"/>
<circle clip-path="url(#clip882)" cx="1349.13" cy="1051.96" r="14.4" fill="#009af9" fill-rule="evenodd" fill-opacity="1" stroke="#000000" stroke-opacity="1" stroke-width="3.2"/>
<circle clip-path="url(#clip882)" cx="1349.51" cy="998.963" r="14.4" fill="#009af9" fill-rule="evenodd" fill-opacity="1" stroke="#000000" stroke-opacity="1" stroke-width="3.2"/>
<circle clip-path="url(#clip882)" cx="1251.46" cy="1066.36" r="14.4" fill="#009af9" fill-rule="evenodd" fill-opacity="1" stroke="#000000" stroke-opacity="1" stroke-width="3.2"/>
<circle clip-path="url(#clip882)" cx="1012.06" cy="920.057" r="14.4" fill="#009af9" fill-rule="evenodd" fill-opacity="1" stroke="#000000" stroke-opacity="1" stroke-width="3.2"/>
<circle clip-path="url(#clip882)" cx="1444.39" cy="1322.37" r="14.4" fill="#009af9" fill-rule="evenodd" fill-opacity="1" stroke="#000000" stroke-opacity="1" stroke-width="3.2"/>
<circle clip-path="url(#clip882)" cx="1213.25" cy="1204.37" r="14.4" fill="#009af9" fill-rule="evenodd" fill-opacity="1" stroke="#000000" stroke-opacity="1" stroke-width="3.2"/>
<circle clip-path="url(#clip882)" cx="1091.04" cy="1322.37" r="14.4" fill="#009af9" fill-rule="evenodd" fill-opacity="1" stroke="#000000" stroke-opacity="1" stroke-width="3.2"/>
<circle clip-path="url(#clip882)" cx="1446.34" cy="1247.58" r="14.4" fill="#009af9" fill-rule="evenodd" fill-opacity="1" stroke="#000000" stroke-opacity="1" stroke-width="3.2"/>
<circle clip-path="url(#clip882)" cx="1007.37" cy="1066.36" r="14.4" fill="#009af9" fill-rule="evenodd" fill-opacity="1" stroke="#000000" stroke-opacity="1" stroke-width="3.2"/>
<circle clip-path="url(#clip882)" cx="712.334" cy="862.731" r="14.4" fill="#009af9" fill-rule="evenodd" fill-opacity="1" stroke="#000000" stroke-opacity="1" stroke-width="3.2"/>
<circle clip-path="url(#clip882)" cx="1330.02" cy="760.64" r="14.4" fill="#009af9" fill-rule="evenodd" fill-opacity="1" stroke="#000000" stroke-opacity="1" stroke-width="3.2"/>
<circle clip-path="url(#clip882)" cx="395.261" cy="845.274" r="14.4" fill="#009af9" fill-rule="evenodd" fill-opacity="1" stroke="#000000" stroke-opacity="1" stroke-width="3.2"/>
<circle clip-path="url(#clip882)" cx="915.362" cy="862.731" r="14.4" fill="#009af9" fill-rule="evenodd" fill-opacity="1" stroke="#000000" stroke-opacity="1" stroke-width="3.2"/>
<circle clip-path="url(#clip882)" cx="1162.57" cy="651.424" r="14.4" fill="#009af9" fill-rule="evenodd" fill-opacity="1" stroke="#000000" stroke-opacity="1" stroke-width="3.2"/>
<circle clip-path="url(#clip882)" cx="2290.58" cy="394.653" r="14.4" fill="#009af9" fill-rule="evenodd" fill-opacity="1" stroke="#000000" stroke-opacity="1" stroke-width="3.2"/>
<circle clip-path="url(#clip882)" cx="2061.82" cy="436.605" r="14.4" fill="#009af9" fill-rule="evenodd" fill-opacity="1" stroke="#000000" stroke-opacity="1" stroke-width="3.2"/>
<circle clip-path="url(#clip882)" cx="1485.17" cy="338.815" r="14.4" fill="#009af9" fill-rule="evenodd" fill-opacity="1" stroke="#000000" stroke-opacity="1" stroke-width="3.2"/>
<circle clip-path="url(#clip882)" cx="1669.8" cy="300.853" r="14.4" fill="#009af9" fill-rule="evenodd" fill-opacity="1" stroke="#000000" stroke-opacity="1" stroke-width="3.2"/>
<circle clip-path="url(#clip882)" cx="1703.52" cy="220.815" r="14.4" fill="#009af9" fill-rule="evenodd" fill-opacity="1" stroke="#000000" stroke-opacity="1" stroke-width="3.2"/>
<circle clip-path="url(#clip882)" cx="1397.37" cy="845.274" r="14.4" fill="#009af9" fill-rule="evenodd" fill-opacity="1" stroke="#000000" stroke-opacity="1" stroke-width="3.2"/>
<circle clip-path="url(#clip882)" cx="1500.9" cy="871.746" r="14.4" fill="#009af9" fill-rule="evenodd" fill-opacity="1" stroke="#000000" stroke-opacity="1" stroke-width="3.2"/>
<circle clip-path="url(#clip882)" cx="1268.62" cy="862.731" r="14.4" fill="#009af9" fill-rule="evenodd" fill-opacity="1" stroke="#000000" stroke-opacity="1" stroke-width="3.2"/>
<circle clip-path="url(#clip882)" cx="1577.78" cy="853.91" r="14.4" fill="#009af9" fill-rule="evenodd" fill-opacity="1" stroke="#000000" stroke-opacity="1" stroke-width="3.2"/>
<circle clip-path="url(#clip882)" cx="1235.15" cy="782.046" r="14.4" fill="#009af9" fill-rule="evenodd" fill-opacity="1" stroke="#000000" stroke-opacity="1" stroke-width="3.2"/>
<circle clip-path="url(#clip882)" cx="1545.25" cy="733.734" r="14.4" fill="#009af9" fill-rule="evenodd" fill-opacity="1" stroke="#000000" stroke-opacity="1" stroke-width="3.2"/>
<circle clip-path="url(#clip882)" cx="1275.81" cy="727.274" r="14.4" fill="#009af9" fill-rule="evenodd" fill-opacity="1" stroke="#000000" stroke-opacity="1" stroke-width="3.2"/>
<circle clip-path="url(#clip882)" cx="1523.99" cy="746.967" r="14.4" fill="#009af9" fill-rule="evenodd" fill-opacity="1" stroke="#000000" stroke-opacity="1" stroke-width="3.2"/>
<circle clip-path="url(#clip882)" cx="1596.06" cy="720.915" r="14.4" fill="#009af9" fill-rule="evenodd" fill-opacity="1" stroke="#000000" stroke-opacity="1" stroke-width="3.2"/>
<circle clip-path="url(#clip882)" cx="1274.17" cy="615.735" r="14.4" fill="#009af9" fill-rule="evenodd" fill-opacity="1" stroke="#000000" stroke-opacity="1" stroke-width="3.2"/>
<circle clip-path="url(#clip882)" cx="943.803" cy="1322.37" r="14.4" fill="#009af9" fill-rule="evenodd" fill-opacity="1" stroke="#000000" stroke-opacity="1" stroke-width="3.2"/>
<circle clip-path="url(#clip882)" cx="750.264" cy="1350.67" r="14.4" fill="#009af9" fill-rule="evenodd" fill-opacity="1" stroke="#000000" stroke-opacity="1" stroke-width="3.2"/>
<circle clip-path="url(#clip882)" cx="1086.78" cy="1295.9" r="14.4" fill="#009af9" fill-rule="evenodd" fill-opacity="1" stroke="#000000" stroke-opacity="1" stroke-width="3.2"/>
<circle clip-path="url(#clip882)" cx="925.512" cy="1247.58" r="14.4" fill="#009af9" fill-rule="evenodd" fill-opacity="1" stroke="#000000" stroke-opacity="1" stroke-width="3.2"/>
<circle clip-path="url(#clip882)" cx="1087.25" cy="1350.67" r="14.4" fill="#009af9" fill-rule="evenodd" fill-opacity="1" stroke="#000000" stroke-opacity="1" stroke-width="3.2"/>
<circle clip-path="url(#clip882)" cx="1158.29" cy="667.725" r="14.4" fill="#009af9" fill-rule="evenodd" fill-opacity="1" stroke="#000000" stroke-opacity="1" stroke-width="3.2"/>
<circle clip-path="url(#clip882)" cx="1307.03" cy="673.305" r="14.4" fill="#009af9" fill-rule="evenodd" fill-opacity="1" stroke="#000000" stroke-opacity="1" stroke-width="3.2"/>
<circle clip-path="url(#clip882)" cx="1127.68" cy="740.297" r="14.4" fill="#009af9" fill-rule="evenodd" fill-opacity="1" stroke="#000000" stroke-opacity="1" stroke-width="3.2"/>
<circle clip-path="url(#clip882)" cx="1385.74" cy="740.297" r="14.4" fill="#009af9" fill-rule="evenodd" fill-opacity="1" stroke="#000000" stroke-opacity="1" stroke-width="3.2"/>
<circle clip-path="url(#clip882)" cx="1047.28" cy="573.986" r="14.4" fill="#009af9" fill-rule="evenodd" fill-opacity="1" stroke="#000000" stroke-opacity="1" stroke-width="3.2"/>
<circle clip-path="url(#clip882)" cx="1026.01" cy="789.436" r="14.4" fill="#009af9" fill-rule="evenodd" fill-opacity="1" stroke="#000000" stroke-opacity="1" stroke-width="3.2"/>
<circle clip-path="url(#clip882)" cx="1159.1" cy="782.046" r="14.4" fill="#009af9" fill-rule="evenodd" fill-opacity="1" stroke="#000000" stroke-opacity="1" stroke-width="3.2"/>
<circle clip-path="url(#clip882)" cx="904.772" cy="796.963" r="14.4" fill="#009af9" fill-rule="evenodd" fill-opacity="1" stroke="#000000" stroke-opacity="1" stroke-width="3.2"/>
<circle clip-path="url(#clip882)" cx="758.481" cy="804.63" r="14.4" fill="#009af9" fill-rule="evenodd" fill-opacity="1" stroke="#000000" stroke-opacity="1" stroke-width="3.2"/>
<circle clip-path="url(#clip882)" cx="894.088" cy="673.305" r="14.4" fill="#009af9" fill-rule="evenodd" fill-opacity="1" stroke="#000000" stroke-opacity="1" stroke-width="3.2"/>
<circle clip-path="url(#clip882)" cx="822.67" cy="1295.9" r="14.4" fill="#009af9" fill-rule="evenodd" fill-opacity="1" stroke="#000000" stroke-opacity="1" stroke-width="3.2"/>
<circle clip-path="url(#clip882)" cx="724.513" cy="1204.37" r="14.4" fill="#009af9" fill-rule="evenodd" fill-opacity="1" stroke="#000000" stroke-opacity="1" stroke-width="3.2"/>
<circle clip-path="url(#clip882)" cx="730.808" cy="1413.9" r="14.4" fill="#009af9" fill-rule="evenodd" fill-opacity="1" stroke="#000000" stroke-opacity="1" stroke-width="3.2"/>
<circle clip-path="url(#clip882)" cx="667.656" cy="1295.9" r="14.4" fill="#009af9" fill-rule="evenodd" fill-opacity="1" stroke="#000000" stroke-opacity="1" stroke-width="3.2"/>
<circle clip-path="url(#clip882)" cx="814.123" cy="1096.75" r="14.4" fill="#009af9" fill-rule="evenodd" fill-opacity="1" stroke="#000000" stroke-opacity="1" stroke-width="3.2"/>
<circle clip-path="url(#clip882)" cx="853.041" cy="930.442" r="14.4" fill="#009af9" fill-rule="evenodd" fill-opacity="1" stroke="#000000" stroke-opacity="1" stroke-width="3.2"/>
<circle clip-path="url(#clip882)" cx="1069.55" cy="853.91" r="14.4" fill="#009af9" fill-rule="evenodd" fill-opacity="1" stroke="#000000" stroke-opacity="1" stroke-width="3.2"/>
<circle clip-path="url(#clip882)" cx="1040.63" cy="900.045" r="14.4" fill="#009af9" fill-rule="evenodd" fill-opacity="1" stroke="#000000" stroke-opacity="1" stroke-width="3.2"/>
<circle clip-path="url(#clip882)" cx="786.179" cy="986.718" r="14.4" fill="#009af9" fill-rule="evenodd" fill-opacity="1" stroke="#000000" stroke-opacity="1" stroke-width="3.2"/>
<circle clip-path="url(#clip882)" cx="1334.22" cy="789.436" r="14.4" fill="#009af9" fill-rule="evenodd" fill-opacity="1" stroke="#000000" stroke-opacity="1" stroke-width="3.2"/>
<circle clip-path="url(#clip882)" cx="1390.39" cy="804.63" r="14.4" fill="#009af9" fill-rule="evenodd" fill-opacity="1" stroke="#000000" stroke-opacity="1" stroke-width="3.2"/>
<circle clip-path="url(#clip882)" cx="1045.65" cy="820.407" r="14.4" fill="#009af9" fill-rule="evenodd" fill-opacity="1" stroke="#000000" stroke-opacity="1" stroke-width="3.2"/>
<circle clip-path="url(#clip882)" cx="1145.36" cy="862.731" r="14.4" fill="#009af9" fill-rule="evenodd" fill-opacity="1" stroke="#000000" stroke-opacity="1" stroke-width="3.2"/>
<circle clip-path="url(#clip882)" cx="1220.26" cy="871.746" r="14.4" fill="#009af9" fill-rule="evenodd" fill-opacity="1" stroke="#000000" stroke-opacity="1" stroke-width="3.2"/>
<circle clip-path="url(#clip882)" cx="1076.93" cy="656.786" r="14.4" fill="#009af9" fill-rule="evenodd" fill-opacity="1" stroke="#000000" stroke-opacity="1" stroke-width="3.2"/>
<circle clip-path="url(#clip882)" cx="1612.32" cy="497.735" r="14.4" fill="#009af9" fill-rule="evenodd" fill-opacity="1" stroke="#000000" stroke-opacity="1" stroke-width="3.2"/>
<circle clip-path="url(#clip882)" cx="1012.34" cy="490.475" r="14.4" fill="#009af9" fill-rule="evenodd" fill-opacity="1" stroke="#000000" stroke-opacity="1" stroke-width="3.2"/>
<circle clip-path="url(#clip882)" cx="1514.79" cy="516.468" r="14.4" fill="#009af9" fill-rule="evenodd" fill-opacity="1" stroke="#000000" stroke-opacity="1" stroke-width="3.2"/>
<circle clip-path="url(#clip882)" cx="1329.79" cy="479.821" r="14.4" fill="#009af9" fill-rule="evenodd" fill-opacity="1" stroke="#000000" stroke-opacity="1" stroke-width="3.2"/>
<circle clip-path="url(#clip882)" cx="1410.28" cy="348.881" r="14.4" fill="#009af9" fill-rule="evenodd" fill-opacity="1" stroke="#000000" stroke-opacity="1" stroke-width="3.2"/>
<circle clip-path="url(#clip882)" cx="955.139" cy="678.963" r="14.4" fill="#009af9" fill-rule="evenodd" fill-opacity="1" stroke="#000000" stroke-opacity="1" stroke-width="3.2"/>
<circle clip-path="url(#clip882)" cx="933.665" cy="662.219" r="14.4" fill="#009af9" fill-rule="evenodd" fill-opacity="1" stroke="#000000" stroke-opacity="1" stroke-width="3.2"/>
<circle clip-path="url(#clip882)" cx="1267.53" cy="690.518" r="14.4" fill="#009af9" fill-rule="evenodd" fill-opacity="1" stroke="#000000" stroke-opacity="1" stroke-width="3.2"/>
<circle clip-path="url(#clip882)" cx="1079.58" cy="651.424" r="14.4" fill="#009af9" fill-rule="evenodd" fill-opacity="1" stroke="#000000" stroke-opacity="1" stroke-width="3.2"/>
<circle clip-path="url(#clip882)" cx="1285.98" cy="601.341" r="14.4" fill="#009af9" fill-rule="evenodd" fill-opacity="1" stroke="#000000" stroke-opacity="1" stroke-width="3.2"/>
<circle clip-path="url(#clip882)" cx="860.69" cy="1381.06" r="14.4" fill="#009af9" fill-rule="evenodd" fill-opacity="1" stroke="#000000" stroke-opacity="1" stroke-width="3.2"/>
<circle clip-path="url(#clip882)" cx="1027.27" cy="1322.37" r="14.4" fill="#009af9" fill-rule="evenodd" fill-opacity="1" stroke="#000000" stroke-opacity="1" stroke-width="3.2"/>
<circle clip-path="url(#clip882)" cx="927.832" cy="1322.37" r="14.4" fill="#009af9" fill-rule="evenodd" fill-opacity="1" stroke="#000000" stroke-opacity="1" stroke-width="3.2"/>
<circle clip-path="url(#clip882)" cx="1063.1" cy="1350.67" r="14.4" fill="#009af9" fill-rule="evenodd" fill-opacity="1" stroke="#000000" stroke-opacity="1" stroke-width="3.2"/>
<circle clip-path="url(#clip882)" cx="1169.91" cy="1225.41" r="14.4" fill="#009af9" fill-rule="evenodd" fill-opacity="1" stroke="#000000" stroke-opacity="1" stroke-width="3.2"/>
<circle clip-path="url(#clip882)" cx="1127.79" cy="836.817" r="14.4" fill="#009af9" fill-rule="evenodd" fill-opacity="1" stroke="#000000" stroke-opacity="1" stroke-width="3.2"/>
<circle clip-path="url(#clip882)" cx="916.416" cy="880.964" r="14.4" fill="#009af9" fill-rule="evenodd" fill-opacity="1" stroke="#000000" stroke-opacity="1" stroke-width="3.2"/>
<circle clip-path="url(#clip882)" cx="853.318" cy="845.274" r="14.4" fill="#009af9" fill-rule="evenodd" fill-opacity="1" stroke="#000000" stroke-opacity="1" stroke-width="3.2"/>
<circle clip-path="url(#clip882)" cx="981.705" cy="862.731" r="14.4" fill="#009af9" fill-rule="evenodd" fill-opacity="1" stroke="#000000" stroke-opacity="1" stroke-width="3.2"/>
<circle clip-path="url(#clip882)" cx="773.023" cy="708.485" r="14.4" fill="#009af9" fill-rule="evenodd" fill-opacity="1" stroke="#000000" stroke-opacity="1" stroke-width="3.2"/>
<circle clip-path="url(#clip882)" cx="1108.79" cy="1322.37" r="14.4" fill="#009af9" fill-rule="evenodd" fill-opacity="1" stroke="#000000" stroke-opacity="1" stroke-width="3.2"/>
<circle clip-path="url(#clip882)" cx="880.502" cy="1350.67" r="14.4" fill="#009af9" fill-rule="evenodd" fill-opacity="1" stroke="#000000" stroke-opacity="1" stroke-width="3.2"/>
<circle clip-path="url(#clip882)" cx="787.975" cy="1413.9" r="14.4" fill="#009af9" fill-rule="evenodd" fill-opacity="1" stroke="#000000" stroke-opacity="1" stroke-width="3.2"/>
<circle clip-path="url(#clip882)" cx="869.713" cy="1247.58" r="14.4" fill="#009af9" fill-rule="evenodd" fill-opacity="1" stroke="#000000" stroke-opacity="1" stroke-width="3.2"/>
<circle clip-path="url(#clip882)" cx="793.821" cy="1129.58" r="14.4" fill="#009af9" fill-rule="evenodd" fill-opacity="1" stroke="#000000" stroke-opacity="1" stroke-width="3.2"/>
<circle clip-path="url(#clip882)" cx="1349.89" cy="569.599" r="14.4" fill="#009af9" fill-rule="evenodd" fill-opacity="1" stroke="#000000" stroke-opacity="1" stroke-width="3.2"/>
<circle clip-path="url(#clip882)" cx="1387.43" cy="548.342" r="14.4" fill="#009af9" fill-rule="evenodd" fill-opacity="1" stroke="#000000" stroke-opacity="1" stroke-width="3.2"/>
<circle clip-path="url(#clip882)" cx="1359.26" cy="516.468" r="14.4" fill="#009af9" fill-rule="evenodd" fill-opacity="1" stroke="#000000" stroke-opacity="1" stroke-width="3.2"/>
<circle clip-path="url(#clip882)" cx="1167.09" cy="459.308" r="14.4" fill="#009af9" fill-rule="evenodd" fill-opacity="1" stroke="#000000" stroke-opacity="1" stroke-width="3.2"/>
<circle clip-path="url(#clip882)" cx="1428.67" cy="331.424" r="14.4" fill="#009af9" fill-rule="evenodd" fill-opacity="1" stroke="#000000" stroke-opacity="1" stroke-width="3.2"/>
<circle clip-path="url(#clip882)" cx="1050.13" cy="656.786" r="14.4" fill="#009af9" fill-rule="evenodd" fill-opacity="1" stroke="#000000" stroke-opacity="1" stroke-width="3.2"/>
<circle clip-path="url(#clip882)" cx="1082.4" cy="578.42" r="14.4" fill="#009af9" fill-rule="evenodd" fill-opacity="1" stroke="#000000" stroke-opacity="1" stroke-width="3.2"/>
<circle clip-path="url(#clip882)" cx="1160.45" cy="582.903" r="14.4" fill="#009af9" fill-rule="evenodd" fill-opacity="1" stroke="#000000" stroke-opacity="1" stroke-width="3.2"/>
<circle clip-path="url(#clip882)" cx="1159.03" cy="601.341" r="14.4" fill="#009af9" fill-rule="evenodd" fill-opacity="1" stroke="#000000" stroke-opacity="1" stroke-width="3.2"/>
<circle clip-path="url(#clip882)" cx="1032.63" cy="501.414" r="14.4" fill="#009af9" fill-rule="evenodd" fill-opacity="1" stroke="#000000" stroke-opacity="1" stroke-width="3.2"/>
<circle clip-path="url(#clip882)" cx="790.872" cy="1204.37" r="14.4" fill="#009af9" fill-rule="evenodd" fill-opacity="1" stroke="#000000" stroke-opacity="1" stroke-width="3.2"/>
<circle clip-path="url(#clip882)" cx="672.152" cy="1225.41" r="14.4" fill="#009af9" fill-rule="evenodd" fill-opacity="1" stroke="#000000" stroke-opacity="1" stroke-width="3.2"/>
<circle clip-path="url(#clip882)" cx="851.847" cy="1165.27" r="14.4" fill="#009af9" fill-rule="evenodd" fill-opacity="1" stroke="#000000" stroke-opacity="1" stroke-width="3.2"/>
<circle clip-path="url(#clip882)" cx="926.82" cy="1024.61" r="14.4" fill="#009af9" fill-rule="evenodd" fill-opacity="1" stroke="#000000" stroke-opacity="1" stroke-width="3.2"/>
<circle clip-path="url(#clip882)" cx="944.246" cy="1129.58" r="14.4" fill="#009af9" fill-rule="evenodd" fill-opacity="1" stroke="#000000" stroke-opacity="1" stroke-width="3.2"/>
<circle clip-path="url(#clip882)" cx="1155.12" cy="1322.37" r="14.4" fill="#009af9" fill-rule="evenodd" fill-opacity="1" stroke="#000000" stroke-opacity="1" stroke-width="3.2"/>
<circle clip-path="url(#clip882)" cx="966.784" cy="1381.06" r="14.4" fill="#009af9" fill-rule="evenodd" fill-opacity="1" stroke="#000000" stroke-opacity="1" stroke-width="3.2"/>
<circle clip-path="url(#clip882)" cx="802.902" cy="1184.36" r="14.4" fill="#009af9" fill-rule="evenodd" fill-opacity="1" stroke="#000000" stroke-opacity="1" stroke-width="3.2"/>
<circle clip-path="url(#clip882)" cx="556.937" cy="1112.84" r="14.4" fill="#009af9" fill-rule="evenodd" fill-opacity="1" stroke="#000000" stroke-opacity="1" stroke-width="3.2"/>
<circle clip-path="url(#clip882)" cx="1179.38" cy="820.407" r="14.4" fill="#009af9" fill-rule="evenodd" fill-opacity="1" stroke="#000000" stroke-opacity="1" stroke-width="3.2"/>
<circle clip-path="url(#clip882)" cx="1378.54" cy="820.407" r="14.4" fill="#009af9" fill-rule="evenodd" fill-opacity="1" stroke="#000000" stroke-opacity="1" stroke-width="3.2"/>
<circle clip-path="url(#clip882)" cx="1523.5" cy="812.443" r="14.4" fill="#009af9" fill-rule="evenodd" fill-opacity="1" stroke="#000000" stroke-opacity="1" stroke-width="3.2"/>
<circle clip-path="url(#clip882)" cx="1175.49" cy="941.097" r="14.4" fill="#009af9" fill-rule="evenodd" fill-opacity="1" stroke="#000000" stroke-opacity="1" stroke-width="3.2"/>
<circle clip-path="url(#clip882)" cx="1513.77" cy="853.91" r="14.4" fill="#009af9" fill-rule="evenodd" fill-opacity="1" stroke="#000000" stroke-opacity="1" stroke-width="3.2"/>
<circle clip-path="url(#clip882)" cx="370.845" cy="1322.37" r="14.4" fill="#009af9" fill-rule="evenodd" fill-opacity="1" stroke="#000000" stroke-opacity="1" stroke-width="3.2"/>
<circle clip-path="url(#clip882)" cx="1180.1" cy="998.963" r="14.4" fill="#009af9" fill-rule="evenodd" fill-opacity="1" stroke="#000000" stroke-opacity="1" stroke-width="3.2"/>
<circle clip-path="url(#clip882)" cx="1158.16" cy="1051.96" r="14.4" fill="#009af9" fill-rule="evenodd" fill-opacity="1" stroke="#000000" stroke-opacity="1" stroke-width="3.2"/>
<circle clip-path="url(#clip882)" cx="1187.44" cy="1129.58" r="14.4" fill="#009af9" fill-rule="evenodd" fill-opacity="1" stroke="#000000" stroke-opacity="1" stroke-width="3.2"/>
<circle clip-path="url(#clip882)" cx="1071.42" cy="1165.27" r="14.4" fill="#009af9" fill-rule="evenodd" fill-opacity="1" stroke="#000000" stroke-opacity="1" stroke-width="3.2"/>
<circle clip-path="url(#clip882)" cx="1171.38" cy="1066.36" r="14.4" fill="#009af9" fill-rule="evenodd" fill-opacity="1" stroke="#000000" stroke-opacity="1" stroke-width="3.2"/>
<circle clip-path="url(#clip882)" cx="1530.85" cy="796.963" r="14.4" fill="#009af9" fill-rule="evenodd" fill-opacity="1" stroke="#000000" stroke-opacity="1" stroke-width="3.2"/>
<circle clip-path="url(#clip882)" cx="1008.5" cy="845.274" r="14.4" fill="#009af9" fill-rule="evenodd" fill-opacity="1" stroke="#000000" stroke-opacity="1" stroke-width="3.2"/>
<circle clip-path="url(#clip882)" cx="1478.64" cy="720.915" r="14.4" fill="#009af9" fill-rule="evenodd" fill-opacity="1" stroke="#000000" stroke-opacity="1" stroke-width="3.2"/>
<circle clip-path="url(#clip882)" cx="1523.22" cy="662.219" r="14.4" fill="#009af9" fill-rule="evenodd" fill-opacity="1" stroke="#000000" stroke-opacity="1" stroke-width="3.2"/>
<circle clip-path="url(#clip882)" cx="1418.37" cy="684.7" r="14.4" fill="#009af9" fill-rule="evenodd" fill-opacity="1" stroke="#000000" stroke-opacity="1" stroke-width="3.2"/>
<circle clip-path="url(#clip882)" cx="1586.97" cy="1204.37" r="14.4" fill="#009af9" fill-rule="evenodd" fill-opacity="1" stroke="#000000" stroke-opacity="1" stroke-width="3.2"/>
<circle clip-path="url(#clip882)" cx="1492.65" cy="1295.9" r="14.4" fill="#009af9" fill-rule="evenodd" fill-opacity="1" stroke="#000000" stroke-opacity="1" stroke-width="3.2"/>
<circle clip-path="url(#clip882)" cx="1464.31" cy="1247.58" r="14.4" fill="#009af9" fill-rule="evenodd" fill-opacity="1" stroke="#000000" stroke-opacity="1" stroke-width="3.2"/>
<circle clip-path="url(#clip882)" cx="1828.19" cy="1271.03" r="14.4" fill="#009af9" fill-rule="evenodd" fill-opacity="1" stroke="#000000" stroke-opacity="1" stroke-width="3.2"/>
<circle clip-path="url(#clip882)" cx="1503.48" cy="1051.96" r="14.4" fill="#009af9" fill-rule="evenodd" fill-opacity="1" stroke="#000000" stroke-opacity="1" stroke-width="3.2"/>
<circle clip-path="url(#clip882)" cx="1608.09" cy="789.436" r="14.4" fill="#009af9" fill-rule="evenodd" fill-opacity="1" stroke="#000000" stroke-opacity="1" stroke-width="3.2"/>
<circle clip-path="url(#clip882)" cx="1533.01" cy="820.407" r="14.4" fill="#009af9" fill-rule="evenodd" fill-opacity="1" stroke="#000000" stroke-opacity="1" stroke-width="3.2"/>
<circle clip-path="url(#clip882)" cx="1444.32" cy="853.91" r="14.4" fill="#009af9" fill-rule="evenodd" fill-opacity="1" stroke="#000000" stroke-opacity="1" stroke-width="3.2"/>
<circle clip-path="url(#clip882)" cx="1171.26" cy="812.443" r="14.4" fill="#009af9" fill-rule="evenodd" fill-opacity="1" stroke="#000000" stroke-opacity="1" stroke-width="3.2"/>
<circle clip-path="url(#clip882)" cx="1257.97" cy="690.518" r="14.4" fill="#009af9" fill-rule="evenodd" fill-opacity="1" stroke="#000000" stroke-opacity="1" stroke-width="3.2"/>
<circle clip-path="url(#clip882)" cx="1068.08" cy="845.274" r="14.4" fill="#009af9" fill-rule="evenodd" fill-opacity="1" stroke="#000000" stroke-opacity="1" stroke-width="3.2"/>
<circle clip-path="url(#clip882)" cx="894.683" cy="804.63" r="14.4" fill="#009af9" fill-rule="evenodd" fill-opacity="1" stroke="#000000" stroke-opacity="1" stroke-width="3.2"/>
<circle clip-path="url(#clip882)" cx="937.352" cy="853.91" r="14.4" fill="#009af9" fill-rule="evenodd" fill-opacity="1" stroke="#000000" stroke-opacity="1" stroke-width="3.2"/>
<circle clip-path="url(#clip882)" cx="1225.41" cy="845.274" r="14.4" fill="#009af9" fill-rule="evenodd" fill-opacity="1" stroke="#000000" stroke-opacity="1" stroke-width="3.2"/>
<circle clip-path="url(#clip882)" cx="931.455" cy="690.518" r="14.4" fill="#009af9" fill-rule="evenodd" fill-opacity="1" stroke="#000000" stroke-opacity="1" stroke-width="3.2"/>
<circle clip-path="url(#clip882)" cx="1414.13" cy="746.967" r="14.4" fill="#009af9" fill-rule="evenodd" fill-opacity="1" stroke="#000000" stroke-opacity="1" stroke-width="3.2"/>
<circle clip-path="url(#clip882)" cx="1418.66" cy="767.652" r="14.4" fill="#009af9" fill-rule="evenodd" fill-opacity="1" stroke="#000000" stroke-opacity="1" stroke-width="3.2"/>
<circle clip-path="url(#clip882)" cx="927.762" cy="853.91" r="14.4" fill="#009af9" fill-rule="evenodd" fill-opacity="1" stroke="#000000" stroke-opacity="1" stroke-width="3.2"/>
<circle clip-path="url(#clip882)" cx="1249.54" cy="740.297" r="14.4" fill="#009af9" fill-rule="evenodd" fill-opacity="1" stroke="#000000" stroke-opacity="1" stroke-width="3.2"/>
<circle clip-path="url(#clip882)" cx="1311.19" cy="702.408" r="14.4" fill="#009af9" fill-rule="evenodd" fill-opacity="1" stroke="#000000" stroke-opacity="1" stroke-width="3.2"/>
<circle clip-path="url(#clip882)" cx="1183.67" cy="1225.41" r="14.4" fill="#009af9" fill-rule="evenodd" fill-opacity="1" stroke="#000000" stroke-opacity="1" stroke-width="3.2"/>
<circle clip-path="url(#clip882)" cx="1097.79" cy="1247.58" r="14.4" fill="#009af9" fill-rule="evenodd" fill-opacity="1" stroke="#000000" stroke-opacity="1" stroke-width="3.2"/>
<circle clip-path="url(#clip882)" cx="1220.99" cy="1295.9" r="14.4" fill="#009af9" fill-rule="evenodd" fill-opacity="1" stroke="#000000" stroke-opacity="1" stroke-width="3.2"/>
<circle clip-path="url(#clip882)" cx="1155.64" cy="1247.58" r="14.4" fill="#009af9" fill-rule="evenodd" fill-opacity="1" stroke="#000000" stroke-opacity="1" stroke-width="3.2"/>
<circle clip-path="url(#clip882)" cx="1097.84" cy="1096.75" r="14.4" fill="#009af9" fill-rule="evenodd" fill-opacity="1" stroke="#000000" stroke-opacity="1" stroke-width="3.2"/>
<circle clip-path="url(#clip882)" cx="1122.87" cy="900.045" r="14.4" fill="#009af9" fill-rule="evenodd" fill-opacity="1" stroke="#000000" stroke-opacity="1" stroke-width="3.2"/>
<circle clip-path="url(#clip882)" cx="844.003" cy="853.91" r="14.4" fill="#009af9" fill-rule="evenodd" fill-opacity="1" stroke="#000000" stroke-opacity="1" stroke-width="3.2"/>
<circle clip-path="url(#clip882)" cx="929.616" cy="871.746" r="14.4" fill="#009af9" fill-rule="evenodd" fill-opacity="1" stroke="#000000" stroke-opacity="1" stroke-width="3.2"/>
<circle clip-path="url(#clip882)" cx="1164.43" cy="890.393" r="14.4" fill="#009af9" fill-rule="evenodd" fill-opacity="1" stroke="#000000" stroke-opacity="1" stroke-width="3.2"/>
<circle clip-path="url(#clip882)" cx="946.34" cy="740.297" r="14.4" fill="#009af9" fill-rule="evenodd" fill-opacity="1" stroke="#000000" stroke-opacity="1" stroke-width="3.2"/>
<circle clip-path="url(#clip882)" cx="794.735" cy="1184.36" r="14.4" fill="#009af9" fill-rule="evenodd" fill-opacity="1" stroke="#000000" stroke-opacity="1" stroke-width="3.2"/>
<circle clip-path="url(#clip882)" cx="1267.98" cy="702.408" r="14.4" fill="#009af9" fill-rule="evenodd" fill-opacity="1" stroke="#000000" stroke-opacity="1" stroke-width="3.2"/>
<circle clip-path="url(#clip882)" cx="1732.55" cy="708.485" r="14.4" fill="#009af9" fill-rule="evenodd" fill-opacity="1" stroke="#000000" stroke-opacity="1" stroke-width="3.2"/>
<circle clip-path="url(#clip882)" cx="1411.09" cy="673.305" r="14.4" fill="#009af9" fill-rule="evenodd" fill-opacity="1" stroke="#000000" stroke-opacity="1" stroke-width="3.2"/>
<circle clip-path="url(#clip882)" cx="1214.07" cy="596.653" r="14.4" fill="#009af9" fill-rule="evenodd" fill-opacity="1" stroke="#000000" stroke-opacity="1" stroke-width="3.2"/>
<circle clip-path="url(#clip882)" cx="1357.41" cy="540.138" r="14.4" fill="#009af9" fill-rule="evenodd" fill-opacity="1" stroke="#000000" stroke-opacity="1" stroke-width="3.2"/>
<circle clip-path="url(#clip882)" cx="1101.94" cy="1051.96" r="14.4" fill="#009af9" fill-rule="evenodd" fill-opacity="1" stroke="#000000" stroke-opacity="1" stroke-width="3.2"/>
<circle clip-path="url(#clip882)" cx="1176.22" cy="720.915" r="14.4" fill="#009af9" fill-rule="evenodd" fill-opacity="1" stroke="#000000" stroke-opacity="1" stroke-width="3.2"/>
<circle clip-path="url(#clip882)" cx="1341.27" cy="690.518" r="14.4" fill="#009af9" fill-rule="evenodd" fill-opacity="1" stroke="#000000" stroke-opacity="1" stroke-width="3.2"/>
<circle clip-path="url(#clip882)" cx="1216.02" cy="667.725" r="14.4" fill="#009af9" fill-rule="evenodd" fill-opacity="1" stroke="#000000" stroke-opacity="1" stroke-width="3.2"/>
<circle clip-path="url(#clip882)" cx="1155.21" cy="696.42" r="14.4" fill="#009af9" fill-rule="evenodd" fill-opacity="1" stroke="#000000" stroke-opacity="1" stroke-width="3.2"/>
<circle clip-path="url(#clip882)" cx="1165.61" cy="565.259" r="14.4" fill="#009af9" fill-rule="evenodd" fill-opacity="1" stroke="#000000" stroke-opacity="1" stroke-width="3.2"/>
<circle clip-path="url(#clip882)" cx="1502.36" cy="880.964" r="14.4" fill="#009af9" fill-rule="evenodd" fill-opacity="1" stroke="#000000" stroke-opacity="1" stroke-width="3.2"/>
<circle clip-path="url(#clip882)" cx="1371.3" cy="880.964" r="14.4" fill="#009af9" fill-rule="evenodd" fill-opacity="1" stroke="#000000" stroke-opacity="1" stroke-width="3.2"/>
<circle clip-path="url(#clip882)" cx="1278.89" cy="920.057" r="14.4" fill="#009af9" fill-rule="evenodd" fill-opacity="1" stroke="#000000" stroke-opacity="1" stroke-width="3.2"/>
<circle clip-path="url(#clip882)" cx="1367.12" cy="871.746" r="14.4" fill="#009af9" fill-rule="evenodd" fill-opacity="1" stroke="#000000" stroke-opacity="1" stroke-width="3.2"/>
<circle clip-path="url(#clip882)" cx="1408.64" cy="760.64" r="14.4" fill="#009af9" fill-rule="evenodd" fill-opacity="1" stroke="#000000" stroke-opacity="1" stroke-width="3.2"/>
<circle clip-path="url(#clip882)" cx="1030.32" cy="1295.9" r="14.4" fill="#009af9" fill-rule="evenodd" fill-opacity="1" stroke="#000000" stroke-opacity="1" stroke-width="3.2"/>
<circle clip-path="url(#clip882)" cx="1072.51" cy="1271.03" r="14.4" fill="#009af9" fill-rule="evenodd" fill-opacity="1" stroke="#000000" stroke-opacity="1" stroke-width="3.2"/>
<circle clip-path="url(#clip882)" cx="994.115" cy="1449.58" r="14.4" fill="#009af9" fill-rule="evenodd" fill-opacity="1" stroke="#000000" stroke-opacity="1" stroke-width="3.2"/>
<circle clip-path="url(#clip882)" cx="1029.2" cy="1295.9" r="14.4" fill="#009af9" fill-rule="evenodd" fill-opacity="1" stroke="#000000" stroke-opacity="1" stroke-width="3.2"/>
<circle clip-path="url(#clip882)" cx="821.533" cy="1147.04" r="14.4" fill="#009af9" fill-rule="evenodd" fill-opacity="1" stroke="#000000" stroke-opacity="1" stroke-width="3.2"/>
<circle clip-path="url(#clip882)" cx="1300.77" cy="900.045" r="14.4" fill="#009af9" fill-rule="evenodd" fill-opacity="1" stroke="#000000" stroke-opacity="1" stroke-width="3.2"/>
<circle clip-path="url(#clip882)" cx="1298.82" cy="909.929" r="14.4" fill="#009af9" fill-rule="evenodd" fill-opacity="1" stroke="#000000" stroke-opacity="1" stroke-width="3.2"/>
<circle clip-path="url(#clip882)" cx="1026.81" cy="930.442" r="14.4" fill="#009af9" fill-rule="evenodd" fill-opacity="1" stroke="#000000" stroke-opacity="1" stroke-width="3.2"/>
<circle clip-path="url(#clip882)" cx="1063.11" cy="920.057" r="14.4" fill="#009af9" fill-rule="evenodd" fill-opacity="1" stroke="#000000" stroke-opacity="1" stroke-width="3.2"/>
<circle clip-path="url(#clip882)" cx="1238.16" cy="820.407" r="14.4" fill="#009af9" fill-rule="evenodd" fill-opacity="1" stroke="#000000" stroke-opacity="1" stroke-width="3.2"/>
<circle clip-path="url(#clip882)" cx="1383.43" cy="1204.37" r="14.4" fill="#009af9" fill-rule="evenodd" fill-opacity="1" stroke="#000000" stroke-opacity="1" stroke-width="3.2"/>
<circle clip-path="url(#clip882)" cx="1095.85" cy="1165.27" r="14.4" fill="#009af9" fill-rule="evenodd" fill-opacity="1" stroke="#000000" stroke-opacity="1" stroke-width="3.2"/>
<circle clip-path="url(#clip882)" cx="908.105" cy="1147.04" r="14.4" fill="#009af9" fill-rule="evenodd" fill-opacity="1" stroke="#000000" stroke-opacity="1" stroke-width="3.2"/>
<circle clip-path="url(#clip882)" cx="1226.56" cy="1165.27" r="14.4" fill="#009af9" fill-rule="evenodd" fill-opacity="1" stroke="#000000" stroke-opacity="1" stroke-width="3.2"/>
<circle clip-path="url(#clip882)" cx="1140.09" cy="1081.27" r="14.4" fill="#009af9" fill-rule="evenodd" fill-opacity="1" stroke="#000000" stroke-opacity="1" stroke-width="3.2"/>
<circle clip-path="url(#clip882)" cx="1145.3" cy="890.393" r="14.4" fill="#009af9" fill-rule="evenodd" fill-opacity="1" stroke="#000000" stroke-opacity="1" stroke-width="3.2"/>
<circle clip-path="url(#clip882)" cx="709.79" cy="941.097" r="14.4" fill="#009af9" fill-rule="evenodd" fill-opacity="1" stroke="#000000" stroke-opacity="1" stroke-width="3.2"/>
<circle clip-path="url(#clip882)" cx="710.152" cy="952.035" r="14.4" fill="#009af9" fill-rule="evenodd" fill-opacity="1" stroke="#000000" stroke-opacity="1" stroke-width="3.2"/>
<circle clip-path="url(#clip882)" cx="1089.57" cy="900.045" r="14.4" fill="#009af9" fill-rule="evenodd" fill-opacity="1" stroke="#000000" stroke-opacity="1" stroke-width="3.2"/>
<circle clip-path="url(#clip882)" cx="574.873" cy="836.817" r="14.4" fill="#009af9" fill-rule="evenodd" fill-opacity="1" stroke="#000000" stroke-opacity="1" stroke-width="3.2"/>
<circle clip-path="url(#clip882)" cx="797.606" cy="998.963" r="14.4" fill="#009af9" fill-rule="evenodd" fill-opacity="1" stroke="#000000" stroke-opacity="1" stroke-width="3.2"/>
<circle clip-path="url(#clip882)" cx="690.15" cy="1081.27" r="14.4" fill="#009af9" fill-rule="evenodd" fill-opacity="1" stroke="#000000" stroke-opacity="1" stroke-width="3.2"/>
<circle clip-path="url(#clip882)" cx="764.513" cy="1096.75" r="14.4" fill="#009af9" fill-rule="evenodd" fill-opacity="1" stroke="#000000" stroke-opacity="1" stroke-width="3.2"/>
<circle clip-path="url(#clip882)" cx="410.667" cy="1096.75" r="14.4" fill="#009af9" fill-rule="evenodd" fill-opacity="1" stroke="#000000" stroke-opacity="1" stroke-width="3.2"/>
<circle clip-path="url(#clip882)" cx="693.482" cy="890.393" r="14.4" fill="#009af9" fill-rule="evenodd" fill-opacity="1" stroke="#000000" stroke-opacity="1" stroke-width="3.2"/>
</svg>
