<?xml version="1.0" encoding="utf-8"?>
<svg xmlns="http://www.w3.org/2000/svg" xmlns:xlink="http://www.w3.org/1999/xlink" width="600" height="400" viewBox="0 0 2400 1600">
<defs>
  <clipPath id="clip020">
    <rect x="0" y="0" width="2400" height="1600"/>
  </clipPath>
</defs>
<path clip-path="url(#clip020)" d="
M0 1600 L2400 1600 L2400 0 L0 0  Z
  " fill="#ffffff" fill-rule="evenodd" fill-opacity="1"/>
<defs>
  <clipPath id="clip021">
    <rect x="480" y="0" width="1681" height="1600"/>
  </clipPath>
</defs>
<path clip-path="url(#clip020)" d="
M205.121 1423.18 L2352.76 1423.18 L2352.76 123.472 L205.121 123.472  Z
  " fill="#ffffff" fill-rule="evenodd" fill-opacity="1"/>
<defs>
  <clipPath id="clip022">
    <rect x="205" y="123" width="2149" height="1301"/>
  </clipPath>
</defs>
<polyline clip-path="url(#clip022)" style="stroke:#000000; stroke-linecap:butt; stroke-linejoin:round; stroke-width:2; stroke-opacity:0.1; fill:none" points="
  444.7,1423.18 444.7,123.472 
  "/>
<polyline clip-path="url(#clip022)" style="stroke:#000000; stroke-linecap:butt; stroke-linejoin:round; stroke-width:2; stroke-opacity:0.1; fill:none" points="
  923.597,1423.18 923.597,123.472 
  "/>
<polyline clip-path="url(#clip022)" style="stroke:#000000; stroke-linecap:butt; stroke-linejoin:round; stroke-width:2; stroke-opacity:0.1; fill:none" points="
  1402.49,1423.18 1402.49,123.472 
  "/>
<polyline clip-path="url(#clip022)" style="stroke:#000000; stroke-linecap:butt; stroke-linejoin:round; stroke-width:2; stroke-opacity:0.1; fill:none" points="
  1881.39,1423.18 1881.39,123.472 
  "/>
<polyline clip-path="url(#clip020)" style="stroke:#000000; stroke-linecap:butt; stroke-linejoin:round; stroke-width:4; stroke-opacity:1; fill:none" points="
  205.121,1423.18 2352.76,1423.18 
  "/>
<polyline clip-path="url(#clip020)" style="stroke:#000000; stroke-linecap:butt; stroke-linejoin:round; stroke-width:4; stroke-opacity:1; fill:none" points="
  444.7,1423.18 444.7,1404.28 
  "/>
<polyline clip-path="url(#clip020)" style="stroke:#000000; stroke-linecap:butt; stroke-linejoin:round; stroke-width:4; stroke-opacity:1; fill:none" points="
  923.597,1423.18 923.597,1404.28 
  "/>
<polyline clip-path="url(#clip020)" style="stroke:#000000; stroke-linecap:butt; stroke-linejoin:round; stroke-width:4; stroke-opacity:1; fill:none" points="
  1402.49,1423.18 1402.49,1404.28 
  "/>
<polyline clip-path="url(#clip020)" style="stroke:#000000; stroke-linecap:butt; stroke-linejoin:round; stroke-width:4; stroke-opacity:1; fill:none" points="
  1881.39,1423.18 1881.39,1404.28 
  "/>
<path clip-path="url(#clip020)" d="M411.853 1481.64 L419.492 1481.64 L419.492 1455.28 L411.182 1456.95 L411.182 1452.69 L419.446 1451.02 L424.122 1451.02 L424.122 1481.64 L431.761 1481.64 L431.761 1485.58 L411.853 1485.58 L411.853 1481.64 Z" fill="#000000" fill-rule="evenodd" fill-opacity="1" /><path clip-path="url(#clip020)" d="M441.205 1479.7 L446.089 1479.7 L446.089 1485.58 L441.205 1485.58 L441.205 1479.7 Z" fill="#000000" fill-rule="evenodd" fill-opacity="1" /><path clip-path="url(#clip020)" d="M466.274 1454.1 Q462.663 1454.1 460.835 1457.66 Q459.029 1461.2 459.029 1468.33 Q459.029 1475.44 460.835 1479.01 Q462.663 1482.55 466.274 1482.55 Q469.909 1482.55 471.714 1479.01 Q473.543 1475.44 473.543 1468.33 Q473.543 1461.2 471.714 1457.66 Q469.909 1454.1 466.274 1454.1 M466.274 1450.39 Q472.084 1450.39 475.14 1455 Q478.219 1459.58 478.219 1468.33 Q478.219 1477.06 475.14 1481.67 Q472.084 1486.25 466.274 1486.25 Q460.464 1486.25 457.385 1481.67 Q454.33 1477.06 454.33 1468.33 Q454.33 1459.58 457.385 1455 Q460.464 1450.39 466.274 1450.39 Z" fill="#000000" fill-rule="evenodd" fill-opacity="1" /><path clip-path="url(#clip020)" d="M891.248 1481.64 L898.887 1481.64 L898.887 1455.28 L890.577 1456.95 L890.577 1452.69 L898.841 1451.02 L903.516 1451.02 L903.516 1481.64 L911.155 1481.64 L911.155 1485.58 L891.248 1485.58 L891.248 1481.64 Z" fill="#000000" fill-rule="evenodd" fill-opacity="1" /><path clip-path="url(#clip020)" d="M920.6 1479.7 L925.484 1479.7 L925.484 1485.58 L920.6 1485.58 L920.6 1479.7 Z" fill="#000000" fill-rule="evenodd" fill-opacity="1" /><path clip-path="url(#clip020)" d="M935.715 1451.02 L954.072 1451.02 L954.072 1454.96 L939.998 1454.96 L939.998 1463.43 Q941.016 1463.08 942.035 1462.92 Q943.053 1462.73 944.072 1462.73 Q949.859 1462.73 953.238 1465.9 Q956.618 1469.08 956.618 1474.49 Q956.618 1480.07 953.146 1483.17 Q949.674 1486.25 943.354 1486.25 Q941.178 1486.25 938.91 1485.88 Q936.664 1485.51 934.257 1484.77 L934.257 1480.07 Q936.34 1481.2 938.563 1481.76 Q940.785 1482.32 943.262 1482.32 Q947.266 1482.32 949.604 1480.21 Q951.942 1478.1 951.942 1474.49 Q951.942 1470.88 949.604 1468.77 Q947.266 1466.67 943.262 1466.67 Q941.387 1466.67 939.512 1467.08 Q937.66 1467.5 935.715 1468.38 L935.715 1451.02 Z" fill="#000000" fill-rule="evenodd" fill-opacity="1" /><path clip-path="url(#clip020)" d="M1373.73 1481.64 L1390.05 1481.64 L1390.05 1485.58 L1368.11 1485.58 L1368.11 1481.64 Q1370.77 1478.89 1375.35 1474.26 Q1379.96 1469.61 1381.14 1468.27 Q1383.39 1465.74 1384.27 1464.01 Q1385.17 1462.25 1385.17 1460.56 Q1385.17 1457.8 1383.22 1456.07 Q1381.3 1454.33 1378.2 1454.33 Q1376 1454.33 1373.55 1455.09 Q1371.12 1455.86 1368.34 1457.41 L1368.34 1452.69 Q1371.16 1451.55 1373.62 1450.97 Q1376.07 1450.39 1378.11 1450.39 Q1383.48 1450.39 1386.67 1453.08 Q1389.87 1455.77 1389.87 1460.26 Q1389.87 1462.39 1389.06 1464.31 Q1388.27 1466.2 1386.16 1468.8 Q1385.58 1469.47 1382.48 1472.69 Q1379.38 1475.88 1373.73 1481.64 Z" fill="#000000" fill-rule="evenodd" fill-opacity="1" /><path clip-path="url(#clip020)" d="M1399.87 1479.7 L1404.75 1479.7 L1404.75 1485.58 L1399.87 1485.58 L1399.87 1479.7 Z" fill="#000000" fill-rule="evenodd" fill-opacity="1" /><path clip-path="url(#clip020)" d="M1424.94 1454.1 Q1421.33 1454.1 1419.5 1457.66 Q1417.69 1461.2 1417.69 1468.33 Q1417.69 1475.44 1419.5 1479.01 Q1421.33 1482.55 1424.94 1482.55 Q1428.57 1482.55 1430.38 1479.01 Q1432.2 1475.44 1432.2 1468.33 Q1432.2 1461.2 1430.38 1457.66 Q1428.57 1454.1 1424.94 1454.1 M1424.94 1450.39 Q1430.75 1450.39 1433.8 1455 Q1436.88 1459.58 1436.88 1468.33 Q1436.88 1477.06 1433.8 1481.67 Q1430.75 1486.25 1424.94 1486.25 Q1419.13 1486.25 1416.05 1481.67 Q1412.99 1477.06 1412.99 1468.33 Q1412.99 1459.58 1416.05 1455 Q1419.13 1450.39 1424.94 1450.39 Z" fill="#000000" fill-rule="evenodd" fill-opacity="1" /><path clip-path="url(#clip020)" d="M1853.13 1481.64 L1869.45 1481.64 L1869.45 1485.58 L1847.5 1485.58 L1847.5 1481.64 Q1850.16 1478.89 1854.75 1474.26 Q1859.35 1469.61 1860.53 1468.27 Q1862.78 1465.74 1863.66 1464.01 Q1864.56 1462.25 1864.56 1460.56 Q1864.56 1457.8 1862.62 1456.07 Q1860.7 1454.33 1857.6 1454.33 Q1855.4 1454.33 1852.94 1455.09 Q1850.51 1455.86 1847.73 1457.41 L1847.73 1452.69 Q1850.56 1451.55 1853.01 1450.97 Q1855.47 1450.39 1857.5 1450.39 Q1862.87 1450.39 1866.07 1453.08 Q1869.26 1455.77 1869.26 1460.26 Q1869.26 1462.39 1868.45 1464.31 Q1867.66 1466.2 1865.56 1468.8 Q1864.98 1469.47 1861.88 1472.69 Q1858.78 1475.88 1853.13 1481.64 Z" fill="#000000" fill-rule="evenodd" fill-opacity="1" /><path clip-path="url(#clip020)" d="M1879.26 1479.7 L1884.15 1479.7 L1884.15 1485.58 L1879.26 1485.58 L1879.26 1479.7 Z" fill="#000000" fill-rule="evenodd" fill-opacity="1" /><path clip-path="url(#clip020)" d="M1894.38 1451.02 L1912.73 1451.02 L1912.73 1454.96 L1898.66 1454.96 L1898.66 1463.43 Q1899.68 1463.08 1900.7 1462.92 Q1901.72 1462.73 1902.73 1462.73 Q1908.52 1462.73 1911.9 1465.9 Q1915.28 1469.08 1915.28 1474.49 Q1915.28 1480.07 1911.81 1483.17 Q1908.34 1486.25 1902.02 1486.25 Q1899.84 1486.25 1897.57 1485.88 Q1895.33 1485.51 1892.92 1484.77 L1892.92 1480.07 Q1895 1481.2 1897.22 1481.76 Q1899.45 1482.32 1901.92 1482.32 Q1905.93 1482.32 1908.27 1480.21 Q1910.6 1478.1 1910.6 1474.49 Q1910.6 1470.88 1908.27 1468.77 Q1905.93 1466.67 1901.92 1466.67 Q1900.05 1466.67 1898.17 1467.08 Q1896.32 1467.5 1894.38 1468.38 L1894.38 1451.02 Z" fill="#000000" fill-rule="evenodd" fill-opacity="1" /><path clip-path="url(#clip020)" d="M940.904 1561.26 L940.904 1548.5 L930.4 1548.5 L930.4 1543.22 L947.269 1543.22 L947.269 1563.62 Q943.545 1566.26 939.057 1567.63 Q934.57 1568.97 929.477 1568.97 Q918.337 1568.97 912.035 1562.47 Q905.765 1555.95 905.765 1544.33 Q905.765 1532.68 912.035 1526.19 Q918.337 1519.66 929.477 1519.66 Q934.124 1519.66 938.294 1520.81 Q942.495 1521.96 946.028 1524.18 L946.028 1531.03 Q942.463 1528 938.453 1526.48 Q934.442 1524.95 930.018 1524.95 Q921.297 1524.95 916.905 1529.82 Q912.544 1534.69 912.544 1544.33 Q912.544 1553.94 916.905 1558.81 Q921.297 1563.68 930.018 1563.68 Q933.424 1563.68 936.097 1563.11 Q938.771 1562.51 940.904 1561.26 Z" fill="#000000" fill-rule="evenodd" fill-opacity="1" /><path clip-path="url(#clip020)" d="M958.155 1553.98 L958.155 1532.4 L964.011 1532.4 L964.011 1553.75 Q964.011 1558.81 965.984 1561.36 Q967.958 1563.87 971.904 1563.87 Q976.647 1563.87 979.384 1560.85 Q982.153 1557.83 982.153 1552.61 L982.153 1532.4 L988.01 1532.4 L988.01 1568.04 L982.153 1568.04 L982.153 1562.57 Q980.021 1565.82 977.188 1567.41 Q974.387 1568.97 970.663 1568.97 Q964.52 1568.97 961.337 1565.15 Q958.155 1561.33 958.155 1553.98 M972.891 1531.54 L972.891 1531.54 Z" fill="#000000" fill-rule="evenodd" fill-opacity="1" /><path clip-path="url(#clip020)" d="M1029.71 1546.53 L1029.71 1568.04 L1023.85 1568.04 L1023.85 1546.72 Q1023.85 1541.66 1021.88 1539.14 Q1019.9 1536.63 1015.96 1536.63 Q1011.21 1536.63 1008.48 1539.65 Q1005.74 1542.68 1005.74 1547.9 L1005.74 1568.04 L999.85 1568.04 L999.85 1532.4 L1005.74 1532.4 L1005.74 1537.93 Q1007.84 1534.72 1010.67 1533.13 Q1013.54 1531.54 1017.26 1531.54 Q1023.4 1531.54 1026.55 1535.36 Q1029.71 1539.14 1029.71 1546.53 Z" fill="#000000" fill-rule="evenodd" fill-opacity="1" /><path clip-path="url(#clip020)" d="M1084.9 1545.76 Q1086.96 1546.46 1088.91 1548.76 Q1090.88 1551.05 1092.85 1555.06 L1099.38 1568.04 L1092.47 1568.04 L1086.39 1555.85 Q1084.04 1551.08 1081.81 1549.52 Q1079.61 1547.96 1075.79 1547.96 L1068.79 1547.96 L1068.79 1568.04 L1062.36 1568.04 L1062.36 1520.52 L1076.87 1520.52 Q1085.02 1520.52 1089.03 1523.93 Q1093.04 1527.34 1093.04 1534.21 Q1093.04 1538.7 1090.94 1541.66 Q1088.87 1544.62 1084.9 1545.76 M1068.79 1525.81 L1068.79 1542.68 L1076.87 1542.68 Q1081.52 1542.68 1083.88 1540.54 Q1086.26 1538.38 1086.26 1534.21 Q1086.26 1530.04 1083.88 1527.94 Q1081.52 1525.81 1076.87 1525.81 L1068.79 1525.81 Z" fill="#000000" fill-rule="evenodd" fill-opacity="1" /><path clip-path="url(#clip020)" d="M1122.17 1550.12 Q1115.07 1550.12 1112.33 1551.75 Q1109.59 1553.37 1109.59 1557.29 Q1109.59 1560.4 1111.63 1562.25 Q1113.7 1564.07 1117.23 1564.07 Q1122.1 1564.07 1125.03 1560.63 Q1127.99 1557.16 1127.99 1551.43 L1127.99 1550.12 L1122.17 1550.12 M1133.85 1547.71 L1133.85 1568.04 L1127.99 1568.04 L1127.99 1562.63 Q1125.99 1565.88 1122.99 1567.44 Q1120 1568.97 1115.67 1568.97 Q1110.2 1568.97 1106.95 1565.91 Q1103.74 1562.82 1103.74 1557.67 Q1103.74 1551.65 1107.75 1548.6 Q1111.79 1545.54 1119.78 1545.54 L1127.99 1545.54 L1127.99 1544.97 Q1127.99 1540.93 1125.32 1538.73 Q1122.68 1536.5 1117.87 1536.5 Q1114.81 1536.5 1111.92 1537.23 Q1109.02 1537.97 1106.35 1539.43 L1106.35 1534.02 Q1109.56 1532.78 1112.59 1532.17 Q1115.61 1531.54 1118.47 1531.54 Q1126.21 1531.54 1130.03 1535.55 Q1133.85 1539.56 1133.85 1547.71 Z" fill="#000000" fill-rule="evenodd" fill-opacity="1" /><path clip-path="url(#clip020)" d="M1151.7 1522.27 L1151.7 1532.4 L1163.77 1532.4 L1163.77 1536.95 L1151.7 1536.95 L1151.7 1556.3 Q1151.7 1560.66 1152.88 1561.9 Q1154.09 1563.14 1157.75 1563.14 L1163.77 1563.14 L1163.77 1568.04 L1157.75 1568.04 Q1150.97 1568.04 1148.39 1565.53 Q1145.82 1562.98 1145.82 1556.3 L1145.82 1536.95 L1141.52 1536.95 L1141.52 1532.4 L1145.82 1532.4 L1145.82 1522.27 L1151.7 1522.27 Z" fill="#000000" fill-rule="evenodd" fill-opacity="1" /><path clip-path="url(#clip020)" d="M1201.96 1548.76 L1201.96 1551.62 L1175.03 1551.62 Q1175.42 1557.67 1178.66 1560.85 Q1181.94 1564 1187.77 1564 Q1191.14 1564 1194.29 1563.17 Q1197.47 1562.35 1200.59 1560.69 L1200.59 1566.23 Q1197.44 1567.57 1194.13 1568.27 Q1190.82 1568.97 1187.42 1568.97 Q1178.89 1568.97 1173.89 1564 Q1168.92 1559.04 1168.92 1550.57 Q1168.92 1541.82 1173.63 1536.69 Q1178.38 1531.54 1186.4 1531.54 Q1193.59 1531.54 1197.76 1536.18 Q1201.96 1540.8 1201.96 1548.76 M1196.1 1547.04 Q1196.04 1542.23 1193.4 1539.37 Q1190.79 1536.5 1186.46 1536.5 Q1181.56 1536.5 1178.6 1539.27 Q1175.67 1542.04 1175.23 1547.07 L1196.1 1547.04 Z" fill="#000000" fill-rule="evenodd" fill-opacity="1" /><path clip-path="url(#clip020)" d="M1246.36 1518.58 Q1242.1 1525.9 1240.03 1533.06 Q1237.96 1540.23 1237.96 1547.58 Q1237.96 1554.93 1240.03 1562.16 Q1242.13 1569.35 1246.36 1576.64 L1241.27 1576.64 Q1236.5 1569.16 1234.11 1561.93 Q1231.75 1554.71 1231.75 1547.58 Q1231.75 1540.48 1234.11 1533.29 Q1236.46 1526.09 1241.27 1518.58 L1246.36 1518.58 Z" fill="#000000" fill-rule="evenodd" fill-opacity="1" /><path clip-path="url(#clip020)" d="M1281.18 1549.81 Q1281.18 1543.44 1278.54 1539.94 Q1275.93 1536.44 1271.19 1536.44 Q1266.48 1536.44 1263.84 1539.94 Q1261.23 1543.44 1261.23 1549.81 Q1261.23 1556.14 1263.84 1559.64 Q1266.48 1563.14 1271.19 1563.14 Q1275.93 1563.14 1278.54 1559.64 Q1281.18 1556.14 1281.18 1549.81 M1287.04 1563.62 Q1287.04 1572.72 1283 1577.15 Q1278.95 1581.6 1270.62 1581.6 Q1267.53 1581.6 1264.79 1581.13 Q1262.05 1580.68 1259.48 1579.72 L1259.48 1574.03 Q1262.05 1575.43 1264.57 1576.1 Q1267.08 1576.76 1269.69 1576.76 Q1275.45 1576.76 1278.32 1573.74 Q1281.18 1570.75 1281.18 1564.67 L1281.18 1561.77 Q1279.37 1564.92 1276.54 1566.48 Q1273.7 1568.04 1269.76 1568.04 Q1263.2 1568.04 1259.19 1563.05 Q1255.18 1558.05 1255.18 1549.81 Q1255.18 1541.53 1259.19 1536.53 Q1263.2 1531.54 1269.76 1531.54 Q1273.7 1531.54 1276.54 1533.1 Q1279.37 1534.66 1281.18 1537.81 L1281.18 1532.4 L1287.04 1532.4 L1287.04 1563.62 Z" fill="#000000" fill-rule="evenodd" fill-opacity="1" /><path clip-path="url(#clip020)" d="M1298.5 1553.98 L1298.5 1532.4 L1304.35 1532.4 L1304.35 1553.75 Q1304.35 1558.81 1306.33 1561.36 Q1308.3 1563.87 1312.25 1563.87 Q1316.99 1563.87 1319.73 1560.85 Q1322.5 1557.83 1322.5 1552.61 L1322.5 1532.4 L1328.35 1532.4 L1328.35 1568.04 L1322.5 1568.04 L1322.5 1562.57 Q1320.36 1565.82 1317.53 1567.41 Q1314.73 1568.97 1311.01 1568.97 Q1304.86 1568.97 1301.68 1565.15 Q1298.5 1561.33 1298.5 1553.98 M1313.23 1531.54 L1313.23 1531.54 Z" fill="#000000" fill-rule="evenodd" fill-opacity="1" /><path clip-path="url(#clip020)" d="M1370.05 1546.53 L1370.05 1568.04 L1364.19 1568.04 L1364.19 1546.72 Q1364.19 1541.66 1362.22 1539.14 Q1360.24 1536.63 1356.3 1536.63 Q1351.56 1536.63 1348.82 1539.65 Q1346.08 1542.68 1346.08 1547.9 L1346.08 1568.04 L1340.19 1568.04 L1340.19 1532.4 L1346.08 1532.4 L1346.08 1537.93 Q1348.18 1534.72 1351.01 1533.13 Q1353.88 1531.54 1357.6 1531.54 Q1363.75 1531.54 1366.9 1535.36 Q1370.05 1539.14 1370.05 1546.53 Z" fill="#000000" fill-rule="evenodd" fill-opacity="1" /><path clip-path="url(#clip020)" d="M1404.45 1533.45 L1404.45 1538.98 Q1401.97 1537.71 1399.3 1537.07 Q1396.62 1536.44 1393.76 1536.44 Q1389.4 1536.44 1387.2 1537.77 Q1385.04 1539.11 1385.04 1541.79 Q1385.04 1543.82 1386.6 1545 Q1388.16 1546.15 1392.87 1547.2 L1394.87 1547.64 Q1401.11 1548.98 1403.72 1551.43 Q1406.36 1553.85 1406.36 1558.21 Q1406.36 1563.17 1402.42 1566.07 Q1398.5 1568.97 1391.63 1568.97 Q1388.76 1568.97 1385.64 1568.39 Q1382.56 1567.85 1379.12 1566.74 L1379.12 1560.69 Q1382.37 1562.38 1385.52 1563.24 Q1388.67 1564.07 1391.75 1564.07 Q1395.89 1564.07 1398.12 1562.66 Q1400.35 1561.23 1400.35 1558.65 Q1400.35 1556.27 1398.73 1554.99 Q1397.13 1553.72 1391.69 1552.54 L1389.65 1552.07 Q1384.21 1550.92 1381.79 1548.56 Q1379.37 1546.18 1379.37 1542.04 Q1379.37 1537.01 1382.94 1534.27 Q1386.5 1531.54 1393.06 1531.54 Q1396.31 1531.54 1399.17 1532.01 Q1402.04 1532.49 1404.45 1533.45 Z" fill="#000000" fill-rule="evenodd" fill-opacity="1" /><path clip-path="url(#clip020)" d="M1426.1 1520.52 L1431.51 1520.52 L1414.96 1574.09 L1409.55 1574.09 L1426.1 1520.52 Z" fill="#000000" fill-rule="evenodd" fill-opacity="1" /><path clip-path="url(#clip020)" d="M1463.31 1533.76 L1463.31 1539.24 Q1460.82 1537.87 1458.31 1537.2 Q1455.83 1536.5 1453.28 1536.5 Q1447.58 1536.5 1444.43 1540.13 Q1441.28 1543.73 1441.28 1550.25 Q1441.28 1556.78 1444.43 1560.4 Q1447.58 1564 1453.28 1564 Q1455.83 1564 1458.31 1563.33 Q1460.82 1562.63 1463.31 1561.26 L1463.31 1566.68 Q1460.85 1567.82 1458.21 1568.39 Q1455.6 1568.97 1452.64 1568.97 Q1444.59 1568.97 1439.85 1563.91 Q1435.11 1558.85 1435.11 1550.25 Q1435.11 1541.53 1439.88 1536.53 Q1444.69 1531.54 1453.02 1531.54 Q1455.73 1531.54 1458.31 1532.11 Q1460.89 1532.65 1463.31 1533.76 Z" fill="#000000" fill-rule="evenodd" fill-opacity="1" /><path clip-path="url(#clip020)" d="M1489.69 1550.12 Q1482.59 1550.12 1479.86 1551.75 Q1477.12 1553.37 1477.12 1557.29 Q1477.12 1560.4 1479.16 1562.25 Q1481.22 1564.07 1484.76 1564.07 Q1489.63 1564.07 1492.56 1560.63 Q1495.52 1557.16 1495.52 1551.43 L1495.52 1550.12 L1489.69 1550.12 M1501.37 1547.71 L1501.37 1568.04 L1495.52 1568.04 L1495.52 1562.63 Q1493.51 1565.88 1490.52 1567.44 Q1487.53 1568.97 1483.2 1568.97 Q1477.72 1568.97 1474.48 1565.91 Q1471.26 1562.82 1471.26 1557.67 Q1471.26 1551.65 1475.27 1548.6 Q1479.31 1545.54 1487.3 1545.54 L1495.52 1545.54 L1495.52 1544.97 Q1495.52 1540.93 1492.84 1538.73 Q1490.2 1536.5 1485.39 1536.5 Q1482.34 1536.5 1479.44 1537.23 Q1476.55 1537.97 1473.87 1539.43 L1473.87 1534.02 Q1477.09 1532.78 1480.11 1532.17 Q1483.13 1531.54 1486 1531.54 Q1493.73 1531.54 1497.55 1535.55 Q1501.37 1539.56 1501.37 1547.71 Z" fill="#000000" fill-rule="evenodd" fill-opacity="1" /><path clip-path="url(#clip020)" d="M1519.1 1562.7 L1519.1 1581.6 L1513.21 1581.6 L1513.21 1532.4 L1519.1 1532.4 L1519.1 1537.81 Q1520.95 1534.62 1523.75 1533.1 Q1526.58 1531.54 1530.5 1531.54 Q1536.99 1531.54 1541.03 1536.69 Q1545.1 1541.85 1545.1 1550.25 Q1545.1 1558.65 1541.03 1563.81 Q1536.99 1568.97 1530.5 1568.97 Q1526.58 1568.97 1523.75 1567.44 Q1520.95 1565.88 1519.1 1562.7 M1539.03 1550.25 Q1539.03 1543.79 1536.35 1540.13 Q1533.71 1536.44 1529.06 1536.44 Q1524.42 1536.44 1521.74 1540.13 Q1519.1 1543.79 1519.1 1550.25 Q1519.1 1556.71 1521.74 1560.4 Q1524.42 1564.07 1529.06 1564.07 Q1533.71 1564.07 1536.35 1560.4 Q1539.03 1556.71 1539.03 1550.25 Z" fill="#000000" fill-rule="evenodd" fill-opacity="1" /><path clip-path="url(#clip020)" d="M1554.81 1532.4 L1560.67 1532.4 L1560.67 1568.04 L1554.81 1568.04 L1554.81 1532.4 M1554.81 1518.52 L1560.67 1518.52 L1560.67 1525.93 L1554.81 1525.93 L1554.81 1518.52 Z" fill="#000000" fill-rule="evenodd" fill-opacity="1" /><path clip-path="url(#clip020)" d="M1578.72 1522.27 L1578.72 1532.4 L1590.78 1532.4 L1590.78 1536.95 L1578.72 1536.95 L1578.72 1556.3 Q1578.72 1560.66 1579.89 1561.9 Q1581.1 1563.14 1584.76 1563.14 L1590.78 1563.14 L1590.78 1568.04 L1584.76 1568.04 Q1577.98 1568.04 1575.41 1565.53 Q1572.83 1562.98 1572.83 1556.3 L1572.83 1536.95 L1568.53 1536.95 L1568.53 1532.4 L1572.83 1532.4 L1572.83 1522.27 L1578.72 1522.27 Z" fill="#000000" fill-rule="evenodd" fill-opacity="1" /><path clip-path="url(#clip020)" d="M1614.68 1550.12 Q1607.58 1550.12 1604.85 1551.75 Q1602.11 1553.37 1602.11 1557.29 Q1602.11 1560.4 1604.15 1562.25 Q1606.22 1564.07 1609.75 1564.07 Q1614.62 1564.07 1617.55 1560.63 Q1620.51 1557.16 1620.51 1551.43 L1620.51 1550.12 L1614.68 1550.12 M1626.36 1547.71 L1626.36 1568.04 L1620.51 1568.04 L1620.51 1562.63 Q1618.5 1565.88 1615.51 1567.44 Q1612.52 1568.97 1608.19 1568.97 Q1602.71 1568.97 1599.47 1565.91 Q1596.25 1562.82 1596.25 1557.67 Q1596.25 1551.65 1600.26 1548.6 Q1604.31 1545.54 1612.29 1545.54 L1620.51 1545.54 L1620.51 1544.97 Q1620.51 1540.93 1617.83 1538.73 Q1615.19 1536.5 1610.38 1536.5 Q1607.33 1536.5 1604.43 1537.23 Q1601.54 1537.97 1598.86 1539.43 L1598.86 1534.02 Q1602.08 1532.78 1605.1 1532.17 Q1608.13 1531.54 1610.99 1531.54 Q1618.72 1531.54 1622.54 1535.55 Q1626.36 1539.56 1626.36 1547.71 Z" fill="#000000" fill-rule="evenodd" fill-opacity="1" /><path clip-path="url(#clip020)" d="M1637.5 1518.58 L1642.6 1518.58 Q1647.37 1526.09 1649.72 1533.29 Q1652.11 1540.48 1652.11 1547.58 Q1652.11 1554.71 1649.72 1561.93 Q1647.37 1569.16 1642.6 1576.64 L1637.5 1576.64 Q1641.74 1569.35 1643.8 1562.16 Q1645.91 1554.93 1645.91 1547.58 Q1645.91 1540.23 1643.8 1533.06 Q1641.74 1525.9 1637.5 1518.58 Z" fill="#000000" fill-rule="evenodd" fill-opacity="1" /><polyline clip-path="url(#clip022)" style="stroke:#000000; stroke-linecap:butt; stroke-linejoin:round; stroke-width:2; stroke-opacity:0.1; fill:none" points="
  205.121,1404.37 2352.76,1404.37 
  "/>
<polyline clip-path="url(#clip022)" style="stroke:#000000; stroke-linecap:butt; stroke-linejoin:round; stroke-width:2; stroke-opacity:0.1; fill:none" points="
  205.121,1179.71 2352.76,1179.71 
  "/>
<polyline clip-path="url(#clip022)" style="stroke:#000000; stroke-linecap:butt; stroke-linejoin:round; stroke-width:2; stroke-opacity:0.1; fill:none" points="
  205.121,955.052 2352.76,955.052 
  "/>
<polyline clip-path="url(#clip022)" style="stroke:#000000; stroke-linecap:butt; stroke-linejoin:round; stroke-width:2; stroke-opacity:0.1; fill:none" points="
  205.121,730.394 2352.76,730.394 
  "/>
<polyline clip-path="url(#clip022)" style="stroke:#000000; stroke-linecap:butt; stroke-linejoin:round; stroke-width:2; stroke-opacity:0.1; fill:none" points="
  205.121,505.736 2352.76,505.736 
  "/>
<polyline clip-path="url(#clip022)" style="stroke:#000000; stroke-linecap:butt; stroke-linejoin:round; stroke-width:2; stroke-opacity:0.1; fill:none" points="
  205.121,281.077 2352.76,281.077 
  "/>
<polyline clip-path="url(#clip020)" style="stroke:#000000; stroke-linecap:butt; stroke-linejoin:round; stroke-width:4; stroke-opacity:1; fill:none" points="
  205.121,1423.18 205.121,123.472 
  "/>
<polyline clip-path="url(#clip020)" style="stroke:#000000; stroke-linecap:butt; stroke-linejoin:round; stroke-width:4; stroke-opacity:1; fill:none" points="
  205.121,1404.37 224.019,1404.37 
  "/>
<polyline clip-path="url(#clip020)" style="stroke:#000000; stroke-linecap:butt; stroke-linejoin:round; stroke-width:4; stroke-opacity:1; fill:none" points="
  205.121,1179.71 224.019,1179.71 
  "/>
<polyline clip-path="url(#clip020)" style="stroke:#000000; stroke-linecap:butt; stroke-linejoin:round; stroke-width:4; stroke-opacity:1; fill:none" points="
  205.121,955.052 224.019,955.052 
  "/>
<polyline clip-path="url(#clip020)" style="stroke:#000000; stroke-linecap:butt; stroke-linejoin:round; stroke-width:4; stroke-opacity:1; fill:none" points="
  205.121,730.394 224.019,730.394 
  "/>
<polyline clip-path="url(#clip020)" style="stroke:#000000; stroke-linecap:butt; stroke-linejoin:round; stroke-width:4; stroke-opacity:1; fill:none" points="
  205.121,505.736 224.019,505.736 
  "/>
<polyline clip-path="url(#clip020)" style="stroke:#000000; stroke-linecap:butt; stroke-linejoin:round; stroke-width:4; stroke-opacity:1; fill:none" points="
  205.121,281.077 224.019,281.077 
  "/>
<path clip-path="url(#clip020)" d="M157.177 1390.17 Q153.566 1390.17 151.737 1393.73 Q149.931 1397.27 149.931 1404.4 Q149.931 1411.51 151.737 1415.07 Q153.566 1418.62 157.177 1418.62 Q160.811 1418.62 162.616 1415.07 Q164.445 1411.51 164.445 1404.4 Q164.445 1397.27 162.616 1393.73 Q160.811 1390.17 157.177 1390.17 M157.177 1386.46 Q162.987 1386.46 166.042 1391.07 Q169.121 1395.65 169.121 1404.4 Q169.121 1413.13 166.042 1417.74 Q162.987 1422.32 157.177 1422.32 Q151.366 1422.32 148.288 1417.74 Q145.232 1413.13 145.232 1404.4 Q145.232 1395.65 148.288 1391.07 Q151.366 1386.46 157.177 1386.46 Z" fill="#000000" fill-rule="evenodd" fill-opacity="1" /><path clip-path="url(#clip020)" d="M117.825 1193.05 L125.464 1193.05 L125.464 1166.69 L117.154 1168.36 L117.154 1164.1 L125.418 1162.43 L130.093 1162.43 L130.093 1193.05 L137.732 1193.05 L137.732 1196.99 L117.825 1196.99 L117.825 1193.05 Z" fill="#000000" fill-rule="evenodd" fill-opacity="1" /><path clip-path="url(#clip020)" d="M157.177 1165.51 Q153.566 1165.51 151.737 1169.07 Q149.931 1172.62 149.931 1179.74 Q149.931 1186.85 151.737 1190.42 Q153.566 1193.96 157.177 1193.96 Q160.811 1193.96 162.616 1190.42 Q164.445 1186.85 164.445 1179.74 Q164.445 1172.62 162.616 1169.07 Q160.811 1165.51 157.177 1165.51 M157.177 1161.81 Q162.987 1161.81 166.042 1166.41 Q169.121 1170.99 169.121 1179.74 Q169.121 1188.47 166.042 1193.08 Q162.987 1197.66 157.177 1197.66 Q151.366 1197.66 148.288 1193.08 Q145.232 1188.47 145.232 1179.74 Q145.232 1170.99 148.288 1166.41 Q151.366 1161.81 157.177 1161.81 Z" fill="#000000" fill-rule="evenodd" fill-opacity="1" /><path clip-path="url(#clip020)" d="M121.043 968.397 L137.362 968.397 L137.362 972.332 L115.418 972.332 L115.418 968.397 Q118.08 965.642 122.663 961.013 Q127.269 956.36 128.45 955.017 Q130.695 952.494 131.575 950.758 Q132.478 948.999 132.478 947.309 Q132.478 944.554 130.533 942.818 Q128.612 941.082 125.51 941.082 Q123.311 941.082 120.857 941.846 Q118.427 942.61 115.649 944.161 L115.649 939.439 Q118.473 938.304 120.927 937.726 Q123.38 937.147 125.418 937.147 Q130.788 937.147 133.982 939.832 Q137.177 942.517 137.177 947.008 Q137.177 949.138 136.367 951.059 Q135.579 952.957 133.473 955.55 Q132.894 956.221 129.792 959.439 Q126.691 962.633 121.043 968.397 Z" fill="#000000" fill-rule="evenodd" fill-opacity="1" /><path clip-path="url(#clip020)" d="M157.177 940.851 Q153.566 940.851 151.737 944.415 Q149.931 947.957 149.931 955.087 Q149.931 962.193 151.737 965.758 Q153.566 969.3 157.177 969.3 Q160.811 969.3 162.616 965.758 Q164.445 962.193 164.445 955.087 Q164.445 947.957 162.616 944.415 Q160.811 940.851 157.177 940.851 M157.177 937.147 Q162.987 937.147 166.042 941.753 Q169.121 946.337 169.121 955.087 Q169.121 963.814 166.042 968.42 Q162.987 973.003 157.177 973.003 Q151.366 973.003 148.288 968.42 Q145.232 963.814 145.232 955.087 Q145.232 946.337 148.288 941.753 Q151.366 937.147 157.177 937.147 Z" fill="#000000" fill-rule="evenodd" fill-opacity="1" /><path clip-path="url(#clip020)" d="M131.181 729.04 Q134.538 729.757 136.413 732.026 Q138.311 734.294 138.311 737.628 Q138.311 742.743 134.792 745.544 Q131.274 748.345 124.793 748.345 Q122.617 748.345 120.302 747.905 Q118.01 747.489 115.556 746.632 L115.556 742.118 Q117.501 743.253 119.816 743.831 Q122.13 744.41 124.654 744.41 Q129.052 744.41 131.343 742.674 Q133.658 740.938 133.658 737.628 Q133.658 734.572 131.505 732.859 Q129.376 731.123 125.556 731.123 L121.529 731.123 L121.529 727.28 L125.742 727.28 Q129.191 727.28 131.019 725.915 Q132.848 724.526 132.848 721.933 Q132.848 719.271 130.95 717.859 Q129.075 716.424 125.556 716.424 Q123.635 716.424 121.436 716.841 Q119.237 717.257 116.598 718.137 L116.598 713.97 Q119.26 713.23 121.575 712.859 Q123.913 712.489 125.973 712.489 Q131.297 712.489 134.399 714.919 Q137.501 717.327 137.501 721.447 Q137.501 724.317 135.857 726.308 Q134.214 728.276 131.181 729.04 Z" fill="#000000" fill-rule="evenodd" fill-opacity="1" /><path clip-path="url(#clip020)" d="M157.177 716.192 Q153.566 716.192 151.737 719.757 Q149.931 723.299 149.931 730.429 Q149.931 737.535 151.737 741.1 Q153.566 744.641 157.177 744.641 Q160.811 744.641 162.616 741.1 Q164.445 737.535 164.445 730.429 Q164.445 723.299 162.616 719.757 Q160.811 716.192 157.177 716.192 M157.177 712.489 Q162.987 712.489 166.042 717.095 Q169.121 721.679 169.121 730.429 Q169.121 739.155 166.042 743.762 Q162.987 748.345 157.177 748.345 Q151.366 748.345 148.288 743.762 Q145.232 739.155 145.232 730.429 Q145.232 721.679 148.288 717.095 Q151.366 712.489 157.177 712.489 Z" fill="#000000" fill-rule="evenodd" fill-opacity="1" /><path clip-path="url(#clip020)" d="M129.862 492.53 L118.056 510.979 L129.862 510.979 L129.862 492.53 M128.635 488.456 L134.515 488.456 L134.515 510.979 L139.445 510.979 L139.445 514.868 L134.515 514.868 L134.515 523.016 L129.862 523.016 L129.862 514.868 L114.26 514.868 L114.26 510.354 L128.635 488.456 Z" fill="#000000" fill-rule="evenodd" fill-opacity="1" /><path clip-path="url(#clip020)" d="M157.177 491.534 Q153.566 491.534 151.737 495.099 Q149.931 498.641 149.931 505.77 Q149.931 512.877 151.737 516.442 Q153.566 519.983 157.177 519.983 Q160.811 519.983 162.616 516.442 Q164.445 512.877 164.445 505.77 Q164.445 498.641 162.616 495.099 Q160.811 491.534 157.177 491.534 M157.177 487.831 Q162.987 487.831 166.042 492.437 Q169.121 497.02 169.121 505.77 Q169.121 514.497 166.042 519.104 Q162.987 523.687 157.177 523.687 Q151.366 523.687 148.288 519.104 Q145.232 514.497 145.232 505.77 Q145.232 497.02 148.288 492.437 Q151.366 487.831 157.177 487.831 Z" fill="#000000" fill-rule="evenodd" fill-opacity="1" /><path clip-path="url(#clip020)" d="M117.061 263.797 L135.417 263.797 L135.417 267.733 L121.343 267.733 L121.343 276.205 Q122.362 275.858 123.38 275.696 Q124.399 275.51 125.418 275.51 Q131.205 275.51 134.584 278.682 Q137.964 281.853 137.964 287.27 Q137.964 292.848 134.492 295.95 Q131.019 299.029 124.7 299.029 Q122.524 299.029 120.255 298.658 Q118.01 298.288 115.603 297.547 L115.603 292.848 Q117.686 293.982 119.908 294.538 Q122.13 295.094 124.607 295.094 Q128.612 295.094 130.95 292.987 Q133.288 290.881 133.288 287.27 Q133.288 283.658 130.95 281.552 Q128.612 279.446 124.607 279.446 Q122.732 279.446 120.857 279.862 Q119.006 280.279 117.061 281.158 L117.061 263.797 Z" fill="#000000" fill-rule="evenodd" fill-opacity="1" /><path clip-path="url(#clip020)" d="M157.177 266.876 Q153.566 266.876 151.737 270.441 Q149.931 273.983 149.931 281.112 Q149.931 288.219 151.737 291.783 Q153.566 295.325 157.177 295.325 Q160.811 295.325 162.616 291.783 Q164.445 288.219 164.445 281.112 Q164.445 273.983 162.616 270.441 Q160.811 266.876 157.177 266.876 M157.177 263.172 Q162.987 263.172 166.042 267.779 Q169.121 272.362 169.121 281.112 Q169.121 289.839 166.042 294.445 Q162.987 299.029 157.177 299.029 Q151.366 299.029 148.288 294.445 Q145.232 289.839 145.232 281.112 Q145.232 272.362 148.288 267.779 Q151.366 263.172 157.177 263.172 Z" fill="#000000" fill-rule="evenodd" fill-opacity="1" /><path clip-path="url(#clip020)" d="M16.4842 1521.5 L16.4842 1494.19 L21.895 1494.19 L21.895 1515.07 L35.8996 1515.07 L35.8996 1496.23 L41.3104 1496.23 L41.3104 1515.07 L64.0042 1515.07 L64.0042 1521.5 L16.4842 1521.5 Z" fill="#000000" fill-rule="evenodd" fill-opacity="1" /><path clip-path="url(#clip020)" d="M28.3562 1489.01 L28.3562 1483.15 L64.0042 1483.15 L64.0042 1489.01 L28.3562 1489.01 M14.479 1489.01 L14.479 1483.15 L21.895 1483.15 L21.895 1489.01 L14.479 1489.01 Z" fill="#000000" fill-rule="evenodd" fill-opacity="1" /><path clip-path="url(#clip020)" d="M33.8307 1450.24 Q33.2578 1451.23 33.0032 1452.4 Q32.7167 1453.55 32.7167 1454.95 Q32.7167 1459.92 35.9632 1462.59 Q39.1779 1465.23 45.2253 1465.23 L64.0042 1465.23 L64.0042 1471.12 L28.3562 1471.12 L28.3562 1465.23 L33.8944 1465.23 Q30.6479 1463.38 29.0883 1460.42 Q27.4968 1457.46 27.4968 1453.23 Q27.4968 1452.63 27.5923 1451.89 Q27.656 1451.16 27.8151 1450.27 L33.8307 1450.24 Z" fill="#000000" fill-rule="evenodd" fill-opacity="1" /><path clip-path="url(#clip020)" d="M44.7161 1415.04 L47.5806 1415.04 L47.5806 1441.96 Q53.6281 1441.58 56.8109 1438.34 Q59.9619 1435.06 59.9619 1429.23 Q59.9619 1425.86 59.1344 1422.71 Q58.3069 1419.52 56.6518 1416.41 L62.1899 1416.41 Q63.5267 1419.56 64.227 1422.87 Q64.9272 1426.18 64.9272 1429.58 Q64.9272 1438.11 59.9619 1443.11 Q54.9967 1448.07 46.5303 1448.07 Q37.7774 1448.07 32.6531 1443.36 Q27.4968 1438.62 27.4968 1430.6 Q27.4968 1423.41 32.1438 1419.24 Q36.7589 1415.04 44.7161 1415.04 M42.9973 1420.89 Q38.1912 1420.96 35.3266 1423.6 Q32.4621 1426.21 32.4621 1430.54 Q32.4621 1435.44 35.2312 1438.4 Q38.0002 1441.33 43.0292 1441.77 L42.9973 1420.89 Z" fill="#000000" fill-rule="evenodd" fill-opacity="1" /><path clip-path="url(#clip020)" d="M46.0847 1389.22 Q46.0847 1396.32 47.7079 1399.06 Q49.3312 1401.8 53.2461 1401.8 Q56.3653 1401.8 58.2114 1399.76 Q60.0256 1397.69 60.0256 1394.16 Q60.0256 1389.29 56.5881 1386.36 Q53.1188 1383.4 47.3897 1383.4 L46.0847 1383.4 L46.0847 1389.22 M43.6657 1377.54 L64.0042 1377.54 L64.0042 1383.4 L58.5933 1383.4 Q61.8398 1385.4 63.3994 1388.4 Q64.9272 1391.39 64.9272 1395.72 Q64.9272 1401.19 61.8716 1404.44 Q58.7843 1407.65 53.6281 1407.65 Q47.6125 1407.65 44.5569 1403.64 Q41.5014 1399.6 41.5014 1391.61 L41.5014 1383.4 L40.9285 1383.4 Q36.8862 1383.4 34.6901 1386.07 Q32.4621 1388.71 32.4621 1393.52 Q32.4621 1396.58 33.1941 1399.47 Q33.9262 1402.37 35.3903 1405.04 L29.9795 1405.04 Q28.7381 1401.83 28.1334 1398.8 Q27.4968 1395.78 27.4968 1392.92 Q27.4968 1385.18 31.5072 1381.36 Q35.5176 1377.54 43.6657 1377.54 Z" fill="#000000" fill-rule="evenodd" fill-opacity="1" /><path clip-path="url(#clip020)" d="M33.8307 1344.82 Q33.2578 1345.81 33.0032 1346.99 Q32.7167 1348.13 32.7167 1349.53 Q32.7167 1354.5 35.9632 1357.17 Q39.1779 1359.81 45.2253 1359.81 L64.0042 1359.81 L64.0042 1365.7 L28.3562 1365.7 L28.3562 1359.81 L33.8944 1359.81 Q30.6479 1357.97 29.0883 1355.01 Q27.4968 1352.05 27.4968 1347.82 Q27.4968 1347.21 27.5923 1346.48 Q27.656 1345.75 27.8151 1344.86 L33.8307 1344.82 Z" fill="#000000" fill-rule="evenodd" fill-opacity="1" /><path clip-path="url(#clip020)" d="M35.1993 1312.07 Q31.2526 1309.88 29.3747 1306.82 Q27.4968 1303.76 27.4968 1299.63 Q27.4968 1294.06 31.4117 1291.03 Q35.2948 1288.01 42.4881 1288.01 L64.0042 1288.01 L64.0042 1293.9 L42.679 1293.9 Q37.5546 1293.9 35.072 1295.71 Q32.5894 1297.53 32.5894 1301.25 Q32.5894 1305.8 35.6131 1308.44 Q38.6368 1311.08 43.8567 1311.08 L64.0042 1311.08 L64.0042 1316.97 L42.679 1316.97 Q37.5228 1316.97 35.072 1318.79 Q32.5894 1320.6 32.5894 1324.39 Q32.5894 1328.88 35.6449 1331.52 Q38.6686 1334.16 43.8567 1334.16 L64.0042 1334.16 L64.0042 1340.05 L28.3562 1340.05 L28.3562 1334.16 L33.8944 1334.16 Q30.616 1332.16 29.0564 1329.35 Q27.4968 1326.55 27.4968 1322.7 Q27.4968 1318.82 29.4702 1316.11 Q31.4436 1313.38 35.1993 1312.07 Z" fill="#000000" fill-rule="evenodd" fill-opacity="1" /><path clip-path="url(#clip020)" d="M16.4842 1255.35 L16.4842 1248.92 L35.9632 1248.92 L35.9632 1225.56 L16.4842 1225.56 L16.4842 1219.13 L64.0042 1219.13 L64.0042 1225.56 L41.3741 1225.56 L41.3741 1248.92 L64.0042 1248.92 L64.0042 1255.35 L16.4842 1255.35 Z" fill="#000000" fill-rule="evenodd" fill-opacity="1" /><path clip-path="url(#clip020)" d="M32.4621 1192.78 Q32.4621 1197.49 36.1542 1200.23 Q39.8145 1202.96 46.212 1202.96 Q52.6095 1202.96 56.3017 1200.26 Q59.9619 1197.52 59.9619 1192.78 Q59.9619 1188.1 56.2698 1185.36 Q52.5777 1182.63 46.212 1182.63 Q39.8781 1182.63 36.186 1185.36 Q32.4621 1188.1 32.4621 1192.78 M27.4968 1192.78 Q27.4968 1185.14 32.4621 1180.78 Q37.4273 1176.42 46.212 1176.42 Q54.9649 1176.42 59.9619 1180.78 Q64.9272 1185.14 64.9272 1192.78 Q64.9272 1200.45 59.9619 1204.81 Q54.9649 1209.14 46.212 1209.14 Q37.4273 1209.14 32.4621 1204.81 Q27.4968 1200.45 27.4968 1192.78 Z" fill="#000000" fill-rule="evenodd" fill-opacity="1" /><path clip-path="url(#clip020)" d="M35.1993 1138.96 Q31.2526 1136.76 29.3747 1133.7 Q27.4968 1130.65 27.4968 1126.51 Q27.4968 1120.94 31.4117 1117.92 Q35.2948 1114.89 42.4881 1114.89 L64.0042 1114.89 L64.0042 1120.78 L42.679 1120.78 Q37.5546 1120.78 35.072 1122.6 Q32.5894 1124.41 32.5894 1128.13 Q32.5894 1132.69 35.6131 1135.33 Q38.6368 1137.97 43.8567 1137.97 L64.0042 1137.97 L64.0042 1143.86 L42.679 1143.86 Q37.5228 1143.86 35.072 1145.67 Q32.5894 1147.49 32.5894 1151.27 Q32.5894 1155.76 35.6449 1158.4 Q38.6686 1161.05 43.8567 1161.05 L64.0042 1161.05 L64.0042 1166.93 L28.3562 1166.93 L28.3562 1161.05 L33.8944 1161.05 Q30.616 1159.04 29.0564 1156.24 Q27.4968 1153.44 27.4968 1149.59 Q27.4968 1145.7 29.4702 1143 Q31.4436 1140.26 35.1993 1138.96 Z" fill="#000000" fill-rule="evenodd" fill-opacity="1" /><path clip-path="url(#clip020)" d="M28.3562 1103.21 L28.3562 1097.36 L64.0042 1097.36 L64.0042 1103.21 L28.3562 1103.21 M14.479 1103.21 L14.479 1097.36 L21.895 1097.36 L21.895 1103.21 L14.479 1103.21 Z" fill="#000000" fill-rule="evenodd" fill-opacity="1" /><path clip-path="url(#clip020)" d="M29.7248 1059.45 L35.1993 1059.45 Q33.8307 1061.93 33.1623 1064.45 Q32.4621 1066.93 32.4621 1069.47 Q32.4621 1075.17 36.0905 1078.32 Q39.6872 1081.47 46.212 1081.47 Q52.7369 1081.47 56.3653 1078.32 Q59.9619 1075.17 59.9619 1069.47 Q59.9619 1066.93 59.2935 1064.45 Q58.5933 1061.93 57.2247 1059.45 L62.6355 1059.45 Q63.7814 1061.9 64.3543 1064.54 Q64.9272 1067.15 64.9272 1070.11 Q64.9272 1078.16 59.8664 1082.91 Q54.8057 1087.65 46.212 1087.65 Q37.491 1087.65 32.4939 1082.87 Q27.4968 1078.07 27.4968 1069.73 Q27.4968 1067.02 28.0697 1064.45 Q28.6108 1061.87 29.7248 1059.45 Z" fill="#000000" fill-rule="evenodd" fill-opacity="1" /><path clip-path="url(#clip020)" d="M28.3562 1049.26 L28.3562 1043.41 L64.0042 1043.41 L64.0042 1049.26 L28.3562 1049.26 M14.479 1049.26 L14.479 1043.41 L21.895 1043.41 L21.895 1049.26 L14.479 1049.26 Z" fill="#000000" fill-rule="evenodd" fill-opacity="1" /><path clip-path="url(#clip020)" d="M33.7671 1007.7 L14.479 1007.7 L14.479 1001.84 L64.0042 1001.84 L64.0042 1007.7 L58.657 1007.7 Q61.8398 1009.54 63.3994 1012.37 Q64.9272 1015.18 64.9272 1019.12 Q64.9272 1025.58 59.771 1029.66 Q54.6147 1033.7 46.212 1033.7 Q37.8093 1033.7 32.6531 1029.66 Q27.4968 1025.58 27.4968 1019.12 Q27.4968 1015.18 29.0564 1012.37 Q30.5842 1009.54 33.7671 1007.7 M46.212 1027.65 Q52.6732 1027.65 56.3653 1025.01 Q60.0256 1022.34 60.0256 1017.69 Q60.0256 1013.04 56.3653 1010.37 Q52.6732 1007.7 46.212 1007.7 Q39.7508 1007.7 36.0905 1010.37 Q32.3984 1013.04 32.3984 1017.69 Q32.3984 1022.34 36.0905 1025.01 Q39.7508 1027.65 46.212 1027.65 Z" fill="#000000" fill-rule="evenodd" fill-opacity="1" /><path clip-path="url(#clip020)" d="M44.7161 959.284 L47.5806 959.284 L47.5806 986.211 Q53.6281 985.829 56.8109 982.583 Q59.9619 979.304 59.9619 973.48 Q59.9619 970.106 59.1344 966.955 Q58.3069 963.772 56.6518 960.653 L62.1899 960.653 Q63.5267 963.804 64.227 967.114 Q64.9272 970.424 64.9272 973.83 Q64.9272 982.36 59.9619 987.357 Q54.9967 992.322 46.5303 992.322 Q37.7774 992.322 32.6531 987.612 Q27.4968 982.869 27.4968 974.848 Q27.4968 967.655 32.1438 963.486 Q36.7589 959.284 44.7161 959.284 M42.9973 965.141 Q38.1912 965.204 35.3266 967.846 Q32.4621 970.456 32.4621 974.785 Q32.4621 979.686 35.2312 982.646 Q38.0002 985.575 43.0292 986.02 L42.9973 965.141 Z" fill="#000000" fill-rule="evenodd" fill-opacity="1" /><path clip-path="url(#clip020)" d="M41.7242 906.162 Q42.4244 904.094 44.7161 902.152 Q47.0077 900.179 51.0181 898.205 L64.0042 891.68 L64.0042 898.587 L51.8138 904.666 Q47.0395 907.022 45.48 909.25 Q43.9204 911.446 43.9204 915.265 L43.9204 922.268 L64.0042 922.268 L64.0042 928.697 L16.4842 928.697 L16.4842 914.183 Q16.4842 906.035 19.8898 902.025 Q23.2955 898.014 30.1704 898.014 Q34.6582 898.014 37.6183 900.115 Q40.5784 902.184 41.7242 906.162 M21.7677 922.268 L38.6368 922.268 L38.6368 914.183 Q38.6368 909.536 36.5043 907.181 Q34.34 904.794 30.1704 904.794 Q26.0009 904.794 23.9002 907.181 Q21.7677 909.536 21.7677 914.183 L21.7677 922.268 Z" fill="#000000" fill-rule="evenodd" fill-opacity="1" /><path clip-path="url(#clip020)" d="M46.0847 868.891 Q46.0847 875.989 47.7079 878.726 Q49.3312 881.463 53.2461 881.463 Q56.3653 881.463 58.2114 879.426 Q60.0256 877.358 60.0256 873.825 Q60.0256 868.955 56.5881 866.027 Q53.1188 863.067 47.3897 863.067 L46.0847 863.067 L46.0847 868.891 M43.6657 857.21 L64.0042 857.21 L64.0042 863.067 L58.5933 863.067 Q61.8398 865.072 63.3994 868.064 Q64.9272 871.055 64.9272 875.384 Q64.9272 880.859 61.8716 884.105 Q58.7843 887.32 53.6281 887.32 Q47.6125 887.32 44.5569 883.309 Q41.5014 879.267 41.5014 871.278 L41.5014 863.067 L40.9285 863.067 Q36.8862 863.067 34.6901 865.74 Q32.4621 868.382 32.4621 873.188 Q32.4621 876.244 33.1941 879.14 Q33.9262 882.036 35.3903 884.71 L29.9795 884.71 Q28.7381 881.495 28.1334 878.472 Q27.4968 875.448 27.4968 872.583 Q27.4968 864.849 31.5072 861.03 Q35.5176 857.21 43.6657 857.21 Z" fill="#000000" fill-rule="evenodd" fill-opacity="1" /><path clip-path="url(#clip020)" d="M18.2347 839.354 L28.3562 839.354 L28.3562 827.291 L32.9077 827.291 L32.9077 839.354 L52.2594 839.354 Q56.6199 839.354 57.8613 838.177 Q59.1026 836.967 59.1026 833.307 L59.1026 827.291 L64.0042 827.291 L64.0042 833.307 Q64.0042 840.086 61.4897 842.664 Q58.9434 845.243 52.2594 845.243 L32.9077 845.243 L32.9077 849.539 L28.3562 849.539 L28.3562 845.243 L18.2347 845.243 L18.2347 839.354 Z" fill="#000000" fill-rule="evenodd" fill-opacity="1" /><path clip-path="url(#clip020)" d="M44.7161 789.097 L47.5806 789.097 L47.5806 816.024 Q53.6281 815.642 56.8109 812.396 Q59.9619 809.117 59.9619 803.293 Q59.9619 799.919 59.1344 796.768 Q58.3069 793.585 56.6518 790.466 L62.1899 790.466 Q63.5267 793.617 64.227 796.927 Q64.9272 800.237 64.9272 803.643 Q64.9272 812.173 59.9619 817.17 Q54.9967 822.135 46.5303 822.135 Q37.7774 822.135 32.6531 817.424 Q27.4968 812.682 27.4968 804.661 Q27.4968 797.468 32.1438 793.298 Q36.7589 789.097 44.7161 789.097 M42.9973 794.953 Q38.1912 795.017 35.3266 797.659 Q32.4621 800.269 32.4621 804.598 Q32.4621 809.499 35.2312 812.459 Q38.0002 815.387 43.0292 815.833 L42.9973 794.953 Z" fill="#000000" fill-rule="evenodd" fill-opacity="1" /><path clip-path="url(#clip020)" d="M14.5426 744.696 Q21.8632 748.961 29.0246 751.03 Q36.186 753.099 43.5384 753.099 Q50.8908 753.099 58.1159 751.03 Q65.3091 748.929 72.5979 744.696 L72.5979 749.789 Q65.1182 754.563 57.8931 756.95 Q50.668 759.306 43.5384 759.306 Q36.4406 759.306 29.2474 756.95 Q22.0542 754.595 14.5426 749.789 L14.5426 744.696 Z" fill="#000000" fill-rule="evenodd" fill-opacity="1" /><path clip-path="url(#clip020)" d="M33.7671 709.876 L14.479 709.876 L14.479 704.019 L64.0042 704.019 L64.0042 709.876 L58.657 709.876 Q61.8398 711.722 63.3994 714.555 Q64.9272 717.356 64.9272 721.302 Q64.9272 727.763 59.771 731.837 Q54.6147 735.88 46.212 735.88 Q37.8093 735.88 32.6531 731.837 Q27.4968 727.763 27.4968 721.302 Q27.4968 717.356 29.0564 714.555 Q30.5842 711.722 33.7671 709.876 M46.212 729.832 Q52.6732 729.832 56.3653 727.191 Q60.0256 724.517 60.0256 719.87 Q60.0256 715.223 56.3653 712.549 Q52.6732 709.876 46.212 709.876 Q39.7508 709.876 36.0905 712.549 Q32.3984 715.223 32.3984 719.87 Q32.3984 724.517 36.0905 727.191 Q39.7508 729.832 46.212 729.832 Z" fill="#000000" fill-rule="evenodd" fill-opacity="1" /><path clip-path="url(#clip020)" d="M44.7161 661.465 L47.5806 661.465 L47.5806 688.392 Q53.6281 688.01 56.8109 684.763 Q59.9619 681.485 59.9619 675.66 Q59.9619 672.286 59.1344 669.135 Q58.3069 665.952 56.6518 662.833 L62.1899 662.833 Q63.5267 665.984 64.227 669.294 Q64.9272 672.605 64.9272 676.01 Q64.9272 684.54 59.9619 689.537 Q54.9967 694.503 46.5303 694.503 Q37.7774 694.503 32.6531 689.792 Q27.4968 685.05 27.4968 677.029 Q27.4968 669.836 32.1438 665.666 Q36.7589 661.465 44.7161 661.465 M42.9973 667.321 Q38.1912 667.385 35.3266 670.026 Q32.4621 672.636 32.4621 676.965 Q32.4621 681.867 35.2312 684.827 Q38.0002 687.755 43.0292 688.201 L42.9973 667.321 Z" fill="#000000" fill-rule="evenodd" fill-opacity="1" /><path clip-path="url(#clip020)" d="M46.0847 635.652 Q46.0847 642.749 47.7079 645.487 Q49.3312 648.224 53.2461 648.224 Q56.3653 648.224 58.2114 646.187 Q60.0256 644.118 60.0256 640.585 Q60.0256 635.715 56.5881 632.787 Q53.1188 629.827 47.3897 629.827 L46.0847 629.827 L46.0847 635.652 M43.6657 623.971 L64.0042 623.971 L64.0042 629.827 L58.5933 629.827 Q61.8398 631.832 63.3994 634.824 Q64.9272 637.816 64.9272 642.145 Q64.9272 647.619 61.8716 650.866 Q58.7843 654.08 53.6281 654.08 Q47.6125 654.08 44.5569 650.07 Q41.5014 646.028 41.5014 638.039 L41.5014 629.827 L40.9285 629.827 Q36.8862 629.827 34.6901 632.501 Q32.4621 635.142 32.4621 639.949 Q32.4621 643.004 33.1941 645.9 Q33.9262 648.797 35.3903 651.47 L29.9795 651.47 Q28.7381 648.256 28.1334 645.232 Q27.4968 642.208 27.4968 639.344 Q27.4968 631.609 31.5072 627.79 Q35.5176 623.971 43.6657 623.971 Z" fill="#000000" fill-rule="evenodd" fill-opacity="1" /><path clip-path="url(#clip020)" d="M18.2347 606.115 L28.3562 606.115 L28.3562 594.052 L32.9077 594.052 L32.9077 606.115 L52.2594 606.115 Q56.6199 606.115 57.8613 604.937 Q59.1026 603.728 59.1026 600.067 L59.1026 594.052 L64.0042 594.052 L64.0042 600.067 Q64.0042 606.847 61.4897 609.425 Q58.9434 612.003 52.2594 612.003 L32.9077 612.003 L32.9077 616.3 L28.3562 616.3 L28.3562 612.003 L18.2347 612.003 L18.2347 606.115 Z" fill="#000000" fill-rule="evenodd" fill-opacity="1" /><path clip-path="url(#clip020)" d="M42.4881 556.717 L64.0042 556.717 L64.0042 562.573 L42.679 562.573 Q37.6183 562.573 35.1038 564.547 Q32.5894 566.52 32.5894 570.467 Q32.5894 575.209 35.6131 577.947 Q38.6368 580.684 43.8567 580.684 L64.0042 580.684 L64.0042 586.572 L14.479 586.572 L14.479 580.684 L33.8944 580.684 Q30.6797 578.583 29.0883 575.75 Q27.4968 572.886 27.4968 569.162 Q27.4968 563.019 31.3163 559.868 Q35.1038 556.717 42.4881 556.717 Z" fill="#000000" fill-rule="evenodd" fill-opacity="1" /><path clip-path="url(#clip020)" d="M29.4065 522.31 L34.9447 522.31 Q33.6716 524.793 33.035 527.466 Q32.3984 530.14 32.3984 533.005 Q32.3984 537.365 33.7352 539.561 Q35.072 541.726 37.7456 541.726 Q39.7826 541.726 40.9603 540.166 Q42.1061 538.606 43.1565 533.896 L43.6021 531.891 Q44.9389 525.652 47.3897 523.042 Q49.8086 520.401 54.1691 520.401 Q59.1344 520.401 62.0308 524.347 Q64.9272 528.262 64.9272 535.137 Q64.9272 538.002 64.3543 541.121 Q63.8132 544.208 62.6992 547.646 L56.6518 547.646 Q58.3387 544.399 59.198 541.248 Q60.0256 538.097 60.0256 535.01 Q60.0256 530.872 58.6251 528.644 Q57.1929 526.416 54.6147 526.416 Q52.2276 526.416 50.9545 528.039 Q49.6813 529.631 48.5037 535.073 L48.0262 537.111 Q46.8804 542.553 44.5251 544.972 Q42.138 547.391 38.0002 547.391 Q32.9713 547.391 30.2341 543.826 Q27.4968 540.262 27.4968 533.705 Q27.4968 530.458 27.9743 527.594 Q28.4517 524.729 29.4065 522.31 Z" fill="#000000" fill-rule="evenodd" fill-opacity="1" /><path clip-path="url(#clip020)" d="M16.4842 500.667 L16.4842 495.256 L70.0516 511.807 L70.0516 517.218 L16.4842 500.667 Z" fill="#000000" fill-rule="evenodd" fill-opacity="1" /><path clip-path="url(#clip020)" d="M58.5933 487.172 L58.5933 476.668 L22.3406 476.668 L24.6323 488.095 L18.7758 488.095 L16.4842 476.732 L16.4842 470.302 L58.5933 470.302 L58.5933 459.799 L64.0042 459.799 L64.0042 487.172 L58.5933 487.172 Z" fill="#000000" fill-rule="evenodd" fill-opacity="1" /><path clip-path="url(#clip020)" d="M20.7174 433.063 Q20.7174 438.028 25.6189 440.543 Q30.4887 443.025 40.2919 443.025 Q50.0633 443.025 54.9649 440.543 Q59.8346 438.028 59.8346 433.063 Q59.8346 428.066 54.9649 425.583 Q50.0633 423.069 40.2919 423.069 Q30.4887 423.069 25.6189 425.583 Q20.7174 428.066 20.7174 433.063 M15.6248 433.063 Q15.6248 425.074 21.9587 420.873 Q28.2607 416.64 40.2919 416.64 Q52.2913 416.64 58.6251 420.873 Q64.9272 425.074 64.9272 433.063 Q64.9272 441.052 58.6251 445.285 Q52.2913 449.487 40.2919 449.487 Q28.2607 449.487 21.9587 445.285 Q15.6248 441.052 15.6248 433.063 Z" fill="#000000" fill-rule="evenodd" fill-opacity="1" /><path clip-path="url(#clip020)" d="M20.7174 391.59 Q20.7174 396.556 25.6189 399.07 Q30.4887 401.553 40.2919 401.553 Q50.0633 401.553 54.9649 399.07 Q59.8346 396.556 59.8346 391.59 Q59.8346 386.593 54.9649 384.111 Q50.0633 381.596 40.2919 381.596 Q30.4887 381.596 25.6189 384.111 Q20.7174 386.593 20.7174 391.59 M15.6248 391.59 Q15.6248 383.602 21.9587 379.4 Q28.2607 375.167 40.2919 375.167 Q52.2913 375.167 58.6251 379.4 Q64.9272 383.602 64.9272 391.59 Q64.9272 399.579 58.6251 403.813 Q52.2913 408.014 40.2919 408.014 Q28.2607 408.014 21.9587 403.813 Q15.6248 399.579 15.6248 391.59 Z" fill="#000000" fill-rule="evenodd" fill-opacity="1" /><path clip-path="url(#clip020)" d="M14.479 364.918 L14.479 359.03 L43.7294 359.03 L28.3562 341.556 L28.3562 334.076 L45.0344 352.982 L64.0042 333.281 L64.0042 340.919 L46.5939 359.03 L64.0042 359.03 L64.0042 364.918 L14.479 364.918 Z" fill="#000000" fill-rule="evenodd" fill-opacity="1" /><path clip-path="url(#clip020)" d="M29.7248 301.293 L35.1993 301.293 Q33.8307 303.776 33.1623 306.29 Q32.4621 308.773 32.4621 311.319 Q32.4621 317.016 36.0905 320.167 Q39.6872 323.318 46.212 323.318 Q52.7369 323.318 56.3653 320.167 Q59.9619 317.016 59.9619 311.319 Q59.9619 308.773 59.2935 306.29 Q58.5933 303.776 57.2247 301.293 L62.6355 301.293 Q63.7814 303.744 64.3543 306.385 Q64.9272 308.995 64.9272 311.955 Q64.9272 320.008 59.8664 324.751 Q54.8057 329.493 46.212 329.493 Q37.491 329.493 32.4939 324.719 Q27.4968 319.913 27.4968 311.574 Q27.4968 308.868 28.0697 306.29 Q28.6108 303.712 29.7248 301.293 Z" fill="#000000" fill-rule="evenodd" fill-opacity="1" /><path clip-path="url(#clip020)" d="M46.0847 274.907 Q46.0847 282.005 47.7079 284.742 Q49.3312 287.479 53.2461 287.479 Q56.3653 287.479 58.2114 285.442 Q60.0256 283.373 60.0256 279.84 Q60.0256 274.971 56.5881 272.043 Q53.1188 269.082 47.3897 269.082 L46.0847 269.082 L46.0847 274.907 M43.6657 263.226 L64.0042 263.226 L64.0042 269.082 L58.5933 269.082 Q61.8398 271.088 63.3994 274.08 Q64.9272 277.071 64.9272 281.4 Q64.9272 286.875 61.8716 290.121 Q58.7843 293.336 53.6281 293.336 Q47.6125 293.336 44.5569 289.325 Q41.5014 285.283 41.5014 277.294 L41.5014 269.082 L40.9285 269.082 Q36.8862 269.082 34.6901 271.756 Q32.4621 274.398 32.4621 279.204 Q32.4621 282.259 33.1941 285.156 Q33.9262 288.052 35.3903 290.726 L29.9795 290.726 Q28.7381 287.511 28.1334 284.487 Q27.4968 281.464 27.4968 278.599 Q27.4968 270.865 31.5072 267.045 Q35.5176 263.226 43.6657 263.226 Z" fill="#000000" fill-rule="evenodd" fill-opacity="1" /><path clip-path="url(#clip020)" d="M58.657 245.498 L77.5631 245.498 L77.5631 251.386 L28.3562 251.386 L28.3562 245.498 L33.7671 245.498 Q30.5842 243.651 29.0564 240.851 Q27.4968 238.018 27.4968 234.103 Q27.4968 227.61 32.6531 223.568 Q37.8093 219.494 46.212 219.494 Q54.6147 219.494 59.771 223.568 Q64.9272 227.61 64.9272 234.103 Q64.9272 238.018 63.3994 240.851 Q61.8398 243.651 58.657 245.498 M46.212 225.573 Q39.7508 225.573 36.0905 228.246 Q32.3984 230.888 32.3984 235.535 Q32.3984 240.182 36.0905 242.856 Q39.7508 245.498 46.212 245.498 Q52.6732 245.498 56.3653 242.856 Q60.0256 240.182 60.0256 235.535 Q60.0256 230.888 56.3653 228.246 Q52.6732 225.573 46.212 225.573 Z" fill="#000000" fill-rule="evenodd" fill-opacity="1" /><path clip-path="url(#clip020)" d="M28.3562 209.786 L28.3562 203.929 L64.0042 203.929 L64.0042 209.786 L28.3562 209.786 M14.479 209.786 L14.479 203.929 L21.895 203.929 L21.895 209.786 L14.479 209.786 Z" fill="#000000" fill-rule="evenodd" fill-opacity="1" /><path clip-path="url(#clip020)" d="M18.2347 185.883 L28.3562 185.883 L28.3562 173.82 L32.9077 173.82 L32.9077 185.883 L52.2594 185.883 Q56.6199 185.883 57.8613 184.705 Q59.1026 183.496 59.1026 179.835 L59.1026 173.82 L64.0042 173.82 L64.0042 179.835 Q64.0042 186.615 61.4897 189.193 Q58.9434 191.771 52.2594 191.771 L32.9077 191.771 L32.9077 196.068 L28.3562 196.068 L28.3562 191.771 L18.2347 191.771 L18.2347 185.883 Z" fill="#000000" fill-rule="evenodd" fill-opacity="1" /><path clip-path="url(#clip020)" d="M46.0847 149.916 Q46.0847 157.014 47.7079 159.751 Q49.3312 162.489 53.2461 162.489 Q56.3653 162.489 58.2114 160.452 Q60.0256 158.383 60.0256 154.85 Q60.0256 149.98 56.5881 147.052 Q53.1188 144.092 47.3897 144.092 L46.0847 144.092 L46.0847 149.916 M43.6657 138.235 L64.0042 138.235 L64.0042 144.092 L58.5933 144.092 Q61.8398 146.097 63.3994 149.089 Q64.9272 152.081 64.9272 156.409 Q64.9272 161.884 61.8716 165.13 Q58.7843 168.345 53.6281 168.345 Q47.6125 168.345 44.5569 164.335 Q41.5014 160.293 41.5014 152.304 L41.5014 144.092 L40.9285 144.092 Q36.8862 144.092 34.6901 146.765 Q32.4621 149.407 32.4621 154.213 Q32.4621 157.269 33.1941 160.165 Q33.9262 163.062 35.3903 165.735 L29.9795 165.735 Q28.7381 162.521 28.1334 159.497 Q27.4968 156.473 27.4968 153.609 Q27.4968 145.874 31.5072 142.055 Q35.5176 138.235 43.6657 138.235 Z" fill="#000000" fill-rule="evenodd" fill-opacity="1" /><path clip-path="url(#clip020)" d="M16.4842 115.764 L16.4842 110.354 L70.0516 126.904 L70.0516 132.315 L16.4842 115.764 Z" fill="#000000" fill-rule="evenodd" fill-opacity="1" /><path clip-path="url(#clip020)" d="M67.3143 89.3785 Q73.68 91.8612 75.6216 94.2165 Q77.5631 96.5718 77.5631 100.519 L77.5631 105.197 L72.6615 105.197 L72.6615 101.76 Q72.6615 99.3409 71.5157 98.0041 Q70.3699 96.6673 66.1048 95.044 L63.4312 93.9937 L28.3562 108.412 L28.3562 102.205 L56.238 91.0655 L28.3562 79.9255 L28.3562 73.7189 L67.3143 89.3785 Z" fill="#000000" fill-rule="evenodd" fill-opacity="1" /><path clip-path="url(#clip020)" d="M33.8307 44.9777 Q33.2578 45.9644 33.0032 47.1421 Q32.7167 48.2879 32.7167 49.6884 Q32.7167 54.6536 35.9632 57.3272 Q39.1779 59.969 45.2253 59.969 L64.0042 59.969 L64.0042 65.8573 L28.3562 65.8573 L28.3562 59.969 L33.8944 59.969 Q30.6479 58.1229 29.0883 55.1629 Q27.4968 52.2028 27.4968 47.9696 Q27.4968 47.3649 27.5923 46.6328 Q27.656 45.9008 27.8151 45.0096 L33.8307 44.9777 Z" fill="#000000" fill-rule="evenodd" fill-opacity="1" /><path clip-path="url(#clip020)" d="M14.5426 39.7579 L14.5426 34.6653 Q22.0542 29.891 29.2474 27.5357 Q36.4406 25.1486 43.5384 25.1486 Q50.668 25.1486 57.8931 27.5357 Q65.1182 29.891 72.5979 34.6653 L72.5979 39.7579 Q65.3091 35.5247 58.1159 33.4558 Q50.8908 31.3551 43.5384 31.3551 Q36.186 31.3551 29.0246 33.4558 Q21.8632 35.5247 14.5426 39.7579 Z" fill="#000000" fill-rule="evenodd" fill-opacity="1" /><path clip-path="url(#clip020)" d="M637.579 63.9476 L637.579 47.7034 L624.211 47.7034 L624.211 40.9789 L645.681 40.9789 L645.681 66.9452 Q640.941 70.3075 635.23 72.0494 Q629.518 73.7508 623.036 73.7508 Q608.858 73.7508 600.837 65.4869 Q592.857 57.1826 592.857 42.3968 Q592.857 27.5705 600.837 19.3066 Q608.858 11.0023 623.036 11.0023 Q628.951 11.0023 634.257 12.4606 Q639.604 13.9189 644.101 16.7545 L644.101 25.464 Q639.564 21.6156 634.46 19.6712 Q629.356 17.7268 623.725 17.7268 Q612.625 17.7268 607.035 23.9246 Q601.485 30.1225 601.485 42.3968 Q601.485 54.6305 607.035 60.8284 Q612.625 67.0263 623.725 67.0263 Q628.059 67.0263 631.462 66.2971 Q634.865 65.5274 637.579 63.9476 Z" fill="#000000" fill-rule="evenodd" fill-opacity="1" /><path clip-path="url(#clip020)" d="M659.535 54.671 L659.535 27.2059 L666.989 27.2059 L666.989 54.3874 Q666.989 60.8284 669.5 64.0691 Q672.012 67.2693 677.035 67.2693 Q683.071 67.2693 686.554 63.421 Q690.079 59.5726 690.079 52.9291 L690.079 27.2059 L697.532 27.2059 L697.532 72.576 L690.079 72.576 L690.079 65.6084 Q687.365 69.7404 683.759 71.7658 Q680.195 73.7508 675.455 73.7508 Q667.637 73.7508 663.586 68.8897 Q659.535 64.0286 659.535 54.671 M678.291 26.1121 L678.291 26.1121 Z" fill="#000000" fill-rule="evenodd" fill-opacity="1" /><path clip-path="url(#clip020)" d="M750.599 45.1919 L750.599 72.576 L743.146 72.576 L743.146 45.4349 Q743.146 38.994 740.634 35.7938 Q738.122 32.5936 733.099 32.5936 Q727.064 32.5936 723.58 36.4419 Q720.096 40.2903 720.096 46.9338 L720.096 72.576 L712.602 72.576 L712.602 27.2059 L720.096 27.2059 L720.096 34.2544 Q722.77 30.163 726.375 28.1376 Q730.021 26.1121 734.76 26.1121 Q742.578 26.1121 746.589 30.9732 Q750.599 35.7938 750.599 45.1919 Z" fill="#000000" fill-rule="evenodd" fill-opacity="1" /><path clip-path="url(#clip020)" d="M792.162 12.096 L800.344 12.096 L800.344 36.8875 L830.078 36.8875 L830.078 12.096 L838.261 12.096 L838.261 72.576 L830.078 72.576 L830.078 43.7741 L800.344 43.7741 L800.344 72.576 L792.162 72.576 L792.162 12.096 Z" fill="#000000" fill-rule="evenodd" fill-opacity="1" /><path clip-path="url(#clip020)" d="M871.802 32.4315 Q865.807 32.4315 862.323 37.1306 Q858.839 41.7891 858.839 49.9314 Q858.839 58.0738 862.283 62.7728 Q865.766 67.4314 871.802 67.4314 Q877.757 67.4314 881.241 62.7323 Q884.725 58.0333 884.725 49.9314 Q884.725 41.8701 881.241 37.1711 Q877.757 32.4315 871.802 32.4315 M871.802 26.1121 Q881.524 26.1121 887.074 32.4315 Q892.624 38.7509 892.624 49.9314 Q892.624 61.0714 887.074 67.4314 Q881.524 73.7508 871.802 73.7508 Q862.04 73.7508 856.49 67.4314 Q850.981 61.0714 850.981 49.9314 Q850.981 38.7509 856.49 32.4315 Q862.04 26.1121 871.802 26.1121 Z" fill="#000000" fill-rule="evenodd" fill-opacity="1" /><path clip-path="url(#clip020)" d="M940.303 35.9153 Q943.098 30.8922 946.987 28.5022 Q950.876 26.1121 956.142 26.1121 Q963.231 26.1121 967.08 31.0947 Q970.928 36.0368 970.928 45.1919 L970.928 72.576 L963.434 72.576 L963.434 45.4349 Q963.434 38.913 961.125 35.7533 Q958.816 32.5936 954.076 32.5936 Q948.283 32.5936 944.921 36.4419 Q941.559 40.2903 941.559 46.9338 L941.559 72.576 L934.065 72.576 L934.065 45.4349 Q934.065 38.8725 931.756 35.7533 Q929.447 32.5936 924.626 32.5936 Q918.914 32.5936 915.552 36.4824 Q912.19 40.3308 912.19 46.9338 L912.19 72.576 L904.696 72.576 L904.696 27.2059 L912.19 27.2059 L912.19 34.2544 Q914.742 30.082 918.307 28.0971 Q921.871 26.1121 926.773 26.1121 Q931.715 26.1121 935.158 28.6237 Q938.642 31.1352 940.303 35.9153 Z" fill="#000000" fill-rule="evenodd" fill-opacity="1" /><path clip-path="url(#clip020)" d="M985.795 27.2059 L993.248 27.2059 L993.248 72.576 L985.795 72.576 L985.795 27.2059 M985.795 9.54393 L993.248 9.54393 L993.248 18.9825 L985.795 18.9825 L985.795 9.54393 Z" fill="#000000" fill-rule="evenodd" fill-opacity="1" /><path clip-path="url(#clip020)" d="M1041.49 28.9478 L1041.49 35.9153 Q1038.33 34.1734 1035.13 33.3227 Q1031.98 32.4315 1028.73 32.4315 Q1021.48 32.4315 1017.47 37.0496 Q1013.46 41.6271 1013.46 49.9314 Q1013.46 58.2358 1017.47 62.8538 Q1021.48 67.4314 1028.73 67.4314 Q1031.98 67.4314 1035.13 66.5807 Q1038.33 65.6895 1041.49 63.9476 L1041.49 70.8341 Q1038.38 72.2924 1035.01 73.0216 Q1031.69 73.7508 1027.92 73.7508 Q1017.68 73.7508 1011.64 67.3098 Q1005.6 60.8689 1005.6 49.9314 Q1005.6 38.832 1011.68 32.472 Q1017.8 26.1121 1028.41 26.1121 Q1031.85 26.1121 1035.13 26.8413 Q1038.42 27.5299 1041.49 28.9478 Z" fill="#000000" fill-rule="evenodd" fill-opacity="1" /><path clip-path="url(#clip020)" d="M1054.46 27.2059 L1061.91 27.2059 L1061.91 72.576 L1054.46 72.576 L1054.46 27.2059 M1054.46 9.54393 L1061.91 9.54393 L1061.91 18.9825 L1054.46 18.9825 L1054.46 9.54393 Z" fill="#000000" fill-rule="evenodd" fill-opacity="1" /><path clip-path="url(#clip020)" d="M1107.36 34.0924 L1107.36 9.54393 L1114.82 9.54393 L1114.82 72.576 L1107.36 72.576 L1107.36 65.7705 Q1105.01 69.8214 1101.41 71.8063 Q1097.84 73.7508 1092.82 73.7508 Q1084.6 73.7508 1079.41 67.1883 Q1074.27 60.6258 1074.27 49.9314 Q1074.27 39.2371 1079.41 32.6746 Q1084.6 26.1121 1092.82 26.1121 Q1097.84 26.1121 1101.41 28.0971 Q1105.01 30.0415 1107.36 34.0924 M1081.96 49.9314 Q1081.96 58.1548 1085.33 62.8538 Q1088.73 67.5124 1094.64 67.5124 Q1100.56 67.5124 1103.96 62.8538 Q1107.36 58.1548 1107.36 49.9314 Q1107.36 41.7081 1103.96 37.0496 Q1100.56 32.3505 1094.64 32.3505 Q1088.73 32.3505 1085.33 37.0496 Q1081.96 41.7081 1081.96 49.9314 Z" fill="#000000" fill-rule="evenodd" fill-opacity="1" /><path clip-path="url(#clip020)" d="M1168.98 48.0275 L1168.98 51.6733 L1134.71 51.6733 Q1135.19 59.3701 1139.32 63.421 Q1143.5 67.4314 1150.91 67.4314 Q1155.2 67.4314 1159.21 66.3781 Q1163.26 65.3249 1167.23 63.2184 L1167.23 70.267 Q1163.22 71.9684 1159.01 72.8596 Q1154.8 73.7508 1150.46 73.7508 Q1139.61 73.7508 1133.25 67.4314 Q1126.93 61.1119 1126.93 50.3365 Q1126.93 39.1965 1132.92 32.6746 Q1138.96 26.1121 1149.17 26.1121 Q1158.32 26.1121 1163.63 32.0264 Q1168.98 37.9003 1168.98 48.0275 M1161.52 45.84 Q1161.44 39.7232 1158.08 36.0774 Q1154.76 32.4315 1149.25 32.4315 Q1143.01 32.4315 1139.24 35.9558 Q1135.52 39.4801 1134.95 45.8805 L1161.52 45.84 Z" fill="#000000" fill-rule="evenodd" fill-opacity="1" /><path clip-path="url(#clip020)" d="M1202.23 27.2059 L1210.13 27.2059 L1224.31 65.2844 L1238.49 27.2059 L1246.39 27.2059 L1229.38 72.576 L1219.25 72.576 L1202.23 27.2059 Z" fill="#000000" fill-rule="evenodd" fill-opacity="1" /><path clip-path="url(#clip020)" d="M1285.6 28.5427 L1285.6 35.5912 Q1282.44 33.9709 1279.04 33.1607 Q1275.64 32.3505 1271.99 32.3505 Q1266.44 32.3505 1263.65 34.0519 Q1260.89 35.7533 1260.89 39.156 Q1260.89 41.7486 1262.88 43.2475 Q1264.86 44.7058 1270.86 46.0426 L1273.41 46.6097 Q1281.35 48.3111 1284.67 51.4303 Q1288.03 54.509 1288.03 60.0587 Q1288.03 66.3781 1283.01 70.0644 Q1278.03 73.7508 1269.28 73.7508 Q1265.63 73.7508 1261.66 73.0216 Q1257.73 72.3329 1253.36 70.9151 L1253.36 63.2184 Q1257.49 65.3654 1261.5 66.4591 Q1265.51 67.5124 1269.44 67.5124 Q1274.71 67.5124 1277.54 65.73 Q1280.38 63.9071 1280.38 60.6258 Q1280.38 57.5877 1278.31 55.9673 Q1276.29 54.3469 1269.36 52.8481 L1266.77 52.2405 Q1259.84 50.7821 1256.76 47.7845 Q1253.68 44.7463 1253.68 39.4801 Q1253.68 33.0797 1258.22 29.5959 Q1262.76 26.1121 1271.1 26.1121 Q1275.23 26.1121 1278.88 26.7198 Q1282.52 27.3274 1285.6 28.5427 Z" fill="#000000" fill-rule="evenodd" fill-opacity="1" /><path clip-path="url(#clip020)" d="M1367.84 63.9476 L1367.84 47.7034 L1354.47 47.7034 L1354.47 40.9789 L1375.94 40.9789 L1375.94 66.9452 Q1371.2 70.3075 1365.49 72.0494 Q1359.77 73.7508 1353.29 73.7508 Q1339.11 73.7508 1331.09 65.4869 Q1323.11 57.1826 1323.11 42.3968 Q1323.11 27.5705 1331.09 19.3066 Q1339.11 11.0023 1353.29 11.0023 Q1359.21 11.0023 1364.51 12.4606 Q1369.86 13.9189 1374.36 16.7545 L1374.36 25.464 Q1369.82 21.6156 1364.72 19.6712 Q1359.61 17.7268 1353.98 17.7268 Q1342.88 17.7268 1337.29 23.9246 Q1331.74 30.1225 1331.74 42.3968 Q1331.74 54.6305 1337.29 60.8284 Q1342.88 67.0263 1353.98 67.0263 Q1358.32 67.0263 1361.72 66.2971 Q1365.12 65.5274 1367.84 63.9476 Z" fill="#000000" fill-rule="evenodd" fill-opacity="1" /><path clip-path="url(#clip020)" d="M1389.79 54.671 L1389.79 27.2059 L1397.25 27.2059 L1397.25 54.3874 Q1397.25 60.8284 1399.76 64.0691 Q1402.27 67.2693 1407.29 67.2693 Q1413.33 67.2693 1416.81 63.421 Q1420.34 59.5726 1420.34 52.9291 L1420.34 27.2059 L1427.79 27.2059 L1427.79 72.576 L1420.34 72.576 L1420.34 65.6084 Q1417.62 69.7404 1414.02 71.7658 Q1410.45 73.7508 1405.71 73.7508 Q1397.89 73.7508 1393.84 68.8897 Q1389.79 64.0286 1389.79 54.671 M1408.55 26.1121 L1408.55 26.1121 Z" fill="#000000" fill-rule="evenodd" fill-opacity="1" /><path clip-path="url(#clip020)" d="M1480.86 45.1919 L1480.86 72.576 L1473.4 72.576 L1473.4 45.4349 Q1473.4 38.994 1470.89 35.7938 Q1468.38 32.5936 1463.36 32.5936 Q1457.32 32.5936 1453.84 36.4419 Q1450.35 40.2903 1450.35 46.9338 L1450.35 72.576 L1442.86 72.576 L1442.86 27.2059 L1450.35 27.2059 L1450.35 34.2544 Q1453.03 30.163 1456.63 28.1376 Q1460.28 26.1121 1465.02 26.1121 Q1472.83 26.1121 1476.85 30.9732 Q1480.86 35.7938 1480.86 45.1919 Z" fill="#000000" fill-rule="evenodd" fill-opacity="1" /><path clip-path="url(#clip020)" d="M1530.6 18.8205 L1530.6 41.5461 L1540.89 41.5461 Q1546.6 41.5461 1549.72 38.5889 Q1552.84 35.6318 1552.84 30.163 Q1552.84 24.7348 1549.72 21.7777 Q1546.6 18.8205 1540.89 18.8205 L1530.6 18.8205 M1522.42 12.096 L1540.89 12.096 Q1551.06 12.096 1556.24 16.714 Q1561.47 21.2916 1561.47 30.163 Q1561.47 39.1155 1556.24 43.6931 Q1551.06 48.2706 1540.89 48.2706 L1530.6 48.2706 L1530.6 72.576 L1522.42 72.576 L1522.42 12.096 Z" fill="#000000" fill-rule="evenodd" fill-opacity="1" /><path clip-path="url(#clip020)" d="M1596.95 34.1734 Q1595.7 33.4443 1594.2 33.1202 Q1592.74 32.7556 1590.96 32.7556 Q1584.64 32.7556 1581.24 36.8875 Q1577.87 40.9789 1577.87 48.6757 L1577.87 72.576 L1570.38 72.576 L1570.38 27.2059 L1577.87 27.2059 L1577.87 34.2544 Q1580.22 30.1225 1583.99 28.1376 Q1587.76 26.1121 1593.15 26.1121 Q1593.92 26.1121 1594.85 26.2337 Q1595.78 26.3147 1596.91 26.5172 L1596.95 34.1734 Z" fill="#000000" fill-rule="evenodd" fill-opacity="1" /><path clip-path="url(#clip020)" d="M1641.76 48.0275 L1641.76 51.6733 L1607.49 51.6733 Q1607.97 59.3701 1612.11 63.421 Q1616.28 67.4314 1623.69 67.4314 Q1627.98 67.4314 1631.99 66.3781 Q1636.05 65.3249 1640.02 63.2184 L1640.02 70.267 Q1636.01 71.9684 1631.79 72.8596 Q1627.58 73.7508 1623.25 73.7508 Q1612.39 73.7508 1606.03 67.4314 Q1599.71 61.1119 1599.71 50.3365 Q1599.71 39.1965 1605.7 32.6746 Q1611.74 26.1121 1621.95 26.1121 Q1631.1 26.1121 1636.41 32.0264 Q1641.76 37.9003 1641.76 48.0275 M1634.3 45.84 Q1634.22 39.7232 1630.86 36.0774 Q1627.54 32.4315 1622.03 32.4315 Q1615.79 32.4315 1612.02 35.9558 Q1608.3 39.4801 1607.73 45.8805 L1634.3 45.84 Z" fill="#000000" fill-rule="evenodd" fill-opacity="1" /><path clip-path="url(#clip020)" d="M1648.64 27.2059 L1656.54 27.2059 L1670.72 65.2844 L1684.9 27.2059 L1692.8 27.2059 L1675.79 72.576 L1665.66 72.576 L1648.64 27.2059 Z" fill="#000000" fill-rule="evenodd" fill-opacity="1" /><path clip-path="url(#clip020)" d="M1723.71 49.7694 Q1714.67 49.7694 1711.19 51.8354 Q1707.71 53.9013 1707.71 58.8839 Q1707.71 62.8538 1710.3 65.2034 Q1712.93 67.5124 1717.43 67.5124 Q1723.63 67.5124 1727.35 63.1374 Q1731.12 58.7219 1731.12 51.4303 L1731.12 49.7694 L1723.71 49.7694 M1738.57 46.6907 L1738.57 72.576 L1731.12 72.576 L1731.12 65.6895 Q1728.57 69.8214 1724.76 71.8063 Q1720.95 73.7508 1715.44 73.7508 Q1708.48 73.7508 1704.34 69.8619 Q1700.25 65.9325 1700.25 59.3701 Q1700.25 51.7138 1705.36 47.825 Q1710.5 43.9361 1720.67 43.9361 L1731.12 43.9361 L1731.12 43.2069 Q1731.12 38.0623 1727.72 35.2672 Q1724.36 32.4315 1718.24 32.4315 Q1714.35 32.4315 1710.66 33.3632 Q1706.98 34.295 1703.57 36.1584 L1703.57 29.2718 Q1707.67 27.692 1711.51 26.9223 Q1715.36 26.1121 1719.01 26.1121 Q1728.85 26.1121 1733.71 31.2163 Q1738.57 36.3204 1738.57 46.6907 Z" fill="#000000" fill-rule="evenodd" fill-opacity="1" /><path clip-path="url(#clip020)" d="M1753.93 9.54393 L1761.38 9.54393 L1761.38 72.576 L1753.93 72.576 L1753.93 9.54393 Z" fill="#000000" fill-rule="evenodd" fill-opacity="1" /><path clip-path="url(#clip020)" d="M1815.78 48.0275 L1815.78 51.6733 L1781.51 51.6733 Q1782 59.3701 1786.13 63.421 Q1790.3 67.4314 1797.72 67.4314 Q1802.01 67.4314 1806.02 66.3781 Q1810.07 65.3249 1814.04 63.2184 L1814.04 70.267 Q1810.03 71.9684 1805.82 72.8596 Q1801.61 73.7508 1797.27 73.7508 Q1786.42 73.7508 1780.06 67.4314 Q1773.74 61.1119 1773.74 50.3365 Q1773.74 39.1965 1779.73 32.6746 Q1785.77 26.1121 1795.98 26.1121 Q1805.13 26.1121 1810.44 32.0264 Q1815.78 37.9003 1815.78 48.0275 M1808.33 45.84 Q1808.25 39.7232 1804.89 36.0774 Q1801.57 32.4315 1796.06 32.4315 Q1789.82 32.4315 1786.05 35.9558 Q1782.32 39.4801 1781.76 45.8805 L1808.33 45.84 Z" fill="#000000" fill-rule="evenodd" fill-opacity="1" /><path clip-path="url(#clip020)" d="M1865.73 45.1919 L1865.73 72.576 L1858.28 72.576 L1858.28 45.4349 Q1858.28 38.994 1855.77 35.7938 Q1853.26 32.5936 1848.23 32.5936 Q1842.2 32.5936 1838.71 36.4419 Q1835.23 40.2903 1835.23 46.9338 L1835.23 72.576 L1827.73 72.576 L1827.73 27.2059 L1835.23 27.2059 L1835.23 34.2544 Q1837.9 30.163 1841.51 28.1376 Q1845.15 26.1121 1849.89 26.1121 Q1857.71 26.1121 1861.72 30.9732 Q1865.73 35.7938 1865.73 45.1919 Z" fill="#000000" fill-rule="evenodd" fill-opacity="1" /><path clip-path="url(#clip020)" d="M1913.25 28.9478 L1913.25 35.9153 Q1910.09 34.1734 1906.89 33.3227 Q1903.73 32.4315 1900.49 32.4315 Q1893.24 32.4315 1889.23 37.0496 Q1885.22 41.6271 1885.22 49.9314 Q1885.22 58.2358 1889.23 62.8538 Q1893.24 67.4314 1900.49 67.4314 Q1903.73 67.4314 1906.89 66.5807 Q1910.09 65.6895 1913.25 63.9476 L1913.25 70.8341 Q1910.13 72.2924 1906.77 73.0216 Q1903.45 73.7508 1899.68 73.7508 Q1889.43 73.7508 1883.39 67.3098 Q1877.36 60.8689 1877.36 49.9314 Q1877.36 38.832 1883.43 32.472 Q1889.55 26.1121 1900.16 26.1121 Q1903.61 26.1121 1906.89 26.8413 Q1910.17 27.5299 1913.25 28.9478 Z" fill="#000000" fill-rule="evenodd" fill-opacity="1" /><path clip-path="url(#clip020)" d="M1965.02 48.0275 L1965.02 51.6733 L1930.75 51.6733 Q1931.24 59.3701 1935.37 63.421 Q1939.54 67.4314 1946.95 67.4314 Q1951.25 67.4314 1955.26 66.3781 Q1959.31 65.3249 1963.28 63.2184 L1963.28 70.267 Q1959.27 71.9684 1955.05 72.8596 Q1950.84 73.7508 1946.51 73.7508 Q1935.65 73.7508 1929.29 67.4314 Q1922.97 61.1119 1922.97 50.3365 Q1922.97 39.1965 1928.97 32.6746 Q1935 26.1121 1945.21 26.1121 Q1954.37 26.1121 1959.67 32.0264 Q1965.02 37.9003 1965.02 48.0275 M1957.57 45.84 Q1957.49 39.7232 1954.12 36.0774 Q1950.8 32.4315 1945.29 32.4315 Q1939.05 32.4315 1935.29 35.9558 Q1931.56 39.4801 1930.99 45.8805 L1957.57 45.84 Z" fill="#000000" fill-rule="evenodd" fill-opacity="1" /><polyline clip-path="url(#clip022)" style="stroke:#009af9; stroke-linecap:butt; stroke-linejoin:round; stroke-width:4; stroke-opacity:0.5; fill:none" points="
  477.897,1256.09 530.917,1256.09 579.219,1251.6 624.574,1258.34 662.243,1242.61 699.553,1274.07 734.387,1247.11 766.239,1242.61 802.874,1222.4 842.183,1238.12 
  894.447,1253.85 946.324,1271.82 998.597,1267.33 1061.66,1262.83 1154.04,1256.09 1227.9,1269.57 1306.92,1224.64 1396.59,1195.44 1438.54,1170.72 1473.32,1188.7 
  1503.88,1181.96 1605.64,1146.01 
  "/>
<polyline clip-path="url(#clip022)" style="stroke:#e26f46; stroke-linecap:butt; stroke-linejoin:round; stroke-width:4; stroke-opacity:0.5; fill:none" points="
  482.952,1307.77 606.78,1316.75 653.084,1314.51 697.096,1294.29 731.328,1336.97 777.022,1323.49 828.788,1312.26 889.094,1321.24 1085.04,1310.01 1457.13,1339.22 
  1563.59,1276.31 1665.82,1267.33 1779.75,1265.08 1890.36,1292.04 2004.43,1247.11 2119.24,1321.24 
  "/>
<polyline clip-path="url(#clip022)" style="stroke:#3da44d; stroke-linecap:butt; stroke-linejoin:round; stroke-width:4; stroke-opacity:0.5; fill:none" points="
  463.324,1269.57 473.553,1285.3 472.997,1262.83 476.825,1256.09 477.341,1271.82 474.309,1267.33 466.485,1258.34 462.927,1260.59 468.032,1276.31 475.454,1285.3 
  495.228,1323.49 512.173,1310.01 527.889,1314.51 551.329,1316.75 585.081,1319 603.668,1334.72 623.416,1325.74 648.555,1305.52 677.155,1307.77 690.599,1312.26 
  709.208,1316.75 746.163,1289.79 
  "/>
<polyline clip-path="url(#clip022)" style="stroke:#c271d2; stroke-linecap:butt; stroke-linejoin:round; stroke-width:4; stroke-opacity:0.5; fill:none" points="
  482.385,1305.52 545.172,1287.55 600.652,1312.26 648.448,1283.05 685.714,1303.27 720.857,1289.79 752.909,1280.81 782.919,1280.81 818.032,1283.05 852.25,1292.04 
  895.652,1283.05 932.094,1303.27 968.863,1294.29 1016.13,1278.56 1081.86,1289.79 1130.15,1283.05 1178.75,1287.55 1234.57,1267.33 1283.08,1260.59 1331.72,1260.59 
  1379.96,1249.35 1441.78,1195.44 
  "/>
<polyline clip-path="url(#clip022)" style="stroke:#ac8d18; stroke-linecap:butt; stroke-linejoin:round; stroke-width:4; stroke-opacity:0.5; fill:none" points="
  456.858,1312.26 469.05,1305.52 471.295,1301.03 477.294,1287.55 479.64,1289.79 481.786,1289.79 487.272,1287.55 496.132,1287.55 509.973,1298.78 513.512,1307.77 
  517.852,1314.51 523.65,1323.49 527.567,1325.74 536.632,1323.49 554.156,1327.98 564.327,1332.48 577.362,1323.49 598.684,1321.24 619.223,1323.49 639.92,1332.48 
  661.03,1332.48 689.022,1305.52 
  "/>
<polyline clip-path="url(#clip022)" style="stroke:#00a9ad; stroke-linecap:butt; stroke-linejoin:round; stroke-width:4; stroke-opacity:0.5; fill:none" points="
  473.966,1339.22 532.567,1359.44 579.63,1354.94 632.843,1345.96 666.134,1345.96 694.029,1339.22 724.946,1348.2 747.062,1354.94 773.919,1361.68 807.063,1354.94 
  865.979,1354.94 915.528,1361.68 960.17,1359.44 1012.52,1354.94 1081.5,1359.44 1124.16,1361.68 1165.48,1348.2 1221.63,1339.22 1283.72,1339.22 1334.72,1330.23 
  1384.98,1341.46 1456.58,1314.51 
  "/>
<polyline clip-path="url(#clip022)" style="stroke:#ed5d92; stroke-linecap:butt; stroke-linejoin:round; stroke-width:4; stroke-opacity:0.5; fill:none" points="
  452.644,1348.2 454.59,1363.93 446.908,1357.19 454.518,1368.42 464.211,1368.42 476.317,1363.93 488.679,1361.68 501.548,1345.96 514.993,1361.68 529.644,1348.2 
  550.748,1354.94 572.367,1343.71 596.851,1343.71 622.876,1332.48 662.371,1363.93 696.552,1368.42 743.237,1354.94 803.766,1370.67 834.391,1359.44 867.112,1370.67 
  894.264,1363.93 924.047,1341.46 
  "/>
<polyline clip-path="url(#clip022)" style="stroke:#c68125; stroke-linecap:butt; stroke-linejoin:round; stroke-width:4; stroke-opacity:0.5; fill:none" points="
  444.719,833.737 441.67,862.942 437.638,853.956 439.891,714.668 447.705,788.805 449.001,862.942 450.073,842.723 444.544,932.586 438.611,898.887 429.187,932.586 
  410.811,1008.97 396.789,1089.85 373.349,1123.55 353.825,1208.92 335.773,1193.19 320.432,1175.22 304.888,1053.9 295.309,1080.86 281.6,1112.31 273.342,1033.68 
  271.51,997.737 265.903,910.12 
  "/>
<polyline clip-path="url(#clip022)" style="stroke:#00a98d; stroke-linecap:butt; stroke-linejoin:round; stroke-width:4; stroke-opacity:0.5; fill:none" points="
  454.665,1325.74 458.354,1339.22 452.942,1325.74 452.492,1319 452.237,1316.75 447.32,1321.24 443.97,1325.74 449.831,1305.52 463.442,1289.79 480.068,1296.53 
  505.054,1307.77 526.563,1312.26 544.878,1307.77 567.711,1303.27 604.969,1310.01 626.209,1312.26 646.972,1307.77 677.501,1296.53 707.196,1303.27 736.279,1301.03 
  767.012,1298.78 810.079,1278.56 
  "/>
<polyline clip-path="url(#clip022)" style="stroke:#8e971d; stroke-linecap:butt; stroke-linejoin:round; stroke-width:4; stroke-opacity:0.5; fill:none" points="
  458.244,1283.05 472.625,1283.05 477.166,1283.05 488.007,1278.56 498.724,1276.31 505.558,1296.53 511.229,1294.29 515.037,1283.05 517.031,1269.57 523.093,1283.05 
  536.888,1298.78 551.116,1301.03 560.591,1303.27 576.651,1296.53 604.378,1298.78 621.089,1292.04 638.668,1276.31 663.009,1262.83 682.327,1260.59 701.38,1267.33 
  717.059,1258.34 748.946,1215.66 
  "/>
<polyline clip-path="url(#clip022)" style="stroke:#00a8cb; stroke-linecap:butt; stroke-linejoin:round; stroke-width:4; stroke-opacity:0.5; fill:none" points="
  453.625,1278.56 463.861,1283.05 470.992,1269.57 481.49,1274.07 491.832,1280.81 502.165,1301.03 513.928,1303.27 524.539,1294.29 533.883,1303.27 544.238,1292.04 
  558.235,1294.29 573.992,1303.27 591.55,1298.78 616.892,1292.04 652.59,1303.27 686.011,1296.53 720.277,1283.05 764.341,1238.12 808.834,1240.37 850.92,1265.08 
  891.306,1265.08 940.186,1195.44 
  "/>
<polyline clip-path="url(#clip022)" style="stroke:#9b7fe8; stroke-linecap:butt; stroke-linejoin:round; stroke-width:4; stroke-opacity:0.5; fill:none" points="
  465.011,1303.27 489.151,1323.49 496.444,1298.78 506.946,1316.75 513.999,1314.51 533.46,1323.49 554.86,1312.26 574.801,1310.01 597.172,1316.75 621.421,1321.24 
  655.554,1319 687.761,1327.98 722.535,1334.72 768.699,1319 832.215,1303.27 886.374,1316.75 942.35,1305.52 1013.75,1280.81 1077.73,1278.56 1135.94,1283.05 
  1184.55,1285.3 1257.65,1240.37 
  "/>
<polyline clip-path="url(#clip022)" style="stroke:#608cf6; stroke-linecap:butt; stroke-linejoin:round; stroke-width:4; stroke-opacity:0.5; fill:none" points="
  452.252,1381.9 465.892,1384.15 479.337,1386.4 493.169,1381.9 504.6,1386.4 516.397,1381.9 528.975,1386.4 539.312,1375.16 558.646,1379.66 577.703,1379.66 
  586.44,1381.9 597.201,1379.66 608.243,1386.4 615.362,1377.41 621.932,1370.67 630.51,1368.42 638.922,1359.44 646.516,1377.41 657.156,1368.42 667.589,1345.96 
  
  "/>
<polyline clip-path="url(#clip022)" style="stroke:#f05f73; stroke-linecap:butt; stroke-linejoin:round; stroke-width:4; stroke-opacity:0.5; fill:none" points="
  466.996,1330.23 504.634,1319 536.737,1327.98 567.016,1343.71 597.932,1339.22 627.696,1334.72 657.442,1354.94 686.979,1345.96 718.307,1345.96 748.125,1343.71 
  788.852,1332.48 826.94,1350.45 869.226,1341.46 917.849,1352.7 989.337,1343.71 1036.65,1348.2 1083.6,1330.23 1144.79,1316.75 1197.87,1298.78 1251.83,1310.01 
  1297.71,1327.98 1362.24,1280.81 
  "/>
<polyline clip-path="url(#clip022)" style="stroke:#dd64b5; stroke-linecap:butt; stroke-linejoin:round; stroke-width:4; stroke-opacity:0.5; fill:none" points="
  481.548,1325.74 540.084,1330.23 593.363,1327.98 643.715,1334.72 685.352,1341.46 726.52,1321.24 766.945,1323.49 806.7,1345.96 845.362,1323.49 883.311,1321.24 
  928.487,1334.72 968.591,1339.22 1007.71,1336.97 1059.1,1323.49 1124.57,1334.72 1170,1334.72 1220.22,1316.75 1279.87,1285.3 1332.24,1289.79 1381.38,1301.03 
  1432.48,1303.27 1505.42,1233.63 
  "/>
<polyline clip-path="url(#clip022)" style="stroke:#6b9e32; stroke-linecap:butt; stroke-linejoin:round; stroke-width:4; stroke-opacity:0.5; fill:none" points="
  468.823,1231.38 512.199,1188.7 551.285,1204.42 584.249,1170.72 613.017,1168.48 639.757,1168.48 668.013,1179.71 794.393,1172.97 818,1152.75 847.5,1186.45 
  889.71,1179.71 925.247,1190.94 964.974,1193.19 1014.64,1195.44 1086.48,1188.7 1142.92,1199.93 1200.61,1184.2 1270.84,1152.75 1340.16,1148.26 1409.64,1163.98 
  1467.88,1141.52 1539,1042.67 
  "/>
<polyline clip-path="url(#clip022)" style="stroke:#009af9; stroke-linecap:butt; stroke-linejoin:round; stroke-width:4; stroke-opacity:0.5; fill:none" points="
  450.254,1235.87 452.982,1253.85 448.538,1251.6 447.11,1253.85 446.94,1242.61 447.406,1247.11 450.485,1235.87 455.749,1238.12 463.547,1235.87 471.308,1253.85 
  481.687,1280.81 489.832,1285.3 496.999,1298.78 507.413,1292.04 529.407,1292.04 555.829,1310.01 567.264,1238.12 585.453,1242.61 600.871,1235.87 623.501,1247.11 
  641.282,1231.38 663.897,1208.92 
  "/>
<polyline clip-path="url(#clip022)" style="stroke:#e26f46; stroke-linecap:butt; stroke-linejoin:round; stroke-width:4; stroke-opacity:0.5; fill:none" points="
  446.116,1379.66 445.453,1379.66 442.466,1375.16 445.055,1370.67 450.299,1377.41 458.336,1366.18 465.858,1366.18 471.117,1368.42 474.465,1363.93 475.471,1370.67 
  476.707,1366.18 480.872,1361.68 484.883,1361.68 488.473,1379.66 498.657,1375.16 505.918,1375.16 513.213,1375.16 528.268,1375.16 539.332,1370.67 547.795,1370.67 
  561.979,1372.92 576.958,1361.68 
  "/>
<polyline clip-path="url(#clip022)" style="stroke:#3da44d; stroke-linecap:butt; stroke-linejoin:round; stroke-width:4; stroke-opacity:0.5; fill:none" points="
  453.118,1287.55 469.042,1289.79 482.845,1292.04 501.221,1294.29 519.851,1296.53 540.248,1294.29 561.906,1294.29 583.638,1285.3 606.585,1289.79 630.561,1294.29 
  654.446,1292.04 672.718,1303.27 689.448,1287.55 705.065,1271.82 733.195,1292.04 757.175,1312.26 781.577,1305.52 812.969,1294.29 838.402,1305.52 861.224,1296.53 
  887.187,1301.03 936.971,1253.85 
  "/>
<polyline clip-path="url(#clip022)" style="stroke:#c271d2; stroke-linecap:butt; stroke-linejoin:round; stroke-width:4; stroke-opacity:0.5; fill:none" points="
  456.821,1379.66 482.463,1368.42 501.672,1372.92 526.733,1379.66 551.337,1370.67 579.738,1366.18 607.325,1366.18 632.779,1370.67 658.568,1375.16 684.85,1372.92 
  715.612,1384.15 744.807,1377.41 773.287,1379.66 808.876,1379.66 857.747,1372.92 894.379,1379.66 931.642,1366.18 976.062,1370.67 1013.44,1372.92 1037.91,1377.41 
  1068.71,1363.93 1117.69,1350.45 
  "/>
<polyline clip-path="url(#clip022)" style="stroke:#ac8d18; stroke-linecap:butt; stroke-linejoin:round; stroke-width:4; stroke-opacity:0.5; fill:none" points="
  481.616,1233.63 541.984,1235.87 598.785,1226.89 646.616,1240.37 686.306,1247.11 721.409,1247.11 757.982,1269.57 814.381,1233.63 857.189,1235.87 900.33,1217.9 
  950.569,1253.85 992.455,1249.35 1036.68,1238.12 1089.61,1242.61 1160.63,1242.61 1218.34,1208.92 1283.7,1206.67 1365.2,1193.19 1442.96,1181.96 1510.08,1163.98 
  1581.19,1128.04 1677.91,1026.94 
  "/>
<polyline clip-path="url(#clip022)" style="stroke:#00a9ad; stroke-linecap:butt; stroke-linejoin:round; stroke-width:4; stroke-opacity:0.5; fill:none" points="
  465.84,1305.52 498.583,1294.29 525.733,1294.29 555.171,1303.27 581.637,1319 608.604,1303.27 635.394,1289.79 661.405,1292.04 688.805,1303.27 729.223,1267.33 
  780.198,1283.05 827.451,1278.56 878.744,1292.04 940.924,1287.55 1025.38,1296.53 1090.02,1283.05 1161.94,1235.87 1244.13,1233.63 1323.01,1197.68 1398.48,1199.93 
  1466.33,1208.92 1552.61,1155 
  "/>
<polyline clip-path="url(#clip022)" style="stroke:#ed5d92; stroke-linecap:butt; stroke-linejoin:round; stroke-width:4; stroke-opacity:0.5; fill:none" points="
  453.471,1366.18 469.096,1350.45 482.373,1377.41 494.541,1368.42 504.466,1363.93 515.4,1372.92 526.354,1368.42 537.284,1366.18 548.341,1350.45 558.227,1343.71 
  566.703,1366.18 574.597,1354.94 582.617,1354.94 593.789,1348.2 607.814,1343.71 615.842,1357.19 622.837,1345.96 632.464,1350.45 639.727,1370.67 648.539,1375.16 
  657.78,1357.19 671.246,1348.2 
  "/>
<polyline clip-path="url(#clip022)" style="stroke:#c68125; stroke-linecap:butt; stroke-linejoin:round; stroke-width:4; stroke-opacity:0.5; fill:none" points="
  464.47,1287.55 464.658,1303.27 442.45,1287.55 434.473,1287.55 425.89,1289.79 410.393,1287.55 400.969,1298.78 394.727,1287.55 391.759,1292.04 398.36,1319 
  427.998,1323.49 456.328,1330.23 484.956,1334.72 512.59,1341.46 551.712,1332.48 568.003,1321.24 581.24,1305.52 600.761,1289.79 616.455,1289.79 636.11,1287.55 
  650.375,1319 675.165,1298.78 
  "/>
<polyline clip-path="url(#clip022)" style="stroke:#00a98d; stroke-linecap:butt; stroke-linejoin:round; stroke-width:4; stroke-opacity:0.5; fill:none" points="
  447.332,1363.93 446.022,1359.44 441.836,1354.94 440.577,1350.45 440.47,1336.97 441.548,1339.22 444.185,1330.23 447.73,1325.74 450.425,1332.48 451.292,1341.46 
  452.569,1345.96 454.892,1336.97 458.317,1330.23 461.945,1334.72 470.724,1330.23 478.568,1336.97 486.544,1336.97 500.355,1330.23 506.825,1339.22 529.409,1350.45 
  542.492,1354.94 554.502,1341.46 
  "/>
<polyline clip-path="url(#clip022)" style="stroke:#8e971d; stroke-linecap:butt; stroke-linejoin:round; stroke-width:4; stroke-opacity:0.5; fill:none" points="
  475.551,1292.04 523.243,1283.05 564.248,1321.24 592.601,1305.52 615.503,1301.03 635.96,1307.77 655.974,1314.51 677.554,1321.24 702.242,1316.75 733.14,1307.77 
  768.301,1303.27 798.779,1321.24 830.725,1325.74 881.565,1319 951.75,1316.75 1010.73,1323.49 1071.04,1305.52 1139.54,1283.05 1199.6,1296.53 1261.68,1258.34 
  1324.7,1235.87 1395.8,1244.86 
  "/>
<polyline clip-path="url(#clip022)" style="stroke:#00a8cb; stroke-linecap:butt; stroke-linejoin:round; stroke-width:4; stroke-opacity:0.5; fill:none" points="
  447.935,1339.22 449.683,1332.48 450.305,1334.72 454.284,1339.22 458.491,1334.72 464.969,1343.71 473.826,1343.71 482.584,1336.97 490.765,1343.71 496.263,1345.96 
  502.564,1345.96 509.827,1343.71 517.1,1350.45 525.331,1354.94 539.115,1361.68 548.787,1361.68 561.114,1357.19 580.939,1359.44 593.002,1368.42 626.209,1363.93 
  645.856,1366.18 670.295,1339.22 
  "/>
<polyline clip-path="url(#clip022)" style="stroke:#9b7fe8; stroke-linecap:butt; stroke-linejoin:round; stroke-width:4; stroke-opacity:0.5; fill:none" points="
  458.386,1274.07 472.201,1276.31 477.243,1289.79 484.929,1278.56 491.73,1298.78 494.242,1296.53 494.457,1287.55 488.309,1294.29 483.341,1292.04 479.423,1292.04 
  482.869,1307.77 488.811,1316.75 491.553,1316.75 500.25,1307.77 515.364,1310.01 525.006,1316.75 533.97,1305.52 543.223,1280.81 550.285,1289.79 557.375,1298.78 
  563.028,1287.55 575.271,1247.11 
  "/>
<polyline clip-path="url(#clip022)" style="stroke:#608cf6; stroke-linecap:butt; stroke-linejoin:round; stroke-width:4; stroke-opacity:0.5; fill:none" points="
  459.305,1352.7 485.768,1354.94 508.078,1341.46 533.353,1334.72 557.77,1341.46 584.062,1336.97 610.934,1323.49 637.383,1316.75 664.22,1323.49 691.259,1325.74 
  725.457,1332.48 757.36,1327.98 793.542,1316.75 839.605,1319 900.675,1316.75 948.434,1323.49 997.801,1310.01 1058.62,1296.53 1109.55,1285.3 1153.87,1298.78 
  1195.56,1296.53 1251.21,1247.11 
  "/>
<polyline clip-path="url(#clip022)" style="stroke:#f05f73; stroke-linecap:butt; stroke-linejoin:round; stroke-width:4; stroke-opacity:0.5; fill:none" points="
  473.905,1305.52 521.772,1330.23 565.036,1323.49 602.053,1332.48 636.348,1314.51 671.636,1325.74 706.484,1319 738.208,1310.01 772.3,1310.01 808.731,1314.51 
  854.165,1314.51 895.045,1325.74 938.926,1305.52 1003.31,1294.29 1090.84,1301.03 1158.62,1314.51 1226.64,1276.31 1308.08,1267.33 1385.42,1274.07 1455.8,1298.78 
  1518.84,1265.08 1598.12,1251.6 
  "/>
<polyline clip-path="url(#clip022)" style="stroke:#dd64b5; stroke-linecap:butt; stroke-linejoin:round; stroke-width:4; stroke-opacity:0.5; fill:none" points="
  470.678,1363.93 510.96,1363.93 538.681,1372.92 568.077,1363.93 599.864,1370.67 636.514,1363.93 668.478,1370.67 696.897,1366.18 727.071,1377.41 759.454,1375.16 
  801.095,1372.92 843.347,1368.42 884.702,1368.42 936,1372.92 1004.28,1372.92 1053.51,1375.16 1095.21,1352.7 1147.76,1361.68 1209.62,1363.93 1266.13,1368.42 
  1325.02,1363.93 1406.08,1345.96 
  "/>
<polyline clip-path="url(#clip022)" style="stroke:#6b9e32; stroke-linecap:butt; stroke-linejoin:round; stroke-width:4; stroke-opacity:0.5; fill:none" points="
  469.377,1325.74 513.758,1323.49 552.471,1323.49 597.821,1321.24 640.515,1319 680.046,1312.26 718.186,1307.77 753.787,1298.78 794.509,1305.52 836.511,1310.01 
  885.407,1319 931.744,1316.75 982.335,1314.51 1047.7,1307.77 1116.72,1319 1169.17,1323.49 1222.54,1312.26 1289.05,1310.01 1350.49,1298.78 1410.33,1303.27 
  1467.36,1307.77 1540.38,1265.08 
  "/>
<polyline clip-path="url(#clip022)" style="stroke:#009af9; stroke-linecap:butt; stroke-linejoin:round; stroke-width:4; stroke-opacity:0.5; fill:none" points="
  450.867,1359.44 455.04,1345.96 456.592,1361.68 459.839,1352.7 465.068,1359.44 808.783,1357.19 
  "/>
<polyline clip-path="url(#clip022)" style="stroke:#e26f46; stroke-linecap:butt; stroke-linejoin:round; stroke-width:4; stroke-opacity:0.5; fill:none" points="
  462.919,1278.56 488.833,1310.01 506.492,1278.56 523.736,1280.81 537.943,1276.31 547.019,1287.55 558.18,1280.81 563.941,1262.83 570.402,1276.31 578.588,1280.81 
  599.889,1289.79 622.597,1292.04 641.624,1283.05 670.842,1274.07 708.383,1289.79 732.23,1280.81 757.082,1238.12 788.707,1251.6 820.988,1253.85 848.251,1240.37 
  871.422,1206.67 911.404,1177.46 
  "/>
<polyline clip-path="url(#clip022)" style="stroke:#3da44d; stroke-linecap:butt; stroke-linejoin:round; stroke-width:4; stroke-opacity:0.5; fill:none" points="
  470.822,1289.79 509.03,1269.57 540.825,1285.3 575.293,1278.56 606.685,1289.79 633.639,1296.53 657.234,1265.08 677.793,1283.05 702.36,1278.56 731.984,1283.05 
  774.262,1280.81 816.063,1301.03 858.865,1296.53 911.37,1289.79 988.156,1296.53 1043.56,1296.53 1104.79,1280.81 1182.11,1258.34 1247.67,1247.11 1309.82,1238.12 
  1364.39,1249.35 1441.19,1190.94 
  "/>
<polyline clip-path="url(#clip022)" style="stroke:#c271d2; stroke-linecap:butt; stroke-linejoin:round; stroke-width:4; stroke-opacity:0.5; fill:none" points="
  462.443,1316.75 480.901,1316.75 487.984,1312.26 497.047,1312.26 504.627,1305.52 511.051,1312.26 517.354,1305.52 518.765,1305.52 525.008,1307.77 532.723,1312.26 
  548.9,1314.51 564.096,1323.49 574.661,1332.48 597.394,1327.98 633.705,1327.98 653.281,1323.49 673.78,1314.51 702.541,1305.52 725.518,1305.52 747.503,1314.51 
  769.681,1303.27 804.032,1271.82 
  "/>
<polyline clip-path="url(#clip022)" style="stroke:#ac8d18; stroke-linecap:butt; stroke-linejoin:round; stroke-width:4; stroke-opacity:0.5; fill:none" points="
  465.738,1372.92 496.751,1363.93 509.08,1377.41 522.154,1368.42 532.439,1377.41 537.487,1375.16 543.149,1379.66 550.046,1370.67 558.313,1384.15 572.546,1379.66 
  584.014,1381.9 591.861,1381.9 608.555,1381.9 633.744,1379.66 647.221,1377.41 657.034,1372.92 671.088,1368.42 685.625,1366.18 695.106,1379.66 705.935,1368.42 
  731.22,1352.7 
  "/>
<polyline clip-path="url(#clip022)" style="stroke:#00a9ad; stroke-linecap:butt; stroke-linejoin:round; stroke-width:4; stroke-opacity:0.5; fill:none" points="
  461.857,1314.51 481.616,1314.51 492.252,1319 508.845,1316.75 526.271,1301.03 539.945,1316.75 556.975,1298.78 576.267,1321.24 597.35,1314.51 620.411,1332.48 
  648.687,1327.98 679.667,1327.98 706.189,1339.22 739.881,1343.71 794.784,1341.46 837.316,1341.46 879.88,1330.23 935.072,1310.01 989.841,1312.26 1038.31,1316.75 
  1085.76,1314.51 1153.36,1289.79 
  "/>
<polyline clip-path="url(#clip022)" style="stroke:#ed5d92; stroke-linecap:butt; stroke-linejoin:round; stroke-width:4; stroke-opacity:0.5; fill:none" points="
  455.837,1363.93 469.286,1361.68 475.046,1363.93 486.183,1363.93 500.912,1363.93 512.801,1359.44 525.752,1352.7 535.229,1361.68 549.14,1361.68 564.388,1361.68 
  586.271,1363.93 611.917,1366.18 632.041,1375.16 665.549,1363.93 713.625,1366.18 744.83,1366.18 770.82,1352.7 801.869,1359.44 834.244,1354.94 860.339,1352.7 
  901.203,1354.94 939.122,1343.71 
  "/>
<polyline clip-path="url(#clip022)" style="stroke:#c68125; stroke-linecap:butt; stroke-linejoin:round; stroke-width:4; stroke-opacity:0.5; fill:none" points="
  485.495,1327.98 566.593,1334.72 646.715,1357.19 716.355,1321.24 773.684,1330.23 830.574,1339.22 889.378,1334.72 946.192,1334.72 1004.42,1348.2 1063.04,1359.44 
  1131.83,1334.72 1197.34,1348.2 1272.95,1330.23 1365.89,1323.49 1490.75,1352.7 1597.36,1334.72 1706.53,1343.71 1829.66,1307.77 1950.75,1319 2060.77,1321.24 
  2170.88,1310.01 2291.97,1294.29 
  "/>
<polyline clip-path="url(#clip022)" style="stroke:#00a98d; stroke-linecap:butt; stroke-linejoin:round; stroke-width:4; stroke-opacity:0.5; fill:none" points="
  461.2,1350.45 491.893,1357.19 518.932,1348.2 547.17,1354.94 573.927,1345.96 603.482,1366.18 631.863,1339.22 659.845,1359.44 687.816,1350.45 714.963,1372.92 
  745.575,1363.93 775.991,1361.68 807.519,1370.67 855.623,1354.94 917.952,1359.44 966.011,1357.19 1012.28,1336.97 1072.03,1330.23 1130.3,1343.71 1181.81,1345.96 
  1233.46,1345.96 1303.01,1307.77 
  "/>
</svg>
