<?xml version="1.0" encoding="utf-8"?>
<svg xmlns="http://www.w3.org/2000/svg" xmlns:xlink="http://www.w3.org/1999/xlink" width="600" height="400" viewBox="0 0 2400 1600">
<defs>
  <clipPath id="clip410">
    <rect x="0" y="0" width="2400" height="1600"/>
  </clipPath>
</defs>
<path clip-path="url(#clip410)" d="
M0 1600 L2400 1600 L2400 0 L0 0  Z
  " fill="#ffffff" fill-rule="evenodd" fill-opacity="1"/>
<defs>
  <clipPath id="clip411">
    <rect x="480" y="0" width="1681" height="1600"/>
  </clipPath>
</defs>
<path clip-path="url(#clip410)" d="
M112.177 1486.45 L2352.76 1486.45 L2352.76 123.472 L112.177 123.472  Z
  " fill="#ffffff" fill-rule="evenodd" fill-opacity="1"/>
<defs>
  <clipPath id="clip412">
    <rect x="112" y="123" width="2242" height="1364"/>
  </clipPath>
</defs>
<polyline clip-path="url(#clip412)" style="stroke:#000000; stroke-linecap:butt; stroke-linejoin:round; stroke-width:2; stroke-opacity:0.1; fill:none" points="
  281.804,1486.45 281.804,123.472 
  "/>
<polyline clip-path="url(#clip412)" style="stroke:#000000; stroke-linecap:butt; stroke-linejoin:round; stroke-width:2; stroke-opacity:0.1; fill:none" points="
  839.958,1486.45 839.958,123.472 
  "/>
<polyline clip-path="url(#clip412)" style="stroke:#000000; stroke-linecap:butt; stroke-linejoin:round; stroke-width:2; stroke-opacity:0.1; fill:none" points="
  1398.11,1486.45 1398.11,123.472 
  "/>
<polyline clip-path="url(#clip412)" style="stroke:#000000; stroke-linecap:butt; stroke-linejoin:round; stroke-width:2; stroke-opacity:0.1; fill:none" points="
  1956.26,1486.45 1956.26,123.472 
  "/>
<polyline clip-path="url(#clip410)" style="stroke:#000000; stroke-linecap:butt; stroke-linejoin:round; stroke-width:4; stroke-opacity:1; fill:none" points="
  112.177,1486.45 2352.76,1486.45 
  "/>
<polyline clip-path="url(#clip410)" style="stroke:#000000; stroke-linecap:butt; stroke-linejoin:round; stroke-width:4; stroke-opacity:1; fill:none" points="
  281.804,1486.45 281.804,1467.55 
  "/>
<polyline clip-path="url(#clip410)" style="stroke:#000000; stroke-linecap:butt; stroke-linejoin:round; stroke-width:4; stroke-opacity:1; fill:none" points="
  839.958,1486.45 839.958,1467.55 
  "/>
<polyline clip-path="url(#clip410)" style="stroke:#000000; stroke-linecap:butt; stroke-linejoin:round; stroke-width:4; stroke-opacity:1; fill:none" points="
  1398.11,1486.45 1398.11,1467.55 
  "/>
<polyline clip-path="url(#clip410)" style="stroke:#000000; stroke-linecap:butt; stroke-linejoin:round; stroke-width:4; stroke-opacity:1; fill:none" points="
  1956.26,1486.45 1956.26,1467.55 
  "/>
<path clip-path="url(#clip410)" d="M229.131 1532.02 L258.807 1532.02 L258.807 1535.95 L229.131 1535.95 L229.131 1532.02 Z" fill="#000000" fill-rule="evenodd" fill-opacity="1" /><path clip-path="url(#clip410)" d="M278.899 1517.37 Q275.288 1517.37 273.46 1520.93 Q271.654 1524.47 271.654 1531.6 Q271.654 1538.71 273.46 1542.27 Q275.288 1545.82 278.899 1545.82 Q282.534 1545.82 284.339 1542.27 Q286.168 1538.71 286.168 1531.6 Q286.168 1524.47 284.339 1520.93 Q282.534 1517.37 278.899 1517.37 M278.899 1513.66 Q284.709 1513.66 287.765 1518.27 Q290.844 1522.85 290.844 1531.6 Q290.844 1540.33 287.765 1544.94 Q284.709 1549.52 278.899 1549.52 Q273.089 1549.52 270.01 1544.94 Q266.955 1540.33 266.955 1531.6 Q266.955 1522.85 270.01 1518.27 Q273.089 1513.66 278.899 1513.66 Z" fill="#000000" fill-rule="evenodd" fill-opacity="1" /><path clip-path="url(#clip410)" d="M299.061 1542.97 L303.945 1542.97 L303.945 1548.85 L299.061 1548.85 L299.061 1542.97 Z" fill="#000000" fill-rule="evenodd" fill-opacity="1" /><path clip-path="url(#clip410)" d="M318.158 1544.91 L334.478 1544.91 L334.478 1548.85 L312.533 1548.85 L312.533 1544.91 Q315.195 1542.16 319.779 1537.53 Q324.385 1532.88 325.566 1531.53 Q327.811 1529.01 328.691 1527.27 Q329.593 1525.51 329.593 1523.82 Q329.593 1521.07 327.649 1519.33 Q325.728 1517.6 322.626 1517.6 Q320.427 1517.6 317.973 1518.36 Q315.543 1519.13 312.765 1520.68 L312.765 1515.95 Q315.589 1514.82 318.043 1514.24 Q320.496 1513.66 322.533 1513.66 Q327.904 1513.66 331.098 1516.35 Q334.293 1519.03 334.293 1523.52 Q334.293 1525.65 333.482 1527.57 Q332.695 1529.47 330.589 1532.07 Q330.01 1532.74 326.908 1535.95 Q323.806 1539.15 318.158 1544.91 Z" fill="#000000" fill-rule="evenodd" fill-opacity="1" /><path clip-path="url(#clip410)" d="M817.342 1517.37 Q813.731 1517.37 811.902 1520.93 Q810.097 1524.47 810.097 1531.6 Q810.097 1538.71 811.902 1542.27 Q813.731 1545.82 817.342 1545.82 Q820.976 1545.82 822.782 1542.27 Q824.611 1538.71 824.611 1531.6 Q824.611 1524.47 822.782 1520.93 Q820.976 1517.37 817.342 1517.37 M817.342 1513.66 Q823.152 1513.66 826.208 1518.27 Q829.287 1522.85 829.287 1531.6 Q829.287 1540.33 826.208 1544.94 Q823.152 1549.52 817.342 1549.52 Q811.532 1549.52 808.453 1544.94 Q805.398 1540.33 805.398 1531.6 Q805.398 1522.85 808.453 1518.27 Q811.532 1513.66 817.342 1513.66 Z" fill="#000000" fill-rule="evenodd" fill-opacity="1" /><path clip-path="url(#clip410)" d="M837.504 1542.97 L842.388 1542.97 L842.388 1548.85 L837.504 1548.85 L837.504 1542.97 Z" fill="#000000" fill-rule="evenodd" fill-opacity="1" /><path clip-path="url(#clip410)" d="M862.573 1517.37 Q858.962 1517.37 857.134 1520.93 Q855.328 1524.47 855.328 1531.6 Q855.328 1538.71 857.134 1542.27 Q858.962 1545.82 862.573 1545.82 Q866.208 1545.82 868.013 1542.27 Q869.842 1538.71 869.842 1531.6 Q869.842 1524.47 868.013 1520.93 Q866.208 1517.37 862.573 1517.37 M862.573 1513.66 Q868.384 1513.66 871.439 1518.27 Q874.518 1522.85 874.518 1531.6 Q874.518 1540.33 871.439 1544.94 Q868.384 1549.52 862.573 1549.52 Q856.763 1549.52 853.685 1544.94 Q850.629 1540.33 850.629 1531.6 Q850.629 1522.85 853.685 1518.27 Q856.763 1513.66 862.573 1513.66 Z" fill="#000000" fill-rule="evenodd" fill-opacity="1" /><path clip-path="url(#clip410)" d="M1376.29 1517.37 Q1372.68 1517.37 1370.85 1520.93 Q1369.05 1524.47 1369.05 1531.6 Q1369.05 1538.71 1370.85 1542.27 Q1372.68 1545.82 1376.29 1545.82 Q1379.93 1545.82 1381.73 1542.27 Q1383.56 1538.71 1383.56 1531.6 Q1383.56 1524.47 1381.73 1520.93 Q1379.93 1517.37 1376.29 1517.37 M1376.29 1513.66 Q1382.1 1513.66 1385.16 1518.27 Q1388.24 1522.85 1388.24 1531.6 Q1388.24 1540.33 1385.16 1544.94 Q1382.1 1549.52 1376.29 1549.52 Q1370.48 1549.52 1367.41 1544.94 Q1364.35 1540.33 1364.35 1531.6 Q1364.35 1522.85 1367.41 1518.27 Q1370.48 1513.66 1376.29 1513.66 Z" fill="#000000" fill-rule="evenodd" fill-opacity="1" /><path clip-path="url(#clip410)" d="M1396.46 1542.97 L1401.34 1542.97 L1401.34 1548.85 L1396.46 1548.85 L1396.46 1542.97 Z" fill="#000000" fill-rule="evenodd" fill-opacity="1" /><path clip-path="url(#clip410)" d="M1415.55 1544.91 L1431.87 1544.91 L1431.87 1548.85 L1409.93 1548.85 L1409.93 1544.91 Q1412.59 1542.16 1417.17 1537.53 Q1421.78 1532.88 1422.96 1531.53 Q1425.21 1529.01 1426.09 1527.27 Q1426.99 1525.51 1426.99 1523.82 Q1426.99 1521.07 1425.04 1519.33 Q1423.12 1517.6 1420.02 1517.6 Q1417.82 1517.6 1415.37 1518.36 Q1412.94 1519.13 1410.16 1520.68 L1410.16 1515.95 Q1412.98 1514.82 1415.44 1514.24 Q1417.89 1513.66 1419.93 1513.66 Q1425.3 1513.66 1428.49 1516.35 Q1431.69 1519.03 1431.69 1523.52 Q1431.69 1525.65 1430.88 1527.57 Q1430.09 1529.47 1427.98 1532.07 Q1427.41 1532.74 1424.3 1535.95 Q1421.2 1539.15 1415.55 1544.91 Z" fill="#000000" fill-rule="evenodd" fill-opacity="1" /><path clip-path="url(#clip410)" d="M1933.41 1517.37 Q1929.8 1517.37 1927.97 1520.93 Q1926.16 1524.47 1926.16 1531.6 Q1926.16 1538.71 1927.97 1542.27 Q1929.8 1545.82 1933.41 1545.82 Q1937.04 1545.82 1938.85 1542.27 Q1940.67 1538.71 1940.67 1531.6 Q1940.67 1524.47 1938.85 1520.93 Q1937.04 1517.37 1933.41 1517.37 M1933.41 1513.66 Q1939.22 1513.66 1942.27 1518.27 Q1945.35 1522.85 1945.35 1531.6 Q1945.35 1540.33 1942.27 1544.94 Q1939.22 1549.52 1933.41 1549.52 Q1927.6 1549.52 1924.52 1544.94 Q1921.46 1540.33 1921.46 1531.6 Q1921.46 1522.85 1924.52 1518.27 Q1927.6 1513.66 1933.41 1513.66 Z" fill="#000000" fill-rule="evenodd" fill-opacity="1" /><path clip-path="url(#clip410)" d="M1953.57 1542.97 L1958.45 1542.97 L1958.45 1548.85 L1953.57 1548.85 L1953.57 1542.97 Z" fill="#000000" fill-rule="evenodd" fill-opacity="1" /><path clip-path="url(#clip410)" d="M1981.48 1518.36 L1969.68 1536.81 L1981.48 1536.81 L1981.48 1518.36 M1980.26 1514.29 L1986.14 1514.29 L1986.14 1536.81 L1991.07 1536.81 L1991.07 1540.7 L1986.14 1540.7 L1986.14 1548.85 L1981.48 1548.85 L1981.48 1540.7 L1965.88 1540.7 L1965.88 1536.19 L1980.26 1514.29 Z" fill="#000000" fill-rule="evenodd" fill-opacity="1" /><polyline clip-path="url(#clip412)" style="stroke:#000000; stroke-linecap:butt; stroke-linejoin:round; stroke-width:2; stroke-opacity:0.1; fill:none" points="
  112.177,1447.88 2352.76,1447.88 
  "/>
<polyline clip-path="url(#clip412)" style="stroke:#000000; stroke-linecap:butt; stroke-linejoin:round; stroke-width:2; stroke-opacity:0.1; fill:none" points="
  112.177,1222.94 2352.76,1222.94 
  "/>
<polyline clip-path="url(#clip412)" style="stroke:#000000; stroke-linecap:butt; stroke-linejoin:round; stroke-width:2; stroke-opacity:0.1; fill:none" points="
  112.177,997.994 2352.76,997.994 
  "/>
<polyline clip-path="url(#clip412)" style="stroke:#000000; stroke-linecap:butt; stroke-linejoin:round; stroke-width:2; stroke-opacity:0.1; fill:none" points="
  112.177,773.052 2352.76,773.052 
  "/>
<polyline clip-path="url(#clip412)" style="stroke:#000000; stroke-linecap:butt; stroke-linejoin:round; stroke-width:2; stroke-opacity:0.1; fill:none" points="
  112.177,548.11 2352.76,548.11 
  "/>
<polyline clip-path="url(#clip412)" style="stroke:#000000; stroke-linecap:butt; stroke-linejoin:round; stroke-width:2; stroke-opacity:0.1; fill:none" points="
  112.177,323.168 2352.76,323.168 
  "/>
<polyline clip-path="url(#clip410)" style="stroke:#000000; stroke-linecap:butt; stroke-linejoin:round; stroke-width:4; stroke-opacity:1; fill:none" points="
  112.177,1486.45 112.177,123.472 
  "/>
<polyline clip-path="url(#clip410)" style="stroke:#000000; stroke-linecap:butt; stroke-linejoin:round; stroke-width:4; stroke-opacity:1; fill:none" points="
  112.177,1447.88 131.075,1447.88 
  "/>
<polyline clip-path="url(#clip410)" style="stroke:#000000; stroke-linecap:butt; stroke-linejoin:round; stroke-width:4; stroke-opacity:1; fill:none" points="
  112.177,1222.94 131.075,1222.94 
  "/>
<polyline clip-path="url(#clip410)" style="stroke:#000000; stroke-linecap:butt; stroke-linejoin:round; stroke-width:4; stroke-opacity:1; fill:none" points="
  112.177,997.994 131.075,997.994 
  "/>
<polyline clip-path="url(#clip410)" style="stroke:#000000; stroke-linecap:butt; stroke-linejoin:round; stroke-width:4; stroke-opacity:1; fill:none" points="
  112.177,773.052 131.075,773.052 
  "/>
<polyline clip-path="url(#clip410)" style="stroke:#000000; stroke-linecap:butt; stroke-linejoin:round; stroke-width:4; stroke-opacity:1; fill:none" points="
  112.177,548.11 131.075,548.11 
  "/>
<polyline clip-path="url(#clip410)" style="stroke:#000000; stroke-linecap:butt; stroke-linejoin:round; stroke-width:4; stroke-opacity:1; fill:none" points="
  112.177,323.168 131.075,323.168 
  "/>
<path clip-path="url(#clip410)" d="M64.2328 1433.68 Q60.6217 1433.68 58.793 1437.24 Q56.9875 1440.78 56.9875 1447.91 Q56.9875 1455.02 58.793 1458.58 Q60.6217 1462.13 64.2328 1462.13 Q67.867 1462.13 69.6726 1458.58 Q71.5013 1455.02 71.5013 1447.91 Q71.5013 1440.78 69.6726 1437.24 Q67.867 1433.68 64.2328 1433.68 M64.2328 1429.97 Q70.0429 1429.97 73.0985 1434.58 Q76.1772 1439.16 76.1772 1447.91 Q76.1772 1456.64 73.0985 1461.25 Q70.0429 1465.83 64.2328 1465.83 Q58.4226 1465.83 55.344 1461.25 Q52.2884 1456.64 52.2884 1447.91 Q52.2884 1439.16 55.344 1434.58 Q58.4226 1429.97 64.2328 1429.97 Z" fill="#000000" fill-rule="evenodd" fill-opacity="1" /><path clip-path="url(#clip410)" d="M56.2699 1236.28 L63.9087 1236.28 L63.9087 1209.92 L55.5986 1211.58 L55.5986 1207.32 L63.8624 1205.66 L68.5383 1205.66 L68.5383 1236.28 L76.1772 1236.28 L76.1772 1240.22 L56.2699 1240.22 L56.2699 1236.28 Z" fill="#000000" fill-rule="evenodd" fill-opacity="1" /><path clip-path="url(#clip410)" d="M59.8578 1011.34 L76.1772 1011.34 L76.1772 1015.27 L54.2328 1015.27 L54.2328 1011.34 Q56.8949 1008.58 61.4782 1003.95 Q66.0846 999.302 67.2652 997.959 Q69.5105 995.436 70.3902 993.7 Q71.2929 991.941 71.2929 990.251 Q71.2929 987.496 69.3485 985.76 Q67.4272 984.024 64.3254 984.024 Q62.1263 984.024 59.6726 984.788 Q57.2421 985.552 54.4643 987.103 L54.4643 982.381 Q57.2884 981.246 59.7421 980.668 Q62.1958 980.089 64.2328 980.089 Q69.6031 980.089 72.7976 982.774 Q75.992 985.459 75.992 989.95 Q75.992 992.08 75.1818 994.001 Q74.3948 995.899 72.2883 998.492 Q71.7096 999.163 68.6078 1002.38 Q65.5059 1005.58 59.8578 1011.34 Z" fill="#000000" fill-rule="evenodd" fill-opacity="1" /><path clip-path="url(#clip410)" d="M69.0476 771.698 Q72.404 772.415 74.279 774.684 Q76.1772 776.952 76.1772 780.286 Q76.1772 785.401 72.6587 788.202 Q69.1402 791.003 62.6587 791.003 Q60.4828 791.003 58.168 790.563 Q55.8764 790.147 53.4227 789.29 L53.4227 784.776 Q55.3671 785.911 57.6819 786.489 Q59.9967 787.068 62.5198 787.068 Q66.918 787.068 69.2096 785.332 Q71.5244 783.596 71.5244 780.286 Q71.5244 777.23 69.3717 775.517 Q67.242 773.781 63.4226 773.781 L59.3949 773.781 L59.3949 769.939 L63.6078 769.939 Q67.0569 769.939 68.8855 768.573 Q70.7142 767.184 70.7142 764.591 Q70.7142 761.929 68.8161 760.517 Q66.9411 759.082 63.4226 759.082 Q61.5013 759.082 59.3023 759.499 Q57.1032 759.915 54.4643 760.795 L54.4643 756.628 Q57.1264 755.888 59.4412 755.517 Q61.7791 755.147 63.8393 755.147 Q69.1633 755.147 72.2652 757.577 Q75.367 759.985 75.367 764.105 Q75.367 766.976 73.7235 768.966 Q72.08 770.934 69.0476 771.698 Z" fill="#000000" fill-rule="evenodd" fill-opacity="1" /><path clip-path="url(#clip410)" d="M66.5939 534.904 L54.7884 553.353 L66.5939 553.353 L66.5939 534.904 M65.367 530.83 L71.2466 530.83 L71.2466 553.353 L76.1772 553.353 L76.1772 557.242 L71.2466 557.242 L71.2466 565.39 L66.5939 565.39 L66.5939 557.242 L50.9921 557.242 L50.9921 552.728 L65.367 530.83 Z" fill="#000000" fill-rule="evenodd" fill-opacity="1" /><path clip-path="url(#clip410)" d="M55.2745 305.888 L73.6309 305.888 L73.6309 309.823 L59.5569 309.823 L59.5569 318.295 Q60.5754 317.948 61.5939 317.786 Q62.6124 317.601 63.6309 317.601 Q69.418 317.601 72.7976 320.772 Q76.1772 323.943 76.1772 329.36 Q76.1772 334.938 72.705 338.04 Q69.2328 341.119 62.9134 341.119 Q60.7374 341.119 58.4689 340.749 Q56.2236 340.378 53.8162 339.637 L53.8162 334.938 Q55.8995 336.073 58.1217 336.628 Q60.3439 337.184 62.8208 337.184 Q66.8254 337.184 69.1633 335.077 Q71.5013 332.971 71.5013 329.36 Q71.5013 325.749 69.1633 323.642 Q66.8254 321.536 62.8208 321.536 Q60.9458 321.536 59.0708 321.952 Q57.2189 322.369 55.2745 323.249 L55.2745 305.888 Z" fill="#000000" fill-rule="evenodd" fill-opacity="1" /><path clip-path="url(#clip410)" d="M810.423 12.096 L822.616 12.096 L838.05 53.2532 L853.565 12.096 L865.758 12.096 L865.758 72.576 L857.778 72.576 L857.778 19.4686 L842.182 60.9499 L833.959 60.9499 L818.363 19.4686 L818.363 72.576 L810.423 72.576 L810.423 12.096 Z" fill="#000000" fill-rule="evenodd" fill-opacity="1" /><path clip-path="url(#clip410)" d="M920.486 48.0275 L920.486 51.6733 L886.216 51.6733 Q886.702 59.3701 890.834 63.421 Q895.006 67.4314 902.419 67.4314 Q906.713 67.4314 910.723 66.3781 Q914.774 65.3249 918.744 63.2184 L918.744 70.267 Q914.734 71.9684 910.521 72.8596 Q906.308 73.7508 901.974 73.7508 Q891.117 73.7508 884.757 67.4314 Q878.438 61.1119 878.438 50.3365 Q878.438 39.1965 884.433 32.6746 Q890.469 26.1121 900.677 26.1121 Q909.832 26.1121 915.139 32.0264 Q920.486 37.9003 920.486 48.0275 M913.032 45.84 Q912.951 39.7232 909.589 36.0774 Q906.267 32.4315 900.758 32.4315 Q894.52 32.4315 890.753 35.9558 Q887.026 39.4801 886.459 45.8805 L913.032 45.84 Z" fill="#000000" fill-rule="evenodd" fill-opacity="1" /><path clip-path="url(#clip410)" d="M953.339 49.7694 Q944.305 49.7694 940.822 51.8354 Q937.338 53.9013 937.338 58.8839 Q937.338 62.8538 939.93 65.2034 Q942.564 67.5124 947.06 67.5124 Q953.258 67.5124 956.985 63.1374 Q960.752 58.7219 960.752 51.4303 L960.752 49.7694 L953.339 49.7694 M968.206 46.6907 L968.206 72.576 L960.752 72.576 L960.752 65.6895 Q958.2 69.8214 954.392 71.8063 Q950.584 73.7508 945.075 73.7508 Q938.108 73.7508 933.976 69.8619 Q929.884 65.9325 929.884 59.3701 Q929.884 51.7138 934.988 47.825 Q940.133 43.9361 950.301 43.9361 L960.752 43.9361 L960.752 43.2069 Q960.752 38.0623 957.349 35.2672 Q953.987 32.4315 947.87 32.4315 Q943.981 32.4315 940.295 33.3632 Q936.609 34.295 933.206 36.1584 L933.206 29.2718 Q937.297 27.692 941.146 26.9223 Q944.994 26.1121 948.64 26.1121 Q958.484 26.1121 963.345 31.2163 Q968.206 36.3204 968.206 46.6907 Z" fill="#000000" fill-rule="evenodd" fill-opacity="1" /><path clip-path="url(#clip410)" d="M1021.27 45.1919 L1021.27 72.576 L1013.82 72.576 L1013.82 45.4349 Q1013.82 38.994 1011.31 35.7938 Q1008.8 32.5936 1003.77 32.5936 Q997.737 32.5936 994.253 36.4419 Q990.769 40.2903 990.769 46.9338 L990.769 72.576 L983.275 72.576 L983.275 27.2059 L990.769 27.2059 L990.769 34.2544 Q993.443 30.163 997.048 28.1376 Q1000.69 26.1121 1005.43 26.1121 Q1013.25 26.1121 1017.26 30.9732 Q1021.27 35.7938 1021.27 45.1919 Z" fill="#000000" fill-rule="evenodd" fill-opacity="1" /><path clip-path="url(#clip410)" d="M1062.51 9.54393 L1069.96 9.54393 L1069.96 72.576 L1062.51 72.576 L1062.51 9.54393 Z" fill="#000000" fill-rule="evenodd" fill-opacity="1" /><path clip-path="url(#clip410)" d="M1106.18 49.7694 Q1097.15 49.7694 1093.66 51.8354 Q1090.18 53.9013 1090.18 58.8839 Q1090.18 62.8538 1092.77 65.2034 Q1095.4 67.5124 1099.9 67.5124 Q1106.1 67.5124 1109.83 63.1374 Q1113.59 58.7219 1113.59 51.4303 L1113.59 49.7694 L1106.18 49.7694 M1121.05 46.6907 L1121.05 72.576 L1113.59 72.576 L1113.59 65.6895 Q1111.04 69.8214 1107.23 71.8063 Q1103.42 73.7508 1097.92 73.7508 Q1090.95 73.7508 1086.82 69.8619 Q1082.72 65.9325 1082.72 59.3701 Q1082.72 51.7138 1087.83 47.825 Q1092.97 43.9361 1103.14 43.9361 L1113.59 43.9361 L1113.59 43.2069 Q1113.59 38.0623 1110.19 35.2672 Q1106.83 32.4315 1100.71 32.4315 Q1096.82 32.4315 1093.14 33.3632 Q1089.45 34.295 1086.05 36.1584 L1086.05 29.2718 Q1090.14 27.692 1093.99 26.9223 Q1097.83 26.1121 1101.48 26.1121 Q1111.32 26.1121 1116.19 31.2163 Q1121.05 36.3204 1121.05 46.6907 Z" fill="#000000" fill-rule="evenodd" fill-opacity="1" /><path clip-path="url(#clip410)" d="M1132.06 27.2059 L1139.52 27.2059 L1148.84 62.6108 L1158.11 27.2059 L1166.9 27.2059 L1176.22 62.6108 L1185.5 27.2059 L1192.95 27.2059 L1181.08 72.576 L1172.29 72.576 L1162.53 35.3887 L1152.72 72.576 L1143.93 72.576 L1132.06 27.2059 Z" fill="#000000" fill-rule="evenodd" fill-opacity="1" /><path clip-path="url(#clip410)" d="M1263.27 28.9478 L1263.27 35.9153 Q1260.11 34.1734 1256.91 33.3227 Q1253.75 32.4315 1250.51 32.4315 Q1243.26 32.4315 1239.25 37.0496 Q1235.24 41.6271 1235.24 49.9314 Q1235.24 58.2358 1239.25 62.8538 Q1243.26 67.4314 1250.51 67.4314 Q1253.75 67.4314 1256.91 66.5807 Q1260.11 65.6895 1263.27 63.9476 L1263.27 70.8341 Q1260.15 72.2924 1256.79 73.0216 Q1253.47 73.7508 1249.7 73.7508 Q1239.45 73.7508 1233.42 67.3098 Q1227.38 60.8689 1227.38 49.9314 Q1227.38 38.832 1233.46 32.472 Q1239.58 26.1121 1250.19 26.1121 Q1253.63 26.1121 1256.91 26.8413 Q1260.19 27.5299 1263.27 28.9478 Z" fill="#000000" fill-rule="evenodd" fill-opacity="1" /><path clip-path="url(#clip410)" d="M1293.82 32.4315 Q1287.82 32.4315 1284.34 37.1306 Q1280.85 41.7891 1280.85 49.9314 Q1280.85 58.0738 1284.3 62.7728 Q1287.78 67.4314 1293.82 67.4314 Q1299.77 67.4314 1303.26 62.7323 Q1306.74 58.0333 1306.74 49.9314 Q1306.74 41.8701 1303.26 37.1711 Q1299.77 32.4315 1293.82 32.4315 M1293.82 26.1121 Q1303.54 26.1121 1309.09 32.4315 Q1314.64 38.7509 1314.64 49.9314 Q1314.64 61.0714 1309.09 67.4314 Q1303.54 73.7508 1293.82 73.7508 Q1284.05 73.7508 1278.51 67.4314 Q1273 61.0714 1273 49.9314 Q1273 38.7509 1278.51 32.4315 Q1284.05 26.1121 1293.82 26.1121 Z" fill="#000000" fill-rule="evenodd" fill-opacity="1" /><path clip-path="url(#clip410)" d="M1365.8 48.0275 L1365.8 51.6733 L1331.53 51.6733 Q1332.02 59.3701 1336.15 63.421 Q1340.32 67.4314 1347.74 67.4314 Q1352.03 67.4314 1356.04 66.3781 Q1360.09 65.3249 1364.06 63.2184 L1364.06 70.267 Q1360.05 71.9684 1355.84 72.8596 Q1351.62 73.7508 1347.29 73.7508 Q1336.43 73.7508 1330.07 67.4314 Q1323.75 61.1119 1323.75 50.3365 Q1323.75 39.1965 1329.75 32.6746 Q1335.78 26.1121 1345.99 26.1121 Q1355.15 26.1121 1360.45 32.0264 Q1365.8 37.9003 1365.8 48.0275 M1358.35 45.84 Q1358.27 39.7232 1354.91 36.0774 Q1351.58 32.4315 1346.07 32.4315 Q1339.84 32.4315 1336.07 35.9558 Q1332.34 39.4801 1331.77 45.8805 L1358.35 45.84 Z" fill="#000000" fill-rule="evenodd" fill-opacity="1" /><path clip-path="url(#clip410)" d="M1401 9.54393 L1401 15.7418 L1393.87 15.7418 Q1389.86 15.7418 1388.28 17.3622 Q1386.75 18.9825 1386.75 23.1955 L1386.75 27.2059 L1399.02 27.2059 L1399.02 32.9987 L1386.75 32.9987 L1386.75 72.576 L1379.25 72.576 L1379.25 32.9987 L1372.12 32.9987 L1372.12 27.2059 L1379.25 27.2059 L1379.25 24.0462 Q1379.25 16.471 1382.78 13.0277 Q1386.3 9.54393 1393.96 9.54393 L1401 9.54393 Z" fill="#000000" fill-rule="evenodd" fill-opacity="1" /><path clip-path="url(#clip410)" d="M1430.21 9.54393 L1430.21 15.7418 L1423.08 15.7418 Q1419.07 15.7418 1417.49 17.3622 Q1415.95 18.9825 1415.95 23.1955 L1415.95 27.2059 L1428.23 27.2059 L1428.23 32.9987 L1415.95 32.9987 L1415.95 72.576 L1408.46 72.576 L1408.46 32.9987 L1401.33 32.9987 L1401.33 27.2059 L1408.46 27.2059 L1408.46 24.0462 Q1408.46 16.471 1411.98 13.0277 Q1415.51 9.54393 1423.16 9.54393 L1430.21 9.54393 Z" fill="#000000" fill-rule="evenodd" fill-opacity="1" /><path clip-path="url(#clip410)" d="M1436.45 27.2059 L1443.9 27.2059 L1443.9 72.576 L1436.45 72.576 L1436.45 27.2059 M1436.45 9.54393 L1443.9 9.54393 L1443.9 18.9825 L1436.45 18.9825 L1436.45 9.54393 Z" fill="#000000" fill-rule="evenodd" fill-opacity="1" /><path clip-path="url(#clip410)" d="M1492.15 28.9478 L1492.15 35.9153 Q1488.99 34.1734 1485.79 33.3227 Q1482.63 32.4315 1479.39 32.4315 Q1472.14 32.4315 1468.13 37.0496 Q1464.12 41.6271 1464.12 49.9314 Q1464.12 58.2358 1468.13 62.8538 Q1472.14 67.4314 1479.39 67.4314 Q1482.63 67.4314 1485.79 66.5807 Q1488.99 65.6895 1492.15 63.9476 L1492.15 70.8341 Q1489.03 72.2924 1485.67 73.0216 Q1482.35 73.7508 1478.58 73.7508 Q1468.33 73.7508 1462.29 67.3098 Q1456.26 60.8689 1456.26 49.9314 Q1456.26 38.832 1462.34 32.472 Q1468.45 26.1121 1479.07 26.1121 Q1482.51 26.1121 1485.79 26.8413 Q1489.07 27.5299 1492.15 28.9478 Z" fill="#000000" fill-rule="evenodd" fill-opacity="1" /><path clip-path="url(#clip410)" d="M1505.11 27.2059 L1512.57 27.2059 L1512.57 72.576 L1505.11 72.576 L1505.11 27.2059 M1505.11 9.54393 L1512.57 9.54393 L1512.57 18.9825 L1505.11 18.9825 L1505.11 9.54393 Z" fill="#000000" fill-rule="evenodd" fill-opacity="1" /><path clip-path="url(#clip410)" d="M1566.97 48.0275 L1566.97 51.6733 L1532.7 51.6733 Q1533.19 59.3701 1537.32 63.421 Q1541.49 67.4314 1548.9 67.4314 Q1553.2 67.4314 1557.21 66.3781 Q1561.26 65.3249 1565.23 63.2184 L1565.23 70.267 Q1561.22 71.9684 1557 72.8596 Q1552.79 73.7508 1548.46 73.7508 Q1537.6 73.7508 1531.24 67.4314 Q1524.92 61.1119 1524.92 50.3365 Q1524.92 39.1965 1530.92 32.6746 Q1536.95 26.1121 1547.16 26.1121 Q1556.32 26.1121 1561.62 32.0264 Q1566.97 37.9003 1566.97 48.0275 M1559.52 45.84 Q1559.44 39.7232 1556.07 36.0774 Q1552.75 32.4315 1547.24 32.4315 Q1541 32.4315 1537.24 35.9558 Q1533.51 39.4801 1532.94 45.8805 L1559.52 45.84 Z" fill="#000000" fill-rule="evenodd" fill-opacity="1" /><path clip-path="url(#clip410)" d="M1616.92 45.1919 L1616.92 72.576 L1609.46 72.576 L1609.46 45.4349 Q1609.46 38.994 1606.95 35.7938 Q1604.44 32.5936 1599.42 32.5936 Q1593.38 32.5936 1589.9 36.4419 Q1586.41 40.2903 1586.41 46.9338 L1586.41 72.576 L1578.92 72.576 L1578.92 27.2059 L1586.41 27.2059 L1586.41 34.2544 Q1589.09 30.163 1592.69 28.1376 Q1596.34 26.1121 1601.08 26.1121 Q1608.9 26.1121 1612.91 30.9732 Q1616.92 35.7938 1616.92 45.1919 Z" fill="#000000" fill-rule="evenodd" fill-opacity="1" /><path clip-path="url(#clip410)" d="M1639.16 14.324 L1639.16 27.2059 L1654.51 27.2059 L1654.51 32.9987 L1639.16 32.9987 L1639.16 57.6282 Q1639.16 63.1779 1640.66 64.7578 Q1642.2 66.3376 1646.85 66.3376 L1654.51 66.3376 L1654.51 72.576 L1646.85 72.576 Q1638.23 72.576 1634.94 69.3758 Q1631.66 66.1351 1631.66 57.6282 L1631.66 32.9987 L1626.19 32.9987 L1626.19 27.2059 L1631.66 27.2059 L1631.66 14.324 L1639.16 14.324 Z" fill="#000000" fill-rule="evenodd" fill-opacity="1" /><polyline clip-path="url(#clip412)" style="stroke:#009af9; stroke-linecap:butt; stroke-linejoin:round; stroke-width:4; stroke-opacity:1; fill:none" points="
  284.867,1447.87 293.001,1447.87 301.136,1447.86 309.27,1447.85 317.404,1447.83 325.538,1447.8 333.672,1447.74 341.806,1447.65 349.94,1447.51 358.074,1447.3 
  366.209,1446.99 374.343,1446.55 382.477,1445.93 390.611,1445.11 398.745,1444.02 406.879,1442.63 415.013,1440.9 423.147,1438.8 431.282,1436.32 439.416,1433.46 
  447.55,1430.26 455.684,1426.76 463.818,1423.01 471.952,1419.06 480.086,1414.99 488.22,1410.84 496.355,1406.63 504.489,1402.38 512.623,1398.08 520.757,1393.7 
  528.891,1389.19 537.025,1384.52 545.159,1379.65 553.293,1374.54 561.428,1369.2 569.562,1363.62 577.696,1357.82 585.83,1351.82 593.964,1345.64 602.098,1339.28 
  610.232,1332.74 618.366,1325.97 626.5,1318.9 634.635,1311.43 642.769,1303.43 650.903,1294.76 659.037,1285.25 667.171,1274.73 675.305,1263.04 683.439,1250.05 
  691.573,1235.66 699.708,1219.8 707.842,1202.46 715.976,1183.65 724.11,1163.46 732.244,1141.99 740.378,1119.4 748.512,1095.85 756.646,1071.54 764.781,1046.69 
  772.915,1021.5 781.049,996.202 789.183,970.969 797.317,945.96 805.451,921.286 813.585,896.998 821.719,873.088 829.854,849.483 837.988,826.052 846.122,802.616 
  854.256,778.954 862.39,754.821 870.524,729.952 878.658,704.079 886.792,676.942 894.927,648.315 903.061,618.03 911.195,586.01 919.329,552.302 927.463,517.109 
  935.597,480.8 943.731,443.911 951.865,407.114 960,371.177 968.134,336.903 976.268,305.066 984.402,276.355 992.536,251.33 1000.67,230.397 1008.8,213.801 
  1016.94,201.631 1025.07,193.833 1033.21,190.225 1041.34,190.515 1049.47,194.314 1057.61,201.155 1065.74,210.516 1073.88,221.857 1082.01,234.656 1090.15,248.463 
  1098.28,262.943 1106.41,277.908 1114.55,293.338 1122.68,309.361 1130.82,326.22 1138.95,344.206 1147.08,363.584 1155.22,384.516 1163.35,407.004 1171.49,430.867 
  1179.62,455.747 1187.76,481.169 1195.89,506.616 1204.02,531.629 1212.16,555.901 1220.29,579.338 1228.43,602.087 1236.56,624.512 1244.69,647.128 1252.83,670.505 
  1260.96,695.159 1269.1,721.451 1277.23,749.518 1285.36,779.244 1293.5,810.265 1301.63,842.031 1309.77,873.872 1317.9,905.099 1326.04,935.076 1334.17,963.296 
  1342.3,989.416 1350.44,1013.27 1358.57,1034.86 1366.71,1054.29 1374.84,1071.78 1382.97,1087.56 1391.11,1101.89 1399.24,1114.97 1407.38,1127.01 1415.51,1138.17 
  1423.64,1148.61 1431.78,1158.49 1439.91,1168.01 1448.05,1177.35 1456.18,1186.74 1464.32,1196.38 1472.45,1206.43 1480.58,1217.02 1488.72,1228.17 1496.85,1239.86 
  1504.99,1251.96 1513.12,1264.33 1521.25,1276.78 1529.39,1289.14 1537.52,1301.25 1545.66,1313.03 1553.79,1324.42 1561.92,1335.4 1570.06,1345.97 1578.19,1356.13 
  1586.33,1365.84 1594.46,1375.05 1602.6,1383.66 1610.73,1391.55 1618.86,1398.6 1627,1404.72 1635.13,1409.86 1643.27,1414 1651.4,1417.21 1659.53,1419.61 
  1667.67,1421.38 1675.8,1422.7 1683.94,1423.77 1692.07,1424.78 1700.2,1425.87 1708.34,1427.13 1716.47,1428.62 1724.61,1430.33 1732.74,1432.22 1740.88,1434.22 
  1749.01,1436.23 1757.14,1438.19 1765.28,1440.02 1773.41,1441.67 1781.55,1443.09 1789.68,1444.28 1797.81,1445.24 1805.95,1446 1814.08,1446.57 1822.22,1446.99 
  1830.35,1447.29 1838.48,1447.5 1846.62,1447.64 1854.75,1447.74 1862.89,1447.79 1871.02,1447.83 1879.16,1447.85 1887.29,1447.86 1895.42,1447.87 1903.56,1447.87 
  
  "/>
<polyline clip-path="url(#clip412)" style="stroke:#e26f46; stroke-linecap:butt; stroke-linejoin:round; stroke-width:4; stroke-opacity:1; fill:none" points="
  175.59,1447.87 184.323,1447.87 193.056,1447.86 201.79,1447.85 210.523,1447.84 219.256,1447.81 227.99,1447.75 236.723,1447.68 245.456,1447.55 254.19,1447.37 
  262.923,1447.11 271.656,1446.74 280.39,1446.25 289.123,1445.59 297.856,1444.75 306.59,1443.7 315.323,1442.45 324.056,1440.99 332.79,1439.34 341.523,1437.53 
  350.256,1435.62 358.99,1433.67 367.723,1431.74 376.456,1429.88 385.189,1428.15 393.923,1426.58 402.656,1425.19 411.389,1423.96 420.123,1422.85 428.856,1421.84 
  437.589,1420.85 446.323,1419.84 455.056,1418.73 463.789,1417.49 472.523,1416.06 481.256,1414.41 489.989,1412.52 498.723,1410.37 507.456,1407.94 516.189,1405.22 
  524.923,1402.2 533.656,1398.87 542.389,1395.21 551.123,1391.18 559.856,1386.74 568.589,1381.81 577.323,1376.26 586.056,1369.97 594.789,1362.79 603.523,1354.57 
  612.256,1345.18 620.989,1334.57 629.723,1322.75 638.456,1309.81 647.189,1295.96 655.922,1281.48 664.656,1266.67 673.389,1251.86 682.122,1237.32 690.856,1223.17 
  699.589,1209.4 708.322,1195.79 717.056,1181.92 725.789,1167.22 734.522,1150.99 743.256,1132.52 751.989,1111.15 760.722,1086.42 769.456,1058.07 778.189,1026.15 
  786.922,991.031 795.656,953.337 804.389,913.909 813.122,873.693 821.856,833.632 830.589,794.552 839.322,757.077 848.056,721.576 856.789,688.144 865.522,656.641 
  874.256,626.75 882.989,598.063 891.722,570.166 900.455,542.7 909.189,515.405 917.922,488.12 926.655,460.767 935.389,433.311 944.122,405.737 952.855,378.035 
  961.589,350.218 970.322,322.364 979.055,294.679 987.789,267.551 996.522,241.587 1005.26,217.612 1013.99,196.625 1022.72,179.706 1031.46,167.893 1040.19,162.047 
  1048.92,162.733 1057.66,170.131 1066.39,183.994 1075.12,203.676 1083.86,228.201 1092.59,256.378 1101.32,286.937 1110.06,318.66 1118.79,350.49 1127.52,381.599 
  1136.26,411.417 1144.99,439.616 1153.72,466.061 1162.46,490.754 1171.19,513.768 1179.92,535.198 1188.66,555.143 1197.39,573.7 1206.12,590.986 1214.86,607.177 
  1223.59,622.53 1232.32,637.41 1241.06,652.28 1249.79,667.675 1258.52,684.145 1267.25,702.194 1275.99,722.209 1284.72,744.406 1293.45,768.805 1302.19,795.231 
  1310.92,823.339 1319.65,852.671 1328.39,882.715 1337.12,912.971 1345.85,942.997 1354.59,972.444 1363.32,1001.07 1372.05,1028.74 1380.79,1055.4 1389.52,1081.08 
  1398.25,1105.83 1406.99,1129.71 1415.72,1152.79 1424.45,1175.07 1433.19,1196.54 1441.92,1217.1 1450.65,1236.64 1459.39,1254.98 1468.12,1271.97 1476.85,1287.45 
  1485.59,1301.31 1494.32,1313.5 1503.05,1324.05 1511.79,1333.07 1520.52,1340.75 1529.25,1347.31 1537.99,1353.03 1546.72,1358.15 1555.45,1362.92 1564.19,1367.54 
  1572.92,1372.15 1581.65,1376.81 1590.39,1381.55 1599.12,1386.32 1607.85,1391.05 1616.59,1395.63 1625.32,1399.96 1634.05,1403.94 1642.79,1407.5 1651.52,1410.61 
  1660.25,1413.3 1668.99,1415.61 1677.72,1417.64 1686.45,1419.49 1695.19,1421.28 1703.92,1423.1 1712.65,1425.03 1721.39,1427.09 1730.12,1429.28 1738.85,1431.55 
  1747.59,1433.85 1756.32,1436.11 1765.05,1438.23 1773.79,1440.17 1782.52,1441.88 1791.25,1443.33 1799.99,1444.52 1808.72,1445.47 1817.45,1446.19 1826.19,1446.73 
  1834.92,1447.12 1843.65,1447.39 1852.39,1447.57 1861.12,1447.69 1869.85,1447.77 1878.59,1447.82 1887.32,1447.84 1896.05,1447.86 1904.79,1447.87 1913.52,1447.87 
  
  "/>
<polyline clip-path="url(#clip412)" style="stroke:#3da44d; stroke-linecap:butt; stroke-linejoin:round; stroke-width:4; stroke-opacity:1; fill:none" points="
  296.641,1447.87 306.655,1447.87 316.668,1447.86 326.682,1447.84 336.696,1447.8 346.709,1447.74 356.723,1447.63 366.736,1447.45 376.75,1447.17 386.763,1446.74 
  396.777,1446.13 406.791,1445.27 416.804,1444.13 426.818,1442.68 436.831,1440.92 446.845,1438.86 456.859,1436.57 466.872,1434.13 476.886,1431.63 486.899,1429.16 
  496.913,1426.75 506.926,1424.37 516.94,1421.9 526.954,1419.11 536.967,1415.7 546.981,1411.3 556.994,1405.51 567.008,1397.96 577.021,1388.32 587.035,1376.37 
  597.049,1361.96 607.062,1345.06 617.076,1325.75 627.089,1304.21 637.103,1280.7 647.117,1255.6 657.13,1229.36 667.144,1202.47 677.157,1175.48 687.171,1148.9 
  697.184,1123.17 707.198,1098.6 717.212,1075.28 727.225,1053.12 737.239,1031.77 747.252,1010.68 757.266,989.18 767.279,966.498 777.293,941.91 787.307,914.803 
  797.32,884.759 807.334,851.586 817.347,815.322 827.361,776.209 837.374,734.644 847.388,691.139 857.402,646.29 867.415,600.765 877.429,555.307 887.442,510.72 
  897.456,467.847 907.47,427.503 917.483,390.399 927.497,357.057 937.51,327.751 947.524,302.496 957.537,281.088 967.551,263.199 977.565,248.487 987.578,236.703 
  997.592,227.768 1007.61,221.791 1017.62,219.032 1027.63,219.827 1037.65,224.494 1047.66,233.236 1057.67,246.071 1067.69,262.793 1077.7,282.962 1087.71,305.923 
  1097.73,330.849 1107.74,356.803 1117.75,382.824 1127.77,408.016 1137.78,431.664 1147.8,453.33 1157.81,472.935 1167.82,490.789 1177.84,507.58 1187.85,524.288 
  1197.86,542.064 1207.88,562.075 1217.89,585.341 1227.9,612.599 1237.92,644.207 1247.93,680.086 1257.94,719.73 1267.96,762.253 1277.97,806.48 1287.99,851.068 
  1298,894.641 1308.01,935.931 1318.03,973.912 1328.04,1007.9 1338.05,1037.61 1348.07,1063.19 1358.08,1085.17 1368.09,1104.36 1378.11,1121.76 1388.12,1138.37 
  1398.13,1155.07 1408.15,1172.49 1418.16,1190.95 1428.18,1210.4 1438.19,1230.51 1448.2,1250.72 1458.22,1270.36 1468.23,1288.8 1478.24,1305.52 1488.26,1320.19 
  1498.27,1332.72 1508.28,1343.23 1518.3,1351.98 1528.31,1359.35 1538.32,1365.72 1548.34,1371.47 1558.35,1376.89 1568.37,1382.16 1578.38,1387.39 1588.39,1392.61 
  1598.41,1397.77 1608.42,1402.8 1618.43,1407.59 1628.45,1412.05 1638.46,1416.11 1648.47,1419.73 1658.49,1422.87 1668.5,1425.53 1678.52,1427.75 1688.53,1429.55 
  1698.54,1430.99 1708.56,1432.11 1718.57,1432.98 1728.58,1433.69 1738.6,1434.3 1748.61,1434.9 1758.62,1435.55 1768.64,1436.33 1778.65,1437.24 1788.66,1438.3 
  1798.68,1439.47 1808.69,1440.7 1818.71,1441.93 1828.72,1443.11 1838.73,1444.18 1848.75,1445.1 1858.76,1445.86 1868.77,1446.47 1878.79,1446.92 1888.8,1447.24 
  1898.81,1447.46 1908.83,1447.59 1918.84,1447.65 1928.85,1447.64 1938.87,1447.57 1948.88,1447.41 1958.9,1447.17 1968.91,1446.82 1978.92,1446.33 1988.94,1445.69 
  1998.95,1444.9 2008.96,1443.97 2018.98,1442.93 2028.99,1441.84 2039,1440.76 2049.02,1439.79 2059.03,1439.02 2069.04,1438.52 2079.06,1438.35 2089.07,1438.52 
  2099.09,1439.01 2109.1,1439.78 2119.11,1440.74 2129.13,1441.81 2139.14,1442.91 2149.15,1443.95 2159.17,1444.89 2169.18,1445.68 2179.19,1446.32 2189.21,1446.81 
  2199.22,1447.18 2209.23,1447.43 2219.25,1447.61 2229.26,1447.72 2239.28,1447.79 2249.29,1447.83 2259.3,1447.85 2269.32,1447.86 2279.33,1447.87 2289.34,1447.87 
  
  "/>
<path clip-path="url(#clip410)" d="
M1976.11 376.265 L2278.07 376.265 L2278.07 168.905 L1976.11 168.905  Z
  " fill="#ffffff" fill-rule="evenodd" fill-opacity="1"/>
<polyline clip-path="url(#clip410)" style="stroke:#000000; stroke-linecap:butt; stroke-linejoin:round; stroke-width:4; stroke-opacity:1; fill:none" points="
  1976.11,376.265 2278.07,376.265 2278.07,168.905 1976.11,168.905 1976.11,376.265 
  "/>
<polyline clip-path="url(#clip410)" style="stroke:#009af9; stroke-linecap:butt; stroke-linejoin:round; stroke-width:4; stroke-opacity:1; fill:none" points="
  2001,220.745 2150.38,220.745 
  "/>
<path clip-path="url(#clip410)" d="M2189.11 240.432 Q2187.31 245.062 2185.59 246.474 Q2183.88 247.886 2181.01 247.886 L2177.61 247.886 L2177.61 244.321 L2180.11 244.321 Q2181.87 244.321 2182.84 243.488 Q2183.81 242.654 2184.99 239.552 L2185.76 237.608 L2175.27 212.099 L2179.78 212.099 L2187.89 232.377 L2195.99 212.099 L2200.5 212.099 L2189.11 240.432 Z" fill="#000000" fill-rule="evenodd" fill-opacity="1" /><path clip-path="url(#clip410)" d="M2207.79 234.089 L2215.43 234.089 L2215.43 207.724 L2207.12 209.391 L2207.12 205.131 L2215.39 203.465 L2220.06 203.465 L2220.06 234.089 L2227.7 234.089 L2227.7 238.025 L2207.79 238.025 L2207.79 234.089 Z" fill="#000000" fill-rule="evenodd" fill-opacity="1" /><polyline clip-path="url(#clip410)" style="stroke:#e26f46; stroke-linecap:butt; stroke-linejoin:round; stroke-width:4; stroke-opacity:1; fill:none" points="
  2001,272.585 2150.38,272.585 
  "/>
<path clip-path="url(#clip410)" d="M2189.11 292.272 Q2187.31 296.902 2185.59 298.314 Q2183.88 299.726 2181.01 299.726 L2177.61 299.726 L2177.61 296.161 L2180.11 296.161 Q2181.87 296.161 2182.84 295.328 Q2183.81 294.494 2184.99 291.392 L2185.76 289.448 L2175.27 263.939 L2179.78 263.939 L2187.89 284.217 L2195.99 263.939 L2200.5 263.939 L2189.11 292.272 Z" fill="#000000" fill-rule="evenodd" fill-opacity="1" /><path clip-path="url(#clip410)" d="M2211.01 285.929 L2227.33 285.929 L2227.33 289.865 L2205.39 289.865 L2205.39 285.929 Q2208.05 283.175 2212.63 278.545 Q2217.24 273.893 2218.42 272.55 Q2220.66 270.027 2221.54 268.291 Q2222.45 266.531 2222.45 264.842 Q2222.45 262.087 2220.5 260.351 Q2218.58 258.615 2215.48 258.615 Q2213.28 258.615 2210.83 259.379 Q2208.4 260.143 2205.62 261.694 L2205.62 256.971 Q2208.44 255.837 2210.9 255.258 Q2213.35 254.68 2215.39 254.68 Q2220.76 254.68 2223.95 257.365 Q2227.15 260.05 2227.15 264.541 Q2227.15 266.67 2226.33 268.592 Q2225.55 270.49 2223.44 273.082 Q2222.86 273.754 2219.76 276.971 Q2216.66 280.166 2211.01 285.929 Z" fill="#000000" fill-rule="evenodd" fill-opacity="1" /><polyline clip-path="url(#clip410)" style="stroke:#3da44d; stroke-linecap:butt; stroke-linejoin:round; stroke-width:4; stroke-opacity:1; fill:none" points="
  2001,324.425 2150.38,324.425 
  "/>
<path clip-path="url(#clip410)" d="M2189.11 344.112 Q2187.31 348.742 2185.59 350.154 Q2183.88 351.566 2181.01 351.566 L2177.61 351.566 L2177.61 348.001 L2180.11 348.001 Q2181.87 348.001 2182.84 347.168 Q2183.81 346.334 2184.99 343.232 L2185.76 341.288 L2175.27 315.779 L2179.78 315.779 L2187.89 336.057 L2195.99 315.779 L2200.5 315.779 L2189.11 344.112 Z" fill="#000000" fill-rule="evenodd" fill-opacity="1" /><path clip-path="url(#clip410)" d="M2221.15 323.07 Q2224.51 323.788 2226.38 326.057 Q2228.28 328.325 2228.28 331.658 Q2228.28 336.774 2224.76 339.575 Q2221.24 342.376 2214.76 342.376 Q2212.58 342.376 2210.27 341.936 Q2207.98 341.519 2205.52 340.663 L2205.52 336.149 Q2207.47 337.283 2209.78 337.862 Q2212.1 338.441 2214.62 338.441 Q2219.02 338.441 2221.31 336.705 Q2223.63 334.969 2223.63 331.658 Q2223.63 328.603 2221.47 326.89 Q2219.34 325.154 2215.52 325.154 L2211.5 325.154 L2211.5 321.311 L2215.71 321.311 Q2219.16 321.311 2220.99 319.946 Q2222.82 318.557 2222.82 315.964 Q2222.82 313.302 2220.92 311.89 Q2219.04 310.455 2215.52 310.455 Q2213.6 310.455 2211.4 310.871 Q2209.21 311.288 2206.57 312.168 L2206.57 308.001 Q2209.23 307.26 2211.54 306.89 Q2213.88 306.52 2215.94 306.52 Q2221.27 306.52 2224.37 308.95 Q2227.47 311.358 2227.47 315.478 Q2227.47 318.348 2225.83 320.339 Q2224.18 322.307 2221.15 323.07 Z" fill="#000000" fill-rule="evenodd" fill-opacity="1" /></svg>
