<?xml version="1.0" encoding="utf-8"?>
<svg xmlns="http://www.w3.org/2000/svg" xmlns:xlink="http://www.w3.org/1999/xlink" width="600" height="400" viewBox="0 0 2400 1600">
<defs>
  <clipPath id="clip570">
    <rect x="0" y="0" width="2400" height="1600"/>
  </clipPath>
</defs>
<path clip-path="url(#clip570)" d="
M0 1600 L2400 1600 L2400 0 L0 0  Z
  " fill="#ffffff" fill-rule="evenodd" fill-opacity="1"/>
<defs>
  <clipPath id="clip571">
    <rect x="480" y="0" width="1681" height="1600"/>
  </clipPath>
</defs>
<path clip-path="url(#clip570)" d="
M184.191 1486.45 L2352.76 1486.45 L2352.76 123.472 L184.191 123.472  Z
  " fill="#ffffff" fill-rule="evenodd" fill-opacity="1"/>
<defs>
  <clipPath id="clip572">
    <rect x="184" y="123" width="2170" height="1364"/>
  </clipPath>
</defs>
<polyline clip-path="url(#clip572)" style="stroke:#000000; stroke-linecap:butt; stroke-linejoin:round; stroke-width:2; stroke-opacity:0.1; fill:none" points="
  513.706,1486.45 513.706,123.472 
  "/>
<polyline clip-path="url(#clip572)" style="stroke:#000000; stroke-linecap:butt; stroke-linejoin:round; stroke-width:2; stroke-opacity:0.1; fill:none" points="
  1032.04,1486.45 1032.04,123.472 
  "/>
<polyline clip-path="url(#clip572)" style="stroke:#000000; stroke-linecap:butt; stroke-linejoin:round; stroke-width:2; stroke-opacity:0.1; fill:none" points="
  1550.38,1486.45 1550.38,123.472 
  "/>
<polyline clip-path="url(#clip572)" style="stroke:#000000; stroke-linecap:butt; stroke-linejoin:round; stroke-width:2; stroke-opacity:0.1; fill:none" points="
  2068.72,1486.45 2068.72,123.472 
  "/>
<polyline clip-path="url(#clip570)" style="stroke:#000000; stroke-linecap:butt; stroke-linejoin:round; stroke-width:4; stroke-opacity:1; fill:none" points="
  184.191,1486.45 2352.76,1486.45 
  "/>
<polyline clip-path="url(#clip570)" style="stroke:#000000; stroke-linecap:butt; stroke-linejoin:round; stroke-width:4; stroke-opacity:1; fill:none" points="
  513.706,1486.45 513.706,1467.55 
  "/>
<polyline clip-path="url(#clip570)" style="stroke:#000000; stroke-linecap:butt; stroke-linejoin:round; stroke-width:4; stroke-opacity:1; fill:none" points="
  1032.04,1486.45 1032.04,1467.55 
  "/>
<polyline clip-path="url(#clip570)" style="stroke:#000000; stroke-linecap:butt; stroke-linejoin:round; stroke-width:4; stroke-opacity:1; fill:none" points="
  1550.38,1486.45 1550.38,1467.55 
  "/>
<polyline clip-path="url(#clip570)" style="stroke:#000000; stroke-linecap:butt; stroke-linejoin:round; stroke-width:4; stroke-opacity:1; fill:none" points="
  2068.72,1486.45 2068.72,1467.55 
  "/>
<path clip-path="url(#clip570)" d="M460.847 1532.02 L490.523 1532.02 L490.523 1535.95 L460.847 1535.95 L460.847 1532.02 Z" fill="#000000" fill-rule="evenodd" fill-opacity="1" /><path clip-path="url(#clip570)" d="M510.616 1517.37 Q507.005 1517.37 505.176 1520.93 Q503.37 1524.47 503.37 1531.6 Q503.37 1538.71 505.176 1542.27 Q507.005 1545.82 510.616 1545.82 Q514.25 1545.82 516.055 1542.27 Q517.884 1538.71 517.884 1531.6 Q517.884 1524.47 516.055 1520.93 Q514.25 1517.37 510.616 1517.37 M510.616 1513.66 Q516.426 1513.66 519.481 1518.27 Q522.56 1522.85 522.56 1531.6 Q522.56 1540.33 519.481 1544.94 Q516.426 1549.52 510.616 1549.52 Q504.805 1549.52 501.727 1544.94 Q498.671 1540.33 498.671 1531.6 Q498.671 1522.85 501.727 1518.27 Q504.805 1513.66 510.616 1513.66 Z" fill="#000000" fill-rule="evenodd" fill-opacity="1" /><path clip-path="url(#clip570)" d="M530.778 1542.97 L535.662 1542.97 L535.662 1548.85 L530.778 1548.85 L530.778 1542.97 Z" fill="#000000" fill-rule="evenodd" fill-opacity="1" /><path clip-path="url(#clip570)" d="M546.657 1544.91 L554.296 1544.91 L554.296 1518.55 L545.986 1520.21 L545.986 1515.95 L554.25 1514.29 L558.926 1514.29 L558.926 1544.91 L566.564 1544.91 L566.564 1548.85 L546.657 1548.85 L546.657 1544.91 Z" fill="#000000" fill-rule="evenodd" fill-opacity="1" /><path clip-path="url(#clip570)" d="M1009.43 1517.37 Q1005.82 1517.37 1003.99 1520.93 Q1002.18 1524.47 1002.18 1531.6 Q1002.18 1538.71 1003.99 1542.27 Q1005.82 1545.82 1009.43 1545.82 Q1013.06 1545.82 1014.87 1542.27 Q1016.7 1538.71 1016.7 1531.6 Q1016.7 1524.47 1014.87 1520.93 Q1013.06 1517.37 1009.43 1517.37 M1009.43 1513.66 Q1015.24 1513.66 1018.29 1518.27 Q1021.37 1522.85 1021.37 1531.6 Q1021.37 1540.33 1018.29 1544.94 Q1015.24 1549.52 1009.43 1549.52 Q1003.62 1549.52 1000.54 1544.94 Q997.485 1540.33 997.485 1531.6 Q997.485 1522.85 1000.54 1518.27 Q1003.62 1513.66 1009.43 1513.66 Z" fill="#000000" fill-rule="evenodd" fill-opacity="1" /><path clip-path="url(#clip570)" d="M1029.59 1542.97 L1034.48 1542.97 L1034.48 1548.85 L1029.59 1548.85 L1029.59 1542.97 Z" fill="#000000" fill-rule="evenodd" fill-opacity="1" /><path clip-path="url(#clip570)" d="M1054.66 1517.37 Q1051.05 1517.37 1049.22 1520.93 Q1047.42 1524.47 1047.42 1531.6 Q1047.42 1538.71 1049.22 1542.27 Q1051.05 1545.82 1054.66 1545.82 Q1058.29 1545.82 1060.1 1542.27 Q1061.93 1538.71 1061.93 1531.6 Q1061.93 1524.47 1060.1 1520.93 Q1058.29 1517.37 1054.66 1517.37 M1054.66 1513.66 Q1060.47 1513.66 1063.53 1518.27 Q1066.6 1522.85 1066.6 1531.6 Q1066.6 1540.33 1063.53 1544.94 Q1060.47 1549.52 1054.66 1549.52 Q1048.85 1549.52 1045.77 1544.94 Q1042.72 1540.33 1042.72 1531.6 Q1042.72 1522.85 1045.77 1518.27 Q1048.85 1513.66 1054.66 1513.66 Z" fill="#000000" fill-rule="evenodd" fill-opacity="1" /><path clip-path="url(#clip570)" d="M1528.38 1517.37 Q1524.77 1517.37 1522.94 1520.93 Q1521.14 1524.47 1521.14 1531.6 Q1521.14 1538.71 1522.94 1542.27 Q1524.77 1545.82 1528.38 1545.82 Q1532.02 1545.82 1533.82 1542.27 Q1535.65 1538.71 1535.65 1531.6 Q1535.65 1524.47 1533.82 1520.93 Q1532.02 1517.37 1528.38 1517.37 M1528.38 1513.66 Q1534.19 1513.66 1537.25 1518.27 Q1540.33 1522.85 1540.33 1531.6 Q1540.33 1540.33 1537.25 1544.94 Q1534.19 1549.52 1528.38 1549.52 Q1522.57 1549.52 1519.49 1544.94 Q1516.44 1540.33 1516.44 1531.6 Q1516.44 1522.85 1519.49 1518.27 Q1522.57 1513.66 1528.38 1513.66 Z" fill="#000000" fill-rule="evenodd" fill-opacity="1" /><path clip-path="url(#clip570)" d="M1548.54 1542.97 L1553.43 1542.97 L1553.43 1548.85 L1548.54 1548.85 L1548.54 1542.97 Z" fill="#000000" fill-rule="evenodd" fill-opacity="1" /><path clip-path="url(#clip570)" d="M1564.42 1544.91 L1572.06 1544.91 L1572.06 1518.55 L1563.75 1520.21 L1563.75 1515.95 L1572.02 1514.29 L1576.69 1514.29 L1576.69 1544.91 L1584.33 1544.91 L1584.33 1548.85 L1564.42 1548.85 L1564.42 1544.91 Z" fill="#000000" fill-rule="evenodd" fill-opacity="1" /><path clip-path="url(#clip570)" d="M2046.91 1517.37 Q2043.29 1517.37 2041.47 1520.93 Q2039.66 1524.47 2039.66 1531.6 Q2039.66 1538.71 2041.47 1542.27 Q2043.29 1545.82 2046.91 1545.82 Q2050.54 1545.82 2052.35 1542.27 Q2054.17 1538.71 2054.17 1531.6 Q2054.17 1524.47 2052.35 1520.93 Q2050.54 1517.37 2046.91 1517.37 M2046.91 1513.66 Q2052.72 1513.66 2055.77 1518.27 Q2058.85 1522.85 2058.85 1531.6 Q2058.85 1540.33 2055.77 1544.94 Q2052.72 1549.52 2046.91 1549.52 Q2041.1 1549.52 2038.02 1544.94 Q2034.96 1540.33 2034.96 1531.6 Q2034.96 1522.85 2038.02 1518.27 Q2041.1 1513.66 2046.91 1513.66 Z" fill="#000000" fill-rule="evenodd" fill-opacity="1" /><path clip-path="url(#clip570)" d="M2067.07 1542.97 L2071.95 1542.97 L2071.95 1548.85 L2067.07 1548.85 L2067.07 1542.97 Z" fill="#000000" fill-rule="evenodd" fill-opacity="1" /><path clip-path="url(#clip570)" d="M2086.16 1544.91 L2102.48 1544.91 L2102.48 1548.85 L2080.54 1548.85 L2080.54 1544.91 Q2083.2 1542.16 2087.78 1537.53 Q2092.39 1532.88 2093.57 1531.53 Q2095.82 1529.01 2096.7 1527.27 Q2097.6 1525.51 2097.6 1523.82 Q2097.6 1521.07 2095.66 1519.33 Q2093.73 1517.6 2090.63 1517.6 Q2088.43 1517.6 2085.98 1518.36 Q2083.55 1519.13 2080.77 1520.68 L2080.77 1515.95 Q2083.59 1514.82 2086.05 1514.24 Q2088.5 1513.66 2090.54 1513.66 Q2095.91 1513.66 2099.1 1516.35 Q2102.3 1519.03 2102.3 1523.52 Q2102.3 1525.65 2101.49 1527.57 Q2100.7 1529.47 2098.59 1532.07 Q2098.02 1532.74 2094.91 1535.95 Q2091.81 1539.15 2086.16 1544.91 Z" fill="#000000" fill-rule="evenodd" fill-opacity="1" /><polyline clip-path="url(#clip572)" style="stroke:#000000; stroke-linecap:butt; stroke-linejoin:round; stroke-width:2; stroke-opacity:0.1; fill:none" points="
  184.191,1447.88 2352.76,1447.88 
  "/>
<polyline clip-path="url(#clip572)" style="stroke:#000000; stroke-linecap:butt; stroke-linejoin:round; stroke-width:2; stroke-opacity:0.1; fill:none" points="
  184.191,1119.04 2352.76,1119.04 
  "/>
<polyline clip-path="url(#clip572)" style="stroke:#000000; stroke-linecap:butt; stroke-linejoin:round; stroke-width:2; stroke-opacity:0.1; fill:none" points="
  184.191,790.206 2352.76,790.206 
  "/>
<polyline clip-path="url(#clip572)" style="stroke:#000000; stroke-linecap:butt; stroke-linejoin:round; stroke-width:2; stroke-opacity:0.1; fill:none" points="
  184.191,461.369 2352.76,461.369 
  "/>
<polyline clip-path="url(#clip572)" style="stroke:#000000; stroke-linecap:butt; stroke-linejoin:round; stroke-width:2; stroke-opacity:0.1; fill:none" points="
  184.191,132.533 2352.76,132.533 
  "/>
<polyline clip-path="url(#clip570)" style="stroke:#000000; stroke-linecap:butt; stroke-linejoin:round; stroke-width:4; stroke-opacity:1; fill:none" points="
  184.191,1486.45 184.191,123.472 
  "/>
<polyline clip-path="url(#clip570)" style="stroke:#000000; stroke-linecap:butt; stroke-linejoin:round; stroke-width:4; stroke-opacity:1; fill:none" points="
  184.191,1447.88 203.088,1447.88 
  "/>
<polyline clip-path="url(#clip570)" style="stroke:#000000; stroke-linecap:butt; stroke-linejoin:round; stroke-width:4; stroke-opacity:1; fill:none" points="
  184.191,1119.04 203.088,1119.04 
  "/>
<polyline clip-path="url(#clip570)" style="stroke:#000000; stroke-linecap:butt; stroke-linejoin:round; stroke-width:4; stroke-opacity:1; fill:none" points="
  184.191,790.206 203.088,790.206 
  "/>
<polyline clip-path="url(#clip570)" style="stroke:#000000; stroke-linecap:butt; stroke-linejoin:round; stroke-width:4; stroke-opacity:1; fill:none" points="
  184.191,461.369 203.088,461.369 
  "/>
<polyline clip-path="url(#clip570)" style="stroke:#000000; stroke-linecap:butt; stroke-linejoin:round; stroke-width:4; stroke-opacity:1; fill:none" points="
  184.191,132.533 203.088,132.533 
  "/>
<path clip-path="url(#clip570)" d="M91.0151 1433.68 Q87.404 1433.68 85.5753 1437.24 Q83.7697 1440.78 83.7697 1447.91 Q83.7697 1455.02 85.5753 1458.58 Q87.404 1462.13 91.0151 1462.13 Q94.6493 1462.13 96.4548 1458.58 Q98.2835 1455.02 98.2835 1447.91 Q98.2835 1440.78 96.4548 1437.24 Q94.6493 1433.68 91.0151 1433.68 M91.0151 1429.97 Q96.8252 1429.97 99.8808 1434.58 Q102.959 1439.16 102.959 1447.91 Q102.959 1456.64 99.8808 1461.25 Q96.8252 1465.83 91.0151 1465.83 Q85.2049 1465.83 82.1262 1461.25 Q79.0707 1456.64 79.0707 1447.91 Q79.0707 1439.16 82.1262 1434.58 Q85.2049 1429.97 91.0151 1429.97 Z" fill="#000000" fill-rule="evenodd" fill-opacity="1" /><path clip-path="url(#clip570)" d="M111.177 1459.28 L116.061 1459.28 L116.061 1465.16 L111.177 1465.16 L111.177 1459.28 Z" fill="#000000" fill-rule="evenodd" fill-opacity="1" /><path clip-path="url(#clip570)" d="M136.246 1433.68 Q132.635 1433.68 130.807 1437.24 Q129.001 1440.78 129.001 1447.91 Q129.001 1455.02 130.807 1458.58 Q132.635 1462.13 136.246 1462.13 Q139.881 1462.13 141.686 1458.58 Q143.515 1455.02 143.515 1447.91 Q143.515 1440.78 141.686 1437.24 Q139.881 1433.68 136.246 1433.68 M136.246 1429.97 Q142.056 1429.97 145.112 1434.58 Q148.191 1439.16 148.191 1447.91 Q148.191 1456.64 145.112 1461.25 Q142.056 1465.83 136.246 1465.83 Q130.436 1465.83 127.357 1461.25 Q124.302 1456.64 124.302 1447.91 Q124.302 1439.16 127.357 1434.58 Q130.436 1429.97 136.246 1429.97 Z" fill="#000000" fill-rule="evenodd" fill-opacity="1" /><path clip-path="url(#clip570)" d="M86.0382 1132.39 L102.358 1132.39 L102.358 1136.32 L80.4133 1136.32 L80.4133 1132.39 Q83.0753 1129.63 87.6586 1125 Q92.2651 1120.35 93.4456 1119.01 Q95.691 1116.48 96.5706 1114.75 Q97.4734 1112.99 97.4734 1111.3 Q97.4734 1108.54 95.5289 1106.81 Q93.6076 1105.07 90.5058 1105.07 Q88.3067 1105.07 85.8531 1105.84 Q83.4225 1106.6 80.6447 1108.15 L80.6447 1103.43 Q83.4688 1102.29 85.9225 1101.72 Q88.3762 1101.14 90.4132 1101.14 Q95.7836 1101.14 98.978 1103.82 Q102.172 1106.51 102.172 1111 Q102.172 1113.13 101.362 1115.05 Q100.575 1116.95 98.4687 1119.54 Q97.89 1120.21 94.7882 1123.43 Q91.6864 1126.62 86.0382 1132.39 Z" fill="#000000" fill-rule="evenodd" fill-opacity="1" /><path clip-path="url(#clip570)" d="M112.172 1130.44 L117.057 1130.44 L117.057 1136.32 L112.172 1136.32 L112.172 1130.44 Z" fill="#000000" fill-rule="evenodd" fill-opacity="1" /><path clip-path="url(#clip570)" d="M127.288 1101.76 L145.644 1101.76 L145.644 1105.7 L131.57 1105.7 L131.57 1114.17 Q132.589 1113.82 133.607 1113.66 Q134.626 1113.47 135.644 1113.47 Q141.431 1113.47 144.811 1116.65 Q148.191 1119.82 148.191 1125.23 Q148.191 1130.81 144.718 1133.91 Q141.246 1136.99 134.927 1136.99 Q132.751 1136.99 130.482 1136.62 Q128.237 1136.25 125.83 1135.51 L125.83 1130.81 Q127.913 1131.95 130.135 1132.5 Q132.357 1133.06 134.834 1133.06 Q138.839 1133.06 141.177 1130.95 Q143.515 1128.84 143.515 1125.23 Q143.515 1121.62 141.177 1119.52 Q138.839 1117.41 134.834 1117.41 Q132.959 1117.41 131.084 1117.83 Q129.232 1118.24 127.288 1119.12 L127.288 1101.76 Z" fill="#000000" fill-rule="evenodd" fill-opacity="1" /><path clip-path="url(#clip570)" d="M81.0614 772.926 L99.4178 772.926 L99.4178 776.861 L85.3438 776.861 L85.3438 785.333 Q86.3623 784.986 87.3808 784.824 Q88.3993 784.638 89.4178 784.638 Q95.2049 784.638 98.5845 787.81 Q101.964 790.981 101.964 796.398 Q101.964 801.976 98.4919 805.078 Q95.0197 808.157 88.7003 808.157 Q86.5243 808.157 84.2558 807.786 Q82.0105 807.416 79.6031 806.675 L79.6031 801.976 Q81.6864 803.111 83.9086 803.666 Q86.1308 804.222 88.6077 804.222 Q92.6123 804.222 94.9502 802.115 Q97.2882 800.009 97.2882 796.398 Q97.2882 792.787 94.9502 790.68 Q92.6123 788.574 88.6077 788.574 Q86.7327 788.574 84.8577 788.99 Q83.0058 789.407 81.0614 790.287 L81.0614 772.926 Z" fill="#000000" fill-rule="evenodd" fill-opacity="1" /><path clip-path="url(#clip570)" d="M111.177 801.606 L116.061 801.606 L116.061 807.486 L111.177 807.486 L111.177 801.606 Z" fill="#000000" fill-rule="evenodd" fill-opacity="1" /><path clip-path="url(#clip570)" d="M136.246 776.004 Q132.635 776.004 130.807 779.569 Q129.001 783.111 129.001 790.24 Q129.001 797.347 130.807 800.911 Q132.635 804.453 136.246 804.453 Q139.881 804.453 141.686 800.911 Q143.515 797.347 143.515 790.24 Q143.515 783.111 141.686 779.569 Q139.881 776.004 136.246 776.004 M136.246 772.301 Q142.056 772.301 145.112 776.907 Q148.191 781.49 148.191 790.24 Q148.191 798.967 145.112 803.574 Q142.056 808.157 136.246 808.157 Q130.436 808.157 127.357 803.574 Q124.302 798.967 124.302 790.24 Q124.302 781.49 127.357 776.907 Q130.436 772.301 136.246 772.301 Z" fill="#000000" fill-rule="evenodd" fill-opacity="1" /><path clip-path="url(#clip570)" d="M80.8299 444.089 L103.052 444.089 L103.052 446.08 L90.5058 478.649 L85.6216 478.649 L97.4271 448.024 L80.8299 448.024 L80.8299 444.089 Z" fill="#000000" fill-rule="evenodd" fill-opacity="1" /><path clip-path="url(#clip570)" d="M112.172 472.77 L117.057 472.77 L117.057 478.649 L112.172 478.649 L112.172 472.77 Z" fill="#000000" fill-rule="evenodd" fill-opacity="1" /><path clip-path="url(#clip570)" d="M127.288 444.089 L145.644 444.089 L145.644 448.024 L131.57 448.024 L131.57 456.497 Q132.589 456.149 133.607 455.987 Q134.626 455.802 135.644 455.802 Q141.431 455.802 144.811 458.973 Q148.191 462.145 148.191 467.561 Q148.191 473.14 144.718 476.242 Q141.246 479.321 134.927 479.321 Q132.751 479.321 130.482 478.95 Q128.237 478.58 125.83 477.839 L125.83 473.14 Q127.913 474.274 130.135 474.83 Q132.357 475.385 134.834 475.385 Q138.839 475.385 141.177 473.279 Q143.515 471.172 143.515 467.561 Q143.515 463.95 141.177 461.844 Q138.839 459.737 134.834 459.737 Q132.959 459.737 131.084 460.154 Q129.232 460.571 127.288 461.45 L127.288 444.089 Z" fill="#000000" fill-rule="evenodd" fill-opacity="1" /><path clip-path="url(#clip570)" d="M51.6634 145.878 L59.3023 145.878 L59.3023 119.512 L50.9921 121.179 L50.9921 116.92 L59.256 115.253 L63.9319 115.253 L63.9319 145.878 L71.5707 145.878 L71.5707 149.813 L51.6634 149.813 L51.6634 145.878 Z" fill="#000000" fill-rule="evenodd" fill-opacity="1" /><path clip-path="url(#clip570)" d="M91.0151 118.332 Q87.404 118.332 85.5753 121.897 Q83.7697 125.438 83.7697 132.568 Q83.7697 139.674 85.5753 143.239 Q87.404 146.781 91.0151 146.781 Q94.6493 146.781 96.4548 143.239 Q98.2835 139.674 98.2835 132.568 Q98.2835 125.438 96.4548 121.897 Q94.6493 118.332 91.0151 118.332 M91.0151 114.628 Q96.8252 114.628 99.8808 119.234 Q102.959 123.818 102.959 132.568 Q102.959 141.295 99.8808 145.901 Q96.8252 150.484 91.0151 150.484 Q85.2049 150.484 82.1262 145.901 Q79.0707 141.295 79.0707 132.568 Q79.0707 123.818 82.1262 119.234 Q85.2049 114.628 91.0151 114.628 Z" fill="#000000" fill-rule="evenodd" fill-opacity="1" /><path clip-path="url(#clip570)" d="M111.177 143.933 L116.061 143.933 L116.061 149.813 L111.177 149.813 L111.177 143.933 Z" fill="#000000" fill-rule="evenodd" fill-opacity="1" /><path clip-path="url(#clip570)" d="M136.246 118.332 Q132.635 118.332 130.807 121.897 Q129.001 125.438 129.001 132.568 Q129.001 139.674 130.807 143.239 Q132.635 146.781 136.246 146.781 Q139.881 146.781 141.686 143.239 Q143.515 139.674 143.515 132.568 Q143.515 125.438 141.686 121.897 Q139.881 118.332 136.246 118.332 M136.246 114.628 Q142.056 114.628 145.112 119.234 Q148.191 123.818 148.191 132.568 Q148.191 141.295 145.112 145.901 Q142.056 150.484 136.246 150.484 Q130.436 150.484 127.357 145.901 Q124.302 141.295 124.302 132.568 Q124.302 123.818 127.357 119.234 Q130.436 114.628 136.246 114.628 Z" fill="#000000" fill-rule="evenodd" fill-opacity="1" /><path clip-path="url(#clip570)" d="M846.43 12.096 L858.623 12.096 L874.057 53.2532 L889.572 12.096 L901.765 12.096 L901.765 72.576 L893.785 72.576 L893.785 19.4686 L878.189 60.9499 L869.966 60.9499 L854.37 19.4686 L854.37 72.576 L846.43 72.576 L846.43 12.096 Z" fill="#000000" fill-rule="evenodd" fill-opacity="1" /><path clip-path="url(#clip570)" d="M956.493 48.0275 L956.493 51.6733 L922.222 51.6733 Q922.708 59.3701 926.84 63.421 Q931.013 67.4314 938.426 67.4314 Q942.72 67.4314 946.73 66.3781 Q950.781 65.3249 954.751 63.2184 L954.751 70.267 Q950.741 71.9684 946.528 72.8596 Q942.315 73.7508 937.98 73.7508 Q927.124 73.7508 920.764 67.4314 Q914.445 61.1119 914.445 50.3365 Q914.445 39.1965 920.44 32.6746 Q926.476 26.1121 936.684 26.1121 Q945.839 26.1121 951.146 32.0264 Q956.493 37.9003 956.493 48.0275 M949.039 45.84 Q948.958 39.7232 945.596 36.0774 Q942.274 32.4315 936.765 32.4315 Q930.527 32.4315 926.759 35.9558 Q923.032 39.4801 922.465 45.8805 L949.039 45.84 Z" fill="#000000" fill-rule="evenodd" fill-opacity="1" /><path clip-path="url(#clip570)" d="M989.346 49.7694 Q980.312 49.7694 976.828 51.8354 Q973.345 53.9013 973.345 58.8839 Q973.345 62.8538 975.937 65.2034 Q978.57 67.5124 983.067 67.5124 Q989.265 67.5124 992.992 63.1374 Q996.759 58.7219 996.759 51.4303 L996.759 49.7694 L989.346 49.7694 M1004.21 46.6907 L1004.21 72.576 L996.759 72.576 L996.759 65.6895 Q994.207 69.8214 990.399 71.8063 Q986.591 73.7508 981.082 73.7508 Q974.114 73.7508 969.982 69.8619 Q965.891 65.9325 965.891 59.3701 Q965.891 51.7138 970.995 47.825 Q976.14 43.9361 986.308 43.9361 L996.759 43.9361 L996.759 43.2069 Q996.759 38.0623 993.356 35.2672 Q989.994 32.4315 983.877 32.4315 Q979.988 32.4315 976.302 33.3632 Q972.616 34.295 969.213 36.1584 L969.213 29.2718 Q973.304 27.692 977.153 26.9223 Q981.001 26.1121 984.647 26.1121 Q994.49 26.1121 999.351 31.2163 Q1004.21 36.3204 1004.21 46.6907 Z" fill="#000000" fill-rule="evenodd" fill-opacity="1" /><path clip-path="url(#clip570)" d="M1057.28 45.1919 L1057.28 72.576 L1049.83 72.576 L1049.83 45.4349 Q1049.83 38.994 1047.31 35.7938 Q1044.8 32.5936 1039.78 32.5936 Q1033.74 32.5936 1030.26 36.4419 Q1026.78 40.2903 1026.78 46.9338 L1026.78 72.576 L1019.28 72.576 L1019.28 27.2059 L1026.78 27.2059 L1026.78 34.2544 Q1029.45 30.163 1033.05 28.1376 Q1036.7 26.1121 1041.44 26.1121 Q1049.26 26.1121 1053.27 30.9732 Q1057.28 35.7938 1057.28 45.1919 Z" fill="#000000" fill-rule="evenodd" fill-opacity="1" /><path clip-path="url(#clip570)" d="M1098.52 9.54393 L1105.97 9.54393 L1105.97 72.576 L1098.52 72.576 L1098.52 9.54393 Z" fill="#000000" fill-rule="evenodd" fill-opacity="1" /><path clip-path="url(#clip570)" d="M1142.19 49.7694 Q1133.15 49.7694 1129.67 51.8354 Q1126.19 53.9013 1126.19 58.8839 Q1126.19 62.8538 1128.78 65.2034 Q1131.41 67.5124 1135.91 67.5124 Q1142.11 67.5124 1145.83 63.1374 Q1149.6 58.7219 1149.6 51.4303 L1149.6 49.7694 L1142.19 49.7694 M1157.05 46.6907 L1157.05 72.576 L1149.6 72.576 L1149.6 65.6895 Q1147.05 69.8214 1143.24 71.8063 Q1139.43 73.7508 1133.92 73.7508 Q1126.95 73.7508 1122.82 69.8619 Q1118.73 65.9325 1118.73 59.3701 Q1118.73 51.7138 1123.84 47.825 Q1128.98 43.9361 1139.15 43.9361 L1149.6 43.9361 L1149.6 43.2069 Q1149.6 38.0623 1146.2 35.2672 Q1142.83 32.4315 1136.72 32.4315 Q1132.83 32.4315 1129.14 33.3632 Q1125.46 34.295 1122.05 36.1584 L1122.05 29.2718 Q1126.14 27.692 1129.99 26.9223 Q1133.84 26.1121 1137.49 26.1121 Q1147.33 26.1121 1152.19 31.2163 Q1157.05 36.3204 1157.05 46.6907 Z" fill="#000000" fill-rule="evenodd" fill-opacity="1" /><path clip-path="url(#clip570)" d="M1168.07 27.2059 L1175.53 27.2059 L1184.84 62.6108 L1194.12 27.2059 L1202.91 27.2059 L1212.23 62.6108 L1221.5 27.2059 L1228.96 27.2059 L1217.09 72.576 L1208.3 72.576 L1198.53 35.3887 L1188.73 72.576 L1179.94 72.576 L1168.07 27.2059 Z" fill="#000000" fill-rule="evenodd" fill-opacity="1" /><path clip-path="url(#clip570)" d="M1299.28 28.9478 L1299.28 35.9153 Q1296.12 34.1734 1292.92 33.3227 Q1289.76 32.4315 1286.52 32.4315 Q1279.27 32.4315 1275.26 37.0496 Q1271.25 41.6271 1271.25 49.9314 Q1271.25 58.2358 1275.26 62.8538 Q1279.27 67.4314 1286.52 67.4314 Q1289.76 67.4314 1292.92 66.5807 Q1296.12 65.6895 1299.28 63.9476 L1299.28 70.8341 Q1296.16 72.2924 1292.8 73.0216 Q1289.48 73.7508 1285.71 73.7508 Q1275.46 73.7508 1269.43 67.3098 Q1263.39 60.8689 1263.39 49.9314 Q1263.39 38.832 1269.47 32.472 Q1275.58 26.1121 1286.2 26.1121 Q1289.64 26.1121 1292.92 26.8413 Q1296.2 27.5299 1299.28 28.9478 Z" fill="#000000" fill-rule="evenodd" fill-opacity="1" /><path clip-path="url(#clip570)" d="M1329.82 32.4315 Q1323.83 32.4315 1320.35 37.1306 Q1316.86 41.7891 1316.86 49.9314 Q1316.86 58.0738 1320.3 62.7728 Q1323.79 67.4314 1329.82 67.4314 Q1335.78 67.4314 1339.26 62.7323 Q1342.75 58.0333 1342.75 49.9314 Q1342.75 41.8701 1339.26 37.1711 Q1335.78 32.4315 1329.82 32.4315 M1329.82 26.1121 Q1339.55 26.1121 1345.1 32.4315 Q1350.65 38.7509 1350.65 49.9314 Q1350.65 61.0714 1345.1 67.4314 Q1339.55 73.7508 1329.82 73.7508 Q1320.06 73.7508 1314.51 67.4314 Q1309 61.0714 1309 49.9314 Q1309 38.7509 1314.51 32.4315 Q1320.06 26.1121 1329.82 26.1121 Z" fill="#000000" fill-rule="evenodd" fill-opacity="1" /><path clip-path="url(#clip570)" d="M1401.81 48.0275 L1401.81 51.6733 L1367.54 51.6733 Q1368.02 59.3701 1372.16 63.421 Q1376.33 67.4314 1383.74 67.4314 Q1388.04 67.4314 1392.05 66.3781 Q1396.1 65.3249 1400.07 63.2184 L1400.07 70.267 Q1396.06 71.9684 1391.84 72.8596 Q1387.63 73.7508 1383.3 73.7508 Q1372.44 73.7508 1366.08 67.4314 Q1359.76 61.1119 1359.76 50.3365 Q1359.76 39.1965 1365.76 32.6746 Q1371.79 26.1121 1382 26.1121 Q1391.15 26.1121 1396.46 32.0264 Q1401.81 37.9003 1401.81 48.0275 M1394.36 45.84 Q1394.27 39.7232 1390.91 36.0774 Q1387.59 32.4315 1382.08 32.4315 Q1375.84 32.4315 1372.08 35.9558 Q1368.35 39.4801 1367.78 45.8805 L1394.36 45.84 Z" fill="#000000" fill-rule="evenodd" fill-opacity="1" /><path clip-path="url(#clip570)" d="M1437.01 9.54393 L1437.01 15.7418 L1429.88 15.7418 Q1425.87 15.7418 1424.29 17.3622 Q1422.75 18.9825 1422.75 23.1955 L1422.75 27.2059 L1435.03 27.2059 L1435.03 32.9987 L1422.75 32.9987 L1422.75 72.576 L1415.26 72.576 L1415.26 32.9987 L1408.13 32.9987 L1408.13 27.2059 L1415.26 27.2059 L1415.26 24.0462 Q1415.26 16.471 1418.78 13.0277 Q1422.31 9.54393 1429.96 9.54393 L1437.01 9.54393 Z" fill="#000000" fill-rule="evenodd" fill-opacity="1" /><path clip-path="url(#clip570)" d="M1466.22 9.54393 L1466.22 15.7418 L1459.09 15.7418 Q1455.08 15.7418 1453.5 17.3622 Q1451.96 18.9825 1451.96 23.1955 L1451.96 27.2059 L1464.23 27.2059 L1464.23 32.9987 L1451.96 32.9987 L1451.96 72.576 L1444.46 72.576 L1444.46 32.9987 L1437.34 32.9987 L1437.34 27.2059 L1444.46 27.2059 L1444.46 24.0462 Q1444.46 16.471 1447.99 13.0277 Q1451.51 9.54393 1459.17 9.54393 L1466.22 9.54393 Z" fill="#000000" fill-rule="evenodd" fill-opacity="1" /><path clip-path="url(#clip570)" d="M1472.46 27.2059 L1479.91 27.2059 L1479.91 72.576 L1472.46 72.576 L1472.46 27.2059 M1472.46 9.54393 L1479.91 9.54393 L1479.91 18.9825 L1472.46 18.9825 L1472.46 9.54393 Z" fill="#000000" fill-rule="evenodd" fill-opacity="1" /><path clip-path="url(#clip570)" d="M1528.16 28.9478 L1528.16 35.9153 Q1525 34.1734 1521.8 33.3227 Q1518.64 32.4315 1515.4 32.4315 Q1508.15 32.4315 1504.13 37.0496 Q1500.12 41.6271 1500.12 49.9314 Q1500.12 58.2358 1504.13 62.8538 Q1508.15 67.4314 1515.4 67.4314 Q1518.64 67.4314 1521.8 66.5807 Q1525 65.6895 1528.16 63.9476 L1528.16 70.8341 Q1525.04 72.2924 1521.68 73.0216 Q1518.35 73.7508 1514.59 73.7508 Q1504.34 73.7508 1498.3 67.3098 Q1492.27 60.8689 1492.27 49.9314 Q1492.27 38.832 1498.34 32.472 Q1504.46 26.1121 1515.07 26.1121 Q1518.52 26.1121 1521.8 26.8413 Q1525.08 27.5299 1528.16 28.9478 Z" fill="#000000" fill-rule="evenodd" fill-opacity="1" /><path clip-path="url(#clip570)" d="M1541.12 27.2059 L1548.57 27.2059 L1548.57 72.576 L1541.12 72.576 L1541.12 27.2059 M1541.12 9.54393 L1548.57 9.54393 L1548.57 18.9825 L1541.12 18.9825 L1541.12 9.54393 Z" fill="#000000" fill-rule="evenodd" fill-opacity="1" /><path clip-path="url(#clip570)" d="M1602.98 48.0275 L1602.98 51.6733 L1568.71 51.6733 Q1569.19 59.3701 1573.32 63.421 Q1577.5 67.4314 1584.91 67.4314 Q1589.2 67.4314 1593.21 66.3781 Q1597.26 65.3249 1601.23 63.2184 L1601.23 70.267 Q1597.22 71.9684 1593.01 72.8596 Q1588.8 73.7508 1584.46 73.7508 Q1573.61 73.7508 1567.25 67.4314 Q1560.93 61.1119 1560.93 50.3365 Q1560.93 39.1965 1566.92 32.6746 Q1572.96 26.1121 1583.17 26.1121 Q1592.32 26.1121 1597.63 32.0264 Q1602.98 37.9003 1602.98 48.0275 M1595.52 45.84 Q1595.44 39.7232 1592.08 36.0774 Q1588.76 32.4315 1583.25 32.4315 Q1577.01 32.4315 1573.24 35.9558 Q1569.52 39.4801 1568.95 45.8805 L1595.52 45.84 Z" fill="#000000" fill-rule="evenodd" fill-opacity="1" /><path clip-path="url(#clip570)" d="M1652.92 45.1919 L1652.92 72.576 L1645.47 72.576 L1645.47 45.4349 Q1645.47 38.994 1642.96 35.7938 Q1640.45 32.5936 1635.42 32.5936 Q1629.39 32.5936 1625.9 36.4419 Q1622.42 40.2903 1622.42 46.9338 L1622.42 72.576 L1614.93 72.576 L1614.93 27.2059 L1622.42 27.2059 L1622.42 34.2544 Q1625.09 30.163 1628.7 28.1376 Q1632.35 26.1121 1637.09 26.1121 Q1644.9 26.1121 1648.91 30.9732 Q1652.92 35.7938 1652.92 45.1919 Z" fill="#000000" fill-rule="evenodd" fill-opacity="1" /><path clip-path="url(#clip570)" d="M1675.16 14.324 L1675.16 27.2059 L1690.52 27.2059 L1690.52 32.9987 L1675.16 32.9987 L1675.16 57.6282 Q1675.16 63.1779 1676.66 64.7578 Q1678.2 66.3376 1682.86 66.3376 L1690.52 66.3376 L1690.52 72.576 L1682.86 72.576 Q1674.23 72.576 1670.95 69.3758 Q1667.67 66.1351 1667.67 57.6282 L1667.67 32.9987 L1662.2 32.9987 L1662.2 27.2059 L1667.67 27.2059 L1667.67 14.324 L1675.16 14.324 Z" fill="#000000" fill-rule="evenodd" fill-opacity="1" /><polyline clip-path="url(#clip572)" style="stroke:#009af9; stroke-linecap:butt; stroke-linejoin:round; stroke-width:4; stroke-opacity:1; fill:none" points="
  265.406,1447.87 275.587,1447.87 285.768,1447.86 295.949,1447.84 306.129,1447.81 316.31,1447.75 326.491,1447.66 336.672,1447.5 346.852,1447.25 357.033,1446.87 
  367.214,1446.31 377.395,1445.49 387.576,1444.33 397.756,1442.77 407.937,1440.7 418.118,1438.04 428.299,1434.74 438.479,1430.75 448.66,1426.07 458.841,1420.7 
  469.022,1414.71 479.203,1408.16 489.383,1401.13 499.564,1393.66 509.745,1385.78 519.926,1377.42 530.106,1368.47 540.287,1358.77 550.468,1348.06 560.649,1336.13 
  570.83,1322.75 581.01,1307.82 591.191,1291.36 601.372,1273.56 611.553,1254.82 621.734,1235.71 631.914,1216.94 642.095,1199.24 652.276,1183.32 662.457,1169.7 
  672.637,1158.64 682.818,1150.04 692.999,1143.44 703.18,1138.03 713.361,1132.74 723.541,1126.34 733.722,1117.64 743.903,1105.58 754.084,1089.41 764.264,1068.75 
  774.445,1043.59 784.626,1014.3 794.807,981.475 804.988,945.867 815.168,908.238 825.349,869.257 835.53,829.445 845.711,789.152 855.891,748.588 866.072,707.888 
  876.253,667.181 886.434,626.668 896.615,586.666 906.795,547.634 916.976,510.153 927.157,474.89 937.338,442.541 947.518,413.755 957.699,389.075 967.88,368.878 
  978.061,353.337 988.242,342.401 998.422,335.795 1008.6,333.043 1018.78,333.507 1028.96,336.433 1039.15,341.008 1049.33,346.41 1059.51,351.858 1069.69,356.656 
  1079.87,360.228 1090.05,362.156 1100.23,362.197 1110.41,360.306 1120.59,356.634 1130.77,351.512 1140.95,345.418 1151.13,338.937 1161.31,332.716 1171.5,327.432 
  1181.68,323.766 1191.86,322.409 1202.04,324.059 1212.22,329.43 1222.4,339.233 1232.58,354.133 1242.76,374.691 1252.94,401.271 1263.12,433.96 1273.3,472.499 
  1283.48,516.257 1293.66,564.242 1303.85,615.177 1314.03,667.607 1324.21,720.037 1334.39,771.074 1344.57,819.55 1354.75,864.617 1364.93,905.783 1375.11,942.913 
  1385.29,976.18 1395.47,1005.99 1405.65,1032.91 1415.83,1057.56 1426.02,1080.54 1436.2,1102.41 1446.38,1123.61 1456.56,1144.46 1466.74,1165.13 1476.92,1185.67 
  1487.1,1206.03 1497.28,1226.04 1507.46,1245.49 1517.64,1264.12 1527.82,1281.73 1538,1298.13 1548.18,1313.25 1558.37,1327.09 1568.55,1339.74 1578.73,1351.33 
  1588.91,1362.04 1599.09,1372.04 1609.27,1381.44 1619.45,1390.33 1629.63,1398.72 1639.81,1406.56 1649.99,1413.78 1660.17,1420.31 1670.35,1426.08 1680.53,1431.04 
  1690.72,1435.19 1700.9,1438.55 1711.08,1441.2 1721.26,1443.23 1731.44,1444.72 1741.62,1445.8 1751.8,1446.54 1761.98,1447.05 1772.16,1447.37 1782.34,1447.58 
  1792.52,1447.71 1802.7,1447.78 1812.88,1447.83 1823.07,1447.85 1833.25,1447.86 1843.43,1447.86 1853.61,1447.86 1863.79,1447.85 1873.97,1447.83 1884.15,1447.79 
  1894.33,1447.74 1904.51,1447.65 1914.69,1447.51 1924.87,1447.31 1935.05,1447.03 1945.23,1446.65 1955.42,1446.15 1965.6,1445.52 1975.78,1444.76 1985.96,1443.89 
  1996.14,1442.93 2006.32,1441.92 2016.5,1440.93 2026.68,1440.02 2036.86,1439.27 2047.04,1438.74 2057.22,1438.47 2067.4,1438.49 2077.59,1438.8 2087.77,1439.37 
  2097.95,1440.14 2108.13,1441.07 2118.31,1442.06 2128.49,1443.06 2138.67,1444.02 2148.85,1444.87 2159.03,1445.61 2169.21,1446.22 2179.39,1446.71 2189.57,1447.07 
  2199.75,1447.34 2209.94,1447.53 2220.12,1447.66 2230.3,1447.75 2240.48,1447.8 2250.66,1447.83 2260.84,1447.85 2271.02,1447.86 2281.2,1447.87 2291.38,1447.87 
  
  "/>
<polyline clip-path="url(#clip572)" style="stroke:#e26f46; stroke-linecap:butt; stroke-linejoin:round; stroke-width:4; stroke-opacity:1; fill:none" points="
  245.565,1447.87 254.486,1447.87 263.407,1447.87 272.329,1447.86 281.25,1447.85 290.171,1447.82 299.092,1447.79 308.013,1447.73 316.934,1447.65 325.856,1447.53 
  334.777,1447.36 343.698,1447.12 352.619,1446.78 361.54,1446.33 370.461,1445.74 379.383,1444.98 388.304,1444.02 397.225,1442.84 406.146,1441.41 415.067,1439.72 
  423.988,1437.75 432.91,1435.51 441.831,1432.99 450.752,1430.19 459.673,1427.14 468.594,1423.83 477.515,1420.27 486.437,1416.46 495.358,1412.37 504.279,1407.96 
  513.2,1403.2 522.121,1398 531.042,1392.3 539.963,1385.99 548.885,1378.99 557.806,1371.2 566.727,1362.54 575.648,1352.96 584.569,1342.41 593.49,1330.86 
  602.412,1318.32 611.333,1304.8 620.254,1290.34 629.175,1274.98 638.096,1258.8 647.017,1241.86 655.939,1224.26 664.86,1206.11 673.781,1187.55 682.702,1168.69 
  691.623,1149.69 700.544,1130.66 709.466,1111.7 718.387,1092.88 727.308,1074.19 736.229,1055.61 745.15,1037.02 754.071,1018.31 762.992,999.328 771.914,979.944 
  780.835,960.059 789.756,939.628 798.677,918.663 807.598,897.233 816.519,875.448 825.441,853.427 834.362,831.275 843.283,809.05 852.204,786.751 861.125,764.313 
  870.046,741.626 878.968,718.562 887.889,695.024 896.81,670.981 905.731,646.508 914.652,621.797 923.573,597.155 932.495,572.967 941.416,549.65 950.337,527.591 
  959.258,507.088 968.179,488.31 977.1,471.278 986.021,455.87 994.943,441.859 1003.86,428.963 1012.78,416.904 1021.71,405.463 1030.63,394.517 1039.55,384.063 
  1048.47,374.21 1057.39,365.155 1066.31,357.148 1075.23,350.447 1084.15,345.278 1093.08,341.802 1102,340.091 1110.92,340.128 1119.84,341.802 1128.76,344.936 
  1137.68,349.302 1146.6,354.649 1155.52,360.736 1164.44,367.349 1173.37,374.32 1182.29,381.545 1191.21,388.981 1200.13,396.649 1209.05,404.627 1217.97,413.043 
  1226.89,422.067 1235.81,431.904 1244.74,442.789 1253.66,454.977 1262.58,468.741 1271.5,484.354 1280.42,502.079 1289.34,522.144 1298.26,544.722 1307.18,569.902 
  1316.1,597.669 1325.03,627.889 1333.95,660.296 1342.87,694.5 1351.79,730 1360.71,766.209 1369.63,802.495 1378.55,838.218 1387.47,872.783 1396.39,905.683 
  1405.32,936.534 1414.24,965.108 1423.16,991.346 1432.08,1015.35 1441,1037.37 1449.92,1057.76 1458.84,1076.95 1467.76,1095.39 1476.69,1113.5 1485.61,1131.63 
  1494.53,1150.04 1503.45,1168.86 1512.37,1188.13 1521.29,1207.74 1530.21,1227.53 1539.13,1247.22 1548.05,1266.53 1556.98,1285.16 1565.9,1302.82 1574.82,1319.27 
  1583.74,1334.31 1592.66,1347.85 1601.58,1359.84 1610.5,1370.32 1619.42,1379.39 1628.35,1387.19 1637.27,1393.9 1646.19,1399.69 1655.11,1404.74 1664.03,1409.19 
  1672.95,1413.16 1681.87,1416.73 1690.79,1419.95 1699.71,1422.85 1708.64,1425.41 1717.56,1427.65 1726.48,1429.57 1735.4,1431.17 1744.32,1432.49 1753.24,1433.57 
  1762.16,1434.45 1771.08,1435.22 1780,1435.91 1788.93,1436.6 1797.85,1437.31 1806.77,1438.08 1815.69,1438.91 1824.61,1439.8 1833.53,1440.74 1842.45,1441.68 
  1851.37,1442.61 1860.3,1443.49 1869.22,1444.31 1878.14,1445.04 1887.06,1445.67 1895.98,1446.2 1904.9,1446.63 1913.82,1446.97 1922.74,1447.23 1931.66,1447.43 
  1940.59,1447.57 1949.51,1447.68 1958.43,1447.75 1967.35,1447.8 1976.27,1447.83 1985.19,1447.85 1994.11,1447.86 2003.03,1447.87 2011.95,1447.87 2020.88,1447.87 
  
  "/>
<polyline clip-path="url(#clip572)" style="stroke:#3da44d; stroke-linecap:butt; stroke-linejoin:round; stroke-width:4; stroke-opacity:1; fill:none" points="
  297.308,1447.87 306.248,1447.87 315.187,1447.86 324.127,1447.84 333.067,1447.82 342.007,1447.77 350.946,1447.7 359.886,1447.59 368.826,1447.41 377.766,1447.13 
  386.705,1446.72 395.645,1446.12 404.585,1445.25 413.525,1444.05 422.464,1442.4 431.404,1440.18 440.344,1437.28 449.284,1433.56 458.223,1428.89 467.163,1423.16 
  476.103,1416.28 485.043,1408.21 493.982,1398.93 502.922,1388.52 511.862,1377.11 520.802,1364.9 529.741,1352.15 538.681,1339.16 547.621,1326.27 556.561,1313.81 
  565.5,1302.1 574.44,1291.37 583.38,1281.81 592.32,1273.46 601.259,1266.29 610.199,1260.13 619.139,1254.73 628.079,1249.76 637.018,1244.85 645.958,1239.61 
  654.898,1233.71 663.838,1226.85 672.777,1218.83 681.717,1209.52 690.657,1198.91 699.597,1187.05 708.536,1174.05 717.476,1160.07 726.416,1145.26 735.356,1129.78 
  744.295,1113.72 753.235,1097.16 762.175,1080.08 771.115,1062.44 780.054,1044.13 788.994,1025.01 797.934,1004.91 806.874,983.669 815.813,961.116 824.753,937.125 
  833.693,911.608 842.633,884.531 851.572,855.922 860.512,825.873 869.452,794.538 878.392,762.123 887.331,728.874 896.271,695.059 905.211,660.944 914.151,626.78 
  923.09,592.779 932.03,559.105 940.97,525.869 949.91,493.135 958.849,460.928 967.789,429.257 976.729,398.138 985.669,367.625 994.608,337.833 1003.55,308.959 
  1012.49,281.297 1021.43,255.239 1030.37,231.265 1039.31,209.925 1048.25,191.802 1057.19,177.476 1066.13,167.475 1075.07,162.233 1084.01,162.047 1092.95,167.047 
  1101.89,177.176 1110.83,192.185 1119.76,211.645 1128.7,234.97 1137.64,261.456 1146.58,290.32 1155.52,320.751 1164.46,351.948 1173.4,383.169 1182.34,413.754 
  1191.28,443.156 1200.22,470.957 1209.16,496.871 1218.1,520.748 1227.04,542.562 1235.98,562.399 1244.92,580.435 1253.86,596.916 1262.8,612.131 1271.74,626.387 
  1280.68,639.997 1289.62,653.255 1298.56,666.433 1307.5,679.78 1316.44,693.52 1325.38,707.861 1334.32,722.999 1343.26,739.127 1352.2,756.432 1361.14,775.095 
  1370.08,795.278 1379.02,817.113 1387.96,840.68 1396.9,865.998 1405.84,893 1414.78,921.53 1423.72,951.338 1432.66,982.091 1441.6,1013.38 1450.54,1044.77 
  1459.48,1075.79 1468.42,1105.99 1477.35,1134.98 1486.29,1162.43 1495.23,1188.09 1504.17,1211.81 1513.11,1233.52 1522.05,1253.24 1530.99,1271.03 1539.93,1287.03 
  1548.87,1301.39 1557.81,1314.28 1566.75,1325.87 1575.69,1336.33 1584.63,1345.84 1593.57,1354.53 1602.51,1362.54 1611.45,1369.98 1620.39,1376.94 1629.33,1383.51 
  1638.27,1389.73 1647.21,1395.63 1656.15,1401.24 1665.09,1406.54 1674.03,1411.53 1682.97,1416.19 1691.91,1420.48 1700.85,1424.39 1709.79,1427.87 1718.73,1430.9 
  1727.67,1433.48 1736.61,1435.6 1745.55,1437.26 1754.49,1438.47 1763.43,1439.28 1772.37,1439.73 1781.31,1439.86 1790.25,1439.76 1799.19,1439.5 1808.13,1439.14 
  1817.07,1438.78 1826.01,1438.48 1834.95,1438.3 1843.88,1438.28 1852.82,1438.45 1861.76,1438.8 1870.7,1439.33 1879.64,1440.01 1888.58,1440.8 1897.52,1441.66 
  1906.46,1442.54 1915.4,1443.4 1924.34,1444.21 1933.28,1444.95 1942.22,1445.59 1951.16,1446.13 1960.1,1446.58 1969.04,1446.93 1977.98,1447.21 1986.92,1447.41 
  1995.86,1447.56 2004.8,1447.67 2013.74,1447.74 2022.68,1447.79 2031.62,1447.83 2040.56,1447.85 2049.5,1447.86 2058.44,1447.87 2067.38,1447.87 2076.32,1447.87 
  
  "/>
<path clip-path="url(#clip570)" d="
M1986.51 376.265 L2280.47 376.265 L2280.47 168.905 L1986.51 168.905  Z
  " fill="#ffffff" fill-rule="evenodd" fill-opacity="1"/>
<polyline clip-path="url(#clip570)" style="stroke:#000000; stroke-linecap:butt; stroke-linejoin:round; stroke-width:4; stroke-opacity:1; fill:none" points="
  1986.51,376.265 2280.47,376.265 2280.47,168.905 1986.51,168.905 1986.51,376.265 
  "/>
<polyline clip-path="url(#clip570)" style="stroke:#009af9; stroke-linecap:butt; stroke-linejoin:round; stroke-width:4; stroke-opacity:1; fill:none" points="
  2010.6,220.745 2155.18,220.745 
  "/>
<path clip-path="url(#clip570)" d="M2193.11 240.432 Q2191.31 245.062 2189.6 246.474 Q2187.88 247.886 2185.01 247.886 L2181.61 247.886 L2181.61 244.321 L2184.11 244.321 Q2185.87 244.321 2186.84 243.488 Q2187.81 242.654 2188.99 239.552 L2189.76 237.608 L2179.27 212.099 L2183.78 212.099 L2191.89 232.377 L2199.99 212.099 L2204.5 212.099 L2193.11 240.432 Z" fill="#000000" fill-rule="evenodd" fill-opacity="1" /><path clip-path="url(#clip570)" d="M2211.79 234.089 L2219.43 234.089 L2219.43 207.724 L2211.12 209.391 L2211.12 205.131 L2219.39 203.465 L2224.06 203.465 L2224.06 234.089 L2231.7 234.089 L2231.7 238.025 L2211.79 238.025 L2211.79 234.089 Z" fill="#000000" fill-rule="evenodd" fill-opacity="1" /><polyline clip-path="url(#clip570)" style="stroke:#e26f46; stroke-linecap:butt; stroke-linejoin:round; stroke-width:4; stroke-opacity:1; fill:none" points="
  2010.6,272.585 2155.18,272.585 
  "/>
<path clip-path="url(#clip570)" d="M2193.11 292.272 Q2191.31 296.902 2189.6 298.314 Q2187.88 299.726 2185.01 299.726 L2181.61 299.726 L2181.61 296.161 L2184.11 296.161 Q2185.87 296.161 2186.84 295.328 Q2187.81 294.494 2188.99 291.392 L2189.76 289.448 L2179.27 263.939 L2183.78 263.939 L2191.89 284.217 L2199.99 263.939 L2204.5 263.939 L2193.11 292.272 Z" fill="#000000" fill-rule="evenodd" fill-opacity="1" /><path clip-path="url(#clip570)" d="M2215.01 285.929 L2231.33 285.929 L2231.33 289.865 L2209.39 289.865 L2209.39 285.929 Q2212.05 283.175 2216.63 278.545 Q2221.24 273.893 2222.42 272.55 Q2224.66 270.027 2225.54 268.291 Q2226.45 266.531 2226.45 264.842 Q2226.45 262.087 2224.5 260.351 Q2222.58 258.615 2219.48 258.615 Q2217.28 258.615 2214.83 259.379 Q2212.4 260.143 2209.62 261.694 L2209.62 256.971 Q2212.44 255.837 2214.9 255.258 Q2217.35 254.68 2219.39 254.68 Q2224.76 254.68 2227.95 257.365 Q2231.15 260.05 2231.15 264.541 Q2231.15 266.67 2230.34 268.592 Q2229.55 270.49 2227.44 273.082 Q2226.86 273.754 2223.76 276.971 Q2220.66 280.166 2215.01 285.929 Z" fill="#000000" fill-rule="evenodd" fill-opacity="1" /><polyline clip-path="url(#clip570)" style="stroke:#3da44d; stroke-linecap:butt; stroke-linejoin:round; stroke-width:4; stroke-opacity:1; fill:none" points="
  2010.6,324.425 2155.18,324.425 
  "/>
<path clip-path="url(#clip570)" d="M2193.11 344.112 Q2191.31 348.742 2189.6 350.154 Q2187.88 351.566 2185.01 351.566 L2181.61 351.566 L2181.61 348.001 L2184.11 348.001 Q2185.87 348.001 2186.84 347.168 Q2187.81 346.334 2188.99 343.232 L2189.76 341.288 L2179.27 315.779 L2183.78 315.779 L2191.89 336.057 L2199.99 315.779 L2204.5 315.779 L2193.11 344.112 Z" fill="#000000" fill-rule="evenodd" fill-opacity="1" /><path clip-path="url(#clip570)" d="M2225.15 323.07 Q2228.51 323.788 2230.38 326.057 Q2232.28 328.325 2232.28 331.658 Q2232.28 336.774 2228.76 339.575 Q2225.24 342.376 2218.76 342.376 Q2216.59 342.376 2214.27 341.936 Q2211.98 341.519 2209.53 340.663 L2209.53 336.149 Q2211.47 337.283 2213.78 337.862 Q2216.1 338.441 2218.62 338.441 Q2223.02 338.441 2225.31 336.705 Q2227.63 334.969 2227.63 331.658 Q2227.63 328.603 2225.47 326.89 Q2223.34 325.154 2219.53 325.154 L2215.5 325.154 L2215.5 321.311 L2219.71 321.311 Q2223.16 321.311 2224.99 319.946 Q2226.82 318.557 2226.82 315.964 Q2226.82 313.302 2224.92 311.89 Q2223.04 310.455 2219.53 310.455 Q2217.6 310.455 2215.41 310.871 Q2213.21 311.288 2210.57 312.168 L2210.57 308.001 Q2213.23 307.26 2215.54 306.89 Q2217.88 306.52 2219.94 306.52 Q2225.27 306.52 2228.37 308.95 Q2231.47 311.358 2231.47 315.478 Q2231.47 318.348 2229.83 320.339 Q2228.18 322.307 2225.15 323.07 Z" fill="#000000" fill-rule="evenodd" fill-opacity="1" /></svg>
